<?xml version="1.0" encoding="iso-8859-1"?>
<!-- Generator: Adobe Illustrator 14.0.0, SVG Export Plug-In . SVG Version: 6.00 Build 43363)  -->
<!DOCTYPE svg PUBLIC "-//W3C//DTD SVG 1.1//EN" "http://www.w3.org/Graphics/SVG/1.1/DTD/svg11.dtd">
<svg version="1.1" id="icon-l-video-layer" xmlns="http://www.w3.org/2000/svg" xmlns:xlink="http://www.w3.org/1999/xlink" x="0px"
	 y="0px" width="48px" height="39px" viewBox="0 0 48 39" style="enable-background:new 0 0 48 39;" xml:space="preserve">
<g id="icon-l-video_1_">
	<path style="fill:#EB2D7C;" d="M34.041,11.734c-7.5,0-13.579,6.078-13.579,13.578s6.079,13.58,13.579,13.58
		s13.578-6.08,13.578-13.58S41.541,11.734,34.041,11.734z M41.447,26.006l-10.366,6.043c-0.651,0.381-1.184,0.074-1.184-0.68V19.256
		c0-0.752,0.532-1.061,1.184-0.68l10.366,6.049C42.099,25.002,42.099,25.625,41.447,26.006z M15.946,25.312
		c0-0.125,0.006-0.246,0.01-0.371l-3.482,0.004V24.92h-0.013V9.967h0.013V9.943h12.033c1.232-0.768,2.565-1.39,3.97-1.846h-0.28
		c-0.412,0-0.746-1-0.746-1.41V3.711c0-0.408,0.334-0.743,0.746-0.743h2.977c0.407,0,0.742,0.335,0.742,0.743v2.977
		c0,0.166-0.055,0.428-0.146,0.68c0.744-0.093,1.502-0.148,2.272-0.148c1.124,0,2.226,0.109,3.296,0.308
		c-0.13-0.298-0.21-0.638-0.21-0.839V3.711c0-0.408,0.335-0.743,0.745-0.743h2.004V0H0v2.934v0.034h2.022
		c0.406,0,0.742,0.335,0.742,0.743v2.943c0,0.408-0.336,1.408-0.742,1.408H0v0.035v1.846v0.023h8.724V24.92H0v0.025v2.469v0.033
		h2.022c0.406,0,0.742,0.338,0.742,0.744v2.943c0,0.408-0.336,0.744-0.742,0.744H0v0.035v2.354h18.327
		C16.814,31.625,15.946,28.568,15.946,25.312z M17.743,3.711c0-0.408,0.337-0.743,0.744-0.743h2.979c0.41,0,0.743,0.335,0.743,0.743
		v2.977c0,0.41-0.333,1.41-0.743,1.41h-2.979c-0.407,0-0.744-1-0.744-1.41V3.711z M8.008,6.654V3.711
		c0-0.408,0.333-0.743,0.742-0.743h2.976c0.412,0,0.748,0.335,0.748,0.743v2.943c0,0.408-0.336,1.408-0.748,1.408H8.75
		C8.341,8.062,8.008,7.062,8.008,6.654z M12.474,31.135c0,0.408-0.336,0.744-0.748,0.744H8.75c-0.409,0-0.742-0.336-0.742-0.744
		v-2.943c0-0.406,0.333-0.744,0.742-0.744h2.976c0.412,0,0.748,0.338,0.748,0.744V31.135z M39.876,8.098v0.092
		c-0.09-0.029-0.18-0.062-0.272-0.092H39.876z"/>
</g>
</svg>
