<?xml version="1.0" encoding="iso-8859-1"?>
<!-- Generator: Adobe Illustrator 14.0.0, SVG Export Plug-In . SVG Version: 6.00 Build 43363)  -->
<!DOCTYPE svg PUBLIC "-//W3C//DTD SVG 1.1//EN" "http://www.w3.org/Graphics/SVG/1.1/DTD/svg11.dtd">
<svg version="1.1" id="icon-l-ovi-store-layer" xmlns="http://www.w3.org/2000/svg" xmlns:xlink="http://www.w3.org/1999/xlink"
	 x="0px" y="0px" width="39px" height="43px" viewBox="0 0 39 43" style="enable-background:new 0 0 39 43;" xml:space="preserve">
<g id="icon-l-ovi-store_2_">
	<path style="fill:#359FD9;" d="M13.343,29.262c0,2.145-0.218,3.473-1.304,3.473c-1.135,0-1.287-1.756-1.287-3.473
		c0-2.15,0.372-3.029,1.287-3.029C13.118,26.232,13.343,27.881,13.343,29.262z M38.289,42.65H0l2.063-32.031h6.25l2.805-5.504
		c0.265-0.863,2.479-4.941,7.818-5.102L19.293,0l0.053,0.014c5.366,0.156,7.564,4.232,7.825,5.102l2.806,5.504h6.25L38.289,42.65z
		 M11.978,10.619h14.338l-2.234-4.405c-1.233-2.391-3.368-2.915-4.94-2.931c-2.248,0.023-3.96,1.042-4.938,2.946l-0.044,0.104
		L11.978,10.619z M7.26,18.875c1.576,0,2.857-1.277,2.857-2.857s-1.281-2.859-2.857-2.859c-1.578,0-2.856,1.279-2.856,2.859
		S5.682,18.875,7.26,18.875z M30.337,23.467l-3.569,0.002c-0.113,0-0.251,0.008-0.393,0.031l0.011-0.033h-3.603l-1.6,6.355
		l-1.513-6.355h-4.075l0.414,1.436c-0.898-1.025-2.228-1.582-3.936-1.582c-3.283,0-5.323,2.193-5.323,5.727
		c0,3.908,1.878,6.061,5.288,6.061c3.273,0,5.177-2.072,5.284-5.672l1.087,3.754c0.273,0.893,0.805,1.918,2.509,1.918
		c1.657,0,2.197-0.967,2.508-1.918l2.282-7.498c0.214,0.291,0.493,0.379,0.75,0.404v7.189c0,0.301,0,1.004,0.617,1.441
		c0.247,0.174,0.676,0.381,1.318,0.381c0.523,0,0.968-0.129,1.328-0.383c0.614-0.436,0.614-1.139,0.614-1.439V23.467z
		 M30.512,21.479c0-1.079-0.859-1.836-2.091-1.836c-1.271,0-2.091,0.721-2.091,1.836c0,1.099,0.841,1.837,2.091,1.837
		S30.512,22.578,30.512,21.479z M33.899,16.018c0-1.58-1.274-2.859-2.855-2.859c-1.579,0-2.859,1.279-2.859,2.859
		c0,1.578,1.28,2.857,2.859,2.857C32.625,18.875,33.899,17.596,33.899,16.018z"/>
</g>
</svg>
