<?xml version="1.0" encoding="iso-8859-1"?>
<!-- Generator: Adobe Illustrator 14.0.0, SVG Export Plug-In . SVG Version: 6.00 Build 43363)  -->
<!DOCTYPE svg PUBLIC "-//W3C//DTD SVG 1.1//EN" "http://www.w3.org/Graphics/SVG/1.1/DTD/svg11.dtd">
<svg version="1.1" id="icon-l-contacts-layer" xmlns="http://www.w3.org/2000/svg" xmlns:xlink="http://www.w3.org/1999/xlink"
	 x="0px" y="0px" width="46px" height="45px" viewBox="0 0 46 45" style="enable-background:new 0 0 46 45;" xml:space="preserve">
<g id="icon-l-contacts_1_">
	<path style="fill:#1D76BB;" d="M7.269,34.713H1.521C0.683,34.713,0,34.028,0,33.194v-0.373c0-0.834,0.683-1.518,1.521-1.518h5.747
		c0.837,0,1.523,0.684,1.523,1.518v0.373C8.792,34.028,8.105,34.713,7.269,34.713z M1.521,12.229h5.747
		c0.837,0,1.523-0.682,1.523-1.517v-0.373c0-0.833-0.687-1.517-1.523-1.517H1.521C0.683,8.822,0,9.506,0,10.339v0.373
		C0,11.547,0.683,12.229,1.521,12.229z M7.197,44.214v-4.652c3.205-0.362,5.696-3.023,5.696-6.262c0-3.236-2.491-5.902-5.696-6.262
		v-9.804c3.205-0.362,5.696-3.025,5.696-6.261c0-3.237-2.491-5.901-5.696-6.263V0h37.089c0.785,0,1.428,0.643,1.428,1.428v4.604
		v32.155v4.6c0,0.785-0.643,1.428-1.428,1.428H7.197z M24.155,12.896c0,1.568,0.229,2.998,1.271,4.932
		c1.975,3.714,5.188,3.84,7.519,0c1.043-1.934,1.272-3.363,1.272-4.932c0-2.856-2.221-5.222-5.033-5.222
		C26.37,7.675,24.155,10.04,24.155,12.896z M39.01,31.434c-0.003-3.839-1.145-7.159-4.476-8.777
		c-2.065,1.937-4.183,2.291-5.447,2.291h-0.001c-1.964,0-3.8-0.799-5.319-2.254c-3.281,1.631-4.411,4.932-4.411,8.74v1.794
		c0,4.415,19.654,4.415,19.654,0V31.434z"/>
</g>
</svg>
