<?xml version="1.0" encoding="iso-8859-1"?>
<!-- Generator: Adobe Illustrator 14.0.0, SVG Export Plug-In . SVG Version: 6.00 Build 43363)  -->
<!DOCTYPE svg PUBLIC "-//W3C//DTD SVG 1.1//EN" "http://www.w3.org/Graphics/SVG/1.1/DTD/svg11.dtd">
<svg version="1.1" id="icon-l-rss-layer" xmlns="http://www.w3.org/2000/svg" xmlns:xlink="http://www.w3.org/1999/xlink" x="0px"
	 y="0px" width="44px" height="44px" viewBox="0 0 44 44" style="enable-background:new 0 0 44 44;" xml:space="preserve">
<g id="icon-l-rss_1_">
	<path style="fill:#F78F20;" d="M5.807,43.809C2.605,43.809,0,41.203,0,38c0-3.199,2.605-5.803,5.807-5.803
		c3.203,0,5.807,2.604,5.807,5.803C11.613,41.203,9.01,43.809,5.807,43.809z M20.062,42.752c0-10.488-8.509-19.002-19.001-19.002
		v-7.122c14.432,0,26.126,11.696,26.126,26.124H20.062z M36.686,42.752c0-19.674-15.951-35.624-35.625-35.624V0
		c23.606,0,42.756,19.143,42.756,42.752H36.686z"/>
</g>
</svg>
