<?xml version="1.0" encoding="iso-8859-1"?>
<!-- Generator: Adobe Illustrator 14.0.0, SVG Export Plug-In . SVG Version: 6.00 Build 43363)  -->
<!DOCTYPE svg PUBLIC "-//W3C//DTD SVG 1.1//EN" "http://www.w3.org/Graphics/SVG/1.1/DTD/svg11.dtd">
<svg version="1.1" id="icon-l-activities-layer" xmlns="http://www.w3.org/2000/svg" xmlns:xlink="http://www.w3.org/1999/xlink"
	 x="0px" y="0px" width="43px" height="43px" viewBox="0 0 43 43" style="enable-background:new 0 0 43 43;" xml:space="preserve">
<g id="icon-l-activities_4_">
	<path id="icon-l-activities_2_" style="fill:#F78F20;" d="M40.952,8.57H29.524V1.904C29.524,0.951,28.571,0,27.619,0H1.905
		C0.952,0,0,0.951,0,1.904v19.047c0,0.953,0.952,1.906,1.905,1.906h7.619v10.475c0,0.953,0.952,1.904,1.904,1.904h14.286v6.668
		c0,0,0,0.953,0.946,0.953c0.958,0,5.72-7.621,5.72-7.621h8.571c0.953,0,1.905-0.951,1.905-1.904V10.476
		C42.857,9.522,41.905,8.57,40.952,8.57z M29.524,20.951c0,0.953-0.953,1.906-1.905,1.906h-3.81v4.76c0,0,0,0.953-0.952,0.953
		s-3.81-5.713-3.81-5.713H9.524V10.476c0-0.953,0.952-1.905,1.904-1.905h18.096V20.951z"/>
</g>
</svg>
