<?xml version="1.0" encoding="iso-8859-1"?>
<!-- Generator: Adobe Illustrator 14.0.0, SVG Export Plug-In . SVG Version: 6.00 Build 43363)  -->
<!DOCTYPE svg PUBLIC "-//W3C//DTD SVG 1.1//EN" "http://www.w3.org/Graphics/SVG/1.1/DTD/svg11.dtd">
<svg version="1.1" id="icon-l-ovi-layer" xmlns="http://www.w3.org/2000/svg" xmlns:xlink="http://www.w3.org/1999/xlink" x="0px"
	 y="0px" width="48px" height="31px" viewBox="0 0 48 31" style="enable-background:new 0 0 48 31;" xml:space="preserve">
<g id="icon-l-ovi">
	<path style="fill:#479142;" d="M10.039,30.273C2.57,30.273,0,25.139,0,18.625C0,12.189,3.487,7.67,10.115,7.67
		c6.859,0,10.002,4.56,10.002,11.107C20.117,25.637,16.938,30.273,10.039,30.273z M10.039,11.194c-3.41,0-3.678,4.138-3.678,7.315
		c0,3.258,0.152,8.238,3.678,8.238c3.527,0,3.714-4.443,3.714-8.238C13.753,15.562,13.295,11.194,10.039,11.194z M18.781,7.979
		h6.402l3.91,16.443l4.141-16.443h5.402l-5.783,19.001c-0.643,1.954-1.594,3.294-4.285,3.294c-2.689,0-3.686-1.34-4.279-3.294
		L18.781,7.979z M44.223,5.67c-1.953,0-3.372-0.996-3.372-2.834c0-1.84,1.38-2.836,3.372-2.836c1.875,0,3.371,1.036,3.371,2.836
		C47.594,4.674,46.178,5.67,44.223,5.67z M41.127,27.461c0,0.559,0,1.59,0.863,2.199c0.451,0.318,1.168,0.613,2.176,0.613
		c1.049,0,1.74-0.291,2.193-0.613c0.867-0.609,0.867-1.641,0.867-2.199V7.977h-6.037c0,0-0.215,0.002-0.416,0.002
		c-0.587,0-1.07,0.011-1.412,0.474c-0.161,0.212-0.377,0.601-0.377,1.286c0,0.721,0.216,1.078,0.377,1.293
		c0.342,0.461,0.825,0.463,1.412,0.463c0.201,0,0.354,0,0.354,0V27.461z"/>
</g>
</svg>
