<?xml version="1.0" encoding="iso-8859-1"?>
<!-- Generator: Adobe Illustrator 14.0.0, SVG Export Plug-In . SVG Version: 6.00 Build 43363)  -->
<!DOCTYPE svg PUBLIC "-//W3C//DTD SVG 1.1//EN" "http://www.w3.org/Graphics/SVG/1.1/DTD/svg11.dtd">
<svg version="1.1" xmlns="http://www.w3.org/2000/svg" xmlns:xlink="http://www.w3.org/1999/xlink" x="0px" y="0px" width="130px"
	 height="714px" viewBox="0 0 130 714" style="enable-background:new 0 0 130 714;" xml:space="preserve">
<g id="camerauicustomassets-layer">
</g>
<g id="dui-theme-rd">
	<g id="camerauicustomassets">
		<g id="CameraUiThemeTemplateHelper">
			<g>
				<path style="fill:#B3B3B3;" d="M16,712.964c-8.271,0-15-6.729-15-15V16C1,7.729,7.729,1,16,1h98c8.271,0,15,6.729,15,15v681.964
					c0,8.271-6.729,15-15,15H16z"/>
				<g>
					<path d="M114,2c7.72,0,14,6.28,14,14v681.964c0,7.72-6.28,14-14,14H16c-7.72,0-14-6.28-14-14V16C2,8.28,8.28,2,16,2H114 M114,0
						H16C7.2,0,0,7.2,0,16v681.964c0,8.8,7.2,16,16,16h98c8.8,0,16-7.2,16-16V16C130,7.2,122.8,0,114,0L114,0z"/>
				</g>
			</g>
			<path style="fill:#010101;" d="M27.818,34.935c-0.752,0.387-2.328,0.775-4.312,0.775c-4.605,0-8.046-2.905-8.046-8.286
				c0-5.135,3.464-8.576,8.528-8.576c2.011,0,3.32,0.435,3.877,0.727l-0.533,1.721c-0.775-0.387-1.913-0.68-3.271-0.68
				c-3.827,0-6.372,2.447-6.372,6.736c0,4.021,2.3,6.565,6.25,6.565c1.31,0,2.617-0.267,3.467-0.679L27.818,34.935z"/>
			<path style="fill:#010101;" d="M38.485,32.635c0,1.016,0.05,2.008,0.169,2.809h-1.913l-0.17-1.477h-0.073
				c-0.654,0.921-1.913,1.743-3.586,1.743c-2.373,0-3.585-1.671-3.585-3.367c0-2.835,2.52-4.386,7.049-4.36v-0.244
				c0-0.943-0.265-2.713-2.663-2.688c-1.115,0-2.253,0.313-3.078,0.872l-0.484-1.431c0.971-0.605,2.398-1.018,3.878-1.018
				c3.585,0,4.457,2.448,4.457,4.772V32.635z M36.426,29.458C34.1,29.411,31.46,29.821,31.46,32.1c0,1.407,0.919,2.036,1.984,2.036
				c1.551,0,2.545-0.969,2.884-1.963c0.074-0.243,0.098-0.485,0.098-0.679V29.458z"/>
			<path style="fill:#010101;" d="M41.932,26.89c0-1.235-0.047-2.204-0.095-3.173h1.864l0.098,1.914h0.072
				c0.652-1.115,1.746-2.156,3.707-2.156c1.574,0,2.785,0.969,3.295,2.35h0.049c0.363-0.679,0.847-1.162,1.332-1.527
				c0.702-0.532,1.454-0.822,2.568-0.822c1.574,0,3.877,1.018,3.877,5.088v6.881h-2.084v-6.614c0-2.276-0.848-3.608-2.543-3.608
				c-1.236,0-2.158,0.896-2.545,1.914c-0.096,0.312-0.169,0.678-0.169,1.064v7.244h-2.083v-7.027c0-1.863-0.825-3.195-2.447-3.195
				c-1.31,0-2.305,1.065-2.644,2.131c-0.118,0.291-0.169,0.678-0.169,1.041v7.051h-2.084V26.89z"/>
			<path style="fill:#010101;" d="M63.338,29.967c0.049,2.885,1.865,4.072,4.022,4.072c1.524,0,2.472-0.268,3.245-0.607l0.389,1.527
				c-0.752,0.339-2.058,0.751-3.924,0.751c-3.61,0-5.77-2.396-5.77-5.937c0-3.537,2.086-6.299,5.501-6.299
				c3.853,0,4.848,3.344,4.848,5.5c0,0.437-0.026,0.752-0.073,0.992H63.338z M69.59,28.44c0.023-1.33-0.559-3.438-2.957-3.438
				c-2.181,0-3.102,1.963-3.271,3.438H69.59z"/>
			<path style="fill:#010101;" d="M74.295,27.375c0-1.381-0.023-2.568-0.095-3.658h1.864l0.097,2.326h0.073
				c0.532-1.576,1.84-2.568,3.271-2.568c0.219,0,0.389,0.025,0.582,0.049v2.011c-0.22-0.05-0.438-0.05-0.727-0.05
				c-1.504,0-2.568,1.117-2.861,2.715c-0.047,0.292-0.07,0.655-0.07,0.994v6.25h-2.135V27.375z"/>
			<path style="fill:#010101;" d="M90.34,32.635c0,1.016,0.05,2.008,0.17,2.809h-1.914l-0.17-1.477h-0.072
				c-0.654,0.921-1.914,1.743-3.587,1.743c-2.373,0-3.585-1.671-3.585-3.367c0-2.835,2.52-4.386,7.049-4.36v-0.244
				c0-0.943-0.264-2.713-2.662-2.688c-1.115,0-2.254,0.313-3.078,0.872l-0.485-1.431c0.971-0.605,2.399-1.018,3.878-1.018
				c3.586,0,4.457,2.448,4.457,4.772V32.635z M88.28,29.458c-2.325-0.047-4.966,0.363-4.966,2.642c0,1.407,0.92,2.036,1.984,2.036
				c1.551,0,2.546-0.969,2.885-1.963c0.073-0.243,0.097-0.485,0.097-0.679V29.458z"/>
			<path style="fill:#010101;" d="M95.969,19.112v9.692c0,3.635,1.621,5.186,3.804,5.186c2.399,0,3.974-1.601,3.974-5.186v-9.692
				h2.131v9.549c0,5.015-2.641,7.049-6.18,7.049c-3.342,0-5.863-1.89-5.863-6.978v-9.62H95.969z"/>
			<path style="fill:#010101;" d="M111.847,20.422c0,0.727-0.509,1.309-1.357,1.309c-0.773,0-1.282-0.582-1.282-1.309
				c0-0.728,0.532-1.333,1.332-1.333C111.314,19.089,111.847,19.671,111.847,20.422z M109.471,35.443V23.717h2.135v11.727H109.471z"
				/>
		</g>
		<g id="camera-pre-capture-button-top-background">
			<path style="fill:#1A1A1A;" d="M37.028,595.896c-3.032,0-5.5,2.467-5.5,5.5v82h71.5v-87.5H37.028z"/>
			<path style="fill:#666666;" d="M32.028,601.396c0-2.758,2.244-5,5-5h66v-1h-66c-3.299,0-6,2.699-6,6v82h1V601.396z"/>
			<rect x="43.028" y="682.396" style="fill:#808080;" width="48" height="1"/>
		</g>
		<g id="camera-pre-capture-button-top-background-pressed">
			<linearGradient id="SVGID_1_" gradientUnits="userSpaceOnUse" x1="67.2783" y1="497.8955" x2="67.2783" y2="585.3955">
				<stop  offset="0" style="stop-color:#74CCD4"/>
				<stop  offset="0.1301" style="stop-color:#66C2D6"/>
				<stop  offset="0.4156" style="stop-color:#4BB5DC"/>
				<stop  offset="0.7046" style="stop-color:#35ADDF"/>
				<stop  offset="1" style="stop-color:#2AAAE2"/>
			</linearGradient>
			<path style="fill:url(#SVGID_1_);" d="M37.028,497.896c-3.032,0-5.5,2.469-5.5,5.5v82h71.5v-87.5H37.028z"/>
			<path style="fill:#666666;" d="M32.028,503.396c0-2.756,2.244-5,5-5h66v-1h-66c-3.299,0-6,2.701-6,6v82h1V503.396z"/>
			<rect x="43.028" y="584.396" style="fill:#808080;" width="48" height="1"/>
		</g>
		<g id="camera-pre-capture-button-bottom-background">
			<path style="fill:#1A1A1A;" d="M31.528,481.396c0,3.033,2.468,5.5,5.5,5.5h60c3.033,0,6,0,6,0v-87.501h-71.5V481.396z"/>
			<path style="fill:#666666;" d="M31.028,399.396v82.001c0,3.301,2.701,6,6,6h66v-1h-66c-2.756,0-5-2.242-5-5v-82.001H31.028z"/>
			<rect x="43.028" y="399.396" style="fill:#010101;" width="48" height="1"/>
		</g>
		<g id="camera-pre-capture-button-bottom-background-pressed">
			<linearGradient id="SVGID_2_" gradientUnits="userSpaceOnUse" x1="67.2783" y1="301.3955" x2="67.2783" y2="388.895">
				<stop  offset="0" style="stop-color:#74CCD4"/>
				<stop  offset="0.1301" style="stop-color:#66C2D6"/>
				<stop  offset="0.4156" style="stop-color:#4BB5DC"/>
				<stop  offset="0.7046" style="stop-color:#35ADDF"/>
				<stop  offset="1" style="stop-color:#2AAAE2"/>
			</linearGradient>
			<path style="fill:url(#SVGID_2_);" d="M31.528,383.395c0,3.033,2.468,5.5,5.5,5.5h60c3.033,0,6,0,6,0v-87.499h-71.5V383.395z"/>
			<path style="fill:#666666;" d="M31.028,301.396v81.999c0,3.301,2.701,6,6,6h66v-1h-66c-2.756,0-5-2.242-5-5v-81.999H31.028z"/>
			<rect x="43.028" y="301.396" style="fill:#010101;" width="48" height="1"/>
		</g>
		<g id="camera-panoramastitchingbutton-background">
			<path style="fill:#1A1A1A;" d="M37.028,290.896c-3.033,0-5.5-2.469-5.5-5.5v-76c0-3.032,2.467-5.5,5.5-5.5h66v87H37.028z"/>
			<path style="fill:#666666;" d="M103.028,204.396v-1h-66c-3.3,0-6,2.7-6,6v76c0,3.299,2.7,6,6,6h66v-1h-66c-2.757,0-5-2.244-5-5
				v-76c0-2.757,2.243-5,5-5H103.028z"/>
		</g>
		<g id="camera-panoramastitchingbutton-background-pressed">
			<linearGradient id="SVGID_3_" gradientUnits="userSpaceOnUse" x1="67.2783" y1="105.8955" x2="67.2783" y2="192.8955">
				<stop  offset="0" style="stop-color:#74CCD4"/>
				<stop  offset="0.1301" style="stop-color:#66C2D6"/>
				<stop  offset="0.4156" style="stop-color:#4BB5DC"/>
				<stop  offset="0.7046" style="stop-color:#35ADDF"/>
				<stop  offset="1" style="stop-color:#2AAAE2"/>
			</linearGradient>
			<path style="fill:url(#SVGID_3_);" d="M37.028,192.896c-3.033,0-5.5-2.468-5.5-5.5v-76c0-3.032,2.467-5.5,5.5-5.5h66v87H37.028z"
				/>
			<path style="fill:#666666;" d="M103.028,106.396v-1h-66c-3.299,0-6,2.7-6,6v76c0,3.3,2.701,6,6,6h66v-1h-66c-2.756,0-5-2.243-5-5
				v-76c0-2.757,2.244-5,5-5H103.028z"/>
		</g>
		<g id="camera-exposurevalue-tickmark">
			<rect x="31.028" y="85.396" style="opacity:0.5;fill:#231F20;" width="1" height="10"/>
			<rect x="32.028" y="85.396" style="fill:#FFFFFF;" width="1" height="10"/>
		</g>
	</g>
</g>
</svg>
