<?xml version="1.0" encoding="UTF-8" standalone="no"?>
<!-- Created with Inkscape (http://www.inkscape.org/) -->

<svg
   xmlns:dc="http://purl.org/dc/elements/1.1/"
   xmlns:cc="http://creativecommons.org/ns#"
   xmlns:rdf="http://www.w3.org/1999/02/22-rdf-syntax-ns#"
   xmlns:svg="http://www.w3.org/2000/svg"
   xmlns="http://www.w3.org/2000/svg"
   xmlns:xlink="http://www.w3.org/1999/xlink"
   xmlns:sodipodi="http://sodipodi.sourceforge.net/DTD/sodipodi-0.dtd"
   xmlns:inkscape="http://www.inkscape.org/namespaces/inkscape"
   width="320"
   height="320"
   id="svg3790"
   version="1.1"
   inkscape:version="0.47pre4 r22446"
   sodipodi:docname="duibubbleitem.svg">
  <defs
     id="defs3792">
    <linearGradient
       id="linearGradient5518"
       inkscape:collect="always">
      <stop
         id="stop5520"
         offset="0"
         style="stop-color:#888a85;stop-opacity:1" />
      <stop
         id="stop5522"
         offset="1"
         style="stop-color:#555753;stop-opacity:1" />
    </linearGradient>
    <linearGradient
       inkscape:collect="always"
       id="linearGradient5432">
      <stop
         style="stop-color:#f8f8f8;stop-opacity:1"
         offset="0"
         id="stop5434" />
      <stop
         style="stop-color:#e7e7e5;stop-opacity:1"
         offset="1"
         id="stop5436" />
    </linearGradient>
    <inkscape:perspective
       sodipodi:type="inkscape:persp3d"
       inkscape:vp_x="0 : 526.18109 : 1"
       inkscape:vp_y="0 : 1000 : 0"
       inkscape:vp_z="744.09448 : 526.18109 : 1"
       inkscape:persp3d-origin="372.04724 : 350.78739 : 1"
       id="perspective3798" />
    <linearGradient
       inkscape:collect="always"
       xlink:href="#linearGradient5432"
       id="linearGradient5441"
       gradientUnits="userSpaceOnUse"
       x1="88.178322"
       y1="73.32885"
       x2="88.178322"
       y2="104.47014" />
    <linearGradient
       inkscape:collect="always"
       xlink:href="#linearGradient5432"
       id="linearGradient5490"
       gradientUnits="userSpaceOnUse"
       x1="88.178322"
       y1="73.32885"
       x2="88.178322"
       y2="104.47014" />
    <linearGradient
       inkscape:collect="always"
       xlink:href="#linearGradient5518"
       id="linearGradient5508"
       gradientUnits="userSpaceOnUse"
       x1="88.178322"
       y1="73.32885"
       x2="88.178322"
       y2="104.47014" />
    <linearGradient
       inkscape:collect="always"
       xlink:href="#linearGradient5518"
       id="linearGradient5510"
       gradientUnits="userSpaceOnUse"
       x1="88.178322"
       y1="73.32885"
       x2="88.178322"
       y2="104.47014" />
    <linearGradient
       inkscape:collect="always"
       xlink:href="#linearGradient5432"
       id="linearGradient5516"
       gradientUnits="userSpaceOnUse"
       x1="88.178322"
       y1="73.32885"
       x2="88.178322"
       y2="104.47014" />
  </defs>
  <sodipodi:namedview
     id="base"
     pagecolor="#ffffff"
     bordercolor="#666666"
     borderopacity="1.0"
     inkscape:pageopacity="0.0"
     inkscape:pageshadow="2"
     inkscape:zoom="1"
     inkscape:cx="78.198805"
     inkscape:cy="123.03843"
     inkscape:document-units="px"
     inkscape:current-layer="duibubbleitem-background-pressed"
     showgrid="true"
     inkscape:snap-bbox="true"
     inkscape:snap-bbox-edge-midpoints="true"
     inkscape:bbox-nodes="true"
     inkscape:window-width="1397"
     inkscape:window-height="1288"
     inkscape:window-x="875"
     inkscape:window-y="212"
     inkscape:window-maximized="0">
    <inkscape:grid
       type="xygrid"
       id="grid3800"
       empspacing="5"
       visible="true"
       enabled="true"
       snapvisiblegridlinesonly="true" />
  </sodipodi:namedview>
  <metadata
     id="metadata3795">
    <rdf:RDF>
      <cc:Work
         rdf:about="">
        <dc:format>image/svg+xml</dc:format>
        <dc:type
           rdf:resource="http://purl.org/dc/dcmitype/StillImage" />
        <dc:title></dc:title>
      </cc:Work>
    </rdf:RDF>
  </metadata>
  <g
     inkscape:label="Layer 1"
     inkscape:groupmode="layer"
     id="layer1"
     transform="translate(0,-732.36218)">
    <g
       id="g5461">
      <g
         id="g5467">
        <g
           id="duibubbleitem-background"
           transform="translate(0,30)"
           inkscape:label="#g5477">
          <rect
             ry="6.4951348"
             rx="4.6180091"
             transform="matrix(1.6176471,0,0,1.0298622,-12.352941,732.49541)"
             y="67"
             x="20"
             height="29"
             width="34"
             id="rect5475"
             style="opacity:0.1;color:black;fill:black;fill-opacity:1;fill-rule:nonzero;stroke:none;stroke-width:1.00000143;marker:none;visibility:visible;display:inline;overflow:visible;enable-background:accumulate" />
          <path
             sodipodi:nodetypes="cccccccccccc"
             id="rect4359"
             d="m 53.764626,35 55.326004,0 c 4.85561,0 8.76463,3.219198 8.76463,7.217934 l 0,53.341566 c 0,3.998734 -3.90902,7.21793 -8.76463,7.21793 l -55.326004,0 C 48.909023,102.77743 45,99.558234 45,95.5595 L 45,64.99922 32.855265,54.442037 45,43.884853 45,42.217934 C 45,38.219198 48.909023,35 53.764626,35 z"
             style="color:black;fill:url(#linearGradient5516);fill-opacity:1;fill-rule:nonzero;stroke:#adb0a8;stroke-width:1.23650384;stroke-linecap:butt;stroke-linejoin:miter;stroke-miterlimit:4;stroke-opacity:1;stroke-dashoffset:0;marker:none;visibility:visible;display:inline;overflow:visible;enable-background:accumulate"
             transform="matrix(0.74106186,0,0,0.89986072,-12.842912,736.37192)" />
          <path
             transform="matrix(0.74106186,0,0,0.89986072,-12.842912,736.37192)"
             style="color:black;fill:none;stroke:white;stroke-width:1.23650384;stroke-linecap:butt;stroke-linejoin:miter;stroke-miterlimit:4;stroke-opacity:1;stroke-dashoffset:0;marker:none;visibility:visible;display:inline;overflow:visible;enable-background:accumulate"
             d="m 53.75,36.15625 c -4.341462,0 -7.59375,2.81883 -7.59375,6.0625 l 0,1.65625 C 46.15395,44.206576 46.001789,44.534244 45.75,44.75 L 34.59375,54.4375 45.75,64.125 c 0.251789,0.215756 0.403921,0.543424 0.40625,0.875 l 0,30.558684 c 0,3.24366 3.252289,6.062496 7.59375,6.062496 l 55.35526,0 c 4.34147,0 7.59375,-2.818836 7.59375,-6.062496 l 0,-53.339934 c 0,-3.243672 -3.25228,-6.0625 -7.59375,-6.0625 l -55.35526,0 z"
             id="path5447"
             sodipodi:nodetypes="cccccccccccccc" />
        </g>
        <g
           id="duibubbleitem-rightarrow-background"
           transform="matrix(-1,0,0,1,167,30)"
           inkscape:label="#g5482">
          <rect
             style="opacity:0.1;color:black;fill:black;fill-opacity:1;fill-rule:nonzero;stroke:none;stroke-width:1.00000143;marker:none;visibility:visible;display:inline;overflow:visible;enable-background:accumulate"
             id="rect5484"
             width="34"
             height="29"
             x="20"
             y="67"
             transform="matrix(1.6176471,0,0,1.0298622,-12.352941,732.49541)"
             rx="4.6180091"
             ry="6.4951348" />
          <path
             transform="matrix(0.74106186,0,0,0.89986072,-12.842912,736.37192)"
             style="color:black;fill:url(#linearGradient5490);fill-opacity:1;fill-rule:nonzero;stroke:#adb0a8;stroke-width:1.23650384;stroke-linecap:butt;stroke-linejoin:miter;stroke-miterlimit:4;stroke-opacity:1;stroke-dashoffset:0;marker:none;visibility:visible;display:inline;overflow:visible;enable-background:accumulate"
             d="m 53.764626,35 55.326004,0 c 4.85561,0 8.76463,3.219198 8.76463,7.217934 l 0,53.341566 c 0,3.998734 -3.90902,7.21793 -8.76463,7.21793 l -55.326004,0 C 48.909023,102.77743 45,99.558234 45,95.5595 L 45,64.99922 32.855265,54.442037 45,43.884853 45,42.217934 C 45,38.219198 48.909023,35 53.764626,35 z"
             id="path5486"
             sodipodi:nodetypes="cccccccccccc" />
          <path
             sodipodi:nodetypes="cccccccccccccc"
             id="path5488"
             d="m 53.75,36.15625 c -4.341462,0 -7.59375,2.81883 -7.59375,6.0625 l 0,1.65625 C 46.15395,44.206576 46.001789,44.534244 45.75,44.75 L 34.59375,54.4375 45.75,64.125 c 0.251789,0.215756 0.403921,0.543424 0.40625,0.875 l 0,30.558684 c 0,3.24366 3.252289,6.062496 7.59375,6.062496 l 55.35526,0 c 4.34147,0 7.59375,-2.818836 7.59375,-6.062496 l 0,-53.339934 c 0,-3.243672 -3.25228,-6.0625 -7.59375,-6.0625 l -55.35526,0 z"
             style="color:black;fill:none;stroke:white;stroke-width:1.23650384;stroke-linecap:butt;stroke-linejoin:miter;stroke-miterlimit:4;stroke-opacity:1;stroke-dashoffset:0;marker:none;visibility:visible;display:inline;overflow:visible;enable-background:accumulate"
             transform="matrix(0.74106186,0,0,0.89986072,-12.842912,736.37192)" />
        </g>
        <g
           id="duibubbleitem-background-pressed"
           transform="translate(0,110)"
           inkscape:label="#g5492">
          <rect
             style="opacity:0.1;color:black;fill:black;fill-opacity:1;fill-rule:nonzero;stroke:none;stroke-width:1.00000143;marker:none;visibility:visible;display:inline;overflow:visible;enable-background:accumulate"
             id="rect5494"
             width="34"
             height="29"
             x="20"
             y="67"
             transform="matrix(1.6176471,0,0,1.0298622,-12.352941,732.49541)"
             rx="4.6180091"
             ry="6.4951348" />
          <path
             transform="matrix(0.74106186,0,0,0.89986072,-12.842912,736.37192)"
             style="color:black;fill:url(#linearGradient5508);fill-opacity:1;fill-rule:nonzero;stroke:#2e3436;stroke-width:1.23650383999999991;stroke-linecap:butt;stroke-linejoin:miter;stroke-miterlimit:4;stroke-opacity:1;stroke-dashoffset:0;marker:none;visibility:visible;display:inline;overflow:visible;enable-background:accumulate"
             d="m 53.764626,35 55.326004,0 c 4.85561,0 8.76463,3.219198 8.76463,7.217934 l 0,53.341566 c 0,3.998734 -3.90902,7.21793 -8.76463,7.21793 l -55.326004,0 C 48.909023,102.77743 45,99.558234 45,95.5595 L 45,64.99922 32.855265,54.442037 45,43.884853 45,42.217934 C 45,38.219198 48.909023,35 53.764626,35 z"
             id="path5496"
             sodipodi:nodetypes="cccccccccccc" />
          <path
             sodipodi:nodetypes="cccccccccccccc"
             id="path5498"
             d="m 53.75,36.15625 c -4.341462,0 -7.59375,2.81883 -7.59375,6.0625 l 0,1.65625 C 46.15395,44.206576 46.001789,44.534244 45.75,44.75 L 34.59375,54.4375 45.75,64.125 c 0.251789,0.215756 0.403921,0.543424 0.40625,0.875 l 0,30.558684 c 0,3.24366 3.252289,6.062496 7.59375,6.062496 l 55.35526,0 c 4.34147,0 7.59375,-2.818836 7.59375,-6.062496 l 0,-53.339934 c 0,-3.243672 -3.25228,-6.0625 -7.59375,-6.0625 l -55.35526,0 z"
             style="color:black;fill:none;stroke:white;stroke-width:1.23650383999999991;stroke-linecap:butt;stroke-linejoin:miter;stroke-miterlimit:4;stroke-opacity:1;stroke-dashoffset:0;marker:none;visibility:visible;display:inline;overflow:visible;enable-background:accumulate;opacity:0.32"
             transform="matrix(0.74106186,0,0,0.89986072,-12.842912,736.37192)" />
        </g>
        <g
           transform="matrix(-1,0,0,1,167,110)"
           id="duibubbleitem-rightarrow-background-pressed"
           inkscape:label="#g5500">
          <rect
             ry="6.4951348"
             rx="4.6180091"
             transform="matrix(1.6176471,0,0,1.0298622,-12.352941,732.49541)"
             y="67"
             x="20"
             height="29"
             width="34"
             id="rect5502"
             style="opacity:0.1;color:black;fill:black;fill-opacity:1;fill-rule:nonzero;stroke:none;stroke-width:1.00000143;marker:none;visibility:visible;display:inline;overflow:visible;enable-background:accumulate" />
          <path
             sodipodi:nodetypes="cccccccccccc"
             id="path5504"
             d="m 53.764626,35 55.326004,0 c 4.85561,0 8.76463,3.219198 8.76463,7.217934 l 0,53.341566 c 0,3.998734 -3.90902,7.21793 -8.76463,7.21793 l -55.326004,0 C 48.909023,102.77743 45,99.558234 45,95.5595 L 45,64.99922 32.855265,54.442037 45,43.884853 45,42.217934 C 45,38.219198 48.909023,35 53.764626,35 z"
             style="color:black;fill:url(#linearGradient5510);fill-opacity:1.0;fill-rule:nonzero;stroke:#2e3436;stroke-width:1.23650383999999991;stroke-linecap:butt;stroke-linejoin:miter;stroke-miterlimit:4;stroke-opacity:1;stroke-dashoffset:0;marker:none;visibility:visible;display:inline;overflow:visible;enable-background:accumulate"
             transform="matrix(0.74106186,0,0,0.89986072,-12.842912,736.37192)" />
          <path
             transform="matrix(0.74106186,0,0,0.89986072,-12.842912,736.37192)"
             style="color:black;fill:none;stroke:white;stroke-width:1.23650383999999991;stroke-linecap:butt;stroke-linejoin:miter;stroke-miterlimit:4;stroke-opacity:1;stroke-dashoffset:0;marker:none;visibility:visible;display:inline;overflow:visible;enable-background:accumulate;opacity:0.32"
             d="m 53.75,36.15625 c -4.341462,0 -7.59375,2.81883 -7.59375,6.0625 l 0,1.65625 C 46.15395,44.206576 46.001789,44.534244 45.75,44.75 L 34.59375,54.4375 45.75,64.125 c 0.251789,0.215756 0.403921,0.543424 0.40625,0.875 l 0,30.558684 c 0,3.24366 3.252289,6.062496 7.59375,6.062496 l 55.35526,0 c 4.34147,0 7.59375,-2.818836 7.59375,-6.062496 l 0,-53.339934 c 0,-3.243672 -3.25228,-6.0625 -7.59375,-6.0625 l -55.35526,0 z"
             id="path5506"
             sodipodi:nodetypes="cccccccccccccc" />
        </g>
        <text
           xml:space="preserve"
           style="font-size:40px;font-style:normal;font-weight:normal;fill:black;fill-opacity:1;stroke:none;font-family:Bitstream Vera Sans"
           x="17"
           y="11"
           id="text5512"
           transform="matrix(0.70927445,0,0,0.70927445,5.5839748,766.72483)"><tspan
             sodipodi:role="line"
             id="tspan5514"
             x="17"
             y="11">dui bubble item</tspan></text>
      </g>
    </g>
  </g>
</svg>
