<?xml version="1.0" encoding="iso-8859-1"?>
<!-- Generator: Adobe Illustrator 14.0.0, SVG Export Plug-In . SVG Version: 6.00 Build 43363)  -->
<!DOCTYPE svg PUBLIC "-//W3C//DTD SVG 1.1//EN" "http://www.w3.org/Graphics/SVG/1.1/DTD/svg11.dtd">
<svg version="1.1" xmlns="http://www.w3.org/2000/svg" xmlns:xlink="http://www.w3.org/1999/xlink" x="0px" y="0px" width="950px"
	 height="840px" viewBox="0 0 950 840" style="enable-background:new 0 0 950 840;" xml:space="preserve">
<g id="duilist-layer">
</g>
<g id="dui-theme-rd">
	<g id="duilist">
		<g id="duilistThemeTemplateHelper">
			<g>
				<path style="fill:#B3B3B3;" d="M16,839c-8.271,0-15-6.729-15-15V16C1,7.729,7.729,1,16,1h918c8.271,0,15,6.729,15,15v808
					c0,8.271-6.729,15-15,15H16z"/>
				<g>
					<path d="M934,2c7.72,0,14,6.28,14,14v808c0,7.72-6.28,14-14,14H16c-7.72,0-14-6.28-14-14V16C2,8.28,8.28,2,16,2H934 M934,0H16
						C7.2,0,0,7.2,0,16v808c0,8.8,7.2,16,16,16h918c8.8,0,16-7.2,16-16V16C950,7.2,942.8,0,934,0L934,0z"/>
				</g>
			</g>
			<path style="fill:#010101;" d="M445.632,19.969h3.989c1.886,0,3.296,0.612,4.229,1.838c0.934,1.226,1.4,3.189,1.4,5.893
				c0,2.967-0.498,5.092-1.498,6.375c-0.997,1.283-2.494,1.924-4.49,1.924h-3.63V19.969z M447.837,34.439h1.506
				c1.177,0,2.072-0.473,2.688-1.419s0.923-2.663,0.923-5.149c0-2.215-0.303-3.826-0.907-4.834c-0.605-1.006-1.52-1.51-2.743-1.51
				h-1.466V34.439z"/>
			<path style="fill:#010101;" d="M461.403,36.17c-1.218,0-2.129-0.33-2.733-0.994c-0.605-0.662-0.907-1.657-0.907-2.983v-8.698
				h2.184v8.301c0,0.939,0.157,1.643,0.472,2.112s0.79,0.704,1.425,0.704c0.792,0,1.407-0.314,1.841-0.945
				c0.435-0.631,0.652-1.452,0.652-2.463v-7.709h2.184v12.504h-1.21l-0.442-1.849C464.109,35.497,462.954,36.17,461.403,36.17z"/>
			<path style="fill:#010101;" d="M472.006,35.998h-2.185V24.989h-1.363v-1.495h3.548V35.998z M470.918,19.108
				c0.334,0,0.624,0.129,0.867,0.387c0.243,0.259,0.364,0.563,0.364,0.914c0,0.358-0.121,0.665-0.359,0.919
				c-0.239,0.255-0.531,0.382-0.872,0.382c-0.348,0-0.643-0.127-0.881-0.382c-0.24-0.254-0.359-0.561-0.359-0.919
				c0-0.366,0.119-0.674,0.359-0.925C470.275,19.234,470.57,19.108,470.918,19.108z"/>
			<path style="fill:#010101;" d="M475.245,35.998V19.969h2.206v14.417h5.168v1.612H475.245z"/>
			<path style="fill:#010101;" d="M486.937,35.998h-2.185V24.989h-1.363v-1.495h3.548V35.998z M485.85,19.108
				c0.334,0,0.623,0.129,0.866,0.387c0.242,0.259,0.364,0.563,0.364,0.914c0,0.358-0.12,0.665-0.359,0.919
				c-0.239,0.255-0.53,0.382-0.871,0.382c-0.348,0-0.644-0.127-0.882-0.382c-0.24-0.254-0.359-0.561-0.359-0.919
				c0-0.366,0.119-0.674,0.359-0.925C485.206,19.234,485.502,19.108,485.85,19.108z"/>
			<path style="fill:#010101;" d="M492.341,36.17c-0.896,0-1.918-0.139-3.066-0.418v-1.646c1.23,0.351,2.201,0.526,2.912,0.526
				c0.731,0,1.282-0.159,1.651-0.479c0.369-0.318,0.554-0.797,0.554-1.436c0-0.372-0.117-0.721-0.35-1.048
				c-0.232-0.325-0.814-0.726-1.742-1.198c-0.595-0.301-1.077-0.586-1.446-0.855c-0.369-0.269-0.684-0.631-0.944-1.086
				c-0.259-0.455-0.389-1.02-0.389-1.693c0-1.082,0.367-1.939,1.103-2.574c0.734-0.635,1.677-0.951,2.824-0.951
				c1.006,0,1.915,0.133,2.728,0.397v1.569c-0.854-0.309-1.685-0.462-2.491-0.462c-0.67,0-1.171,0.15-1.502,0.451
				c-0.332,0.302-0.497,0.753-0.497,1.354c0,0.316,0.105,0.611,0.317,0.887c0.212,0.277,0.741,0.626,1.589,1.049
				c0.616,0.301,1.125,0.594,1.528,0.877s0.743,0.666,1.021,1.15c0.276,0.482,0.415,1.09,0.415,1.822
				c0,1.232-0.364,2.168-1.093,2.806C494.734,35.852,493.694,36.17,492.341,36.17z"/>
			<path style="fill:#010101;" d="M501.783,36.17c-0.929,0-1.608-0.227-2.039-0.682s-0.646-1.182-0.646-2.178v-8.321h-1.569v-0.86
				l3.188-3.408h0.565v2.773h2.901v1.495h-2.901v7.945c0,0.681,0.105,1.13,0.317,1.349s0.533,0.328,0.964,0.328
				c0.443,0,1.046-0.104,1.804-0.312v1.483C503.451,36.041,502.591,36.17,501.783,36.17z"/>
		</g>
		<g id="duilist-single-background-selected-pressed">
			<path style="fill:#FFFFFF;" d="M844,812c0,5.5-4.5,10-10,10h-44c-5.5,0-10-4.5-10-10v-42c0-5.5,4.5-10,10-10h44
				c5.5,0,10,4.5,10,10V812z"/>
			<path style="fill:#333333;" d="M844,810c0,5.5-4.5,10-10,10h-44c-5.5,0-10-4.5-10-10v-42c0-5.5,4.5-10,10-10h44
				c5.5,0,10,4.5,10,10V810z"/>
			<linearGradient id="SVGID_1_" gradientUnits="userSpaceOnUse" x1="812" y1="821" x2="812" y2="759">
				<stop  offset="0" style="stop-color:#2AAAE2"/>
				<stop  offset="1" style="stop-color:#1F749A"/>
			</linearGradient>
			<path style="fill:url(#SVGID_1_);" d="M844,811c0,5.5-4.5,10-10,10h-44c-5.5,0-10-4.5-10-10v-42c0-5.5,4.5-10,10-10h44
				c5.5,0,10,4.5,10,10V811z"/>
		</g>
		<g id="duilist-singlecolumn-bottom-selected-background-pressed">
			<path style="fill:#FFFFFF;" d="M844,686v52c0,5.5-4.5,10-10,10h-44c-5.5,0-10-4.5-10-10v-52H844z"/>
			<path style="fill:#333333;" d="M844,684v52c0,5.5-4.5,10-10,10h-44c-5.5,0-10-4.5-10-10v-52H844z"/>
			<linearGradient id="SVGID_2_" gradientUnits="userSpaceOnUse" x1="812" y1="747" x2="812" y2="685">
				<stop  offset="0" style="stop-color:#2AAAE2"/>
				<stop  offset="1" style="stop-color:#1F749A"/>
			</linearGradient>
			<path style="fill:url(#SVGID_2_);" d="M844,685v52c0,5.5-4.5,10-10,10h-44c-5.5,0-10-4.5-10-10v-52H844z"/>
		</g>
		<g id="duilist-singlecolumn-center-background-selected-pressed">
			<rect x="780" y="612" style="fill:#FFFFFF;" width="64" height="62"/>
			<rect x="780" y="610" style="fill:#333333;" width="64" height="62"/>
			<linearGradient id="SVGID_3_" gradientUnits="userSpaceOnUse" x1="812" y1="673" x2="812" y2="611">
				<stop  offset="0" style="stop-color:#2AAAE2"/>
				<stop  offset="1" style="stop-color:#1F749A"/>
			</linearGradient>
			<rect x="780" y="611" style="fill:url(#SVGID_3_);" width="64" height="62"/>
		</g>
		<g id="duilist-singlecolumn-top-background-selected-pressed">
			<path style="fill:#FFFFFF;" d="M780,600v-52c0-5.5,4.5-10,10-10h44c5.5,0,10,4.5,10,10v52H780z"/>
			<path style="fill:#333333;" d="M780,598v-52c0-5.5,4.5-10,10-10h44c5.5,0,10,4.5,10,10v52H780z"/>
			<linearGradient id="SVGID_4_" gradientUnits="userSpaceOnUse" x1="812" y1="599" x2="812" y2="537">
				<stop  offset="0" style="stop-color:#2AAAE2"/>
				<stop  offset="1" style="stop-color:#1F749A"/>
			</linearGradient>
			<path style="fill:url(#SVGID_4_);" d="M780,599v-52c0-5.5,4.5-10,10-10h44c5.5,0,10,4.5,10,10v52H780z"/>
		</g>
		<g id="duilist-singlerow-right-background-selected-pressed">
			<path style="fill:#FFFFFF;" d="M854,464h54c5.5,0,10,4.5,10,10v42c0,5.5-4.5,10-10,10h-54V464z"/>
			<path style="fill:#333333;" d="M854,462h54c5.5,0,10,4.5,10,10v42c0,5.5-4.5,10-10,10h-54V462z"/>
			<linearGradient id="SVGID_5_" gradientUnits="userSpaceOnUse" x1="886" y1="525" x2="886" y2="463">
				<stop  offset="0" style="stop-color:#2AAAE2"/>
				<stop  offset="1" style="stop-color:#1F749A"/>
			</linearGradient>
			<path style="fill:url(#SVGID_5_);" d="M854,463h54c5.5,0,10,4.5,10,10v42c0,5.5-4.5,10-10,10h-54V463z"/>
		</g>
		<g id="duilist-singlerow-center-background-selected-pressed">
			<rect x="780" y="464" style="fill:#FFFFFF;" width="64" height="62"/>
			<rect x="780" y="462" style="fill:#333333;" width="64" height="62"/>
			<linearGradient id="SVGID_6_" gradientUnits="userSpaceOnUse" x1="812" y1="525" x2="812" y2="463">
				<stop  offset="0" style="stop-color:#2AAAE2"/>
				<stop  offset="1" style="stop-color:#1F749A"/>
			</linearGradient>
			<rect x="780" y="463" style="fill:url(#SVGID_6_);" width="64" height="62"/>
		</g>
		<g id="duilist-singlerow-left-background-selected-pressed">
			<path style="fill:#FFFFFF;" d="M770,526h-54c-5.5,0-10-4.5-10-10v-42c0-5.5,4.5-10,10-10h54V526z"/>
			<path style="fill:#333333;" d="M770,524h-54c-5.5,0-10-4.5-10-10v-42c0-5.5,4.5-10,10-10h54V524z"/>
			<linearGradient id="SVGID_7_" gradientUnits="userSpaceOnUse" x1="738" y1="525" x2="738" y2="463">
				<stop  offset="0" style="stop-color:#2AAAE2"/>
				<stop  offset="1" style="stop-color:#1F749A"/>
			</linearGradient>
			<path style="fill:url(#SVGID_7_);" d="M770,525h-54c-5.5,0-10-4.5-10-10v-42c0-5.5,4.5-10,10-10h54V525z"/>
		</g>
		<g id="duilist-bottomright-background-selected-pressed">
			<path style="fill:#FFFFFF;" d="M908,452c5.5,0,10-4.5,10-10v-52h-64v62H908z"/>
			<path style="fill:#333333;" d="M908,450c5.5,0,10-4.5,10-10v-52h-64v62H908z"/>
			<linearGradient id="SVGID_8_" gradientUnits="userSpaceOnUse" x1="886" y1="451" x2="886" y2="389.0005">
				<stop  offset="0" style="stop-color:#2AAAE2"/>
				<stop  offset="1" style="stop-color:#1F749A"/>
			</linearGradient>
			<path style="fill:url(#SVGID_8_);" d="M908,451c5.5,0,10-4.5,10-10v-52h-64v62H908z"/>
		</g>
		<g id="duilist-bottom-background-selected-pressed">
			<rect x="780" y="390" style="fill:#FFFFFF;" width="64" height="62"/>
			<rect x="780" y="388" style="fill:#333333;" width="64" height="62"/>
			<linearGradient id="SVGID_9_" gradientUnits="userSpaceOnUse" x1="812" y1="451" x2="812" y2="389.0005">
				<stop  offset="0" style="stop-color:#2AAAE2"/>
				<stop  offset="1" style="stop-color:#1F749A"/>
			</linearGradient>
			<rect x="780" y="389" style="fill:url(#SVGID_9_);" width="64" height="62"/>
		</g>
		<g id="duilist-bottomleft-background-selected-pressed">
			<path style="fill:#FFFFFF;" d="M706,442c0,5.5,4.5,10,10,10h54v-62h-64V442z"/>
			<path style="fill:#333333;" d="M706,440c0,5.5,4.5,10,10,10h54v-62h-64V440z"/>
			<linearGradient id="SVGID_10_" gradientUnits="userSpaceOnUse" x1="738" y1="451" x2="738" y2="389.0005">
				<stop  offset="0" style="stop-color:#2AAAE2"/>
				<stop  offset="1" style="stop-color:#1F749A"/>
			</linearGradient>
			<path style="fill:url(#SVGID_10_);" d="M706,441c0,5.5,4.5,10,10,10h54v-62h-64V441z"/>
		</g>
		<g id="duilist-right-background-selected-pressed">
			<rect x="854" y="316" style="fill:#FFFFFF;" width="64" height="62"/>
			<rect x="854" y="314" style="fill:#333333;" width="64" height="62"/>
			<linearGradient id="SVGID_11_" gradientUnits="userSpaceOnUse" x1="886" y1="377" x2="886" y2="315">
				<stop  offset="0" style="stop-color:#2AAAE2"/>
				<stop  offset="1" style="stop-color:#1F749A"/>
			</linearGradient>
			<rect x="854" y="315" style="fill:url(#SVGID_11_);" width="64" height="62"/>
		</g>
		<g id="duilist-center-background-selected-pressed">
			<rect x="780" y="316" style="fill:#FFFFFF;" width="64" height="62"/>
			<rect x="780" y="314" style="fill:#333333;" width="64" height="62"/>
			<linearGradient id="SVGID_12_" gradientUnits="userSpaceOnUse" x1="812" y1="377" x2="812" y2="315">
				<stop  offset="0" style="stop-color:#2AAAE2"/>
				<stop  offset="1" style="stop-color:#1F749A"/>
			</linearGradient>
			<rect x="780" y="315" style="fill:url(#SVGID_12_);" width="64" height="62"/>
		</g>
		<g id="duilist-left-background-selected-pressed">
			<rect x="706" y="316" style="fill:#FFFFFF;" width="64" height="62"/>
			<rect x="706" y="314" style="fill:#333333;" width="64" height="62"/>
			<linearGradient id="SVGID_13_" gradientUnits="userSpaceOnUse" x1="738" y1="377" x2="738" y2="315">
				<stop  offset="0" style="stop-color:#2AAAE2"/>
				<stop  offset="1" style="stop-color:#1F749A"/>
			</linearGradient>
			<rect x="706" y="315" style="fill:url(#SVGID_13_);" width="64" height="62"/>
		</g>
		<g id="duilist-topright-background-selected-pressed">
			<path style="fill:#FFFFFF;" d="M918,252c0-5.5-4.5-10-10-10h-54v62h64V252z"/>
			<path style="fill:#333333;" d="M918,250c0-5.5-4.5-10-10-10h-54v62h64V250z"/>
			<linearGradient id="SVGID_14_" gradientUnits="userSpaceOnUse" x1="886" y1="303" x2="886" y2="241">
				<stop  offset="0" style="stop-color:#2AAAE2"/>
				<stop  offset="1" style="stop-color:#1F749A"/>
			</linearGradient>
			<path style="fill:url(#SVGID_14_);" d="M918,251c0-5.5-4.5-10-10-10h-54v62h64V251z"/>
		</g>
		<g id="duilist-top-background-selected-pressed">
			<rect x="780" y="242" style="fill:#FFFFFF;" width="64" height="62"/>
			<rect x="780" y="240" style="fill:#333333;" width="64" height="62"/>
			<linearGradient id="SVGID_15_" gradientUnits="userSpaceOnUse" x1="812" y1="303" x2="812" y2="241">
				<stop  offset="0" style="stop-color:#2AAAE2"/>
				<stop  offset="1" style="stop-color:#1F749A"/>
			</linearGradient>
			<rect x="780" y="241" style="fill:url(#SVGID_15_);" width="64" height="62"/>
		</g>
		<g id="duilist-topleft-background-selected-pressed">
			<path style="fill:#FFFFFF;" d="M706,252c0-5.5,4.5-10,10-10h54v62h-64V252z"/>
			<path style="fill:#333333;" d="M706,250c0-5.5,4.5-10,10-10h54v62h-64V250z"/>
			<linearGradient id="SVGID_16_" gradientUnits="userSpaceOnUse" x1="738" y1="303" x2="738" y2="241">
				<stop  offset="0" style="stop-color:#2AAAE2"/>
				<stop  offset="1" style="stop-color:#1F749A"/>
			</linearGradient>
			<path style="fill:url(#SVGID_16_);" d="M706,251c0-5.5,4.5-10,10-10h54v62h-64V251z"/>
		</g>
		<g id="duilist-fullwidth-background-selected-pressed">
			<rect x="780" y="168" style="fill:#FFFFFF;" width="64" height="62"/>
			<rect x="780" y="166" style="fill:#333333;" width="64" height="62"/>
			<linearGradient id="SVGID_17_" gradientUnits="userSpaceOnUse" x1="812" y1="229" x2="812" y2="167">
				<stop  offset="0" style="stop-color:#2AAAE2"/>
				<stop  offset="1" style="stop-color:#1F749A"/>
			</linearGradient>
			<rect x="780" y="167" style="fill:url(#SVGID_17_);" width="64" height="62"/>
		</g>
		<g id="duilist-fullwidth-right-background-selected-pressed">
			<rect x="854" y="94" style="fill:#FFFFFF;" width="64" height="62"/>
			<rect x="854" y="92" style="fill:#333333;" width="64" height="62"/>
			<linearGradient id="SVGID_18_" gradientUnits="userSpaceOnUse" x1="886" y1="155" x2="886" y2="93">
				<stop  offset="0" style="stop-color:#2AAAE2"/>
				<stop  offset="1" style="stop-color:#1F749A"/>
			</linearGradient>
			<rect x="854" y="93" style="fill:url(#SVGID_18_);" width="64" height="62"/>
		</g>
		<g id="duilist-fullwidth-center-background-selected-pressed">
			<rect x="780" y="94" style="fill:#FFFFFF;" width="64" height="62"/>
			<rect x="780" y="92" style="fill:#333333;" width="64" height="62"/>
			<linearGradient id="SVGID_19_" gradientUnits="userSpaceOnUse" x1="812" y1="155" x2="812" y2="93">
				<stop  offset="0" style="stop-color:#2AAAE2"/>
				<stop  offset="1" style="stop-color:#1F749A"/>
			</linearGradient>
			<rect x="780" y="93" style="fill:url(#SVGID_19_);" width="64" height="62"/>
		</g>
		<g id="duilist-fullwidth-left-background-selected-pressed">
			<rect x="706" y="94" style="fill:#FFFFFF;" width="64" height="62"/>
			<rect x="706" y="92" style="fill:#333333;" width="64" height="62"/>
			<linearGradient id="SVGID_20_" gradientUnits="userSpaceOnUse" x1="738" y1="155" x2="738" y2="93">
				<stop  offset="0" style="stop-color:#2AAAE2"/>
				<stop  offset="1" style="stop-color:#1F749A"/>
			</linearGradient>
			<rect x="706" y="93" style="fill:url(#SVGID_20_);" width="64" height="62"/>
		</g>
		<g id="duilist-single-background-selected">
			<path style="fill:#CCCCCC;" d="M622,812c0,5.5-4.5,10-10,10h-44c-5.5,0-10-4.5-10-10v-42c0-5.5,4.5-10,10-10h44
				c5.5,0,10,4.5,10,10V812z"/>
			<path style="fill:#FFFFFF;" d="M622,810c0,5.5-4.5,10-10,10h-44c-5.5,0-10-4.5-10-10v-42c0-5.5,4.5-10,10-10h44
				c5.5,0,10,4.5,10,10V810z"/>
			<linearGradient id="SVGID_21_" gradientUnits="userSpaceOnUse" x1="590" y1="821" x2="590" y2="759">
				<stop  offset="0" style="stop-color:#2AAAE2"/>
				<stop  offset="1" style="stop-color:#83D5F7"/>
			</linearGradient>
			<path style="fill:url(#SVGID_21_);" d="M622,811c0,5.5-4.5,10-10,10h-44c-5.5,0-10-4.5-10-10v-42c0-5.5,4.5-10,10-10h44
				c5.5,0,10,4.5,10,10V811z"/>
		</g>
		<g id="duilist-singlecolumn-bottom-background-selected">
			<path style="fill:#CCCCCC;" d="M622,685v53c0,5.5-4.5,10-10,10h-44c-5.5,0-10-4.5-10-10v-53H622z"/>
			<linearGradient id="SVGID_22_" gradientUnits="userSpaceOnUse" x1="590" y1="747" x2="590" y2="684">
				<stop  offset="0" style="stop-color:#2AAAE2"/>
				<stop  offset="1" style="stop-color:#83D5F7"/>
			</linearGradient>
			<path style="fill:url(#SVGID_22_);" d="M622,684v53c0,5.5-4.5,10-10,10h-44c-5.5,0-10-4.5-10-10v-53H622z"/>
			<rect x="558" y="684" style="opacity:0.2;fill:#FFFFFF;" width="64" height="1"/>
		</g>
		<g id="duilist-singlecolumn-center-background-selected">
			<linearGradient id="SVGID_23_" gradientUnits="userSpaceOnUse" x1="590" y1="674" x2="590" y2="610">
				<stop  offset="0" style="stop-color:#2AAAE2"/>
				<stop  offset="1" style="stop-color:#83D5F7"/>
			</linearGradient>
			<rect x="558" y="610" style="fill:url(#SVGID_23_);" width="64" height="64"/>
			<rect x="558" y="673" style="opacity:0.2;fill:#010101;" width="64" height="1"/>
			<rect x="558" y="610.001" style="opacity:0.2;fill:#FFFFFF;" width="64" height="1"/>
		</g>
		<g id="duilist-singlecolumn-top-background-selected">
			<path style="fill:#FFFFFF;" d="M558,599v-53c0-5.5,4.5-10,10-10h44c5.5,0,10,4.5,10,10v53H558z"/>
			<linearGradient id="SVGID_24_" gradientUnits="userSpaceOnUse" x1="590" y1="600" x2="590" y2="537">
				<stop  offset="0" style="stop-color:#2AAAE2"/>
				<stop  offset="1" style="stop-color:#83D5F7"/>
			</linearGradient>
			<path style="fill:url(#SVGID_24_);" d="M558,600v-53c0-5.5,4.5-10,10-10h44c5.5,0,10,4.5,10,10v53H558z"/>
			<rect x="558" y="599" style="opacity:0.2;fill:#010101;" width="64" height="1"/>
		</g>
		<g id="duilist-singlerow-right-background-selected">
			<path style="fill:#CCCCCC;" d="M632,464h54c5.5,0,10,4.5,10,10v42c0,5.5-4.5,10-10,10h-54V464z"/>
			<path style="fill:#FFFFFF;" d="M632,462h54c5.5,0,10,4.5,10,10v42c0,5.5-4.5,10-10,10h-54V462z"/>
			<linearGradient id="SVGID_25_" gradientUnits="userSpaceOnUse" x1="664" y1="525" x2="664" y2="463">
				<stop  offset="0" style="stop-color:#2AAAE2"/>
				<stop  offset="1" style="stop-color:#83D5F7"/>
			</linearGradient>
			<path style="fill:url(#SVGID_25_);" d="M632,463h54c5.5,0,10,4.5,10,10v42c0,5.5-4.5,10-10,10h-54V463z"/>
			<rect x="632" y="463" style="opacity:0.2;fill:#FFFFFF;" width="1" height="62"/>
		</g>
		<g id="duilist-singlerow-center-background-selected">
			<rect x="558" y="464" style="fill:#CCCCCC;" width="64" height="62"/>
			<rect x="558" y="462" style="fill:#FFFFFF;" width="64" height="62"/>
			<linearGradient id="SVGID_26_" gradientUnits="userSpaceOnUse" x1="590" y1="525" x2="590" y2="463">
				<stop  offset="0" style="stop-color:#2AAAE2"/>
				<stop  offset="1" style="stop-color:#83D5F7"/>
			</linearGradient>
			<rect x="558" y="463" style="fill:url(#SVGID_26_);" width="64" height="62"/>
			<rect x="621" y="463" style="opacity:0.2;fill:#010101;" width="1" height="62"/>
			<rect x="558" y="463" style="opacity:0.2;fill:#FFFFFF;" width="1" height="62"/>
		</g>
		<g id="duilist-singlerow-left-background-selected">
			<path style="fill:#CCCCCC;" d="M548,526h-54c-5.5,0-10-4.5-10-10v-42c0-5.5,4.5-10,10-10h54V526z"/>
			<path style="fill:#FFFFFF;" d="M548,524h-54c-5.5,0-10-4.5-10-10v-42c0-5.5,4.5-10,10-10h54V524z"/>
			<linearGradient id="SVGID_27_" gradientUnits="userSpaceOnUse" x1="516" y1="525" x2="516" y2="463">
				<stop  offset="0" style="stop-color:#2AAAE2"/>
				<stop  offset="1" style="stop-color:#83D5F7"/>
			</linearGradient>
			<path style="fill:url(#SVGID_27_);" d="M548,525h-54c-5.5,0-10-4.5-10-10v-42c0-5.5,4.5-10,10-10h54V525z"/>
			<rect x="547" y="463" style="opacity:0.2;fill:#010101;" width="1" height="62"/>
		</g>
		<g id="duilist-bottomright-background-selected">
			<path style="fill:#CCCCCC;" d="M686,452c5.5,0,10-4.5,10-10v-53h-64v63H686z"/>
			<linearGradient id="SVGID_28_" gradientUnits="userSpaceOnUse" x1="664" y1="451" x2="664" y2="388.0005">
				<stop  offset="0" style="stop-color:#2AAAE2"/>
				<stop  offset="1" style="stop-color:#83D5F7"/>
			</linearGradient>
			<path style="fill:url(#SVGID_28_);" d="M686,451c5.5,0,10-4.5,10-10v-53h-64v63H686z"/>
			<rect x="632" y="388" style="opacity:0.2;fill:#FFFFFF;" width="1" height="63"/>
			<rect x="633" y="388" style="opacity:0.2;fill:#FFFFFF;" width="63" height="1"/>
		</g>
		<g id="duilist-bottom-background-selected">
			<rect x="558" y="390" style="fill:#CCCCCC;" width="64" height="62"/>
			<linearGradient id="SVGID_29_" gradientUnits="userSpaceOnUse" x1="590" y1="451" x2="590" y2="388.0005">
				<stop  offset="0" style="stop-color:#2AAAE2"/>
				<stop  offset="1" style="stop-color:#83D5F7"/>
			</linearGradient>
			<rect x="558" y="388" style="fill:url(#SVGID_29_);" width="64" height="63"/>
			<rect x="558" y="388" style="opacity:0.2;fill:#FFFFFF;" width="64" height="1"/>
			<rect x="621" y="389" style="opacity:0.2;fill:#010101;" width="1" height="62"/>
			<rect x="558" y="389" style="opacity:0.2;fill:#FFFFFF;" width="1" height="62"/>
		</g>
		<g id="duilist-bottomleft-background-selected">
			<path style="fill:#CCCCCC;" d="M484,442c0,5.5,4.5,10,10,10h54v-63h-64V442z"/>
			<linearGradient id="SVGID_30_" gradientUnits="userSpaceOnUse" x1="516" y1="451" x2="516" y2="388.0005">
				<stop  offset="0" style="stop-color:#2AAAE2"/>
				<stop  offset="1" style="stop-color:#83D5F7"/>
			</linearGradient>
			<path style="fill:url(#SVGID_30_);" d="M484,441c0,5.5,4.5,10,10,10h54v-63h-64V441z"/>
			<rect x="547" y="388" style="opacity:0.2;fill:#010101;" width="1" height="63"/>
			<rect x="484" y="388" style="opacity:0.2;fill:#FFFFFF;" width="63" height="1"/>
		</g>
		<g id="duilist-right-background-selected">
			<linearGradient id="SVGID_31_" gradientUnits="userSpaceOnUse" x1="664" y1="378" x2="664" y2="314">
				<stop  offset="0" style="stop-color:#2AAAE2"/>
				<stop  offset="1" style="stop-color:#83D5F7"/>
			</linearGradient>
			<rect x="632" y="314" style="fill:url(#SVGID_31_);" width="64" height="64"/>
			<rect x="632" y="377" style="opacity:0.2;fill:#010101;" width="64" height="1"/>
			<rect x="632" y="314" style="opacity:0.2;fill:#FFFFFF;" width="64" height="1"/>
			<rect x="632" y="315" style="opacity:0.2;fill:#FFFFFF;" width="1" height="62"/>
		</g>
		<g id="duilist-center-background-selected">
			<linearGradient id="SVGID_32_" gradientUnits="userSpaceOnUse" x1="590" y1="378" x2="590" y2="314">
				<stop  offset="0" style="stop-color:#2AAAE2"/>
				<stop  offset="1" style="stop-color:#83D5F7"/>
			</linearGradient>
			<rect x="558" y="314" style="fill:url(#SVGID_32_);" width="64" height="64"/>
			<rect x="558" y="377" style="opacity:0.2;fill:#010101;" width="64" height="1"/>
			<rect x="558" y="314" style="opacity:0.2;fill:#FFFFFF;" width="64" height="1"/>
			<rect x="621" y="315" style="opacity:0.2;fill:#010101;" width="1" height="62"/>
			<rect x="558" y="315" style="opacity:0.2;fill:#FFFFFF;" width="1" height="62"/>
		</g>
		<g id="duilist-left-background-selected">
			<linearGradient id="SVGID_33_" gradientUnits="userSpaceOnUse" x1="516" y1="378" x2="516" y2="314">
				<stop  offset="0" style="stop-color:#2AAAE2"/>
				<stop  offset="1" style="stop-color:#83D5F7"/>
			</linearGradient>
			<rect x="484" y="314" style="fill:url(#SVGID_33_);" width="64" height="64"/>
			<rect x="484" y="377" style="opacity:0.2;fill:#010101;" width="64" height="1"/>
			<rect x="484" y="314" style="opacity:0.2;fill:#FFFFFF;" width="64" height="1"/>
			<rect x="547" y="315" style="opacity:0.2;fill:#010101;" width="1" height="62"/>
		</g>
		<g id="duilist-topright-background-selected">
			<path style="fill:#FFFFFF;" d="M696,250c0-5.5-4.5-10-10-10h-54v63h64V250z"/>
			<linearGradient id="SVGID_34_" gradientUnits="userSpaceOnUse" x1="664" y1="304" x2="664" y2="241">
				<stop  offset="0" style="stop-color:#2AAAE2"/>
				<stop  offset="1" style="stop-color:#83D5F7"/>
			</linearGradient>
			<path style="fill:url(#SVGID_34_);" d="M696,251c0-5.5-4.5-10-10-10h-54v63h64V251z"/>
			<rect x="632" y="241" style="opacity:0.2;fill:#FFFFFF;" width="1" height="62"/>
			<rect x="632" y="303" style="opacity:0.2;fill:#010101;" width="64" height="1"/>
		</g>
		<g id="duilist-top-background-selected">
			<linearGradient id="SVGID_35_" gradientUnits="userSpaceOnUse" x1="590" y1="304" x2="590" y2="240">
				<stop  offset="0" style="stop-color:#2AAAE2"/>
				<stop  offset="1" style="stop-color:#83D5F7"/>
			</linearGradient>
			<rect x="558" y="240" style="fill:url(#SVGID_35_);" width="64" height="64"/>
			<rect x="558" y="303" style="opacity:0.2;fill:#010101;" width="64" height="1"/>
			<rect x="558" y="240" style="fill:#FFFFFF;" width="64" height="1"/>
			<rect x="621" y="241" style="opacity:0.2;fill:#010101;" width="1" height="62"/>
			<rect x="558" y="241" style="opacity:0.2;fill:#FFFFFF;" width="1" height="62"/>
		</g>
		<g id="duilist-topleft-background-selected">
			<path style="fill:#FFFFFF;" d="M484,250c0-5.5,4.5-10,10-10h54v63h-64V250z"/>
			<linearGradient id="SVGID_36_" gradientUnits="userSpaceOnUse" x1="516" y1="304" x2="516" y2="241">
				<stop  offset="0" style="stop-color:#2AAAE2"/>
				<stop  offset="1" style="stop-color:#83D5F7"/>
			</linearGradient>
			<path style="fill:url(#SVGID_36_);" d="M484,251c0-5.5,4.5-10,10-10h54v63h-64V251z"/>
			<rect x="547" y="241" style="opacity:0.2;fill:#010101;" width="1" height="62"/>
			<rect x="484" y="303" style="opacity:0.2;fill:#010101;" width="64" height="1"/>
		</g>
		<g id="duilist-fullwidth-background-selected">
			<linearGradient id="SVGID_37_" gradientUnits="userSpaceOnUse" x1="590" y1="230" x2="590" y2="166">
				<stop  offset="0" style="stop-color:#2AAAE2"/>
				<stop  offset="1" style="stop-color:#83D5F7"/>
			</linearGradient>
			<rect x="558" y="166" style="fill:url(#SVGID_37_);" width="64" height="64"/>
			<rect x="558" y="229" style="opacity:0.2;fill:#010101;" width="64" height="1"/>
			<rect x="558" y="166" style="opacity:0.2;fill:#FFFFFF;" width="64" height="1"/>
		</g>
		<g id="duilist-fullwidth-right-background-selected">
			<linearGradient id="SVGID_38_" gradientUnits="userSpaceOnUse" x1="664" y1="156" x2="664" y2="92">
				<stop  offset="0" style="stop-color:#2AAAE2"/>
				<stop  offset="1" style="stop-color:#83D5F7"/>
			</linearGradient>
			<rect x="632" y="92" style="fill:url(#SVGID_38_);" width="64" height="64"/>
			<rect x="632" y="155" style="opacity:0.2;fill:#010101;" width="64" height="1"/>
			<rect x="632" y="93" style="opacity:0.2;fill:#FFFFFF;" width="1" height="62"/>
			<rect x="632" y="92" style="opacity:0.2;fill:#FFFFFF;" width="64" height="1"/>
		</g>
		<g id="duilist-fullwidth-center-background-selected">
			<linearGradient id="SVGID_39_" gradientUnits="userSpaceOnUse" x1="590" y1="156" x2="590" y2="92">
				<stop  offset="0" style="stop-color:#2AAAE2"/>
				<stop  offset="1" style="stop-color:#83D5F7"/>
			</linearGradient>
			<rect x="558" y="92" style="fill:url(#SVGID_39_);" width="64" height="64"/>
			<rect x="621" y="93" style="opacity:0.2;fill:#010101;" width="1" height="62"/>
			<rect x="558" y="155" style="opacity:0.2;fill:#010101;" width="64" height="1"/>
			<rect x="558" y="92" style="opacity:0.2;fill:#FFFFFF;" width="64" height="1"/>
			<rect x="558" y="93" style="opacity:0.2;fill:#FFFFFF;" width="1" height="62"/>
		</g>
		<g id="duilist-fullwidth-left-background-selected">
			<linearGradient id="SVGID_40_" gradientUnits="userSpaceOnUse" x1="516" y1="156" x2="516" y2="92">
				<stop  offset="0" style="stop-color:#2AAAE2"/>
				<stop  offset="1" style="stop-color:#83D5F7"/>
			</linearGradient>
			<rect x="484" y="92" style="fill:url(#SVGID_40_);" width="64" height="64"/>
			<rect x="484" y="155" style="opacity:0.2;fill:#010101;" width="64" height="1"/>
			<rect x="484" y="92" style="opacity:0.2;fill:#FFFFFF;" width="64" height="1"/>
			<rect x="547" y="93" style="opacity:0.2;fill:#010101;" width="1" height="62"/>
		</g>
		<g id="duilist-single-background-pressed">
			<path style="fill:#FFFFFF;" d="M390,812c0,5.5-4.5,10-10,10h-44c-5.5,0-10-4.5-10-10v-42c0-5.5,4.5-10,10-10h44
				c5.5,0,10,4.5,10,10V812z"/>
			<path style="fill:#333333;" d="M390,810c0,5.5-4.5,10-10,10h-44c-5.5,0-10-4.5-10-10v-42c0-5.5,4.5-10,10-10h44
				c5.5,0,10,4.5,10,10V810z"/>
			<linearGradient id="SVGID_41_" gradientUnits="userSpaceOnUse" x1="358" y1="821" x2="358" y2="759">
				<stop  offset="0" style="stop-color:#B3B3B3"/>
				<stop  offset="1" style="stop-color:#4D4D4D"/>
			</linearGradient>
			<path style="fill:url(#SVGID_41_);" d="M390,811c0,5.5-4.5,10-10,10h-44c-5.5,0-10-4.5-10-10v-42c0-5.5,4.5-10,10-10h44
				c5.5,0,10,4.5,10,10V811z"/>
		</g>
		<g id="duilist-singlecolumn-bottom-background-pressed">
			<path style="fill:#FFFFFF;" d="M390,686v52c0,5.5-4.5,10-10,10h-44c-5.5,0-10-4.5-10-10v-52H390z"/>
			<path style="fill:#333333;" d="M390,684v52c0,5.5-4.5,10-10,10h-44c-5.5,0-10-4.5-10-10v-52H390z"/>
			<linearGradient id="SVGID_42_" gradientUnits="userSpaceOnUse" x1="358" y1="747" x2="358" y2="685">
				<stop  offset="0" style="stop-color:#B3B3B3"/>
				<stop  offset="1" style="stop-color:#4D4D4D"/>
			</linearGradient>
			<path style="fill:url(#SVGID_42_);" d="M390,685v52c0,5.5-4.5,10-10,10h-44c-5.5,0-10-4.5-10-10v-52H390z"/>
		</g>
		<g id="duilist-singlecolumn-center-background-pressed">
			<rect x="326" y="612" style="fill:#FFFFFF;" width="64" height="62"/>
			<rect x="326" y="610" style="fill:#333333;" width="64" height="62"/>
			<linearGradient id="SVGID_43_" gradientUnits="userSpaceOnUse" x1="358" y1="673" x2="358" y2="611">
				<stop  offset="0" style="stop-color:#B3B3B3"/>
				<stop  offset="1" style="stop-color:#4D4D4D"/>
			</linearGradient>
			<rect x="326" y="611" style="fill:url(#SVGID_43_);" width="64" height="62"/>
		</g>
		<g id="duilist-singlecolumn-top-background-pressed">
			<path style="fill:#FFFFFF;" d="M326,600v-52c0-5.5,4.5-10,10-10h44c5.5,0,10,4.5,10,10v52H326z"/>
			<path style="fill:#333333;" d="M326,598v-52c0-5.5,4.5-10,10-10h44c5.5,0,10,4.5,10,10v52H326z"/>
			<linearGradient id="SVGID_44_" gradientUnits="userSpaceOnUse" x1="358" y1="599" x2="358" y2="537">
				<stop  offset="0" style="stop-color:#B3B3B3"/>
				<stop  offset="1" style="stop-color:#4D4D4D"/>
			</linearGradient>
			<path style="fill:url(#SVGID_44_);" d="M326,599v-52c0-5.5,4.5-10,10-10h44c5.5,0,10,4.5,10,10v52H326z"/>
		</g>
		<g id="duilist-singlerow-right-background-pressed">
			<path style="fill:#FFFFFF;" d="M400,464h54c5.5,0,10,4.5,10,10v42c0,5.5-4.5,10-10,10h-54V464z"/>
			<path style="fill:#333333;" d="M400,462h54c5.5,0,10,4.5,10,10v42c0,5.5-4.5,10-10,10h-54V462z"/>
			<linearGradient id="SVGID_45_" gradientUnits="userSpaceOnUse" x1="432" y1="525" x2="432" y2="463">
				<stop  offset="0" style="stop-color:#B3B3B3"/>
				<stop  offset="1" style="stop-color:#4D4D4D"/>
			</linearGradient>
			<path style="fill:url(#SVGID_45_);" d="M400,463h54c5.5,0,10,4.5,10,10v42c0,5.5-4.5,10-10,10h-54V463z"/>
		</g>
		<g id="duilist-singlerow-center-background-pressed">
			<rect x="326" y="464" style="fill:#FFFFFF;" width="64" height="62"/>
			<rect x="326" y="462" style="fill:#333333;" width="64" height="62"/>
			<linearGradient id="SVGID_46_" gradientUnits="userSpaceOnUse" x1="358" y1="525" x2="358" y2="463">
				<stop  offset="0" style="stop-color:#B3B3B3"/>
				<stop  offset="1" style="stop-color:#4D4D4D"/>
			</linearGradient>
			<rect x="326" y="463" style="fill:url(#SVGID_46_);" width="64" height="62"/>
		</g>
		<g id="duilist-singlerow-left-background-pressed">
			<path style="fill:#FFFFFF;" d="M316,526h-54c-5.5,0-10-4.5-10-10v-42c0-5.5,4.5-10,10-10h54V526z"/>
			<path style="fill:#333333;" d="M316,524h-54c-5.5,0-10-4.5-10-10v-42c0-5.5,4.5-10,10-10h54V524z"/>
			<linearGradient id="SVGID_47_" gradientUnits="userSpaceOnUse" x1="284" y1="525" x2="284" y2="463">
				<stop  offset="0" style="stop-color:#B3B3B3"/>
				<stop  offset="1" style="stop-color:#4D4D4D"/>
			</linearGradient>
			<path style="fill:url(#SVGID_47_);" d="M316,525h-54c-5.5,0-10-4.5-10-10v-42c0-5.5,4.5-10,10-10h54V525z"/>
		</g>
		<g id="duilist-bottomright-background-pressed">
			<path style="fill:#FFFFFF;" d="M454,452c5.5,0,10-4.5,10-10v-52h-64v62H454z"/>
			<path style="fill:#333333;" d="M454,450c5.5,0,10-4.5,10-10v-52h-64v62H454z"/>
			<linearGradient id="SVGID_48_" gradientUnits="userSpaceOnUse" x1="432" y1="451" x2="432" y2="389.0005">
				<stop  offset="0" style="stop-color:#B3B3B3"/>
				<stop  offset="1" style="stop-color:#4D4D4D"/>
			</linearGradient>
			<path style="fill:url(#SVGID_48_);" d="M454,451c5.5,0,10-4.5,10-10v-52h-64v62H454z"/>
		</g>
		<g id="duilist-bottom-background-pressed">
			<rect x="326" y="390" style="fill:#FFFFFF;" width="64" height="62"/>
			<rect x="326" y="388" style="fill:#333333;" width="64" height="62"/>
			<linearGradient id="SVGID_49_" gradientUnits="userSpaceOnUse" x1="358" y1="451" x2="358" y2="389.0005">
				<stop  offset="0" style="stop-color:#B3B3B3"/>
				<stop  offset="1" style="stop-color:#4D4D4D"/>
			</linearGradient>
			<rect x="326" y="389" style="fill:url(#SVGID_49_);" width="64" height="62"/>
		</g>
		<g id="duilist-bottomleft-background-pressed">
			<path style="fill:#FFFFFF;" d="M252,442c0,5.5,4.5,10,10,10h54v-62h-64V442z"/>
			<path style="fill:#333333;" d="M252,440c0,5.5,4.5,10,10,10h54v-62h-64V440z"/>
			<linearGradient id="SVGID_50_" gradientUnits="userSpaceOnUse" x1="284" y1="451" x2="284" y2="389.0005">
				<stop  offset="0" style="stop-color:#B3B3B3"/>
				<stop  offset="1" style="stop-color:#4D4D4D"/>
			</linearGradient>
			<path style="fill:url(#SVGID_50_);" d="M252,441c0,5.5,4.5,10,10,10h54v-62h-64V441z"/>
		</g>
		<g id="duilist-right-background-pressed">
			<rect x="400" y="316" style="fill:#FFFFFF;" width="64" height="62"/>
			<rect x="400" y="314" style="fill:#333333;" width="64" height="62"/>
			<linearGradient id="SVGID_51_" gradientUnits="userSpaceOnUse" x1="432" y1="377" x2="432" y2="315">
				<stop  offset="0" style="stop-color:#B3B3B3"/>
				<stop  offset="1" style="stop-color:#4D4D4D"/>
			</linearGradient>
			<rect x="400" y="315" style="fill:url(#SVGID_51_);" width="64" height="62"/>
		</g>
		<g id="duilist-center-background-pressed">
			<rect x="326" y="316" style="fill:#FFFFFF;" width="64" height="62"/>
			<rect x="326" y="314" style="fill:#333333;" width="64" height="62"/>
			<linearGradient id="SVGID_52_" gradientUnits="userSpaceOnUse" x1="358" y1="377" x2="358" y2="315">
				<stop  offset="0" style="stop-color:#B3B3B3"/>
				<stop  offset="1" style="stop-color:#4D4D4D"/>
			</linearGradient>
			<rect x="326" y="315" style="fill:url(#SVGID_52_);" width="64" height="62"/>
		</g>
		<g id="duilist-left-background-pressed">
			<rect x="252" y="316" style="fill:#FFFFFF;" width="64" height="62"/>
			<rect x="252" y="314" style="fill:#333333;" width="64" height="62"/>
			<linearGradient id="SVGID_53_" gradientUnits="userSpaceOnUse" x1="284" y1="377" x2="284" y2="315">
				<stop  offset="0" style="stop-color:#B3B3B3"/>
				<stop  offset="1" style="stop-color:#4D4D4D"/>
			</linearGradient>
			<rect x="252" y="315" style="fill:url(#SVGID_53_);" width="64" height="62"/>
		</g>
		<g id="duilist-topright-background-pressed">
			<path style="fill:#FFFFFF;" d="M464,252c0-5.5-4.5-10-10-10h-54v62h64V252z"/>
			<path style="fill:#333333;" d="M464,250c0-5.5-4.5-10-10-10h-54v62h64V250z"/>
			<linearGradient id="SVGID_54_" gradientUnits="userSpaceOnUse" x1="432" y1="303" x2="432" y2="241">
				<stop  offset="0" style="stop-color:#B3B3B3"/>
				<stop  offset="1" style="stop-color:#4D4D4D"/>
			</linearGradient>
			<path style="fill:url(#SVGID_54_);" d="M464,251c0-5.5-4.5-10-10-10h-54v62h64V251z"/>
		</g>
		<g id="duilist-top-background-pressed">
			<rect x="326" y="242" style="fill:#FFFFFF;" width="64" height="62"/>
			<rect x="326" y="240" style="fill:#333333;" width="64" height="62"/>
			<linearGradient id="SVGID_55_" gradientUnits="userSpaceOnUse" x1="358" y1="303" x2="358" y2="241">
				<stop  offset="0" style="stop-color:#B3B3B3"/>
				<stop  offset="1" style="stop-color:#4D4D4D"/>
			</linearGradient>
			<rect x="326" y="241" style="fill:url(#SVGID_55_);" width="64" height="62"/>
		</g>
		<g id="duilist-topleft-background-pressed">
			<path style="fill:#FFFFFF;" d="M252,252c0-5.5,4.5-10,10-10h54v62h-64V252z"/>
			<path style="fill:#333333;" d="M252,250c0-5.5,4.5-10,10-10h54v62h-64V250z"/>
			<linearGradient id="SVGID_56_" gradientUnits="userSpaceOnUse" x1="284" y1="303" x2="284" y2="241">
				<stop  offset="0" style="stop-color:#B3B3B3"/>
				<stop  offset="1" style="stop-color:#4D4D4D"/>
			</linearGradient>
			<path style="fill:url(#SVGID_56_);" d="M252,251c0-5.5,4.5-10,10-10h54v62h-64V251z"/>
		</g>
		<g id="duilist-fullwidth-background-pressed">
			<rect x="326" y="168" style="fill:#FFFFFF;" width="64" height="62"/>
			<rect x="326" y="166" style="fill:#333333;" width="64" height="62"/>
			<linearGradient id="SVGID_57_" gradientUnits="userSpaceOnUse" x1="358" y1="229" x2="358" y2="167">
				<stop  offset="0" style="stop-color:#B3B3B3"/>
				<stop  offset="1" style="stop-color:#4D4D4D"/>
			</linearGradient>
			<rect x="326" y="167" style="fill:url(#SVGID_57_);" width="64" height="62"/>
		</g>
		<g id="duilist-fullwidth-right-background-pressed">
			<rect x="400" y="94" style="fill:#FFFFFF;" width="64" height="62"/>
			<rect x="400" y="92" style="fill:#333333;" width="64" height="62"/>
			<linearGradient id="SVGID_58_" gradientUnits="userSpaceOnUse" x1="432" y1="155" x2="432" y2="93">
				<stop  offset="0" style="stop-color:#B3B3B3"/>
				<stop  offset="1" style="stop-color:#4D4D4D"/>
			</linearGradient>
			<rect x="400" y="93" style="fill:url(#SVGID_58_);" width="64" height="62"/>
		</g>
		<g id="duilist-fullwidth-center-background-pressed">
			<rect x="326" y="94" style="fill:#FFFFFF;" width="64" height="62"/>
			<rect x="326" y="92" style="fill:#333333;" width="64" height="62"/>
			<linearGradient id="SVGID_59_" gradientUnits="userSpaceOnUse" x1="358" y1="155" x2="358" y2="93">
				<stop  offset="0" style="stop-color:#B3B3B3"/>
				<stop  offset="1" style="stop-color:#4D4D4D"/>
			</linearGradient>
			<rect x="326" y="93" style="fill:url(#SVGID_59_);" width="64" height="62"/>
		</g>
		<g id="duilist-fullwidth-left-background-pressed">
			<rect x="252" y="94" style="fill:#FFFFFF;" width="64" height="62"/>
			<rect x="252" y="92" style="fill:#333333;" width="64" height="62"/>
			<linearGradient id="SVGID_60_" gradientUnits="userSpaceOnUse" x1="284" y1="155" x2="284" y2="93">
				<stop  offset="0" style="stop-color:#B3B3B3"/>
				<stop  offset="1" style="stop-color:#4D4D4D"/>
			</linearGradient>
			<rect x="252" y="93" style="fill:url(#SVGID_60_);" width="64" height="62"/>
		</g>
		<g id="duilist-single-background">
			<path style="fill:#CCCCCC;" d="M158,812c0,5.5-4.5,10-10,10h-44c-5.5,0-10-4.5-10-10v-42c0-5.5,4.5-10,10-10h44
				c5.5,0,10,4.5,10,10V812z"/>
			<path style="fill:#FFFFFF;" d="M158,810c0,5.5-4.5,10-10,10h-44c-5.5,0-10-4.5-10-10v-42c0-5.5,4.5-10,10-10h44
				c5.5,0,10,4.5,10,10V810z"/>
			<path style="fill:#F2F2F2;" d="M158,811c0,5.5-4.5,10-10,10h-44c-5.5,0-10-4.5-10-10v-42c0-5.5,4.5-10,10-10h44
				c5.5,0,10,4.5,10,10V811z"/>
		</g>
		<g id="duilist-singlecolumn-bottom-background">
			<path style="fill:#CCCCCC;" d="M158,686v52c0,5.5-4.5,10-10,10h-44c-5.5,0-10-4.5-10-10v-52H158z"/>
			<path style="fill:#FFFFFF;" d="M158,684v52c0,5.5-4.5,10-10,10h-44c-5.5,0-10-4.5-10-10v-52H158z"/>
			<path style="fill:#F2F2F2;" d="M158,685v52c0,5.5-4.5,10-10,10h-44c-5.5,0-10-4.5-10-10v-52H158z"/>
		</g>
		<g id="duilist-singlecolumn-center-background">
			<rect x="94" y="612" style="fill:#CCCCCC;" width="64" height="62"/>
			<rect x="94" y="610" style="fill:#FFFFFF;" width="64" height="62"/>
			<rect x="94" y="611" style="fill:#F2F2F2;" width="64" height="62"/>
		</g>
		<g id="duilist-singlecolumn-top-background">
			<path style="fill:#CCCCCC;" d="M94,600v-52c0-5.5,4.5-10,10-10h44c5.5,0,10,4.5,10,10v52H94z"/>
			<path style="fill:#FFFFFF;" d="M94,598v-52c0-5.5,4.5-10,10-10h44c5.5,0,10,4.5,10,10v52H94z"/>
			<path style="fill:#F2F2F2;" d="M94,599v-52c0-5.5,4.5-10,10-10h44c5.5,0,10,4.5,10,10v52H94z"/>
		</g>
		<g id="duilist-singlerow-right-background">
			<path style="fill:#CCCCCC;" d="M168,464h54c5.5,0,10,4.5,10,10v42c0,5.5-4.5,10-10,10h-54V464z"/>
			<path style="fill:#FFFFFF;" d="M168,462h54c5.5,0,10,4.5,10,10v42c0,5.5-4.5,10-10,10h-54V462z"/>
			<path style="fill:#F2F2F2;" d="M168,463h54c5.5,0,10,4.5,10,10v42c0,5.5-4.5,10-10,10h-54V463z"/>
			<rect x="168" y="463" style="fill:#FFFFFF;" width="1" height="62"/>
		</g>
		<g id="duilist-singlerow-center-background">
			<rect x="94" y="464" style="fill:#CCCCCC;" width="64" height="62"/>
			<rect x="94" y="462" style="fill:#FFFFFF;" width="64" height="62"/>
			<rect x="94" y="463" style="fill:#F2F2F2;" width="64" height="62"/>
			<rect x="157" y="463" style="fill:#CCCCCC;" width="1" height="62"/>
			<rect x="94" y="463" style="fill:#FFFFFF;" width="1" height="62"/>
		</g>
		<g id="duilist-singlerow-left-background">
			<path style="fill:#CCCCCC;" d="M84,526H30c-5.5,0-10-4.5-10-10v-42c0-5.5,4.5-10,10-10h54V526z"/>
			<path style="fill:#FFFFFF;" d="M84,524H30c-5.5,0-10-4.5-10-10v-42c0-5.5,4.5-10,10-10h54V524z"/>
			<path style="fill:#F2F2F2;" d="M84,525H30c-5.5,0-10-4.5-10-10v-42c0-5.5,4.5-10,10-10h54V525z"/>
			<rect x="83" y="463" style="fill:#CCCCCC;" width="1" height="62"/>
		</g>
		<g id="duilist-bottomright-background">
			<path style="fill:#CCCCCC;" d="M222,452c5.5,0,10-4.5,10-10v-52h-64v62H222z"/>
			<path style="fill:#FFFFFF;" d="M222,450c5.5,0,10-4.5,10-10v-52h-64v62H222z"/>
			<path style="fill:#F2F2F2;" d="M222,451c5.5,0,10-4.5,10-10v-52h-64v62H222z"/>
			<rect x="168" y="389" style="fill:#FFFFFF;" width="1" height="62"/>
		</g>
		<g id="duilist-bottom-background">
			<rect x="94" y="390" style="fill:#CCCCCC;" width="64" height="62"/>
			<rect x="94" y="388" style="fill:#FFFFFF;" width="64" height="62"/>
			<rect x="94" y="389" style="fill:#F2F2F2;" width="64" height="62"/>
			<rect x="157" y="389" style="fill:#CCCCCC;" width="1" height="62"/>
			<rect x="94" y="389" style="fill:#FFFFFF;" width="1" height="62"/>
		</g>
		<g id="duilist-bottomleft-background">
			<path style="fill:#CCCCCC;" d="M20,442c0,5.5,4.5,10,10,10h54v-62H20V442z"/>
			<path style="fill:#FFFFFF;" d="M20,440c0,5.5,4.5,10,10,10h54v-62H20V440z"/>
			<path style="fill:#F2F2F2;" d="M20,441c0,5.5,4.5,10,10,10h54v-62H20V441z"/>
			<rect x="83" y="389" style="fill:#CCCCCC;" width="1" height="62"/>
		</g>
		<g id="duilist-right-background">
			<rect x="168" y="316" style="fill:#CCCCCC;" width="64" height="62"/>
			<rect x="168" y="314" style="fill:#FFFFFF;" width="64" height="62"/>
			<rect x="168" y="315" style="fill:#F2F2F2;" width="64" height="62"/>
			<rect x="168" y="315" style="fill:#FFFFFF;" width="1" height="62"/>
		</g>
		<g id="duilist-center-background">
			<rect x="94" y="316" style="fill:#CCCCCC;" width="64" height="62"/>
			<rect x="94" y="314" style="fill:#FFFFFF;" width="64" height="62"/>
			<rect x="94" y="315" style="fill:#F2F2F2;" width="64" height="62"/>
			<rect x="157" y="315" style="fill:#CCCCCC;" width="1" height="62"/>
			<rect x="94" y="315" style="fill:#FFFFFF;" width="1" height="62"/>
		</g>
		<g id="duilist-left-background">
			<rect x="20" y="316" style="fill:#CCCCCC;" width="64" height="62"/>
			<rect x="20" y="314" style="fill:#FFFFFF;" width="64" height="62"/>
			<rect x="20" y="315" style="fill:#F2F2F2;" width="64" height="62"/>
			<rect x="83" y="315" style="fill:#CCCCCC;" width="1" height="62"/>
		</g>
		<g id="duilist-topright-background">
			<path style="fill:#CCCCCC;" d="M232,252c0-5.5-4.5-10-10-10h-54v62h64V252z"/>
			<path style="fill:#FFFFFF;" d="M232,250c0-5.5-4.5-10-10-10h-54v62h64V250z"/>
			<path style="fill:#F2F2F2;" d="M232,251c0-5.5-4.5-10-10-10h-54v62h64V251z"/>
			<rect x="168" y="241" style="fill:#FFFFFF;" width="1" height="62"/>
		</g>
		<g id="duilist-top-background">
			<rect x="94" y="242" style="fill:#CCCCCC;" width="64" height="62"/>
			<rect x="94" y="240" style="fill:#FFFFFF;" width="64" height="62"/>
			<rect x="94" y="241" style="fill:#F2F2F2;" width="64" height="62"/>
			<rect x="157" y="241" style="fill:#CCCCCC;" width="1" height="62"/>
			<rect x="94" y="241" style="fill:#FFFFFF;" width="1" height="62"/>
		</g>
		<g id="duilist-topleft-background">
			<path style="fill:#CCCCCC;" d="M20,252c0-5.5,4.5-10,10-10h54v62H20V252z"/>
			<path style="fill:#FFFFFF;" d="M20,250c0-5.5,4.5-10,10-10h54v62H20V250z"/>
			<path style="fill:#F2F2F2;" d="M20,251c0-5.5,4.5-10,10-10h54v62H20V251z"/>
			<rect x="83" y="241" style="fill:#CCCCCC;" width="1" height="62"/>
		</g>
		<g id="duilist-fullwidth-background">
			<rect x="94" y="168" style="fill:#CCCCCC;" width="64" height="62"/>
			<rect x="94" y="166" style="fill:#FFFFFF;" width="64" height="62"/>
			<rect x="94" y="167" style="fill:#F2F2F2;" width="64" height="62"/>
		</g>
		<g id="duilist-fullwidth-right-background">
			<rect x="168" y="94" style="fill:#CCCCCC;" width="64" height="62"/>
			<rect x="168" y="92" style="fill:#FFFFFF;" width="64" height="62"/>
			<rect x="168" y="93" style="fill:#F2F2F2;" width="64" height="62"/>
			<rect x="168" y="93" style="fill:#FFFFFF;" width="1" height="62"/>
		</g>
		<g id="duilist-fullwidth-center-background">
			<rect x="94" y="94" style="fill:#CCCCCC;" width="64" height="62"/>
			<rect x="94" y="92" style="fill:#FFFFFF;" width="64" height="62"/>
			<rect x="94" y="93" style="fill:#F2F2F2;" width="64" height="62"/>
			<rect x="157" y="93" style="fill:#CCCCCC;" width="1" height="62"/>
			<rect x="94" y="93" style="fill:#FFFFFF;" width="1" height="62"/>
		</g>
		<g id="duilist-fullwidth-left-background">
			<rect x="20" y="94" style="fill:#CCCCCC;" width="64" height="62"/>
			<rect x="20" y="92" style="fill:#FFFFFF;" width="64" height="62"/>
			<rect x="20" y="93" style="fill:#F2F2F2;" width="64" height="62"/>
			<rect x="83" y="93" style="fill:#CCCCCC;" width="1" height="62"/>
		</g>
		<g id="duilist-header-background">
			<linearGradient id="SVGID_61_" gradientUnits="userSpaceOnUse" x1="52" y1="82" x2="52" y2="50">
				<stop  offset="0" style="stop-color:#010101"/>
				<stop  offset="1" style="stop-color:#333333"/>
			</linearGradient>
			<rect x="20" y="50" style="fill:url(#SVGID_61_);" width="64" height="32"/>
		</g>
	</g>
</g>
</svg>
