<?xml version="1.0" encoding="UTF-8" standalone="no"?>
<!-- Generator: Adobe Illustrator 14.0.0, SVG Export Plug-In . SVG Version: 6.00 Build 43363)  -->

<svg
   xmlns:dc="http://purl.org/dc/elements/1.1/"
   xmlns:cc="http://creativecommons.org/ns#"
   xmlns:rdf="http://www.w3.org/1999/02/22-rdf-syntax-ns#"
   xmlns:svg="http://www.w3.org/2000/svg"
   xmlns="http://www.w3.org/2000/svg"
   xmlns:xlink="http://www.w3.org/1999/xlink"
   xmlns:sodipodi="http://sodipodi.sourceforge.net/DTD/sodipodi-0.dtd"
   xmlns:inkscape="http://www.inkscape.org/namespaces/inkscape"
   version="1.1"
   x="0px"
   y="0px"
   width="200px"
   height="300px"
   viewBox="0 0 200 300"
   style="enable-background:new 0 0 200 300;"
   xml:space="preserve"
   id="svg2"
   inkscape:version="0.47pre4 r22446"
   sodipodi:docname="duiprogressindicator.svg"><metadata
   id="metadata144"><rdf:RDF><cc:Work
       rdf:about=""><dc:format>image/svg+xml</dc:format><dc:type
         rdf:resource="http://purl.org/dc/dcmitype/StillImage" /></cc:Work></rdf:RDF></metadata><defs
   id="defs142"><inkscape:perspective
   sodipodi:type="inkscape:persp3d"
   inkscape:vp_x="0 : 150 : 1"
   inkscape:vp_y="0 : 1000 : 0"
   inkscape:vp_z="200 : 150 : 1"
   inkscape:persp3d-origin="100 : 100 : 1"
   id="perspective146" />
	
<linearGradient
   inkscape:collect="always"
   xlink:href="#SVGID_1_"
   id="linearGradient3030"
   gradientUnits="userSpaceOnUse"
   x1="119"
   y1="258.44919"
   x2="119"
   y2="246.4492" /><linearGradient
   inkscape:collect="always"
   xlink:href="#SVGID_2_"
   id="linearGradient3032"
   gradientUnits="userSpaceOnUse"
   x1="119"
   y1="278.44919"
   x2="119"
   y2="266.44919" /><radialGradient
   inkscape:collect="always"
   xlink:href="#SVGID_3_"
   id="radialGradient3034"
   gradientUnits="userSpaceOnUse"
   cx="114"
   cy="144"
   r="7" /><radialGradient
   inkscape:collect="always"
   xlink:href="#SVGID_4_"
   id="radialGradient3036"
   gradientUnits="userSpaceOnUse"
   cx="114"
   cy="118"
   r="4" /><radialGradient
   inkscape:collect="always"
   xlink:href="#SVGID_5_"
   id="radialGradient3038"
   gradientUnits="userSpaceOnUse"
   cx="114"
   cy="92"
   r="3" />
		
		
		
		
		
		
		
		
		
		
		
	<inkscape:perspective
   id="perspective3671"
   inkscape:persp3d-origin="0.5 : 0.33333333 : 1"
   inkscape:vp_z="1 : 0.5 : 1"
   inkscape:vp_y="0 : 1000 : 0"
   inkscape:vp_x="0 : 0.5 : 1"
   sodipodi:type="inkscape:persp3d" /><inkscape:perspective
   id="perspective3699"
   inkscape:persp3d-origin="0.5 : 0.33333333 : 1"
   inkscape:vp_z="1 : 0.5 : 1"
   inkscape:vp_y="0 : 1000 : 0"
   inkscape:vp_x="0 : 0.5 : 1"
   sodipodi:type="inkscape:persp3d" /></defs><sodipodi:namedview
   pagecolor="#ffffff"
   bordercolor="#666666"
   borderopacity="1"
   objecttolerance="10"
   gridtolerance="10"
   guidetolerance="10"
   inkscape:pageopacity="0"
   inkscape:pageshadow="2"
   inkscape:window-width="1121"
   inkscape:window-height="1059"
   id="namedview140"
   showgrid="true"
   inkscape:zoom="16"
   inkscape:cx="102.31793"
   inkscape:cy="172.91943"
   inkscape:window-x="728"
   inkscape:window-y="119"
   inkscape:window-maximized="0"
   inkscape:current-layer="duiprogressindicator-spinner-large-on"
   inkscape:snap-bbox="true"
   inkscape:snap-bbox-edge-midpoints="true"
   inkscape:bbox-nodes="true"><inkscape:grid
     type="xygrid"
     id="grid3666" /></sodipodi:namedview>
<g
   id="duiprogressindicator-layer">
</g>
<g
   id="duiprogressindicatorThemeTemplateHelper">
			<g
   id="g8">
				<path
   style="fill:#b3b3b3"
   d="M 16,299 C 7.729,299 1,292.271 1,284 V 16 C 1,7.729 7.729,1 16,1 h 168 c 8.271,0 15,6.729 15,15 v 268 c 0,8.271 -6.729,15 -15,15 H 16 z"
   id="path10" />
				<g
   id="g12">
					<path
   d="m 184,2 c 7.72,0 14,6.28 14,14 v 268 c 0,7.72 -6.28,14 -14,14 H 16 C 8.28,298 2,291.72 2,284 V 16 C 2,8.28 8.28,2 16,2 h 168 m 0,-2 H 16 C 7.2,0 0,7.2 0,16 v 268 c 0,8.8 7.2,16 16,16 h 168 c 8.8,0 16,-7.2 16,-16 V 16 C 200,7.2 192.8,0 184,0 l 0,0 z"
   id="path14" />
				</g>
			</g>
			<path
   style="fill:#010101"
   d="m 68.143,22.408 0.441,1.701 c 0.43,-0.635 0.908,-1.107 1.436,-1.414 0.525,-0.309 1.195,-0.462 2.01,-0.462 1.318,0 2.309,0.497 2.973,1.492 0.662,0.994 0.994,2.486 0.994,4.476 0,1.969 -0.453,3.504 -1.357,4.604 -0.906,1.102 -2.211,1.651 -3.912,1.651 -0.451,0 -0.992,-0.075 -1.621,-0.226 v 3.527 h -2.184 v -15.35 h 1.22 z m 0.962,5.332 v 4.932 c 0.527,0.198 1.08,0.297 1.662,0.297 0.984,0 1.725,-0.342 2.219,-1.025 0.496,-0.684 0.744,-1.965 0.744,-3.845 0,-1.456 -0.184,-2.548 -0.553,-3.276 -0.369,-0.728 -0.92,-1.092 -1.652,-1.092 -0.793,0 -1.395,0.307 -1.805,0.918 -0.41,0.611 -0.615,1.642 -0.615,3.091 z"
   id="path16" />
			<path
   style="fill:#010101"
   d="m 79.688,22.408 0.502,1.988 c 0.664,-1.4 1.818,-2.102 3.467,-2.102 0.219,0 0.379,0.01 0.482,0.031 v 1.988 c -0.172,-0.014 -0.428,-0.02 -0.77,-0.02 -0.938,0 -1.623,0.224 -2.061,0.671 -0.438,0.448 -0.656,1.147 -0.656,2.097 v 7.271 H 78.466 V 22.408 h 1.222 z"
   id="path18" />
			<path
   style="fill:#010101"
   d="m 89.973,34.497 c -1.607,0 -2.809,-0.526 -3.609,-1.579 -0.799,-1.053 -1.199,-2.632 -1.199,-4.737 0,-1.832 0.414,-3.281 1.246,-4.348 0.83,-1.066 2.018,-1.6 3.562,-1.6 1.559,0 2.75,0.526 3.574,1.579 0.822,1.053 1.234,2.522 1.234,4.409 0,1.941 -0.385,3.473 -1.152,4.594 -0.77,1.122 -1.988,1.682 -3.656,1.682 z m 0,-1.405 c 0.842,0 1.475,-0.381 1.902,-1.143 0.427,-0.762 0.641,-2.039 0.641,-3.83 0,-1.265 -0.219,-2.326 -0.656,-3.184 -0.437,-0.858 -1.066,-1.287 -1.887,-1.287 -0.834,0 -1.467,0.387 -1.896,1.158 -0.432,0.773 -0.646,1.877 -0.646,3.312 0,1.613 0.215,2.846 0.646,3.696 0.429,0.853 1.062,1.278 1.896,1.278 z"
   id="path20" />
			<path
   style="fill:#010101"
   d="m 104.123,23.854 0.461,-1.445 h 1.221 V 33.77 c 0,1.285 -0.398,2.281 -1.195,2.988 -0.797,0.708 -1.889,1.062 -3.275,1.062 -1.137,0 -2.424,-0.181 -3.867,-0.544 v -1.537 c 1.504,0.361 2.707,0.543 3.609,0.543 0.787,0 1.363,-0.146 1.729,-0.436 0.365,-0.291 0.592,-0.67 0.682,-1.139 0.088,-0.468 0.133,-1.133 0.133,-1.994 v -0.308 c -0.58,0.834 -1.51,1.251 -2.789,1.251 -1.359,0 -2.381,-0.47 -3.061,-1.41 -0.68,-0.939 -1.02,-2.35 -1.02,-4.229 0,-1.798 0.375,-3.211 1.127,-4.24 0.752,-1.028 1.84,-1.543 3.262,-1.543 1.366,-0.001 2.36,0.539 2.983,1.62 z m -2.789,8.316 c 0.758,0 1.336,-0.272 1.732,-0.815 0.396,-0.544 0.594,-1.714 0.594,-3.513 0,-1.381 -0.186,-2.418 -0.559,-3.111 -0.373,-0.693 -0.928,-1.041 -1.666,-1.041 -0.787,0 -1.387,0.297 -1.799,0.893 -0.414,0.594 -0.621,1.682 -0.621,3.26 0,1.443 0.193,2.525 0.58,3.246 0.385,0.72 0.966,1.081 1.739,1.081 z"
   id="path22" />
			<path
   style="fill:#010101"
   d="m 109.998,22.408 0.502,1.988 c 0.662,-1.4 1.818,-2.102 3.467,-2.102 0.217,0 0.379,0.01 0.48,0.031 v 1.988 c -0.17,-0.014 -0.428,-0.02 -0.768,-0.02 -0.938,0 -1.625,0.224 -2.062,0.671 -0.438,0.448 -0.656,1.147 -0.656,2.097 v 7.271 h -2.184 V 22.408 h 1.221 z"
   id="path24" />
			<path
   style="fill:#010101"
   d="m 123.789,32.508 v 1.486 c -1.074,0.336 -2.184,0.503 -3.332,0.503 -1.668,0 -2.916,-0.503 -3.744,-1.507 -0.826,-1.006 -1.24,-2.554 -1.24,-4.646 0,-1.839 0.4,-3.317 1.199,-4.435 0.801,-1.118 1.941,-1.677 3.426,-1.677 1.203,0 2.107,0.319 2.713,0.959 0.604,0.64 0.992,1.422 1.162,2.348 0.172,0.927 0.258,2.028 0.258,3.308 h -6.439 c 0,1.387 0.246,2.428 0.738,3.122 0.492,0.694 1.23,1.04 2.215,1.04 0.833,10e-4 1.847,-0.166 3.044,-0.501 z m -5.998,-5.004 h 4.295 c 0,-1.442 -0.17,-2.461 -0.512,-3.056 -0.342,-0.595 -0.834,-0.892 -1.477,-0.892 -0.719,0 -1.266,0.307 -1.646,0.922 -0.379,0.616 -0.599,1.625 -0.66,3.026 z"
   id="path26" />
			<path
   style="fill:#010101"
   d="m 128.957,34.497 c -0.896,0 -1.918,-0.134 -3.066,-0.399 v -1.569 c 1.23,0.335 2.201,0.503 2.912,0.503 0.732,0 1.283,-0.152 1.652,-0.457 0.369,-0.304 0.553,-0.76 0.553,-1.369 0,-0.355 -0.117,-0.688 -0.348,-0.999 -0.234,-0.312 -0.814,-0.692 -1.744,-1.144 -0.594,-0.287 -1.076,-0.559 -1.445,-0.815 -0.369,-0.256 -0.684,-0.601 -0.943,-1.035 -0.259,-0.434 -0.391,-0.973 -0.391,-1.615 0,-1.032 0.367,-1.851 1.104,-2.456 0.734,-0.604 1.676,-0.907 2.824,-0.907 1.006,0 1.914,0.126 2.729,0.38 v 1.496 c -0.855,-0.293 -1.686,-0.44 -2.492,-0.44 -0.67,0 -1.172,0.144 -1.502,0.431 -0.332,0.287 -0.498,0.718 -0.498,1.292 0,0.301 0.105,0.583 0.318,0.846 0.211,0.264 0.74,0.597 1.59,1 0.615,0.287 1.123,0.565 1.527,0.836 0.402,0.271 0.742,0.636 1.02,1.097 0.277,0.462 0.416,1.041 0.416,1.738 0,1.176 -0.365,2.068 -1.092,2.676 -0.729,0.606 -1.77,0.91 -3.124,0.91 z"
   id="path28" />
			<path
   style="fill:#010101"
   d="m 137.652,34.497 c -0.896,0 -1.918,-0.134 -3.066,-0.399 v -1.569 c 1.23,0.335 2.201,0.503 2.912,0.503 0.732,0 1.283,-0.152 1.652,-0.457 0.369,-0.304 0.553,-0.76 0.553,-1.369 0,-0.355 -0.117,-0.688 -0.348,-0.999 -0.234,-0.312 -0.814,-0.692 -1.744,-1.144 -0.594,-0.287 -1.076,-0.559 -1.445,-0.815 -0.369,-0.256 -0.684,-0.601 -0.943,-1.035 -0.259,-0.434 -0.391,-0.973 -0.391,-1.615 0,-1.032 0.367,-1.851 1.104,-2.456 0.734,-0.604 1.676,-0.907 2.824,-0.907 1.006,0 1.914,0.126 2.729,0.38 v 1.496 c -0.855,-0.293 -1.686,-0.44 -2.492,-0.44 -0.67,0 -1.172,0.144 -1.502,0.431 -0.332,0.287 -0.498,0.718 -0.498,1.292 0,0.301 0.105,0.583 0.318,0.846 0.211,0.264 0.74,0.597 1.59,1 0.615,0.287 1.123,0.565 1.527,0.836 0.402,0.271 0.742,0.636 1.02,1.097 0.277,0.462 0.416,1.041 0.416,1.738 0,1.176 -0.365,2.068 -1.092,2.676 -0.729,0.606 -1.77,0.91 -3.124,0.91 z"
   id="path30" />
			<path
   style="fill:#010101"
   d="m 67.9,59.533 h -2.184 v -10.5 H 64.353 V 47.607 H 67.9 V 59.533 z M 66.814,43.424 c 0.334,0 0.623,0.123 0.867,0.369 0.242,0.246 0.363,0.537 0.363,0.872 0,0.342 -0.119,0.634 -0.359,0.877 -0.238,0.243 -0.529,0.364 -0.871,0.364 -0.35,0 -0.643,-0.121 -0.883,-0.364 -0.238,-0.243 -0.357,-0.535 -0.357,-0.877 0,-0.349 0.119,-0.643 0.357,-0.882 0.241,-0.239 0.534,-0.359 0.883,-0.359 z"
   id="path32" />
			<path
   style="fill:#010101"
   d="M 79.766,59.533 H 77.58 v -7.916 c 0,-0.896 -0.156,-1.566 -0.471,-2.015 -0.315,-0.449 -0.787,-0.672 -1.416,-0.672 -0.793,0 -1.408,0.301 -1.846,0.902 -0.438,0.601 -0.656,1.384 -0.656,2.349 v 7.352 H 71.007 V 47.607 h 1.221 l 0.441,1.764 c 0.758,-1.291 1.912,-1.938 3.465,-1.938 1.211,0 2.117,0.318 2.723,0.953 0.605,0.637 0.908,1.586 0.908,2.852 v 8.295 z"
   id="path34" />
			<path
   style="fill:#010101"
   d="m 90.162,59.533 -0.461,-1.467 c -0.631,1.088 -1.707,1.631 -3.23,1.631 -1.416,0 -2.48,-0.5 -3.195,-1.502 -0.713,-1.002 -1.07,-2.565 -1.07,-4.691 0,-1.784 0.381,-3.242 1.143,-4.373 0.762,-1.131 1.844,-1.697 3.246,-1.697 1.148,0 2.01,0.346 2.584,1.035 v -5.168 h 2.184 V 59.533 H 90.162 z M 89.25,54.099 89.238,53.422 c 0,-1.777 -0.199,-2.977 -0.6,-3.6 -0.4,-0.621 -0.969,-0.933 -1.707,-0.933 -0.82,0 -1.436,0.38 -1.846,1.138 -0.41,0.76 -0.615,1.897 -0.615,3.415 0,1.593 0.197,2.786 0.596,3.579 0.395,0.793 0.99,1.189 1.783,1.189 0.771,0 1.365,-0.287 1.779,-0.861 0.414,-0.574 0.622,-1.658 0.622,-3.25 z"
   id="path36" />
			<path
   style="fill:#010101"
   d="m 96.848,59.533 h -2.184 v -10.5 h -1.363 v -1.426 h 3.547 V 59.533 z M 95.762,43.424 c 0.334,0 0.623,0.123 0.865,0.369 0.242,0.246 0.365,0.537 0.365,0.872 0,0.342 -0.121,0.634 -0.359,0.877 -0.24,0.243 -0.531,0.364 -0.871,0.364 -0.35,0 -0.645,-0.121 -0.883,-0.364 -0.24,-0.243 -0.359,-0.535 -0.359,-0.877 0,-0.349 0.119,-0.643 0.359,-0.882 0.238,-0.239 0.533,-0.359 0.883,-0.359 z"
   id="path38" />
			<path
   style="fill:#010101"
   d="m 104.365,59.697 c -1.621,0 -2.846,-0.531 -3.672,-1.595 -0.828,-1.062 -1.24,-2.623 -1.24,-4.681 0,-1.914 0.445,-3.391 1.338,-4.43 0.893,-1.039 2.189,-1.559 3.891,-1.559 0.664,0 1.336,0.086 2.021,0.256 v 1.487 c -0.521,-0.164 -1.166,-0.246 -1.939,-0.246 -0.998,0 -1.754,0.398 -2.271,1.194 -0.516,0.797 -0.773,1.909 -0.773,3.338 0,1.538 0.258,2.714 0.773,3.527 0.518,0.813 1.273,1.221 2.271,1.221 0.861,0 1.535,-0.079 2.021,-0.236 v 1.415 c -0.732,0.207 -1.539,0.309 -2.42,0.309 z"
   id="path40" />
			<path
   style="fill:#010101"
   d="m 114.793,57.811 c -0.738,1.258 -1.887,1.887 -3.445,1.887 -1.088,0 -1.934,-0.306 -2.539,-0.918 -0.604,-0.611 -0.906,-1.468 -0.906,-2.568 0,-1.135 0.311,-1.98 0.934,-2.538 0.621,-0.557 1.365,-0.905 2.234,-1.046 0.867,-0.14 1.924,-0.21 3.168,-0.21 v -1.405 c 0,-1.387 -0.742,-2.081 -2.225,-2.081 -0.855,0 -1.896,0.181 -3.127,0.544 v -1.528 c 1.236,-0.342 2.412,-0.513 3.527,-0.513 1.312,0 2.309,0.316 2.988,0.948 0.68,0.633 1.021,1.563 1.021,2.794 v 8.357 h -1.189 l -0.441,-1.723 z m -0.555,-4.092 h -1.219 c -0.979,0 -1.711,0.207 -2.201,0.621 -0.488,0.414 -0.732,1.03 -0.732,1.851 0,0.67 0.148,1.171 0.445,1.502 0.299,0.332 0.744,0.497 1.34,0.497 0.75,0 1.334,-0.238 1.748,-0.717 0.412,-0.479 0.619,-1.129 0.619,-1.949 v -1.805 z"
   id="path42" />
			<path
   style="fill:#010101"
   d="m 122.41,59.697 c -0.93,0 -1.609,-0.217 -2.039,-0.651 -0.432,-0.434 -0.646,-1.126 -0.646,-2.076 v -7.937 h -1.568 v -0.82 l 3.188,-3.25 h 0.564 v 2.645 h 2.902 v 1.426 h -2.902 v 7.578 c 0,0.648 0.105,1.078 0.318,1.286 0.211,0.209 0.533,0.313 0.963,0.313 0.445,0 1.047,-0.1 1.805,-0.298 v 1.415 c -0.917,0.246 -1.778,0.369 -2.585,0.369 z"
   id="path44" />
			<path
   style="fill:#010101"
   d="m 130.799,59.697 c -1.607,0 -2.809,-0.526 -3.609,-1.579 -0.799,-1.053 -1.199,-2.632 -1.199,-4.737 0,-1.832 0.414,-3.281 1.246,-4.348 0.83,-1.066 2.018,-1.6 3.562,-1.6 1.559,0 2.75,0.526 3.574,1.579 0.822,1.053 1.234,2.522 1.234,4.409 0,1.941 -0.385,3.473 -1.152,4.594 -0.769,1.122 -1.988,1.682 -3.656,1.682 z m 0,-1.404 c 0.842,0 1.475,-0.381 1.902,-1.144 0.427,-0.763 0.641,-2.039 0.641,-3.83 0,-1.265 -0.219,-2.325 -0.656,-3.184 -0.437,-0.859 -1.066,-1.287 -1.887,-1.287 -0.834,0 -1.467,0.386 -1.896,1.159 -0.432,0.771 -0.646,1.876 -0.646,3.312 0,1.613 0.215,2.846 0.646,3.696 0.429,0.852 1.062,1.278 1.896,1.278 z"
   id="path46" />
			<path
   style="fill:#010101"
   d="m 139.299,47.607 0.502,1.99 c 0.664,-1.402 1.818,-2.103 3.467,-2.103 0.219,0 0.379,0.011 0.482,0.03 v 1.99 c -0.172,-0.014 -0.428,-0.021 -0.77,-0.021 -0.938,0 -1.623,0.225 -2.061,0.672 -0.438,0.448 -0.656,1.146 -0.656,2.098 v 7.27 h -2.186 V 47.607 h 1.222 z"
   id="path48" />
		</g><g
   id="duiprogressindicator-bar-background">
			<g
   id="Normal_76_"
   style="opacity:0.2">
				<path
   style="fill:#010101"
   d="m 134,254.449 c 0,3.3 -2.7,6 -6,6 h -18 c -3.3,0 -6,-2.7 -6,-6 v -4 c 0,-3.3 2.7,-6 6,-6 h 18 c 3.3,0 6,2.7 6,6 v 4 z"
   id="path52" />
			</g>
			<g
   id="Normal_75_">
				<path
   style="fill:#ccc"
   d="m 133,254.449 c 0,2.75 -2.25,5 -5,5 h -18 c -2.75,0 -5,-2.25 -5,-5 v -2 c 0,-2.75 2.25,-5 5,-5 h 18 c 2.75,0 5,2.25 5,5 v 2 z"
   id="path55" />
			</g>
			<g
   id="Normal_74_">
				<path
   style="fill:#010101"
   d="m 133,252.449 c 0,2.75 -2.25,5 -5,5 h -18 c -2.75,0 -5,-2.25 -5,-5 v -2 c 0,-2.75 2.25,-5 5,-5 h 18 c 2.75,0 5,2.25 5,5 v 2 z"
   id="path58" />
			</g>
			<g
   id="Normal_73_">
				<linearGradient
   id="SVGID_1_"
   gradientUnits="userSpaceOnUse"
   x1="119"
   y1="258.44919"
   x2="119"
   y2="246.4492">
					<stop
   offset="0"
   style="stop-color:#1A1A1A"
   id="stop62" />
					<stop
   offset="1"
   style="stop-color:#000000"
   id="stop64" />
				</linearGradient>
				<path
   style="fill:url(#linearGradient3030)"
   d="m 133,253.449 c 0,2.75 -2.25,5 -5,5 h -18 c -2.75,0 -5,-2.25 -5,-5 v -2 c 0,-2.75 2.25,-5 5,-5 h 18 c 2.75,0 5,2.25 5,5 v 2 z"
   id="path66" />
			</g>
		</g><g
   id="duiprogressindicator-bar-progress">
			<rect
   x="104"
   y="264.44901"
   style="opacity:0;fill:#010101"
   width="30"
   height="16"
   id="rect69" />
			<g
   id="Normal_72_">
				<linearGradient
   id="SVGID_2_"
   gradientUnits="userSpaceOnUse"
   x1="119"
   y1="278.44919"
   x2="119"
   y2="266.44919">
					<stop
   offset="0"
   style="stop-color:#74CCD4"
   id="stop73" />
					<stop
   offset="0.1301"
   style="stop-color:#66C2D6"
   id="stop75" />
					<stop
   offset="0.4156"
   style="stop-color:#4BB5DC"
   id="stop77" />
					<stop
   offset="0.7046"
   style="stop-color:#35ADDF"
   id="stop79" />
					<stop
   offset="1"
   style="stop-color:#2AAAE2"
   id="stop81" />
				</linearGradient>
				<path
   style="fill:url(#linearGradient3032)"
   d="m 133,273.449 c 0,2.75 -2.25,5 -5,5 h -18 c -2.75,0 -5,-2.25 -5,-5 v -2 c 0,-2.75 2.25,-5 5,-5 h 18 c 2.75,0 5,2.25 5,5 v 2 z"
   id="path83" />
			</g>
		</g><g
   id="duiprogressindicator-bar-progress-unknown-mask">
			<rect
   x="104"
   y="214.588"
   style="opacity:0;fill:#010101"
   width="22"
   height="22"
   id="rect86" />
			<path
   style="fill:white"
   d="m 123.083,226.588 c 0,3.85 -3.149,7 -7,7 h -2 c -3.851,0 -7,-3.15 -7,-7 v -2 c 0,-3.851 3.149,-7 7,-7 h 2 c 3.851,0 7,3.149 7,7 v 2 z"
   id="path88" />
		</g><g
   id="duiprogressindicator-bar-progress-unknown">
			<rect
   x="107"
   y="193"
   style="fill:#f2f2f2"
   width="16"
   height="16"
   id="rect91" />
			<path
   style="fill:#ccc"
   d="M 123,197.243 111.242,209 H 107 v -4.243 L 118.758,193 H 123 v 4.243 z m 0,7.515 -4.243,4.242 H 123 v -4.242 z M 107,197.242 111.243,193 H 107 v 4.242 z"
   id="path93" />
		</g><g
   id="duiprogressindicator-spinner-large-on">
			
			<radialGradient
   id="SVGID_3_"
   cx="114"
   cy="144"
   r="7"
   gradientUnits="userSpaceOnUse">
				<stop
   offset="0"
   style="stop-color:#42C4E3"
   id="stop99" />
				<stop
   offset="1"
   style="stop-color:#2AAAE2"
   id="stop101" />
			</radialGradient>
			<circle
   style="fill:url(#radialGradient3034)"
   cx="114"
   cy="144"
   r="7"
   id="circle103"
   sodipodi:cx="114"
   sodipodi:cy="144"
   sodipodi:rx="7"
   sodipodi:ry="7"
   d="m 121,144 c 0,3.86599 -3.13401,7 -7,7 -3.86599,0 -7,-3.13401 -7,-7 0,-3.86599 3.13401,-7 7,-7 3.86599,0 7,3.13401 7,7 z"
   transform="matrix(1.1428571,0,0,1.1428571,-16.285714,-20.571429)" />
		<circle
   style="opacity:0.25120773;fill:none;stroke:black;stroke-width:1.06249975999999990;stroke-miterlimit:4;stroke-opacity:1;stroke-dasharray:none"
   cx="92"
   cy="144"
   r="8"
   id="circle106-7"
   sodipodi:cx="92"
   sodipodi:cy="144"
   sodipodi:rx="8"
   sodipodi:ry="8"
   d="m 100,144 c 0,4.41828 -3.581722,8 -8,8 -4.418278,0 -8,-3.58172 -8,-8 0,-4.41828 3.581722,-8 8,-8 4.418278,0 8,3.58172 8,8 z"
   transform="matrix(0.93772899,0,0,0.93772898,27.728933,8.9670266)" /></g><g
   id="duiprogressindicator-spinner-large-off">
			<circle
   style="opacity:0.20772947;fill:none;stroke:black;stroke-width:1.06249975999999990;stroke-miterlimit:4;stroke-opacity:1;stroke-dasharray:none"
   cx="92"
   cy="144"
   r="8"
   id="circle106"
   sodipodi:cx="92"
   sodipodi:cy="144"
   sodipodi:rx="8"
   sodipodi:ry="8"
   d="m 100,144 c 0,4.41828 -3.581722,8 -8,8 -4.418278,0 -8,-3.58172 -8,-8 0,-4.41828 3.581722,-8 8,-8 4.418278,0 8,3.58172 8,8 z"
   transform="matrix(0.93772939,0,0,0.9377288,5.7288922,8.9670512)" />
			
		<circle
   d="m 100,144 c 0,4.41828 -3.581722,8 -8,8 -4.418278,0 -8,-3.58172 -8,-8 0,-4.41828 3.581722,-8 8,-8 4.418278,0 8,3.58172 8,8 z"
   sodipodi:ry="8"
   sodipodi:rx="8"
   sodipodi:cy="144"
   sodipodi:cx="92"
   id="circle2889"
   r="8"
   cy="144"
   cx="92"
   style="opacity:0.5;fill:white;fill-opacity:1"
   transform="matrix(0.875,0,0,0.875,11.5,18)" /></g><g
   id="duiprogressindicator-spinner-medium-on">
			
			<radialGradient
   id="SVGID_4_"
   cx="114"
   cy="118"
   r="4"
   gradientUnits="userSpaceOnUse">
				<stop
   offset="0"
   style="stop-color:#42C4E3"
   id="stop114" />
				<stop
   offset="1"
   style="stop-color:#2AAAE2"
   id="stop116" />
			</radialGradient>
			<circle
   style="fill:url(#radialGradient3036)"
   cx="114"
   cy="118"
   r="4"
   id="circle118"
   sodipodi:cx="114"
   sodipodi:cy="118"
   sodipodi:rx="4"
   sodipodi:ry="4"
   d="m 118,118 c 0,2.20914 -1.79086,4 -4,4 -2.20914,0 -4,-1.79086 -4,-4 0,-2.20914 1.79086,-4 4,-4 2.20914,0 4,1.79086 4,4 z"
   transform="matrix(1.25,0,0,1.25,-28.5,-29.5)" />
		</g><g
   id="duiprogressindicator-spinner-medium-off">
			<circle
   style="opacity:0.5;fill:white;fill-opacity:1"
   cx="92"
   cy="118"
   r="5"
   id="circle121"
   sodipodi:cx="92"
   sodipodi:cy="118"
   sodipodi:rx="5"
   sodipodi:ry="5"
   d="m 97,118 c 0,2.76142 -2.238576,5 -5,5 -2.761424,0 -5,-2.23858 -5,-5 0,-2.76142 2.238576,-5 5,-5 2.761424,0 5,2.23858 5,5 z" />
			
		</g><g
   id="duiprogressindicator-spinner-small-on">
			
			<radialGradient
   id="SVGID_5_"
   cx="114"
   cy="92"
   r="3"
   gradientUnits="userSpaceOnUse">
				<stop
   offset="0"
   style="stop-color:#42C4E3"
   id="stop129" />
				<stop
   offset="1"
   style="stop-color:#2AAAE2"
   id="stop131" />
			</radialGradient>
			<circle
   style="fill:url(#radialGradient3038)"
   cx="114"
   cy="92"
   r="3"
   id="circle133"
   sodipodi:cx="114"
   sodipodi:cy="92"
   sodipodi:rx="3"
   sodipodi:ry="3"
   d="m 117,92 c 0,1.656854 -1.34315,3 -3,3 -1.65685,0 -3,-1.343146 -3,-3 0,-1.656854 1.34315,-3 3,-3 1.65685,0 3,1.343146 3,3 z"
   transform="matrix(1.3333333,0,0,1.3333333,-38,-30.666667)" />
		</g><g
   id="duiprogressindicator-spinner-small-off">
			
			<circle
   style="fill:white;fill-opacity:1;opacity:0.5"
   cx="92"
   cy="92"
   r="3"
   id="circle138"
   sodipodi:cx="92"
   sodipodi:cy="92"
   sodipodi:rx="3"
   sodipodi:ry="3"
   d="m 95,92 c 0,1.656854 -1.343146,3 -3,3 -1.656854,0 -3,-1.343146 -3,-3 0,-1.656854 1.343146,-3 3,-3 1.656854,0 3,1.343146 3,3 z"
   transform="matrix(1.3333333,0,0,1.3333333,-30.666667,-30.666667)" />
		</g>
</svg>