<?xml version="1.0" encoding="iso-8859-1"?>
<!-- Generator: Adobe Illustrator 14.0.0, SVG Export Plug-In . SVG Version: 6.00 Build 43363)  -->
<!DOCTYPE svg PUBLIC "-//W3C//DTD SVG 1.1//EN" "http://www.w3.org/Graphics/SVG/1.1/DTD/svg11.dtd">
<svg version="1.1" xmlns="http://www.w3.org/2000/svg" xmlns:xlink="http://www.w3.org/1999/xlink" x="0px" y="0px" width="720px"
	 height="840px" viewBox="0 0 720 840" style="enable-background:new 0 0 720 840;" xml:space="preserve">
<g id="meegotouch-list-layer">
</g>
<g id="theme">
	<g id="meegotouch-list">
		<g id="MeegotouchListThemeTemplateHelper">
			<g>
				<path style="fill:#B3B3B3;" d="M16,839c-8.271,0-15-6.729-15-15V16C1,7.729,7.729,1,16,1h688c8.271,0,15,6.729,15,15v808
					c0,8.271-6.729,15-15,15H16z"/>
				<g>
					<path d="M704,2c7.72,0,14,6.28,14,14v808c0,7.72-6.28,14-14,14H16c-7.72,0-14-6.28-14-14V16C2,8.28,8.28,2,16,2H704 M704,0H16
						C7.2,0,0,7.2,0,16v808c0,8.8,7.2,16,16,16h688c8.8,0,16-7.2,16-16V16C720,7.2,712.8,0,704,0L704,0z"/>
				</g>
			</g>
			<path d="M345.439,35.998V19.969h2.206v14.417h5.168v1.612H345.439z"/>
			<path d="M357.131,35.998h-2.185V24.989h-1.363v-1.495h3.548V35.998z M356.044,19.108c0.334,0,0.624,0.129,0.866,0.387
				c0.242,0.259,0.364,0.563,0.364,0.914c0,0.358-0.12,0.665-0.359,0.919c-0.239,0.255-0.53,0.382-0.871,0.382
				c-0.348,0-0.644-0.127-0.882-0.382c-0.24-0.254-0.359-0.561-0.359-0.919c0-0.366,0.119-0.674,0.359-0.925
				C355.4,19.234,355.696,19.108,356.044,19.108z"/>
			<path d="M362.535,36.17c-0.896,0-1.918-0.139-3.066-0.418v-1.646c1.23,0.351,2.201,0.526,2.912,0.526
				c0.731,0,1.282-0.159,1.65-0.479c0.37-0.318,0.555-0.797,0.555-1.436c0-0.372-0.117-0.721-0.35-1.048
				c-0.232-0.325-0.814-0.726-1.742-1.198c-0.596-0.301-1.076-0.586-1.446-0.855c-0.369-0.269-0.684-0.631-0.944-1.086
				c-0.259-0.455-0.389-1.02-0.389-1.693c0-1.082,0.367-1.939,1.103-2.574c0.734-0.635,1.677-0.951,2.824-0.951
				c1.006,0,1.915,0.133,2.728,0.397v1.569c-0.855-0.309-1.685-0.462-2.491-0.462c-0.67,0-1.171,0.15-1.501,0.451
				c-0.333,0.302-0.498,0.753-0.498,1.354c0,0.316,0.105,0.611,0.317,0.887c0.212,0.277,0.741,0.626,1.589,1.049
				c0.616,0.301,1.125,0.594,1.528,0.877s0.743,0.666,1.021,1.15c0.276,0.482,0.415,1.09,0.415,1.822
				c0,1.232-0.364,2.168-1.093,2.806C364.929,35.852,363.889,36.17,362.535,36.17z"/>
			<path d="M371.978,36.17c-0.929,0-1.608-0.227-2.039-0.682s-0.646-1.182-0.646-2.178v-8.321h-1.57v-0.86l3.188-3.408h0.565v2.773
				h2.901v1.495h-2.901v7.945c0,0.681,0.105,1.13,0.317,1.349s0.533,0.328,0.964,0.328c0.443,0,1.046-0.104,1.804-0.312v1.483
				C373.646,36.041,372.785,36.17,371.978,36.17z"/>
		</g>
		<g id="meegotouch-list-background-selected">
			<path style="fill:#CCCCCC;" d="M622,812c0,5.5-4.5,10-10,10h-44c-5.5,0-10-4.5-10-10v-42c0-5.5,4.5-10,10-10h44
				c5.5,0,10,4.5,10,10V812z"/>
			<path style="fill:#FFFFFF;" d="M622,810c0,5.5-4.5,10-10,10h-44c-5.5,0-10-4.5-10-10v-42c0-5.5,4.5-10,10-10h44
				c5.5,0,10,4.5,10,10V810z"/>
			<linearGradient id="SVGID_1_" gradientUnits="userSpaceOnUse" x1="590" y1="821" x2="590" y2="759">
				<stop  offset="0" style="stop-color:#29ABE2"/>
				<stop  offset="1" style="stop-color:#7DD8FF"/>
			</linearGradient>
			<path style="fill:url(#SVGID_1_);" d="M622,811c0,5.5-4.5,10-10,10h-44c-5.5,0-10-4.5-10-10v-42c0-5.5,4.5-10,10-10h44
				c5.5,0,10,4.5,10,10V811z"/>
		</g>
		<g id="meegotouch-list-background-selected-vertical-bottom">
			<path style="fill:#CCCCCC;" d="M622,685v53c0,5.5-4.5,10-10,10h-44c-5.5,0-10-4.5-10-10v-53H622z"/>
			<linearGradient id="SVGID_2_" gradientUnits="userSpaceOnUse" x1="590" y1="747" x2="590" y2="684">
				<stop  offset="0" style="stop-color:#29ABE2"/>
				<stop  offset="1" style="stop-color:#7DD8FF"/>
			</linearGradient>
			<path style="fill:url(#SVGID_2_);" d="M622,684v53c0,5.5-4.5,10-10,10h-44c-5.5,0-10-4.5-10-10v-53H622z"/>
			<rect x="558" y="684" style="opacity:0.2;fill:#FFFFFF;" width="64" height="1"/>
		</g>
		<g id="meegotouch-list-background-selected-vertical-center">
			<linearGradient id="SVGID_3_" gradientUnits="userSpaceOnUse" x1="590" y1="674" x2="590" y2="610">
				<stop  offset="0" style="stop-color:#29ABE2"/>
				<stop  offset="1" style="stop-color:#7DD8FF"/>
			</linearGradient>
			<rect x="558" y="610" style="fill:url(#SVGID_3_);" width="64" height="64"/>
			<rect x="558" y="673" style="opacity:0.2;" width="64" height="1"/>
			<rect x="558" y="610.001" style="opacity:0.2;fill:#FFFFFF;" width="64" height="1"/>
		</g>
		<g id="meegotouch-list-background-selected-vertical-top">
			<path style="fill:#FFFFFF;" d="M558,599v-53c0-5.5,4.5-10,10-10h44c5.5,0,10,4.5,10,10v53H558z"/>
			<linearGradient id="SVGID_4_" gradientUnits="userSpaceOnUse" x1="590" y1="600" x2="590" y2="537">
				<stop  offset="0" style="stop-color:#29ABE2"/>
				<stop  offset="1" style="stop-color:#7DD8FF"/>
			</linearGradient>
			<path style="fill:url(#SVGID_4_);" d="M558,600v-53c0-5.5,4.5-10,10-10h44c5.5,0,10,4.5,10,10v53H558z"/>
			<rect x="558" y="599" style="opacity:0.2;" width="64" height="1"/>
		</g>
		<g id="meegotouch-list-background-selected-horizontal-right">
			<path style="fill:#CCCCCC;" d="M632,464h54c5.5,0,10,4.5,10,10v42c0,5.5-4.5,10-10,10h-54V464z"/>
			<path style="fill:#FFFFFF;" d="M632,462h54c5.5,0,10,4.5,10,10v42c0,5.5-4.5,10-10,10h-54V462z"/>
			<linearGradient id="SVGID_5_" gradientUnits="userSpaceOnUse" x1="664" y1="525" x2="664" y2="463">
				<stop  offset="0" style="stop-color:#29ABE2"/>
				<stop  offset="1" style="stop-color:#7DD8FF"/>
			</linearGradient>
			<path style="fill:url(#SVGID_5_);" d="M632,463h54c5.5,0,10,4.5,10,10v42c0,5.5-4.5,10-10,10h-54V463z"/>
			<rect x="632" y="463" style="opacity:0.2;fill:#FFFFFF;" width="1" height="62"/>
		</g>
		<g id="meegotouch-list-background-selected-horizontal-center">
			<rect x="558" y="464" style="fill:#CCCCCC;" width="64" height="62"/>
			<rect x="558" y="462" style="fill:#FFFFFF;" width="64" height="62"/>
			<linearGradient id="SVGID_6_" gradientUnits="userSpaceOnUse" x1="590" y1="525" x2="590" y2="463">
				<stop  offset="0" style="stop-color:#29ABE2"/>
				<stop  offset="1" style="stop-color:#7DD8FF"/>
			</linearGradient>
			<rect x="558" y="463" style="fill:url(#SVGID_6_);" width="64" height="62"/>
			<rect x="621" y="463" style="opacity:0.2;" width="1" height="62"/>
			<rect x="558" y="463" style="opacity:0.2;fill:#FFFFFF;" width="1" height="62"/>
		</g>
		<g id="meegotouch-list-background-selected-horizontal-left">
			<path style="fill:#CCCCCC;" d="M548,526h-54c-5.5,0-10-4.5-10-10v-42c0-5.5,4.5-10,10-10h54V526z"/>
			<path style="fill:#FFFFFF;" d="M548,524h-54c-5.5,0-10-4.5-10-10v-42c0-5.5,4.5-10,10-10h54V524z"/>
			<linearGradient id="SVGID_7_" gradientUnits="userSpaceOnUse" x1="516" y1="525" x2="516" y2="463">
				<stop  offset="0" style="stop-color:#29ABE2"/>
				<stop  offset="1" style="stop-color:#7DD8FF"/>
			</linearGradient>
			<path style="fill:url(#SVGID_7_);" d="M548,525h-54c-5.5,0-10-4.5-10-10v-42c0-5.5,4.5-10,10-10h54V525z"/>
			<rect x="547" y="463" style="opacity:0.2;" width="1" height="62"/>
		</g>
		<g id="meegotouch-list-background-selected-bottom-right">
			<path style="fill:#CCCCCC;" d="M686,452c5.5,0,10-4.5,10-10v-53h-64v63H686z"/>
			<linearGradient id="SVGID_8_" gradientUnits="userSpaceOnUse" x1="664" y1="451" x2="664" y2="388.0005">
				<stop  offset="0" style="stop-color:#29ABE2"/>
				<stop  offset="1" style="stop-color:#7DD8FF"/>
			</linearGradient>
			<path style="fill:url(#SVGID_8_);" d="M686,451c5.5,0,10-4.5,10-10v-53h-64v63H686z"/>
			<rect x="632" y="388" style="opacity:0.2;fill:#FFFFFF;" width="1" height="63"/>
			<rect x="633" y="388" style="opacity:0.2;fill:#FFFFFF;" width="63" height="1"/>
		</g>
		<g id="meegotouch-list-background-selected-bottom">
			<rect x="558" y="390" style="fill:#CCCCCC;" width="64" height="62"/>
			<linearGradient id="SVGID_9_" gradientUnits="userSpaceOnUse" x1="590" y1="451" x2="590" y2="388.0005">
				<stop  offset="0" style="stop-color:#29ABE2"/>
				<stop  offset="1" style="stop-color:#7DD8FF"/>
			</linearGradient>
			<rect x="558" y="388" style="fill:url(#SVGID_9_);" width="64" height="63"/>
			<rect x="558" y="388" style="opacity:0.2;fill:#FFFFFF;" width="64" height="1"/>
			<rect x="621" y="389" style="opacity:0.2;" width="1" height="62"/>
			<rect x="558" y="389" style="opacity:0.2;fill:#FFFFFF;" width="1" height="62"/>
		</g>
		<g id="meegotouch-list-background-selected-bottom-left">
			<path style="fill:#CCCCCC;" d="M484,442c0,5.5,4.5,10,10,10h54v-63h-64V442z"/>
			<linearGradient id="SVGID_10_" gradientUnits="userSpaceOnUse" x1="516" y1="451" x2="516" y2="388.0005">
				<stop  offset="0" style="stop-color:#29ABE2"/>
				<stop  offset="1" style="stop-color:#7DD8FF"/>
			</linearGradient>
			<path style="fill:url(#SVGID_10_);" d="M484,441c0,5.5,4.5,10,10,10h54v-63h-64V441z"/>
			<rect x="547" y="388" style="opacity:0.2;" width="1" height="63"/>
			<rect x="484" y="388" style="opacity:0.2;fill:#FFFFFF;" width="63" height="1"/>
		</g>
		<g id="meegotouch-list-background-selected-right">
			<linearGradient id="SVGID_11_" gradientUnits="userSpaceOnUse" x1="664" y1="378" x2="664" y2="314">
				<stop  offset="0" style="stop-color:#29ABE2"/>
				<stop  offset="1" style="stop-color:#7DD8FF"/>
			</linearGradient>
			<rect x="632" y="314" style="fill:url(#SVGID_11_);" width="64" height="64"/>
			<rect x="632" y="377" style="opacity:0.2;" width="64" height="1"/>
			<rect x="632" y="314" style="opacity:0.2;fill:#FFFFFF;" width="64" height="1"/>
			<rect x="632" y="315" style="opacity:0.2;fill:#FFFFFF;" width="1" height="62"/>
		</g>
		<g id="meegotouch-list-background-selected-center">
			<linearGradient id="SVGID_12_" gradientUnits="userSpaceOnUse" x1="590" y1="378" x2="590" y2="314">
				<stop  offset="0" style="stop-color:#29ABE2"/>
				<stop  offset="1" style="stop-color:#7DD8FF"/>
			</linearGradient>
			<rect x="558" y="314" style="fill:url(#SVGID_12_);" width="64" height="64"/>
			<rect x="558" y="377" style="opacity:0.2;" width="64" height="1"/>
			<rect x="558" y="314" style="opacity:0.2;fill:#FFFFFF;" width="64" height="1"/>
			<rect x="621" y="315" style="opacity:0.2;" width="1" height="62"/>
			<rect x="558" y="315" style="opacity:0.2;fill:#FFFFFF;" width="1" height="62"/>
		</g>
		<g id="meegotouch-list-background-selected-left">
			<linearGradient id="SVGID_13_" gradientUnits="userSpaceOnUse" x1="516" y1="378" x2="516" y2="314">
				<stop  offset="0" style="stop-color:#29ABE2"/>
				<stop  offset="1" style="stop-color:#7DD8FF"/>
			</linearGradient>
			<rect x="484" y="314" style="fill:url(#SVGID_13_);" width="64" height="64"/>
			<rect x="484" y="377" style="opacity:0.2;" width="64" height="1"/>
			<rect x="484" y="314" style="opacity:0.2;fill:#FFFFFF;" width="64" height="1"/>
			<rect x="547" y="315" style="opacity:0.2;" width="1" height="62"/>
		</g>
		<g id="meegotouch-list-background-selected-top-right">
			<path style="fill:#FFFFFF;" d="M696,250c0-5.5-4.5-10-10-10h-54v63h64V250z"/>
			<linearGradient id="SVGID_14_" gradientUnits="userSpaceOnUse" x1="664" y1="304" x2="664" y2="241">
				<stop  offset="0" style="stop-color:#29ABE2"/>
				<stop  offset="1" style="stop-color:#7DD8FF"/>
			</linearGradient>
			<path style="fill:url(#SVGID_14_);" d="M696,251c0-5.5-4.5-10-10-10h-54v63h64V251z"/>
			<rect x="632" y="241" style="opacity:0.2;fill:#FFFFFF;" width="1" height="62"/>
			<rect x="632" y="303" style="opacity:0.2;" width="64" height="1"/>
		</g>
		<g id="meegotouch-list-background-selected-top">
			<linearGradient id="SVGID_15_" gradientUnits="userSpaceOnUse" x1="590" y1="304" x2="590" y2="240">
				<stop  offset="0" style="stop-color:#29ABE2"/>
				<stop  offset="1" style="stop-color:#7DD8FF"/>
			</linearGradient>
			<rect x="558" y="240" style="fill:url(#SVGID_15_);" width="64" height="64"/>
			<rect x="558" y="303" style="opacity:0.2;" width="64" height="1"/>
			<rect x="558" y="240" style="fill:#FFFFFF;" width="64" height="1"/>
			<rect x="621" y="241" style="opacity:0.2;" width="1" height="62"/>
			<rect x="558" y="241" style="opacity:0.2;fill:#FFFFFF;" width="1" height="62"/>
		</g>
		<g id="meegotouch-list-background-selected-top-left">
			<path style="fill:#FFFFFF;" d="M484,250c0-5.5,4.5-10,10-10h54v63h-64V250z"/>
			<linearGradient id="SVGID_16_" gradientUnits="userSpaceOnUse" x1="516" y1="304" x2="516" y2="241">
				<stop  offset="0" style="stop-color:#29ABE2"/>
				<stop  offset="1" style="stop-color:#7DD8FF"/>
			</linearGradient>
			<path style="fill:url(#SVGID_16_);" d="M484,251c0-5.5,4.5-10,10-10h54v63h-64V251z"/>
			<rect x="547" y="241" style="opacity:0.2;" width="1" height="62"/>
			<rect x="484" y="303" style="opacity:0.2;" width="64" height="1"/>
		</g>
		<g id="meegotouch-list-fullwidth-background-selected">
			<linearGradient id="SVGID_17_" gradientUnits="userSpaceOnUse" x1="590" y1="230" x2="590" y2="166">
				<stop  offset="0" style="stop-color:#29ABE2"/>
				<stop  offset="1" style="stop-color:#7DD8FF"/>
			</linearGradient>
			<rect x="558" y="166" style="fill:url(#SVGID_17_);" width="64" height="64"/>
			<rect x="558" y="229" style="opacity:0.2;" width="64" height="1"/>
			<rect x="558" y="166" style="opacity:0.2;fill:#FFFFFF;" width="64" height="1"/>
		</g>
		<g id="meegotouch-list-fullwidth-background-selected-right">
			<linearGradient id="SVGID_18_" gradientUnits="userSpaceOnUse" x1="664" y1="156" x2="664" y2="92">
				<stop  offset="0" style="stop-color:#29ABE2"/>
				<stop  offset="1" style="stop-color:#7DD8FF"/>
			</linearGradient>
			<rect x="632" y="92" style="fill:url(#SVGID_18_);" width="64" height="64"/>
			<rect x="632" y="155" style="opacity:0.2;" width="64" height="1"/>
			<rect x="632" y="93" style="opacity:0.2;fill:#FFFFFF;" width="1" height="62"/>
			<rect x="632" y="92" style="opacity:0.2;fill:#FFFFFF;" width="64" height="1"/>
		</g>
		<g id="meegotouch-list-fullwidth-background-selected-center">
			<linearGradient id="SVGID_19_" gradientUnits="userSpaceOnUse" x1="590" y1="156" x2="590" y2="92">
				<stop  offset="0" style="stop-color:#29ABE2"/>
				<stop  offset="1" style="stop-color:#7DD8FF"/>
			</linearGradient>
			<rect x="558" y="92" style="fill:url(#SVGID_19_);" width="64" height="64"/>
			<rect x="621" y="93" style="opacity:0.2;" width="1" height="62"/>
			<rect x="558" y="155" style="opacity:0.2;" width="64" height="1"/>
			<rect x="558" y="92" style="opacity:0.2;fill:#FFFFFF;" width="64" height="1"/>
			<rect x="558" y="93" style="opacity:0.2;fill:#FFFFFF;" width="1" height="62"/>
		</g>
		<g id="meegotouch-list-fullwidth-background-selected-left">
			<linearGradient id="SVGID_20_" gradientUnits="userSpaceOnUse" x1="516" y1="156" x2="516" y2="92">
				<stop  offset="0" style="stop-color:#29ABE2"/>
				<stop  offset="1" style="stop-color:#7DD8FF"/>
			</linearGradient>
			<rect x="484" y="92" style="fill:url(#SVGID_20_);" width="64" height="64"/>
			<rect x="484" y="155" style="opacity:0.2;" width="64" height="1"/>
			<rect x="484" y="92" style="opacity:0.2;fill:#FFFFFF;" width="64" height="1"/>
			<rect x="547" y="93" style="opacity:0.2;" width="1" height="62"/>
		</g>
		<g id="meegotouch-list-background-pressed">
			<path style="fill:#FFFFFF;" d="M390,812c0,5.5-4.5,10-10,10h-44c-5.5,0-10-4.5-10-10v-42c0-5.5,4.5-10,10-10h44
				c5.5,0,10,4.5,10,10V812z"/>
			<path style="fill:#333333;" d="M390,810c0,5.5-4.5,10-10,10h-44c-5.5,0-10-4.5-10-10v-42c0-5.5,4.5-10,10-10h44
				c5.5,0,10,4.5,10,10V810z"/>
			<linearGradient id="SVGID_21_" gradientUnits="userSpaceOnUse" x1="358.0005" y1="821" x2="358.0005" y2="759">
				<stop  offset="0" style="stop-color:#B3B3B3"/>
				<stop  offset="1" style="stop-color:#4D4D4D"/>
			</linearGradient>
			<path style="fill:url(#SVGID_21_);" d="M390,811c0,5.5-4.5,10-10,10h-44c-5.5,0-10-4.5-10-10v-42c0-5.5,4.5-10,10-10h44
				c5.5,0,10,4.5,10,10V811z"/>
		</g>
		<g id="meegotouch-list-background-pressed-vertical-bottom">
			<path style="fill:#FFFFFF;" d="M390,686v52c0,5.5-4.5,10-10,10h-44c-5.5,0-10-4.5-10-10v-52H390z"/>
			<path style="fill:#333333;" d="M390,684v52c0,5.5-4.5,10-10,10h-44c-5.5,0-10-4.5-10-10v-52H390z"/>
			<linearGradient id="SVGID_22_" gradientUnits="userSpaceOnUse" x1="358.0005" y1="747" x2="358.0005" y2="685">
				<stop  offset="0" style="stop-color:#B3B3B3"/>
				<stop  offset="1" style="stop-color:#4D4D4D"/>
			</linearGradient>
			<path style="fill:url(#SVGID_22_);" d="M390,685v52c0,5.5-4.5,10-10,10h-44c-5.5,0-10-4.5-10-10v-52H390z"/>
		</g>
		<g id="meegotouch-list-background-pressed-vertical-center">
			<rect x="326" y="612" style="fill:#FFFFFF;" width="64" height="62"/>
			<rect x="326" y="610" style="fill:#333333;" width="64" height="62"/>
			<linearGradient id="SVGID_23_" gradientUnits="userSpaceOnUse" x1="358.0005" y1="673" x2="358.0005" y2="611">
				<stop  offset="0" style="stop-color:#B3B3B3"/>
				<stop  offset="1" style="stop-color:#4D4D4D"/>
			</linearGradient>
			<rect x="326" y="611" style="fill:url(#SVGID_23_);" width="64" height="62"/>
		</g>
		<g id="meegotouch-list-background-pressed-vertical-top">
			<path style="fill:#FFFFFF;" d="M326,600v-52c0-5.5,4.5-10,10-10h44c5.5,0,10,4.5,10,10v52H326z"/>
			<path style="fill:#333333;" d="M326,598v-52c0-5.5,4.5-10,10-10h44c5.5,0,10,4.5,10,10v52H326z"/>
			<linearGradient id="SVGID_24_" gradientUnits="userSpaceOnUse" x1="358.0005" y1="599" x2="358.0005" y2="537">
				<stop  offset="0" style="stop-color:#B3B3B3"/>
				<stop  offset="1" style="stop-color:#4D4D4D"/>
			</linearGradient>
			<path style="fill:url(#SVGID_24_);" d="M326,599v-52c0-5.5,4.5-10,10-10h44c5.5,0,10,4.5,10,10v52H326z"/>
		</g>
		<g id="meegotouch-list-background-pressed-horizontal-right">
			<path style="fill:#FFFFFF;" d="M400,464h54c5.5,0,10,4.5,10,10v42c0,5.5-4.5,10-10,10h-54V464z"/>
			<path style="fill:#333333;" d="M400,462h54c5.5,0,10,4.5,10,10v42c0,5.5-4.5,10-10,10h-54V462z"/>
			<linearGradient id="SVGID_25_" gradientUnits="userSpaceOnUse" x1="432" y1="525" x2="432" y2="463">
				<stop  offset="0" style="stop-color:#B3B3B3"/>
				<stop  offset="1" style="stop-color:#4D4D4D"/>
			</linearGradient>
			<path style="fill:url(#SVGID_25_);" d="M400,463h54c5.5,0,10,4.5,10,10v42c0,5.5-4.5,10-10,10h-54V463z"/>
		</g>
		<g id="meegotouch-list-background-pressed-horizontal-center">
			<rect x="326" y="464" style="fill:#FFFFFF;" width="64" height="62"/>
			<rect x="326" y="462" style="fill:#333333;" width="64" height="62"/>
			<linearGradient id="SVGID_26_" gradientUnits="userSpaceOnUse" x1="358.0005" y1="525" x2="358.0005" y2="463">
				<stop  offset="0" style="stop-color:#B3B3B3"/>
				<stop  offset="1" style="stop-color:#4D4D4D"/>
			</linearGradient>
			<rect x="326" y="463" style="fill:url(#SVGID_26_);" width="64" height="62"/>
		</g>
		<g id="meegotouch-list-background-pressed-horizontal-left">
			<path style="fill:#FFFFFF;" d="M316,526h-54c-5.5,0-10-4.5-10-10v-42c0-5.5,4.5-10,10-10h54V526z"/>
			<path style="fill:#333333;" d="M316,524h-54c-5.5,0-10-4.5-10-10v-42c0-5.5,4.5-10,10-10h54V524z"/>
			<linearGradient id="SVGID_27_" gradientUnits="userSpaceOnUse" x1="284" y1="525" x2="284" y2="463">
				<stop  offset="0" style="stop-color:#B3B3B3"/>
				<stop  offset="1" style="stop-color:#4D4D4D"/>
			</linearGradient>
			<path style="fill:url(#SVGID_27_);" d="M316,525h-54c-5.5,0-10-4.5-10-10v-42c0-5.5,4.5-10,10-10h54V525z"/>
		</g>
		<g id="meegotouch-list-background-pressed-bottom-right">
			<path style="fill:#FFFFFF;" d="M454,452c5.5,0,10-4.5,10-10v-52h-64v62H454z"/>
			<path style="fill:#333333;" d="M454,450c5.5,0,10-4.5,10-10v-52h-64v62H454z"/>
			<linearGradient id="SVGID_28_" gradientUnits="userSpaceOnUse" x1="432" y1="451" x2="432" y2="389.0005">
				<stop  offset="0" style="stop-color:#B3B3B3"/>
				<stop  offset="1" style="stop-color:#4D4D4D"/>
			</linearGradient>
			<path style="fill:url(#SVGID_28_);" d="M454,451c5.5,0,10-4.5,10-10v-52h-64v62H454z"/>
		</g>
		<g id="meegotouch-list-background-pressed-bottom">
			<rect x="326" y="390" style="fill:#FFFFFF;" width="64" height="62"/>
			<rect x="326" y="388" style="fill:#333333;" width="64" height="62"/>
			<linearGradient id="SVGID_29_" gradientUnits="userSpaceOnUse" x1="358.0005" y1="451" x2="358.0005" y2="389.0005">
				<stop  offset="0" style="stop-color:#B3B3B3"/>
				<stop  offset="1" style="stop-color:#4D4D4D"/>
			</linearGradient>
			<rect x="326" y="389" style="fill:url(#SVGID_29_);" width="64" height="62"/>
		</g>
		<g id="meegotouch-list-background-pressed-bottom-left">
			<path style="fill:#FFFFFF;" d="M252,442c0,5.5,4.5,10,10,10h54v-62h-64V442z"/>
			<path style="fill:#333333;" d="M252,440c0,5.5,4.5,10,10,10h54v-62h-64V440z"/>
			<linearGradient id="SVGID_30_" gradientUnits="userSpaceOnUse" x1="284" y1="451" x2="284" y2="389.0005">
				<stop  offset="0" style="stop-color:#B3B3B3"/>
				<stop  offset="1" style="stop-color:#4D4D4D"/>
			</linearGradient>
			<path style="fill:url(#SVGID_30_);" d="M252,441c0,5.5,4.5,10,10,10h54v-62h-64V441z"/>
		</g>
		<g id="meegotouch-list-background-pressed-right">
			<rect x="400" y="316" style="fill:#FFFFFF;" width="64" height="62"/>
			<rect x="400" y="314" style="fill:#333333;" width="64" height="62"/>
			<linearGradient id="SVGID_31_" gradientUnits="userSpaceOnUse" x1="432" y1="377" x2="432" y2="315">
				<stop  offset="0" style="stop-color:#B3B3B3"/>
				<stop  offset="1" style="stop-color:#4D4D4D"/>
			</linearGradient>
			<rect x="400" y="315" style="fill:url(#SVGID_31_);" width="64" height="62"/>
		</g>
		<g id="meegotouch-list-background-pressed-center">
			<rect x="326" y="316" style="fill:#FFFFFF;" width="64" height="62"/>
			<rect x="326" y="314" style="fill:#333333;" width="64" height="62"/>
			<linearGradient id="SVGID_32_" gradientUnits="userSpaceOnUse" x1="358.0005" y1="377" x2="358.0005" y2="315">
				<stop  offset="0" style="stop-color:#B3B3B3"/>
				<stop  offset="1" style="stop-color:#4D4D4D"/>
			</linearGradient>
			<rect x="326" y="315" style="fill:url(#SVGID_32_);" width="64" height="62"/>
		</g>
		<g id="meegotouch-list-background-pressed-left">
			<rect x="252" y="316" style="fill:#FFFFFF;" width="64" height="62"/>
			<rect x="252" y="314" style="fill:#333333;" width="64" height="62"/>
			<linearGradient id="SVGID_33_" gradientUnits="userSpaceOnUse" x1="284" y1="377" x2="284" y2="315">
				<stop  offset="0" style="stop-color:#B3B3B3"/>
				<stop  offset="1" style="stop-color:#4D4D4D"/>
			</linearGradient>
			<rect x="252" y="315" style="fill:url(#SVGID_33_);" width="64" height="62"/>
		</g>
		<g id="meegotouch-list-background-pressed-top-right">
			<path style="fill:#FFFFFF;" d="M464,252c0-5.5-4.5-10-10-10h-54v62h64V252z"/>
			<path style="fill:#333333;" d="M464,250c0-5.5-4.5-10-10-10h-54v62h64V250z"/>
			<linearGradient id="SVGID_34_" gradientUnits="userSpaceOnUse" x1="432" y1="303" x2="432" y2="241">
				<stop  offset="0" style="stop-color:#B3B3B3"/>
				<stop  offset="1" style="stop-color:#4D4D4D"/>
			</linearGradient>
			<path style="fill:url(#SVGID_34_);" d="M464,251c0-5.5-4.5-10-10-10h-54v62h64V251z"/>
		</g>
		<g id="meegotouch-list-background-pressed-top">
			<rect x="326" y="242" style="fill:#FFFFFF;" width="64" height="62"/>
			<rect x="326" y="240" style="fill:#333333;" width="64" height="62"/>
			<linearGradient id="SVGID_35_" gradientUnits="userSpaceOnUse" x1="358.0005" y1="303" x2="358.0005" y2="241">
				<stop  offset="0" style="stop-color:#B3B3B3"/>
				<stop  offset="1" style="stop-color:#4D4D4D"/>
			</linearGradient>
			<rect x="326" y="241" style="fill:url(#SVGID_35_);" width="64" height="62"/>
		</g>
		<g id="meegotouch-list-background-pressed-top-left">
			<path style="fill:#FFFFFF;" d="M252,252c0-5.5,4.5-10,10-10h54v62h-64V252z"/>
			<path style="fill:#333333;" d="M252,250c0-5.5,4.5-10,10-10h54v62h-64V250z"/>
			<linearGradient id="SVGID_36_" gradientUnits="userSpaceOnUse" x1="284" y1="303" x2="284" y2="241">
				<stop  offset="0" style="stop-color:#B3B3B3"/>
				<stop  offset="1" style="stop-color:#4D4D4D"/>
			</linearGradient>
			<path style="fill:url(#SVGID_36_);" d="M252,251c0-5.5,4.5-10,10-10h54v62h-64V251z"/>
		</g>
		<g id="meegotouch-list-fullwidth-background-pressed">
			<rect x="326" y="168" style="fill:#FFFFFF;" width="64" height="62"/>
			<rect x="326" y="166" style="fill:#333333;" width="64" height="62"/>
			<linearGradient id="SVGID_37_" gradientUnits="userSpaceOnUse" x1="358.0005" y1="229" x2="358.0005" y2="167">
				<stop  offset="0" style="stop-color:#B3B3B3"/>
				<stop  offset="1" style="stop-color:#4D4D4D"/>
			</linearGradient>
			<rect x="326" y="167" style="fill:url(#SVGID_37_);" width="64" height="62"/>
		</g>
		<g id="meegotouch-list-fullwidth-background-pressed-right">
			<rect x="400" y="94" style="fill:#FFFFFF;" width="64" height="62"/>
			<rect x="400" y="92" style="fill:#333333;" width="64" height="62"/>
			<linearGradient id="SVGID_38_" gradientUnits="userSpaceOnUse" x1="432" y1="155" x2="432" y2="93">
				<stop  offset="0" style="stop-color:#B3B3B3"/>
				<stop  offset="1" style="stop-color:#4D4D4D"/>
			</linearGradient>
			<rect x="400" y="93" style="fill:url(#SVGID_38_);" width="64" height="62"/>
		</g>
		<g id="meegotouch-list-fullwidth-background-pressed-center">
			<rect x="326" y="94" style="fill:#FFFFFF;" width="64" height="62"/>
			<rect x="326" y="92" style="fill:#333333;" width="64" height="62"/>
			<linearGradient id="SVGID_39_" gradientUnits="userSpaceOnUse" x1="358.0005" y1="155" x2="358.0005" y2="93">
				<stop  offset="0" style="stop-color:#B3B3B3"/>
				<stop  offset="1" style="stop-color:#4D4D4D"/>
			</linearGradient>
			<rect x="326" y="93" style="fill:url(#SVGID_39_);" width="64" height="62"/>
		</g>
		<g id="meegotouch-list-fullwidth-background-pressed-left">
			<rect x="252" y="94" style="fill:#FFFFFF;" width="64" height="62"/>
			<rect x="252" y="92" style="fill:#333333;" width="64" height="62"/>
			<linearGradient id="SVGID_40_" gradientUnits="userSpaceOnUse" x1="284" y1="155" x2="284" y2="93">
				<stop  offset="0" style="stop-color:#B3B3B3"/>
				<stop  offset="1" style="stop-color:#4D4D4D"/>
			</linearGradient>
			<rect x="252" y="93" style="fill:url(#SVGID_40_);" width="64" height="62"/>
		</g>
		<g id="meegotouch-list-background">
			<path style="fill:#CCCCCC;" d="M158,812c0,5.5-4.5,10-10,10h-44c-5.5,0-10-4.5-10-10v-42c0-5.5,4.5-10,10-10h44
				c5.5,0,10,4.5,10,10V812z"/>
			<path style="fill:#FFFFFF;" d="M158,810c0,5.5-4.5,10-10,10h-44c-5.5,0-10-4.5-10-10v-42c0-5.5,4.5-10,10-10h44
				c5.5,0,10,4.5,10,10V810z"/>
			<path style="fill:#F2F2F2;" d="M158,811c0,5.5-4.5,10-10,10h-44c-5.5,0-10-4.5-10-10v-42c0-5.5,4.5-10,10-10h44
				c5.5,0,10,4.5,10,10V811z"/>
		</g>
		<g id="meegotouch-list-background-vertical-bottom">
			<path style="fill:#CCCCCC;" d="M158,686v52c0,5.5-4.5,10-10,10h-44c-5.5,0-10-4.5-10-10v-52H158z"/>
			<path style="fill:#FFFFFF;" d="M158,684v52c0,5.5-4.5,10-10,10h-44c-5.5,0-10-4.5-10-10v-52H158z"/>
			<path style="fill:#F2F2F2;" d="M158,685v52c0,5.5-4.5,10-10,10h-44c-5.5,0-10-4.5-10-10v-52H158z"/>
		</g>
		<g id="meegotouch-list-background-vertical-center">
			<rect x="94" y="612" style="fill:#CCCCCC;" width="64" height="62"/>
			<rect x="94" y="610" style="fill:#FFFFFF;" width="64" height="62"/>
			<rect x="94" y="611" style="fill:#F2F2F2;" width="64" height="62"/>
		</g>
		<g id="meegotouch-list-background-vertical-top">
			<path style="fill:#CCCCCC;" d="M94,600v-52c0-5.5,4.5-10,10-10h44c5.5,0,10,4.5,10,10v52H94z"/>
			<path style="fill:#FFFFFF;" d="M94,598v-52c0-5.5,4.5-10,10-10h44c5.5,0,10,4.5,10,10v52H94z"/>
			<path style="fill:#F2F2F2;" d="M94,599v-52c0-5.5,4.5-10,10-10h44c5.5,0,10,4.5,10,10v52H94z"/>
		</g>
		<g id="meegotouch-list-background-horizontal-right">
			<path style="fill:#CCCCCC;" d="M168,464h54c5.5,0,10,4.5,10,10v42c0,5.5-4.5,10-10,10h-54V464z"/>
			<path style="fill:#FFFFFF;" d="M168,462h54c5.5,0,10,4.5,10,10v42c0,5.5-4.5,10-10,10h-54V462z"/>
			<path style="fill:#F2F2F2;" d="M168,463h54c5.5,0,10,4.5,10,10v42c0,5.5-4.5,10-10,10h-54V463z"/>
			<rect x="168" y="463" style="fill:#FFFFFF;" width="1" height="62"/>
		</g>
		<g id="meegotouch-list-background-horizontal-center">
			<rect x="94" y="464" style="fill:#CCCCCC;" width="64" height="62"/>
			<rect x="94" y="462" style="fill:#FFFFFF;" width="64" height="62"/>
			<rect x="94" y="463" style="fill:#F2F2F2;" width="64" height="62"/>
			<rect x="157" y="463" style="fill:#CCCCCC;" width="1" height="62"/>
			<rect x="94" y="463" style="fill:#FFFFFF;" width="1" height="62"/>
		</g>
		<g id="meegotouch-list-background-horizontal-left">
			<path style="fill:#CCCCCC;" d="M84,526H30c-5.5,0-10-4.5-10-10v-42c0-5.5,4.5-10,10-10h54V526z"/>
			<path style="fill:#FFFFFF;" d="M84,524H30c-5.5,0-10-4.5-10-10v-42c0-5.5,4.5-10,10-10h54V524z"/>
			<path style="fill:#F2F2F2;" d="M84,525H30c-5.5,0-10-4.5-10-10v-42c0-5.5,4.5-10,10-10h54V525z"/>
			<rect x="83" y="463" style="fill:#CCCCCC;" width="1" height="62"/>
		</g>
		<g id="meegotouch-list-background-bottom-right">
			<path style="fill:#CCCCCC;" d="M222,452c5.5,0,10-4.5,10-10v-52h-64v62H222z"/>
			<path style="fill:#FFFFFF;" d="M222,450c5.5,0,10-4.5,10-10v-52h-64v62H222z"/>
			<path style="fill:#F2F2F2;" d="M222,451c5.5,0,10-4.5,10-10v-52h-64v62H222z"/>
			<rect x="168" y="389" style="fill:#FFFFFF;" width="1" height="62"/>
		</g>
		<g id="meegotouch-list-background-bottom">
			<rect x="94" y="390" style="fill:#CCCCCC;" width="64" height="62"/>
			<rect x="94" y="388" style="fill:#FFFFFF;" width="64" height="62"/>
			<rect x="94" y="389" style="fill:#F2F2F2;" width="64" height="62"/>
			<rect x="157" y="389" style="fill:#CCCCCC;" width="1" height="62"/>
			<rect x="94" y="389" style="fill:#FFFFFF;" width="1" height="62"/>
		</g>
		<g id="meegotouch-list-background-bottom-left">
			<path style="fill:#CCCCCC;" d="M20,442c0,5.5,4.5,10,10,10h54v-62H20V442z"/>
			<path style="fill:#FFFFFF;" d="M20,440c0,5.5,4.5,10,10,10h54v-62H20V440z"/>
			<path style="fill:#F2F2F2;" d="M20,441c0,5.5,4.5,10,10,10h54v-62H20V441z"/>
			<rect x="83" y="389" style="fill:#CCCCCC;" width="1" height="62"/>
		</g>
		<g id="meegotouch-list-background-right">
			<rect x="168" y="316" style="fill:#CCCCCC;" width="64" height="62"/>
			<rect x="168" y="314" style="fill:#FFFFFF;" width="64" height="62"/>
			<rect x="168" y="315" style="fill:#F2F2F2;" width="64" height="62"/>
			<rect x="168" y="315" style="fill:#FFFFFF;" width="1" height="62"/>
		</g>
		<g id="meegotouch-list-background-center">
			<rect x="94" y="316" style="fill:#CCCCCC;" width="64" height="62"/>
			<rect x="94" y="314" style="fill:#FFFFFF;" width="64" height="62"/>
			<rect x="94" y="315" style="fill:#F2F2F2;" width="64" height="62"/>
			<rect x="157" y="315" style="fill:#CCCCCC;" width="1" height="62"/>
			<rect x="94" y="315" style="fill:#FFFFFF;" width="1" height="62"/>
		</g>
		<g id="meegotouch-list-background-left">
			<rect x="20" y="316" style="fill:#CCCCCC;" width="64" height="62"/>
			<rect x="20" y="314" style="fill:#FFFFFF;" width="64" height="62"/>
			<rect x="20" y="315" style="fill:#F2F2F2;" width="64" height="62"/>
			<rect x="83" y="315" style="fill:#CCCCCC;" width="1" height="62"/>
		</g>
		<g id="meegotouch-list-background-top-right">
			<path style="fill:#CCCCCC;" d="M232,252c0-5.5-4.5-10-10-10h-54v62h64V252z"/>
			<path style="fill:#FFFFFF;" d="M232,250c0-5.5-4.5-10-10-10h-54v62h64V250z"/>
			<path style="fill:#F2F2F2;" d="M232,251c0-5.5-4.5-10-10-10h-54v62h64V251z"/>
			<rect x="168" y="241" style="fill:#FFFFFF;" width="1" height="62"/>
		</g>
		<g id="meegotouch-list-background-top">
			<rect x="94" y="242" style="fill:#CCCCCC;" width="64" height="62"/>
			<rect x="94" y="240" style="fill:#FFFFFF;" width="64" height="62"/>
			<rect x="94" y="241" style="fill:#F2F2F2;" width="64" height="62"/>
			<rect x="157" y="241" style="fill:#CCCCCC;" width="1" height="62"/>
			<rect x="94" y="241" style="fill:#FFFFFF;" width="1" height="62"/>
		</g>
		<g id="meegotouch-list-background-top-left">
			<path style="fill:#CCCCCC;" d="M20,252c0-5.5,4.5-10,10-10h54v62H20V252z"/>
			<path style="fill:#FFFFFF;" d="M20,250c0-5.5,4.5-10,10-10h54v62H20V250z"/>
			<path style="fill:#F2F2F2;" d="M20,251c0-5.5,4.5-10,10-10h54v62H20V251z"/>
			<rect x="83" y="241" style="fill:#CCCCCC;" width="1" height="62"/>
		</g>
		<g id="meegotouch-list-fullwidth-background">
			<rect x="94" y="168" style="fill:#CCCCCC;" width="64" height="62"/>
			<rect x="94" y="166" style="fill:#FFFFFF;" width="64" height="62"/>
			<rect x="94" y="167" style="fill:#F2F2F2;" width="64" height="62"/>
		</g>
		<g id="meegotouch-list-fullwidth-background-right">
			<rect x="168" y="94" style="fill:#CCCCCC;" width="64" height="62"/>
			<rect x="168" y="92" style="fill:#FFFFFF;" width="64" height="62"/>
			<rect x="168" y="93" style="fill:#F2F2F2;" width="64" height="62"/>
			<rect x="168" y="93" style="fill:#FFFFFF;" width="1" height="62"/>
		</g>
		<g id="meegotouch-list-fullwidth-background-center">
			<rect x="94" y="94" style="fill:#CCCCCC;" width="64" height="62"/>
			<rect x="94" y="92" style="fill:#FFFFFF;" width="64" height="62"/>
			<rect x="94" y="93" style="fill:#F2F2F2;" width="64" height="62"/>
			<rect x="157" y="93" style="fill:#CCCCCC;" width="1" height="62"/>
			<rect x="94" y="93" style="fill:#FFFFFF;" width="1" height="62"/>
		</g>
		<g id="meegotouch-list-fullwidth-background-left">
			<rect x="20" y="94" style="fill:#CCCCCC;" width="64" height="62"/>
			<rect x="20" y="92" style="fill:#FFFFFF;" width="64" height="62"/>
			<rect x="20" y="93" style="fill:#F2F2F2;" width="64" height="62"/>
			<rect x="83" y="93" style="fill:#CCCCCC;" width="1" height="62"/>
		</g>
		<g id="meegotouch-fastscroll-background">
			<path d="M200,82h-22c-5.5,0-10-4.5-10-10V60c0-5.5,4.5-10,10-10h22V82z"/>
		</g>
		<g id="meegotouch-live-filter-bar-background">
			<rect x="94" y="18" style="fill:#333333;" width="64" height="64"/>
		</g>
		<g id="meegotouch-list-header-background">
			<linearGradient id="SVGID_41_" gradientUnits="userSpaceOnUse" x1="52" y1="82" x2="52" y2="50">
				<stop  offset="0" style="stop-color:#000000"/>
				<stop  offset="1" style="stop-color:#333333"/>
			</linearGradient>
			<rect x="20" y="50" style="fill:url(#SVGID_41_);" width="64" height="32"/>
		</g>
	</g>
</g>
</svg>
