<?xml version="1.0" encoding="iso-8859-1"?>
<!-- Generator: Adobe Illustrator 15.0.1, SVG Export Plug-In . SVG Version: 6.00 Build 0)  -->
<!DOCTYPE svg PUBLIC "-//W3C//DTD SVG 1.1//EN" "http://www.w3.org/Graphics/SVG/1.1/DTD/svg11.dtd">
<svg version="1.1" id="meegotouch-virtual-keyboard-layer"
	 xmlns="http://www.w3.org/2000/svg" xmlns:xlink="http://www.w3.org/1999/xlink" x="0px" y="0px" width="900px" height="590px"
	 viewBox="0 0 900 590" style="enable-background:new 0 0 900 590;" xml:space="preserve">
<g id="meegotouch-virtual-keyboard">
	<g id="_x23_KeyboardThemeHelper">
		<g>
			<path style="fill:#F0F0F1;" d="M712,589.5c-6.341,0-11.5-5.159-11.5-11.5V312c0-6.341,5.159-11.5,11.5-11.5h176
				c6.341,0,11.5,5.159,11.5,11.5v266c0,6.341-5.159,11.5-11.5,11.5H712z"/>
			<path style="fill:#929497;" d="M888,301c6.065,0,11,4.935,11,11v266c0,6.065-4.935,11-11,11H712c-6.065,0-11-4.935-11-11V312
				c0-6.065,4.935-11,11-11H888 M888,300H712c-6.6,0-12,5.4-12,12v266c0,6.6,5.4,12,12,12h176c6.6,0,12-5.4,12-12V312
				C900,305.4,894.6,300,888,300L888,300z"/>
		</g>
		<g>
			<path style="fill:#F0F0F1;" d="M712,289.5c-6.341,0-11.5-5.159-11.5-11.5V12c0-6.341,5.159-11.5,11.5-11.5h176
				c6.341,0,11.5,5.159,11.5,11.5v266c0,6.341-5.159,11.5-11.5,11.5H712z"/>
			<path style="fill:#929497;" d="M888,1c6.065,0,11,4.935,11,11v266c0,6.065-4.935,11-11,11H712c-6.065,0-11-4.935-11-11V12
				c0-6.065,4.935-11,11-11H888 M888,0H712c-6.6,0-12,5.4-12,12v266c0,6.6,5.4,12,12,12h176c6.6,0,12-5.4,12-12V12
				C900,5.4,894.6,0,888,0L888,0z"/>
		</g>
		<g>
			<rect x="0.5" y="0.5" style="fill:#F0F0F1;" width="689" height="589"/>
			<path style="fill:#929497;" d="M689,1v588H1V1H689 M690,0H0v590h690V0L690,0z"/>
		</g>
		<g>
			<path d="M758.722,370.568c-0.769,0.192-1.681,0.36-2.664,0.36c-5.017,0-5.856-4.44-5.856-9.146c0-4.44,1.296-8.712,6.024-8.712
				c1.008,0,1.776,0.144,2.496,0.336v1.344c-0.792-0.24-1.464-0.384-2.448-0.384c-3.528,0-4.368,3.792-4.368,7.368
				c0,3.601,0.384,7.896,4.32,7.896c0.912,0,1.728-0.168,2.496-0.384V370.568z"/>
			<path d="M765.945,370.929c-4.128,0-5.017-3.793-5.017-7.201c0-3.288,1.248-6.769,5.017-6.769c3.84,0,5.017,3.456,5.017,6.769
				C770.962,367.352,769.906,370.929,765.945,370.929z M765.945,358.207c-2.928,0-3.385,3.217-3.385,5.521
				c0,2.28,0.408,5.953,3.433,5.953c3.169,0,3.337-3.601,3.337-6.049C769.33,361.52,768.729,358.207,765.945,358.207z"/>
			<path d="M775.833,359.071c0.769-1.272,2.088-2.112,3.552-2.112c1.896,0,3.024,0.744,3.601,2.305
				c0.769-1.488,2.137-2.305,3.601-2.305c2.784,0,3.96,1.608,3.96,4.345v9.433h-1.56v-8.617c0-1.416-0.12-2.208-0.456-2.808
				c-0.36-0.672-1.009-1.104-1.992-1.104c-2.305,0-3.24,1.992-3.24,4.009v8.521h-1.561v-8.641c0-1.345-0.12-2.064-0.408-2.664
				c-0.384-0.769-1.008-1.225-2.04-1.225c-2.304,0-3.24,1.992-3.24,4.009v8.521h-1.56v-13.585h1.032L775.833,359.071z"/>
			<path d="M796.064,358.976c0.912-1.368,2.16-2.017,3.625-2.017c3.863,0,4.512,3.601,4.512,6.769c0,4.272-1.512,7.129-5.712,7.129
				c-0.624,0-1.729-0.145-2.208-0.264v4.056h-1.561v-17.497h1.032L796.064,358.976z M796.281,369.272
				c0.647,0.191,1.439,0.336,2.256,0.336c3.576,0,4.032-3.097,4.032-6.024c0-2.593-0.528-5.377-3.097-5.377
				c-2.111,0-3.191,1.513-3.191,4.561V369.272z"/>
			<path d="M809.289,370.736h-1.561v-18.554h1.561V370.736z"/>
			<path d="M821.505,370.376c-1.128,0.36-2.328,0.553-3.528,0.553c-4.152,0-5.16-3.408-5.16-6.985c0-3.072,1.128-6.984,4.872-6.984
				c4.104,0,4.297,4.272,4.297,7.345h-7.562c0.024,2.832,0.793,5.377,3.648,5.377c1.2,0,2.328-0.217,3.433-0.528V370.376z
				 M820.449,363.104c0-1.848-0.265-4.896-2.736-4.896c-2.616,0-3.097,2.832-3.24,4.896H820.449z"/>
			<path d="M830.864,370.544c-0.72,0.192-1.68,0.385-2.496,0.385c-2.112,0-2.712-1.248-2.712-2.977v-9.553h-1.513v-1.248h1.465
				l0.479-2.545h1.128v2.545h3.288v1.248h-3.288v9.265c0,1.152,0.145,2.017,1.44,2.017c0.72,0,1.44-0.145,2.208-0.36V370.544z"/>
			<path d="M841.137,370.376c-1.129,0.36-2.328,0.553-3.528,0.553c-4.152,0-5.161-3.408-5.161-6.985
				c0-3.072,1.129-6.984,4.873-6.984c4.104,0,4.296,4.272,4.296,7.345h-7.561c0.024,2.832,0.792,5.377,3.648,5.377
				c1.2,0,2.328-0.217,3.433-0.528V370.376z M840.08,363.104c0-1.848-0.264-4.896-2.736-4.896c-2.616,0-3.096,2.832-3.24,4.896
				H840.08z"/>
			<path d="M846.464,359.216c0.84-1.513,2.04-2.209,3.528-2.209c0.24,0,0.576,0.024,0.792,0.048v1.465
				c-0.288-0.024-0.601-0.048-0.984-0.048c-1.968,0-3.145,1.536-3.145,3.912v8.353h-1.56v-13.585h1.032L846.464,359.216z"/>
		</g>
		<g>
			<path d="M758.446,53.263l-4.032,17.474h-1.92l-3.601-15.001l-3.984,15.001h-1.992l-3.552-17.474h1.68l3,15.625l4.177-15.625
				h1.512l3.792,15.625l3.337-15.625H758.446z"/>
			<path d="M765.117,70.929c-4.129,0-5.017-3.793-5.017-7.201c0-3.288,1.248-6.769,5.017-6.769c3.84,0,5.017,3.456,5.017,6.769
				C770.134,67.352,769.077,70.929,765.117,70.929z M765.117,58.207c-2.928,0-3.385,3.217-3.385,5.521
				c0,2.28,0.408,5.953,3.433,5.953c3.169,0,3.337-3.601,3.337-6.049C768.502,61.52,767.901,58.207,765.117,58.207z"/>
			<path d="M775.029,59.216c0.84-1.513,2.04-2.209,3.527-2.209c0.24,0,0.576,0.024,0.793,0.048v1.465
				c-0.288-0.024-0.601-0.048-0.984-0.048c-1.969,0-3.145,1.536-3.145,3.912v8.353h-1.561V57.151h1.033L775.029,59.216z"/>
			<path d="M790.485,70.712h-1.008l-0.336-1.8c-0.912,1.44-1.969,2.017-3.576,2.017c-3.528,0-4.585-3.121-4.585-7.057
				c0-4.345,1.633-6.913,4.776-6.913c1.368,0,2.305,0.456,3.169,1.632v-6.408h1.56V70.712z M785.854,58.207
				c-2.568,0-3.24,2.568-3.24,5.641c0,3.217,0.72,5.833,3.168,5.833c3.12,0,3.24-3.337,3.24-5.809
				C789.021,61.039,788.661,58.207,785.854,58.207z"/>
			<path d="M800.109,70.544c-0.721,0.192-1.681,0.385-2.496,0.385c-2.112,0-2.713-1.248-2.713-2.977v-9.553h-1.512v-1.248h1.464
				l0.48-2.545h1.128v2.545h3.288v1.248h-3.288v9.265c0,1.152,0.144,2.017,1.44,2.017c0.72,0,1.439-0.145,2.208-0.36V70.544z"/>
			<path d="M803.948,59.216c0.84-1.513,2.04-2.209,3.528-2.209c0.24,0,0.576,0.024,0.792,0.048v1.465
				c-0.288-0.024-0.6-0.048-0.983-0.048c-1.969,0-3.145,1.536-3.145,3.912v8.353h-1.561V57.151h1.032L803.948,59.216z"/>
			<path d="M816.885,68.816c-0.863,1.368-2.111,2.112-3.768,2.112c-2.4,0-3.744-1.488-3.744-3.889c0-4.009,3.983-4.272,7.271-4.272
				v-1.464c0-2.04-0.743-3.097-2.615-3.097c-1.152,0-2.305,0.168-3.529,0.576v-1.272c1.225-0.359,2.497-0.552,3.648-0.552
				c2.688,0,4.057,1.393,4.057,4.272v9.505h-1.008L816.885,68.816z M815.277,63.943c-2.137,0-4.32,0.576-4.32,3.097
				c0,1.656,0.84,2.641,2.472,2.641c1.752,0,3.216-1.417,3.216-3.648v-2.089H815.277z"/>
			<path d="M829.581,70.593c-0.769,0.216-1.656,0.336-2.593,0.336c-3.456,0-5.304-2.257-5.304-7.153c0-4.392,1.968-6.816,5.64-6.816
				c0.864,0,1.609,0.145,2.161,0.288v1.272c-0.576-0.168-1.272-0.312-2.112-0.312c-2.496,0-4.057,1.561-4.057,5.568
				c0,3.913,1.2,5.905,3.912,5.905c0.84,0,1.681-0.145,2.353-0.337V70.593z"/>
			<path d="M841.293,70.736h-1.944l-5.257-7.417v7.417h-1.56V52.183h1.56v11.089l5.089-6.12h1.848l-5.185,6.048L841.293,70.736z"/>
			<path d="M851.085,70.376c-1.128,0.36-2.328,0.553-3.528,0.553c-4.152,0-5.16-3.408-5.16-6.985c0-3.072,1.128-6.984,4.872-6.984
				c4.104,0,4.296,4.272,4.296,7.345h-7.561c0.024,2.832,0.792,5.377,3.648,5.377c1.2,0,2.328-0.217,3.433-0.528V70.376z
				 M850.028,63.104c0-1.848-0.264-4.896-2.736-4.896c-2.616,0-3.096,2.832-3.24,4.896H850.028z"/>
			<path d="M856.412,59.216c0.84-1.513,2.04-2.209,3.528-2.209c0.239,0,0.575,0.024,0.792,0.048v1.465
				c-0.288-0.024-0.601-0.048-0.984-0.048c-1.968,0-3.145,1.536-3.145,3.912v8.353h-1.56V57.151h1.032L856.412,59.216z"/>
		</g>
		<g>
			<path d="M277.294,51.08l-4.804,17.474h-1.88l-4.549-17.474h1.625l3.922,15.674l4.155-15.674H277.294z"/>
			<path d="M281.353,68.554h-1.509V56.217h-1.508v-1.248h3.017V68.554z M280.587,53.049c-0.649,0-0.951-0.576-0.951-1.249
				c0-0.695,0.302-1.248,0.951-1.248c0.627,0,0.975,0.576,0.975,1.248C281.562,52.473,281.237,53.049,280.587,53.049z"/>
			<path d="M286.76,57.032c0.812-1.512,1.973-2.208,3.411-2.208c0.232,0,0.557,0.024,0.766,0.048v1.465
				c-0.279-0.024-0.58-0.048-0.952-0.048c-1.903,0-3.04,1.536-3.04,3.912v8.353h-1.509V54.969h0.998L286.76,57.032z"/>
			<path d="M298.733,68.361c-0.696,0.192-1.625,0.385-2.414,0.385c-2.042,0-2.622-1.248-2.622-2.977v-9.553h-1.462v-1.248h1.416
				l0.464-2.544h1.091v2.544h3.18v1.248h-3.18v9.265c0,1.152,0.139,2.017,1.393,2.017c0.696,0,1.393-0.145,2.135-0.36V68.361z"/>
			<path d="M308.572,66.634c-0.766,1.248-2.089,2.112-3.551,2.112c-2.739,0-3.945-1.608-3.945-4.345v-9.433h1.508v9.192
				c0,1.776,0.581,3.337,2.507,3.337c2.251,0,3.249-1.896,3.249-4.009v-8.521h1.509v13.585h-0.975L308.572,66.634z"/>
			<path d="M320.29,66.634c-0.835,1.368-2.042,2.112-3.644,2.112c-2.32,0-3.62-1.488-3.62-3.889c0-4.009,3.853-4.272,7.032-4.272
				v-1.464c0-2.04-0.72-3.097-2.53-3.097c-1.114,0-2.228,0.168-3.412,0.576v-1.272c1.184-0.359,2.414-0.552,3.527-0.552
				c2.6,0,3.922,1.393,3.922,4.272v9.505h-0.975L320.29,66.634z M318.734,61.761c-2.065,0-4.177,0.576-4.177,3.097
				c0,1.656,0.812,2.641,2.39,2.641c1.694,0,3.11-1.417,3.11-3.648v-2.089H318.734z"/>
			<path d="M327.11,68.554h-1.508V50h1.508V68.554z"/>
			<path d="M345.396,68.554h-1.88l-5.083-7.417v7.417h-1.508V50h1.508v11.089l4.92-6.12h1.787l-5.013,6.048L345.396,68.554z"/>
			<path d="M354.864,68.193c-1.091,0.36-2.251,0.553-3.412,0.553c-4.016,0-4.99-3.408-4.99-6.985c0-3.072,1.091-6.984,4.711-6.984
				c3.969,0,4.154,4.272,4.154,7.345h-7.311c0.023,2.832,0.766,5.377,3.528,5.377c1.16,0,2.251-0.217,3.319-0.528V68.193z
				 M353.842,60.921c0-1.848-0.255-4.896-2.646-4.896c-2.53,0-2.994,2.832-3.133,4.896H353.842z"/>
			<path d="M366.93,54.969l-4.387,14.641c-0.557,1.896-1.462,2.929-3.319,2.929c-0.604,0-1.16-0.096-1.671-0.216V71.05
				c0.511,0.12,1.021,0.24,1.625,0.24c1.393,0,1.764-0.864,2.321-2.736h-0.51l-3.899-13.585h1.602l3.272,12.001l3.481-12.001H366.93
				z"/>
			<path d="M370.339,68.554h-0.975V50h1.508v6.625c0.812-1.08,1.926-1.849,3.296-1.849c3.922,0,4.363,3.816,4.363,6.841
				c0,3.265-0.858,7.129-4.711,7.129c-1.439,0-2.483-0.696-3.18-1.872L370.339,68.554z M373.797,67.498
				c2.947,0,3.156-3.648,3.156-5.833c0-2.592-0.371-5.641-2.901-5.641c-2.576,0-3.226,2.448-3.226,5.953
				C370.826,64.594,371.082,67.498,373.797,67.498z"/>
			<path d="M386.118,68.746c-3.992,0-4.851-3.793-4.851-7.201c0-3.288,1.207-6.769,4.851-6.769c3.713,0,4.851,3.456,4.851,6.769
				C390.969,65.169,389.947,68.746,386.118,68.746z M386.118,56.024c-2.832,0-3.272,3.217-3.272,5.521
				c0,2.28,0.395,5.953,3.319,5.953c3.063,0,3.226-3.601,3.226-6.049C389.391,59.337,388.811,56.024,386.118,56.024z"/>
			<path d="M400.737,66.634c-0.836,1.368-2.043,2.112-3.644,2.112c-2.321,0-3.621-1.488-3.621-3.889
				c0-4.009,3.853-4.272,7.032-4.272v-1.464c0-2.04-0.72-3.097-2.53-3.097c-1.114,0-2.228,0.168-3.412,0.576v-1.272
				c1.184-0.359,2.414-0.552,3.528-0.552c2.599,0,3.922,1.393,3.922,4.272v9.505h-0.975L400.737,66.634z M399.182,61.761
				c-2.066,0-4.178,0.576-4.178,3.097c0,1.656,0.812,2.641,2.391,2.641c1.694,0,3.11-1.417,3.11-3.648v-2.089H399.182z"/>
			<path d="M407.372,57.032c0.812-1.512,1.973-2.208,3.412-2.208c0.232,0,0.557,0.024,0.766,0.048v1.465
				c-0.279-0.024-0.58-0.048-0.952-0.048c-1.903,0-3.041,1.536-3.041,3.912v8.353h-1.508V54.969h0.998L407.372,57.032z"/>
			<path d="M422.317,68.529h-0.975l-0.325-1.8c-0.882,1.44-1.903,2.017-3.458,2.017c-3.412,0-4.433-3.121-4.433-7.057
				c0-4.345,1.578-6.913,4.618-6.913c1.323,0,2.228,0.456,3.063,1.632V50h1.509V68.529z M417.837,56.024
				c-2.483,0-3.133,2.568-3.133,5.641c0,3.217,0.696,5.833,3.063,5.833c3.017,0,3.133-3.337,3.133-5.809
				C420.901,58.856,420.553,56.024,417.837,56.024z"/>
		</g>
	</g>
	<g id="meegotouch-completer-countbubble">
		<path style="opacity:0.2;fill:#FFFFFF;" d="M738,500h-2c-11.854,0-16,4.146-16,16c0,11.852,4.146,16,16,16h2
			c11.854,0,16-4.148,16-16C754,504.146,749.854,500,738,500z"/>
		<linearGradient id="SVGID_1_" gradientUnits="userSpaceOnUse" x1="737" y1="500" x2="737" y2="532">
			<stop  offset="0" style="stop-color:#FFFFFF"/>
			<stop  offset="1" style="stop-color:#FFFFFF;stop-opacity:0"/>
		</linearGradient>
		<path style="opacity:0.25;fill:url(#SVGID_1_);" d="M738,500h-2c-11.854,0-16,4.146-16,16c0,11.852,4.146,16,16,16h2
			c11.854,0,16-4.148,16-16C754,504.146,749.854,500,738,500z"/>
	</g>
	<g id="meegotouch-completer-button">
		<path style="fill:#FFFFFF;" d="M768,424c0,5.5-4.5,10-10,10h-38v-34h38c5.5,0,10,4.5,10,10V424z"/>
		<path d="M720,433v-32h38c4.963,0,9,4.037,9,9v14c0,4.963-4.037,9-9,9H720z"/>
	</g>
	<g id="meegotouch-completer-button-pressed">
		<path style="fill:#FFFFFF;" d="M828,424c0,5.5-4.5,10-10,10h-38v-34h38c5.5,0,10,4.5,10,10V424z"/>
		<path style="fill:#C8C8C8;" d="M780,433v-32h38c4.963,0,9,4.037,9,9v14c0,4.963-4.037,9-9,9H780z"/>
	</g>
	<g id="meegotouch-completer-background">
		<g>
			<path d="M730,483.5c-5.238,0-9.5-4.262-9.5-9.5v-14c0-5.238,4.262-9.5,9.5-9.5h44c5.238,0,9.5,4.262,9.5,9.5v14
				c0,5.238-4.262,9.5-9.5,9.5H730z"/>
			<path style="fill:#FFFFFF;" d="M774,451c4.963,0,9,4.037,9,9v14c0,4.963-4.037,9-9,9h-44c-4.963,0-9-4.037-9-9v-14
				c0-4.963,4.037-9,9-9H774 M774,450h-44c-5.5,0-10,4.5-10,10v14c0,5.5,4.5,10,10,10h44c5.5,0,10-4.5,10-10v-14
				C784,454.5,779.5,450,774,450L774,450z"/>
		</g>
	</g>
	<g id="meegotouch-completer-background-pressed">
		<g>
			<path style="fill:#C8C8C8;" d="M800,483.5c-5.238,0-9.5-4.262-9.5-9.5v-14c0-5.238,4.262-9.5,9.5-9.5h44
				c5.238,0,9.5,4.262,9.5,9.5v14c0,5.238-4.262,9.5-9.5,9.5H800z"/>
			<path style="fill:#FFFFFF;" d="M844,451c4.963,0,9,4.037,9,9v14c0,4.963-4.037,9-9,9h-44c-4.963,0-9-4.037-9-9v-14
				c0-4.963,4.037-9,9-9H844 M844,450h-44c-5.5,0-10,4.5-10,10v14c0,5.5,4.5,10,10,10h44c5.5,0,10-4.5,10-10v-14
				C854,454.5,849.5,450,844,450L844,450z"/>
		</g>
	</g>
	<g id="meegotouch-wordtracker-item-pressed">
		<g>
			<path style="fill:#00AEED;" d="M784,122c0,5.5-4.5,10-10,10h-44c-5.5,0-10-4.5-10-10v-12c0-5.5,4.5-10,10-10h44
				c5.5,0,10,4.5,10,10V122z"/>
		</g>
		<g style="opacity:0.2;">
			<path d="M784,122c0,5.5-4.5,10-10,10h-44c-5.5,0-10-4.5-10-10v-12c0-5.5,4.5-10,10-10h44c5.5,0,10,4.5,10,10V122z"/>
		</g>
	</g>
	<g id="meegotouch-wordtracker-selection">
		<g>
			<path style="fill:#00AEED;" d="M857,122c0,5.5-4.5,10-10,10h-44c-5.5,0-10-4.5-10-10v-12c0-5.5,4.5-10,10-10h44
				c5.5,0,10,4.5,10,10V122z"/>
		</g>
	</g>
	<g id="meegotouch-wordtracker-background">
		<g>
			<path d="M730,193.5c-5.238,0-9.5-4.262-9.5-9.5v-24c0-5.238,4.262-9.5,9.5-9.5h44c5.238,0,9.5,4.262,9.5,9.5v24
				c0,5.238-4.262,9.5-9.5,9.5H730z"/>
			<path style="fill:#FFFFFF;" d="M774,151c4.963,0,9,4.038,9,9v24c0,4.962-4.037,9-9,9h-44c-4.963,0-9-4.038-9-9v-24
				c0-4.962,4.037-9,9-9H774 M774,150h-44c-5.5,0-10,4.5-10,10v24c0,5.5,4.5,10,10,10h44c5.5,0,10-4.5,10-10v-24
				C784,154.5,779.5,150,774,150L774,150z"/>
		</g>
	</g>
	<g id="meegotouch-wordtracker-pointer">
		<polygon style="fill:#FFFFFF;" points="752,150.561 744.5,150.561 748.25,144.779 752,139 755.751,144.779 759.5,150.561 		"/>
		<polygon points="752,151 745.326,151 748.662,145.854 752,140.711 755.338,145.854 758.675,151 		"/>
	</g>
	<g id="meegotouch-seattle-magnifier-frame-mask">
		<g style="opacity:0;">
			<rect x="477" y="330" style="fill:#FFFFFF;" width="146" height="174"/>
		</g>
		<g>
			<path d="M617,350c0-7.7-6.3-14-14-14H497c-7.7,0-14,6.3-14,14v106c0,7.7,6.3,14,14,14h106c7.7,0,14-6.3,14-14V350z"/>
		</g>
	</g>
	<g id="meegotouch-seattle-magnifier-frame">
		<g id="meegotouch-seattle-magnifier-shadow">
			
				<radialGradient id="SVGID_2_" cx="-162.543" cy="54.9712" r="51.2627" gradientTransform="matrix(1.1061 0 0 0.4166 729.7886 226.0961)" gradientUnits="userSpaceOnUse">
				<stop  offset="0.1" style="stop-color:#000000;stop-opacity:0.6"/>
				<stop  offset="1" style="stop-color:#000000;stop-opacity:0"/>
			</radialGradient>
			<ellipse style="fill:url(#SVGID_2_);" cx="549.999" cy="249" rx="73.001" ry="25"/>
		</g>
		<g>
			<path style="fill:#FFFFFF;" d="M497,243c-9.374,0-17-7.626-17-17V120c0-9.374,7.626-17,17-17h106c9.374,0,17,7.626,17,17v106
				c0,9.374-7.626,17-17,17H497z"/>
			<path style="fill:#808080;" d="M603,106c7.72,0,14,6.28,14,14v106c0,7.72-6.28,14-14,14H497c-7.72,0-14-6.28-14-14V120
				c0-7.72,6.28-14,14-14H603 M603,100H497c-11,0-20,9-20,20v106c0,11,9,20,20,20h106c11,0,20-9,20-20V120C623,109,614,100,603,100
				L603,100z"/>
		</g>
	</g>
	<g id="meegotouch-keyboard-handle-decoration">
		<circle style="fill:#6D6E70;" cx="104" cy="407" r="2"/>
		<circle style="fill:#6D6E70;" cx="112" cy="407" r="2"/>
		<circle style="fill:#6D6E70;" cx="120" cy="407" r="2"/>
		<circle style="fill:#6D6E70;" cx="128" cy="407" r="2"/>
		<circle style="fill:#6D6E70;" cx="136" cy="407" r="2"/>
		<circle style="fill:#6D6E70;" cx="144" cy="407" r="2"/>
		<circle style="fill:#6D6E70;" cx="152" cy="407" r="2"/>
		<circle style="fill:#6D6E70;" cx="160" cy="407" r="2"/>
		<circle style="fill:#6D6E70;" cx="168" cy="407" r="2"/>
	</g>
	<g id="meegotouch-keyboard-handle-background">
		<rect x="102" y="420" style="fill:#F5F5F5;" width="64" height="6"/>
		<rect x="102" y="420" style="fill:#CCCCCC;" width="64" height="1"/>
	</g>
	<g id="meegotouch-keyboard-background">
		<g>
			<rect x="100" y="100" width="64" height="64"/>
		</g>
	</g>
	<g id="meegotouch-keyboard-toolbar-background">
		<rect x="100" y="174" style="opacity:0.9;fill:#191919;" width="64" height="64"/>
		<rect x="100" y="237" style="opacity:0.05;fill:#FFFFFF;" width="64" height="1"/>
	</g>
	<g id="meegotouch-keyboard-key">
		<rect x="174" y="100" style="opacity:0;fill:#FFFFFF;" width="64" height="64"/>
		<g>
			<path style="fill:#282828;" d="M186,163.5c-5.238,0-9.5-4.262-9.5-9.5v-44c0-5.238,4.262-9.5,9.5-9.5h40
				c5.238,0,9.5,4.262,9.5,9.5v44c0,5.238-4.262,9.5-9.5,9.5H186z"/>
			<path style="fill:#4D4D4D;" d="M226,101c4.962,0,9,4.038,9,9v44c0,4.962-4.038,9-9,9h-40c-4.962,0-9-4.038-9-9v-44
				c0-4.962,4.038-9,9-9H226 M226,100h-40c-5.5,0-10,4.5-10,10v44c0,5.5,4.5,10,10,10h40c5.5,0,10-4.5,10-10v-44
				C236,104.5,231.5,100,226,100L226,100z"/>
		</g>
	</g>
	<g id="meegotouch-keyboard-key-pressed">
		<rect x="174" y="174" style="opacity:0;fill:#FFFFFF;" width="64" height="64"/>
		<g>
			<path style="fill:#282828;" d="M186,237.5c-5.238,0-9.5-4.262-9.5-9.5v-44c0-5.238,4.262-9.5,9.5-9.5h40
				c5.238,0,9.5,4.262,9.5,9.5v44c0,5.238-4.262,9.5-9.5,9.5H186z"/>
			<path style="fill:#4D4D4D;" d="M226,175c4.962,0,9,4.038,9,9v44c0,4.962-4.038,9-9,9h-40c-4.962,0-9-4.038-9-9v-44
				c0-4.962,4.038-9,9-9H226 M226,174h-40c-5.5,0-10,4.5-10,10v44c0,5.5,4.5,10,10,10h40c5.5,0,10-4.5,10-10v-44
				C236,178.5,231.5,174,226,174L226,174z"/>
		</g>
		<g style="opacity:0.5;">
			<path d="M236,184c0-5.5-4.5-10-10-10h-40c-5.5,0-10,4.5-10,10v44c0,5.5,4.5,10,10,10h40c5.5,0,10-4.5,10-10V184z"/>
		</g>
	</g>
	<g id="meegotouch-keyboard-key-selected">
		<rect x="174" y="248" style="opacity:0;fill:#FFFFFF;" width="64" height="64"/>
		<g>
			<path style="fill:#00DB00;" d="M186,311.5c-5.238,0-9.5-4.262-9.5-9.5v-44c0-5.238,4.262-9.5,9.5-9.5h40
				c5.238,0,9.5,4.262,9.5,9.5v44c0,5.238-4.262,9.5-9.5,9.5H186z"/>
			<path style="fill:#4D4D4D;" d="M226,249c4.962,0,9,4.038,9,9v44c0,4.963-4.038,9-9,9h-40c-4.962,0-9-4.037-9-9v-44
				c0-4.962,4.038-9,9-9H226 M226,248h-40c-5.5,0-10,4.5-10,10v44c0,5.5,4.5,10,10,10h40c5.5,0,10-4.5,10-10v-44
				C236,252.5,231.5,248,226,248L226,248z"/>
		</g>
	</g>
	<g id="meegotouch-keyboard-key-pressed-selected">
		<rect x="174" y="322" style="opacity:0;fill:#FFFFFF;" width="64" height="64"/>
		<g>
			<path style="fill:#00DB00;" d="M186,385.5c-5.238,0-9.5-4.262-9.5-9.5v-44c0-5.238,4.262-9.5,9.5-9.5h40
				c5.238,0,9.5,4.262,9.5,9.5v44c0,5.238-4.262,9.5-9.5,9.5H186z"/>
			<path style="fill:#4D4D4D;" d="M226,323c4.962,0,9,4.037,9,9v44c0,4.963-4.038,9-9,9h-40c-4.962,0-9-4.037-9-9v-44
				c0-4.963,4.038-9,9-9H226 M226,322h-40c-5.5,0-10,4.5-10,10v44c0,5.5,4.5,10,10,10h40c5.5,0,10-4.5,10-10v-44
				C236,326.5,231.5,322,226,322L226,322z"/>
		</g>
		<g style="opacity:0.5;">
			<path d="M236,332c0-5.5-4.5-10-10-10h-40c-5.5,0-10,4.5-10,10v44c0,5.5,4.5,10,10,10h40c5.5,0,10-4.5,10-10V332z"/>
		</g>
	</g>
	<g id="meegotouch-keyboard-function-key">
		<rect x="248" y="100" style="opacity:0;fill:#FFFFFF;" width="64" height="64"/>
		<g>
			<path style="fill:#646464;" d="M310,110c0-5.5-4.5-10-10-10h-40c-5.5,0-10,4.5-10,10v44c0,5.5,4.5,10,10,10h40
				c5.5,0,10-4.5,10-10V110z"/>
		</g>
		<g style="opacity:0.05;">
			<path style="fill:#FFFFFF;" d="M300,101c4.962,0,9,4.038,9,9v44c0,4.962-4.038,9-9,9h-40c-4.962,0-9-4.038-9-9v-44
				c0-4.962,4.038-9,9-9H300 M300,100h-40c-5.5,0-10,4.5-10,10v44c0,5.5,4.5,10,10,10h40c5.5,0,10-4.5,10-10v-44
				C310,104.5,305.5,100,300,100L300,100z"/>
		</g>
	</g>
	<g id="meegotouch-keyboard-function-key-pressed">
		<rect x="248" y="174" style="opacity:0;fill:#FFFFFF;" width="64" height="64"/>
		<g>
			<path style="fill:#646464;" d="M310,184c0-5.5-4.5-10-10-10h-40c-5.5,0-10,4.5-10,10v44c0,5.5,4.5,10,10,10h40
				c5.5,0,10-4.5,10-10V184z"/>
		</g>
		<g style="opacity:0.5;">
			<path d="M310,184c0-5.5-4.5-10-10-10h-40c-5.5,0-10,4.5-10,10v44c0,5.5,4.5,10,10,10h40c5.5,0,10-4.5,10-10V184z"/>
		</g>
	</g>
	<g id="meegotouch-keyboard-border-top">
		
			<linearGradient id="SVGID_3_" gradientUnits="userSpaceOnUse" x1="9384.998" y1="-886.9995" x2="9384.998" y2="-899.9995" gradientTransform="matrix(1 0 0 1 -9252.0039 1379.999)">
			<stop  offset="0" style="stop-color:#000000"/>
			<stop  offset="0.1471" style="stop-color:#000000;stop-opacity:0.8529"/>
			<stop  offset="1" style="stop-color:#000000;stop-opacity:0"/>
		</linearGradient>
		<rect x="99.995" y="480" style="opacity:0.25;fill:url(#SVGID_3_);" width="66" height="13"/>
	</g>
	<g id="meegotouch-keyboard-paging-indicator-selected">
		<path id="_x32_" style="fill:#FFFFFF;" d="M108,454c0,2.963-1.037,4-4,4s-4-1.037-4-4c0-2.964,1.037-4,4-4S108,451.036,108,454z"
			/>
	</g>
	<g id="meegotouch-keyboard-paging-indicator">
		<path id="_x31_" style="fill:#FFFFFF;" d="M104,440c-2.963,0-4,1.036-4,4c0,2.963,1.037,4,4,4s4-1.037,4-4
			C108,441.036,106.963,440,104,440z M104,447.365c-2.61,0-3.365-0.756-3.365-3.365c0-2.611,0.755-3.365,3.365-3.365
			s3.365,0.754,3.365,3.365C107.365,446.609,106.61,447.365,104,447.365z"/>
	</g>
	<g id="meegotouch-keyboard-function-key-selected">
		<rect x="248" y="248" style="opacity:0;fill:#FFFFFF;" width="64" height="64"/>
		<g>
			<path style="fill:#00DB00;" d="M260,311.5c-5.238,0-9.5-4.262-9.5-9.5v-44c0-5.238,4.262-9.5,9.5-9.5h40
				c5.238,0,9.5,4.262,9.5,9.5v44c0,5.238-4.262,9.5-9.5,9.5H260z"/>
			<path style="fill:#4D4D4D;" d="M300,249c4.962,0,9,4.038,9,9v44c0,4.963-4.038,9-9,9h-40c-4.962,0-9-4.037-9-9v-44
				c0-4.962,4.038-9,9-9H300 M300,248h-40c-5.5,0-10,4.5-10,10v44c0,5.5,4.5,10,10,10h40c5.5,0,10-4.5,10-10v-44
				C310,252.5,305.5,248,300,248L300,248z"/>
		</g>
	</g>
	<g id="meegotouch-keyboard-function-key-pressed-selected">
		<rect x="248" y="322" style="opacity:0;fill:#FFFFFF;" width="64" height="64"/>
		<g>
			<path style="fill:#00DB00;" d="M260,385.5c-5.238,0-9.5-4.262-9.5-9.5v-44c0-5.238,4.262-9.5,9.5-9.5h40
				c5.238,0,9.5,4.262,9.5,9.5v44c0,5.238-4.262,9.5-9.5,9.5H260z"/>
			<path style="fill:#4D4D4D;" d="M300,323c4.962,0,9,4.037,9,9v44c0,4.963-4.038,9-9,9h-40c-4.962,0-9-4.037-9-9v-44
				c0-4.963,4.038-9,9-9H300 M300,322h-40c-5.5,0-10,4.5-10,10v44c0,5.5,4.5,10,10,10h40c5.5,0,10-4.5,10-10v-44
				C310,326.5,305.5,322,300,322L300,322z"/>
		</g>
		<g style="opacity:0.5;">
			<path d="M310,332c0-5.5-4.5-10-10-10h-40c-5.5,0-10,4.5-10,10v44c0,5.5,4.5,10,10,10h40c5.5,0,10-4.5,10-10V332z"/>
		</g>
	</g>
	<g id="meegotouch-keyboard-toolbar-button-selected">
		<rect x="322" y="248" style="opacity:0;fill:#FFFFFF;" width="64" height="64"/>
		<g>
			<path style="fill:#00DB00;" d="M334,311.5c-5.238,0-9.5-4.262-9.5-9.5v-44c0-5.238,4.262-9.5,9.5-9.5h40
				c5.238,0,9.5,4.262,9.5,9.5v44c0,5.238-4.262,9.5-9.5,9.5H334z"/>
			<path style="fill:#4D4D4D;" d="M374,249c4.962,0,9,4.038,9,9v44c0,4.963-4.038,9-9,9h-40c-4.962,0-9-4.037-9-9v-44
				c0-4.962,4.038-9,9-9H374 M374,248h-40c-5.5,0-10,4.5-10,10v44c0,5.5,4.5,10,10,10h40c5.5,0,10-4.5,10-10v-44
				C384,252.5,379.5,248,374,248L374,248z"/>
		</g>
	</g>
	<g id="meegotouch-keyboard-toolbar-button-pressed-selected">
		<rect x="322" y="322" style="opacity:0;fill:#FFFFFF;" width="64" height="64"/>
		<g>
			<path style="fill:#00DB00;" d="M334,385.5c-5.238,0-9.5-4.262-9.5-9.5v-44c0-5.238,4.262-9.5,9.5-9.5h40
				c5.238,0,9.5,4.262,9.5,9.5v44c0,5.238-4.262,9.5-9.5,9.5H334z"/>
			<path style="fill:#4D4D4D;" d="M374,323c4.962,0,9,4.037,9,9v44c0,4.963-4.038,9-9,9h-40c-4.962,0-9-4.037-9-9v-44
				c0-4.963,4.038-9,9-9H374 M374,322h-40c-5.5,0-10,4.5-10,10v44c0,5.5,4.5,10,10,10h40c5.5,0,10-4.5,10-10v-44
				C384,326.5,379.5,322,374,322L374,322z"/>
		</g>
		<g style="opacity:0.5;">
			<path d="M384,332c0-5.5-4.5-10-10-10h-40c-5.5,0-10,4.5-10,10v44c0,5.5,4.5,10,10,10h40c5.5,0,10-4.5,10-10V332z"/>
		</g>
	</g>
	<g id="meegotouch-keyboard-toolbar-button-pressed">
		<rect x="322" y="174" style="opacity:0;fill:#FFFFFF;" width="64" height="64"/>
		<g>
			<path style="fill:#282828;" d="M334,237.5c-5.238,0-9.5-4.262-9.5-9.5v-44c0-5.238,4.262-9.5,9.5-9.5h40
				c5.238,0,9.5,4.262,9.5,9.5v44c0,5.238-4.262,9.5-9.5,9.5H334z"/>
			<path style="fill:#4D4D4D;" d="M374,175c4.962,0,9,4.038,9,9v44c0,4.962-4.038,9-9,9h-40c-4.962,0-9-4.038-9-9v-44
				c0-4.962,4.038-9,9-9H374 M374,174h-40c-5.5,0-10,4.5-10,10v44c0,5.5,4.5,10,10,10h40c5.5,0,10-4.5,10-10v-44
				C384,178.5,379.5,174,374,174L374,174z"/>
		</g>
		<g style="opacity:0.5;">
			<path d="M384,184c0-5.5-4.5-10-10-10h-40c-5.5,0-10,4.5-10,10v44c0,5.5,4.5,10,10,10h40c5.5,0,10-4.5,10-10V184z"/>
		</g>
	</g>
	<g id="meegotouch-keyboard-toolbar-button">
		<rect x="322" y="100" style="opacity:0;fill:#FFFFFF;" width="64" height="64"/>
		<g>
			<path style="fill:#282828;" d="M334,163.5c-5.238,0-9.5-4.262-9.5-9.5v-44c0-5.238,4.262-9.5,9.5-9.5h40
				c5.238,0,9.5,4.262,9.5,9.5v44c0,5.238-4.262,9.5-9.5,9.5H334z"/>
			<path style="fill:#4D4D4D;" d="M374,101c4.962,0,9,4.038,9,9v44c0,4.962-4.038,9-9,9h-40c-4.962,0-9-4.038-9-9v-44
				c0-4.962,4.038-9,9-9H374 M374,100h-40c-5.5,0-10,4.5-10,10v44c0,5.5,4.5,10,10,10h40c5.5,0,10-4.5,10-10v-44
				C384,104.5,379.5,100,374,100L374,100z"/>
		</g>
		<g style="opacity:0.05;">
			<path style="fill:#FFFFFF;" d="M374,101c4.962,0,9,4.038,9,9v44c0,4.962-4.038,9-9,9h-40c-4.962,0-9-4.038-9-9v-44
				c0-4.962,4.038-9,9-9H374 M374,100h-40c-5.5,0-10,4.5-10,10v44c0,5.5,4.5,10,10,10h40c5.5,0,10-4.5,10-10v-44
				C384,104.5,379.5,100,374,100L374,100z"/>
		</g>
	</g>
	<g id="meegotouch-keyboard-toolbar-action-key">
		<rect x="396" y="100" style="opacity:0;fill:#FFFFFF;" width="64" height="64"/>
		<g>
			<path style="fill:#00DB00;" d="M408,163.5c-5.238,0-9.5-4.262-9.5-9.5v-44c0-5.238,4.262-9.5,9.5-9.5h40
				c5.238,0,9.5,4.262,9.5,9.5v44c0,5.238-4.262,9.5-9.5,9.5H408z"/>
			<path style="fill:#4D4D4D;" d="M448,101c4.963,0,9,4.038,9,9v44c0,4.962-4.037,9-9,9h-40c-4.962,0-9-4.038-9-9v-44
				c0-4.962,4.038-9,9-9H448 M448,100h-40c-5.5,0-10,4.5-10,10v44c0,5.5,4.5,10,10,10h40c5.5,0,10-4.5,10-10v-44
				C458,104.5,453.5,100,448,100L448,100z"/>
		</g>
	</g>
	<g id="meegotouch-keyboard-toolbar-action-key-pressed">
		<rect x="396" y="174" style="opacity:0;fill:#FFFFFF;" width="64" height="64"/>
		<g>
			<path style="fill:#00DB00;" d="M408,237.5c-5.238,0-9.5-4.262-9.5-9.5v-44c0-5.238,4.262-9.5,9.5-9.5h40
				c5.238,0,9.5,4.262,9.5,9.5v44c0,5.238-4.262,9.5-9.5,9.5H408z"/>
			<path style="fill:#4D4D4D;" d="M448,175c4.963,0,9,4.038,9,9v44c0,4.962-4.037,9-9,9h-40c-4.962,0-9-4.038-9-9v-44
				c0-4.962,4.038-9,9-9H448 M448,174h-40c-5.5,0-10,4.5-10,10v44c0,5.5,4.5,10,10,10h40c5.5,0,10-4.5,10-10v-44
				C458,178.5,453.5,174,448,174L448,174z"/>
		</g>
		<g style="opacity:0.5;">
			<path d="M458,184c0-5.5-4.5-10-10-10h-40c-5.5,0-10,4.5-10,10v44c0,5.5,4.5,10,10,10h40c5.5,0,10-4.5,10-10V184z"/>
		</g>
	</g>
</g>
</svg>
