<?xml version="1.0" encoding="iso-8859-1"?>
<!-- Generator: Adobe Illustrator 14.0.0, SVG Export Plug-In . SVG Version: 6.00 Build 43363)  -->
<!DOCTYPE svg PUBLIC "-//W3C//DTD SVG 1.1//EN" "http://www.w3.org/Graphics/SVG/1.1/DTD/svg11.dtd">
<svg version="1.1" xmlns="http://www.w3.org/2000/svg" xmlns:xlink="http://www.w3.org/1999/xlink" x="0px" y="0px" width="330px"
	 height="1000px" viewBox="0 0 330 1000" style="enable-background:new 0 0 330 1000;" xml:space="preserve">
<g id="meegotouch-dialog-layer">
</g>
<g id="theme">
	<g id="meegotouch-dialog">
		<g id="MeegoTouchDialogThemeTemplateHelper">
			<g>
				<path style="fill:#B3B3B3;" d="M17,999c-8.271,0-15-6.729-15-15V16C2,7.729,8.729,1,17,1h298c8.271,0,15,6.729,15,15v968
					c0,8.271-6.729,15-15,15H17z"/>
				<g>
					<path d="M315,2c7.72,0,14,6.28,14,14v968c0,7.72-6.28,14-14,14H17c-7.72,0-14-6.28-14-14V16C3,8.28,9.28,2,17,2H315 M315,0H17
						C8.2,0,1,7.2,1,16v968c0,8.8,7.2,16,16,16h298c8.8,0,16-7.2,16-16V16C331,7.2,323.8,0,315,0L315,0z"/>
				</g>
			</g>
			<path style="fill:#010101;" d="M141.145,19.045h3.988c1.887,0,3.297,0.584,4.23,1.753c0.932,1.169,1.398,3.042,1.398,5.619
				c0,2.83-0.498,4.856-1.496,6.081c-0.998,1.223-2.496,1.835-4.492,1.835h-3.629V19.045z M143.348,32.846h1.508
				c1.176,0,2.072-0.451,2.688-1.354s0.922-2.539,0.922-4.911c0-2.112-0.303-3.648-0.906-4.609c-0.605-0.96-1.52-1.44-2.744-1.44
				h-1.467V32.846z"/>
			<path style="fill:#010101;" d="M155.816,34.333h-2.184v-10.5h-1.363v-1.425h3.547V34.333z M154.73,18.225
				c0.334,0,0.623,0.123,0.867,0.369c0.242,0.246,0.363,0.536,0.363,0.871c0,0.342-0.119,0.635-0.359,0.877
				c-0.238,0.242-0.529,0.363-0.871,0.363c-0.35,0-0.643-0.121-0.883-0.363c-0.238-0.242-0.357-0.535-0.357-0.877
				c0-0.349,0.119-0.643,0.357-0.882C154.088,18.344,154.381,18.225,154.73,18.225z"/>
			<path style="fill:#010101;" d="M165.107,32.61c-0.738,1.258-1.887,1.887-3.445,1.887c-1.086,0-1.932-0.306-2.537-0.918
				c-0.605-0.611-0.908-1.468-0.908-2.568c0-1.135,0.311-1.98,0.934-2.538c0.621-0.557,1.367-0.905,2.234-1.046
				c0.869-0.14,1.926-0.21,3.17-0.21v-1.404c0-1.389-0.742-2.082-2.227-2.082c-0.854,0-1.896,0.182-3.127,0.543v-1.527
				c1.238-0.342,2.414-0.513,3.527-0.513c1.312,0,2.309,0.316,2.99,0.948c0.68,0.633,1.02,1.564,1.02,2.795v8.356h-1.189
				L165.107,32.61z M164.555,28.52h-1.221c-0.979,0-1.711,0.207-2.199,0.62s-0.734,1.03-0.734,1.851c0,0.67,0.15,1.171,0.447,1.502
				c0.297,0.332,0.742,0.498,1.338,0.498c0.752,0,1.334-0.24,1.748-0.719s0.621-1.127,0.621-1.947V28.52z"/>
			<path style="fill:#010101;" d="M169.68,34.333V18.102h2.186v16.231H169.68z"/>
			<path style="fill:#010101;" d="M179.154,34.497c-1.605,0-2.809-0.526-3.609-1.579c-0.799-1.053-1.199-2.632-1.199-4.737
				c0-1.832,0.416-3.281,1.246-4.348s2.018-1.6,3.562-1.6c1.559,0,2.75,0.526,3.574,1.579s1.236,2.522,1.236,4.409
				c0,1.941-0.385,3.473-1.154,4.594S180.822,34.497,179.154,34.497z M179.154,33.092c0.842,0,1.477-0.381,1.902-1.143
				c0.428-0.762,0.641-2.039,0.641-3.83c0-1.265-0.219-2.326-0.656-3.184s-1.066-1.287-1.887-1.287
				c-0.834,0-1.465,0.387-1.896,1.158c-0.43,0.773-0.646,1.877-0.646,3.312c0,1.613,0.217,2.846,0.646,3.696
				C177.689,32.667,178.32,33.092,179.154,33.092z"/>
			<path style="fill:#010101;" d="M193.307,23.854l0.461-1.445h1.221V33.77c0,1.285-0.398,2.281-1.195,2.988
				c-0.797,0.708-1.889,1.062-3.275,1.062c-1.137,0-2.424-0.181-3.867-0.544v-1.537c1.504,0.361,2.707,0.543,3.609,0.543
				c0.787,0,1.363-0.146,1.729-0.436c0.365-0.291,0.592-0.67,0.682-1.139c0.088-0.468,0.133-1.133,0.133-1.994v-0.308
				c-0.58,0.834-1.51,1.251-2.789,1.251c-1.359,0-2.381-0.47-3.061-1.41c-0.68-0.939-1.02-2.35-1.02-4.229
				c0-1.798,0.375-3.211,1.127-4.24c0.752-1.028,1.84-1.543,3.262-1.543C191.689,22.233,192.684,22.773,193.307,23.854z
				 M190.518,32.17c0.758,0,1.336-0.272,1.732-0.815c0.396-0.544,0.594-1.714,0.594-3.513c0-1.381-0.186-2.418-0.559-3.111
				s-0.928-1.041-1.666-1.041c-0.787,0-1.387,0.297-1.799,0.893c-0.414,0.594-0.621,1.682-0.621,3.26
				c0,1.443,0.193,2.525,0.58,3.246C189.164,31.809,189.744,32.17,190.518,32.17z"/>
			<path style="fill:#010101;" d="M116.17,530.394c-1.285-0.335-2.256-1.124-2.916-2.368s-0.99-3.08-0.99-5.507
				c0-2.529,0.438-4.428,1.312-5.696c0.875-1.268,2.188-1.902,3.938-1.902s3.062,0.617,3.938,1.852s1.312,3.149,1.312,5.747
				c0,2.447-0.357,4.334-1.07,5.66c-0.715,1.326-1.783,2.092-3.205,2.297c0.143,0.656,0.355,1.136,0.635,1.44
				c0.281,0.305,0.838,0.457,1.672,0.457v1.425h-0.338c-1.225,0-2.156-0.245-2.799-0.733S116.52,531.686,116.17,530.394z
				 M117.514,529.01c0.943,0,1.666-0.484,2.17-1.451c0.502-0.967,0.752-2.647,0.752-5.04c0-2.16-0.248-3.712-0.748-4.655
				c-0.498-0.943-1.223-1.415-2.174-1.415c-0.936,0-1.656,0.46-2.158,1.379c-0.502,0.92-0.754,2.483-0.754,4.691
				c0,2.167,0.242,3.79,0.729,4.87C115.814,528.469,116.543,529.01,117.514,529.01z"/>
			<path style="fill:#010101;" d="M128.926,530.537c-1.217,0-2.127-0.316-2.732-0.948s-0.908-1.581-0.908-2.846v-8.296h2.186v7.916
				c0,0.896,0.156,1.568,0.471,2.016s0.789,0.672,1.426,0.672c0.793,0,1.406-0.301,1.84-0.902c0.436-0.602,0.652-1.385,0.652-2.349
				v-7.353h2.184v11.926h-1.211l-0.439-1.764C131.633,529.895,130.479,530.537,128.926,530.537z"/>
			<path style="fill:#010101;" d="M144.84,528.548v1.487c-1.074,0.334-2.184,0.502-3.332,0.502c-1.668,0-2.916-0.502-3.744-1.508
				c-0.826-1.004-1.24-2.553-1.24-4.645c0-1.839,0.4-3.317,1.199-4.435c0.801-1.118,1.941-1.677,3.426-1.677
				c1.203,0,2.107,0.32,2.713,0.959c0.604,0.639,0.992,1.422,1.162,2.348c0.172,0.927,0.258,2.029,0.258,3.307h-6.439
				c0,1.389,0.246,2.43,0.738,3.123s1.23,1.041,2.215,1.041C142.629,529.051,143.643,528.883,144.84,528.548z M138.842,523.544
				h4.295c0-1.442-0.17-2.461-0.512-3.056s-0.834-0.893-1.477-0.893c-0.719,0-1.266,0.309-1.646,0.924
				C139.123,521.135,138.902,522.143,138.842,523.544z"/>
			<path style="fill:#010101;" d="M148.932,518.447l0.502,1.99c0.662-1.402,1.818-2.103,3.467-2.103c0.217,0,0.379,0.011,0.48,0.03
				v1.99c-0.17-0.014-0.428-0.021-0.768-0.021c-0.938,0-1.625,0.225-2.062,0.672c-0.438,0.448-0.656,1.146-0.656,2.098v7.27h-2.184
				v-11.926H148.932z"/>
			<path style="fill:#010101;" d="M157.123,529.932l-3.26-11.484h2.244l2.605,9.885l2.717-9.885h1.969l-3.732,12.644
				c-0.287,0.95-0.689,1.649-1.209,2.097s-1.197,0.672-2.031,0.672c-0.574,0-1.209-0.072-1.906-0.215v-1.508
				c0.629,0.123,1.203,0.185,1.723,0.185c0.471,0,0.855-0.159,1.152-0.477c0.299-0.318,0.584-0.956,0.857-1.913H157.123z"/>
			<path style="fill:#010101;" d="M177.457,530.373l-0.461-1.467c-0.629,1.088-1.705,1.631-3.23,1.631
				c-1.414,0-2.479-0.5-3.193-1.502s-1.072-2.565-1.072-4.691c0-1.784,0.381-3.242,1.145-4.373c0.762-1.131,1.844-1.697,3.244-1.697
				c1.148,0,2.01,0.346,2.584,1.035v-5.168h2.184v16.232H177.457z M176.545,524.938l-0.01-0.677c0-1.777-0.201-2.977-0.6-3.6
				c-0.4-0.621-0.971-0.933-1.709-0.933c-0.82,0-1.436,0.38-1.846,1.138c-0.41,0.76-0.615,1.897-0.615,3.415
				c0,1.593,0.199,2.786,0.596,3.579s0.99,1.189,1.783,1.189c0.773,0,1.367-0.287,1.779-0.861
				C176.338,527.615,176.545,526.531,176.545,524.938z"/>
			<path style="fill:#010101;" d="M184.143,530.373h-2.184v-10.5h-1.363v-1.426h3.547V530.373z M183.057,514.264
				c0.334,0,0.623,0.123,0.867,0.369c0.242,0.246,0.363,0.537,0.363,0.872c0,0.342-0.119,0.634-0.359,0.877
				c-0.238,0.243-0.529,0.364-0.871,0.364c-0.35,0-0.643-0.121-0.883-0.364c-0.238-0.243-0.357-0.535-0.357-0.877
				c0-0.349,0.119-0.643,0.357-0.882C182.414,514.384,182.707,514.264,183.057,514.264z"/>
			<path style="fill:#010101;" d="M193.434,528.65c-0.738,1.258-1.887,1.887-3.445,1.887c-1.086,0-1.932-0.306-2.537-0.918
				c-0.605-0.611-0.908-1.468-0.908-2.568c0-1.135,0.311-1.98,0.934-2.538c0.621-0.557,1.367-0.905,2.234-1.046
				c0.869-0.14,1.926-0.21,3.17-0.21v-1.405c0-1.387-0.742-2.081-2.227-2.081c-0.854,0-1.896,0.181-3.127,0.544v-1.528
				c1.238-0.342,2.414-0.513,3.527-0.513c1.312,0,2.309,0.316,2.99,0.948c0.68,0.633,1.02,1.563,1.02,2.794v8.357h-1.189
				L193.434,528.65z M192.881,524.559h-1.221c-0.979,0-1.711,0.207-2.199,0.621s-0.734,1.03-0.734,1.851
				c0,0.67,0.15,1.171,0.447,1.502c0.297,0.332,0.742,0.497,1.338,0.497c0.752,0,1.334-0.238,1.748-0.717s0.621-1.129,0.621-1.949
				V524.559z"/>
			<path style="fill:#010101;" d="M198.006,530.373v-16.232h2.186v16.232H198.006z"/>
			<path style="fill:#010101;" d="M207.48,530.537c-1.605,0-2.809-0.526-3.609-1.579c-0.799-1.053-1.199-2.632-1.199-4.737
				c0-1.832,0.416-3.281,1.246-4.348s2.018-1.6,3.562-1.6c1.559,0,2.75,0.526,3.574,1.579s1.236,2.522,1.236,4.409
				c0,1.941-0.385,3.473-1.154,4.594S209.148,530.537,207.48,530.537z M207.48,529.133c0.842,0,1.477-0.381,1.902-1.144
				c0.428-0.763,0.641-2.039,0.641-3.83c0-1.265-0.219-2.325-0.656-3.184s-1.066-1.287-1.887-1.287
				c-0.834,0-1.465,0.386-1.896,1.159c-0.43,0.771-0.646,1.876-0.646,3.312c0,1.613,0.217,2.846,0.646,3.696
				C206.016,528.707,206.646,529.133,207.48,529.133z"/>
			<path style="fill:#010101;" d="M221.633,519.894l0.461-1.446h1.221v11.361c0,1.285-0.398,2.282-1.195,2.989
				c-0.797,0.708-1.889,1.062-3.275,1.062c-1.137,0-2.424-0.182-3.867-0.543v-1.539c1.504,0.363,2.707,0.544,3.609,0.544
				c0.787,0,1.363-0.146,1.729-0.436c0.365-0.291,0.592-0.671,0.682-1.139c0.088-0.468,0.133-1.133,0.133-1.994v-0.308
				c-0.58,0.834-1.51,1.251-2.789,1.251c-1.359,0-2.381-0.47-3.061-1.41c-0.68-0.939-1.02-2.35-1.02-4.229
				c0-1.798,0.375-3.211,1.127-4.24c0.752-1.028,1.84-1.543,3.262-1.543C220.016,518.273,221.01,518.813,221.633,519.894z
				 M218.844,528.209c0.758,0,1.336-0.271,1.732-0.814c0.396-0.544,0.594-1.715,0.594-3.512c0-1.381-0.186-2.418-0.559-3.112
				s-0.928-1.041-1.666-1.041c-0.787,0-1.387,0.298-1.799,0.892c-0.414,0.596-0.621,1.682-0.621,3.262
				c0,1.441,0.193,2.523,0.58,3.245C217.49,527.85,218.07,528.209,218.844,528.209z"/>
		</g>
		<g id="meegotouch-button-dialog-query-background-pressed-vertical-bottom">
			<path style="fill:#FFFFFF;" d="M159,900v52c0,5.5-4.5,10-10,10h-44c-5.5,0-10-4.5-10-10v-52H159z"/>
			<path style="fill:#333333;" d="M159,898v52c0,5.5-4.5,10-10,10h-44c-5.5,0-10-4.5-10-10v-52H159z"/>
			
				<linearGradient id="SVGID_1_" gradientUnits="userSpaceOnUse" x1="4017" y1="471.8979" x2="4017" y2="409.8979" gradientTransform="matrix(-1 0 0 -1 4144 1370.8984)">
				<stop  offset="0" style="stop-color:#4D4D4D"/>
				<stop  offset="1" style="stop-color:#B3B3B3"/>
			</linearGradient>
			<path style="fill:url(#SVGID_1_);" d="M159,899v52c0,5.5-4.5,10-10,10h-44c-5.5,0-10-4.5-10-10v-52H159z"/>
		</g>
		<g id="meegotouch-button-dialog-query-background-pressed-vertical-center">
			<rect x="95" y="826" style="fill:#FFFFFF;" width="64" height="62"/>
			<rect x="95" y="824" style="fill:#333333;" width="64" height="62"/>
			<linearGradient id="SVGID_2_" gradientUnits="userSpaceOnUse" x1="127" y1="887" x2="127" y2="825">
				<stop  offset="0" style="stop-color:#B3B3B3"/>
				<stop  offset="1" style="stop-color:#4D4D4D"/>
			</linearGradient>
			<rect x="95" y="825" style="fill:url(#SVGID_2_);" width="64" height="62"/>
		</g>
		<g id="meegotouch-button-dialog-query-background-pressed-vertical-top">
			<rect x="95" y="752" style="fill:#FFFFFF;" width="64" height="62"/>
			<rect x="95" y="750" style="fill:#333333;" width="64" height="62"/>
			<linearGradient id="SVGID_3_" gradientUnits="userSpaceOnUse" x1="127" y1="813" x2="127" y2="751">
				<stop  offset="0" style="stop-color:#B3B3B3"/>
				<stop  offset="1" style="stop-color:#4D4D4D"/>
			</linearGradient>
			<rect x="95" y="751" style="fill:url(#SVGID_3_);" width="64" height="62"/>
		</g>
		<g id="meegotouch-button-dialog-query-background-vertical-bottom">
			<path style="fill:#808080;" d="M85,900v52c0,5.5-4.5,10-10,10H31c-5.5,0-10-4.5-10-10v-52H85z"/>
			<path style="fill:#FFFFFF;" d="M85,898v52c0,5.5-4.5,10-10,10H31c-5.5,0-10-4.5-10-10v-52H85z"/>
			
				<linearGradient id="SVGID_4_" gradientUnits="userSpaceOnUse" x1="4091" y1="471.8979" x2="4091" y2="409.8979" gradientTransform="matrix(-1 0 0 -1 4144 1370.8984)">
				<stop  offset="0" style="stop-color:#E1E1E1"/>
				<stop  offset="1" style="stop-color:#D2D3D3"/>
			</linearGradient>
			<path style="fill:url(#SVGID_4_);" d="M85,899v52c0,5.5-4.5,10-10,10H31c-5.5,0-10-4.5-10-10v-52H85z"/>
		</g>
		<g id="meegotouch-button-dialog-query-background-vertical-center">
			<rect x="21" y="826" style="fill:#808080;" width="64" height="62"/>
			<rect x="21" y="824" style="fill:#FFFFFF;" width="64" height="62"/>
			<rect x="21" y="825" style="fill:#E1E1E1;" width="64" height="62"/>
		</g>
		<g id="meegotouch-button-dialog-query-background-vertical-top">
			<rect x="21" y="752" style="fill:#808080;" width="64" height="62"/>
			<rect x="21" y="750" style="fill:#FFFFFF;" width="64" height="62"/>
			<linearGradient id="SVGID_5_" gradientUnits="userSpaceOnUse" x1="53" y1="813" x2="53" y2="751">
				<stop  offset="0" style="stop-color:#E1E1E1"/>
				<stop  offset="1" style="stop-color:#F3F3F3"/>
			</linearGradient>
			<rect x="21" y="751" style="fill:url(#SVGID_5_);" width="64" height="62"/>
		</g>
		<g id="meegotouch-button-dialog-query-background-pressed-horizontal-right">
			<g>
				<path style="fill:#FFFFFF;" d="M167,740v-62h64v52c0,5.5-4.5,10-10,10H167z"/>
			</g>
			<g>
				<path style="fill:#333333;" d="M167,738v-62h64v52c0,5.5-4.5,10-10,10H167z"/>
			</g>
			<g>
				<linearGradient id="SVGID_6_" gradientUnits="userSpaceOnUse" x1="199" y1="739" x2="199" y2="677">
					<stop  offset="0" style="stop-color:#B3B3B3"/>
					<stop  offset="1" style="stop-color:#4D4D4D"/>
				</linearGradient>
				<path style="fill:url(#SVGID_6_);" d="M167,739v-62h64v52c0,5.5-4.5,10-10,10H167z"/>
			</g>
			<rect x="167" y="677" style="opacity:0.2;fill:#FFFFFF;" width="1" height="62"/>
		</g>
		<g id="meegotouch-button-dialog-query-background-pressed-horizontal-center">
			<rect x="95" y="678" style="fill:#FFFFFF;" width="64" height="62"/>
			<rect x="95" y="676" style="fill:#333333;" width="64" height="62"/>
			<linearGradient id="SVGID_7_" gradientUnits="userSpaceOnUse" x1="127" y1="739" x2="127" y2="677">
				<stop  offset="0" style="stop-color:#B3B3B3"/>
				<stop  offset="1" style="stop-color:#4D4D4D"/>
			</linearGradient>
			<rect x="95" y="677" style="fill:url(#SVGID_7_);" width="64" height="62"/>
			<rect x="158" y="677" style="opacity:0.2;fill:#010101;" width="1" height="62"/>
			<rect x="95" y="677" style="opacity:0.2;fill:#FFFFFF;" width="1" height="62"/>
		</g>
		<g id="meegotouch-button-dialog-query-background-pressed-horizontal-left">
			<g>
				<path style="fill:#FFFFFF;" d="M85,740v-62H21v52c0,5.5,4.5,10,10,10H85z"/>
			</g>
			<g>
				<path style="fill:#333333;" d="M85,738v-62H21v52c0,5.5,4.5,10,10,10H85z"/>
			</g>
			<g>
				<linearGradient id="SVGID_8_" gradientUnits="userSpaceOnUse" x1="53" y1="739" x2="53" y2="677">
					<stop  offset="0" style="stop-color:#B3B3B3"/>
					<stop  offset="1" style="stop-color:#4D4D4D"/>
				</linearGradient>
				<path style="fill:url(#SVGID_8_);" d="M85,739v-62H21v52c0,5.5,4.5,10,10,10H85z"/>
			</g>
			<rect x="84" y="677" style="opacity:0.2;fill:#010101;" width="1" height="62"/>
		</g>
		<g id="meegotouch-button-dialog-query-background-horizontal-right">
			<g>
				<path style="fill:#808080;" d="M167,666v-62h64v52c0,5.5-4.5,10-10,10H167z"/>
			</g>
			<g>
				<path style="fill:#FFFFFF;" d="M167,664v-62h64v52c0,5.5-4.5,10-10,10H167z"/>
			</g>
			<g>
				<linearGradient id="SVGID_9_" gradientUnits="userSpaceOnUse" x1="199" y1="665" x2="199" y2="603">
					<stop  offset="0" style="stop-color:#D2D3D3"/>
					<stop  offset="1" style="stop-color:#F2F2F2"/>
				</linearGradient>
				<path style="fill:url(#SVGID_9_);" d="M167,665v-62h64v52c0,5.5-4.5,10-10,10H167z"/>
			</g>
			<rect x="167" y="603" style="opacity:0.2;fill:#FFFFFF;" width="1" height="62"/>
		</g>
		<g id="meegotouch-button-dialog-query-background-horizontal-center">
			<rect x="95" y="604" style="fill:#808080;" width="64" height="62"/>
			<rect x="95" y="602" style="fill:#FFFFFF;" width="64" height="62"/>
			<linearGradient id="SVGID_10_" gradientUnits="userSpaceOnUse" x1="127" y1="665" x2="127" y2="603">
				<stop  offset="0" style="stop-color:#D2D3D3"/>
				<stop  offset="1" style="stop-color:#F2F2F2"/>
			</linearGradient>
			<rect x="95" y="603" style="fill:url(#SVGID_10_);" width="64" height="62"/>
			<rect x="158" y="603" style="opacity:0.2;fill:#010101;" width="1" height="62"/>
			<rect x="95" y="603" style="opacity:0.2;fill:#FFFFFF;" width="1" height="62"/>
		</g>
		<g id="meegotouch-button-dialog-query-background-horizontal-left">
			<g>
				<path style="fill:#808080;" d="M85,666v-62H21v52c0,5.5,4.5,10,10,10H85z"/>
			</g>
			<g>
				<path style="fill:#FFFFFF;" d="M85,664v-62H21v52c0,5.5,4.5,10,10,10H85z"/>
			</g>
			<g>
				<linearGradient id="SVGID_11_" gradientUnits="userSpaceOnUse" x1="53" y1="665" x2="53" y2="603">
					<stop  offset="0" style="stop-color:#D2D3D3"/>
					<stop  offset="1" style="stop-color:#F2F2F2"/>
				</linearGradient>
				<path style="fill:url(#SVGID_11_);" d="M85,665v-62H21v52c0,5.5,4.5,10,10,10H85z"/>
			</g>
			<rect x="84" y="603" style="opacity:0.2;fill:#010101;" width="1" height="62"/>
		</g>
		<g id="meegotouch-dialog-query-background">
			<path style="fill:#FFFFFF;" d="M85,579v-53c0-5.5-4.5-10-10-10H31c-5.5,0-10,4.5-10,10v53H85z"/>
			<path style="fill:#F2F2F2;" d="M85,580v-53c0-5.5-4.5-10-10-10H31c-5.5,0-10,4.5-10,10v53H85z"/>
		</g>
		<g id="meegotouch-button-dialog-background-pressed-vertical-bottom">
			<rect x="95" y="430" style="fill:#333333;" width="64" height="62"/>
			<rect x="95" y="432" style="fill:#FFFFFF;" width="64" height="62"/>
			<linearGradient id="SVGID_12_" gradientUnits="userSpaceOnUse" x1="127" y1="493" x2="127" y2="431">
				<stop  offset="0" style="stop-color:#B3B3B3"/>
				<stop  offset="1" style="stop-color:#4D4D4D"/>
			</linearGradient>
			<rect x="95" y="431" style="fill:url(#SVGID_12_);" width="64" height="62"/>
		</g>
		<g id="meegotouch-button-dialog-background-vertical-bottom">
			<rect x="21" y="432" style="fill:#808080;" width="64" height="62"/>
			<rect x="21" y="430" style="fill:#FFFFFF;" width="64" height="62"/>
			<linearGradient id="SVGID_13_" gradientUnits="userSpaceOnUse" x1="53" y1="493" x2="53" y2="431">
				<stop  offset="0" style="stop-color:#D2D3D3"/>
				<stop  offset="1" style="stop-color:#E1E1E1"/>
			</linearGradient>
			<rect x="21" y="431" style="fill:url(#SVGID_13_);" width="64" height="62"/>
		</g>
		<g id="meegotouch-button-dialog-background-pressed-vertical-center">
			<rect x="95" y="356" style="fill:#333333;" width="64" height="62"/>
			<rect x="95" y="358" style="fill:#FFFFFF;" width="64" height="62"/>
			<linearGradient id="SVGID_14_" gradientUnits="userSpaceOnUse" x1="127" y1="419" x2="127" y2="357">
				<stop  offset="0" style="stop-color:#B3B3B3"/>
				<stop  offset="1" style="stop-color:#4D4D4D"/>
			</linearGradient>
			<rect x="95" y="357" style="fill:url(#SVGID_14_);" width="64" height="62"/>
		</g>
		<g id="meegotouch-button-dialog-background-vertical-center">
			<rect x="21" y="358" style="fill:#808080;" width="64" height="62"/>
			<rect x="21" y="356" style="fill:#FFFFFF;" width="64" height="62"/>
			<rect x="21" y="357" style="fill:#E1E1E1;" width="64" height="62"/>
		</g>
		<g id="meegotouch-button-dialog-background-pressed-vertical-top">
			<rect x="95" y="282" style="fill:#333333;" width="64" height="62"/>
			<rect x="95" y="284" style="fill:#FFFFFF;" width="64" height="62"/>
			<linearGradient id="SVGID_15_" gradientUnits="userSpaceOnUse" x1="127" y1="345" x2="127" y2="283">
				<stop  offset="0" style="stop-color:#B3B3B3"/>
				<stop  offset="1" style="stop-color:#4D4D4D"/>
			</linearGradient>
			<rect x="95" y="283" style="fill:url(#SVGID_15_);" width="64" height="62"/>
		</g>
		<g id="meegotouch-button-dialog-background-vertical-top">
			<rect x="21" y="284" style="fill:#808080;" width="64" height="62"/>
			<rect x="21" y="282" style="fill:#FFFFFF;" width="64" height="62"/>
			<linearGradient id="SVGID_16_" gradientUnits="userSpaceOnUse" x1="53" y1="345" x2="53" y2="283">
				<stop  offset="0" style="stop-color:#E1E1E1"/>
				<stop  offset="1" style="stop-color:#F3F3F3"/>
			</linearGradient>
			<rect x="21" y="283" style="fill:url(#SVGID_16_);" width="64" height="62"/>
		</g>
		<g id="meegotouch-button-dialog-background-pressed">
			<rect x="243" y="208" style="fill:#333333;" width="64" height="62"/>
			<rect x="243" y="210" style="fill:#FFFFFF;" width="64" height="62"/>
			<linearGradient id="SVGID_17_" gradientUnits="userSpaceOnUse" x1="275" y1="271" x2="275" y2="209">
				<stop  offset="0" style="stop-color:#B3B3B3"/>
				<stop  offset="1" style="stop-color:#4D4D4D"/>
			</linearGradient>
			<rect x="243" y="209" style="fill:url(#SVGID_17_);" width="64" height="62"/>
		</g>
		<g id="meegotouch-button-dialog-background">
			<rect x="243" y="136" style="fill:#808080;" width="64" height="62"/>
			<rect x="243" y="134" style="fill:#FFFFFF;" width="64" height="62"/>
			<linearGradient id="SVGID_18_" gradientUnits="userSpaceOnUse" x1="275" y1="197" x2="275" y2="135">
				<stop  offset="0" style="stop-color:#D2D3D3"/>
				<stop  offset="1" style="stop-color:#F2F2F2"/>
			</linearGradient>
			<rect x="243" y="135" style="fill:url(#SVGID_18_);" width="64" height="62"/>
		</g>
		<g id="meegotouch-button-dialog-background-pressed-horizontal-right">
			<rect x="169" y="208" style="fill:#333333;" width="64" height="62"/>
			<rect x="169" y="210" style="fill:#FFFFFF;" width="64" height="62"/>
			<linearGradient id="SVGID_19_" gradientUnits="userSpaceOnUse" x1="201" y1="271" x2="201" y2="209">
				<stop  offset="0" style="stop-color:#B3B3B3"/>
				<stop  offset="1" style="stop-color:#4D4D4D"/>
			</linearGradient>
			<rect x="169" y="209" style="fill:url(#SVGID_19_);" width="64" height="62"/>
			<rect x="232" y="209" style="opacity:0.2;fill:#010101;" width="1" height="62"/>
			<rect x="169" y="209" style="opacity:0.2;fill:#FFFFFF;" width="1" height="62"/>
		</g>
		<g id="meegotouch-button-dialog-background-pressed-horizontal-center">
			<rect x="95" y="208" style="fill:#333333;" width="64" height="62"/>
			<rect x="95" y="210" style="fill:#FFFFFF;" width="64" height="62"/>
			<linearGradient id="SVGID_20_" gradientUnits="userSpaceOnUse" x1="127" y1="271" x2="127" y2="209">
				<stop  offset="0" style="stop-color:#B3B3B3"/>
				<stop  offset="1" style="stop-color:#4D4D4D"/>
			</linearGradient>
			<rect x="95" y="209" style="fill:url(#SVGID_20_);" width="64" height="62"/>
			<rect x="158" y="209" style="opacity:0.2;fill:#010101;" width="1" height="62"/>
			<rect x="95" y="209" style="opacity:0.2;fill:#FFFFFF;" width="1" height="62"/>
		</g>
		<g id="meegotouch-button-dialog-background-pressed-horizontal-left">
			<rect x="21" y="208" style="fill:#010101;" width="64" height="62"/>
			<rect x="21" y="210" style="fill:#FFFFFF;" width="64" height="62"/>
			<linearGradient id="SVGID_21_" gradientUnits="userSpaceOnUse" x1="53" y1="271" x2="53" y2="209">
				<stop  offset="0" style="stop-color:#B3B3B3"/>
				<stop  offset="1" style="stop-color:#4D4D4D"/>
			</linearGradient>
			<rect x="21" y="209" style="fill:url(#SVGID_21_);" width="64" height="62"/>
			<rect x="84" y="209" style="opacity:0.2;fill:#010101;" width="1" height="62"/>
		</g>
		<g id="meegotouch-button-dialog-background-horizontal-right">
			<rect x="169" y="136" style="fill:#808080;" width="64" height="62"/>
			<rect x="169" y="134" style="fill:#FFFFFF;" width="64" height="62"/>
			<linearGradient id="SVGID_22_" gradientUnits="userSpaceOnUse" x1="201" y1="197" x2="201" y2="135">
				<stop  offset="0" style="stop-color:#D2D3D3"/>
				<stop  offset="1" style="stop-color:#F2F2F2"/>
			</linearGradient>
			<rect x="169" y="135" style="fill:url(#SVGID_22_);" width="64" height="62"/>
			<rect x="169" y="135" style="opacity:0.2;fill:#FFFFFF;" width="1" height="62"/>
		</g>
		<g id="meegotouch-button-dialog-background-horizontal-center">
			<rect x="95" y="136" style="fill:#808080;" width="64" height="62"/>
			<rect x="95" y="134" style="fill:#FFFFFF;" width="64" height="62"/>
			<linearGradient id="SVGID_23_" gradientUnits="userSpaceOnUse" x1="127" y1="197" x2="127" y2="135">
				<stop  offset="0" style="stop-color:#D2D3D3"/>
				<stop  offset="1" style="stop-color:#F2F2F2"/>
			</linearGradient>
			<rect x="95" y="135" style="fill:url(#SVGID_23_);" width="64" height="62"/>
			<rect x="158" y="135" style="opacity:0.2;fill:#010101;" width="1" height="62"/>
			<rect x="95" y="135" style="opacity:0.2;fill:#FFFFFF;" width="1" height="62"/>
		</g>
		<g id="meegotouch-button-dialog-background-horizontal-left">
			<rect x="21" y="136" style="fill:#808080;" width="64" height="62"/>
			<rect x="21" y="134" style="fill:#FFFFFF;" width="64" height="62"/>
			<linearGradient id="SVGID_24_" gradientUnits="userSpaceOnUse" x1="53" y1="197" x2="53" y2="135">
				<stop  offset="0" style="stop-color:#D2D3D3"/>
				<stop  offset="1" style="stop-color:#F2F2F2"/>
			</linearGradient>
			<rect x="21" y="135" style="fill:url(#SVGID_24_);" width="64" height="62"/>
			<rect x="84" y="135" style="opacity:0.2;fill:#010101;" width="1" height="62"/>
		</g>
		<g id="meegotouch-dialog-background">
			<g>
				<rect x="21" y="92" style="fill:#F2F2F2;" width="32" height="32"/>
			</g>
		</g>
		<g id="meegotouch-dialog-header-background">
			<path style="fill:#CCCCCC;" d="M21,81V28c0-5.5,4.5-10,10-10h44c5.5,0,10,4.5,10,10v53H21z"/>
			
				<linearGradient id="SVGID_25_" gradientUnits="userSpaceOnUse" x1="68.7754" y1="34.7759" x2="68.7754" y2="97.7759" gradientTransform="matrix(1 0 0 1 -15.7754 -15.7764)">
				<stop  offset="0" style="stop-color:#333333"/>
				<stop  offset="1" style="stop-color:#000000"/>
			</linearGradient>
			<path style="fill:url(#SVGID_25_);" d="M21,82V29c0-5.5,4.5-10,10-10h44c5.5,0,10,4.5,10,10v53H21z"/>
		</g>
	</g>
</g>
</svg>
