<?xml version="1.0" encoding="UTF-8" standalone="no"?>
<!-- Generator: Adobe Illustrator 14.0.0, SVG Export Plug-In . SVG Version: 6.00 Build 43363)  -->

<svg
   xmlns:dc="http://purl.org/dc/elements/1.1/"
   xmlns:cc="http://creativecommons.org/ns#"
   xmlns:rdf="http://www.w3.org/1999/02/22-rdf-syntax-ns#"
   xmlns:svg="http://www.w3.org/2000/svg"
   xmlns="http://www.w3.org/2000/svg"
   xmlns:xlink="http://www.w3.org/1999/xlink"
   xmlns:sodipodi="http://sodipodi.sourceforge.net/DTD/sodipodi-0.dtd"
   xmlns:inkscape="http://www.inkscape.org/namespaces/inkscape"
   version="1.1"
   x="0px"
   y="0px"
   width="290px"
   height="1100px"
   viewBox="0 0 290 1100"
   style="enable-background:new 0 0 290 1100;"
   xml:space="preserve"
   id="svg2"
   inkscape:version="0.47 r22583"
   sodipodi:docname="meegotouch-navigationbar.svg"><metadata
   id="metadata486"><rdf:RDF><cc:Work
       rdf:about=""><dc:format>image/svg+xml</dc:format><dc:type
         rdf:resource="http://purl.org/dc/dcmitype/StillImage" /></cc:Work></rdf:RDF></metadata><defs
   id="defs484"><inkscape:perspective
   sodipodi:type="inkscape:persp3d"
   inkscape:vp_x="0 : 550 : 1"
   inkscape:vp_y="0 : 1000 : 0"
   inkscape:vp_z="290 : 550 : 1"
   inkscape:persp3d-origin="145 : 366.66667 : 1"
   id="perspective488" />
	
<linearGradient
   inkscape:collect="always"
   xlink:href="#SVGID_1_"
   id="linearGradient3564"
   gradientUnits="userSpaceOnUse"
   gradientTransform="matrix(-1,0,0,1,3070,0)"
   x1="2880"
   y1="935.00098"
   x2="2880"
   y2="875.00098" /><linearGradient
   inkscape:collect="always"
   xlink:href="#SVGID_2_"
   id="linearGradient3566"
   gradientUnits="userSpaceOnUse"
   x1="120.0005"
   y1="935"
   x2="120.0005"
   y2="875" /><linearGradient
   inkscape:collect="always"
   xlink:href="#SVGID_3_"
   id="linearGradient3568"
   gradientUnits="userSpaceOnUse"
   gradientTransform="matrix(-1,0,0,1,2910,0)"
   x1="2860"
   y1="935.00098"
   x2="2860"
   y2="875.00098" /><linearGradient
   inkscape:collect="always"
   xlink:href="#SVGID_4_"
   id="linearGradient3570"
   gradientUnits="userSpaceOnUse"
   x1="190"
   y1="865"
   x2="190"
   y2="805" /><linearGradient
   inkscape:collect="always"
   xlink:href="#SVGID_5_"
   id="linearGradient3572"
   gradientUnits="userSpaceOnUse"
   x1="120.0005"
   y1="865"
   x2="120.0005"
   y2="805" /><linearGradient
   inkscape:collect="always"
   xlink:href="#SVGID_6_"
   id="linearGradient3574"
   gradientUnits="userSpaceOnUse"
   x1="50"
   y1="865"
   x2="50"
   y2="805" /><linearGradient
   inkscape:collect="always"
   xlink:href="#SVGID_7_"
   id="linearGradient3576"
   gradientUnits="userSpaceOnUse"
   x1="190"
   y1="795"
   x2="190"
   y2="735" /><linearGradient
   inkscape:collect="always"
   xlink:href="#SVGID_8_"
   id="linearGradient3578"
   gradientUnits="userSpaceOnUse"
   x1="120.0005"
   y1="795"
   x2="120.0005"
   y2="735" /><linearGradient
   inkscape:collect="always"
   xlink:href="#SVGID_9_"
   id="linearGradient3580"
   gradientUnits="userSpaceOnUse"
   x1="50"
   y1="795"
   x2="50"
   y2="735" /><linearGradient
   inkscape:collect="always"
   xlink:href="#SVGID_10_"
   id="linearGradient3582"
   gradientUnits="userSpaceOnUse"
   x1="120.0005"
   y1="725"
   x2="120.0005"
   y2="665" /><linearGradient
   inkscape:collect="always"
   xlink:href="#SVGID_11_"
   id="linearGradient3584"
   gradientUnits="userSpaceOnUse"
   gradientTransform="matrix(-1,0,0,1,2910,0)"
   x1="2860"
   y1="725.00098"
   x2="2860"
   y2="665.00098" /><linearGradient
   inkscape:collect="always"
   xlink:href="#SVGID_12_"
   id="linearGradient3586"
   gradientUnits="userSpaceOnUse"
   x1="120.0005"
   y1="654"
   x2="120.0005"
   y2="594" /><linearGradient
   inkscape:collect="always"
   xlink:href="#SVGID_13_"
   id="linearGradient3588"
   gradientUnits="userSpaceOnUse"
   x1="50"
   y1="654"
   x2="50"
   y2="594" /><linearGradient
   inkscape:collect="always"
   xlink:href="#SVGID_14_"
   id="linearGradient3590"
   gradientUnits="userSpaceOnUse"
   x1="120.0005"
   y1="584"
   x2="120.0005"
   y2="524.00049" /><linearGradient
   inkscape:collect="always"
   xlink:href="#SVGID_15_"
   id="linearGradient3592"
   gradientUnits="userSpaceOnUse"
   x1="50"
   y1="584"
   x2="50"
   y2="524.00049" /><linearGradient
   inkscape:collect="always"
   xlink:href="#SVGID_16_"
   id="linearGradient3594"
   gradientUnits="userSpaceOnUse"
   x1="190"
   y1="513"
   x2="190"
   y2="454" /><linearGradient
   inkscape:collect="always"
   xlink:href="#SVGID_17_"
   id="linearGradient3596"
   gradientUnits="userSpaceOnUse"
   x1="120.0005"
   y1="513"
   x2="120.0005"
   y2="454" /><linearGradient
   inkscape:collect="always"
   xlink:href="#SVGID_18_"
   id="linearGradient3598"
   gradientUnits="userSpaceOnUse"
   x1="50"
   y1="513"
   x2="50"
   y2="454" /><linearGradient
   inkscape:collect="always"
   xlink:href="#SVGID_19_"
   id="linearGradient3600"
   gradientUnits="userSpaceOnUse"
   x1="120.0005"
   y1="439"
   x2="120.0005"
   y2="380" /><linearGradient
   inkscape:collect="always"
   xlink:href="#SVGID_20_"
   id="linearGradient3602"
   gradientUnits="userSpaceOnUse"
   x1="50"
   y1="439"
   x2="50"
   y2="380" /><linearGradient
   inkscape:collect="always"
   xlink:href="#SVGID_21_"
   id="linearGradient3604"
   gradientUnits="userSpaceOnUse"
   x1="120.0005"
   y1="370"
   x2="120.0005"
   y2="310" /><linearGradient
   inkscape:collect="always"
   xlink:href="#SVGID_22_"
   id="linearGradient3606"
   gradientUnits="userSpaceOnUse"
   x1="50"
   y1="369"
   x2="50"
   y2="310" /><linearGradient
   inkscape:collect="always"
   xlink:href="#SVGID_23_"
   id="linearGradient3608"
   gradientUnits="userSpaceOnUse"
   x1="172"
   y1="299"
   x2="172"
   y2="240" /><linearGradient
   inkscape:collect="always"
   xlink:href="#SVGID_24_"
   id="linearGradient3610"
   gradientUnits="userSpaceOnUse"
   gradientTransform="matrix(-1,0,0,1,2910,0)"
   x1="2846"
   y1="299"
   x2="2846"
   y2="240" /><linearGradient
   inkscape:collect="always"
   xlink:href="#SVGID_25_"
   id="linearGradient3612"
   gradientUnits="userSpaceOnUse"
   x1="172"
   y1="229"
   x2="172"
   y2="170" /><linearGradient
   inkscape:collect="always"
   xlink:href="#SVGID_26_"
   id="linearGradient3614"
   gradientUnits="userSpaceOnUse"
   x1="64"
   y1="229"
   x2="64"
   y2="170" /><linearGradient
   inkscape:collect="always"
   xlink:href="#SVGID_27_"
   id="linearGradient3616"
   gradientUnits="userSpaceOnUse"
   x1="172"
   y1="159"
   x2="172"
   y2="100" /><linearGradient
   inkscape:collect="always"
   xlink:href="#SVGID_28_"
   id="linearGradient3618"
   gradientUnits="userSpaceOnUse"
   x1="64"
   y1="159"
   x2="64"
   y2="100" /><linearGradient
   inkscape:collect="always"
   xlink:href="#SVGID_29_"
   id="linearGradient3620"
   gradientUnits="userSpaceOnUse"
   x1="134.0005"
   y1="60"
   x2="134.0005"
   y2="48" /><linearGradient
   inkscape:collect="always"
   xlink:href="#SVGID_30_"
   id="linearGradient3622"
   gradientUnits="userSpaceOnUse"
   x1="249.08299"
   y1="120"
   x2="249.08299"
   y2="108" />
		
		
		
		
		
		
		
		
		
		
		
		
		
		
		
		
		
		
		
		
		
		
		
		
		
		
		
		
		
		
		
		
		
	<linearGradient
   inkscape:collect="always"
   xlink:href="#SVGID_29_"
   id="linearGradient3905"
   gradientUnits="userSpaceOnUse"
   x1="134.0005"
   y1="60"
   x2="134.0005"
   y2="48" /></defs><sodipodi:namedview
   pagecolor="#ffffff"
   bordercolor="#666666"
   borderopacity="1"
   objecttolerance="10"
   gridtolerance="10"
   guidetolerance="10"
   inkscape:pageopacity="0"
   inkscape:pageshadow="2"
   inkscape:window-width="1038"
   inkscape:window-height="1028"
   id="namedview482"
   showgrid="true"
   inkscape:zoom="14.429091"
   inkscape:cx="137.90543"
   inkscape:cy="1033.1813"
   inkscape:window-x="387"
   inkscape:window-y="126"
   inkscape:window-maximized="0"
   inkscape:current-layer="svg2"><inkscape:grid
     type="xygrid"
     id="grid3907" /></sodipodi:namedview>
<g
   id="meegotouch-navigationbar-layer">
</g>
<g
   id="duinavigationbarThemeTemplateHelper">
			<g
   id="g8">
				<path
   style="fill:#b3b3b3"
   d="m 16,1099 c -8.271,0 -15,-6.729 -15,-15 V 16 C 1,7.729 7.729,1 16,1 h 258 c 8.271,0 15,6.729 15,15 v 1068 c 0,8.271 -6.729,15 -15,15 H 16 z"
   id="path10" />
				<g
   id="g12">
					<path
   d="m 274,2 c 7.72,0 14,6.28 14,14 v 1068 c 0,7.72 -6.28,14 -14,14 H 16 c -7.72,0 -14,-6.28 -14,-14 V 16 C 2,8.28 8.28,2 16,2 h 258 m 0,-2 H 16 C 7.2,0 0,7.2 0,16 v 1068 c 0,8.8 7.2,16 16,16 h 258 c 8.8,0 16,-7.2 16,-16 V 16 C 290,7.2 282.8,0 274,0 l 0,0 z"
   id="path14" />
				</g>
			</g>
			<path
   d="M 31.381,34.333 30.92,32.867 c -0.631,1.086 -1.707,1.63 -3.23,1.63 -1.416,0 -2.48,-0.501 -3.195,-1.502 -0.713,-1.001 -1.07,-2.565 -1.07,-4.691 0,-1.784 0.381,-3.241 1.143,-4.373 0.762,-1.132 1.844,-1.697 3.246,-1.697 1.148,0 2.01,0.345 2.584,1.036 v -5.168 h 2.184 v 16.231 h -1.201 z m -0.912,-5.435 -0.012,-0.677 c 0,-1.777 -0.199,-2.978 -0.6,-3.599 -0.4,-0.623 -0.969,-0.934 -1.707,-0.934 -0.82,0 -1.436,0.379 -1.846,1.139 -0.41,0.758 -0.615,1.896 -0.615,3.414 0,1.593 0.197,2.785 0.596,3.578 0.395,0.793 0.99,1.189 1.783,1.189 0.771,0 1.365,-0.287 1.779,-0.861 0.414,-0.574 0.622,-1.656 0.622,-3.249 z"
   id="path16" />
			<path
   d="m 39.162,34.497 c -1.217,0 -2.127,-0.315 -2.732,-0.948 -0.605,-0.633 -0.908,-1.581 -0.908,-2.846 v -8.295 h 2.186 v 7.916 c 0,0.895 0.156,1.566 0.471,2.015 0.315,0.449 0.789,0.671 1.426,0.671 0.793,0 1.406,-0.301 1.84,-0.902 0.436,-0.602 0.652,-1.384 0.652,-2.348 v -7.352 h 2.184 V 34.333 H 43.07 l -0.439,-1.764 c -0.762,1.285 -1.916,1.928 -3.469,1.928 z"
   id="path18" />
			<path
   d="M 49.764,34.333 H 47.58 v -10.5 h -1.363 v -1.425 h 3.547 V 34.333 z M 48.678,18.225 c 0.334,0 0.623,0.123 0.867,0.369 0.242,0.246 0.363,0.536 0.363,0.871 0,0.342 -0.119,0.635 -0.359,0.877 -0.238,0.242 -0.529,0.363 -0.871,0.363 -0.35,0 -0.643,-0.121 -0.883,-0.363 -0.238,-0.242 -0.357,-0.535 -0.357,-0.877 0,-0.349 0.119,-0.643 0.357,-0.882 0.24,-0.239 0.533,-0.358 0.883,-0.358 z"
   id="path20" />
			<path
   d="m 61.629,34.333 h -2.184 v -7.916 c 0,-0.896 -0.158,-1.567 -0.473,-2.015 -0.315,-0.448 -0.785,-0.672 -1.414,-0.672 -0.793,0 -1.408,0.301 -1.846,0.902 -0.438,0.601 -0.656,1.385 -0.656,2.348 v 7.353 H 52.87 V 22.408 h 1.221 l 0.441,1.764 c 0.758,-1.293 1.914,-1.938 3.465,-1.938 1.211,0 2.119,0.317 2.723,0.954 0.605,0.635 0.908,1.586 0.908,2.85 v 8.295 z"
   id="path22" />
			<path
   d="m 70.754,32.61 c -0.738,1.258 -1.887,1.887 -3.445,1.887 -1.086,0 -1.932,-0.306 -2.537,-0.918 -0.605,-0.611 -0.908,-1.468 -0.908,-2.568 0,-1.135 0.311,-1.98 0.934,-2.538 0.621,-0.557 1.367,-0.905 2.234,-1.046 0.869,-0.14 1.926,-0.21 3.17,-0.21 v -1.404 c 0,-1.389 -0.742,-2.082 -2.227,-2.082 -0.854,0 -1.896,0.182 -3.127,0.543 v -1.527 c 1.238,-0.342 2.414,-0.513 3.527,-0.513 1.312,0 2.309,0.316 2.99,0.948 0.68,0.633 1.02,1.564 1.02,2.795 v 8.356 H 71.196 L 70.754,32.61 z M 70.201,28.52 H 68.98 c -0.979,0 -1.711,0.207 -2.199,0.62 -0.488,0.413 -0.734,1.03 -0.734,1.851 0,0.67 0.15,1.171 0.447,1.502 0.297,0.332 0.742,0.498 1.338,0.498 0.752,0 1.334,-0.24 1.748,-0.719 0.414,-0.479 0.621,-1.127 0.621,-1.947 V 28.52 z"
   id="path24" />
			<path
   d="M 77.449,34.333 74.004,22.408 h 2.225 l 2.605,9.885 2.717,-9.885 h 1.969 l -3.588,11.925 h -2.483 z"
   id="path26" />
			<path
   d="m 87.652,34.333 h -2.184 v -10.5 h -1.363 v -1.425 h 3.547 V 34.333 z M 86.566,18.225 c 0.334,0 0.623,0.123 0.865,0.369 0.242,0.246 0.365,0.536 0.365,0.871 0,0.342 -0.121,0.635 -0.359,0.877 -0.24,0.242 -0.531,0.363 -0.871,0.363 -0.35,0 -0.645,-0.121 -0.883,-0.363 -0.24,-0.242 -0.359,-0.535 -0.359,-0.877 0,-0.349 0.119,-0.643 0.359,-0.882 0.239,-0.239 0.534,-0.358 0.883,-0.358 z"
   id="path28" />
			<path
   d="m 97.629,23.854 0.461,-1.445 h 1.221 V 33.77 c 0,1.285 -0.398,2.281 -1.195,2.988 -0.795,0.708 -1.889,1.062 -3.275,1.062 -1.135,0 -2.424,-0.181 -3.865,-0.544 v -1.537 c 1.504,0.361 2.707,0.543 3.609,0.543 0.785,0 1.361,-0.146 1.727,-0.436 0.367,-0.291 0.594,-0.67 0.682,-1.139 0.09,-0.468 0.135,-1.133 0.135,-1.994 v -0.308 c -0.582,0.834 -1.512,1.251 -2.789,1.251 -1.361,0 -2.381,-0.47 -3.061,-1.41 -0.682,-0.939 -1.021,-2.35 -1.021,-4.229 0,-1.798 0.377,-3.211 1.129,-4.24 0.752,-1.028 1.838,-1.543 3.26,-1.543 1.365,-0.001 2.359,0.539 2.982,1.62 z M 94.84,32.17 c 0.758,0 1.336,-0.272 1.732,-0.815 0.396,-0.544 0.596,-1.714 0.596,-3.513 0,-1.381 -0.188,-2.418 -0.559,-3.111 -0.373,-0.693 -0.93,-1.041 -1.668,-1.041 -0.785,0 -1.385,0.297 -1.799,0.893 -0.414,0.594 -0.621,1.682 -0.621,3.26 0,1.443 0.193,2.525 0.58,3.246 0.387,0.721 0.965,1.081 1.739,1.081 z"
   id="path30" />
			<path
   d="m 108.467,32.61 c -0.738,1.258 -1.887,1.887 -3.445,1.887 -1.086,0 -1.932,-0.306 -2.537,-0.918 -0.605,-0.611 -0.908,-1.468 -0.908,-2.568 0,-1.135 0.311,-1.98 0.934,-2.538 0.621,-0.557 1.367,-0.905 2.234,-1.046 0.869,-0.14 1.926,-0.21 3.17,-0.21 v -1.404 c 0,-1.389 -0.742,-2.082 -2.227,-2.082 -0.854,0 -1.896,0.182 -3.127,0.543 v -1.527 c 1.238,-0.342 2.414,-0.513 3.527,-0.513 1.312,0 2.309,0.316 2.99,0.948 0.68,0.633 1.02,1.564 1.02,2.795 v 8.356 h -1.189 l -0.442,-1.723 z m -0.553,-4.09 h -1.221 c -0.979,0 -1.711,0.207 -2.199,0.62 -0.488,0.413 -0.734,1.03 -0.734,1.851 0,0.67 0.15,1.171 0.447,1.502 0.297,0.332 0.742,0.498 1.338,0.498 0.752,0 1.334,-0.24 1.748,-0.719 0.414,-0.479 0.621,-1.127 0.621,-1.947 V 28.52 z"
   id="path32" />
			<path
   d="m 116.086,34.497 c -0.93,0 -1.611,-0.217 -2.041,-0.651 -0.432,-0.434 -0.646,-1.126 -0.646,-2.076 v -7.937 h -1.568 v -0.82 l 3.189,-3.251 h 0.562 v 2.646 h 2.902 v 1.425 h -2.902 v 7.577 c 0,0.65 0.107,1.079 0.318,1.287 0.213,0.209 0.533,0.312 0.965,0.312 0.443,0 1.045,-0.099 1.805,-0.297 v 1.415 c -0.916,0.247 -1.777,0.37 -2.584,0.37 z"
   id="path34" />
			<path
   d="m 122.832,34.333 h -2.184 v -10.5 h -1.363 v -1.425 h 3.547 v 11.925 z m -1.086,-16.108 c 0.334,0 0.623,0.123 0.867,0.369 0.242,0.246 0.363,0.536 0.363,0.871 0,0.342 -0.119,0.635 -0.359,0.877 -0.238,0.242 -0.529,0.363 -0.871,0.363 -0.35,0 -0.643,-0.121 -0.883,-0.363 -0.238,-0.242 -0.357,-0.535 -0.357,-0.877 0,-0.349 0.119,-0.643 0.357,-0.882 0.241,-0.239 0.533,-0.358 0.883,-0.358 z"
   id="path36" />
			<path
   d="m 130.246,34.497 c -1.605,0 -2.809,-0.526 -3.609,-1.579 -0.799,-1.053 -1.199,-2.632 -1.199,-4.737 0,-1.832 0.416,-3.281 1.246,-4.348 0.83,-1.067 2.018,-1.6 3.562,-1.6 1.559,0 2.75,0.526 3.574,1.579 0.824,1.053 1.236,2.522 1.236,4.409 0,1.941 -0.385,3.473 -1.154,4.594 -0.769,1.121 -1.988,1.682 -3.656,1.682 z m 0,-1.405 c 0.842,0 1.477,-0.381 1.902,-1.143 0.428,-0.762 0.641,-2.039 0.641,-3.83 0,-1.265 -0.219,-2.326 -0.656,-3.184 -0.437,-0.858 -1.066,-1.287 -1.887,-1.287 -0.834,0 -1.465,0.387 -1.896,1.158 -0.43,0.773 -0.646,1.877 -0.646,3.312 0,1.613 0.217,2.846 0.646,3.696 0.431,0.853 1.062,1.278 1.896,1.278 z"
   id="path38" />
			<path
   d="M 146.285,34.333 H 144.1 v -7.916 c 0,-0.896 -0.156,-1.567 -0.471,-2.015 -0.315,-0.448 -0.787,-0.672 -1.416,-0.672 -0.793,0 -1.408,0.301 -1.846,0.902 -0.438,0.601 -0.656,1.385 -0.656,2.348 v 7.353 h -2.184 V 22.408 h 1.221 l 0.441,1.764 c 0.758,-1.293 1.912,-1.938 3.465,-1.938 1.211,0 2.117,0.317 2.723,0.954 0.605,0.635 0.908,1.586 0.908,2.85 v 8.295 z"
   id="path40" />
			<path
   d="m 151.412,18.102 v 5.414 c 0.779,-0.855 1.746,-1.282 2.9,-1.282 1.334,0 2.336,0.492 3.006,1.477 0.67,0.985 1.004,2.461 1.004,4.43 0,1.969 -0.451,3.511 -1.354,4.624 -0.902,1.115 -2.143,1.672 -3.723,1.672 -1.551,0 -2.891,-0.068 -4.02,-0.205 v -16.13 h 2.187 z m 0,10.222 v 4.521 c 0.635,0.082 1.203,0.123 1.701,0.123 1.006,0 1.746,-0.367 2.225,-1.102 0.479,-0.735 0.719,-1.998 0.719,-3.789 0,-1.449 -0.188,-2.536 -0.564,-3.261 -0.375,-0.725 -0.936,-1.087 -1.682,-1.087 -0.725,0 -1.262,0.219 -1.609,0.656 -0.35,0.438 -0.568,0.969 -0.656,1.595 -0.091,0.626 -0.134,1.408 -0.134,2.344 z"
   id="path42" />
			<path
   d="m 166.977,32.61 c -0.738,1.258 -1.887,1.887 -3.445,1.887 -1.086,0 -1.932,-0.306 -2.537,-0.918 -0.605,-0.611 -0.908,-1.468 -0.908,-2.568 0,-1.135 0.311,-1.98 0.934,-2.538 0.621,-0.557 1.367,-0.905 2.234,-1.046 0.869,-0.14 1.926,-0.21 3.17,-0.21 v -1.404 c 0,-1.389 -0.742,-2.082 -2.227,-2.082 -0.854,0 -1.896,0.182 -3.127,0.543 v -1.527 c 1.238,-0.342 2.414,-0.513 3.527,-0.513 1.312,0 2.309,0.316 2.99,0.948 0.68,0.633 1.02,1.564 1.02,2.795 v 8.356 h -1.189 l -0.442,-1.723 z m -0.553,-4.09 h -1.221 c -0.979,0 -1.711,0.207 -2.199,0.62 -0.488,0.413 -0.734,1.03 -0.734,1.851 0,0.67 0.15,1.171 0.447,1.502 0.297,0.332 0.742,0.498 1.338,0.498 0.752,0 1.334,-0.24 1.748,-0.719 0.414,-0.479 0.621,-1.127 0.621,-1.947 V 28.52 z"
   id="path44" />
			<path
   d="m 172.77,22.408 0.502,1.988 c 0.664,-1.4 1.818,-2.102 3.467,-2.102 0.219,0 0.379,0.01 0.482,0.031 v 1.988 c -0.172,-0.014 -0.428,-0.02 -0.77,-0.02 -0.938,0 -1.623,0.224 -2.061,0.671 -0.438,0.448 -0.656,1.147 -0.656,2.097 v 7.271 h -2.186 V 22.408 h 1.222 z"
   id="path46" />
		</g><g
   id="meegotouch-button-navigationbar-portrait-tab-background-selected-horizontal-right">
			<rect
   x="160"
   y="875"
   width="60"
   height="60"
   id="rect49" />
			
				<linearGradient
   id="SVGID_1_"
   gradientUnits="userSpaceOnUse"
   x1="2880"
   y1="935.00098"
   x2="2880"
   y2="875.00098"
   gradientTransform="matrix(-1,0,0,1,3070,0)">
				<stop
   offset="0"
   style="stop-color:#29ABE2"
   id="stop52" />
				<stop
   offset="1"
   style="stop-color:#7DD8FF"
   id="stop54" />
			</linearGradient>
			<path
   style="fill:url(#linearGradient3564)"
   d="m 220,875 v 52 c 0,4.4 -3.6,8 -8,8 h -52 v -60 h 60 z"
   id="path56" />
			<rect
   x="160"
   y="881"
   style="fill:#ffffff;fill-opacity:0.2"
   width="1"
   height="48"
   id="rect58" />
			<rect
   x="160"
   y="875"
   style="fill-opacity:0.2"
   width="60"
   height="6"
   id="rect60" />
		</g><g
   id="meegotouch-button-navigationbar-portrait-tab-background-pressed-horizontal-right">
			<rect
   x="90"
   y="875"
   width="60"
   height="60"
   id="rect63" />
			<linearGradient
   id="SVGID_2_"
   gradientUnits="userSpaceOnUse"
   x1="120.0005"
   y1="935"
   x2="120.0005"
   y2="875">
				<stop
   offset="0"
   style="stop-color:#808080"
   id="stop66" />
				<stop
   offset="1"
   style="stop-color:#1A1A1A"
   id="stop68" />
			</linearGradient>
			<path
   style="fill:url(#linearGradient3566)"
   d="m 150,875 v 52 c 0,4.4 -3.6,8 -8,8 H 90 v -60 h 60 z"
   id="path70" />
			<rect
   x="90"
   y="881"
   style="fill:#ffffff;fill-opacity:0.2"
   width="1"
   height="48"
   id="rect72" />
			<rect
   x="90"
   y="875"
   style="opacity:0.1"
   width="60"
   height="6"
   id="rect74" />
		</g><g
   id="meegotouch-button-navigationbar-portrait-tab-background-horizontal-right">
			<rect
   x="20"
   y="875"
   width="60"
   height="60"
   id="rect77" />
			
				<linearGradient
   id="SVGID_3_"
   gradientUnits="userSpaceOnUse"
   x1="2860"
   y1="935.00098"
   x2="2860"
   y2="875.00098"
   gradientTransform="matrix(-1,0,0,1,2910,0)">
				<stop
   offset="0"
   style="stop-color:#1A1A1A"
   id="stop80" />
				<stop
   offset="1"
   style="stop-color:#808080"
   id="stop82" />
			</linearGradient>
			<path
   style="fill:url(#linearGradient3568)"
   d="m 80,875 v 52 c 0,4.4 -3.6,8 -8,8 H 20 v -60 h 60 z"
   id="path84" />
			<rect
   x="20"
   y="881"
   style="fill:#ffffff;fill-opacity:0.2"
   width="1"
   height="48"
   id="rect86" />
			<rect
   x="20"
   y="875"
   style="opacity:0.1"
   width="60"
   height="6"
   id="rect88" />
		</g><g
   id="meegotouch-button-navigationbar-portrait-tab-background-selected-horizontal-center">
			<g
   id="g91">
				<linearGradient
   id="SVGID_4_"
   gradientUnits="userSpaceOnUse"
   x1="190"
   y1="865"
   x2="190"
   y2="805">
					<stop
   offset="0"
   style="stop-color:#29ABE2"
   id="stop94" />
					<stop
   offset="1"
   style="stop-color:#7DD8FF"
   id="stop96" />
				</linearGradient>
				<rect
   x="160"
   y="805"
   style="fill:url(#linearGradient3570)"
   width="60"
   height="60"
   id="rect98" />
			</g>
			<rect
   x="219"
   y="811"
   style="fill-opacity:0.2"
   width="1"
   height="48"
   id="rect100" />
			<rect
   x="160"
   y="805"
   style="fill-opacity:0.2"
   width="60"
   height="6"
   id="rect102" />
			<rect
   x="160"
   y="811"
   style="fill:#ffffff;fill-opacity:0.2"
   width="1"
   height="48"
   id="rect104" />
		</g><g
   id="meegotouch-button-navigationbar-portrait-tab-background-pressed-horizontal-center">
			<g
   id="g107">
				<linearGradient
   id="SVGID_5_"
   gradientUnits="userSpaceOnUse"
   x1="120.0005"
   y1="865"
   x2="120.0005"
   y2="805">
					<stop
   offset="0"
   style="stop-color:#808080"
   id="stop110" />
					<stop
   offset="1"
   style="stop-color:#1A1A1A"
   id="stop112" />
				</linearGradient>
				<rect
   x="90"
   y="805"
   style="fill:url(#linearGradient3572)"
   width="60"
   height="60"
   id="rect114" />
			</g>
			<rect
   x="149"
   y="811"
   style="fill-opacity:0.2"
   width="1"
   height="48"
   id="rect116" />
			<rect
   x="90"
   y="811"
   style="fill:#ffffff;fill-opacity:0.2"
   width="1"
   height="48"
   id="rect118" />
			<rect
   x="90"
   y="805"
   style="opacity:0.1"
   width="60"
   height="6"
   id="rect120" />
		</g><g
   id="meegotouch-button-navigationbar-portrait-tab-background-horizontal-center">
			<g
   id="g123">
				<linearGradient
   id="SVGID_6_"
   gradientUnits="userSpaceOnUse"
   x1="50"
   y1="865"
   x2="50"
   y2="805">
					<stop
   offset="0"
   style="stop-color:#1A1A1A"
   id="stop126" />
					<stop
   offset="1"
   style="stop-color:#808080"
   id="stop128" />
				</linearGradient>
				<rect
   x="20"
   y="805"
   style="fill:url(#linearGradient3574)"
   width="60"
   height="60"
   id="rect130" />
			</g>
			<rect
   x="79"
   y="811"
   style="fill-opacity:0.2"
   width="1"
   height="48"
   id="rect132" />
			<rect
   x="20"
   y="811"
   style="fill:#ffffff;fill-opacity:0.2"
   width="1"
   height="48"
   id="rect134" />
			<rect
   x="20"
   y="805"
   style="opacity:0.1"
   width="60"
   height="6"
   id="rect136" />
		</g><g
   id="meegotouch-button-navigationbar-portrait-tab-background-selected-horizontal-left">
			<rect
   x="160"
   y="735"
   width="60"
   height="60"
   id="rect139" />
			<linearGradient
   id="SVGID_7_"
   gradientUnits="userSpaceOnUse"
   x1="190"
   y1="795"
   x2="190"
   y2="735">
				<stop
   offset="0"
   style="stop-color:#29ABE2"
   id="stop142" />
				<stop
   offset="1"
   style="stop-color:#7DD8FF"
   id="stop144" />
			</linearGradient>
			<path
   style="fill:url(#linearGradient3576)"
   d="m 160,735 v 52 c 0,4.4 3.6,8 8,8 h 52 v -60 h -60 z"
   id="path146" />
			<rect
   x="219"
   y="741"
   style="fill-opacity:0.2"
   width="1"
   height="48"
   id="rect148" />
			<rect
   x="160"
   y="735"
   style="fill-opacity:0.2"
   width="60"
   height="6"
   id="rect150" />
		</g><g
   id="meegotouch-button-navigationbar-portrait-tab-background-pressed-horizontal-left">
			<rect
   x="90"
   y="735"
   width="60"
   height="60"
   id="rect153" />
			<linearGradient
   id="SVGID_8_"
   gradientUnits="userSpaceOnUse"
   x1="120.0005"
   y1="795"
   x2="120.0005"
   y2="735">
				<stop
   offset="0"
   style="stop-color:#808080"
   id="stop156" />
				<stop
   offset="1"
   style="stop-color:#1A1A1A"
   id="stop158" />
			</linearGradient>
			<path
   style="fill:url(#linearGradient3578)"
   d="m 90,735 v 52 c 0,4.4 3.6,8 8,8 h 52 V 735 H 90 z"
   id="path160" />
			<rect
   x="149"
   y="741"
   style="fill-opacity:0.2"
   width="1"
   height="48"
   id="rect162" />
			<rect
   x="90"
   y="735"
   style="opacity:0.1"
   width="60"
   height="6"
   id="rect164" />
		</g><g
   id="meegotouch-button-navigationbar-portrait-tab-background-horizontal-left">
			<rect
   x="20"
   y="735"
   width="60"
   height="60"
   id="rect167" />
			<linearGradient
   id="SVGID_9_"
   gradientUnits="userSpaceOnUse"
   x1="50"
   y1="795"
   x2="50"
   y2="735">
				<stop
   offset="0"
   style="stop-color:#1A1A1A"
   id="stop170" />
				<stop
   offset="1"
   style="stop-color:#808080"
   id="stop172" />
			</linearGradient>
			<path
   style="fill:url(#linearGradient3580)"
   d="m 20,735 v 52 c 0,4.4 3.6,8 8,8 H 80 V 735 H 20 z"
   id="path174" />
			<rect
   x="79"
   y="741"
   style="fill-opacity:0.2"
   width="1"
   height="48"
   id="rect176" />
			<rect
   x="20"
   y="735"
   style="opacity:0.1"
   width="60"
   height="6"
   id="rect178" />
		</g><g
   id="meegotouch-button-navigationbar-portrait-toolbarbutton-background-pressed-horizontal-right">
			<rect
   x="90"
   y="665"
   width="60"
   height="60"
   id="rect181" />
			<linearGradient
   id="SVGID_10_"
   gradientUnits="userSpaceOnUse"
   x1="120.0005"
   y1="725"
   x2="120.0005"
   y2="665">
				<stop
   offset="0"
   style="stop-color:#29ABE2"
   id="stop184" />
				<stop
   offset="1"
   style="stop-color:#7DD8FF"
   id="stop186" />
			</linearGradient>
			<path
   style="fill:url(#linearGradient3582)"
   d="m 150,665 v 52 c 0,4.4 -3.6,8 -8,8 H 90 v -60 h 60 z"
   id="path188" />
		</g><g
   id="meegotouch-button-navigationbar-portrait-toolbarbutton-background-horizontal-right">
			<rect
   x="20"
   y="665"
   width="60"
   height="60"
   id="rect191" />
			
				<linearGradient
   id="SVGID_11_"
   gradientUnits="userSpaceOnUse"
   x1="2860"
   y1="725.00098"
   x2="2860"
   y2="665.00098"
   gradientTransform="matrix(-1,0,0,1,2910,0)">
				<stop
   offset="0"
   style="stop-color:#1A1A1A"
   id="stop194" />
				<stop
   offset="1"
   style="stop-color:#808080"
   id="stop196" />
			</linearGradient>
			<path
   style="fill:url(#linearGradient3584)"
   d="m 80,665 v 52 c 0,4.4 -3.6,8 -8,8 H 20 v -60 h 60 z"
   id="path198" />
		</g><g
   id="meegotouch-button-navigationbar-portrait-toolbarbutton-background-pressed-horizontal-center">
			<g
   id="g201">
				<linearGradient
   id="SVGID_12_"
   gradientUnits="userSpaceOnUse"
   x1="120.0005"
   y1="654"
   x2="120.0005"
   y2="594">
					<stop
   offset="0"
   style="stop-color:#29ABE2"
   id="stop204" />
					<stop
   offset="1"
   style="stop-color:#7DD8FF"
   id="stop206" />
				</linearGradient>
				<rect
   x="90"
   y="594"
   style="fill:url(#linearGradient3586)"
   width="60"
   height="60"
   id="rect208" />
			</g>
		</g><g
   id="meegotouch-button-navigationbar-portrait-toolbarbutton-background-horizontal-center">
			<g
   id="g211">
				<linearGradient
   id="SVGID_13_"
   gradientUnits="userSpaceOnUse"
   x1="50"
   y1="654"
   x2="50"
   y2="594">
					<stop
   offset="0"
   style="stop-color:#1A1A1A"
   id="stop214" />
					<stop
   offset="1"
   style="stop-color:#808080"
   id="stop216" />
				</linearGradient>
				<rect
   x="20"
   y="594"
   style="fill:url(#linearGradient3588)"
   width="60"
   height="60"
   id="rect218" />
			</g>
		</g><g
   id="meegotouch-button-navigationbar-portrait-toolbarbutton-background-pressed-horizontal-left">
			<rect
   x="90"
   y="524"
   width="60"
   height="60"
   id="rect221" />
			<linearGradient
   id="SVGID_14_"
   gradientUnits="userSpaceOnUse"
   x1="120.0005"
   y1="584"
   x2="120.0005"
   y2="524.00049">
				<stop
   offset="0"
   style="stop-color:#29ABE2"
   id="stop224" />
				<stop
   offset="1"
   style="stop-color:#7DD8FF"
   id="stop226" />
			</linearGradient>
			<path
   style="fill:url(#linearGradient3590)"
   d="m 90,524 v 52 c 0,4.4 3.6,8 8,8 h 52 V 524 H 90 z"
   id="path228" />
		</g><g
   id="meegotouch-button-navigationbar-portrait-toolbarbutton-background-horizontal-left">
			<rect
   x="20"
   y="524"
   width="60"
   height="60"
   id="rect231" />
			<linearGradient
   id="SVGID_15_"
   gradientUnits="userSpaceOnUse"
   x1="50"
   y1="584"
   x2="50"
   y2="524.00049">
				<stop
   offset="0"
   style="stop-color:#1A1A1A"
   id="stop234" />
				<stop
   offset="1"
   style="stop-color:#808080"
   id="stop236" />
			</linearGradient>
			<path
   style="fill:url(#linearGradient3592)"
   d="m 20,524 v 52 c 0,4.4 3.6,8 8,8 H 80 V 524 H 20 z"
   id="path238" />
		</g><g
   id="meegotouch-button-navigationbar-tab-background-selected">
			<g
   style="opacity:0.05"
   id="g241">
				<rect
   x="160"
   y="455"
   width="60"
   height="59"
   id="rect243" />
			</g>
			<g
   id="g245">
				<linearGradient
   id="SVGID_16_"
   gradientUnits="userSpaceOnUse"
   x1="190"
   y1="513"
   x2="190"
   y2="454">
					<stop
   offset="0"
   style="stop-color:#29ABE2"
   id="stop248" />
					<stop
   offset="1"
   style="stop-color:#7DD8FF"
   id="stop250" />
				</linearGradient>
				<rect
   x="160"
   y="454"
   style="fill:url(#linearGradient3594)"
   width="60"
   height="59"
   id="rect252" />
			</g>
			<g
   style="opacity:0.1"
   id="g254">
				<rect
   x="160"
   y="507"
   width="60"
   height="6"
   id="rect256" />
			</g>
			<rect
   x="219"
   y="460"
   style="fill-opacity:0.2"
   width="1"
   height="47"
   id="rect258" />
			<rect
   x="160"
   y="460"
   style="fill:#ffffff;fill-opacity:0.2"
   width="1"
   height="47"
   id="rect260" />
		</g><g
   id="meegotouch-button-navigationbar-tab-background-pressed">
			<g
   style="opacity:0.05"
   id="g263">
				<rect
   x="90"
   y="455"
   width="60"
   height="59"
   id="rect265" />
			</g>
			<g
   id="g267">
				<linearGradient
   id="SVGID_17_"
   gradientUnits="userSpaceOnUse"
   x1="120.0005"
   y1="513"
   x2="120.0005"
   y2="454">
					<stop
   offset="0"
   style="stop-color:#808080"
   id="stop270" />
					<stop
   offset="1"
   style="stop-color:#1A1A1A"
   id="stop272" />
				</linearGradient>
				<rect
   x="90"
   y="454"
   style="fill:url(#linearGradient3596)"
   width="60"
   height="59"
   id="rect274" />
			</g>
			<rect
   x="149"
   y="460"
   style="fill-opacity:0.2"
   width="1"
   height="47"
   id="rect276" />
			<rect
   x="90"
   y="460"
   style="fill:#ffffff;fill-opacity:0.2"
   width="1"
   height="47"
   id="rect278" />
			<rect
   x="90"
   y="507"
   style="opacity:0.1"
   width="60"
   height="6"
   id="rect280" />
		</g><g
   id="meegotouch-button-navigationbar-tab-background">
			<g
   style="opacity:0.05"
   id="g283">
				<rect
   x="20"
   y="455"
   width="60"
   height="59"
   id="rect285" />
			</g>
			<g
   id="g287">
				<linearGradient
   id="SVGID_18_"
   gradientUnits="userSpaceOnUse"
   x1="50"
   y1="513"
   x2="50"
   y2="454">
					<stop
   offset="0"
   style="stop-color:#1A1A1A"
   id="stop290" />
					<stop
   offset="1"
   style="stop-color:#808080"
   id="stop292" />
				</linearGradient>
				<rect
   x="20"
   y="454"
   style="fill:url(#linearGradient3598)"
   width="60"
   height="59"
   id="rect294" />
			</g>
			<rect
   x="79"
   y="460"
   style="fill-opacity:0.2"
   width="1"
   height="47"
   id="rect296" />
			<rect
   x="20"
   y="460"
   style="fill:#ffffff;fill-opacity:0.2"
   width="1"
   height="47"
   id="rect298" />
			<rect
   x="20"
   y="507"
   style="opacity:0.1"
   width="60"
   height="6"
   id="rect300" />
		</g><g
   id="meegotouch-button-navigationbar-toolbarbutton-background-pressed">
			<g
   style="opacity:0.05"
   id="g303">
				<rect
   x="90"
   y="381"
   width="60"
   height="59"
   id="rect305" />
			</g>
			<g
   id="g307">
				<linearGradient
   id="SVGID_19_"
   gradientUnits="userSpaceOnUse"
   x1="120.0005"
   y1="439"
   x2="120.0005"
   y2="380">
					<stop
   offset="0"
   style="stop-color:#808080"
   id="stop310" />
					<stop
   offset="1"
   style="stop-color:#1A1A1A"
   id="stop312" />
				</linearGradient>
				<rect
   x="90"
   y="380"
   style="fill:url(#linearGradient3600)"
   width="60"
   height="59"
   id="rect314" />
			</g>
			<rect
   x="149"
   y="386"
   style="fill-opacity:0.2"
   width="1"
   height="47"
   id="rect316" />
			<rect
   x="90"
   y="386"
   style="fill:#ffffff;fill-opacity:0.2"
   width="1"
   height="47"
   id="rect318" />
		</g><g
   id="meegotouch-button-navigationbar-toolbarbutton-background">
			<g
   style="opacity:0.05"
   id="g321">
				<rect
   x="20"
   y="381"
   width="60"
   height="59"
   id="rect323" />
			</g>
			<g
   id="g325">
				<linearGradient
   id="SVGID_20_"
   gradientUnits="userSpaceOnUse"
   x1="50"
   y1="439"
   x2="50"
   y2="380">
					<stop
   offset="0"
   style="stop-color:#1A1A1A"
   id="stop328" />
					<stop
   offset="1"
   style="stop-color:#808080"
   id="stop330" />
				</linearGradient>
				<rect
   x="20"
   y="380"
   style="fill:url(#linearGradient3602)"
   width="60"
   height="59"
   id="rect332" />
			</g>
			<rect
   x="79"
   y="386"
   style="fill-opacity:0.2"
   width="1"
   height="47"
   id="rect334" />
			<rect
   x="20"
   y="386"
   style="fill:#ffffff;fill-opacity:0.2"
   width="1"
   height="47"
   id="rect336" />
		</g><g
   id="meegotouch-navigationbar-toolbar-portrait-background">
			<g
   id="g339">
				<rect
   x="90"
   y="310"
   width="60"
   height="60"
   id="rect341" />
			</g>
			<linearGradient
   id="SVGID_21_"
   gradientUnits="userSpaceOnUse"
   x1="120.0005"
   y1="370"
   x2="120.0005"
   y2="310">
				<stop
   offset="0"
   style="stop-color:#1A1A1A"
   id="stop344" />
				<stop
   offset="1"
   style="stop-color:#808080"
   id="stop346" />
			</linearGradient>
			<path
   style="fill:url(#linearGradient3604)"
   d="m 150,362 c 0,4.4 -3.6,8 -8,8 H 98 c -4.4,0 -8,-3.6 -8,-8 v -52 h 60 v 52 z"
   id="path348" />
		</g><g
   id="meegotouch-navigationbar-toolbar-background">
			<g
   style="opacity:0.05"
   id="g351">
				<rect
   x="20"
   y="311"
   width="60"
   height="59"
   id="rect353" />
			</g>
			<g
   id="g355">
				<linearGradient
   id="SVGID_22_"
   gradientUnits="userSpaceOnUse"
   x1="50"
   y1="369"
   x2="50"
   y2="310">
					<stop
   offset="0"
   style="stop-color:#1A1A1A"
   id="stop358" />
					<stop
   offset="1"
   style="stop-color:#808080"
   id="stop360" />
				</linearGradient>
				<rect
   x="20"
   y="310"
   style="fill:url(#linearGradient3606)"
   width="60"
   height="59"
   id="rect362" />
			</g>
			<rect
   x="79"
   y="316"
   style="fill-opacity:0.2"
   width="1"
   height="47"
   id="rect364" />
			<rect
   x="20"
   y="316"
   style="fill:#ffffff;fill-opacity:0.2"
   width="1"
   height="47"
   id="rect366" />
		</g><g
   id="meegotouch-button-navigationbar-close-background-pressed">
			<path
   style="opacity:0.05"
   d="m 216,241 v 51 c 0,4.4 -3.6,8 -8,8 h -80 v -59 h 88 z"
   id="path369" />
			<linearGradient
   id="SVGID_23_"
   gradientUnits="userSpaceOnUse"
   x1="172"
   y1="299"
   x2="172"
   y2="240">
				<stop
   offset="0"
   style="stop-color:#808080"
   id="stop372" />
				<stop
   offset="1"
   style="stop-color:#1A1A1A"
   id="stop374" />
			</linearGradient>
			<path
   style="fill:url(#linearGradient3608)"
   d="m 216,240 v 51 c 0,4.4 -3.6,8 -8,8 h -80 v -59 h 88 z"
   id="path376" />
			<rect
   x="128"
   y="246"
   style="fill:#ffffff;fill-opacity:0.2"
   width="1"
   height="47"
   id="rect378" />
		</g><g
   id="meegotouch-button-navigationbar-close-background">
			<path
   style="opacity:0.05"
   d="m 108,241 v 51 c 0,4.4 -3.6,8 -8,8 H 20 v -59 h 88 z"
   id="path381" />
			
				<linearGradient
   id="SVGID_24_"
   gradientUnits="userSpaceOnUse"
   x1="2846"
   y1="299"
   x2="2846"
   y2="240"
   gradientTransform="matrix(-1,0,0,1,2910,0)">
				<stop
   offset="0"
   style="stop-color:#1A1A1A"
   id="stop384" />
				<stop
   offset="1"
   style="stop-color:#808080"
   id="stop386" />
			</linearGradient>
			<path
   style="fill:url(#linearGradient3610)"
   d="m 108,240 v 51 c 0,4.4 -3.6,8 -8,8 H 20 v -59 h 88 z"
   id="path388" />
			<rect
   x="20"
   y="246"
   style="fill:#ffffff;fill-opacity:0.2"
   width="1"
   height="47"
   id="rect390" />
		</g><g
   id="meegotouch-button-navigationbar-viewmenu-background-pressed">
			<g
   style="opacity:0.05"
   id="g393">
				<rect
   x="128"
   y="171"
   width="88"
   height="59"
   id="rect395" />
			</g>
			<g
   id="g397">
				<linearGradient
   id="SVGID_25_"
   gradientUnits="userSpaceOnUse"
   x1="172"
   y1="229"
   x2="172"
   y2="170">
					<stop
   offset="0"
   style="stop-color:#808080"
   id="stop400" />
					<stop
   offset="1"
   style="stop-color:#1A1A1A"
   id="stop402" />
				</linearGradient>
				<rect
   x="128"
   y="170"
   style="fill:url(#linearGradient3612)"
   width="88"
   height="59"
   id="rect404" />
			</g>
			<rect
   x="215"
   y="176"
   style="fill-opacity:0.2"
   width="1"
   height="47"
   id="rect406" />
			<rect
   x="128"
   y="176"
   style="fill:#ffffff;fill-opacity:0.2"
   width="1"
   height="47"
   id="rect408" />
		</g><g
   id="meegotouch-button-navigationbar-viewmenu-background">
			<g
   style="opacity:0.05"
   id="g411">
				<rect
   x="20"
   y="171"
   width="88"
   height="59"
   id="rect413" />
			</g>
			<g
   id="g415">
				<linearGradient
   id="SVGID_26_"
   gradientUnits="userSpaceOnUse"
   x1="64"
   y1="229"
   x2="64"
   y2="170">
					<stop
   offset="0"
   style="stop-color:#1A1A1A"
   id="stop418" />
					<stop
   offset="1"
   style="stop-color:#808080"
   id="stop420" />
				</linearGradient>
				<rect
   x="20"
   y="170"
   style="fill:url(#linearGradient3614)"
   width="88"
   height="59"
   id="rect422" />
			</g>
			<rect
   x="107"
   y="176"
   style="fill-opacity:0.2"
   width="1"
   height="47"
   id="rect424" />
			<rect
   x="20"
   y="176"
   style="fill:#ffffff;fill-opacity:0.2"
   width="1"
   height="47"
   id="rect426" />
		</g><g
   id="meegotouch-button-navigationbar-home-background-pressed">
			<path
   style="opacity:0.05"
   d="m 128,101 v 51 c 0,4.4 3.6,8 8,8 h 80 v -59 h -88 z"
   id="path429" />
			<linearGradient
   id="SVGID_27_"
   gradientUnits="userSpaceOnUse"
   x1="172"
   y1="159"
   x2="172"
   y2="100">
				<stop
   offset="0"
   style="stop-color:#808080"
   id="stop432" />
				<stop
   offset="1"
   style="stop-color:#1A1A1A"
   id="stop434" />
			</linearGradient>
			<path
   style="fill:url(#linearGradient3616)"
   d="m 128,100 v 51 c 0,4.4 3.6,8 8,8 h 80 v -59 h -88 z"
   id="path436" />
			<rect
   x="215"
   y="106"
   style="fill-opacity:0.2"
   width="1"
   height="47"
   id="rect438" />
		</g><g
   id="meegotouch-button-navigationbar-home-background">
			<path
   style="opacity:0.05"
   d="m 20,101 v 51 c 0,4.4 3.6,8 8,8 h 80 V 101 H 20 z"
   id="path441" />
			<linearGradient
   id="SVGID_28_"
   gradientUnits="userSpaceOnUse"
   x1="64"
   y1="159"
   x2="64"
   y2="100">
				<stop
   offset="0"
   style="stop-color:#1A1A1A"
   id="stop444" />
				<stop
   offset="1"
   style="stop-color:#808080"
   id="stop446" />
			</linearGradient>
			<path
   style="fill:url(#linearGradient3618)"
   d="m 20,100 v 51 c 0,4.4 3.6,8 8,8 h 80 V 100 H 20 z"
   id="path448" />
			<rect
   x="107"
   y="106"
   style="fill-opacity:0.2"
   width="1"
   height="47"
   id="rect450" />
		</g><g
   id="meegotouch-navigationbar-statusarea-background">
			<g
   id="g453">
				<rect
   x="20"
   y="48"
   style="fill:#1a1a1a"
   width="88"
   height="30"
   id="rect455" />
			</g>
		</g><g
   id="meegotouch-application-window-bottom">
			<path
   d="m 208,55 h -16 c -4.061,0 -7.434,-3.068 -7.93,-7 H 184 v 8 h 32 v -8 h -0.07 c -0.496,3.932 -3.869,7 -7.93,7 z"
   id="path458" />
		</g><g
   id="meegotouch-navigationbar-shadow">
			<linearGradient
   id="SVGID_29_"
   gradientUnits="userSpaceOnUse"
   x1="134.0005"
   y1="60"
   x2="134.0005"
   y2="48">
				<stop
   offset="0"
   style="stop-color:#000000;stop-opacity:0"
   id="stop462" />
				<stop
   offset="0.9104"
   style="stop-color:#000000;stop-opacity:0.9104"
   id="stop464" />
				<stop
   offset="1"
   style="stop-color:#000000"
   id="stop466" />
			</linearGradient>
			<rect
   x="118"
   y="48"
   style="opacity:0.25;fill:url(#linearGradient3620)"
   width="32"
   height="12"
   id="rect468" />
		</g><g
   id="meegotouch-navigationbar-large-shadow">
			<linearGradient
   id="SVGID_30_"
   gradientUnits="userSpaceOnUse"
   x1="249.08299"
   y1="120"
   x2="249.08299"
   y2="108">
				<stop
   offset="0"
   style="stop-color:#000000;stop-opacity:0"
   id="stop472" />
				<stop
   offset="0.9104"
   style="stop-color:#000000;stop-opacity:0.9104"
   id="stop474" />
				<stop
   offset="1"
   style="stop-color:#000000"
   id="stop476" />
			</linearGradient>
			<rect
   x="233.08299"
   y="108"
   style="opacity:0.25;fill:url(#linearGradient3622)"
   width="32"
   height="12"
   id="rect478" />
			<rect
   x="233.08299"
   y="48"
   style="fill:none"
   width="32"
   height="60"
   id="rect480" />
		</g>
<g
   id="meegotouch-navigationbar-portrait-shadow"
   transform="matrix(1,0,0,-1,0,128)"
   inkscape:label="meegotouch-navigationbar-portrait-shadow">
			<linearGradient
   y2="48"
   x2="134.0005"
   y1="60"
   x1="134.0005"
   gradientUnits="userSpaceOnUse"
   id="linearGradient3895">
				<stop
   id="stop3897"
   style="stop-color:#000000;stop-opacity:0"
   offset="0" />
				<stop
   id="stop3899"
   style="stop-color:#000000;stop-opacity:0.9104"
   offset="0.9104" />
				<stop
   id="stop3901"
   style="stop-color:#000000"
   offset="1" />
			</linearGradient>
			<rect
   id="rect3903"
   height="12"
   width="32"
   style="opacity:0.25;fill:url(#linearGradient3905)"
   y="48"
   x="118" />
		</g></svg>