<?xml version="1.0" encoding="UTF-8" standalone="no"?>
<!-- Generator: Adobe Illustrator 14.0.0, SVG Export Plug-In . SVG Version: 6.00 Build 43363)  -->

<svg
   xmlns:dc="http://purl.org/dc/elements/1.1/"
   xmlns:cc="http://creativecommons.org/ns#"
   xmlns:rdf="http://www.w3.org/1999/02/22-rdf-syntax-ns#"
   xmlns:svg="http://www.w3.org/2000/svg"
   xmlns="http://www.w3.org/2000/svg"
   xmlns:xlink="http://www.w3.org/1999/xlink"
   xmlns:sodipodi="http://sodipodi.sourceforge.net/DTD/sodipodi-0.dtd"
   xmlns:inkscape="http://www.inkscape.org/namespaces/inkscape"
   version="1.1"
   x="0px"
   y="0px"
   width="320px"
   height="220px"
   viewBox="0 0 320 220"
   style="enable-background:new 0 0 320 220;"
   xml:space="preserve"
   id="svg2"
   inkscape:version="0.47pre4 r22446"
   sodipodi:docname="meegotouch-progress-spinner-experimental.svg"><metadata
   id="metadata109"><rdf:RDF><cc:Work
       rdf:about=""><dc:format>image/svg+xml</dc:format><dc:type
         rdf:resource="http://purl.org/dc/dcmitype/StillImage" /></cc:Work></rdf:RDF></metadata><defs
   id="defs107"><inkscape:perspective
   sodipodi:type="inkscape:persp3d"
   inkscape:vp_x="0 : 110 : 1"
   inkscape:vp_y="0 : 1000 : 0"
   inkscape:vp_z="320 : 110 : 1"
   inkscape:persp3d-origin="160 : 73.333333 : 1"
   id="perspective111" />
	
<radialGradient
   inkscape:collect="always"
   xlink:href="#SVGID_1_"
   id="radialGradient2975"
   gradientUnits="userSpaceOnUse"
   cx="274"
   cy="70"
   r="10" /><radialGradient
   inkscape:collect="always"
   xlink:href="#SVGID_2_"
   id="radialGradient2977"
   gradientUnits="userSpaceOnUse"
   cx="198"
   cy="78"
   r="18" /><radialGradient
   inkscape:collect="always"
   xlink:href="#SVGID_3_"
   id="radialGradient2979"
   gradientUnits="userSpaceOnUse"
   cx="57"
   cy="97"
   r="37" />
		
		
		
		
		
		
		
		
		
		
		
		
		
	<radialGradient
   inkscape:collect="always"
   xlink:href="#SVGID_3_"
   id="radialGradient3062"
   gradientUnits="userSpaceOnUse"
   cx="57"
   cy="97"
   r="37" /><inkscape:perspective
   id="perspective3145"
   inkscape:persp3d-origin="0.5 : 0.33333333 : 1"
   inkscape:vp_z="1 : 0.5 : 1"
   inkscape:vp_y="0 : 1000 : 0"
   inkscape:vp_x="0 : 0.5 : 1"
   sodipodi:type="inkscape:persp3d" /><radialGradient
   inkscape:collect="always"
   xlink:href="#SVGID_3_-7"
   id="radialGradient3062-7"
   gradientUnits="userSpaceOnUse"
   cx="136"
   cy="92"
   r="37"
   fx="136"
   fy="92" /><radialGradient
   id="SVGID_3_-7"
   cx="57"
   cy="97"
   r="37"
   gradientUnits="userSpaceOnUse"><stop
     offset="0"
     style="stop-color:#29ABE2"
     id="stop99-3" /><stop
     offset="1"
     style="stop-color:#7DD8FF"
     id="stop101-7" /></radialGradient><radialGradient
   gradientTransform="translate(-20,-60)"
   r="37"
   cy="97"
   cx="57"
   gradientUnits="userSpaceOnUse"
   id="radialGradient3154"
   xlink:href="#SVGID_3_-7"
   inkscape:collect="always" />
			
			
		
			
			
		
				
				
			
					
				
			
		<inkscape:perspective
   id="perspective2947"
   inkscape:persp3d-origin="0.5 : 0.33333333 : 1"
   inkscape:vp_z="1 : 0.5 : 1"
   inkscape:vp_y="0 : 1000 : 0"
   inkscape:vp_x="0 : 0.5 : 1"
   sodipodi:type="inkscape:persp3d" />
				
				
				
				
				
				
				
				
				
				
				
				
				
				
				
			
			
		
<radialGradient
   inkscape:collect="always"
   xlink:href="#SVGID_3_-7"
   id="radialGradient3644"
   gradientUnits="userSpaceOnUse"
   cx="136"
   cy="92"
   fx="136"
   fy="92"
   r="37" /></defs><sodipodi:namedview
   pagecolor="#ffffff"
   bordercolor="#666666"
   borderopacity="1"
   objecttolerance="10"
   gridtolerance="10"
   guidetolerance="10"
   inkscape:pageopacity="0"
   inkscape:pageshadow="2"
   inkscape:window-width="1329"
   inkscape:window-height="974"
   id="namedview105"
   showgrid="false"
   inkscape:zoom="2.1112127"
   inkscape:cx="80.443511"
   inkscape:cy="109.71765"
   inkscape:window-x="345"
   inkscape:window-y="25"
   inkscape:window-maximized="0"
   inkscape:current-layer="svg2"
   inkscape:snap-page="true" />


<g
   id="g7149"
   transform="matrix(1.0077207,0,0,1,-8.6821201e-4,0.88709654)"><path
     id="path10"
     d="m 15.068921,219.55514 c -8.2467475,0 -14.95601808,-6.75983 -14.95601808,-15.06872 l 0,-188.861251 c 0,-8.3088906 6.70927058,-15.0687174 14.95601808,-15.0687174 l 287.155529,0 c 8.24676,0 14.95602,6.7598268 14.95602,15.0687174 l 0,188.861251 c 0,8.30889 -6.70926,15.06872 -14.95602,15.06872 l -287.155529,0 z"
     style="fill:#b3b3b3" /><path
     id="path18"
     d="m 11.235098,17.208839 c 1.008,-0.168 2.328,-0.312 4.008,-0.312 2.064,0 3.576,0.48 4.537,1.344 0.863,0.769 1.416,1.944 1.416,3.385 0,1.464 -0.434,2.616 -1.248,3.456 -1.129,1.177 -2.904,1.776 -4.945,1.776 -0.623,0 -1.199,-0.023 -1.68,-0.145 v 6.48 h -2.088 v -15.984 z m 2.088,7.8 c 0.455,0.119 1.031,0.168 1.729,0.168 2.52,0 4.057,-1.248 4.057,-3.434 0,-2.16 -1.537,-3.191 -3.816,-3.191 -0.912,0 -1.609,0.072 -1.969,0.168 v 6.289 z" /><path
     id="path20"
     d="m 23.545098,25.200839 c 0,-1.368 -0.023,-2.545 -0.096,-3.625 h 1.848 l 0.098,2.305 h 0.07 c 0.529,-1.561 1.824,-2.544 3.242,-2.544 0.215,0 0.383,0.024 0.574,0.048 v 1.992 c -0.215,-0.048 -0.432,-0.048 -0.719,-0.048 -1.488,0 -2.545,1.104 -2.832,2.688 -0.049,0.287 -0.072,0.647 -0.072,0.984 v 6.191 h -2.113 v -7.991 z" /><path
     id="path22"
     d="m 41.666098,27.288839 c 0,4.297 -3,6.169 -5.783,6.169 -3.121,0 -5.568,-2.304 -5.568,-5.977 0,-3.864 2.568,-6.145 5.76,-6.145 3.335,0 5.591,2.425 5.591,5.953 z m -9.191,0.12 c 0,2.544 1.439,4.464 3.504,4.464 2.016,0 3.527,-1.896 3.527,-4.512 0,-1.969 -0.982,-4.44 -3.479,-4.44 -2.472,-0.001 -3.552,2.303 -3.552,4.488 z" /><path
     id="path24"
     d="m 54.268098,31.489839 c 0,2.688 -0.553,4.296 -1.656,5.328 -1.152,1.031 -2.785,1.393 -4.25,1.393 -1.391,0 -2.928,-0.337 -3.863,-0.961 l 0.527,-1.632 c 0.768,0.504 1.969,0.937 3.408,0.937 2.16,0 3.744,-1.129 3.744,-4.081 v -1.272 h -0.047 c -0.625,1.08 -1.896,1.945 -3.697,1.945 -2.879,0 -4.943,-2.449 -4.943,-5.665 0,-3.937 2.568,-6.145 5.256,-6.145 2.016,0 3.096,1.032 3.625,1.992 h 0.047 l 0.072,-1.753 h 1.873 c -0.072,0.816 -0.096,1.777 -0.096,3.169 v 6.745 z m -2.113,-5.329 c 0,-0.36 -0.023,-0.672 -0.119,-0.937 -0.385,-1.248 -1.393,-2.256 -2.953,-2.256 -2.016,0 -3.457,1.705 -3.457,4.393 0,2.28 1.178,4.176 3.434,4.176 1.32,0 2.496,-0.815 2.928,-2.16 0.121,-0.359 0.168,-0.768 0.168,-1.127 v -2.089 z" /><path
     id="path26"
     d="m 57.602098,25.200839 c 0,-1.368 -0.023,-2.545 -0.096,-3.625 h 1.848 l 0.096,2.305 h 0.072 c 0.527,-1.561 1.824,-2.544 3.24,-2.544 0.217,0 0.385,0.024 0.576,0.048 v 1.992 c -0.217,-0.048 -0.432,-0.048 -0.721,-0.048 -1.488,0 -2.543,1.104 -2.832,2.688 -0.047,0.287 -0.072,0.647 -0.072,0.984 v 6.191 h -2.111 v -7.991 z" /><path
     id="path28"
     d="m 66.387098,27.768839 c 0.047,2.855 1.848,4.032 3.984,4.032 1.512,0 2.447,-0.265 3.215,-0.601 l 0.385,1.513 c -0.744,0.336 -2.041,0.744 -3.889,0.744 -3.576,0 -5.713,-2.376 -5.713,-5.881 0,-3.504 2.064,-6.24 5.449,-6.24 3.816,0 4.801,3.312 4.801,5.448 0,0.432 -0.025,0.744 -0.072,0.984 h -8.16 z m 6.191,-1.512 c 0.023,-1.32 -0.553,-3.408 -2.928,-3.408 -2.16,0 -3.072,1.943 -3.24,3.408 h 6.168 z" /><path
     id="path30"
     d="m 76.946098,31.056839 c 0.648,0.384 1.752,0.815 2.809,0.815 1.512,0 2.232,-0.743 2.232,-1.728 0,-1.008 -0.6,-1.536 -2.137,-2.112 -2.111,-0.768 -3.096,-1.896 -3.096,-3.288 0,-1.872 1.537,-3.408 4.008,-3.408 1.178,0 2.209,0.312 2.832,0.72 l -0.504,1.536 c -0.455,-0.288 -1.295,-0.696 -2.375,-0.696 -1.248,0 -1.92,0.721 -1.92,1.584 0,0.961 0.672,1.393 2.184,1.992 1.992,0.744 3.049,1.753 3.049,3.48 0,2.064 -1.609,3.505 -4.32,3.505 -1.273,0 -2.449,-0.336 -3.266,-0.816 l 0.504,-1.584 z" /><path
     id="path32"
     d="m 86.449098,31.056839 c 0.648,0.384 1.752,0.815 2.809,0.815 1.512,0 2.232,-0.743 2.232,-1.728 0,-1.008 -0.6,-1.536 -2.137,-2.112 -2.111,-0.768 -3.096,-1.896 -3.096,-3.288 0,-1.872 1.537,-3.408 4.008,-3.408 1.178,0 2.209,0.312 2.832,0.72 l -0.504,1.536 c -0.455,-0.288 -1.295,-0.696 -2.375,-0.696 -1.248,0 -1.92,0.721 -1.92,1.584 0,0.961 0.672,1.393 2.184,1.992 1.992,0.744 3.049,1.753 3.049,3.48 0,2.064 -1.609,3.505 -4.32,3.505 -1.273,0 -2.449,-0.336 -3.266,-0.816 l 0.504,-1.584 z" /><path
     id="path34"
     d="m 101.0411,31.056839 c 0.648,0.384 1.752,0.815 2.809,0.815 1.512,0 2.232,-0.743 2.232,-1.728 0,-1.008 -0.602,-1.536 -2.137,-2.112 -2.113,-0.768 -3.096,-1.896 -3.096,-3.288 0,-1.872 1.535,-3.408 4.008,-3.408 1.176,0 2.207,0.312 2.832,0.72 l -0.504,1.536 c -0.457,-0.288 -1.297,-0.696 -2.377,-0.696 -1.248,0 -1.92,0.721 -1.92,1.584 0,0.961 0.672,1.393 2.184,1.992 1.992,0.744 3.049,1.753 3.049,3.48 0,2.064 -1.607,3.505 -4.32,3.505 -1.271,0 -2.447,-0.336 -3.264,-0.816 l 0.504,-1.584 z" /><path
     id="path36"
     d="m 110.8321,25.368839 c 0,-1.488 -0.047,-2.688 -0.096,-3.793 h 1.873 l 0.119,1.992 h 0.049 c 0.84,-1.416 2.232,-2.231 4.127,-2.231 2.834,0 4.945,2.376 4.945,5.88 0,4.177 -2.568,6.241 -5.305,6.241 -1.535,0 -2.881,-0.673 -3.576,-1.824 h -0.047 v 6.312 h -2.09 v -12.577 z m 2.09,3.095 c 0,0.312 0.023,0.601 0.096,0.865 0.383,1.463 1.656,2.472 3.168,2.472 2.232,0 3.527,-1.824 3.527,-4.488 0,-2.304 -1.223,-4.296 -3.455,-4.296 -1.441,0 -2.809,1.008 -3.193,2.592 -0.072,0.264 -0.143,0.576 -0.143,0.84 v 2.015 z" /><path
     id="path38"
     d="m 126.8421,18.311839 c 0,0.721 -0.504,1.297 -1.346,1.297 -0.768,0 -1.271,-0.576 -1.271,-1.297 0,-0.721 0.529,-1.32 1.32,-1.32 0.768,0 1.297,0.576 1.297,1.32 z m -2.353,14.881 v -11.617 h 2.113 v 11.617 h -2.113 z" /><path
     id="path40"
     d="m 130.1041,24.719839 c 0,-1.224 -0.023,-2.184 -0.096,-3.145 h 1.873 l 0.119,1.921 h 0.049 c 0.576,-1.08 1.92,-2.16 3.84,-2.16 1.607,0 4.104,0.96 4.104,4.944 v 6.912 h -2.111 v -6.696 c 0,-1.872 -0.695,-3.433 -2.688,-3.433 -1.369,0 -2.449,0.984 -2.832,2.16 -0.098,0.265 -0.145,0.625 -0.145,0.984 v 6.984 h -2.113 v -8.471 z" /><path
     id="path42"
     d="m 143.4241,24.719839 c 0,-1.224 -0.023,-2.184 -0.096,-3.145 h 1.873 l 0.119,1.921 h 0.049 c 0.576,-1.08 1.92,-2.16 3.84,-2.16 1.607,0 4.104,0.96 4.104,4.944 v 6.912 h -2.111 v -6.696 c 0,-1.872 -0.695,-3.433 -2.688,-3.433 -1.369,0 -2.449,0.984 -2.832,2.16 -0.098,0.265 -0.145,0.625 -0.145,0.984 v 6.984 h -2.113 v -8.471 z" /><path
     id="path44"
     d="m 157.9201,27.768839 c 0.049,2.855 1.848,4.032 3.984,4.032 1.512,0 2.447,-0.265 3.217,-0.601 l 0.383,1.513 c -0.744,0.336 -2.039,0.744 -3.887,0.744 -3.578,0 -5.713,-2.376 -5.713,-5.881 0,-3.504 2.064,-6.24 5.447,-6.24 3.816,0 4.801,3.312 4.801,5.448 0,0.432 -0.023,0.744 -0.072,0.984 h -8.16 z m 6.194,-1.512 c 0.023,-1.32 -0.553,-3.408 -2.93,-3.408 -2.16,0 -3.072,1.943 -3.24,3.408 h 6.17 z" /><path
     id="path46"
     d="m 168.7681,25.200839 c 0,-1.368 -0.023,-2.545 -0.096,-3.625 h 1.848 l 0.098,2.305 h 0.07 c 0.529,-1.561 1.824,-2.544 3.242,-2.544 0.215,0 0.383,0.024 0.574,0.048 v 1.992 c -0.215,-0.048 -0.432,-0.048 -0.719,-0.048 -1.488,0 -2.545,1.104 -2.832,2.688 -0.049,0.287 -0.072,0.647 -0.072,0.984 v 6.191 h -2.113 v -7.991 z" /></g><g
   inkscape:label="#g3048"
   id="meegotouch-progressindicator-spinner-background"
   transform="translate(3.4787331e-6,0.88709654)"><rect
     rx="0"
     ry="32.627205"
     y="55"
     x="19"
     height="74"
     width="74"
     id="rect3629"
     style="fill:none;stroke-width:0;stroke-miterlimit:0;stroke-dasharray:none" /><path
     style="fill:#d0d2d3"
     d="m 24,92 c 0,20.742 5.724,32 32,32 26.275,0 32,-11.258 32,-32 C 88,71.258 82.275,60 56,60 29.724,60 24,71.258 24,92 z"
     id="path92" /><path
     style="fill:#ffffff"
     d="m 56,118 c -22.246,0 -26,-8.021 -26,-26.000004 0,-17.979 3.754,-26 26,-26 22.246,0 26,8.021 26,26 C 82,109.979 78.246,118 56,118 l 0,0 z"
     id="path89" /></g><path
   id="path14"
   d="m 303.99999,2 c 7.71999,0 14,6.28 14,13.999999 l 0,188.000001 c 0,7.71999 -6.28001,14 -14,14 L 16.000001,218 C 8.2800001,218 2,211.71999 2,204 L 2,15.999999 C 2,8.28 8.2800001,2 16.000001,2 L 303.99999,2 m 0,-2 L 16.000001,0 C 7.2000001,0 0,7.2 0,15.999999 L 0,204 c 0,8.79999 7.2000001,16 16.000001,16 l 287.999989,0 C 312.79999,220 320,212.79999 320,204 L 320,15.999999 C 320,7.2 312.79999,0 303.99999,0 l 0,0 z" /><g
   inkscape:label="#g3059"
   id="meegotouch-progressindicator-spinner-progress"
   transform="translate(3.4787331e-6,0.88709654)"><rect
     rx="0"
     ry="31.485821"
     y="55"
     x="99"
     height="74"
     width="74"
     id="rect3622"
     style="fill:none;stroke-width:0;stroke-miterlimit:0;stroke-dasharray:none" /><path
     style="color:#000000;fill:url(#radialGradient3644);fill-opacity:1;fill-rule:nonzero;stroke-width:1;stroke-linecap:butt;stroke-linejoin:miter;stroke-miterlimit:4;stroke-opacity:1;stroke-dasharray:none;stroke-dashoffset:0;marker:none;visibility:visible;display:inline;overflow:visible;enable-background:accumulate"
     d="m 104,92 c 0,20.742 5.724,32 32,32 26.275,0 32,-11.258 32,-32 0,-20.742 -5.725,-32 -32,-32 -26.276,0 -32,11.258 -32,32 z"
     id="path95" /><path
     style="fill:#ffffff"
     d="m 136,118 c -22.246,0 -26,-8.021 -26,-26.000002 0,-17.979 3.754,-26 26,-26 22.246,0 26,8.021 26,26 C 162,109.979 158.246,118 136,118 l 0,0 z"
     id="path89-5" /></g></svg>