<?xml version="1.0" encoding="iso-8859-1"?>
<!-- Generator: Adobe Illustrator 15.0.1, SVG Export Plug-In . SVG Version: 6.00 Build 0)  -->
<!DOCTYPE svg PUBLIC "-//W3C//DTD SVG 1.1//EN" "http://www.w3.org/Graphics/SVG/1.1/DTD/svg11.dtd">
<svg version="1.1" id="meegotouch-checkbox-radiobutton-layer"
	 xmlns="http://www.w3.org/2000/svg" xmlns:xlink="http://www.w3.org/1999/xlink" x="0px" y="0px" width="400px" height="290px"
	 viewBox="0 0 400 290" style="enable-background:new 0 0 400 290;" xml:space="preserve">
<g id="meegotouch-checkbox-radiobutton">
	<g id="CheckboxRadiobuttonThemeHelper">
		<g>
			<path style="fill:#EFEFF0;" d="M400.5,278.5c0,6.6-5.4,12-12,12h-376c-6.6,0-12-5.4-12-12v-266c0-6.6,5.4-12,12-12h376
				c6.6,0,12,5.4,12,12V278.5z"/>
			<path style="fill:none;stroke:#919396;" d="M400.5,278.5c0,6.6-5.4,12-12,12h-376c-6.6,0-12-5.4-12-12v-266c0-6.6,5.4-12,12-12
				h376c6.6,0,12,5.4,12,12V278.5z"/>
		</g>
		<g>
			<path d="M77.803,36.092c-0.552,0.265-1.776,0.672-3.336,0.672c-3.504,0-5.785-2.376-5.785-5.929c0-3.576,2.448-6.192,6.241-6.192
				c1.248,0,2.352,0.312,2.928,0.624l-0.48,1.608c-0.504-0.264-1.296-0.552-2.448-0.552c-2.665,0-4.104,1.992-4.104,4.392
				c0,2.688,1.728,4.345,4.032,4.345c1.2,0,1.992-0.288,2.592-0.552L77.803,36.092z"/>
			<path d="M80.274,19.458h2.112v7.273h0.048c0.336-0.601,0.864-1.152,1.512-1.512c0.625-0.36,1.368-0.576,2.161-0.576
				c1.56,0,4.056,0.96,4.056,4.944V36.5h-2.112v-6.672c0-1.873-0.696-3.433-2.688-3.433c-1.368,0-2.424,0.96-2.833,2.088
				c-0.12,0.312-0.144,0.624-0.144,1.008V36.5h-2.112V19.458z"/>
			<path d="M94.77,31.076c0.048,2.856,1.848,4.032,3.984,4.032c1.512,0,2.448-0.264,3.216-0.6l0.384,1.512
				c-0.744,0.336-2.041,0.744-3.889,0.744c-3.576,0-5.712-2.376-5.712-5.881c0-3.504,2.064-6.24,5.449-6.24
				c3.816,0,4.8,3.312,4.8,5.448c0,0.432-0.024,0.744-0.072,0.984H94.77z M100.963,29.563c0.024-1.32-0.552-3.408-2.929-3.408
				c-2.16,0-3.072,1.944-3.24,3.408H100.963z"/>
			<path d="M113.898,36.092c-0.552,0.265-1.776,0.672-3.336,0.672c-3.504,0-5.785-2.376-5.785-5.929c0-3.576,2.448-6.192,6.24-6.192
				c1.249,0,2.353,0.312,2.928,0.624l-0.48,1.608c-0.504-0.264-1.296-0.552-2.448-0.552c-2.664,0-4.104,1.992-4.104,4.392
				c0,2.688,1.728,4.345,4.032,4.345c1.2,0,1.992-0.288,2.592-0.552L113.898,36.092z"/>
			<path d="M118.458,30.211h0.048c0.288-0.408,0.672-0.912,1.008-1.32l3.432-4.008h2.521l-4.464,4.776l5.112,6.841h-2.592
				l-3.984-5.568l-1.08,1.2V36.5h-2.088V19.458h2.088V30.211z"/>
			<path d="M128.034,19.458h2.088v7.297h0.048c0.744-1.296,2.088-2.112,3.96-2.112c2.904,0,4.92,2.4,4.92,5.904
				c0,4.152-2.64,6.217-5.232,6.217c-1.68,0-3.024-0.648-3.912-2.16h-0.048l-0.12,1.896h-1.8c0.048-0.792,0.096-1.968,0.096-3
				V19.458z M130.122,31.844c0,0.264,0.024,0.528,0.096,0.768c0.384,1.464,1.632,2.473,3.168,2.473c2.232,0,3.528-1.801,3.528-4.465
				c0-2.328-1.2-4.32-3.48-4.32c-1.416,0-2.76,1.008-3.192,2.592c-0.072,0.264-0.12,0.552-0.12,0.888V31.844z"/>
			<path d="M152.202,30.596c0,4.296-3,6.168-5.785,6.168c-3.12,0-5.568-2.304-5.568-5.977c0-3.864,2.568-6.145,5.761-6.145
				C149.946,24.643,152.202,27.067,152.202,30.596z M143.009,30.715c0,2.544,1.44,4.464,3.504,4.464
				c2.016,0,3.528-1.896,3.528-4.512c0-1.968-0.984-4.44-3.48-4.44C144.089,26.227,143.009,28.531,143.009,30.715z"/>
			<path d="M155.513,24.883l1.656,2.497c0.456,0.648,0.816,1.224,1.2,1.872h0.048c0.384-0.672,0.768-1.272,1.176-1.896l1.608-2.473
				h2.305l-3.96,5.617l4.056,6h-2.376l-1.729-2.616c-0.456-0.672-0.84-1.32-1.248-2.016h-0.048c-0.384,0.696-0.768,1.32-1.224,2.016
				l-1.68,2.616h-2.328l4.128-5.929l-3.937-5.688H155.513z"/>
			<path d="M178.89,33.716c0,1.008,0.048,1.992,0.168,2.784h-1.896l-0.168-1.464h-0.072c-0.648,0.912-1.896,1.729-3.552,1.729
				c-2.352,0-3.552-1.656-3.552-3.336c0-2.808,2.496-4.344,6.985-4.32v-0.24c0-0.936-0.264-2.688-2.641-2.664
				c-1.104,0-2.232,0.312-3.048,0.864l-0.48-1.417c0.96-0.6,2.376-1.008,3.84-1.008c3.552,0,4.417,2.424,4.417,4.729V33.716z
				 M176.85,30.571c-2.304-0.048-4.92,0.36-4.92,2.616c0,1.393,0.912,2.017,1.968,2.017c1.536,0,2.52-0.96,2.856-1.944
				c0.072-0.24,0.096-0.48,0.096-0.672V30.571z"/>
			<path d="M182.297,28.027c0-1.224-0.024-2.184-0.096-3.145h1.873l0.12,1.92h0.048c0.576-1.08,1.92-2.16,3.84-2.16
				c1.608,0,4.104,0.96,4.104,4.944V36.5h-2.112v-6.697c0-1.872-0.696-3.432-2.688-3.432c-1.368,0-2.448,0.984-2.832,2.16
				c-0.096,0.264-0.144,0.624-0.144,0.984V36.5h-2.112V28.027z"/>
			<path d="M205.625,19.458V33.5c0,1.032,0.049,2.208,0.096,3h-1.871l-0.096-2.016h-0.072c-0.625,1.296-2.016,2.28-3.913,2.28
				c-2.808,0-4.992-2.376-4.992-5.905c-0.024-3.864,2.4-6.216,5.208-6.216c1.8,0,2.976,0.84,3.505,1.752h0.047v-6.937H205.625z
				 M203.537,29.611c0-0.264-0.023-0.624-0.096-0.888c-0.312-1.32-1.465-2.424-3.048-2.424c-2.184,0-3.48,1.92-3.48,4.464
				c0,2.352,1.176,4.296,3.432,4.296c1.417,0,2.711-0.96,3.096-2.521c0.072-0.288,0.096-0.576,0.096-0.912V29.611z"/>
			<path d="M214.24,28.507c0-1.368-0.023-2.544-0.096-3.625h1.848l0.096,2.304h0.072c0.529-1.56,1.824-2.544,3.24-2.544
				c0.217,0,0.385,0.024,0.576,0.048v1.992c-0.215-0.048-0.432-0.048-0.721-0.048c-1.486,0-2.543,1.104-2.832,2.688
				c-0.047,0.288-0.07,0.648-0.07,0.984V36.5h-2.113V28.507z"/>
			<path d="M230.129,33.716c0,1.008,0.049,1.992,0.168,2.784H228.4l-0.168-1.464h-0.072c-0.646,0.912-1.895,1.729-3.551,1.729
				c-2.354,0-3.553-1.656-3.553-3.336c0-2.808,2.496-4.344,6.984-4.32v-0.24c0-0.936-0.264-2.688-2.641-2.664
				c-1.104,0-2.232,0.312-3.047,0.864l-0.48-1.417c0.959-0.6,2.375-1.008,3.84-1.008c3.553,0,4.416,2.424,4.416,4.729V33.716z
				 M228.09,30.571c-2.305-0.048-4.922,0.36-4.922,2.616c0,1.393,0.912,2.017,1.969,2.017c1.535,0,2.52-0.96,2.855-1.944
				c0.072-0.24,0.098-0.48,0.098-0.672V30.571z"/>
			<path d="M243.545,19.458V33.5c0,1.032,0.049,2.208,0.096,3h-1.871l-0.096-2.016h-0.072c-0.625,1.296-2.018,2.28-3.912,2.28
				c-2.809,0-4.994-2.376-4.994-5.905c-0.023-3.864,2.4-6.216,5.209-6.216c1.801,0,2.977,0.84,3.504,1.752h0.049v-6.937H243.545z
				 M241.457,29.611c0-0.264-0.023-0.624-0.096-0.888c-0.312-1.32-1.465-2.424-3.049-2.424c-2.184,0-3.48,1.92-3.48,4.464
				c0,2.352,1.176,4.296,3.434,4.296c1.416,0,2.711-0.96,3.096-2.521c0.072-0.288,0.096-0.576,0.096-0.912V29.611z"/>
			<path d="M249.424,21.619c0,0.72-0.504,1.296-1.344,1.296c-0.768,0-1.271-0.576-1.271-1.296s0.527-1.32,1.32-1.32
				C248.896,20.299,249.424,20.875,249.424,21.619z M247.072,36.5V24.883h2.111V36.5H247.072z"/>
			<path d="M263.201,30.596c0,4.296-3,6.168-5.785,6.168c-3.119,0-5.568-2.304-5.568-5.977c0-3.864,2.568-6.145,5.762-6.145
				C260.945,24.643,263.201,27.067,263.201,30.596z M254.008,30.715c0,2.544,1.441,4.464,3.504,4.464
				c2.018,0,3.529-1.896,3.529-4.512c0-1.968-0.984-4.44-3.48-4.44C255.088,26.227,254.008,28.531,254.008,30.715z"/>
			<path d="M265.863,19.458h2.088v7.297H268c0.744-1.296,2.088-2.112,3.961-2.112c2.904,0,4.92,2.4,4.92,5.904
				c0,4.152-2.641,6.217-5.232,6.217c-1.68,0-3.023-0.648-3.912-2.16h-0.049l-0.119,1.896h-1.801c0.049-0.792,0.096-1.968,0.096-3
				V19.458z M267.951,31.844c0,0.264,0.025,0.528,0.098,0.768c0.383,1.464,1.631,2.473,3.168,2.473c2.232,0,3.527-1.801,3.527-4.465
				c0-2.328-1.199-4.32-3.48-4.32c-1.416,0-2.76,1.008-3.191,2.592c-0.072,0.264-0.121,0.552-0.121,0.888V31.844z"/>
			<path d="M289.24,33.308c0,1.224,0.023,2.28,0.096,3.192h-1.871l-0.121-1.896h-0.047c-0.529,0.936-1.777,2.16-3.842,2.16
				c-1.824,0-4.008-1.032-4.008-5.088v-6.793h2.113v6.409c0,2.208,0.695,3.72,2.592,3.72c1.416,0,2.4-0.984,2.783-1.944
				c0.121-0.288,0.193-0.672,0.193-1.08v-7.105h2.111V33.308z"/>
			<path d="M295.287,22.099v2.784h3.025v1.608h-3.025v6.265c0,1.44,0.408,2.256,1.584,2.256c0.576,0,0.912-0.048,1.225-0.144
				l0.096,1.608c-0.408,0.144-1.055,0.288-1.871,0.288c-0.984,0-1.777-0.336-2.281-0.888c-0.576-0.648-0.816-1.681-0.816-3.049
				v-6.336h-1.799v-1.608h1.799v-2.16L295.287,22.099z"/>
			<path d="M303.232,22.099v2.784h3.023v1.608h-3.023v6.265c0,1.44,0.406,2.256,1.584,2.256c0.576,0,0.912-0.048,1.223-0.144
				l0.098,1.608c-0.408,0.144-1.057,0.288-1.873,0.288c-0.984,0-1.775-0.336-2.279-0.888c-0.576-0.648-0.816-1.681-0.816-3.049
				v-6.336h-1.801v-1.608h1.801v-2.16L303.232,22.099z"/>
			<path d="M319,30.596c0,4.296-3,6.168-5.785,6.168c-3.119,0-5.568-2.304-5.568-5.977c0-3.864,2.568-6.145,5.762-6.145
				C316.744,24.643,319,27.067,319,30.596z M309.807,30.715c0,2.544,1.441,4.464,3.506,4.464c2.016,0,3.527-1.896,3.527-4.512
				c0-1.968-0.984-4.44-3.48-4.44C310.887,26.227,309.807,28.531,309.807,30.715z"/>
			<path d="M321.664,28.027c0-1.224-0.025-2.184-0.098-3.145h1.873l0.119,1.92h0.049c0.576-1.08,1.92-2.16,3.84-2.16
				c1.609,0,4.105,0.96,4.105,4.944V36.5h-2.113v-6.697c0-1.872-0.695-3.432-2.688-3.432c-1.369,0-2.449,0.984-2.832,2.16
				c-0.096,0.264-0.145,0.624-0.145,0.984V36.5h-2.111V28.027z"/>
		</g>
	</g>
	<g id="meegotouch-button-checkbox-background-selected-disabled">
		<g>
			<path style="fill:#686868;" d="M341.5,94.5c0,9.35-7.65,17-17,17h-6c-9.35,0-17-7.65-17-17v-6c0-9.35,7.65-17,17-17h6
				c9.35,0,17,7.65,17,17V94.5z"/>
			<path style="fill:none;stroke:#444444;" d="M341.5,94.5c0,9.35-7.65,17-17,17h-6c-9.35,0-17-7.65-17-17v-6c0-9.35,7.65-17,17-17
				h6c9.35,0,17,7.65,17,17V94.5z"/>
		</g>
		<path style="opacity:0.5;fill:#241F20;" d="M307.621,91.527l4.139-3.336l5.891,4.617c2.451-2.81,8.439-8.905,15.725-13.371
			l1.812,2.812c-6.994,6.435-15.305,21.746-15.305,21.746L307.621,91.527z"/>
	</g>
	<g id="meegotouch-button-checkbox-background-selected-pressed">
		<g>
			<path style="fill:#00B400;" d="M291.5,94.5c0,9.35-7.65,17-17,17h-6c-9.35,0-17-7.65-17-17v-6c0-9.35,7.65-17,17-17h6
				c9.35,0,17,7.65,17,17V94.5z"/>
			<path style="fill:none;stroke:#241F20;" d="M291.5,94.5c0,9.35-7.65,17-17,17h-6c-9.35,0-17-7.65-17-17v-6c0-9.35,7.65-17,17-17
				h6c9.35,0,17,7.65,17,17V94.5z"/>
		</g>
		<path style="fill:#241F20;" d="M257.621,91.527l4.139-3.336l5.891,4.617c2.451-2.81,8.439-8.905,15.725-13.371l1.812,2.812
			c-6.994,6.435-15.305,21.746-15.305,21.746L257.621,91.527z"/>
	</g>
	<g id="meegotouch-button-checkbox-background-selected">
		<g>
			<path style="fill:#00E600;" d="M241.5,94.5c0,9.35-7.65,17-17,17h-6c-9.35,0-17-7.65-17-17v-6c0-9.35,7.65-17,17-17h6
				c9.35,0,17,7.65,17,17V94.5z"/>
			<path style="fill:none;stroke:#241F20;" d="M241.5,94.5c0,9.35-7.65,17-17,17h-6c-9.35,0-17-7.65-17-17v-6c0-9.35,7.65-17,17-17
				h6c9.35,0,17,7.65,17,17V94.5z"/>
		</g>
		<path style="fill:#241F20;" d="M207.621,91.527l4.139-3.336l5.891,4.617c2.451-2.81,8.439-8.905,15.725-13.371l1.812,2.812
			c-6.994,6.435-15.305,21.746-15.305,21.746L207.621,91.527z"/>
	</g>
	<g id="meegotouch-button-checkbox-background-disabled">
		<g>
			<path style="fill:#909090;" d="M191.5,94.5c0,9.35-7.65,17-17,17h-6c-9.35,0-17-7.65-17-17v-6c0-9.35,7.65-17,17-17h6
				c9.35,0,17,7.65,17,17V94.5z"/>
			<path style="fill:none;stroke:#7D7578;" d="M191.5,94.5c0,9.35-7.65,17-17,17h-6c-9.35,0-17-7.65-17-17v-6c0-9.35,7.65-17,17-17
				h6c9.35,0,17,7.65,17,17V94.5z"/>
		</g>
	</g>
	<g id="meegotouch-button-checkbox-background-pressed">
		<g>
			<path style="fill:#CFD1D2;" d="M141.5,94.5c0,9.35-7.65,17-17,17h-6c-9.35,0-17-7.65-17-17v-6c0-9.35,7.65-17,17-17h6
				c9.35,0,17,7.65,17,17V94.5z"/>
			<path style="fill:none;stroke:#241F20;" d="M141.5,94.5c0,9.35-7.65,17-17,17h-6c-9.35,0-17-7.65-17-17v-6c0-9.35,7.65-17,17-17
				h6c9.35,0,17,7.65,17,17V94.5z"/>
		</g>
	</g>
	<g id="meegotouch-button-checkbox-background">
		<g>
			<path style="fill:#FFFFFF;" d="M91.5,94.5c0,9.35-7.65,17-17,17h-6c-9.35,0-17-7.65-17-17v-6c0-9.35,7.65-17,17-17h6
				c9.35,0,17,7.65,17,17V94.5z"/>
			<path style="fill:none;stroke:#241F20;" d="M91.5,94.5c0,9.35-7.65,17-17,17h-6c-9.35,0-17-7.65-17-17v-6c0-9.35,7.65-17,17-17h6
				c9.35,0,17,7.65,17,17V94.5z"/>
		</g>
	</g>
	<g id="meegotouch-button-radiobutton-background-selected-disabled">
		<g>
			<path style="fill:#686868;" d="M341.5,144.5c0,9.35-7.65,17-17,17h-6c-9.35,0-17-7.65-17-17v-6c0-9.35,7.65-17,17-17h6
				c9.35,0,17,7.65,17,17V144.5z"/>
			<path style="fill:none;stroke:#444444;" d="M341.5,144.5c0,9.35-7.65,17-17,17h-6c-9.35,0-17-7.65-17-17v-6c0-9.35,7.65-17,17-17
				h6c9.35,0,17,7.65,17,17V144.5z"/>
		</g>
		<circle style="opacity:0.5;fill:#241F20;" cx="321.5" cy="141.5" r="10"/>
	</g>
	<g id="meegotouch-button-radiobutton-background-selected-pressed">
		<g>
			<path style="fill:#00B400;" d="M291.5,144.5c0,9.35-7.65,17-17,17h-6c-9.35,0-17-7.65-17-17v-6c0-9.35,7.65-17,17-17h6
				c9.35,0,17,7.65,17,17V144.5z"/>
			<path style="fill:none;stroke:#241F20;" d="M291.5,144.5c0,9.35-7.65,17-17,17h-6c-9.35,0-17-7.65-17-17v-6c0-9.35,7.65-17,17-17
				h6c9.35,0,17,7.65,17,17V144.5z"/>
		</g>
		<circle style="fill:#241F20;" cx="271.5" cy="141.5" r="10"/>
	</g>
	<g id="meegotouch-button-radiobutton-background-selected">
		<g>
			<path style="fill:#00E600;" d="M241.5,144.5c0,9.35-7.65,17-17,17h-6c-9.35,0-17-7.65-17-17v-6c0-9.35,7.65-17,17-17h6
				c9.35,0,17,7.65,17,17V144.5z"/>
			<path style="fill:none;stroke:#241F20;" d="M241.5,144.5c0,9.35-7.65,17-17,17h-6c-9.35,0-17-7.65-17-17v-6c0-9.35,7.65-17,17-17
				h6c9.35,0,17,7.65,17,17V144.5z"/>
		</g>
		<circle style="fill:#241F20;" cx="221.5" cy="141.5" r="10"/>
	</g>
	<g id="meegotouch-button-radiobutton-background-disabled">
		<g>
			<path style="fill:#909090;" d="M191.5,144.5c0,9.35-7.65,17-17,17h-6c-9.35,0-17-7.65-17-17v-6c0-9.35,7.65-17,17-17h6
				c9.35,0,17,7.65,17,17V144.5z"/>
			<path style="fill:none;stroke:#7D7578;" d="M191.5,144.5c0,9.35-7.65,17-17,17h-6c-9.35,0-17-7.65-17-17v-6c0-9.35,7.65-17,17-17
				h6c9.35,0,17,7.65,17,17V144.5z"/>
		</g>
		<circle style="opacity:0.5;fill:none;stroke:#000000;" cx="171.5" cy="141.5" r="10"/>
	</g>
	<g id="meegotouch-button-radiobutton-background-pressed">
		<g>
			<path style="fill:#CFD1D2;" d="M141.5,144.5c0,9.35-7.65,17-17,17h-6c-9.35,0-17-7.65-17-17v-6c0-9.35,7.65-17,17-17h6
				c9.35,0,17,7.65,17,17V144.5z"/>
			<path style="fill:none;stroke:#241F20;" d="M141.5,144.5c0,9.35-7.65,17-17,17h-6c-9.35,0-17-7.65-17-17v-6c0-9.35,7.65-17,17-17
				h6c9.35,0,17,7.65,17,17V144.5z"/>
		</g>
		<circle style="fill:none;stroke:#000000;" cx="121.5" cy="141.5" r="10"/>
	</g>
	<g id="meegotouch-button-radiobutton-background">
		<g>
			<path style="fill:#FFFFFF;" d="M91.5,144.5c0,9.35-7.65,17-17,17h-6c-9.35,0-17-7.65-17-17v-6c0-9.35,7.65-17,17-17h6
				c9.35,0,17,7.65,17,17V144.5z"/>
			<path style="fill:none;stroke:#241F20;" d="M91.5,144.5c0,9.35-7.65,17-17,17h-6c-9.35,0-17-7.65-17-17v-6c0-9.35,7.65-17,17-17
				h6c9.35,0,17,7.65,17,17V144.5z"/>
		</g>
		<circle style="fill:none;stroke:#000000;" cx="71.5" cy="141.5" r="10"/>
	</g>
</g>
</svg>
