<?xml version="1.0" encoding="iso-8859-1"?>
<!-- Generator: Adobe Illustrator 14.0.0, SVG Export Plug-In . SVG Version: 6.00 Build 43363)  -->
<!DOCTYPE svg PUBLIC "-//W3C//DTD SVG 1.1//EN" "http://www.w3.org/Graphics/SVG/1.1/DTD/svg11.dtd">
<svg version="1.1" xmlns="http://www.w3.org/2000/svg" xmlns:xlink="http://www.w3.org/1999/xlink" x="0px" y="0px" width="280px"
	 height="400px" viewBox="0 0 280 400" style="enable-background:new 0 0 280 400;" xml:space="preserve">
<g id="meegotouch-objectmenu-layer">
</g>
<g id="theme">
	<g id="meegotouch-objectmenu">
		<g id="MeegotouchObjectmenuThemeTemplateHelper">
			<g>
				<path style="fill:#B3B3B3;" d="M16,399c-8.271,0-15-6.729-15-15V16C1,7.729,7.729,1,16,1h248c8.271,0,15,6.729,15,15v368
					c0,8.271-6.729,15-15,15H16z"/>
				<g>
					<path d="M264,2c7.72,0,14,6.28,14,14v368c0,7.72-6.28,14-14,14H16c-7.72,0-14-6.28-14-14V16C2,8.28,8.28,2,16,2H264 M264,0H16
						C7.2,0,0,7.2,0,16v368c0,8.8,7.2,16,16,16h248c8.8,0,16-7.2,16-16V16C280,7.2,272.8,0,264,0L264,0z"/>
				</g>
			</g>
			<path d="M82.373,13.891c2,0,3.5,0.725,4.5,2.174s1.5,3.619,1.5,6.51c0,3.195-0.502,5.521-1.506,6.979s-2.502,2.186-4.494,2.186
				c-1.984,0-3.48-0.738-4.488-2.215s-1.512-3.793-1.512-6.949c0-2.891,0.5-5.061,1.5-6.51S80.373,13.891,82.373,13.891z
				 M82.373,29.992c1.078,0,1.904-0.553,2.479-1.658s0.861-3.025,0.861-5.76c0-2.469-0.285-4.242-0.855-5.32
				s-1.398-1.617-2.484-1.617c-1.07,0-1.893,0.516-2.467,1.547s-0.861,2.828-0.861,5.391C79.045,27.52,80.154,29.992,82.373,29.992z
				"/>
			<path d="M93.799,13v6.188c0.891-0.977,1.996-1.465,3.316-1.465c1.523,0,2.668,0.562,3.434,1.688s1.148,2.812,1.148,5.062
				s-0.516,4.012-1.547,5.285s-2.449,1.91-4.254,1.91c-1.773,0-3.305-0.078-4.594-0.234V13H93.799z M93.799,24.684v5.168
				c0.727,0.094,1.375,0.141,1.945,0.141c1.148,0,1.996-0.42,2.543-1.26s0.82-2.283,0.82-4.33c0-1.656-0.215-2.898-0.645-3.727
				s-1.07-1.242-1.922-1.242c-0.828,0-1.441,0.25-1.84,0.75s-0.648,1.107-0.75,1.822S93.799,23.613,93.799,24.684z"/>
			<path d="M107.381,31.867c0,1.219-0.311,2.135-0.932,2.748s-1.549,0.92-2.783,0.92c-0.703,0-1.48-0.082-2.332-0.246v-1.723
				c0.742,0.141,1.375,0.211,1.898,0.211c0.547,0,0.959-0.164,1.236-0.492s0.416-0.816,0.416-1.465v-12.27h-1.559v-1.629h4.055
				V31.867z M106.139,13.141c0.383,0,0.713,0.141,0.99,0.422s0.416,0.613,0.416,0.996c0,0.391-0.137,0.725-0.41,1.002
				s-0.605,0.416-0.996,0.416c-0.398,0-0.734-0.139-1.008-0.416s-0.41-0.611-0.41-1.002c0-0.398,0.137-0.734,0.41-1.008
				S105.74,13.141,106.139,13.141z"/>
			<path d="M119.861,29.465v1.699c-1.227,0.383-2.496,0.574-3.809,0.574c-1.906,0-3.332-0.574-4.277-1.723s-1.418-2.918-1.418-5.309
				c0-2.102,0.457-3.791,1.371-5.068s2.219-1.916,3.914-1.916c1.375,0,2.408,0.365,3.1,1.096s1.135,1.625,1.33,2.684
				s0.293,2.318,0.293,3.779h-7.359c0,1.586,0.281,2.775,0.844,3.568s1.406,1.189,2.531,1.189
				C117.334,30.039,118.494,29.848,119.861,29.465z M113.006,23.746h4.91c0-1.648-0.195-2.812-0.586-3.492s-0.953-1.02-1.688-1.02
				c-0.82,0-1.447,0.352-1.881,1.055S113.076,22.145,113.006,23.746z"/>
			<path d="M128.182,31.738c-1.852,0-3.25-0.607-4.195-1.822s-1.418-2.998-1.418-5.35c0-2.188,0.51-3.875,1.529-5.062
				s2.502-1.781,4.447-1.781c0.758,0,1.527,0.098,2.309,0.293v1.699c-0.594-0.188-1.332-0.281-2.215-0.281
				c-1.141,0-2.006,0.455-2.596,1.365s-0.885,2.182-0.885,3.814c0,1.758,0.295,3.102,0.885,4.031s1.455,1.395,2.596,1.395
				c0.984,0,1.754-0.09,2.309-0.27v1.617C130.111,31.621,129.189,31.738,128.182,31.738z"/>
			<path d="M136.654,31.738c-1.062,0-1.84-0.248-2.332-0.744s-0.738-1.287-0.738-2.373v-9.07h-1.793v-0.938l3.645-3.715h0.645v3.023
				h3.316v1.629h-3.316v8.66c0,0.742,0.121,1.232,0.363,1.471s0.609,0.357,1.102,0.357c0.508,0,1.195-0.113,2.062-0.34v1.617
				C138.561,31.598,137.576,31.738,136.654,31.738z"/>
			<path d="M164.229,31.551h-2.496v-9.387c0-0.906-0.17-1.588-0.51-2.045s-0.85-0.686-1.529-0.686c-0.875,0-1.549,0.344-2.021,1.031
				s-0.709,1.582-0.709,2.684v8.402h-2.496v-9.387c0-0.906-0.174-1.588-0.521-2.045s-0.869-0.686-1.564-0.686
				c-0.859,0-1.523,0.348-1.992,1.043s-0.703,1.586-0.703,2.672v8.402h-2.496V17.922h1.395l0.504,2.016
				c0.836-1.477,2.109-2.215,3.82-2.215c0.906,0,1.658,0.172,2.256,0.516s1.037,0.859,1.318,1.547
				c0.773-1.375,2.012-2.062,3.715-2.062c1.344,0,2.352,0.363,3.023,1.09s1.008,1.812,1.008,3.258V31.551z"/>
			<path d="M176.521,29.465v1.699c-1.227,0.383-2.496,0.574-3.809,0.574c-1.906,0-3.332-0.574-4.277-1.723s-1.418-2.918-1.418-5.309
				c0-2.102,0.457-3.791,1.371-5.068s2.219-1.916,3.914-1.916c1.375,0,2.408,0.365,3.1,1.096s1.135,1.625,1.33,2.684
				s0.293,2.318,0.293,3.779h-7.359c0,1.586,0.281,2.775,0.844,3.568s1.406,1.189,2.531,1.189
				C173.994,30.039,175.154,29.848,176.521,29.465z M169.666,23.746h4.91c0-1.648-0.195-2.812-0.586-3.492s-0.953-1.02-1.688-1.02
				c-0.82,0-1.447,0.352-1.881,1.055S169.736,22.145,169.666,23.746z"/>
			<path d="M189.811,31.551h-2.496v-9.047c0-1.023-0.18-1.791-0.539-2.303s-0.898-0.768-1.617-0.768
				c-0.906,0-1.609,0.344-2.109,1.031s-0.75,1.582-0.75,2.684v8.402h-2.496V17.922h1.395l0.504,2.016
				c0.867-1.477,2.188-2.215,3.961-2.215c1.383,0,2.42,0.363,3.111,1.09s1.037,1.812,1.037,3.258V31.551z"/>
			<path d="M197.287,31.738c-1.391,0-2.432-0.361-3.123-1.084s-1.037-1.807-1.037-3.252v-9.48h2.496v9.047
				c0,1.023,0.18,1.791,0.539,2.303s0.902,0.768,1.629,0.768c0.906,0,1.607-0.344,2.104-1.031s0.744-1.582,0.744-2.684v-8.402h2.496
				v13.629h-1.383l-0.504-2.016C200.381,31.004,199.061,31.738,197.287,31.738z"/>
		</g>
		<g id="meegotouch-button-objectmenu-background-pressed">
			<g>
				<path style="fill:#808080;" d="M177.947,326c0,5.5-4.5,10-10,10H124c-5.5,0-10-4.5-10-10v-42c0-5.5,4.5-10,10-10h43.947
					c5.5,0,10,4.5,10,10V326z"/>
			</g>
			<g>
				<path style="fill:#FFFFFF;" d="M177.947,324c0,5.5-4.5,10-10,10H124c-5.5,0-10-4.5-10-10v-42c0-5.5,4.5-10,10-10h43.947
					c5.5,0,10,4.5,10,10V324z"/>
			</g>
			<g>
				<linearGradient id="SVGID_1_" gradientUnits="userSpaceOnUse" x1="145.9736" y1="273" x2="145.9736" y2="335">
					<stop  offset="0" style="stop-color:#29ABE2"/>
					<stop  offset="1" style="stop-color:#7DD8FF"/>
				</linearGradient>
				<path style="fill:url(#SVGID_1_);" d="M177.947,325c0,5.5-4.5,10-10,10H124c-5.5,0-10-4.5-10-10v-42c0-5.5,4.5-10,10-10h43.947
					c5.5,0,10,4.5,10,10V325z"/>
			</g>
		</g>
		<g id="meegotouch-button-objectmenu-background">
			<g>
				<path style="fill:#808080;" d="M103.947,326c0,5.5-4.5,10-10,10H50c-5.5,0-10-4.5-10-10v-42c0-5.5,4.5-10,10-10h43.947
					c5.5,0,10,4.5,10,10V326z"/>
			</g>
			<g>
				<path style="fill:#FFFFFF;" d="M103.947,324c0,5.5-4.5,10-10,10H50c-5.5,0-10-4.5-10-10v-42c0-5.5,4.5-10,10-10h43.947
					c5.5,0,10,4.5,10,10V324z"/>
			</g>
			<g>
				<linearGradient id="SVGID_2_" gradientUnits="userSpaceOnUse" x1="71.9736" y1="273" x2="71.9736" y2="335">
					<stop  offset="0" style="stop-color:#7DD8FF"/>
					<stop  offset="1" style="stop-color:#66C0EF"/>
				</linearGradient>
				<path style="fill:url(#SVGID_2_);" d="M103.947,325c0,5.5-4.5,10-10,10H50c-5.5,0-10-4.5-10-10v-42c0-5.5,4.5-10,10-10h43.947
					c5.5,0,10,4.5,10,10V325z"/>
			</g>
		</g>
		<g id="meegotouch-button-objectmenu-background-pressed-vertical-bottom">
			<path style="fill:#808080;" d="M114,198v54c0,5.5,4.5,10,10,10h44c5.5,0,10-4.5,10-10v-54H114z"/>
			<linearGradient id="SVGID_3_" gradientUnits="userSpaceOnUse" x1="146" y1="261" x2="146" y2="198.0005">
				<stop  offset="0" style="stop-color:#7DD8FF"/>
				<stop  offset="1" style="stop-color:#29ABE2"/>
			</linearGradient>
			<path style="fill:url(#SVGID_3_);" d="M114,198v53c0,5.5,4.5,10,10,10h44c5.5,0,10-4.5,10-10v-53H114z"/>
			<rect x="114" y="198" style="opacity:0.2;fill:#FFFFFF;" width="64" height="1"/>
		</g>
		<g id="meegotouch-button-objectmenu-background-vertical-bottom">
			<path style="fill:#808080;" d="M40,198v54c0,5.5,4.5,10,10,10h44c5.5,0,10-4.5,10-10v-54H40z"/>
			<linearGradient id="SVGID_4_" gradientUnits="userSpaceOnUse" x1="72" y1="261" x2="72" y2="198.0005">
				<stop  offset="0" style="stop-color:#29ABE2"/>
				<stop  offset="1" style="stop-color:#66C0EF"/>
			</linearGradient>
			<path style="fill:url(#SVGID_4_);" d="M40,198v53c0,5.5,4.5,10,10,10h44c5.5,0,10-4.5,10-10v-53H40z"/>
			<rect x="40" y="198" style="opacity:0.2;fill:#FFFFFF;" width="64" height="1"/>
		</g>
		<g id="meegotouch-button-objectmenu-background-pressed-vertical-center">
			<linearGradient id="SVGID_5_" gradientUnits="userSpaceOnUse" x1="146" y1="188" x2="146" y2="124">
				<stop  offset="0" style="stop-color:#7DD8FF"/>
				<stop  offset="1" style="stop-color:#29ABE2"/>
			</linearGradient>
			<rect x="114" y="124" style="fill:url(#SVGID_5_);" width="64" height="64"/>
			<rect x="114" y="187" style="opacity:0.2;" width="64" height="1"/>
			<rect x="114" y="124" style="opacity:0.2;fill:#FFFFFF;" width="64" height="1"/>
		</g>
		<g id="meegotouch-button-objectmenu-background-vertical-center">
			<rect x="40" y="124" style="fill:#66C0EF;" width="64" height="64"/>
			<rect x="40" y="187" style="opacity:0.2;" width="64" height="1"/>
			<rect x="40" y="124" style="opacity:0.2;fill:#FFFFFF;" width="64" height="1"/>
		</g>
		<g id="meegotouch-button-objectmenu-background-pressed-vertical-top">
			<path style="fill:#808080;" d="M178,114V60c0-5.5-4.5-10-10-10h-44c-5.5,0-10,4.5-10,10v54H178z"/>
			
				<linearGradient id="SVGID_6_" gradientUnits="userSpaceOnUse" x1="-666.0005" y1="377" x2="-666.0005" y2="314" gradientTransform="matrix(-1 0 0 -1 -520 428)">
				<stop  offset="0" style="stop-color:#29ABE2"/>
				<stop  offset="1" style="stop-color:#7DD8FF"/>
			</linearGradient>
			<path style="fill:url(#SVGID_6_);" d="M178,114V61c0-5.5-4.5-10-10-10h-44c-5.5,0-10,4.5-10,10v53H178z"/>
			<rect x="114" y="113" style="opacity:0.2;" width="64" height="1"/>
		</g>
		<g id="meegotouch-button-objectmenu-background-vertical-top">
			<path style="fill:#FFFFFF;" d="M104,114V60c0-5.5-4.5-10-10-10H50c-5.5,0-10,4.5-10,10v54H104z"/>
			<linearGradient id="SVGID_7_" gradientUnits="userSpaceOnUse" x1="72" y1="114" x2="72" y2="51">
				<stop  offset="0" style="stop-color:#66C0EF"/>
				<stop  offset="1" style="stop-color:#7DD8FF"/>
			</linearGradient>
			<path style="fill:url(#SVGID_7_);" d="M104,114V61c0-5.5-4.5-10-10-10H50c-5.5,0-10,4.5-10,10v53H104z"/>
			<rect x="40" y="113" style="opacity:0.2;" width="64" height="1"/>
		</g>
	</g>
</g>
</svg>
