<?xml version="1.0" encoding="iso-8859-1"?>
<!-- Generator: Adobe Illustrator 14.0.0, SVG Export Plug-In . SVG Version: 6.00 Build 43363)  -->
<!DOCTYPE svg PUBLIC "-//W3C//DTD SVG 1.1//EN" "http://www.w3.org/Graphics/SVG/1.1/DTD/svg11.dtd">
<svg version="1.1" id="meegotouch-progressindicator-layer"
	 xmlns="http://www.w3.org/2000/svg" xmlns:xlink="http://www.w3.org/1999/xlink" x="0px" y="0px" width="200px" height="300px"
	 viewBox="0 0 200 300" style="enable-background:new 0 0 200 300;" xml:space="preserve">
<g id="meegotouch-progressindicator">
	<g id="MeegoTouchProgressBarThemeTemplateHelper">
		<g id="g8">
			<path id="path10" style="fill:#B3B3B3;" d="M16,299c-8.271,0-15-6.729-15-15V16C1,7.729,7.729,1,16,1h168c8.271,0,15,6.729,15,15
				v268c0,8.271-6.729,15-15,15H16z"/>
			<g id="g12">
				<path id="path14" d="M184,2c7.721,0,14,6.28,14,14v268c0,7.721-6.279,14-14,14H16c-7.721,0-14-6.279-14-14V16
					C2,8.28,8.279,2,16,2H184 M184,0H16C7.2,0,0,7.2,0,16v268c0,8.8,7.2,16,16,16h168c8.8,0,16-7.2,16-16V16C200,7.2,192.8,0,184,0
					L184,0z"/>
			</g>
		</g>
		<path id="path16" d="M68.143,22.408l0.441,1.701c0.43-0.635,0.908-1.107,1.436-1.414c0.525-0.31,1.195-0.463,2.01-0.463
			c1.318,0,2.31,0.498,2.974,1.492c0.662,0.994,0.994,2.486,0.994,4.477c0,1.969-0.453,3.504-1.356,4.604
			c-0.906,1.103-2.211,1.651-3.912,1.651c-0.451,0-0.992-0.075-1.621-0.226v3.526h-2.185v-15.35L68.143,22.408L68.143,22.408z
			 M69.105,27.74v4.932c0.526,0.198,1.08,0.297,1.662,0.297c0.983,0,1.725-0.342,2.219-1.025c0.496-0.684,0.744-1.965,0.744-3.844
			c0-1.457-0.185-2.549-0.553-3.276c-0.369-0.729-0.921-1.093-1.652-1.093c-0.793,0-1.396,0.308-1.805,0.918
			C69.311,25.26,69.105,26.291,69.105,27.74z"/>
		<path id="path18" d="M79.688,22.408l0.502,1.988c0.664-1.4,1.818-2.103,3.468-2.103c0.219,0,0.379,0.011,0.481,0.031v1.987
			c-0.172-0.014-0.428-0.02-0.77-0.02c-0.938,0-1.623,0.225-2.061,0.671c-0.438,0.448-0.656,1.147-0.656,2.097v7.271h-2.187V22.408
			H79.688z"/>
		<path id="path20" d="M89.973,34.497c-1.606,0-2.809-0.526-3.609-1.579c-0.799-1.053-1.198-2.632-1.198-4.736
			c0-1.832,0.414-3.281,1.246-4.349c0.83-1.065,2.019-1.601,3.562-1.601c1.56,0,2.75,0.526,3.574,1.58
			c0.822,1.053,1.234,2.521,1.234,4.408c0,1.941-0.385,3.473-1.152,4.594C92.859,33.938,91.641,34.497,89.973,34.497z
			 M89.973,33.092c0.842,0,1.476-0.381,1.902-1.143s0.641-2.039,0.641-3.83c0-1.266-0.219-2.326-0.656-3.184
			c-0.437-0.858-1.065-1.287-1.887-1.287c-0.834,0-1.467,0.387-1.896,1.158c-0.433,0.772-0.646,1.877-0.646,3.312
			c0,1.612,0.215,2.846,0.646,3.696C88.506,32.667,89.139,33.092,89.973,33.092z"/>
		<path id="path22" d="M104.123,23.854l0.461-1.444h1.221v11.36c0,1.285-0.397,2.281-1.195,2.988
			c-0.797,0.708-1.889,1.062-3.274,1.062c-1.137,0-2.424-0.182-3.867-0.545v-1.536c1.505,0.36,2.707,0.543,3.609,0.543
			c0.786,0,1.362-0.146,1.729-0.437c0.364-0.291,0.592-0.67,0.682-1.139c0.088-0.468,0.133-1.133,0.133-1.994v-0.308
			c-0.58,0.834-1.51,1.251-2.789,1.251c-1.359,0-2.381-0.471-3.061-1.41c-0.681-0.939-1.021-2.35-1.021-4.229
			c0-1.799,0.375-3.211,1.127-4.24c0.752-1.028,1.84-1.543,3.263-1.543C102.506,22.232,103.5,22.773,104.123,23.854z M101.334,32.17
			c0.758,0,1.336-0.271,1.732-0.814c0.396-0.545,0.594-1.715,0.594-3.514c0-1.381-0.186-2.418-0.559-3.111
			c-0.373-0.692-0.929-1.041-1.666-1.041c-0.787,0-1.388,0.297-1.799,0.894c-0.414,0.594-0.621,1.683-0.621,3.26
			c0,1.443,0.192,2.525,0.58,3.246C99.98,31.809,100.561,32.17,101.334,32.17z"/>
		<path id="path24" d="M109.998,22.408l0.502,1.988c0.662-1.4,1.818-2.103,3.467-2.103c0.217,0,0.379,0.011,0.48,0.031v1.987
			c-0.17-0.014-0.428-0.02-0.768-0.02c-0.938,0-1.625,0.225-2.062,0.671c-0.438,0.448-0.656,1.147-0.656,2.097v7.271h-2.184V22.408
			H109.998z"/>
		<path id="path26" d="M123.789,32.508v1.486c-1.074,0.336-2.184,0.503-3.332,0.503c-1.668,0-2.916-0.503-3.744-1.507
			c-0.826-1.006-1.24-2.555-1.24-4.646c0-1.839,0.4-3.316,1.199-4.435c0.801-1.118,1.941-1.677,3.426-1.677
			c1.203,0,2.107,0.318,2.713,0.959c0.604,0.64,0.992,1.422,1.162,2.348c0.172,0.927,0.258,2.027,0.258,3.309h-6.438
			c0,1.387,0.246,2.428,0.737,3.121c0.492,0.694,1.23,1.04,2.216,1.04C121.578,33.01,122.592,32.843,123.789,32.508z
			 M117.791,27.504h4.295c0-1.441-0.17-2.461-0.512-3.056s-0.834-0.892-1.477-0.892c-0.72,0-1.267,0.307-1.646,0.922
			C118.072,25.094,117.852,26.104,117.791,27.504z"/>
		<path id="path28" d="M128.957,34.497c-0.896,0-1.918-0.134-3.066-0.399v-1.568c1.23,0.335,2.201,0.503,2.912,0.503
			c0.732,0,1.283-0.152,1.652-0.457c0.369-0.304,0.553-0.761,0.553-1.369c0-0.354-0.117-0.688-0.348-0.999
			c-0.234-0.312-0.814-0.691-1.744-1.145c-0.594-0.287-1.076-0.559-1.445-0.814s-0.684-0.602-0.943-1.035
			c-0.258-0.434-0.391-0.973-0.391-1.615c0-1.031,0.367-1.851,1.104-2.455c0.733-0.604,1.676-0.908,2.823-0.908
			c1.006,0,1.914,0.127,2.729,0.381v1.496c-0.854-0.293-1.687-0.44-2.492-0.44c-0.67,0-1.172,0.144-1.502,0.431
			c-0.332,0.287-0.498,0.719-0.498,1.293c0,0.301,0.104,0.582,0.318,0.846c0.211,0.264,0.739,0.597,1.59,1
			c0.615,0.287,1.123,0.564,1.526,0.836c0.402,0.271,0.742,0.636,1.021,1.097c0.277,0.462,0.416,1.041,0.416,1.738
			c0,1.176-0.364,2.067-1.092,2.676C131.352,34.193,130.311,34.497,128.957,34.497z"/>
		<path id="path30" d="M137.652,34.497c-0.896,0-1.918-0.134-3.066-0.399v-1.568c1.23,0.335,2.201,0.503,2.912,0.503
			c0.732,0,1.283-0.152,1.652-0.457c0.369-0.304,0.553-0.761,0.553-1.369c0-0.354-0.117-0.688-0.348-0.999
			c-0.234-0.312-0.814-0.691-1.744-1.145c-0.594-0.287-1.076-0.559-1.445-0.814s-0.684-0.602-0.943-1.035
			c-0.259-0.434-0.391-0.973-0.391-1.615c0-1.031,0.367-1.851,1.104-2.455c0.734-0.604,1.676-0.908,2.824-0.908
			c1.006,0,1.914,0.127,2.729,0.381v1.496c-0.854-0.293-1.686-0.44-2.491-0.44c-0.67,0-1.172,0.144-1.502,0.431
			c-0.332,0.287-0.498,0.719-0.498,1.293c0,0.301,0.104,0.582,0.317,0.846c0.211,0.264,0.74,0.597,1.59,1
			c0.615,0.287,1.123,0.564,1.527,0.836c0.402,0.271,0.742,0.636,1.021,1.097c0.276,0.462,0.416,1.041,0.416,1.738
			c0,1.176-0.365,2.067-1.093,2.676C140.047,34.193,139.006,34.497,137.652,34.497z"/>
		<path id="path32" d="M67.9,59.533h-2.185v-10.5h-1.362v-1.426H67.9V59.533z M66.814,43.424c0.334,0,0.623,0.123,0.867,0.369
			c0.241,0.246,0.362,0.537,0.362,0.872c0,0.342-0.119,0.634-0.358,0.877c-0.238,0.243-0.529,0.364-0.871,0.364
			c-0.351,0-0.644-0.121-0.883-0.364c-0.238-0.243-0.357-0.535-0.357-0.877c0-0.349,0.119-0.644,0.357-0.882
			C66.172,43.544,66.465,43.424,66.814,43.424z"/>
		<path id="path34" d="M79.766,59.533H77.58v-7.916c0-0.896-0.156-1.566-0.471-2.016c-0.315-0.449-0.787-0.672-1.416-0.672
			c-0.793,0-1.408,0.301-1.846,0.902c-0.438,0.602-0.656,1.384-0.656,2.35v7.352h-2.185V47.607h1.222l0.44,1.764
			c0.759-1.291,1.912-1.938,3.465-1.938c1.212,0,2.117,0.317,2.724,0.952c0.604,0.638,0.908,1.587,0.908,2.853V59.533L79.766,59.533
			z"/>
		<path id="path36" d="M90.162,59.533l-0.461-1.467c-0.631,1.088-1.707,1.631-3.23,1.631c-1.416,0-2.479-0.5-3.195-1.502
			c-0.713-1.002-1.069-2.565-1.069-4.691c0-1.783,0.381-3.242,1.144-4.373c0.762-1.131,1.844-1.697,3.246-1.697
			c1.147,0,2.01,0.347,2.584,1.035v-5.168h2.184v16.232H90.162z M89.25,54.1l-0.012-0.678c0-1.777-0.199-2.977-0.6-3.6
			c-0.4-0.621-0.97-0.934-1.707-0.934c-0.82,0-1.437,0.381-1.847,1.139c-0.41,0.76-0.614,1.896-0.614,3.414
			c0,1.594,0.196,2.787,0.596,3.58c0.395,0.793,0.99,1.188,1.783,1.188c0.771,0,1.364-0.287,1.778-0.86
			C89.042,56.775,89.25,55.691,89.25,54.1z"/>
		<path id="path38" d="M96.848,59.533h-2.184v-10.5h-1.363v-1.426h3.547V59.533z M95.762,43.424c0.334,0,0.623,0.123,0.865,0.369
			s0.365,0.537,0.365,0.872c0,0.342-0.121,0.634-0.359,0.877c-0.24,0.243-0.531,0.364-0.871,0.364c-0.35,0-0.645-0.121-0.883-0.364
			c-0.24-0.243-0.359-0.535-0.359-0.877c0-0.349,0.119-0.644,0.359-0.882C95.117,43.544,95.412,43.424,95.762,43.424z"/>
		<path id="path40" d="M104.365,59.697c-1.621,0-2.846-0.531-3.672-1.596c-0.828-1.062-1.24-2.623-1.24-4.681
			c0-1.914,0.445-3.391,1.338-4.43s2.189-1.56,3.891-1.56c0.664,0,1.336,0.086,2.021,0.256v1.487
			c-0.521-0.164-1.166-0.245-1.939-0.245c-0.998,0-1.754,0.397-2.271,1.193c-0.517,0.797-0.772,1.909-0.772,3.338
			c0,1.538,0.258,2.714,0.772,3.527c0.519,0.812,1.272,1.221,2.271,1.221c0.861,0,1.535-0.079,2.021-0.236v1.416
			C106.053,59.595,105.246,59.697,104.365,59.697z"/>
		<path id="path42" d="M114.793,57.811c-0.738,1.258-1.887,1.888-3.445,1.888c-1.088,0-1.934-0.306-2.539-0.918
			c-0.604-0.611-0.906-1.468-0.906-2.568c0-1.135,0.312-1.979,0.935-2.538c0.621-0.557,1.365-0.904,2.233-1.046
			c0.867-0.14,1.925-0.21,3.168-0.21v-1.404c0-1.388-0.741-2.082-2.225-2.082c-0.854,0-1.896,0.182-3.127,0.545v-1.528
			c1.236-0.343,2.412-0.513,3.527-0.513c1.312,0,2.309,0.315,2.988,0.947c0.68,0.633,1.021,1.562,1.021,2.794v8.357h-1.188
			L114.793,57.811z M114.238,53.719h-1.219c-0.979,0-1.711,0.207-2.201,0.621c-0.488,0.414-0.732,1.03-0.732,1.852
			c0,0.67,0.148,1.17,0.445,1.502c0.299,0.332,0.744,0.496,1.34,0.496c0.75,0,1.334-0.237,1.748-0.717
			c0.412-0.479,0.619-1.129,0.619-1.949V53.719z"/>
		<path id="path44" d="M122.41,59.697c-0.93,0-1.609-0.217-2.039-0.651c-0.432-0.435-0.646-1.126-0.646-2.076v-7.937h-1.567v-0.82
			l3.188-3.25h0.563v2.645h2.901v1.427h-2.901v7.577c0,0.648,0.104,1.078,0.317,1.287c0.211,0.209,0.533,0.312,0.963,0.312
			c0.445,0,1.047-0.1,1.806-0.298v1.415C124.078,59.574,123.217,59.697,122.41,59.697z"/>
		<path id="path46" d="M130.799,59.697c-1.607,0-2.809-0.526-3.609-1.579c-0.799-1.054-1.198-2.632-1.198-4.737
			c0-1.832,0.413-3.281,1.245-4.348c0.83-1.066,2.019-1.6,3.562-1.6c1.559,0,2.75,0.525,3.574,1.578
			c0.822,1.053,1.234,2.522,1.234,4.409c0,1.94-0.385,3.474-1.152,4.595C133.686,59.137,132.467,59.697,130.799,59.697z
			 M130.799,58.293c0.842,0,1.475-0.381,1.902-1.145c0.427-0.763,0.641-2.039,0.641-3.83c0-1.264-0.219-2.324-0.656-3.184
			c-0.437-0.859-1.065-1.287-1.887-1.287c-0.834,0-1.467,0.387-1.896,1.159c-0.432,0.771-0.646,1.876-0.646,3.312
			c0,1.613,0.216,2.847,0.646,3.697C129.332,57.867,129.965,58.293,130.799,58.293z"/>
		<path id="path48" d="M139.299,47.607l0.502,1.99c0.664-1.402,1.818-2.104,3.467-2.104c0.219,0,0.379,0.011,0.482,0.029v1.99
			c-0.172-0.014-0.428-0.021-0.77-0.021c-0.938,0-1.623,0.225-2.062,0.672c-0.438,0.448-0.655,1.146-0.655,2.099v7.27h-2.187V47.607
			H139.299z"/>
	</g>
	<g id="meegotouch-progressindicator-bar-background">
		<g id="_x3C_Path_x3E__5_">
			<path id="path52" style="fill:#E6E6E6;" d="M133,253.449c0,2.199-1.8,4-4,4h-20c-2.2,0-4-1.801-4-4v-2c0-2.2,1.8-4,4-4h20
				c2.2,0,4,1.8,4,4V253.449z"/>
		</g>
	</g>
	<g id="meegotouch-progressindicator-bar-progress">
		<g id="_x3C_Path_x3E__2_">
		</g>
	</g>
	<g id="meegotouch-progressindicator-bar-mask">
		<g id="g59">
			<path id="path61" style="fill:#FFFFFF;" d="M123,226.588c0,2.2-1.8,4-4,4h-8c-2.2,0-4-1.8-4-4v-2c0-2.199,1.8-4,4-4h8
				c2.2,0,4,1.801,4,4V226.588z"/>
		</g>
	</g>
	<g id="meegotouch-progressindicator-bar-known-texture" transform="translate(29.126556,-8.4426875)">
		<rect id="rect64-1" x="101.328" y="204.509" style="fill:#66C0EF;" width="16" height="16"/>
	</g>
	<g id="meegotouch-progressindicator-bar-unknown-texture">
		<rect id="rect64" x="107" y="196" style="fill:#66C0EF;" width="16" height="16"/>
		<path id="path66" style="opacity:0.2;fill:#E6E6E6;enable-background:new    ;" d="M123,200.243L111.24,212H107v-4.243
			L118.758,196H123V200.243z M123,207.757L118.756,212H123V207.757z M107,200.243l4.244-4.243H107V200.243z"/>
	</g>
	<g id="meegotouch-progressindicator-spinner-large-on">
		<circle id="circle69" style="opacity:0.2;enable-background:new    ;" cx="114" cy="144" r="8"/>
		<circle id="circle71" style="fill:#66C0EF;" cx="114" cy="144" r="7"/>
	</g>
	<g id="meegotouch-progressindicator-spinner-large-off">
		<circle id="circle74" style="opacity:0.2;enable-background:new    ;" cx="92" cy="144" r="8"/>
		<circle id="circle76" style="opacity:0.2;enable-background:new    ;" cx="92" cy="144" r="7"/>
	</g>
	<g id="meegotouch-progressindicator-spinner-medium-on">
		<circle id="circle79" style="opacity:0.2;enable-background:new    ;" cx="114" cy="118" r="5"/>
		<circle id="circle81" style="fill:#66C0EF;" cx="114" cy="118" r="4"/>
	</g>
	<g id="meegotouch-progressindicator-spinner-medium-off">
		<circle id="circle84" style="opacity:0.2;enable-background:new    ;" cx="92" cy="118" r="5"/>
		<circle id="circle86" style="opacity:0.2;enable-background:new    ;" cx="92" cy="118" r="4"/>
	</g>
	<g id="meegotouch-progressindicator-spinner-small-on">
		<circle id="circle89" style="opacity:0.2;enable-background:new    ;" cx="114" cy="92" r="4"/>
		<circle id="circle91" style="fill:#66C0EF;" cx="114" cy="92" r="3"/>
	</g>
	<g id="meegotouch-progressindicator-spinner-small-off">
		<circle id="circle94" style="opacity:0.2;enable-background:new    ;" cx="92" cy="92" r="4"/>
		<circle id="circle96" style="opacity:0.2;enable-background:new    ;" cx="92" cy="92" r="3"/>
	</g>
</g>
</svg>
