<?xml version="1.0" encoding="iso-8859-1"?>
<!-- Generator: Adobe Illustrator 14.0.0, SVG Export Plug-In . SVG Version: 6.00 Build 43363)  -->
<!DOCTYPE svg PUBLIC "-//W3C//DTD SVG 1.1//EN" "http://www.w3.org/Graphics/SVG/1.1/DTD/svg11.dtd">
<svg version="1.1" xmlns="http://www.w3.org/2000/svg" xmlns:xlink="http://www.w3.org/1999/xlink" x="0px" y="0px" width="370px"
	 height="300px" viewBox="0 0 370 300" style="enable-background:new 0 0 370 300;" xml:space="preserve">
<g id="meegotouch-notifications-layer">
</g>
<g id="theme">
	<g id="meegotouch-notifications">
		<g id="duinotificationThemeTemplateHelper">
			<g>
				<path style="fill:#B3B3B3;" d="M16,299c-8.271,0-15-6.729-15-15V16C1,7.729,7.729,1,16,1h338c8.271,0,15,6.729,15,15v268
					c0,8.271-6.729,15-15,15H16z"/>
				<g>
					<path d="M354,2c7.72,0,14,6.28,14,14v268c0,7.72-6.28,14-14,14H16c-7.72,0-14-6.28-14-14V16C2,8.28,8.28,2,16,2H354 M354,0H16
						C7.2,0,0,7.2,0,16v268c0,8.8,7.2,16,16,16h338c8.8,0,16-7.2,16-16V16C370,7.2,362.8,0,354,0L354,0z"/>
				</g>
			</g>
			<path d="M135.986,33.833l-6.297-11.382v11.382h-2.123V18.545h1.805l6.133,11.063V18.545h2.123v15.288H135.986z"/>
			<path d="M145.029,33.997c-1.607,0-2.809-0.526-3.609-1.579c-0.799-1.053-1.199-2.632-1.199-4.737
				c0-1.832,0.414-3.281,1.246-4.348c0.83-1.066,2.018-1.6,3.562-1.6c1.559,0,2.75,0.526,3.574,1.579
				c0.822,1.053,1.234,2.522,1.234,4.409c0,1.941-0.385,3.473-1.152,4.594C147.916,33.437,146.697,33.997,145.029,33.997z
				 M145.029,32.592c0.842,0,1.475-0.381,1.902-1.143s0.641-2.039,0.641-3.83c0-1.265-0.219-2.326-0.656-3.184
				s-1.066-1.287-1.887-1.287c-0.834,0-1.467,0.387-1.896,1.158c-0.432,0.773-0.646,1.877-0.646,3.312
				c0,1.613,0.215,2.846,0.646,3.696C143.562,32.167,144.195,32.592,145.029,32.592z"/>
			<path d="M155.355,33.997c-0.93,0-1.611-0.217-2.041-0.651c-0.432-0.434-0.646-1.126-0.646-2.076v-7.937H151.1v-0.82l3.189-3.251
				h0.562v2.646h2.902v1.425h-2.902v7.577c0,0.65,0.107,1.079,0.318,1.287c0.213,0.209,0.533,0.312,0.965,0.312
				c0.443,0,1.045-0.099,1.805-0.297v1.415C157.023,33.874,156.162,33.997,155.355,33.997z"/>
			<path d="M162.102,33.833h-2.184v-10.5h-1.363v-1.425h3.547V33.833z M161.016,17.725c0.334,0,0.623,0.123,0.867,0.369
				c0.242,0.246,0.363,0.536,0.363,0.871c0,0.342-0.119,0.635-0.359,0.877c-0.238,0.242-0.529,0.363-0.871,0.363
				c-0.35,0-0.643-0.121-0.883-0.363c-0.238-0.242-0.357-0.535-0.357-0.877c0-0.349,0.119-0.643,0.357-0.882
				C160.373,17.844,160.666,17.725,161.016,17.725z"/>
			<path d="M170.881,17.684v1.486c-0.643-0.205-1.18-0.308-1.611-0.308c-0.684,0-1.113,0.218-1.291,0.651s-0.268,1.232-0.268,2.395
				h2.186v1.425h-2.186v10.5h-2.184v-10.5h-1.445v-1.425h1.445c0-1.812,0.277-3.01,0.83-3.595c0.555-0.584,1.393-0.876,2.514-0.876
				C169.561,17.438,170.23,17.52,170.881,17.684z"/>
			<path d="M174.141,33.833h-2.184v-10.5h-1.363v-1.425h3.547V33.833z M173.055,17.725c0.334,0,0.623,0.123,0.867,0.369
				c0.242,0.246,0.363,0.536,0.363,0.871c0,0.342-0.119,0.635-0.359,0.877c-0.238,0.242-0.529,0.363-0.871,0.363
				c-0.35,0-0.643-0.121-0.883-0.363c-0.238-0.242-0.357-0.535-0.357-0.877c0-0.349,0.119-0.643,0.357-0.882
				C172.412,17.844,172.705,17.725,173.055,17.725z"/>
			<path d="M181.658,33.997c-1.621,0-2.844-0.531-3.672-1.595c-0.826-1.062-1.24-2.623-1.24-4.681c0-1.914,0.447-3.391,1.338-4.43
				c0.893-1.039,2.189-1.559,3.893-1.559c0.662,0,1.336,0.085,2.02,0.257v1.486c-0.52-0.164-1.166-0.246-1.938-0.246
				c-0.998,0-1.756,0.398-2.271,1.194c-0.516,0.797-0.775,1.909-0.775,3.338c0,1.538,0.26,2.714,0.775,3.527s1.273,1.22,2.271,1.22
				c0.861,0,1.533-0.078,2.02-0.235v1.415C183.346,33.895,182.539,33.997,181.658,33.997z"/>
			<path d="M192.086,32.11c-0.738,1.258-1.887,1.887-3.445,1.887c-1.086,0-1.932-0.306-2.537-0.918
				c-0.605-0.611-0.908-1.468-0.908-2.568c0-1.135,0.311-1.98,0.934-2.538c0.621-0.557,1.367-0.905,2.234-1.046
				c0.869-0.14,1.926-0.21,3.17-0.21v-1.404c0-1.389-0.742-2.082-2.227-2.082c-0.854,0-1.896,0.182-3.127,0.543v-1.527
				c1.238-0.342,2.414-0.513,3.527-0.513c1.312,0,2.309,0.316,2.99,0.948c0.68,0.633,1.02,1.564,1.02,2.795v8.356h-1.189
				L192.086,32.11z M191.533,28.02h-1.221c-0.979,0-1.711,0.207-2.199,0.62s-0.734,1.03-0.734,1.851c0,0.67,0.15,1.171,0.447,1.502
				c0.297,0.332,0.742,0.498,1.338,0.498c0.752,0,1.334-0.24,1.748-0.719s0.621-1.127,0.621-1.947V28.02z"/>
			<path d="M199.705,33.997c-0.93,0-1.611-0.217-2.041-0.651c-0.432-0.434-0.646-1.126-0.646-2.076v-7.937h-1.568v-0.82l3.189-3.251
				h0.562v2.646h2.902v1.425h-2.902v7.577c0,0.65,0.107,1.079,0.318,1.287c0.213,0.209,0.533,0.312,0.965,0.312
				c0.443,0,1.045-0.099,1.805-0.297v1.415C201.373,33.874,200.512,33.997,199.705,33.997z"/>
			<path d="M206.451,33.833h-2.184v-10.5h-1.363v-1.425h3.547V33.833z M205.365,17.725c0.334,0,0.623,0.123,0.867,0.369
				c0.242,0.246,0.363,0.536,0.363,0.871c0,0.342-0.119,0.635-0.359,0.877c-0.238,0.242-0.529,0.363-0.871,0.363
				c-0.35,0-0.643-0.121-0.883-0.363c-0.238-0.242-0.357-0.535-0.357-0.877c0-0.349,0.119-0.643,0.357-0.882
				C204.723,17.844,205.016,17.725,205.365,17.725z"/>
			<path d="M213.865,33.997c-1.605,0-2.809-0.526-3.609-1.579c-0.799-1.053-1.199-2.632-1.199-4.737
				c0-1.832,0.416-3.281,1.246-4.348s2.018-1.6,3.562-1.6c1.559,0,2.75,0.526,3.574,1.579s1.236,2.522,1.236,4.409
				c0,1.941-0.385,3.473-1.154,4.594S215.533,33.997,213.865,33.997z M213.865,32.592c0.842,0,1.477-0.381,1.902-1.143
				c0.428-0.762,0.641-2.039,0.641-3.83c0-1.265-0.219-2.326-0.656-3.184s-1.066-1.287-1.887-1.287
				c-0.834,0-1.465,0.387-1.896,1.158c-0.43,0.773-0.646,1.877-0.646,3.312c0,1.613,0.217,2.846,0.646,3.696
				C212.4,32.167,213.031,32.592,213.865,32.592z"/>
			<path d="M229.904,33.833h-2.186v-7.916c0-0.896-0.156-1.567-0.471-2.015s-0.787-0.672-1.416-0.672
				c-0.793,0-1.408,0.301-1.846,0.902s-0.656,1.385-0.656,2.348v7.353h-2.184V21.908h1.221l0.441,1.764
				c0.758-1.293,1.912-1.938,3.465-1.938c1.211,0,2.117,0.317,2.723,0.954c0.605,0.635,0.908,1.586,0.908,2.85V33.833z"/>
			<path d="M235.143,33.997c-0.895,0-1.916-0.134-3.064-0.399v-1.569c1.23,0.335,2.201,0.503,2.912,0.503
				c0.73,0,1.281-0.152,1.65-0.457c0.369-0.304,0.553-0.76,0.553-1.369c0-0.355-0.115-0.688-0.348-0.999s-0.814-0.692-1.744-1.144
				c-0.594-0.287-1.076-0.559-1.445-0.815c-0.369-0.256-0.684-0.601-0.943-1.035s-0.389-0.973-0.389-1.615
				c0-1.032,0.367-1.851,1.102-2.456c0.734-0.604,1.676-0.907,2.824-0.907c1.006,0,1.914,0.126,2.729,0.38v1.496
				c-0.855-0.293-1.686-0.44-2.492-0.44c-0.67,0-1.17,0.144-1.502,0.431s-0.498,0.718-0.498,1.292c0,0.301,0.107,0.583,0.318,0.846
				c0.213,0.264,0.742,0.597,1.59,1c0.615,0.287,1.125,0.565,1.527,0.836c0.404,0.271,0.744,0.636,1.021,1.097
				c0.275,0.462,0.414,1.041,0.414,1.738c0,1.176-0.363,2.068-1.092,2.676C237.537,33.693,236.496,33.997,235.143,33.997z"/>
		</g>
		<g id="meegotouch-new-items-counter-background-combined">
			
				<linearGradient id="SVGID_1_" gradientUnits="userSpaceOnUse" x1="-397.4995" y1="513.9004" x2="-397.4995" y2="483.9004" gradientTransform="matrix(-1 0 0 1 -214.5 -439.9004)">
				<stop  offset="0" style="stop-color:#33AADD"/>
				<stop  offset="0.2687" style="stop-color:#38ACDC"/>
				<stop  offset="0.5317" style="stop-color:#46B1D8"/>
				<stop  offset="0.7914" style="stop-color:#59B9D1"/>
				<stop  offset="1" style="stop-color:#6CC3C9"/>
			</linearGradient>
			<path style="fill:url(#SVGID_1_);" d="M198,58c0-7.732-6.27-14-14-14h-2c-7.73,0-14,6.268-14,14v2c0,7.732,6.27,14,14,14h2
				c7.73,0,14-6.268,14-14V58z"/>
		</g>
		<g id="meegotouch-new-items-counter-background-regular">
			
				<linearGradient id="_x3C_Path_x3E__1_" gradientUnits="userSpaceOnUse" x1="-437.769" y1="513.9004" x2="-437.769" y2="483.9004" gradientTransform="matrix(-1 0 0 1 -214.5 -439.9004)">
				<stop  offset="0" style="stop-color:#22A22D"/>
				<stop  offset="0.2221" style="stop-color:#2BA331"/>
				<stop  offset="0.4396" style="stop-color:#3FA73B"/>
				<stop  offset="0.6551" style="stop-color:#57AD4A"/>
				<stop  offset="0.8682" style="stop-color:#71B660"/>
				<stop  offset="1" style="stop-color:#83BE72"/>
			</linearGradient>
			<path id="_x3C_Path_x3E_" style="fill:url(#_x3C_Path_x3E__1_);" d="M238.27,58c0-7.732-6.269-14-14-14h-2
				c-7.73,0-14,6.268-14,14v2c0,7.732,6.27,14,14,14h2c7.731,0,14-6.268,14-14V58z"/>
		</g>
		<g id="meegotouch-notification-system-background-pressed">
			<g>
				<linearGradient id="SVGID_2_" gradientUnits="userSpaceOnUse" x1="126" y1="256" x2="126" y2="192">
					<stop  offset="0" style="stop-color:#FFFF00"/>
					<stop  offset="1" style="stop-color:#B8B800"/>
				</linearGradient>
				<rect x="94" y="192" style="fill:url(#SVGID_2_);" width="64" height="64"/>
			</g>
		</g>
		<g id="meegotouch-notification-system-background">
			<g>
				<linearGradient id="SVGID_3_" gradientUnits="userSpaceOnUse" x1="52" y1="256" x2="52" y2="192">
					<stop  offset="0" style="stop-color:#B8B800"/>
					<stop  offset="1" style="stop-color:#FFFF00"/>
				</linearGradient>
				<rect x="20" y="192" style="fill:url(#SVGID_3_);" width="64" height="64"/>
			</g>
		</g>
		<g id="meegotouch-notification-information-background-pressed">
			<linearGradient id="SVGID_4_" gradientUnits="userSpaceOnUse" x1="126" y1="182" x2="126" y2="118.0005">
				<stop  offset="0" style="stop-color:#0FE30D"/>
				<stop  offset="1" style="stop-color:#10A60F"/>
			</linearGradient>
			<rect x="94" y="118" style="fill:url(#SVGID_4_);" width="64" height="64"/>
		</g>
		<g id="meegotouch-notification-information-background">
			<linearGradient id="SVGID_5_" gradientUnits="userSpaceOnUse" x1="52" y1="182" x2="52" y2="118.0005">
				<stop  offset="0" style="stop-color:#10A60F"/>
				<stop  offset="1" style="stop-color:#0FE30D"/>
			</linearGradient>
			<rect x="20" y="118" style="fill:url(#SVGID_5_);" width="64" height="64"/>
		</g>
		<g id="meegotouch-notification-event-background-pressed">
			<g>
				<linearGradient id="SVGID_6_" gradientUnits="userSpaceOnUse" x1="126" y1="108" x2="126" y2="44">
					<stop  offset="0" style="stop-color:#29ABE2"/>
					<stop  offset="1" style="stop-color:#1D7399"/>
				</linearGradient>
				<rect x="94" y="44" style="fill:url(#SVGID_6_);" width="64" height="64"/>
			</g>
		</g>
		<g id="meegotouch-notification-event-background">
			<g>
				<linearGradient id="SVGID_7_" gradientUnits="userSpaceOnUse" x1="52" y1="108" x2="52" y2="44">
					<stop  offset="0" style="stop-color:#45A4D8"/>
					<stop  offset="1" style="stop-color:#85D8FF"/>
				</linearGradient>
				<rect x="20" y="44" style="fill:url(#SVGID_7_);" width="64" height="64"/>
			</g>
		</g>
	</g>
</g>
</svg>
