<?xml version="1.0" encoding="iso-8859-1"?>
<!-- Generator: Adobe Illustrator 14.0.0, SVG Export Plug-In . SVG Version: 6.00 Build 43363)  -->
<!DOCTYPE svg PUBLIC "-//W3C//DTD SVG 1.1//EN" "http://www.w3.org/Graphics/SVG/1.1/DTD/svg11.dtd">
<svg version="1.1" id="meegotouch-viewmenubuttons-layer"
	 xmlns="http://www.w3.org/2000/svg" xmlns:xlink="http://www.w3.org/1999/xlink" x="0px" y="0px" width="558px" height="700px"
	 viewBox="0 0 558 700" style="enable-background:new 0 0 558 700;" xml:space="preserve">
<g id="meegotouch-viewmenubuttons">
	<g id="MeegotouchViewMenuButtonsThemeTemplateHelper">
		<g>
			<path style="fill:#B3B3B3;" d="M16,699c-8.271,0-15-6.729-15-15V16C1,7.729,7.729,1,16,1h526c8.271,0,15,6.729,15,15v668
				c0,8.271-6.729,15-15,15H16z"/>
			<g>
				<path d="M542,2c7.72,0,14,6.28,14,14v668c0,7.72-6.28,14-14,14H16c-7.72,0-14-6.28-14-14V16C2,8.28,8.28,2,16,2H542 M542,0H16
					C7.2,0,0,7.2,0,16v668c0,8.8,7.2,16,16,16h526c8.8,0,16-7.2,16-16V16C558,7.2,550.8,0,542,0L542,0z"/>
			</g>
		</g>
		<path d="M232.934,40.374l-4.896,17.474h-2.783l-4.729-17.474h2.641l3.647,14.545l3.841-14.545H232.934z"/>
		<path d="M237.829,57.848h-2.496V45.895h-1.56v-1.68h4.056V57.848z M236.581,42.271c-0.792,0-1.416-0.624-1.416-1.416
			s0.624-1.416,1.416-1.416c0.769,0,1.417,0.647,1.417,1.416C237.998,41.646,237.373,42.271,236.581,42.271z"/>
		<path d="M250.55,57.464c-1.224,0.384-2.521,0.576-3.816,0.576c-4.417,0-5.688-3.072-5.688-7.033c0-3.408,1.344-6.984,5.28-6.984
			c4.44,0,4.729,4.128,4.729,7.561h-7.368c0,2.305,0.552,4.753,3.384,4.753c1.177,0,2.353-0.265,3.48-0.576V57.464z M248.605,50.047
			c0-1.536-0.119-4.345-2.28-4.345c-2.208,0-2.544,2.713-2.64,4.345H248.605z"/>
		<path d="M271.118,44.215l-3.673,13.633h-2.928l-2.664-10.993l-2.856,10.993h-2.88l-3.529-13.633h2.521l2.64,11.473l2.88-11.473
			h2.761l2.712,11.497l2.809-11.497H271.118z"/>
		<path d="M281.1,46.23c0.816-1.464,2.16-2.208,3.816-2.208c1.584,0,2.953,0.528,3.576,2.064c0.793-1.416,2.113-2.064,3.721-2.064
			c2.809,0,4.033,1.632,4.033,4.345v9.48h-2.496v-9.409c0-1.416-0.385-2.736-2.041-2.736c-2.064,0-2.736,1.992-2.736,3.721v8.425
			h-2.496v-9.409c0-1.392-0.432-2.736-2.088-2.736c-2.017,0-2.688,2.017-2.688,3.721v8.425h-2.496V44.215h1.392L281.1,46.23z"/>
		<path d="M308.772,57.464c-1.224,0.384-2.521,0.576-3.816,0.576c-4.417,0-5.688-3.072-5.688-7.033c0-3.408,1.344-6.984,5.28-6.984
			c4.44,0,4.729,4.128,4.729,7.561h-7.368c0,2.305,0.552,4.753,3.384,4.753c1.177,0,2.353-0.265,3.48-0.576V57.464z M306.828,50.047
			c0-1.536-0.119-4.345-2.28-4.345c-2.208,0-2.544,2.713-2.64,4.345H306.828z"/>
		<path d="M314.195,46.23c0.865-1.488,2.257-2.208,3.961-2.208c2.856,0,4.152,1.561,4.152,4.345v9.48h-2.496v-9.073
			c0-1.68-0.432-3.072-2.16-3.072c-2.112,0-2.856,1.921-2.856,3.721v8.425H312.3V44.215h1.392L314.195,46.23z"/>
		<path d="M333.973,55.831c-0.864,1.488-2.256,2.209-3.961,2.209c-2.855,0-4.152-1.561-4.152-4.345v-9.48h2.496v9.072
			c0,1.681,0.433,3.072,2.16,3.072c2.113,0,2.856-1.92,2.856-3.72v-8.425h2.497v13.633h-1.393L333.973,55.831z"/>
	</g>
	<g id="meegotouch-navigationbar-viewmenu-background">
		<path style="fill:#CCCCCC;" d="M538,100.5v53c0,5.5-4.5,10-10,10h-44c-5.5,0-10-4.5-10-10v-53H538z"/>
		<linearGradient id="SVGID_1_" gradientUnits="userSpaceOnUse" x1="506" y1="162.5" x2="506" y2="99.5">
			<stop  offset="0" style="stop-color:#29ABE2"/>
			<stop  offset="1" style="stop-color:#66C0EF"/>
		</linearGradient>
		<path style="fill:url(#SVGID_1_);" d="M538,99.5v53c0,5.5-4.5,10-10,10h-44c-5.5,0-10-4.5-10-10v-53H538z"/>
		<rect x="474" y="99.501" style="opacity:0;fill:#FFFFFF;" width="64" height="1"/>
	</g>
	<g id="meegotouch-viewmenu-background-pressed">
		<path style="fill:#CCCCCC;" d="M390,672c0,5.5-4.5,10-10,10h-44c-5.5,0-10-4.5-10-10v-42c0-5.5,4.5-10,10-10h44
			c5.5,0,10,4.5,10,10V672z"/>
		<path style="fill:#FFFFFF;" d="M390,670c0,5.5-4.5,10-10,10h-44c-5.5,0-10-4.5-10-10v-42c0-5.5,4.5-10,10-10h44
			c5.5,0,10,4.5,10,10V670z"/>
		<linearGradient id="SVGID_2_" gradientUnits="userSpaceOnUse" x1="358" y1="681" x2="358" y2="619">
			<stop  offset="0" style="stop-color:#B3B3B3"/>
			<stop  offset="1" style="stop-color:#4D4D4D"/>
		</linearGradient>
		<path style="fill:url(#SVGID_2_);" d="M390,671c0,5.5-4.5,10-10,10h-44c-5.5,0-10-4.5-10-10v-42c0-5.5,4.5-10,10-10h44
			c5.5,0,10,4.5,10,10V671z"/>
	</g>
	<g id="meegotouch-viewmenu-background-pressed-vertical-bottom">
		<path style="fill:#CCCCCC;" d="M390,545v53c0,5.5-4.5,10-10,10h-44c-5.5,0-10-4.5-10-10v-53H390z"/>
		<linearGradient id="SVGID_3_" gradientUnits="userSpaceOnUse" x1="358" y1="607" x2="358" y2="544">
			<stop  offset="0" style="stop-color:#B3B3B3"/>
			<stop  offset="1" style="stop-color:#4D4D4D"/>
		</linearGradient>
		<path style="fill:url(#SVGID_3_);" d="M390,544v53c0,5.5-4.5,10-10,10h-44c-5.5,0-10-4.5-10-10v-53H390z"/>
		<rect x="326" y="544.001" style="opacity:0;fill:#FFFFFF;" width="64" height="1"/>
	</g>
	<g id="meegotouch-viewmenu-background-pressed-vertical-center">
		<linearGradient id="SVGID_4_" gradientUnits="userSpaceOnUse" x1="358" y1="534" x2="358" y2="470">
			<stop  offset="0" style="stop-color:#B3B3B3"/>
			<stop  offset="1" style="stop-color:#4D4D4D"/>
		</linearGradient>
		<rect x="326" y="470" style="fill:url(#SVGID_4_);" width="64" height="64"/>
		<rect x="326" y="533" style="opacity:0.2;fill:#FFFFFF;" width="64" height="1"/>
		<rect x="326" y="470.001" style="opacity:0;fill:#FFFFFF;" width="64" height="1"/>
	</g>
	<g id="meegotouch-viewmenu-background-pressed-vertical-top">
		<linearGradient id="SVGID_5_" gradientUnits="userSpaceOnUse" x1="358" y1="460" x2="358" y2="396">
			<stop  offset="0" style="stop-color:#B3B3B3"/>
			<stop  offset="1" style="stop-color:#4D4D4D"/>
		</linearGradient>
		<rect x="326" y="396" style="fill:url(#SVGID_5_);" width="64" height="64"/>
		<rect x="326" y="459" style="opacity:0.2;fill:#FFFFFF;" width="64" height="1"/>
		<rect x="326" y="396.001" style="opacity:0;fill:#FFFFFF;" width="64" height="1"/>
	</g>
	<g id="meegotouch-viewmenu-background-pressed-horizontal-right">
		<path style="fill:#CCCCCC;" d="M454,386c5.5,0,10-4.5,10-10v-53h-64v63H454z"/>
		<linearGradient id="SVGID_6_" gradientUnits="userSpaceOnUse" x1="432" y1="385" x2="432" y2="322.0005">
			<stop  offset="0" style="stop-color:#B3B3B3"/>
			<stop  offset="1" style="stop-color:#4D4D4D"/>
		</linearGradient>
		<path style="fill:url(#SVGID_6_);" d="M454,385c5.5,0,10-4.5,10-10v-53h-64v63H454z"/>
		<rect x="400" y="322" style="opacity:0;fill:#FFFFFF;" width="1" height="63"/>
	</g>
	<g id="meegotouch-viewmenu-background-pressed-horizontal-center">
		<linearGradient id="SVGID_7_" gradientUnits="userSpaceOnUse" x1="358" y1="386" x2="358" y2="322.0005">
			<stop  offset="0" style="stop-color:#B3B3B3"/>
			<stop  offset="1" style="stop-color:#4D4D4D"/>
		</linearGradient>
		<rect x="326" y="322" style="fill:url(#SVGID_7_);" width="64" height="64"/>
		<rect x="326" y="385" style="fill:#CCCCCC;" width="64" height="1"/>
		<rect x="326" y="322" style="opacity:0;fill:#8DFF1F;" width="64" height="1"/>
		<rect x="389" y="323" style="opacity:0.2;fill:#FFFFFF;" width="1" height="62"/>
		<rect x="326" y="323" style="opacity:0;fill:#FFFFFF;" width="1" height="62"/>
	</g>
	<g id="meegotouch-viewmenu-background-pressed-horizontal-left">
		<path style="fill:#CCCCCC;" d="M252,376c0,5.5,4.5,10,10,10h54v-63h-64V376z"/>
		<linearGradient id="SVGID_8_" gradientUnits="userSpaceOnUse" x1="284" y1="385" x2="284" y2="322.0005">
			<stop  offset="0" style="stop-color:#B3B3B3"/>
			<stop  offset="1" style="stop-color:#4D4D4D"/>
		</linearGradient>
		<path style="fill:url(#SVGID_8_);" d="M252,375c0,5.5,4.5,10,10,10h54v-63h-64V375z"/>
		<rect x="315" y="322" style="opacity:0.2;fill:#FFFFFF;" width="1" height="63"/>
		<rect x="252" y="322" style="opacity:0;fill:#FFFFFF;" width="63" height="1"/>
	</g>
	<g id="meegotouch-viewmenu-background-pressed-bottom-right">
		<path style="fill:#CCCCCC;" d="M454,312c5.5,0,10-4.5,10-10v-53h-64v63H454z"/>
		<linearGradient id="SVGID_9_" gradientUnits="userSpaceOnUse" x1="432" y1="311" x2="432" y2="248">
			<stop  offset="0" style="stop-color:#B3B3B3"/>
			<stop  offset="1" style="stop-color:#4D4D4D"/>
		</linearGradient>
		<path style="fill:url(#SVGID_9_);" d="M454,311c5.5,0,10-4.5,10-10v-53h-64v63H454z"/>
		<rect x="400" y="248" style="opacity:0;fill:#FFFFFF;" width="1" height="63"/>
	</g>
	<g id="meegotouch-viewmenu-background-pressed-bottom-center">
		<linearGradient id="SVGID_10_" gradientUnits="userSpaceOnUse" x1="358" y1="312" x2="358" y2="248">
			<stop  offset="0" style="stop-color:#B3B3B3"/>
			<stop  offset="1" style="stop-color:#4D4D4D"/>
		</linearGradient>
		<rect x="326" y="248" style="fill:url(#SVGID_10_);" width="64" height="64"/>
		<rect x="326" y="311" style="fill:#CCCCCC;" width="64" height="1"/>
		<rect x="326" y="248" style="opacity:0;fill:#FFFFFF;" width="64" height="1"/>
		<rect x="389" y="248" style="opacity:0.2;fill:#FFFFFF;" width="1" height="63"/>
		<rect x="326" y="249" style="opacity:0;fill:#FFFFFF;" width="1" height="62"/>
	</g>
	<g id="meegotouch-viewmenu-background-pressed-bottom-left">
		<path style="fill:#CCCCCC;" d="M252,302c0,5.5,4.5,10,10,10h54v-63h-64V302z"/>
		<linearGradient id="SVGID_11_" gradientUnits="userSpaceOnUse" x1="284" y1="311" x2="284" y2="248">
			<stop  offset="0" style="stop-color:#B3B3B3"/>
			<stop  offset="1" style="stop-color:#4D4D4D"/>
		</linearGradient>
		<path style="fill:url(#SVGID_11_);" d="M252,301c0,5.5,4.5,10,10,10h54v-63h-64V301z"/>
		<rect x="315" y="248" style="opacity:0.2;fill:#FFFFFF;" width="1" height="63"/>
		<rect x="252" y="248" style="opacity:0;fill:#FFFFFF;" width="63" height="1"/>
	</g>
	<g id="meegotouch-viewmenu-background-pressed-center-right">
		<linearGradient id="SVGID_12_" gradientUnits="userSpaceOnUse" x1="432" y1="238" x2="432" y2="174">
			<stop  offset="0" style="stop-color:#B3B3B3"/>
			<stop  offset="1" style="stop-color:#4D4D4D"/>
		</linearGradient>
		<rect x="400" y="174" style="fill:url(#SVGID_12_);" width="64" height="64"/>
		<rect x="400" y="237" style="opacity:0.2;fill:#FFFFFF;" width="64" height="1"/>
		<rect x="400" y="174" style="opacity:0;fill:#FFFFFF;" width="64" height="1"/>
		<rect x="400" y="175" style="opacity:0;fill:#FFFFFF;" width="1" height="62"/>
	</g>
	<g id="meegotouch-viewmenu-background-pressed-center">
		<linearGradient id="SVGID_13_" gradientUnits="userSpaceOnUse" x1="358" y1="238" x2="358" y2="174">
			<stop  offset="0" style="stop-color:#B3B3B3"/>
			<stop  offset="1" style="stop-color:#4D4D4D"/>
		</linearGradient>
		<rect x="326" y="174" style="fill:url(#SVGID_13_);" width="64" height="64"/>
		<rect x="389" y="174" style="opacity:0.2;fill:#FFFFFF;" width="1" height="63"/>
		<rect x="326" y="175" style="opacity:0;fill:#FFFFFF;" width="1" height="62"/>
		<rect x="326" y="237" style="opacity:0.2;fill:#FFFFFF;" width="64" height="1"/>
		<rect x="326" y="174" style="opacity:0;fill:#FFFFFF;" width="64" height="1"/>
	</g>
	<g id="meegotouch-viewmenu-background-pressed-center-left">
		<linearGradient id="SVGID_14_" gradientUnits="userSpaceOnUse" x1="284" y1="238" x2="284" y2="174">
			<stop  offset="0" style="stop-color:#B3B3B3"/>
			<stop  offset="1" style="stop-color:#4D4D4D"/>
		</linearGradient>
		<rect x="252" y="174" style="fill:url(#SVGID_14_);" width="64" height="64"/>
		<rect x="315" y="174" style="opacity:0.2;fill:#FFFFFF;" width="1" height="63"/>
		<rect x="252" y="237" style="opacity:0.2;fill:#FFFFFF;" width="64" height="1"/>
		<rect x="252" y="174" style="opacity:0;fill:#CCCCCC;" width="64" height="1"/>
	</g>
	<g id="meegotouch-viewmenu-background-pressed-top-right">
		<linearGradient id="SVGID_15_" gradientUnits="userSpaceOnUse" x1="432" y1="164" x2="432" y2="100">
			<stop  offset="0" style="stop-color:#B3B3B3"/>
			<stop  offset="1" style="stop-color:#4D4D4D"/>
		</linearGradient>
		<rect x="400" y="100" style="fill:url(#SVGID_15_);" width="64" height="64"/>
		<rect x="463" y="100" style="opacity:0.2;fill:#FFFFFF;" width="1" height="63"/>
		<rect x="400" y="163" style="opacity:0.2;fill:#FFFFFF;" width="64" height="1"/>
		<rect x="400" y="100" style="opacity:0;fill:#CCCCCC;" width="64" height="1"/>
	</g>
	<g id="meegotouch-viewmenu-background-pressed-top-center">
		<linearGradient id="SVGID_16_" gradientUnits="userSpaceOnUse" x1="358" y1="164" x2="358" y2="100">
			<stop  offset="0" style="stop-color:#B3B3B3"/>
			<stop  offset="1" style="stop-color:#4D4D4D"/>
		</linearGradient>
		<rect x="326" y="100" style="fill:url(#SVGID_16_);" width="64" height="64"/>
		<rect x="389" y="100" style="opacity:0.2;fill:#FFFFFF;" width="1" height="63"/>
		<rect x="326" y="163" style="opacity:0.2;fill:#FFFFFF;" width="64" height="1"/>
		<rect x="326" y="100" style="opacity:0;fill:#CCCCCC;" width="64" height="1"/>
	</g>
	<g id="meegotouch-viewmenu-background-pressed-top-left">
		<linearGradient id="SVGID_17_" gradientUnits="userSpaceOnUse" x1="284" y1="164" x2="284" y2="100">
			<stop  offset="0" style="stop-color:#B3B3B3"/>
			<stop  offset="1" style="stop-color:#4D4D4D"/>
		</linearGradient>
		<rect x="252" y="100" style="fill:url(#SVGID_17_);" width="64" height="64"/>
		<rect x="315" y="100" style="opacity:0.2;fill:#FFFFFF;" width="1" height="63"/>
		<rect x="252" y="163" style="opacity:0.2;fill:#FFFFFF;" width="64" height="1"/>
		<rect x="252" y="100" style="opacity:0;fill:#CCCCCC;" width="64" height="1"/>
	</g>
	<g id="meegotouch-viewmenu-background">
		<path style="fill:#CCCCCC;" d="M158,672c0,5.5-4.5,10-10,10h-44c-5.5,0-10-4.5-10-10v-42c0-5.5,4.5-10,10-10h44
			c5.5,0,10,4.5,10,10V672z"/>
		<path style="fill:#FFFFFF;" d="M158,670c0,5.5-4.5,10-10,10h-44c-5.5,0-10-4.5-10-10v-42c0-5.5,4.5-10,10-10h44
			c5.5,0,10,4.5,10,10V670z"/>
		<linearGradient id="SVGID_18_" gradientUnits="userSpaceOnUse" x1="126" y1="681" x2="126" y2="619">
			<stop  offset="0" style="stop-color:#29ABE2"/>
			<stop  offset="1" style="stop-color:#7DD8FF"/>
		</linearGradient>
		<path style="fill:url(#SVGID_18_);" d="M158,671c0,5.5-4.5,10-10,10h-44c-5.5,0-10-4.5-10-10v-42c0-5.5,4.5-10,10-10h44
			c5.5,0,10,4.5,10,10V671z"/>
	</g>
	<g id="meegotouch-viewmenu-background-vertical-bottom">
		<path style="fill:#CCCCCC;" d="M158,545v53c0,5.5-4.5,10-10,10h-44c-5.5,0-10-4.5-10-10v-53H158z"/>
		<linearGradient id="SVGID_19_" gradientUnits="userSpaceOnUse" x1="126" y1="607" x2="126" y2="544">
			<stop  offset="0" style="stop-color:#29ABE2"/>
			<stop  offset="1" style="stop-color:#66C0EF"/>
		</linearGradient>
		<path style="fill:url(#SVGID_19_);" d="M158,544v53c0,5.5-4.5,10-10,10h-44c-5.5,0-10-4.5-10-10v-53H158z"/>
		<rect x="94" y="544.001" style="opacity:0;fill:#FFFFFF;" width="64" height="1"/>
	</g>
	<g id="meegotouch-viewmenu-background-vertical-center">
		<rect x="94" y="470" style="fill:#66C0EF;" width="64" height="64"/>
		<rect x="94" y="533" style="opacity:0.2;fill:#FFFFFF;" width="64" height="1"/>
		<rect x="94" y="470.001" style="opacity:0;fill:#FFFFFF;" width="64" height="1"/>
	</g>
	<g id="meegotouch-viewmenu-background-vertical-top">
		<rect x="94" y="396" style="fill:#66C0EF;" width="64" height="64"/>
		<rect x="94" y="459" style="opacity:0.2;fill:#FFFFFF;" width="64" height="1"/>
		<rect x="94" y="396.001" style="opacity:0;fill:#FFFFFF;" width="64" height="1"/>
	</g>
	<g id="meegotouch-viewmenu-background-horizontal-right">
		<path style="fill:#CCCCCC;" d="M222,386c5.5,0,10-4.5,10-10v-53h-64v63H222z"/>
		<linearGradient id="SVGID_20_" gradientUnits="userSpaceOnUse" x1="200" y1="385" x2="200" y2="322.0005">
			<stop  offset="0" style="stop-color:#29ABE2"/>
			<stop  offset="1" style="stop-color:#7DD8FF"/>
		</linearGradient>
		<path style="fill:url(#SVGID_20_);" d="M222,385c5.5,0,10-4.5,10-10v-53h-64v63H222z"/>
		<rect x="168" y="322" style="opacity:0;fill:#FFFFFF;" width="1" height="63"/>
	</g>
	<g id="meegotouch-viewmenu-background-horizontal-center">
		<linearGradient id="SVGID_21_" gradientUnits="userSpaceOnUse" x1="126" y1="386" x2="126" y2="322.0005">
			<stop  offset="0" style="stop-color:#29ABE2"/>
			<stop  offset="1" style="stop-color:#7DD8FF"/>
		</linearGradient>
		<rect x="94" y="322" style="fill:url(#SVGID_21_);" width="64" height="64"/>
		<rect x="94" y="385" style="fill:#CCCCCC;" width="64" height="1"/>
		<rect x="94" y="322" style="opacity:0;fill:#D5D5D5;" width="64" height="1"/>
		<rect x="157" y="323" style="opacity:0.2;fill:#FFFFFF;" width="1" height="62"/>
		<rect x="94" y="323" style="opacity:0;fill:#FFFFFF;" width="1" height="62"/>
	</g>
	<g id="meegotouch-viewmenu-background-horizontal-left">
		<path style="fill:#CCCCCC;" d="M20,376c0,5.5,4.5,10,10,10h54v-63H20V376z"/>
		<linearGradient id="SVGID_22_" gradientUnits="userSpaceOnUse" x1="52" y1="385" x2="52" y2="322.0005">
			<stop  offset="0" style="stop-color:#29ABE2"/>
			<stop  offset="1" style="stop-color:#7DD8FF"/>
		</linearGradient>
		<path style="fill:url(#SVGID_22_);" d="M20,375c0,5.5,4.5,10,10,10h54v-63H20V375z"/>
		<rect x="83" y="322" style="opacity:0.2;fill:#FFFFFF;" width="1" height="63"/>
		<rect x="20" y="322" style="opacity:0;fill:#FFFFFF;" width="63" height="1"/>
	</g>
	<g id="meegotouch-viewmenu-background-bottom-right">
		<path style="fill:#CCCCCC;" d="M222,312c5.5,0,10-4.5,10-10v-53h-64v63H222z"/>
		<linearGradient id="SVGID_23_" gradientUnits="userSpaceOnUse" x1="200" y1="311" x2="200" y2="248">
			<stop  offset="0" style="stop-color:#29ABE2"/>
			<stop  offset="1" style="stop-color:#66C0EF"/>
		</linearGradient>
		<path style="fill:url(#SVGID_23_);" d="M222,311c5.5,0,10-4.5,10-10v-53h-64v63H222z"/>
		<rect x="168" y="248" style="opacity:0;fill:#FFFFFF;" width="1" height="63"/>
	</g>
	<g id="meegotouch-viewmenu-background-bottom-center">
		<linearGradient id="SVGID_24_" gradientUnits="userSpaceOnUse" x1="126" y1="312" x2="126" y2="248">
			<stop  offset="0" style="stop-color:#29ABE2"/>
			<stop  offset="1" style="stop-color:#66C0EF"/>
		</linearGradient>
		<rect x="94" y="248" style="fill:url(#SVGID_24_);" width="64" height="64"/>
		<rect x="94" y="311" style="fill:#CCCCCC;" width="64" height="1"/>
		<rect x="94" y="248" style="opacity:0;fill:#FFFFFF;" width="64" height="1"/>
		<rect x="157" y="248" style="opacity:0.2;fill:#FFFFFF;" width="1" height="63"/>
		<rect x="94" y="249" style="opacity:0;fill:#FFFFFF;" width="1" height="62"/>
	</g>
	<g id="meegotouch-viewmenu-background-bottom-left">
		<path style="fill:#CCCCCC;" d="M20,302c0,5.5,4.5,10,10,10h54v-63H20V302z"/>
		<linearGradient id="SVGID_25_" gradientUnits="userSpaceOnUse" x1="52" y1="311" x2="52" y2="248">
			<stop  offset="0" style="stop-color:#29ABE2"/>
			<stop  offset="1" style="stop-color:#66C0EF"/>
		</linearGradient>
		<path style="fill:url(#SVGID_25_);" d="M20,301c0,5.5,4.5,10,10,10h54v-63H20V301z"/>
		<rect x="83" y="248" style="opacity:0.2;fill:#FFFFFF;" width="1" height="63"/>
		<rect x="20" y="248" style="opacity:0;fill:#FFFFFF;" width="63" height="1"/>
	</g>
	<g id="meegotouch-viewmenu-background-center-right">
		<rect x="168" y="174" style="fill:#66C0EF;" width="64" height="64"/>
		<rect x="168" y="237" style="opacity:0.2;fill:#FFFFFF;" width="64" height="1"/>
		<rect x="168" y="174" style="opacity:0;fill:#FFFFFF;" width="64" height="1"/>
		<rect x="168" y="175" style="opacity:0;fill:#FFFFFF;" width="1" height="62"/>
	</g>
	<g id="meegotouch-viewmenu-background-center">
		<rect x="94" y="174" style="fill:#66C0EF;" width="64" height="64"/>
		<rect x="157" y="174" style="opacity:0.2;fill:#FFFFFF;" width="1" height="63"/>
		<rect x="94" y="175" style="opacity:0;fill:#FFFFFF;" width="1" height="62"/>
		<rect x="94" y="237" style="opacity:0.2;fill:#FFFFFF;" width="64" height="1"/>
		<rect x="94" y="174" style="opacity:0;fill:#FFFFFF;" width="64" height="1"/>
	</g>
	<g id="meegotouch-viewmenu-background-center-left">
		<rect x="20" y="174" style="fill:#66C0EF;" width="64" height="64"/>
		<rect x="83" y="174" style="opacity:0.2;fill:#FFFFFF;" width="1" height="63"/>
		<rect x="20" y="237" style="opacity:0.2;fill:#FFFFFF;" width="64" height="1"/>
		<rect x="20" y="174" style="opacity:0;fill:#CCCCCC;" width="64" height="1"/>
	</g>
	<g id="meegotouch-viewmenu-background-top-right">
		<rect x="168" y="100" style="fill:#66C0EF;" width="64" height="64"/>
		<rect x="231" y="100" style="opacity:0;fill:#CDCDCD;" width="1" height="63"/>
		<rect x="168" y="163" style="opacity:0.2;fill:#FFFFFF;" width="64" height="1"/>
		<rect x="168" y="100" style="opacity:0;fill:#CCCCCC;" width="64" height="1"/>
	</g>
	<g id="meegotouch-viewmenu-background-top-center">
		<rect x="94" y="100" style="fill:#66C0EF;" width="64" height="64"/>
		<rect x="157" y="100" style="opacity:0.2;fill:#FFFFFF;" width="1" height="63"/>
		<rect x="94" y="163" style="opacity:0.2;fill:#FFFFFF;" width="64" height="1"/>
		<rect x="94" y="100" style="opacity:0;fill:#CCCCCC;" width="64" height="1"/>
	</g>
	<g id="meegotouch-viewmenu-background-top-left">
		<rect x="20" y="100" style="fill:#66C0EF;" width="64" height="64"/>
		<rect x="83" y="100" style="opacity:0.2;fill:#FFFFFF;" width="1" height="63"/>
		<rect x="20" y="163" style="opacity:0.2;fill:#FFFFFF;" width="64" height="1"/>
		<rect x="20" y="100" style="opacity:0;fill:#CCCCCC;" width="64" height="1"/>
	</g>
</g>
</svg>
