<?xml version="1.0" encoding="iso-8859-1"?>
<!-- Generator: Adobe Illustrator 14.0.0, SVG Export Plug-In . SVG Version: 6.00 Build 43363)  -->
<!DOCTYPE svg PUBLIC "-//W3C//DTD SVG 1.1//EN" "http://www.w3.org/Graphics/SVG/1.1/DTD/svg11.dtd">
<svg version="1.1" id="mail-layer" xmlns="http://www.w3.org/2000/svg" xmlns:xlink="http://www.w3.org/1999/xlink" x="0px" y="0px"
	 width="71px" height="30px" viewBox="0 0 71 30" style="enable-background:new 0 0 71 30;" xml:space="preserve">
<g id="mail">
	<g id="meegotouch-new-items-counter-background-combined">
		
			<linearGradient id="SVGID_1_" gradientUnits="userSpaceOnUse" x1="-272" y1="-16.9009" x2="-272" y2="13.0996" gradientTransform="matrix(-1 0 0 -1 -256 13.0996)">
			<stop  offset="0" style="stop-color:#33AADD"/>
			<stop  offset="0.2687" style="stop-color:#38ACDC"/>
			<stop  offset="0.5317" style="stop-color:#46B1D8"/>
			<stop  offset="0.7914" style="stop-color:#59B9D1"/>
			<stop  offset="1" style="stop-color:#6CC3C9"/>
		</linearGradient>
		<path style="fill:url(#SVGID_1_);" d="M31,14c0-7.732-6.269-14-14-14h-2C7.269,0,1,6.268,1,14v2c0,7.732,6.269,14,14,14h2
			c7.731,0,14-6.268,14-14V14z"/>
	</g>
	<g id="meegotouch-new-items-counter-background-regular">
		
			<linearGradient id="_x3C_Path_x3E__1_" gradientUnits="userSpaceOnUse" x1="-312.269" y1="-16.9009" x2="-312.269" y2="13.0996" gradientTransform="matrix(-1 0 0 -1 -256 13.0996)">
			<stop  offset="0" style="stop-color:#22A22D"/>
			<stop  offset="0.2221" style="stop-color:#2BA331"/>
			<stop  offset="0.4396" style="stop-color:#3FA73B"/>
			<stop  offset="0.6551" style="stop-color:#57AD4A"/>
			<stop  offset="0.8682" style="stop-color:#71B660"/>
			<stop  offset="1" style="stop-color:#83BE72"/>
		</linearGradient>
		<path id="_x3C_Path_x3E_" style="fill:url(#_x3C_Path_x3E__1_);" d="M71.27,14c0-7.732-6.269-14-14-14h-2c-7.731,0-14,6.268-14,14
			v2c0,7.732,6.269,14,14,14h2c7.731,0,14-6.268,14-14V14z"/>
	</g>
</g>
</svg>
