<?xml version="1.0" encoding="iso-8859-1"?>
<!-- Generator: Adobe Illustrator 14.0.0, SVG Export Plug-In . SVG Version: 6.00 Build 43363)  -->
<!DOCTYPE svg PUBLIC "-//W3C//DTD SVG 1.1//EN" "http://www.w3.org/Graphics/SVG/1.1/DTD/svg11.dtd">
<svg version="1.1" xmlns="http://www.w3.org/2000/svg" xmlns:xlink="http://www.w3.org/1999/xlink" x="0px" y="0px" width="200px"
	 height="730px" viewBox="0 0 200 730" style="enable-background:new 0 0 200 730;" xml:space="preserve">
<g id="meegotouch-panel-layer">
</g>
<g id="theme">
	<g id="meegotouch-panel">
		<g id="MeegoTouchPanelThemeTemplateHelper">
			<g>
				<path style="fill:#B3B3B3;" d="M16,729c-8.271,0-15-6.729-15-15V16C1,7.729,7.729,1,16,1h168c8.271,0,15,6.729,15,15v698
					c0,8.271-6.729,15-15,15H16z"/>
				<g>
					<path d="M184,2c7.72,0,14,6.28,14,14v698c0,7.72-6.28,14-14,14H16c-7.72,0-14-6.28-14-14V16C2,8.28,8.28,2,16,2H184 M184,0H16
						C7.2,0,0,7.2,0,16v698c0,8.8,7.2,16,16,16h168c8.8,0,16-7.2,16-16V16C200,7.2,192.8,0,184,0L184,0z"/>
				</g>
			</g>
			<g>
				<path d="M79.867,10.487h4.629c1.828,0,3.16,0.428,3.996,1.283s1.254,2.229,1.254,4.119c0,1.852-0.502,3.273-1.506,4.266
					s-2.436,1.488-4.295,1.488h-1.559v6.316h-2.52V10.487z M82.387,12.163v7.781h1.418c1.141,0,1.98-0.303,2.52-0.908
					s0.809-1.631,0.809-3.076s-0.248-2.439-0.744-2.982s-1.271-0.814-2.326-0.814H82.387z"/>
				<path d="M98.969,25.991c-0.844,1.438-2.156,2.156-3.938,2.156c-1.242,0-2.209-0.35-2.9-1.049s-1.037-1.678-1.037-2.936
					c0-1.297,0.355-2.264,1.066-2.9s1.562-1.035,2.555-1.195s2.199-0.24,3.621-0.24v-1.605c0-1.586-0.848-2.379-2.543-2.379
					c-0.977,0-2.168,0.207-3.574,0.621v-1.746c1.414-0.391,2.758-0.586,4.031-0.586c1.5,0,2.639,0.361,3.416,1.084
					s1.166,1.787,1.166,3.193v9.551h-1.359L98.969,25.991z M98.336,21.315h-1.395c-1.117,0-1.955,0.236-2.514,0.709
					s-0.838,1.178-0.838,2.115c0,0.766,0.17,1.338,0.51,1.717s0.85,0.568,1.529,0.568c0.859,0,1.525-0.273,1.998-0.82
					s0.709-1.289,0.709-2.227V21.315z"/>
				<path d="M114.203,27.96h-2.496v-9.047c0-1.023-0.18-1.791-0.539-2.303s-0.898-0.768-1.617-0.768
					c-0.906,0-1.609,0.344-2.109,1.031s-0.75,1.582-0.75,2.684v8.402h-2.496V14.331h1.395l0.504,2.016
					c0.867-1.477,2.188-2.215,3.961-2.215c1.383,0,2.42,0.363,3.111,1.09s1.037,1.812,1.037,3.258V27.96z"/>
				<path d="M126.496,25.874v1.699c-1.227,0.383-2.496,0.574-3.809,0.574c-1.906,0-3.332-0.574-4.277-1.723
					s-1.418-2.918-1.418-5.309c0-2.102,0.457-3.791,1.371-5.068s2.219-1.916,3.914-1.916c1.375,0,2.408,0.365,3.1,1.096
					s1.135,1.625,1.33,2.684S127,20.229,127,21.69h-7.359c0,1.586,0.281,2.775,0.844,3.568s1.406,1.189,2.531,1.189
					C123.969,26.448,125.129,26.257,126.496,25.874z M119.641,20.155h4.91c0-1.648-0.195-2.812-0.586-3.492s-0.953-1.02-1.688-1.02
					c-0.82,0-1.447,0.352-1.881,1.055S119.711,18.554,119.641,20.155z"/>
				<path d="M129.777,27.96V9.409h2.496V27.96H129.777z"/>
			</g>
		</g>
		<g id="meegotouch-messagingui-contactcard-background">
			<g>
				<path style="opacity:0.1;fill:#66C0EF;" d="M156,682c0,4.4-3.6,8-8,8H68c-4.4,0-8-3.6-8-8v-80c0-4.4,3.6-8,8-8h80
					c4.4,0,8,3.6,8,8V682z"/>
			</g>
			<g>
				<path style="opacity:0.1;fill:#66C0EF;" d="M152,682c0,2.2-1.8,4-4,4H68c-2.2,0-4-1.8-4-4v-80c0-2.2,1.8-4,4-4h80
					c2.2,0,4,1.8,4,4V682z"/>
			</g>
			<g style="opacity:0.5;">
				<path d="M147,603v78H69v-78H147 M148,602H68v80h80V602L148,602z"/>
			</g>
			<g>
				<rect x="69" y="603" style="fill:#FFFFFF;" width="78" height="78"/>
			</g>
		</g>
		<g id="meegotouch-contact-card-background">
			<rect x="74" y="510" style="opacity:0.96;" width="64" height="64"/>
		</g>
		<g id="meegotouch-panel-inverted-background-selected">
			<linearGradient id="SVGID_1_" gradientUnits="userSpaceOnUse" x1="106" y1="471" x2="106" y2="407">
				<stop  offset="0" style="stop-color:#29ABE2"/>
				<stop  offset="1" style="stop-color:#7DD8FF"/>
			</linearGradient>
			<rect x="74" y="407" style="fill:url(#SVGID_1_);" width="64" height="64"/>
			<rect x="74" y="470" style="opacity:0.2;" width="64" height="1"/>
			<rect x="74" y="407" style="opacity:0.2;fill:#FFFFFF;" width="64" height="1"/>
		</g>
		<g id="meegotouch-panel-inverted-background-pressed">
			<linearGradient id="SVGID_2_" gradientUnits="userSpaceOnUse" x1="106" y1="397" x2="106" y2="333.0005">
				<stop  offset="0" style="stop-color:#B3B3B3"/>
				<stop  offset="1" style="stop-color:#4D4D4D"/>
			</linearGradient>
			<rect x="74" y="333" style="fill:url(#SVGID_2_);" width="64" height="64"/>
			<rect x="74" y="396" style="fill:#FFFFFF;" width="64" height="1"/>
			<rect x="74" y="333" style="fill:#333333;" width="64" height="1"/>
		</g>
		<g id="meegotouch-panel-inverted-background">
			<rect x="74" y="259" style="opacity:0.96;" width="64" height="64"/>
			<rect x="74" y="322" style="opacity:0.2;" width="64" height="1"/>
			<rect x="74" y="259" style="opacity:0.2;fill:#FFFFFF;" width="64" height="1"/>
		</g>
		<g id="meegotouch-panel-background-selected">
			<linearGradient id="SVGID_3_" gradientUnits="userSpaceOnUse" x1="106" y1="252" x2="106" y2="188">
				<stop  offset="0" style="stop-color:#29ABE2"/>
				<stop  offset="1" style="stop-color:#7DD8FF"/>
			</linearGradient>
			<rect x="74" y="188" style="fill:url(#SVGID_3_);" width="64" height="64"/>
			<rect x="74" y="251" style="opacity:0.2;" width="64" height="1"/>
			<rect x="74" y="188" style="opacity:0.2;fill:#FFFFFF;" width="64" height="1"/>
		</g>
		<g id="meegotouch-panel-background-pressed">
			<rect x="74" y="116" style="fill:#FFFFFF;" width="64" height="62"/>
			<rect x="74" y="114" style="fill:#333333;" width="64" height="62"/>
			<linearGradient id="SVGID_4_" gradientUnits="userSpaceOnUse" x1="106" y1="177" x2="106" y2="115">
				<stop  offset="0" style="stop-color:#B3B3B3"/>
				<stop  offset="1" style="stop-color:#4D4D4D"/>
			</linearGradient>
			<rect x="74" y="115" style="fill:url(#SVGID_4_);" width="64" height="62"/>
		</g>
		<g id="meegotouch-panel-background">
			<rect x="74" y="42" style="fill:#CCCCCC;" width="64" height="62"/>
			<rect x="74" y="40" style="fill:#FFFFFF;" width="64" height="62"/>
			<rect x="74" y="41" style="fill:#F2F2F2;" width="64" height="62"/>
		</g>
	</g>
</g>
</svg>
