<?xml version="1.0" encoding="iso-8859-1"?>
<!-- Generator: Adobe Illustrator 14.0.0, SVG Export Plug-In . SVG Version: 6.00 Build 43363)  -->
<!DOCTYPE svg PUBLIC "-//W3C//DTD SVG 1.1//EN" "http://www.w3.org/Graphics/SVG/1.1/DTD/svg11.dtd">
<svg version="1.1" xmlns="http://www.w3.org/2000/svg" xmlns:xlink="http://www.w3.org/1999/xlink" x="0px" y="0px" width="350px"
	 height="300px" viewBox="0 0 350 300" style="enable-background:new 0 0 350 300;" xml:space="preserve">
<g id="meegotouch-switch-layer">
</g>
<g id="theme">
	<g id="meegotouch-switch">
		<g id="MeegoTouchSwithThemeTemplateHelper">
			<g>
				<path style="fill:#B3B3B3;" d="M16,299c-8.271,0-15-6.729-15-15V16C1,7.729,7.729,1,16,1h318c8.271,0,15,6.729,15,15v268
					c0,8.271-6.729,15-15,15H16z"/>
				<g>
					<path d="M334,2c7.72,0,14,6.28,14,14v268c0,7.72-6.28,14-14,14H16c-7.72,0-14-6.28-14-14V16C2,8.28,8.28,2,16,2H334 M334,0H16
						C7.2,0,0,7.2,0,16v268c0,8.8,7.2,16,16,16h318c8.8,0,16-7.2,16-16V16C350,7.2,342.8,0,334,0L334,0z"/>
				</g>
			</g>
			<path style="fill:#010101;" d="M148.541,34.497c-1.025,0-2.047-0.14-3.066-0.421v-1.589c1.121,0.321,2.123,0.481,3.004,0.481
				c0.943,0,1.691-0.211,2.242-0.635c0.549-0.424,0.824-1.033,0.824-1.826c0-0.506-0.107-0.934-0.322-1.286
				s-0.494-0.651-0.836-0.897s-0.838-0.557-1.486-0.934c-0.773-0.443-1.383-0.838-1.83-1.184c-0.449-0.346-0.822-0.786-1.123-1.323
				c-0.301-0.536-0.451-1.188-0.451-1.953c0-1.299,0.432-2.298,1.297-2.999s2.041-1.051,3.531-1.051
				c0.979,0,1.895,0.102,2.748,0.307v1.539c-0.957-0.213-1.824-0.318-2.604-0.318c-0.814,0-1.475,0.197-1.984,0.59
				s-0.764,0.938-0.764,1.635c0,0.451,0.135,0.883,0.404,1.293c0.271,0.41,1.004,0.963,2.199,1.66
				c0.779,0.451,1.395,0.848,1.842,1.189s0.826,0.779,1.139,1.312c0.311,0.533,0.465,1.173,0.465,1.918
				C153.77,33,152.027,34.497,148.541,34.497z"/>
			<path style="fill:#010101;" d="M170.793,22.408l-3.211,11.925h-2.562l-2.328-9.618l-2.502,9.618h-2.521l-3.088-11.925h2.205
				l2.318,10.038l2.521-10.038h2.41l2.369,10.059l2.461-10.059H170.793z"/>
			<path style="fill:#010101;" d="M174.975,34.333h-2.184v-10.5h-1.363v-1.425h3.547V34.333z M173.889,18.225
				c0.334,0,0.623,0.123,0.867,0.369c0.242,0.246,0.363,0.536,0.363,0.871c0,0.342-0.119,0.635-0.359,0.877
				c-0.238,0.242-0.529,0.363-0.871,0.363c-0.35,0-0.643-0.121-0.883-0.363c-0.238-0.242-0.357-0.535-0.357-0.877
				c0-0.349,0.119-0.643,0.357-0.882C173.246,18.344,173.539,18.225,173.889,18.225z"/>
			<path style="fill:#010101;" d="M181.127,34.497c-0.93,0-1.609-0.217-2.039-0.651c-0.432-0.434-0.646-1.126-0.646-2.076v-7.937
				h-1.568v-0.82l3.188-3.251h0.564v2.646h2.902v1.425h-2.902v7.577c0,0.65,0.105,1.079,0.318,1.287
				c0.211,0.209,0.533,0.312,0.963,0.312c0.445,0,1.047-0.099,1.805-0.297v1.415C182.795,34.374,181.934,34.497,181.127,34.497z"/>
			<path style="fill:#010101;" d="M189.619,34.497c-1.621,0-2.846-0.531-3.672-1.595c-0.828-1.062-1.24-2.623-1.24-4.681
				c0-1.914,0.445-3.391,1.338-4.43s2.189-1.559,3.891-1.559c0.664,0,1.336,0.085,2.021,0.257v1.486
				c-0.521-0.164-1.166-0.246-1.939-0.246c-0.998,0-1.754,0.398-2.271,1.194c-0.516,0.797-0.773,1.909-0.773,3.338
				c0,1.538,0.258,2.714,0.773,3.527c0.518,0.813,1.273,1.22,2.271,1.22c0.861,0,1.535-0.078,2.021-0.235v1.415
				C191.307,34.395,190.5,34.497,189.619,34.497z"/>
			<path style="fill:#010101;" d="M202.744,34.333h-2.186v-8.11c0-0.828-0.156-1.449-0.471-1.867
				c-0.314-0.416-0.787-0.625-1.416-0.625c-0.793,0-1.408,0.301-1.846,0.902s-0.656,1.385-0.656,2.348v7.353h-2.184V18.102h2.184
				v5.455c0.76-0.883,1.74-1.323,2.943-1.323c1.211,0,2.117,0.323,2.723,0.969c0.605,0.646,0.908,1.612,0.908,2.897V34.333z"/>
		</g>
		<g id="meegotouch-button-switch-colorstripe">
			<g id="_x3C_Path_x3E__2_">
				<linearGradient id="SVGID_1_" gradientUnits="userSpaceOnUse" x1="60" y1="251" x2="60" y2="207">
					<stop  offset="0" style="stop-color:#74CCD4"/>
					<stop  offset="0.1301" style="stop-color:#66C2D6"/>
					<stop  offset="0.4156" style="stop-color:#4BB5DC"/>
					<stop  offset="0.7046" style="stop-color:#35ADDF"/>
					<stop  offset="1" style="stop-color:#2AAAE2"/>
				</linearGradient>
				<rect x="24" y="207" style="fill:url(#SVGID_1_);" width="72" height="44"/>
			</g>
			<g id="_x3C_Path_x3E__3_">
				<linearGradient id="SVGID_2_" gradientUnits="userSpaceOnUse" x1="132" y1="251" x2="132" y2="207">
					<stop  offset="0" style="stop-color:#808080"/>
					<stop  offset="1" style="stop-color:#1A1A1A"/>
				</linearGradient>
				<rect x="96" y="207" style="fill:url(#SVGID_2_);" width="72" height="44"/>
			</g>
		</g>
		<g id="meegotouch-button-switch-mask">
			<rect x="24" y="157.584" style="fill:none;" width="72" height="44"/>
			<g id="Normal_71_">
				<path style="fill:#FFFFFF;" d="M95,179.584c0,11-9,20-20,20H45c-11,0-20-9-20-20l0,0c0-11,9-20,20-20h30
					C86,159.584,95,168.584,95,179.584L95,179.584z"/>
			</g>
		</g>
		<g id="meegotouch-button-switch-background">
			<g id="Normal_70_" style="opacity:0.1;">
				<path style="fill:#010101;" d="M96,130.584c0,11.55-9.45,21-21,21H45c-11.55,0-21-9.45-21-21v-2c0-11.55,9.45-21,21-21h30
					c11.55,0,21,9.45,21,21V130.584z"/>
			</g>
			<g id="Normal_55_">
				<path style="fill:#FFFFFF;" d="M95,130.584c0,11-9,20-20,20H45c-11,0-20-9-20-20l0,0c0-11,9-20,20-20h30
					C86,110.584,95,119.584,95,130.584L95,130.584z"/>
			</g>
			<g id="Normal_54_">
				<path style="fill:#333333;" d="M95,128.584c0,11-9,20-20,20H45c-11,0-20-9-20-20l0,0c0-11,9-20,20-20h30
					C86,108.584,95,117.584,95,128.584L95,128.584z"/>
			</g>
		</g>
		<g id="meegotouch-button-switch-thumb">
			<rect id="_x3C_Path_x3E__5_" x="24" y="57.584" style="fill:none;" width="44" height="44"/>
			<g id="Normal_53_">
				<linearGradient id="SVGID_3_" gradientUnits="userSpaceOnUse" x1="46" y1="99.084" x2="46" y2="60.084">
					<stop  offset="0" style="stop-color:#E6E6E6"/>
					<stop  offset="0.5042" style="stop-color:#F2F2F2"/>
					<stop  offset="1" style="stop-color:#F7F7F7"/>
				</linearGradient>
				<path style="fill:url(#SVGID_3_);" d="M46,99.084c-10.752,0-19.5-8.748-19.5-19.5s8.748-19.5,19.5-19.5s19.5,8.748,19.5,19.5
					S56.752,99.084,46,99.084L46,99.084z"/>
				<path style="fill:#FFFFFF;" d="M46,60.584c10.477,0,19,8.523,19,19s-8.523,19-19,19s-19-8.523-19-19S35.523,60.584,46,60.584
					 M46,59.584c-11,0-20,9-20,20s9,20,20,20s20-9,20-20S57,59.584,46,59.584L46,59.584z"/>
			</g>
		</g>
	</g>
</g>
</svg>
