<?xml version="1.0" encoding="iso-8859-1"?>
<!-- Generator: Adobe Illustrator 14.0.0, SVG Export Plug-In . SVG Version: 6.00 Build 43363)  -->
<!DOCTYPE svg PUBLIC "-//W3C//DTD SVG 1.1//EN" "http://www.w3.org/Graphics/SVG/1.1/DTD/svg11.dtd">
<svg version="1.1" xmlns="http://www.w3.org/2000/svg" xmlns:xlink="http://www.w3.org/1999/xlink" x="0px" y="0px" width="350px"
	 height="580px" viewBox="0 0 350 580" style="enable-background:new 0 0 350 580;" xml:space="preserve">
<g id="meegotouch-viewmenubuttons-layer">
</g>
<g id="theme">
	<g id="meegotouch-viewmenubuttons">
		<g id="MeegoTouchViewMenuButtonThemeTemplateHelper">
			<g>
				<path style="fill:#B3B3B3;" d="M16,579c-8.271,0-15-6.729-15-15V16C1,7.729,7.729,1,16,1h318c8.271,0,15,6.729,15,15v548
					c0,8.271-6.729,15-15,15H16z"/>
				<path d="M334,2c7.72,0,14,6.28,14,14v548c0,7.72-6.28,14-14,14H16c-7.72,0-14-6.28-14-14V16C2,8.28,8.28,2,16,2H334 M334,0H16
					C7.2,0,0,7.2,0,16v548c0,8.8,7.2,16,16,16h318c8.8,0,16-7.2,16-16V16C350,7.2,342.8,0,334,0L334,0z"/>
			</g>
			<path style="fill:#010101;" d="M129.523,33.551l-4.143-15.289h2.307l3.199,12.726l3.354-12.726h2l-4.287,15.289H129.523z"/>
			<path style="fill:#010101;" d="M140.31,33.551h-2.184v-10.5h-1.363v-1.426h3.547V33.551z M139.224,17.441
				c0.334,0,0.623,0.123,0.866,0.369c0.242,0.246,0.364,0.537,0.364,0.872c0,0.342-0.12,0.634-0.359,0.877s-0.53,0.364-0.871,0.364
				c-0.35,0-0.644-0.121-0.883-0.364s-0.358-0.535-0.358-0.877c0-0.349,0.119-0.643,0.358-0.882S138.874,17.441,139.224,17.441z"/>
			<path style="fill:#010101;" d="M151.231,31.726v1.487c-1.074,0.334-2.185,0.502-3.333,0.502c-1.668,0-2.916-0.502-3.743-1.508
				c-0.827-1.004-1.24-2.553-1.24-4.645c0-1.839,0.4-3.317,1.199-4.435c0.801-1.118,1.941-1.677,3.426-1.677
				c1.202,0,2.106,0.32,2.712,0.959c0.604,0.639,0.992,1.422,1.163,2.348c0.171,0.927,0.257,2.029,0.257,3.307h-6.439
				c0,1.389,0.246,2.43,0.738,3.123s1.23,1.041,2.215,1.041C149.02,32.229,150.034,32.061,151.231,31.726z M145.232,26.722h4.296
				c0-1.442-0.171-2.461-0.512-3.056c-0.343-0.595-0.835-0.893-1.477-0.893c-0.719,0-1.267,0.309-1.646,0.924
				C145.515,24.312,145.294,25.32,145.232,26.722z"/>
			<path style="fill:#010101;" d="M169.012,21.625l-3.21,11.926h-2.563l-2.328-9.618l-2.502,9.618h-2.521L152.8,21.625h2.204
				l2.318,10.039l2.521-10.039h2.41l2.369,10.06l2.461-10.06H169.012z"/>
			<path style="fill:#010101;" d="M190.575,33.551h-2.185v-8.213c0-0.793-0.148-1.39-0.446-1.79c-0.297-0.399-0.743-0.6-1.338-0.6
				c-0.766,0-1.355,0.301-1.769,0.902c-0.414,0.602-0.62,1.384-0.62,2.349v7.352h-2.185v-8.213c0-0.793-0.152-1.39-0.456-1.79
				c-0.305-0.399-0.761-0.6-1.369-0.6c-0.752,0-1.333,0.304-1.743,0.913c-0.41,0.607-0.615,1.387-0.615,2.338v7.352h-2.185V21.625
				h1.221l0.441,1.764c0.73-1.291,1.846-1.938,3.342-1.938c0.793,0,1.451,0.15,1.975,0.451c0.522,0.301,0.907,0.752,1.153,1.354
				c0.677-1.203,1.76-1.805,3.251-1.805c1.175,0,2.057,0.318,2.645,0.953c0.588,0.637,0.883,1.586,0.883,2.852V33.551z"/>
			<path style="fill:#010101;" d="M201.332,31.726v1.487c-1.074,0.334-2.185,0.502-3.333,0.502c-1.668,0-2.916-0.502-3.743-1.508
				c-0.827-1.004-1.24-2.553-1.24-4.645c0-1.839,0.4-3.317,1.199-4.435c0.801-1.118,1.941-1.677,3.426-1.677
				c1.202,0,2.106,0.32,2.712,0.959c0.604,0.639,0.992,1.422,1.163,2.348c0.171,0.927,0.257,2.029,0.257,3.307h-6.439
				c0,1.389,0.246,2.43,0.738,3.123s1.23,1.041,2.215,1.041C199.12,32.229,200.135,32.061,201.332,31.726z M195.333,26.722h4.296
				c0-1.442-0.171-2.461-0.512-3.056c-0.343-0.595-0.835-0.893-1.477-0.893c-0.719,0-1.267,0.309-1.646,0.924
				C195.615,24.312,195.395,25.32,195.333,26.722z"/>
			<path style="fill:#010101;" d="M212.96,33.551h-2.185v-7.916c0-0.896-0.157-1.566-0.472-2.015s-0.786-0.672-1.415-0.672
				c-0.793,0-1.408,0.301-1.846,0.902s-0.656,1.384-0.656,2.349v7.352h-2.185V21.625h1.221l0.441,1.764
				c0.758-1.291,1.913-1.938,3.465-1.938c1.211,0,2.118,0.318,2.723,0.953c0.605,0.637,0.908,1.586,0.908,2.852V33.551z"/>
			<path style="fill:#010101;" d="M219.501,33.715c-1.217,0-2.128-0.316-2.732-0.948c-0.605-0.632-0.908-1.581-0.908-2.846v-8.296
				h2.185v7.916c0,0.896,0.157,1.568,0.472,2.016s0.789,0.672,1.426,0.672c0.792,0,1.406-0.301,1.84-0.902
				c0.435-0.602,0.651-1.385,0.651-2.349v-7.353h2.185v11.926h-1.211l-0.44-1.764C222.208,33.072,221.053,33.715,219.501,33.715z"/>
		</g>
		<g id="meegotouch-navigationbar-viewmenu-background">
			<linearGradient id="SVGID_1_" gradientUnits="userSpaceOnUse" x1="274" y1="572" x2="274" y2="508">
				<stop  offset="0" style="stop-color:#D2D3D3"/>
				<stop  offset="1" style="stop-color:#F2F2F2"/>
			</linearGradient>
			<rect x="242" y="508" style="fill:url(#SVGID_1_);" width="64" height="64"/>
			<rect x="242" y="566" style="fill:#63AF45;" width="64" height="6"/>
		</g>
		<g id="meegotouch-viewmenu-background-pressed-vertical-bottom">
			<linearGradient id="SVGID_2_" gradientUnits="userSpaceOnUse" x1="274" y1="496" x2="274" y2="432">
				<stop  offset="0" style="stop-color:#B3B3B3"/>
				<stop  offset="1" style="stop-color:#4D4D4D"/>
			</linearGradient>
			<rect x="242" y="432" style="fill:url(#SVGID_2_);" width="64" height="64"/>
			<rect x="242" y="490" style="fill:#63AF45;" width="64" height="6"/>
		</g>
		<g id="meegotouch-viewmenu-background-pressed-vertical-center">
			<linearGradient id="SVGID_3_" gradientUnits="userSpaceOnUse" x1="274" y1="422" x2="274" y2="358">
				<stop  offset="0" style="stop-color:#B3B3B3"/>
				<stop  offset="1" style="stop-color:#4D4D4D"/>
			</linearGradient>
			<rect x="242" y="358" style="fill:url(#SVGID_3_);" width="64" height="64"/>
		</g>
		<g id="meegotouch-viewmenu-background-pressed-vertical-top">
			<linearGradient id="SVGID_4_" gradientUnits="userSpaceOnUse" x1="274" y1="348" x2="274" y2="284.0005">
				<stop  offset="0" style="stop-color:#B3B3B3"/>
				<stop  offset="1" style="stop-color:#4D4D4D"/>
			</linearGradient>
			<rect x="242" y="284" style="fill:url(#SVGID_4_);" width="64" height="64"/>
			<rect x="242" y="284" style="fill:#63AF45;" width="64" height="6"/>
		</g>
		<g id="meegotouch-viewmenu-background-vertical-bottom">
			<rect x="242" y="208" style="opacity:0;fill:#010101;" width="64" height="64"/>
			<rect x="242" y="266" style="fill:#63AF45;" width="64" height="6"/>
		</g>
		<g id="meegotouch-viewmenu-background-vertical-center" style="opacity:0;">
			<rect x="242" y="134" style="opacity:0;fill:#010101;" width="64" height="64"/>
		</g>
		<g id="meegotouch-viewmenu-background-vertical-top">
			<rect x="242" y="60" style="opacity:0;fill:#010101;" width="64" height="64"/>
			<rect x="242" y="60" style="fill:#63AF45;" width="64" height="6"/>
		</g>
		<g id="meegotouch-viewmenu-background-pressed-bottom-right">
			<linearGradient id="SVGID_5_" gradientUnits="userSpaceOnUse" x1="200" y1="496" x2="200" y2="432">
				<stop  offset="0" style="stop-color:#B3B3B3"/>
				<stop  offset="1" style="stop-color:#4D4D4D"/>
			</linearGradient>
			<rect x="168" y="432" style="fill:url(#SVGID_5_);" width="64" height="64"/>
			<rect x="168" y="490" style="fill:#63AF45;" width="64" height="6"/>
		</g>
		<g id="meegotouch-viewmenu-background-pressed-bottom-center">
			<linearGradient id="SVGID_6_" gradientUnits="userSpaceOnUse" x1="126" y1="496" x2="126" y2="432">
				<stop  offset="0" style="stop-color:#B3B3B3"/>
				<stop  offset="1" style="stop-color:#4D4D4D"/>
			</linearGradient>
			<rect x="94" y="432" style="fill:url(#SVGID_6_);" width="64" height="64"/>
			<rect x="94" y="490" style="fill:#63AF45;" width="64" height="6"/>
		</g>
		<g id="meegotouch-viewmenu-background-pressed-bottom-left">
			<linearGradient id="SVGID_7_" gradientUnits="userSpaceOnUse" x1="52" y1="496" x2="52" y2="432">
				<stop  offset="0" style="stop-color:#B3B3B3"/>
				<stop  offset="1" style="stop-color:#4D4D4D"/>
			</linearGradient>
			<rect x="20" y="432" style="fill:url(#SVGID_7_);" width="64" height="64"/>
			<rect x="20" y="490" style="fill:#63AF45;" width="64" height="6"/>
		</g>
		<g id="meegotouch-viewmenu-background-pressed-center-right">
			<linearGradient id="SVGID_8_" gradientUnits="userSpaceOnUse" x1="200" y1="422" x2="200" y2="358">
				<stop  offset="0" style="stop-color:#B3B3B3"/>
				<stop  offset="1" style="stop-color:#4D4D4D"/>
			</linearGradient>
			<rect x="168" y="358" style="fill:url(#SVGID_8_);" width="64" height="64"/>
		</g>
		<g id="meegotouch-viewmenu-background-pressed-center">
			<linearGradient id="SVGID_9_" gradientUnits="userSpaceOnUse" x1="126" y1="422" x2="126" y2="358">
				<stop  offset="0" style="stop-color:#B3B3B3"/>
				<stop  offset="1" style="stop-color:#4D4D4D"/>
			</linearGradient>
			<rect x="94" y="358" style="fill:url(#SVGID_9_);" width="64" height="64"/>
		</g>
		<g id="meegotouch-viewmenu-background-pressed-center-left">
			<linearGradient id="SVGID_10_" gradientUnits="userSpaceOnUse" x1="52" y1="422" x2="52" y2="358">
				<stop  offset="0" style="stop-color:#B3B3B3"/>
				<stop  offset="1" style="stop-color:#4D4D4D"/>
			</linearGradient>
			<rect x="20" y="358" style="fill:url(#SVGID_10_);" width="64" height="64"/>
		</g>
		<g id="meegotouch-viewmenu-background-pressed-top-right">
			<linearGradient id="SVGID_11_" gradientUnits="userSpaceOnUse" x1="200" y1="348" x2="200" y2="284.0005">
				<stop  offset="0" style="stop-color:#B3B3B3"/>
				<stop  offset="1" style="stop-color:#4D4D4D"/>
			</linearGradient>
			<rect x="168" y="284" style="fill:url(#SVGID_11_);" width="64" height="64"/>
			<rect x="168" y="284" style="fill:#63AF45;" width="64" height="6"/>
		</g>
		<g id="meegotouch-viewmenu-background-pressed-top-center">
			<linearGradient id="SVGID_12_" gradientUnits="userSpaceOnUse" x1="126" y1="348" x2="126" y2="284.0005">
				<stop  offset="0" style="stop-color:#B3B3B3"/>
				<stop  offset="1" style="stop-color:#4D4D4D"/>
			</linearGradient>
			<rect x="94" y="284" style="fill:url(#SVGID_12_);" width="64" height="64"/>
			<rect x="94" y="284" style="fill:#63AF45;" width="64" height="6"/>
		</g>
		<g id="meegotouch-viewmenu-background-pressed-top-left">
			<linearGradient id="SVGID_13_" gradientUnits="userSpaceOnUse" x1="52" y1="348" x2="52" y2="284.0005">
				<stop  offset="0" style="stop-color:#B3B3B3"/>
				<stop  offset="1" style="stop-color:#4D4D4D"/>
			</linearGradient>
			<rect x="20" y="284" style="fill:url(#SVGID_13_);" width="64" height="64"/>
			<rect x="20" y="284" style="fill:#63AF45;" width="64" height="6"/>
		</g>
		<g id="meegotouch-viewmenu-background-bottom-right">
			<rect x="168" y="208" style="opacity:0;fill:#010101;" width="64" height="64"/>
			<rect x="168" y="266" style="fill:#63AF45;" width="64" height="6"/>
		</g>
		<g id="meegotouch-viewmenu-background-bottom-center">
			<rect x="94" y="208" style="opacity:0;fill:#010101;" width="64" height="64"/>
			<rect x="94" y="266" style="fill:#63AF45;" width="64" height="6"/>
			<rect x="157" y="208" style="opacity:0.2;fill:#010101;" width="1" height="58"/>
		</g>
		<g id="meegotouch-viewmenu-background-bottom-left">
			<rect x="20" y="208" style="opacity:0;fill:#010101;" width="64" height="64"/>
			<rect x="20" y="266" style="fill:#63AF45;" width="64" height="6"/>
			<rect x="83" y="208" style="opacity:0.2;fill:#010101;" width="1" height="58"/>
		</g>
		<g id="meegotouch-viewmenu-background-center-right" style="opacity:0;">
			<rect x="168" y="134" style="opacity:0;fill:#010101;" width="64" height="64"/>
		</g>
		<g id="meegotouch-viewmenu-background-center">
			<rect x="94" y="134" style="opacity:0;fill:#010101;" width="64" height="64"/>
			<rect x="157" y="134" style="opacity:0.2;fill:#010101;" width="1" height="64"/>
		</g>
		<g id="meegotouch-viewmenu-background-center-left">
			<rect x="20" y="134" style="opacity:0;fill:#010101;" width="64" height="64"/>
			<rect x="83" y="134" style="opacity:0.2;fill:#010101;" width="1" height="64"/>
		</g>
		<g id="meegotouch-viewmenu-background-top-right">
			<rect x="168" y="60" style="opacity:0;fill:#010101;" width="64" height="64"/>
			<rect x="168" y="60" style="fill:#63AF45;" width="64" height="6"/>
		</g>
		<g id="meegotouch-viewmenu-background-top-center">
			<rect x="94" y="60" style="opacity:0;fill:#010101;" width="64" height="64"/>
			<rect x="94" y="60" style="fill:#63AF45;" width="64" height="6"/>
			<rect x="157" y="66" style="opacity:0.2;fill:#010101;" width="1" height="58"/>
		</g>
		<g id="meegotouch-viewmenu-background-top-left">
			<rect x="20" y="60" style="opacity:0;fill:#010101;" width="64" height="64"/>
			<rect x="20" y="60" style="fill:#63AF45;" width="64" height="6"/>
			<rect x="83" y="66" style="opacity:0.2;fill:#010101;" width="1" height="58"/>
		</g>
	</g>
</g>
</svg>
