<?xml version="1.0" encoding="iso-8859-1"?>
<!-- Generator: Adobe Illustrator 14.0.0, SVG Export Plug-In . SVG Version: 6.00 Build 43363)  -->
<!DOCTYPE svg PUBLIC "-//W3C//DTD SVG 1.1//EN" "http://www.w3.org/Graphics/SVG/1.1/DTD/svg11.dtd">
<svg version="1.1" id="meegotouch-button-layer" xmlns="http://www.w3.org/2000/svg" xmlns:xlink="http://www.w3.org/1999/xlink"
	 x="0px" y="0px" width="350px" height="700px" viewBox="0 0 350 700" style="enable-background:new 0 0 350 700;"
	 xml:space="preserve">
<g id="meegotouch-button">
	<g id="MeegoTouchButtonThemeTemplateHelper">
		<g>
			<path style="fill:#B3B3B3;" d="M16,699c-8.271,0-15-6.729-15-15V16C1,7.729,7.729,1,16,1h318c8.271,0,15,6.729,15,15v668
				c0,8.271-6.729,15-15,15H16z"/>
			<g>
				<path d="M334,2c7.72,0,14,6.28,14,14v668c0,7.72-6.28,14-14,14H16c-7.72,0-14-6.28-14-14V16C2,8.28,8.28,2,16,2H334 M334,0H16
					C7.2,0,0,7.2,0,16v668c0,8.8,7.2,16,16,16h318c8.8,0,16-7.2,16-16V16C350,7.2,342.8,0,334,0L334,0z"/>
			</g>
		</g>
		<path d="M79.297,34.333h-4.152V19.045h4.471c2.83,0,4.244,1.233,4.244,3.701c0,1.75-0.799,2.926-2.398,3.527
			c1.906,0.431,2.859,1.682,2.859,3.753C84.32,32.897,82.646,34.333,79.297,34.333z M77.348,25.658h1.59
			c0.916,0,1.59-0.219,2.02-0.656c0.432-0.438,0.646-1.121,0.646-2.051c0-1.613-0.783-2.42-2.348-2.42h-1.908V25.658z
			 M77.348,32.846h1.846c0.998,0,1.721-0.223,2.164-0.671c0.445-0.448,0.666-1.185,0.666-2.21c0-1.887-0.957-2.83-2.871-2.83h-1.805
			V32.846z"/>
		<path d="M90.176,34.497c-1.217,0-2.127-0.315-2.732-0.948s-0.908-1.581-0.908-2.846v-8.295h2.186v7.916
			c0,0.895,0.156,1.566,0.471,2.015s0.789,0.671,1.426,0.671c0.793,0,1.406-0.301,1.84-0.902c0.436-0.602,0.652-1.384,0.652-2.348
			v-7.352h2.184v11.925h-1.211l-0.439-1.764C92.883,33.854,91.729,34.497,90.176,34.497z"/>
		<path d="M101.322,34.497c-0.93,0-1.609-0.217-2.039-0.651c-0.432-0.434-0.646-1.126-0.646-2.076v-7.937h-1.568v-0.82l3.188-3.251
			h0.564v2.646h2.902v1.425h-2.902v7.577c0,0.65,0.105,1.079,0.318,1.287c0.211,0.209,0.533,0.312,0.963,0.312
			c0.445,0,1.047-0.099,1.805-0.297v1.415C102.99,34.374,102.129,34.497,101.322,34.497z"/>
		<path d="M108.613,34.497c-0.93,0-1.609-0.217-2.039-0.651c-0.432-0.434-0.646-1.126-0.646-2.076v-7.937h-1.568v-0.82l3.188-3.251
			h0.564v2.646h2.902v1.425h-2.902v7.577c0,0.65,0.105,1.079,0.318,1.287c0.211,0.209,0.533,0.312,0.963,0.312
			c0.445,0,1.047-0.099,1.805-0.297v1.415C110.281,34.374,109.42,34.497,108.613,34.497z"/>
		<path d="M117.002,34.497c-1.607,0-2.809-0.526-3.609-1.579c-0.799-1.053-1.199-2.632-1.199-4.737c0-1.832,0.414-3.281,1.246-4.348
			c0.83-1.066,2.018-1.6,3.562-1.6c1.559,0,2.75,0.526,3.574,1.579c0.822,1.053,1.234,2.522,1.234,4.409
			c0,1.941-0.385,3.473-1.152,4.594C119.889,33.937,118.67,34.497,117.002,34.497z M117.002,33.092c0.842,0,1.475-0.381,1.902-1.143
			s0.641-2.039,0.641-3.83c0-1.265-0.219-2.326-0.656-3.184s-1.066-1.287-1.887-1.287c-0.834,0-1.467,0.387-1.896,1.158
			c-0.432,0.773-0.646,1.877-0.646,3.312c0,1.613,0.215,2.846,0.646,3.696C115.535,32.667,116.168,33.092,117.002,33.092z"/>
		<path d="M133.039,34.333h-2.184v-7.916c0-0.896-0.158-1.567-0.473-2.015s-0.785-0.672-1.414-0.672
			c-0.793,0-1.408,0.301-1.846,0.902s-0.656,1.385-0.656,2.348v7.353h-2.186V22.408h1.221l0.441,1.764
			c0.758-1.293,1.914-1.938,3.465-1.938c1.211,0,2.119,0.317,2.723,0.954c0.605,0.635,0.908,1.586,0.908,2.85V34.333z"/>
		<path d="M147.139,32.61c-0.738,1.258-1.887,1.887-3.445,1.887c-1.088,0-1.934-0.306-2.539-0.918
			c-0.604-0.611-0.906-1.468-0.906-2.568c0-1.135,0.311-1.98,0.934-2.538c0.621-0.557,1.365-0.905,2.234-1.046
			c0.867-0.14,1.924-0.21,3.168-0.21v-1.404c0-1.389-0.742-2.082-2.225-2.082c-0.855,0-1.896,0.182-3.127,0.543v-1.527
			c1.236-0.342,2.412-0.513,3.527-0.513c1.312,0,2.309,0.316,2.988,0.948c0.68,0.633,1.021,1.564,1.021,2.795v8.356h-1.189
			L147.139,32.61z M146.584,28.52h-1.219c-0.979,0-1.711,0.207-2.201,0.62c-0.488,0.413-0.732,1.03-0.732,1.851
			c0,0.67,0.148,1.171,0.445,1.502c0.299,0.332,0.744,0.498,1.34,0.498c0.75,0,1.334-0.24,1.748-0.719
			c0.412-0.479,0.619-1.127,0.619-1.947V28.52z"/>
		<path d="M160.469,34.333h-2.186v-7.916c0-0.896-0.156-1.567-0.471-2.015s-0.787-0.672-1.416-0.672
			c-0.793,0-1.408,0.301-1.846,0.902s-0.656,1.385-0.656,2.348v7.353h-2.184V22.408h1.221l0.441,1.764
			c0.758-1.293,1.912-1.938,3.465-1.938c1.211,0,2.117,0.317,2.723,0.954c0.605,0.635,0.908,1.586,0.908,2.85V34.333z"/>
		<path d="M170.865,34.333l-0.461-1.466c-0.631,1.086-1.707,1.63-3.23,1.63c-1.416,0-2.48-0.501-3.195-1.502
			c-0.713-1.001-1.07-2.565-1.07-4.691c0-1.784,0.381-3.241,1.143-4.373s1.844-1.697,3.246-1.697c1.148,0,2.01,0.345,2.584,1.036
			v-5.168h2.184v16.231H170.865z M169.953,28.898l-0.012-0.677c0-1.777-0.199-2.978-0.6-3.599c-0.4-0.623-0.969-0.934-1.707-0.934
			c-0.82,0-1.436,0.379-1.846,1.139c-0.41,0.758-0.615,1.896-0.615,3.414c0,1.593,0.197,2.785,0.596,3.578
			c0.395,0.793,0.99,1.189,1.783,1.189c0.771,0,1.365-0.287,1.779-0.861S169.953,30.491,169.953,28.898z"/>
		<path d="M184.432,34.497c-1.621,0-2.846-0.531-3.672-1.595c-0.828-1.062-1.24-2.623-1.24-4.681c0-1.914,0.445-3.391,1.338-4.43
			s2.189-1.559,3.891-1.559c0.664,0,1.336,0.085,2.021,0.257v1.486c-0.521-0.164-1.166-0.246-1.939-0.246
			c-0.998,0-1.754,0.398-2.271,1.194c-0.516,0.797-0.773,1.909-0.773,3.338c0,1.538,0.258,2.714,0.773,3.527
			c0.518,0.813,1.273,1.22,2.271,1.22c0.861,0,1.535-0.078,2.021-0.235v1.415C186.119,34.395,185.312,34.497,184.432,34.497z"/>
		<path d="M197.557,34.333h-2.186v-8.11c0-0.828-0.156-1.449-0.471-1.867c-0.314-0.416-0.787-0.625-1.416-0.625
			c-0.793,0-1.408,0.301-1.846,0.902s-0.656,1.385-0.656,2.348v7.353h-2.184V18.102h2.184v5.455c0.76-0.883,1.74-1.323,2.943-1.323
			c1.211,0,2.117,0.323,2.723,0.969c0.605,0.646,0.908,1.612,0.908,2.897V34.333z"/>
		<path d="M208.312,32.508v1.486c-1.074,0.336-2.186,0.503-3.334,0.503c-1.668,0-2.916-0.503-3.742-1.507
			c-0.828-1.006-1.24-2.554-1.24-4.646c0-1.839,0.4-3.317,1.199-4.435c0.801-1.118,1.941-1.677,3.426-1.677
			c1.201,0,2.105,0.319,2.711,0.959s0.992,1.422,1.164,2.348c0.17,0.927,0.256,2.028,0.256,3.308h-6.439
			c0,1.387,0.246,2.428,0.738,3.122s1.23,1.04,2.215,1.04C206.1,33.01,207.115,32.843,208.312,32.508z M202.312,27.504h4.297
			c0-1.442-0.172-2.461-0.512-3.056c-0.344-0.595-0.836-0.892-1.477-0.892c-0.719,0-1.268,0.307-1.646,0.922
			S202.375,26.103,202.312,27.504z"/>
		<path d="M215.592,34.497c-1.621,0-2.844-0.531-3.672-1.595c-0.826-1.062-1.24-2.623-1.24-4.681c0-1.914,0.447-3.391,1.338-4.43
			c0.893-1.039,2.189-1.559,3.893-1.559c0.662,0,1.336,0.085,2.02,0.257v1.486c-0.52-0.164-1.166-0.246-1.938-0.246
			c-0.998,0-1.756,0.398-2.271,1.194c-0.516,0.797-0.775,1.909-0.775,3.338c0,1.538,0.26,2.714,0.775,3.527s1.273,1.22,2.271,1.22
			c0.861,0,1.533-0.078,2.02-0.235v1.415C217.279,34.395,216.473,34.497,215.592,34.497z"/>
		<path d="M224.482,27.596l4.348,6.737h-2.584l-4.102-6.491v6.491h-2.186V18.102h2.186v9.699l4.039-5.393h2.389L224.482,27.596z"/>
		<path d="M245.227,34.333h-2.186v-8.214c0-0.793-0.148-1.389-0.445-1.789c-0.297-0.399-0.744-0.6-1.338-0.6
			c-0.766,0-1.355,0.301-1.77,0.902s-0.619,1.385-0.619,2.348v7.353h-2.186v-8.214c0-0.793-0.152-1.389-0.455-1.789
			c-0.305-0.399-0.762-0.6-1.369-0.6c-0.752,0-1.334,0.305-1.744,0.912c-0.41,0.609-0.615,1.389-0.615,2.338v7.353h-2.184V22.408
			h1.221l0.441,1.764c0.73-1.293,1.846-1.938,3.342-1.938c0.793,0,1.451,0.15,1.975,0.451c0.521,0.301,0.906,0.752,1.152,1.354
			c0.678-1.203,1.76-1.805,3.252-1.805c1.174,0,2.057,0.317,2.645,0.954c0.588,0.635,0.883,1.586,0.883,2.85V34.333z"/>
		<path d="M254.352,32.61c-0.738,1.258-1.887,1.887-3.445,1.887c-1.088,0-1.934-0.306-2.539-0.918
			c-0.604-0.611-0.906-1.468-0.906-2.568c0-1.135,0.311-1.98,0.934-2.538c0.621-0.557,1.365-0.905,2.234-1.046
			c0.867-0.14,1.924-0.21,3.168-0.21v-1.404c0-1.389-0.742-2.082-2.225-2.082c-0.855,0-1.896,0.182-3.127,0.543v-1.527
			c1.236-0.342,2.412-0.513,3.527-0.513c1.312,0,2.309,0.316,2.988,0.948c0.68,0.633,1.021,1.564,1.021,2.795v8.356h-1.189
			L254.352,32.61z M253.797,28.52h-1.219c-0.979,0-1.711,0.207-2.201,0.62c-0.488,0.413-0.732,1.03-0.732,1.851
			c0,0.67,0.148,1.171,0.445,1.502c0.299,0.332,0.744,0.498,1.34,0.498c0.75,0,1.334-0.24,1.748-0.719
			c0.412-0.479,0.619-1.127,0.619-1.947V28.52z"/>
		<path d="M260.145,22.408l0.502,1.988c0.662-1.4,1.818-2.102,3.467-2.102c0.217,0,0.379,0.01,0.48,0.031v1.988
			c-0.17-0.014-0.428-0.02-0.768-0.02c-0.938,0-1.625,0.224-2.062,0.671c-0.438,0.448-0.656,1.147-0.656,2.097v7.271h-2.184V22.408
			H260.145z"/>
		<path d="M270.941,27.596l4.348,6.737h-2.584l-4.102-6.491v6.491h-2.184V18.102h2.184v9.699l4.041-5.393h2.389L270.941,27.596z"/>
	</g>
	<g id="meegotouch-button-checkbox-checkmark-pressed">
		<rect x="198" y="627.487" style="opacity:0;fill:#FFFFFF;" width="48" height="48"/>
		<g>
			<polygon style="fill:#808080;" points="207.637,653.568 210.849,649.498 217.187,657.533 233.151,637.295 236.363,641.371 
				217.187,665.68 			"/>
			<path style="fill:#4D4D4D;" d="M233.151,638.103l2.575,3.269l-18.54,23.501l-8.913-11.304l2.575-3.264l5.553,7.04l0.785,0.995
				l0.785-0.995L233.151,638.103 M233.151,636.487l-15.965,20.238l-6.338-8.035L207,653.568l10.187,12.919L237,641.371
				L233.151,636.487L233.151,636.487z"/>
		</g>
	</g>
	<g id="meegotouch-button-checkbox-checkmark">
		<rect x="140" y="627.487" style="opacity:0;fill:#FFFFFF;" width="48" height="48"/>
		<g>
			<polygon style="fill:#FFFFFF;" points="149.637,653.568 152.849,649.498 159.187,657.533 175.151,637.295 178.363,641.371 
				159.187,665.68 			"/>
			<path style="fill:#808080;" d="M175.151,638.103l2.576,3.269l-18.54,23.501l-8.913-11.304l2.575-3.264l5.553,7.04l0.785,0.995
				l0.785-0.995L175.151,638.103 M175.151,636.487l-15.965,20.238l-6.338-8.035L149,653.568l10.187,12.919L179,641.371
				L175.151,636.487L175.151,636.487z"/>
		</g>
	</g>
	<g id="meegotouch-button-checkbox-background-pressed">
		<g>
			<path style="fill:#FFFFFF;" d="M130,666.487c0,5.5-4.5,10-10,10H92c-5.5,0-10-4.5-10-10v-26c0-5.5,4.5-10,10-10h28
				c5.5,0,10,4.5,10,10V666.487z"/>
		</g>
		<g>
			<path style="fill:#333333;" d="M130,664.487c0,5.5-4.5,10-10,10H92c-5.5,0-10-4.5-10-10v-26c0-5.5,4.5-10,10-10h28
				c5.5,0,10,4.5,10,10V664.487z"/>
		</g>
		<g>
			<linearGradient id="SVGID_1_" gradientUnits="userSpaceOnUse" x1="106" y1="675.4873" x2="106" y2="629.4873">
				<stop  offset="0" style="stop-color:#B3B3B3"/>
				<stop  offset="1" style="stop-color:#4D4D4D"/>
			</linearGradient>
			<path style="fill:url(#SVGID_1_);" d="M130,665.487c0,5.5-4.5,10-10,10H92c-5.5,0-10-4.5-10-10v-26c0-5.5,4.5-10,10-10h28
				c5.5,0,10,4.5,10,10V665.487z"/>
		</g>
	</g>
	<g id="meegotouch-button-checkbox-background">
		<g>
			<path style="fill:#808080;" d="M72,666.487c0,5.5-4.5,10-10,10H34c-5.5,0-10-4.5-10-10v-26c0-5.5,4.5-10,10-10h28
				c5.5,0,10,4.5,10,10V666.487z"/>
		</g>
		<g>
			<path style="fill:#FFFFFF;" d="M72,664.487c0,5.5-4.5,10-10,10H34c-5.5,0-10-4.5-10-10v-26c0-5.5,4.5-10,10-10h28
				c5.5,0,10,4.5,10,10V664.487z"/>
		</g>
		<g>
			<linearGradient id="SVGID_2_" gradientUnits="userSpaceOnUse" x1="48" y1="675.4873" x2="48" y2="629.4873">
				<stop  offset="0" style="stop-color:#D2D2D2"/>
				<stop  offset="1" style="stop-color:#F2F2F2"/>
			</linearGradient>
			<path style="fill:url(#SVGID_2_);" d="M72,665.487c0,5.5-4.5,10-10,10H34c-5.5,0-10-4.5-10-10v-26c0-5.5,4.5-10,10-10h28
				c5.5,0,10,4.5,10,10V665.487z"/>
		</g>
	</g>
	<g id="meegotouch-button-negative-background-selected">
		<g>
			<path style="fill:#808080;" d="M188,592.487c0,5.5-4.5,10-10,10h-28c-5.5,0-10-4.5-10-10v-26c0-5.5,4.5-10,10-10h28
				c5.5,0,10,4.5,10,10V592.487z"/>
		</g>
		<g>
			<path style="fill:#FFFFFF;" d="M188,590.487c0,5.5-4.5,10-10,10h-28c-5.5,0-10-4.5-10-10v-26c0-5.5,4.5-10,10-10h28
				c5.5,0,10,4.5,10,10V590.487z"/>
		</g>
		<g>
			<linearGradient id="SVGID_3_" gradientUnits="userSpaceOnUse" x1="164.0005" y1="601.4873" x2="164.0005" y2="555.4873">
				<stop  offset="0" style="stop-color:#A9140F"/>
				<stop  offset="1" style="stop-color:#FF0D0D"/>
			</linearGradient>
			<path style="fill:url(#SVGID_3_);" d="M188,591.487c0,5.5-4.5,10-10,10h-28c-5.5,0-10-4.5-10-10v-26c0-5.5,4.5-10,10-10h28
				c5.5,0,10,4.5,10,10V591.487z"/>
		</g>
		<g style="opacity:0.2;">
			<path d="M188,591.487c0,5.5-4.5,10-10,10h-28c-5.5,0-10-4.5-10-10v-26c0-5.5,4.5-10,10-10h28c5.5,0,10,4.5,10,10V591.487z"/>
		</g>
	</g>
	<g id="meegotouch-button-negative-background-pressed">
		<g>
			<path style="fill:#FFFFFF;" d="M130,592.487c0,5.5-4.5,10-10,10H92c-5.5,0-10-4.5-10-10v-26c0-5.5,4.5-10,10-10h28
				c5.5,0,10,4.5,10,10V592.487z"/>
		</g>
		<g>
			<path style="fill:#333333;" d="M130,590.487c0,5.5-4.5,10-10,10H92c-5.5,0-10-4.5-10-10v-26c0-5.5,4.5-10,10-10h28
				c5.5,0,10,4.5,10,10V590.487z"/>
		</g>
		<g>
			<linearGradient id="SVGID_4_" gradientUnits="userSpaceOnUse" x1="106" y1="601.4873" x2="106" y2="555.4873">
				<stop  offset="0" style="stop-color:#B3B3B3"/>
				<stop  offset="1" style="stop-color:#4D4D4D"/>
			</linearGradient>
			<path style="fill:url(#SVGID_4_);" d="M130,591.487c0,5.5-4.5,10-10,10H92c-5.5,0-10-4.5-10-10v-26c0-5.5,4.5-10,10-10h28
				c5.5,0,10,4.5,10,10V591.487z"/>
		</g>
	</g>
	<g id="meegotouch-button-negative-background">
		<g>
			<path style="fill:#808080;" d="M72,592.487c0,5.5-4.5,10-10,10H34c-5.5,0-10-4.5-10-10v-26c0-5.5,4.5-10,10-10h28
				c5.5,0,10,4.5,10,10V592.487z"/>
		</g>
		<g>
			<path style="fill:#FFFFFF;" d="M72,590.487c0,5.5-4.5,10-10,10H34c-5.5,0-10-4.5-10-10v-26c0-5.5,4.5-10,10-10h28
				c5.5,0,10,4.5,10,10V590.487z"/>
		</g>
		<g>
			<linearGradient id="SVGID_5_" gradientUnits="userSpaceOnUse" x1="48" y1="601.4873" x2="48" y2="555.4873">
				<stop  offset="0" style="stop-color:#A9140F"/>
				<stop  offset="1" style="stop-color:#FF0D0D"/>
			</linearGradient>
			<path style="fill:url(#SVGID_5_);" d="M72,591.487c0,5.5-4.5,10-10,10H34c-5.5,0-10-4.5-10-10v-26c0-5.5,4.5-10,10-10h28
				c5.5,0,10,4.5,10,10V591.487z"/>
		</g>
	</g>
	<g id="meegotouch-button-positive-background-selected">
		<g>
			<path style="fill:#808080;" d="M188,532.487c0,5.5-4.5,10-10,10h-28c-5.5,0-10-4.5-10-10v-26c0-5.5,4.5-10,10-10h28
				c5.5,0,10,4.5,10,10V532.487z"/>
		</g>
		<g>
			<path style="fill:#FFFFFF;" d="M188,530.487c0,5.5-4.5,10-10,10h-28c-5.5,0-10-4.5-10-10v-26c0-5.5,4.5-10,10-10h28
				c5.5,0,10,4.5,10,10V530.487z"/>
		</g>
		<g>
			<linearGradient id="SVGID_6_" gradientUnits="userSpaceOnUse" x1="164.0005" y1="541.4873" x2="164.0005" y2="495.4873">
				<stop  offset="0" style="stop-color:#10A60F"/>
				<stop  offset="1" style="stop-color:#0FE30D"/>
			</linearGradient>
			<path style="fill:url(#SVGID_6_);" d="M188,531.487c0,5.5-4.5,10-10,10h-28c-5.5,0-10-4.5-10-10v-26c0-5.5,4.5-10,10-10h28
				c5.5,0,10,4.5,10,10V531.487z"/>
		</g>
		<g style="opacity:0.2;">
			<path d="M188,531.487c0,5.5-4.5,10-10,10h-28c-5.5,0-10-4.5-10-10v-26c0-5.5,4.5-10,10-10h28c5.5,0,10,4.5,10,10V531.487z"/>
		</g>
	</g>
	<g id="meegotouch-button-positive-background-pressed">
		<g>
			<path style="fill:#FFFFFF;" d="M130,532.487c0,5.5-4.5,10-10,10H92c-5.5,0-10-4.5-10-10v-26c0-5.5,4.5-10,10-10h28
				c5.5,0,10,4.5,10,10V532.487z"/>
		</g>
		<g>
			<path style="fill:#333333;" d="M130,530.487c0,5.5-4.5,10-10,10H92c-5.5,0-10-4.5-10-10v-26c0-5.5,4.5-10,10-10h28
				c5.5,0,10,4.5,10,10V530.487z"/>
		</g>
		<g>
			<linearGradient id="SVGID_7_" gradientUnits="userSpaceOnUse" x1="106" y1="541.4873" x2="106" y2="495.4873">
				<stop  offset="0" style="stop-color:#B3B3B3"/>
				<stop  offset="1" style="stop-color:#4D4D4D"/>
			</linearGradient>
			<path style="fill:url(#SVGID_7_);" d="M130,531.487c0,5.5-4.5,10-10,10H92c-5.5,0-10-4.5-10-10v-26c0-5.5,4.5-10,10-10h28
				c5.5,0,10,4.5,10,10V531.487z"/>
		</g>
	</g>
	<g id="meegotouch-button-positive-background">
		<g>
			<path style="fill:#808080;" d="M72,532.487c0,5.5-4.5,10-10,10H34c-5.5,0-10-4.5-10-10v-26c0-5.5,4.5-10,10-10h28
				c5.5,0,10,4.5,10,10V532.487z"/>
		</g>
		<g>
			<path style="fill:#FFFFFF;" d="M72,530.487c0,5.5-4.5,10-10,10H34c-5.5,0-10-4.5-10-10v-26c0-5.5,4.5-10,10-10h28
				c5.5,0,10,4.5,10,10V530.487z"/>
		</g>
		<g>
			<linearGradient id="SVGID_8_" gradientUnits="userSpaceOnUse" x1="48" y1="541.4873" x2="48" y2="495.4873">
				<stop  offset="0" style="stop-color:#10A60F"/>
				<stop  offset="1" style="stop-color:#0FE30D"/>
			</linearGradient>
			<path style="fill:url(#SVGID_8_);" d="M72,531.487c0,5.5-4.5,10-10,10H34c-5.5,0-10-4.5-10-10v-26c0-5.5,4.5-10,10-10h28
				c5.5,0,10,4.5,10,10V531.487z"/>
		</g>
	</g>
	<g id="meegotouch-button-background-selected-horizontal-right">
		<path style="fill:#808080;" d="M140,408h38c5.5,0,10,4.5,10,10v26c0,5.5-4.5,10-10,10h-38V408z"/>
		<path style="fill:#FFFFFF;" d="M140,406h38c5.5,0,10,4.5,10,10v26c0,5.5-4.5,10-10,10h-38V406z"/>
		
			<linearGradient id="SVGID_9_" gradientUnits="userSpaceOnUse" x1="-533.0005" y1="406.999" x2="-533.0005" y2="452.999" gradientTransform="matrix(-1 0 0 1 -369 0)">
			<stop  offset="0" style="stop-color:#29ABE2"/>
			<stop  offset="1" style="stop-color:#7DD8FF"/>
		</linearGradient>
		<path style="fill:url(#SVGID_9_);" d="M140,407h38c5.5,0,10,4.5,10,10v26c0,5.5-4.5,10-10,10h-38V407z"/>
		<rect x="140" y="407" style="fill:#FFFFFF;fill-opacity:0.2;" width="1" height="46"/>
	</g>
	<g id="meegotouch-button-background-pressed-horizontal-right">
		<path style="fill:#333333;" d="M140,394h38c5.5,0,10-4.5,10-10v-26c0-5.5-4.5-10-10-10h-38V394z"/>
		<path style="fill:#FFFFFF;" d="M140,396h38c5.5,0,10-4.5,10-10v-26c0-5.5-4.5-10-10-10h-38V396z"/>
		
			<linearGradient id="SVGID_10_" gradientUnits="userSpaceOnUse" x1="-533.0005" y1="349.0005" x2="-533.0005" y2="394.9995" gradientTransform="matrix(-1 0 0 1 -369 0)">
			<stop  offset="0" style="stop-color:#4D4D4D"/>
			<stop  offset="1" style="stop-color:#B3B3B3"/>
		</linearGradient>
		<path style="fill:url(#SVGID_10_);" d="M140,349h38c5.5,0,10,4.5,10,10v26c0,5.5-4.5,10-10,10h-38V349z"/>
	</g>
	<g id="meegotouch-button-background-horizontal-right">
		<path style="fill:#808080;" d="M140,292h38c5.5,0,10,4.5,10,10v26c0,5.5-4.5,10-10,10h-38V292z"/>
		<path style="fill:#FFFFFF;" d="M140,290h38c5.5,0,10,4.5,10,10v26c0,5.5-4.5,10-10,10h-38V290z"/>
		
			<linearGradient id="SVGID_11_" gradientUnits="userSpaceOnUse" x1="-533.0005" y1="291.0005" x2="-533.0005" y2="337.0005" gradientTransform="matrix(-1 0 0 1 -369 0)">
			<stop  offset="0" style="stop-color:#F2F2F2"/>
			<stop  offset="1" style="stop-color:#D2D2D2"/>
		</linearGradient>
		<path style="fill:url(#SVGID_11_);" d="M140,291h38c5.5,0,10,4.5,10,10v26c0,5.5-4.5,10-10,10h-38V291z"/>
		<rect x="140" y="291" style="fill:#FFFFFF;" width="1" height="46"/>
	</g>
	<g id="meegotouch-button-background-selected-horizontal-center">
		<rect x="82" y="408" style="fill:#808080;" width="48" height="46"/>
		<rect x="82" y="406" style="fill:#FFFFFF;" width="48" height="46"/>
		<linearGradient id="SVGID_12_" gradientUnits="userSpaceOnUse" x1="106" y1="407" x2="106" y2="453">
			<stop  offset="0" style="stop-color:#29ABE2"/>
			<stop  offset="1" style="stop-color:#7DD8FF"/>
		</linearGradient>
		<rect x="82" y="407" style="fill:url(#SVGID_12_);" width="48" height="46"/>
		<rect x="128.958" y="407" style="opacity:0.2;" width="1.042" height="46"/>
		<rect x="82" y="407" style="fill:#FFFFFF;fill-opacity:0.2;" width="1.042" height="46"/>
	</g>
	<g id="meegotouch-button-background-pressed-horizontal-center">
		<rect x="82" y="348" style="fill:#333333;" width="48" height="46"/>
		<rect x="82" y="350" style="fill:#FFFFFF;" width="48" height="46"/>
		<linearGradient id="SVGID_13_" gradientUnits="userSpaceOnUse" x1="106" y1="349" x2="106" y2="395.0005">
			<stop  offset="0" style="stop-color:#4D4D4D"/>
			<stop  offset="1" style="stop-color:#B3B3B3"/>
		</linearGradient>
		<rect x="82" y="349" style="fill:url(#SVGID_13_);" width="48" height="46"/>
	</g>
	<g id="meegotouch-button-background-horizontal-center">
		<rect x="82" y="292" style="fill:#808080;" width="48" height="46"/>
		<rect x="82" y="290" style="fill:#FFFFFF;" width="48" height="46"/>
		<linearGradient id="SVGID_14_" gradientUnits="userSpaceOnUse" x1="106" y1="291" x2="106" y2="337">
			<stop  offset="0" style="stop-color:#F2F2F2"/>
			<stop  offset="1" style="stop-color:#D2D2D2"/>
		</linearGradient>
		<rect x="82" y="291" style="fill:url(#SVGID_14_);" width="48" height="46"/>
		<rect x="128.958" y="291" style="opacity:0.2;" width="1.042" height="46"/>
		<rect x="82" y="291" style="fill:#FFFFFF;" width="1.042" height="46"/>
	</g>
	<g id="meegotouch-button-background-selected-horizontal-left">
		<path style="fill:#808080;" d="M72,408H34c-5.5,0-10,4.5-10,10v26c0,5.5,4.5,10,10,10h38V408z"/>
		<path style="fill:#FFFFFF;" d="M72,406H34c-5.5,0-10,4.5-10,10v26c0,5.5,4.5,10,10,10h38V406z"/>
		<linearGradient id="SVGID_15_" gradientUnits="userSpaceOnUse" x1="48" y1="453" x2="48" y2="407">
			<stop  offset="0" style="stop-color:#7DD8FF"/>
			<stop  offset="1" style="stop-color:#29ABE2"/>
		</linearGradient>
		<path style="fill:url(#SVGID_15_);" d="M72,407H34c-5.5,0-10,4.5-10,10v26c0,5.5,4.5,10,10,10h38V407z"/>
		<rect x="71" y="407" style="opacity:0.2;" width="1" height="46"/>
	</g>
	<g id="meegotouch-button-background-pressed-horizontal-left">
		<path style="fill:#333333;" d="M72,394H34c-5.5,0-10-4.5-10-10v-26c0-5.5,4.5-10,10-10h38V394z"/>
		<path style="fill:#FFFFFF;" d="M72,396H34c-5.5,0-10-4.5-10-10v-26c0-5.5,4.5-10,10-10h38V396z"/>
		<linearGradient id="SVGID_16_" gradientUnits="userSpaceOnUse" x1="48" y1="349" x2="48" y2="395.0005">
			<stop  offset="0" style="stop-color:#4D4D4D"/>
			<stop  offset="1" style="stop-color:#B3B3B3"/>
		</linearGradient>
		<path style="fill:url(#SVGID_16_);" d="M72,349H34c-5.5,0-10,4.5-10,10v26c0,5.5,4.5,10,10,10h38V349z"/>
	</g>
	<g id="meegotouch-button-background-horizontal-left">
		<path style="fill:#808080;" d="M72,292H34c-5.5,0-10,4.5-10,10v26c0,5.5,4.5,10,10,10h38V292z"/>
		<path style="fill:#FFFFFF;" d="M72,290H34c-5.5,0-10,4.5-10,10v26c0,5.5,4.5,10,10,10h38V290z"/>
		<linearGradient id="SVGID_17_" gradientUnits="userSpaceOnUse" x1="48" y1="291" x2="48" y2="337">
			<stop  offset="0" style="stop-color:#F2F2F2"/>
			<stop  offset="1" style="stop-color:#D2D2D2"/>
		</linearGradient>
		<path style="fill:url(#SVGID_17_);" d="M72,291H34c-5.5,0-10,4.5-10,10v26c0,5.5,4.5,10,10,10h38V291z"/>
		<rect x="71" y="291" style="opacity:0.2;" width="1" height="46"/>
	</g>
	<g id="meegotouch-button-background-selected-vertical-bottom">
		<path style="fill:#808080;" d="M140,224v38c0,5.5,4.5,10,10,10h28c5.5,0,10-4.5,10-10v-38H140z"/>
		<linearGradient id="SVGID_18_" gradientUnits="userSpaceOnUse" x1="164.0005" y1="271" x2="164.0005" y2="224">
			<stop  offset="0" style="stop-color:#7DD8FF"/>
			<stop  offset="1" style="stop-color:#29ABE2"/>
		</linearGradient>
		<path style="fill:url(#SVGID_18_);" d="M140,224v37c0,5.5,4.5,10,10,10h28c5.5,0,10-4.5,10-10v-37H140z"/>
		<rect x="140" y="224" style="opacity:0.2;fill:#FFFFFF;" width="48" height="1"/>
	</g>
	<g id="meegotouch-button-background-pressed-vertical-bottom">
		<path style="fill:#808080;" d="M82,224v38c0,5.5,4.5,10,10,10h28c5.5,0,10-4.5,10-10v-38H82z"/>
		<linearGradient id="SVGID_19_" gradientUnits="userSpaceOnUse" x1="106" y1="224" x2="106" y2="271">
			<stop  offset="0" style="stop-color:#4D4D4D"/>
			<stop  offset="1" style="stop-color:#B3B3B3"/>
		</linearGradient>
		<path style="fill:url(#SVGID_19_);" d="M82,224v37c0,5.5,4.5,10,10,10h28c5.5,0,10-4.5,10-10v-37H82z"/>
	</g>
	<g id="meegotouch-button-background-vertical-bottom">
		<path style="fill:#808080;" d="M24,224v38c0,5.5,4.5,10,10,10h28c5.5,0,10-4.5,10-10v-38H24z"/>
		<linearGradient id="SVGID_20_" gradientUnits="userSpaceOnUse" x1="48" y1="224" x2="48" y2="271">
			<stop  offset="0" style="stop-color:#E1E1E1"/>
			<stop  offset="1" style="stop-color:#D2D2D2"/>
		</linearGradient>
		<path style="fill:url(#SVGID_20_);" d="M24,224v37c0,5.5,4.5,10,10,10h28c5.5,0,10-4.5,10-10v-37H24z"/>
		<rect x="24" y="224" style="fill:#FFFFFF;" width="48" height="1"/>
	</g>
	<g id="meegotouch-button-background-selected-vertical-center">
		<linearGradient id="SVGID_21_" gradientUnits="userSpaceOnUse" x1="164.0005" y1="214" x2="164.0005" y2="166">
			<stop  offset="0" style="stop-color:#7DD8FF"/>
			<stop  offset="1" style="stop-color:#29ABE2"/>
		</linearGradient>
		<rect x="140" y="166" style="fill:url(#SVGID_21_);" width="48" height="48"/>
		<rect x="140" y="213" style="opacity:0.2;" width="48" height="1"/>
		<rect x="140" y="166" style="opacity:0.2;fill:#FFFFFF;" width="48" height="1"/>
	</g>
	<g id="meegotouch-button-background-pressed-vertical-center">
		<linearGradient id="SVGID_22_" gradientUnits="userSpaceOnUse" x1="106" y1="166" x2="106" y2="214">
			<stop  offset="0" style="stop-color:#4D4D4D"/>
			<stop  offset="1" style="stop-color:#B3B3B3"/>
		</linearGradient>
		<rect x="82" y="166" style="fill:url(#SVGID_22_);" width="48" height="48"/>
		<rect x="82" y="166" style="opacity:0.2;" width="48" height="1"/>
	</g>
	<g id="meegotouch-button-background-vertical-center">
		<rect x="24" y="166" style="fill:#E1E1E1;" width="48" height="48"/>
		<rect x="24" y="213" style="opacity:0.2;" width="48" height="1"/>
		<rect x="24" y="166" style="fill:#FFFFFF;" width="48" height="1"/>
	</g>
	<g id="meegotouch-button-background-selected-vertical-top">
		<path style="fill:#808080;" d="M188,156v-38c0-5.5-4.5-10-10-10h-28c-5.5,0-10,4.5-10,10v38H188z"/>
		
			<linearGradient id="SVGID_23_" gradientUnits="userSpaceOnUse" x1="-614.0005" y1="619" x2="-614.0005" y2="572" gradientTransform="matrix(-1 0 0 -1 -450 728)">
			<stop  offset="0" style="stop-color:#29ABE2"/>
			<stop  offset="1" style="stop-color:#7DD8FF"/>
		</linearGradient>
		<path style="fill:url(#SVGID_23_);" d="M188,156v-37c0-5.5-4.5-10-10-10h-28c-5.5,0-10,4.5-10,10v37H188z"/>
		<rect x="140" y="155" style="opacity:0.2;" width="48" height="1"/>
	</g>
	<g id="meegotouch-button-background-pressed-vertical-top">
		<path style="fill:#333333;" d="M130,156v-38c0-5.5-4.5-10-10-10H92c-5.5,0-10,4.5-10,10v38H130z"/>
		
			<linearGradient id="SVGID_24_" gradientUnits="userSpaceOnUse" x1="-556" y1="572" x2="-556" y2="619" gradientTransform="matrix(-1 0 0 -1 -450 728)">
			<stop  offset="0" style="stop-color:#B3B3B3"/>
			<stop  offset="1" style="stop-color:#4D4D4D"/>
		</linearGradient>
		<path style="fill:url(#SVGID_24_);" d="M130,156v-37c0-5.5-4.5-10-10-10H92c-5.5,0-10,4.5-10,10v37H130z"/>
	</g>
	<g id="meegotouch-button-background-vertical-top">
		<path style="fill:#FFFFFF;" d="M72,156v-38c0-5.5-4.5-10-10-10H34c-5.5,0-10,4.5-10,10v38H72z"/>
		
			<linearGradient id="SVGID_25_" gradientUnits="userSpaceOnUse" x1="-498" y1="572" x2="-498" y2="619" gradientTransform="matrix(-1 0 0 -1 -450 728)">
			<stop  offset="0" style="stop-color:#E1E1E1"/>
			<stop  offset="1" style="stop-color:#F2F2F2"/>
		</linearGradient>
		<path style="fill:url(#SVGID_25_);" d="M72,156v-37c0-5.5-4.5-10-10-10H34c-5.5,0-10,4.5-10,10v37H72z"/>
		<rect x="24" y="155" style="opacity:0.2;" width="48" height="1"/>
	</g>
	<g id="meegotouch-button-background-selected">
		<g>
			<path style="fill:#808080;" d="M188,88c0,5.5-4.5,10-10,10h-28c-5.5,0-10-4.5-10-10V62c0-5.5,4.5-10,10-10h28c5.5,0,10,4.5,10,10
				V88z"/>
		</g>
		<g>
			<path style="fill:#FFFFFF;" d="M188,86c0,5.5-4.5,10-10,10h-28c-5.5,0-10-4.5-10-10V60c0-5.5,4.5-10,10-10h28c5.5,0,10,4.5,10,10
				V86z"/>
		</g>
		<g>
			<linearGradient id="SVGID_26_" gradientUnits="userSpaceOnUse" x1="164.0005" y1="97" x2="164.0005" y2="51">
				<stop  offset="0" style="stop-color:#29ABE2"/>
				<stop  offset="1" style="stop-color:#7DD8FF"/>
			</linearGradient>
			<path style="fill:url(#SVGID_26_);" d="M188,87c0,5.5-4.5,10-10,10h-28c-5.5,0-10-4.5-10-10V61c0-5.5,4.5-10,10-10h28
				c5.5,0,10,4.5,10,10V87z"/>
		</g>
	</g>
	<g id="meegotouch-button-background-pressed">
		<g>
			<path style="fill:#FFFFFF;" d="M130,88c0,5.5-4.5,10-10,10H92c-5.5,0-10-4.5-10-10V62c0-5.5,4.5-10,10-10h28c5.5,0,10,4.5,10,10
				V88z"/>
		</g>
		<g>
			<path style="fill:#333333;" d="M130,86c0,5.5-4.5,10-10,10H92c-5.5,0-10-4.5-10-10V60c0-5.5,4.5-10,10-10h28c5.5,0,10,4.5,10,10
				V86z"/>
		</g>
		<g>
			<linearGradient id="SVGID_27_" gradientUnits="userSpaceOnUse" x1="106" y1="97" x2="106" y2="51">
				<stop  offset="0" style="stop-color:#B3B3B3"/>
				<stop  offset="1" style="stop-color:#4D4D4D"/>
			</linearGradient>
			<path style="fill:url(#SVGID_27_);" d="M130,87c0,5.5-4.5,10-10,10H92c-5.5,0-10-4.5-10-10V61c0-5.5,4.5-10,10-10h28
				c5.5,0,10,4.5,10,10V87z"/>
		</g>
	</g>
	<g id="meegotouch-button-background">
		<g>
			<path style="fill:#808080;" d="M72,88c0,5.5-4.5,10-10,10H34c-5.5,0-10-4.5-10-10V62c0-5.5,4.5-10,10-10h28c5.5,0,10,4.5,10,10
				V88z"/>
		</g>
		<g>
			<path style="fill:#FFFFFF;" d="M72,86c0,5.5-4.5,10-10,10H34c-5.5,0-10-4.5-10-10V60c0-5.5,4.5-10,10-10h28c5.5,0,10,4.5,10,10
				V86z"/>
		</g>
		<g>
			<linearGradient id="SVGID_28_" gradientUnits="userSpaceOnUse" x1="48" y1="97" x2="48" y2="51">
				<stop  offset="0" style="stop-color:#D2D2D2"/>
				<stop  offset="1" style="stop-color:#F2F2F2"/>
			</linearGradient>
			<path style="fill:url(#SVGID_28_);" d="M72,87c0,5.5-4.5,10-10,10H34c-5.5,0-10-4.5-10-10V61c0-5.5,4.5-10,10-10h28
				c5.5,0,10,4.5,10,10V87z"/>
		</g>
	</g>
	<g id="meegotouch-combobox-indicator-inverted">
		<g>
			<path style="fill:#FFFFFF;" d="M285.435,98.565C285.745,98.255,285.64,98,285.2,98h-14.4c-0.439,0-0.545,0.255-0.234,0.565
				l6.869,6.869c0.311,0.311,0.82,0.311,1.131,0L285.435,98.565z"/>
		</g>
		<g>
			<path style="fill:#FFFFFF;" d="M285.435,93.435C285.745,93.745,285.64,94,285.2,94h-14.4c-0.439,0-0.545-0.255-0.234-0.565
				l6.869-6.869c0.311-0.311,0.82-0.311,1.131,0L285.435,93.435z"/>
		</g>
	</g>
	<g id="meegotouch-combobox-indicator">
		<g>
			<path d="M285.435,68.565C285.745,68.255,285.64,68,285.2,68h-14.4c-0.439,0-0.545,0.255-0.234,0.565l6.869,6.869
				c0.311,0.311,0.82,0.311,1.131,0L285.435,68.565z"/>
		</g>
		<g>
			<path d="M285.435,63.435C285.745,63.745,285.64,64,285.2,64h-14.4c-0.439,0-0.545-0.255-0.234-0.565l6.869-6.869
				c0.311-0.311,0.82-0.311,1.131,0L285.435,63.435z"/>
		</g>
	</g>
	<g id="meegotouch-button-inverted-background-selected">
		<g>
			<path style="fill:#808080;" d="M246,204c0,5.5-4.5,10-10,10h-28c-5.5,0-10-4.5-10-10v-26c0-5.5,4.5-10,10-10h28
				c5.5,0,10,4.5,10,10V204z"/>
		</g>
		<g>
			<path style="fill:#FFFFFF;" d="M246,202c0,5.5-4.5,10-10,10h-28c-5.5,0-10-4.5-10-10v-26c0-5.5,4.5-10,10-10h28
				c5.5,0,10,4.5,10,10V202z"/>
		</g>
		<g>
			<linearGradient id="SVGID_29_" gradientUnits="userSpaceOnUse" x1="222" y1="213" x2="222" y2="167">
				<stop  offset="0" style="stop-color:#29ABE2"/>
				<stop  offset="1" style="stop-color:#7DD8FF"/>
			</linearGradient>
			<path style="fill:url(#SVGID_29_);" d="M246,203c0,5.5-4.5,10-10,10h-28c-5.5,0-10-4.5-10-10v-26c0-5.5,4.5-10,10-10h28
				c5.5,0,10,4.5,10,10V203z"/>
		</g>
	</g>
	<g id="meegotouch-button-inverted-background-pressed">
		<g>
			<path style="fill:#FFFFFF;" d="M246,146c0,5.5-4.5,10-10,10h-28c-5.5,0-10-4.5-10-10v-26c0-5.5,4.5-10,10-10h28
				c5.5,0,10,4.5,10,10V146z"/>
		</g>
		<g>
			<path style="fill:#333333;" d="M246,144c0,5.5-4.5,10-10,10h-28c-5.5,0-10-4.5-10-10v-26c0-5.5,4.5-10,10-10h28
				c5.5,0,10,4.5,10,10V144z"/>
		</g>
		<g>
			<linearGradient id="SVGID_30_" gradientUnits="userSpaceOnUse" x1="222" y1="155" x2="222" y2="109">
				<stop  offset="0" style="stop-color:#B3B3B3"/>
				<stop  offset="1" style="stop-color:#4D4D4D"/>
			</linearGradient>
			<path style="fill:url(#SVGID_30_);" d="M246,145c0,5.5-4.5,10-10,10h-28c-5.5,0-10-4.5-10-10v-26c0-5.5,4.5-10,10-10h28
				c5.5,0,10,4.5,10,10V145z"/>
		</g>
	</g>
	<g id="meegotouch-button-inverted-background">
		<g>
			<path style="fill:#808080;" d="M246,88c0,5.5-4.5,10-10,10h-28c-5.5,0-10-4.5-10-10V62c0-5.5,4.5-10,10-10h28c5.5,0,10,4.5,10,10
				V88z"/>
		</g>
		<g>
			<path style="fill:#FFFFFF;" d="M246,86c0,5.5-4.5,10-10,10h-28c-5.5,0-10-4.5-10-10V60c0-5.5,4.5-10,10-10h28c5.5,0,10,4.5,10,10
				V86z"/>
		</g>
		<g>
			<linearGradient id="SVGID_31_" gradientUnits="userSpaceOnUse" x1="222" y1="97" x2="222" y2="51">
				<stop  offset="0" style="stop-color:#4D4D4D"/>
				<stop  offset="1" style="stop-color:#B3B3B3"/>
			</linearGradient>
			<path style="fill:url(#SVGID_31_);" d="M246,87c0,5.5-4.5,10-10,10h-28c-5.5,0-10-4.5-10-10V61c0-5.5,4.5-10,10-10h28
				c5.5,0,10,4.5,10,10V87z"/>
		</g>
	</g>
</g>
</svg>
