<?xml version="1.0" encoding="iso-8859-1"?>
<!-- Generator: Adobe Illustrator 14.0.0, SVG Export Plug-In . SVG Version: 6.00 Build 43363)  -->
<!DOCTYPE svg PUBLIC "-//W3C//DTD SVG 1.1//EN" "http://www.w3.org/Graphics/SVG/1.1/DTD/svg11.dtd">
<svg version="1.1" xmlns="http://www.w3.org/2000/svg" xmlns:xlink="http://www.w3.org/1999/xlink" x="0px" y="0px" width="320px"
	 height="220px" viewBox="0 0 320 220" style="enable-background:new 0 0 320 220;" xml:space="preserve">
<g id="meegotouch-progress-spinner-experimental-layer">
</g>
<g id="theme">
	<g id="meegotouch-progress-spinner-experimental">
		<g id="MeegoTouchSpinnerThemeTemplateHelper">
			<g>
				<path style="fill:#B3B3B3;" d="M16,219c-8.271,0-15-6.729-15-15V16C1,7.729,7.729,1,16,1h288c8.271,0,15,6.729,15,15v188
					c0,8.271-6.729,15-15,15H16z"/>
				<g>
					<path d="M304,2c7.72,0,14,6.28,14,14v188c0,7.72-6.28,14-14,14H16c-7.72,0-14-6.28-14-14V16C2,8.28,8.28,2,16,2H304 M304,0H16
						C7.2,0,0,7.2,0,16v188c0,8.8,7.2,16,16,16h288c8.8,0,16-7.2,16-16V16C320,7.2,312.8,0,304,0L304,0z"/>
				</g>
			</g>
			<g>
				<path d="M79.098,14.104c1.008-0.168,2.328-0.312,4.008-0.312c2.064,0,3.576,0.48,4.537,1.344
					c0.863,0.769,1.416,1.944,1.416,3.385c0,1.464-0.434,2.616-1.248,3.456c-1.129,1.177-2.904,1.776-4.945,1.776
					c-0.623,0-1.199-0.023-1.68-0.145v6.48h-2.088V14.104z M81.186,21.904c0.455,0.119,1.031,0.168,1.729,0.168
					c2.52,0,4.057-1.248,4.057-3.434c0-2.16-1.537-3.191-3.816-3.191c-0.912,0-1.609,0.072-1.969,0.168V21.904z"/>
				<path d="M91.408,22.096c0-1.368-0.023-2.545-0.096-3.625h1.848l0.098,2.305h0.07c0.529-1.561,1.824-2.544,3.242-2.544
					c0.215,0,0.383,0.024,0.574,0.048v1.992c-0.215-0.048-0.432-0.048-0.719-0.048c-1.488,0-2.545,1.104-2.832,2.688
					c-0.049,0.287-0.072,0.647-0.072,0.984v6.191h-2.113V22.096z"/>
				<path d="M109.529,24.184c0,4.297-3,6.169-5.783,6.169c-3.121,0-5.568-2.304-5.568-5.977c0-3.864,2.568-6.145,5.76-6.145
					C107.273,18.231,109.529,20.656,109.529,24.184z M100.338,24.304c0,2.544,1.439,4.464,3.504,4.464
					c2.016,0,3.527-1.896,3.527-4.512c0-1.969-0.982-4.44-3.479-4.44C101.418,19.815,100.338,22.119,100.338,24.304z"/>
				<path d="M122.131,28.385c0,2.688-0.553,4.296-1.656,5.328c-1.152,1.031-2.785,1.393-4.25,1.393
					c-1.391,0-2.928-0.337-3.863-0.961l0.527-1.632c0.768,0.504,1.969,0.937,3.408,0.937c2.16,0,3.744-1.129,3.744-4.081v-1.272
					h-0.047c-0.625,1.08-1.896,1.945-3.697,1.945c-2.879,0-4.943-2.449-4.943-5.665c0-3.937,2.568-6.145,5.256-6.145
					c2.016,0,3.096,1.032,3.625,1.992h0.047l0.072-1.753h1.873c-0.072,0.816-0.096,1.777-0.096,3.169V28.385z M120.018,23.056
					c0-0.36-0.023-0.672-0.119-0.937c-0.385-1.248-1.393-2.256-2.953-2.256c-2.016,0-3.457,1.705-3.457,4.393
					c0,2.28,1.178,4.176,3.434,4.176c1.32,0,2.496-0.815,2.928-2.16c0.121-0.359,0.168-0.768,0.168-1.127V23.056z"/>
				<path d="M125.465,22.096c0-1.368-0.023-2.545-0.096-3.625h1.848l0.096,2.305h0.072c0.527-1.561,1.824-2.544,3.24-2.544
					c0.217,0,0.385,0.024,0.576,0.048v1.992c-0.217-0.048-0.432-0.048-0.721-0.048c-1.488,0-2.543,1.104-2.832,2.688
					c-0.047,0.287-0.072,0.647-0.072,0.984v6.191h-2.111V22.096z"/>
				<path d="M134.25,24.664c0.047,2.855,1.848,4.032,3.984,4.032c1.512,0,2.447-0.265,3.215-0.601l0.385,1.513
					c-0.744,0.336-2.041,0.744-3.889,0.744c-3.576,0-5.713-2.376-5.713-5.881c0-3.504,2.064-6.24,5.449-6.24
					c3.816,0,4.801,3.312,4.801,5.448c0,0.432-0.025,0.744-0.072,0.984H134.25z M140.441,23.152c0.023-1.32-0.553-3.408-2.928-3.408
					c-2.16,0-3.072,1.943-3.24,3.408H140.441z"/>
				<path d="M144.809,27.952c0.648,0.384,1.752,0.815,2.809,0.815c1.512,0,2.232-0.743,2.232-1.728c0-1.008-0.6-1.536-2.137-2.112
					c-2.111-0.768-3.096-1.896-3.096-3.288c0-1.872,1.537-3.408,4.008-3.408c1.178,0,2.209,0.312,2.832,0.72l-0.504,1.536
					c-0.455-0.288-1.295-0.696-2.375-0.696c-1.248,0-1.92,0.721-1.92,1.584c0,0.961,0.672,1.393,2.184,1.992
					c1.992,0.744,3.049,1.753,3.049,3.48c0,2.064-1.609,3.505-4.32,3.505c-1.273,0-2.449-0.336-3.266-0.816L144.809,27.952z"/>
				<path d="M154.312,27.952c0.648,0.384,1.752,0.815,2.809,0.815c1.512,0,2.232-0.743,2.232-1.728c0-1.008-0.6-1.536-2.137-2.112
					c-2.111-0.768-3.096-1.896-3.096-3.288c0-1.872,1.537-3.408,4.008-3.408c1.178,0,2.209,0.312,2.832,0.72l-0.504,1.536
					c-0.455-0.288-1.295-0.696-2.375-0.696c-1.248,0-1.92,0.721-1.92,1.584c0,0.961,0.672,1.393,2.184,1.992
					c1.992,0.744,3.049,1.753,3.049,3.48c0,2.064-1.609,3.505-4.32,3.505c-1.273,0-2.449-0.336-3.266-0.816L154.312,27.952z"/>
				<path d="M168.904,27.952c0.648,0.384,1.752,0.815,2.809,0.815c1.512,0,2.232-0.743,2.232-1.728c0-1.008-0.602-1.536-2.137-2.112
					c-2.113-0.768-3.096-1.896-3.096-3.288c0-1.872,1.535-3.408,4.008-3.408c1.176,0,2.207,0.312,2.832,0.72l-0.504,1.536
					c-0.457-0.288-1.297-0.696-2.377-0.696c-1.248,0-1.92,0.721-1.92,1.584c0,0.961,0.672,1.393,2.184,1.992
					c1.992,0.744,3.049,1.753,3.049,3.48c0,2.064-1.607,3.505-4.32,3.505c-1.271,0-2.447-0.336-3.264-0.816L168.904,27.952z"/>
				<path d="M178.695,22.264c0-1.488-0.047-2.688-0.096-3.793h1.873l0.119,1.992h0.049c0.84-1.416,2.232-2.231,4.127-2.231
					c2.834,0,4.945,2.376,4.945,5.88c0,4.177-2.568,6.241-5.305,6.241c-1.535,0-2.881-0.673-3.576-1.824h-0.047v6.312h-2.09V22.264z
					 M180.785,25.359c0,0.312,0.023,0.601,0.096,0.865c0.383,1.463,1.656,2.472,3.168,2.472c2.232,0,3.527-1.824,3.527-4.488
					c0-2.304-1.223-4.296-3.455-4.296c-1.441,0-2.809,1.008-3.193,2.592c-0.072,0.264-0.143,0.576-0.143,0.84V25.359z"/>
				<path d="M194.705,15.207c0,0.721-0.504,1.297-1.346,1.297c-0.768,0-1.271-0.576-1.271-1.297s0.529-1.32,1.32-1.32
					C194.176,13.887,194.705,14.463,194.705,15.207z M192.352,30.088V18.471h2.113v11.617H192.352z"/>
				<path d="M197.967,21.615c0-1.224-0.023-2.184-0.096-3.145h1.873l0.119,1.921h0.049c0.576-1.08,1.92-2.16,3.84-2.16
					c1.607,0,4.104,0.96,4.104,4.944v6.912h-2.111v-6.696c0-1.872-0.695-3.433-2.688-3.433c-1.369,0-2.449,0.984-2.832,2.16
					c-0.098,0.265-0.145,0.625-0.145,0.984v6.984h-2.113V21.615z"/>
				<path d="M211.287,21.615c0-1.224-0.023-2.184-0.096-3.145h1.873l0.119,1.921h0.049c0.576-1.08,1.92-2.16,3.84-2.16
					c1.607,0,4.104,0.96,4.104,4.944v6.912h-2.111v-6.696c0-1.872-0.695-3.433-2.688-3.433c-1.369,0-2.449,0.984-2.832,2.16
					c-0.098,0.265-0.145,0.625-0.145,0.984v6.984h-2.113V21.615z"/>
				<path d="M225.783,24.664c0.049,2.855,1.848,4.032,3.984,4.032c1.512,0,2.447-0.265,3.217-0.601l0.383,1.513
					c-0.744,0.336-2.039,0.744-3.887,0.744c-3.578,0-5.713-2.376-5.713-5.881c0-3.504,2.064-6.24,5.447-6.24
					c3.816,0,4.801,3.312,4.801,5.448c0,0.432-0.023,0.744-0.072,0.984H225.783z M231.977,23.152c0.023-1.32-0.553-3.408-2.93-3.408
					c-2.16,0-3.072,1.943-3.24,3.408H231.977z"/>
				<path d="M236.631,22.096c0-1.368-0.023-2.545-0.096-3.625h1.848l0.098,2.305h0.07c0.529-1.561,1.824-2.544,3.242-2.544
					c0.215,0,0.383,0.024,0.574,0.048v1.992c-0.215-0.048-0.432-0.048-0.719-0.048c-1.488,0-2.545,1.104-2.832,2.688
					c-0.049,0.287-0.072,0.647-0.072,0.984v6.191h-2.113V22.096z"/>
			</g>
		</g>
		<g id="meegotouch-progressindicator-spinner-small-foreground">
			<path style="fill:none;" d="M298,102c-6.791,0-8-2.096-8-8s1.209-8,8-8c6.792,0,8,2.096,8,8S304.792,102,298,102L298,102z"/>
			<radialGradient id="SVGID_1_" cx="298" cy="94" r="6" gradientUnits="userSpaceOnUse">
				<stop  offset="0" style="stop-color:#F2F2F2"/>
				<stop  offset="1" style="stop-color:#D1D2D2"/>
			</radialGradient>
			<path style="fill:url(#SVGID_1_);" d="M298,100c-5.094,0-6-1.572-6-6s0.906-6,6-6s6,1.572,6,6S303.094,100,298,100L298,100z"/>
		</g>
		<g id="meegotouch-progressindicator-spinner-small-background">
			<path style="fill:#D0D2D3;" d="M264,94c0,5.186,1.431,8,8,8c6.568,0,8-2.814,8-8s-1.432-8-8-8C265.431,86,264,88.814,264,94z"/>
		</g>
		<g id="meegotouch-progressindicator-spinner-small-mask">
			<path style="fill:#FFFFFF;" d="M290,68c0,5.186,1.431,8,8,8c6.568,0,8-2.814,8-8s-1.432-8-8-8C291.431,60,290,62.814,290,68z"/>
		</g>
		<g id="meegotouch-progressindicator-spinner-small">
			<rect x="264" y="60" style="fill:#D0D2D3;" width="20" height="20"/>
			<radialGradient id="SVGID_2_" cx="279" cy="65" r="5" gradientUnits="userSpaceOnUse">
				<stop  offset="0" style="stop-color:#29ABE2"/>
				<stop  offset="1" style="stop-color:#7DD8FF"/>
			</radialGradient>
			<rect x="274" y="60" style="fill:url(#SVGID_2_);" width="10" height="10"/>
		</g>
		<g id="meegotouch-progressindicator-spinner-medium-foreground">
			<path style="fill:none;" d="M238,134c-13.583,0-16-4.191-16-16s2.417-16,16-16s16,4.191,16,16S251.583,134,238,134L238,134z"/>
			<radialGradient id="SVGID_3_" cx="238" cy="118" r="12" gradientUnits="userSpaceOnUse">
				<stop  offset="0" style="stop-color:#F2F2F2"/>
				<stop  offset="1" style="stop-color:#D1D2D2"/>
			</radialGradient>
			<path style="fill:url(#SVGID_3_);" d="M238,130c-10.188,0-12-3.145-12-12s1.812-12,12-12s12,3.145,12,12S248.188,130,238,130
				L238,130z"/>
		</g>
		<g id="meegotouch-progressindicator-spinner-medium-background">
			<path style="fill:#D0D2D3;" d="M180,118c0,10.371,2.862,16,16,16c13.139,0,16-5.629,16-16s-2.861-16-16-16
				C182.862,102,180,107.629,180,118z"/>
		</g>
		<g id="meegotouch-progressindicator-spinner-medium-mask">
			<path style="fill:#FFFFFF;" d="M222,76c0,10.371,2.861,16,16,16c13.138,0,16-5.629,16-16s-2.862-16-16-16
				C224.861,60,222,65.629,222,76z"/>
		</g>
		<g id="meegotouch-progressindicator-spinner-medium">
			<rect x="180" y="60" style="fill:#D0D2D3;" width="36" height="36"/>
			<radialGradient id="SVGID_4_" cx="207" cy="69" r="9" gradientUnits="userSpaceOnUse">
				<stop  offset="0" style="stop-color:#29ABE2"/>
				<stop  offset="1" style="stop-color:#7DD8FF"/>
			</radialGradient>
			<rect x="198" y="60" style="fill:url(#SVGID_4_);" width="18" height="18"/>
		</g>
		<g id="meegotouch-progressindicator-spinner-large-foreground">
			<path style="fill:none;" d="M136,208c-27.38,0-32-9.872-32-32s4.62-32,32-32s32,9.872,32,32S163.38,208,136,208L136,208z"/>
			<radialGradient id="SVGID_5_" cx="136" cy="176" r="26" gradientUnits="userSpaceOnUse">
				<stop  offset="0" style="stop-color:#F2F2F2"/>
				<stop  offset="1" style="stop-color:#D1D2D2"/>
			</radialGradient>
			<path style="fill:url(#SVGID_5_);" d="M136,202c-22.246,0-26-8.021-26-26s3.754-26,26-26s26,8.021,26,26S158.246,202,136,202
				L136,202z"/>
		</g>
		<g id="meegotouch-progressindicator-spinner-large-background">
			<path style="fill:#D0D2D3;" d="M20,176c0,20.742,5.724,32,32,32c26.275,0,32-11.258,32-32s-5.725-32-32-32
				C25.724,144,20,155.258,20,176z"/>
		</g>
		<g id="meegotouch-progressindicator-spinner-large-mask">
			<path style="fill:#FFFFFF;" d="M104,92c0,20.742,5.724,32,32,32c26.275,0,32-11.258,32-32s-5.725-32-32-32
				C109.724,60,104,71.258,104,92z"/>
		</g>
		<g id="meegotouch-progressindicator-spinner-large">
			<rect x="20" y="60" style="fill:#D0D2D3;" width="74" height="74"/>
			<radialGradient id="SVGID_6_" cx="75.5" cy="78.5" r="18.5" gradientUnits="userSpaceOnUse">
				<stop  offset="0" style="stop-color:#29ABE2"/>
				<stop  offset="1" style="stop-color:#7DD8FF"/>
			</radialGradient>
			<rect x="57" y="60" style="fill:url(#SVGID_6_);" width="37" height="37"/>
		</g>
	</g>
</g>
</svg>
