<?xml version="1.0" encoding="iso-8859-1"?>
<!-- Generator: Adobe Illustrator 14.0.0, SVG Export Plug-In . SVG Version: 6.00 Build 43363)  -->
<!DOCTYPE svg PUBLIC "-//W3C//DTD SVG 1.1//EN" "http://www.w3.org/Graphics/SVG/1.1/DTD/svg11.dtd">
<svg version="1.1" xmlns="http://www.w3.org/2000/svg" xmlns:xlink="http://www.w3.org/1999/xlink" x="0px" y="0px" width="96px"
	 height="96px" viewBox="0 0 96 96" style="enable-background:new 0 0 96 96;" xml:space="preserve">
<g id="meegotouch-messaging-layer">
</g>
<g id="Messaging">
	<g id="meegotouch-messaging">
		<g id="meegotouch-messagingui-contactcard-background">
			<g style="opacity:0.1;">
				<path style="fill:#929497;" d="M96,88c0,4.4-3.6,8-8,8H8c-4.4,0-8-3.6-8-8V8c0-4.4,3.6-8,8-8h80c4.4,0,8,3.6,8,8V88z"/>
			</g>
			<g style="opacity:0.1;">
				<path style="fill:#929497;" d="M92,88c0,2.2-1.8,4-4,4H8c-2.2,0-4-1.8-4-4V8c0-2.2,1.8-4,4-4h80c2.2,0,4,1.8,4,4V88z"/>
			</g>
			<g style="opacity:0.5;">
				<path style="fill:#929497;" d="M87,9v78H9V9H87 M88,8H8v80h80V8L88,8z"/>
			</g>
			<g style="opacity:0.5;">
				<rect x="9" y="9" style="fill:#FFFFFF;" width="78" height="78"/>
			</g>
		</g>
	</g>
</g>
</svg>
