<?xml version="1.0" encoding="utf-8"?>
<!-- Generator: Adobe Illustrator 14.0.0, SVG Export Plug-In . SVG Version: 6.00 Build 43363)  -->
<!DOCTYPE svg PUBLIC "-//W3C//DTD SVG 1.1//EN" "http://www.w3.org/Graphics/SVG/1.1/DTD/svg11.dtd">
<svg version="1.1" id="Layer_1" xmlns="http://www.w3.org/2000/svg" xmlns:xlink="http://www.w3.org/1999/xlink" x="0px" y="0px"
	 width="350px" height="360px" viewBox="0 0 350 360" enable-background="new 0 0 350 360" xml:space="preserve">
<g id="meegotouch-textfield-button-combo">
	<g id="TextFieldButtonComboThemeTemplateHelper">
		<g>
			<path fill="#B3B3B3" d="M16,359c-8.271,0-15-6.729-15-15V16C1,7.729,7.729,1,16,1h318c8.271,0,15,6.729,15,15v328
				c0,8.271-6.729,15-15,15H16z"/>
			<g>
				<path d="M334,2c7.721,0,14,6.28,14,14v328c0,7.72-6.279,14-14,14H16c-7.72,0-14-6.28-14-14V16C2,8.28,8.28,2,16,2H334 M334,0H16
					C7.2,0,0,7.2,0,16v328c0,8.8,7.2,16,16,16h318c8.8,0,16-7.2,16-16V16C350,7.2,342.8,0,334,0L334,0z"/>
			</g>
		</g>
		<path fill="#010101" d="M49.076,33.885v-13.69H45.23v-1.6h9.885v1.6h-3.834v13.689L49.076,33.885L49.076,33.885z"/>
		<path fill="#010101" d="M62.991,32.059v1.487c-1.074,0.335-2.185,0.503-3.333,0.503c-1.668,0-2.916-0.503-3.743-1.508
			s-1.24-2.553-1.24-4.645c0-1.84,0.4-3.318,1.199-4.436c0.801-1.117,1.941-1.676,3.426-1.676c1.202,0,2.106,0.319,2.712,0.959
			c0.604,0.639,0.992,1.422,1.163,2.348c0.171,0.926,0.257,2.028,0.257,3.307h-6.439c0,1.388,0.246,2.429,0.738,3.123
			c0.492,0.693,1.23,1.04,2.215,1.04C60.779,32.562,61.794,32.395,62.991,32.059z M56.992,27.055h4.296
			c0-1.441-0.171-2.461-0.512-3.055c-0.343-0.596-0.835-0.893-1.477-0.893c-0.719,0-1.267,0.308-1.646,0.923
			C57.274,24.646,57.054,25.654,56.992,27.055z"/>
		<path fill="#010101" d="M74.075,33.885h-2.4l-2.666-4.625l-2.768,4.625H64.18l3.845-6.092l-3.527-5.834h2.39l2.358,4.111
			l2.451-4.111h2.061l-3.507,5.558L74.075,33.885z"/>
		<path fill="#010101" d="M78.669,34.049c-0.93,0-1.61-0.217-2.04-0.652c-0.432-0.434-0.646-1.125-0.646-2.076v-7.936h-1.568v-0.82
			l3.188-3.251h0.563v2.646h2.902v1.426h-2.902v7.577c0,0.649,0.106,1.079,0.318,1.286c0.212,0.209,0.533,0.313,0.964,0.313
			c0.444,0,1.046-0.099,1.805-0.298v1.416C80.337,33.926,79.476,34.049,78.669,34.049z"/>
		<path fill="#010101" d="M88.584,17.734v1.486c-0.643-0.205-1.179-0.307-1.61-0.307c-0.684,0-1.114,0.217-1.291,0.65
			c-0.179,0.435-0.268,1.232-0.268,2.395H87.6v1.426h-2.185v10.5h-2.184v-10.5h-1.445v-1.426h1.445c0-1.812,0.277-3.01,0.83-3.594
			c0.555-0.584,1.392-0.877,2.513-0.877C87.265,17.488,87.935,17.57,88.584,17.734z"/>
		<path fill="#010101" d="M91.845,33.885h-2.184v-10.5h-1.363v-1.426h3.547V33.885z M90.759,17.775c0.334,0,0.623,0.123,0.866,0.369
			c0.242,0.246,0.364,0.537,0.364,0.871c0,0.342-0.12,0.635-0.359,0.877c-0.239,0.243-0.53,0.364-0.871,0.364
			c-0.35,0-0.644-0.121-0.883-0.364c-0.239-0.242-0.358-0.535-0.358-0.877c0-0.348,0.119-0.643,0.358-0.881
			C90.115,17.895,90.409,17.775,90.759,17.775z"/>
		<path fill="#010101" d="M102.767,32.059v1.487c-1.074,0.335-2.185,0.503-3.333,0.503c-1.668,0-2.916-0.503-3.743-1.508
			s-1.24-2.553-1.24-4.645c0-1.84,0.4-3.318,1.199-4.436c0.801-1.117,1.941-1.676,3.426-1.676c1.202,0,2.106,0.319,2.712,0.959
			c0.604,0.639,0.992,1.422,1.163,2.348c0.171,0.926,0.257,2.028,0.257,3.307h-6.439c0,1.388,0.246,2.429,0.738,3.123
			c0.492,0.693,1.23,1.04,2.215,1.04C100.555,32.562,101.569,32.395,102.767,32.059z M96.768,27.055h4.296
			c0-1.441-0.171-2.461-0.512-3.055c-0.343-0.596-0.835-0.893-1.477-0.893c-0.719,0-1.267,0.308-1.646,0.923
			C97.05,24.646,96.829,25.654,96.768,27.055z"/>
		<path fill="#010101" d="M105.636,33.885V17.652h2.185v16.232L105.636,33.885L105.636,33.885z"/>
		<path fill="#010101" d="M118.259,33.885l-0.461-1.467c-0.63,1.087-1.706,1.631-3.23,1.631c-1.415,0-2.479-0.501-3.194-1.502
			c-0.714-1.002-1.071-2.566-1.071-4.691c0-1.785,0.381-3.242,1.144-4.373c0.762-1.132,1.844-1.697,3.245-1.697
			c1.148,0,2.01,0.345,2.584,1.035v-5.168h2.184v16.232H118.259z M117.347,28.449l-0.011-0.676c0-1.777-0.2-2.978-0.6-3.6
			c-0.4-0.622-0.97-0.934-1.708-0.934c-0.82,0-1.436,0.38-1.846,1.139c-0.41,0.759-0.615,1.896-0.615,3.414
			c0,1.594,0.198,2.786,0.596,3.579c0.396,0.793,0.99,1.189,1.783,1.189c0.772,0,1.366-0.287,1.779-0.861
			C117.14,31.126,117.347,30.043,117.347,28.449z"/>
		<path fill="#010101" d="M142.325,21.959l-3.21,11.926h-2.563l-2.328-9.619l-2.502,9.619H129.2l-3.087-11.926h2.204l2.318,10.039
			l2.521-10.039h2.41l2.369,10.059l2.461-10.059H142.325z"/>
		<path fill="#010101" d="M146.509,33.885h-2.184v-10.5h-1.363v-1.426h3.547V33.885L146.509,33.885z M145.423,17.775
			c0.334,0,0.623,0.123,0.866,0.369c0.242,0.246,0.364,0.537,0.364,0.871c0,0.342-0.12,0.635-0.359,0.877
			c-0.239,0.243-0.53,0.364-0.871,0.364c-0.35,0-0.644-0.121-0.883-0.364c-0.239-0.242-0.358-0.535-0.358-0.877
			c0-0.348,0.119-0.643,0.358-0.881C144.779,17.895,145.073,17.775,145.423,17.775z"/>
		<path fill="#010101" d="M152.661,34.049c-0.93,0-1.61-0.217-2.04-0.652c-0.432-0.434-0.646-1.125-0.646-2.076v-7.936h-1.568v-0.82
			l3.188-3.251h0.563v2.646h2.902v1.426h-2.902v7.577c0,0.649,0.106,1.079,0.318,1.286c0.212,0.209,0.533,0.313,0.964,0.313
			c0.444,0,1.046-0.099,1.805-0.298v1.416C154.329,33.926,153.468,34.049,152.661,34.049z"/>
		<path fill="#010101" d="M165.663,33.885h-2.185v-8.111c0-0.827-0.157-1.449-0.472-1.866s-0.786-0.626-1.415-0.626
			c-0.793,0-1.408,0.301-1.846,0.902s-0.656,1.385-0.656,2.349v7.353h-2.185V17.652h2.185v5.455
			c0.759-0.882,1.739-1.322,2.942-1.322c1.211,0,2.118,0.322,2.723,0.969c0.605,0.646,0.908,1.611,0.908,2.896L165.663,33.885
			L165.663,33.885z"/>
		<path fill="#010101" d="M175.764,17.652v5.414c0.779-0.854,1.746-1.281,2.901-1.281c1.334,0,2.335,0.492,3.005,1.477
			c0.67,0.985,1.005,2.461,1.005,4.43c0,1.969-0.45,3.51-1.354,4.624c-0.902,1.114-2.143,1.671-3.723,1.671
			c-1.552,0-2.891-0.068-4.02-0.205v-16.13H175.764z M175.764,27.875v4.522c0.637,0.082,1.203,0.123,1.702,0.123
			c1.005,0,1.746-0.367,2.226-1.103c0.479-0.734,0.719-1.998,0.719-3.789c0-1.449-0.188-2.535-0.564-3.26
			c-0.375-0.725-0.937-1.088-1.682-1.088c-0.725,0-1.262,0.219-1.609,0.656c-0.35,0.438-0.568,0.969-0.656,1.596
			C175.809,26.158,175.764,26.939,175.764,27.875z"/>
		<path fill="#010101" d="M188.745,34.049c-1.218,0-2.128-0.316-2.731-0.949c-0.605-0.632-0.908-1.58-0.908-2.846v-8.295h2.185
			v7.916c0,0.896,0.157,1.567,0.472,2.016c0.314,0.447,0.789,0.671,1.426,0.671c0.793,0,1.406-0.301,1.84-0.902
			c0.436-0.602,0.652-1.384,0.652-2.349v-7.352h2.184v11.926h-1.211l-0.439-1.764C191.452,33.406,190.297,34.049,188.745,34.049z"/>
		<path fill="#010101" d="M199.891,34.049c-0.93,0-1.609-0.217-2.039-0.652c-0.433-0.434-0.646-1.125-0.646-2.076v-7.936h-1.568
			v-0.82l3.188-3.251h0.563v2.646h2.901v1.426h-2.901v7.577c0,0.649,0.105,1.079,0.317,1.286c0.212,0.209,0.533,0.313,0.964,0.313
			c0.444,0,1.046-0.099,1.805-0.298v1.416C201.559,33.926,200.697,34.049,199.891,34.049z"/>
		<path fill="#010101" d="M207.182,34.049c-0.93,0-1.609-0.217-2.039-0.652c-0.433-0.434-0.646-1.125-0.646-2.076v-7.936h-1.568
			v-0.82l3.188-3.251h0.563v2.646h2.901v1.426h-2.901v7.577c0,0.649,0.105,1.079,0.317,1.286c0.212,0.209,0.533,0.313,0.964,0.313
			c0.444,0,1.046-0.099,1.805-0.298v1.416C208.85,33.926,207.988,34.049,207.182,34.049z"/>
		<path fill="#010101" d="M215.568,34.049c-1.606,0-2.81-0.527-3.609-1.58c-0.799-1.053-1.199-2.631-1.199-4.736
			c0-1.832,0.415-3.281,1.246-4.348c0.83-1.066,2.018-1.6,3.562-1.6c1.559,0,2.75,0.525,3.574,1.578
			c0.822,1.053,1.234,2.523,1.234,4.41c0,1.941-0.385,3.473-1.152,4.594C218.455,33.488,217.236,34.049,215.568,34.049z
			 M215.568,32.644c0.842,0,1.476-0.381,1.902-1.144c0.428-0.762,0.641-2.039,0.641-3.83c0-1.264-0.219-2.325-0.656-3.184
			c-0.438-0.857-1.066-1.287-1.887-1.287c-0.834,0-1.467,0.387-1.896,1.159s-0.646,1.876-0.646,3.312
			c0,1.613,0.217,2.846,0.646,3.697C214.102,32.218,214.734,32.644,215.568,32.644z"/>
		<path fill="#010101" d="M231.605,33.885h-2.185v-7.916c0-0.896-0.157-1.567-0.472-2.016c-0.314-0.447-0.786-0.672-1.415-0.672
			c-0.793,0-1.408,0.301-1.847,0.902c-0.438,0.601-0.655,1.385-0.655,2.349v7.353h-2.185V21.959h1.221l0.44,1.764
			c0.759-1.292,1.913-1.938,3.466-1.938c1.211,0,2.117,0.317,2.723,0.953c0.604,0.636,0.908,1.586,0.908,2.851V33.885
			L231.605,33.885z"/>
		<path fill="#010101" d="M243.932,34.049c-1.621,0-2.845-0.531-3.672-1.596c-0.826-1.062-1.24-2.623-1.24-4.68
			c0-1.914,0.446-3.391,1.338-4.43c0.894-1.039,2.189-1.559,3.893-1.559c0.663,0,1.336,0.085,2.021,0.256v1.486
			c-0.521-0.164-1.166-0.246-1.938-0.246c-0.998,0-1.755,0.397-2.271,1.195c-0.517,0.797-0.774,1.908-0.774,3.338
			c0,1.537,0.259,2.713,0.774,3.527c0.517,0.812,1.272,1.22,2.271,1.22c0.86,0,1.534-0.079,2.021-0.235v1.414
			C245.619,33.945,244.812,34.049,243.932,34.049z"/>
		<path fill="#010101" d="M252.309,34.049c-1.606,0-2.81-0.527-3.609-1.58c-0.799-1.053-1.199-2.631-1.199-4.736
			c0-1.832,0.415-3.281,1.246-4.348c0.83-1.066,2.018-1.6,3.562-1.6c1.559,0,2.75,0.525,3.573,1.578
			c0.823,1.053,1.235,2.523,1.235,4.41c0,1.941-0.385,3.473-1.153,4.594C255.193,33.488,253.977,34.049,252.309,34.049z
			 M252.309,32.644c0.842,0,1.476-0.381,1.901-1.144c0.429-0.762,0.642-2.039,0.642-3.83c0-1.264-0.22-2.325-0.656-3.184
			c-0.438-0.857-1.066-1.287-1.887-1.287c-0.834,0-1.467,0.387-1.896,1.159s-0.646,1.876-0.646,3.312
			c0,1.613,0.217,2.846,0.646,3.697C250.842,32.218,251.475,32.644,252.309,32.644z"/>
		<path fill="#010101" d="M274.499,33.885h-2.185v-8.214c0-0.793-0.148-1.39-0.446-1.79c-0.298-0.398-0.743-0.6-1.339-0.6
			c-0.766,0-1.354,0.301-1.769,0.902c-0.413,0.602-0.62,1.385-0.62,2.349v7.353h-2.185v-8.214c0-0.793-0.152-1.39-0.456-1.79
			c-0.305-0.398-0.762-0.6-1.369-0.6c-0.752,0-1.333,0.305-1.742,0.913c-0.41,0.608-0.615,1.388-0.615,2.338v7.353h-2.186V21.959
			h1.221l0.441,1.764c0.73-1.292,1.846-1.938,3.342-1.938c0.793,0,1.451,0.15,1.975,0.451c0.522,0.301,0.908,0.752,1.154,1.354
			c0.676-1.203,1.76-1.805,3.25-1.805c1.176,0,2.057,0.317,2.646,0.953c0.588,0.636,0.883,1.586,0.883,2.851V33.885L274.499,33.885z
			"/>
		<path fill="#010101" d="M279.625,17.652v5.414c0.779-0.854,1.746-1.281,2.9-1.281c1.334,0,2.336,0.492,3.006,1.477
			c0.67,0.985,1.005,2.461,1.005,4.43c0,1.969-0.451,3.51-1.354,4.624c-0.902,1.114-2.143,1.671-3.723,1.671
			c-1.552,0-2.891-0.068-4.02-0.205v-16.13H279.625z M279.625,27.875v4.522c0.636,0.082,1.203,0.123,1.702,0.123
			c1.005,0,1.746-0.367,2.225-1.103c0.479-0.734,0.72-1.998,0.72-3.789c0-1.449-0.188-2.535-0.564-3.26
			c-0.376-0.725-0.938-1.088-1.682-1.088c-0.726,0-1.262,0.219-1.609,0.656c-0.35,0.438-0.568,0.969-0.656,1.596
			C279.669,26.158,279.625,26.939,279.625,27.875z"/>
		<path fill="#010101" d="M293.312,34.049c-1.605,0-2.809-0.527-3.608-1.58c-0.8-1.053-1.199-2.631-1.199-4.736
			c0-1.832,0.415-3.281,1.246-4.348c0.83-1.066,2.019-1.6,3.562-1.6c1.56,0,2.75,0.525,3.574,1.578
			c0.823,1.053,1.235,2.523,1.235,4.41c0,1.941-0.386,3.473-1.153,4.594C296.2,33.488,294.98,34.049,293.312,34.049z
			 M293.312,32.644c0.842,0,1.477-0.381,1.902-1.144c0.428-0.762,0.641-2.039,0.641-3.83c0-1.264-0.219-2.325-0.655-3.184
			c-0.438-0.857-1.066-1.287-1.888-1.287c-0.834,0-1.465,0.387-1.896,1.159s-0.646,1.876-0.646,3.312
			c0,1.613,0.215,2.846,0.646,3.697C291.848,32.218,292.479,32.644,293.312,32.644z"/>
	</g>
	<g id="meegotouch-textedit-button-background-pressed-bottom-center">
		<path fill="#FFFFFF" d="M316.117,336c5.5,0,10-4.5,10-10v-52h-64v62H316.117z"/>
		<path fill="#333333" d="M316.117,334c5.5,0,10-4.5,10-10v-52h-64v62H316.117z"/>
		
			<linearGradient id="SVGID_1_" gradientUnits="userSpaceOnUse" x1="283.1182" y1="-32.4995" x2="283.1182" y2="29.5005" gradientTransform="matrix(1 0 0 -1 11 302.5)">
			<stop  offset="0" style="stop-color:#B3B3B3"/>
			<stop  offset="1" style="stop-color:#4D4D4D"/>
		</linearGradient>
		<path fill="url(#SVGID_1_)" d="M316.117,335c5.5,0,10-4.5,10-10v-52h-64v62H316.117z"/>
	</g>
	<g id="meegotouch-textedit-button-background-pressed-vertical-center">
		<rect x="262.117" y="200" opacity="0.2" fill="#1B181C" enable-background="new    " width="64" height="62"/>
		<rect x="262.117" y="198" fill="#333333" width="64" height="62"/>
		
			<linearGradient id="SVGID_2_" gradientUnits="userSpaceOnUse" x1="283.1182" y1="41.5005" x2="283.1182" y2="103.5005" gradientTransform="matrix(1 0 0 -1 11 302.5)">
			<stop  offset="0" style="stop-color:#B3B3B3"/>
			<stop  offset="1" style="stop-color:#4D4D4D"/>
		</linearGradient>
		<rect x="262.117" y="199" fill="url(#SVGID_2_)" width="64" height="62"/>
	</g>
	<g id="meegotouch-textedit-button-background-pressed-vertical-top">
		<path opacity="0.2" fill="#1B181C" enable-background="new    " d="M326.117,136c0-5.5-4.5-10-10-10h-54v62h64V136z"/>
		<path fill="#333333" d="M326.117,134c0-5.5-4.5-10-10-10h-54v62h64V134z"/>
		
			<linearGradient id="SVGID_3_" gradientUnits="userSpaceOnUse" x1="283.1182" y1="115.5005" x2="283.1182" y2="177.5" gradientTransform="matrix(1 0 0 -1 11 302.5)">
			<stop  offset="0" style="stop-color:#B3B3B3"/>
			<stop  offset="1" style="stop-color:#4D4D4D"/>
		</linearGradient>
		<path fill="url(#SVGID_3_)" d="M326.117,135c0-5.5-4.5-10-10-10h-54v62h64V135z"/>
	</g>
	<g id="meegotouch-textedit-button-background-pressed">
		<path fill="#333333" d="M262.117,112h53.676c5.678,0,10.324-4.5,10.324-10V60c0-5.5-4.646-10-10.324-10h-53.676V112z"/>
		<path fill="#FFFFFF" d="M262.117,114h53.676c5.678,0,10.324-4.5,10.324-10V62c0-5.5-4.646-10-10.324-10h-53.676V114z"/>
		
			<linearGradient id="SVGID_4_" gradientUnits="userSpaceOnUse" x1="-1166.1177" y1="251.5" x2="-1166.1177" y2="189.5" gradientTransform="matrix(-1 0 0 -1 -872 302.5)">
			<stop  offset="0" style="stop-color:#4D4D4D"/>
			<stop  offset="1" style="stop-color:#B3B3B3"/>
		</linearGradient>
		<path fill="url(#SVGID_4_)" d="M262.117,51h53.676c5.678,0,10.324,4.5,10.324,10v42c0,5.5-4.646,10-10.324,10h-53.676V51z"/>
	</g>
	<g id="meegotouch-textedit-combo-background-pressed-vertical-bottom">
		<path fill="#CCCCCC" d="M188.117,326c0,5.5,4.5,10,10,10h54v-62h-64V326z"/>
		
			<linearGradient id="SVGID_5_" gradientUnits="userSpaceOnUse" x1="209.1182" y1="-32.4995" x2="209.1182" y2="30.5005" gradientTransform="matrix(1 0 0 -1 11 302.5)">
			<stop  offset="0" style="stop-color:#2AAAE2"/>
			<stop  offset="1" style="stop-color:#6AC0EC"/>
		</linearGradient>
		<path fill="url(#SVGID_5_)" d="M188.117,325c0,5.5,4.5,10,10,10h54v-63h-64V325z"/>
		<rect x="251.117" y="272" fill="#CCCCCC" width="1" height="63"/>
		<rect x="188.117" y="272" fill="#808080" width="63" height="1"/>
	</g>
	<g id="meegotouch-textedit-combo-background-pressed-vertical-center">
		<rect x="188.117" y="198" fill="#6AC0EC" width="64" height="64"/>
		<rect x="188.117" y="261" opacity="0.2" fill="#FFFFFF" enable-background="new    " width="63" height="1"/>
		<rect x="188.117" y="198" fill="#808080" width="63" height="1"/>
		<rect x="251.117" y="198" fill="#CCCCCC" width="1" height="64"/>
	</g>
	<g id="meegotouch-textedit-combo-background-pressed-vertical-top">
		<path fill="#808080" d="M188.117,134c0-5.5,4.5-10,10-10h54v62h-64V134z"/>
		
			<linearGradient id="SVGID_6_" gradientUnits="userSpaceOnUse" x1="209.1182" y1="114.5005" x2="209.1182" y2="177.5" gradientTransform="matrix(1 0 0 -1 11 302.5)">
			<stop  offset="0" style="stop-color:#6AC0EC"/>
			<stop  offset="1" style="stop-color:#83D5F7"/>
		</linearGradient>
		<path fill="url(#SVGID_6_)" d="M188.117,135c0-5.5,4.5-10,10-10h54v63h-64V135z"/>
		<rect x="251.117" y="125" fill="#CCCCCC" width="1" height="63"/>
		<rect x="188.117" y="187" opacity="0.2" fill="#FFFFFF" enable-background="new    " width="63" height="1"/>
	</g>
	<g id="meegotouch-textedit-combo-background-pressed">
		<path d="M252.117,50h-53.996c-5.502,0-10.004,4.5-10.004,10v14.667c0,5.5,4.502,10,10.004,10h53.996V50z"/>
		<path fill="#CCCCCC" d="M198.121,72.667c-5.502,0-10.004,4.5-10.004,10V104c0,5.5,4.502,10,10.004,10h53.996V72.667H198.121z"/>
		<g>
			
				<linearGradient id="SVGID_7_" gradientUnits="userSpaceOnUse" x1="209.1182" y1="189.5" x2="209.1182" y2="251.5" gradientTransform="matrix(1 0 0 -1 11 302.5)">
				<stop  offset="0" style="stop-color:#32A9DB"/>
				<stop  offset="1" style="stop-color:#88CFEF"/>
			</linearGradient>
			<path fill="url(#SVGID_7_)" d="M252.117,51h-53.996c-5.502,0-10.004,4.549-10.004,10.108v41.783
				c0,5.56,4.502,10.109,10.004,10.109h53.996V51z"/>
		</g>
		<rect x="251.117" y="50" fill="#808080" width="1" height="64"/>
	</g>
	<g id="meegotouch-textedit-button-background-vertical-bottom">
		<path fill="#CCCCCC" d="M162.208,336c5.5,0,10-4.5,10-10v-52h-64v62H162.208z"/>
		<path fill="#FFFFFF" d="M162.208,334c5.5,0,10-4.5,10-10v-52h-64v62H162.208z"/>
		
			<linearGradient id="SVGID_8_" gradientUnits="userSpaceOnUse" x1="129.2075" y1="-32.4995" x2="129.2075" y2="29.5005" gradientTransform="matrix(1 0 0 -1 11 302.5)">
			<stop  offset="0" style="stop-color:#D2D3D3"/>
			<stop  offset="1" style="stop-color:#E1E1E1"/>
		</linearGradient>
		<path fill="url(#SVGID_8_)" d="M162.208,335c5.5,0,10-4.5,10-10v-52h-64v62H162.208z"/>
		<rect x="108.208" y="273" fill="#FFFFFF" width="1" height="62"/>
	</g>
	<g id="meegotouch-textedit-button-background-vertical-center">
		<rect x="108.208" y="200" fill="#CCCCCC" width="64" height="62"/>
		<rect x="108.208" y="198" fill="#FFFFFF" width="64" height="62"/>
		<rect x="108.208" y="199" fill="#E1E1E1" width="64" height="62"/>
		<rect x="108.208" y="199" fill="#FFFFFF" width="1" height="62"/>
	</g>
	<g id="meegotouch-textedit-button-background-vertical-top">
		<path fill="#CCCCCC" d="M172.208,136c0-5.5-4.5-10-10-10h-54v62h64V136z"/>
		<path fill="#FFFFFF" d="M172.208,134c0-5.5-4.5-10-10-10h-54v62h64V134z"/>
		
			<linearGradient id="SVGID_9_" gradientUnits="userSpaceOnUse" x1="129.2075" y1="115.5005" x2="129.2075" y2="177.5" gradientTransform="matrix(1 0 0 -1 11 302.5)">
			<stop  offset="0" style="stop-color:#E1E1E1"/>
			<stop  offset="1" style="stop-color:#F3F3F3"/>
		</linearGradient>
		<path fill="url(#SVGID_9_)" d="M172.208,135c0-5.5-4.5-10-10-10h-54v62h64V135z"/>
		<rect x="108.208" y="125" fill="#FFFFFF" width="1" height="62"/>
	</g>
	<g id="meegotouch-textedit-button-background">
		<path fill="#808080" d="M108.208,51h53.676c5.678,0,10.324,4.5,10.324,10v42c0,5.5-4.646,10-10.324,10h-53.676V51z"/>
		<path fill="#FFFFFF" d="M108.208,49h53.676c5.678,0,10.324,4.5,10.324,10v42c0,5.5-4.646,10-10.324,10h-53.676V49z"/>
		
			<linearGradient id="SVGID_10_" gradientUnits="userSpaceOnUse" x1="-1012.208" y1="252.5" x2="-1012.208" y2="190.5" gradientTransform="matrix(-1 0 0 -1 -872 302.5)">
			<stop  offset="0" style="stop-color:#F2F2F2"/>
			<stop  offset="1" style="stop-color:#D1D2D2"/>
		</linearGradient>
		<path fill="url(#SVGID_10_)" d="M108.208,50h53.676c5.678,0,10.324,4.5,10.324,10v42c0,5.5-4.646,10-10.324,10h-53.676V50z"/>
		<rect x="108.208" y="50" fill="#FFFFFF" width="1.031" height="62"/>
	</g>
	<g id="meegotouch-textedit-combo-background-vertical-bottom">
		<path fill="#CCCCCC" d="M34.208,326c0,5.5,4.5,10,10,10h54v-62h-64V326z"/>
		<path fill="#FAF9F9" d="M34.208,325c0,5.5,4.5,10,10,10h54v-63h-64V325z"/>
		<rect x="97.208" y="272" fill="#CCCCCC" width="1" height="63"/>
		<rect x="34.208" y="272" fill="#9A9B9D" width="63" height="1"/>
	</g>
	<g id="meegotouch-textedit-combo-background-vertical-center">
		<rect x="34.208" y="198" fill="#FAF9F9" width="64" height="64"/>
		<rect x="34.208" y="261" opacity="0.2" fill="#010101" enable-background="new    " width="64" height="1"/>
		<rect x="34.208" y="198" fill="#9A9B9D" width="63" height="1"/>
		<rect x="97.208" y="198" fill="#CCCCCC" width="1" height="63"/>
	</g>
	<g id="meegotouch-textedit-combo-background-vertical-top">
		<path fill="#808080" d="M34.208,134c0-5.5,4.5-10,10-10h54v62h-64V134z"/>
		<path fill="#FAF9F9" d="M34.208,135c0-5.5,4.5-10,10-10h54v63h-64V135z"/>
		<rect x="97.208" y="125" fill="#CCCCCC" width="1" height="62"/>
		<rect x="34.208" y="187" opacity="0.2" fill="#010101" enable-background="new    " width="64" height="1"/>
	</g>
	<g id="meegotouch-textedit-combo-background">
		<path fill="#808080" d="M98.208,50H44.212c-5.502,0-10.004,4.5-10.004,10v14.667c0,5.5,4.502,10,10.004,10h53.996V50z"/>
		<path fill="#CCCCCC" d="M44.212,72.667c-5.502,0-10.004,4.5-10.004,10V104c0,5.5,4.502,10,10.004,10h53.996V72.667H44.212z"/>
		<path fill="#FAF9F9" d="M98.208,51H44.212c-5.502,0-10.004,4.549-10.004,10.108v41.783c0,5.56,4.502,10.108,10.004,10.108h53.996
			V51z"/>
		<rect x="97.208" y="50.996" fill="#CCCCCC" width="1" height="63.004"/>
	</g>
</g>
</svg>
