<?xml version="1.0" encoding="iso-8859-1"?>
<!-- Generator: Adobe Illustrator 14.0.0, SVG Export Plug-In . SVG Version: 6.00 Build 43363)  -->
<!DOCTYPE svg PUBLIC "-//W3C//DTD SVG 1.1//EN" "http://www.w3.org/Graphics/SVG/1.1/DTD/svg11.dtd">
<svg version="1.1" xmlns="http://www.w3.org/2000/svg" xmlns:xlink="http://www.w3.org/1999/xlink" x="0px" y="0px" width="350px"
	 height="150px" viewBox="0 0 350 150" style="enable-background:new 0 0 350 150;" xml:space="preserve">
<g id="meegotouch-switch-layer">
</g>
<g id="theme">
	<g id="meegotouch-switch">
		<g id="MeegoTouchSwithThemeTemplateHelper">
			<g>
				<path style="fill:#B3B3B3;" d="M16,149c-8.271,0-15-6.729-15-15V16C1,7.729,7.729,1,16,1h318c8.271,0,15,6.729,15,15v118
					c0,8.271-6.729,15-15,15H16z"/>
				<g>
					<path d="M334,2c7.72,0,14,6.28,14,14v118c0,7.72-6.28,14-14,14H16c-7.72,0-14-6.28-14-14V16C2,8.28,8.28,2,16,2H334 M334,0H16
						C7.2,0,0,7.2,0,16v118c0,8.8,7.2,16,16,16h318c8.8,0,16-7.2,16-16V16C350,7.2,342.8,0,334,0L334,0z"/>
				</g>
			</g>
			<path d="M148.541,41.013c-1.025,0-2.047-0.14-3.066-0.421v-1.589c1.121,0.321,2.123,0.481,3.004,0.481
				c0.943,0,1.691-0.211,2.242-0.635c0.549-0.424,0.824-1.033,0.824-1.826c0-0.506-0.107-0.934-0.322-1.286
				s-0.494-0.651-0.836-0.897s-0.838-0.557-1.486-0.934c-0.773-0.443-1.383-0.838-1.83-1.184c-0.449-0.346-0.822-0.786-1.123-1.323
				c-0.301-0.536-0.451-1.188-0.451-1.953c0-1.299,0.432-2.298,1.297-2.999s2.041-1.051,3.531-1.051
				c0.979,0,1.895,0.102,2.748,0.307v1.539c-0.957-0.213-1.824-0.318-2.604-0.318c-0.814,0-1.475,0.197-1.984,0.59
				s-0.764,0.938-0.764,1.635c0,0.451,0.135,0.883,0.404,1.293c0.271,0.41,1.004,0.963,2.199,1.66
				c0.779,0.451,1.395,0.848,1.842,1.189s0.826,0.779,1.139,1.312c0.311,0.533,0.465,1.173,0.465,1.918
				C153.77,39.516,152.027,41.013,148.541,41.013z"/>
			<path d="M170.793,28.924l-3.211,11.925h-2.562l-2.328-9.618l-2.502,9.618h-2.521l-3.088-11.925h2.205l2.318,10.038l2.521-10.038
				h2.41l2.369,10.059l2.461-10.059H170.793z"/>
			<path d="M174.975,40.849h-2.184v-10.5h-1.363v-1.425h3.547V40.849z M173.889,24.74c0.334,0,0.623,0.123,0.867,0.369
				c0.242,0.246,0.363,0.536,0.363,0.871c0,0.342-0.119,0.635-0.359,0.877c-0.238,0.242-0.529,0.363-0.871,0.363
				c-0.35,0-0.643-0.121-0.883-0.363c-0.238-0.242-0.357-0.535-0.357-0.877c0-0.349,0.119-0.643,0.357-0.882
				C173.246,24.859,173.539,24.74,173.889,24.74z"/>
			<path d="M181.127,41.013c-0.93,0-1.609-0.217-2.039-0.651c-0.432-0.434-0.646-1.126-0.646-2.076v-7.937h-1.568v-0.82l3.188-3.251
				h0.564v2.646h2.902v1.425h-2.902v7.577c0,0.65,0.105,1.079,0.318,1.287c0.211,0.209,0.533,0.312,0.963,0.312
				c0.445,0,1.047-0.099,1.805-0.297v1.415C182.795,40.89,181.934,41.013,181.127,41.013z"/>
			<path d="M189.619,41.013c-1.621,0-2.846-0.531-3.672-1.595c-0.828-1.062-1.24-2.623-1.24-4.681c0-1.914,0.445-3.391,1.338-4.43
				s2.189-1.559,3.891-1.559c0.664,0,1.336,0.085,2.021,0.257v1.486c-0.521-0.164-1.166-0.246-1.939-0.246
				c-0.998,0-1.754,0.398-2.271,1.194c-0.516,0.797-0.773,1.909-0.773,3.338c0,1.538,0.258,2.714,0.773,3.527
				c0.518,0.813,1.273,1.22,2.271,1.22c0.861,0,1.535-0.078,2.021-0.235v1.415C191.307,40.91,190.5,41.013,189.619,41.013z"/>
			<path d="M202.744,40.849h-2.186v-8.11c0-0.828-0.156-1.449-0.471-1.867c-0.314-0.416-0.787-0.625-1.416-0.625
				c-0.793,0-1.408,0.301-1.846,0.902s-0.656,1.385-0.656,2.348v7.353h-2.184V24.617h2.184v5.455c0.76-0.883,1.74-1.323,2.943-1.323
				c1.211,0,2.117,0.323,2.723,0.969c0.605,0.646,0.908,1.612,0.908,2.897V40.849z"/>
		</g>
		<g id="meegotouch-button-switch-colorstripe">
			<g id="_x3C_Path_x3E__2_">
				<linearGradient id="SVGID_1_" gradientUnits="userSpaceOnUse" x1="230" y1="132" x2="230" y2="88">
					<stop  offset="0" style="stop-color:#5DE1E2"/>
					<stop  offset="0.1889" style="stop-color:#4BCEE2"/>
					<stop  offset="0.4551" style="stop-color:#38BBE2"/>
					<stop  offset="0.7246" style="stop-color:#2DAFE2"/>
					<stop  offset="1" style="stop-color:#29ABE2"/>
				</linearGradient>
				<rect x="194" y="88" style="fill:url(#SVGID_1_);" width="72" height="44"/>
			</g>
			<g id="_x3C_Path_x3E__3_">
				<linearGradient id="SVGID_2_" gradientUnits="userSpaceOnUse" x1="302" y1="132" x2="302" y2="88">
					<stop  offset="0" style="stop-color:#808080"/>
					<stop  offset="1" style="stop-color:#1A1A1A"/>
				</linearGradient>
				<rect x="266" y="88" style="fill:url(#SVGID_2_);" width="72" height="44"/>
			</g>
		</g>
		<g id="meegotouch-button-switch-mask">
			<rect x="100" y="90" style="fill:none;" width="72" height="44"/>
			<g id="Normal_71_">
				<path style="fill:#FFFFFF;" d="M171,112c0,11-9,20-20,20h-30c-11,0-20-9-20-20l0,0c0-11,9-20,20-20h30C162,92,171,101,171,112
					L171,112z"/>
			</g>
		</g>
		<g id="meegotouch-button-switch-background">
			<g id="Normal_70_" style="opacity:0.1;">
				<path d="M92,113c0,11.55-9.45,21-21,21H41c-11.55,0-21-9.45-21-21v-2c0-11.55,9.45-21,21-21h30c11.55,0,21,9.45,21,21V113z"/>
			</g>
			<g id="Normal_55_">
				<path style="fill:#FFFFFF;" d="M91,113c0,11-9,20-20,20H41c-11,0-20-9-20-20l0,0c0-11,9-20,20-20h30C82,93,91,102,91,113L91,113
					z"/>
			</g>
			<g id="Normal_54_">
				<path style="fill:#333333;" d="M91,111c0,11-9,20-20,20H41c-11,0-20-9-20-20l0,0c0-11,9-20,20-20h30C82,91,91,100,91,111L91,111
					z"/>
			</g>
		</g>
		<g id="meegotouch-button-switch-thumb">
			<rect id="_x3C_Path_x3E__5_" x="20" y="35" style="fill:none;" width="44" height="44"/>
			<g id="Normal_53_">
				<linearGradient id="SVGID_3_" gradientUnits="userSpaceOnUse" x1="42" y1="76.5" x2="42" y2="37.5005">
					<stop  offset="0" style="stop-color:#E6E6E6"/>
					<stop  offset="0.5042" style="stop-color:#F2F2F2"/>
					<stop  offset="1" style="stop-color:#F7F7F7"/>
				</linearGradient>
				<path style="fill:url(#SVGID_3_);" d="M42,76.5c-10.752,0-19.5-8.748-19.5-19.5S31.248,37.5,42,37.5S61.5,46.248,61.5,57
					S52.752,76.5,42,76.5L42,76.5z"/>
				<path style="fill:#FFFFFF;" d="M42,38c10.477,0,19,8.523,19,19s-8.523,19-19,19s-19-8.523-19-19S31.523,38,42,38 M42,37
					c-11,0-20,9-20,20s9,20,20,20s20-9,20-20S53,37,42,37L42,37z"/>
			</g>
		</g>
	</g>
</g>
</svg>
