<?xml version="1.0" encoding="iso-8859-1"?>
<!-- Generator: Adobe Illustrator 14.0.0, SVG Export Plug-In . SVG Version: 6.00 Build 43363)  -->
<!DOCTYPE svg PUBLIC "-//W3C//DTD SVG 1.1//EN" "http://www.w3.org/Graphics/SVG/1.1/DTD/svg11.dtd">
<svg version="1.1" id="duicore-layer" xmlns="http://www.w3.org/2000/svg" xmlns:xlink="http://www.w3.org/1999/xlink" x="0px"
	 y="0px" width="679px" height="610px" viewBox="0 0 679 610" style="enable-background:new 0 0 679 610;" xml:space="preserve">
<g id="duicore">
	<g id="duicoreThemeTemplateHelper">
		<g>
			<path style="fill:#E6E6E6;" d="M31.19,607.395c-16.124,0-29.241-13.117-29.241-29.241V31.19
				c0-16.124,13.118-29.241,29.241-29.241h616.004c16.123,0,29.241,13.118,29.241,29.241v546.963
				c0,16.124-13.118,29.241-29.241,29.241H31.19z"/>
			<path d="M647.194,2c16.096,0,29.19,13.095,29.19,29.19v546.963c0,16.096-13.095,29.19-29.19,29.19H31.19
				c-16.096,0-29.19-13.095-29.19-29.19V31.19C2,15.095,15.095,2,31.19,2H647.194 M647.194,0H31.19C14.036,0,0,14.036,0,31.19
				v546.963c0,17.154,14.036,31.19,31.19,31.19h616.004c17.154,0,31.19-14.036,31.19-31.19V31.19
				C678.385,14.036,664.349,0,647.194,0L647.194,0z"/>
		</g>
		<path style="fill:#010101;" d="M316.394,47.461c-3.188,0-5.581-1.09-7.181-3.27s-2.399-5.648-2.399-10.406
			c0-4.289,0.812-7.543,2.435-9.764s4.028-3.332,7.216-3.332c1.477,0,2.812,0.176,4.008,0.527v2.672
			c-1.23-0.387-2.455-0.58-3.674-0.58c-1.992,0-3.486,0.861-4.482,2.584s-1.494,4.307-1.494,7.752c0,3.738,0.513,6.539,1.538,8.402
			s2.563,2.795,4.614,2.795c1.137,0,2.303-0.182,3.498-0.545v2.602C319.101,47.273,317.741,47.461,316.394,47.461z"/>
		<path style="fill:#010101;" d="M331.335,47.461c-2.754,0-4.816-0.902-6.188-2.707s-2.057-4.512-2.057-8.121
			c0-3.141,0.712-5.625,2.136-7.453s3.46-2.742,6.108-2.742c2.672,0,4.714,0.902,6.126,2.707s2.118,4.324,2.118,7.559
			c0,3.328-0.659,5.953-1.978,7.875S334.194,47.461,331.335,47.461z M331.335,45.053c1.441,0,2.528-0.652,3.261-1.959
			s1.099-3.496,1.099-6.566c0-2.168-0.375-3.986-1.125-5.457s-1.828-2.207-3.234-2.207c-1.43,0-2.514,0.662-3.252,1.986
			s-1.107,3.217-1.107,5.678c0,2.766,0.369,4.879,1.107,6.338S329.905,45.053,331.335,45.053z"/>
		<path style="fill:#010101;" d="M345.907,26.736l0.861,3.41c1.137-2.402,3.117-3.604,5.941-3.604c0.375,0,0.65,0.018,0.826,0.053
			v3.41c-0.293-0.023-0.732-0.035-1.318-0.035c-1.605,0-2.783,0.385-3.533,1.152s-1.125,1.965-1.125,3.594V47.18h-3.744V26.736
			H345.907z"/>
		<path style="fill:#010101;" d="M369.55,44.051V46.6c-1.84,0.574-3.744,0.861-5.713,0.861c-2.859,0-4.998-0.861-6.416-2.584
			s-2.127-4.377-2.127-7.963c0-3.152,0.686-5.686,2.057-7.602s3.328-2.875,5.871-2.875c2.062,0,3.612,0.549,4.649,1.645
			s1.702,2.438,1.995,4.025s0.439,3.477,0.439,5.668h-11.039c0,2.379,0.422,4.164,1.266,5.354s2.109,1.783,3.797,1.783
			C365.759,44.912,367.499,44.625,369.55,44.051z M359.267,35.473h7.365c0-2.473-0.293-4.219-0.879-5.238s-1.43-1.529-2.531-1.529
			c-1.23,0-2.171,0.527-2.821,1.582S359.372,33.07,359.267,35.473z"/>
	</g>
	<g id="duiquicklaunchbar-background">
		
			<linearGradient id="SVGID_1_" gradientUnits="userSpaceOnUse" x1="-60.0005" y1="305.0005" x2="-60.0005" y2="390.0005" gradientTransform="matrix(1 0 0 -1 202.5 690)">
			<stop  offset="0" style="stop-color:#010101"/>
			<stop  offset="0.4746" style="stop-color:#030303"/>
			<stop  offset="0.6456" style="stop-color:#0B0B0B"/>
			<stop  offset="0.7675" style="stop-color:#161616"/>
			<stop  offset="0.866" style="stop-color:#252525"/>
			<stop  offset="0.9494" style="stop-color:#3C3C3B"/>
			<stop  offset="1" style="stop-color:#4E4E4E"/>
		</linearGradient>
		<rect x="100" y="300" style="opacity:0.8;fill:url(#SVGID_1_);" width="85" height="85"/>
	</g>
	<g id="duistatusmenuclose-background">
		<rect x="100" y="200" style="fill:#010101;" width="60" height="60"/>
	</g>
</g>
</svg>
