<?xml version="1.0" encoding="iso-8859-1"?>
<!-- Generator: Adobe Illustrator 14.0.0, SVG Export Plug-In . SVG Version: 6.00 Build 43363)  -->
<!DOCTYPE svg PUBLIC "-//W3C//DTD SVG 1.1//EN" "http://www.w3.org/Graphics/SVG/1.1/DTD/svg11.dtd">
<svg version="1.1" xmlns="http://www.w3.org/2000/svg" xmlns:xlink="http://www.w3.org/1999/xlink" x="0px" y="0px" width="370px"
	 height="284px" viewBox="0 0 370 284" style="enable-background:new 0 0 370 284;" xml:space="preserve">
<g id="speechbubble-layer">
</g>
<g id="dui-theme-rd">
	<g id="speechbubble">
		<g id="SpeechBubbleThemeTemplateHelper">
			<g>
				<path style="fill:#B3B3B3;" d="M17,283c-8.271,0-15-6.729-15-15V16C2,7.729,8.729,1,17,1h338c8.271,0,15,6.729,15,15v252
					c0,8.271-6.729,15-15,15H17z"/>
				<g>
					<path d="M355,2c7.72,0,14,6.28,14,14v252c0,7.72-6.28,14-14,14H17c-7.72,0-14-6.28-14-14V16C3,8.28,9.28,2,17,2H355 M355,0H17
						C8.2,0,1,7.2,1,16v252c0,8.8,7.2,16,16,16h338c8.8,0,16-7.2,16-16V16C371,7.2,363.8,0,355,0L355,0z"/>
				</g>
			</g>
			<path style="fill:#010101;" d="M98.975,33.396c-1.172,0-2.34-0.16-3.504-0.48v-1.816c1.281,0.367,2.426,0.551,3.434,0.551
				c1.078,0,1.932-0.242,2.561-0.727s0.943-1.18,0.943-2.086c0-0.578-0.123-1.068-0.369-1.471s-0.564-0.744-0.955-1.025
				s-0.957-0.637-1.699-1.066c-0.883-0.508-1.58-0.959-2.092-1.354s-0.939-0.898-1.283-1.512s-0.516-1.357-0.516-2.232
				c0-1.484,0.494-2.627,1.482-3.428s2.334-1.201,4.037-1.201c1.117,0,2.164,0.117,3.141,0.352v1.758
				c-1.094-0.242-2.086-0.363-2.977-0.363c-0.93,0-1.686,0.225-2.268,0.674s-0.873,1.072-0.873,1.869
				c0,0.516,0.154,1.008,0.463,1.477s1.146,1.102,2.514,1.898c0.891,0.516,1.592,0.969,2.104,1.359s0.945,0.891,1.301,1.5
				s0.533,1.34,0.533,2.191C104.951,31.685,102.959,33.396,98.975,33.396z"/>
			<path style="fill:#010101;" d="M108.76,19.579l0.504,1.945c0.492-0.727,1.039-1.266,1.641-1.617s1.367-0.527,2.297-0.527
				c1.508,0,2.641,0.568,3.398,1.705s1.137,2.842,1.137,5.115c0,2.25-0.518,4.004-1.553,5.262s-2.525,1.887-4.471,1.887
				c-0.516,0-1.133-0.086-1.852-0.258v4.031h-2.496V19.579H108.76z M109.861,25.673v5.637c0.602,0.227,1.234,0.34,1.898,0.34
				c1.125,0,1.971-0.391,2.537-1.172s0.85-2.246,0.85-4.395c0-1.664-0.211-2.912-0.633-3.744s-1.051-1.248-1.887-1.248
				c-0.906,0-1.594,0.35-2.062,1.049S109.861,24.017,109.861,25.673z"/>
			<path style="fill:#010101;" d="M129.49,31.122v1.699c-1.227,0.383-2.496,0.574-3.809,0.574c-1.906,0-3.332-0.574-4.277-1.723
				s-1.418-2.918-1.418-5.309c0-2.102,0.457-3.791,1.371-5.068s2.219-1.916,3.914-1.916c1.375,0,2.408,0.365,3.1,1.096
				s1.135,1.625,1.33,2.684s0.293,2.318,0.293,3.779h-7.359c0,1.586,0.281,2.775,0.844,3.568s1.406,1.189,2.531,1.189
				C126.963,31.696,128.123,31.505,129.49,31.122z M122.635,25.403h4.91c0-1.648-0.195-2.812-0.586-3.492s-0.953-1.02-1.688-1.02
				c-0.82,0-1.447,0.352-1.881,1.055S122.705,23.802,122.635,25.403z"/>
			<path style="fill:#010101;" d="M141.701,31.122v1.699c-1.227,0.383-2.496,0.574-3.809,0.574c-1.906,0-3.332-0.574-4.277-1.723
				s-1.418-2.918-1.418-5.309c0-2.102,0.457-3.791,1.371-5.068s2.219-1.916,3.914-1.916c1.375,0,2.408,0.365,3.1,1.096
				s1.135,1.625,1.33,2.684s0.293,2.318,0.293,3.779h-7.359c0,1.586,0.281,2.775,0.844,3.568s1.406,1.189,2.531,1.189
				C139.174,31.696,140.334,31.505,141.701,31.122z M134.846,25.403h4.91c0-1.648-0.195-2.812-0.586-3.492s-0.953-1.02-1.688-1.02
				c-0.82,0-1.447,0.352-1.881,1.055S134.916,23.802,134.846,25.403z"/>
			<path style="fill:#010101;" d="M150.021,33.396c-1.852,0-3.25-0.607-4.195-1.822s-1.418-2.998-1.418-5.35
				c0-2.188,0.51-3.875,1.529-5.062s2.502-1.781,4.447-1.781c0.758,0,1.527,0.098,2.309,0.293v1.699
				c-0.594-0.188-1.332-0.281-2.215-0.281c-1.141,0-2.006,0.455-2.596,1.365s-0.885,2.182-0.885,3.814
				c0,1.758,0.295,3.102,0.885,4.031s1.455,1.395,2.596,1.395c0.984,0,1.754-0.09,2.309-0.27v1.617
				C151.951,33.278,151.029,33.396,150.021,33.396z"/>
			<path style="fill:#010101;" d="M165.021,33.208h-2.496v-9.27c0-0.945-0.18-1.656-0.539-2.133s-0.898-0.715-1.617-0.715
				c-0.906,0-1.609,0.344-2.109,1.031s-0.75,1.582-0.75,2.684v8.402h-2.496V14.657h2.496v6.234c0.867-1.008,1.988-1.512,3.363-1.512
				c1.383,0,2.42,0.369,3.111,1.107s1.037,1.842,1.037,3.311V33.208z"/>
			<path style="fill:#010101;" d="M176.564,14.657v6.188c0.891-0.977,1.996-1.465,3.316-1.465c1.523,0,2.668,0.562,3.434,1.688
				s1.148,2.812,1.148,5.062s-0.516,4.012-1.547,5.285s-2.449,1.91-4.254,1.91c-1.773,0-3.305-0.078-4.594-0.234V14.657H176.564z
				 M176.564,26.341v5.168c0.727,0.094,1.375,0.141,1.945,0.141c1.148,0,1.996-0.42,2.543-1.26s0.82-2.283,0.82-4.33
				c0-1.656-0.215-2.898-0.645-3.727s-1.07-1.242-1.922-1.242c-0.828,0-1.441,0.25-1.84,0.75s-0.648,1.107-0.75,1.822
				S176.564,25.271,176.564,26.341z"/>
			<path style="fill:#010101;" d="M191.4,33.396c-1.391,0-2.432-0.361-3.123-1.084s-1.037-1.807-1.037-3.252v-9.48h2.496v9.047
				c0,1.023,0.18,1.791,0.539,2.303s0.902,0.768,1.629,0.768c0.906,0,1.607-0.344,2.104-1.031s0.744-1.582,0.744-2.684v-8.402h2.496
				v13.629h-1.383l-0.504-2.016C194.494,32.661,193.174,33.396,191.4,33.396z"/>
			<path style="fill:#010101;" d="M203.154,14.657v6.188c0.891-0.977,1.996-1.465,3.316-1.465c1.523,0,2.668,0.562,3.434,1.688
				s1.148,2.812,1.148,5.062s-0.516,4.012-1.547,5.285s-2.449,1.91-4.254,1.91c-1.773,0-3.305-0.078-4.594-0.234V14.657H203.154z
				 M203.154,26.341v5.168c0.727,0.094,1.375,0.141,1.945,0.141c1.148,0,1.996-0.42,2.543-1.26s0.82-2.283,0.82-4.33
				c0-1.656-0.215-2.898-0.645-3.727s-1.07-1.242-1.922-1.242c-0.828,0-1.441,0.25-1.84,0.75s-0.648,1.107-0.75,1.822
				S203.154,25.271,203.154,26.341z"/>
			<path style="fill:#010101;" d="M216.373,14.657v6.188c0.891-0.977,1.996-1.465,3.316-1.465c1.523,0,2.668,0.562,3.434,1.688
				s1.148,2.812,1.148,5.062s-0.516,4.012-1.547,5.285s-2.449,1.91-4.254,1.91c-1.773,0-3.305-0.078-4.594-0.234V14.657H216.373z
				 M216.373,26.341v5.168c0.727,0.094,1.375,0.141,1.945,0.141c1.148,0,1.996-0.42,2.543-1.26s0.82-2.283,0.82-4.33
				c0-1.656-0.215-2.898-0.645-3.727s-1.07-1.242-1.922-1.242c-0.828,0-1.441,0.25-1.84,0.75s-0.648,1.107-0.75,1.822
				S216.373,25.271,216.373,26.341z"/>
			<path style="fill:#010101;" d="M227.096,33.208V14.657h2.496v18.551H227.096z"/>
			<path style="fill:#010101;" d="M241.932,31.122v1.699c-1.227,0.383-2.496,0.574-3.809,0.574c-1.906,0-3.332-0.574-4.277-1.723
				s-1.418-2.918-1.418-5.309c0-2.102,0.457-3.791,1.371-5.068s2.219-1.916,3.914-1.916c1.375,0,2.408,0.365,3.1,1.096
				s1.135,1.625,1.33,2.684s0.293,2.318,0.293,3.779h-7.359c0,1.586,0.281,2.775,0.844,3.568s1.406,1.189,2.531,1.189
				C239.404,31.696,240.564,31.505,241.932,31.122z M235.076,25.403h4.91c0-1.648-0.195-2.812-0.586-3.492s-0.953-1.02-1.688-1.02
				c-0.82,0-1.447,0.352-1.881,1.055S235.146,23.802,235.076,25.403z"/>
		</g>
		<g id="meegotouch-speechbubble-outgoing-mirrrored-background-pressed">
			<g>
				<linearGradient id="SVGID_1_" gradientUnits="userSpaceOnUse" x1="275" y1="197.5" x2="275" y2="135.2979">
					<stop  offset="0" style="stop-color:#2AAAE2"/>
					<stop  offset="1" style="stop-color:#1F749A"/>
				</linearGradient>
				<path style="fill:url(#SVGID_1_);" d="M253,197.5c-5.238,0-9.5-4.262-9.5-9.5v-52.703l8.329,9.203H297
					c5.238,0,9.5,4.262,9.5,9.5v34c0,5.238-4.262,9.5-9.5,9.5H253z"/>
				<g>
					<path style="fill:#666666;" d="M244,136.595l7.31,8.076l0.298,0.329h0.443H297c4.963,0,9,4.037,9,9v34c0,4.963-4.037,9-9,9h-44
						c-4.963,0-9-4.037-9-9v-34.334V147V136.595 M243,134v13v6.666V188c0,5.5,4.5,10,10,10h44c5.5,0,10-4.5,10-10v-34
						c0-5.5-4.5-10-10-10h-44.949L243,134L243,134z"/>
				</g>
			</g>
		</g>
		<g id="meegotouch-speechbubble-outgoing-mirrrored-background">
			<g>
				<linearGradient id="SVGID_2_" gradientUnits="userSpaceOnUse" x1="201" y1="197.5" x2="201" y2="135.2979">
					<stop  offset="0" style="stop-color:#47A4D7"/>
					<stop  offset="0.2849" style="stop-color:#4BA6D8"/>
					<stop  offset="0.5137" style="stop-color:#56ADDC"/>
					<stop  offset="0.723" style="stop-color:#67B9E4"/>
					<stop  offset="0.9195" style="stop-color:#7FCBF0"/>
					<stop  offset="1" style="stop-color:#8BD7F8"/>
				</linearGradient>
				<path style="fill:url(#SVGID_2_);" d="M179,197.5c-5.238,0-9.5-4.262-9.5-9.5v-52.703l8.329,9.203H223
					c5.238,0,9.5,4.262,9.5,9.5v34c0,5.238-4.262,9.5-9.5,9.5H179z"/>
				<g>
					<path style="fill:#666666;" d="M170,136.595l7.31,8.076l0.297,0.329h0.444H223c4.963,0,9,4.037,9,9v34c0,4.963-4.037,9-9,9h-44
						c-4.962,0-9-4.037-9-9v-34.334V147V136.595 M169,134v13v6.666V188c0,5.5,4.5,10,10,10h44c5.5,0,10-4.5,10-10v-34
						c0-5.5-4.5-10-10-10h-44.949L169,134L169,134z"/>
				</g>
			</g>
		</g>
		<g id="meegotouch-speechbubble-incoming-mirrrored-background-pressed">
			<g>
				<linearGradient id="SVGID_3_" gradientUnits="userSpaceOnUse" x1="126.6489" y1="197.5" x2="126.6489" y2="134.5005">
					<stop  offset="0" style="stop-color:#B3B3B3"/>
					<stop  offset="1" style="stop-color:#4D4D4D"/>
				</linearGradient>
				<path style="fill:url(#SVGID_3_);" d="M105,197.5c-5.238,0-9.5-4.262-9.5-9.5v-44c0-5.238,4.262-9.5,9.5-9.5h52.798
					l-7.298,7.345V188c0,5.238-4.262,9.5-9.5,9.5H105z"/>
				<g>
					<path style="fill:#666666;" d="M156.597,135l-6.306,6.346L150,141.638v0.413V188c0,4.963-4.038,9-9,9h-36c-4.962,0-9-4.037-9-9
						v-44c0-4.962,4.038-9,9-9H156.597 M159,134h-54c-5.5,0-10,4.5-10,10v44c0,5.5,4.5,10,10,10h36c5.5,0,10-4.5,10-10v-45.949
						L159,134L159,134z"/>
				</g>
			</g>
		</g>
		<g id="meegotouch-speechbubble-incoming-mirrrored-background">
			<g>
				<linearGradient id="SVGID_4_" gradientUnits="userSpaceOnUse" x1="52.6489" y1="197.5" x2="52.6489" y2="134.5005">
					<stop  offset="0" style="stop-color:#D2D3D3"/>
					<stop  offset="1" style="stop-color:#F2F2F2"/>
				</linearGradient>
				<path style="fill:url(#SVGID_4_);" d="M31,197.5c-5.238,0-9.5-4.262-9.5-9.5v-44c0-5.238,4.262-9.5,9.5-9.5h52.798l-7.298,7.345
					V188c0,5.238-4.262,9.5-9.5,9.5H31z"/>
				<g>
					<path style="fill:#666666;" d="M82.597,135l-6.306,6.346L76,141.638v0.413V188c0,4.963-4.038,9-9,9H31c-4.962,0-9-4.037-9-9
						v-44c0-4.962,4.038-9,9-9H82.597 M85,134H31c-5.5,0-10,4.5-10,10v44c0,5.5,4.5,10,10,10h36c5.5,0,10-4.5,10-10v-45.949L85,134
						L85,134z"/>
				</g>
			</g>
		</g>
		<g id="meegotouch-speechbubble-outgoing-background-pressed">
			<g>
				<linearGradient id="SVGID_5_" gradientUnits="userSpaceOnUse" x1="275" y1="123.5" x2="275" y2="61.2974">
					<stop  offset="0" style="stop-color:#2AAAE2"/>
					<stop  offset="1" style="stop-color:#1F749A"/>
				</linearGradient>
				<path style="fill:url(#SVGID_5_);" d="M253,123.5c-5.238,0-9.5-4.262-9.5-9.5V80c0-5.238,4.262-9.5,9.5-9.5h45.171l8.329-9.203
					V114c0,5.238-4.262,9.5-9.5,9.5H253z"/>
				<g>
					<path style="fill:#666666;" d="M306,62.595V73v6.666V114c0,4.962-4.037,9-9,9h-44c-4.963,0-9-4.038-9-9V80c0-4.962,4.037-9,9-9
						h44.949h0.443l0.298-0.329L306,62.595 M307,60l-9.051,10H253c-5.5,0-10,4.5-10,10v34c0,5.5,4.5,10,10,10h44c5.5,0,10-4.5,10-10
						V79.666V73V60L307,60z"/>
				</g>
			</g>
		</g>
		<g id="meegotouch-speechbubble-outgoing-background">
			<g>
				<linearGradient id="SVGID_6_" gradientUnits="userSpaceOnUse" x1="201" y1="123.5" x2="201" y2="61.2974">
					<stop  offset="0" style="stop-color:#47A4D7"/>
					<stop  offset="0.2849" style="stop-color:#4BA6D8"/>
					<stop  offset="0.5137" style="stop-color:#56ADDC"/>
					<stop  offset="0.723" style="stop-color:#67B9E4"/>
					<stop  offset="0.9195" style="stop-color:#7FCBF0"/>
					<stop  offset="1" style="stop-color:#8BD7F8"/>
				</linearGradient>
				<path style="fill:url(#SVGID_6_);" d="M179,123.5c-5.238,0-9.5-4.262-9.5-9.5V80c0-5.238,4.262-9.5,9.5-9.5h45.171l8.329-9.203
					V114c0,5.238-4.262,9.5-9.5,9.5H179z"/>
				<g>
					<path style="fill:#666666;" d="M232,62.595V73v6.666V114c0,4.962-4.037,9-9,9h-44c-4.962,0-9-4.038-9-9V80c0-4.962,4.038-9,9-9
						h44.949h0.443l0.298-0.329L232,62.595 M233,60l-9.051,10H179c-5.5,0-10,4.5-10,10v34c0,5.5,4.5,10,10,10h44c5.5,0,10-4.5,10-10
						V79.666V73V60L233,60z"/>
				</g>
			</g>
		</g>
		<g id="meegotouch-speechbubble-incoming-background-pressed">
			<g>
				<linearGradient id="SVGID_7_" gradientUnits="userSpaceOnUse" x1="127.3511" y1="123.5" x2="127.3511" y2="60.5">
					<stop  offset="0" style="stop-color:#B3B3B3"/>
					<stop  offset="1" style="stop-color:#4D4D4D"/>
				</linearGradient>
				<path style="fill:url(#SVGID_7_);" d="M113,123.5c-5.238,0-9.5-4.262-9.5-9.5V67.845L96.202,60.5H149c5.238,0,9.5,4.262,9.5,9.5
					v44c0,5.238-4.262,9.5-9.5,9.5H113z"/>
				<g>
					<path style="fill:#666666;" d="M149,61c4.962,0,9,4.038,9,9v44c0,4.962-4.038,9-9,9h-36c-4.962,0-9-4.038-9-9V68.051v-0.413
						l-0.291-0.292L97.403,61H149 M149,60H95l8,8.051V114c0,5.5,4.5,10,10,10h36c5.5,0,10-4.5,10-10V70C159,64.5,154.5,60,149,60
						L149,60z"/>
				</g>
			</g>
		</g>
		<g id="meegotouch-speechbubble-incoming-background">
			<g>
				<linearGradient id="SVGID_8_" gradientUnits="userSpaceOnUse" x1="53.3511" y1="123.5" x2="53.3511" y2="60.5">
					<stop  offset="0" style="stop-color:#D2D3D3"/>
					<stop  offset="1" style="stop-color:#F2F2F2"/>
				</linearGradient>
				<path style="fill:url(#SVGID_8_);" d="M39,123.5c-5.238,0-9.5-4.262-9.5-9.5V67.845L22.202,60.5H75c5.238,0,9.5,4.262,9.5,9.5
					v44c0,5.238-4.262,9.5-9.5,9.5H39z"/>
				<g>
					<path style="fill:#666666;" d="M75,61c4.962,0,9,4.038,9,9v44c0,4.962-4.038,9-9,9H39c-4.962,0-9-4.038-9-9V68.051v-0.413
						l-0.291-0.292L23.403,61H75 M75,60H21l8,8.051V114c0,5.5,4.5,10,10,10h36c5.5,0,10-4.5,10-10V70C85,64.5,80.5,60,75,60L75,60z"
						/>
				</g>
			</g>
		</g>
	</g>
</g>
</svg>
