<?xml version="1.0" encoding="UTF-8" standalone="no"?>
<!-- Created with Inkscape (http://www.inkscape.org/) -->

<svg
   xmlns:dc="http://purl.org/dc/elements/1.1/"
   xmlns:cc="http://creativecommons.org/ns#"
   xmlns:rdf="http://www.w3.org/1999/02/22-rdf-syntax-ns#"
   xmlns:svg="http://www.w3.org/2000/svg"
   xmlns="http://www.w3.org/2000/svg"
   xmlns:sodipodi="http://sodipodi.sourceforge.net/DTD/sodipodi-0.dtd"
   xmlns:inkscape="http://www.inkscape.org/namespaces/inkscape"
   width="744.09448819"
   height="1052.3622047"
   id="svg5211"
   version="1.1"
   inkscape:version="0.47pre4 r22446"
   sodipodi:docname="temp-icons-widgetsgallery.svg">
  <defs
     id="defs5213">
    <inkscape:perspective
       sodipodi:type="inkscape:persp3d"
       inkscape:vp_x="0 : 526.18109 : 1"
       inkscape:vp_y="0 : 1000 : 0"
       inkscape:vp_z="744.09448 : 526.18109 : 1"
       inkscape:persp3d-origin="372.04724 : 350.78739 : 1"
       id="perspective5219" />
    <inkscape:perspective
       id="perspective5159"
       inkscape:persp3d-origin="0.5 : 0.33333333 : 1"
       inkscape:vp_z="1 : 0.5 : 1"
       inkscape:vp_y="0 : 1000 : 0"
       inkscape:vp_x="0 : 0.5 : 1"
       sodipodi:type="inkscape:persp3d" />
  </defs>
  <sodipodi:namedview
     id="base"
     pagecolor="#ffffff"
     bordercolor="#666666"
     borderopacity="1.0"
     inkscape:pageopacity="0.0"
     inkscape:pageshadow="2"
     inkscape:zoom="1.4"
     inkscape:cx="318.52587"
     inkscape:cy="723.57107"
     inkscape:document-units="px"
     inkscape:current-layer="layer1"
     showgrid="false"
     inkscape:window-width="1629"
     inkscape:window-height="1424"
     inkscape:window-x="463"
     inkscape:window-y="48"
     inkscape:window-maximized="0" />
  <metadata
     id="metadata5216">
    <rdf:RDF>
      <cc:Work
         rdf:about="">
        <dc:format>image/svg+xml</dc:format>
        <dc:type
           rdf:resource="http://purl.org/dc/dcmitype/StillImage" />
        <dc:title />
      </cc:Work>
    </rdf:RDF>
  </metadata>
  <g
     inkscape:label="Layer 1"
     inkscape:groupmode="layer"
     id="layer1">
    <rect
       style="opacity:1;color:#000000;fill:#888a85;fill-opacity:1;fill-rule:nonzero;stroke:#000000;stroke-width:1;stroke-linecap:butt;stroke-linejoin:miter;stroke-miterlimit:4;stroke-opacity:1;stroke-dasharray:none;stroke-dashoffset:0;marker:none;visibility:visible;display:inline;overflow:visible;enable-background:accumulate"
       id="rect5324"
       width="1120"
       height="1297.1428"
       x="-182.85715"
       y="-70.494957" />
    <text
       transform="translate(-665.62988,-854.80969)"
       style="font-size:20px;fill:#eeeeec;display:inline;font-family:NokiaSansOT-Regular;fill-opacity:1"
       id="text716"
       x="703.90918"
       y="1008.7773">Icon-new-SMS</text>
    <text
       transform="translate(-665.62988,-854.80969)"
       style="font-size:20px;fill:#eeeeec;display:inline;font-family:NokiaSansOT-Regular;fill-opacity:1"
       id="text718"
       x="703.66699"
       y="1148.3086">Icon-contacts</text>
    <text
       transform="translate(-665.62988,-854.80969)"
       style="font-size:20px;fill:#eeeeec;display:inline;font-family:NokiaSansOT-Regular;fill-opacity:1"
       id="text720"
       x="713.11908"
       y="1283.9746">Icon-music</text>
    <text
       transform="translate(-665.62988,-854.80969)"
       style="font-size:20px;fill:#eeeeec;display:inline;font-family:NokiaSansOT-Regular;fill-opacity:1"
       id="text722"
       x="891.24323"
       y="1008.7773">Icon-camera</text>
    <text
       transform="translate(-665.62988,-854.80969)"
       style="font-size:20px;fill:#eeeeec;display:inline;font-family:NokiaSansOT-Regular;fill-opacity:1"
       id="text724"
       x="883.66699"
       y="1148.3086">Icon-messages</text>
    <text
       transform="translate(-665.62988,-854.80969)"
       style="font-size:20px;fill:#eeeeec;display:inline;font-family:NokiaSansOT-Regular;fill-opacity:1"
       id="text726"
       x="890.45209"
       y="1283.9746">Icon-pictures</text>
    <text
       transform="translate(-665.62988,-854.80969)"
       style="font-size:20px;fill:#eeeeec;display:inline;font-family:NokiaSansOT-Regular;fill-opacity:1"
       id="text728"
       x="1060.5781"
       y="1008.7773">Icon-bookmarks</text>
    <text
       transform="translate(-665.62988,-854.80969)"
       style="font-size:20px;fill:#eeeeec;display:inline;font-family:NokiaSansOT-Regular;fill-opacity:1"
       id="text730"
       x="1085.335"
       y="1148.3086">Icon-email</text>
    <text
       transform="translate(-665.62988,-854.80969)"
       style="font-size:20px;fill:#eeeeec;display:inline;font-family:NokiaSansOT-Regular;fill-opacity:1"
       id="text732"
       x="1083.1201"
       y="1283.9746">Icon-video</text>
    <text
       transform="translate(-665.62988,-854.80969)"
       style="font-size:20px;fill:#eeeeec;display:inline;font-family:NokiaSansOT-Regular;fill-opacity:1"
       id="text734"
       x="1269.5771"
       y="1008.7773">Icon-dialer</text>
    <text
       transform="translate(-665.62988,-854.80969)"
       style="font-size:20px;fill:#eeeeec;display:inline;font-family:NokiaSansOT-Regular;fill-opacity:1"
       id="text736"
       x="1262.002"
       y="1148.3086">Icon-browser</text>
    <text
       transform="translate(-665.62988,-854.80969)"
       style="font-size:20px;fill:#eeeeec;display:inline;font-family:NokiaSans-Regular;fill-opacity:1"
       id="text738"
       x="1267.0479"
       y="1406.8887">Icon-Chats</text>
    <text
       transform="translate(-665.62988,-854.80969)"
       style="font-size:20px;fill:#eeeeec;display:inline;font-family:NokiaSansOT-Regular;fill-opacity:1"
       id="text740"
       x="1269.7871"
       y="1283.9746">Icon-maps</text>
    <g
       transform="translate(-665.62988,-854.80969)"
       id="Icon-email"
       style="fill:#eeeeec;fill-opacity:1;display:inline">
      <path
         id="path4316"
         style="fill:#c00;fill-opacity:1"
         d="m 1134.89,1069.436 10.977,0 c -1.784,9.826 -2.66,17.146 -2.66,21.973 0,2.934 0.329,4.844 0.979,5.761 0.655,0.908 1.768,1.361 3.336,1.361 2.015,0 3.597,-1.15 4.767,-3.491 1.158,-2.316 1.729,-5.581 1.729,-9.799 0,-7.44 -1.89,-13.195 -5.709,-17.304 -3.82,-4.101 -9.228,-6.151 -16.217,-6.151 -7.317,0 -13.287,2.162 -17.907,6.47 -4.64,4.308 -6.949,10.27 -6.949,17.871 0,8.517 2.121,14.908 6.388,19.169 4.26,4.261 10.646,6.391 19.17,6.391 5.039,0 10.337,-0.916 15.868,-2.771 l 0,6.424 c -2.001,0.736 -4.656,1.374 -7.881,1.91 -3.271,0.521 -6.119,0.788 -8.615,0.788 -10.048,0 -18.032,-2.716 -23.929,-8.162 -5.908,-5.438 -8.867,-13.232 -8.867,-23.381 0,-6.327 1.381,-11.824 4.14,-16.494 2.749,-4.659 6.659,-8.24 11.699,-10.73 5.044,-2.511 10.622,-3.752 16.729,-3.752 9.328,0 16.562,2.595 21.719,7.786 5.15,5.19 7.714,12.405 7.714,21.61 0,6.158 -1.379,10.914 -4.173,14.263 -2.774,3.369 -6.62,5.052 -11.475,5.052 -2.248,0 -4.209,-0.61 -5.892,-1.877 -1.688,-1.233 -2.866,-2.971 -3.5,-5.182 -2.674,4.699 -6.305,7.059 -10.888,7.059 -3.082,0 -5.696,-1.233 -7.834,-3.688 -2.133,-2.472 -3.221,-5.801 -3.221,-10.017 0,-6.58 1.873,-11.731 5.584,-15.479 3.724,-3.735 8.692,-5.61 14.918,-5.61 z m -0.221,16.615 1.375,-10.817 -2.657,0 c -2.758,0 -5.129,1.341 -7.103,4.049 -1.956,2.69 -2.942,6.312 -2.942,10.869 0,2.831 0.354,4.921 1.083,6.288 0.719,1.355 1.979,2.017 3.745,2.017 3.312,0 5.478,-4.135 6.499,-12.406 z" />
    </g>
    <g
       transform="translate(-665.62988,-854.80969)"
       id="Icon-maps"
       style="fill:#eeeeec;fill-opacity:1;display:inline">
      <path
         id="path4319"
         style="fill:#c00;fill-opacity:1"
         d="m 1315.443,1191.832 c -17.115,0 -30.998,13.874 -30.998,30.997 0,17.12 13.883,31.003 30.998,31.003 17.125,0 31.002,-13.883 31.002,-31.003 0,-17.123 -13.878,-30.997 -31.002,-30.997 z m 13.67,44.792 -8.881,-5.62 -4.907,19.174 -4.669,-19.174 -9.117,5.62 5.604,-9.12 -19.155,-4.675 12.24,-2.989 6.915,-1.689 -5.604,-9.117 9.117,5.385 4.669,-18.937 4.907,18.937 8.881,-5.385 -5.374,9.117 19.168,4.68 -19.168,4.675 5.374,9.118 z" />
      <circle
         d="m 1319.034,1222.829 c 0,1.9816 -1.6064,3.588 -3.588,3.588 -1.9816,0 -3.588,-1.6064 -3.588,-3.588 0,-1.9816 1.6064,-3.588 3.588,-3.588 1.9816,0 3.588,1.6064 3.588,3.588 z"
         id="circle4321"
         style="fill:#c00;fill-opacity:1"
         cx="1315.446"
         cy="1222.829"
         r="3.5880001"
         sodipodi:cx="1315.446"
         sodipodi:cy="1222.829"
         sodipodi:rx="3.5880001"
         sodipodi:ry="3.5880001" />
    </g>
    <g
       transform="translate(-665.62988,-854.80969)"
       id="Icon-chat"
       style="fill:#eeeeec;fill-opacity:1;display:inline">
      <g
         id="Icon-chat_2_"
         style="fill:#c00;fill-opacity:1">
        <path
           id="path4325"
           style="fill:#c00;fill-opacity:1"
           d="m 1313.952,1325.005 c -16.448,0 -29.789,10.178 -29.789,22.726 0,6.362 3.435,12.092 8.954,16.219 0.288,9.283 -6.229,10.582 -6.229,10.582 0,0 11.062,0.619 14.741,-6.144 3.75,1.311 7.924,2.061 12.323,2.061 16.458,0 29.791,-10.175 29.791,-22.718 0,-12.548 -13.333,-22.726 -29.791,-22.726 z m 15.523,32.062 -31.035,0 c -1.543,0 -2.768,-1.238 -2.768,-2.773 0,-1.526 1.225,-2.765 2.768,-2.765 l 31.035,0 c 1.523,0 2.765,1.236 2.765,2.765 0,1.535 -1.242,2.773 -2.765,2.773 z m 0,-12.095 -31.035,0 c -1.543,0 -2.768,-1.229 -2.768,-2.766 0,-1.526 1.225,-2.766 2.768,-2.766 l 31.035,0 c 1.523,0 2.765,1.238 2.765,2.766 0,1.535 -1.242,2.766 -2.765,2.766 z" />
      </g>
    </g>
    <g
       transform="translate(-665.62988,-854.80969)"
       id="Icon-video"
       style="fill:#eeeeec;fill-opacity:1;display:inline">
      <path
         id="path4328"
         style="fill:#c00;fill-opacity:1"
         d="m 1156.324,1194.592 -0.12,0 0,1.711 c 0,1 -0.817,1.822 -1.82,1.822 l -4.11,0 c -0.996,0 -1.829,-0.822 -1.829,-1.822 l 0,-1.711 -4.088,0 0,7.578 -29.636,0 0,-7.578 -4.072,0 0,1.711 c 0,1 -0.815,1.822 -1.817,1.822 l -4.181,0 c -1.01,0 -1.822,-0.822 -1.822,-1.822 l 0,-1.711 -0.479,0 c -2.203,0 -4.011,1.811 -4.011,4.012 l 0,48.445 c 0,2.209 1.81,4.021 4.011,4.021 l 0.479,0 0,-1.712 c 0,-1.005 0.812,-1.819 1.822,-1.819 l 4.181,0 c 1.002,0 1.817,0.814 1.817,1.819 l 0,1.712 3.597,0 0,-6.428 30.589,0 0,6.428 3.609,0 0,-1.712 c 0,-1.005 0.833,-1.819 1.829,-1.819 l 4.11,0 c 1.003,0 1.82,0.814 1.82,1.819 l 0,1.712 0.12,0 c 2.214,0 4.016,-1.812 4.016,-4.021 l 0,-48.445 c 10e-4,-2.203 -1.801,-4.012 -4.015,-4.012 z m -45.676,44.063 c 0,0.999 -0.815,1.821 -1.817,1.821 l -4.181,0 c -1.01,0 -1.822,-0.822 -1.822,-1.821 l 0,-3.414 c 0,-1.006 0.812,-1.824 1.822,-1.824 l 4.181,0 c 1.002,0 1.817,0.818 1.817,1.824 l 0,3.414 z m 0,-14.115 c 0,1.007 -0.815,1.819 -1.817,1.819 l -4.181,0 c -1.01,0 -1.822,-0.812 -1.822,-1.819 l 0,-3.415 c 0,-1.003 0.812,-1.826 1.822,-1.826 l 4.181,0 c 1.002,0 1.817,0.823 1.817,1.826 l 0,3.415 z m 0,-14.113 c 0,0.999 -0.815,1.816 -1.817,1.816 l -4.181,0 c -1.01,0 -1.822,-0.817 -1.822,-1.816 l 0,-3.42 c 0,-1.015 0.812,-1.824 1.822,-1.824 l 4.181,0 c 1.002,0 1.817,0.811 1.817,1.824 l 0,3.42 z m 33.707,27.577 -29.635,0 0,-29.593 29.635,0 0,29.593 z m 11.85,0.651 c 0,0.999 -0.817,1.821 -1.82,1.821 l -4.11,0 c -0.996,0 -1.829,-0.822 -1.829,-1.821 l 0,-3.414 c 0,-1.006 0.833,-1.824 1.829,-1.824 l 4.11,0 c 1.003,0 1.82,0.818 1.82,1.824 l 0,3.414 z m 0,-14.115 c 0,1.007 -0.817,1.819 -1.82,1.819 l -4.11,0 c -0.996,0 -1.829,-0.812 -1.829,-1.819 l 0,-3.415 c 0,-1.003 0.833,-1.826 1.829,-1.826 l 4.11,0 c 1.003,0 1.82,0.823 1.82,1.826 l 0,3.415 z m 0,-14.113 c 0,0.999 -0.817,1.816 -1.82,1.816 l -4.11,0 c -0.996,0 -1.829,-0.817 -1.829,-1.816 l 0,-3.42 c 0,-1.015 0.833,-1.824 1.829,-1.824 l 4.11,0 c 1.003,0 1.82,0.811 1.82,1.824 l 0,3.42 z" />
    </g>
    <g
       transform="translate(-665.62988,-854.80969)"
       id="Icon-bookmarks"
       style="fill:#eeeeec;fill-opacity:1;display:inline">
      <path
         id="path4331"
         style="fill:#c00;fill-opacity:1"
         d="m 1130.196,916.893 c -17.086,0 -30.998,13.922 -30.998,31.004 0,17.092 13.912,31.013 30.998,31.013 17.096,0 31.002,-13.921 31.002,-31.013 0,-17.083 -13.906,-31.004 -31.002,-31.004 z m 25.708,28.412 -10.168,0 c -0.164,-4.003 -0.668,-7.754 -1.467,-11.146 2.317,-0.751 4.271,-1.699 5.666,-2.901 3.274,3.865 5.447,8.722 5.969,14.047 z m -9.683,-17.627 c -0.668,0.479 -1.818,1.031 -3.426,1.548 -0.675,-1.853 -1.456,-3.544 -2.337,-5.021 2.091,0.899 4.002,2.076 5.763,3.473 z m -16.025,-5.617 c 2.625,0 5.398,3.146 7.448,8.332 -2.121,0.312 -4.602,0.514 -7.448,0.514 -2.835,0 -5.302,-0.202 -7.433,-0.514 2.036,-5.185 4.82,-8.332 7.433,-8.332 z m 0,14.012 c 3.043,0 6.126,-0.249 8.996,-0.716 0.727,2.964 1.214,6.334 1.386,9.947 l -20.746,0 c 0.156,-3.613 0.655,-6.983 1.376,-9.947 2.874,0.467 5.96,0.716 8.988,0.716 z m -10.258,-11.867 c -0.869,1.477 -1.664,3.168 -2.337,5.021 -1.599,-0.517 -2.754,-1.068 -3.422,-1.548 1.771,-1.398 3.687,-2.575 5.759,-3.473 z m -9.454,7.051 c 1.367,1.202 3.342,2.158 5.651,2.901 -0.799,3.393 -1.316,7.144 -1.464,11.146 l -10.171,0 c 0.537,-5.324 2.691,-10.181 5.984,-14.047 z m -5.984,19.233 10.172,0 c 0.147,4.024 0.665,7.774 1.464,11.148 -2.311,0.756 -4.284,1.711 -5.651,2.909 -3.294,-3.868 -5.448,-8.723 -5.985,-14.057 z m 9.68,17.653 c 0.668,-0.485 1.823,-1.052 3.422,-1.556 0.673,1.849 1.468,3.532 2.338,5.024 -2.074,-0.911 -3.99,-2.081 -5.76,-3.468 z m 16.016,5.599 c -2.613,0 -5.397,-3.165 -7.433,-8.329 2.129,-0.313 4.597,-0.508 7.433,-0.508 2.847,0 5.327,0.202 7.448,0.508 -2.048,5.164 -4.823,8.329 -7.448,8.329 z m 0,-14.013 c -3.028,0 -6.115,0.246 -8.988,0.719 -0.721,-2.969 -1.22,-6.334 -1.376,-9.957 l 20.746,0 c -0.171,3.623 -0.659,6.988 -1.386,9.957 -2.87,-0.473 -5.953,-0.719 -8.996,-0.719 z m 10.262,11.861 c 0.881,-1.471 1.662,-3.154 2.337,-5.003 1.606,0.504 2.758,1.069 3.426,1.556 -1.761,1.387 -3.672,2.557 -5.763,3.447 z m 9.476,-7.042 c -1.393,-1.198 -3.348,-2.153 -5.666,-2.909 0.799,-3.374 1.305,-7.124 1.468,-11.148 l 10.168,0 c -0.522,5.333 -2.695,10.188 -5.97,14.057 z" />
    </g>
    <g
       transform="translate(-665.62988,-854.80969)"
       id="Icon-browser"
       style="fill:#eeeeec;fill-opacity:1;display:inline">
      <path
         id="path4334"
         style="fill:#c00;fill-opacity:1"
         d="m 1315.471,1055.768 c -17.086,0 -30.998,13.922 -30.998,31.004 0,17.092 13.912,31.013 30.998,31.013 17.096,0 31.002,-13.921 31.002,-31.013 0,-17.084 -13.906,-31.004 -31.002,-31.004 z m 25.708,28.412 -10.168,0 c -0.164,-4.003 -0.668,-7.754 -1.467,-11.146 2.318,-0.751 4.272,-1.699 5.666,-2.901 3.274,3.864 5.447,8.721 5.969,14.047 z m -9.683,-17.627 c -0.668,0.479 -1.819,1.031 -3.426,1.548 -0.676,-1.853 -1.456,-3.544 -2.338,-5.021 2.092,0.899 4.003,2.075 5.764,3.473 z m -16.025,-5.617 c 2.625,0 5.399,3.146 7.449,8.332 -2.122,0.312 -4.602,0.514 -7.449,0.514 -2.835,0 -5.302,-0.202 -7.432,-0.514 2.035,-5.186 4.819,-8.332 7.432,-8.332 z m 0,14.011 c 3.043,0 6.126,-0.249 8.996,-0.716 0.728,2.964 1.214,6.334 1.386,9.947 l -20.745,0 c 0.155,-3.613 0.654,-6.983 1.375,-9.947 2.872,0.467 5.96,0.716 8.988,0.716 z m -10.258,-11.867 c -0.87,1.477 -1.665,3.168 -2.337,5.021 -1.599,-0.517 -2.754,-1.068 -3.422,-1.548 1.771,-1.398 3.687,-2.574 5.759,-3.473 z m -9.454,7.052 c 1.368,1.202 3.343,2.158 5.652,2.901 -0.799,3.393 -1.317,7.144 -1.464,11.146 l -10.172,0 c 0.537,-5.325 2.691,-10.182 5.984,-14.047 z m -5.984,19.232 10.172,0 c 0.146,4.024 0.665,7.774 1.464,11.148 -2.312,0.757 -4.284,1.712 -5.652,2.909 -3.293,-3.867 -5.447,-8.723 -5.984,-14.057 z m 9.68,17.653 c 0.668,-0.484 1.823,-1.051 3.422,-1.555 0.672,1.848 1.467,3.532 2.337,5.024 -2.073,-0.912 -3.989,-2.082 -5.759,-3.469 z m 16.016,5.599 c -2.613,0 -5.396,-3.165 -7.432,-8.329 2.129,-0.313 4.596,-0.508 7.432,-0.508 2.848,0 5.327,0.201 7.449,0.508 -2.049,5.164 -4.824,8.329 -7.449,8.329 z m 0,-14.012 c -3.027,0 -6.115,0.246 -8.988,0.719 -0.721,-2.969 -1.22,-6.334 -1.375,-9.957 l 20.745,0 c -0.171,3.623 -0.659,6.988 -1.386,9.957 -2.87,-0.473 -5.953,-0.719 -8.996,-0.719 z m 10.262,11.861 c 0.881,-1.471 1.661,-3.155 2.337,-5.003 1.605,0.504 2.758,1.069 3.426,1.555 -1.761,1.387 -3.672,2.557 -5.763,3.448 z m 9.475,-7.042 c -1.393,-1.198 -3.348,-2.153 -5.666,-2.909 0.799,-3.374 1.304,-7.124 1.467,-11.148 l 10.168,0 c -0.52,5.332 -2.693,10.188 -5.969,14.057 z" />
    </g>
    <g
       transform="translate(-665.62988,-854.80969)"
       id="Icon-dialer"
       style="fill:#eeeeec;fill-opacity:1;display:inline">
      <path
         id="path4337"
         style="fill:#c00;fill-opacity:1"
         d="m 1338.829,919.238 0,7.89 c 0,1.334 -1.089,2.433 -2.426,2.433 l -7.877,0 c -1.363,0 -2.471,-1.099 -2.471,-2.433 l 0,-7.89 c 0,-1.349 1.106,-2.45 2.471,-2.45 l 7.877,0 c 1.337,0 2.426,1.103 2.426,2.45 l 0,0 z m 0,16.907 0,7.891 c 0,1.349 -1.089,2.438 -2.426,2.438 l -7.877,0 c -1.363,0 -2.471,-1.09 -2.471,-2.438 l 0,-7.891 c 0,-1.348 1.106,-2.441 2.471,-2.441 l 7.877,0 c 1.337,-0.002 2.426,1.093 2.426,2.441 l 0,0 z m 0,16.61 0,7.894 c 0,1.347 -1.089,2.437 -2.426,2.437 l -7.877,0 c -1.363,0 -2.471,-1.09 -2.471,-2.437 l 0,-7.894 c 0,-1.34 1.106,-2.426 2.471,-2.426 l 7.877,0 c 1.337,0 2.426,1.086 2.426,2.426 l 0,0 z m -17.717,-33.517 0,7.89 c 0,1.334 -1.077,2.433 -2.446,2.433 l -7.875,0 c -1.337,0 -2.443,-1.099 -2.443,-2.433 l 0,-7.89 c 0,-1.349 1.106,-2.45 2.443,-2.45 l 7.875,0 c 1.37,0 2.446,1.103 2.446,2.45 l 0,0 z m 0,16.907 0,7.891 c 0,1.349 -1.077,2.438 -2.446,2.438 l -7.875,0 c -1.337,0 -2.443,-1.09 -2.443,-2.438 l 0,-7.891 c 0,-1.348 1.106,-2.441 2.443,-2.441 l 7.875,0 c 1.37,-0.002 2.446,1.093 2.446,2.441 l 0,0 z m 0,16.61 0,7.894 c 0,1.347 -1.077,2.437 -2.446,2.437 l -7.875,0 c -1.337,0 -2.443,-1.09 -2.443,-2.437 l 0,-7.894 c 0,-1.34 1.106,-2.426 2.443,-2.426 l 7.875,0 c 1.37,0 2.446,1.086 2.446,2.426 l 0,0 z m 0,15.7 0,7.896 c 0,1.347 -1.077,2.437 -2.446,2.437 l -7.875,0 c -1.337,0 -2.443,-1.09 -2.443,-2.437 l 0,-7.896 c 0,-1.332 1.106,-2.422 2.443,-2.422 l 7.875,0 c 1.37,0 2.446,1.09 2.446,2.422 l 0,0 z m -17.207,-49.217 0,7.89 c 0,1.334 -1.075,2.433 -2.445,2.433 l -7.886,0 c -1.344,0 -2.444,-1.099 -2.444,-2.433 l 0,-7.89 c 0,-1.349 1.101,-2.45 2.444,-2.45 l 7.886,0 c 1.37,0 2.445,1.103 2.445,2.45 l 0,0 z m 0,16.907 0,7.891 c 0,1.349 -1.075,2.438 -2.445,2.438 l -7.886,0 c -1.344,0 -2.444,-1.09 -2.444,-2.438 l 0,-7.891 c 0,-1.348 1.101,-2.441 2.444,-2.441 l 7.886,0 c 1.37,-0.002 2.445,1.093 2.445,2.441 l 0,0 z m 0,16.61 0,7.894 c 0,1.347 -1.075,2.437 -2.445,2.437 l -7.886,0 c -1.344,0 -2.444,-1.09 -2.444,-2.437 l 0,-7.894 c 0,-1.34 1.101,-2.426 2.444,-2.426 l 7.886,0 c 1.37,0 2.445,1.086 2.445,2.426 l 0,0 z" />
    </g>
    <g
       transform="translate(-665.62988,-854.80969)"
       id="Icon-messages"
       style="fill:#eeeeec;fill-opacity:1;display:inline">
      <path
         id="path4340"
         style="fill:#c00;fill-opacity:1"
         d="m 968.859,1064.76 -45.247,0 c -4.606,0 -8.39,3.798 -8.39,8.404 l 0,1.969 31.008,13.627 30.992,-13.627 0,-1.969 c 0.002,-4.606 -3.784,-8.404 -8.363,-8.404 z" />
      <path
         id="path4342"
         style="fill:#c00;fill-opacity:1"
         d="m 946.23,1093.777 -0.935,-0.396 -30.073,-13.191 0,20.191 c 0,4.646 3.782,8.41 8.39,8.41 l 45.247,0 c 4.576,0 8.363,-3.764 8.363,-8.41 l 0,-20.191 -30.072,13.191 -0.92,0.396 z" />
    </g>
    <g
       transform="translate(-665.62988,-854.80969)"
       id="Icon-contacts"
       style="fill:#eeeeec;fill-opacity:1;display:inline">
      <path
         id="path4345"
         style="fill:#c00;fill-opacity:1"
         d="m 788.121,1068.834 c 0,7.105 -5.774,12.877 -12.882,12.877 -7.125,0 -12.896,-5.771 -12.896,-12.877 0,-7.129 5.772,-12.918 12.896,-12.918 7.108,0 12.882,5.789 12.882,12.918 z" />
      <path
         id="path4347"
         style="fill:#c00;fill-opacity:1"
         d="m 759.268,1100.456 c 0,-8.832 7.142,-15.994 15.972,-15.994 8.817,0 15.953,7.162 15.953,15.994 l 0,17.18 -31.925,0 0,-17.18 z" />
      <path
         id="path4349"
         style="fill:#c00;fill-opacity:1"
         d="m 758.034,1068.834 c 0,7.105 -5.77,12.877 -12.884,12.877 -7.131,0 -12.896,-5.771 -12.896,-12.877 0,-7.129 5.766,-12.918 12.896,-12.918 7.115,0 12.884,5.789 12.884,12.918 z" />
      <path
         id="path4351"
         style="fill:#c00;fill-opacity:1"
         d="m 729.192,1100.456 c 0,-8.832 7.14,-15.994 15.958,-15.994 8.816,0 15.959,7.162 15.959,15.994 l 0,17.18 -31.917,0 0,-17.18 0,0 z" />
    </g>
    <g
       transform="translate(-665.62988,-854.80969)"
       id="Icon-camera"
       style="fill:#eeeeec;fill-opacity:1;display:inline">
      <path
         id="path4354"
         style="fill:#c00;fill-opacity:1"
         d="m 970.977,931.37 -8.194,0 c -3.468,0 -6.294,-1.938 -6.294,-4.302 0,-2.354 -2.825,-4.276 -6.294,-4.276 l -10.896,0 c -3.463,0 -6.285,1.924 -6.285,4.276 -0.018,2.363 -2.849,4.302 -6.303,4.302 l -5.162,0 c -3.459,0 -6.29,2.837 -6.29,6.291 l 0,29.06 c 0,3.457 2.831,6.29 6.29,6.29 l 49.429,0 c 3.451,0 6.281,-2.833 6.281,-6.295 l 0,-29.055 c -0.002,-3.454 -2.832,-6.291 -6.282,-6.291 z m -26.231,31.098 c -6.859,0 -12.428,-5.27 -12.428,-11.799 0,-6.524 5.555,-11.825 12.428,-11.825 6.857,0 12.423,5.301 12.423,11.825 0,6.53 -5.565,11.799 -12.423,11.799 z m 24.788,-22.186 -6.579,0 c -1.249,0 -2.261,-1.013 -2.261,-2.246 0,-1.249 1.012,-2.261 2.261,-2.261 l 6.579,0 c 1.259,0 2.256,1.012 2.256,2.261 0,1.234 -0.997,2.246 -2.256,2.246 z" />
    </g>
    <g
       transform="translate(-665.62988,-854.80969)"
       id="Icon-music"
       style="fill:#eeeeec;fill-opacity:1;display:inline">
      <path
         id="path4357"
         style="fill:#c00;fill-opacity:1"
         d="m 777.597,1226.497 c -2.571,-0.947 -5.891,-0.644 -8.955,1.062 -4.97,2.771 -7.179,7.951 -5.029,11.829 2.143,3.869 7.73,4.757 12.686,2.004 3.288,-1.812 5.392,-4.715 5.797,-7.593 0.036,-0.342 0.057,-0.479 0.057,-0.711 l 0,-5.791 0,-34.797 c 0,-0.586 -0.419,-0.837 -0.93,-0.546 l -28.114,15.534 c -0.506,0.274 -0.913,0.982 -0.913,1.581 l 0,28.257 c -2.584,-0.927 -5.907,-0.623 -8.967,1.084 -4.972,2.751 -7.17,7.935 -5.032,11.807 2.146,3.879 7.726,4.771 12.689,2.022 3.284,-1.821 5.455,-4.716 5.85,-7.593 0.021,-0.314 0.055,-0.479 0.055,-0.714 l 0,-22.37 c 0,-0.451 0.418,-1.288 0.924,-1.573 l 18.91,-10.447 c 0.504,-0.279 0.922,-0.032 0.922,0.548 l 0,18.086" />
    </g>
    <g
       transform="translate(-665.62988,-854.80969)"
       id="Icon-pictures"
       style="fill:#eeeeec;fill-opacity:1;display:inline">
      <g
         id="g4360"
         style="fill:#c00;fill-opacity:1">
        <path
           id="path4362"
           style="fill:#c00;fill-opacity:1"
           d="M 970.326,1241.192 922,1241.04 l 0,0 0.073,-36.59 0,0 48.319,0.146 0,0 -0.066,36.596 0,0 z m 3.479,-43.276 -55.112,-0.164 -3.405,-0.01 0,3.343 -0.086,43.296 0,3.358 3.388,0 55.113,0.158 3.396,0.02 0.01,-3.357 0.094,-43.288 0,-3.354 -3.398,-0.01 z" />
      </g>
      <path
         id="path4364"
         style="fill:#c00;fill-opacity:1"
         d="m 956.771,1228.016 c -0.438,-6.56 -6.382,-10.808 -12.479,-11.754 2.431,-2.81 7.218,-5.084 11.28,-6.392 -3.805,0.421 -8.131,0.498 -12.04,2.485 0.11,-0.116 0.164,-0.239 0.257,-0.358 -0.191,0.157 -0.334,0.352 -0.513,0.521 -0.521,0.271 -1.035,0.547 -1.527,0.918 -0.603,-3.154 -1.976,-5.828 -3.686,-7.828 1.048,3.404 0.971,6.524 0.081,9.556 -4.237,-2.171 -9.201,-1.283 -11.434,1.408 2.968,-1.408 6.422,-0.617 8.594,1.393 -2.065,0.782 -3.787,1.882 -5.104,3.177 2.329,-0.458 4.455,-0.213 6.517,0.414 -3.399,7.41 -3.849,16.01 -3.42,23.538 l 7.043,-0.619 c -1.905,-7.093 -3.376,-15.146 -1.307,-22.89 0.162,-0.102 0.386,-0.153 0.565,-0.237 2.99,1.041 6.077,3.503 7.48,8.087 -0.027,-3.43 -1.085,-6.641 -3.225,-9.353 5.042,-0.571 10.728,1.534 12.918,7.934 z" />
      <path
         id="path4366"
         style="fill:#c00;fill-opacity:1"
         d="m 960.174,1234.006 c -0.312,-4.768 -4.636,-7.833 -9.035,-8.522 1.742,-2.04 5.204,-3.68 8.153,-4.632 -2.744,0.297 -5.881,0.369 -8.708,1.799 0.064,-0.081 0.106,-0.166 0.193,-0.268 -0.156,0.113 -0.264,0.258 -0.396,0.391 -0.371,0.193 -0.735,0.412 -1.103,0.67 -0.452,-2.295 -1.426,-4.208 -2.665,-5.688 0.749,2.488 0.706,4.729 0.061,6.916 -3.069,-1.554 -6.674,-0.913 -8.291,1.041 2.154,-1.021 4.655,-0.437 6.228,1.011 -1.494,0.554 -2.758,1.353 -3.694,2.297 1.701,-0.312 3.237,-0.161 4.729,0.296 -2.455,5.381 -2.799,11.594 -2.479,17.051 l 5.086,-0.443 c -1.377,-5.141 -2.433,-10.988 -0.932,-16.577 0.12,-0.066 0.272,-0.112 0.405,-0.171 2.163,0.741 4.391,2.533 5.428,5.853 -0.031,-2.491 -0.801,-4.793 -2.347,-6.764 3.646,-0.446 7.775,1.084 9.367,5.74 z" />
    </g>
    <g
       id="Icon-new-SMS"
       style="fill:#eeeeec;fill-opacity:1;display:inline"
       transform="translate(-662.62988,-854.80969)">
      <path
         id="path4369"
         style="fill:#c00;fill-opacity:1"
         d="m 761.223,916.898 c -17.123,0 -31.003,13.895 -31.003,31.021 0,17.104 13.881,30.982 31.003,30.982 17.108,0 30.997,-13.881 30.997,-30.982 0,-17.126 -13.889,-31.021 -30.997,-31.021 z m 17.149,38.536 c 0,2.566 -2.089,4.648 -4.625,4.648 l -25.03,0 c -2.55,0 -4.645,-2.082 -4.645,-4.648 l 0,-11.17 16.643,7.304 0.514,0.206 0.511,-0.206 16.634,-7.304 -0.002,11.17 0,0 z m 0,-13.97 -17.144,7.535 -17.156,-7.535 0,-1.083 c 0,-2.552 2.094,-4.646 4.645,-4.646 l 25.03,0 c 2.536,0 4.625,2.095 4.625,4.646 l 0,1.083 0,0 z" />
    </g>
  </g>
</svg>
