<?xml version="1.0" encoding="iso-8859-1"?>
<!-- Generator: Adobe Illustrator 14.0.0, SVG Export Plug-In . SVG Version: 6.00 Build 43363)  -->
<!DOCTYPE svg PUBLIC "-//W3C//DTD SVG 1.1//EN" "http://www.w3.org/Graphics/SVG/1.1/DTD/svg11.dtd">
<svg version="1.1" xmlns="http://www.w3.org/2000/svg" xmlns:xlink="http://www.w3.org/1999/xlink" x="0px" y="0px" width="350px"
	 height="420px" viewBox="0 0 350 420" style="enable-background:new 0 0 350 420;" xml:space="preserve">
<g id="viewmenubuttons-layer">
</g>
<g id="dui-theme-rd">
	<g id="viewmenubuttons">
		<g id="ViewMenuButtonThemeTemplateHelper">
			<g>
				<path style="fill:#B3B3B3;" d="M16,419c-8.271,0-15-6.729-15-15V16C1,7.729,7.729,1,16,1h318c8.271,0,15,6.729,15,15v388
					c0,8.271-6.729,15-15,15H16z"/>
				<path d="M334,2c7.72,0,14,6.28,14,14v388c0,7.72-6.28,14-14,14H16c-7.72,0-14-6.28-14-14V16C2,8.28,8.28,2,16,2H334 M334,0H16
					C7.2,0,0,7.2,0,16v388c0,8.8,7.2,16,16,16h318c8.8,0,16-7.2,16-16V16C350,7.2,342.8,0,334,0L334,0z"/>
			</g>
			<path style="fill:#010101;" d="M84.497,33.551l-4.143-15.289h2.307l3.199,12.726l3.354-12.726h2l-4.287,15.289H84.497z"/>
			<path style="fill:#010101;" d="M95.283,33.551H93.1v-10.5h-1.363v-1.426h3.547V33.551z M94.197,17.441
				c0.334,0,0.623,0.123,0.866,0.369c0.242,0.246,0.364,0.537,0.364,0.872c0,0.342-0.12,0.634-0.359,0.877s-0.53,0.364-0.871,0.364
				c-0.35,0-0.644-0.121-0.883-0.364s-0.358-0.535-0.358-0.877c0-0.349,0.119-0.643,0.358-0.882S93.848,17.441,94.197,17.441z"/>
			<path style="fill:#010101;" d="M106.205,31.726v1.487c-1.074,0.334-2.185,0.502-3.333,0.502c-1.668,0-2.916-0.502-3.743-1.508
				c-0.827-1.004-1.24-2.553-1.24-4.645c0-1.839,0.4-3.317,1.199-4.435c0.801-1.118,1.941-1.677,3.426-1.677
				c1.202,0,2.106,0.32,2.712,0.959c0.604,0.639,0.992,1.422,1.163,2.348c0.171,0.927,0.257,2.029,0.257,3.307h-6.439
				c0,1.389,0.246,2.43,0.738,3.123s1.23,1.041,2.215,1.041C103.993,32.229,105.008,32.061,106.205,31.726z M100.206,26.722h4.296
				c0-1.442-0.171-2.461-0.512-3.056c-0.343-0.595-0.835-0.893-1.477-0.893c-0.719,0-1.267,0.309-1.646,0.924
				C100.488,24.312,100.268,25.32,100.206,26.722z"/>
			<path style="fill:#010101;" d="M123.985,21.625l-3.21,11.926h-2.563l-2.328-9.618l-2.502,9.618h-2.521l-3.087-11.926h2.204
				l2.318,10.039l2.521-10.039h2.41l2.369,10.06l2.461-10.06H123.985z"/>
			<path style="fill:#010101;" d="M145.549,33.551h-2.185v-8.213c0-0.793-0.148-1.39-0.446-1.79c-0.297-0.399-0.743-0.6-1.338-0.6
				c-0.766,0-1.355,0.301-1.769,0.902c-0.414,0.602-0.62,1.384-0.62,2.349v7.352h-2.185v-8.213c0-0.793-0.152-1.39-0.456-1.79
				c-0.305-0.399-0.761-0.6-1.369-0.6c-0.752,0-1.333,0.304-1.743,0.913c-0.41,0.607-0.615,1.387-0.615,2.338v7.352h-2.185V21.625
				h1.221l0.441,1.764c0.73-1.291,1.846-1.938,3.342-1.938c0.793,0,1.451,0.15,1.975,0.451c0.522,0.301,0.907,0.752,1.153,1.354
				c0.677-1.203,1.76-1.805,3.251-1.805c1.175,0,2.057,0.318,2.645,0.953c0.588,0.637,0.883,1.586,0.883,2.852V33.551z"/>
			<path style="fill:#010101;" d="M156.306,31.726v1.487c-1.074,0.334-2.185,0.502-3.333,0.502c-1.668,0-2.916-0.502-3.743-1.508
				c-0.827-1.004-1.24-2.553-1.24-4.645c0-1.839,0.4-3.317,1.199-4.435c0.801-1.118,1.941-1.677,3.426-1.677
				c1.202,0,2.106,0.32,2.712,0.959c0.604,0.639,0.992,1.422,1.163,2.348c0.171,0.927,0.257,2.029,0.257,3.307h-6.439
				c0,1.389,0.246,2.43,0.738,3.123s1.23,1.041,2.215,1.041C154.094,32.229,155.108,32.061,156.306,31.726z M150.307,26.722h4.296
				c0-1.442-0.171-2.461-0.512-3.056c-0.343-0.595-0.835-0.893-1.477-0.893c-0.719,0-1.267,0.309-1.646,0.924
				C150.589,24.312,150.368,25.32,150.307,26.722z"/>
			<path style="fill:#010101;" d="M167.934,33.551h-2.185v-7.916c0-0.896-0.157-1.566-0.472-2.015s-0.786-0.672-1.415-0.672
				c-0.793,0-1.408,0.301-1.846,0.902s-0.656,1.384-0.656,2.349v7.352h-2.185V21.625h1.221l0.441,1.764
				c0.758-1.291,1.913-1.938,3.465-1.938c1.211,0,2.118,0.318,2.723,0.953c0.605,0.637,0.908,1.586,0.908,2.852V33.551z"/>
			<path style="fill:#010101;" d="M174.475,33.715c-1.217,0-2.128-0.316-2.732-0.948c-0.605-0.632-0.908-1.581-0.908-2.846v-8.296
				h2.185v7.916c0,0.896,0.157,1.568,0.472,2.016s0.789,0.672,1.426,0.672c0.792,0,1.406-0.301,1.84-0.902
				c0.435-0.602,0.651-1.385,0.651-2.349v-7.353h2.185v11.926h-1.211l-0.44-1.764C177.182,33.072,176.026,33.715,174.475,33.715z"/>
			<path style="fill:#010101;" d="M189.733,17.318v5.414c0.779-0.854,1.746-1.281,2.901-1.281c1.334,0,2.335,0.492,3.005,1.477
				s1.005,2.461,1.005,4.43s-0.451,3.51-1.354,4.625c-0.902,1.113-2.143,1.671-3.723,1.671c-1.552,0-2.891-0.068-4.02-0.205v-16.13
				H189.733z M189.733,27.542v4.522c0.636,0.082,1.203,0.123,1.702,0.123c1.005,0,1.746-0.367,2.225-1.103s0.719-1.998,0.719-3.789
				c0-1.449-0.188-2.536-0.564-3.261s-0.937-1.087-1.682-1.087c-0.725,0-1.262,0.219-1.609,0.656
				c-0.35,0.438-0.568,0.969-0.656,1.595C189.777,25.824,189.733,26.605,189.733,27.542z"/>
			<path style="fill:#010101;" d="M202.715,33.715c-1.217,0-2.128-0.316-2.732-0.948c-0.605-0.632-0.908-1.581-0.908-2.846v-8.296
				h2.185v7.916c0,0.896,0.157,1.568,0.472,2.016s0.789,0.672,1.426,0.672c0.792,0,1.406-0.301,1.84-0.902
				c0.435-0.602,0.651-1.385,0.651-2.349v-7.353h2.185v11.926h-1.211l-0.44-1.764C205.422,33.072,204.267,33.715,202.715,33.715z"/>
			<path style="fill:#010101;" d="M213.86,33.715c-0.93,0-1.61-0.217-2.04-0.651c-0.432-0.434-0.646-1.126-0.646-2.076v-7.937
				h-1.568v-0.82l3.188-3.25h0.563v2.645h2.902v1.426h-2.902v7.578c0,0.648,0.106,1.078,0.318,1.286
				c0.212,0.209,0.533,0.313,0.964,0.313c0.444,0,1.046-0.1,1.805-0.298v1.415C215.528,33.592,214.667,33.715,213.86,33.715z"/>
			<path style="fill:#010101;" d="M221.151,33.715c-0.93,0-1.61-0.217-2.04-0.651c-0.432-0.434-0.646-1.126-0.646-2.076v-7.937
				h-1.568v-0.82l3.188-3.25h0.563v2.645h2.902v1.426h-2.902v7.578c0,0.648,0.106,1.078,0.318,1.286
				c0.212,0.209,0.533,0.313,0.964,0.313c0.444,0,1.046-0.1,1.805-0.298v1.415C222.819,33.592,221.958,33.715,221.151,33.715z"/>
			<path style="fill:#010101;" d="M229.538,33.715c-1.606,0-2.809-0.526-3.609-1.579c-0.799-1.053-1.199-2.632-1.199-4.737
				c0-1.832,0.415-3.281,1.246-4.348c0.83-1.066,2.018-1.6,3.562-1.6c1.559,0,2.75,0.526,3.574,1.579
				c0.823,1.053,1.235,2.522,1.235,4.409c0,1.941-0.385,3.473-1.153,4.594C232.425,33.154,231.206,33.715,229.538,33.715z
				 M229.538,32.311c0.842,0,1.476-0.381,1.902-1.144c0.428-0.763,0.641-2.039,0.641-3.83c0-1.265-0.219-2.325-0.656-3.184
				s-1.066-1.287-1.887-1.287c-0.834,0-1.466,0.386-1.896,1.159c-0.431,0.771-0.646,1.876-0.646,3.312
				c0,1.613,0.216,2.846,0.646,3.696C228.072,31.885,228.704,32.311,229.538,32.311z"/>
			<path style="fill:#010101;" d="M245.576,33.551h-2.185v-7.916c0-0.896-0.157-1.566-0.472-2.015s-0.786-0.672-1.415-0.672
				c-0.793,0-1.408,0.301-1.846,0.902s-0.656,1.384-0.656,2.349v7.352h-2.185V21.625h1.221l0.441,1.764
				c0.758-1.291,1.913-1.938,3.465-1.938c1.211,0,2.118,0.318,2.723,0.953c0.605,0.637,0.908,1.586,0.908,2.852V33.551z"/>
			<path style="fill:#010101;" d="M250.814,33.715c-0.896,0-1.917-0.133-3.065-0.4v-1.568c1.23,0.335,2.201,0.502,2.912,0.502
				c0.731,0,1.282-0.151,1.651-0.456c0.369-0.304,0.553-0.761,0.553-1.368c0-0.355-0.116-0.689-0.348-1
				c-0.233-0.311-0.814-0.692-1.744-1.144c-0.594-0.287-1.076-0.559-1.445-0.815c-0.369-0.256-0.684-0.602-0.943-1.035
				s-0.39-0.973-0.39-1.615c0-1.032,0.367-1.851,1.103-2.456c0.734-0.604,1.676-0.907,2.824-0.907c1.006,0,1.914,0.127,2.729,0.379
				v1.498c-0.855-0.295-1.686-0.441-2.492-0.441c-0.67,0-1.171,0.144-1.502,0.431c-0.332,0.287-0.498,0.718-0.498,1.292
				c0,0.301,0.106,0.583,0.318,0.846c0.212,0.264,0.741,0.597,1.59,1c0.615,0.287,1.124,0.566,1.527,0.836s0.743,0.636,1.021,1.097
				c0.276,0.462,0.415,1.041,0.415,1.738c0,1.176-0.364,2.067-1.092,2.677C253.209,33.41,252.168,33.715,250.814,33.715z"/>
		</g>
		<g id="mlist-singlecolumn-viewmenu-bottom-background-pressed">
			<linearGradient id="SVGID_1_" gradientUnits="userSpaceOnUse" x1="274" y1="358" x2="274" y2="294">
				<stop  offset="0" style="stop-color:#010101;stop-opacity:0.1"/>
				<stop  offset="1" style="stop-color:#010101;stop-opacity:0.5"/>
			</linearGradient>
			<path style="fill:url(#SVGID_1_);" d="M306,294v54c0,5.5-4.5,10-10,10h-44c-5.5,0-10-4.5-10-10v-54H306z"/>
		</g>
		<g id="mlist-singlecolumn-viewmenu-middle-background-pressed">
			<linearGradient id="SVGID_2_" gradientUnits="userSpaceOnUse" x1="274" y1="284" x2="274" y2="220">
				<stop  offset="0" style="stop-color:#010101;stop-opacity:0.1"/>
				<stop  offset="1" style="stop-color:#010101;stop-opacity:0.5"/>
			</linearGradient>
			<rect x="242" y="220" style="fill:url(#SVGID_2_);" width="64" height="64"/>
		</g>
		<g id="mlist-singlecolumn-viewmenu-bottom-background">
			<path style="fill:none;" d="M306,136v52c0,5.5-4.5,10-10,10h-44c-5.5,0-10-4.5-10-10v-52H306z"/>
			<rect x="242" y="134" style="fill:#FFFFFF;" width="64" height="1"/>
		</g>
		<g id="mlist-singlecolumn-viewmenu-middle-background">
			<rect x="242" y="123" style="fill:#CCCCCC;" width="64" height="1"/>
			<rect x="242" y="60" style="fill:#FFFFFF;" width="64" height="1"/>
		</g>
		<g id="mlist-bottomright-viewmenu-background-pressed">
			<linearGradient id="SVGID_3_" gradientUnits="userSpaceOnUse" x1="126" y1="358" x2="126" y2="294">
				<stop  offset="0" style="stop-color:#010101;stop-opacity:0.1"/>
				<stop  offset="1" style="stop-color:#010101;stop-opacity:0.5"/>
			</linearGradient>
			<path style="fill:url(#SVGID_3_);" d="M148,358c5.5,0,10-4.5,10-10v-54H94v64H148z"/>
		</g>
		<g id="mlist-bottomleft-viewmenu-background-pressed">
			<linearGradient id="SVGID_4_" gradientUnits="userSpaceOnUse" x1="52" y1="358" x2="52" y2="294">
				<stop  offset="0" style="stop-color:#010101;stop-opacity:0.1"/>
				<stop  offset="1" style="stop-color:#010101;stop-opacity:0.5"/>
			</linearGradient>
			<path style="fill:url(#SVGID_4_);" d="M20,348c0,5.5,4.5,10,10,10h54v-64H20V348z"/>
		</g>
		<g id="mlist-right-viewmenu-background-pressed">
			<linearGradient id="SVGID_5_" gradientUnits="userSpaceOnUse" x1="126" y1="284" x2="126" y2="220">
				<stop  offset="0" style="stop-color:#010101;stop-opacity:0.1"/>
				<stop  offset="1" style="stop-color:#010101;stop-opacity:0.5"/>
			</linearGradient>
			<rect x="94" y="220" style="fill:url(#SVGID_5_);" width="64" height="64"/>
		</g>
		<g id="mlist-left-viewmenu-background-pressed">
			<linearGradient id="SVGID_6_" gradientUnits="userSpaceOnUse" x1="52" y1="284" x2="52" y2="220">
				<stop  offset="0" style="stop-color:#010101;stop-opacity:0.1"/>
				<stop  offset="1" style="stop-color:#010101;stop-opacity:0.5"/>
			</linearGradient>
			<rect x="20" y="220" style="fill:url(#SVGID_6_);" width="64" height="64"/>
		</g>
		<g id="mlist-bottomright-viewmenu-background">
			<path style="fill:none;" d="M148,198c5.5,0,10-4.5,10-10v-52H94v62H148z"/>
			<rect x="94" y="135" style="fill:#FFFFFF;" width="1" height="62"/>
			<rect x="94" y="134" style="fill:#FFFFFF;" width="64" height="1"/>
		</g>
		<g id="mlist-bottomleft-viewmenu-background">
			<path style="fill:none;" d="M20,188c0,5.5,4.5,10,10,10h54v-62H20V188z"/>
			<rect x="83.008" y="135" style="fill:#CCCCCC;" width="0.984" height="63"/>
			<rect x="20" y="134" style="fill:#CCCCCC;" width="64" height="1"/>
		</g>
		<g id="mlist-right-viewmenu-background">
			<rect x="94" y="123" style="fill:#CCCCCC;" width="64" height="1"/>
			<rect x="94" y="60" style="fill:#FFFFFF;" width="64" height="1"/>
			<rect x="94" y="61" style="fill:#FFFFFF;" width="1" height="62"/>
		</g>
		<g id="mlist-left-viewmenu-background">
			<rect x="20" y="123" style="fill:#CCCCCC;" width="64" height="1"/>
			<rect x="20" y="60" style="fill:#FFFFFF;" width="64" height="1"/>
			<rect x="83" y="61" style="fill:#CCCCCC;" width="1" height="62"/>
		</g>
	</g>
</g>
</svg>
