<?xml version="1.0" encoding="iso-8859-1"?>
<!-- Generator: Adobe Illustrator 14.0.0, SVG Export Plug-In . SVG Version: 6.00 Build 43363)  -->
<!DOCTYPE svg PUBLIC "-//W3C//DTD SVG 1.1//EN" "http://www.w3.org/Graphics/SVG/1.1/DTD/svg11.dtd">
<svg version="1.1" xmlns="http://www.w3.org/2000/svg" xmlns:xlink="http://www.w3.org/1999/xlink" x="0px" y="0px" width="553px"
	 height="886px" viewBox="0 0 553 886" style="enable-background:new 0 0 553 886;" xml:space="preserve">
<g id="colorvalues-layer">
</g>
<g id="dui-theme-rd">
	<g id="colorvalues">
		<g id="colorvaluesThemeTemplateHelper">
			<g>
				<path style="fill:#B3B3B3;" d="M17,884.145c-8.271,0-15-6.729-15-15V16C2,7.729,8.729,1,17,1h520.173c8.271,0,15,6.729,15,15
					v853.145c0,8.271-6.729,15-15,15H17z"/>
				<g>
					<path d="M537.173,2c7.72,0,14,6.28,14,14v853.145c0,7.72-6.28,14-14,14H17c-7.72,0-14-6.28-14-14V16C3,8.28,9.28,2,17,2
						H537.173 M537.173,0H17C8.2,0,1,7.2,1,16v853.145c0,8.8,7.2,16,16,16h520.173c8.8,0,16-7.2,16-16V16
						C553.173,7.2,545.973,0,537.173,0L537.173,0z"/>
				</g>
			</g>
			<path style="fill:#010101;" d="M225.388,35.998v-17.02h2.185v17.02H225.388z"/>
			<path style="fill:#010101;" d="M234.863,36.17c-1.608,0-2.81-0.551-3.608-1.655c-0.801-1.104-1.201-2.759-1.201-4.967
				c0-1.921,0.414-3.44,1.246-4.559c0.83-1.118,2.018-1.677,3.563-1.677c1.56,0,2.749,0.551,3.573,1.655
				c0.823,1.104,1.236,2.645,1.236,4.623c0,2.036-0.387,3.642-1.154,4.816C237.749,35.583,236.53,36.17,234.863,36.17z
				 M234.863,34.697c0.841,0,1.476-0.398,1.901-1.198c0.428-0.8,0.641-2.138,0.641-4.016c0-1.326-0.219-2.438-0.655-3.339
				c-0.438-0.898-1.066-1.349-1.887-1.349c-0.835,0-1.467,0.405-1.897,1.215c-0.432,0.81-0.646,1.968-0.646,3.473
				c0,1.691,0.214,2.983,0.646,3.876C233.396,34.252,234.028,34.697,234.863,34.697z"/>
			<path style="fill:#010101;" d="M249.014,25.011l0.461-1.517h1.221v11.913c0,1.348-0.398,2.392-1.195,3.134
				c-0.796,0.742-1.889,1.113-3.275,1.113c-1.136,0-2.424-0.19-3.866-0.57v-1.612c1.504,0.38,2.707,0.569,3.609,0.569
				c0.787,0,1.362-0.152,1.728-0.457c0.366-0.305,0.593-0.702,0.683-1.193c0.088-0.49,0.133-1.188,0.133-2.091v-0.323
				c-0.581,0.875-1.511,1.312-2.789,1.312c-1.36,0-2.381-0.492-3.061-1.479c-0.681-0.985-1.021-2.464-1.021-4.436
				c0-1.885,0.377-3.366,1.129-4.445c0.752-1.078,1.838-1.617,3.261-1.617C247.396,23.312,248.39,23.879,249.014,25.011z
				 M246.225,33.73c0.759,0,1.336-0.285,1.731-0.855c0.396-0.569,0.596-1.797,0.596-3.682c0-1.448-0.187-2.535-0.559-3.264
				c-0.373-0.727-0.928-1.091-1.666-1.091c-0.787,0-1.387,0.312-1.8,0.935c-0.414,0.624-0.62,1.764-0.62,3.42
				c0,1.512,0.192,2.646,0.578,3.402C244.872,33.352,245.451,33.73,246.225,33.73z"/>
			<path style="fill:#010101;" d="M256.171,35.998h-2.186V24.989h-1.363v-1.495h3.549V35.998z M255.084,19.108
				c0.334,0,0.622,0.129,0.866,0.387c0.242,0.259,0.364,0.563,0.364,0.914c0,0.358-0.12,0.665-0.36,0.919
				c-0.238,0.255-0.529,0.382-0.87,0.382c-0.349,0-0.644-0.127-0.882-0.382c-0.24-0.254-0.359-0.561-0.359-0.919
				c0-0.366,0.119-0.674,0.359-0.925C254.44,19.234,254.735,19.108,255.084,19.108z"/>
			<path style="fill:#010101;" d="M263.688,36.17c-1.62,0-2.845-0.557-3.671-1.672c-0.828-1.113-1.241-2.75-1.241-4.907
				c0-2.007,0.446-3.556,1.338-4.645s2.189-1.634,3.892-1.634c0.663,0,1.336,0.09,2.021,0.268v1.56
				c-0.521-0.172-1.166-0.258-1.938-0.258c-0.998,0-1.755,0.417-2.271,1.253c-0.516,0.834-0.773,2.001-0.773,3.499
				c0,1.612,0.258,2.846,0.773,3.698c0.517,0.854,1.273,1.279,2.271,1.279c0.861,0,1.534-0.082,2.02-0.247v1.483
				C265.375,36.062,264.569,36.17,263.688,36.17z"/>
			<path style="fill:#010101;" d="M274.115,34.192c-0.738,1.319-1.887,1.978-3.444,1.978c-1.088,0-1.934-0.32-2.539-0.961
				c-0.604-0.643-0.907-1.539-0.907-2.693c0-1.19,0.31-2.077,0.934-2.662c0.621-0.584,1.366-0.949,2.235-1.096
				c0.867-0.146,1.924-0.221,3.168-0.221v-1.473c0-1.455-0.742-2.183-2.225-2.183c-0.855,0-1.898,0.19-3.128,0.569V23.85
				c1.237-0.358,2.413-0.537,3.527-0.537c1.312,0,2.31,0.331,2.989,0.994s1.021,1.64,1.021,2.93v8.762h-1.19L274.115,34.192z
				 M273.562,29.902h-1.22c-0.979,0-1.711,0.217-2.2,0.65c-0.488,0.434-0.732,1.08-0.732,1.941c0,0.702,0.148,1.227,0.445,1.574
				c0.298,0.348,0.744,0.521,1.339,0.521c0.751,0,1.334-0.25,1.748-0.752c0.413-0.502,0.62-1.184,0.62-2.043V29.902z"/>
			<path style="fill:#010101;" d="M278.688,35.998v-17.02h2.184v17.02H278.688z"/>
			<path style="fill:#010101;" d="M293.239,36.17c-1.619,0-2.844-0.557-3.67-1.672c-0.828-1.113-1.241-2.75-1.241-4.907
				c0-2.007,0.446-3.556,1.338-4.645c0.893-1.089,2.189-1.634,3.892-1.634c0.662,0,1.336,0.09,2.021,0.268v1.56
				c-0.521-0.172-1.166-0.258-1.938-0.258c-0.998,0-1.755,0.417-2.271,1.253c-0.516,0.834-0.773,2.001-0.773,3.499
				c0,1.612,0.258,2.846,0.773,3.698c0.517,0.854,1.273,1.279,2.271,1.279c0.861,0,1.533-0.082,2.021-0.247v1.483
				C294.928,36.062,294.122,36.17,293.239,36.17z"/>
			<path style="fill:#010101;" d="M301.617,36.17c-1.607,0-2.81-0.551-3.609-1.655c-0.8-1.104-1.2-2.759-1.2-4.967
				c0-1.921,0.414-3.44,1.246-4.559c0.83-1.118,2.018-1.677,3.563-1.677c1.559,0,2.749,0.551,3.573,1.655
				c0.823,1.104,1.235,2.645,1.235,4.623c0,2.036-0.385,3.642-1.153,4.816C304.503,35.583,303.284,36.17,301.617,36.17z
				 M301.617,34.697c0.841,0,1.475-0.398,1.901-1.198c0.428-0.8,0.642-2.138,0.642-4.016c0-1.326-0.22-2.438-0.655-3.339
				c-0.439-0.898-1.068-1.349-1.888-1.349c-0.835,0-1.467,0.405-1.897,1.215c-0.432,0.81-0.646,1.968-0.646,3.473
				c0,1.691,0.214,2.983,0.646,3.876C300.15,34.252,300.782,34.697,301.617,34.697z"/>
			<path style="fill:#010101;" d="M308.897,35.998v-17.02h2.184v17.02H308.897z"/>
			<path style="fill:#010101;" d="M318.372,36.17c-1.607,0-2.81-0.551-3.609-1.655c-0.799-1.104-1.2-2.759-1.2-4.967
				c0-1.921,0.415-3.44,1.246-4.559c0.83-1.118,2.018-1.677,3.563-1.677c1.559,0,2.749,0.551,3.573,1.655
				c0.823,1.104,1.235,2.645,1.235,4.623c0,2.036-0.385,3.642-1.153,4.816C321.258,35.583,320.038,36.17,318.372,36.17z
				 M318.372,34.697c0.842,0,1.475-0.398,1.9-1.198c0.429-0.8,0.643-2.138,0.643-4.016c0-1.326-0.22-2.438-0.656-3.339
				c-0.438-0.898-1.066-1.349-1.887-1.349c-0.835,0-1.467,0.405-1.897,1.215s-0.646,1.968-0.646,3.473
				c0,1.691,0.215,2.983,0.646,3.876S317.537,34.697,318.372,34.697z"/>
			<path style="fill:#010101;" d="M326.872,23.494l0.503,2.086c0.662-1.469,1.817-2.203,3.466-2.203c0.218,0,0.379,0.01,0.48,0.031
				v2.086c-0.17-0.014-0.427-0.021-0.768-0.021c-0.938,0-1.624,0.235-2.062,0.705c-0.438,0.469-0.656,1.202-0.656,2.198v7.622
				h-2.184V23.494H326.872z"/>
			<path style="fill:#010101;" d="M335.363,36.17c-0.896,0-1.918-0.139-3.066-0.418v-1.646c1.23,0.351,2.201,0.526,2.912,0.526
				c0.731,0,1.282-0.159,1.651-0.479c0.369-0.318,0.554-0.797,0.554-1.436c0-0.372-0.117-0.721-0.349-1.048
				c-0.233-0.325-0.814-0.726-1.744-1.198c-0.594-0.301-1.076-0.586-1.445-0.855c-0.369-0.269-0.684-0.631-0.943-1.086
				s-0.39-1.02-0.39-1.693c0-1.082,0.367-1.939,1.103-2.574c0.734-0.635,1.676-0.951,2.825-0.951c1.005,0,1.913,0.133,2.728,0.397
				v1.569c-0.855-0.309-1.686-0.462-2.492-0.462c-0.67,0-1.172,0.15-1.502,0.451c-0.332,0.302-0.498,0.753-0.498,1.354
				c0,0.316,0.106,0.611,0.318,0.887c0.212,0.277,0.741,0.626,1.59,1.049c0.615,0.301,1.123,0.594,1.527,0.877
				s0.743,0.666,1.021,1.15c0.276,0.482,0.415,1.09,0.415,1.822c0,1.232-0.363,2.168-1.092,2.806S336.717,36.17,335.363,36.17z"/>
		</g>
		<rect id="ACCENT5" x="20.087" y="726.145" style="fill:#32B44A;" width="32" height="32"/>
		<rect id="ACCENT4" x="20.087" y="684.145" style="fill:#FAEE49;" width="32" height="32"/>
		<rect id="ACCENT3" x="20.087" y="642.145" style="fill:#EF363D;" width="32" height="32"/>
		<rect id="ACCENT2" x="20.087" y="600.145" style="fill:#221C5C;" width="32" height="32"/>
		<rect id="ACCENT1" x="20.087" y="558.145" style="fill:#C8E8E4;" width="32" height="32"/>
		<rect id="LINK_x5F_ACTIVE" x="20.087" y="516.145" style="fill:#5896D0;" width="32" height="32"/>
		<rect id="LINK" x="20.087" y="474.145" style="fill:#444DA1;" width="32" height="32"/>
		<rect id="ATTENTION" x="20.087" y="432.145" style="fill:#57B947;" width="32" height="32"/>
		<rect id="WARNING" x="20.087" y="390.145" style="fill:#E22426;" width="32" height="32"/>
		<rect id="SELECT" x="20.087" y="348.145" style="fill:#2E2E2E;" width="32" height="32"/>
		<rect id="INVERTED_x5F_BACKGROUND" x="20.087" y="306.145" style="fill:#FEFFFF;" width="32" height="32"/>
		<rect id="INVERTED_x5F_SECONDARY_x5F_FOREGROUND" x="20.087" y="264.145" style="fill:#B1ADAD;" width="32" height="32"/>
		<rect id="INVERTED_x5F_FOREGROUND" x="20.087" y="222.145" style="fill:#FEFFFF;" width="32" height="32"/>
		<rect id="BACKGROUND" x="20.087" y="180.145" style="fill:#020202;" width="32" height="32"/>
		<rect id="SECONDARY_x5F_FOREGROUND" x="20.087" y="138.145" style="fill:#757576;" width="32" height="32"/>
		<rect id="FOREGROUND" x="20.087" y="96.145" style="fill:#010101;" width="32" height="32"/>
	</g>
</g>
</svg>
