<?xml version="1.0" encoding="iso-8859-1"?>
<!-- Generator: Adobe Illustrator 14.0.0, SVG Export Plug-In . SVG Version: 6.00 Build 43363)  -->
<!DOCTYPE svg PUBLIC "-//W3C//DTD SVG 1.1//EN" "http://www.w3.org/Graphics/SVG/1.1/DTD/svg11.dtd">
<svg version="1.1" xmlns="http://www.w3.org/2000/svg" xmlns:xlink="http://www.w3.org/1999/xlink" x="0px" y="0px" width="290px"
	 height="517px" viewBox="0 0 290 517" style="enable-background:new 0 0 290 517;" xml:space="preserve">
<g id="duibutton-layer">
</g>
<g id="dui-theme-rd">
	<g id="duibutton">
		<g id="duibutton-switch-mask">
			<rect x="2" y="468" style="fill:none;" width="96" height="48"/>
			<g id="_x3C_Path_x3E__1_">
				<path style="fill:#FFFFFF;" d="M96,492c0,12.1-9.9,22-22,22H26c-12.1,0-22-9.9-22-22l0,0c0-12.1,9.9-22,22-22h48
					C86.1,470,96,479.9,96,492L96,492z"/>
			</g>
		</g>
		<g id="duibutton-switch-colorstripe">
			<g id="_x3C_Path_x3E__2_">
				<rect y="416" style="fill:#F4A81D;" width="72" height="48"/>
			</g>
			<g id="_x3C_Path_x3E__3_">
				<rect x="72" y="416" style="fill:#808080;" width="72" height="48"/>
			</g>
		</g>
		<g id="duibutton-switch-thumb">
			<rect id="_x3C_Path_x3E__4_" x="4" y="358" style="opacity:0;fill:#010101;" width="48" height="48"/>
			<g id="_x3C_Path_x3E__5_">
				<linearGradient id="SVGID_1_" gradientUnits="userSpaceOnUse" x1="28" y1="404" x2="28" y2="360">
					<stop  offset="0" style="stop-color:#B3B3B3"/>
					<stop  offset="1" style="stop-color:#FCFCFC"/>
				</linearGradient>
				<path style="fill:url(#SVGID_1_);" d="M50,382c0,12.1-9.9,22-22,22l0,0c-12.1,0-22-9.9-22-22l0,0c0-12.1,9.9-22,22-22l0,0
					C40.1,360,50,369.9,50,382L50,382z"/>
			</g>
		</g>
		<g id="duibutton-switch-background">
			<g id="_x3C_Path_x3E_">
				<path style="fill:#999999;" d="M100,324c0,13.2-10.8,24-24,24H28c-13.2,0-24-10.8-24-24l0,0c0-13.2,10.8-24,24-24h48
					C89.2,300,100,310.8,100,324L100,324z"/>
			</g>
			<g id="_x3C_Path_x3E__6_">
				<path style="fill:#808080;" d="M98,324c0,12.1-9.9,22-22,22H28c-12.1,0-22-9.9-22-22l0,0c0-12.1,9.9-22,22-22h48
					C88.1,302,98,311.9,98,324L98,324z"/>
			</g>
		</g>
		<g id="duibutton-checkbox-checkmark-pressed">
			<rect x="226" y="74" style="opacity:0;fill:#FFFFFF;" width="64" height="64"/>
			<g>
				<polygon style="fill:#808080;" points="238.637,108.775 243.132,103.078 251.582,113.792 272.868,86.808 277.363,92.512 
					251.582,125.192 				"/>
				<path style="fill:#4D4D4D;" d="M272.868,87.615l3.858,4.896l-25.145,31.874l-12.309-15.61l3.858-4.89l7.665,9.718l0.785,0.996
					l0.785-0.996L272.868,87.615 M272.868,86l-21.286,26.984l-8.45-10.714L238,108.775L251.582,126L278,92.512L272.868,86
					L272.868,86z"/>
			</g>
		</g>
		<g id="duibutton-checkbox-checkmark">
			<rect x="152" y="74" style="opacity:0;fill:#FFFFFF;" width="64" height="64"/>
			<g>
				<polygon style="fill:#FFFFFF;" points="164.637,108.775 169.132,103.078 177.582,113.792 198.868,86.808 203.363,92.512 
					177.582,125.192 				"/>
				<path style="fill:#808080;" d="M198.868,87.615l3.858,4.896l-25.145,31.874l-12.309-15.61l3.858-4.89l7.665,9.718l0.785,0.996
					l0.785-0.996L198.868,87.615 M198.868,86l-21.286,26.984l-8.45-10.714L164,108.775L177.582,126L204,92.512L198.868,86
					L198.868,86z"/>
			</g>
		</g>
		<g id="duibutton-checkbox-background-pressed">
			<linearGradient id="SVGID_2_" gradientUnits="userSpaceOnUse" x1="110" y1="137" x2="110" y2="75">
				<stop  offset="0" style="stop-color:#C9C9C9"/>
				<stop  offset="0.4115" style="stop-color:#C8C8C8"/>
				<stop  offset="0.5598" style="stop-color:#C1C1C1"/>
				<stop  offset="0.6654" style="stop-color:#B5B5B5"/>
				<stop  offset="0.7509" style="stop-color:#A4A4A4"/>
				<stop  offset="0.824" style="stop-color:#8E8E8E"/>
				<stop  offset="0.8888" style="stop-color:#737373"/>
				<stop  offset="0.946" style="stop-color:#535353"/>
				<stop  offset="0.9983" style="stop-color:#2F2F2F"/>
				<stop  offset="1" style="stop-color:#2E2E2E"/>
			</linearGradient>
			<path style="fill:url(#SVGID_2_);" d="M88,137c-4.963,0-9-4.037-9-9V84c0-4.963,4.037-9,9-9h44c4.963,0,9,4.037,9,9v44
				c0,4.963-4.037,9-9,9H88z"/>
			<path style="fill:#999999;" d="M132,76c4.411,0,8,3.589,8,8v44c0,4.411-3.589,8-8,8H88c-4.411,0-8-3.589-8-8V84
				c0-4.411,3.589-8,8-8H132 M132,74H88c-5.5,0-10,4.5-10,10v44c0,5.5,4.5,10,10,10h44c5.5,0,10-4.5,10-10V84
				C142,78.5,137.5,74,132,74L132,74z"/>
		</g>
		<g id="duibutton-checkbox-background">
			<linearGradient id="SVGID_3_" gradientUnits="userSpaceOnUse" x1="36" y1="137" x2="36" y2="75">
				<stop  offset="0" style="stop-color:#B3B3B3"/>
				<stop  offset="1" style="stop-color:#FCFCFC"/>
			</linearGradient>
			<path style="fill:url(#SVGID_3_);" d="M14,137c-4.963,0-9-4.037-9-9V84c0-4.963,4.037-9,9-9h44c4.963,0,9,4.037,9,9v44
				c0,4.963-4.037,9-9,9H14z"/>
			<path style="fill:#999999;" d="M58,76c4.411,0,8,3.589,8,8v44c0,4.411-3.589,8-8,8H14c-4.411,0-8-3.589-8-8V84
				c0-4.411,3.589-8,8-8H58 M58,74H14C8.5,74,4,78.5,4,84v44c0,5.5,4.5,10,10,10h44c5.5,0,10-4.5,10-10V84C68,78.5,63.5,74,58,74
				L58,74z"/>
		</g>
		<g id="duibutton-background-selected-pressed">
			<linearGradient id="SVGID_4_" gradientUnits="userSpaceOnUse" x1="258" y1="63" x2="258" y2="1">
				<stop  offset="0" style="stop-color:#A7752A"/>
				<stop  offset="1" style="stop-color:#805823"/>
			</linearGradient>
			<path style="fill:url(#SVGID_4_);" d="M236,63c-4.963,0-9-4.037-9-9V10c0-4.963,4.037-9,9-9h44c4.963,0,9,4.037,9,9v44
				c0,4.963-4.037,9-9,9H236z"/>
			<path style="fill:#999999;" d="M280,2c4.411,0,8,3.589,8,8v44c0,4.411-3.589,8-8,8h-44c-4.411,0-8-3.589-8-8V10
				c0-4.411,3.589-8,8-8H280 M280,0h-44c-5.5,0-10,4.5-10,10v44c0,5.5,4.5,10,10,10h44c5.5,0,10-4.5,10-10V10C290,4.5,285.5,0,280,0
				L280,0z"/>
		</g>
		<g id="duibutton-background-selected">
			<linearGradient id="SVGID_5_" gradientUnits="userSpaceOnUse" x1="184" y1="63" x2="184" y2="1">
				<stop  offset="0" style="stop-color:#A7752A"/>
				<stop  offset="1" style="stop-color:#F4A81D"/>
			</linearGradient>
			<path style="fill:url(#SVGID_5_);" d="M162,63c-4.963,0-9-4.037-9-9V10c0-4.963,4.037-9,9-9h44c4.963,0,9,4.037,9,9v44
				c0,4.963-4.037,9-9,9H162z"/>
			<path style="fill:#999999;" d="M206,2c4.411,0,8,3.589,8,8v44c0,4.411-3.589,8-8,8h-44c-4.411,0-8-3.589-8-8V10
				c0-4.411,3.589-8,8-8H206 M206,0h-44c-5.5,0-10,4.5-10,10v44c0,5.5,4.5,10,10,10h44c5.5,0,10-4.5,10-10V10C216,4.5,211.5,0,206,0
				L206,0z"/>
		</g>
		<g id="duibutton-background-pressed">
			<linearGradient id="SVGID_6_" gradientUnits="userSpaceOnUse" x1="110" y1="63" x2="110" y2="1">
				<stop  offset="0" style="stop-color:#C9C9C9"/>
				<stop  offset="0.4115" style="stop-color:#C8C8C8"/>
				<stop  offset="0.5598" style="stop-color:#C1C1C1"/>
				<stop  offset="0.6654" style="stop-color:#B5B5B5"/>
				<stop  offset="0.7509" style="stop-color:#A4A4A4"/>
				<stop  offset="0.824" style="stop-color:#8E8E8E"/>
				<stop  offset="0.8888" style="stop-color:#737373"/>
				<stop  offset="0.946" style="stop-color:#535353"/>
				<stop  offset="0.9983" style="stop-color:#2F2F2F"/>
				<stop  offset="1" style="stop-color:#2E2E2E"/>
			</linearGradient>
			<path style="fill:url(#SVGID_6_);" d="M88,63c-4.963,0-9-4.037-9-9V10c0-4.963,4.037-9,9-9h44c4.963,0,9,4.037,9,9v44
				c0,4.963-4.037,9-9,9H88z"/>
			<path style="fill:#999999;" d="M132,2c4.411,0,8,3.589,8,8v44c0,4.411-3.589,8-8,8H88c-4.411,0-8-3.589-8-8V10
				c0-4.411,3.589-8,8-8H132 M132,0H88c-5.5,0-10,4.5-10,10v44c0,5.5,4.5,10,10,10h44c5.5,0,10-4.5,10-10V10C142,4.5,137.5,0,132,0
				L132,0z"/>
		</g>
		<g id="duibutton-background">
			<linearGradient id="SVGID_7_" gradientUnits="userSpaceOnUse" x1="36" y1="63" x2="36" y2="1">
				<stop  offset="0" style="stop-color:#B3B3B3"/>
				<stop  offset="1" style="stop-color:#FCFCFC"/>
			</linearGradient>
			<path style="fill:url(#SVGID_7_);" d="M14,63c-4.963,0-9-4.037-9-9V10c0-4.963,4.037-9,9-9h44c4.963,0,9,4.037,9,9v44
				c0,4.963-4.037,9-9,9H14z"/>
			<path style="fill:#999999;" d="M58,2c4.411,0,8,3.589,8,8v44c0,4.411-3.589,8-8,8H14c-4.411,0-8-3.589-8-8V10
				c0-4.411,3.589-8,8-8H58 M58,0H14C8.5,0,4,4.5,4,10v44c0,5.5,4.5,10,10,10h44c5.5,0,10-4.5,10-10V10C68,4.5,63.5,0,58,0L58,0z"/>
		</g>
	</g>
</g>
</svg>
