<?xml version="1.0" encoding="iso-8859-1"?>
<!-- Generator: Adobe Illustrator 14.0.0, SVG Export Plug-In . SVG Version: 6.00 Build 43363)  -->
<!DOCTYPE svg PUBLIC "-//W3C//DTD SVG 1.1//EN" "http://www.w3.org/Graphics/SVG/1.1/DTD/svg11.dtd">
<svg version="1.1" xmlns="http://www.w3.org/2000/svg" xmlns:xlink="http://www.w3.org/1999/xlink" x="0px" y="0px" width="338px"
	 height="230px" viewBox="0 0 338 230" style="enable-background:new 0 0 338 230;" xml:space="preserve">
<g id="duicontainer-layer">
</g>
<g id="dui-theme-rd">
	<g id="duicontainer">
		<g id="duicontainer-headerless-content-background">
			<g>
				<path style="fill:#999999;" d="M106,217c0,7.15-5.85,13-13,13H13c-7.15,0-13-5.85-13-13v-80c0-7.15,5.85-13,13-13h80
					c7.15,0,13,5.85,13,13V217z"/>
			</g>
			<g>
				<path style="fill:#FFFFFF;" d="M105,217c0,6.6-5.4,12-12,12H13c-6.6,0-12-5.4-12-12v-80c0-6.6,5.4-12,12-12h80
					c6.6,0,12,5.4,12,12V217z"/>
			</g>
		</g>
		<g id="duicontainer-content-background">
			<path style="fill:#999999;" d="M0,60v41c0,7.15,5.85,13,13,13h80c7.15,0,13-5.85,13-13V60H0z"/>
			<path style="fill:#FFFFFF;" d="M1,60v41c0,6.601,5.4,12,12,12h80c6.6,0,12-5.399,12-12V60H1z"/>
		</g>
		<g id="duicontainer-header-background-pressed">
			<path style="fill:#999999;" d="M222,52V13c0-7.149-5.85-13-13-13h-80c-7.15,0-13,5.851-13,13v39H222z"/>
			<path style="fill:#FFFFFF;" d="M221,52V13c0-6.6-5.4-12-12-12h-80c-6.6,0-12,5.4-12,12v39H221z"/>
			<linearGradient id="SVGID_1_" gradientUnits="userSpaceOnUse" x1="169.0005" y1="50" x2="169.0005" y2="3">
				<stop  offset="0" style="stop-color:#C9C9C9"/>
				<stop  offset="0.4115" style="stop-color:#C8C8C8"/>
				<stop  offset="0.5598" style="stop-color:#C1C1C1"/>
				<stop  offset="0.6654" style="stop-color:#B5B5B5"/>
				<stop  offset="0.7509" style="stop-color:#A4A4A4"/>
				<stop  offset="0.824" style="stop-color:#8E8E8E"/>
				<stop  offset="0.8888" style="stop-color:#737373"/>
				<stop  offset="0.946" style="stop-color:#535353"/>
				<stop  offset="0.9983" style="stop-color:#2F2F2F"/>
				<stop  offset="1" style="stop-color:#2E2E2E"/>
			</linearGradient>
			<path style="fill:url(#SVGID_1_);" d="M119,50V13c0-5.5,4.5-10,10-10h80c5.5,0,10,4.5,10,10v37H119z"/>
		</g>
		<g id="duicontainer-header-background-static">
			<path style="fill:#999999;" d="M338,52V13c0-7.149-5.85-13-13-13h-80c-7.15,0-13,5.851-13,13v39H338z"/>
			<path style="fill:#FFFFFF;" d="M337,52V13c0-6.6-5.4-12-12-12h-80c-6.6,0-12,5.4-12,12v39H337z"/>
			<path style="fill:#E6E6E6;" d="M235,50V13c0-5.5,4.5-10,10-10h80c5.5,0,10,4.5,10,10v37H235z"/>
		</g>
		<g id="duicontainer-header-background">
			<path style="fill:#999999;" d="M106,52V13c0-7.149-5.85-13-13-13H13C5.85,0,0,5.851,0,13v39H106z"/>
			<path style="fill:#FFFFFF;" d="M105,52V13c0-6.6-5.4-12-12-12H13C6.4,1,1,6.4,1,13v39H105z"/>
			<path d="M3,50V13C3,7.5,7.5,3,13,3h80c5.5,0,10,4.5,10,10v37H3z"/>
		</g>
	</g>
</g>
</svg>
