<?xml version="1.0" encoding="iso-8859-1"?>
<!-- Generator: Adobe Illustrator 14.0.0, SVG Export Plug-In . SVG Version: 6.00 Build 43363)  -->
<!DOCTYPE svg PUBLIC "-//W3C//DTD SVG 1.1//EN" "http://www.w3.org/Graphics/SVG/1.1/DTD/svg11.dtd">
<svg version="1.1" id="duicompleter-background-layer"
	 xmlns="http://www.w3.org/2000/svg" xmlns:xlink="http://www.w3.org/1999/xlink" x="0px" y="0px" width="414px" height="88px"
	 viewBox="0 0 414 88" style="enable-background:new 0 0 414 88;" xml:space="preserve">
<g id="duicompleter-background">
	<path style="fill:#F5F6F6;" d="M10,87.5c-5.238,0-9.5-4.262-9.5-9.5V10c0-5.238,4.262-9.5,9.5-9.5h394c5.238,0,9.5,4.262,9.5,9.5
		v68c0,5.238-4.262,9.5-9.5,9.5H10z"/>
	<path style="fill:#999999;" d="M404,1c4.963,0,9,4.037,9,9v68c0,4.963-4.037,9-9,9H10c-4.963,0-9-4.037-9-9V10c0-4.963,4.037-9,9-9
		H404 M404,0H10C4.5,0,0,4.5,0,10v68c0,5.5,4.5,10,10,10h394c5.5,0,10-4.5,10-10V10C414,4.5,409.5,0,404,0L404,0z"/>
</g>
</svg>
