<?xml version="1.0" encoding="iso-8859-1"?>
<!-- Generator: Adobe Illustrator 14.0.0, SVG Export Plug-In . SVG Version: 6.00 Build 43363)  -->
<!DOCTYPE svg PUBLIC "-//W3C//DTD SVG 1.1//EN" "http://www.w3.org/Graphics/SVG/1.1/DTD/svg11.dtd">
<svg version="1.1" xmlns="http://www.w3.org/2000/svg" xmlns:xlink="http://www.w3.org/1999/xlink" x="0px" y="0px" width="366px"
	 height="299px" viewBox="0 0 366 299" style="enable-background:new 0 0 366 299;" xml:space="preserve">
<g id="duicontainer-layer">
</g>
<g id="dui-theme-rd">
	<g id="duicontainer">
		<g id="duicontainerThemeTemplateHelper">
			<g>
				<path style="fill:#B3B3B3;" d="M16,298c-8.271,0-15-6.729-15-15V16C1,7.729,7.729,1,16,1h334c8.271,0,15,6.729,15,15v267
					c0,8.271-6.729,15-15,15H16z"/>
				<g>
					<path d="M350,2c7.72,0,14,6.28,14,14v267c0,7.72-6.28,14-14,14H16c-7.72,0-14-6.28-14-14V16C2,8.28,8.28,2,16,2H350 M350,0H16
						C7.2,0,0,7.2,0,16v267c0,8.8,7.2,16,16,16h334c8.8,0,16-7.2,16-16V16C366,7.2,358.8,0,350,0L350,0z"/>
				</g>
			</g>
			<path style="fill:#010101;" d="M146.453,34.497c-1.859,0-3.254-0.636-4.188-1.907s-1.4-3.295-1.4-6.07
				c0-2.502,0.475-4.4,1.42-5.696c0.947-1.295,2.35-1.942,4.209-1.942c0.861,0,1.641,0.102,2.338,0.307v1.559
				c-0.717-0.225-1.432-0.338-2.143-0.338c-1.162,0-2.033,0.502-2.615,1.508c-0.58,1.004-0.871,2.512-0.871,4.521
				c0,2.181,0.299,3.814,0.898,4.901c0.598,1.087,1.494,1.63,2.691,1.63c0.662,0,1.342-0.105,2.039-0.317v1.518
				C148.033,34.388,147.24,34.497,146.453,34.497z"/>
			<path style="fill:#010101;" d="M155.17,34.497c-1.607,0-2.809-0.526-3.609-1.579c-0.799-1.053-1.199-2.632-1.199-4.737
				c0-1.832,0.414-3.281,1.246-4.348c0.83-1.066,2.018-1.6,3.562-1.6c1.559,0,2.75,0.526,3.574,1.579
				c0.822,1.053,1.234,2.522,1.234,4.409c0,1.941-0.385,3.473-1.152,4.594C158.057,33.937,156.838,34.497,155.17,34.497z
				 M155.17,33.092c0.842,0,1.475-0.381,1.902-1.143s0.641-2.039,0.641-3.83c0-1.265-0.219-2.326-0.656-3.184
				s-1.066-1.287-1.887-1.287c-0.834,0-1.467,0.387-1.896,1.158c-0.432,0.773-0.646,1.877-0.646,3.312
				c0,1.613,0.215,2.846,0.646,3.696C153.703,32.667,154.336,33.092,155.17,33.092z"/>
			<path style="fill:#010101;" d="M171.207,34.333h-2.184v-7.916c0-0.896-0.158-1.567-0.473-2.015s-0.785-0.672-1.414-0.672
				c-0.793,0-1.408,0.301-1.846,0.902s-0.656,1.385-0.656,2.348v7.353h-2.186V22.408h1.221l0.441,1.764
				c0.758-1.293,1.914-1.938,3.465-1.938c1.211,0,2.119,0.317,2.723,0.954c0.605,0.635,0.908,1.586,0.908,2.85V34.333z"/>
			<path style="fill:#010101;" d="M177.195,34.497c-0.93,0-1.611-0.217-2.041-0.651c-0.432-0.434-0.646-1.126-0.646-2.076v-7.937
				h-1.568v-0.82l3.189-3.251h0.562v2.646h2.902v1.425h-2.902v7.577c0,0.65,0.107,1.079,0.318,1.287
				c0.213,0.209,0.533,0.312,0.965,0.312c0.443,0,1.045-0.099,1.805-0.297v1.415C178.863,34.374,178.002,34.497,177.195,34.497z"/>
			<path style="fill:#010101;" d="M187.623,32.61c-0.738,1.258-1.887,1.887-3.445,1.887c-1.086,0-1.932-0.306-2.537-0.918
				c-0.605-0.611-0.908-1.468-0.908-2.568c0-1.135,0.311-1.98,0.934-2.538c0.621-0.557,1.367-0.905,2.234-1.046
				c0.869-0.14,1.926-0.21,3.17-0.21v-1.404c0-1.389-0.742-2.082-2.227-2.082c-0.854,0-1.896,0.182-3.127,0.543v-1.527
				c1.238-0.342,2.414-0.513,3.527-0.513c1.312,0,2.309,0.316,2.99,0.948c0.68,0.633,1.02,1.564,1.02,2.795v8.356h-1.189
				L187.623,32.61z M187.07,28.52h-1.221c-0.979,0-1.711,0.207-2.199,0.62s-0.734,1.03-0.734,1.851c0,0.67,0.15,1.171,0.447,1.502
				c0.297,0.332,0.742,0.498,1.338,0.498c0.752,0,1.334-0.24,1.748-0.719s0.621-1.127,0.621-1.947V28.52z"/>
			<path style="fill:#010101;" d="M194.697,34.333h-2.184v-10.5h-1.363v-1.425h3.547V34.333z M193.611,18.225
				c0.334,0,0.623,0.123,0.867,0.369c0.242,0.246,0.363,0.536,0.363,0.871c0,0.342-0.119,0.635-0.359,0.877
				c-0.238,0.242-0.529,0.363-0.871,0.363c-0.35,0-0.643-0.121-0.883-0.363c-0.238-0.242-0.357-0.535-0.357-0.877
				c0-0.349,0.119-0.643,0.357-0.882C192.969,18.344,193.262,18.225,193.611,18.225z"/>
			<path style="fill:#010101;" d="M206.562,34.333h-2.184v-7.916c0-0.896-0.158-1.567-0.473-2.015s-0.785-0.672-1.414-0.672
				c-0.793,0-1.408,0.301-1.846,0.902s-0.656,1.385-0.656,2.348v7.353h-2.186V22.408h1.221l0.441,1.764
				c0.758-1.293,1.914-1.938,3.465-1.938c1.211,0,2.119,0.317,2.723,0.954c0.605,0.635,0.908,1.586,0.908,2.85V34.333z"/>
			<path style="fill:#010101;" d="M217.318,32.508v1.486c-1.074,0.336-2.184,0.503-3.332,0.503c-1.668,0-2.916-0.503-3.744-1.507
				c-0.826-1.006-1.24-2.554-1.24-4.646c0-1.839,0.4-3.317,1.199-4.435c0.801-1.118,1.941-1.677,3.426-1.677
				c1.203,0,2.107,0.319,2.713,0.959c0.604,0.64,0.992,1.422,1.162,2.348c0.172,0.927,0.258,2.028,0.258,3.308h-6.439
				c0,1.387,0.246,2.428,0.738,3.122s1.23,1.04,2.215,1.04C215.107,33.01,216.121,32.843,217.318,32.508z M211.32,27.504h4.295
				c0-1.442-0.17-2.461-0.512-3.056s-0.834-0.892-1.477-0.892c-0.719,0-1.266,0.307-1.646,0.922
				C211.602,25.094,211.381,26.103,211.32,27.504z"/>
			<path style="fill:#010101;" d="M221.41,22.408l0.502,1.988c0.662-1.4,1.818-2.102,3.467-2.102c0.217,0,0.379,0.01,0.48,0.031
				v1.988c-0.17-0.014-0.428-0.02-0.768-0.02c-0.938,0-1.625,0.224-2.062,0.671c-0.438,0.448-0.656,1.147-0.656,2.097v7.271h-2.184
				V22.408H221.41z"/>
		</g>
		<g id="duicontainer-headerless-content-background">
			<g>
				<path style="fill:#999999;" d="M120,266c0,7.15-5.85,13-13,13H27c-7.15,0-13-5.85-13-13v-80c0-7.15,5.85-13,13-13h80
					c7.15,0,13,5.85,13,13V266z"/>
			</g>
			<g>
				<path style="fill:#FFFFFF;" d="M119,266c0,6.6-5.4,12-12,12H27c-6.6,0-12-5.4-12-12v-80c0-6.6,5.4-12,12-12h80
					c6.6,0,12,5.4,12,12V266z"/>
			</g>
		</g>
		<g id="duicontainer-content-background">
			<path style="fill:#999999;" d="M14,109v41c0,7.15,5.85,13,13,13h80c7.15,0,13-5.85,13-13v-41H14z"/>
			<path style="fill:#FFFFFF;" d="M15,109v41c0,6.601,5.4,12,12,12h80c6.6,0,12-5.399,12-12v-41H15z"/>
		</g>
		<g id="duicontainer-header-background-pressed">
			<path style="fill:#999999;" d="M236,101V62c0-7.149-5.85-13-13-13h-80c-7.15,0-13,5.851-13,13v39H236z"/>
			<path style="fill:#FFFFFF;" d="M235,101V62c0-6.6-5.4-12-12-12h-80c-6.6,0-12,5.4-12,12v39H235z"/>
			<linearGradient id="SVGID_1_" gradientUnits="userSpaceOnUse" x1="183.0005" y1="99" x2="183.0005" y2="52">
				<stop  offset="0" style="stop-color:#C9C9C9"/>
				<stop  offset="0.4115" style="stop-color:#C8C8C8"/>
				<stop  offset="0.5598" style="stop-color:#C1C1C1"/>
				<stop  offset="0.6654" style="stop-color:#B5B5B5"/>
				<stop  offset="0.7509" style="stop-color:#A4A4A4"/>
				<stop  offset="0.824" style="stop-color:#8E8E8E"/>
				<stop  offset="0.8888" style="stop-color:#737373"/>
				<stop  offset="0.946" style="stop-color:#535353"/>
				<stop  offset="0.9983" style="stop-color:#2F2F2F"/>
				<stop  offset="1" style="stop-color:#2E2E2E"/>
			</linearGradient>
			<path style="fill:url(#SVGID_1_);" d="M133,99V62c0-5.5,4.5-10,10-10h80c5.5,0,10,4.5,10,10v37H133z"/>
		</g>
		<g id="duicontainer-header-background-static">
			<path style="fill:#999999;" d="M352,101V62c0-7.149-5.85-13-13-13h-80c-7.15,0-13,5.851-13,13v39H352z"/>
			<path style="fill:#FFFFFF;" d="M351,101V62c0-6.6-5.4-12-12-12h-80c-6.6,0-12,5.4-12,12v39H351z"/>
			<path style="fill:#E6E6E6;" d="M249,99V62c0-5.5,4.5-10,10-10h80c5.5,0,10,4.5,10,10v37H249z"/>
		</g>
		<g id="duicontainer-header-background">
			<path style="fill:#999999;" d="M120,101V62c0-7.149-5.85-13-13-13H27c-7.15,0-13,5.851-13,13v39H120z"/>
			<path style="fill:#FFFFFF;" d="M119,101V62c0-6.6-5.4-12-12-12H27c-6.6,0-12,5.4-12,12v39H119z"/>
			<path d="M17,99V62c0-5.5,4.5-10,10-10h80c5.5,0,10,4.5,10,10v37H17z"/>
		</g>
	</g>
</g>
</svg>
