<?xml version="1.0" encoding="iso-8859-1"?>
<!-- Generator: Adobe Illustrator 14.0.0, SVG Export Plug-In . SVG Version: 6.00 Build 43363)  -->
<!DOCTYPE svg PUBLIC "-//W3C//DTD SVG 1.1//EN" "http://www.w3.org/Graphics/SVG/1.1/DTD/svg11.dtd">
<svg version="1.1" xmlns="http://www.w3.org/2000/svg" xmlns:xlink="http://www.w3.org/1999/xlink" x="0px" y="0px" width="334px"
	 height="1394px" viewBox="0 0 334 1394" style="enable-background:new 0 0 334 1394;" xml:space="preserve">
<g id="duidialog-layer">
</g>
<g id="dui-theme-rd">
	<g id="duidialog">
		<g id="duidialogThemeTemplateHelper">
			<g>
				<path style="fill:#B3B3B3;" d="M16,1393c-8.271,0-15-6.729-15-15V16C1,7.729,7.729,1,16,1h302c8.271,0,15,6.729,15,15v1362
					c0,8.271-6.729,15-15,15H16z"/>
				<g>
					<path d="M318,2c7.72,0,14,6.28,14,14v1362c0,7.72-6.28,14-14,14H16c-7.72,0-14-6.28-14-14V16C2,8.28,8.28,2,16,2H318 M318,0H16
						C7.2,0,0,7.2,0,16v1362c0,8.8,7.2,16,16,16h302c8.8,0,16-7.2,16-16V16C334,7.2,326.8,0,318,0L318,0z"/>
				</g>
			</g>
			<path style="fill:#010101;" d="M140.145,19.045h3.988c1.887,0,3.297,0.584,4.23,1.753c0.932,1.169,1.398,3.042,1.398,5.619
				c0,2.83-0.498,4.856-1.496,6.081c-0.998,1.223-2.496,1.835-4.492,1.835h-3.629V19.045z M142.348,32.846h1.508
				c1.176,0,2.072-0.451,2.688-1.354s0.922-2.539,0.922-4.911c0-2.112-0.303-3.648-0.906-4.609c-0.605-0.96-1.52-1.44-2.744-1.44
				h-1.467V32.846z"/>
			<path style="fill:#010101;" d="M154.816,34.333h-2.184v-10.5h-1.363v-1.425h3.547V34.333z M153.73,18.225
				c0.334,0,0.623,0.123,0.867,0.369c0.242,0.246,0.363,0.536,0.363,0.871c0,0.342-0.119,0.635-0.359,0.877
				c-0.238,0.242-0.529,0.363-0.871,0.363c-0.35,0-0.643-0.121-0.883-0.363c-0.238-0.242-0.357-0.535-0.357-0.877
				c0-0.349,0.119-0.643,0.357-0.882C153.088,18.344,153.381,18.225,153.73,18.225z"/>
			<path style="fill:#010101;" d="M164.107,32.61c-0.738,1.258-1.887,1.887-3.445,1.887c-1.086,0-1.932-0.306-2.537-0.918
				c-0.605-0.611-0.908-1.468-0.908-2.568c0-1.135,0.311-1.98,0.934-2.538c0.621-0.557,1.367-0.905,2.234-1.046
				c0.869-0.14,1.926-0.21,3.17-0.21v-1.404c0-1.389-0.742-2.082-2.227-2.082c-0.854,0-1.896,0.182-3.127,0.543v-1.527
				c1.238-0.342,2.414-0.513,3.527-0.513c1.312,0,2.309,0.316,2.99,0.948c0.68,0.633,1.02,1.564,1.02,2.795v8.356h-1.189
				L164.107,32.61z M163.555,28.52h-1.221c-0.979,0-1.711,0.207-2.199,0.62s-0.734,1.03-0.734,1.851c0,0.67,0.15,1.171,0.447,1.502
				c0.297,0.332,0.742,0.498,1.338,0.498c0.752,0,1.334-0.24,1.748-0.719s0.621-1.127,0.621-1.947V28.52z"/>
			<path style="fill:#010101;" d="M168.68,34.333V18.102h2.186v16.231H168.68z"/>
			<path style="fill:#010101;" d="M178.154,34.497c-1.605,0-2.809-0.526-3.609-1.579c-0.799-1.053-1.199-2.632-1.199-4.737
				c0-1.832,0.416-3.281,1.246-4.348s2.018-1.6,3.562-1.6c1.559,0,2.75,0.526,3.574,1.579s1.236,2.522,1.236,4.409
				c0,1.941-0.385,3.473-1.154,4.594S179.822,34.497,178.154,34.497z M178.154,33.092c0.842,0,1.477-0.381,1.902-1.143
				c0.428-0.762,0.641-2.039,0.641-3.83c0-1.265-0.219-2.326-0.656-3.184s-1.066-1.287-1.887-1.287
				c-0.834,0-1.465,0.387-1.896,1.158c-0.43,0.773-0.646,1.877-0.646,3.312c0,1.613,0.217,2.846,0.646,3.696
				C176.689,32.667,177.32,33.092,178.154,33.092z"/>
			<path style="fill:#010101;" d="M192.307,23.854l0.461-1.445h1.221V33.77c0,1.285-0.398,2.281-1.195,2.988
				c-0.797,0.708-1.889,1.062-3.275,1.062c-1.137,0-2.424-0.181-3.867-0.544v-1.537c1.504,0.361,2.707,0.543,3.609,0.543
				c0.787,0,1.363-0.146,1.729-0.436c0.365-0.291,0.592-0.67,0.682-1.139c0.088-0.468,0.133-1.133,0.133-1.994v-0.308
				c-0.58,0.834-1.51,1.251-2.789,1.251c-1.359,0-2.381-0.47-3.061-1.41c-0.68-0.939-1.02-2.35-1.02-4.229
				c0-1.798,0.375-3.211,1.127-4.24c0.752-1.028,1.84-1.543,3.262-1.543C190.689,22.233,191.684,22.773,192.307,23.854z
				 M189.518,32.17c0.758,0,1.336-0.272,1.732-0.815c0.396-0.544,0.594-1.714,0.594-3.513c0-1.381-0.186-2.418-0.559-3.111
				s-0.928-1.041-1.666-1.041c-0.787,0-1.387,0.297-1.799,0.893c-0.414,0.594-0.621,1.682-0.621,3.26
				c0,1.443,0.193,2.525,0.58,3.246C188.164,31.809,188.744,32.17,189.518,32.17z"/>
			<path style="fill:#010101;" d="M115.17,813.354c-1.285-0.335-2.256-1.125-2.916-2.369s-0.99-3.079-0.99-5.506
				c0-2.529,0.438-4.428,1.312-5.696c0.875-1.268,2.188-1.901,3.938-1.901s3.062,0.617,3.938,1.851s1.312,3.149,1.312,5.747
				c0,2.447-0.357,4.334-1.07,5.66c-0.715,1.326-1.783,2.092-3.205,2.297c0.143,0.656,0.355,1.137,0.635,1.44
				c0.281,0.304,0.838,0.456,1.672,0.456v1.426h-0.338c-1.225,0-2.156-0.244-2.799-0.733S115.52,814.646,115.17,813.354z
				 M116.514,811.969c0.943,0,1.666-0.482,2.17-1.45c0.502-0.968,0.752-2.647,0.752-5.04c0-2.16-0.248-3.712-0.748-4.655
				c-0.498-0.943-1.223-1.415-2.174-1.415c-0.936,0-1.656,0.46-2.158,1.379c-0.502,0.92-0.754,2.483-0.754,4.691
				c0,2.167,0.242,3.791,0.729,4.871C114.814,811.43,115.543,811.969,116.514,811.969z"/>
			<path style="fill:#010101;" d="M127.926,813.497c-1.217,0-2.127-0.315-2.732-0.948s-0.908-1.581-0.908-2.846v-8.295h2.186v7.916
				c0,0.895,0.156,1.566,0.471,2.015s0.789,0.671,1.426,0.671c0.793,0,1.406-0.301,1.84-0.902c0.436-0.602,0.652-1.384,0.652-2.348
				v-7.352h2.184v11.925h-1.211l-0.439-1.764C130.633,812.854,129.479,813.497,127.926,813.497z"/>
			<path style="fill:#010101;" d="M143.84,811.508v1.486c-1.074,0.336-2.184,0.503-3.332,0.503c-1.668,0-2.916-0.503-3.744-1.507
				c-0.826-1.006-1.24-2.554-1.24-4.646c0-1.839,0.4-3.317,1.199-4.435c0.801-1.118,1.941-1.677,3.426-1.677
				c1.203,0,2.107,0.319,2.713,0.959c0.604,0.64,0.992,1.422,1.162,2.348c0.172,0.927,0.258,2.028,0.258,3.308h-6.439
				c0,1.387,0.246,2.428,0.738,3.122s1.23,1.04,2.215,1.04C141.629,812.01,142.643,811.843,143.84,811.508z M137.842,806.504h4.295
				c0-1.442-0.17-2.461-0.512-3.056s-0.834-0.892-1.477-0.892c-0.719,0-1.266,0.307-1.646,0.922
				C138.123,804.094,137.902,805.103,137.842,806.504z"/>
			<path style="fill:#010101;" d="M147.932,801.408l0.502,1.988c0.662-1.4,1.818-2.102,3.467-2.102c0.217,0,0.379,0.01,0.48,0.031
				v1.988c-0.17-0.014-0.428-0.02-0.768-0.02c-0.938,0-1.625,0.224-2.062,0.671c-0.438,0.448-0.656,1.147-0.656,2.097v7.271h-2.184
				v-11.925H147.932z"/>
			<path style="fill:#010101;" d="M156.123,812.893l-3.26-11.484h2.244l2.605,9.885l2.717-9.885h1.969l-3.732,12.643
				c-0.287,0.95-0.689,1.648-1.209,2.097s-1.197,0.672-2.031,0.672c-0.574,0-1.209-0.071-1.906-0.216v-1.507
				c0.629,0.123,1.203,0.185,1.723,0.185c0.471,0,0.855-0.159,1.152-0.477c0.299-0.318,0.584-0.955,0.857-1.912H156.123z"/>
			<path style="fill:#010101;" d="M176.457,813.333l-0.461-1.466c-0.629,1.086-1.705,1.63-3.23,1.63
				c-1.414,0-2.479-0.501-3.193-1.502s-1.072-2.565-1.072-4.691c0-1.784,0.381-3.241,1.145-4.373
				c0.762-1.132,1.844-1.697,3.244-1.697c1.148,0,2.01,0.345,2.584,1.036v-5.168h2.184v16.231H176.457z M175.545,807.898
				l-0.01-0.677c0-1.777-0.201-2.978-0.6-3.599c-0.4-0.623-0.971-0.934-1.709-0.934c-0.82,0-1.436,0.379-1.846,1.139
				c-0.41,0.758-0.615,1.896-0.615,3.414c0,1.593,0.199,2.785,0.596,3.578s0.99,1.189,1.783,1.189c0.773,0,1.367-0.287,1.779-0.861
				C175.338,810.574,175.545,809.491,175.545,807.898z"/>
			<path style="fill:#010101;" d="M183.143,813.333h-2.184v-10.5h-1.363v-1.425h3.547V813.333z M182.057,797.225
				c0.334,0,0.623,0.123,0.867,0.369c0.242,0.246,0.363,0.536,0.363,0.871c0,0.342-0.119,0.635-0.359,0.877
				c-0.238,0.242-0.529,0.363-0.871,0.363c-0.35,0-0.643-0.121-0.883-0.363c-0.238-0.242-0.357-0.535-0.357-0.877
				c0-0.349,0.119-0.643,0.357-0.882C181.414,797.344,181.707,797.225,182.057,797.225z"/>
			<path style="fill:#010101;" d="M192.434,811.61c-0.738,1.258-1.887,1.887-3.445,1.887c-1.086,0-1.932-0.306-2.537-0.918
				c-0.605-0.611-0.908-1.468-0.908-2.568c0-1.135,0.311-1.98,0.934-2.538c0.621-0.557,1.367-0.905,2.234-1.046
				c0.869-0.14,1.926-0.21,3.17-0.21v-1.404c0-1.389-0.742-2.082-2.227-2.082c-0.854,0-1.896,0.182-3.127,0.543v-1.527
				c1.238-0.342,2.414-0.513,3.527-0.513c1.312,0,2.309,0.316,2.99,0.948c0.68,0.633,1.02,1.564,1.02,2.795v8.356h-1.189
				L192.434,811.61z M191.881,807.52h-1.221c-0.979,0-1.711,0.207-2.199,0.62s-0.734,1.03-0.734,1.851
				c0,0.67,0.15,1.171,0.447,1.502c0.297,0.332,0.742,0.498,1.338,0.498c0.752,0,1.334-0.24,1.748-0.719s0.621-1.127,0.621-1.947
				V807.52z"/>
			<path style="fill:#010101;" d="M197.006,813.333v-16.231h2.186v16.231H197.006z"/>
			<path style="fill:#010101;" d="M206.48,813.497c-1.605,0-2.809-0.526-3.609-1.579c-0.799-1.053-1.199-2.632-1.199-4.737
				c0-1.832,0.416-3.281,1.246-4.348s2.018-1.6,3.562-1.6c1.559,0,2.75,0.526,3.574,1.579s1.236,2.522,1.236,4.409
				c0,1.941-0.385,3.473-1.154,4.594S208.148,813.497,206.48,813.497z M206.48,812.092c0.842,0,1.477-0.381,1.902-1.143
				c0.428-0.762,0.641-2.039,0.641-3.83c0-1.265-0.219-2.326-0.656-3.184s-1.066-1.287-1.887-1.287
				c-0.834,0-1.465,0.387-1.896,1.158c-0.43,0.773-0.646,1.877-0.646,3.312c0,1.613,0.217,2.846,0.646,3.696
				C205.016,811.667,205.646,812.092,206.48,812.092z"/>
			<path style="fill:#010101;" d="M220.633,802.854l0.461-1.445h1.221v11.361c0,1.285-0.398,2.281-1.195,2.988
				c-0.797,0.708-1.889,1.062-3.275,1.062c-1.137,0-2.424-0.181-3.867-0.544v-1.537c1.504,0.361,2.707,0.543,3.609,0.543
				c0.787,0,1.363-0.146,1.729-0.436c0.365-0.291,0.592-0.67,0.682-1.139c0.088-0.468,0.133-1.133,0.133-1.994v-0.308
				c-0.58,0.834-1.51,1.251-2.789,1.251c-1.359,0-2.381-0.47-3.061-1.41c-0.68-0.939-1.02-2.35-1.02-4.229
				c0-1.798,0.375-3.211,1.127-4.24c0.752-1.028,1.84-1.543,3.262-1.543C219.016,801.233,220.01,801.773,220.633,802.854z
				 M217.844,811.17c0.758,0,1.336-0.272,1.732-0.815c0.396-0.544,0.594-1.714,0.594-3.513c0-1.381-0.186-2.418-0.559-3.111
				s-0.928-1.041-1.666-1.041c-0.787,0-1.387,0.297-1.799,0.893c-0.414,0.594-0.621,1.682-0.621,3.26
				c0,1.443,0.193,2.525,0.58,3.246C216.49,810.809,217.07,811.17,217.844,811.17z"/>
		</g>
		<g id="duidialog-query-bottom-button-background-pressed">
			<path style="fill:#FFFFFF;" d="M208,1287v76c0,5.5-4.5,10-10,10h-68c-5.5,0-10-4.5-10-10v-76H208z"/>
			<path style="fill:#333333;" d="M208,1285v76c0,5.5-4.5,10-10,10h-68c-5.5,0-10-4.5-10-10v-76H208z"/>
			
				<linearGradient id="SVGID_1_" gradientUnits="userSpaceOnUse" x1="3984" y1="478.8979" x2="3984" y2="392.8979" gradientTransform="matrix(-1 0 0 -1 4148 1764.8984)">
				<stop  offset="0" style="stop-color:#B3B3B3"/>
				<stop  offset="1" style="stop-color:#4D4D4D"/>
			</linearGradient>
			<path style="fill:url(#SVGID_1_);" d="M208,1286v76c0,5.5-4.5,10-10,10h-68c-5.5,0-10-4.5-10-10v-76H208z"/>
		</g>
		<g id="duidialog-query-middle-button-background-pressed">
			<rect x="120" y="1190" style="fill:#FFFFFF;" width="88" height="86"/>
			<rect x="120" y="1188" style="fill:#333333;" width="88" height="86"/>
			<linearGradient id="SVGID_2_" gradientUnits="userSpaceOnUse" x1="164.0005" y1="1275" x2="164.0005" y2="1189">
				<stop  offset="0" style="stop-color:#B3B3B3"/>
				<stop  offset="1" style="stop-color:#4D4D4D"/>
			</linearGradient>
			<rect x="120" y="1189" style="fill:url(#SVGID_2_);" width="88" height="86"/>
		</g>
		<g id="duidialog-query-top-button-background-pressed">
			<rect x="120" y="1092" style="fill:#FFFFFF;" width="88" height="86"/>
			<rect x="120" y="1090" style="fill:#333333;" width="88" height="86"/>
			<linearGradient id="SVGID_3_" gradientUnits="userSpaceOnUse" x1="164.0005" y1="1177" x2="164.0005" y2="1091">
				<stop  offset="0" style="stop-color:#B3B3B3"/>
				<stop  offset="1" style="stop-color:#4D4D4D"/>
			</linearGradient>
			<rect x="120" y="1091" style="fill:url(#SVGID_3_);" width="88" height="86"/>
		</g>
		<g id="duidialog-query-bottom-button-background">
			<path style="fill:#808080;" d="M111,1287v76c0,5.5-4.5,10-10,10H33c-5.5,0-10-4.5-10-10v-76H111z"/>
			<path style="fill:#FFFFFF;" d="M111,1285v76c0,5.5-4.5,10-10,10H33c-5.5,0-10-4.5-10-10v-76H111z"/>
			
				<linearGradient id="SVGID_4_" gradientUnits="userSpaceOnUse" x1="4081" y1="478.8979" x2="4081" y2="392.8979" gradientTransform="matrix(-1 0 0 -1 4148 1764.8984)">
				<stop  offset="0" style="stop-color:#E1E1E1"/>
				<stop  offset="1" style="stop-color:#D2D3D3"/>
			</linearGradient>
			<path style="fill:url(#SVGID_4_);" d="M111,1286v76c0,5.5-4.5,10-10,10H33c-5.5,0-10-4.5-10-10v-76H111z"/>
		</g>
		<g id="duidialog-query-middle-button-background">
			<rect x="23" y="1190" style="fill:#808080;" width="88" height="86"/>
			<rect x="23" y="1188" style="fill:#FFFFFF;" width="88" height="86"/>
			<rect x="23" y="1189" style="fill:#E1E1E1;" width="88" height="86"/>
		</g>
		<g id="duidialog-query-top-button-background">
			<rect x="23" y="1092" style="fill:#808080;" width="88" height="86"/>
			<rect x="23" y="1090" style="fill:#FFFFFF;" width="88" height="86"/>
			<linearGradient id="SVGID_5_" gradientUnits="userSpaceOnUse" x1="67" y1="1177" x2="67" y2="1091">
				<stop  offset="0" style="stop-color:#E1E1E1"/>
				<stop  offset="1" style="stop-color:#F3F3F3"/>
			</linearGradient>
			<rect x="23" y="1091" style="fill:url(#SVGID_5_);" width="88" height="86"/>
		</g>
		<g id="duidialog-query-right-button-background-pressed">
			<g>
				<path style="fill:#FFFFFF;" d="M217,1080v-86h88v76c0,5.5-4.5,10-10,10H217z"/>
			</g>
			<g>
				<path style="fill:#333333;" d="M217,1078v-86h88v76c0,5.5-4.5,10-10,10H217z"/>
			</g>
			<g>
				<linearGradient id="SVGID_6_" gradientUnits="userSpaceOnUse" x1="261" y1="1079" x2="261" y2="993">
					<stop  offset="0" style="stop-color:#B3B3B3"/>
					<stop  offset="1" style="stop-color:#4D4D4D"/>
				</linearGradient>
				<path style="fill:url(#SVGID_6_);" d="M217,1079v-86h88v76c0,5.5-4.5,10-10,10H217z"/>
			</g>
			<rect x="217" y="993" style="opacity:0.2;fill:#FFFFFF;" width="1" height="86"/>
		</g>
		<g id="duidialog-query-center-button-background-pressed">
			<rect x="122" y="994" style="fill:#FFFFFF;" width="88" height="86"/>
			<rect x="122" y="992" style="fill:#333333;" width="88" height="86"/>
			<linearGradient id="SVGID_7_" gradientUnits="userSpaceOnUse" x1="166.0005" y1="1079" x2="166.0005" y2="993">
				<stop  offset="0" style="stop-color:#B3B3B3"/>
				<stop  offset="1" style="stop-color:#4D4D4D"/>
			</linearGradient>
			<rect x="122" y="993" style="fill:url(#SVGID_7_);" width="88" height="86"/>
			<rect x="209" y="993" style="opacity:0.2;fill:#010101;" width="1" height="86"/>
			<rect x="122" y="993" style="opacity:0.2;fill:#FFFFFF;" width="1" height="86"/>
		</g>
		<g id="duidialog-query-left-button-background-pressed">
			<g>
				<path style="fill:#FFFFFF;" d="M113,1080v-86H25v76c0,5.5,4.5,10,10,10H113z"/>
			</g>
			<g>
				<path style="fill:#333333;" d="M113,1078v-86H25v76c0,5.5,4.5,10,10,10H113z"/>
			</g>
			<g>
				<linearGradient id="SVGID_8_" gradientUnits="userSpaceOnUse" x1="69" y1="1079" x2="69" y2="993">
					<stop  offset="0" style="stop-color:#B3B3B3"/>
					<stop  offset="1" style="stop-color:#4D4D4D"/>
				</linearGradient>
				<path style="fill:url(#SVGID_8_);" d="M113,1079v-86H25v76c0,5.5,4.5,10,10,10H113z"/>
			</g>
			<rect x="112" y="993" style="opacity:0.2;fill:#010101;" width="1" height="86"/>
		</g>
		<g id="duidialog-query-right-button-background">
			<g>
				<path style="fill:#808080;" d="M217,981v-86h88v76c0,5.5-4.5,10-10,10H217z"/>
			</g>
			<g>
				<path style="fill:#FFFFFF;" d="M217,979v-86h88v76c0,5.5-4.5,10-10,10H217z"/>
			</g>
			<g>
				<linearGradient id="SVGID_9_" gradientUnits="userSpaceOnUse" x1="261" y1="980" x2="261" y2="894">
					<stop  offset="0" style="stop-color:#D2D3D3"/>
					<stop  offset="1" style="stop-color:#F2F2F2"/>
				</linearGradient>
				<path style="fill:url(#SVGID_9_);" d="M217,980v-86h88v76c0,5.5-4.5,10-10,10H217z"/>
			</g>
			<rect x="217" y="894" style="opacity:0.2;fill:#FFFFFF;" width="1" height="86"/>
		</g>
		<g id="duidialog-query-center-button-background">
			<rect x="122" y="895" style="fill:#808080;" width="88" height="86"/>
			<rect x="122" y="893" style="fill:#FFFFFF;" width="88" height="86"/>
			<linearGradient id="SVGID_10_" gradientUnits="userSpaceOnUse" x1="166.0005" y1="980" x2="166.0005" y2="894">
				<stop  offset="0" style="stop-color:#D2D3D3"/>
				<stop  offset="1" style="stop-color:#F2F2F2"/>
			</linearGradient>
			<rect x="122" y="894" style="fill:url(#SVGID_10_);" width="88" height="86"/>
			<rect x="209" y="894" style="opacity:0.2;fill:#010101;" width="1" height="86"/>
			<rect x="122" y="894" style="opacity:0.2;fill:#FFFFFF;" width="1" height="86"/>
		</g>
		<g id="duidialog-query-left-button-background">
			<g>
				<path style="fill:#808080;" d="M113,981v-86H25v76c0,5.5,4.5,10,10,10H113z"/>
			</g>
			<g>
				<path style="fill:#FFFFFF;" d="M113,979v-86H25v76c0,5.5,4.5,10,10,10H113z"/>
			</g>
			<g>
				<linearGradient id="SVGID_11_" gradientUnits="userSpaceOnUse" x1="69" y1="980" x2="69" y2="894">
					<stop  offset="0" style="stop-color:#D2D3D3"/>
					<stop  offset="1" style="stop-color:#F2F2F2"/>
				</linearGradient>
				<path style="fill:url(#SVGID_11_);" d="M113,980v-86H25v76c0,5.5,4.5,10,10,10H113z"/>
			</g>
			<rect x="112" y="894" style="opacity:0.2;fill:#010101;" width="1" height="86"/>
		</g>
		<g id="duidialog-query-background">
			<path style="fill:#FFFFFF;" d="M221,885v-42c0-5.5-4.5-10-10-10h-86c-5.5,0-10,4.5-10,10v42H221z"/>
			<path style="fill:#F2F2F2;" d="M221,886v-42c0-5.5-4.5-10-10-10h-86c-5.5,0-10,4.5-10,10v42H221z"/>
		</g>
		<g id="duidialog-bottom-button-background-pressed">
			<rect x="172" y="683" style="fill:#333333;" width="88" height="86"/>
			<rect x="172" y="685" style="fill:#FFFFFF;" width="88" height="86"/>
			<linearGradient id="SVGID_12_" gradientUnits="userSpaceOnUse" x1="216" y1="770" x2="216" y2="684.0005">
				<stop  offset="0" style="stop-color:#B3B3B3"/>
				<stop  offset="1" style="stop-color:#4D4D4D"/>
			</linearGradient>
			<rect x="172" y="684" style="fill:url(#SVGID_12_);" width="88" height="86"/>
		</g>
		<g id="duidialog-bottom-button-background">
			<rect x="74" y="685" style="fill:#808080;" width="88" height="86"/>
			<rect x="74" y="683" style="fill:#FFFFFF;" width="88" height="86"/>
			<linearGradient id="SVGID_13_" gradientUnits="userSpaceOnUse" x1="118" y1="770" x2="118" y2="684.0005">
				<stop  offset="0" style="stop-color:#D2D3D3"/>
				<stop  offset="1" style="stop-color:#E1E1E1"/>
			</linearGradient>
			<rect x="74" y="684" style="fill:url(#SVGID_13_);" width="88" height="86"/>
		</g>
		<g id="duidialog-middle-button-background-pressed">
			<rect x="172" y="585" style="fill:#333333;" width="88" height="86"/>
			<rect x="172" y="587" style="fill:#FFFFFF;" width="88" height="86"/>
			<linearGradient id="SVGID_14_" gradientUnits="userSpaceOnUse" x1="216" y1="672" x2="216" y2="586">
				<stop  offset="0" style="stop-color:#B3B3B3"/>
				<stop  offset="1" style="stop-color:#4D4D4D"/>
			</linearGradient>
			<rect x="172" y="586" style="fill:url(#SVGID_14_);" width="88" height="86"/>
		</g>
		<g id="duidialog-middle-button-background">
			<rect x="74" y="587" style="fill:#808080;" width="88" height="86"/>
			<rect x="74" y="585" style="fill:#FFFFFF;" width="88" height="86"/>
			<rect x="74" y="586" style="fill:#E1E1E1;" width="88" height="86"/>
		</g>
		<g id="duidialog-top-button-background-pressed">
			<rect x="172" y="487" style="fill:#333333;" width="88" height="86"/>
			<rect x="172" y="489" style="fill:#FFFFFF;" width="88" height="86"/>
			<linearGradient id="SVGID_15_" gradientUnits="userSpaceOnUse" x1="216" y1="574" x2="216" y2="488">
				<stop  offset="0" style="stop-color:#B3B3B3"/>
				<stop  offset="1" style="stop-color:#4D4D4D"/>
			</linearGradient>
			<rect x="172" y="488" style="fill:url(#SVGID_15_);" width="88" height="86"/>
		</g>
		<g id="duidialog-top-button-background">
			<rect x="74" y="489" style="fill:#808080;" width="88" height="86"/>
			<rect x="74" y="487" style="fill:#FFFFFF;" width="88" height="86"/>
			<linearGradient id="SVGID_16_" gradientUnits="userSpaceOnUse" x1="118" y1="574" x2="118" y2="488">
				<stop  offset="0" style="stop-color:#E1E1E1"/>
				<stop  offset="1" style="stop-color:#F3F3F3"/>
			</linearGradient>
			<rect x="74" y="488" style="fill:url(#SVGID_16_);" width="88" height="86"/>
		</g>
		<g id="duidialog-single-button-background-pressed">
			<rect x="172" y="369" style="fill:#333333;" width="88" height="86"/>
			<rect x="172" y="371" style="fill:#FFFFFF;" width="88" height="86"/>
			<linearGradient id="SVGID_17_" gradientUnits="userSpaceOnUse" x1="216" y1="456" x2="216" y2="370">
				<stop  offset="0" style="stop-color:#B3B3B3"/>
				<stop  offset="1" style="stop-color:#4D4D4D"/>
			</linearGradient>
			<rect x="172" y="370" style="fill:url(#SVGID_17_);" width="88" height="86"/>
		</g>
		<g id="duidialog-single-button-background">
			<rect x="74" y="369" style="fill:#999999;" width="88" height="88"/>
			<linearGradient id="SVGID_18_" gradientUnits="userSpaceOnUse" x1="118" y1="455" x2="118" y2="371">
				<stop  offset="0" style="stop-color:#B3B3B3"/>
				<stop  offset="1" style="stop-color:#FCFCFC"/>
			</linearGradient>
			<rect x="76" y="371" style="fill:url(#SVGID_18_);" width="84" height="84"/>
			<rect x="74" y="371" style="fill:#808080;" width="88" height="86"/>
			<rect x="74" y="369" style="fill:#FFFFFF;" width="88" height="86"/>
			<linearGradient id="SVGID_19_" gradientUnits="userSpaceOnUse" x1="118" y1="456" x2="118" y2="370">
				<stop  offset="0" style="stop-color:#D2D3D3"/>
				<stop  offset="1" style="stop-color:#F2F2F2"/>
			</linearGradient>
			<rect x="74" y="370" style="fill:url(#SVGID_19_);" width="88" height="86"/>
		</g>
		<g id="duidialog-right-button-background-pressed">
			<rect x="221" y="271" style="fill:#333333;" width="88" height="86"/>
			<rect x="221" y="273" style="fill:#FFFFFF;" width="88" height="86"/>
			<linearGradient id="SVGID_20_" gradientUnits="userSpaceOnUse" x1="265" y1="358" x2="265" y2="272">
				<stop  offset="0" style="stop-color:#B3B3B3"/>
				<stop  offset="1" style="stop-color:#4D4D4D"/>
			</linearGradient>
			<rect x="221" y="272" style="fill:url(#SVGID_20_);" width="88" height="86"/>
			<rect x="308" y="272" style="opacity:0.2;fill:#010101;" width="1" height="86"/>
			<rect x="221" y="272" style="opacity:0.2;fill:#FFFFFF;" width="1" height="86"/>
		</g>
		<g id="duidialog-center-button-background-pressed">
			<rect x="123" y="271" style="fill:#333333;" width="88" height="86"/>
			<rect x="123" y="273" style="fill:#FFFFFF;" width="88" height="86"/>
			<linearGradient id="SVGID_21_" gradientUnits="userSpaceOnUse" x1="167.0005" y1="358" x2="167.0005" y2="272">
				<stop  offset="0" style="stop-color:#B3B3B3"/>
				<stop  offset="1" style="stop-color:#4D4D4D"/>
			</linearGradient>
			<rect x="123" y="272" style="fill:url(#SVGID_21_);" width="88" height="86"/>
			<rect x="210" y="272" style="opacity:0.2;fill:#010101;" width="1" height="86"/>
			<rect x="123" y="272" style="opacity:0.2;fill:#FFFFFF;" width="1" height="86"/>
		</g>
		<g id="duidialog-left-button-background-pressed">
			<rect x="25" y="271" style="fill:#010101;" width="88" height="86"/>
			<rect x="25" y="273" style="fill:#FFFFFF;" width="88" height="86"/>
			<linearGradient id="SVGID_22_" gradientUnits="userSpaceOnUse" x1="69" y1="358" x2="69" y2="272">
				<stop  offset="0" style="stop-color:#B3B3B3"/>
				<stop  offset="1" style="stop-color:#4D4D4D"/>
			</linearGradient>
			<rect x="25" y="272" style="fill:url(#SVGID_22_);" width="88" height="86"/>
			<rect x="112" y="272" style="opacity:0.2;fill:#010101;" width="1" height="86"/>
		</g>
		<g id="duidialog-right-button-background">
			<rect x="221" y="175" style="fill:#808080;" width="88" height="86"/>
			<rect x="221" y="173" style="fill:#FFFFFF;" width="88" height="86"/>
			<linearGradient id="SVGID_23_" gradientUnits="userSpaceOnUse" x1="265" y1="260" x2="265" y2="174">
				<stop  offset="0" style="stop-color:#D2D3D3"/>
				<stop  offset="1" style="stop-color:#F2F2F2"/>
			</linearGradient>
			<rect x="221" y="174" style="fill:url(#SVGID_23_);" width="88" height="86"/>
			<rect x="221" y="174" style="opacity:0.2;fill:#FFFFFF;" width="1" height="86"/>
		</g>
		<g id="duidialog-center-button-background">
			<rect x="123" y="175" style="fill:#808080;" width="88" height="86"/>
			<rect x="123" y="173" style="fill:#FFFFFF;" width="88" height="86"/>
			<linearGradient id="SVGID_24_" gradientUnits="userSpaceOnUse" x1="167.0005" y1="260" x2="167.0005" y2="174">
				<stop  offset="0" style="stop-color:#D2D3D3"/>
				<stop  offset="1" style="stop-color:#F2F2F2"/>
			</linearGradient>
			<rect x="123" y="174" style="fill:url(#SVGID_24_);" width="88" height="86"/>
			<rect x="210" y="174" style="opacity:0.2;fill:#010101;" width="1" height="86"/>
			<rect x="123" y="174" style="opacity:0.2;fill:#FFFFFF;" width="1" height="86"/>
		</g>
		<g id="duidialog-left-button-background">
			<rect x="25" y="175" style="fill:#808080;" width="88" height="86"/>
			<rect x="25" y="173" style="fill:#FFFFFF;" width="88" height="86"/>
			<linearGradient id="SVGID_25_" gradientUnits="userSpaceOnUse" x1="69" y1="260" x2="69" y2="174">
				<stop  offset="0" style="stop-color:#D2D3D3"/>
				<stop  offset="1" style="stop-color:#F2F2F2"/>
			</linearGradient>
			<rect x="25" y="174" style="fill:url(#SVGID_25_);" width="88" height="86"/>
			<rect x="112" y="174" style="opacity:0.2;fill:#010101;" width="1" height="86"/>
		</g>
		<g id="duidialog-background">
			<g>
				<rect x="114" y="111" style="fill:#F2F2F2;" width="106" height="52"/>
			</g>
		</g>
		<g id="duidialog-header-background">
			<path style="fill:#CCCCCC;" d="M114,100V58c0-5.5,4.5-10,10-10h86c5.5,0,10,4.5,10,10v42H114z"/>
			<linearGradient id="SVGID_26_" gradientUnits="userSpaceOnUse" x1="167.0005" y1="101" x2="167.0005" y2="49">
				<stop  offset="0" style="stop-color:#000000"/>
				<stop  offset="1" style="stop-color:#333333"/>
			</linearGradient>
			<path style="fill:url(#SVGID_26_);" d="M114,101V59c0-5.5,4.5-10,10-10h86c5.5,0,10,4.5,10,10v42H114z"/>
		</g>
	</g>
</g>
</svg>
