<?xml version="1.0" encoding="iso-8859-1"?>
<!-- Generator: Adobe Illustrator 14.0.0, SVG Export Plug-In . SVG Version: 6.00 Build 43363)  -->
<!DOCTYPE svg PUBLIC "-//W3C//DTD SVG 1.1//EN" "http://www.w3.org/Graphics/SVG/1.1/DTD/svg11.dtd">
<svg version="1.1" xmlns="http://www.w3.org/2000/svg" xmlns:xlink="http://www.w3.org/1999/xlink" x="0px" y="0px" width="286px"
	 height="1325px" viewBox="0 0 286 1325" style="enable-background:new 0 0 286 1325;" xml:space="preserve">
<g id="duidialog-layer">
</g>
<g id="dui-theme-rd">
	<g id="duidialog">
		<g id="duidialog-query-bottom-button-background-pressed">
			<path style="fill:#FFFFFF;" d="M97,1237v76c0,6.6,5.4,12,12,12h64c6.6,0,12-5.4,12-12v-76H97z"/>
			<g>
				<linearGradient id="SVGID_1_" gradientUnits="userSpaceOnUse" x1="141.0005" y1="1322" x2="141.0005" y2="1238">
					<stop  offset="0" style="stop-color:#C9C9C9"/>
					<stop  offset="0.4115" style="stop-color:#C8C8C8"/>
					<stop  offset="0.5598" style="stop-color:#C1C1C1"/>
					<stop  offset="0.6654" style="stop-color:#B5B5B5"/>
					<stop  offset="0.7509" style="stop-color:#A4A4A4"/>
					<stop  offset="0.824" style="stop-color:#8E8E8E"/>
					<stop  offset="0.8888" style="stop-color:#737373"/>
					<stop  offset="0.946" style="stop-color:#535353"/>
					<stop  offset="0.9983" style="stop-color:#2F2F2F"/>
					<stop  offset="1" style="stop-color:#2E2E2E"/>
				</linearGradient>
				<path style="fill:url(#SVGID_1_);" d="M109,1322c-4.962,0-9-4.037-9-9v-75h82v75c0,4.963-4.037,9-9,9H109z"/>
				<path style="fill:#999999;" d="M181,1239v74c0,4.411-3.589,8-8,8h-64c-4.411,0-8-3.589-8-8v-74H181 M183,1237H99v76
					c0,5.5,4.5,10,10,10h64c5.5,0,10-4.5,10-10V1237L183,1237z"/>
			</g>
		</g>
		<g id="duidialog-query-middle-button-background-pressed">
			<g>
				<rect x="97" y="1139" style="fill:#FFFFFF;" width="88" height="88"/>
			</g>
			<g>
				<linearGradient id="SVGID_2_" gradientUnits="userSpaceOnUse" x1="141.0005" y1="1226" x2="141.0005" y2="1140">
					<stop  offset="0" style="stop-color:#C9C9C9"/>
					<stop  offset="0.4115" style="stop-color:#C8C8C8"/>
					<stop  offset="0.5598" style="stop-color:#C1C1C1"/>
					<stop  offset="0.6654" style="stop-color:#B5B5B5"/>
					<stop  offset="0.7509" style="stop-color:#A4A4A4"/>
					<stop  offset="0.824" style="stop-color:#8E8E8E"/>
					<stop  offset="0.8888" style="stop-color:#737373"/>
					<stop  offset="0.946" style="stop-color:#535353"/>
					<stop  offset="0.9983" style="stop-color:#2F2F2F"/>
					<stop  offset="1" style="stop-color:#2E2E2E"/>
				</linearGradient>
				<rect x="100" y="1140" style="fill:url(#SVGID_2_);" width="82" height="86"/>
				<path style="fill:#999999;" d="M181,1141v84h-80v-84H181 M183,1139H99v88h84V1139L183,1139z"/>
			</g>
		</g>
		<g id="duidialog-query-top-button-background-pressed">
			<g>
				<rect x="97" y="1041" style="fill:#FFFFFF;" width="88" height="88"/>
			</g>
			<g>
				<linearGradient id="SVGID_3_" gradientUnits="userSpaceOnUse" x1="141.0005" y1="1128" x2="141.0005" y2="1042">
					<stop  offset="0" style="stop-color:#C9C9C9"/>
					<stop  offset="0.4115" style="stop-color:#C8C8C8"/>
					<stop  offset="0.5598" style="stop-color:#C1C1C1"/>
					<stop  offset="0.6654" style="stop-color:#B5B5B5"/>
					<stop  offset="0.7509" style="stop-color:#A4A4A4"/>
					<stop  offset="0.824" style="stop-color:#8E8E8E"/>
					<stop  offset="0.8888" style="stop-color:#737373"/>
					<stop  offset="0.946" style="stop-color:#535353"/>
					<stop  offset="0.9983" style="stop-color:#2F2F2F"/>
					<stop  offset="1" style="stop-color:#2E2E2E"/>
				</linearGradient>
				<rect x="100" y="1042" style="fill:url(#SVGID_3_);" width="82" height="86"/>
				<path style="fill:#999999;" d="M181,1043v84h-80v-84H181 M183,1041H99v88h84V1041L183,1041z"/>
			</g>
		</g>
		<g id="duidialog-query-bottom-button-background">
			<path style="fill:#FFFFFF;" d="M0,1237v76c0,6.6,5.4,12,12,12h64c6.6,0,12-5.4,12-12v-76H0z"/>
			<g>
				<path style="fill:#999999;" d="M2,1237v76c0,5.5,4.5,10,10,10h64c5.5,0,10-4.5,10-10v-76H2z"/>
			</g>
			<linearGradient id="SVGID_4_" gradientUnits="userSpaceOnUse" x1="44" y1="1321" x2="44" y2="1239">
				<stop  offset="0" style="stop-color:#B3B3B3"/>
				<stop  offset="1" style="stop-color:#FCFCFC"/>
			</linearGradient>
			<path style="fill:url(#SVGID_4_);" d="M4,1239v74c0,4.4,3.6,8,8,8h64c4.4,0,8-3.6,8-8v-74H4z"/>
		</g>
		<g id="duidialog-query-middle-button-background">
			<g>
				<rect y="1139" style="fill:#FFFFFF;" width="88" height="88"/>
			</g>
			<g>
				<rect x="2" y="1139" style="fill:#999999;" width="84" height="88"/>
			</g>
			<g>
				<linearGradient id="SVGID_5_" gradientUnits="userSpaceOnUse" x1="44" y1="1225" x2="44" y2="1141">
					<stop  offset="0" style="stop-color:#B3B3B3"/>
					<stop  offset="1" style="stop-color:#FCFCFC"/>
				</linearGradient>
				<rect x="4" y="1141" style="fill:url(#SVGID_5_);" width="80" height="84"/>
			</g>
		</g>
		<g id="duidialog-query-top-button-background">
			<g>
				<rect y="1041" style="fill:#FFFFFF;" width="88" height="88"/>
			</g>
			<g>
				<rect x="2" y="1041" style="fill:#999999;" width="84" height="88"/>
			</g>
			<g>
				<linearGradient id="SVGID_6_" gradientUnits="userSpaceOnUse" x1="44" y1="1127" x2="44" y2="1043">
					<stop  offset="0" style="stop-color:#B3B3B3"/>
					<stop  offset="1" style="stop-color:#FCFCFC"/>
				</linearGradient>
				<rect x="4" y="1043" style="fill:url(#SVGID_6_);" width="80" height="84"/>
			</g>
		</g>
		<g id="duidialog-query-right-button-background-pressed">
			<path style="fill:#FFFFFF;" d="M196,943h88v76c0,6.6-5.4,12-12,12h-76V943z"/>
			<g>
				<linearGradient id="SVGID_7_" gradientUnits="userSpaceOnUse" x1="239" y1="1028" x2="239" y2="944">
					<stop  offset="0" style="stop-color:#C9C9C9"/>
					<stop  offset="0.4115" style="stop-color:#C8C8C8"/>
					<stop  offset="0.5598" style="stop-color:#C1C1C1"/>
					<stop  offset="0.6654" style="stop-color:#B5B5B5"/>
					<stop  offset="0.7509" style="stop-color:#A4A4A4"/>
					<stop  offset="0.824" style="stop-color:#8E8E8E"/>
					<stop  offset="0.8888" style="stop-color:#737373"/>
					<stop  offset="0.946" style="stop-color:#535353"/>
					<stop  offset="0.9983" style="stop-color:#2F2F2F"/>
					<stop  offset="1" style="stop-color:#2E2E2E"/>
				</linearGradient>
				<path style="fill:url(#SVGID_7_);" d="M197,1028v-84h84v75c0,4.963-4.037,9-9,9H197z"/>
				<path style="fill:#999999;" d="M280,945v74c0,4.411-3.589,8-8,8h-74v-82H280 M282,943h-86v86h76c5.5,0,10-4.5,10-10V943L282,943
					z"/>
			</g>
		</g>
		<g id="duidialog-query-center-button-background-pressed">
			<rect x="98" y="943" style="fill:#FFFFFF;" width="88" height="88"/>
			<g>
				<linearGradient id="SVGID_8_" gradientUnits="userSpaceOnUse" x1="142.0005" y1="1028" x2="142.0005" y2="944">
					<stop  offset="0" style="stop-color:#C9C9C9"/>
					<stop  offset="0.4115" style="stop-color:#C8C8C8"/>
					<stop  offset="0.5598" style="stop-color:#C1C1C1"/>
					<stop  offset="0.6654" style="stop-color:#B5B5B5"/>
					<stop  offset="0.7509" style="stop-color:#A4A4A4"/>
					<stop  offset="0.824" style="stop-color:#8E8E8E"/>
					<stop  offset="0.8888" style="stop-color:#737373"/>
					<stop  offset="0.946" style="stop-color:#535353"/>
					<stop  offset="0.9983" style="stop-color:#2F2F2F"/>
					<stop  offset="1" style="stop-color:#2E2E2E"/>
				</linearGradient>
				<rect x="99" y="944" style="fill:url(#SVGID_8_);" width="86" height="84"/>
				<path style="fill:#999999;" d="M184,945v82h-84v-82H184 M186,943H98v86h88V943L186,943z"/>
			</g>
		</g>
		<g id="duidialog-query-left-button-background-pressed">
			<path style="fill:#FFFFFF;" d="M88,943H0v76c0,6.6,5.4,12,12,12h76V943z"/>
			<g>
				<linearGradient id="SVGID_9_" gradientUnits="userSpaceOnUse" x1="45" y1="1028" x2="45" y2="944">
					<stop  offset="0" style="stop-color:#C9C9C9"/>
					<stop  offset="0.4115" style="stop-color:#C8C8C8"/>
					<stop  offset="0.5598" style="stop-color:#C1C1C1"/>
					<stop  offset="0.6654" style="stop-color:#B5B5B5"/>
					<stop  offset="0.7509" style="stop-color:#A4A4A4"/>
					<stop  offset="0.824" style="stop-color:#8E8E8E"/>
					<stop  offset="0.8888" style="stop-color:#737373"/>
					<stop  offset="0.946" style="stop-color:#535353"/>
					<stop  offset="0.9983" style="stop-color:#2F2F2F"/>
					<stop  offset="1" style="stop-color:#2E2E2E"/>
				</linearGradient>
				<path style="fill:url(#SVGID_9_);" d="M12,1028c-4.962,0-9-4.037-9-9v-75h84v84H12z"/>
				<path style="fill:#999999;" d="M86,945v82H12c-4.411,0-8-3.589-8-8v-74H86 M88,943H2v76c0,5.5,4.5,10,10,10h76V943L88,943z"/>
			</g>
		</g>
		<g id="duidialog-query-right-button-background">
			<path style="fill:#FFFFFF;" d="M196,845h88v76c0,6.6-5.4,12-12,12h-76V845z"/>
			<g>
				<path style="fill:#999999;" d="M196,931v-86h86v76c0,5.5-4.5,10-10,10H196z"/>
			</g>
			
				<linearGradient id="SVGID_10_" gradientUnits="userSpaceOnUse" x1="3853" y1="929" x2="3853" y2="847.0742" gradientTransform="matrix(-1 0 0 1 4092 0)">
				<stop  offset="0" style="stop-color:#B3B3B3"/>
				<stop  offset="1" style="stop-color:#FCFCFC"/>
			</linearGradient>
			<path style="fill:url(#SVGID_10_);" d="M198,847.074h82V921c0,4.4-3.6,8-8,8h-74V847.074z"/>
		</g>
		<g id="duidialog-query-center-button-background">
			<rect x="98" y="845" style="fill:#FFFFFF;" width="88" height="88"/>
			<rect x="98" y="845" style="fill:#999999;" width="88" height="86"/>
			<linearGradient id="SVGID_11_" gradientUnits="userSpaceOnUse" x1="142.0005" y1="929" x2="142.0005" y2="847">
				<stop  offset="0" style="stop-color:#B3B3B3"/>
				<stop  offset="1" style="stop-color:#FCFCFC"/>
			</linearGradient>
			<rect x="100" y="847" style="fill:url(#SVGID_11_);" width="84" height="82"/>
			<rect x="184" y="847" style="fill:#FFFFFF;" width="2" height="82"/>
		</g>
		<g id="duidialog-query-left-button-background">
			<path style="fill:#FFFFFF;" d="M88,845H0v76c0,6.6,5.4,12,12,12h76V845z"/>
			<g>
				<path style="fill:#999999;" d="M88,931v-86H2v76c0,5.5,4.5,10,10,10H88z"/>
			</g>
			<linearGradient id="SVGID_12_" gradientUnits="userSpaceOnUse" x1="45" y1="929" x2="45" y2="847.0742">
				<stop  offset="0" style="stop-color:#B3B3B3"/>
				<stop  offset="1" style="stop-color:#FCFCFC"/>
			</linearGradient>
			<path style="fill:url(#SVGID_12_);" d="M86,847.074H4V921c0,4.4,3.6,8,8,8h74V847.074z"/>
			<rect x="86" y="847" style="fill:#FFFFFF;" width="2" height="82"/>
		</g>
		<g id="duidialog-query-background">
			<path style="fill:#FFFFFF;" d="M194,835.551v-40c0-6.6-5.4-12-12-12h-80c-6.6,0-12,5.4-12,12v40H194z"/>
			<path style="fill:#E6E6E6;" d="M192,835v-40c0-5.5-4.5-10-10-10h-80c-5.5,0-10,4.5-10,10v40H192z"/>
		</g>
		<g id="duidialog-bottom-button-background-pressed">
			<rect x="148" y="634" style="fill:#999999;" width="88" height="88"/>
			<linearGradient id="SVGID_13_" gradientUnits="userSpaceOnUse" x1="192" y1="719" x2="192" y2="634.0005">
				<stop  offset="0" style="stop-color:#C9C9C9"/>
				<stop  offset="0.4115" style="stop-color:#C8C8C8"/>
				<stop  offset="0.5598" style="stop-color:#C1C1C1"/>
				<stop  offset="0.6654" style="stop-color:#B5B5B5"/>
				<stop  offset="0.7509" style="stop-color:#A4A4A4"/>
				<stop  offset="0.824" style="stop-color:#8E8E8E"/>
				<stop  offset="0.8888" style="stop-color:#737373"/>
				<stop  offset="0.946" style="stop-color:#535353"/>
				<stop  offset="0.9983" style="stop-color:#2F2F2F"/>
				<stop  offset="1" style="stop-color:#2E2E2E"/>
			</linearGradient>
			<rect x="150" y="634" style="fill:url(#SVGID_13_);" width="84" height="85"/>
		</g>
		<g id="duidialog-bottom-button-background">
			<rect x="50" y="634" style="fill:#999999;" width="88" height="88"/>
			<linearGradient id="SVGID_14_" gradientUnits="userSpaceOnUse" x1="94" y1="720" x2="94" y2="634.0005">
				<stop  offset="0" style="stop-color:#B3B3B3"/>
				<stop  offset="1" style="stop-color:#FCFCFC"/>
			</linearGradient>
			<rect x="52" y="634" style="fill:url(#SVGID_14_);" width="84" height="86"/>
		</g>
		<g id="duidialog-middle-button-background-pressed">
			<rect x="148" y="536" style="fill:#999999;" width="88" height="88"/>
			<linearGradient id="SVGID_15_" gradientUnits="userSpaceOnUse" x1="192" y1="624" x2="192" y2="536">
				<stop  offset="0" style="stop-color:#C9C9C9"/>
				<stop  offset="0.4115" style="stop-color:#C8C8C8"/>
				<stop  offset="0.5598" style="stop-color:#C1C1C1"/>
				<stop  offset="0.6654" style="stop-color:#B5B5B5"/>
				<stop  offset="0.7509" style="stop-color:#A4A4A4"/>
				<stop  offset="0.824" style="stop-color:#8E8E8E"/>
				<stop  offset="0.8888" style="stop-color:#737373"/>
				<stop  offset="0.946" style="stop-color:#535353"/>
				<stop  offset="0.9983" style="stop-color:#2F2F2F"/>
				<stop  offset="1" style="stop-color:#2E2E2E"/>
			</linearGradient>
			<rect x="150" y="536" style="fill:url(#SVGID_15_);" width="84" height="88"/>
		</g>
		<g id="duidialog-middle-button-background">
			<rect x="50" y="536" style="fill:#999999;" width="88" height="88"/>
			<linearGradient id="SVGID_16_" gradientUnits="userSpaceOnUse" x1="94" y1="624" x2="94" y2="536">
				<stop  offset="0" style="stop-color:#B3B3B3"/>
				<stop  offset="1" style="stop-color:#FCFCFC"/>
			</linearGradient>
			<rect x="52" y="536" style="fill:url(#SVGID_16_);" width="84" height="88"/>
		</g>
		<g id="duidialog-top-button-background-pressed">
			<rect x="148" y="438" style="fill:#999999;" width="88" height="88"/>
			<linearGradient id="SVGID_17_" gradientUnits="userSpaceOnUse" x1="192" y1="526" x2="192" y2="440">
				<stop  offset="0" style="stop-color:#C9C9C9"/>
				<stop  offset="0.4115" style="stop-color:#C8C8C8"/>
				<stop  offset="0.5598" style="stop-color:#C1C1C1"/>
				<stop  offset="0.6654" style="stop-color:#B5B5B5"/>
				<stop  offset="0.7509" style="stop-color:#A4A4A4"/>
				<stop  offset="0.824" style="stop-color:#8E8E8E"/>
				<stop  offset="0.8888" style="stop-color:#737373"/>
				<stop  offset="0.946" style="stop-color:#535353"/>
				<stop  offset="0.9983" style="stop-color:#2F2F2F"/>
				<stop  offset="1" style="stop-color:#2E2E2E"/>
			</linearGradient>
			<rect x="150" y="440" style="fill:url(#SVGID_17_);" width="84" height="86"/>
		</g>
		<g id="duidialog-top-button-background">
			<rect x="50" y="438" style="fill:#999999;" width="88" height="88"/>
			<linearGradient id="SVGID_18_" gradientUnits="userSpaceOnUse" x1="94" y1="526" x2="94" y2="440">
				<stop  offset="0" style="stop-color:#B3B3B3"/>
				<stop  offset="1" style="stop-color:#FCFCFC"/>
			</linearGradient>
			<rect x="52" y="440" style="fill:url(#SVGID_18_);" width="84" height="86"/>
		</g>
		<g id="duidialog-single-button-background-pressed">
			<rect x="149" y="320" style="fill:#999999;" width="88" height="88"/>
			<linearGradient id="SVGID_19_" gradientUnits="userSpaceOnUse" x1="193" y1="406" x2="193" y2="322">
				<stop  offset="0" style="stop-color:#C9C9C9"/>
				<stop  offset="0.4115" style="stop-color:#C8C8C8"/>
				<stop  offset="0.5598" style="stop-color:#C1C1C1"/>
				<stop  offset="0.6654" style="stop-color:#B5B5B5"/>
				<stop  offset="0.7509" style="stop-color:#A4A4A4"/>
				<stop  offset="0.824" style="stop-color:#8E8E8E"/>
				<stop  offset="0.8888" style="stop-color:#737373"/>
				<stop  offset="0.946" style="stop-color:#535353"/>
				<stop  offset="0.9983" style="stop-color:#2F2F2F"/>
				<stop  offset="1" style="stop-color:#2E2E2E"/>
			</linearGradient>
			<rect x="151" y="322" style="fill:url(#SVGID_19_);" width="84" height="84"/>
		</g>
		<g id="duidialog-single-button-background">
			<rect x="51" y="320" style="fill:#999999;" width="88" height="88"/>
			<linearGradient id="SVGID_20_" gradientUnits="userSpaceOnUse" x1="95" y1="406" x2="95" y2="322">
				<stop  offset="0" style="stop-color:#B3B3B3"/>
				<stop  offset="1" style="stop-color:#FCFCFC"/>
			</linearGradient>
			<rect x="53" y="322" style="fill:url(#SVGID_20_);" width="84" height="84"/>
		</g>
		<g id="duidialog-right-button-background-pressed">
			<rect x="198" y="222" style="fill:#999999;" width="88" height="88"/>
			<linearGradient id="SVGID_21_" gradientUnits="userSpaceOnUse" x1="241" y1="308" x2="241" y2="224">
				<stop  offset="0" style="stop-color:#C9C9C9"/>
				<stop  offset="0.4115" style="stop-color:#C8C8C8"/>
				<stop  offset="0.5598" style="stop-color:#C1C1C1"/>
				<stop  offset="0.6654" style="stop-color:#B5B5B5"/>
				<stop  offset="0.7509" style="stop-color:#A4A4A4"/>
				<stop  offset="0.824" style="stop-color:#8E8E8E"/>
				<stop  offset="0.8888" style="stop-color:#737373"/>
				<stop  offset="0.946" style="stop-color:#535353"/>
				<stop  offset="0.9983" style="stop-color:#2F2F2F"/>
				<stop  offset="1" style="stop-color:#2E2E2E"/>
			</linearGradient>
			<rect x="198" y="224" style="fill:url(#SVGID_21_);" width="86" height="84"/>
		</g>
		<g id="duidialog-center-button-background-pressed">
			<rect x="100" y="222" style="fill:#999999;" width="88" height="88"/>
			<linearGradient id="SVGID_22_" gradientUnits="userSpaceOnUse" x1="144" y1="308" x2="144" y2="224">
				<stop  offset="0" style="stop-color:#C9C9C9"/>
				<stop  offset="0.4115" style="stop-color:#C8C8C8"/>
				<stop  offset="0.5598" style="stop-color:#C1C1C1"/>
				<stop  offset="0.6654" style="stop-color:#B5B5B5"/>
				<stop  offset="0.7509" style="stop-color:#A4A4A4"/>
				<stop  offset="0.824" style="stop-color:#8E8E8E"/>
				<stop  offset="0.8888" style="stop-color:#737373"/>
				<stop  offset="0.946" style="stop-color:#535353"/>
				<stop  offset="0.9983" style="stop-color:#2F2F2F"/>
				<stop  offset="1" style="stop-color:#2E2E2E"/>
			</linearGradient>
			<rect x="100" y="224" style="fill:url(#SVGID_22_);" width="88" height="84"/>
		</g>
		<g id="duidialog-left-button-background-pressed">
			<rect x="2" y="222" style="fill:#999999;" width="88" height="88"/>
			<linearGradient id="SVGID_23_" gradientUnits="userSpaceOnUse" x1="47" y1="308" x2="47" y2="224">
				<stop  offset="0" style="stop-color:#C9C9C9"/>
				<stop  offset="0.4115" style="stop-color:#C8C8C8"/>
				<stop  offset="0.5598" style="stop-color:#C1C1C1"/>
				<stop  offset="0.6654" style="stop-color:#B5B5B5"/>
				<stop  offset="0.7509" style="stop-color:#A4A4A4"/>
				<stop  offset="0.824" style="stop-color:#8E8E8E"/>
				<stop  offset="0.8888" style="stop-color:#737373"/>
				<stop  offset="0.946" style="stop-color:#535353"/>
				<stop  offset="0.9983" style="stop-color:#2F2F2F"/>
				<stop  offset="1" style="stop-color:#2E2E2E"/>
			</linearGradient>
			<rect x="4" y="224" style="fill:url(#SVGID_23_);" width="86" height="84"/>
		</g>
		<g id="duidialog-right-button-background">
			<rect x="198" y="124" style="fill:#999999;" width="88" height="88"/>
			<linearGradient id="SVGID_24_" gradientUnits="userSpaceOnUse" x1="242" y1="210" x2="242" y2="126">
				<stop  offset="0" style="stop-color:#B3B3B3"/>
				<stop  offset="1" style="stop-color:#FCFCFC"/>
			</linearGradient>
			<rect x="200" y="126" style="fill:url(#SVGID_24_);" width="84" height="84"/>
			<rect x="198" y="126" style="fill:#999999;" width="2" height="84"/>
		</g>
		<g id="duidialog-center-button-background">
			<rect x="100" y="124" style="fill:#999999;" width="88" height="88"/>
			<linearGradient id="SVGID_25_" gradientUnits="userSpaceOnUse" x1="144" y1="210" x2="144" y2="126">
				<stop  offset="0" style="stop-color:#B3B3B3"/>
				<stop  offset="1" style="stop-color:#FCFCFC"/>
			</linearGradient>
			<rect x="102" y="126" style="fill:url(#SVGID_25_);" width="84" height="84"/>
			<rect x="186" y="126" style="fill:#FFFFFF;" width="2" height="84"/>
			<rect x="100" y="126" style="fill:#999999;" width="2" height="84"/>
		</g>
		<g id="duidialog-left-button-background">
			<rect x="2" y="124" style="fill:#999999;" width="88" height="88"/>
			<linearGradient id="SVGID_26_" gradientUnits="userSpaceOnUse" x1="46" y1="210" x2="46" y2="126">
				<stop  offset="0" style="stop-color:#B3B3B3"/>
				<stop  offset="1" style="stop-color:#FCFCFC"/>
			</linearGradient>
			<rect x="4" y="126" style="fill:url(#SVGID_26_);" width="84" height="84"/>
			<rect x="88" y="126" style="fill:#FFFFFF;" width="2" height="84"/>
		</g>
		<g id="duidialog-background">
			<rect x="91" y="62" style="fill:#FFFFFF;" width="106" height="52"/>
		</g>
		<g id="duidialog-header-background">
			<path style="fill:#FFFFFF;" d="M197,52V12c0-6.6-5.399-12-12-12h-82c-6.6,0-12,5.4-12,12v40H197z"/>
			<path style="fill:#E6E6E6;" d="M93,50V12c0-5.5,4.5-10,10-10h82c5.5,0,10,4.5,10,10v38H93z"/>
		</g>
	</g>
</g>
</svg>
