<?xml version="1.0" encoding="iso-8859-1"?>
<!-- Generator: Adobe Illustrator 14.0.0, SVG Export Plug-In . SVG Version: 6.00 Build 43363)  -->
<!DOCTYPE svg PUBLIC "-//W3C//DTD SVG 1.1//EN" "http://www.w3.org/Graphics/SVG/1.1/DTD/svg11.dtd">
<svg version="1.1" xmlns="http://www.w3.org/2000/svg" xmlns:xlink="http://www.w3.org/1999/xlink" x="0px" y="0px" width="494px"
	 height="458px" viewBox="0 0 494 458" style="enable-background:new 0 0 494 458;" xml:space="preserve">
<g id="duilist-layer">
</g>
<g id="dui-theme-rd">
	<g id="duilist">
		<g id="duilist-single-background-selected-pressed">
			<path style="fill:#999999;" d="M452,448c0,5.5-4.5,10-10,10h-12c-5.5,0-10-4.5-10-10v-12c0-5.5,4.5-10,10-10h12
				c5.5,0,10,4.5,10,10V448z"/>
			<linearGradient id="SVGID_1_" gradientUnits="userSpaceOnUse" x1="436" y1="456" x2="436" y2="428">
				<stop  offset="0" style="stop-color:#A7752A"/>
				<stop  offset="1" style="stop-color:#805823"/>
			</linearGradient>
			<path style="fill:url(#SVGID_1_);" d="M450,448c0,4.399-3.6,8-8,8h-12c-4.4,0-8-3.601-8-8v-12c0-4.4,3.6-8,8-8h12
				c4.4,0,8,3.6,8,8V448z"/>
		</g>
		<g id="duilist-singlecolumn-bottom-background-selected-pressed">
			<path style="fill:#999999;" d="M452,384v22c0,5.5-4.5,10-10,10h-12c-5.5,0-10-4.5-10-10v-22H452z"/>
			<linearGradient id="SVGID_2_" gradientUnits="userSpaceOnUse" x1="436" y1="414" x2="436" y2="384">
				<stop  offset="0" style="stop-color:#A7752A"/>
				<stop  offset="1" style="stop-color:#805823"/>
			</linearGradient>
			<path style="fill:url(#SVGID_2_);" d="M450,384v22c0,4.4-3.6,8-8,8h-12c-4.399,0-8-3.6-8-8v-22H450z"/>
		</g>
		<g id="duilist-singlecolumn-center-background-selected-pressed">
			<rect x="420" y="342" style="fill:#999999;" width="32" height="32"/>
			<linearGradient id="SVGID_3_" gradientUnits="userSpaceOnUse" x1="436" y1="374" x2="436" y2="341.999">
				<stop  offset="0" style="stop-color:#A7752A"/>
				<stop  offset="1" style="stop-color:#805823"/>
			</linearGradient>
			<rect x="422" y="341.999" style="fill:url(#SVGID_3_);" width="28" height="32.001"/>
		</g>
		<g id="duilist-singlecolumn-top-background-selected-pressed">
			<path style="fill:#999999;" d="M420,332v-22c0-5.5,4.5-10,10-10h12c5.5,0,10,4.5,10,10v22H420z"/>
			<linearGradient id="SVGID_4_" gradientUnits="userSpaceOnUse" x1="436" y1="332" x2="436" y2="302">
				<stop  offset="0" style="stop-color:#A7752A"/>
				<stop  offset="1" style="stop-color:#805823"/>
			</linearGradient>
			<path style="fill:url(#SVGID_4_);" d="M422,332v-22c0-4.4,3.6-8,8-8h12c4.398,0,8,3.6,8,8v22H422z"/>
		</g>
		<g id="duilist-singlerow-right-background-selected-pressed">
			<path style="fill:#999999;" d="M462,258h22c5.5,0,10,4.5,10,10v12c0,5.5-4.5,10-10,10h-22V258z"/>
			<linearGradient id="SVGID_5_" gradientUnits="userSpaceOnUse" x1="477" y1="288" x2="477" y2="260">
				<stop  offset="0" style="stop-color:#A7752A"/>
				<stop  offset="1" style="stop-color:#805823"/>
			</linearGradient>
			<path style="fill:url(#SVGID_5_);" d="M462,260h22c4.4,0,8,3.6,8,8v12c0,4.399-3.6,8-8,8h-22V260z"/>
		</g>
		<g id="duilist-singlerow-center-background-selected-pressed">
			<rect x="420" y="258" style="fill:#999999;" width="32" height="32"/>
			<linearGradient id="SVGID_6_" gradientUnits="userSpaceOnUse" x1="436" y1="288" x2="436" y2="260">
				<stop  offset="0" style="stop-color:#A7752A"/>
				<stop  offset="1" style="stop-color:#805823"/>
			</linearGradient>
			<rect x="420" y="260" style="fill:url(#SVGID_6_);" width="32" height="28"/>
		</g>
		<g id="duilist-singlerow-left-background-selected-pressed">
			<path style="fill:#999999;" d="M410,290h-22c-5.5,0-10-4.5-10-10v-12c0-5.5,4.5-10,10-10h22V290z"/>
			<linearGradient id="SVGID_7_" gradientUnits="userSpaceOnUse" x1="395" y1="288" x2="395" y2="260">
				<stop  offset="0" style="stop-color:#A7752A"/>
				<stop  offset="1" style="stop-color:#805823"/>
			</linearGradient>
			<path style="fill:url(#SVGID_7_);" d="M410,288h-22c-4.4,0-8-3.601-8-8v-12c0-4.4,3.6-8,8-8h22V288z"/>
		</g>
		<g id="duilist-bottomright-background-selected-pressed">
			<path style="fill:#999999;" d="M484,248c5.5,0,10-4.5,10-10v-22h-32v32H484z"/>
			<linearGradient id="SVGID_8_" gradientUnits="userSpaceOnUse" x1="477" y1="246" x2="477" y2="216.0005">
				<stop  offset="0" style="stop-color:#A7752A"/>
				<stop  offset="1" style="stop-color:#805823"/>
			</linearGradient>
			<path style="fill:url(#SVGID_8_);" d="M462,246h22c4.4,0,8-3.6,8-8v-22h-30V246z"/>
		</g>
		<g id="duilist-bottom-background-selected-pressed">
			<rect x="420" y="216" style="fill:#999999;" width="32" height="32"/>
			<linearGradient id="SVGID_9_" gradientUnits="userSpaceOnUse" x1="436" y1="246" x2="436" y2="216.0005">
				<stop  offset="0" style="stop-color:#A7752A"/>
				<stop  offset="1" style="stop-color:#805823"/>
			</linearGradient>
			<rect x="420" y="216" style="fill:url(#SVGID_9_);" width="32" height="30"/>
		</g>
		<g id="duilist-bottomleft-background-selected-pressed">
			<path style="fill:#999999;" d="M378,238.001c0,5.5,4.5,10,10,10L410,248v-32l-32,0.001V238.001z"/>
			<linearGradient id="SVGID_10_" gradientUnits="userSpaceOnUse" x1="395" y1="246.001" x2="395" y2="216.0005">
				<stop  offset="0" style="stop-color:#A7752A"/>
				<stop  offset="1" style="stop-color:#805823"/>
			</linearGradient>
			<path style="fill:url(#SVGID_10_);" d="M380,216v22.001c0,4.4,3.6,8,8,8h22V216H380z"/>
		</g>
		<g id="duilist-right-background-selected-pressed">
			<rect x="462" y="174" style="fill:#999999;" width="32" height="32"/>
			<linearGradient id="SVGID_11_" gradientUnits="userSpaceOnUse" x1="477" y1="206" x2="477" y2="174">
				<stop  offset="0" style="stop-color:#A7752A"/>
				<stop  offset="1" style="stop-color:#805823"/>
			</linearGradient>
			<rect x="462" y="174" style="fill:url(#SVGID_11_);" width="30" height="32"/>
		</g>
		<g id="duilist-center-background-selected-pressed">
			<rect x="420" y="174" style="fill:#999999;" width="32" height="32"/>
			<linearGradient id="SVGID_12_" gradientUnits="userSpaceOnUse" x1="436" y1="206" x2="436" y2="174">
				<stop  offset="0" style="stop-color:#A7752A"/>
				<stop  offset="1" style="stop-color:#805823"/>
			</linearGradient>
			<rect x="420" y="174" style="fill:url(#SVGID_12_);" width="32" height="32"/>
		</g>
		<g id="duilist-left-background-selected-pressed">
			<rect x="378" y="174" style="fill:#999999;" width="32" height="32"/>
			<linearGradient id="SVGID_13_" gradientUnits="userSpaceOnUse" x1="395" y1="206" x2="395" y2="174">
				<stop  offset="0" style="stop-color:#A7752A"/>
				<stop  offset="1" style="stop-color:#805823"/>
			</linearGradient>
			<rect x="380" y="174" style="fill:url(#SVGID_13_);" width="30" height="32"/>
		</g>
		<g id="duilist-topright-background-selected-pressed">
			<path style="fill:#999999;" d="M494,142c0-5.5-4.5-10-10-10h-22v32h32V142z"/>
			<linearGradient id="SVGID_14_" gradientUnits="userSpaceOnUse" x1="477" y1="164" x2="477" y2="134">
				<stop  offset="0" style="stop-color:#A7752A"/>
				<stop  offset="1" style="stop-color:#805823"/>
			</linearGradient>
			<path style="fill:url(#SVGID_14_);" d="M492,164v-22c0-4.4-3.6-8-8-8h-22v30H492z"/>
		</g>
		<g id="duilist-top-background-selected-pressed">
			<rect x="420" y="132" style="fill:#999999;" width="32" height="32"/>
			<linearGradient id="SVGID_15_" gradientUnits="userSpaceOnUse" x1="436" y1="164" x2="436" y2="134">
				<stop  offset="0" style="stop-color:#A7752A"/>
				<stop  offset="1" style="stop-color:#805823"/>
			</linearGradient>
			<rect x="420" y="134" style="fill:url(#SVGID_15_);" width="32" height="30"/>
		</g>
		<g id="duilist-topleft-background-selected-pressed">
			<path style="fill:#999999;" d="M378,142c0-5.5,4.5-10,10-10h22v32h-32V142z"/>
			<linearGradient id="SVGID_16_" gradientUnits="userSpaceOnUse" x1="395" y1="164" x2="395" y2="134">
				<stop  offset="0" style="stop-color:#A7752A"/>
				<stop  offset="1" style="stop-color:#805823"/>
			</linearGradient>
			<path style="fill:url(#SVGID_16_);" d="M380,164v-22c0-4.4,3.6-8,8-8h22v30H380z"/>
		</g>
		<g id="duilist-fullwidth-background-selected-pressed">
			<linearGradient id="SVGID_17_" gradientUnits="userSpaceOnUse" x1="436" y1="116" x2="436" y2="84">
				<stop  offset="0" style="stop-color:#A7752A"/>
				<stop  offset="1" style="stop-color:#805823"/>
			</linearGradient>
			<rect x="420" y="84" style="fill:url(#SVGID_17_);" width="32" height="32"/>
		</g>
		<g id="duilist-fullwidth-right-background-selected-pressed">
			<linearGradient id="SVGID_18_" gradientUnits="userSpaceOnUse" x1="478" y1="74" x2="478" y2="42">
				<stop  offset="0" style="stop-color:#A7752A"/>
				<stop  offset="1" style="stop-color:#805823"/>
			</linearGradient>
			<rect x="462" y="42" style="fill:url(#SVGID_18_);" width="32" height="32"/>
		</g>
		<g id="duilist-fullwidth-center-background-selected-pressed">
			<linearGradient id="SVGID_19_" gradientUnits="userSpaceOnUse" x1="436" y1="74" x2="436" y2="42">
				<stop  offset="0" style="stop-color:#A7752A"/>
				<stop  offset="1" style="stop-color:#805823"/>
			</linearGradient>
			<rect x="420" y="42" style="fill:url(#SVGID_19_);" width="32" height="32"/>
		</g>
		<g id="duilist-fullwidth-left-background-selected-pressed">
			<linearGradient id="SVGID_20_" gradientUnits="userSpaceOnUse" x1="394" y1="74" x2="394" y2="42">
				<stop  offset="0" style="stop-color:#A7752A"/>
				<stop  offset="1" style="stop-color:#805823"/>
			</linearGradient>
			<rect x="378" y="42" style="fill:url(#SVGID_20_);" width="32" height="32"/>
		</g>
		<g id="duilist-single-background-selected">
			<path style="fill:#999999;" d="M326,448c0,5.5-4.5,10-10,10h-12c-5.5,0-10-4.5-10-10v-12c0-5.5,4.5-10,10-10h12
				c5.5,0,10,4.5,10,10V448z"/>
			<linearGradient id="SVGID_21_" gradientUnits="userSpaceOnUse" x1="310" y1="456" x2="310" y2="428">
				<stop  offset="0" style="stop-color:#A7752A"/>
				<stop  offset="1" style="stop-color:#F4A81D"/>
			</linearGradient>
			<path style="fill:url(#SVGID_21_);" d="M324,448c0,4.399-3.6,8-8,8h-12c-4.4,0-8-3.601-8-8v-12c0-4.4,3.6-8,8-8h12
				c4.4,0,8,3.6,8,8V448z"/>
		</g>
		<g id="duilist-singlecolumn-bottom-background-selected">
			<path style="fill:#999999;" d="M326,384v22c0,5.5-4.5,10-10,10h-12c-5.5,0-10-4.5-10-10v-22H326z"/>
			<linearGradient id="SVGID_22_" gradientUnits="userSpaceOnUse" x1="310" y1="414" x2="310" y2="384">
				<stop  offset="0" style="stop-color:#A7752A"/>
				<stop  offset="1" style="stop-color:#F4A81D"/>
			</linearGradient>
			<path style="fill:url(#SVGID_22_);" d="M324,384v22c0,4.4-3.6,8-8,8h-12c-4.399,0-8-3.6-8-8v-22H324z"/>
		</g>
		<g id="duilist-singlecolumn-center-background-selected">
			<rect x="294" y="342" style="fill:#999999;" width="32" height="32"/>
			<linearGradient id="SVGID_23_" gradientUnits="userSpaceOnUse" x1="310" y1="374" x2="310" y2="341.999">
				<stop  offset="0" style="stop-color:#A7752A"/>
				<stop  offset="1" style="stop-color:#F4A81D"/>
			</linearGradient>
			<rect x="296" y="341.999" style="fill:url(#SVGID_23_);" width="28" height="32.001"/>
		</g>
		<g id="duilist-singlecolumn-top-background-selected">
			<path style="fill:#999999;" d="M294,332v-22c0-5.5,4.5-10,10-10h12c5.5,0,10,4.5,10,10v22H294z"/>
			<linearGradient id="SVGID_24_" gradientUnits="userSpaceOnUse" x1="310" y1="332" x2="310" y2="302">
				<stop  offset="0" style="stop-color:#A7752A"/>
				<stop  offset="1" style="stop-color:#F4A81D"/>
			</linearGradient>
			<path style="fill:url(#SVGID_24_);" d="M296,332v-22c0-4.4,3.6-8,8-8h12c4.398,0,8,3.6,8,8v22H296z"/>
		</g>
		<g id="duilist-singlerow-right-background-selected">
			<path style="fill:#999999;" d="M336,258h22c5.5,0,10,4.5,10,10v12c0,5.5-4.5,10-10,10h-22V258z"/>
			<linearGradient id="SVGID_25_" gradientUnits="userSpaceOnUse" x1="351" y1="288" x2="351" y2="260">
				<stop  offset="0" style="stop-color:#A7752A"/>
				<stop  offset="1" style="stop-color:#F4A81D"/>
			</linearGradient>
			<path style="fill:url(#SVGID_25_);" d="M336,260h22c4.4,0,8,3.6,8,8v12c0,4.399-3.6,8-8,8h-22V260z"/>
		</g>
		<g id="duilist-singlerow-center-background-selected">
			<rect x="294" y="258" style="fill:#999999;" width="32" height="32"/>
			<linearGradient id="SVGID_26_" gradientUnits="userSpaceOnUse" x1="310" y1="288" x2="310" y2="260">
				<stop  offset="0" style="stop-color:#A7752A"/>
				<stop  offset="1" style="stop-color:#F4A81D"/>
			</linearGradient>
			<rect x="294" y="260" style="fill:url(#SVGID_26_);" width="32" height="28"/>
		</g>
		<g id="duilist-singlerow-left-background-selected">
			<path style="fill:#999999;" d="M284,290h-22c-5.5,0-10-4.5-10-10v-12c0-5.5,4.5-10,10-10h22V290z"/>
			<linearGradient id="SVGID_27_" gradientUnits="userSpaceOnUse" x1="269" y1="288" x2="269" y2="260">
				<stop  offset="0" style="stop-color:#A7752A"/>
				<stop  offset="1" style="stop-color:#F4A81D"/>
			</linearGradient>
			<path style="fill:url(#SVGID_27_);" d="M284,288h-22c-4.4,0-8-3.601-8-8v-12c0-4.4,3.6-8,8-8h22V288z"/>
		</g>
		<g id="duilist-bottomright-background-selected">
			<path style="fill:#999999;" d="M358,248c5.5,0,10-4.5,10-10v-22h-32v32H358z"/>
			<linearGradient id="SVGID_28_" gradientUnits="userSpaceOnUse" x1="351" y1="246" x2="351" y2="216.0005">
				<stop  offset="0" style="stop-color:#A7752A"/>
				<stop  offset="1" style="stop-color:#F4A81D"/>
			</linearGradient>
			<path style="fill:url(#SVGID_28_);" d="M336,246h22c4.4,0,8-3.6,8-8v-22h-30V246z"/>
		</g>
		<g id="duilist-bottom-background-selected">
			<rect x="294" y="216" style="fill:#999999;" width="32" height="32"/>
			<linearGradient id="SVGID_29_" gradientUnits="userSpaceOnUse" x1="310" y1="246" x2="310" y2="216.0005">
				<stop  offset="0" style="stop-color:#A7752A"/>
				<stop  offset="1" style="stop-color:#F4A81D"/>
			</linearGradient>
			<rect x="294" y="216" style="fill:url(#SVGID_29_);" width="32" height="30"/>
		</g>
		<g id="duilist-bottomleft-background-selected">
			<path style="fill:#999999;" d="M252,238.001c0,5.5,4.5,10,10,10L284,248v-32l-32,0.001V238.001z"/>
			<linearGradient id="SVGID_30_" gradientUnits="userSpaceOnUse" x1="269" y1="246.001" x2="269" y2="216.0005">
				<stop  offset="0" style="stop-color:#A7752A"/>
				<stop  offset="1" style="stop-color:#F4A81D"/>
			</linearGradient>
			<path style="fill:url(#SVGID_30_);" d="M254,216v22.001c0,4.4,3.6,8,8,8h22V216H254z"/>
		</g>
		<g id="duilist-right-background-selected">
			<rect x="336" y="174" style="fill:#999999;" width="32" height="32"/>
			<linearGradient id="SVGID_31_" gradientUnits="userSpaceOnUse" x1="351" y1="206" x2="351" y2="174">
				<stop  offset="0" style="stop-color:#A7752A"/>
				<stop  offset="1" style="stop-color:#F4A81D"/>
			</linearGradient>
			<rect x="336" y="174" style="fill:url(#SVGID_31_);" width="30" height="32"/>
		</g>
		<g id="duilist-center-background-selected">
			<rect x="294" y="174" style="fill:#999999;" width="32" height="32"/>
			<linearGradient id="SVGID_32_" gradientUnits="userSpaceOnUse" x1="310" y1="206" x2="310" y2="174">
				<stop  offset="0" style="stop-color:#A7752A"/>
				<stop  offset="1" style="stop-color:#F4A81D"/>
			</linearGradient>
			<rect x="294" y="174" style="fill:url(#SVGID_32_);" width="32" height="32"/>
		</g>
		<g id="duilist-left-background-selected">
			<rect x="252" y="174" style="fill:#999999;" width="32" height="32"/>
			<linearGradient id="SVGID_33_" gradientUnits="userSpaceOnUse" x1="269" y1="206" x2="269" y2="174">
				<stop  offset="0" style="stop-color:#A7752A"/>
				<stop  offset="1" style="stop-color:#F4A81D"/>
			</linearGradient>
			<rect x="254" y="174" style="fill:url(#SVGID_33_);" width="30" height="32"/>
		</g>
		<g id="duilist-topright-background-selected">
			<path style="fill:#999999;" d="M368,142c0-5.5-4.5-10-10-10h-22v32h32V142z"/>
			<linearGradient id="SVGID_34_" gradientUnits="userSpaceOnUse" x1="351" y1="164" x2="351" y2="134">
				<stop  offset="0" style="stop-color:#A7752A"/>
				<stop  offset="1" style="stop-color:#F4A81D"/>
			</linearGradient>
			<path style="fill:url(#SVGID_34_);" d="M366,164v-22c0-4.4-3.6-8-8-8h-22v30H366z"/>
		</g>
		<g id="duilist-top-background-selected">
			<rect x="294" y="132" style="fill:#999999;" width="32" height="32"/>
			<linearGradient id="SVGID_35_" gradientUnits="userSpaceOnUse" x1="310" y1="164" x2="310" y2="134">
				<stop  offset="0" style="stop-color:#A7752A"/>
				<stop  offset="1" style="stop-color:#F4A81D"/>
			</linearGradient>
			<rect x="294" y="134" style="fill:url(#SVGID_35_);" width="32" height="30"/>
		</g>
		<g id="duilist-topleft-background-selected">
			<path style="fill:#999999;" d="M252,142c0-5.5,4.5-10,10-10h22v32h-32V142z"/>
			<linearGradient id="SVGID_36_" gradientUnits="userSpaceOnUse" x1="269" y1="164" x2="269" y2="134">
				<stop  offset="0" style="stop-color:#A7752A"/>
				<stop  offset="1" style="stop-color:#F4A81D"/>
			</linearGradient>
			<path style="fill:url(#SVGID_36_);" d="M254,164v-22c0-4.4,3.6-8,8-8h22v30H254z"/>
		</g>
		<g id="duilist-fullwidth-background-selected">
			<linearGradient id="SVGID_37_" gradientUnits="userSpaceOnUse" x1="310" y1="116" x2="310" y2="84">
				<stop  offset="0" style="stop-color:#A7752A"/>
				<stop  offset="1" style="stop-color:#F4A81D"/>
			</linearGradient>
			<rect x="294" y="84" style="fill:url(#SVGID_37_);" width="32" height="32"/>
		</g>
		<g id="duilist-fullwidth-right-background-selected">
			<linearGradient id="SVGID_38_" gradientUnits="userSpaceOnUse" x1="352" y1="74" x2="352" y2="42">
				<stop  offset="0" style="stop-color:#A7752A"/>
				<stop  offset="1" style="stop-color:#F4A81D"/>
			</linearGradient>
			<rect x="336" y="42" style="fill:url(#SVGID_38_);" width="32" height="32"/>
		</g>
		<g id="duilist-fullwidth-center-background-selected">
			<linearGradient id="SVGID_39_" gradientUnits="userSpaceOnUse" x1="310" y1="74" x2="310" y2="42">
				<stop  offset="0" style="stop-color:#A7752A"/>
				<stop  offset="1" style="stop-color:#F4A81D"/>
			</linearGradient>
			<rect x="294" y="42" style="fill:url(#SVGID_39_);" width="32" height="32"/>
		</g>
		<g id="duilist-fullwidth-left-background-selected">
			<linearGradient id="SVGID_40_" gradientUnits="userSpaceOnUse" x1="268" y1="74" x2="268" y2="42">
				<stop  offset="0" style="stop-color:#A7752A"/>
				<stop  offset="1" style="stop-color:#F4A81D"/>
			</linearGradient>
			<rect x="252" y="42" style="fill:url(#SVGID_40_);" width="32" height="32"/>
		</g>
		<g id="duilist-single-background-pressed">
			<path style="fill:#999999;" d="M200,448c0,5.5-4.5,10-10,10h-12c-5.5,0-10-4.5-10-10v-12c0-5.5,4.5-10,10-10h12
				c5.5,0,10,4.5,10,10V448z"/>
			<linearGradient id="SVGID_41_" gradientUnits="userSpaceOnUse" x1="184" y1="456" x2="184" y2="428">
				<stop  offset="0" style="stop-color:#C9C9C9"/>
				<stop  offset="0.4115" style="stop-color:#C8C8C8"/>
				<stop  offset="0.5598" style="stop-color:#C1C1C1"/>
				<stop  offset="0.6654" style="stop-color:#B5B5B5"/>
				<stop  offset="0.7509" style="stop-color:#A4A4A4"/>
				<stop  offset="0.824" style="stop-color:#8E8E8E"/>
				<stop  offset="0.8888" style="stop-color:#737373"/>
				<stop  offset="0.946" style="stop-color:#535353"/>
				<stop  offset="0.9983" style="stop-color:#2F2F2F"/>
				<stop  offset="1" style="stop-color:#2E2E2E"/>
			</linearGradient>
			<path style="fill:url(#SVGID_41_);" d="M198,448c0,4.399-3.6,8-8,8h-12c-4.4,0-8-3.601-8-8v-12c0-4.4,3.6-8,8-8h12
				c4.4,0,8,3.6,8,8V448z"/>
		</g>
		<g id="duilist-singlecolumn-bottom-background-pressed">
			<path style="fill:#999999;" d="M200,384v22c0,5.5-4.5,10-10,10h-12c-5.5,0-10-4.5-10-10v-22H200z"/>
			<linearGradient id="SVGID_42_" gradientUnits="userSpaceOnUse" x1="184" y1="414" x2="184" y2="384">
				<stop  offset="0" style="stop-color:#C9C9C9"/>
				<stop  offset="0.4115" style="stop-color:#C8C8C8"/>
				<stop  offset="0.5598" style="stop-color:#C1C1C1"/>
				<stop  offset="0.6654" style="stop-color:#B5B5B5"/>
				<stop  offset="0.7509" style="stop-color:#A4A4A4"/>
				<stop  offset="0.824" style="stop-color:#8E8E8E"/>
				<stop  offset="0.8888" style="stop-color:#737373"/>
				<stop  offset="0.946" style="stop-color:#535353"/>
				<stop  offset="0.9983" style="stop-color:#2F2F2F"/>
				<stop  offset="1" style="stop-color:#2E2E2E"/>
			</linearGradient>
			<path style="fill:url(#SVGID_42_);" d="M198,384v22c0,4.4-3.6,8-8,8h-12c-4.399,0-8-3.6-8-8v-22H198z"/>
		</g>
		<g id="duilist-singlecolumn-center-background-pressed">
			<rect x="168" y="342" style="fill:#999999;" width="32" height="32"/>
			<linearGradient id="SVGID_43_" gradientUnits="userSpaceOnUse" x1="184" y1="374" x2="184" y2="341.999">
				<stop  offset="0" style="stop-color:#C9C9C9"/>
				<stop  offset="0.4115" style="stop-color:#C8C8C8"/>
				<stop  offset="0.5598" style="stop-color:#C1C1C1"/>
				<stop  offset="0.6654" style="stop-color:#B5B5B5"/>
				<stop  offset="0.7509" style="stop-color:#A4A4A4"/>
				<stop  offset="0.824" style="stop-color:#8E8E8E"/>
				<stop  offset="0.8888" style="stop-color:#737373"/>
				<stop  offset="0.946" style="stop-color:#535353"/>
				<stop  offset="0.9983" style="stop-color:#2F2F2F"/>
				<stop  offset="1" style="stop-color:#2E2E2E"/>
			</linearGradient>
			<rect x="170" y="341.999" style="fill:url(#SVGID_43_);" width="28" height="32.001"/>
		</g>
		<g id="duilist-singlecolumn-top-background-pressed">
			<path style="fill:#999999;" d="M168,332v-22c0-5.5,4.5-10,10-10h12c5.5,0,10,4.5,10,10v22H168z"/>
			<linearGradient id="SVGID_44_" gradientUnits="userSpaceOnUse" x1="184" y1="332" x2="184" y2="302">
				<stop  offset="0" style="stop-color:#C9C9C9"/>
				<stop  offset="0.4115" style="stop-color:#C8C8C8"/>
				<stop  offset="0.5598" style="stop-color:#C1C1C1"/>
				<stop  offset="0.6654" style="stop-color:#B5B5B5"/>
				<stop  offset="0.7509" style="stop-color:#A4A4A4"/>
				<stop  offset="0.824" style="stop-color:#8E8E8E"/>
				<stop  offset="0.8888" style="stop-color:#737373"/>
				<stop  offset="0.946" style="stop-color:#535353"/>
				<stop  offset="0.9983" style="stop-color:#2F2F2F"/>
				<stop  offset="1" style="stop-color:#2E2E2E"/>
			</linearGradient>
			<path style="fill:url(#SVGID_44_);" d="M170,332v-22c0-4.4,3.6-8,8-8h12c4.398,0,8,3.6,8,8v22H170z"/>
		</g>
		<g id="duilist-singlerow-right-background-pressed">
			<path style="fill:#999999;" d="M210,258h22c5.5,0,10,4.5,10,10v12c0,5.5-4.5,10-10,10h-22V258z"/>
			<linearGradient id="SVGID_45_" gradientUnits="userSpaceOnUse" x1="225" y1="288" x2="225" y2="260">
				<stop  offset="0" style="stop-color:#C9C9C9"/>
				<stop  offset="0.4115" style="stop-color:#C8C8C8"/>
				<stop  offset="0.5598" style="stop-color:#C1C1C1"/>
				<stop  offset="0.6654" style="stop-color:#B5B5B5"/>
				<stop  offset="0.7509" style="stop-color:#A4A4A4"/>
				<stop  offset="0.824" style="stop-color:#8E8E8E"/>
				<stop  offset="0.8888" style="stop-color:#737373"/>
				<stop  offset="0.946" style="stop-color:#535353"/>
				<stop  offset="0.9983" style="stop-color:#2F2F2F"/>
				<stop  offset="1" style="stop-color:#2E2E2E"/>
			</linearGradient>
			<path style="fill:url(#SVGID_45_);" d="M210,260h22c4.4,0,8,3.6,8,8v12c0,4.399-3.6,8-8,8h-22V260z"/>
		</g>
		<g id="duilist-singlerow-center-background-pressed">
			<rect x="168" y="258" style="fill:#999999;" width="32" height="32"/>
			<linearGradient id="SVGID_46_" gradientUnits="userSpaceOnUse" x1="184" y1="288" x2="184" y2="260">
				<stop  offset="0" style="stop-color:#C9C9C9"/>
				<stop  offset="0.4115" style="stop-color:#C8C8C8"/>
				<stop  offset="0.5598" style="stop-color:#C1C1C1"/>
				<stop  offset="0.6654" style="stop-color:#B5B5B5"/>
				<stop  offset="0.7509" style="stop-color:#A4A4A4"/>
				<stop  offset="0.824" style="stop-color:#8E8E8E"/>
				<stop  offset="0.8888" style="stop-color:#737373"/>
				<stop  offset="0.946" style="stop-color:#535353"/>
				<stop  offset="0.9983" style="stop-color:#2F2F2F"/>
				<stop  offset="1" style="stop-color:#2E2E2E"/>
			</linearGradient>
			<rect x="168" y="260" style="fill:url(#SVGID_46_);" width="32" height="28"/>
		</g>
		<g id="duilist-singlerow-left-background-pressed">
			<path style="fill:#999999;" d="M158,290h-22c-5.5,0-10-4.5-10-10v-12c0-5.5,4.5-10,10-10h22V290z"/>
			<linearGradient id="SVGID_47_" gradientUnits="userSpaceOnUse" x1="143" y1="288" x2="143" y2="260">
				<stop  offset="0" style="stop-color:#C9C9C9"/>
				<stop  offset="0.4115" style="stop-color:#C8C8C8"/>
				<stop  offset="0.5598" style="stop-color:#C1C1C1"/>
				<stop  offset="0.6654" style="stop-color:#B5B5B5"/>
				<stop  offset="0.7509" style="stop-color:#A4A4A4"/>
				<stop  offset="0.824" style="stop-color:#8E8E8E"/>
				<stop  offset="0.8888" style="stop-color:#737373"/>
				<stop  offset="0.946" style="stop-color:#535353"/>
				<stop  offset="0.9983" style="stop-color:#2F2F2F"/>
				<stop  offset="1" style="stop-color:#2E2E2E"/>
			</linearGradient>
			<path style="fill:url(#SVGID_47_);" d="M158,288h-22c-4.4,0-8-3.601-8-8v-12c0-4.4,3.6-8,8-8h22V288z"/>
		</g>
		<g id="duilist-bottomright-background-pressed">
			<path style="fill:#999999;" d="M232,248c5.5,0,10-4.5,10-10v-22h-32v32H232z"/>
			<linearGradient id="SVGID_48_" gradientUnits="userSpaceOnUse" x1="225" y1="246" x2="225" y2="216.0005">
				<stop  offset="0" style="stop-color:#C9C9C9"/>
				<stop  offset="0.4115" style="stop-color:#C8C8C8"/>
				<stop  offset="0.5598" style="stop-color:#C1C1C1"/>
				<stop  offset="0.6654" style="stop-color:#B5B5B5"/>
				<stop  offset="0.7509" style="stop-color:#A4A4A4"/>
				<stop  offset="0.824" style="stop-color:#8E8E8E"/>
				<stop  offset="0.8888" style="stop-color:#737373"/>
				<stop  offset="0.946" style="stop-color:#535353"/>
				<stop  offset="0.9983" style="stop-color:#2F2F2F"/>
				<stop  offset="1" style="stop-color:#2E2E2E"/>
			</linearGradient>
			<path style="fill:url(#SVGID_48_);" d="M210,246h22c4.4,0,8-3.6,8-8v-22h-30V246z"/>
		</g>
		<g id="duilist-bottom-background-pressed">
			<rect x="168" y="216" style="fill:#999999;" width="32" height="32"/>
			<linearGradient id="SVGID_49_" gradientUnits="userSpaceOnUse" x1="184" y1="246" x2="184" y2="216.0005">
				<stop  offset="0" style="stop-color:#C9C9C9"/>
				<stop  offset="0.4115" style="stop-color:#C8C8C8"/>
				<stop  offset="0.5598" style="stop-color:#C1C1C1"/>
				<stop  offset="0.6654" style="stop-color:#B5B5B5"/>
				<stop  offset="0.7509" style="stop-color:#A4A4A4"/>
				<stop  offset="0.824" style="stop-color:#8E8E8E"/>
				<stop  offset="0.8888" style="stop-color:#737373"/>
				<stop  offset="0.946" style="stop-color:#535353"/>
				<stop  offset="0.9983" style="stop-color:#2F2F2F"/>
				<stop  offset="1" style="stop-color:#2E2E2E"/>
			</linearGradient>
			<rect x="168" y="216" style="fill:url(#SVGID_49_);" width="32" height="30"/>
		</g>
		<g id="duilist-bottomleft-background-pressed">
			<path style="fill:#999999;" d="M126,238.001c0,5.5,4.5,10,10,10L158,248v-32l-32,0.001V238.001z"/>
			<linearGradient id="SVGID_50_" gradientUnits="userSpaceOnUse" x1="143" y1="246.001" x2="143" y2="216.0005">
				<stop  offset="0" style="stop-color:#C9C9C9"/>
				<stop  offset="0.4115" style="stop-color:#C8C8C8"/>
				<stop  offset="0.5598" style="stop-color:#C1C1C1"/>
				<stop  offset="0.6654" style="stop-color:#B5B5B5"/>
				<stop  offset="0.7509" style="stop-color:#A4A4A4"/>
				<stop  offset="0.824" style="stop-color:#8E8E8E"/>
				<stop  offset="0.8888" style="stop-color:#737373"/>
				<stop  offset="0.946" style="stop-color:#535353"/>
				<stop  offset="0.9983" style="stop-color:#2F2F2F"/>
				<stop  offset="1" style="stop-color:#2E2E2E"/>
			</linearGradient>
			<path style="fill:url(#SVGID_50_);" d="M128,216v22.001c0,4.4,3.6,8,8,8h22V216H128z"/>
		</g>
		<g id="duilist-right-background-pressed">
			<rect x="210" y="174" style="fill:#999999;" width="32" height="32"/>
			<linearGradient id="SVGID_51_" gradientUnits="userSpaceOnUse" x1="225" y1="206" x2="225" y2="174">
				<stop  offset="0" style="stop-color:#C9C9C9"/>
				<stop  offset="0.4115" style="stop-color:#C8C8C8"/>
				<stop  offset="0.5598" style="stop-color:#C1C1C1"/>
				<stop  offset="0.6654" style="stop-color:#B5B5B5"/>
				<stop  offset="0.7509" style="stop-color:#A4A4A4"/>
				<stop  offset="0.824" style="stop-color:#8E8E8E"/>
				<stop  offset="0.8888" style="stop-color:#737373"/>
				<stop  offset="0.946" style="stop-color:#535353"/>
				<stop  offset="0.9983" style="stop-color:#2F2F2F"/>
				<stop  offset="1" style="stop-color:#2E2E2E"/>
			</linearGradient>
			<rect x="210" y="174" style="fill:url(#SVGID_51_);" width="30" height="32"/>
		</g>
		<g id="duilist-center-background-pressed">
			<rect x="168" y="174" style="fill:#999999;" width="32" height="32"/>
			<linearGradient id="SVGID_52_" gradientUnits="userSpaceOnUse" x1="184" y1="206" x2="184" y2="174">
				<stop  offset="0" style="stop-color:#C9C9C9"/>
				<stop  offset="0.4115" style="stop-color:#C8C8C8"/>
				<stop  offset="0.5598" style="stop-color:#C1C1C1"/>
				<stop  offset="0.6654" style="stop-color:#B5B5B5"/>
				<stop  offset="0.7509" style="stop-color:#A4A4A4"/>
				<stop  offset="0.824" style="stop-color:#8E8E8E"/>
				<stop  offset="0.8888" style="stop-color:#737373"/>
				<stop  offset="0.946" style="stop-color:#535353"/>
				<stop  offset="0.9983" style="stop-color:#2F2F2F"/>
				<stop  offset="1" style="stop-color:#2E2E2E"/>
			</linearGradient>
			<rect x="168" y="174" style="fill:url(#SVGID_52_);" width="32" height="32"/>
		</g>
		<g id="duilist-left-background-pressed">
			<rect x="126" y="174" style="fill:#999999;" width="32" height="32"/>
			<linearGradient id="SVGID_53_" gradientUnits="userSpaceOnUse" x1="143" y1="206" x2="143" y2="174">
				<stop  offset="0" style="stop-color:#C9C9C9"/>
				<stop  offset="0.4115" style="stop-color:#C8C8C8"/>
				<stop  offset="0.5598" style="stop-color:#C1C1C1"/>
				<stop  offset="0.6654" style="stop-color:#B5B5B5"/>
				<stop  offset="0.7509" style="stop-color:#A4A4A4"/>
				<stop  offset="0.824" style="stop-color:#8E8E8E"/>
				<stop  offset="0.8888" style="stop-color:#737373"/>
				<stop  offset="0.946" style="stop-color:#535353"/>
				<stop  offset="0.9983" style="stop-color:#2F2F2F"/>
				<stop  offset="1" style="stop-color:#2E2E2E"/>
			</linearGradient>
			<rect x="128" y="174" style="fill:url(#SVGID_53_);" width="30" height="32"/>
		</g>
		<g id="duilist-topright-background-pressed">
			<path style="fill:#999999;" d="M242,142c0-5.5-4.5-10-10-10h-22v32h32V142z"/>
			<linearGradient id="SVGID_54_" gradientUnits="userSpaceOnUse" x1="225" y1="164" x2="225" y2="134">
				<stop  offset="0" style="stop-color:#C9C9C9"/>
				<stop  offset="0.4115" style="stop-color:#C8C8C8"/>
				<stop  offset="0.5598" style="stop-color:#C1C1C1"/>
				<stop  offset="0.6654" style="stop-color:#B5B5B5"/>
				<stop  offset="0.7509" style="stop-color:#A4A4A4"/>
				<stop  offset="0.824" style="stop-color:#8E8E8E"/>
				<stop  offset="0.8888" style="stop-color:#737373"/>
				<stop  offset="0.946" style="stop-color:#535353"/>
				<stop  offset="0.9983" style="stop-color:#2F2F2F"/>
				<stop  offset="1" style="stop-color:#2E2E2E"/>
			</linearGradient>
			<path style="fill:url(#SVGID_54_);" d="M240,164v-22c0-4.4-3.6-8-8-8h-22v30H240z"/>
		</g>
		<g id="duilist-top-background-pressed">
			<rect x="168" y="132" style="fill:#999999;" width="32" height="32"/>
			<linearGradient id="SVGID_55_" gradientUnits="userSpaceOnUse" x1="184" y1="164" x2="184" y2="134">
				<stop  offset="0" style="stop-color:#C9C9C9"/>
				<stop  offset="0.4115" style="stop-color:#C8C8C8"/>
				<stop  offset="0.5598" style="stop-color:#C1C1C1"/>
				<stop  offset="0.6654" style="stop-color:#B5B5B5"/>
				<stop  offset="0.7509" style="stop-color:#A4A4A4"/>
				<stop  offset="0.824" style="stop-color:#8E8E8E"/>
				<stop  offset="0.8888" style="stop-color:#737373"/>
				<stop  offset="0.946" style="stop-color:#535353"/>
				<stop  offset="0.9983" style="stop-color:#2F2F2F"/>
				<stop  offset="1" style="stop-color:#2E2E2E"/>
			</linearGradient>
			<rect x="168" y="134" style="fill:url(#SVGID_55_);" width="32" height="30"/>
		</g>
		<g id="duilist-topleft-background-pressed">
			<path style="fill:#999999;" d="M126,142c0-5.5,4.5-10,10-10h22v32h-32V142z"/>
			<linearGradient id="SVGID_56_" gradientUnits="userSpaceOnUse" x1="143" y1="164" x2="143" y2="134">
				<stop  offset="0" style="stop-color:#C9C9C9"/>
				<stop  offset="0.4115" style="stop-color:#C8C8C8"/>
				<stop  offset="0.5598" style="stop-color:#C1C1C1"/>
				<stop  offset="0.6654" style="stop-color:#B5B5B5"/>
				<stop  offset="0.7509" style="stop-color:#A4A4A4"/>
				<stop  offset="0.824" style="stop-color:#8E8E8E"/>
				<stop  offset="0.8888" style="stop-color:#737373"/>
				<stop  offset="0.946" style="stop-color:#535353"/>
				<stop  offset="0.9983" style="stop-color:#2F2F2F"/>
				<stop  offset="1" style="stop-color:#2E2E2E"/>
			</linearGradient>
			<path style="fill:url(#SVGID_56_);" d="M128,164v-22c0-4.4,3.6-8,8-8h22v30H128z"/>
		</g>
		<g id="duilist-fullwidth-background-pressed">
			<linearGradient id="SVGID_57_" gradientUnits="userSpaceOnUse" x1="184" y1="116" x2="184" y2="84">
				<stop  offset="0" style="stop-color:#C9C9C9"/>
				<stop  offset="0.4115" style="stop-color:#C8C8C8"/>
				<stop  offset="0.5598" style="stop-color:#C1C1C1"/>
				<stop  offset="0.6654" style="stop-color:#B5B5B5"/>
				<stop  offset="0.7509" style="stop-color:#A4A4A4"/>
				<stop  offset="0.824" style="stop-color:#8E8E8E"/>
				<stop  offset="0.8888" style="stop-color:#737373"/>
				<stop  offset="0.946" style="stop-color:#535353"/>
				<stop  offset="0.9983" style="stop-color:#2F2F2F"/>
				<stop  offset="1" style="stop-color:#2E2E2E"/>
			</linearGradient>
			<rect x="168" y="84" style="fill:url(#SVGID_57_);" width="32" height="32"/>
		</g>
		<g id="duilist-fullwidth-right-background-pressed">
			<linearGradient id="SVGID_58_" gradientUnits="userSpaceOnUse" x1="226" y1="74" x2="226" y2="42">
				<stop  offset="0" style="stop-color:#C9C9C9"/>
				<stop  offset="0.4115" style="stop-color:#C8C8C8"/>
				<stop  offset="0.5598" style="stop-color:#C1C1C1"/>
				<stop  offset="0.6654" style="stop-color:#B5B5B5"/>
				<stop  offset="0.7509" style="stop-color:#A4A4A4"/>
				<stop  offset="0.824" style="stop-color:#8E8E8E"/>
				<stop  offset="0.8888" style="stop-color:#737373"/>
				<stop  offset="0.946" style="stop-color:#535353"/>
				<stop  offset="0.9983" style="stop-color:#2F2F2F"/>
				<stop  offset="1" style="stop-color:#2E2E2E"/>
			</linearGradient>
			<rect x="210" y="42" style="fill:url(#SVGID_58_);" width="32" height="32"/>
		</g>
		<g id="duilist-fullwidth-center-background-pressed">
			<linearGradient id="SVGID_59_" gradientUnits="userSpaceOnUse" x1="184" y1="74" x2="184" y2="42">
				<stop  offset="0" style="stop-color:#C9C9C9"/>
				<stop  offset="0.4115" style="stop-color:#C8C8C8"/>
				<stop  offset="0.5598" style="stop-color:#C1C1C1"/>
				<stop  offset="0.6654" style="stop-color:#B5B5B5"/>
				<stop  offset="0.7509" style="stop-color:#A4A4A4"/>
				<stop  offset="0.824" style="stop-color:#8E8E8E"/>
				<stop  offset="0.8888" style="stop-color:#737373"/>
				<stop  offset="0.946" style="stop-color:#535353"/>
				<stop  offset="0.9983" style="stop-color:#2F2F2F"/>
				<stop  offset="1" style="stop-color:#2E2E2E"/>
			</linearGradient>
			<rect x="168" y="42" style="fill:url(#SVGID_59_);" width="32" height="32"/>
		</g>
		<g id="duilist-fullwidth-left-background-pressed">
			<linearGradient id="SVGID_60_" gradientUnits="userSpaceOnUse" x1="142" y1="74" x2="142" y2="42">
				<stop  offset="0" style="stop-color:#C9C9C9"/>
				<stop  offset="0.4115" style="stop-color:#C8C8C8"/>
				<stop  offset="0.5598" style="stop-color:#C1C1C1"/>
				<stop  offset="0.6654" style="stop-color:#B5B5B5"/>
				<stop  offset="0.7509" style="stop-color:#A4A4A4"/>
				<stop  offset="0.824" style="stop-color:#8E8E8E"/>
				<stop  offset="0.8888" style="stop-color:#737373"/>
				<stop  offset="0.946" style="stop-color:#535353"/>
				<stop  offset="0.9983" style="stop-color:#2F2F2F"/>
				<stop  offset="1" style="stop-color:#2E2E2E"/>
			</linearGradient>
			<rect x="126" y="42" style="fill:url(#SVGID_60_);" width="32" height="32"/>
		</g>
		<g id="duilist-single-background">
			<path style="fill:#999999;" d="M74,447.334c0,5.5-4.5,10-10,10H52c-5.5,0-10-4.5-10-10v-12c0-5.5,4.5-10,10-10h12
				c5.5,0,10,4.5,10,10V447.334z"/>
			<path style="fill:#F2F2F2;" d="M72,447.334c0,4.399-3.6,8-8,8H52c-4.4,0-8-3.601-8-8v-12c0-4.4,3.6-8,8-8h12c4.4,0,8,3.6,8,8
				V447.334z"/>
		</g>
		<g id="duilist-singlecolumn-bottom-background">
			<path style="fill:#999999;" d="M74,384v22c0,5.5-4.5,10-10,10H52c-5.5,0-10-4.5-10-10v-22H74z"/>
			<path style="fill:#F2F2F2;" d="M72,386v20c0,4.4-3.6,8-8,8H52c-4.399,0-8-3.6-8-8v-20H72z"/>
			<rect x="44" y="384" style="fill:#FFFFFF;" width="28" height="2"/>
		</g>
		<g id="duilist-singlecolumn-center-background">
			<rect x="42" y="342" style="fill:#999999;" width="32" height="32"/>
			<rect x="44" y="342" style="fill:#FFFFFF;" width="28" height="2"/>
			<rect x="44" y="344" style="fill:#F5F6F6;" width="28" height="28"/>
		</g>
		<g id="duilist-singlecolumn-top-background">
			<path style="fill:#999999;" d="M42,332v-22c0-5.5,4.5-10,10-10h12c5.5,0,10,4.5,10,10v22H42z"/>
			<path style="fill:#F2F2F2;" d="M44,330v-20c0-4.4,3.6-8,8-8h12c4.398,0,8,3.6,8,8v20H44z"/>
		</g>
		<g id="duilist-singlerow-right-background">
			<path style="fill:#999999;" d="M84,258h22c5.5,0,10,4.5,10,10v12c0,5.5-4.5,10-10,10H84V258z"/>
			<path style="fill:#F2F2F2;" d="M86,260h20c4.4,0,8,3.6,8,8v12c0,4.399-3.6,8-8,8H86V260z"/>
		</g>
		<g id="duilist-singlerow-center-background">
			<rect x="42" y="258" style="fill:#999999;" width="32" height="32"/>
			<rect x="72" y="260" style="fill:#FFFFFF;" width="2" height="28"/>
			<rect x="44" y="260" style="fill:#F5F6F6;" width="28" height="28"/>
		</g>
		<g id="duilist-singlerow-left-background">
			<path style="fill:#999999;" d="M32,290H10c-5.5,0-10-4.5-10-10v-12c0-5.5,4.5-10,10-10h22V290z"/>
			<path style="fill:#F2F2F2;" d="M32,288H10c-4.4,0-8-3.601-8-8v-12c0-4.4,3.6-8,8-8h22V288z"/>
			<rect x="30" y="260" style="fill:#FFFFFF;" width="2" height="28"/>
		</g>
		<g id="duilist-bottomright-background">
			<path style="fill:#999999;" d="M106,248c5.5,0,10-4.5,10-10v-22H84v32H106z"/>
			<path style="fill:#F2F2F2;" d="M86,246h20c4.4,0,8-3.6,8-8v-20H86V246z"/>
			<rect x="86" y="216" style="fill:#FFFFFF;" width="28" height="2"/>
		</g>
		<g id="duilist-bottom-background">
			<rect x="42" y="216" style="fill:#999999;" width="32" height="32"/>
			<rect x="44" y="216" style="fill:#FFFFFF;" width="30" height="30"/>
			<rect x="44" y="218" style="fill:#F5F6F6;" width="28" height="28"/>
		</g>
		<g id="duilist-bottomleft-background">
			<path style="fill:#999999;" d="M0,238.001c0,5.5,4.5,10,10,10L32,248v-32l-32,0.001V238.001z"/>
			<path style="fill:#F2F2F2;" d="M2,218.001v20c0,4.4,3.6,8,8,8h20v-28H2z"/>
			<polygon style="fill:#FFFFFF;" points="2,216 2,218.001 30,218.001 30,246.001 32,246.001 32,216 			"/>
		</g>
		<g id="duilist-right-background">
			<rect x="84" y="174" style="fill:#999999;" width="32" height="32"/>
			<rect x="86" y="174" style="fill:#FFFFFF;" width="28" height="2"/>
			<rect x="86" y="176" style="fill:#F5F6F6;" width="28" height="28"/>
		</g>
		<g id="duilist-center-background">
			<rect x="42" y="174" style="fill:#999999;" width="32" height="32"/>
			<polygon style="fill:#FFFFFF;" points="44,174 44,176 72,176 72,204 74,204 74,174 			"/>
			<rect x="44" y="176" style="fill:#F5F6F6;" width="28" height="28"/>
		</g>
		<g id="duilist-left-background">
			<rect y="174" style="fill:#999999;" width="32" height="32"/>
			<polygon style="fill:#FFFFFF;" points="2,174 2,176 30,176 30,204 32,204 32,174 			"/>
			<rect x="2" y="176" style="fill:#F5F6F6;" width="28" height="28"/>
		</g>
		<g id="duilist-topright-background">
			<path style="fill:#999999;" d="M116,142c0-5.5-4.5-10-10-10H84v32h32V142z"/>
			<path style="fill:#F2F2F2;" d="M114,162v-20c0-4.4-3.6-8-8-8H86v28H114z"/>
		</g>
		<g id="duilist-top-background">
			<rect x="42" y="132" style="fill:#999999;" width="32" height="32"/>
			<rect x="44" y="134" style="fill:#F5F6F6;" width="28" height="28"/>
			<rect x="72.002" y="134" style="fill:#FFFFFF;" width="1.998" height="28"/>
		</g>
		<g id="duilist-topleft-background">
			<path style="fill:#999999;" d="M0,142c0-5.5,4.5-10,10-10h22v32H0V142z"/>
			<path style="fill:#F2F2F2;" d="M2,162v-20c0-4.4,3.6-8,8-8h20v28H2z"/>
			<rect x="30" y="134" style="fill:#FFFFFF;" width="2" height="28"/>
		</g>
		<g id="duilist-fullwidth-background">
			<rect x="42" y="84" style="fill:#999999;" width="32" height="32"/>
			<polyline style="fill:#F5F6F6;" points="74,114 42,114 42,86 74,86 			"/>
			<rect x="42" y="84" style="fill:#FFFFFF;" width="32" height="2"/>
		</g>
		<g id="duilist-fullwidth-right-background">
			<rect x="84" y="42" style="fill:#999999;" width="32" height="32"/>
			<polyline style="fill:#F5F6F6;" points="116,72 86,72 86,42 116,42 			"/>
			<rect x="86" y="42" style="fill:#FFFFFF;" width="30" height="2"/>
		</g>
		<g id="duilist-fullwidth-center-background">
			<rect x="42" y="42" style="fill:#999999;" width="32" height="32"/>
			<polyline style="fill:#F5F6F6;" points="74,72 44,72 44,42 74,42 			"/>
			<polygon style="fill:#FFFFFF;" points="73.999,42 44,42 44,44 71.999,44 71.999,72 73.999,72 			"/>
		</g>
		<g id="duilist-fullwidth-left-background">
			<rect y="42" style="fill:#F5F6F6;" width="32" height="32"/>
			<rect y="71.834" style="fill:#999999;" width="32" height="2"/>
			<polygon style="fill:#FFFFFF;" points="0,42 0,44 30,44 30,71.834 32,71.834 32,42 			"/>
		</g>
		<g id="duilist-header-background">
			<linearGradient id="SVGID_61_" gradientUnits="userSpaceOnUse" x1="48" y1="32" x2="48" y2="3.197442e-14">
				<stop  offset="0" style="stop-color:#010101"/>
				<stop  offset="1" style="stop-color:#333333"/>
			</linearGradient>
			<rect style="fill:url(#SVGID_61_);" width="96" height="32"/>
		</g>
	</g>
</g>
</svg>
