<?xml version="1.0" encoding="UTF-8" standalone="no"?>
<!-- Created with Inkscape (http://www.inkscape.org/) -->

<svg
   xmlns:dc="http://purl.org/dc/elements/1.1/"
   xmlns:cc="http://creativecommons.org/ns#"
   xmlns:rdf="http://www.w3.org/1999/02/22-rdf-syntax-ns#"
   xmlns:svg="http://www.w3.org/2000/svg"
   xmlns="http://www.w3.org/2000/svg"
   xmlns:xlink="http://www.w3.org/1999/xlink"
   xmlns:sodipodi="http://sodipodi.sourceforge.net/DTD/sodipodi-0.dtd"
   xmlns:inkscape="http://www.inkscape.org/namespaces/inkscape"
   width="800"
   height="800"
   id="svg6561"
   sodipodi:version="0.32"
   inkscape:version="0.47pre4 r22446"
   version="1.0"
   sodipodi:docname="duimenu.svg"
   inkscape:output_extension="org.inkscape.output.svg.inkscape">
  <defs
     id="defs6563">
    <linearGradient
       id="linearGradient4757"
       inkscape:collect="always">
      <stop
         id="stop4759"
         offset="0"
         style="stop-color:#2e3436;stop-opacity:1" />
      <stop
         id="stop4761"
         offset="1"
         style="stop-color:#494b47;stop-opacity:1" />
    </linearGradient>
    <linearGradient
       inkscape:collect="always"
       id="linearGradient2393">
      <stop
         style="stop-color:#282925;stop-opacity:1"
         offset="0"
         id="stop2395" />
      <stop
         style="stop-color:#41433f;stop-opacity:1"
         offset="1"
         id="stop2397" />
    </linearGradient>
    <inkscape:perspective
       sodipodi:type="inkscape:persp3d"
       inkscape:vp_x="0 : 400 : 1"
       inkscape:vp_y="0 : 1000 : 0"
       inkscape:vp_z="800 : 400 : 1"
       inkscape:persp3d-origin="400 : 266.66667 : 1"
       id="perspective25" />
    <linearGradient
       inkscape:collect="always"
       xlink:href="#linearGradient2393"
       id="linearGradient2399"
       x1="569.75"
       y1="96.045456"
       x2="569.75"
       y2="230.93399"
       gradientUnits="userSpaceOnUse" />
    <linearGradient
       inkscape:collect="always"
       xlink:href="#linearGradient2393"
       id="linearGradient2832"
       gradientUnits="userSpaceOnUse"
       x1="569.75"
       y1="96.045456"
       x2="569.75"
       y2="230.93399" />
    <linearGradient
       inkscape:collect="always"
       xlink:href="#linearGradient2393"
       id="linearGradient3615"
       gradientUnits="userSpaceOnUse"
       x1="535"
       y1="230.93291"
       x2="533.5"
       y2="121.33382" />
    <inkscape:perspective
       id="perspective6616"
       inkscape:persp3d-origin="0.5 : 0.33333333 : 1"
       inkscape:vp_z="1 : 0.5 : 1"
       inkscape:vp_y="0 : 1000 : 0"
       inkscape:vp_x="0 : 0.5 : 1"
       sodipodi:type="inkscape:persp3d" />
    <linearGradient
       inkscape:collect="always"
       xlink:href="#linearGradient2393"
       id="linearGradient6645"
       gradientUnits="userSpaceOnUse"
       x1="569.75"
       y1="96.045456"
       x2="569.75"
       y2="230.93399" />
    <linearGradient
       inkscape:collect="always"
       xlink:href="#linearGradient2393"
       id="linearGradient6647"
       gradientUnits="userSpaceOnUse"
       x1="569.75"
       y1="96.045456"
       x2="569.75"
       y2="230.93399" />
    <linearGradient
       inkscape:collect="always"
       xlink:href="#linearGradient2393"
       id="linearGradient6649"
       gradientUnits="userSpaceOnUse"
       x1="569.75"
       y1="96.045456"
       x2="569.75"
       y2="230.93399" />
    <inkscape:perspective
       id="perspective6659"
       inkscape:persp3d-origin="0.5 : 0.33333333 : 1"
       inkscape:vp_z="1 : 0.5 : 1"
       inkscape:vp_y="0 : 1000 : 0"
       inkscape:vp_x="0 : 0.5 : 1"
       sodipodi:type="inkscape:persp3d" />
    <linearGradient
       inkscape:collect="always"
       xlink:href="#linearGradient2393"
       id="linearGradient6733"
       gradientUnits="userSpaceOnUse"
       x1="569.75"
       y1="96.045456"
       x2="569.75"
       y2="230.93399" />
    <linearGradient
       inkscape:collect="always"
       xlink:href="#linearGradient2393"
       id="linearGradient6735"
       gradientUnits="userSpaceOnUse"
       x1="569.75"
       y1="96.045456"
       x2="569.75"
       y2="230.93399" />
    <linearGradient
       inkscape:collect="always"
       xlink:href="#linearGradient2393"
       id="linearGradient6737"
       gradientUnits="userSpaceOnUse"
       x1="569.75"
       y1="96.045456"
       x2="569.75"
       y2="230.93399" />
    <linearGradient
       inkscape:collect="always"
       xlink:href="#linearGradient2393"
       id="linearGradient6739"
       gradientUnits="userSpaceOnUse"
       x1="569.75"
       y1="96.045456"
       x2="569.75"
       y2="230.93399" />
    <linearGradient
       inkscape:collect="always"
       xlink:href="#linearGradient2393"
       id="linearGradient6741"
       gradientUnits="userSpaceOnUse"
       x1="569.75"
       y1="96.045456"
       x2="569.75"
       y2="230.93399" />
    <linearGradient
       inkscape:collect="always"
       xlink:href="#linearGradient2393"
       id="linearGradient6743"
       gradientUnits="userSpaceOnUse"
       x1="569.75"
       y1="96.045456"
       x2="569.75"
       y2="230.93399" />
    <linearGradient
       inkscape:collect="always"
       xlink:href="#linearGradient2393"
       id="linearGradient6745"
       gradientUnits="userSpaceOnUse"
       x1="569.75"
       y1="96.045456"
       x2="569.75"
       y2="230.93399" />
    <linearGradient
       inkscape:collect="always"
       xlink:href="#linearGradient2393"
       id="linearGradient6747"
       gradientUnits="userSpaceOnUse"
       x1="569.75"
       y1="96.045456"
       x2="569.75"
       y2="230.93399" />
    <linearGradient
       inkscape:collect="always"
       xlink:href="#linearGradient2393"
       id="linearGradient6749"
       gradientUnits="userSpaceOnUse"
       x1="569.75"
       y1="96.045456"
       x2="569.75"
       y2="230.93399" />
    <linearGradient
       inkscape:collect="always"
       xlink:href="#linearGradient2393"
       id="linearGradient6751"
       gradientUnits="userSpaceOnUse"
       x1="569.75"
       y1="96.045456"
       x2="569.75"
       y2="230.93399" />
    <linearGradient
       inkscape:collect="always"
       xlink:href="#linearGradient2393"
       id="linearGradient6753"
       gradientUnits="userSpaceOnUse"
       x1="569.75"
       y1="96.045456"
       x2="569.75"
       y2="230.93399" />
    <linearGradient
       inkscape:collect="always"
       xlink:href="#linearGradient2393"
       id="linearGradient6755"
       gradientUnits="userSpaceOnUse"
       x1="569.75"
       y1="96.045456"
       x2="569.75"
       y2="230.93399" />
    <inkscape:perspective
       id="perspective2887"
       inkscape:persp3d-origin="0.5 : 0.33333333 : 1"
       inkscape:vp_z="1 : 0.5 : 1"
       inkscape:vp_y="0 : 1000 : 0"
       inkscape:vp_x="0 : 0.5 : 1"
       sodipodi:type="inkscape:persp3d" />
    <linearGradient
       inkscape:collect="always"
       xlink:href="#linearGradient2393-3"
       id="linearGradient6755-9"
       gradientUnits="userSpaceOnUse"
       x1="569.75"
       y1="96.045456"
       x2="569.75"
       y2="230.93399" />
    <linearGradient
       inkscape:collect="always"
       id="linearGradient2393-3">
      <stop
         style="stop-color:#babdb6;stop-opacity:1"
         offset="0"
         id="stop2395-3" />
      <stop
         style="stop-color:#555753;stop-opacity:1"
         offset="1"
         id="stop2397-8" />
    </linearGradient>
    <linearGradient
       inkscape:collect="always"
       xlink:href="#linearGradient2393-3"
       id="linearGradient6733-0"
       gradientUnits="userSpaceOnUse"
       x1="569.75"
       y1="96.045456"
       x2="569.75"
       y2="230.93399" />
    <linearGradient
       inkscape:collect="always"
       xlink:href="#linearGradient2393-3"
       id="linearGradient6753-5"
       gradientUnits="userSpaceOnUse"
       x1="569.75"
       y1="96.045456"
       x2="569.75"
       y2="230.93399" />
    <linearGradient
       inkscape:collect="always"
       xlink:href="#linearGradient2393-3"
       id="linearGradient6735-6"
       gradientUnits="userSpaceOnUse"
       x1="569.75"
       y1="96.045456"
       x2="569.75"
       y2="230.93399" />
    <linearGradient
       inkscape:collect="always"
       xlink:href="#linearGradient2393-3"
       id="linearGradient6737-6"
       gradientUnits="userSpaceOnUse"
       x1="569.75"
       y1="96.045456"
       x2="569.75"
       y2="230.93399" />
    <linearGradient
       inkscape:collect="always"
       xlink:href="#linearGradient2393-3"
       id="linearGradient6739-4"
       gradientUnits="userSpaceOnUse"
       x1="569.75"
       y1="96.045456"
       x2="569.75"
       y2="230.93399" />
    <linearGradient
       inkscape:collect="always"
       xlink:href="#linearGradient2393-3"
       id="linearGradient6741-0"
       gradientUnits="userSpaceOnUse"
       x1="569.75"
       y1="96.045456"
       x2="569.75"
       y2="230.93399" />
    <linearGradient
       inkscape:collect="always"
       xlink:href="#linearGradient2393-3"
       id="linearGradient6743-0"
       gradientUnits="userSpaceOnUse"
       x1="569.75"
       y1="96.045456"
       x2="569.75"
       y2="230.93399" />
    <linearGradient
       inkscape:collect="always"
       xlink:href="#linearGradient2393-3"
       id="linearGradient6745-4"
       gradientUnits="userSpaceOnUse"
       x1="569.75"
       y1="96.045456"
       x2="569.75"
       y2="230.93399" />
    <linearGradient
       inkscape:collect="always"
       xlink:href="#linearGradient2393-3"
       id="linearGradient6747-6"
       gradientUnits="userSpaceOnUse"
       x1="569.75"
       y1="96.045456"
       x2="569.75"
       y2="230.93399" />
    <linearGradient
       inkscape:collect="always"
       xlink:href="#linearGradient2393-3"
       id="linearGradient6749-2"
       gradientUnits="userSpaceOnUse"
       x1="569.75"
       y1="96.045456"
       x2="569.75"
       y2="230.93399" />
    <linearGradient
       inkscape:collect="always"
       xlink:href="#linearGradient2393-3"
       id="linearGradient6751-6"
       gradientUnits="userSpaceOnUse"
       x1="569.75"
       y1="96.045456"
       x2="569.75"
       y2="230.93399" />
    <linearGradient
       inkscape:collect="always"
       xlink:href="#linearGradient2393-3"
       id="linearGradient6649-7"
       gradientUnits="userSpaceOnUse"
       x1="569.75"
       y1="96.045456"
       x2="569.75"
       y2="230.93399" />
    <linearGradient
       inkscape:collect="always"
       xlink:href="#linearGradient2393-3"
       id="linearGradient6645-5"
       gradientUnits="userSpaceOnUse"
       x1="569.75"
       y1="96.045456"
       x2="569.75"
       y2="230.93399" />
    <linearGradient
       inkscape:collect="always"
       xlink:href="#linearGradient2393-3"
       id="linearGradient6647-6"
       gradientUnits="userSpaceOnUse"
       x1="569.75"
       y1="96.045456"
       x2="569.75"
       y2="230.93399" />
    <linearGradient
       y2="230.93399"
       x2="569.75"
       y1="96.045456"
       x1="569.75"
       gradientUnits="userSpaceOnUse"
       id="linearGradient3022"
       xlink:href="#linearGradient2393-3"
       inkscape:collect="always" />
    <linearGradient
       inkscape:collect="always"
       xlink:href="#linearGradient2393"
       id="linearGradient4751"
       gradientUnits="userSpaceOnUse"
       x1="535"
       y1="230.93291"
       x2="538.01697"
       y2="111.47987" />
    <linearGradient
       inkscape:collect="always"
       xlink:href="#linearGradient4757"
       id="linearGradient4755"
       gradientUnits="userSpaceOnUse"
       x1="535"
       y1="230.93291"
       x2="535"
       y2="118.09615" />
    <inkscape:perspective
       id="perspective3529"
       inkscape:persp3d-origin="0.5 : 0.33333333 : 1"
       inkscape:vp_z="1 : 0.5 : 1"
       inkscape:vp_y="0 : 1000 : 0"
       inkscape:vp_x="0 : 0.5 : 1"
       sodipodi:type="inkscape:persp3d" />
  </defs>
  <sodipodi:namedview
     id="base"
     pagecolor="#ffffff"
     bordercolor="#666666"
     borderopacity="1.0"
     gridtolerance="10000"
     guidetolerance="10"
     objecttolerance="10"
     inkscape:pageopacity="0.0"
     inkscape:pageshadow="2"
     inkscape:zoom="4"
     inkscape:cx="75.181162"
     inkscape:cy="631.92266"
     inkscape:document-units="px"
     inkscape:current-layer="duimenu-background"
     showgrid="true"
     units="px"
     showborder="true"
     inkscape:showpageshadow="false"
     inkscape:window-width="2560"
     inkscape:window-height="1532"
     inkscape:window-x="0"
     inkscape:window-y="25"
     inkscape:snap-bbox="true"
     inkscape:snap-nodes="false"
     inkscape:window-maximized="1">
    <inkscape:grid
       type="xygrid"
       id="grid6571"
       visible="true"
       enabled="true"
       units="px"
       spacingx="1px"
       spacingy="1px"
       empspacing="10"
       dotted="false"
       color="#ffffff"
       opacity="0.05882353"
       empcolor="#ffffff"
       empopacity="0.12941176" />
  </sodipodi:namedview>
  <metadata
     id="metadata6566">
    <rdf:RDF>
      <cc:Work
         rdf:about="">
        <dc:format>image/svg+xml</dc:format>
        <dc:type
           rdf:resource="http://purl.org/dc/dcmitype/StillImage" />
      </cc:Work>
    </rdf:RDF>
  </metadata>
  <g
     inkscape:label="background"
     inkscape:groupmode="layer"
     id="layer1"
     sodipodi:insensitive="true">
    <rect
       style="opacity:1;fill:#002434;fill-opacity:1;stroke:none;stroke-width:0.93505001;stroke-linecap:round;stroke-linejoin:round;stroke-miterlimit:4;stroke-dasharray:none;stroke-opacity:1"
       id="rect7549"
       width="800"
       height="800"
       x="0"
       y="6.5565109e-07" />
  </g>
  <g
     inkscape:groupmode="layer"
     id="layer2"
     inkscape:label="content"
     style="display:inline">
    <text
       xml:space="preserve"
       style="font-size:40px;font-style:normal;font-weight:normal;fill:#000000;fill-opacity:1;stroke:none;stroke-width:1px;stroke-linecap:butt;stroke-linejoin:miter;stroke-opacity:1;font-family:Bitstream Vera Sans"
       x="17.117188"
       y="55.71492"
       id="text7551"><tspan
         sodipodi:role="line"
         id="tspan7553"
         x="17.117188"
         y="55.71492"
         style="font-size:48px;font-style:normal;font-variant:normal;font-weight:normal;font-stretch:normal;fill:#888888;fill-opacity:1;font-family:Bitstream Vera Sans Mono;-inkscape-font-specification:Bitstream Vera Sans Mono">dui<tspan
   style="font-size:48px;fill:#aaaaaa"
   id="tspan7563">menu</tspan></tspan></text>
    <g
       id="duimenu-divider-background"
       inkscape:label="#g13889"
       transform="matrix(0.25,0,0,0.4583333,-90,44.166659)"
       style="opacity:0.5">
      <rect
         style="opacity:1;fill:#ffffff;fill-opacity:1"
         id="rect2473"
         width="8"
         height="139.63637"
         x="440"
         y="91.272736"
         rx="0"
         ry="0"
         inkscape:label="" />
    </g>
    <g
       transform="matrix(0.98603975,0,0,0.98605677,286.94722,156.94618)"
       id="icon-m-list"
       style="fill:url(#linearGradient6649-7);fill-opacity:1;display:inline">
      <use
         xlink:href="#background_x5F_64"
         width="63.999001"
         height="64"
         id="background_x5F_64_57_"
         x="-31.999001"
         y="-32"
         transform="matrix(1,0,0,-1,31.9995,32)"
         style="fill:url(#linearGradient6645-5);overflow:visible" />
      <g
         id="Icon-list-view-off_5_"
         style="fill:url(#linearGradient3022)">
        <path
           style="fill:#ffffff"
           d="m 7.125,11.156 c -2.224,0 -4.028,-1.811 -4.028,-4.027 l 0,0 c 0,-2.228 1.804,-4.032 4.028,-4.032 l 0,0 h 49.75 c 2.227,0 4.028,1.805 4.028,4.032 l 0,0 c 0,2.217 -1.802,4.027 -4.028,4.027 l 0,0 H 7.125 l 0,0 z"
           id="path6594" />
        <path
           style="fill:#ffffff"
           d="m 7.125,35.346 c -2.224,0 -4.026,-1.802 -4.026,-4.029 l 0,0 c 0,-2.229 1.802,-4.035 4.026,-4.035 l 0,0 h 49.748 c 2.229,0 4.03,1.807 4.03,4.035 l 0,0 c 0,2.228 -1.802,4.029 -4.03,4.029 l 0,0 H 7.125 l 0,0 z"
           id="path6596" />
        <path
           style="fill:#ffffff"
           d="m 7.126,60.903 c -2.222,0 -4.03,-1.807 -4.03,-4.025 l 0,0 c 0,-2.234 1.808,-4.041 4.03,-4.041 l 0,0 h 49.748 c 2.225,0 4.028,1.807 4.028,4.041 l 0,0 c 0,2.219 -1.804,4.025 -4.028,4.025 l 0,0 H 7.126 l 0,0 z"
           id="path6598" />
      </g>
    </g>
    <g
       transform="matrix(0.98605681,0,0,0.98605681,216.94717,156.94618)"
       id="icon-m-grid"
       style="fill:url(#linearGradient6755-9);fill-opacity:1;display:inline">
      <use
         xlink:href="#background_x5F_64"
         width="63.999001"
         height="64"
         id="background_x5F_64_59_"
         x="-31.999001"
         y="-32"
         transform="matrix(1,0,0,-1,31.9995,32)"
         style="fill:url(#linearGradient6733-0);overflow:visible" />
      <g
         id="Icon-grid-view-off_2_"
         style="fill:url(#linearGradient6753-5)">
        <g
           id="g6543"
           style="fill:url(#linearGradient6735-6)">
          <path
             style="fill:#ffffff"
             d="m 39.225,15.381 c 0,1.191 -0.977,2.168 -2.168,2.168 H 26.941 c -1.192,0 -2.168,-0.977 -2.168,-2.168 V 5.264 c 0,-1.191 0.976,-2.167 2.168,-2.167 h 10.116 c 1.191,0 2.168,0.976 2.168,2.167 v 10.117 z"
             id="path6545" />
        </g>
        <g
           id="g6547"
           style="fill:url(#linearGradient6737-6)">
          <path
             style="fill:#ffffff"
             d="m 60.902,15.381 c 0,1.191 -0.977,2.168 -2.168,2.168 H 48.617 c -1.191,0 -2.166,-0.977 -2.166,-2.168 V 5.264 c 0,-1.191 0.975,-2.167 2.166,-2.167 h 10.117 c 1.191,0 2.168,0.976 2.168,2.167 v 10.117 z"
             id="path6549" />
        </g>
        <g
           id="g6551"
           style="fill:url(#linearGradient6739-4)">
          <path
             style="fill:#ffffff"
             d="m 39.225,37.059 c 0,1.191 -0.977,2.167 -2.168,2.167 H 26.941 c -1.192,0 -2.168,-0.976 -2.168,-2.167 V 26.941 c 0,-1.191 0.976,-2.167 2.168,-2.167 h 10.116 c 1.191,0 2.168,0.976 2.168,2.167 v 10.118 z"
             id="path6553" />
        </g>
        <g
           id="g6555"
           style="fill:url(#linearGradient6741-0)">
          <path
             style="fill:#ffffff"
             d="m 60.902,37.059 c 0,1.191 -0.977,2.167 -2.168,2.167 H 48.617 c -1.191,0 -2.166,-0.976 -2.166,-2.167 V 26.941 c 0,-1.191 0.975,-2.167 2.166,-2.167 h 10.117 c 1.191,0 2.168,0.976 2.168,2.167 v 10.118 z"
             id="path6557" />
        </g>
        <g
           id="g6559"
           style="fill:url(#linearGradient6743-0)">
          <path
             style="fill:#ffffff"
             d="m 17.547,15.381 c 0,1.191 -0.976,2.168 -2.167,2.168 H 5.263 c -1.191,0 -2.167,-0.977 -2.167,-2.168 V 5.264 c 0,-1.191 0.976,-2.167 2.167,-2.167 H 15.38 c 1.191,0 2.167,0.976 2.167,2.167 v 10.117 z"
             id="path6561" />
        </g>
        <g
           id="g6563"
           style="fill:url(#linearGradient6745-4)">
          <path
             style="fill:#ffffff"
             d="m 17.547,37.059 c 0,1.191 -0.976,2.167 -2.167,2.167 H 5.263 c -1.191,0 -2.167,-0.976 -2.167,-2.167 V 26.941 c 0,-1.191 0.976,-2.167 2.167,-2.167 H 15.38 c 1.191,0 2.167,0.976 2.167,2.167 v 10.118 z"
             id="path6565" />
        </g>
        <g
           id="g6567"
           style="fill:url(#linearGradient6747-6)">
          <path
             style="fill:#ffffff"
             d="m 17.547,58.736 c 0,1.191 -0.976,2.167 -2.167,2.167 H 5.263 c -1.191,0 -2.167,-0.976 -2.167,-2.167 V 48.619 c 0,-1.191 0.976,-2.168 2.167,-2.168 H 15.38 c 1.191,0 2.167,0.977 2.167,2.168 v 10.117 z"
             id="path6569" />
        </g>
        <g
           id="g6571"
           style="fill:url(#linearGradient6749-2)">
          <path
             style="fill:#ffffff"
             d="m 39.225,58.736 c 0,1.191 -0.977,2.167 -2.168,2.167 H 26.941 c -1.192,0 -2.168,-0.976 -2.168,-2.167 V 48.619 c 0,-1.191 0.976,-2.168 2.168,-2.168 h 10.116 c 1.191,0 2.168,0.977 2.168,2.168 v 10.117 z"
             id="path6573" />
        </g>
        <g
           id="g6575"
           style="fill:url(#linearGradient6751-6)">
          <path
             style="fill:#ffffff"
             d="m 60.902,58.736 c 0,1.191 -0.977,2.167 -2.168,2.167 H 48.617 c -1.191,0 -2.166,-0.976 -2.166,-2.167 V 48.619 c 0,-1.191 0.975,-2.168 2.166,-2.168 h 10.117 c 1.191,0 2.168,0.977 2.168,2.168 v 10.117 z"
             id="path6577" />
        </g>
      </g>
    </g>
    <text
       xml:space="preserve"
       style="font-size:40px;font-style:normal;font-weight:normal;fill:#eeeeec;fill-opacity:1;stroke:none;display:inline;font-family:Bitstream Vera Sans"
       x="197"
       y="195"
       id="text6757"
       transform="matrix(0.50088277,0,0,0.50088276,89.507481,37.55)"><tspan
         sodipodi:role="line"
         id="tspan6759"
         x="197"
         y="195">here just for the demo...</tspan></text>
    <g
       id="icon-m-menuarrow"
       inkscape:label="#g7022">
      <path
         transform="matrix(1.0150817,0,0,1.0181891,-5.9347879,-3.4298474)"
         sodipodi:nodetypes="cccc"
         id="path6510"
         d="m 360.51398,160.51031 32.51021,56.11164 33.4782,-56.08921 -65.98841,-0.0224 z"
         style="fill:#eeeeec;stroke:none" />
    </g>
    <g
       transform="translate(23.334,-722)"
       id="duimenu-background"
       inkscape:label="#duimenu-background">
      <path
         style="fill:#ededed;fill-opacity:1"
         d="m 106.666,803 v 88 c 0,6.6 -5.4,12 -12,12 h -64 c -6.6,0 -12,-5.4 -12,-12 v -88 h 88 z"
         id="path19" />
      <path
         style="fill:#dcdcdc;fill-opacity:1"
         d="m 104.666,803 v 88 c 0,5.5 -4.5,10 -10,10 h -64 c -5.5,0 -10,-4.5 -10,-10 v -88 h 84 z"
         id="path21" />
    </g>
  </g>
  <g
     inkscape:groupmode="layer"
     id="layer4"
     inkscape:label="texts"
     sodipodi:insensitive="true"
     style="display:none">
    <text
       xml:space="preserve"
       style="font-size:40px;font-style:normal;font-weight:normal;fill:#000000;fill-opacity:1;stroke:none;stroke-width:1px;stroke-linecap:butt;stroke-linejoin:miter;stroke-opacity:1;display:inline;font-family:Bitstream Vera Sans"
       x="38.832031"
       y="183.22266"
       id="text10701"><tspan
         sodipodi:role="line"
         id="tspan10703"
         x="38.832031"
         y="183.22266"
         style="font-size:48px;font-style:normal;font-variant:normal;font-weight:normal;font-stretch:normal;fill:#ffffff;fill-opacity:1;font-family:Nokia Sans;-inkscape-font-specification:Nokia Sans">Norm      <tspan
   style="fill:#000000;fill-opacity:1"
   id="tspan10738">Pres</tspan>      Disa</tspan></text>
  </g>
</svg>
