<?xml version="1.0" encoding="UTF-8" standalone="no"?>
<!-- Generator: Adobe Illustrator 14.0.0, SVG Export Plug-In . SVG Version: 6.00 Build 43363)  -->

<svg
   xmlns:dc="http://purl.org/dc/elements/1.1/"
   xmlns:cc="http://creativecommons.org/ns#"
   xmlns:rdf="http://www.w3.org/1999/02/22-rdf-syntax-ns#"
   xmlns:svg="http://www.w3.org/2000/svg"
   xmlns="http://www.w3.org/2000/svg"
   xmlns:xlink="http://www.w3.org/1999/xlink"
   xmlns:sodipodi="http://sodipodi.sourceforge.net/DTD/sodipodi-0.dtd"
   xmlns:inkscape="http://www.inkscape.org/namespaces/inkscape"
   version="1.1"
   x="0px"
   y="0px"
   width="190px"
   height="924px"
   viewBox="0 0 190 924"
   style="enable-background:new 0 0 190 924;"
   xml:space="preserve"
   id="svg2"
   inkscape:version="0.47pre4 r22446"
   sodipodi:docname="duinavigationbar.svg"><metadata
   id="metadata434"><rdf:RDF><cc:Work
       rdf:about=""><dc:format>image/svg+xml</dc:format><dc:type
         rdf:resource="http://purl.org/dc/dcmitype/StillImage" /></cc:Work></rdf:RDF></metadata><defs
   id="defs432"><inkscape:perspective
   sodipodi:type="inkscape:persp3d"
   inkscape:vp_x="0 : 462 : 1"
   inkscape:vp_y="0 : 1000 : 0"
   inkscape:vp_z="190 : 462 : 1"
   inkscape:persp3d-origin="95 : 308 : 1"
   id="perspective436" />
	
<linearGradient
   inkscape:collect="always"
   xlink:href="#SVGID_1_"
   id="linearGradient3474"
   gradientUnits="userSpaceOnUse"
   x1="64.000504"
   y1="900"
   x2="64.000504"
   y2="800" /><linearGradient
   inkscape:collect="always"
   xlink:href="#SVGID_2_"
   id="linearGradient3476"
   gradientUnits="userSpaceOnUse"
   x1="64.000504"
   y1="760"
   x2="64.000504"
   y2="660" /><linearGradient
   inkscape:collect="always"
   xlink:href="#SVGID_3_"
   id="linearGradient3478"
   gradientUnits="userSpaceOnUse"
   x1="130"
   y1="644"
   x2="130"
   y2="584" /><linearGradient
   inkscape:collect="always"
   xlink:href="#SVGID_4_"
   id="linearGradient3480"
   gradientUnits="userSpaceOnUse"
   x1="130"
   y1="639"
   x2="130"
   y2="589" /><linearGradient
   inkscape:collect="always"
   xlink:href="#SVGID_5_"
   id="linearGradient3482"
   gradientUnits="userSpaceOnUse"
   x1="50"
   y1="644"
   x2="50"
   y2="584" /><linearGradient
   inkscape:collect="always"
   xlink:href="#SVGID_6_"
   id="linearGradient3484"
   gradientUnits="userSpaceOnUse"
   x1="130"
   y1="557"
   x2="130"
   y2="507" /><linearGradient
   inkscape:collect="always"
   xlink:href="#SVGID_7_"
   id="linearGradient3486"
   gradientUnits="userSpaceOnUse"
   x1="50"
   y1="562"
   x2="50"
   y2="502" /><linearGradient
   inkscape:collect="always"
   xlink:href="#SVGID_8_"
   id="linearGradient3488"
   gradientUnits="userSpaceOnUse"
   x1="130"
   y1="480"
   x2="130"
   y2="420.00049" /><linearGradient
   inkscape:collect="always"
   xlink:href="#SVGID_9_"
   id="linearGradient3490"
   gradientUnits="userSpaceOnUse"
   x1="50"
   y1="480"
   x2="50"
   y2="420.00049" /><linearGradient
   inkscape:collect="always"
   xlink:href="#SVGID_10_"
   id="linearGradient3492"
   gradientUnits="userSpaceOnUse"
   x1="130"
   y1="398"
   x2="130"
   y2="338" /><linearGradient
   inkscape:collect="always"
   xlink:href="#SVGID_11_"
   id="linearGradient3494"
   gradientUnits="userSpaceOnUse"
   x1="130"
   y1="393"
   x2="130"
   y2="343" /><linearGradient
   inkscape:collect="always"
   xlink:href="#SVGID_12_"
   id="linearGradient3496"
   gradientUnits="userSpaceOnUse"
   x1="50"
   y1="398"
   x2="50"
   y2="338" /><linearGradient
   inkscape:collect="always"
   xlink:href="#SVGID_13_"
   id="linearGradient3498"
   gradientUnits="userSpaceOnUse"
   x1="130"
   y1="316"
   x2="130"
   y2="256" /><linearGradient
   inkscape:collect="always"
   xlink:href="#SVGID_14_"
   id="linearGradient3500"
   gradientUnits="userSpaceOnUse"
   x1="130"
   y1="311"
   x2="130"
   y2="261" /><linearGradient
   inkscape:collect="always"
   xlink:href="#SVGID_15_"
   id="linearGradient3502"
   gradientUnits="userSpaceOnUse"
   x1="50"
   y1="316"
   x2="50"
   y2="256" /><linearGradient
   inkscape:collect="always"
   xlink:href="#SVGID_16_"
   id="linearGradient3504"
   gradientUnits="userSpaceOnUse"
   x1="56"
   y1="240"
   x2="56"
   y2="168" /><linearGradient
   inkscape:collect="always"
   xlink:href="#SVGID_17_"
   id="linearGradient3506"
   gradientUnits="userSpaceOnUse"
   x1="56"
   y1="235"
   x2="56"
   y2="173" /><linearGradient
   inkscape:collect="always"
   xlink:href="#SVGID_18_"
   id="linearGradient3508"
   gradientUnits="userSpaceOnUse"
   x1="93.000504"
   y1="161"
   x2="93.000504"
   y2="89" />
		
		
		
		
		
		
		
		
		
		
		
		
		
		
		
		
	<linearGradient
   inkscape:collect="always"
   xlink:href="#SVGID_18_"
   id="linearGradient3765"
   gradientUnits="userSpaceOnUse"
   x1="93.000504"
   y1="161"
   x2="93.000504"
   y2="89" /></defs><sodipodi:namedview
   pagecolor="#ffffff"
   bordercolor="#666666"
   borderopacity="1"
   objecttolerance="10"
   gridtolerance="10"
   guidetolerance="10"
   inkscape:pageopacity="0"
   inkscape:pageshadow="2"
   inkscape:window-width="1157"
   inkscape:window-height="1384"
   id="namedview430"
   showgrid="false"
   inkscape:zoom="1.5121677"
   inkscape:cx="54.919485"
   inkscape:cy="567.62787"
   inkscape:window-x="856"
   inkscape:window-y="167"
   inkscape:window-maximized="0"
   inkscape:current-layer="svg2" />
<g
   id="duinavigationbar-layer">
</g>
<g
   id="duinavigationbarThemeTemplateHelper">
			<g
   id="g8">
				<path
   style="fill:#b3b3b3"
   d="M 16,923 C 7.729,923 1,916.271 1,908 V 16 C 1,7.729 7.729,1 16,1 h 158 c 8.271,0 15,6.729 15,15 v 892 c 0,8.271 -6.729,15 -15,15 H 16 z"
   id="path10" />
				<g
   id="g12">
					<path
   d="m 174,2 c 7.72,0 14,6.28 14,14 v 892 c 0,7.72 -6.28,14 -14,14 H 16 C 8.28,922 2,915.72 2,908 V 16 C 2,8.28 8.28,2 16,2 h 158 m 0,-2 H 16 C 7.2,0 0,7.2 0,16 v 892 c 0,8.8 7.2,16 16,16 h 158 c 8.8,0 16,-7.2 16,-16 V 16 C 190,7.2 182.8,0 174,0 l 0,0 z"
   id="path14" />
				</g>
			</g>
			<path
   style="fill:#010101"
   d="M 31.381,34.333 30.92,32.867 c -0.631,1.086 -1.707,1.63 -3.23,1.63 -1.416,0 -2.48,-0.501 -3.195,-1.502 -0.713,-1.001 -1.07,-2.565 -1.07,-4.691 0,-1.784 0.381,-3.241 1.143,-4.373 0.762,-1.132 1.844,-1.697 3.246,-1.697 1.148,0 2.01,0.345 2.584,1.036 v -5.168 h 2.184 v 16.231 h -1.201 z m -0.912,-5.435 -0.012,-0.677 c 0,-1.777 -0.199,-2.978 -0.6,-3.599 -0.4,-0.623 -0.969,-0.934 -1.707,-0.934 -0.82,0 -1.436,0.379 -1.846,1.139 -0.41,0.758 -0.615,1.896 -0.615,3.414 0,1.593 0.197,2.785 0.596,3.578 0.395,0.793 0.99,1.189 1.783,1.189 0.771,0 1.365,-0.287 1.779,-0.861 0.414,-0.574 0.622,-1.656 0.622,-3.249 z"
   id="path16" />
			<path
   style="fill:#010101"
   d="m 39.162,34.497 c -1.217,0 -2.127,-0.315 -2.732,-0.948 -0.605,-0.633 -0.908,-1.581 -0.908,-2.846 v -8.295 h 2.186 v 7.916 c 0,0.895 0.156,1.566 0.471,2.015 0.315,0.449 0.789,0.671 1.426,0.671 0.793,0 1.406,-0.301 1.84,-0.902 0.436,-0.602 0.652,-1.384 0.652,-2.348 v -7.352 h 2.184 V 34.333 H 43.07 l -0.439,-1.764 c -0.762,1.285 -1.916,1.928 -3.469,1.928 z"
   id="path18" />
			<path
   style="fill:#010101"
   d="M 49.764,34.333 H 47.58 v -10.5 h -1.363 v -1.425 h 3.547 V 34.333 z M 48.678,18.225 c 0.334,0 0.623,0.123 0.867,0.369 0.242,0.246 0.363,0.536 0.363,0.871 0,0.342 -0.119,0.635 -0.359,0.877 -0.238,0.242 -0.529,0.363 -0.871,0.363 -0.35,0 -0.643,-0.121 -0.883,-0.363 -0.238,-0.242 -0.357,-0.535 -0.357,-0.877 0,-0.349 0.119,-0.643 0.357,-0.882 0.24,-0.239 0.533,-0.358 0.883,-0.358 z"
   id="path20" />
			<path
   style="fill:#010101"
   d="m 61.629,34.333 h -2.184 v -7.916 c 0,-0.896 -0.158,-1.567 -0.473,-2.015 -0.315,-0.448 -0.785,-0.672 -1.414,-0.672 -0.793,0 -1.408,0.301 -1.846,0.902 -0.438,0.601 -0.656,1.385 -0.656,2.348 v 7.353 H 52.87 V 22.408 h 1.221 l 0.441,1.764 c 0.758,-1.293 1.914,-1.938 3.465,-1.938 1.211,0 2.119,0.317 2.723,0.954 0.605,0.635 0.908,1.586 0.908,2.85 v 8.295 z"
   id="path22" />
			<path
   style="fill:#010101"
   d="m 70.754,32.61 c -0.738,1.258 -1.887,1.887 -3.445,1.887 -1.086,0 -1.932,-0.306 -2.537,-0.918 -0.605,-0.611 -0.908,-1.468 -0.908,-2.568 0,-1.135 0.311,-1.98 0.934,-2.538 0.621,-0.557 1.367,-0.905 2.234,-1.046 0.869,-0.14 1.926,-0.21 3.17,-0.21 v -1.404 c 0,-1.389 -0.742,-2.082 -2.227,-2.082 -0.854,0 -1.896,0.182 -3.127,0.543 v -1.527 c 1.238,-0.342 2.414,-0.513 3.527,-0.513 1.312,0 2.309,0.316 2.99,0.948 0.68,0.633 1.02,1.564 1.02,2.795 v 8.356 H 71.196 L 70.754,32.61 z M 70.201,28.52 H 68.98 c -0.979,0 -1.711,0.207 -2.199,0.62 -0.488,0.413 -0.734,1.03 -0.734,1.851 0,0.67 0.15,1.171 0.447,1.502 0.297,0.332 0.742,0.498 1.338,0.498 0.752,0 1.334,-0.24 1.748,-0.719 0.414,-0.479 0.621,-1.127 0.621,-1.947 V 28.52 z"
   id="path24" />
			<path
   style="fill:#010101"
   d="M 77.449,34.333 74.004,22.408 h 2.225 l 2.605,9.885 2.717,-9.885 h 1.969 l -3.588,11.925 h -2.483 z"
   id="path26" />
			<path
   style="fill:#010101"
   d="m 87.652,34.333 h -2.184 v -10.5 h -1.363 v -1.425 h 3.547 V 34.333 z M 86.566,18.225 c 0.334,0 0.623,0.123 0.865,0.369 0.242,0.246 0.365,0.536 0.365,0.871 0,0.342 -0.121,0.635 -0.359,0.877 -0.24,0.242 -0.531,0.363 -0.871,0.363 -0.35,0 -0.645,-0.121 -0.883,-0.363 -0.24,-0.242 -0.359,-0.535 -0.359,-0.877 0,-0.349 0.119,-0.643 0.359,-0.882 0.239,-0.239 0.534,-0.358 0.883,-0.358 z"
   id="path28" />
			<path
   style="fill:#010101"
   d="m 97.629,23.854 0.461,-1.445 h 1.221 V 33.77 c 0,1.285 -0.398,2.281 -1.195,2.988 -0.795,0.708 -1.889,1.062 -3.275,1.062 -1.135,0 -2.424,-0.181 -3.865,-0.544 v -1.537 c 1.504,0.361 2.707,0.543 3.609,0.543 0.785,0 1.361,-0.146 1.727,-0.436 0.367,-0.291 0.594,-0.67 0.682,-1.139 0.09,-0.468 0.135,-1.133 0.135,-1.994 v -0.308 c -0.582,0.834 -1.512,1.251 -2.789,1.251 -1.361,0 -2.381,-0.47 -3.061,-1.41 -0.682,-0.939 -1.021,-2.35 -1.021,-4.229 0,-1.798 0.377,-3.211 1.129,-4.24 0.752,-1.028 1.838,-1.543 3.26,-1.543 1.365,-0.001 2.359,0.539 2.982,1.62 z M 94.84,32.17 c 0.758,0 1.336,-0.272 1.732,-0.815 0.396,-0.544 0.596,-1.714 0.596,-3.513 0,-1.381 -0.188,-2.418 -0.559,-3.111 -0.373,-0.693 -0.93,-1.041 -1.668,-1.041 -0.785,0 -1.385,0.297 -1.799,0.893 -0.414,0.594 -0.621,1.682 -0.621,3.26 0,1.443 0.193,2.525 0.58,3.246 0.387,0.721 0.965,1.081 1.739,1.081 z"
   id="path30" />
			<path
   style="fill:#010101"
   d="m 108.467,32.61 c -0.738,1.258 -1.887,1.887 -3.445,1.887 -1.086,0 -1.932,-0.306 -2.537,-0.918 -0.605,-0.611 -0.908,-1.468 -0.908,-2.568 0,-1.135 0.311,-1.98 0.934,-2.538 0.621,-0.557 1.367,-0.905 2.234,-1.046 0.869,-0.14 1.926,-0.21 3.17,-0.21 v -1.404 c 0,-1.389 -0.742,-2.082 -2.227,-2.082 -0.854,0 -1.896,0.182 -3.127,0.543 v -1.527 c 1.238,-0.342 2.414,-0.513 3.527,-0.513 1.312,0 2.309,0.316 2.99,0.948 0.68,0.633 1.02,1.564 1.02,2.795 v 8.356 h -1.189 l -0.442,-1.723 z m -0.553,-4.09 h -1.221 c -0.979,0 -1.711,0.207 -2.199,0.62 -0.488,0.413 -0.734,1.03 -0.734,1.851 0,0.67 0.15,1.171 0.447,1.502 0.297,0.332 0.742,0.498 1.338,0.498 0.752,0 1.334,-0.24 1.748,-0.719 0.414,-0.479 0.621,-1.127 0.621,-1.947 V 28.52 z"
   id="path32" />
			<path
   style="fill:#010101"
   d="m 116.086,34.497 c -0.93,0 -1.611,-0.217 -2.041,-0.651 -0.432,-0.434 -0.646,-1.126 -0.646,-2.076 v -7.937 h -1.568 v -0.82 l 3.189,-3.251 h 0.562 v 2.646 h 2.902 v 1.425 h -2.902 v 7.577 c 0,0.65 0.107,1.079 0.318,1.287 0.213,0.209 0.533,0.312 0.965,0.312 0.443,0 1.045,-0.099 1.805,-0.297 v 1.415 c -0.916,0.247 -1.777,0.37 -2.584,0.37 z"
   id="path34" />
			<path
   style="fill:#010101"
   d="m 122.832,34.333 h -2.184 v -10.5 h -1.363 v -1.425 h 3.547 v 11.925 z m -1.086,-16.108 c 0.334,0 0.623,0.123 0.867,0.369 0.242,0.246 0.363,0.536 0.363,0.871 0,0.342 -0.119,0.635 -0.359,0.877 -0.238,0.242 -0.529,0.363 -0.871,0.363 -0.35,0 -0.643,-0.121 -0.883,-0.363 -0.238,-0.242 -0.357,-0.535 -0.357,-0.877 0,-0.349 0.119,-0.643 0.357,-0.882 0.241,-0.239 0.533,-0.358 0.883,-0.358 z"
   id="path36" />
			<path
   style="fill:#010101"
   d="m 130.246,34.497 c -1.605,0 -2.809,-0.526 -3.609,-1.579 -0.799,-1.053 -1.199,-2.632 -1.199,-4.737 0,-1.832 0.416,-3.281 1.246,-4.348 0.83,-1.067 2.018,-1.6 3.562,-1.6 1.559,0 2.75,0.526 3.574,1.579 0.824,1.053 1.236,2.522 1.236,4.409 0,1.941 -0.385,3.473 -1.154,4.594 -0.769,1.121 -1.988,1.682 -3.656,1.682 z m 0,-1.405 c 0.842,0 1.477,-0.381 1.902,-1.143 0.428,-0.762 0.641,-2.039 0.641,-3.83 0,-1.265 -0.219,-2.326 -0.656,-3.184 -0.437,-0.858 -1.066,-1.287 -1.887,-1.287 -0.834,0 -1.465,0.387 -1.896,1.158 -0.43,0.773 -0.646,1.877 -0.646,3.312 0,1.613 0.217,2.846 0.646,3.696 0.431,0.853 1.062,1.278 1.896,1.278 z"
   id="path38" />
			<path
   style="fill:#010101"
   d="M 146.285,34.333 H 144.1 v -7.916 c 0,-0.896 -0.156,-1.567 -0.471,-2.015 -0.315,-0.448 -0.787,-0.672 -1.416,-0.672 -0.793,0 -1.408,0.301 -1.846,0.902 -0.438,0.601 -0.656,1.385 -0.656,2.348 v 7.353 h -2.184 V 22.408 h 1.221 l 0.441,1.764 c 0.758,-1.293 1.912,-1.938 3.465,-1.938 1.211,0 2.117,0.317 2.723,0.954 0.605,0.635 0.908,1.586 0.908,2.85 v 8.295 z"
   id="path40" />
			<path
   style="fill:#010101"
   d="m 151.412,18.102 v 5.414 c 0.779,-0.855 1.746,-1.282 2.9,-1.282 1.334,0 2.336,0.492 3.006,1.477 0.67,0.985 1.004,2.461 1.004,4.43 0,1.969 -0.451,3.511 -1.354,4.624 -0.902,1.115 -2.143,1.672 -3.723,1.672 -1.551,0 -2.891,-0.068 -4.02,-0.205 v -16.13 h 2.187 z m 0,10.222 v 4.521 c 0.635,0.082 1.203,0.123 1.701,0.123 1.006,0 1.746,-0.367 2.225,-1.102 0.479,-0.735 0.719,-1.998 0.719,-3.789 0,-1.449 -0.188,-2.536 -0.564,-3.261 -0.375,-0.725 -0.936,-1.087 -1.682,-1.087 -0.725,0 -1.262,0.219 -1.609,0.656 -0.35,0.438 -0.568,0.969 -0.656,1.595 -0.091,0.626 -0.134,1.408 -0.134,2.344 z"
   id="path42" />
			<path
   style="fill:#010101"
   d="m 166.977,32.61 c -0.738,1.258 -1.887,1.887 -3.445,1.887 -1.086,0 -1.932,-0.306 -2.537,-0.918 -0.605,-0.611 -0.908,-1.468 -0.908,-2.568 0,-1.135 0.311,-1.98 0.934,-2.538 0.621,-0.557 1.367,-0.905 2.234,-1.046 0.869,-0.14 1.926,-0.21 3.17,-0.21 v -1.404 c 0,-1.389 -0.742,-2.082 -2.227,-2.082 -0.854,0 -1.896,0.182 -3.127,0.543 v -1.527 c 1.238,-0.342 2.414,-0.513 3.527,-0.513 1.312,0 2.309,0.316 2.99,0.948 0.68,0.633 1.02,1.564 1.02,2.795 v 8.356 h -1.189 l -0.442,-1.723 z m -0.553,-4.09 h -1.221 c -0.979,0 -1.711,0.207 -2.199,0.62 -0.488,0.413 -0.734,1.03 -0.734,1.851 0,0.67 0.15,1.171 0.447,1.502 0.297,0.332 0.742,0.498 1.338,0.498 0.752,0 1.334,-0.24 1.748,-0.719 0.414,-0.479 0.621,-1.127 0.621,-1.947 V 28.52 z"
   id="path44" />
			<path
   style="fill:#010101"
   d="m 172.77,22.408 0.502,1.988 c 0.664,-1.4 1.818,-2.102 3.467,-2.102 0.219,0 0.379,0.01 0.482,0.031 v 1.988 c -0.172,-0.014 -0.428,-0.02 -0.77,-0.02 -0.938,0 -1.623,0.224 -2.061,0.671 -0.438,0.448 -0.656,1.147 -0.656,2.097 v 7.271 h -2.186 V 22.408 h 1.222 z"
   id="path46" />
		</g><g
   id="duimenu-background">
			<linearGradient
   id="SVGID_1_"
   gradientUnits="userSpaceOnUse"
   x1="64.000504"
   y1="900"
   x2="64.000504"
   y2="800">
				<stop
   offset="0"
   style="stop-color:#8BD7F8"
   id="stop50" />
				<stop
   offset="0.0805"
   style="stop-color:#7FCBF0"
   id="stop52" />
				<stop
   offset="0.277"
   style="stop-color:#67B9E4"
   id="stop54" />
				<stop
   offset="0.4863"
   style="stop-color:#56ADDC"
   id="stop56" />
				<stop
   offset="0.7151"
   style="stop-color:#4BA6D8"
   id="stop58" />
				<stop
   offset="1"
   style="stop-color:#47A4D7"
   id="stop60" />
			</linearGradient>
			<path
   style="fill:url(#linearGradient3474)"
   d="m 108,800 v 88 c 0,6.6 -5.4,12 -12,12 H 32 c -6.6,0 -12,-5.4 -12,-12 v -88 h 88 z"
   id="path62" />
		</g><g
   id="duinavigationbar-menu-background">
			<linearGradient
   id="SVGID_2_"
   gradientUnits="userSpaceOnUse"
   x1="64.000504"
   y1="760"
   x2="64.000504"
   y2="660">
				<stop
   offset="0"
   style="stop-color:#8BD7F8"
   id="stop66" />
				<stop
   offset="0.0805"
   style="stop-color:#7FCBF0"
   id="stop68" />
				<stop
   offset="0.277"
   style="stop-color:#67B9E4"
   id="stop70" />
				<stop
   offset="0.4863"
   style="stop-color:#56ADDC"
   id="stop72" />
				<stop
   offset="0.7151"
   style="stop-color:#4BA6D8"
   id="stop74" />
				<stop
   offset="1"
   style="stop-color:#47A4D7"
   id="stop76" />
			</linearGradient>
			<path
   style="fill:url(#linearGradient3476)"
   d="m 108,660 v 88 c 0,6.6 -5.4,12 -12,12 H 32 c -6.6,0 -12,-5.4 -12,-12 v -88 h 88 z"
   id="path78" />
		</g><g
   id="duinavigationbar-button-close-background-pressed">
			<g
   id="g81">
				<linearGradient
   id="SVGID_3_"
   gradientUnits="userSpaceOnUse"
   x1="130"
   y1="644"
   x2="130"
   y2="584">
					<stop
   offset="0"
   style="stop-color:#000000"
   id="stop84" />
					<stop
   offset="0.49"
   style="stop-color:#000000"
   id="stop86" />
					<stop
   offset="0.497"
   style="stop-color:#0A0A0A"
   id="stop88" />
					<stop
   offset="0.582"
   style="stop-color:#111111"
   id="stop90" />
					<stop
   offset="0.702"
   style="stop-color:#232323"
   id="stop92" />
					<stop
   offset="0.842"
   style="stop-color:#414141"
   id="stop94" />
					<stop
   offset="0.98"
   style="stop-color:#666666"
   id="stop96" />
					<stop
   offset="1"
   style="stop-color:#666666"
   id="stop98" />
				</linearGradient>
				<rect
   x="100"
   y="584"
   style="fill:url(#linearGradient3478)"
   width="60"
   height="60"
   id="rect100" />
			</g>
			<g
   id="g102">
				<path
   style="fill:#999"
   d="m 156,632 c 0,4.4 -3.6,8 -8,8 h -36 c -4.4,0 -8,-3.6 -8,-8 v -34 c 0,-4.4 3.6,-8 8,-8 h 36 c 4.4,0 8,3.6 8,8 v 34 z"
   id="path104" />
			</g>
			<g
   id="g106">
				<path
   style="fill:#010101"
   d="m 156,630 c 0,4.4 -3.6,8 -8,8 h -36 c -4.4,0 -8,-3.6 -8,-8 v -34 c 0,-4.4 3.6,-8 8,-8 h 36 c 4.4,0 8,3.6 8,8 v 34 z"
   id="path108" />
			</g>
			<g
   id="g110">
				<linearGradient
   id="SVGID_4_"
   gradientUnits="userSpaceOnUse"
   x1="130"
   y1="639"
   x2="130"
   y2="589">
					<stop
   offset="0"
   style="stop-color:#191919"
   id="stop113" />
					<stop
   offset="1"
   style="stop-color:#282828"
   id="stop115" />
				</linearGradient>
				<path
   style="fill:url(#linearGradient3480)"
   d="m 156,631 c 0,4.4 -3.6,8 -8,8 h -36 c -4.4,0 -8,-3.6 -8,-8 v -34 c 0,-4.4 3.6,-8 8,-8 h 36 c 4.4,0 8,3.6 8,8 v 34 z"
   id="path117" />
			</g>
		</g><g
   id="duinavigationbar-button-close-background">
			<g
   id="g120">
				<linearGradient
   id="SVGID_5_"
   gradientUnits="userSpaceOnUse"
   x1="50"
   y1="644"
   x2="50"
   y2="584">
					<stop
   offset="0"
   style="stop-color:#000000"
   id="stop123" />
					<stop
   offset="0.49"
   style="stop-color:#000000"
   id="stop125" />
					<stop
   offset="0.497"
   style="stop-color:#0A0A0A"
   id="stop127" />
					<stop
   offset="0.582"
   style="stop-color:#111111"
   id="stop129" />
					<stop
   offset="0.702"
   style="stop-color:#232323"
   id="stop131" />
					<stop
   offset="0.842"
   style="stop-color:#414141"
   id="stop133" />
					<stop
   offset="0.98"
   style="stop-color:#666666"
   id="stop135" />
					<stop
   offset="1"
   style="stop-color:#666666"
   id="stop137" />
				</linearGradient>
				<rect
   x="20"
   y="584"
   style="fill:url(#linearGradient3482)"
   width="60"
   height="60"
   id="rect139" />
			</g>
			<rect
   x="20"
   y="590"
   style="fill:white;fill-opacity:0.2"
   width="1"
   height="48"
   id="rect141" />
		</g><g
   id="duinavigationbar-toolbarbutton-background-pressed">
			<g
   id="g144">
				<rect
   x="100"
   y="502"
   style="fill:none"
   width="60"
   height="60"
   id="rect146" />
			</g>
			<g
   id="g148">
				<path
   style="fill:#999"
   d="m 156,550 c 0,4.4 -3.6,8 -8,8 h -36 c -4.4,0 -8,-3.6 -8,-8 v -34 c 0,-4.4 3.6,-8 8,-8 h 36 c 4.4,0 8,3.6 8,8 v 34 z"
   id="path150" />
			</g>
			<g
   id="g152">
				<path
   style="fill:#010101"
   d="m 156,548 c 0,4.4 -3.6,8 -8,8 h -36 c -4.4,0 -8,-3.6 -8,-8 v -34 c 0,-4.4 3.6,-8 8,-8 h 36 c 4.4,0 8,3.6 8,8 v 34 z"
   id="path154" />
			</g>
			<g
   id="g156">
				<linearGradient
   id="SVGID_6_"
   gradientUnits="userSpaceOnUse"
   x1="130"
   y1="557"
   x2="130"
   y2="507">
					<stop
   offset="0"
   style="stop-color:#191919"
   id="stop159" />
					<stop
   offset="1"
   style="stop-color:#282828"
   id="stop161" />
				</linearGradient>
				<path
   style="fill:url(#linearGradient3484)"
   d="m 156,549 c 0,4.4 -3.6,8 -8,8 h -36 c -4.4,0 -8,-3.6 -8,-8 v -34 c 0,-4.4 3.6,-8 8,-8 h 36 c 4.4,0 8,3.6 8,8 v 34 z"
   id="path163" />
			</g>
		</g><g
   id="duinavigationbar-toolbarbutton-background">
			<g
   id="g166">
				<linearGradient
   id="SVGID_7_"
   gradientUnits="userSpaceOnUse"
   x1="50"
   y1="562"
   x2="50"
   y2="502">
					<stop
   offset="0"
   style="stop-color:#000000"
   id="stop169" />
					<stop
   offset="0.49"
   style="stop-color:#000000"
   id="stop171" />
					<stop
   offset="0.497"
   style="stop-color:#0A0A0A"
   id="stop173" />
					<stop
   offset="0.582"
   style="stop-color:#111111"
   id="stop175" />
					<stop
   offset="0.702"
   style="stop-color:#232323"
   id="stop177" />
					<stop
   offset="0.842"
   style="stop-color:#414141"
   id="stop179" />
					<stop
   offset="0.98"
   style="stop-color:#666666"
   id="stop181" />
					<stop
   offset="1"
   style="stop-color:#666666"
   id="stop183" />
				</linearGradient>
				<rect
   x="20"
   y="502"
   style="fill:url(#linearGradient3486)"
   width="60"
   height="60"
   id="rect185" />
			</g>
		</g><g
   id="duinavigationbar-portrait-toolbar-background">
			<g
   id="g188">
				<linearGradient
   id="SVGID_8_"
   gradientUnits="userSpaceOnUse"
   x1="130"
   y1="480"
   x2="130"
   y2="420.00049">
					<stop
   offset="0"
   style="stop-color:#000000"
   id="stop191" />
					<stop
   offset="0.49"
   style="stop-color:#000000"
   id="stop193" />
					<stop
   offset="0.497"
   style="stop-color:#0A0A0A"
   id="stop195" />
					<stop
   offset="0.582"
   style="stop-color:#111111"
   id="stop197" />
					<stop
   offset="0.702"
   style="stop-color:#232323"
   id="stop199" />
					<stop
   offset="0.842"
   style="stop-color:#414141"
   id="stop201" />
					<stop
   offset="0.98"
   style="stop-color:#666666"
   id="stop203" />
					<stop
   offset="1"
   style="stop-color:#666666"
   id="stop205" />
				</linearGradient>
				<rect
   x="100"
   y="420"
   style="fill:url(#linearGradient3488)"
   width="60"
   height="60"
   id="rect207" />
			</g>
		</g><g
   id="duinavigationbar-toolbar-background">
			<g
   id="g210">
				<linearGradient
   id="SVGID_9_"
   gradientUnits="userSpaceOnUse"
   x1="50"
   y1="480"
   x2="50"
   y2="420.00049">
					<stop
   offset="0"
   style="stop-color:#000000"
   id="stop213" />
					<stop
   offset="0.49"
   style="stop-color:#000000"
   id="stop215" />
					<stop
   offset="0.497"
   style="stop-color:#0A0A0A"
   id="stop217" />
					<stop
   offset="0.582"
   style="stop-color:#111111"
   id="stop219" />
					<stop
   offset="0.702"
   style="stop-color:#232323"
   id="stop221" />
					<stop
   offset="0.842"
   style="stop-color:#414141"
   id="stop223" />
					<stop
   offset="0.98"
   style="stop-color:#666666"
   id="stop225" />
					<stop
   offset="1"
   style="stop-color:#666666"
   id="stop227" />
				</linearGradient>
				<rect
   x="20"
   y="420"
   style="fill:url(#linearGradient3490)"
   width="60"
   height="60"
   id="rect229" />
			</g>
			<rect
   x="79"
   y="426"
   style="fill:#010101;fill-opacity:0.2"
   width="1"
   height="48"
   id="rect231" />
			<rect
   x="20"
   y="426"
   style="fill:white;fill-opacity:0.2"
   width="1"
   height="48"
   id="rect233" />
		</g><g
   id="duinavigationbar-viewmenu-background-pressed">
			<g
   id="g236">
				<linearGradient
   id="SVGID_10_"
   gradientUnits="userSpaceOnUse"
   x1="130"
   y1="398"
   x2="130"
   y2="338">
					<stop
   offset="0"
   style="stop-color:#000000"
   id="stop239" />
					<stop
   offset="0.49"
   style="stop-color:#000000"
   id="stop241" />
					<stop
   offset="0.497"
   style="stop-color:#0A0A0A"
   id="stop243" />
					<stop
   offset="0.582"
   style="stop-color:#111111"
   id="stop245" />
					<stop
   offset="0.702"
   style="stop-color:#232323"
   id="stop247" />
					<stop
   offset="0.842"
   style="stop-color:#414141"
   id="stop249" />
					<stop
   offset="0.98"
   style="stop-color:#666666"
   id="stop251" />
					<stop
   offset="1"
   style="stop-color:#666666"
   id="stop253" />
				</linearGradient>
				<rect
   x="100"
   y="338"
   style="fill:url(#linearGradient3492)"
   width="60"
   height="60"
   id="rect255" />
			</g>
			<g
   id="g257">
				<path
   style="fill:#999"
   d="m 156,386 c 0,4.4 -3.6,8 -8,8 h -36 c -4.4,0 -8,-3.6 -8,-8 v -34 c 0,-4.4 3.6,-8 8,-8 h 36 c 4.4,0 8,3.6 8,8 v 34 z"
   id="path259" />
			</g>
			<g
   id="g261">
				<path
   style="fill:#010101"
   d="m 156,384 c 0,4.4 -3.6,8 -8,8 h -36 c -4.4,0 -8,-3.6 -8,-8 v -34 c 0,-4.4 3.6,-8 8,-8 h 36 c 4.4,0 8,3.6 8,8 v 34 z"
   id="path263" />
			</g>
			<g
   id="g265">
				<linearGradient
   id="SVGID_11_"
   gradientUnits="userSpaceOnUse"
   x1="130"
   y1="393"
   x2="130"
   y2="343">
					<stop
   offset="0"
   style="stop-color:#191919"
   id="stop268" />
					<stop
   offset="1"
   style="stop-color:#282828"
   id="stop270" />
				</linearGradient>
				<path
   style="fill:url(#linearGradient3494)"
   d="m 156,385 c 0,4.4 -3.6,8 -8,8 h -36 c -4.4,0 -8,-3.6 -8,-8 v -34 c 0,-4.4 3.6,-8 8,-8 h 36 c 4.4,0 8,3.6 8,8 v 34 z"
   id="path272" />
			</g>
			<rect
   x="159"
   y="344"
   style="fill:#010101;fill-opacity:0.2"
   width="1"
   height="48"
   id="rect274" />
			<rect
   x="100"
   y="344"
   style="fill:white;fill-opacity:0.2"
   width="1"
   height="48"
   id="rect276" />
		</g><g
   id="duinavigationbar-viewmenu-background">
			<g
   id="g279">
				<linearGradient
   id="SVGID_12_"
   gradientUnits="userSpaceOnUse"
   x1="50"
   y1="398"
   x2="50"
   y2="338">
					<stop
   offset="0"
   style="stop-color:#000000"
   id="stop282" />
					<stop
   offset="0.49"
   style="stop-color:#000000"
   id="stop284" />
					<stop
   offset="0.497"
   style="stop-color:#0A0A0A"
   id="stop286" />
					<stop
   offset="0.582"
   style="stop-color:#111111"
   id="stop288" />
					<stop
   offset="0.702"
   style="stop-color:#232323"
   id="stop290" />
					<stop
   offset="0.842"
   style="stop-color:#414141"
   id="stop292" />
					<stop
   offset="0.98"
   style="stop-color:#666666"
   id="stop294" />
					<stop
   offset="1"
   style="stop-color:#666666"
   id="stop296" />
				</linearGradient>
				<rect
   x="20"
   y="338"
   style="fill:url(#linearGradient3496)"
   width="60"
   height="60"
   id="rect298" />
			</g>
			<rect
   x="79"
   y="344"
   style="fill:#010101;fill-opacity:0.2"
   width="1"
   height="48"
   id="rect300" />
			<rect
   x="20"
   y="344"
   style="fill:white;fill-opacity:0.2"
   width="1"
   height="48"
   id="rect302" />
		</g><g
   id="duinavigationbar-button-home-background-pressed">
			<g
   id="g305">
				<linearGradient
   id="SVGID_13_"
   gradientUnits="userSpaceOnUse"
   x1="130"
   y1="316"
   x2="130"
   y2="256">
					<stop
   offset="0"
   style="stop-color:#000000"
   id="stop308" />
					<stop
   offset="0.49"
   style="stop-color:#000000"
   id="stop310" />
					<stop
   offset="0.497"
   style="stop-color:#0A0A0A"
   id="stop312" />
					<stop
   offset="0.582"
   style="stop-color:#111111"
   id="stop314" />
					<stop
   offset="0.702"
   style="stop-color:#232323"
   id="stop316" />
					<stop
   offset="0.842"
   style="stop-color:#414141"
   id="stop318" />
					<stop
   offset="0.98"
   style="stop-color:#666666"
   id="stop320" />
					<stop
   offset="1"
   style="stop-color:#666666"
   id="stop322" />
				</linearGradient>
				<rect
   x="100"
   y="256"
   style="fill:url(#linearGradient3498)"
   width="60"
   height="60"
   id="rect324" />
			</g>
			<g
   id="g326">
				<path
   style="fill:#999"
   d="m 156,304 c 0,4.4 -3.6,8 -8,8 h -36 c -4.4,0 -8,-3.6 -8,-8 v -34 c 0,-4.4 3.6,-8 8,-8 h 36 c 4.4,0 8,3.6 8,8 v 34 z"
   id="path328" />
			</g>
			<g
   id="g330">
				<path
   style="fill:#010101"
   d="m 156,302 c 0,4.4 -3.6,8 -8,8 h -36 c -4.4,0 -8,-3.6 -8,-8 v -34 c 0,-4.4 3.6,-8 8,-8 h 36 c 4.4,0 8,3.6 8,8 v 34 z"
   id="path332" />
			</g>
			<g
   id="g334">
				<linearGradient
   id="SVGID_14_"
   gradientUnits="userSpaceOnUse"
   x1="130"
   y1="311"
   x2="130"
   y2="261">
					<stop
   offset="0"
   style="stop-color:#191919"
   id="stop337" />
					<stop
   offset="1"
   style="stop-color:#282828"
   id="stop339" />
				</linearGradient>
				<path
   style="fill:url(#linearGradient3500)"
   d="m 156,303 c 0,4.4 -3.6,8 -8,8 h -36 c -4.4,0 -8,-3.6 -8,-8 v -34 c 0,-4.4 3.6,-8 8,-8 h 36 c 4.4,0 8,3.6 8,8 v 34 z"
   id="path341" />
			</g>
			<rect
   x="158.99899"
   y="266"
   style="fill:#010101;fill-opacity:0.2"
   width="1.001"
   height="40"
   id="rect343" />
		</g><g
   id="duinavigationbar-button-home-background">
			<g
   id="g346">
				<linearGradient
   id="SVGID_15_"
   gradientUnits="userSpaceOnUse"
   x1="50"
   y1="316"
   x2="50"
   y2="256">
					<stop
   offset="0"
   style="stop-color:#000000"
   id="stop349" />
					<stop
   offset="0.49"
   style="stop-color:#000000"
   id="stop351" />
					<stop
   offset="0.497"
   style="stop-color:#0A0A0A"
   id="stop353" />
					<stop
   offset="0.582"
   style="stop-color:#111111"
   id="stop355" />
					<stop
   offset="0.702"
   style="stop-color:#232323"
   id="stop357" />
					<stop
   offset="0.842"
   style="stop-color:#414141"
   id="stop359" />
					<stop
   offset="0.98"
   style="stop-color:#666666"
   id="stop361" />
					<stop
   offset="1"
   style="stop-color:#666666"
   id="stop363" />
				</linearGradient>
				<rect
   x="20"
   y="256"
   style="fill:url(#linearGradient3502)"
   width="60"
   height="60"
   id="rect365" />
			</g>
			<rect
   x="79"
   y="266"
   style="fill:#010101;fill-opacity:0.2"
   width="1"
   height="40"
   id="rect367" />
		</g><g
   id="duinavigationbar-button-background-pressed">
			<g
   id="_x3C_path_x3E__1_">
				<linearGradient
   id="SVGID_16_"
   gradientUnits="userSpaceOnUse"
   x1="56"
   y1="240"
   x2="56"
   y2="168">
					<stop
   offset="0"
   style="stop-color:#000000"
   id="stop372" />
					<stop
   offset="0.49"
   style="stop-color:#000000"
   id="stop374" />
					<stop
   offset="0.497"
   style="stop-color:#0A0A0A"
   id="stop376" />
					<stop
   offset="0.582"
   style="stop-color:#111111"
   id="stop378" />
					<stop
   offset="0.702"
   style="stop-color:#232323"
   id="stop380" />
					<stop
   offset="0.842"
   style="stop-color:#414141"
   id="stop382" />
					<stop
   offset="0.98"
   style="stop-color:#666666"
   id="stop384" />
					<stop
   offset="1"
   style="stop-color:#666666"
   id="stop386" />
				</linearGradient>
				<rect
   x="20"
   y="168"
   style="fill:url(#linearGradient3504)"
   width="72"
   height="72"
   id="rect388" />
			</g>
			<g
   id="_x3C_path_x3E__2_">
				<path
   style="fill:gray"
   d="m 88,228 c 0,4.4 -3.6,8 -8,8 H 32 c -4.4,0 -8,-3.6 -8,-8 v -46 c 0,-4.4 3.6,-8 8,-8 h 48 c 4.4,0 8,3.6 8,8 v 46 z"
   id="path391" />
			</g>
			<g
   id="_x3C_path_x3E__3_">
				<path
   style="fill:#010101"
   d="m 88,226 c 0,4.4 -3.6,8 -8,8 H 32 c -4.4,0 -8,-3.6 -8,-8 v -46 c 0,-4.4 3.6,-8 8,-8 h 48 c 4.4,0 8,3.6 8,8 v 46 z"
   id="path394" />
			</g>
			<g
   id="_x3C_path_x3E__4_">
				<linearGradient
   id="SVGID_17_"
   gradientUnits="userSpaceOnUse"
   x1="56"
   y1="235"
   x2="56"
   y2="173">
					<stop
   offset="0"
   style="stop-color:#191919"
   id="stop398" />
					<stop
   offset="1"
   style="stop-color:#282828"
   id="stop400" />
				</linearGradient>
				<path
   style="fill:url(#linearGradient3506)"
   d="m 88,227 c 0,4.4 -3.6,8 -8,8 H 32 c -4.4,0 -8,-3.6 -8,-8 v -46 c 0,-4.4 3.6,-8 8,-8 h 48 c 4.4,0 8,3.6 8,8 v 46 z"
   id="path402" />
			</g>
		</g><g
   id="duinavigationbar-background">
			<g
   id="_x3C_path_x3E_">
				<linearGradient
   id="SVGID_18_"
   gradientUnits="userSpaceOnUse"
   x1="93.000504"
   y1="161"
   x2="93.000504"
   y2="89">
					<stop
   offset="0"
   style="stop-color:#000000"
   id="stop407" />
					<stop
   offset="0.49"
   style="stop-color:#000000"
   id="stop409" />
					<stop
   offset="0.497"
   style="stop-color:#0A0A0A"
   id="stop411" />
					<stop
   offset="0.582"
   style="stop-color:#111111"
   id="stop413" />
					<stop
   offset="0.702"
   style="stop-color:#232323"
   id="stop415" />
					<stop
   offset="0.842"
   style="stop-color:#414141"
   id="stop417" />
					<stop
   offset="0.98"
   style="stop-color:#666666"
   id="stop419" />
					<stop
   offset="1"
   style="stop-color:#666666"
   id="stop421" />
				</linearGradient>
				<rect
   x="20"
   y="89"
   style="fill:url(#linearGradient3508)"
   width="146"
   height="72"
   id="rect423" />
			</g>
		</g><g
   id="duinavigationbar-statusarea-background">
			<g
   id="g426">
				<rect
   x="20"
   y="48"
   style="fill:#1a1a1a"
   width="80"
   height="30"
   id="rect428" />
			</g>
		</g>
<g
   id="duidockwidget-background"
   transform="translate(190,0)"
   inkscape:label="#g3741"
   style="opacity:0.9">
			<g
   id="g3743">
				<linearGradient
   y2="89"
   x2="93.000504"
   y1="161"
   x1="93.000504"
   gradientUnits="userSpaceOnUse"
   id="linearGradient3745">
					<stop
   id="stop3747"
   style="stop-color:#000000"
   offset="0" />
					<stop
   id="stop3749"
   style="stop-color:#000000"
   offset="0.49" />
					<stop
   id="stop3751"
   style="stop-color:#0A0A0A"
   offset="0.497" />
					<stop
   id="stop3753"
   style="stop-color:#111111"
   offset="0.582" />
					<stop
   id="stop3755"
   style="stop-color:#232323"
   offset="0.702" />
					<stop
   id="stop3757"
   style="stop-color:#414141"
   offset="0.842" />
					<stop
   id="stop3759"
   style="stop-color:#666666"
   offset="0.98" />
					<stop
   id="stop3761"
   style="stop-color:#666666"
   offset="1" />
				</linearGradient>
				<rect
   id="rect3763"
   height="72"
   width="146"
   style="fill:url(#linearGradient3765)"
   y="89"
   x="20" />
			</g>
		</g></svg>