<?xml version="1.0" encoding="iso-8859-1"?>
<!-- Generator: Adobe Illustrator 14.0.0, SVG Export Plug-In . SVG Version: 6.00 Build 43363)  -->
<!DOCTYPE svg PUBLIC "-//W3C//DTD SVG 1.1//EN" "http://www.w3.org/Graphics/SVG/1.1/DTD/svg11.dtd">
<svg version="1.1" xmlns="http://www.w3.org/2000/svg" xmlns:xlink="http://www.w3.org/1999/xlink" x="0px" y="0px" width="200px"
	 height="300px" viewBox="0 0 200 300" style="enable-background:new 0 0 200 300;" xml:space="preserve">
<g id="duiprogressindicator-layer">
</g>
<g id="dui-theme-rd">
	<g id="duiprogressindicator">
		<g id="duiprogressindicatorThemeTemplateHelper">
			<g>
				<path style="fill:#B3B3B3;" d="M16,299c-8.271,0-15-6.729-15-15V16C1,7.729,7.729,1,16,1h168c8.271,0,15,6.729,15,15v268
					c0,8.271-6.729,15-15,15H16z"/>
				<g>
					<path d="M184,2c7.72,0,14,6.28,14,14v268c0,7.72-6.28,14-14,14H16c-7.72,0-14-6.28-14-14V16C2,8.28,8.28,2,16,2H184 M184,0H16
						C7.2,0,0,7.2,0,16v268c0,8.8,7.2,16,16,16h168c8.8,0,16-7.2,16-16V16C200,7.2,192.8,0,184,0L184,0z"/>
				</g>
			</g>
			<path style="fill:#010101;" d="M68.143,22.408l0.441,1.701c0.43-0.635,0.908-1.107,1.436-1.414
				c0.525-0.309,1.195-0.462,2.01-0.462c1.318,0,2.309,0.497,2.973,1.492c0.662,0.994,0.994,2.486,0.994,4.476
				c0,1.969-0.453,3.504-1.357,4.604c-0.906,1.102-2.211,1.651-3.912,1.651c-0.451,0-0.992-0.075-1.621-0.226v3.527h-2.184v-15.35
				H68.143z M69.105,27.74v4.932c0.527,0.198,1.08,0.297,1.662,0.297c0.984,0,1.725-0.342,2.219-1.025
				c0.496-0.684,0.744-1.965,0.744-3.845c0-1.456-0.184-2.548-0.553-3.276c-0.369-0.728-0.92-1.092-1.652-1.092
				c-0.793,0-1.395,0.307-1.805,0.918S69.105,26.291,69.105,27.74z"/>
			<path style="fill:#010101;" d="M79.688,22.408l0.502,1.988c0.664-1.4,1.818-2.102,3.467-2.102c0.219,0,0.379,0.01,0.482,0.031
				v1.988c-0.172-0.014-0.428-0.02-0.77-0.02c-0.938,0-1.623,0.224-2.061,0.671c-0.438,0.448-0.656,1.147-0.656,2.097v7.271h-2.186
				V22.408H79.688z"/>
			<path style="fill:#010101;" d="M89.973,34.497c-1.607,0-2.809-0.526-3.609-1.579c-0.799-1.053-1.199-2.632-1.199-4.737
				c0-1.832,0.414-3.281,1.246-4.348c0.83-1.066,2.018-1.6,3.562-1.6c1.559,0,2.75,0.526,3.574,1.579
				c0.822,1.053,1.234,2.522,1.234,4.409c0,1.941-0.385,3.473-1.152,4.594C92.859,33.937,91.641,34.497,89.973,34.497z
				 M89.973,33.092c0.842,0,1.475-0.381,1.902-1.143s0.641-2.039,0.641-3.83c0-1.265-0.219-2.326-0.656-3.184
				s-1.066-1.287-1.887-1.287c-0.834,0-1.467,0.387-1.896,1.158c-0.432,0.773-0.646,1.877-0.646,3.312
				c0,1.613,0.215,2.846,0.646,3.696C88.506,32.667,89.139,33.092,89.973,33.092z"/>
			<path style="fill:#010101;" d="M104.123,23.854l0.461-1.445h1.221V33.77c0,1.285-0.398,2.281-1.195,2.988
				c-0.797,0.708-1.889,1.062-3.275,1.062c-1.137,0-2.424-0.181-3.867-0.544v-1.537c1.504,0.361,2.707,0.543,3.609,0.543
				c0.787,0,1.363-0.146,1.729-0.436c0.365-0.291,0.592-0.67,0.682-1.139c0.088-0.468,0.133-1.133,0.133-1.994v-0.308
				c-0.58,0.834-1.51,1.251-2.789,1.251c-1.359,0-2.381-0.47-3.061-1.41c-0.68-0.939-1.02-2.35-1.02-4.229
				c0-1.798,0.375-3.211,1.127-4.24c0.752-1.028,1.84-1.543,3.262-1.543C102.506,22.233,103.5,22.773,104.123,23.854z
				 M101.334,32.17c0.758,0,1.336-0.272,1.732-0.815c0.396-0.544,0.594-1.714,0.594-3.513c0-1.381-0.186-2.418-0.559-3.111
				s-0.928-1.041-1.666-1.041c-0.787,0-1.387,0.297-1.799,0.893c-0.414,0.594-0.621,1.682-0.621,3.26
				c0,1.443,0.193,2.525,0.58,3.246C99.98,31.809,100.561,32.17,101.334,32.17z"/>
			<path style="fill:#010101;" d="M109.998,22.408l0.502,1.988c0.662-1.4,1.818-2.102,3.467-2.102c0.217,0,0.379,0.01,0.48,0.031
				v1.988c-0.17-0.014-0.428-0.02-0.768-0.02c-0.938,0-1.625,0.224-2.062,0.671c-0.438,0.448-0.656,1.147-0.656,2.097v7.271h-2.184
				V22.408H109.998z"/>
			<path style="fill:#010101;" d="M123.789,32.508v1.486c-1.074,0.336-2.184,0.503-3.332,0.503c-1.668,0-2.916-0.503-3.744-1.507
				c-0.826-1.006-1.24-2.554-1.24-4.646c0-1.839,0.4-3.317,1.199-4.435c0.801-1.118,1.941-1.677,3.426-1.677
				c1.203,0,2.107,0.319,2.713,0.959c0.604,0.64,0.992,1.422,1.162,2.348c0.172,0.927,0.258,2.028,0.258,3.308h-6.439
				c0,1.387,0.246,2.428,0.738,3.122s1.23,1.04,2.215,1.04C121.578,33.01,122.592,32.843,123.789,32.508z M117.791,27.504h4.295
				c0-1.442-0.17-2.461-0.512-3.056s-0.834-0.892-1.477-0.892c-0.719,0-1.266,0.307-1.646,0.922
				C118.072,25.094,117.852,26.103,117.791,27.504z"/>
			<path style="fill:#010101;" d="M128.957,34.497c-0.896,0-1.918-0.134-3.066-0.399v-1.569c1.23,0.335,2.201,0.503,2.912,0.503
				c0.732,0,1.283-0.152,1.652-0.457c0.369-0.304,0.553-0.76,0.553-1.369c0-0.355-0.117-0.688-0.348-0.999
				c-0.234-0.312-0.814-0.692-1.744-1.144c-0.594-0.287-1.076-0.559-1.445-0.815c-0.369-0.256-0.684-0.601-0.943-1.035
				s-0.391-0.973-0.391-1.615c0-1.032,0.367-1.851,1.104-2.456c0.734-0.604,1.676-0.907,2.824-0.907c1.006,0,1.914,0.126,2.729,0.38
				v1.496c-0.855-0.293-1.686-0.44-2.492-0.44c-0.67,0-1.172,0.144-1.502,0.431c-0.332,0.287-0.498,0.718-0.498,1.292
				c0,0.301,0.105,0.583,0.318,0.846c0.211,0.264,0.74,0.597,1.59,1c0.615,0.287,1.123,0.565,1.527,0.836
				c0.402,0.271,0.742,0.636,1.02,1.097c0.277,0.462,0.416,1.041,0.416,1.738c0,1.176-0.365,2.068-1.092,2.676
				C131.352,34.193,130.311,34.497,128.957,34.497z"/>
			<path style="fill:#010101;" d="M137.652,34.497c-0.896,0-1.918-0.134-3.066-0.399v-1.569c1.23,0.335,2.201,0.503,2.912,0.503
				c0.732,0,1.283-0.152,1.652-0.457c0.369-0.304,0.553-0.76,0.553-1.369c0-0.355-0.117-0.688-0.348-0.999
				c-0.234-0.312-0.814-0.692-1.744-1.144c-0.594-0.287-1.076-0.559-1.445-0.815c-0.369-0.256-0.684-0.601-0.943-1.035
				s-0.391-0.973-0.391-1.615c0-1.032,0.367-1.851,1.104-2.456c0.734-0.604,1.676-0.907,2.824-0.907c1.006,0,1.914,0.126,2.729,0.38
				v1.496c-0.855-0.293-1.686-0.44-2.492-0.44c-0.67,0-1.172,0.144-1.502,0.431c-0.332,0.287-0.498,0.718-0.498,1.292
				c0,0.301,0.105,0.583,0.318,0.846c0.211,0.264,0.74,0.597,1.59,1c0.615,0.287,1.123,0.565,1.527,0.836
				c0.402,0.271,0.742,0.636,1.02,1.097c0.277,0.462,0.416,1.041,0.416,1.738c0,1.176-0.365,2.068-1.092,2.676
				C140.047,34.193,139.006,34.497,137.652,34.497z"/>
			<path style="fill:#010101;" d="M67.9,59.533h-2.184v-10.5h-1.363v-1.426H67.9V59.533z M66.814,43.424
				c0.334,0,0.623,0.123,0.867,0.369c0.242,0.246,0.363,0.537,0.363,0.872c0,0.342-0.119,0.634-0.359,0.877
				c-0.238,0.243-0.529,0.364-0.871,0.364c-0.35,0-0.643-0.121-0.883-0.364c-0.238-0.243-0.357-0.535-0.357-0.877
				c0-0.349,0.119-0.643,0.357-0.882C66.172,43.544,66.465,43.424,66.814,43.424z"/>
			<path style="fill:#010101;" d="M79.766,59.533H77.58v-7.916c0-0.896-0.156-1.566-0.471-2.015s-0.787-0.672-1.416-0.672
				c-0.793,0-1.408,0.301-1.846,0.902s-0.656,1.384-0.656,2.349v7.352h-2.184V47.607h1.221l0.441,1.764
				c0.758-1.291,1.912-1.938,3.465-1.938c1.211,0,2.117,0.318,2.723,0.953c0.605,0.637,0.908,1.586,0.908,2.852V59.533z"/>
			<path style="fill:#010101;" d="M90.162,59.533l-0.461-1.467c-0.631,1.088-1.707,1.631-3.23,1.631c-1.416,0-2.48-0.5-3.195-1.502
				c-0.713-1.002-1.07-2.565-1.07-4.691c0-1.784,0.381-3.242,1.143-4.373s1.844-1.697,3.246-1.697c1.148,0,2.01,0.346,2.584,1.035
				v-5.168h2.184v16.232H90.162z M89.25,54.099l-0.012-0.677c0-1.777-0.199-2.977-0.6-3.6c-0.4-0.621-0.969-0.933-1.707-0.933
				c-0.82,0-1.436,0.38-1.846,1.138c-0.41,0.76-0.615,1.897-0.615,3.415c0,1.593,0.197,2.786,0.596,3.579
				c0.395,0.793,0.99,1.189,1.783,1.189c0.771,0,1.365-0.287,1.779-0.861S89.25,55.691,89.25,54.099z"/>
			<path style="fill:#010101;" d="M96.848,59.533h-2.184v-10.5h-1.363v-1.426h3.547V59.533z M95.762,43.424
				c0.334,0,0.623,0.123,0.865,0.369s0.365,0.537,0.365,0.872c0,0.342-0.121,0.634-0.359,0.877c-0.24,0.243-0.531,0.364-0.871,0.364
				c-0.35,0-0.645-0.121-0.883-0.364c-0.24-0.243-0.359-0.535-0.359-0.877c0-0.349,0.119-0.643,0.359-0.882
				C95.117,43.544,95.412,43.424,95.762,43.424z"/>
			<path style="fill:#010101;" d="M104.365,59.697c-1.621,0-2.846-0.531-3.672-1.595c-0.828-1.062-1.24-2.623-1.24-4.681
				c0-1.914,0.445-3.391,1.338-4.43s2.189-1.559,3.891-1.559c0.664,0,1.336,0.086,2.021,0.256v1.487
				c-0.521-0.164-1.166-0.246-1.939-0.246c-0.998,0-1.754,0.398-2.271,1.194c-0.516,0.797-0.773,1.909-0.773,3.338
				c0,1.538,0.258,2.714,0.773,3.527c0.518,0.813,1.273,1.221,2.271,1.221c0.861,0,1.535-0.079,2.021-0.236v1.415
				C106.053,59.595,105.246,59.697,104.365,59.697z"/>
			<path style="fill:#010101;" d="M114.793,57.811c-0.738,1.258-1.887,1.887-3.445,1.887c-1.088,0-1.934-0.306-2.539-0.918
				c-0.604-0.611-0.906-1.468-0.906-2.568c0-1.135,0.311-1.98,0.934-2.538c0.621-0.557,1.365-0.905,2.234-1.046
				c0.867-0.14,1.924-0.21,3.168-0.21v-1.405c0-1.387-0.742-2.081-2.225-2.081c-0.855,0-1.896,0.181-3.127,0.544v-1.528
				c1.236-0.342,2.412-0.513,3.527-0.513c1.312,0,2.309,0.316,2.988,0.948c0.68,0.633,1.021,1.563,1.021,2.794v8.357h-1.189
				L114.793,57.811z M114.238,53.719h-1.219c-0.979,0-1.711,0.207-2.201,0.621c-0.488,0.414-0.732,1.03-0.732,1.851
				c0,0.67,0.148,1.171,0.445,1.502c0.299,0.332,0.744,0.497,1.34,0.497c0.75,0,1.334-0.238,1.748-0.717
				c0.412-0.479,0.619-1.129,0.619-1.949V53.719z"/>
			<path style="fill:#010101;" d="M122.41,59.697c-0.93,0-1.609-0.217-2.039-0.651c-0.432-0.434-0.646-1.126-0.646-2.076v-7.937
				h-1.568v-0.82l3.188-3.25h0.564v2.645h2.902v1.426h-2.902v7.578c0,0.648,0.105,1.078,0.318,1.286
				c0.211,0.209,0.533,0.313,0.963,0.313c0.445,0,1.047-0.1,1.805-0.298v1.415C124.078,59.574,123.217,59.697,122.41,59.697z"/>
			<path style="fill:#010101;" d="M130.799,59.697c-1.607,0-2.809-0.526-3.609-1.579c-0.799-1.053-1.199-2.632-1.199-4.737
				c0-1.832,0.414-3.281,1.246-4.348c0.83-1.066,2.018-1.6,3.562-1.6c1.559,0,2.75,0.526,3.574,1.579
				c0.822,1.053,1.234,2.522,1.234,4.409c0,1.941-0.385,3.473-1.152,4.594C133.686,59.137,132.467,59.697,130.799,59.697z
				 M130.799,58.293c0.842,0,1.475-0.381,1.902-1.144s0.641-2.039,0.641-3.83c0-1.265-0.219-2.325-0.656-3.184
				s-1.066-1.287-1.887-1.287c-0.834,0-1.467,0.386-1.896,1.159c-0.432,0.771-0.646,1.876-0.646,3.312
				c0,1.613,0.215,2.846,0.646,3.696C129.332,57.867,129.965,58.293,130.799,58.293z"/>
			<path style="fill:#010101;" d="M139.299,47.607l0.502,1.99c0.664-1.402,1.818-2.103,3.467-2.103c0.219,0,0.379,0.011,0.482,0.03
				v1.99c-0.172-0.014-0.428-0.021-0.77-0.021c-0.938,0-1.623,0.225-2.061,0.672c-0.438,0.448-0.656,1.146-0.656,2.098v7.27h-2.186
				V47.607H139.299z"/>
		</g>
		<g id="duiprogressindicator-bar-background">
			<g id="Normal_76_" style="opacity:0.2;">
				<path style="fill:#010101;" d="M134,254.449c0,3.3-2.7,6-6,6h-18c-3.3,0-6-2.7-6-6v-4c0-3.3,2.7-6,6-6h18c3.3,0,6,2.7,6,6
					V254.449z"/>
			</g>
			<g id="Normal_75_">
				<path style="fill:#CCCCCC;" d="M133,254.449c0,2.75-2.25,5-5,5h-18c-2.75,0-5-2.25-5-5v-2c0-2.75,2.25-5,5-5h18
					c2.75,0,5,2.25,5,5V254.449z"/>
			</g>
			<g id="Normal_74_">
				<path style="fill:#010101;" d="M133,252.449c0,2.75-2.25,5-5,5h-18c-2.75,0-5-2.25-5-5v-2c0-2.75,2.25-5,5-5h18
					c2.75,0,5,2.25,5,5V252.449z"/>
			</g>
			<g id="Normal_73_">
				<linearGradient id="SVGID_1_" gradientUnits="userSpaceOnUse" x1="119" y1="258.4492" x2="119" y2="246.4492">
					<stop  offset="0" style="stop-color:#1A1A1A"/>
					<stop  offset="1" style="stop-color:#000000"/>
				</linearGradient>
				<path style="fill:url(#SVGID_1_);" d="M133,253.449c0,2.75-2.25,5-5,5h-18c-2.75,0-5-2.25-5-5v-2c0-2.75,2.25-5,5-5h18
					c2.75,0,5,2.25,5,5V253.449z"/>
			</g>
		</g>
		<g id="duiprogressindicator-bar-progress">
			<rect x="104" y="264.449" style="opacity:0;fill:#010101;" width="30" height="16"/>
			<g id="Normal_72_">
				<linearGradient id="SVGID_2_" gradientUnits="userSpaceOnUse" x1="119" y1="278.4492" x2="119" y2="266.4492">
					<stop  offset="0" style="stop-color:#74CCD4"/>
					<stop  offset="0.1301" style="stop-color:#66C2D6"/>
					<stop  offset="0.4156" style="stop-color:#4BB5DC"/>
					<stop  offset="0.7046" style="stop-color:#35ADDF"/>
					<stop  offset="1" style="stop-color:#2AAAE2"/>
				</linearGradient>
				<path style="fill:url(#SVGID_2_);" d="M133,273.449c0,2.75-2.25,5-5,5h-18c-2.75,0-5-2.25-5-5v-2c0-2.75,2.25-5,5-5h18
					c2.75,0,5,2.25,5,5V273.449z"/>
			</g>
		</g>
		<g id="duiprogressindicator-bar-progress-unknown-mask">
			<rect x="104" y="214.588" style="opacity:0;fill:#010101;" width="22" height="22"/>
			<path style="fill:#FFFFFF;" d="M123.083,226.588c0,3.85-3.149,7-7,7h-2c-3.851,0-7-3.15-7-7v-2c0-3.851,3.149-7,7-7h2
				c3.851,0,7,3.149,7,7V226.588z"/>
		</g>
		<g id="duiprogressindicator-bar-progress-unknown">
			<rect x="107" y="193" style="fill:#F2F2F2;" width="16" height="16"/>
			<path style="fill:#CCCCCC;" d="M123,197.243L111.242,209H107v-4.243L118.758,193H123V197.243z M123,204.758L118.757,209H123
				V204.758z M107,197.242l4.243-4.242H107V197.242z"/>
		</g>
		<g id="duiprogressindicator-spinner-large-on">
			<circle style="opacity:0.2;fill:#010101;" cx="114" cy="144" r="8"/>
			<radialGradient id="SVGID_3_" cx="114" cy="144" r="7" gradientUnits="userSpaceOnUse">
				<stop  offset="0" style="stop-color:#42C4E3"/>
				<stop  offset="1" style="stop-color:#2AAAE2"/>
			</radialGradient>
			<circle style="fill:url(#SVGID_3_);" cx="114" cy="144" r="7"/>
		</g>
		<g id="duiprogressindicator-spinner-large-off">
			<circle style="opacity:0.2;fill:#010101;" cx="92" cy="144" r="8"/>
			<circle style="opacity:0.2;fill:#010101;" cx="92" cy="144" r="7"/>
		</g>
		<g id="duiprogressindicator-spinner-medium-on">
			<circle style="opacity:0.2;fill:#010101;" cx="114" cy="118" r="5"/>
			<radialGradient id="SVGID_4_" cx="114" cy="118" r="4" gradientUnits="userSpaceOnUse">
				<stop  offset="0" style="stop-color:#42C4E3"/>
				<stop  offset="1" style="stop-color:#2AAAE2"/>
			</radialGradient>
			<circle style="fill:url(#SVGID_4_);" cx="114" cy="118" r="4"/>
		</g>
		<g id="duiprogressindicator-spinner-medium-off">
			<circle style="opacity:0.2;fill:#010101;" cx="92" cy="118" r="5"/>
			<circle style="opacity:0.2;fill:#010101;" cx="92" cy="118" r="4"/>
		</g>
		<g id="duiprogressindicator-spinner-small-on">
			<circle style="opacity:0.2;fill:#010101;" cx="114" cy="92" r="4"/>
			<radialGradient id="SVGID_5_" cx="114" cy="92" r="3" gradientUnits="userSpaceOnUse">
				<stop  offset="0" style="stop-color:#42C4E3"/>
				<stop  offset="1" style="stop-color:#2AAAE2"/>
			</radialGradient>
			<circle style="fill:url(#SVGID_5_);" cx="114" cy="92" r="3"/>
		</g>
		<g id="duiprogressindicator-spinner-small-off">
			<circle style="opacity:0.2;fill:#010101;" cx="92" cy="92" r="4"/>
			<circle style="opacity:0.2;fill:#010101;" cx="92" cy="92" r="3"/>
		</g>
	</g>
</g>
</svg>
