<?xml version="1.0" encoding="iso-8859-1"?>
<!-- Generator: Adobe Illustrator 14.0.0, SVG Export Plug-In . SVG Version: 6.00 Build 43363)  -->
<!DOCTYPE svg PUBLIC "-//W3C//DTD SVG 1.1//EN" "http://www.w3.org/Graphics/SVG/1.1/DTD/svg11.dtd">
<svg version="1.1" xmlns="http://www.w3.org/2000/svg" xmlns:xlink="http://www.w3.org/1999/xlink" x="0px" y="0px" width="52px"
	 height="74px" viewBox="0 0 52 74" style="enable-background:new 0 0 52 74;" xml:space="preserve">
<g id="duiprogress_indicator-layer">
</g>
<g id="dui-theme-rd">
	<g id="duiprogress_indicator">
		<g id="duiprogressindicator-bar-background">
			<path style="fill:#808080;" d="M10,73.588c-4.963,0-9-4.038-9-9v-2c0-4.963,4.037-9,9-9h2c4.963,0,9,4.037,9,9v2
				c0,4.962-4.037,9-9,9H10z"/>
			<path style="fill:#999999;" d="M12,54.588c4.411,0,8,3.588,8,8v2c0,4.41-3.589,8-8,8h-2c-4.411,0-8-3.59-8-8v-2
				c0-4.412,3.589-8,8-8H12 M12,52.588h-2c-5.5,0-10,4.5-10,10v2c0,5.5,4.5,10,10,10h2c5.5,0,10-4.5,10-10v-2
				C22,57.088,17.5,52.588,12,52.588L12,52.588z"/>
		</g>
		<g id="duiprogressindicator-bar-progress">
			<rect x="30" y="52.588" style="opacity:0;fill:#010101;" width="22" height="22"/>
			<path style="fill:#E6E6E6;" d="M49.083,64.588c0,3.85-3.149,7-7,7h-2c-3.851,0-7-3.15-7-7v-2c0-3.851,3.149-7,7-7h2
				c3.851,0,7,3.149,7,7V64.588z"/>
		</g>
		<g id="duiprogressindicator-bar-progress-unknown-mask">
			<rect x="30" y="22.588" style="opacity:0;fill:#010101;" width="22" height="22"/>
			<path style="fill:#FFFFFF;" d="M49.083,34.588c0,3.85-3.149,7-7,7h-2c-3.851,0-7-3.15-7-7v-2c0-3.851,3.149-7,7-7h2
				c3.851,0,7,3.149,7,7V34.588z"/>
		</g>
		<g id="duiprogressindicator-bar-progress-unknown">
			<rect x="33" y="1" style="fill:#F2F2F2;" width="16" height="16"/>
			<path style="fill:#CCCCCC;" d="M49,5.243L37.242,17H33v-4.243L44.758,1H49V5.243z M49,12.758L44.757,17H49V12.758z M33,5.242
				L37.243,1H33V5.242z"/>
		</g>
	</g>
</g>
</svg>
