<?xml version="1.0" encoding="UTF-8" standalone="no"?>
<!-- Generator: Adobe Illustrator 14.0.0, SVG Export Plug-In . SVG Version: 6.00 Build 43363)  -->

<svg
   xmlns:dc="http://purl.org/dc/elements/1.1/"
   xmlns:cc="http://creativecommons.org/ns#"
   xmlns:rdf="http://www.w3.org/1999/02/22-rdf-syntax-ns#"
   xmlns:svg="http://www.w3.org/2000/svg"
   xmlns="http://www.w3.org/2000/svg"
   xmlns:sodipodi="http://sodipodi.sourceforge.net/DTD/sodipodi-0.dtd"
   xmlns:inkscape="http://www.inkscape.org/namespaces/inkscape"
   version="1.1"
   x="0px"
   y="0px"
   width="200px"
   height="80px"
   viewBox="0 0 200 80"
   style="enable-background:new 0 0 200 80;"
   xml:space="preserve"
   id="svg2"
   inkscape:version="0.47pre4 r22446"
   sodipodi:docname="duipositionindicator.svg"><metadata
   id="metadata62"><rdf:RDF><cc:Work
       rdf:about=""><dc:format>image/svg+xml</dc:format><dc:type
         rdf:resource="http://purl.org/dc/dcmitype/StillImage" /></cc:Work></rdf:RDF></metadata><defs
   id="defs60"><inkscape:perspective
   sodipodi:type="inkscape:persp3d"
   inkscape:vp_x="0 : 40 : 1"
   inkscape:vp_y="0 : 1000 : 0"
   inkscape:vp_z="200 : 40 : 1"
   inkscape:persp3d-origin="100 : 26.666667 : 1"
   id="perspective64" />
		
		
		
	</defs><sodipodi:namedview
   pagecolor="#ffffff"
   bordercolor="#666666"
   borderopacity="1"
   objecttolerance="10"
   gridtolerance="10"
   guidetolerance="10"
   inkscape:pageopacity="0"
   inkscape:pageshadow="2"
   inkscape:window-width="1300"
   inkscape:window-height="1031"
   id="namedview58"
   showgrid="false"
   inkscape:zoom="8"
   inkscape:cx="28.10859"
   inkscape:cy="41.385133"
   inkscape:window-x="960"
   inkscape:window-y="158"
   inkscape:window-maximized="0"
   inkscape:current-layer="dui-theme-rd"><inkscape:grid
     type="xygrid"
     id="grid2870" /></sodipodi:namedview>
<g
   id="duipositionindicator-layer">
</g>
<g
   id="dui-theme-rd">
	<g
   id="duipositionindicatorThemeTemplateHelper">
			<g
   id="g8">
				<path
   id="path10"
   d="M 16,79 C 7.729,79 1,72.271 1,64 V 16 C 1,7.729 7.729,1 16,1 h 168 c 8.271,0 15,6.729 15,15 v 48 c 0,8.271 -6.729,15 -15,15 H 16 z"
   style="fill:#b3b3b3" />
				<g
   id="g12">
					<path
   id="path14"
   d="m 184,2 c 7.72,0 14,6.28 14,14 v 48 c 0,7.72 -6.28,14 -14,14 H 16 C 8.28,78 2,71.72 2,64 V 16 C 2,8.28 8.28,2 16,2 h 168 m 0,-2 H 16 C 7.2,0 0,7.2 0,16 v 48 c 0,8.8 7.2,16 16,16 h 168 c 8.8,0 16,-7.2 16,-16 V 16 C 200,7.2 192.8,0 184,0 l 0,0 z" />
				</g>
			</g>
			<path
   id="path16"
   d="m 26.465,10.711 h 4.051 c 1.6,0 2.766,0.375 3.496,1.123 0.732,0.749 1.098,1.95 1.098,3.604 0,1.62 -0.439,2.864 -1.318,3.732 -0.877,0.868 -2.131,1.302 -3.758,1.302 H 28.67 V 26 H 26.465 V 10.711 z m 2.205,1.467 v 6.809 h 1.24 c 0.998,0 1.734,-0.265 2.205,-0.795 0.473,-0.529 0.707,-1.427 0.707,-2.691 0,-1.264 -0.217,-2.135 -0.65,-2.609 -0.433,-0.474 -1.113,-0.713 -2.035,-0.713 H 28.67 z"
   style="fill:#010101" />
			<path
   id="path18"
   d="m 41.723,26.164 c -1.607,0 -2.809,-0.526 -3.609,-1.579 -0.799,-1.053 -1.199,-2.632 -1.199,-4.737 0,-1.832 0.414,-3.281 1.246,-4.348 0.83,-1.066 2.018,-1.6 3.562,-1.6 1.559,0 2.75,0.526 3.574,1.579 0.822,1.053 1.234,2.522 1.234,4.409 0,1.941 -0.385,3.473 -1.152,4.594 -0.77,1.122 -1.988,1.682 -3.656,1.682 z m 0,-1.404 c 0.842,0 1.475,-0.381 1.902,-1.144 0.427,-0.763 0.641,-2.039 0.641,-3.83 0,-1.265 -0.219,-2.325 -0.656,-3.184 -0.437,-0.859 -1.066,-1.287 -1.887,-1.287 -0.834,0 -1.467,0.386 -1.896,1.159 -0.432,0.771 -0.646,1.876 -0.646,3.312 0,1.613 0.215,2.846 0.646,3.696 0.429,0.852 1.062,1.278 1.896,1.278 z"
   style="fill:#010101" />
			<path
   id="path20"
   d="m 51.299,26.164 c -0.895,0 -1.916,-0.133 -3.064,-0.4 v -1.568 c 1.23,0.335 2.201,0.502 2.912,0.502 0.73,0 1.281,-0.151 1.65,-0.456 0.369,-0.304 0.553,-0.761 0.553,-1.368 0,-0.355 -0.115,-0.689 -0.348,-1 -0.233,-0.311 -0.814,-0.692 -1.744,-1.144 -0.594,-0.287 -1.076,-0.559 -1.445,-0.815 -0.369,-0.256 -0.684,-0.602 -0.943,-1.035 -0.259,-0.433 -0.389,-0.973 -0.389,-1.615 0,-1.032 0.367,-1.851 1.102,-2.456 0.734,-0.604 1.676,-0.907 2.824,-0.907 1.006,0 1.914,0.127 2.729,0.379 v 1.498 c -0.855,-0.295 -1.686,-0.441 -2.492,-0.441 -0.67,0 -1.17,0.144 -1.502,0.431 -0.332,0.287 -0.498,0.718 -0.498,1.292 0,0.301 0.107,0.583 0.318,0.846 0.213,0.264 0.742,0.597 1.59,1 0.615,0.287 1.125,0.566 1.527,0.836 0.404,0.27 0.744,0.636 1.021,1.097 0.275,0.462 0.414,1.041 0.414,1.738 0,1.176 -0.363,2.067 -1.092,2.677 -0.729,0.604 -1.77,0.909 -3.123,0.909 z"
   style="fill:#010101" />
			<path
   id="path22"
   d="M 60.199,26 H 58.015 V 15.5 h -1.363 v -1.426 h 3.547 V 26 z M 59.113,9.891 c 0.334,0 0.623,0.123 0.867,0.369 0.242,0.246 0.363,0.537 0.363,0.872 0,0.342 -0.119,0.634 -0.359,0.877 -0.238,0.243 -0.529,0.364 -0.871,0.364 -0.35,0 -0.643,-0.121 -0.883,-0.364 -0.238,-0.243 -0.357,-0.535 -0.357,-0.877 0,-0.349 0.119,-0.643 0.357,-0.882 0.241,-0.239 0.534,-0.359 0.883,-0.359 z"
   style="fill:#010101" />
			<path
   id="path24"
   d="m 66.352,26.164 c -0.93,0 -1.609,-0.217 -2.039,-0.651 -0.432,-0.434 -0.646,-1.126 -0.646,-2.076 V 15.5 h -1.568 v -0.82 l 3.188,-3.25 h 0.564 v 2.645 h 2.902 V 15.5 H 65.85 v 7.578 c 0,0.648 0.105,1.078 0.318,1.286 0.211,0.209 0.533,0.313 0.963,0.313 0.445,0 1.047,-0.1 1.805,-0.298 v 1.415 c -0.916,0.247 -1.778,0.37 -2.584,0.37 z"
   style="fill:#010101" />
			<path
   id="path26"
   d="M 73.1,26 H 70.916 V 15.5 H 69.553 V 14.074 H 73.1 V 26 z M 72.014,9.891 c 0.334,0 0.623,0.123 0.865,0.369 0.242,0.246 0.365,0.537 0.365,0.872 0,0.342 -0.121,0.634 -0.359,0.877 -0.24,0.243 -0.531,0.364 -0.871,0.364 -0.35,0 -0.645,-0.121 -0.883,-0.364 -0.24,-0.243 -0.359,-0.535 -0.359,-0.877 0,-0.349 0.119,-0.643 0.359,-0.882 0.238,-0.239 0.533,-0.359 0.883,-0.359 z"
   style="fill:#010101" />
			<path
   id="path28"
   d="m 80.514,26.164 c -1.607,0 -2.809,-0.526 -3.609,-1.579 -0.799,-1.053 -1.199,-2.632 -1.199,-4.737 0,-1.832 0.414,-3.281 1.246,-4.348 0.83,-1.066 2.018,-1.6 3.562,-1.6 1.559,0 2.75,0.526 3.574,1.579 0.822,1.053 1.234,2.522 1.234,4.409 0,1.941 -0.385,3.473 -1.152,4.594 -0.77,1.122 -1.988,1.682 -3.656,1.682 z m 0,-1.404 c 0.842,0 1.475,-0.381 1.902,-1.144 0.427,-0.763 0.641,-2.039 0.641,-3.83 0,-1.265 -0.219,-2.325 -0.656,-3.184 -0.437,-0.859 -1.066,-1.287 -1.887,-1.287 -0.834,0 -1.467,0.386 -1.896,1.159 -0.432,0.771 -0.646,1.876 -0.646,3.312 0,1.613 0.215,2.846 0.646,3.696 0.429,0.852 1.062,1.278 1.896,1.278 z"
   style="fill:#010101" />
			<path
   id="path30"
   d="m 96.551,26 h -2.184 v -7.916 c 0,-0.896 -0.158,-1.566 -0.473,-2.015 -0.315,-0.449 -0.785,-0.672 -1.414,-0.672 -0.793,0 -1.408,0.301 -1.846,0.902 -0.438,0.601 -0.656,1.384 -0.656,2.349 V 26 H 87.792 V 14.074 h 1.221 l 0.441,1.764 c 0.758,-1.291 1.914,-1.938 3.465,-1.938 1.211,0 2.119,0.318 2.723,0.953 0.605,0.637 0.908,1.586 0.908,2.852 V 26 z"
   style="fill:#010101" />
			<path
   id="path32"
   d="m 106.969,26 h -2.184 V 15.5 h -1.363 v -1.426 h 3.547 V 26 z M 105.883,9.891 c 0.334,0 0.623,0.123 0.865,0.369 0.242,0.246 0.365,0.537 0.365,0.872 0,0.342 -0.121,0.634 -0.359,0.877 -0.24,0.243 -0.531,0.364 -0.871,0.364 -0.35,0 -0.645,-0.121 -0.883,-0.364 -0.24,-0.243 -0.359,-0.535 -0.359,-0.877 0,-0.349 0.119,-0.643 0.359,-0.882 0.238,-0.239 0.533,-0.359 0.883,-0.359 z"
   style="fill:#010101" />
			<path
   id="path34"
   d="m 118.834,26 h -2.186 v -7.916 c 0,-0.896 -0.156,-1.566 -0.471,-2.015 -0.315,-0.449 -0.787,-0.672 -1.416,-0.672 -0.793,0 -1.408,0.301 -1.846,0.902 -0.438,0.601 -0.656,1.384 -0.656,2.349 V 26 h -2.184 V 14.074 h 1.221 l 0.441,1.764 c 0.758,-1.291 1.912,-1.938 3.465,-1.938 1.211,0 2.117,0.318 2.723,0.953 0.605,0.637 0.908,1.586 0.908,2.852 V 26 z"
   style="fill:#010101" />
			<path
   id="path36"
   d="m 129.23,26 -0.461,-1.467 c -0.631,1.088 -1.707,1.631 -3.23,1.631 -1.416,0 -2.48,-0.5 -3.195,-1.502 -0.713,-1.002 -1.07,-2.565 -1.07,-4.691 0,-1.784 0.381,-3.242 1.143,-4.373 0.762,-1.131 1.844,-1.697 3.246,-1.697 1.148,0 2.01,0.346 2.584,1.035 V 9.768 h 2.184 V 26 h -1.201 z m -0.912,-5.435 -0.012,-0.677 c 0,-1.777 -0.199,-2.977 -0.6,-3.6 -0.4,-0.621 -0.969,-0.933 -1.707,-0.933 -0.82,0 -1.436,0.38 -1.846,1.138 -0.41,0.76 -0.615,1.897 -0.615,3.415 0,1.593 0.197,2.786 0.596,3.579 0.395,0.793 0.99,1.189 1.783,1.189 0.771,0 1.365,-0.287 1.779,-0.861 0.414,-0.574 0.622,-1.657 0.622,-3.25 z"
   style="fill:#010101" />
			<path
   id="path38"
   d="m 135.916,26 h -2.184 V 15.5 h -1.363 v -1.426 h 3.547 V 26 z M 134.83,9.891 c 0.334,0 0.623,0.123 0.865,0.369 0.242,0.246 0.365,0.537 0.365,0.872 0,0.342 -0.121,0.634 -0.359,0.877 -0.24,0.243 -0.531,0.364 -0.871,0.364 -0.35,0 -0.645,-0.121 -0.883,-0.364 -0.24,-0.243 -0.359,-0.535 -0.359,-0.877 0,-0.349 0.119,-0.643 0.359,-0.882 0.239,-0.239 0.533,-0.359 0.883,-0.359 z"
   style="fill:#010101" />
			<path
   id="path40"
   d="m 143.434,26.164 c -1.621,0 -2.846,-0.531 -3.672,-1.595 -0.828,-1.062 -1.24,-2.623 -1.24,-4.681 0,-1.914 0.445,-3.391 1.338,-4.43 0.893,-1.039 2.189,-1.559 3.891,-1.559 0.664,0 1.336,0.086 2.021,0.256 v 1.487 c -0.521,-0.164 -1.166,-0.246 -1.939,-0.246 -0.998,0 -1.754,0.398 -2.271,1.194 -0.516,0.797 -0.773,1.909 -0.773,3.338 0,1.538 0.258,2.714 0.773,3.527 0.518,0.813 1.273,1.221 2.271,1.221 0.861,0 1.535,-0.079 2.021,-0.236 v 1.415 c -0.733,0.207 -1.54,0.309 -2.42,0.309 z"
   style="fill:#010101" />
			<path
   id="path42"
   d="m 153.861,24.277 c -0.738,1.258 -1.887,1.887 -3.445,1.887 -1.088,0 -1.934,-0.306 -2.539,-0.918 -0.604,-0.611 -0.906,-1.468 -0.906,-2.568 0,-1.135 0.311,-1.98 0.934,-2.538 0.621,-0.557 1.365,-0.905 2.234,-1.046 0.867,-0.14 1.924,-0.21 3.168,-0.21 v -1.405 c 0,-1.387 -0.742,-2.081 -2.225,-2.081 -0.855,0 -1.896,0.181 -3.127,0.544 v -1.528 c 1.236,-0.342 2.412,-0.513 3.527,-0.513 1.312,0 2.309,0.316 2.988,0.948 0.68,0.633 1.021,1.563 1.021,2.794 V 26 h -1.189 l -0.441,-1.723 z m -0.554,-4.091 h -1.219 c -0.979,0 -1.711,0.207 -2.201,0.621 -0.488,0.414 -0.732,1.03 -0.732,1.851 0,0.67 0.148,1.171 0.445,1.502 0.299,0.332 0.744,0.497 1.34,0.497 0.75,0 1.334,-0.238 1.748,-0.717 0.412,-0.479 0.619,-1.129 0.619,-1.949 v -1.805 z"
   style="fill:#010101" />
			<path
   id="path44"
   d="m 161.479,26.164 c -0.93,0 -1.609,-0.217 -2.039,-0.651 -0.432,-0.434 -0.646,-1.126 -0.646,-2.076 V 15.5 h -1.568 v -0.82 l 3.188,-3.25 h 0.564 v 2.645 h 2.902 V 15.5 h -2.902 v 7.578 c 0,0.648 0.105,1.078 0.318,1.286 0.211,0.209 0.533,0.313 0.963,0.313 0.445,0 1.047,-0.1 1.805,-0.298 v 1.415 c -0.918,0.247 -1.779,0.37 -2.585,0.37 z"
   style="fill:#010101" />
			<path
   id="path46"
   d="m 169.867,26.164 c -1.607,0 -2.809,-0.526 -3.609,-1.579 -0.799,-1.053 -1.199,-2.632 -1.199,-4.737 0,-1.832 0.414,-3.281 1.246,-4.348 0.83,-1.066 2.018,-1.6 3.562,-1.6 1.559,0 2.75,0.526 3.574,1.579 0.822,1.053 1.234,2.522 1.234,4.409 0,1.941 -0.385,3.473 -1.152,4.594 -0.769,1.122 -1.988,1.682 -3.656,1.682 z m 0,-1.404 c 0.842,0 1.475,-0.381 1.902,-1.144 0.427,-0.763 0.641,-2.039 0.641,-3.83 0,-1.265 -0.219,-2.325 -0.656,-3.184 -0.437,-0.859 -1.066,-1.287 -1.887,-1.287 -0.834,0 -1.467,0.386 -1.896,1.159 -0.432,0.771 -0.646,1.876 -0.646,3.312 0,1.613 0.215,2.846 0.646,3.696 0.429,0.852 1.062,1.278 1.896,1.278 z"
   style="fill:#010101" />
			<path
   id="path48"
   d="m 178.367,14.074 0.502,1.99 c 0.664,-1.402 1.818,-2.103 3.467,-2.103 0.219,0 0.379,0.011 0.482,0.03 v 1.99 c -0.172,-0.014 -0.428,-0.021 -0.77,-0.021 -0.938,0 -1.623,0.225 -2.061,0.672 -0.438,0.448 -0.656,1.146 -0.656,2.098 V 26 h -2.186 V 14.074 h 1.222 z"
   style="fill:#010101" />
		</g><g
   id="duipositionindicator-background">
			<rect
   ry="5"
   rx="5"
   id="rect51"
   height="12"
   width="12"
   style="opacity:0.5;fill:#010101"
   y="53"
   x="28" />
		</g><g
   transform="translate(0,-4)"
   id="duipositionindicator-indicator">
			<rect
   id="rect54"
   height="12"
   width="12"
   style="fill:none"
   y="37"
   x="28" />
			<rect
   transform="matrix(1,0,0,0.66666667,0,14.333333)"
   ry="4.5000005"
   rx="3.0000002"
   id="rect56"
   height="12"
   width="8"
   style="opacity:0.75;fill:white"
   y="37"
   x="30" />
		</g>
</g>
</svg>