<?xml version="1.0" encoding="iso-8859-1"?>
<!-- Generator: Adobe Illustrator 14.0.0, SVG Export Plug-In . SVG Version: 6.00 Build 43363)  -->
<!DOCTYPE svg PUBLIC "-//W3C//DTD SVG 1.1//EN" "http://www.w3.org/Graphics/SVG/1.1/DTD/svg11.dtd">
<svg version="1.1" xmlns="http://www.w3.org/2000/svg" xmlns:xlink="http://www.w3.org/1999/xlink" x="0px" y="0px" width="250px"
	 height="332px" viewBox="0 0 250 332" style="enable-background:new 0 0 250 332;" xml:space="preserve">
<g id="duislider-layer">
</g>
<g id="dui-theme-rd">
	<g id="duislider">
		<g id="duislider-thumb-value-background">
			<path style="fill:#CCCCCC;" d="M102,145c-4.963,0-9-4.037-9-9v-28c0-4.963,4.037-9,9-9h28c4.963,0,9,4.037,9,9v28
				c0,4.963-4.037,9-9,9H102z"/>
			<path style="fill:#999999;" d="M130,100c4.411,0,8,3.589,8,8v28c0,4.411-3.589,8-8,8h-28c-4.411,0-8-3.589-8-8v-28
				c0-4.411,3.589-8,8-8H130 M130,98h-28c-5.5,0-10,4.5-10,10v28c0,5.5,4.5,10,10,10h28c5.5,0,10-4.5,10-10v-28
				C140,102.5,135.5,98,130,98L130,98z"/>
		</g>
		<g id="duislider-vertical-background-elapsed">
			<rect x="25" y="314" style="opacity:0;fill:#010101;" width="22" height="22"/>
			<path style="fill:#B3B3B3;" d="M37,316.916c3.85,0,7,3.15,7,7v2c0,3.85-3.15,7-7,7h-2c-3.85,0-7-3.15-7-7v-2c0-3.85,3.15-7,7-7
				H37z"/>
		</g>
		<g id="duislider-vertical-background-received">
			<rect x="25" y="282" style="opacity:0;" width="22" height="22"/>
			<path style="fill:#E6E6E6;" d="M37,285c3.85,0,7,3.15,7,7v2c0,3.85-3.15,7-7,7h-2c-3.85,0-7-3.15-7-7v-2c0-3.85,3.15-7,7-7H37z"
				/>
		</g>
		<g id="duislider-vertical-background">
			<path style="fill:#808080;" d="M35,271c-4.963,0-9-4.037-9-9v-2c0-4.963,4.037-9,9-9h2c4.963,0,9,4.037,9,9v2
				c0,4.963-4.037,9-9,9H35z"/>
			<path style="fill:#999999;" d="M37,252c4.411,0,8,3.589,8,8v2c0,4.411-3.589,8-8,8h-2c-4.411,0-8-3.589-8-8v-2
				c0-4.411,3.589-8,8-8H37 M37,250h-2c-5.5,0-10,4.5-10,10v2c0,5.5,4.5,10,10,10h2c5.5,0,10-4.5,10-10v-2C47,254.5,42.5,250,37,250
				L37,250z"/>
		</g>
		<g id="duislider-vertical-thumb-pressed">
			<rect y="168" style="opacity:0;fill:#010101;" width="72" height="72"/>
			<linearGradient id="SVGID_1_" gradientUnits="userSpaceOnUse" x1="36" y1="222" x2="36" y2="186">
				<stop  offset="0" style="stop-color:#C9C9C9"/>
				<stop  offset="0.4115" style="stop-color:#C8C8C8"/>
				<stop  offset="0.5598" style="stop-color:#C1C1C1"/>
				<stop  offset="0.6654" style="stop-color:#B5B5B5"/>
				<stop  offset="0.7509" style="stop-color:#A4A4A4"/>
				<stop  offset="0.824" style="stop-color:#8E8E8E"/>
				<stop  offset="0.8888" style="stop-color:#737373"/>
				<stop  offset="0.946" style="stop-color:#535353"/>
				<stop  offset="0.9983" style="stop-color:#2F2F2F"/>
				<stop  offset="1" style="stop-color:#2E2E2E"/>
			</linearGradient>
			<path style="fill:url(#SVGID_1_);" d="M36,222c-12.683,0-23-8.074-23-18s10.317-18,23-18s23,8.074,23,18S48.683,222,36,222
				L36,222z"/>
			<path style="fill:#999999;" d="M36,187c12.131,0,22,7.626,22,17s-9.869,17-22,17s-22-7.626-22-17S23.869,187,36,187 M36,185
				c-13.254,0-24,8.506-24,19c0,10.492,10.746,19,24,19s24-8.508,24-19C60,193.506,49.254,185,36,185L36,185z"/>
		</g>
		<g id="duislider-vertical-thumb">
			<rect y="86" style="opacity:0;fill:#010101;" width="72" height="72"/>
			<linearGradient id="SVGID_2_" gradientUnits="userSpaceOnUse" x1="36" y1="140" x2="36" y2="104">
				<stop  offset="0" style="stop-color:#B3B3B3"/>
				<stop  offset="1" style="stop-color:#FCFCFC"/>
			</linearGradient>
			<path style="fill:url(#SVGID_2_);" d="M36,140c-12.683,0-23-8.074-23-18s10.317-18,23-18s23,8.074,23,18S48.683,140,36,140
				L36,140z"/>
			<path style="fill:#999999;" d="M36,105c12.131,0,22,7.626,22,17s-9.869,17-22,17s-22-7.626-22-17S23.869,105,36,105 M36,103
				c-13.254,0-24,8.506-24,19c0,10.492,10.746,19,24,19s24-8.508,24-19C60,111.506,49.254,103,36,103L36,103z"/>
		</g>
		<g id="duislider-thumb-pressed">
			<rect x="82" y="4" style="fill:none;" width="72" height="72"/>
			<linearGradient id="SVGID_3_" gradientUnits="userSpaceOnUse" x1="118.0005" y1="63" x2="118.0005" y2="17">
				<stop  offset="0" style="stop-color:#C9C9C9"/>
				<stop  offset="0.4115" style="stop-color:#C8C8C8"/>
				<stop  offset="0.5598" style="stop-color:#C1C1C1"/>
				<stop  offset="0.6654" style="stop-color:#B5B5B5"/>
				<stop  offset="0.7509" style="stop-color:#A4A4A4"/>
				<stop  offset="0.824" style="stop-color:#8E8E8E"/>
				<stop  offset="0.8888" style="stop-color:#737373"/>
				<stop  offset="0.946" style="stop-color:#535353"/>
				<stop  offset="0.9983" style="stop-color:#2F2F2F"/>
				<stop  offset="1" style="stop-color:#2E2E2E"/>
			</linearGradient>
			<path style="fill:url(#SVGID_3_);" d="M118,63c-9.374,0-17-10.318-17-23s7.626-23,17-23s17,10.318,17,23S127.374,63,118,63
				L118,63z"/>
			<path style="fill:#999999;" d="M118,18c8.822,0,16,9.869,16,22s-7.178,22-16,22s-16-9.869-16-22S109.178,18,118,18 M118,16
				c-9.939,0-18,10.746-18,24s8.061,24,18,24s18-10.746,18-24S127.939,16,118,16L118,16z"/>
		</g>
		<g id="duislider-thumb">
			<rect y="4" style="opacity:0;fill:#010101;" width="72" height="72"/>
			<linearGradient id="SVGID_4_" gradientUnits="userSpaceOnUse" x1="36" y1="63" x2="36" y2="17">
				<stop  offset="0" style="stop-color:#B3B3B3"/>
				<stop  offset="1" style="stop-color:#FCFCFC"/>
			</linearGradient>
			<path style="fill:url(#SVGID_4_);" d="M36,63c-9.374,0-17-10.318-17-23s7.626-23,17-23s17,10.318,17,23S45.374,63,36,63L36,63z"
				/>
			<path style="fill:#999999;" d="M36,18c8.822,0,16,9.869,16,22s-7.178,22-16,22s-16-9.869-16-22S27.178,18,36,18 M36,16
				c-9.939,0-18,10.746-18,24s8.061,24,18,24s18-10.746,18-24S45.939,16,36,16L36,16z"/>
		</g>
		<g id="duislider-background-elapsed">
			<rect x="228" y="29" style="opacity:0;" width="22" height="22"/>
			<path style="fill:#B3B3B3;" d="M247,41c0,3.85-3.15,7-7,7h-2c-3.85,0-7-3.15-7-7v-2c0-3.85,3.15-7,7-7h2c3.85,0,7,3.15,7,7V41z"
				/>
		</g>
		<g id="duislider-background-received">
			<rect x="196" y="29" style="opacity:0;fill:#010101;" width="22" height="22"/>
			<path style="fill:#E6E6E6;" d="M215.083,41c0,3.85-3.149,7-7,7h-2c-3.851,0-7-3.15-7-7v-2c0-3.85,3.149-7,7-7h2
				c3.851,0,7,3.15,7,7V41z"/>
		</g>
		<g id="duislider-background">
			<path style="fill:#808080;" d="M174,50c-4.963,0-9-4.037-9-9v-2c0-4.963,4.037-9,9-9h2c4.963,0,9,4.037,9,9v2
				c0,4.963-4.037,9-9,9H174z"/>
			<path style="fill:#999999;" d="M176,31c4.411,0,8,3.589,8,8v2c0,4.411-3.589,8-8,8h-2c-4.411,0-8-3.589-8-8v-2
				c0-4.411,3.589-8,8-8H176 M176,29h-2c-5.5,0-10,4.5-10,10v2c0,5.5,4.5,10,10,10h2c5.5,0,10-4.5,10-10v-2
				C186,33.5,181.5,29,176,29L176,29z"/>
		</g>
	</g>
</g>
</svg>
