<?xml version="1.0" encoding="iso-8859-1"?>
<!-- Generator: Adobe Illustrator 14.0.0, SVG Export Plug-In . SVG Version: 6.00 Build 43363)  -->
<!DOCTYPE svg PUBLIC "-//W3C//DTD SVG 1.1//EN" "http://www.w3.org/Graphics/SVG/1.1/DTD/svg11.dtd">
<svg version="1.1" xmlns="http://www.w3.org/2000/svg" xmlns:xlink="http://www.w3.org/1999/xlink" x="0px" y="0px" width="286px"
	 height="106px" viewBox="0 0 286 106" style="enable-background:new 0 0 286 106;" xml:space="preserve">
<g id="duitextedit-layer">
</g>
<g id="dui-theme-rd">
	<g id="duitextedit">
		<g id="duitextedit-background-selected-pressed">
			<path style="fill:#F4A81D;" d="M232,63.5c-5.238,0-9.5-4.262-9.5-9.5V10c0-5.238,4.262-9.5,9.5-9.5h44c5.238,0,9.5,4.262,9.5,9.5
				v44c0,5.238-4.262,9.5-9.5,9.5H232z"/>
			<path style="fill:#999999;" d="M276,1c4.963,0,9,4.037,9,9v44c0,4.963-4.037,9-9,9h-44c-4.963,0-9-4.037-9-9V10
				c0-4.963,4.037-9,9-9H276 M276,0h-44c-5.5,0-10,4.5-10,10v44c0,5.5,4.5,10,10,10h44c5.5,0,10-4.5,10-10V10C286,4.5,281.5,0,276,0
				L276,0z"/>
			<linearGradient id="SVGID_1_" gradientUnits="userSpaceOnUse" x1="254" y1="60.5" x2="254" y2="3.5005">
				<stop  offset="0" style="stop-color:#A7752A"/>
				<stop  offset="1" style="stop-color:#805823"/>
			</linearGradient>
			<path style="fill:url(#SVGID_1_);" d="M232,60.5c-3.584,0-6.5-2.916-6.5-6.5V10c0-3.584,2.916-6.5,6.5-6.5h44
				c3.584,0,6.5,2.916,6.5,6.5v44c0,3.584-2.916,6.5-6.5,6.5H232z"/>
			<path style="fill:#999999;" d="M276,4c3.309,0,6,2.691,6,6v44c0,3.309-2.691,6-6,6h-44c-3.309,0-6-2.691-6-6V10
				c0-3.309,2.691-6,6-6H276 M276,3h-44c-3.85,0-7,3.15-7,7v44c0,3.85,3.15,7,7,7h44c3.85,0,7-3.15,7-7V10C283,6.15,279.85,3,276,3
				L276,3z"/>
		</g>
		<g id="duitextedit-background-selected">
			<path style="fill:#F4A81D;" d="M158,63.5c-5.238,0-9.5-4.262-9.5-9.5V10c0-5.238,4.262-9.5,9.5-9.5h44c5.238,0,9.5,4.262,9.5,9.5
				v44c0,5.238-4.262,9.5-9.5,9.5H158z"/>
			<path style="fill:#999999;" d="M202,1c4.963,0,9,4.037,9,9v44c0,4.963-4.037,9-9,9h-44c-4.963,0-9-4.037-9-9V10
				c0-4.963,4.037-9,9-9H202 M202,0h-44c-5.5,0-10,4.5-10,10v44c0,5.5,4.5,10,10,10h44c5.5,0,10-4.5,10-10V10C212,4.5,207.5,0,202,0
				L202,0z"/>
			<path style="fill:#FFFFFF;" d="M158,60.5c-3.584,0-6.5-2.916-6.5-6.5V10c0-3.584,2.916-6.5,6.5-6.5h44c3.584,0,6.5,2.916,6.5,6.5
				v44c0,3.584-2.916,6.5-6.5,6.5H158z"/>
			<path style="fill:#999999;" d="M202,4c3.309,0,6,2.691,6,6v44c0,3.309-2.691,6-6,6h-44c-3.309,0-6-2.691-6-6V10
				c0-3.309,2.691-6,6-6H202 M202,3h-44c-3.85,0-7,3.15-7,7v44c0,3.85,3.15,7,7,7h44c3.85,0,7-3.15,7-7V10C209,6.15,205.85,3,202,3
				L202,3z"/>
		</g>
		<g id="duitextedit-background-pressed">
			<path style="fill:#FFFFFF;" d="M84,63.5c-5.238,0-9.5-4.262-9.5-9.5V10c0-5.238,4.262-9.5,9.5-9.5h44c5.238,0,9.5,4.262,9.5,9.5
				v44c0,5.238-4.262,9.5-9.5,9.5H84z"/>
			<path style="fill:#999999;" d="M128,1c4.963,0,9,4.037,9,9v44c0,4.963-4.037,9-9,9H84c-4.963,0-9-4.037-9-9V10
				c0-4.963,4.037-9,9-9H128 M128,0H84c-5.5,0-10,4.5-10,10v44c0,5.5,4.5,10,10,10h44c5.5,0,10-4.5,10-10V10C138,4.5,133.5,0,128,0
				L128,0z"/>
			<linearGradient id="SVGID_2_" gradientUnits="userSpaceOnUse" x1="106" y1="60.5" x2="106" y2="3.5005">
				<stop  offset="0" style="stop-color:#C9C9C9"/>
				<stop  offset="0.4115" style="stop-color:#C8C8C8"/>
				<stop  offset="0.5598" style="stop-color:#C1C1C1"/>
				<stop  offset="0.6654" style="stop-color:#B5B5B5"/>
				<stop  offset="0.7509" style="stop-color:#A4A4A4"/>
				<stop  offset="0.824" style="stop-color:#8E8E8E"/>
				<stop  offset="0.8888" style="stop-color:#737373"/>
				<stop  offset="0.946" style="stop-color:#535353"/>
				<stop  offset="0.9983" style="stop-color:#2F2F2F"/>
				<stop  offset="1" style="stop-color:#2E2E2E"/>
			</linearGradient>
			<path style="fill:url(#SVGID_2_);" d="M84,60.5c-3.584,0-6.5-2.916-6.5-6.5V10c0-3.584,2.916-6.5,6.5-6.5h44
				c3.584,0,6.5,2.916,6.5,6.5v44c0,3.584-2.916,6.5-6.5,6.5H84z"/>
			<path style="fill:#999999;" d="M128,4c3.309,0,6,2.691,6,6v44c0,3.309-2.691,6-6,6H84c-3.309,0-6-2.691-6-6V10
				c0-3.309,2.691-6,6-6H128 M128,3H84c-3.85,0-7,3.15-7,7v44c0,3.85,3.15,7,7,7h44c3.85,0,7-3.15,7-7V10C135,6.15,131.85,3,128,3
				L128,3z"/>
		</g>
		<g id="duitextedit-background">
			<path style="fill:#FFFFFF;" d="M10,63.5c-5.238,0-9.5-4.262-9.5-9.5V10c0-5.238,4.262-9.5,9.5-9.5h44c5.238,0,9.5,4.262,9.5,9.5
				v44c0,5.238-4.262,9.5-9.5,9.5H10z"/>
			<path style="fill:#999999;" d="M54,1c4.963,0,9,4.037,9,9v44c0,4.963-4.037,9-9,9H10c-4.963,0-9-4.037-9-9V10
				c0-4.963,4.037-9,9-9H54 M54,0H10C4.5,0,0,4.5,0,10v44c0,5.5,4.5,10,10,10h44c5.5,0,10-4.5,10-10V10C64,4.5,59.5,0,54,0L54,0z"/>
			<path style="fill:#FFFFFF;" d="M10,60.5c-3.584,0-6.5-2.916-6.5-6.5V10c0-3.584,2.916-6.5,6.5-6.5h44c3.584,0,6.5,2.916,6.5,6.5
				v44c0,3.584-2.916,6.5-6.5,6.5H10z"/>
			<path style="fill:#999999;" d="M54,4c3.309,0,6,2.691,6,6v44c0,3.309-2.691,6-6,6H10c-3.309,0-6-2.691-6-6V10
				c0-3.309,2.691-6,6-6H54 M54,3H10c-3.85,0-7,3.15-7,7v44c0,3.85,3.15,7,7,7h44c3.85,0,7-3.15,7-7V10C61,6.15,57.85,3,54,3L54,3z"
				/>
		</g>
		<g id="duicompleter-background-pressed">
			<path style="fill:#999999;" d="M84,96c0,5.5-4.5,10-10,10H62c-5.5,0-10-4.5-10-10V84c0-5.5,4.5-10,10-10h12c5.5,0,10,4.5,10,10
				V96z"/>
			<linearGradient id="SVGID_3_" gradientUnits="userSpaceOnUse" x1="68" y1="104" x2="68" y2="76">
				<stop  offset="0" style="stop-color:#C9C9C9"/>
				<stop  offset="0.4115" style="stop-color:#C8C8C8"/>
				<stop  offset="0.5598" style="stop-color:#C1C1C1"/>
				<stop  offset="0.6654" style="stop-color:#B5B5B5"/>
				<stop  offset="0.7509" style="stop-color:#A4A4A4"/>
				<stop  offset="0.824" style="stop-color:#8E8E8E"/>
				<stop  offset="0.8888" style="stop-color:#737373"/>
				<stop  offset="0.946" style="stop-color:#535353"/>
				<stop  offset="0.9983" style="stop-color:#2F2F2F"/>
				<stop  offset="1" style="stop-color:#2E2E2E"/>
			</linearGradient>
			<path style="fill:url(#SVGID_3_);" d="M82,96c0,4.4-3.6,8-8,8H62c-4.4,0-8-3.6-8-8V84c0-4.4,3.6-8,8-8h12c4.4,0,8,3.6,8,8V96z"/>
		</g>
		<g id="duicompleter-background">
			<path style="fill:#999999;" d="M32,96c0,5.5-4.5,10-10,10H10c-5.5,0-10-4.5-10-10V84c0-5.5,4.5-10,10-10h12c5.5,0,10,4.5,10,10
				V96z"/>
			<path style="fill:#F2F2F2;" d="M30,96c0,4.4-3.6,8-8,8H10c-4.4,0-8-3.6-8-8V84c0-4.4,3.6-8,8-8h12c4.4,0,8,3.6,8,8V96z"/>
		</g>
	</g>
</g>
</svg>
