<?xml version="1.0" encoding="iso-8859-1"?>
<!-- Generator: Adobe Illustrator 14.0.0, SVG Export Plug-In . SVG Version: 6.00 Build 43363)  -->
<!DOCTYPE svg PUBLIC "-//W3C//DTD SVG 1.1//EN" "http://www.w3.org/Graphics/SVG/1.1/DTD/svg11.dtd">
<svg version="1.1" id="duitextedit-layer" xmlns="http://www.w3.org/2000/svg" xmlns:xlink="http://www.w3.org/1999/xlink" x="0px"
	 y="0px" width="348px" height="191px" viewBox="0 0 348 191" style="enable-background:new 0 0 348 191;" xml:space="preserve">
<g id="duitextedit">
	<g id="TextInputFieldThemeTemplateHelper">
		<g>
			<path style="fill:#E6E6E6;" d="M16,190c-8.271,0-15-6.729-15-15V16C1,7.729,7.729,1,16,1h316c8.271,0,15,6.729,15,15v159
				c0,8.271-6.729,15-15,15H16z"/>
			<path d="M332,2c7.72,0,14,6.28,14,14v159c0,7.72-6.28,14-14,14H16c-7.72,0-14-6.28-14-14V16C2,8.28,8.28,2,16,2H332 M332,0H16
				C7.2,0,0,7.2,0,16v159c0,8.8,7.2,16,16,16h316c8.8,0,16-7.2,16-16V16C348,7.2,340.8,0,332,0L332,0z"/>
		</g>
		<g>
			<path style="fill:#010101;" d="M112.662,34.333V20.645h-3.846v-1.6h9.885v1.6h-3.834v13.688H112.662z"/>
			<path style="fill:#010101;" d="M126.578,32.508v1.486c-1.074,0.336-2.186,0.503-3.334,0.503c-1.668,0-2.916-0.503-3.742-1.507
				c-0.828-1.006-1.24-2.554-1.24-4.646c0-1.839,0.4-3.317,1.199-4.435c0.801-1.118,1.941-1.677,3.426-1.677
				c1.201,0,2.105,0.319,2.711,0.959s0.992,1.422,1.164,2.348c0.17,0.927,0.256,2.028,0.256,3.308h-6.439
				c0,1.387,0.246,2.428,0.738,3.122s1.23,1.04,2.215,1.04C124.365,33.01,125.381,32.843,126.578,32.508z M120.578,27.504h4.297
				c0-1.442-0.172-2.461-0.512-3.056c-0.344-0.595-0.836-0.892-1.477-0.892c-0.719,0-1.268,0.307-1.646,0.922
				S120.641,26.103,120.578,27.504z"/>
			<path style="fill:#010101;" d="M137.662,34.333h-2.4l-2.666-4.624l-2.768,4.624h-2.062l3.846-6.091l-3.527-5.834h2.389
				l2.359,4.111l2.451-4.111h2.061l-3.508,5.557L137.662,34.333z"/>
			<path style="fill:#010101;" d="M142.256,34.497c-0.93,0-1.609-0.217-2.039-0.651c-0.432-0.434-0.646-1.126-0.646-2.076v-7.937
				h-1.568v-0.82l3.188-3.251h0.564v2.646h2.902v1.425h-2.902v7.577c0,0.65,0.105,1.079,0.318,1.287
				c0.211,0.209,0.533,0.312,0.963,0.312c0.445,0,1.047-0.099,1.805-0.297v1.415C143.924,34.374,143.062,34.497,142.256,34.497z"/>
			<path style="fill:#010101;" d="M153.977,34.333h-2.184v-10.5h-1.363v-1.425h3.547V34.333z M152.891,18.225
				c0.334,0,0.623,0.123,0.865,0.369s0.365,0.536,0.365,0.871c0,0.342-0.121,0.635-0.359,0.877c-0.24,0.242-0.531,0.363-0.871,0.363
				c-0.35,0-0.645-0.121-0.883-0.363c-0.24-0.242-0.359-0.535-0.359-0.877c0-0.349,0.119-0.643,0.359-0.882
				C152.246,18.344,152.541,18.225,152.891,18.225z"/>
			<path style="fill:#010101;" d="M165.842,34.333h-2.186v-7.916c0-0.896-0.156-1.567-0.471-2.015s-0.787-0.672-1.416-0.672
				c-0.793,0-1.408,0.301-1.846,0.902s-0.656,1.385-0.656,2.348v7.353h-2.184V22.408h1.221l0.441,1.764
				c0.758-1.293,1.912-1.938,3.465-1.938c1.211,0,2.117,0.317,2.723,0.954c0.605,0.635,0.908,1.586,0.908,2.85V34.333z"/>
			<path style="fill:#010101;" d="M170.004,22.408l0.441,1.701c0.43-0.635,0.908-1.107,1.436-1.414
				c0.525-0.309,1.195-0.462,2.01-0.462c1.318,0,2.309,0.497,2.973,1.492c0.662,0.994,0.994,2.486,0.994,4.476
				c0,1.969-0.453,3.504-1.357,4.604c-0.906,1.102-2.211,1.651-3.912,1.651c-0.451,0-0.992-0.075-1.621-0.226v3.527h-2.184v-15.35
				H170.004z M170.967,27.74v4.932c0.527,0.198,1.08,0.297,1.662,0.297c0.984,0,1.725-0.342,2.219-1.025
				c0.496-0.684,0.744-1.965,0.744-3.845c0-1.456-0.184-2.548-0.553-3.276c-0.369-0.728-0.92-1.092-1.652-1.092
				c-0.793,0-1.395,0.307-1.805,0.918S170.967,26.291,170.967,27.74z"/>
			<path style="fill:#010101;" d="M183.928,34.497c-1.217,0-2.129-0.315-2.732-0.948c-0.605-0.633-0.908-1.581-0.908-2.846v-8.295
				h2.184v7.916c0,0.895,0.158,1.566,0.473,2.015s0.789,0.671,1.426,0.671c0.791,0,1.406-0.301,1.84-0.902s0.65-1.384,0.65-2.348
				v-7.352h2.186v11.925h-1.211l-0.441-1.764C186.635,33.854,185.479,34.497,183.928,34.497z"/>
			<path style="fill:#010101;" d="M195.074,34.497c-0.93,0-1.609-0.217-2.039-0.651c-0.432-0.434-0.646-1.126-0.646-2.076v-7.937
				h-1.568v-0.82l3.188-3.251h0.564v2.646h2.902v1.425h-2.902v7.577c0,0.65,0.105,1.079,0.318,1.287
				c0.211,0.209,0.533,0.312,0.963,0.312c0.445,0,1.047-0.099,1.805-0.297v1.415C196.742,34.374,195.881,34.497,195.074,34.497z"/>
			<path style="fill:#010101;" d="M209.963,18.184v1.486c-0.643-0.205-1.178-0.308-1.609-0.308c-0.684,0-1.115,0.218-1.291,0.651
				c-0.18,0.434-0.268,1.232-0.268,2.395h2.184v1.425h-2.184v10.5h-2.184v-10.5h-1.445v-1.425h1.445c0-1.812,0.277-3.01,0.83-3.595
				c0.555-0.584,1.391-0.876,2.512-0.876C208.645,17.938,209.314,18.02,209.963,18.184z"/>
			<path style="fill:#010101;" d="M213.225,34.333h-2.184v-10.5h-1.363v-1.425h3.547V34.333z M212.139,18.225
				c0.334,0,0.623,0.123,0.865,0.369s0.365,0.536,0.365,0.871c0,0.342-0.121,0.635-0.359,0.877c-0.24,0.242-0.531,0.363-0.871,0.363
				c-0.35,0-0.645-0.121-0.883-0.363c-0.24-0.242-0.359-0.535-0.359-0.877c0-0.349,0.119-0.643,0.359-0.882
				C211.494,18.344,211.789,18.225,212.139,18.225z"/>
			<path style="fill:#010101;" d="M224.146,32.508v1.486c-1.074,0.336-2.186,0.503-3.334,0.503c-1.668,0-2.916-0.503-3.742-1.507
				c-0.828-1.006-1.24-2.554-1.24-4.646c0-1.839,0.4-3.317,1.199-4.435c0.801-1.118,1.941-1.677,3.426-1.677
				c1.201,0,2.105,0.319,2.711,0.959s0.992,1.422,1.164,2.348c0.17,0.927,0.256,2.028,0.256,3.308h-6.439
				c0,1.387,0.246,2.428,0.738,3.122s1.23,1.04,2.215,1.04C221.934,33.01,222.949,32.843,224.146,32.508z M218.146,27.504h4.297
				c0-1.442-0.172-2.461-0.512-3.056c-0.344-0.595-0.836-0.892-1.477-0.892c-0.719,0-1.268,0.307-1.646,0.922
				S218.209,26.103,218.146,27.504z"/>
			<path style="fill:#010101;" d="M227.016,34.333V18.102h2.184v16.231H227.016z"/>
			<path style="fill:#010101;" d="M239.639,34.333l-0.461-1.466c-0.631,1.086-1.707,1.63-3.23,1.63c-1.416,0-2.48-0.501-3.195-1.502
				c-0.713-1.001-1.07-2.565-1.07-4.691c0-1.784,0.381-3.241,1.143-4.373s1.844-1.697,3.246-1.697c1.148,0,2.01,0.345,2.584,1.036
				v-5.168h2.184v16.231H239.639z M238.727,28.898l-0.012-0.677c0-1.777-0.199-2.978-0.6-3.599c-0.4-0.623-0.969-0.934-1.707-0.934
				c-0.82,0-1.436,0.379-1.846,1.139c-0.41,0.758-0.615,1.896-0.615,3.414c0,1.593,0.197,2.785,0.596,3.578
				c0.395,0.793,0.99,1.189,1.783,1.189c0.771,0,1.365-0.287,1.779-0.861S238.727,30.491,238.727,28.898z"/>
		</g>
	</g>
	<g id="duitextedit-background-selected-pressed">
		<path style="fill:#F4A81D;" d="M264.5,112.5c-5.238,0-9.5-4.262-9.5-9.5V59c0-5.238,4.262-9.5,9.5-9.5h44
			c5.238,0,9.5,4.262,9.5,9.5v44c0,5.238-4.262,9.5-9.5,9.5H264.5z"/>
		<path style="fill:#999999;" d="M308.5,50c4.963,0,9,4.037,9,9v44c0,4.963-4.037,9-9,9h-44c-4.963,0-9-4.037-9-9V59
			c0-4.963,4.037-9,9-9H308.5 M308.5,49h-44c-5.5,0-10,4.5-10,10v44c0,5.5,4.5,10,10,10h44c5.5,0,10-4.5,10-10V59
			C318.5,53.5,314,49,308.5,49L308.5,49z"/>
		<linearGradient id="SVGID_1_" gradientUnits="userSpaceOnUse" x1="286.5" y1="109.5" x2="286.5" y2="52.5005">
			<stop  offset="0" style="stop-color:#A7752A"/>
			<stop  offset="1" style="stop-color:#805823"/>
		</linearGradient>
		<path style="fill:url(#SVGID_1_);" d="M264.5,109.5c-3.584,0-6.5-2.916-6.5-6.5V59c0-3.584,2.916-6.5,6.5-6.5h44
			c3.584,0,6.5,2.916,6.5,6.5v44c0,3.584-2.916,6.5-6.5,6.5H264.5z"/>
		<path style="fill:#999999;" d="M308.5,53c3.309,0,6,2.691,6,6v44c0,3.309-2.691,6-6,6h-44c-3.309,0-6-2.691-6-6V59
			c0-3.309,2.691-6,6-6H308.5 M308.5,52h-44c-3.85,0-7,3.15-7,7v44c0,3.85,3.15,7,7,7h44c3.85,0,7-3.15,7-7V59
			C315.5,55.15,312.35,52,308.5,52L308.5,52z"/>
	</g>
	<g id="duitextedit-background-selected">
		<path style="fill:#F4A81D;" d="M190.5,112.5c-5.238,0-9.5-4.262-9.5-9.5V59c0-5.238,4.262-9.5,9.5-9.5h44
			c5.238,0,9.5,4.262,9.5,9.5v44c0,5.238-4.262,9.5-9.5,9.5H190.5z"/>
		<path style="fill:#999999;" d="M234.5,50c4.963,0,9,4.037,9,9v44c0,4.963-4.037,9-9,9h-44c-4.963,0-9-4.037-9-9V59
			c0-4.963,4.037-9,9-9H234.5 M234.5,49h-44c-5.5,0-10,4.5-10,10v44c0,5.5,4.5,10,10,10h44c5.5,0,10-4.5,10-10V59
			C244.5,53.5,240,49,234.5,49L234.5,49z"/>
		<path style="fill:#FFFFFF;" d="M190.5,109.5c-3.584,0-6.5-2.916-6.5-6.5V59c0-3.584,2.916-6.5,6.5-6.5h44
			c3.584,0,6.5,2.916,6.5,6.5v44c0,3.584-2.916,6.5-6.5,6.5H190.5z"/>
		<path style="fill:#999999;" d="M234.5,53c3.309,0,6,2.691,6,6v44c0,3.309-2.691,6-6,6h-44c-3.309,0-6-2.691-6-6V59
			c0-3.309,2.691-6,6-6H234.5 M234.5,52h-44c-3.85,0-7,3.15-7,7v44c0,3.85,3.15,7,7,7h44c3.85,0,7-3.15,7-7V59
			C241.5,55.15,238.35,52,234.5,52L234.5,52z"/>
	</g>
	<g id="duitextedit-background-pressed">
		<path style="fill:#FFFFFF;" d="M116.5,112.5c-5.238,0-9.5-4.262-9.5-9.5V59c0-5.238,4.262-9.5,9.5-9.5h44
			c5.238,0,9.5,4.262,9.5,9.5v44c0,5.238-4.262,9.5-9.5,9.5H116.5z"/>
		<path style="fill:#999999;" d="M160.5,50c4.963,0,9,4.037,9,9v44c0,4.963-4.037,9-9,9h-44c-4.963,0-9-4.037-9-9V59
			c0-4.963,4.037-9,9-9H160.5 M160.5,49h-44c-5.5,0-10,4.5-10,10v44c0,5.5,4.5,10,10,10h44c5.5,0,10-4.5,10-10V59
			C170.5,53.5,166,49,160.5,49L160.5,49z"/>
		<linearGradient id="SVGID_2_" gradientUnits="userSpaceOnUse" x1="138.5" y1="109.5" x2="138.5" y2="52.5005">
			<stop  offset="0" style="stop-color:#C9C9C9"/>
			<stop  offset="0.4115" style="stop-color:#C8C8C8"/>
			<stop  offset="0.5598" style="stop-color:#C1C1C1"/>
			<stop  offset="0.6654" style="stop-color:#B5B5B5"/>
			<stop  offset="0.7509" style="stop-color:#A4A4A4"/>
			<stop  offset="0.824" style="stop-color:#8E8E8E"/>
			<stop  offset="0.8888" style="stop-color:#737373"/>
			<stop  offset="0.946" style="stop-color:#535353"/>
			<stop  offset="0.9983" style="stop-color:#2F2F2F"/>
			<stop  offset="1" style="stop-color:#2E2E2E"/>
		</linearGradient>
		<path style="fill:url(#SVGID_2_);" d="M116.5,109.5c-3.584,0-6.5-2.916-6.5-6.5V59c0-3.584,2.916-6.5,6.5-6.5h44
			c3.584,0,6.5,2.916,6.5,6.5v44c0,3.584-2.916,6.5-6.5,6.5H116.5z"/>
		<path style="fill:#999999;" d="M160.5,53c3.309,0,6,2.691,6,6v44c0,3.309-2.691,6-6,6h-44c-3.309,0-6-2.691-6-6V59
			c0-3.309,2.691-6,6-6H160.5 M160.5,52h-44c-3.85,0-7,3.15-7,7v44c0,3.85,3.15,7,7,7h44c3.85,0,7-3.15,7-7V59
			C167.5,55.15,164.35,52,160.5,52L160.5,52z"/>
	</g>
	<g id="duitextedit-background">
		<path style="fill:#FFFFFF;" d="M42.5,112.5c-5.238,0-9.5-4.262-9.5-9.5V59c0-5.238,4.262-9.5,9.5-9.5h44
			c5.238,0,9.5,4.262,9.5,9.5v44c0,5.238-4.262,9.5-9.5,9.5H42.5z"/>
		<path style="fill:#999999;" d="M86.5,50c4.963,0,9,4.037,9,9v44c0,4.963-4.037,9-9,9h-44c-4.963,0-9-4.037-9-9V59
			c0-4.963,4.037-9,9-9H86.5 M86.5,49h-44c-5.5,0-10,4.5-10,10v44c0,5.5,4.5,10,10,10h44c5.5,0,10-4.5,10-10V59
			C96.5,53.5,92,49,86.5,49L86.5,49z"/>
		<path style="fill:#FFFFFF;" d="M42.5,109.5c-3.584,0-6.5-2.916-6.5-6.5V59c0-3.584,2.916-6.5,6.5-6.5h44
			c3.584,0,6.5,2.916,6.5,6.5v44c0,3.584-2.916,6.5-6.5,6.5H42.5z"/>
		<path style="fill:#999999;" d="M86.5,53c3.309,0,6,2.691,6,6v44c0,3.309-2.691,6-6,6h-44c-3.309,0-6-2.691-6-6V59
			c0-3.309,2.691-6,6-6H86.5 M86.5,52h-44c-3.85,0-7,3.15-7,7v44c0,3.85,3.15,7,7,7h44c3.85,0,7-3.15,7-7V59
			C93.5,55.15,90.35,52,86.5,52L86.5,52z"/>
	</g>
	<g id="duicompleter-background-pressed">
		<path style="fill:#999999;" d="M116.5,145c0,5.5-4.5,10-10,10h-12c-5.5,0-10-4.5-10-10v-12c0-5.5,4.5-10,10-10h12
			c5.5,0,10,4.5,10,10V145z"/>
		<linearGradient id="SVGID_3_" gradientUnits="userSpaceOnUse" x1="100.5" y1="153" x2="100.5" y2="125">
			<stop  offset="0" style="stop-color:#C9C9C9"/>
			<stop  offset="0.4115" style="stop-color:#C8C8C8"/>
			<stop  offset="0.5598" style="stop-color:#C1C1C1"/>
			<stop  offset="0.6654" style="stop-color:#B5B5B5"/>
			<stop  offset="0.7509" style="stop-color:#A4A4A4"/>
			<stop  offset="0.824" style="stop-color:#8E8E8E"/>
			<stop  offset="0.8888" style="stop-color:#737373"/>
			<stop  offset="0.946" style="stop-color:#535353"/>
			<stop  offset="0.9983" style="stop-color:#2F2F2F"/>
			<stop  offset="1" style="stop-color:#2E2E2E"/>
		</linearGradient>
		<path style="fill:url(#SVGID_3_);" d="M114.5,145c0,4.4-3.6,8-8,8h-12c-4.4,0-8-3.6-8-8v-12c0-4.4,3.6-8,8-8h12c4.4,0,8,3.6,8,8
			V145z"/>
	</g>
	<g id="duicompleter-background">
		<path style="fill:#999999;" d="M64.5,145c0,5.5-4.5,10-10,10h-12c-5.5,0-10-4.5-10-10v-12c0-5.5,4.5-10,10-10h12
			c5.5,0,10,4.5,10,10V145z"/>
		<path style="fill:#F2F2F2;" d="M62.5,145c0,4.4-3.6,8-8,8h-12c-4.4,0-8-3.6-8-8v-12c0-4.4,3.6-8,8-8h12c4.4,0,8,3.6,8,8V145z"/>
	</g>
</g>
</svg>
