<?xml version="1.0" encoding="utf-8"?>
<!-- Generator: Adobe Illustrator 14.0.0, SVG Export Plug-In . SVG Version: 6.00 Build 43363)  -->
<!DOCTYPE svg PUBLIC "-//W3C//DTD SVG 1.1//EN" "http://www.w3.org/Graphics/SVG/1.1/DTD/svg11.dtd">
<svg version="1.1" id="Layer_1" xmlns="http://www.w3.org/2000/svg" xmlns:xlink="http://www.w3.org/1999/xlink" x="0px" y="0px"
	 width="64px" height="64px" viewBox="0 0 64 64" enable-background="new 0 0 64 64" xml:space="preserve">
<g id="icon-l-pictures">
	<path id="path4362_1_" fill="#FFFFFF" d="M50.677,46.214l-37.414-0.117l0,0l0.057-28.328l0,0l37.409,0.113l0,0L50.677,46.214
		L50.677,46.214z M53.37,12.71l-42.668-0.127l-2.637-0.008v2.588L8,48.683v2.601l2.623,0.003l42.668,0.122l2.629,0.017l0.008-2.601
		L56,15.311v-2.597L53.37,12.71z"/>
	<path id="path4364_1_" fill="#FFFFFF" d="M40.183,36.013c-0.339-5.078-4.94-8.367-9.661-9.1c1.882-2.176,5.588-3.937,8.733-4.949
		c-2.947,0.326-6.295,0.387-9.322,1.925c0.086-0.091,0.127-0.185,0.199-0.277c-0.148,0.122-0.259,0.272-0.396,0.403
		c-0.403,0.21-0.802,0.423-1.183,0.711c-0.466-2.441-1.529-4.514-2.854-6.061c0.812,2.635,0.751,5.051,0.063,7.396
		c-3.281-1.682-7.124-0.993-8.854,1.091c2.299-1.091,4.973-0.479,6.653,1.078c-1.6,0.604-2.932,1.456-3.951,2.459
		c1.803-0.354,3.449-0.165,5.045,0.32c-2.631,5.737-2.979,12.395-2.646,18.224l5.452-0.479c-1.476-5.491-2.613-11.727-1.013-17.723
		c0.126-0.078,0.3-0.117,0.438-0.184c2.314,0.807,4.705,2.712,5.792,6.261c-0.021-2.655-0.841-5.141-2.497-7.239
		C34.086,29.429,38.488,31.059,40.183,36.013z"/>
	<path id="path4366_1_" fill="#FFFFFF" d="M42.818,40.65c-0.241-3.69-3.59-6.063-6.995-6.598c1.35-1.579,4.028-2.849,6.312-3.586
		c-2.124,0.229-4.553,0.284-6.741,1.393c0.05-0.062,0.083-0.129,0.149-0.207c-0.121,0.089-0.203,0.199-0.307,0.302
		c-0.287,0.15-0.568,0.319-0.854,0.521c-0.352-1.776-1.104-3.258-2.063-4.404c0.58,1.927,0.548,3.661,0.048,5.354
		c-2.377-1.203-5.168-0.707-6.42,0.806c1.668-0.79,3.604-0.338,4.821,0.782c-1.155,0.429-2.136,1.048-2.858,1.777
		c1.315-0.241,2.506-0.125,3.66,0.229c-1.9,4.166-2.166,8.976-1.92,13.2l3.938-0.343c-1.065-3.98-1.884-8.509-0.722-12.835
		c0.094-0.051,0.211-0.086,0.312-0.133c1.675,0.574,3.399,1.963,4.203,4.531c-0.024-1.929-0.621-3.711-1.817-5.236
		C38.388,35.861,41.586,37.046,42.818,40.65z"/>
</g>
</svg>
