<?xml version="1.0" encoding="iso-8859-1"?>
<!-- Generator: Adobe Illustrator 14.0.0, SVG Export Plug-In . SVG Version: 6.00 Build 43363)  -->
<!DOCTYPE svg PUBLIC "-//W3C//DTD SVG 1.1//EN" "http://www.w3.org/Graphics/SVG/1.1/DTD/svg11.dtd">
<svg version="1.1" id="icon-s-gps-layer" xmlns="http://www.w3.org/2000/svg" xmlns:xlink="http://www.w3.org/1999/xlink" x="0px"
	 y="0px" width="18px" height="18px" viewBox="0 0 18 18" style="enable-background:new 0 0 18 18;" xml:space="preserve">
<g id="icon-s-gps">
	<rect style="fill:none;" width="18" height="18"/>
	<path style="fill:#FFFFFF;" d="M12.924,10.93l-1.535,0.695L10.5,9.672c0.578-0.668,0.385-2.278-1.137-2.503l-0.819-1.8l1.517-0.69
		L9.402,3.228L5.054,5.204l0.66,1.45l1.381-0.629l0.821,1.806C7.312,8.52,7.595,10.137,9.05,10.33l0.888,1.955l-1.363,0.621
		l0.659,1.449l4.351-1.979L12.924,10.93z"/>
	<path style="fill:#FFFFFF;" d="M16.146,3.345l-4.953,2.08l1.979,4.353l4.826-2.03L16.146,3.345z M0,10.133l1.852,4.404l5.448-2.29
		L5.32,7.895L0,10.133z"/>
</g>
</svg>
