<?xml version="1.0" encoding="utf-8"?>
<!-- Generator: Adobe Illustrator 14.0.0, SVG Export Plug-In . SVG Version: 6.00 Build 43363)  -->
<!DOCTYPE svg PUBLIC "-//W3C//DTD SVG 1.1//EN" "http://www.w3.org/Graphics/SVG/1.1/DTD/svg11.dtd">
<svg version="1.1" id="icon-s-battery-100-layer" xmlns="http://www.w3.org/2000/svg" xmlns:xlink="http://www.w3.org/1999/xlink"
	 x="0px" y="0px" width="18px" height="18px" viewBox="0 0 18 18" enable-background="new 0 0 18 18" xml:space="preserve">
<g id="icon-s-battery-100">
	<rect fill="none" width="18" height="18"/>
	<g>
		<path fill="#FFFFFF" d="M11.413,1.278c-0.151,0-0.274-0.124-0.274-0.275l0.002-0.729c0-0.15-0.123-0.274-0.273-0.274H7.534
			C7.383,0,7.259,0.124,7.259,0.275v0.727c0,0.151-0.124,0.274-0.274,0.274H3.932c-0.151,0-0.275,0.124-0.275,0.275v16.174
			c0,0.15,0.124,0.275,0.275,0.275h10.444c0.151,0,0.274-0.125,0.274-0.273V1.553c0-0.151-0.123-0.274-0.274-0.274L11.413,1.278
			L11.413,1.278z M13.273,16.511H5.03V2.77h8.246v13.741H13.273z"/>
		<rect x="5.03" y="2.77" fill="#FFFFFF" width="8.246" height="13.741"/>
	</g>
</g>
</svg>
