<?xml version="1.0" encoding="utf-8"?>
<!-- Generator: Adobe Illustrator 14.0.0, SVG Export Plug-In . SVG Version: 6.00 Build 43363)  -->
<!DOCTYPE svg PUBLIC "-//W3C//DTD SVG 1.1//EN" "http://www.w3.org/Graphics/SVG/1.1/DTD/svg11.dtd">
<svg version="1.1" id="Layer_1" xmlns="http://www.w3.org/2000/svg" xmlns:xlink="http://www.w3.org/1999/xlink" x="0px" y="0px"
	 width="64px" height="64px" viewBox="0 0 64 64" enable-background="new 0 0 64 64" xml:space="preserve">
<g id="icon-l-chat">
	<path id="path4325_1_" fill="#FFFFFF" d="M31.999,12.044C18.749,12.044,8,20.243,8,30.354c0,5.126,2.769,9.741,7.216,13.066
		c0.23,7.479-5.021,8.524-5.021,8.524s8.912,0.499,11.877-4.949c3.021,1.057,6.384,1.66,9.927,1.66
		C45.26,48.655,56,40.458,56,30.353C56,20.245,45.26,12.044,31.999,12.044z M44.505,37.876H19.501c-1.241,0-2.229-0.998-2.229-2.234
		c0-1.229,0.987-2.229,2.229-2.229h25.004c1.228,0,2.228,0.996,2.228,2.229C46.732,36.878,45.732,37.876,44.505,37.876z
		 M44.505,28.13H19.501c-1.241,0-2.229-0.989-2.229-2.228c0-1.229,0.987-2.229,2.229-2.229h25.004c1.228,0,2.228,0.998,2.228,2.229
		C46.732,27.14,45.732,28.13,44.505,28.13z"/>
</g>
</svg>
