<?xml version="1.0" encoding="utf-8"?>
<!-- Generator: Adobe Illustrator 14.0.0, SVG Export Plug-In . SVG Version: 6.00 Build 43363)  -->
<!DOCTYPE svg PUBLIC "-//W3C//DTD SVG 1.1//EN" "http://www.w3.org/Graphics/SVG/1.1/DTD/svg11.dtd">
<svg version="1.1" id="Layer_1" xmlns="http://www.w3.org/2000/svg" xmlns:xlink="http://www.w3.org/1999/xlink" x="0px" y="0px"
	 width="64px" height="64px" viewBox="0 0 64 64" enable-background="new 0 0 64 64" xml:space="preserve">
<g id="icon-l-dialer">
	<path id="path4337_1_" fill="#FFFFFF" d="M50.465,9.896v6.107c0,1.033-0.842,1.884-1.879,1.884h-6.098
		c-1.055,0-1.912-0.851-1.912-1.884V9.896C40.576,8.853,41.433,8,42.488,8h6.098C49.623,8,50.465,8.854,50.465,9.896L50.465,9.896z
		 M50.465,22.984v6.11c0,1.044-0.842,1.887-1.879,1.887h-6.098c-1.055,0-1.912-0.844-1.912-1.887v-6.11
		c0-1.042,0.857-1.889,1.912-1.889h6.098C49.623,21.095,50.465,21.942,50.465,22.984L50.465,22.984z M50.465,35.846v6.111
		c0,1.043-0.842,1.887-1.879,1.887h-6.098c-1.055,0-1.912-0.844-1.912-1.887v-6.111c0-1.037,0.857-1.878,1.912-1.878h6.098
		C49.623,33.968,50.465,34.809,50.465,35.846L50.465,35.846z M36.748,9.896v6.107c0,1.033-0.832,1.884-1.893,1.884h-6.097
		c-1.036,0-1.893-0.851-1.893-1.884V9.896C26.865,8.853,27.721,8,28.758,8h6.097C35.916,8,36.748,8.854,36.748,9.896L36.748,9.896z
		 M36.748,22.984v6.11c0,1.044-0.832,1.887-1.893,1.887h-6.097c-1.036,0-1.893-0.844-1.893-1.887v-6.11
		c0-1.042,0.855-1.889,1.893-1.889h6.097C35.916,21.095,36.748,21.942,36.748,22.984L36.748,22.984z M36.748,35.846v6.111
		c0,1.043-0.832,1.887-1.893,1.887h-6.097c-1.036,0-1.893-0.844-1.893-1.887v-6.111c0-1.037,0.855-1.878,1.893-1.878h6.097
		C35.916,33.968,36.748,34.809,36.748,35.846L36.748,35.846z M36.748,48v6.113c0,1.042-0.832,1.887-1.893,1.887h-6.097
		c-1.036,0-1.893-0.845-1.893-1.887V48c0-1.031,0.855-1.875,1.893-1.875h6.097C35.916,46.125,36.748,46.969,36.748,48L36.748,48z
		 M23.426,9.896v6.107c0,1.033-0.831,1.884-1.894,1.884h-6.104c-1.04,0-1.895-0.851-1.895-1.884V9.896
		C13.534,8.853,14.389,8,15.429,8h6.104C22.595,8,23.426,8.854,23.426,9.896L23.426,9.896z M23.426,22.984v6.11
		c0,1.044-0.831,1.887-1.894,1.887h-6.104c-1.04,0-1.895-0.844-1.895-1.887v-6.11c0-1.042,0.854-1.889,1.895-1.889h6.104
		C22.595,21.095,23.426,21.942,23.426,22.984L23.426,22.984z M23.426,35.846v6.111c0,1.043-0.831,1.887-1.894,1.887h-6.104
		c-1.04,0-1.895-0.844-1.895-1.887v-6.111c0-1.037,0.854-1.878,1.895-1.878h6.104C22.595,33.968,23.426,34.809,23.426,35.846
		L23.426,35.846z"/>
</g>
</svg>
