<?xml version="1.0" encoding="utf-8"?>
<!-- Generator: Adobe Illustrator 14.0.0, SVG Export Plug-In . SVG Version: 6.00 Build 43363)  -->
<!DOCTYPE svg PUBLIC "-//W3C//DTD SVG 1.1//EN" "http://www.w3.org/Graphics/SVG/1.1/DTD/svg11.dtd">
<svg version="1.1" id="Layer_1" xmlns="http://www.w3.org/2000/svg" xmlns:xlink="http://www.w3.org/1999/xlink" x="0px" y="0px"
	 width="64px" height="64px" viewBox="0 0 64 64" enable-background="new 0 0 64 64" xml:space="preserve">
<g id="icon-l-new-message">
	<path id="path4369_1_" fill="#FFFFFF" d="M32.002,8.001c-13.256,0-24.001,10.756-24.001,24.015C8.001,45.257,18.747,56,32.002,56
		c13.245,0,23.997-10.746,23.997-23.984C55.998,18.755,45.246,8.001,32.002,8.001z M45.277,37.831c0,1.987-1.616,3.6-3.581,3.6
		H22.319c-1.974,0-3.596-1.612-3.596-3.6v-8.646l12.884,5.654l0.398,0.16l0.396-0.16l12.877-5.654L45.277,37.831L45.277,37.831z
		 M45.277,27.017L32.006,32.85l-13.282-5.833v-0.838c0-1.976,1.621-3.598,3.596-3.598h19.377c1.964,0,3.581,1.623,3.581,3.598
		V27.017L45.277,27.017z"/>
</g>
</svg>
