<?xml version="1.0" encoding="utf-8"?>
<!-- Generator: Adobe Illustrator 14.0.0, SVG Export Plug-In . SVG Version: 6.00 Build 43363)  -->
<!DOCTYPE svg PUBLIC "-//W3C//DTD SVG 1.1//EN" "http://www.w3.org/Graphics/SVG/1.1/DTD/svg11.dtd">
<svg version="1.1" id="Layer_1" xmlns="http://www.w3.org/2000/svg" xmlns:xlink="http://www.w3.org/1999/xlink" x="0px" y="0px"
	 width="64px" height="64px" viewBox="0 0 64 64" enable-background="new 0 0 64 64" xml:space="preserve">
<g id="icon-l-video">
	<path id="path4328_1_" fill="#FFFFFF" d="M52.891,10.139h-0.095v1.324c0,0.773-0.632,1.41-1.409,1.41h-3.182
		c-0.771,0-1.417-0.637-1.417-1.41v-1.324h-3.164v5.865H20.682v-5.865H17.53v1.324c0,0.773-0.633,1.41-1.408,1.41h-3.236
		c-0.78,0-1.409-0.637-1.409-1.41v-1.324h-0.371C9.4,10.139,8,11.539,8,13.243v37.506c0,1.71,1.401,3.113,3.105,3.113h0.371v-1.325
		c0-0.776,0.627-1.408,1.409-1.408h3.236c0.775,0,1.408,0.632,1.408,1.408v1.325h2.783v-4.976h23.683v4.976h2.794v-1.325
		c0-0.776,0.645-1.408,1.416-1.408h3.183c0.775,0,1.409,0.632,1.409,1.408v1.325h0.094c1.714,0,3.107-1.403,3.107-3.113V13.243
		C56.001,11.539,54.604,10.139,52.891,10.139z M17.53,44.252c0,0.773-0.633,1.41-1.408,1.41h-3.236c-0.78,0-1.409-0.637-1.409-1.41
		v-2.644c0-0.778,0.627-1.412,1.409-1.412h3.236c0.775,0,1.408,0.634,1.408,1.412V44.252z M17.53,33.324
		c0,0.779-0.633,1.408-1.408,1.408h-3.236c-0.78,0-1.409-0.629-1.409-1.408V30.68c0-0.776,0.627-1.413,1.409-1.413h3.236
		c0.775,0,1.408,0.637,1.408,1.413V33.324z M17.53,22.397c0,0.772-0.633,1.405-1.408,1.405h-3.236c-0.78,0-1.409-0.633-1.409-1.405
		V19.75c0-0.785,0.627-1.412,1.409-1.412h3.236c0.775,0,1.408,0.627,1.408,1.412V22.397z M43.626,43.748H20.683v-22.91h22.942
		V43.748z M52.8,44.252c0,0.773-0.634,1.41-1.408,1.41h-3.185c-0.771,0-1.415-0.637-1.415-1.41v-2.644
		c0-0.778,0.646-1.412,1.415-1.412h3.185c0.774,0,1.408,0.634,1.408,1.412V44.252z M52.8,33.324c0,0.779-0.634,1.408-1.408,1.408
		h-3.185c-0.771,0-1.415-0.629-1.415-1.408V30.68c0-0.776,0.646-1.413,1.415-1.413h3.185c0.774,0,1.408,0.637,1.408,1.413V33.324z
		 M52.8,22.397c0,0.772-0.634,1.405-1.408,1.405h-3.185c-0.771,0-1.415-0.633-1.415-1.405V19.75c0-0.785,0.646-1.412,1.415-1.412
		h3.185c0.774,0,1.408,0.627,1.408,1.412V22.397z"/>
</g>
</svg>
