<?xml version="1.0" encoding="utf-8"?>
<!-- Generator: Adobe Illustrator 14.0.0, SVG Export Plug-In . SVG Version: 6.00 Build 43363)  -->
<!DOCTYPE svg PUBLIC "-//W3C//DTD SVG 1.1//EN" "http://www.w3.org/Graphics/SVG/1.1/DTD/svg11.dtd">
<svg version="1.1" id="Layer_1" xmlns="http://www.w3.org/2000/svg" xmlns:xlink="http://www.w3.org/1999/xlink" x="0px" y="0px"
	 width="64px" height="64px" viewBox="0 0 64 64" enable-background="new 0 0 64 64" xml:space="preserve">
<g id="icon-l-bookmark">
	<path id="path4331_2_" fill="#FFFFFF" d="M31.999,7.993C18.77,7.993,8,18.771,8,31.997c0,13.231,10.771,24.01,23.999,24.01
		c13.235,0,24-10.777,24-24.01C56,18.772,45.234,7.993,31.999,7.993z M51.902,29.989h-7.871c-0.127-3.099-0.518-6.003-1.137-8.628
		c1.795-0.582,3.309-1.315,4.387-2.247C49.816,22.107,51.498,25.868,51.902,29.989z M44.406,16.343
		c-0.518,0.371-1.408,0.799-2.651,1.199c-0.523-1.435-1.13-2.744-1.811-3.888C41.562,14.351,43.041,15.263,44.406,16.343z
		 M31.999,11.993c2.032,0,4.18,2.438,5.768,6.452c-1.643,0.241-3.562,0.397-5.768,0.397c-2.193,0-4.104-0.156-5.754-0.397
		C27.82,14.432,29.976,11.993,31.999,11.993z M31.999,22.843c2.355,0,4.743-0.192,6.964-0.553c0.562,2.293,0.941,4.903,1.074,7.7
		H23.975c0.121-2.797,0.507-5.405,1.063-7.7C27.266,22.65,29.655,22.843,31.999,22.843z M24.057,13.655
		c-0.673,1.143-1.288,2.453-1.811,3.887c-1.236-0.399-2.132-0.826-2.648-1.197C20.97,15.263,22.453,14.351,24.057,13.655z
		 M16.738,19.114c1.06,0.932,2.588,1.671,4.375,2.246c-0.619,2.626-1.02,5.531-1.133,8.629h-7.875
		C12.522,25.868,14.19,22.107,16.738,19.114z M12.106,34.005h7.875c0.113,3.115,0.514,6.019,1.133,8.631
		c-1.789,0.585-3.315,1.324-4.375,2.252C14.19,41.893,12.522,38.134,12.106,34.005z M19.6,47.67c0.517-0.375,1.41-0.812,2.648-1.203
		c0.521,1.432,1.136,2.734,1.811,3.89C22.453,49.65,20.97,48.745,19.6,47.67z M31.999,52.007c-2.022,0-4.179-2.451-5.754-6.448
		c1.648-0.243,3.559-0.395,5.754-0.395c2.204,0,4.125,0.157,5.768,0.395C36.18,49.556,34.031,52.007,31.999,52.007z M31.999,41.156
		c-2.344,0-4.733,0.19-6.959,0.558c-0.558-2.299-0.942-4.904-1.063-7.709h16.062c-0.133,2.805-0.512,5.41-1.073,7.709
		C36.742,41.347,34.355,41.156,31.999,41.156z M39.943,50.34c0.681-1.14,1.287-2.443,1.811-3.874
		c1.241,0.391,2.135,0.827,2.651,1.203C43.041,48.745,41.562,49.65,39.943,50.34z M47.281,44.889
		c-1.078-0.929-2.592-1.667-4.387-2.252c0.617-2.612,1.01-5.515,1.135-8.632H51.9C51.498,38.134,49.816,41.893,47.281,44.889z"/>
</g>
</svg>
