<?xml version="1.0" encoding="utf-8"?>
<!-- Generator: Adobe Illustrator 14.0.0, SVG Export Plug-In . SVG Version: 6.00 Build 43363)  -->
<!DOCTYPE svg PUBLIC "-//W3C//DTD SVG 1.1//EN" "http://www.w3.org/Graphics/SVG/1.1/DTD/svg11.dtd">
<svg version="1.1" id="icon-s-network-80-layer" xmlns="http://www.w3.org/2000/svg" xmlns:xlink="http://www.w3.org/1999/xlink"
	 x="0px" y="0px" width="18px" height="18px" viewBox="0 0 18 18" enable-background="new 0 0 18 18" xml:space="preserve">
<g id="icon-s-network-80">
	<rect fill="none" width="18" height="18"/>
	<g>
		<path fill="#FFFFFF" d="M2.432,17.026c0-0.135-0.109-0.242-0.243-0.242H0.244C0.109,16.784,0,16.894,0,17.026v0.729
			C0,17.892,0.109,18,0.244,18h1.945c0.134,0,0.243-0.108,0.243-0.244V17.026z"/>
	</g>
	<g>
		<path fill="#FFFFFF" d="M6.324,13.39c0-0.133-0.11-0.242-0.244-0.242H4.135c-0.134,0-0.243,0.109-0.243,0.242v4.366
			C3.892,17.892,4.001,18,4.135,18H6.08c0.134,0,0.244-0.108,0.244-0.244V13.39z"/>
	</g>
	<g>
		<path fill="#FFFFFF" d="M10.215,9.731c0-0.134-0.109-0.242-0.242-0.242H8.026c-0.134,0-0.244,0.108-0.244,0.242v8.024
			c0,0.136,0.11,0.244,0.244,0.244h1.947c0.133,0,0.241-0.108,0.241-0.244L10.215,9.731L10.215,9.731z"/>
	</g>
	<g>
		<path fill="#FFFFFF" d="M14.107,6.093c0-0.133-0.109-0.243-0.242-0.243H11.92c-0.135,0-0.244,0.11-0.244,0.243v11.663
			c0,0.136,0.109,0.244,0.244,0.244h1.945c0.133,0,0.242-0.108,0.242-0.244V6.093z"/>
	</g>
	<g>
		<path fill="#FFFFFF" d="M18,17.026c0-0.135-0.111-0.242-0.244-0.242h-1.945c-0.133,0-0.242,0.107-0.242,0.242v0.729
			c0,0.136,0.109,0.244,0.242,0.244h1.945C17.889,18,18,17.892,18,17.756V17.026z"/>
	</g>
</g>
</svg>
