<?xml version="1.0" encoding="iso-8859-1"?>
<!-- Generator: Adobe Illustrator 14.0.0, SVG Export Plug-In . SVG Version: 6.00 Build 43363)  -->
<!DOCTYPE svg PUBLIC "-//W3C//DTD SVG 1.1//EN" "http://www.w3.org/Graphics/SVG/1.1/DTD/svg11.dtd">
<svg version="1.1" id="icon-s-bluetooth-layer" xmlns="http://www.w3.org/2000/svg" xmlns:xlink="http://www.w3.org/1999/xlink"
	 x="0px" y="0px" width="18px" height="18px" viewBox="0 0 18 18" style="enable-background:new 0 0 18 18;" xml:space="preserve">
<g id="icon-s-bluetooth">
	<g>
		<rect style="fill:none;" width="18" height="18"/>
	</g>
	<g>
		<path style="fill:#FFFFFF;" d="M8.847,18c-0.123,0-0.246-0.024-0.362-0.076C8.147,17.78,7.93,17.448,7.93,17.082v-6.313
			l-2.642,2.158c-0.393,0.319-0.97,0.26-1.291-0.131c-0.322-0.393-0.262-0.972,0.13-1.294l3.017-2.463l-3.017-2.46
			c-0.392-0.32-0.452-0.897-0.132-1.292c0.32-0.394,0.899-0.452,1.293-0.13L7.93,7.31V0.918c0-0.368,0.218-0.702,0.558-0.846
			c0.341-0.144,0.732-0.07,0.998,0.185L13.93,4.54c0.189,0.184,0.289,0.436,0.281,0.7c-0.012,0.262-0.137,0.506-0.338,0.673
			l-3.825,3.125l3.825,3.119c0.204,0.167,0.326,0.413,0.338,0.679c0.008,0.262-0.095,0.517-0.287,0.7l-4.444,4.213
			C9.305,17.913,9.078,18,8.847,18L8.847,18z M9.766,11.177v3.769l2.136-2.025L9.766,11.177L9.766,11.177z M9.766,3.08v3.817
			l2.145-1.751L9.766,3.08L9.766,3.08z"/>
	</g>
</g>
</svg>
