<?xml version="1.0" encoding="iso-8859-1"?>
<!-- Generator: Adobe Illustrator 14.0.0, SVG Export Plug-In . SVG Version: 6.00 Build 43363)  -->
<!DOCTYPE svg PUBLIC "-//W3C//DTD SVG 1.1//EN" "http://www.w3.org/Graphics/SVG/1.1/DTD/svg11.dtd">
<svg version="1.1" id="Layer_1" xmlns="http://www.w3.org/2000/svg" xmlns:xlink="http://www.w3.org/1999/xlink" x="0px" y="0px"
	 width="18px" height="18px" viewBox="0 0 18 18" style="enable-background:new 0 0 18 18;" xml:space="preserve">
<g id="icon-s-alarm">
	<rect style="fill:none;" width="18" height="18"/>
	<path style="fill:#FFFFFF;" d="M15.726,3.422c-0.717-0.715-1.821-0.533-1.821-0.533l-2.281,0.084
		c-0.757-0.857-2.568-2.61-4.942-2.794C5.013,0.048,3.438,0.7,2.005,2.122C0.546,3.568-0.123,5.144,0.019,6.799
		c0.196,2.277,1.901,3.972,2.729,4.673l0.073,2.465c0,0-0.154,0.887,0.581,1.621c0.735,0.736,2.303,2.277,2.303,2.277L18,5.712
		C18,5.71,16.444,4.138,15.726,3.422z M14.822,10.971l-3.438,3.439c0.396,0.938,1.328,1.592,2.411,1.592
		c1.448,0,2.625-1.174,2.625-2.625C16.421,12.299,15.763,11.369,14.822,10.971z"/>
</g>
</svg>
