<?xml version="1.0" encoding="utf-8"?>
<!-- Generator: Adobe Illustrator 14.0.0, SVG Export Plug-In . SVG Version: 6.00 Build 43363)  -->
<!DOCTYPE svg PUBLIC "-//W3C//DTD SVG 1.1//EN" "http://www.w3.org/Graphics/SVG/1.1/DTD/svg11.dtd">
<svg version="1.1" id="icon-s-network-40-layer" xmlns="http://www.w3.org/2000/svg" xmlns:xlink="http://www.w3.org/1999/xlink"
	 x="0px" y="0px" width="18px" height="18px" viewBox="0 0 18 18" enable-background="new 0 0 18 18" xml:space="preserve">
<g id="icon-s-network-40">
	<rect fill="none" width="18" height="18"/>
	<g>
		<path fill="#FFFFFF" d="M2.432,17.028c0-0.134-0.109-0.243-0.243-0.243H0.244C0.109,16.785,0,16.895,0,17.028v0.729
			C0,17.891,0.109,18,0.244,18h1.945c0.134,0,0.243-0.109,0.243-0.242V17.028z"/>
	</g>
	<g>
		<path fill="#FFFFFF" d="M6.324,13.391c0-0.133-0.11-0.242-0.244-0.242H4.135c-0.134,0-0.243,0.109-0.243,0.242v4.367
			C3.892,17.891,4.001,18,4.135,18H6.08c0.134,0,0.244-0.109,0.244-0.242V13.391z"/>
	</g>
	<g>
		<path fill="#FFFFFF" d="M10.215,17.028c0-0.134-0.109-0.243-0.242-0.243H8.026c-0.134,0-0.244,0.109-0.244,0.243v0.729
			c0,0.133,0.11,0.242,0.244,0.242h1.947c0.133,0,0.241-0.109,0.241-0.242L10.215,17.028L10.215,17.028z"/>
	</g>
	<g>
		<path fill="#FFFFFF" d="M14.107,17.028c0-0.134-0.109-0.243-0.242-0.243H11.92c-0.135,0-0.244,0.109-0.244,0.243v0.729
			c0,0.133,0.109,0.242,0.244,0.242h1.945c0.133,0,0.242-0.109,0.242-0.242V17.028z"/>
	</g>
	<g>
		<path fill="#FFFFFF" d="M18,17.028c0-0.134-0.111-0.243-0.244-0.243h-1.945c-0.133,0-0.242,0.109-0.242,0.243v0.729
			c0,0.133,0.109,0.242,0.242,0.242h1.945C17.889,18,18,17.891,18,17.758V17.028z"/>
	</g>
</g>
</svg>
