<?xml version="1.0" encoding="utf-8"?>
<!-- Generator: Adobe Illustrator 14.0.0, SVG Export Plug-In . SVG Version: 6.00 Build 43363)  -->
<!DOCTYPE svg PUBLIC "-//W3C//DTD SVG 1.1//EN" "http://www.w3.org/Graphics/SVG/1.1/DTD/svg11.dtd">
<svg version="1.1" id="Layer_1" xmlns="http://www.w3.org/2000/svg" xmlns:xlink="http://www.w3.org/1999/xlink" x="0px" y="0px"
	 width="64px" height="64px" viewBox="0 0 64 64" enable-background="new 0 0 64 64" xml:space="preserve">
<g id="icon-l-maps">
	<path id="path4319_1_" fill="#FFFFFF" d="M31.998,8C18.748,8,8,18.742,8,31.998c0,13.255,10.748,24.003,23.998,24.003
		C45.257,56.001,56,45.253,56,31.998C56,18.742,45.255,8,31.998,8z M42.582,42.679l-6.876-4.353l-3.8,14.846l-3.614-14.846
		l-7.059,4.353l4.339-7.062l-14.829-3.619l9.476-2.313l5.354-1.308l-4.339-7.06l7.059,4.169l3.614-14.66l3.8,14.66l6.876-4.169
		l-4.162,7.06l14.84,3.621l-14.84,3.621L42.582,42.679z"/>
	<circle id="circle4321_1_" fill="#FFFFFF" cx="32" cy="31.999" r="2.778"/>
</g>
</svg>
