<?xml version="1.0" encoding="iso-8859-1"?>
<!-- Generator: Adobe Illustrator 14.0.0, SVG Export Plug-In . SVG Version: 6.00 Build 43363)  -->
<!DOCTYPE svg PUBLIC "-//W3C//DTD SVG 1.1//EN" "http://www.w3.org/Graphics/SVG/1.1/DTD/svg11.dtd">
<svg version="1.1" id="Layer_1" xmlns="http://www.w3.org/2000/svg" xmlns:xlink="http://www.w3.org/1999/xlink" x="0px" y="0px"
	 width="18px" height="18px" viewBox="0 0 18 18" style="enable-background:new 0 0 18 18;" xml:space="preserve">
<g id="icon-s-wlan-66">
	<rect style="fill:none;" width="18" height="18"/>
	<circle id="local_2_" style="fill:#FFFFFF;" cx="9" cy="14.217" r="2.284"/>
	<path style="opacity:0.1;fill:#FFFFFF;enable-background:new    ;" d="M8.999,1.603C5.475,1.604,2.29,3.059,0,5.396l1.291,1.291
		C3.25,4.68,5.981,3.428,8.999,3.422c3.021,0.006,5.752,1.257,7.71,3.264L18,5.396C15.71,3.059,12.525,1.604,8.999,1.603z"/>
	<path style="fill:#FFFFFF;" d="M9,5.03c-2.58,0-4.909,1.072-6.578,2.788l1.294,1.295C5.055,7.725,6.924,6.853,9,6.849
		c2.075,0.003,3.943,0.876,5.285,2.264l1.295-1.295C13.909,6.1,11.58,5.03,9,5.03z"/>
	<path style="fill:#FFFFFF;" d="M9,8.454c-1.637,0-3.107,0.691-4.156,1.788l1.288,1.285C6.85,10.761,7.865,10.275,9,10.273
		c1.137,0.002,2.148,0.49,2.868,1.256l1.288-1.288C12.105,9.145,10.637,8.454,9,8.454z"/>
</g>
</svg>
