<?xml version="1.0" encoding="utf-8"?>
<!-- Generator: Adobe Illustrator 14.0.0, SVG Export Plug-In . SVG Version: 6.00 Build 43363)  -->
<!DOCTYPE svg PUBLIC "-//W3C//DTD SVG 1.1//EN" "http://www.w3.org/Graphics/SVG/1.1/DTD/svg11.dtd">
<svg version="1.1" id="Layer_1" xmlns="http://www.w3.org/2000/svg" xmlns:xlink="http://www.w3.org/1999/xlink" x="0px" y="0px"
	 width="64px" height="64px" viewBox="0 0 64 64" enable-background="new 0 0 64 64" xml:space="preserve">
<g id="icon-l-email">
	<path id="path4316_1_" fill="#FFFFFF" d="M35.501,18.686H44c-1.382,7.544-2.062,13.165-2.062,16.871
		c0,2.252,0.256,3.719,0.76,4.422c0.508,0.697,1.368,1.045,2.583,1.045c1.56,0,2.783-0.883,3.688-2.68
		c0.896-1.779,1.339-4.285,1.339-7.524c0-5.712-1.462-10.131-4.42-13.285c-2.957-3.147-7.145-4.723-12.555-4.723
		c-5.664,0-10.287,1.66-13.863,4.967c-3.593,3.307-5.38,7.885-5.38,13.721c0,6.54,1.642,11.446,4.943,14.717
		c3.299,3.271,8.242,4.906,14.842,4.906c3.901,0,8.004-0.703,12.286-2.127v4.932c-1.551,0.564-3.605,1.055-6.103,1.467
		c-2.532,0.4-4.737,0.605-6.67,0.605c-7.779,0-13.961-2.084-18.525-6.268C10.291,45.559,8,39.574,8,31.783
		c0-4.858,1.067-9.078,3.205-12.664c2.127-3.578,5.153-6.328,9.059-8.238C24.167,8.953,28.486,8,33.214,8
		c7.222,0,12.823,1.992,16.813,5.978C54.015,17.962,56,23.501,56,30.568c0,4.729-1.067,8.379-3.23,10.95
		c-2.147,2.588-5.125,3.879-8.883,3.879c-1.74,0-3.259-0.469-4.562-1.439c-1.307-0.947-2.219-2.281-2.709-3.979
		c-2.07,3.607-4.883,5.418-8.43,5.418c-2.386,0-4.411-0.947-6.064-2.83c-1.651-1.898-2.493-4.453-2.493-7.689
		c0-5.053,1.449-9.008,4.323-11.885C26.835,20.125,30.681,18.686,35.501,18.686z M35.33,31.442l1.064-8.305h-2.058
		c-2.136,0-3.971,1.028-5.498,3.108c-1.516,2.064-2.278,4.846-2.278,8.344c0,2.174,0.273,3.779,0.838,4.828
		c0.558,1.041,1.533,1.549,2.9,1.549C32.864,40.967,34.541,37.793,35.33,31.442z"/>
</g>
</svg>
