<?xml version="1.0" encoding="utf-8"?>
<!-- Generator: Adobe Illustrator 14.0.0, SVG Export Plug-In . SVG Version: 6.00 Build 43363)  -->
<!DOCTYPE svg PUBLIC "-//W3C//DTD SVG 1.1//EN" "http://www.w3.org/Graphics/SVG/1.1/DTD/svg11.dtd">
<svg version="1.1" id="Layer_1" xmlns="http://www.w3.org/2000/svg" xmlns:xlink="http://www.w3.org/1999/xlink" x="0px" y="0px"
	 width="64px" height="64px" viewBox="0 0 64 64" enable-background="new 0 0 64 64" xml:space="preserve">
<g id="icon-l-music">
	<path id="path4357_1_" fill="#FFFFFF" d="M45.805,34.837c-1.99-0.733-4.561-0.499-6.933,0.821
		c-3.848,2.146-5.559,6.155-3.895,9.157c1.659,2.995,5.984,3.684,9.82,1.552c2.547-1.402,4.176-3.649,4.487-5.879
		c0.028-0.265,0.045-0.369,0.045-0.55v-4.483V8.517c0-0.454-0.323-0.647-0.721-0.423L26.844,20.119
		c-0.392,0.213-0.707,0.762-0.707,1.226v21.876c-2-0.718-4.572-0.482-6.941,0.839c-3.85,2.13-5.551,6.144-3.896,9.142
		c1.662,3.003,5.98,3.693,9.823,1.564c2.543-1.41,4.225-3.65,4.529-5.878c0.017-0.243,0.042-0.37,0.042-0.553V31.017
		c0-0.351,0.323-0.997,0.716-1.218l14.641-8.089c0.39-0.216,0.714-0.024,0.714,0.425v14.002"/>
</g>
</svg>
