<?xml version="1.0" encoding="utf-8"?>
<!-- Generator: Adobe Illustrator 14.0.0, SVG Export Plug-In . SVG Version: 6.00 Build 43363)  -->
<!DOCTYPE svg PUBLIC "-//W3C//DTD SVG 1.1//EN" "http://www.w3.org/Graphics/SVG/1.1/DTD/svg11.dtd">
<svg version="1.1" id="icon-s-network-20-layer" xmlns="http://www.w3.org/2000/svg" xmlns:xlink="http://www.w3.org/1999/xlink"
	 x="0px" y="0px" width="18px" height="18px" viewBox="0 0 18 18" enable-background="new 0 0 18 18" xml:space="preserve">
<g id="icon-s-network-20">
	<rect fill="none" width="18" height="18"/>
	<g>
		<path fill="#FFFFFF" d="M2.432,17.026c0-0.135-0.109-0.243-0.243-0.243H0.244C0.11,16.783,0,16.892,0,17.026v0.729
			C0,17.891,0.109,18,0.244,18h1.945c0.134,0,0.243-0.109,0.243-0.244V17.026z"/>
	</g>
	<g>
		<path fill="#FFFFFF" d="M6.325,17.026c0-0.135-0.11-0.243-0.244-0.243H4.136c-0.134,0-0.243,0.108-0.243,0.243v0.729
			C3.893,17.891,4.002,18,4.136,18h1.945c0.134,0,0.244-0.109,0.244-0.244V17.026z"/>
	</g>
	<g>
		<path fill="#FFFFFF" d="M10.216,17.026c0-0.135-0.108-0.243-0.243-0.243H8.027c-0.134,0-0.244,0.108-0.244,0.243v0.729
			c0,0.135,0.11,0.244,0.244,0.244h1.946c0.135,0,0.243-0.109,0.243-0.244V17.026z"/>
	</g>
	<g>
		<path fill="#FFFFFF" d="M14.107,17.026c0-0.135-0.108-0.243-0.241-0.243h-1.945c-0.136,0-0.244,0.108-0.244,0.243v0.729
			c0,0.135,0.108,0.244,0.244,0.244h1.945c0.133,0,0.241-0.109,0.241-0.244V17.026z"/>
	</g>
	<g>
		<path fill="#FFFFFF" d="M18,17.026c0-0.135-0.109-0.243-0.244-0.243h-1.945c-0.133,0-0.242,0.108-0.242,0.243v0.729
			c0,0.135,0.109,0.244,0.242,0.244h1.945C17.891,18,18,17.891,18,17.756V17.026z"/>
	</g>
</g>
</svg>
