<?xml version="1.0" encoding="iso-8859-1"?>
<!-- Generator: Adobe Illustrator 14.0.0, SVG Export Plug-In . SVG Version: 6.00 Build 43363)  -->
<!DOCTYPE svg PUBLIC "-//W3C//DTD SVG 1.1//EN" "http://www.w3.org/Graphics/SVG/1.1/DTD/svg11.dtd">
<svg version="1.1" id="icon-s-ghost-layer" xmlns="http://www.w3.org/2000/svg" xmlns:xlink="http://www.w3.org/1999/xlink" x="0px"
	 y="0px" width="18px" height="18px" viewBox="0 0 18 18" style="enable-background:new 0 0 18 18;" xml:space="preserve">
<g id="icon-s-ghost" style="opacity:0.1;">
	<path style="fill:#FFFFFF;" d="M2,0C0.9,0,0,0.9,0,2h2V0z"/>
	<rect x="4" style="fill:#FFFFFF;" width="2" height="2"/>
	<rect x="8" style="fill:#FFFFFF;" width="2" height="2"/>
	<rect x="12" style="fill:#FFFFFF;" width="2" height="2"/>
	<path style="fill:#FFFFFF;" d="M16,0v2h2C18,0.9,17.1,0,16,0z"/>
	<path style="fill:#FFFFFF;" d="M0,16c0,1.1,0.9,2,2,2v-2H0z"/>
	<rect x="4" y="16" style="fill:#FFFFFF;" width="2" height="2"/>
	<rect x="8" y="16" style="fill:#FFFFFF;" width="2" height="2"/>
	<rect x="12" y="16" style="fill:#FFFFFF;" width="2" height="2"/>
	<path style="fill:#FFFFFF;" d="M16,18c1.1,0,2-0.9,2-2h-2V18z"/>
	<rect x="2" y="2" style="fill:#FFFFFF;" width="2" height="2"/>
	<rect x="6" y="2" style="fill:#FFFFFF;" width="2" height="2"/>
	<rect x="10" y="2" style="fill:#FFFFFF;" width="2" height="2"/>
	<rect x="14" y="2" style="fill:#FFFFFF;" width="2" height="2"/>
	<rect y="4" style="fill:#FFFFFF;" width="2" height="2"/>
	<rect x="4" y="4" style="fill:#FFFFFF;" width="2" height="2"/>
	<rect x="8" y="4" style="fill:#FFFFFF;" width="2" height="2"/>
	<rect x="12" y="4" style="fill:#FFFFFF;" width="2" height="2"/>
	<rect x="16" y="4" style="fill:#FFFFFF;" width="2" height="2"/>
	<rect x="2" y="6" style="fill:#FFFFFF;" width="2" height="2"/>
	<rect x="6" y="6" style="fill:#FFFFFF;" width="2" height="2"/>
	<rect x="10" y="6" style="fill:#FFFFFF;" width="2" height="2"/>
	<rect x="14" y="6" style="fill:#FFFFFF;" width="2" height="2"/>
	<rect y="8" style="fill:#FFFFFF;" width="2" height="2"/>
	<rect x="4" y="8" style="fill:#FFFFFF;" width="2" height="2"/>
	<rect x="8" y="8" style="fill:#FFFFFF;" width="2" height="2"/>
	<rect x="12" y="8" style="fill:#FFFFFF;" width="2" height="2"/>
	<rect x="16" y="8" style="fill:#FFFFFF;" width="2" height="2"/>
	<rect x="2" y="10" style="fill:#FFFFFF;" width="2" height="2"/>
	<rect x="6" y="10" style="fill:#FFFFFF;" width="2" height="2"/>
	<rect x="10" y="10" style="fill:#FFFFFF;" width="2" height="2"/>
	<rect x="14" y="10" style="fill:#FFFFFF;" width="2" height="2"/>
	<rect y="12" style="fill:#FFFFFF;" width="2" height="2"/>
	<rect x="4" y="12" style="fill:#FFFFFF;" width="2" height="2"/>
	<rect x="8" y="12" style="fill:#FFFFFF;" width="2" height="2"/>
	<rect x="12" y="12" style="fill:#FFFFFF;" width="2" height="2"/>
	<rect x="16" y="12" style="fill:#FFFFFF;" width="2" height="2"/>
	<rect x="2" y="14" style="fill:#FFFFFF;" width="2" height="2"/>
	<rect x="6" y="14" style="fill:#FFFFFF;" width="2" height="2"/>
	<rect x="10" y="14" style="fill:#FFFFFF;" width="2" height="2"/>
	<rect x="14" y="14" style="fill:#FFFFFF;" width="2" height="2"/>
</g>
</svg>
