<?xml version="1.0" encoding="utf-8"?>
<!-- Generator: Adobe Illustrator 14.0.0, SVG Export Plug-In . SVG Version: 6.00 Build 43363)  -->
<!DOCTYPE svg PUBLIC "-//W3C//DTD SVG 1.1//EN" "http://www.w3.org/Graphics/SVG/1.1/DTD/svg11.dtd">
<svg version="1.1" id="Layer_1" xmlns="http://www.w3.org/2000/svg" xmlns:xlink="http://www.w3.org/1999/xlink" x="0px" y="0px"
	 width="64px" height="64px" viewBox="0 0 64 64" enable-background="new 0 0 64 64" xml:space="preserve">
<g id="icon-l-camera">
	<path id="path4354_1_" fill="#FFFFFF" d="M51.136,19.201h-6.344c-2.684,0-4.873-1.501-4.873-3.331c0-1.822-2.188-3.311-4.873-3.311
		h-8.436c-2.681,0-4.865,1.488-4.865,3.311c-0.015,1.83-2.205,3.331-4.879,3.331h-3.997c-2.679,0-4.87,2.196-4.87,4.871V46.57
		c0,2.676,2.191,4.87,4.87,4.87h38.267c2.672,0,4.863-2.193,4.863-4.874V24.072C55.998,21.398,53.806,19.201,51.136,19.201z
		 M30.829,43.277c-5.312,0-9.622-4.08-9.622-9.135c0-5.052,4.301-9.155,9.622-9.155c5.309,0,9.618,4.104,9.618,9.155
		C40.447,39.198,36.138,43.277,30.829,43.277z M50.019,26.102h-5.094c-0.967,0-1.75-0.785-1.75-1.739c0-0.967,0.783-1.75,1.75-1.75
		h5.094c0.977,0,1.748,0.783,1.748,1.75C51.765,25.316,50.994,26.102,50.019,26.102z"/>
</g>
</svg>
