<?xml version="1.0" encoding="utf-8"?>
<!-- Generator: Adobe Illustrator 14.0.0, SVG Export Plug-In . SVG Version: 6.00 Build 43363)  -->
<!DOCTYPE svg PUBLIC "-//W3C//DTD SVG 1.1//EN" "http://www.w3.org/Graphics/SVG/1.1/DTD/svg11.dtd">
<svg version="1.1" id="icon-s-network-60-layer" xmlns="http://www.w3.org/2000/svg" xmlns:xlink="http://www.w3.org/1999/xlink"
	 x="0px" y="0px" width="18px" height="18px" viewBox="0 0 18 18" enable-background="new 0 0 18 18" xml:space="preserve">
<g id="icon-s-network-60">
	<rect fill="none" width="18" height="18"/>
	<g>
		<path fill="#FFFFFF" d="M2.432,17.017c0-0.135-0.109-0.243-0.243-0.243H0.244C0.11,16.773,0,16.882,0,17.017v0.729
			c0,0.135,0.109,0.243,0.244,0.243h1.945c0.134,0,0.243-0.108,0.243-0.243V17.017z"/>
	</g>
	<g>
		<path fill="#FFFFFF" d="M6.325,13.38c0-0.135-0.11-0.244-0.244-0.244H4.136c-0.134,0-0.243,0.109-0.243,0.244v4.365
			c0,0.135,0.109,0.243,0.243,0.243h1.945c0.134,0,0.244-0.108,0.244-0.243V13.38z"/>
	</g>
	<g>
		<path fill="#FFFFFF" d="M10.216,9.722c0-0.135-0.108-0.244-0.243-0.244H8.027c-0.134,0-0.244,0.109-0.244,0.244v8.025
			c0,0.133,0.11,0.242,0.244,0.242h1.946c0.135,0,0.243-0.109,0.243-0.242V9.722z"/>
	</g>
	<g>
		<path fill="#FFFFFF" d="M14.107,17.017c0-0.135-0.108-0.243-0.241-0.243h-1.945c-0.136,0-0.244,0.108-0.244,0.243v0.729
			c0,0.135,0.108,0.243,0.244,0.243h1.945c0.133,0,0.241-0.108,0.241-0.243V17.017z"/>
	</g>
	<g>
		<path fill="#FFFFFF" d="M18,17.017c0-0.135-0.109-0.243-0.244-0.243h-1.945c-0.133,0-0.242,0.108-0.242,0.243v0.729
			c0,0.135,0.109,0.243,0.242,0.243h1.945c0.135,0,0.244-0.108,0.244-0.243V17.017z"/>
	</g>
</g>
</svg>
