<?xml version="1.0" encoding="iso-8859-1"?>
<!-- Generator: Adobe Illustrator 14.0.0, SVG Export Plug-In . SVG Version: 6.00 Build 43363)  -->
<!DOCTYPE svg PUBLIC "-//W3C//DTD SVG 1.1//EN" "http://www.w3.org/Graphics/SVG/1.1/DTD/svg11.dtd">
<svg version="1.1" id="NumberInputField-layer" xmlns="http://www.w3.org/2000/svg" xmlns:xlink="http://www.w3.org/1999/xlink"
	 x="0px" y="0px" width="643px" height="471px" viewBox="0 0 643 471" style="enable-background:new 0 0 643 471;"
	 xml:space="preserve">
<g id="NumberInputField">
	<g>
		<path style="fill:#BBBDBF;" d="M643.105,421.176c0,27.5-22.5,50-50,50H51c-27.5,0-50-22.5-50-50V51C1,23.5,23.5,1,51,1h542.105
			c27.5,0,50,22.5,50,50V421.176z"/>
	</g>
	<g>
		<path style="fill:#010101;" d="M208.941,36.828v-21.31h3.035l6.798,10.781c1.55,2.498,2.813,4.743,3.794,6.924l0.095-0.031
			c-0.253-2.846-0.315-5.438-0.315-8.758v-8.916h2.592v21.31h-2.782l-6.766-10.812c-1.486-2.371-2.909-4.806-3.952-7.113
			l-0.095,0.031c0.158,2.688,0.189,5.248,0.189,8.789v9.105H208.941z"/>
		<path style="fill:#010101;" d="M242.457,32.623c0,1.612,0.032,3.004,0.127,4.205h-2.467l-0.157-2.498h-0.063
			c-0.695,1.233-2.34,2.846-5.059,2.846c-2.403,0-5.28-1.359-5.28-6.703v-8.947h2.782v8.441c0,2.909,0.917,4.901,3.415,4.901
			c1.865,0,3.161-1.296,3.667-2.562c0.158-0.379,0.253-0.885,0.253-1.422v-9.359h2.782V32.623z"/>
		<path style="fill:#010101;" d="M247.074,25.668c0-1.613-0.062-2.877-0.126-4.143h2.435l0.126,2.498h0.095
			c0.854-1.454,2.276-2.813,4.838-2.813c2.055,0,3.636,1.265,4.3,3.066h0.063c0.474-0.886,1.106-1.518,1.738-1.991
			c0.917-0.696,1.897-1.075,3.352-1.075c2.055,0,5.059,1.327,5.059,6.64v8.979h-2.719v-8.631c0-2.973-1.107-4.711-3.32-4.711
			c-1.612,0-2.813,1.17-3.319,2.498c-0.127,0.41-0.222,0.885-0.222,1.391v9.453h-2.719v-9.169c0-2.435-1.075-4.173-3.193-4.173
			c-1.707,0-3.004,1.391-3.446,2.782c-0.158,0.379-0.221,0.885-0.221,1.359v9.2h-2.72V25.668z"/>
		<path style="fill:#010101;" d="M273.444,14.381h2.751v9.611h0.063c0.979-1.707,2.75-2.782,5.217-2.782
			c3.825,0,6.481,3.161,6.481,7.777c0,5.47-3.479,8.188-6.893,8.188c-2.213,0-3.984-0.854-5.153-2.846h-0.063l-0.158,2.498h-2.371
			c0.063-1.043,0.126-2.593,0.126-3.952V14.381z M276.195,30.694c0,0.349,0.031,0.696,0.127,1.012
			c0.506,1.929,2.149,3.257,4.173,3.257c2.94,0,4.647-2.371,4.647-5.881c0-3.066-1.581-5.691-4.584-5.691
			c-1.865,0-3.636,1.328-4.205,3.415c-0.095,0.348-0.158,0.728-0.158,1.17V30.694z"/>
		<path style="fill:#010101;" d="M292.985,29.683c0.063,3.763,2.435,5.312,5.248,5.312c1.992,0,3.225-0.348,4.236-0.79l0.506,1.991
			c-0.979,0.443-2.688,0.98-5.122,0.98c-4.71,0-7.524-3.13-7.524-7.746c0-4.615,2.72-8.22,7.177-8.22
			c5.027,0,6.323,4.362,6.323,7.177c0,0.568-0.031,0.98-0.095,1.296H292.985z M301.143,27.691c0.031-1.739-0.728-4.49-3.857-4.49
			c-2.846,0-4.047,2.562-4.269,4.49H301.143z"/>
		<path style="fill:#010101;" d="M307.276,26.3c0-1.802-0.031-3.351-0.126-4.774h2.435l0.126,3.035h0.095
			c0.696-2.055,2.403-3.351,4.269-3.351c0.284,0,0.506,0.031,0.759,0.063v2.623c-0.284-0.062-0.569-0.062-0.948-0.062
			c-1.961,0-3.352,1.454-3.73,3.541c-0.063,0.379-0.096,0.854-0.096,1.296v8.157h-2.782V26.3z"/>
		<path style="fill:#010101;" d="M327.164,15.519v21.31h-2.782v-21.31H327.164z"/>
		<path style="fill:#010101;" d="M332.191,25.668c0-1.613-0.031-2.877-0.126-4.143h2.466l0.158,2.529h0.063
			c0.759-1.422,2.529-2.845,5.059-2.845c2.118,0,5.406,1.265,5.406,6.513v9.105h-2.782v-8.82c0-2.467-0.917-4.521-3.541-4.521
			c-1.803,0-3.225,1.296-3.73,2.846c-0.127,0.348-0.19,0.821-0.19,1.296v9.2h-2.782V25.668z"/>
		<path style="fill:#010101;" d="M349.74,26.521c0-1.961-0.062-3.541-0.126-4.996h2.466l0.158,2.625h0.063
			c1.106-1.865,2.94-2.94,5.438-2.94c3.731,0,6.513,3.13,6.513,7.745c0,5.502-3.383,8.221-6.986,8.221
			c-2.023,0-3.794-0.885-4.711-2.402h-0.063v8.314h-2.751V26.521z M352.491,30.6c0,0.411,0.031,0.791,0.126,1.139
			c0.506,1.928,2.182,3.256,4.174,3.256c2.94,0,4.647-2.402,4.647-5.912c0-3.035-1.612-5.659-4.553-5.659
			c-1.896,0-3.699,1.328-4.205,3.415c-0.095,0.348-0.189,0.758-0.189,1.105V30.6z"/>
		<path style="fill:#010101;" d="M380.536,32.623c0,1.612,0.032,3.004,0.127,4.205h-2.466l-0.158-2.498h-0.063
			c-0.695,1.233-2.34,2.846-5.059,2.846c-2.403,0-5.28-1.359-5.28-6.703v-8.947h2.782v8.441c0,2.909,0.917,4.901,3.415,4.901
			c1.865,0,3.161-1.296,3.667-2.562c0.158-0.379,0.253-0.885,0.253-1.422v-9.359h2.782V32.623z"/>
		<path style="fill:#010101;" d="M388.505,17.858v3.667h3.983v2.119h-3.983v8.252c0,1.896,0.538,2.972,2.087,2.972
			c0.759,0,1.201-0.063,1.612-0.19l0.126,2.119c-0.537,0.189-1.391,0.379-2.466,0.379c-1.296,0-2.339-0.442-3.003-1.17
			c-0.759-0.854-1.075-2.213-1.075-4.016v-8.346h-2.371v-2.119h2.371v-2.845L388.505,17.858z"/>
		<path style="fill:#010101;" d="M402.386,15.519h11.477v2.308h-8.694v7.082h8.03v2.277h-8.03v9.643h-2.782V15.519z"/>
		<path style="fill:#010101;" d="M419.998,17.227c0,0.948-0.664,1.707-1.771,1.707c-1.012,0-1.676-0.759-1.676-1.707
			c0-0.949,0.696-1.739,1.739-1.739C419.303,15.487,419.998,16.246,419.998,17.227z M416.899,36.828V21.525h2.782v15.303H416.899z"
			/>
		<path style="fill:#010101;" d="M425.848,29.683c0.062,3.763,2.435,5.312,5.248,5.312c1.992,0,3.225-0.348,4.236-0.79l0.506,1.991
			c-0.979,0.443-2.688,0.98-5.121,0.98c-4.711,0-7.525-3.13-7.525-7.746c0-4.615,2.719-8.22,7.177-8.22
			c5.027,0,6.323,4.362,6.323,7.177c0,0.568-0.031,0.98-0.095,1.296H425.848z M434.004,27.691c0.032-1.739-0.727-4.49-3.856-4.49
			c-2.846,0-4.047,2.562-4.269,4.49H434.004z"/>
		<path style="fill:#010101;" d="M440.139,14.381h2.782v22.447h-2.782V14.381z"/>
		<path style="fill:#010101;" d="M460.785,14.381v18.495c0,1.359,0.062,2.909,0.126,3.952h-2.466l-0.127-2.656h-0.095
			c-0.821,1.708-2.655,3.004-5.153,3.004c-3.699,0-6.576-3.13-6.576-7.777c-0.031-5.09,3.162-8.188,6.861-8.188
			c2.371,0,3.92,1.106,4.615,2.308h0.063v-9.137H460.785z M458.034,27.754c0-0.348-0.031-0.822-0.126-1.17
			c-0.411-1.738-1.929-3.193-4.016-3.193c-2.877,0-4.584,2.529-4.584,5.881c0,3.099,1.549,5.66,4.521,5.66
			c1.865,0,3.573-1.266,4.079-3.32c0.095-0.379,0.126-0.759,0.126-1.201V27.754z"/>
	</g>
	<g id="number-input-field-background">
		<path id="image" style="fill:#231F20;" d="M558.053,200.998c0,4.401-3.596,8.002-7.992,8.002H114.045
			c-4.394,0-7.992-3.601-7.992-8.002v-81.996c0-4.4,3.599-8.002,7.992-8.002h436.016c4.396,0,7.992,3.602,7.992,8.002V200.998z"/>
	</g>
	<g id="input-field-delete-button-background">
		<path style="fill:#595A5C;" d="M363.999,271h-91.946v98h91.946c4.43,0,8.054-3.601,8.054-8.002v-81.996
			C372.053,274.602,368.429,271,363.999,271z"/>
		<g>
			<rect x="272.053" y="272.999" style="opacity:0.25;fill:#010101;" width="1.007" height="94.026"/>
			<rect x="273.06" y="272.999" style="fill:#FFFFFF;" width="1.007" height="94.026"/>
		</g>
	</g>
	<g id="input-field-delete-button-background-pressed">
		<path style="fill:#231F20;" d="M203.999,271h-91.946v98h91.946c4.43,0,8.054-3.601,8.054-8.002v-81.996
			C212.053,274.602,208.429,271,203.999,271z"/>
		<g>
			<rect x="112.053" y="272.999" style="opacity:0.25;fill:#010101;" width="1.007" height="94.026"/>
			<rect x="113.06" y="272.999" style="fill:#FFFFFF;" width="1.007" height="94.026"/>
		</g>
	</g>
</g>
</svg>
