<?xml version="1.0" encoding="iso-8859-1"?>
<!-- Generator: Adobe Illustrator 14.0.0, SVG Export Plug-In . SVG Version: 6.00 Build 43363)  -->
<!DOCTYPE svg PUBLIC "-//W3C//DTD SVG 1.1//EN" "http://www.w3.org/Graphics/SVG/1.1/DTD/svg11.dtd">
<svg version="1.1" id="Numpad-layer" xmlns="http://www.w3.org/2000/svg" xmlns:xlink="http://www.w3.org/1999/xlink" x="0px"
	 y="0px" width="643px" height="471px" viewBox="0 0 643 471" style="enable-background:new 0 0 643 471;" xml:space="preserve">
<g id="Numpad">
	<g>
		<path style="fill:#BBBDBF;" d="M643.105,421.176c0,27.5-22.5,50-50,50H51c-27.5,0-50-22.5-50-50V51C1,23.5,23.5,1,51,1h542.105
			c27.5,0,50,22.5,50,50V421.176z"/>
	</g>
	<g>
		<path style="fill:#010101;" d="M268.941,39.109V17.799h3.035l6.798,10.781c1.55,2.498,2.813,4.743,3.794,6.924l0.095-0.031
			c-0.253-2.846-0.315-5.438-0.315-8.758v-8.916h2.592v21.311h-2.782l-6.766-10.812c-1.486-2.372-2.909-4.807-3.952-7.114
			l-0.095,0.032c0.158,2.687,0.189,5.248,0.189,8.789v9.105H268.941z"/>
		<path style="fill:#010101;" d="M302.457,34.904c0,1.611,0.032,3.004,0.127,4.205h-2.467l-0.157-2.498h-0.063
			c-0.695,1.232-2.34,2.846-5.059,2.846c-2.403,0-5.28-1.359-5.28-6.703v-8.947h2.782v8.441c0,2.908,0.917,4.9,3.415,4.9
			c1.865,0,3.161-1.296,3.667-2.561c0.158-0.379,0.253-0.885,0.253-1.423v-9.358h2.782V34.904z"/>
		<path style="fill:#010101;" d="M307.074,27.948c0-1.612-0.062-2.877-0.126-4.142h2.435l0.126,2.498h0.095
			c0.854-1.455,2.276-2.814,4.838-2.814c2.055,0,3.636,1.266,4.3,3.066h0.063c0.474-0.885,1.106-1.518,1.738-1.991
			c0.917-0.696,1.897-1.075,3.352-1.075c2.055,0,5.059,1.328,5.059,6.64v8.979h-2.719v-8.632c0-2.972-1.107-4.71-3.32-4.71
			c-1.612,0-2.813,1.169-3.319,2.497c-0.127,0.411-0.222,0.886-0.222,1.392v9.453h-2.719v-9.17c0-2.434-1.075-4.172-3.193-4.172
			c-1.707,0-3.004,1.391-3.446,2.781c-0.158,0.379-0.221,0.885-0.221,1.359v9.201h-2.72V27.948z"/>
		<path style="fill:#010101;" d="M333.444,28.803c0-1.961-0.062-3.541-0.126-4.996h2.466l0.158,2.624h0.063
			c1.106-1.865,2.94-2.94,5.438-2.94c3.73,0,6.514,3.131,6.514,7.746c0,5.502-3.384,8.221-6.987,8.221
			c-2.023,0-3.794-0.886-4.711-2.403h-0.063v8.315h-2.751V28.803z M336.195,32.881c0,0.41,0.031,0.79,0.127,1.138
			c0.506,1.929,2.181,3.257,4.173,3.257c2.94,0,4.647-2.402,4.647-5.912c0-3.035-1.612-5.66-4.553-5.66
			c-1.896,0-3.699,1.328-4.205,3.415c-0.095,0.348-0.189,0.759-0.189,1.106V32.881z"/>
		<path style="fill:#010101;" d="M362.186,35.441c0,1.328,0.063,2.624,0.221,3.668h-2.497l-0.222-1.93h-0.095
			c-0.854,1.202-2.497,2.277-4.679,2.277c-3.099,0-4.68-2.182-4.68-4.395c0-3.699,3.288-5.723,9.2-5.691v-0.316
			c0-1.232-0.348-3.541-3.478-3.51c-1.454,0-2.94,0.412-4.016,1.139l-0.632-1.865c1.265-0.791,3.13-1.328,5.059-1.328
			c4.679,0,5.817,3.193,5.817,6.229V35.441z M359.498,31.3c-3.035-0.063-6.481,0.474-6.481,3.446c0,1.834,1.201,2.656,2.593,2.656
			c2.023,0,3.319-1.266,3.762-2.562c0.096-0.316,0.127-0.632,0.127-0.886V31.3z"/>
		<path style="fill:#010101;" d="M379.86,16.662v18.494c0,1.359,0.063,2.909,0.126,3.953h-2.466l-0.126-2.656h-0.096
			c-0.821,1.707-2.655,3.004-5.153,3.004c-3.699,0-6.576-3.131-6.576-7.777c-0.031-5.091,3.162-8.189,6.861-8.189
			c2.371,0,3.92,1.107,4.615,2.309h0.063v-9.137H379.86z M377.109,30.035c0-0.348-0.031-0.822-0.126-1.17
			c-0.411-1.738-1.929-3.193-4.016-3.193c-2.877,0-4.584,2.529-4.584,5.881c0,3.098,1.549,5.659,4.521,5.659
			c1.865,0,3.573-1.265,4.079-3.319c0.095-0.38,0.126-0.76,0.126-1.201V30.035z"/>
	</g>
	<g id="numpad-single-background-selected-pressed">
		<path style="fill:#999999;" d="M527.053,397c0,5.5-4.5,10-10,10h-12c-5.5,0-10-4.5-10-10v-12c0-5.5,4.5-10,10-10h12
			c5.5,0,10,4.5,10,10V397z"/>
		<linearGradient id="SVGID_1_" gradientUnits="userSpaceOnUse" x1="511.0527" y1="405" x2="511.0527" y2="377">
			<stop  offset="0" style="stop-color:#A7752A"/>
			<stop  offset="1" style="stop-color:#805823"/>
		</linearGradient>
		<path style="fill:url(#SVGID_1_);" d="M525.053,397c0,4.399-3.6,8-8,8h-12c-4.4,0-8-3.601-8-8v-12c0-4.4,3.6-8,8-8h12
			c4.4,0,8,3.6,8,8V397z"/>
	</g>
	<g id="numpad-singlecolumn-bottom-background-selected-pressed">
		<path style="fill:#999999;" d="M527.053,333v22c0,5.5-4.5,10-10,10h-12c-5.5,0-10-4.5-10-10v-22H527.053z"/>
		<linearGradient id="SVGID_2_" gradientUnits="userSpaceOnUse" x1="511.0527" y1="363" x2="511.0527" y2="333">
			<stop  offset="0" style="stop-color:#A7752A"/>
			<stop  offset="1" style="stop-color:#805823"/>
		</linearGradient>
		<path style="fill:url(#SVGID_2_);" d="M525.053,333v22c0,4.399-3.6,8-8,8h-12c-4.399,0-8-3.601-8-8v-22H525.053z"/>
	</g>
	<g id="numpad-singlecolumn-center-background-selected-pressed">
		<rect x="495.053" y="291" style="fill:#999999;" width="32" height="32"/>
		<linearGradient id="SVGID_3_" gradientUnits="userSpaceOnUse" x1="511.0527" y1="323" x2="511.0527" y2="290.999">
			<stop  offset="0" style="stop-color:#A7752A"/>
			<stop  offset="1" style="stop-color:#805823"/>
		</linearGradient>
		<rect x="497.053" y="290.999" style="fill:url(#SVGID_3_);" width="28" height="32.001"/>
	</g>
	<g id="numpad-singlecolumn-top-background-selected-pressed">
		<path style="fill:#999999;" d="M495.053,281v-22c0-5.5,4.5-10,10-10h12c5.5,0,10,4.5,10,10v22H495.053z"/>
		<linearGradient id="SVGID_4_" gradientUnits="userSpaceOnUse" x1="511.0527" y1="281" x2="511.0527" y2="251">
			<stop  offset="0" style="stop-color:#A7752A"/>
			<stop  offset="1" style="stop-color:#805823"/>
		</linearGradient>
		<path style="fill:url(#SVGID_4_);" d="M497.053,281v-22c0-4.4,3.6-8,8-8h12c4.398,0,8,3.6,8,8v22H497.053z"/>
	</g>
	<g id="numpad-singlerow-right-background-selected-pressed">
		<path style="fill:#999999;" d="M537.053,207h22c5.5,0,10,4.5,10,10v12c0,5.5-4.5,10-10,10h-22V207z"/>
		<linearGradient id="SVGID_5_" gradientUnits="userSpaceOnUse" x1="552.0527" y1="237" x2="552.0527" y2="209.0005">
			<stop  offset="0" style="stop-color:#A7752A"/>
			<stop  offset="1" style="stop-color:#805823"/>
		</linearGradient>
		<path style="fill:url(#SVGID_5_);" d="M537.053,209h22c4.4,0,8,3.6,8,8v12c0,4.399-3.6,8-8,8h-22V209z"/>
	</g>
	<g id="numpad-singlerow-center-backround-selected-pressed">
		<rect x="495.053" y="207" style="fill:#999999;" width="32" height="32"/>
		<linearGradient id="SVGID_6_" gradientUnits="userSpaceOnUse" x1="511.0527" y1="237" x2="511.0527" y2="209.0005">
			<stop  offset="0" style="stop-color:#A7752A"/>
			<stop  offset="1" style="stop-color:#805823"/>
		</linearGradient>
		<rect x="495.053" y="209" style="fill:url(#SVGID_6_);" width="32" height="28"/>
	</g>
	<g id="numpad-singlerow-left-background-selected-pressed">
		<path style="fill:#999999;" d="M485.053,239h-22c-5.5,0-10-4.5-10-10v-12c0-5.5,4.5-10,10-10h22V239z"/>
		<linearGradient id="SVGID_7_" gradientUnits="userSpaceOnUse" x1="470.0527" y1="237" x2="470.0527" y2="209.0005">
			<stop  offset="0" style="stop-color:#A7752A"/>
			<stop  offset="1" style="stop-color:#805823"/>
		</linearGradient>
		<path style="fill:url(#SVGID_7_);" d="M485.053,237h-22c-4.4,0-8-3.601-8-8v-12c0-4.4,3.6-8,8-8h22V237z"/>
	</g>
	<g id="numpad-bottomright-background-selected-pressed">
		<path style="fill:#999999;" d="M559.053,197c5.5,0,10-4.5,10-10v-22h-32v32H559.053z"/>
		<linearGradient id="SVGID_8_" gradientUnits="userSpaceOnUse" x1="552.0527" y1="195" x2="552.0527" y2="165">
			<stop  offset="0" style="stop-color:#A7752A"/>
			<stop  offset="1" style="stop-color:#805823"/>
		</linearGradient>
		<path style="fill:url(#SVGID_8_);" d="M537.053,195h22c4.4,0,8-3.601,8-8v-22h-30V195z"/>
	</g>
	<g id="numpad-bottom-background-selected-pressed">
		<rect x="495.053" y="165" style="fill:#999999;" width="32" height="32"/>
		<linearGradient id="SVGID_9_" gradientUnits="userSpaceOnUse" x1="511.0527" y1="195" x2="511.0527" y2="165">
			<stop  offset="0" style="stop-color:#A7752A"/>
			<stop  offset="1" style="stop-color:#805823"/>
		</linearGradient>
		<rect x="495.053" y="165" style="fill:url(#SVGID_9_);" width="32" height="30"/>
	</g>
	<g id="numpad-bottomleft-background-selected-pressed">
		<path style="fill:#999999;" d="M453.053,187.001c0,5.5,4.5,10,10,10h22v-32h-32V187.001z"/>
		<linearGradient id="SVGID_10_" gradientUnits="userSpaceOnUse" x1="470.0527" y1="195.001" x2="470.0527" y2="165.001">
			<stop  offset="0" style="stop-color:#A7752A"/>
			<stop  offset="1" style="stop-color:#805823"/>
		</linearGradient>
		<path style="fill:url(#SVGID_10_);" d="M455.053,165.001v22c0,4.4,3.6,8,8,8h22v-30H455.053z"/>
	</g>
	<g id="numpad-right-background-selected-pressed">
		<rect x="537.053" y="123" style="fill:#999999;" width="32" height="32"/>
		<linearGradient id="SVGID_11_" gradientUnits="userSpaceOnUse" x1="552.0527" y1="155" x2="552.0527" y2="123">
			<stop  offset="0" style="stop-color:#A7752A"/>
			<stop  offset="1" style="stop-color:#805823"/>
		</linearGradient>
		<rect x="537.053" y="123" style="fill:url(#SVGID_11_);" width="30" height="32"/>
	</g>
	<g id="numpad-center-background-selected-pressed">
		<rect x="495.053" y="123" style="fill:#999999;" width="32" height="32"/>
		<linearGradient id="SVGID_12_" gradientUnits="userSpaceOnUse" x1="511.0527" y1="155" x2="511.0527" y2="123">
			<stop  offset="0" style="stop-color:#A7752A"/>
			<stop  offset="1" style="stop-color:#805823"/>
		</linearGradient>
		<rect x="495.053" y="123" style="fill:url(#SVGID_12_);" width="32" height="32"/>
	</g>
	<g id="numpad-left-background-selected-pressed">
		<rect x="453.053" y="123" style="fill:#999999;" width="32" height="32"/>
		<linearGradient id="SVGID_13_" gradientUnits="userSpaceOnUse" x1="470.0527" y1="155" x2="470.0527" y2="123">
			<stop  offset="0" style="stop-color:#A7752A"/>
			<stop  offset="1" style="stop-color:#805823"/>
		</linearGradient>
		<rect x="455.053" y="123" style="fill:url(#SVGID_13_);" width="30" height="32"/>
	</g>
	<g id="numpad-topright-background-selected-pressed">
		<path style="fill:#999999;" d="M569.053,91c0-5.5-4.5-10-10-10h-22v32h32V91z"/>
		<linearGradient id="SVGID_14_" gradientUnits="userSpaceOnUse" x1="552.0527" y1="113" x2="552.0527" y2="83">
			<stop  offset="0" style="stop-color:#A7752A"/>
			<stop  offset="1" style="stop-color:#805823"/>
		</linearGradient>
		<path style="fill:url(#SVGID_14_);" d="M567.053,113V91c0-4.4-3.6-8-8-8h-22v30H567.053z"/>
	</g>
	<g id="numpad-top-background-selected-pressed">
		<rect x="495.053" y="81" style="fill:#999999;" width="32" height="32"/>
		<linearGradient id="SVGID_15_" gradientUnits="userSpaceOnUse" x1="511.0527" y1="113" x2="511.0527" y2="83">
			<stop  offset="0" style="stop-color:#A7752A"/>
			<stop  offset="1" style="stop-color:#805823"/>
		</linearGradient>
		<rect x="495.053" y="83" style="fill:url(#SVGID_15_);" width="32" height="30"/>
	</g>
	<g id="numpad-topleft-background-selected-pressed">
		<path style="fill:#999999;" d="M453.053,91c0-5.5,4.5-10,10-10h22v32h-32V91z"/>
		<linearGradient id="SVGID_16_" gradientUnits="userSpaceOnUse" x1="470.0527" y1="113" x2="470.0527" y2="83">
			<stop  offset="0" style="stop-color:#A7752A"/>
			<stop  offset="1" style="stop-color:#805823"/>
		</linearGradient>
		<path style="fill:url(#SVGID_16_);" d="M455.053,113V91c0-4.399,3.6-8,8-8h22v30H455.053z"/>
	</g>
	<g id="numpad-single-background-selected">
		<path style="fill:#999999;" d="M401.053,397c0,5.5-4.5,10-10,10h-12c-5.5,0-10-4.5-10-10v-12c0-5.5,4.5-10,10-10h12
			c5.5,0,10,4.5,10,10V397z"/>
		<linearGradient id="SVGID_17_" gradientUnits="userSpaceOnUse" x1="385.0527" y1="405" x2="385.0527" y2="377">
			<stop  offset="0" style="stop-color:#A7752A"/>
			<stop  offset="1" style="stop-color:#F4A81D"/>
		</linearGradient>
		<path style="fill:url(#SVGID_17_);" d="M399.053,397c0,4.399-3.6,8-8,8h-12c-4.4,0-8-3.601-8-8v-12c0-4.4,3.6-8,8-8h12
			c4.4,0,8,3.6,8,8V397z"/>
	</g>
	<g id="numpad-singlecolumn-bottom-background-selected">
		<path style="fill:#999999;" d="M401.053,333v22c0,5.5-4.5,10-10,10h-12c-5.5,0-10-4.5-10-10v-22H401.053z"/>
		<linearGradient id="SVGID_18_" gradientUnits="userSpaceOnUse" x1="385.0527" y1="363" x2="385.0527" y2="333">
			<stop  offset="0" style="stop-color:#A7752A"/>
			<stop  offset="1" style="stop-color:#F4A81D"/>
		</linearGradient>
		<path style="fill:url(#SVGID_18_);" d="M399.053,333v22c0,4.399-3.6,8-8,8h-12c-4.399,0-8-3.601-8-8v-22H399.053z"/>
	</g>
	<g id="numpad-singlecolumn-center-background-selected">
		<rect x="369.053" y="291" style="fill:#999999;" width="32" height="32"/>
		<linearGradient id="SVGID_19_" gradientUnits="userSpaceOnUse" x1="385.0527" y1="323" x2="385.0527" y2="290.999">
			<stop  offset="0" style="stop-color:#A7752A"/>
			<stop  offset="1" style="stop-color:#F4A81D"/>
		</linearGradient>
		<rect x="371.053" y="290.999" style="fill:url(#SVGID_19_);" width="28" height="32.001"/>
	</g>
	<g id="numpad-singlecolumn-top-background-selected">
		<path style="fill:#999999;" d="M369.053,281v-22c0-5.5,4.5-10,10-10h12c5.5,0,10,4.5,10,10v22H369.053z"/>
		<linearGradient id="SVGID_20_" gradientUnits="userSpaceOnUse" x1="385.0527" y1="281" x2="385.0527" y2="251">
			<stop  offset="0" style="stop-color:#A7752A"/>
			<stop  offset="1" style="stop-color:#F4A81D"/>
		</linearGradient>
		<path style="fill:url(#SVGID_20_);" d="M371.053,281v-22c0-4.4,3.6-8,8-8h12c4.398,0,8,3.6,8,8v22H371.053z"/>
	</g>
	<g id="numpad-singlerow-right-background-selected">
		<path style="fill:#999999;" d="M411.053,207h22c5.5,0,10,4.5,10,10v12c0,5.5-4.5,10-10,10h-22V207z"/>
		<linearGradient id="SVGID_21_" gradientUnits="userSpaceOnUse" x1="426.0527" y1="237" x2="426.0527" y2="209.0005">
			<stop  offset="0" style="stop-color:#A7752A"/>
			<stop  offset="1" style="stop-color:#F4A81D"/>
		</linearGradient>
		<path style="fill:url(#SVGID_21_);" d="M411.053,209h22c4.4,0,8,3.6,8,8v12c0,4.399-3.6,8-8,8h-22V209z"/>
	</g>
	<g id="numpad-singlerow-center-backround-selected">
		<rect x="369.053" y="207" style="fill:#999999;" width="32" height="32"/>
		<linearGradient id="SVGID_22_" gradientUnits="userSpaceOnUse" x1="385.0527" y1="237" x2="385.0527" y2="209.0005">
			<stop  offset="0" style="stop-color:#A7752A"/>
			<stop  offset="1" style="stop-color:#F4A81D"/>
		</linearGradient>
		<rect x="369.053" y="209" style="fill:url(#SVGID_22_);" width="32" height="28"/>
	</g>
	<g id="numpad-singlerow-left-background-selected">
		<path style="fill:#999999;" d="M359.053,239h-22c-5.5,0-10-4.5-10-10v-12c0-5.5,4.5-10,10-10h22V239z"/>
		<linearGradient id="SVGID_23_" gradientUnits="userSpaceOnUse" x1="344.0527" y1="237" x2="344.0527" y2="209.0005">
			<stop  offset="0" style="stop-color:#A7752A"/>
			<stop  offset="1" style="stop-color:#F4A81D"/>
		</linearGradient>
		<path style="fill:url(#SVGID_23_);" d="M359.053,237h-22c-4.4,0-8-3.601-8-8v-12c0-4.4,3.6-8,8-8h22V237z"/>
	</g>
	<g id="numpad-bottomright-background-selected">
		<path style="fill:#999999;" d="M433.053,197c5.5,0,10-4.5,10-10v-22h-32v32H433.053z"/>
		<linearGradient id="SVGID_24_" gradientUnits="userSpaceOnUse" x1="426.0527" y1="195" x2="426.0527" y2="165">
			<stop  offset="0" style="stop-color:#A7752A"/>
			<stop  offset="1" style="stop-color:#F4A81D"/>
		</linearGradient>
		<path style="fill:url(#SVGID_24_);" d="M411.053,195h22c4.4,0,8-3.601,8-8v-22h-30V195z"/>
	</g>
	<g id="numpad-bottom-background-selected">
		<rect x="369.053" y="165" style="fill:#999999;" width="32" height="32"/>
		<linearGradient id="SVGID_25_" gradientUnits="userSpaceOnUse" x1="385.0527" y1="195" x2="385.0527" y2="165">
			<stop  offset="0" style="stop-color:#A7752A"/>
			<stop  offset="1" style="stop-color:#F4A81D"/>
		</linearGradient>
		<rect x="369.053" y="165" style="fill:url(#SVGID_25_);" width="32" height="30"/>
	</g>
	<g id="numpad-bottomleft-background-selected">
		<path style="fill:#999999;" d="M327.053,187.001c0,5.5,4.5,10,10,10h22v-32h-32V187.001z"/>
		<linearGradient id="SVGID_26_" gradientUnits="userSpaceOnUse" x1="344.0527" y1="195.001" x2="344.0527" y2="165.001">
			<stop  offset="0" style="stop-color:#A7752A"/>
			<stop  offset="1" style="stop-color:#F4A81D"/>
		</linearGradient>
		<path style="fill:url(#SVGID_26_);" d="M329.053,165.001v22c0,4.4,3.6,8,8,8h22v-30H329.053z"/>
	</g>
	<g id="numpad-right-background-selected">
		<rect x="411.053" y="123" style="fill:#999999;" width="32" height="32"/>
		<linearGradient id="SVGID_27_" gradientUnits="userSpaceOnUse" x1="426.0527" y1="155" x2="426.0527" y2="123">
			<stop  offset="0" style="stop-color:#A7752A"/>
			<stop  offset="1" style="stop-color:#F4A81D"/>
		</linearGradient>
		<rect x="411.053" y="123" style="fill:url(#SVGID_27_);" width="30" height="32"/>
	</g>
	<g id="numpad-center-background-selected">
		<rect x="369.053" y="123" style="fill:#999999;" width="32" height="32"/>
		<linearGradient id="SVGID_28_" gradientUnits="userSpaceOnUse" x1="385.0527" y1="155" x2="385.0527" y2="123">
			<stop  offset="0" style="stop-color:#A7752A"/>
			<stop  offset="1" style="stop-color:#F4A81D"/>
		</linearGradient>
		<rect x="369.053" y="123" style="fill:url(#SVGID_28_);" width="32" height="32"/>
	</g>
	<g id="numpad-left-background-selected">
		<rect x="327.053" y="123" style="fill:#999999;" width="32" height="32"/>
		<linearGradient id="SVGID_29_" gradientUnits="userSpaceOnUse" x1="344.0527" y1="155" x2="344.0527" y2="123">
			<stop  offset="0" style="stop-color:#A7752A"/>
			<stop  offset="1" style="stop-color:#F4A81D"/>
		</linearGradient>
		<rect x="329.053" y="123" style="fill:url(#SVGID_29_);" width="30" height="32"/>
	</g>
	<g id="numpad-topright-background-selected">
		<path style="fill:#999999;" d="M443.053,91c0-5.5-4.5-10-10-10h-22v32h32V91z"/>
		<linearGradient id="SVGID_30_" gradientUnits="userSpaceOnUse" x1="426.0527" y1="113" x2="426.0527" y2="83">
			<stop  offset="0" style="stop-color:#A7752A"/>
			<stop  offset="1" style="stop-color:#F4A81D"/>
		</linearGradient>
		<path style="fill:url(#SVGID_30_);" d="M441.053,113V91c0-4.4-3.6-8-8-8h-22v30H441.053z"/>
	</g>
	<g id="numpad-top-background-selected">
		<rect x="369.053" y="81" style="fill:#999999;" width="32" height="32"/>
		<linearGradient id="SVGID_31_" gradientUnits="userSpaceOnUse" x1="385.0527" y1="113" x2="385.0527" y2="83">
			<stop  offset="0" style="stop-color:#A7752A"/>
			<stop  offset="1" style="stop-color:#F4A81D"/>
		</linearGradient>
		<rect x="369.053" y="83" style="fill:url(#SVGID_31_);" width="32" height="30"/>
	</g>
	<g id="numpad-topleft-background-selected">
		<path style="fill:#999999;" d="M327.053,91c0-5.5,4.5-10,10-10h22v32h-32V91z"/>
		<linearGradient id="SVGID_32_" gradientUnits="userSpaceOnUse" x1="344.0527" y1="113" x2="344.0527" y2="83">
			<stop  offset="0" style="stop-color:#A7752A"/>
			<stop  offset="1" style="stop-color:#F4A81D"/>
		</linearGradient>
		<path style="fill:url(#SVGID_32_);" d="M329.053,113V91c0-4.399,3.6-8,8-8h22v30H329.053z"/>
	</g>
	<g id="numpad-single-background-pressed">
		<path style="fill:#999999;" d="M275.053,397c0,5.5-4.5,10-10,10h-12c-5.5,0-10-4.5-10-10v-12c0-5.5,4.5-10,10-10h12
			c5.5,0,10,4.5,10,10V397z"/>
		<linearGradient id="SVGID_33_" gradientUnits="userSpaceOnUse" x1="259.0527" y1="405" x2="259.0527" y2="377">
			<stop  offset="0" style="stop-color:#C9C9C9"/>
			<stop  offset="0.4115" style="stop-color:#C8C8C8"/>
			<stop  offset="0.5598" style="stop-color:#C1C1C1"/>
			<stop  offset="0.6654" style="stop-color:#B5B5B5"/>
			<stop  offset="0.7509" style="stop-color:#A4A4A4"/>
			<stop  offset="0.824" style="stop-color:#8E8E8E"/>
			<stop  offset="0.8888" style="stop-color:#737373"/>
			<stop  offset="0.946" style="stop-color:#535353"/>
			<stop  offset="0.9983" style="stop-color:#2F2F2F"/>
			<stop  offset="1" style="stop-color:#2E2E2E"/>
		</linearGradient>
		<path style="fill:url(#SVGID_33_);" d="M273.053,397c0,4.399-3.6,8-8,8h-12c-4.4,0-8-3.601-8-8v-12c0-4.4,3.6-8,8-8h12
			c4.4,0,8,3.6,8,8V397z"/>
	</g>
	<g id="numpad-singlecolumn-bottom-background-pressed">
		<path style="fill:#999999;" d="M275.053,333v22c0,5.5-4.5,10-10,10h-12c-5.5,0-10-4.5-10-10v-22H275.053z"/>
		<linearGradient id="SVGID_34_" gradientUnits="userSpaceOnUse" x1="259.0527" y1="363" x2="259.0527" y2="333">
			<stop  offset="0" style="stop-color:#C9C9C9"/>
			<stop  offset="0.4115" style="stop-color:#C8C8C8"/>
			<stop  offset="0.5598" style="stop-color:#C1C1C1"/>
			<stop  offset="0.6654" style="stop-color:#B5B5B5"/>
			<stop  offset="0.7509" style="stop-color:#A4A4A4"/>
			<stop  offset="0.824" style="stop-color:#8E8E8E"/>
			<stop  offset="0.8888" style="stop-color:#737373"/>
			<stop  offset="0.946" style="stop-color:#535353"/>
			<stop  offset="0.9983" style="stop-color:#2F2F2F"/>
			<stop  offset="1" style="stop-color:#2E2E2E"/>
		</linearGradient>
		<path style="fill:url(#SVGID_34_);" d="M273.053,333v22c0,4.399-3.6,8-8,8h-12c-4.399,0-8-3.601-8-8v-22H273.053z"/>
	</g>
	<g id="numpad-singlecolumn-center-background-pressed">
		<rect x="243.053" y="291" style="fill:#999999;" width="32" height="32"/>
		<linearGradient id="SVGID_35_" gradientUnits="userSpaceOnUse" x1="259.0527" y1="323" x2="259.0527" y2="290.999">
			<stop  offset="0" style="stop-color:#C9C9C9"/>
			<stop  offset="0.4115" style="stop-color:#C8C8C8"/>
			<stop  offset="0.5598" style="stop-color:#C1C1C1"/>
			<stop  offset="0.6654" style="stop-color:#B5B5B5"/>
			<stop  offset="0.7509" style="stop-color:#A4A4A4"/>
			<stop  offset="0.824" style="stop-color:#8E8E8E"/>
			<stop  offset="0.8888" style="stop-color:#737373"/>
			<stop  offset="0.946" style="stop-color:#535353"/>
			<stop  offset="0.9983" style="stop-color:#2F2F2F"/>
			<stop  offset="1" style="stop-color:#2E2E2E"/>
		</linearGradient>
		<rect x="245.053" y="290.999" style="fill:url(#SVGID_35_);" width="28" height="32.001"/>
	</g>
	<g id="numpad-singlecolumn-top-background-pressed">
		<path style="fill:#999999;" d="M243.053,281v-22c0-5.5,4.5-10,10-10h12c5.5,0,10,4.5,10,10v22H243.053z"/>
		<linearGradient id="SVGID_36_" gradientUnits="userSpaceOnUse" x1="259.0527" y1="281" x2="259.0527" y2="251">
			<stop  offset="0" style="stop-color:#C9C9C9"/>
			<stop  offset="0.4115" style="stop-color:#C8C8C8"/>
			<stop  offset="0.5598" style="stop-color:#C1C1C1"/>
			<stop  offset="0.6654" style="stop-color:#B5B5B5"/>
			<stop  offset="0.7509" style="stop-color:#A4A4A4"/>
			<stop  offset="0.824" style="stop-color:#8E8E8E"/>
			<stop  offset="0.8888" style="stop-color:#737373"/>
			<stop  offset="0.946" style="stop-color:#535353"/>
			<stop  offset="0.9983" style="stop-color:#2F2F2F"/>
			<stop  offset="1" style="stop-color:#2E2E2E"/>
		</linearGradient>
		<path style="fill:url(#SVGID_36_);" d="M245.053,281v-22c0-4.4,3.6-8,8-8h12c4.398,0,8,3.6,8,8v22H245.053z"/>
	</g>
	<g id="numpad-singlerow-right-background-pressed">
		<path style="fill:#999999;" d="M285.053,207h22c5.5,0,10,4.5,10,10v12c0,5.5-4.5,10-10,10h-22V207z"/>
		<linearGradient id="SVGID_37_" gradientUnits="userSpaceOnUse" x1="300.0527" y1="237" x2="300.0527" y2="209.0005">
			<stop  offset="0" style="stop-color:#C9C9C9"/>
			<stop  offset="0.4115" style="stop-color:#C8C8C8"/>
			<stop  offset="0.5598" style="stop-color:#C1C1C1"/>
			<stop  offset="0.6654" style="stop-color:#B5B5B5"/>
			<stop  offset="0.7509" style="stop-color:#A4A4A4"/>
			<stop  offset="0.824" style="stop-color:#8E8E8E"/>
			<stop  offset="0.8888" style="stop-color:#737373"/>
			<stop  offset="0.946" style="stop-color:#535353"/>
			<stop  offset="0.9983" style="stop-color:#2F2F2F"/>
			<stop  offset="1" style="stop-color:#2E2E2E"/>
		</linearGradient>
		<path style="fill:url(#SVGID_37_);" d="M285.053,209h22c4.4,0,8,3.6,8,8v12c0,4.399-3.6,8-8,8h-22V209z"/>
	</g>
	<g id="numpad-singlerow-center-backround-pressed">
		<rect x="243.053" y="207" style="fill:#999999;" width="32" height="32"/>
		<linearGradient id="SVGID_38_" gradientUnits="userSpaceOnUse" x1="259.0527" y1="237" x2="259.0527" y2="209.0005">
			<stop  offset="0" style="stop-color:#C9C9C9"/>
			<stop  offset="0.4115" style="stop-color:#C8C8C8"/>
			<stop  offset="0.5598" style="stop-color:#C1C1C1"/>
			<stop  offset="0.6654" style="stop-color:#B5B5B5"/>
			<stop  offset="0.7509" style="stop-color:#A4A4A4"/>
			<stop  offset="0.824" style="stop-color:#8E8E8E"/>
			<stop  offset="0.8888" style="stop-color:#737373"/>
			<stop  offset="0.946" style="stop-color:#535353"/>
			<stop  offset="0.9983" style="stop-color:#2F2F2F"/>
			<stop  offset="1" style="stop-color:#2E2E2E"/>
		</linearGradient>
		<rect x="243.053" y="209" style="fill:url(#SVGID_38_);" width="32" height="28"/>
	</g>
	<g id="numpad-singlerow-left-background-pressed">
		<path style="fill:#999999;" d="M233.053,239h-22c-5.5,0-10-4.5-10-10v-12c0-5.5,4.5-10,10-10h22V239z"/>
		<linearGradient id="SVGID_39_" gradientUnits="userSpaceOnUse" x1="218.0527" y1="237" x2="218.0527" y2="209.0005">
			<stop  offset="0" style="stop-color:#C9C9C9"/>
			<stop  offset="0.4115" style="stop-color:#C8C8C8"/>
			<stop  offset="0.5598" style="stop-color:#C1C1C1"/>
			<stop  offset="0.6654" style="stop-color:#B5B5B5"/>
			<stop  offset="0.7509" style="stop-color:#A4A4A4"/>
			<stop  offset="0.824" style="stop-color:#8E8E8E"/>
			<stop  offset="0.8888" style="stop-color:#737373"/>
			<stop  offset="0.946" style="stop-color:#535353"/>
			<stop  offset="0.9983" style="stop-color:#2F2F2F"/>
			<stop  offset="1" style="stop-color:#2E2E2E"/>
		</linearGradient>
		<path style="fill:url(#SVGID_39_);" d="M233.053,237h-22c-4.4,0-8-3.601-8-8v-12c0-4.4,3.6-8,8-8h22V237z"/>
	</g>
	<g id="numpad-bottomright-background-pressed">
		<path style="fill:#999999;" d="M307.053,197c5.5,0,10-4.5,10-10v-22h-32v32H307.053z"/>
		<linearGradient id="SVGID_40_" gradientUnits="userSpaceOnUse" x1="300.0527" y1="195" x2="300.0527" y2="165">
			<stop  offset="0" style="stop-color:#C9C9C9"/>
			<stop  offset="0.4115" style="stop-color:#C8C8C8"/>
			<stop  offset="0.5598" style="stop-color:#C1C1C1"/>
			<stop  offset="0.6654" style="stop-color:#B5B5B5"/>
			<stop  offset="0.7509" style="stop-color:#A4A4A4"/>
			<stop  offset="0.824" style="stop-color:#8E8E8E"/>
			<stop  offset="0.8888" style="stop-color:#737373"/>
			<stop  offset="0.946" style="stop-color:#535353"/>
			<stop  offset="0.9983" style="stop-color:#2F2F2F"/>
			<stop  offset="1" style="stop-color:#2E2E2E"/>
		</linearGradient>
		<path style="fill:url(#SVGID_40_);" d="M285.053,195h22c4.4,0,8-3.601,8-8v-22h-30V195z"/>
	</g>
	<g id="numpad-bottom-background-pressed">
		<rect x="243.053" y="165" style="fill:#999999;" width="32" height="32"/>
		<linearGradient id="SVGID_41_" gradientUnits="userSpaceOnUse" x1="259.0527" y1="195" x2="259.0527" y2="165">
			<stop  offset="0" style="stop-color:#C9C9C9"/>
			<stop  offset="0.4115" style="stop-color:#C8C8C8"/>
			<stop  offset="0.5598" style="stop-color:#C1C1C1"/>
			<stop  offset="0.6654" style="stop-color:#B5B5B5"/>
			<stop  offset="0.7509" style="stop-color:#A4A4A4"/>
			<stop  offset="0.824" style="stop-color:#8E8E8E"/>
			<stop  offset="0.8888" style="stop-color:#737373"/>
			<stop  offset="0.946" style="stop-color:#535353"/>
			<stop  offset="0.9983" style="stop-color:#2F2F2F"/>
			<stop  offset="1" style="stop-color:#2E2E2E"/>
		</linearGradient>
		<rect x="243.053" y="165" style="fill:url(#SVGID_41_);" width="32" height="30"/>
	</g>
	<g id="numpad-bottomleft-background-pressed">
		<path style="fill:#999999;" d="M201.053,187.001c0,5.5,4.5,10,10,10h22v-32h-32V187.001z"/>
		<linearGradient id="SVGID_42_" gradientUnits="userSpaceOnUse" x1="218.0527" y1="195.001" x2="218.0527" y2="165.001">
			<stop  offset="0" style="stop-color:#C9C9C9"/>
			<stop  offset="0.4115" style="stop-color:#C8C8C8"/>
			<stop  offset="0.5598" style="stop-color:#C1C1C1"/>
			<stop  offset="0.6654" style="stop-color:#B5B5B5"/>
			<stop  offset="0.7509" style="stop-color:#A4A4A4"/>
			<stop  offset="0.824" style="stop-color:#8E8E8E"/>
			<stop  offset="0.8888" style="stop-color:#737373"/>
			<stop  offset="0.946" style="stop-color:#535353"/>
			<stop  offset="0.9983" style="stop-color:#2F2F2F"/>
			<stop  offset="1" style="stop-color:#2E2E2E"/>
		</linearGradient>
		<path style="fill:url(#SVGID_42_);" d="M203.053,165.001v22c0,4.4,3.6,8,8,8h22v-30H203.053z"/>
	</g>
	<g id="numpad-right-background-pressed">
		<rect x="285.053" y="123" style="fill:#999999;" width="32" height="32"/>
		<linearGradient id="SVGID_43_" gradientUnits="userSpaceOnUse" x1="300.0527" y1="155" x2="300.0527" y2="123">
			<stop  offset="0" style="stop-color:#C9C9C9"/>
			<stop  offset="0.4115" style="stop-color:#C8C8C8"/>
			<stop  offset="0.5598" style="stop-color:#C1C1C1"/>
			<stop  offset="0.6654" style="stop-color:#B5B5B5"/>
			<stop  offset="0.7509" style="stop-color:#A4A4A4"/>
			<stop  offset="0.824" style="stop-color:#8E8E8E"/>
			<stop  offset="0.8888" style="stop-color:#737373"/>
			<stop  offset="0.946" style="stop-color:#535353"/>
			<stop  offset="0.9983" style="stop-color:#2F2F2F"/>
			<stop  offset="1" style="stop-color:#2E2E2E"/>
		</linearGradient>
		<rect x="285.053" y="123" style="fill:url(#SVGID_43_);" width="30" height="32"/>
	</g>
	<g id="numpad-center-background-pressed">
		<rect x="243.053" y="123" style="fill:#999999;" width="32" height="32"/>
		<linearGradient id="SVGID_44_" gradientUnits="userSpaceOnUse" x1="259.0527" y1="155" x2="259.0527" y2="123">
			<stop  offset="0" style="stop-color:#C9C9C9"/>
			<stop  offset="0.4115" style="stop-color:#C8C8C8"/>
			<stop  offset="0.5598" style="stop-color:#C1C1C1"/>
			<stop  offset="0.6654" style="stop-color:#B5B5B5"/>
			<stop  offset="0.7509" style="stop-color:#A4A4A4"/>
			<stop  offset="0.824" style="stop-color:#8E8E8E"/>
			<stop  offset="0.8888" style="stop-color:#737373"/>
			<stop  offset="0.946" style="stop-color:#535353"/>
			<stop  offset="0.9983" style="stop-color:#2F2F2F"/>
			<stop  offset="1" style="stop-color:#2E2E2E"/>
		</linearGradient>
		<rect x="243.053" y="123" style="fill:url(#SVGID_44_);" width="32" height="32"/>
	</g>
	<g id="numpad-left-background-pressed">
		<rect x="201.053" y="123" style="fill:#999999;" width="32" height="32"/>
		<linearGradient id="SVGID_45_" gradientUnits="userSpaceOnUse" x1="218.0527" y1="155" x2="218.0527" y2="123">
			<stop  offset="0" style="stop-color:#C9C9C9"/>
			<stop  offset="0.4115" style="stop-color:#C8C8C8"/>
			<stop  offset="0.5598" style="stop-color:#C1C1C1"/>
			<stop  offset="0.6654" style="stop-color:#B5B5B5"/>
			<stop  offset="0.7509" style="stop-color:#A4A4A4"/>
			<stop  offset="0.824" style="stop-color:#8E8E8E"/>
			<stop  offset="0.8888" style="stop-color:#737373"/>
			<stop  offset="0.946" style="stop-color:#535353"/>
			<stop  offset="0.9983" style="stop-color:#2F2F2F"/>
			<stop  offset="1" style="stop-color:#2E2E2E"/>
		</linearGradient>
		<rect x="203.053" y="123" style="fill:url(#SVGID_45_);" width="30" height="32"/>
	</g>
	<g id="numpad-topright-background-pressed">
		<path style="fill:#999999;" d="M317.053,91c0-5.5-4.5-10-10-10h-22v32h32V91z"/>
		<linearGradient id="SVGID_46_" gradientUnits="userSpaceOnUse" x1="300.0527" y1="113" x2="300.0527" y2="83">
			<stop  offset="0" style="stop-color:#C9C9C9"/>
			<stop  offset="0.4115" style="stop-color:#C8C8C8"/>
			<stop  offset="0.5598" style="stop-color:#C1C1C1"/>
			<stop  offset="0.6654" style="stop-color:#B5B5B5"/>
			<stop  offset="0.7509" style="stop-color:#A4A4A4"/>
			<stop  offset="0.824" style="stop-color:#8E8E8E"/>
			<stop  offset="0.8888" style="stop-color:#737373"/>
			<stop  offset="0.946" style="stop-color:#535353"/>
			<stop  offset="0.9983" style="stop-color:#2F2F2F"/>
			<stop  offset="1" style="stop-color:#2E2E2E"/>
		</linearGradient>
		<path style="fill:url(#SVGID_46_);" d="M315.053,113V91c0-4.4-3.6-8-8-8h-22v30H315.053z"/>
	</g>
	<g id="numpad-top-background-pressed">
		<rect x="243.053" y="81" style="fill:#999999;" width="32" height="32"/>
		<linearGradient id="SVGID_47_" gradientUnits="userSpaceOnUse" x1="259.0527" y1="113" x2="259.0527" y2="83">
			<stop  offset="0" style="stop-color:#C9C9C9"/>
			<stop  offset="0.4115" style="stop-color:#C8C8C8"/>
			<stop  offset="0.5598" style="stop-color:#C1C1C1"/>
			<stop  offset="0.6654" style="stop-color:#B5B5B5"/>
			<stop  offset="0.7509" style="stop-color:#A4A4A4"/>
			<stop  offset="0.824" style="stop-color:#8E8E8E"/>
			<stop  offset="0.8888" style="stop-color:#737373"/>
			<stop  offset="0.946" style="stop-color:#535353"/>
			<stop  offset="0.9983" style="stop-color:#2F2F2F"/>
			<stop  offset="1" style="stop-color:#2E2E2E"/>
		</linearGradient>
		<rect x="243.053" y="83" style="fill:url(#SVGID_47_);" width="32" height="30"/>
	</g>
	<g id="numpad-topleft-background-pressed">
		<path style="fill:#999999;" d="M201.053,91c0-5.5,4.5-10,10-10h22v32h-32V91z"/>
		<linearGradient id="SVGID_48_" gradientUnits="userSpaceOnUse" x1="218.0527" y1="113" x2="218.0527" y2="83">
			<stop  offset="0" style="stop-color:#C9C9C9"/>
			<stop  offset="0.4115" style="stop-color:#C8C8C8"/>
			<stop  offset="0.5598" style="stop-color:#C1C1C1"/>
			<stop  offset="0.6654" style="stop-color:#B5B5B5"/>
			<stop  offset="0.7509" style="stop-color:#A4A4A4"/>
			<stop  offset="0.824" style="stop-color:#8E8E8E"/>
			<stop  offset="0.8888" style="stop-color:#737373"/>
			<stop  offset="0.946" style="stop-color:#535353"/>
			<stop  offset="0.9983" style="stop-color:#2F2F2F"/>
			<stop  offset="1" style="stop-color:#2E2E2E"/>
		</linearGradient>
		<path style="fill:url(#SVGID_48_);" d="M203.053,113V91c0-4.399,3.6-8,8-8h22v30H203.053z"/>
	</g>
	<g id="numpad-single-background">
		<path style="fill:#999999;" d="M149.053,396.334c0,5.5-4.5,10-10,10h-12c-5.5,0-10-4.5-10-10v-12c0-5.5,4.5-10,10-10h12
			c5.5,0,10,4.5,10,10V396.334z"/>
		<path style="fill:#F2F2F2;" d="M147.053,396.334c0,4.399-3.6,8-8,8h-12c-4.4,0-8-3.601-8-8v-12c0-4.4,3.6-8,8-8h12
			c4.4,0,8,3.6,8,8V396.334z"/>
	</g>
	<g id="numpad-singlecolumn-bottom-background">
		<path style="fill:#999999;" d="M149.053,333v22c0,5.5-4.5,10-10,10h-12c-5.5,0-10-4.5-10-10v-22H149.053z"/>
		<path style="fill:#F2F2F2;" d="M147.053,335v20c0,4.399-3.6,8-8,8h-12c-4.399,0-8-3.601-8-8v-20H147.053z"/>
		<rect x="119.053" y="333" style="fill:#FFFFFF;" width="28" height="2"/>
	</g>
	<g id="numpad-singlecolumn-center-background">
		<rect x="117.053" y="291" style="fill:#999999;" width="32" height="32"/>
		<rect x="119.053" y="291" style="fill:#FFFFFF;" width="28" height="2"/>
		<rect x="119.053" y="293" style="fill:#F5F6F6;" width="28" height="28"/>
	</g>
	<g id="numpad-singlecolumn-top-background">
		<path style="fill:#999999;" d="M117.053,281v-22c0-5.5,4.5-10,10-10h12c5.5,0,10,4.5,10,10v22H117.053z"/>
		<path style="fill:#F2F2F2;" d="M119.053,279v-20c0-4.4,3.6-8,8-8h12c4.398,0,8,3.6,8,8v20H119.053z"/>
	</g>
	<g id="numpad-singlerow-right-background">
		<path style="fill:#999999;" d="M159.053,207h22c5.5,0,10,4.5,10,10v12c0,5.5-4.5,10-10,10h-22V207z"/>
		<path style="fill:#F2F2F2;" d="M161.053,209h20c4.4,0,8,3.6,8,8v12c0,4.399-3.6,8-8,8h-20V209z"/>
	</g>
	<g id="numpad-singlerow-center-backround">
		<rect x="117.053" y="207" style="fill:#999999;" width="32" height="32"/>
		<rect x="147.053" y="209" style="fill:#FFFFFF;" width="2" height="28"/>
		<rect x="119.053" y="209" style="fill:#F5F6F6;" width="28" height="28"/>
	</g>
	<g id="numpad-singlerow-left-background">
		<path style="fill:#999999;" d="M107.053,239h-22c-5.5,0-10-4.5-10-10v-12c0-5.5,4.5-10,10-10h22V239z"/>
		<path style="fill:#F2F2F2;" d="M107.053,237h-22c-4.4,0-8-3.601-8-8v-12c0-4.4,3.6-8,8-8h22V237z"/>
		<rect x="105.053" y="209" style="fill:#FFFFFF;" width="2" height="28"/>
	</g>
	<g id="numpad-bottomright-background">
		<path style="fill:#999999;" d="M181.053,197c5.5,0,10-4.5,10-10v-22h-32v32H181.053z"/>
		<path style="fill:#F2F2F2;" d="M161.053,195h20c4.4,0,8-3.601,8-8v-20h-28V195z"/>
		<rect x="161.053" y="165" style="fill:#FFFFFF;" width="28" height="2"/>
	</g>
	<g id="numpad-bottom-background">
		<rect x="117.053" y="165" style="fill:#999999;" width="32" height="32"/>
		<rect x="119.053" y="165" style="fill:#FFFFFF;" width="30" height="30"/>
		<rect x="119.053" y="167" style="fill:#F5F6F6;" width="28" height="28"/>
	</g>
	<g id="numpad-bottomleft-background">
		<path style="fill:#999999;" d="M75.053,187.001c0,5.5,4.5,10,10,10h22v-32h-32V187.001z"/>
		<path style="fill:#F2F2F2;" d="M77.053,167.001v20c0,4.4,3.6,8,8,8h20v-28H77.053z"/>
		<polygon style="fill:#FFFFFF;" points="77.053,165.001 77.053,167.001 105.053,167.001 105.053,195.001 107.053,195.001 
			107.053,165.001 		"/>
	</g>
	<g id="numpad-right-background">
		<rect x="159.053" y="123" style="fill:#999999;" width="32" height="32"/>
		<rect x="161.053" y="123" style="fill:#FFFFFF;" width="28" height="2"/>
		<rect x="161.053" y="125" style="fill:#F5F6F6;" width="28" height="28"/>
	</g>
	<g id="numpad-center-background">
		<rect x="117.053" y="123" style="fill:#999999;" width="32" height="32"/>
		<polygon style="fill:#FFFFFF;" points="119.053,123 119.053,125 147.053,125 147.053,153 149.053,153 149.053,123 		"/>
		<rect x="119.053" y="125" style="fill:#F5F6F6;" width="28" height="28"/>
	</g>
	<g id="numpad-left-background">
		<rect x="75.053" y="123" style="fill:#999999;" width="32" height="32"/>
		<polygon style="fill:#FFFFFF;" points="77.053,123 77.053,125 105.053,125 105.053,153 107.053,153 107.053,123 		"/>
		<rect x="77.053" y="125" style="fill:#F5F6F6;" width="28" height="28"/>
	</g>
	<g id="numpad-topright-background">
		<path style="fill:#999999;" d="M191.053,91c0-5.5-4.5-10-10-10h-22v32h32V91z"/>
		<path style="fill:#F2F2F2;" d="M189.053,111V91c0-4.4-3.6-8-8-8h-20v28H189.053z"/>
	</g>
	<g id="numpad-top-background">
		<rect x="117.053" y="81" style="fill:#999999;" width="32" height="32"/>
		<rect x="119.053" y="83" style="fill:#F5F6F6;" width="28" height="28"/>
		<rect x="147.055" y="83" style="fill:#FFFFFF;" width="1.998" height="28"/>
	</g>
	<g id="numpad-topleft-background">
		<path style="fill:#999999;" d="M75.053,91c0-5.5,4.5-10,10-10h22v32h-32V91z"/>
		<path style="fill:#F2F2F2;" d="M77.053,111V91c0-4.399,3.6-8,8-8h20v28H77.053z"/>
		<rect x="105.053" y="83" style="fill:#FFFFFF;" width="2" height="28"/>
	</g>
</g>
</svg>
