<?xml version="1.0" encoding="iso-8859-1"?>
<!-- Generator: Adobe Illustrator 14.0.0, SVG Export Plug-In . SVG Version: 6.00 Build 43363)  -->
<!DOCTYPE svg PUBLIC "-//W3C//DTD SVG 1.1//EN" "http://www.w3.org/Graphics/SVG/1.1/DTD/svg11.dtd">
<svg version="1.1" id="icon-l-content-manager-layer"
	 xmlns="http://www.w3.org/2000/svg" xmlns:xlink="http://www.w3.org/1999/xlink" x="0px" y="0px" width="80px" height="80px"
	 viewBox="0 0 80 80" style="enable-background:new 0 0 80 80;" xml:space="preserve">
<g id="icon-l-content-manager_1_">
	<rect style="fill:none;" width="80" height="80"/>
	<path id="_x31__pixel_shadow_29_" style="opacity:0.4;" d="M58.207,77.143c-0.089,0.025-0.182,0.047-0.271,0.07
		c-0.497,0.133-1,0.262-1.52,0.379c-0.521,0.117-1.06,0.227-1.604,0.332c-0.112,0.02-0.219,0.045-0.331,0.066
		c-4.176,0.773-8.979,1.133-14.479,1.133c-5.503,0-10.305-0.359-14.479-1.133c-0.114-0.021-0.219-0.047-0.33-0.066
		c-0.545-0.105-1.085-0.215-1.606-0.332c-0.52-0.117-1.021-0.246-1.519-0.379c-0.09-0.023-0.184-0.045-0.271-0.07
		C6.457,72.99,0.592,61.873,0.506,40.096c0,0.164-0.006,0.316-0.006,0.477C0.5,69.838,10.735,80,40.002,80
		C69.267,80,79.5,69.838,79.5,40.572c0-0.16-0.002-0.312-0.004-0.477C79.411,61.873,73.545,72.99,58.207,77.143"/>
	<path id="flat_colour_squircle_30_" style="fill:#9095A2;" d="M79.5,39.57c0,29.266-10.233,39.5-39.499,39.5
		C10.733,79.07,0.5,68.836,0.5,39.57c0-29.264,10.233-39.5,39.501-39.5C69.267,0.07,79.5,10.307,79.5,39.57"/>
	<linearGradient id="shine_top_layer_1_" gradientUnits="userSpaceOnUse" x1="39.9995" y1="0" x2="39.9995" y2="79.0005">
		<stop  offset="0" style="stop-color:#FFFFFF"/>
		<stop  offset="0.7362" style="stop-color:#FFFFFF;stop-opacity:0"/>
	</linearGradient>
	<path id="shine_top_layer_8_" style="opacity:0.4;fill:url(#shine_top_layer_1_);" d="M79.5,39.5C79.5,68.766,69.266,79,40,79
		C10.735,79,0.5,68.766,0.5,39.5S10.735,0,40,0C69.266,0,79.5,10.234,79.5,39.5z"/>
	<linearGradient id="top_edge_highlight_1_" gradientUnits="userSpaceOnUse" x1="47.7109" y1="-0.1699" x2="32.2889" y2="79.1698">
		<stop  offset="0" style="stop-color:#FFFFFF"/>
		<stop  offset="0.1117" style="stop-color:#EBEBEB"/>
		<stop  offset="0.3969" style="stop-color:#BDBDBD"/>
		<stop  offset="0.6503" style="stop-color:#9B9B9B"/>
		<stop  offset="0.86" style="stop-color:#878787"/>
		<stop  offset="1" style="stop-color:#808080"/>
	</linearGradient>
	<path id="top_edge_highlight_29_" style="opacity:0.61;fill:url(#top_edge_highlight_1_);" d="M40.001,79
		C10.837,79,0.5,68.664,0.5,39.498C0.5,10.336,10.837,0,40.001,0C69.164,0,79.5,10.336,79.5,39.498C79.5,68.664,69.164,79,40.001,79
		L40.001,79z M40.001,0.986c-28.795,0-38.514,9.717-38.514,38.512s9.719,38.514,38.514,38.514c28.794,0,38.512-9.719,38.512-38.514
		S68.795,0.986,40.001,0.986L40.001,0.986z"/>
	<rect x="23.175" y="31.09" style="opacity:0.1;" width="33.294" height="23.555"/>
	<path style="opacity:0.3;" d="M40.936,18.937H28.781v-1.87c0-0.936,0.936-0.936,0.936-0.936H40c0,0,0.936,0,0.936,0.936V18.937z
		 M61.5,26.414V56.33h-43V26.414h7.479v4.676h-2.804v23.02h33.65V31.09h-2.803v-4.676H61.5z M28.781,31.09V20.74l20.566,0.002
		c0.938,0,1.871,0.933,1.871,1.869v8.479H28.781z"/>
	<path style="fill:#FFFFFF;" d="M26.916,36.346v14.023h26.172V36.346H26.916z M45.608,43.824H34.392v-4.676h11.217V43.824z
		 M40.936,20.453H28.781v-1.869c0-0.936,0.936-0.936,0.936-0.936H40c0,0,0.936,0,0.936,0.936V20.453z M61.5,27.932v29.916h-43
		V27.932h7.479v4.675h-2.804v21.503h33.65V32.606h-2.803v-4.675H61.5z M28.781,32.606v-10.35l20.566,0.002
		c0.938,0,1.871,0.934,1.871,1.87v8.478H28.781z"/>
</g>
</svg>
