<?xml version="1.0" encoding="iso-8859-1"?>
<!-- Generator: Adobe Illustrator 14.0.0, SVG Export Plug-In . SVG Version: 6.00 Build 43363)  -->
<!DOCTYPE svg PUBLIC "-//W3C//DTD SVG 1.1//EN" "http://www.w3.org/Graphics/SVG/1.1/DTD/svg11.dtd">
<svg version="1.1" id="icon-s-status-offline-layer"
	 xmlns="http://www.w3.org/2000/svg" xmlns:xlink="http://www.w3.org/1999/xlink" x="0px" y="0px" width="21px" height="18px"
	 viewBox="0 0 21 18" style="enable-background:new 0 0 21 18;" xml:space="preserve">
<g id="icon-s-status-offline">
	<rect style="fill:none;" width="21" height="18"/>
	<path style="fill:#FFFFFF;" d="M11.351,17.591L14.442,18v-0.881c0,0-1.701-1.752-2.699-2.601c0.078-0.801,0.118-2.216,0.118-2.595
		l0.037-1.878l8.741,0.179V8.697c0,0-7.107-2.414-8.657-2.898l0.066-3.358C12.049,1.099,11.352,0,10.5,0
		C9.648,0,8.952,1.099,8.952,2.44l0.066,3.358C7.469,6.283,0.36,8.697,0.36,8.697v1.527l8.741-0.179l0.038,1.878
		c0,0.367,0.039,1.751,0.111,2.521c-0.98,0.831-2.786,2.674-2.786,2.674V18l3.184-0.42L11.351,17.591z"/>
</g>
</svg>
