<?xml version="1.0" encoding="iso-8859-1"?>
<!-- Generator: Adobe Illustrator 14.0.0, SVG Export Plug-In . SVG Version: 6.00 Build 43363)  -->
<!DOCTYPE svg PUBLIC "-//W3C//DTD SVG 1.1//EN" "http://www.w3.org/Graphics/SVG/1.1/DTD/svg11.dtd">
<svg version="1.1" id="icon-m-camera-tag-edit-layer"
	 xmlns="http://www.w3.org/2000/svg" xmlns:xlink="http://www.w3.org/1999/xlink" x="0px" y="0px" width="64px" height="64px"
	 viewBox="0 0 64 64" style="enable-background:new 0 0 64 64;" xml:space="preserve">
<g id="icon-m-camera-tag-edit">
	<rect style="fill:none;" width="64" height="64"/>
	<path style="fill:#333333;" d="M27.479,50.703c-1.111-1.537-1.393-3.5-0.773-5.385l3.741-11.225
		c0.455-1.34,1.371-2.822,2.343-3.801l11.088-11.107L37.445,3.523c-0.533-1.299-2.01-1.873-3.281-1.277L17.987,9.82
		c-0.56,0.264-0.981,0.717-1.243,1.248L17,11L1,51l27.661,11.01l3.482-8.934C30.292,53.066,28.55,52.184,27.479,50.703z
		 M26.492,12.568c1.091-2.705,4.138-4.082,6.807-3.078c2.67,1.004,3.947,4.008,2.856,6.711s-4.139,4.08-6.808,3.076
		C26.679,18.273,25.4,15.27,26.492,12.568z"/>
	<path style="fill:#333333;" d="M62.804,23.939l-7.306-7.322c-0.404-0.402-1.062-0.402-1.465,0l-17.43,17.461
		c-0.401,0.402-0.877,1.174-1.061,1.715l-3.734,11.205c-0.177,0.539,0.116,0.834,0.656,0.654l11.193-3.734
		c0.537-0.178,1.308-0.656,1.71-1.059l17.436-17.455C63.207,25.002,63.207,24.344,62.804,23.939z M43.285,41.398l-4.467,1.49
		l-2.247-2.248l1.489-4.473l1.98-1.982l5.18,5.275L43.285,41.398z"/>
</g>
</svg>
