<?xml version="1.0" encoding="iso-8859-1"?>
<!-- Generator: Adobe Illustrator 14.0.0, SVG Export Plug-In . SVG Version: 6.00 Build 43363)  -->
<!DOCTYPE svg PUBLIC "-//W3C//DTD SVG 1.1//EN" "http://www.w3.org/Graphics/SVG/1.1/DTD/svg11.dtd">
<svg version="1.1" id="icon-m-bluetooth-lan-layer" xmlns="http://www.w3.org/2000/svg" xmlns:xlink="http://www.w3.org/1999/xlink"
	 x="0px" y="0px" width="64px" height="64px" viewBox="0 0 64 64" style="enable-background:new 0 0 64 64;" xml:space="preserve">
<g id="icon-m-bluetooth-lan">
	<rect style="fill:none;" width="64" height="64"/>
	<path style="fill:#333333;" d="M62,58H37c-1.1,0-2-0.9-2-2v-6.667h12.599c1.722,0,3.119-1.384,3.119-3.084V3.082
		c0-1.7-1.397-3.082-3.119-3.082H16.403c-1.721,0-3.12,1.382-3.12,3.082v43.167c0,1.7,1.399,3.084,3.12,3.084H29V56c0,1.1-0.9,2-2,2
		H2c-1.1,0-2,0.9-2,2v2c0,1.1,0.9,2,2,2h60c1.1,0,2-0.9,2-2v-2C64,58.9,63.1,58,62,58z M42.97,29.073
		c0,0.438-0.36,0.796-0.798,0.796H38.19c-0.44,0-0.796-0.357-0.796-0.796v-3.979c0-0.438,0.355-0.796,0.796-0.796h3.981
		c0.438,0,0.798,0.357,0.798,0.796V29.073z M20.85,7.469c0-0.437,0.36-0.796,0.797-0.796h20.708c0.439,0,0.797,0.359,0.797,0.796
		v3.184c0,0.438-0.357,0.795-0.797,0.795H21.646c-0.437,0-0.797-0.356-0.797-0.795V7.469z M20.85,18.808v-3.184
		c0-0.435,0.36-0.796,0.797-0.796h20.708c0.439,0,0.797,0.361,0.797,0.796v3.184c0,0.438-0.357,0.795-0.797,0.795H21.646
		C21.21,19.603,20.85,19.246,20.85,18.808z"/>
</g>
</svg>
