<?xml version="1.0" encoding="iso-8859-1"?>
<!-- Generator: Adobe Illustrator 14.0.0, SVG Export Plug-In . SVG Version: 6.00 Build 43363)  -->
<!DOCTYPE svg PUBLIC "-//W3C//DTD SVG 1.1//EN" "http://www.w3.org/Graphics/SVG/1.1/DTD/svg11.dtd">
<svg version="1.1" id="icon-s-unknown-content-layer"
	 xmlns="http://www.w3.org/2000/svg" xmlns:xlink="http://www.w3.org/1999/xlink" x="0px" y="0px" width="16px" height="18px"
	 viewBox="0 0 16 18" style="enable-background:new 0 0 16 18;" xml:space="preserve">
<g id="icon-s-unknown-content">
	<rect style="fill:none;" width="16" height="18"/>
	<g>
		<path style="fill:#333333;" d="M0.087,0v18h15.825V0H0.087z M7.411,16c-1.084,0-1.967-0.883-1.967-1.968
			c0-1.092,0.882-1.98,1.967-1.98c1.094,0,1.983,0.889,1.983,1.98C9.394,15.117,8.504,16,7.411,16z M10.039,8.004L9.949,8.09
			C9.217,8.776,9.06,9.005,9.06,9.382v1.111H5.504V9.277c0-1.285,0.683-2.021,1.443-2.722c0.563-0.519,0.882-0.834,0.882-1.3
			c0-0.226,0-0.826-1.006-0.826c-0.429,0-1.061,0.103-1.735,0.281L4.46,4.877V2.398l0.387-0.09C5.616,2.13,6.75,2,7.546,2
			c2.601,0,4.033,1.113,4.033,3.136C11.579,6.534,10.761,7.315,10.039,8.004z"/>
	</g>
</g>
</svg>
