<?xml version="1.0" encoding="iso-8859-1"?>
<!-- Generator: Adobe Illustrator 14.0.0, SVG Export Plug-In . SVG Version: 6.00 Build 43363)  -->
<!DOCTYPE svg PUBLIC "-//W3C//DTD SVG 1.1//EN" "http://www.w3.org/Graphics/SVG/1.1/DTD/svg11.dtd">
<svg version="1.1" id="icon-m-common-no-simcard-layer"
	 xmlns="http://www.w3.org/2000/svg" xmlns:xlink="http://www.w3.org/1999/xlink" x="0px" y="0px" width="48px" height="48px"
	 viewBox="0 0 48 48" style="enable-background:new 0 0 48 48;" xml:space="preserve">
<g id="icon-m-common-no-simcard">
	<rect style="fill:none;" width="48" height="48"/>
	
		<rect x="-3.648" y="22.096" transform="matrix(-0.6007 -0.7995 0.7995 -0.6007 19.2295 57.6077)" style="fill:#333333;" width="55.297" height="3.811"/>
	<polygon style="fill:#333333;" points="25.74,15.887 38.773,15.887 38.773,32.114 37.934,32.114 	"/>
	<polygon style="fill:#333333;" points="46.786,40.059 43.902,40.059 41.691,37.115 44.309,37.115 44.309,10.886 21.983,10.886 
		19.771,7.941 47.25,7.941 47.25,40.059 47.005,40.059 	"/>
	<polygon style="fill:#333333;" points="8.837,14.252 3.693,18.588 3.693,37.115 26.018,37.115 28.229,40.059 0.751,40.059 
		0.75,17.221 7.068,11.896 	"/>
</g>
</svg>
