<?xml version="1.0" encoding="iso-8859-1"?>
<!-- Generator: Adobe Illustrator 14.0.0, SVG Export Plug-In . SVG Version: 6.00 Build 43363)  -->
<!DOCTYPE svg PUBLIC "-//W3C//DTD SVG 1.1//EN" "http://www.w3.org/Graphics/SVG/1.1/DTD/svg11.dtd">
<svg version="1.1" id="icon-l-gallery-layer" xmlns="http://www.w3.org/2000/svg" xmlns:xlink="http://www.w3.org/1999/xlink"
	 x="0px" y="0px" width="80px" height="80px" viewBox="0 0 80 80" style="enable-background:new 0 0 80 80;" xml:space="preserve">
<g id="icon-l-gallery_1_">
	<rect style="fill:none;" width="80" height="80"/>
	<path id="_x31__pixel_shadow_32_" style="opacity:0.4;" d="M58.207,77.145c-0.089,0.025-0.182,0.045-0.271,0.07
		c-0.497,0.131-1,0.258-1.52,0.377c-0.521,0.119-1.06,0.227-1.604,0.332c-0.113,0.021-0.219,0.047-0.331,0.068
		c-4.176,0.771-8.979,1.131-14.479,1.131c-5.503,0-10.305-0.359-14.479-1.131c-0.114-0.021-0.219-0.047-0.33-0.068
		c-0.545-0.105-1.085-0.213-1.606-0.332c-0.52-0.119-1.021-0.246-1.519-0.377c-0.09-0.025-0.184-0.045-0.271-0.07
		C6.457,72.99,0.592,61.875,0.506,40.098c0,0.162-0.006,0.314-0.006,0.477C0.5,69.838,10.735,80,40.002,80
		C69.267,80,79.5,69.838,79.5,40.574c0-0.162-0.002-0.314-0.004-0.477C79.411,61.875,73.545,72.99,58.207,77.145"/>
	<path id="flat_colour_squircle_33_" style="fill:#328BB7;" d="M79.5,39.57c0,29.268-10.233,39.502-39.499,39.502
		C10.733,79.072,0.5,68.838,0.5,39.57c0-29.264,10.233-39.498,39.501-39.498C69.267,0.072,79.5,10.307,79.5,39.57"/>
	<linearGradient id="shine_top_layer_1_" gradientUnits="userSpaceOnUse" x1="39.9995" y1="0" x2="39.9995" y2="79.0005">
		<stop  offset="0" style="stop-color:#FFFFFF"/>
		<stop  offset="0.7362" style="stop-color:#FFFFFF;stop-opacity:0"/>
	</linearGradient>
	<path id="shine_top_layer_31_" style="opacity:0.15;fill:url(#shine_top_layer_1_);" d="M79.5,39.5C79.5,68.764,69.265,79,40,79
		C10.736,79,0.5,68.764,0.5,39.5C0.5,10.234,10.736,0,40,0C69.265,0,79.5,10.234,79.5,39.5z"/>
	<linearGradient id="top_edge_highlight_1_" gradientUnits="userSpaceOnUse" x1="47.7109" y1="-0.1699" x2="32.2889" y2="79.1698">
		<stop  offset="0" style="stop-color:#FFFFFF"/>
		<stop  offset="0.1117" style="stop-color:#EBEBEB"/>
		<stop  offset="0.3969" style="stop-color:#BDBDBD"/>
		<stop  offset="0.6503" style="stop-color:#9B9B9B"/>
		<stop  offset="0.86" style="stop-color:#878787"/>
		<stop  offset="1" style="stop-color:#808080"/>
	</linearGradient>
	<path id="top_edge_highlight_7_" style="opacity:0.25;fill:url(#top_edge_highlight_1_);" d="M40.001,79
		C10.837,79,0.5,68.664,0.5,39.5C0.5,10.337,10.837,0,40.001,0C69.164,0,79.5,10.337,79.5,39.5C79.5,68.664,69.164,79,40.001,79
		L40.001,79z M40.001,0.986c-28.795,0-38.514,9.719-38.514,38.514s9.719,38.512,38.514,38.512c28.794,0,38.512-9.717,38.512-38.512
		S68.795,0.986,40.001,0.986L40.001,0.986z"/>
	<path style="opacity:0.15;" d="M58.261,24.994H21.739c-1.505,0-2.739,1.219-2.739,2.707v25.26c0,1.49,1.234,2.707,2.739,2.707
		h36.521c1.505,0,2.739-1.217,2.739-2.707v-25.26C61,26.213,59.766,24.994,58.261,24.994"/>
	<path style="opacity:0.3;" d="M21.738,27.438v-1.254h36.522v1.254H61v-1.254c0-1.488-1.234-2.706-2.739-2.706H21.739
		c-1.505,0-2.739,1.218-2.739,2.706v1.254H21.738z"/>
	<path style="fill:#FFFFFF;" d="M58.261,24.994H21.739c-1.505,0-2.739,1.219-2.739,2.707v25.26c0,1.49,1.234,2.707,2.739,2.707
		h36.521c1.505,0,2.739-1.217,2.739-2.707v-25.26C61,26.213,59.766,24.994,58.261,24.994 M58.261,52.961H21.738v-25.26h36.522
		V52.961z"/>
	<path style="fill:#FFFFFF;" d="M49.524,35.488c0,0-0.385-0.355-0.875-0.355s-0.878,0.355-0.878,0.355l-9.134,7.799h-0.001
		l-5.432-4.635c0,0-0.385-0.356-0.877-0.356c-0.49,0-0.875,0.356-0.875,0.356l-7.889,6.732v5.771h32.869v-9.77L49.524,35.488z"/>
</g>
</svg>
