<?xml version="1.0" encoding="iso-8859-1"?>
<!-- Generator: Adobe Illustrator 14.0.0, SVG Export Plug-In . SVG Version: 6.00 Build 43363)  -->
<!DOCTYPE svg PUBLIC "-//W3C//DTD SVG 1.1//EN" "http://www.w3.org/Graphics/SVG/1.1/DTD/svg11.dtd">
<svg version="1.1" id="icon-l-me-layer" xmlns="http://www.w3.org/2000/svg" xmlns:xlink="http://www.w3.org/1999/xlink" x="0px"
	 y="0px" width="43px" height="43px" viewBox="0 0 43 43" style="enable-background:new 0 0 43 43;" xml:space="preserve">
<g id="icon-l-me">
	<path style="fill:#F78F22;" d="M40.952,8.571H29.524V1.904C29.524,0.953,28.571,0,27.619,0H1.905C0.952,0,0,0.953,0,1.904v19.049
		c0,0.951,0.952,1.904,1.905,1.904h7.619v10.476c0,0.953,0.953,1.905,1.905,1.905h14.285v6.667c0,0,0,0.952,0.947,0.952
		c0.958,0,5.72-7.619,5.72-7.619h8.571c0.953,0,1.905-0.952,1.905-1.905V10.477C42.857,9.523,41.905,8.571,40.952,8.571z
		 M20.435,5.715c2.916,0,5.287,2.309,5.287,5.146c0,2.829-2.371,5.131-5.287,5.131c-2.921,0-5.297-2.302-5.297-5.131
		C15.138,8.023,17.514,5.715,20.435,5.715z M27.619,30.476H13.108V23.79c0-3.45,3.253-6.259,7.252-6.259
		c4,0,7.256,2.809,7.258,6.259V30.476z"/>
</g>
</svg>
