<?xml version="1.0" encoding="iso-8859-1"?>
<!-- Generator: Adobe Illustrator 14.0.0, SVG Export Plug-In . SVG Version: 6.00 Build 43363)  -->
<!DOCTYPE svg PUBLIC "-//W3C//DTD SVG 1.1//EN" "http://www.w3.org/Graphics/SVG/1.1/DTD/svg11.dtd">
<svg version="1.1" id="icon-l-documents-layer" xmlns="http://www.w3.org/2000/svg" xmlns:xlink="http://www.w3.org/1999/xlink"
	 x="0px" y="0px" width="80px" height="80px" viewBox="0 0 80 80" style="enable-background:new 0 0 80 80;" xml:space="preserve">
<g id="icon-l-documents">
	<rect style="fill:none;" width="80" height="80"/>
	<path id="_x31__pixel_shadow_33_" style="opacity:0.4;" d="M58.207,77.145c-0.089,0.025-0.182,0.045-0.271,0.07
		c-0.497,0.131-1,0.26-1.52,0.377c-0.521,0.119-1.06,0.227-1.604,0.332c-0.112,0.021-0.219,0.047-0.331,0.068
		c-4.176,0.771-8.979,1.131-14.479,1.131c-5.503,0-10.305-0.359-14.479-1.131c-0.114-0.021-0.219-0.047-0.33-0.068
		c-0.545-0.105-1.085-0.213-1.606-0.332c-0.52-0.117-1.021-0.246-1.519-0.377c-0.09-0.025-0.184-0.045-0.271-0.07
		C6.457,72.99,0.592,61.875,0.506,40.098c0,0.162-0.006,0.312-0.006,0.477C0.5,69.84,10.735,80,40.002,80
		C69.267,80,79.5,69.84,79.5,40.574c0-0.164-0.002-0.314-0.004-0.477C79.411,61.875,73.545,72.99,58.207,77.145"/>
	<path id="flat_colour_squircle_34_" style="fill:#9095A2;" d="M79.5,39.571c0,29.267-10.233,39.501-39.499,39.501
		C10.733,79.072,0.5,68.838,0.5,39.571c0-29.263,10.233-39.499,39.501-39.499C69.267,0.072,79.5,10.309,79.5,39.571"/>
	<linearGradient id="shine_top_layer_1_" gradientUnits="userSpaceOnUse" x1="39.9995" y1="0" x2="39.9995" y2="79.0005">
		<stop  offset="0" style="stop-color:#FFFFFF"/>
		<stop  offset="0.7362" style="stop-color:#FFFFFF;stop-opacity:0"/>
	</linearGradient>
	<path id="shine_top_layer_32_" style="opacity:0.4;fill:url(#shine_top_layer_1_);" d="M79.5,39.5C79.5,68.766,69.266,79,40,79
		C10.735,79,0.5,68.766,0.5,39.5C0.5,10.236,10.735,0,40,0C69.266,0,79.5,10.236,79.5,39.5z"/>
	<linearGradient id="top_edge_highlight_1_" gradientUnits="userSpaceOnUse" x1="47.7109" y1="-0.1699" x2="32.2889" y2="79.1698">
		<stop  offset="0" style="stop-color:#FFFFFF"/>
		<stop  offset="0.1117" style="stop-color:#EBEBEB"/>
		<stop  offset="0.3969" style="stop-color:#BDBDBD"/>
		<stop  offset="0.6503" style="stop-color:#9B9B9B"/>
		<stop  offset="0.86" style="stop-color:#878787"/>
		<stop  offset="1" style="stop-color:#808080"/>
	</linearGradient>
	<path id="top_edge_highlight_33_" style="opacity:0.61;fill:url(#top_edge_highlight_1_);" d="M40.001,79
		C10.837,79,0.5,68.664,0.5,39.499C0.5,10.336,10.837,0,40.001,0C69.164,0,79.5,10.336,79.5,39.499C79.5,68.664,69.164,79,40.001,79
		L40.001,79z M40.001,0.987c-28.795,0-38.514,9.718-38.514,38.512c0,28.796,9.719,38.513,38.514,38.513
		c28.794,0,38.512-9.717,38.512-38.513C78.513,10.705,68.795,0.987,40.001,0.987L40.001,0.987z"/>
	<path style="opacity:0.3;" d="M38.6,29.117l-4.594-5.283c-0.965-1.293-2.727-1.322-2.727-1.322h-7.734
		c-2.146,0-2.072,1.515-2.032,1.928c0.004,0.043,0.004,2.395,0.002,4.678h-0.006v26.424H58.5V29.117H38.6z"/>
	<path style="fill:#FFFFFF;" d="M38.6,30.211l-4.594-5.283c-0.965-1.294-2.727-1.323-2.727-1.323h-7.734
		c-2.146,0-2.072,1.516-2.032,1.929c0.004,0.041,0.004,2.393,0.002,4.678h-0.006v26.422H58.5V30.211H38.6z"/>
</g>
</svg>
