<?xml version="1.0" encoding="iso-8859-1"?>
<!-- Generator: Adobe Illustrator 14.0.0, SVG Export Plug-In . SVG Version: 6.00 Build 43363)  -->
<!DOCTYPE svg PUBLIC "-//W3C//DTD SVG 1.1//EN" "http://www.w3.org/Graphics/SVG/1.1/DTD/svg11.dtd">
<svg version="1.1" id="icon-m-image-edit-auto-fix-layer"
	 xmlns="http://www.w3.org/2000/svg" xmlns:xlink="http://www.w3.org/1999/xlink" x="0px" y="0px" width="48px" height="48px"
	 viewBox="0 0 48 48" style="enable-background:new 0 0 48 48;" xml:space="preserve">
<g id="icon-m-image-edit-auto-fix">
	<rect style="fill:none;" width="48" height="48"/>
	<path style="fill:#333333;" d="M20.743,21.064c9.233,3.831,12.931-7.48,12.612-10.406c-0.263-2.417-0.58-3.628-1.372-2.639
		l-5.883,7.301c-3.698-0.565-6.229-3.029-7.604-6.062l5.854-7.269c1.473-1.827-4.134-1.135-7.603,1.403
		c-7.688,5.632-3.594,11.43-2.789,12.298L1.236,31.464c-0.597,0.745-0.479,1.833,0.268,2.432l4.056,3.241
		c0.747,0.596,1.84,0.477,2.443-0.269L20.743,21.064z"/>
	<path style="fill:#333333;" d="M42.066,27.75h-4.695L31.326,48h3.411l1.343-4.645h6.773L44.198,48H48L42.066,27.75z M36.732,40.79
		l2.764-10.007l2.741,10.053L36.732,40.79z"/>
</g>
</svg>
