<?xml version="1.0" encoding="iso-8859-1"?>
<!-- Generator: Adobe Illustrator 14.0.0, SVG Export Plug-In . SVG Version: 6.00 Build 43363)  -->
<!DOCTYPE svg PUBLIC "-//W3C//DTD SVG 1.1//EN" "http://www.w3.org/Graphics/SVG/1.1/DTD/svg11.dtd">
<svg version="1.1" id="icon-l-gallery-layer" xmlns="http://www.w3.org/2000/svg" xmlns:xlink="http://www.w3.org/1999/xlink"
	 x="0px" y="0px" width="48px" height="48px" viewBox="0 0 48 48" style="enable-background:new 0 0 48 48;" xml:space="preserve">
<g id="icon-l-gallery">
	<rect y="-2" style="fill:none;" width="48" height="48"/>
	<g>
		<path style="opacity:0.2;fill:#010101;" d="M45.498,12.539c0-0.688-0.615-1.266-1.268-1.266l-6.232,0.008V5.564
			c0-0.697-0.566-1.266-1.264-1.266H3.767C3.068,4.299,2.5,4.867,2.5,5.564v26.94c0,0.698,0.568,1.267,1.266,1.267h6.065v7.201
			c0,0.576,0.434,1.267,1.268,1.267l33.139-0.05c0.697-0.003,1.262-0.567,1.262-1.266L45.498,12.539z"/>
		<polygon style="opacity:0.5;fill:#010101;" points="44.234,40.924 44.232,37.795 3.767,29.555 3.767,32.506 11.097,32.506 
			11.097,40.973 		"/>
		<linearGradient id="SVGID_1_" gradientUnits="userSpaceOnUse" x1="20.2495" y1="3.9434" x2="20.2495" y2="42.0878">
			<stop  offset="0" style="stop-color:#E3E3E3"/>
			<stop  offset="1" style="stop-color:#414141"/>
		</linearGradient>
		<rect x="3.767" y="4.299" style="fill:url(#SVGID_1_);" width="32.966" height="26.943"/>
		<rect x="9.116" y="26.103" style="fill:#1A1A1A;" width="2.413" height="3.084"/>
		<rect x="3.767" y="26.103" style="fill:#1A1A1A;" width="1.994" height="3.084"/>
		<rect x="3.767" y="10.751" style="opacity:0.4;" width="8.433" height="14.038"/>
		<rect x="34.87" y="10.751" style="opacity:0.4;" width="1.862" height="2.621"/>
		<rect x="15.554" y="10.751" style="opacity:0.4;" width="15.961" height="2.78"/>
		<rect x="9.116" y="6.27" style="fill:#1A1A1A;" width="3.083" height="3.082"/>
		<rect x="15.554" y="6.27" style="fill:#1A1A1A;" width="3.085" height="3.082"/>
		<rect x="21.996" y="6.27" style="fill:#1A1A1A;" width="3.081" height="3.082"/>
		<rect x="28.436" y="6.27" style="fill:#1A1A1A;" width="3.08" height="3.082"/>
		<rect x="34.87" y="6.27" style="fill:#1A1A1A;" width="1.862" height="3.082"/>
		<rect x="3.767" y="6.27" style="fill:#1A1A1A;" width="1.994" height="3.082"/>
		<path style="opacity:0.3;fill:#010101;" d="M11.095,13.223c-0.349,0-0.631,0.282-0.631,0.631l0.001,17.389h1.585L11.095,13.223z"
			/>
		
			<linearGradient id="SVGID_2_" gradientUnits="userSpaceOnUse" x1="-126.208" y1="170.3896" x2="-126.208" y2="204.3184" gradientTransform="matrix(0.7993 -0.0011 0 0.7994 128.543 -123.7867)">
			<stop  offset="0" style="stop-color:#F7F8F9"/>
			<stop  offset="0.3051" style="stop-color:#EEECED"/>
			<stop  offset="0.801" style="stop-color:#D8D2D2"/>
			<stop  offset="1" style="stop-color:#CFC6C6"/>
		</linearGradient>
		<polygon style="fill:url(#SVGID_2_);" points="44.234,39.658 11.097,39.708 11.096,12.589 44.232,12.539 		"/>
		
			<linearGradient id="SVGID_3_" gradientUnits="userSpaceOnUse" x1="-11.5952" y1="177.834" x2="-11.5952" y2="148.2557" gradientTransform="matrix(0.7993 -9.000000e-04 -3.000000e-04 0.7994 36.9846 -115.2897)">
			<stop  offset="0" style="stop-color:#DEEDF8"/>
			<stop  offset="0.2511" style="stop-color:#C1E4F7"/>
			<stop  offset="0.7909" style="stop-color:#6DCDF3"/>
			<stop  offset="1" style="stop-color:#3AC5F2"/>
		</linearGradient>
		<path style="fill:url(#SVGID_3_);" d="M42.022,26.888c-15.476,22.368-28.715,0.043-28.715,0.043V14.799l28.715-0.041
			C42.022,14.758,42.022,18.036,42.022,26.888z"/>
		
			<linearGradient id="SVGID_4_" gradientUnits="userSpaceOnUse" x1="-9.6284" y1="162.2715" x2="-9.6284" y2="196.1525" gradientTransform="matrix(0.7993 -9.000000e-04 -3.000000e-04 0.7994 36.9846 -115.2897)">
			<stop  offset="0" style="stop-color:#7EC242"/>
			<stop  offset="1" style="stop-color:#1D6433"/>
		</linearGradient>
		<polygon style="fill:url(#SVGID_4_);" points="35.577,18.137 16.438,37.489 42.022,37.454 42.023,24.574 		"/>
		
			<linearGradient id="SVGID_5_" gradientUnits="userSpaceOnUse" x1="-15.73" y1="175.7559" x2="-15.73" y2="198.8967" gradientTransform="matrix(0.7993 -9.000000e-04 -3.000000e-04 0.7994 36.9846 -115.2897)">
			<stop  offset="0" style="stop-color:#7EC242"/>
			<stop  offset="1" style="stop-color:#1D6433"/>
		</linearGradient>
		<polygon style="fill:url(#SVGID_5_);" points="18.841,20.67 35.4,37.479 13.307,37.496 13.314,26.201 		"/>
	</g>
</g>
</svg>
