<?xml version="1.0" encoding="iso-8859-1"?>
<!-- Generator: Adobe Illustrator 14.0.0, SVG Export Plug-In . SVG Version: 6.00 Build 43363)  -->
<!DOCTYPE svg PUBLIC "-//W3C//DTD SVG 1.1//EN" "http://www.w3.org/Graphics/SVG/1.1/DTD/svg11.dtd">
<svg version="1.1" id="icon-l-office-tools-layer" xmlns="http://www.w3.org/2000/svg" xmlns:xlink="http://www.w3.org/1999/xlink"
	 x="0px" y="0px" width="80px" height="80px" viewBox="0 0 80 80" style="enable-background:new 0 0 80 80;" xml:space="preserve">
<g id="icon-l-office-tools_1_">
	<rect style="fill:none;" width="80" height="80"/>
	<path id="_x31__pixel_shadow_17_" style="opacity:0.4;" d="M58.207,77.143c-0.089,0.026-0.182,0.047-0.271,0.07
		c-0.497,0.133-1,0.261-1.52,0.379c-0.521,0.117-1.06,0.227-1.604,0.332c-0.112,0.02-0.219,0.046-0.331,0.066
		c-4.176,0.773-8.979,1.133-14.479,1.133c-5.503,0-10.305-0.359-14.479-1.133c-0.114-0.021-0.219-0.047-0.33-0.066
		c-0.545-0.105-1.085-0.215-1.606-0.332c-0.52-0.118-1.021-0.246-1.519-0.379c-0.09-0.023-0.184-0.044-0.271-0.07
		C6.457,72.99,0.592,61.873,0.506,40.097c0,0.163-0.006,0.314-0.006,0.478C0.5,69.838,10.735,80,40.002,80
		C69.267,80,79.5,69.838,79.5,40.574c0-0.163-0.002-0.314-0.004-0.478C79.411,61.873,73.545,72.99,58.207,77.143"/>
	<path id="flat_colour_squircle_18_" style="fill:#9095A2;" d="M79.5,39.57c0,29.267-10.233,39.501-39.499,39.501
		C10.733,79.071,0.5,68.837,0.5,39.57c0-29.264,10.233-39.499,39.501-39.499C69.267,0.071,79.5,10.307,79.5,39.57"/>
	<linearGradient id="shine_top_layer_1_" gradientUnits="userSpaceOnUse" x1="39.9995" y1="0" x2="39.9995" y2="79.0005">
		<stop  offset="0" style="stop-color:#FFFFFF"/>
		<stop  offset="0.7362" style="stop-color:#FFFFFF;stop-opacity:0"/>
	</linearGradient>
	<path id="shine_top_layer_4_" style="opacity:0.4;fill:url(#shine_top_layer_1_);" d="M79.5,39.5C79.5,68.765,69.266,79,40,79
		C10.735,79,0.5,68.765,0.5,39.5S10.735,0,40,0C69.266,0,79.5,10.235,79.5,39.5z"/>
	<linearGradient id="top_edge_highlight_1_" gradientUnits="userSpaceOnUse" x1="47.7109" y1="-0.1699" x2="32.2889" y2="79.1698">
		<stop  offset="0" style="stop-color:#FFFFFF"/>
		<stop  offset="0.1117" style="stop-color:#EBEBEB"/>
		<stop  offset="0.3969" style="stop-color:#BDBDBD"/>
		<stop  offset="0.6503" style="stop-color:#9B9B9B"/>
		<stop  offset="0.86" style="stop-color:#878787"/>
		<stop  offset="1" style="stop-color:#808080"/>
	</linearGradient>
	<path id="top_edge_highlight_17_" style="opacity:0.61;fill:url(#top_edge_highlight_1_);" d="M40.001,79
		C10.837,79,0.5,68.662,0.5,39.498C0.5,10.336,10.837,0,40.001,0C69.164,0,79.5,10.336,79.5,39.498C79.5,68.662,69.164,79,40.001,79
		L40.001,79z M40.001,0.986c-28.795,0-38.514,9.717-38.514,38.512c0,28.797,9.719,38.514,38.514,38.514
		c28.794,0,38.512-9.717,38.512-38.514C78.513,10.703,68.795,0.986,40.001,0.986L40.001,0.986z"/>
	<path style="opacity:0.1;" d="M19.5,41.133v6.857c0,0.707,0.577,1.283,1.281,1.283h38.438c0.704,0,1.281-0.576,1.281-1.283v-6.857
		H19.5z"/>
	<path style="fill:#FFFFFF;" d="M19.5,53.361c0,0.705,0.577,1.281,1.281,1.281h38.438c0.704,0,1.281-0.576,1.281-1.281v-8.158h-41
		V53.361z"/>
	<path style="opacity:0.3;" d="M60.5,41.253v-1.3v-7.516v-0.211h-0.043c-0.104-0.603-0.608-1.07-1.238-1.07H50.33v-5.375
		c0-0.706-0.577-1.282-1.281-1.282H30.951c-0.705,0-1.281,0.576-1.281,1.282v5.375h-8.889c-0.63,0-1.134,0.468-1.238,1.07H19.5
		v0.211v7.516v1.3H60.5z M33.514,27.322h12.972v3.844H33.514V27.322z"/>
	<path style="fill:#FFFFFF;" d="M59.219,32.456H50.33v-5.375c0-0.705-0.577-1.282-1.281-1.282H30.951
		c-0.705,0-1.281,0.577-1.281,1.282v5.375h-8.889c-0.704,0-1.281,0.575-1.281,1.28v7.517h41v-7.517
		C60.5,33.031,59.923,32.456,59.219,32.456z M46.485,32.465H33.514v-3.842h12.972V32.465z"/>
</g>
</svg>
