<?xml version="1.0" encoding="iso-8859-1"?>
<!-- Generator: Adobe Illustrator 14.0.0, SVG Export Plug-In . SVG Version: 6.00 Build 43363)  -->
<!DOCTYPE svg PUBLIC "-//W3C//DTD SVG 1.1//EN" "http://www.w3.org/Graphics/SVG/1.1/DTD/svg11.dtd">
<svg version="1.1" id="icon-l-calculator-layer" xmlns="http://www.w3.org/2000/svg" xmlns:xlink="http://www.w3.org/1999/xlink"
	 x="0px" y="0px" width="80px" height="80px" viewBox="0 0 80 80" style="enable-background:new 0 0 80 80;" xml:space="preserve">
<g id="icon-l-calculator_1_">
	<rect style="fill:none;" width="80" height="80"/>
	<path id="_x31__pixel_shadow_25_" style="opacity:0.4;" d="M58.207,77.144c-0.089,0.025-0.182,0.046-0.271,0.068
		c-0.497,0.134-1,0.262-1.52,0.38c-0.521,0.117-1.06,0.227-1.604,0.332c-0.112,0.02-0.219,0.046-0.331,0.067
		c-4.176,0.772-8.979,1.132-14.479,1.132c-5.503,0-10.305-0.359-14.479-1.132c-0.114-0.021-0.219-0.048-0.33-0.067
		c-0.545-0.105-1.085-0.215-1.606-0.332c-0.52-0.118-1.021-0.246-1.519-0.38c-0.09-0.022-0.184-0.043-0.271-0.068
		C6.457,72.99,0.592,61.874,0.506,40.097c0,0.163-0.006,0.314-0.006,0.477C0.5,69.837,10.735,80,40.002,80
		C69.267,80,79.5,69.837,79.5,40.573c0-0.162-0.002-0.313-0.004-0.477C79.411,61.874,73.545,72.99,58.207,77.144"/>
	<path id="flat_colour_squircle_26_" style="fill:#C51E14;" d="M79.5,39.57c0,29.267-10.233,39.501-39.499,39.501
		C10.733,79.071,0.5,68.837,0.5,39.57c0-29.264,10.233-39.499,39.501-39.499C69.267,0.071,79.5,10.307,79.5,39.57"/>
	<linearGradient id="shine_top_layer_1_" gradientUnits="userSpaceOnUse" x1="39.9995" y1="0" x2="39.9995" y2="79.0005">
		<stop  offset="0" style="stop-color:#FFFFFF"/>
		<stop  offset="0.7362" style="stop-color:#FFFFFF;stop-opacity:0"/>
	</linearGradient>
	<path id="shine_top_layer_23_" style="opacity:0.15;fill:url(#shine_top_layer_1_);" d="M79.5,39.5C79.5,68.766,69.267,79,40,79
		C10.735,79,0.5,68.766,0.5,39.5C0.5,10.235,10.735,0,40,0C69.267,0,79.5,10.235,79.5,39.5z"/>
	<linearGradient id="top_edge_highlight_1_" gradientUnits="userSpaceOnUse" x1="47.7109" y1="-0.1699" x2="32.2889" y2="79.1698">
		<stop  offset="0" style="stop-color:#FFFFFF"/>
		<stop  offset="0.1117" style="stop-color:#EBEBEB"/>
		<stop  offset="0.3969" style="stop-color:#BDBDBD"/>
		<stop  offset="0.6503" style="stop-color:#9B9B9B"/>
		<stop  offset="0.86" style="stop-color:#878787"/>
		<stop  offset="1" style="stop-color:#808080"/>
	</linearGradient>
	<path id="top_edge_highlight_25_" style="opacity:0.25;fill:url(#top_edge_highlight_1_);" d="M40.001,79
		C10.837,79,0.5,68.663,0.5,39.499C0.5,10.336,10.837,0,40.001,0C69.164,0,79.5,10.336,79.5,39.499C79.5,68.663,69.164,79,40.001,79
		L40.001,79z M40.001,0.986c-28.795,0-38.514,9.718-38.514,38.513s9.719,38.513,38.514,38.513c28.794,0,38.512-9.718,38.512-38.513
		S68.795,0.986,40.001,0.986L40.001,0.986z"/>
	<g>
		<path style="opacity:0.3;" d="M58.214,21.68v-1.842c0-0.697-0.589-1.267-1.301-1.267H23.086c-0.713,0-1.3,0.569-1.3,1.267v1.842
			H58.214z"/>
		<path style="opacity:0.12;" d="M21.786,22.514V57.87c0,0.696,0.587,1.266,1.3,1.266h33.827c0.712,0,1.301-0.569,1.301-1.266
			V22.514H21.786z"/>
	</g>
	<path style="fill:#FFFFFF;" d="M56.913,20.006H23.086c-0.713,0-1.3,0.57-1.3,1.268v38.031c0,0.698,0.587,1.267,1.3,1.267h33.827
		c0.712,0,1.301-0.568,1.301-1.267V21.273C58.214,20.576,57.625,20.006,56.913,20.006z M32.844,56.77H26.34v-6.339h6.504V56.77z
		 M32.844,47.896H26.34v-6.34h6.504V47.896z M43.252,56.77h-6.506v-6.339h6.506V56.77z M43.252,47.896h-6.506v-6.34h6.506V47.896z
		 M53.66,56.77h-6.503v-6.339h6.503V56.77z M53.66,47.896h-6.503v-6.34h6.503V47.896z M53.66,38.389H26.34V23.811h27.32V38.389z
		 M44.035,35.678H38.05v-1.116h2.002v-6.619l-2.002,0.419v-1.089l2.966-0.9h1.134v8.189h1.886V35.678z M51.345,35.678h-6.012v-0.812
		c0-1.94,1.21-3.055,2.421-4.045c0.82-0.671,1.368-1.154,1.368-1.939c0-0.85-0.429-1.316-1.458-1.316
		c-0.73,0-1.383,0.199-2.004,0.418v-1.256c0.832-0.243,1.679-0.382,2.539-0.382c1.896,0,3.082,0.749,3.082,2.46
		c0,1.37-0.771,2.105-1.872,3.019c-1.175,0.964-1.942,1.633-2.03,2.638h3.966V35.678z"/>
</g>
</svg>
