<?xml version="1.0" encoding="iso-8859-1"?>
<!-- Generator: Adobe Illustrator 14.0.0, SVG Export Plug-In . SVG Version: 6.00 Build 43363)  -->
<!DOCTYPE svg PUBLIC "-//W3C//DTD SVG 1.1//EN" "http://www.w3.org/Graphics/SVG/1.1/DTD/svg11.dtd">
<svg version="1.1" id="icon-l-maps-layer" xmlns="http://www.w3.org/2000/svg" xmlns:xlink="http://www.w3.org/1999/xlink" x="0px"
	 y="0px" width="48px" height="48px" viewBox="0 0 48 48" style="enable-background:new 0 0 48 48;" xml:space="preserve">
<g id="icon-l-maps">
	<g id="icon-l-maps_2_">
		<rect style="fill:none;" width="48" height="48"/>
	</g>
	<g>
		<path style="opacity:0.2;fill:#010101;" d="M24,0.498C11.024,0.502,0.5,11.023,0.5,24c0,12.979,10.524,23.502,23.5,23.502
			c12.977,0,23.5-10.522,23.5-23.502C47.5,11.023,36.978,0.502,24,0.498z"/>
		<path style="opacity:0.5;fill:#010101;" d="M46.184,24c0,12.254-9.936,22.186-22.181,22.186C11.752,46.186,1.817,36.254,1.817,24
			c0-12.248,9.935-22.182,22.186-22.182C36.248,1.818,46.184,11.752,46.184,24z"/>
		<linearGradient id="SVGID_1_" gradientUnits="userSpaceOnUse" x1="24" y1="4.5288" x2="24" y2="83.0503">
			<stop  offset="0" style="stop-color:#E3E3E3"/>
			<stop  offset="1" style="stop-color:#414141"/>
		</linearGradient>
		<path style="fill:url(#SVGID_1_);" d="M46.184,22.684c0,12.253-9.936,22.186-22.181,22.186c-12.251,0-22.186-9.933-22.186-22.186
			c0-12.249,9.935-22.182,22.186-22.182C36.248,0.502,46.184,10.435,46.184,22.684z"/>
		<linearGradient id="SVGID_2_" gradientUnits="userSpaceOnUse" x1="24.0024" y1="41.7314" x2="24.0024" y2="5.0222">
			<stop  offset="0" style="stop-color:#7EC242"/>
			<stop  offset="1" style="stop-color:#1D6433"/>
		</linearGradient>
		<path style="fill:url(#SVGID_2_);" d="M42.502,22.684c0,10.22-8.281,18.505-18.499,18.505c-10.221,0-18.5-8.285-18.5-18.505
			c0-10.215,8.28-18.502,18.5-18.502C34.221,4.182,42.502,12.469,42.502,22.684z"/>
		<polygon style="opacity:0.4;fill:#FFFFFF;" points="22.253,20.913 9.498,22.66 22.253,24.405 24.003,37.162 25.748,24.405 
			38.5,22.66 25.748,20.913 24.003,14.582 		"/>
		<linearGradient id="SVGID_3_" gradientUnits="userSpaceOnUse" x1="24.0005" y1="44.1992" x2="24.0005" y2="4.2002">
			<stop  offset="0" style="stop-color:#E3E3E3"/>
			<stop  offset="1" style="stop-color:#414141"/>
		</linearGradient>
		<path style="fill:url(#SVGID_3_);" d="M4.846,22.684C4.851,12.105,13.42,3.531,24.003,3.531l0,0
			c10.577,0,19.147,8.574,19.152,19.152l0,0C43.15,33.266,34.58,41.84,24.003,41.84l0,0C13.422,41.84,4.851,33.266,4.846,22.684
			L4.846,22.684z M6.154,22.684c0.018,9.859,7.988,17.832,17.849,17.852l0,0c9.854-0.02,17.828-7.992,17.845-17.852l0,0
			c-0.017-9.857-7.99-17.829-17.845-17.848l0,0C14.144,4.854,6.171,12.826,6.154,22.684L6.154,22.684z"/>
		<path style="opacity:0.25;fill:#FFFFFF;" d="M40.396,17.306C38.094,10.479,31.65,5.559,24.046,5.559
			c-9.537,0-17.268,7.729-17.268,17.269c0,3.29,0.938,6.354,2.537,8.972L40.396,17.306z"/>
		<polygon style="opacity:0.3;" points="25.725,22.148 13.39,13.58 22.279,25.686 34.615,34.257 		"/>
		<polygon style="fill:#FFFFFF;" points="22.279,24.412 34.615,32.987 25.725,20.877 		"/>
		<polygon style="fill:#E92629;" points="22.279,24.412 13.39,12.305 25.725,20.877 		"/>
		<path style="fill:#E3E3E3;" d="M25.177,22.64c0.007,0.644-0.507,1.175-1.148,1.181c-0.643,0.01-1.174-0.504-1.179-1.148
			c-0.009-0.641,0.503-1.17,1.151-1.181C24.641,21.486,25.169,21.998,25.177,22.64z"/>
		<path style="fill:#FFFFFF;" d="M25.725,13.611l-3.24-5.27v5.27H21.51V6.662h0.82l3.166,5.127V6.662h0.973v6.949H25.725z"/>
	</g>
</g>
</svg>
