<?xml version="1.0" encoding="iso-8859-1"?>
<!-- Generator: Adobe Illustrator 14.0.0, SVG Export Plug-In . SVG Version: 6.00 Build 43363)  -->
<!DOCTYPE svg PUBLIC "-//W3C//DTD SVG 1.1//EN" "http://www.w3.org/Graphics/SVG/1.1/DTD/svg11.dtd">
<svg version="1.1" id="icon-l-camera-layer" xmlns="http://www.w3.org/2000/svg" xmlns:xlink="http://www.w3.org/1999/xlink"
	 x="0px" y="0px" width="46px" height="33px" viewBox="0 0 46 33" style="enable-background:new 0 0 46 33;" xml:space="preserve">
<g id="icon-l-camera_1_">
	<path style="fill:#EB2D7C;" d="M44.22,1H1.429C0.643,1,0,1.643,0,2.429v29.146c0,0.785,0.643,1.43,1.429,1.43H44.22
		c0.785,0,1.429-0.645,1.429-1.43V2.429C45.648,1.643,45.005,1,44.22,1z M22.822,27.701c-5.67,0-10.271-4.611-10.271-10.289
		c0-5.68,4.601-10.285,10.271-10.285c5.676,0,10.271,4.605,10.271,10.285C33.094,23.09,28.498,27.701,22.822,27.701z M42.729,8.369
		h-8.836V3.947h8.836V8.369z"/>
</g>
</svg>
