<?xml version="1.0" encoding="iso-8859-1"?>
<!-- Generator: Adobe Illustrator 14.0.0, SVG Export Plug-In . SVG Version: 6.00 Build 43363)  -->
<!DOCTYPE svg PUBLIC "-//W3C//DTD SVG 1.1//EN" "http://www.w3.org/Graphics/SVG/1.1/DTD/svg11.dtd">
<svg version="1.1" id="icon-l-office-tools-layer" xmlns="http://www.w3.org/2000/svg" xmlns:xlink="http://www.w3.org/1999/xlink"
	 x="0px" y="0px" width="48px" height="48px" viewBox="0 0 48 48" style="enable-background:new 0 0 48 48;" xml:space="preserve">
<g id="icon-l-office-tools">
	<rect style="fill:none;" width="47.998" height="48"/>
	<g>
		<linearGradient id="SVGID_1_" gradientUnits="userSpaceOnUse" x1="17.4233" y1="4.9512" x2="17.4233" y2="41.8472">
			<stop  offset="0" style="stop-color:#FFFFFF"/>
			<stop  offset="1" style="stop-color:#B3B2C9"/>
		</linearGradient>
		
			<rect x="3.375" y="4.951" style="opacity:0.2;fill:url(#SVGID_1_);stroke:#010101;stroke-width:2.4246;stroke-linejoin:round;" width="28.098" height="36.896"/>
		<rect x="3.375" y="4.951" style="opacity:0.5;fill:#010101;" width="28.098" height="36.896"/>
		<linearGradient id="SVGID_2_" gradientUnits="userSpaceOnUse" x1="17.4233" y1="-0.7148" x2="17.4233" y2="123.8908">
			<stop  offset="0" style="stop-color:#FFFFFF"/>
			<stop  offset="1" style="stop-color:#B3B2C9"/>
		</linearGradient>
		<rect x="3.375" y="3.745" style="fill:url(#SVGID_2_);" width="28.098" height="36.893"/>
		<path style="fill:#666666;" d="M8.361,21.84c0,0.646-0.521,1.165-1.166,1.165c-0.637,0-1.161-0.519-1.161-1.165
			c0-0.64,0.524-1.162,1.161-1.162C7.839,20.678,8.361,21.2,8.361,21.84z"/>
		<path style="fill:#666666;" d="M8.361,15.641c0,0.643-0.521,1.162-1.166,1.162c-0.637,0-1.161-0.52-1.161-1.162
			c0-0.644,0.524-1.161,1.161-1.161C7.839,14.479,8.361,14.997,8.361,15.641z"/>
		<path style="fill:#666666;" d="M8.361,28.038c0,0.646-0.521,1.165-1.166,1.165c-0.637,0-1.161-0.519-1.161-1.165
			c0-0.637,0.524-1.16,1.161-1.16C7.839,26.878,8.361,27.401,8.361,28.038z"/>
		<path style="fill:#666666;" d="M8.361,34.238c0,0.644-0.521,1.164-1.166,1.164c-0.637,0-1.161-0.521-1.161-1.164
			s0.524-1.163,1.161-1.163C7.839,33.075,8.361,33.595,8.361,34.238z"/>
		<rect x="10.476" y="14.83" style="fill:#666666;" width="17.543" height="1.621"/>
		<rect x="10.479" y="27.254" style="fill:#666666;" width="17.541" height="1.619"/>
		<rect x="10.476" y="21.044" style="fill:#666666;" width="17.543" height="1.62"/>
		<rect x="10.476" y="33.466" style="fill:#666666;" width="17.543" height="1.615"/>
		<linearGradient id="SVGID_3_" gradientUnits="userSpaceOnUse" x1="17.4233" y1="3.9971" x2="17.4233" y2="14.728">
			<stop  offset="0" style="stop-color:#7EC242"/>
			<stop  offset="1" style="stop-color:#1D6433"/>
		</linearGradient>
		<rect x="3.375" y="3.622" style="fill:url(#SVGID_3_);" width="28.098" height="6.402"/>
		<linearGradient id="SVGID_4_" gradientUnits="userSpaceOnUse" x1="30.2969" y1="8.7266" x2="30.2969" y2="45.6226">
			<stop  offset="0" style="stop-color:#FFFFFF"/>
			<stop  offset="1" style="stop-color:#B3B2C9"/>
		</linearGradient>
		
			<rect x="16.247" y="8.727" style="opacity:0.2;fill:url(#SVGID_4_);stroke:#010101;stroke-width:2.4246;stroke-linejoin:round;" width="28.099" height="36.896"/>
		<rect x="16.247" y="8.727" style="opacity:0.5;fill:#010101;" width="28.099" height="36.896"/>
		<linearGradient id="SVGID_5_" gradientUnits="userSpaceOnUse" x1="30.2969" y1="3.0591" x2="30.2969" y2="127.6713">
			<stop  offset="0" style="stop-color:#FFFFFF"/>
			<stop  offset="1" style="stop-color:#B3B2C9"/>
		</linearGradient>
		<rect x="16.247" y="7.52" style="fill:url(#SVGID_5_);" width="28.099" height="36.895"/>
		<linearGradient id="SVGID_6_" gradientUnits="userSpaceOnUse" x1="30.2969" y1="7.7715" x2="30.2969" y2="18.5057">
			<stop  offset="0" style="stop-color:#517EBF"/>
			<stop  offset="1" style="stop-color:#283176"/>
		</linearGradient>
		<rect x="16.247" y="7.396" style="fill:url(#SVGID_6_);" width="28.099" height="6.404"/>
		<g>
			<linearGradient id="SVGID_7_" gradientUnits="userSpaceOnUse" x1="39.8496" y1="16.1812" x2="18.3995" y2="52.2496">
				<stop  offset="0" style="stop-color:#7EC242"/>
				<stop  offset="1" style="stop-color:#1D6433"/>
			</linearGradient>
			<polygon style="fill:url(#SVGID_7_);" points="35.074,29.187 30.57,26.378 28.328,33.391 25.373,32.032 19.955,39.353 
				19.955,41.069 21.912,41.069 26.203,35.27 29.906,36.97 32.025,30.343 35.922,32.772 41.828,23.136 41.828,18.173 			"/>
		</g>
		<polyline style="fill:none;stroke:#808080;" points="40.984,40.954 20.02,40.954 20.02,17.98 		"/>
	</g>
</g>
</svg>
