<?xml version="1.0" encoding="iso-8859-1"?>
<!-- Generator: Adobe Illustrator 14.0.0, SVG Export Plug-In . SVG Version: 6.00 Build 43363)  -->
<!DOCTYPE svg PUBLIC "-//W3C//DTD SVG 1.1//EN" "http://www.w3.org/Graphics/SVG/1.1/DTD/svg11.dtd">
<svg version="1.1" id="icon-m-applet-settings-layer"
	 xmlns="http://www.w3.org/2000/svg" xmlns:xlink="http://www.w3.org/1999/xlink" x="0px" y="0px" width="48px" height="48px"
	 viewBox="0 0 48 48" style="enable-background:new 0 0 48 48;" xml:space="preserve">
<g id="icon-m-applet-settings">
	<rect style="fill:none;" width="48" height="48"/>
	<circle style="fill:#333333;" cx="24" cy="24" r="24"/>
	<path style="fill:#FFFFFF;" d="M36.116,33.484l-2.648,2.657c-0.492,0.476-1.281,0.476-1.766,0L21.351,25.773
		c-6.312,3.492-9.836-4.352-9.836-6.484c0-1.758,0.133-2.656,0.773-2.008l4.789,4.789c2.594-0.711,4.219-2.68,4.969-4.969
		l-4.758-4.766c-1.195-1.194,2.867-1.148,5.547,0.407c5.945,3.437,3.461,7.937,2.953,8.624l10.328,10.336
		C36.607,32.195,36.607,32.984,36.116,33.484z"/>
</g>
</svg>
