<?xml version="1.0" encoding="iso-8859-1"?>
<!-- Generator: Adobe Illustrator 14.0.0, SVG Export Plug-In . SVG Version: 6.00 Build 43363)  -->
<!DOCTYPE svg PUBLIC "-//W3C//DTD SVG 1.1//EN" "http://www.w3.org/Graphics/SVG/1.1/DTD/svg11.dtd">
<svg version="1.1" id="icon-l-calendar-layer" xmlns="http://www.w3.org/2000/svg" xmlns:xlink="http://www.w3.org/1999/xlink"
	 x="0px" y="0px" width="39px" height="46px" viewBox="0 0 39 46" style="enable-background:new 0 0 39 46;" xml:space="preserve">
<g id="icon-l-calendar_1_">
	<path style="fill:#00A79C;" d="M0,44.241c0,0.785,0.642,1.428,1.429,1.428h35.483c0.787,0,1.428-0.643,1.428-1.428V18.668H0V44.241
		z M19.793,38.247c0-3.16,1.9-5.021,3.847-6.653c1.223-1.026,1.973-1.714,1.973-2.786c0-1.207-0.562-1.723-1.883-1.723
		c-1.064,0-2.047,0.315-2.961,0.639l-0.477,0.17v-2.752l0.256-0.076c1.395-0.412,2.703-0.614,4.002-0.614
		c4.195,0,5.076,2.304,5.076,4.237c0,2.322-1.236,3.551-2.986,5.033c-1.656,1.398-2.666,2.303-2.936,3.51h6.041v2.654h-9.953V38.247
		z M8.594,37.451h3.08v-9.681l-3.08,0.66v-2.424l4.917-1.516h2.097v12.96h2.901v2.435H8.594V37.451z M8.293,7.11V1.49
		C8.293,0.67,8.965,0,9.785,0h0.367c0.822,0,1.493,0.67,1.493,1.49v5.62c0,0.818-0.671,1.489-1.493,1.489H9.785
		C8.965,8.6,8.293,7.929,8.293,7.11z M26.904,7.11V1.49c0-0.82,0.672-1.49,1.494-1.49h0.365c0.822,0,1.492,0.67,1.492,1.49v5.62
		c0,0.818-0.67,1.489-1.492,1.489h-0.365C27.576,8.6,26.904,7.929,26.904,7.11z M38.34,6.936v7.393H0V6.936h4.892
		c0.276,2.506,2.371,4.453,4.916,4.453c2.543,0,4.636-1.947,4.914-4.453h8.783c0.277,2.506,2.369,4.453,4.914,4.453
		c2.543,0,4.639-1.947,4.914-4.453H38.34z"/>
</g>
</svg>
