<?xml version="1.0" encoding="iso-8859-1"?>
<!-- Generator: Adobe Illustrator 14.0.0, SVG Export Plug-In . SVG Version: 6.00 Build 43363)  -->
<!DOCTYPE svg PUBLIC "-//W3C//DTD SVG 1.1//EN" "http://www.w3.org/Graphics/SVG/1.1/DTD/svg11.dtd">
<svg version="1.1" id="icon-l-activities-layer" xmlns="http://www.w3.org/2000/svg" xmlns:xlink="http://www.w3.org/1999/xlink"
	 x="0px" y="0px" width="80px" height="81px" viewBox="0 0 80 81" style="enable-background:new 0 0 80 81;" xml:space="preserve">
<g id="icon-l-activities_4_">
	<path id="icon-l-activities_2_" style="fill:#F78F20;" d="M66.422,22.6H50.956v-9.021c0-1.29-1.29-2.578-2.578-2.578h-34.8
		c-1.29,0-2.579,1.288-2.579,2.578v25.776c0,1.291,1.289,2.579,2.579,2.579h10.311V56.11c0,1.291,1.289,2.578,2.578,2.578h19.334
		v9.024c0,0,0,1.287,1.28,1.287c1.297,0,7.741-10.312,7.741-10.312h11.6c1.29,0,2.578-1.287,2.578-2.578V25.178
		C69,23.888,67.712,22.6,66.422,22.6z M50.956,39.354c0,1.291-1.29,2.579-2.578,2.579h-5.155v6.443c0,0,0,1.29-1.289,1.29
		s-5.156-7.733-5.156-7.733H23.889V25.178c0-1.29,1.289-2.578,2.578-2.578h24.489V39.354z"/>
	<rect style="fill:none;" width="80" height="80.001"/>
</g>
</svg>
