<?xml version="1.0" encoding="iso-8859-1"?>
<!-- Generator: Adobe Illustrator 14.0.0, SVG Export Plug-In . SVG Version: 6.00 Build 43363)  -->
<!DOCTYPE svg PUBLIC "-//W3C//DTD SVG 1.1//EN" "http://www.w3.org/Graphics/SVG/1.1/DTD/svg11.dtd">
<svg version="1.1" id="icon-m-notification-temperature-layer"
	 xmlns="http://www.w3.org/2000/svg" xmlns:xlink="http://www.w3.org/1999/xlink" x="0px" y="0px" width="64px" height="64px"
	 viewBox="0 0 64 64" style="enable-background:new 0 0 64 64;" xml:space="preserve">
<g id="icon-m-notification-temperature_1_">
	<rect style="fill:none;" width="64" height="64"/>
	<path style="fill:#333333;" d="M37.524,40.383V23V6.261C37.524,2.809,35.047,0,32,0c-3.045,0-5.523,2.809-5.523,6.261V23v17.383
		c-4.244,2.091-6.933,6.367-6.933,11.159C19.543,58.411,25.131,64,32,64c6.87,0,12.458-5.589,12.458-12.458
		C44.457,46.75,41.768,42.474,37.524,40.383z M32,3c1.369,0,2.525,1.493,2.525,3.261V20h-5.048V6.261C29.476,4.493,30.632,3,32,3z"
		/>
</g>
</svg>
