<?xml version="1.0" encoding="iso-8859-1"?>
<!-- Generator: Adobe Illustrator 14.0.0, SVG Export Plug-In . SVG Version: 6.00 Build 43363)  -->
<!DOCTYPE svg PUBLIC "-//W3C//DTD SVG 1.1//EN" "http://www.w3.org/Graphics/SVG/1.1/DTD/svg11.dtd">
<svg version="1.1" id="icon-l-maps-layer" xmlns="http://www.w3.org/2000/svg" xmlns:xlink="http://www.w3.org/1999/xlink" x="0px"
	 y="0px" width="80px" height="80px" viewBox="0 0 80 80" style="enable-background:new 0 0 80 80;" xml:space="preserve">
<g id="icon-l-maps_1_">
	<rect style="fill:none;" width="80" height="80"/>
	<path id="_x31__pixel_shadow_7_" style="opacity:0.4;" d="M58.207,77.143c-0.09,0.025-0.182,0.047-0.271,0.07
		c-0.496,0.133-1,0.26-1.52,0.379c-0.521,0.117-1.059,0.227-1.604,0.332c-0.113,0.02-0.219,0.047-0.332,0.066
		c-4.176,0.773-8.979,1.131-14.479,1.131c-5.503,0-10.305-0.357-14.479-1.131c-0.114-0.02-0.219-0.047-0.33-0.066
		c-0.545-0.105-1.085-0.215-1.606-0.332c-0.52-0.119-1.021-0.246-1.519-0.379c-0.09-0.023-0.184-0.045-0.271-0.07
		C6.457,72.988,0.592,61.873,0.506,40.097c0,0.163-0.006,0.313-0.006,0.476C0.5,69.838,10.735,80,40.002,80
		C69.268,80,79.5,69.838,79.5,40.572c0-0.162-0.002-0.312-0.004-0.476C79.41,61.873,73.545,72.988,58.207,77.143"/>
	<path id="flat_colour_squircle_8_" style="fill:#539D03;" d="M79.5,39.57c0,29.268-10.232,39.5-39.499,39.5
		C10.733,79.07,0.5,68.838,0.5,39.57c0-29.264,10.233-39.499,39.501-39.499C69.268,0.071,79.5,10.307,79.5,39.57"/>
	<linearGradient id="shine_overlay_1_" gradientUnits="userSpaceOnUse" x1="39.9995" y1="0" x2="39.9995" y2="79.0005">
		<stop  offset="0" style="stop-color:#FFFFFF"/>
		<stop  offset="0.1774" style="stop-color:#C7C7C7"/>
		<stop  offset="0.3633" style="stop-color:#939393"/>
		<stop  offset="0.5253" style="stop-color:#6D6D6D"/>
		<stop  offset="0.655" style="stop-color:#565656"/>
		<stop  offset="0.7362" style="stop-color:#4D4D4D"/>
		<stop  offset="1" style="stop-color:#4D4D4D"/>
	</linearGradient>
	<path id="shine_overlay_7_" style="opacity:0.15;fill:url(#shine_overlay_1_);" d="M40.001,0C10.733,0,0.5,10.234,0.5,39.498
		C0.5,68.764,10.733,79,40.001,79C69.268,79,79.5,68.764,79.5,39.498C79.5,10.234,69.268,0,40.001,0z"/>
	<linearGradient id="new_thin_shine_1_" gradientUnits="userSpaceOnUse" x1="39.9995" y1="0.0713" x2="39.9995" y2="79.0708">
		<stop  offset="0" style="stop-color:#FFFFFF"/>
		<stop  offset="1" style="stop-color:#FFFFFF;stop-opacity:0"/>
	</linearGradient>
	<path id="new_thin_shine" style="opacity:0.25;fill:url(#new_thin_shine_1_);" d="M40,0.071c-29.265,0-39.5,10.235-39.5,39.501
		C0.5,68.836,10.735,79.07,40,79.07c29.266,0,39.5-10.234,39.5-39.498C79.5,10.307,69.266,0.071,40,0.071z M40,78.119
		c-28.82,0-38.548-9.729-38.548-38.547C1.452,10.751,11.18,1.023,40,1.023c28.822,0,38.549,9.728,38.549,38.549
		C78.549,68.391,68.822,78.119,40,78.119z"/>
	<path style="opacity:0.3;" d="M40,16.852c-12.07,0.003-21.851,9.786-21.851,21.853c0,12.063,9.781,21.851,21.851,21.851
		c12.07,0,21.852-9.781,21.852-21.851S52.07,16.852,40,16.852 M40,60.738c-10.494,0-20.515-11.541-20.515-22.034
		c0-10.491,10.021-18.999,20.515-19.003h0.004c10.494,0,20.518,8.51,20.518,19.003C60.521,49.199,50.496,60.738,40,60.738"/>
	<path style="opacity:0.15;" d="M39.998,20.722c-5.208,0-10.103,2.03-13.787,5.712c-3.683,3.684-5.71,8.58-5.71,13.785
		c0,10.752,8.745,19.5,19.497,19.5c10.752,0,19.502-8.748,19.502-19.5c0-10.751-8.746-19.497-19.499-19.497H39.998z"/>
	<path style="fill:#FFFFFF;" d="M40,18.367c-12.07,0.004-21.851,9.787-21.851,21.854c0,12.064,9.781,21.85,21.851,21.85
		c12.07,0,21.852-9.779,21.852-21.85C61.852,28.152,52.07,18.367,40,18.367 M40,59.221c-10.494,0-18.998-8.508-18.998-19
		c0-10.491,8.504-18.998,18.998-19.002h0.004c10.494,0,19,8.51,19,19.002C59.004,50.715,50.496,59.221,40,59.221"/>
	<path style="fill:#FFFFFF;" d="M30.825,31.027c0.13-0.129,0.274-0.084,0.369-0.025L31.191,31l0.013,0.006
		c0.01,0.007,0.014,0.01,0.021,0.012l11.357,7.062l7.062,11.355c0.004,0.008,0.004,0.014,0.012,0.023l0.006,0.01l-0.002-0.002
		c0.059,0.096,0.104,0.24-0.025,0.369c-0.129,0.131-0.273,0.084-0.367,0.025l0.002,0.004l-0.016-0.01
		c-0.008-0.004-0.012-0.006-0.021-0.012l-11.354-7.062l-7.062-11.353c-0.005-0.007-0.007-0.013-0.015-0.021l-0.006-0.015
		l0.001,0.004C30.741,31.301,30.695,31.158,30.825,31.027 M39.524,27.869c0-0.787,0.637-1.424,1.425-1.424
		c0.788,0,1.426,0.637,1.426,1.424c0,0.79-0.639,1.427-1.426,1.427C40.161,29.296,39.524,28.659,39.524,27.869 M39.998,23.594
		c-4.44,0-8.615,1.732-11.756,4.871c-3.139,3.141-4.868,7.316-4.868,11.754c0,9.168,7.457,16.625,16.624,16.625
		c9.17,0,16.629-7.457,16.629-16.625c0-9.167-7.457-16.625-16.626-16.625H39.998z"/>
	<path style="fill:#FFFFFF;" d="M39.998,38.318c-1.048,0-1.9,0.852-1.9,1.9c0,1.053,0.852,1.9,1.9,1.9
		c1.051,0,1.902-0.848,1.902-1.9C41.9,39.17,41.049,38.318,39.998,38.318"/>
</g>
</svg>
