<?xml version="1.0" encoding="iso-8859-1"?>
<!-- Generator: Adobe Illustrator 14.0.0, SVG Export Plug-In . SVG Version: 6.00 Build 43363)  -->
<!DOCTYPE svg PUBLIC "-//W3C//DTD SVG 1.1//EN" "http://www.w3.org/Graphics/SVG/1.1/DTD/svg11.dtd">
<svg version="1.1" id="icon-m-telephony-ongoing-layer"
	 xmlns="http://www.w3.org/2000/svg" xmlns:xlink="http://www.w3.org/1999/xlink" x="0px" y="0px" width="32px" height="32px"
	 viewBox="0 0 32 32" style="enable-background:new 0 0 32 32;" xml:space="preserve">
<g id="icon-m-telephony-ongoing">
	<rect style="fill:none;" width="32" height="32"/>
	<path style="fill:#FFFFFF;" d="M19.491,8.793l-9.035-8.295c-0.258-0.236-0.68-0.236-0.938,0L0.482,8.793
		C0.225,9.028,0.275,9.219,0.625,9.219h2.181v8.414h4.05v-5.92c-0.004-0.569,0.624-0.622,0.624-0.622h2.18c0,0,0.623,0,0.623,0.622
		v5.92h6.855V9.219h2.182C19.666,9.219,19.748,9.028,19.491,8.793z"/>
	<path style="fill:#FFFFFF;" d="M26.367,15.822c-3.061,1.438-9.14,6.78-10.584,10.568c-0.633,1.658,0.662,4.28,1.684,5.094
		c0,0.004,0.527,0.441,0.922-0.006l2.755-3.711c0.188-0.241,0.372-0.557-0.007-0.932c0,0-1.908-1.373-1.355-2.25
		c0.386-0.605,4.177-4.393,4.783-4.775c0.881-0.553,2.258,1.35,2.258,1.35c0.38,0.378,0.693,0.189,0.935,0.006l3.721-2.754
		c0.45-0.398,0.009-0.922,0.007-0.922C30.664,16.479,27.982,15.064,26.367,15.822z"/>
</g>
</svg>
