<?xml version="1.0" encoding="iso-8859-1"?>
<!-- Generator: Adobe Illustrator 14.0.0, SVG Export Plug-In . SVG Version: 6.00 Build 43363)  -->
<!DOCTYPE svg PUBLIC "-//W3C//DTD SVG 1.1//EN" "http://www.w3.org/Graphics/SVG/1.1/DTD/svg11.dtd">
<svg version="1.1" id="icon-l-mms-layer" xmlns="http://www.w3.org/2000/svg" xmlns:xlink="http://www.w3.org/1999/xlink" x="0px"
	 y="0px" width="80px" height="80px" viewBox="0 0 80 80" style="enable-background:new 0 0 80 80;" xml:space="preserve">
<g id="icon-l-mms_1_">
	<rect style="fill:none;" width="80" height="80"/>
	<path id="_x31__pixel_shadow_15_" style="opacity:0.4;" d="M58.207,77.144c-0.089,0.026-0.182,0.046-0.271,0.069
		c-0.497,0.133-1,0.261-1.52,0.378c-0.521,0.119-1.06,0.228-1.604,0.332c-0.112,0.021-0.219,0.047-0.331,0.067
		c-4.176,0.773-8.979,1.133-14.479,1.133c-5.503,0-10.305-0.359-14.479-1.133c-0.114-0.021-0.219-0.046-0.33-0.067
		c-0.545-0.104-1.085-0.213-1.606-0.332c-0.52-0.117-1.021-0.245-1.519-0.378c-0.09-0.023-0.184-0.043-0.271-0.069
		C6.457,72.989,0.592,61.873,0.506,40.098c0,0.161-0.006,0.313-0.006,0.478C0.5,69.838,10.735,80,40.002,80
		C69.267,80,79.5,69.838,79.5,40.575c0-0.164-0.002-0.316-0.004-0.478C79.411,61.873,73.545,72.989,58.207,77.144"/>
	<path id="flat_colour_squircle_16_" style="fill:#EBB10A;" d="M79.5,39.57c0,29.267-10.233,39.501-39.499,39.501
		C10.733,79.071,0.5,68.837,0.5,39.57c0-29.264,10.233-39.499,39.501-39.499C69.267,0.071,79.5,10.307,79.5,39.57"/>
	<linearGradient id="shine_top_layer_1_" gradientUnits="userSpaceOnUse" x1="39.9995" y1="0" x2="39.9995" y2="79.0005">
		<stop  offset="0" style="stop-color:#FFFFFF"/>
		<stop  offset="0.7362" style="stop-color:#FFFFFF;stop-opacity:0"/>
	</linearGradient>
	<path id="shine_top_layer_9_" style="opacity:0.4;fill:url(#shine_top_layer_1_);" d="M79.5,39.5C79.5,68.766,69.266,79,40,79
		C10.735,79,0.5,68.766,0.5,39.5S10.735,0,40,0C69.266,0,79.5,10.234,79.5,39.5z"/>
	<linearGradient id="top_edge_highlight_1_" gradientUnits="userSpaceOnUse" x1="47.7109" y1="-0.1699" x2="32.2889" y2="79.1698">
		<stop  offset="0" style="stop-color:#FFFFFF"/>
		<stop  offset="0.1117" style="stop-color:#EBEBEB"/>
		<stop  offset="0.3969" style="stop-color:#BDBDBD"/>
		<stop  offset="0.6503" style="stop-color:#9B9B9B"/>
		<stop  offset="0.86" style="stop-color:#878787"/>
		<stop  offset="1" style="stop-color:#808080"/>
	</linearGradient>
	<path id="top_edge_highlight_15_" style="opacity:0.61;fill:url(#top_edge_highlight_1_);" d="M40.001,79
		C10.837,79,0.5,68.664,0.5,39.5S10.837,0,40.001,0C69.164,0,79.5,10.336,79.5,39.5S69.164,79,40.001,79L40.001,79z M40.001,0.986
		c-28.795,0-38.514,9.718-38.514,38.514c0,28.794,9.719,38.512,38.514,38.512c28.794,0,38.512-9.718,38.512-38.512
		C78.513,10.704,68.795,0.986,40.001,0.986L40.001,0.986z"/>
	<path style="opacity:0.3;fill:#231F20;" d="M49.504,27.775c1.576,0,3.096,0.233,4.541,0.645V22c0-0.621-0.506-1.129-1.127-1.129
		H19.129C18.506,20.871,18,21.379,18,22v4.878l17.981,7.875C39.004,30.536,43.931,27.775,49.504,27.775z"/>
	<path style="opacity:0.3;fill:#231F20;" d="M32.865,44.412c0-2.26,0.456-4.412,1.275-6.377L18,31.058V45.25
		c0,0.619,0.506,1.124,1.129,1.124h13.862C32.916,45.73,32.865,45.077,32.865,44.412z"/>
	<path style="opacity:0.3;fill:#231F20;" d="M49.504,31.916c-6.903,0-12.495,5.595-12.495,12.496
		c0,6.902,5.592,12.498,12.495,12.498C56.406,56.91,62,51.314,62,44.412C62,37.511,56.406,31.916,49.504,31.916z M56.32,46.411
		l-9.541,5.563c-0.6,0.35-1.087,0.069-1.087-0.627V40.199c0-0.691,0.487-0.975,1.087-0.627l9.541,5.568
		C56.92,45.489,56.92,46.061,56.32,46.411z"/>
	<path style="opacity:0.15;" d="M56.32,46.411l-9.541,5.563c-0.6,0.35-1.087,0.069-1.087-0.627V40.199
		c0-0.691,0.487-0.975,1.087-0.627l9.541,5.568C56.92,45.489,56.92,46.061,56.32,46.411z"/>
	<path style="fill:#FFFFFF;" d="M49.504,29.137c1.576,0,3.096,0.234,4.541,0.646v-6.42c0-0.622-0.506-1.129-1.127-1.129H19.129
		c-0.623,0-1.129,0.507-1.129,1.129v4.877l17.981,7.875C39.004,31.898,43.931,29.137,49.504,29.137z"/>
	<path style="fill:#FFFFFF;" d="M32.865,45.772c0-2.257,0.456-4.411,1.275-6.376L18,32.42v14.191c0,0.621,0.506,1.123,1.129,1.123
		h13.862C32.916,47.092,32.865,46.439,32.865,45.772z"/>
	<path style="fill:#FFFFFF;" d="M49.504,33.277c-6.903,0-12.495,5.595-12.495,12.495c0,6.903,5.592,12.499,12.495,12.499
		C56.406,58.271,62,52.676,62,45.772C62,38.872,56.406,33.277,49.504,33.277z M56.32,46.411l-9.541,5.563
		c-0.6,0.35-1.087,0.069-1.087-0.627V40.199c0-0.691,0.487-0.975,1.087-0.627l9.541,5.568C56.92,45.489,56.92,46.061,56.32,46.411z"
		/>
</g>
</svg>
