<?xml version="1.0" encoding="iso-8859-1"?>
<!-- Generator: Adobe Illustrator 14.0.0, SVG Export Plug-In . SVG Version: 6.00 Build 43363)  -->
<!DOCTYPE svg PUBLIC "-//W3C//DTD SVG 1.1//EN" "http://www.w3.org/Graphics/SVG/1.1/DTD/svg11.dtd">
<svg version="1.1" id="icon-l-help-layer" xmlns="http://www.w3.org/2000/svg" xmlns:xlink="http://www.w3.org/1999/xlink" x="0px"
	 y="0px" width="80px" height="81px" viewBox="0 0 80 81" style="enable-background:new 0 0 80 81;" xml:space="preserve">
<g id="icon-l-help_1_">
	<linearGradient id="SVGID_1_" gradientUnits="userSpaceOnUse" x1="39.9995" y1="14.9512" x2="39.9995" y2="253.9772">
		<stop  offset="0" style="stop-color:#FFFFFF"/>
		<stop  offset="1" style="stop-color:#B3B2C9"/>
	</linearGradient>
	<path style="fill:url(#SVGID_1_);" d="M40,10.001c-16.57,0-30,13.432-30,29.999s13.43,30,30,30c16.568,0,30-13.433,30-30
		S56.568,10.001,40,10.001z M40,64.375c-13.441,0-24.375-10.936-24.375-24.375S26.559,15.626,40,15.626
		c13.439,0,24.375,10.935,24.375,24.374S53.439,64.375,40,64.375z M42.697,52.982c0,2.516-2.057,4.517-4.576,4.517
		c-2.515,0-4.521-2.001-4.521-4.517s2.006-4.566,4.521-4.566C40.641,48.416,42.697,50.467,42.697,52.982z M49.428,30.622
		c0,3.812-2.345,5.88-4.55,7.99c-2.25,2.11-3.215,3.211-3.215,5.095v1.884h-7.875v-2.204c0-3.169,1.561-5.053,3.951-7.256
		c1.745-1.604,3.214-2.981,3.214-5.14c0-2.662-1.745-4.084-4.641-4.084c-1.56,0-3.672,0.367-5.741,0.918v-4.406
		c2.158-0.505,5.533-0.92,7.968-0.92C44.421,22.499,49.428,24.472,49.428,30.622z"/>
	<rect style="fill:none;" width="80" height="80"/>
</g>
</svg>
