<?xml version="1.0" encoding="iso-8859-1"?>
<!-- Generator: Adobe Illustrator 14.0.0, SVG Export Plug-In . SVG Version: 6.00 Build 43363)  -->
<!DOCTYPE svg PUBLIC "-//W3C//DTD SVG 1.1//EN" "http://www.w3.org/Graphics/SVG/1.1/DTD/svg11.dtd">
<svg version="1.1" id="icon-m-common-synchronization-layer"
	 xmlns="http://www.w3.org/2000/svg" xmlns:xlink="http://www.w3.org/1999/xlink" x="0px" y="0px" width="64px" height="64px"
	 viewBox="0 0 64 64" style="enable-background:new 0 0 64 64;" xml:space="preserve">
<g id="icon-m-common-synchronization">
	<rect style="fill:none;" width="64" height="64"/>
	<path style="fill:#333333;" d="M44.494,28.32L41.88,15.319l-3.735,4.925c-0.895-0.673-7.162-5.393-7.207-5.421
		c-2.132-1.502-4.805-1.992-7.331-1.345c-4.75,1.221-7.624,6.076-6.405,10.827l1.536,5.988l5.154-0.389l-1.763-6.865
		c-0.519-2.031,0.707-4.11,2.743-4.633c1.075-0.274,2.218-0.064,3.146,0.581l7.113,5.234l-3.857,5.085L44.494,28.32z"/>
	<path style="fill:#333333;" d="M19.506,35.68l2.614,13.001l3.735-4.925c0.896,0.673,7.163,5.393,7.208,5.421
		c2.133,1.502,4.805,1.993,7.331,1.344c4.749-1.22,7.622-6.074,6.405-10.826l-1.537-5.989l-5.154,0.39l1.764,6.865
		c0.52,2.031-0.707,4.109-2.742,4.633c-1.075,0.274-2.219,0.066-3.146-0.581l-7.113-5.233l3.855-5.086L19.506,35.68z"/>
	<path style="fill:#333333;" d="M32,1C14.907,1,1,14.906,1,32s13.907,31,31,31c17.094,0,31-13.906,31-31S49.094,1,32,1z M32,57.686
		C17.837,57.686,6.314,46.162,6.314,32C6.314,17.836,17.837,6.314,32,6.314S57.686,17.836,57.686,32
		C57.686,46.162,46.163,57.686,32,57.686z"/>
</g>
</svg>
