<?xml version="1.0" encoding="iso-8859-1"?>
<!-- Generator: Adobe Illustrator 14.0.0, SVG Export Plug-In . SVG Version: 6.00 Build 43363)  -->
<!DOCTYPE svg PUBLIC "-//W3C//DTD SVG 1.1//EN" "http://www.w3.org/Graphics/SVG/1.1/DTD/svg11.dtd">
<svg version="1.1" id="icon-l-drive-layer" xmlns="http://www.w3.org/2000/svg" xmlns:xlink="http://www.w3.org/1999/xlink" x="0px"
	 y="0px" width="80px" height="80px" viewBox="0 0 80 80" style="enable-background:new 0 0 80 80;" xml:space="preserve">
<g id="icon-l-drive">
	<rect style="fill:none;" width="80" height="80"/>
	<path id="_x31__pixel_shadow_28_" style="opacity:0.4;" d="M58.207,77.145c-0.089,0.025-0.182,0.045-0.271,0.068
		c-0.497,0.133-1,0.26-1.52,0.379c-0.521,0.117-1.06,0.227-1.604,0.332c-0.112,0.02-0.219,0.045-0.331,0.068
		c-4.176,0.771-8.979,1.131-14.479,1.131c-5.503,0-10.305-0.359-14.479-1.131c-0.114-0.023-0.219-0.049-0.33-0.068
		c-0.545-0.105-1.085-0.215-1.606-0.332c-0.52-0.119-1.021-0.246-1.519-0.379c-0.09-0.023-0.184-0.043-0.271-0.068
		C6.457,72.99,0.592,61.873,0.506,40.098c0,0.162-0.006,0.312-0.006,0.477C0.5,69.838,10.735,80,40.002,80
		C69.267,80,79.5,69.838,79.5,40.574c0-0.164-0.002-0.314-0.004-0.477C79.411,61.873,73.545,72.99,58.207,77.145"/>
	<path id="flat_colour_squircle_29_" style="fill:#539D03;" d="M79.5,39.57c0,29.268-10.233,39.502-39.499,39.502
		C10.733,79.072,0.5,68.838,0.5,39.57c0-29.264,10.233-39.499,39.501-39.499C69.267,0.071,79.5,10.307,79.5,39.57"/>
	<linearGradient id="shine_top_layer_1_" gradientUnits="userSpaceOnUse" x1="39.9995" y1="0" x2="39.9995" y2="79.0005">
		<stop  offset="0" style="stop-color:#FFFFFF"/>
		<stop  offset="0.7362" style="stop-color:#FFFFFF;stop-opacity:0"/>
	</linearGradient>
	<path id="shine_top_layer_29_" style="opacity:0.15;fill:url(#shine_top_layer_1_);" d="M79.5,39.5C79.5,68.764,69.266,79,40,79
		C10.736,79,0.5,68.764,0.5,39.5C0.5,10.234,10.736,0,40,0C69.266,0,79.5,10.234,79.5,39.5z"/>
	<linearGradient id="top_edge_highlight_1_" gradientUnits="userSpaceOnUse" x1="47.7109" y1="-0.1699" x2="32.2889" y2="79.1698">
		<stop  offset="0" style="stop-color:#FFFFFF"/>
		<stop  offset="0.1117" style="stop-color:#EBEBEB"/>
		<stop  offset="0.3969" style="stop-color:#BDBDBD"/>
		<stop  offset="0.6503" style="stop-color:#9B9B9B"/>
		<stop  offset="0.86" style="stop-color:#878787"/>
		<stop  offset="1" style="stop-color:#808080"/>
	</linearGradient>
	<path id="top_edge_highlight_28_" style="opacity:0.25;fill:url(#top_edge_highlight_1_);" d="M40.001,79
		C10.837,79,0.5,68.664,0.5,39.498C0.5,10.336,10.837,0,40.001,0C69.164,0,79.5,10.336,79.5,39.498C79.5,68.664,69.164,79,40.001,79
		L40.001,79z M40.001,0.986c-28.795,0-38.514,9.718-38.514,38.512c0,28.797,9.719,38.514,38.514,38.514
		c28.794,0,38.512-9.717,38.512-38.514C78.513,10.704,68.795,0.986,40.001,0.986L40.001,0.986z"/>
	<path style="opacity:0.3;" d="M63.196,30.564c-0.579-1.109-4.574-0.357-6.549,0.09c-2.054-8.049-4.921-10.167-5.593-10.167
		c-0.094,0-0.146,0.009-0.146,0.009H29.092c0,0-0.051-0.009-0.147-0.009c-0.671,0-3.539,2.118-5.592,10.167
		c-1.975-0.447-5.972-1.199-6.549-0.09c-0.771,1.482-0.023,3.398,1.671,4.278c0.236,0.124,0.512,0.214,0.807,0.286h5.342l4.396-12
		h21.75l4.99,12h4.958c0.294-0.072,0.569-0.162,0.807-0.286C63.22,33.963,63.967,32.047,63.196,30.564z"/>
	<polygon style="opacity:0.15;" points="19.145,47.129 28.395,23.504 29.02,23.129 50.77,23.129 59.895,39.5 59.895,44.129 
		59.895,48.629 20.27,48.629 	"/>
	<path style="fill:#FFFFFF;" d="M63.196,31.952c-0.579-1.108-4.574-0.356-6.549,0.092c-2.054-8.05-4.921-10.168-5.593-10.168
		c-0.094,0-0.146,0.01-0.146,0.01H29.092c0,0-0.051-0.01-0.147-0.01c-0.671,0-3.539,2.117-5.592,10.168
		c-1.975-0.448-5.972-1.2-6.549-0.092c-0.771,1.482-0.023,3.397,1.671,4.278c0.518,0.271,1.208,0.4,1.915,0.451
		c-1.15,0.889-1.898,2.278-1.898,3.834v7.754c0,0.629,0.209,1.207,0.552,1.684v0.074v1.154v4.566c0,1.6,1.31,2.908,2.908,2.908
		h3.391c1.6,0,2.908-1.309,2.908-2.908v-4.566v-0.006h2.289h18.897h2.313v0.006v4.566c0,1.6,1.309,2.908,2.908,2.908h3.391
		c1.599,0,2.908-1.309,2.908-2.908v-4.566v-1.154v-0.074c0.343-0.475,0.552-1.055,0.552-1.684v-7.754
		c0-1.556-0.748-2.945-1.899-3.834c0.707-0.051,1.396-0.18,1.915-0.451C63.22,35.35,63.967,33.435,63.196,31.952z M24.848,47.941
		c-2.077,0-3.76-1.684-3.76-3.762c0-2.076,1.683-3.758,3.76-3.758c2.075,0,3.759,1.682,3.759,3.758
		C28.606,46.258,26.923,47.941,24.848,47.941z M25.898,33.93c1.553-7.578,3.771-10.025,4.125-10.108h0.181h19.593l0.029,0.055
		l0.151-0.055c0.356,0.083,2.573,2.534,4.122,10.108H25.898z M51.394,44.18c0-2.076,1.683-3.76,3.758-3.76
		c2.079,0,3.761,1.684,3.761,3.76s-1.682,3.76-3.761,3.76C53.076,47.939,51.394,46.256,51.394,44.18z"/>
</g>
</svg>
