<?xml version="1.0" encoding="iso-8859-1"?>
<!-- Generator: Adobe Illustrator 14.0.0, SVG Export Plug-In . SVG Version: 6.00 Build 43363)  -->
<!DOCTYPE svg PUBLIC "-//W3C//DTD SVG 1.1//EN" "http://www.w3.org/Graphics/SVG/1.1/DTD/svg11.dtd">
<svg version="1.1" id="icon-l-me-layer" xmlns="http://www.w3.org/2000/svg" xmlns:xlink="http://www.w3.org/1999/xlink" x="0px"
	 y="0px" width="80px" height="80px" viewBox="0 0 80 80" style="enable-background:new 0 0 80 80;" xml:space="preserve">
<g id="icon-l-me">
	<rect style="fill:none;" width="80" height="80"/>
	<path id="_x31__pixel_shadow_30_" style="opacity:0.4;" d="M58.207,77.144c-0.09,0.025-0.182,0.047-0.271,0.069
		c-0.498,0.133-1,0.261-1.52,0.379c-0.521,0.117-1.061,0.227-1.605,0.333c-0.111,0.019-0.219,0.045-0.33,0.066
		c-4.176,0.772-8.979,1.133-14.479,1.133c-5.503,0-10.305-0.36-14.479-1.133c-0.114-0.021-0.219-0.048-0.33-0.066
		c-0.545-0.106-1.085-0.216-1.606-0.333c-0.52-0.118-1.021-0.246-1.519-0.379c-0.09-0.022-0.184-0.044-0.271-0.069
		C6.457,72.991,0.592,61.873,0.506,40.096c0,0.164-0.006,0.316-0.006,0.478C0.5,69.838,10.735,80,40.002,80
		C69.266,80,79.5,69.838,79.5,40.573c0-0.161-0.002-0.313-0.004-0.478C79.41,61.873,73.545,72.991,58.207,77.144"/>
	<path id="flat_colour_squircle_31_" style="fill:#0032C2;" d="M79.5,39.57c0,29.267-10.234,39.501-39.499,39.501
		C10.733,79.071,0.5,68.837,0.5,39.57c0-29.264,10.233-39.499,39.501-39.499C69.266,0.071,79.5,10.307,79.5,39.57"/>
	<linearGradient id="shine_top_layer_1_" gradientUnits="userSpaceOnUse" x1="39.9995" y1="0" x2="39.9995" y2="79.0005">
		<stop  offset="0" style="stop-color:#FFFFFF"/>
		<stop  offset="0.7362" style="stop-color:#FFFFFF;stop-opacity:0"/>
	</linearGradient>
	<path id="shine_top_layer_27_" style="opacity:0.15;fill:url(#shine_top_layer_1_);" d="M79.5,39.5C79.5,68.764,69.266,79,40,79
		C10.736,79,0.5,68.764,0.5,39.5C0.5,10.234,10.736,0,40,0C69.266,0,79.5,10.234,79.5,39.5z"/>
	<linearGradient id="top_edge_highlight_1_" gradientUnits="userSpaceOnUse" x1="47.7109" y1="-0.1699" x2="32.2889" y2="79.1698">
		<stop  offset="0" style="stop-color:#FFFFFF"/>
		<stop  offset="0.1117" style="stop-color:#EBEBEB"/>
		<stop  offset="0.3969" style="stop-color:#BDBDBD"/>
		<stop  offset="0.6503" style="stop-color:#9B9B9B"/>
		<stop  offset="0.86" style="stop-color:#878787"/>
		<stop  offset="1" style="stop-color:#808080"/>
	</linearGradient>
	<path id="top_edge_highlight_30_" style="opacity:0.25;fill:url(#top_edge_highlight_1_);" d="M40.001,79
		C10.837,79,0.5,68.664,0.5,39.5S10.837,0,40.001,0C69.164,0,79.5,10.336,79.5,39.5S69.164,79,40.001,79L40.001,79z M40.001,0.986
		c-28.795,0-38.514,9.718-38.514,38.514c0,28.795,9.719,38.512,38.514,38.512c28.794,0,38.511-9.717,38.511-38.512
		C78.512,10.704,68.795,0.986,40.001,0.986L40.001,0.986z"/>
	<path style="opacity:0.3;" d="M58.943,26.387H47.855v-6.468c0-0.923-0.928-1.848-1.85-1.848H21.057
		c-0.923,0-1.846,0.925-1.846,1.848v18.479c0,0.924,0.923,1.848,1.846,1.848h7.393v10.163c0,0.924,0.926,1.849,1.85,1.849h13.859
		v6.468c0,0,0,0.925,0.918,0.925c0.93,0,5.549-7.393,5.549-7.393h8.318c0.922,0,1.846-0.925,1.846-1.849V28.234
		C60.789,27.311,59.865,26.387,58.943,26.387z M47.562,49.898H31.688v-25.75h15.875V49.898z"/>
	<rect x="31.688" y="24.773" style="opacity:0.06;" width="15.875" height="25.125"/>
	<path style="fill:#FFFFFF;" d="M58.943,27.809H47.855v-6.467c0-0.924-0.928-1.849-1.85-1.849H21.057
		c-0.923,0-1.846,0.925-1.846,1.849V39.82c0,0.924,0.923,1.849,1.846,1.849h7.393v10.163c0,0.924,0.926,1.848,1.85,1.848h13.859
		v6.467c0,0,0,0.925,0.918,0.925c0.93,0,5.549-7.392,5.549-7.392h8.318c0.922,0,1.846-0.924,1.846-1.848V29.657
		C60.789,28.734,59.865,27.809,58.943,27.809z M39.037,25.037c2.829,0,5.127,2.24,5.127,4.992c0,2.746-2.299,4.979-5.127,4.979
		c-2.834,0-5.142-2.232-5.142-4.979C33.895,27.277,36.203,25.037,39.037,25.037z M46.006,49.06H31.928v-6.486
		c0-3.347,3.155-6.072,7.035-6.072c3.882,0,7.041,2.726,7.042,6.072V49.06z"/>
</g>
</svg>
