<?xml version="1.0" encoding="iso-8859-1"?>
<!-- Generator: Adobe Illustrator 14.0.0, SVG Export Plug-In . SVG Version: 6.00 Build 43363)  -->
<!DOCTYPE svg PUBLIC "-//W3C//DTD SVG 1.1//EN" "http://www.w3.org/Graphics/SVG/1.1/DTD/svg11.dtd">
<svg version="1.1" id="icon-m-status-menu-wlan-layer"
	 xmlns="http://www.w3.org/2000/svg" xmlns:xlink="http://www.w3.org/1999/xlink" x="0px" y="0px" width="48px" height="48px"
	 viewBox="0 0 48 48" style="enable-background:new 0 0 48 48;" xml:space="preserve">
<g id="icon-m-status-menu-wlan">
	<rect style="fill:none;" width="48" height="48"/>
	<g>
		<g id="_x34_8_local_4_">
			<circle id="local_5_" style="fill:#FFFFFF;" cx="24.123" cy="36.017" r="4.064"/>
		</g>
		<g>
			<path style="fill:#FFFFFF;" d="M33.229,27.896c-2.309-2.478-5.589-4.036-9.232-4.036c-3.583,0-6.815,1.506-9.118,3.911
				c0,0-0.282,0.297-0.282,0.76c0,0.632,0.514,1.142,1.146,1.142c0.363,0,0.673-0.179,0.883-0.442
				c1.884-1.908,4.485-3.107,7.368-3.111h0.005c2.986,0.004,5.672,1.29,7.57,3.319c0.208,0.299,0.534,0.507,0.924,0.507
				c0.634,0,1.146-0.514,1.146-1.146C33.639,28.438,33.229,27.896,33.229,27.896z"/>
			<path style="fill:#FFFFFF;" d="M38.676,21.866c-3.764-3.773-8.941-6.133-14.677-6.135c-5.824,0.002-11.088,2.42-14.865,6.294
				c0,0-0.395,0.321-0.395,0.866c0,0.633,0.513,1.146,1.145,1.146c0.348,0,0.647-0.162,0.858-0.408v0.003
				c3.368-3.468,8.063-5.634,13.254-5.644h0.003c5.252,0.01,9.994,2.234,13.369,5.767c0,0,0.299,0.282,0.816,0.282
				c0.633,0,1.146-0.514,1.146-1.146C39.329,22.438,39.048,22.156,38.676,21.866z"/>
			<path style="fill:#FFFFFF;" d="M44.728,16.397v-0.003c-0.001-0.003-0.003-0.003-0.005-0.005
				c-0.047-0.056-0.097-0.104-0.153-0.147c-5.247-5.327-12.529-8.642-20.574-8.645c-8.06,0.003-15.356,3.327-20.604,8.667
				C3.156,16.477,3,16.771,3,17.113c0,0.632,0.513,1.146,1.146,1.146c0.563,0,0.853-0.369,0.853-0.369
				c4.841-4.937,11.565-8.018,18.994-8.032h0.004c7.492,0.015,14.263,3.151,19.111,8.157c0,0,0.357,0.244,0.747,0.244
				c0.633,0,1.146-0.515,1.146-1.146C45,16.839,44.891,16.595,44.728,16.397z"/>
		</g>
	</g>
</g>
</svg>
