<?xml version="1.0" encoding="iso-8859-1"?>
<!-- Generator: Adobe Illustrator 14.0.0, SVG Export Plug-In . SVG Version: 6.00 Build 43363)  -->
<!DOCTYPE svg PUBLIC "-//W3C//DTD SVG 1.1//EN" "http://www.w3.org/Graphics/SVG/1.1/DTD/svg11.dtd">
<svg version="1.1" id="icon-l-video-layer" xmlns="http://www.w3.org/2000/svg" xmlns:xlink="http://www.w3.org/1999/xlink" x="0px"
	 y="0px" width="80px" height="81px" viewBox="0 0 80 81" style="enable-background:new 0 0 80 81;" xml:space="preserve">
<g id="icon-l-video_1_">
	<path style="fill:#EB2D7C;" d="M52.462,30.61c-9.136,0-16.54,7.403-16.54,16.538s7.404,16.54,16.54,16.54
		c9.135,0,16.538-7.405,16.538-16.54S61.597,30.61,52.462,30.61z M61.482,47.991l-12.626,7.362
		c-0.793,0.464-1.441,0.091-1.441-0.828V39.771c0-0.915,0.648-1.291,1.441-0.827l12.626,7.366
		C62.275,46.771,62.275,47.528,61.482,47.991z M30.422,47.148c0-0.151,0.008-0.3,0.013-0.453L26.192,46.7v-0.029h-0.015V28.458
		h0.015v-0.029H40.85c1.501-0.935,3.124-1.692,4.835-2.247h-0.342c-0.502,0-0.909-1.219-0.909-1.718v-3.626
		c0-0.498,0.407-0.905,0.909-0.905h3.626c0.496,0,0.903,0.407,0.903,0.905v3.626c0,0.202-0.066,0.52-0.179,0.827
		c0.906-0.113,1.83-0.182,2.769-0.182c1.369,0,2.711,0.134,4.015,0.375c-0.158-0.362-0.256-0.775-0.256-1.021v-3.626
		c0-0.498,0.408-0.905,0.907-0.905h2.44v-3.614H11v3.572v0.042h2.463c0.495,0,0.904,0.407,0.904,0.905v3.586
		c0,0.496-0.409,1.715-0.904,1.715H11v0.043v2.247v0.029h10.625v18.213H11V46.7v3.008v0.041h2.463c0.495,0,0.904,0.41,0.904,0.906
		v3.584c0,0.498-0.409,0.907-0.904,0.907H11v0.043v2.864h22.322C31.479,54.835,30.422,51.114,30.422,47.148z M32.611,20.838
		c0-0.498,0.41-0.905,0.906-0.905h3.628c0.499,0,0.905,0.407,0.905,0.905v3.626c0,0.499-0.406,1.718-0.905,1.718h-3.628
		c-0.496,0-0.906-1.219-0.906-1.718V20.838z M20.753,24.424v-3.586c0-0.498,0.406-0.905,0.904-0.905h3.624
		c0.502,0,0.911,0.407,0.911,0.905v3.586c0,0.496-0.409,1.715-0.911,1.715h-3.624C21.159,26.139,20.753,24.92,20.753,24.424z
		 M26.192,54.239c0,0.498-0.409,0.907-0.911,0.907h-3.624c-0.498,0-0.904-0.409-0.904-0.907v-3.584c0-0.496,0.406-0.906,0.904-0.906
		h3.624c0.502,0,0.911,0.41,0.911,0.906V54.239z M59.568,26.182v0.111c-0.109-0.037-0.219-0.076-0.332-0.111H59.568z"/>
	<rect style="fill:none;" width="80" height="80.001"/>
</g>
</svg>
