<?xml version="1.0" encoding="iso-8859-1"?>
<!-- Generator: Adobe Illustrator 14.0.0, SVG Export Plug-In . SVG Version: 6.00 Build 43363)  -->
<!DOCTYPE svg PUBLIC "-//W3C//DTD SVG 1.1//EN" "http://www.w3.org/Graphics/SVG/1.1/DTD/svg11.dtd">
<svg version="1.1" id="icon-l-calendar-layer" xmlns="http://www.w3.org/2000/svg" xmlns:xlink="http://www.w3.org/1999/xlink"
	 x="0px" y="0px" width="80px" height="80px" viewBox="0 0 80 80" style="enable-background:new 0 0 80 80;" xml:space="preserve">
<g id="icon-l-calendar_1_">
	<rect style="fill:none;" width="80" height="80"/>
	<path id="_x31__pixel_shadow_6_" style="opacity:0.4;" d="M58.207,77.144c-0.089,0.025-0.182,0.046-0.271,0.068
		c-0.497,0.134-1,0.262-1.52,0.381c-0.521,0.117-1.06,0.226-1.604,0.332c-0.112,0.019-0.219,0.045-0.331,0.066
		c-4.176,0.772-8.979,1.132-14.479,1.132c-5.503,0-10.305-0.359-14.479-1.132c-0.114-0.021-0.219-0.048-0.33-0.066
		c-0.545-0.106-1.085-0.215-1.606-0.332c-0.52-0.119-1.021-0.247-1.519-0.381c-0.09-0.022-0.184-0.043-0.271-0.068
		C6.457,72.989,0.592,61.873,0.506,40.097c0,0.164-0.006,0.314-0.006,0.479C0.5,69.838,10.735,80,40.002,80
		C69.267,80,79.5,69.838,79.5,40.575c0-0.164-0.002-0.314-0.004-0.479C79.411,61.873,73.545,72.989,58.207,77.144"/>
	<path id="flat_colour_squircle_7_" style="fill:#C51E14;" d="M79.5,39.57c0,29.267-10.233,39.501-39.499,39.501
		C10.733,79.071,0.5,68.837,0.5,39.57c0-29.264,10.233-39.498,39.501-39.498C69.267,0.072,79.5,10.307,79.5,39.57"/>
	<linearGradient id="shine_top_layer_1_" gradientUnits="userSpaceOnUse" x1="39.9995" y1="0" x2="39.9995" y2="79.0005">
		<stop  offset="0" style="stop-color:#FFFFFF"/>
		<stop  offset="0.7362" style="stop-color:#FFFFFF;stop-opacity:0"/>
	</linearGradient>
	<path id="shine_top_layer_15_" style="opacity:0.15;fill:url(#shine_top_layer_1_);" d="M79.5,39.5C79.5,68.765,69.267,79,40,79
		C10.735,79,0.5,68.765,0.5,39.5S10.735,0,40,0C69.267,0,79.5,10.235,79.5,39.5z"/>
	<linearGradient id="top_edge_highlight_1_" gradientUnits="userSpaceOnUse" x1="47.7109" y1="-0.1699" x2="32.2889" y2="79.1698">
		<stop  offset="0" style="stop-color:#FFFFFF"/>
		<stop  offset="0.1117" style="stop-color:#EBEBEB"/>
		<stop  offset="0.3969" style="stop-color:#BDBDBD"/>
		<stop  offset="0.6503" style="stop-color:#9B9B9B"/>
		<stop  offset="0.86" style="stop-color:#878787"/>
		<stop  offset="1" style="stop-color:#808080"/>
	</linearGradient>
	<path id="top_edge_highlight_6_" style="opacity:0.25;fill:url(#top_edge_highlight_1_);" d="M40.001,79
		C10.837,79,0.5,68.663,0.5,39.5C0.5,10.336,10.837,0,40.001,0C69.164,0,79.5,10.336,79.5,39.5C79.5,68.663,69.164,79,40.001,79
		L40.001,79z M40.001,0.986c-28.795,0-38.514,9.719-38.514,38.514c0,28.794,9.719,38.513,38.514,38.513
		c28.794,0,38.512-9.719,38.512-38.513C78.513,10.705,68.795,0.986,40.001,0.986L40.001,0.986z"/>
	<rect x="25.658" y="32.095" style="opacity:0.12;" width="28.625" height="20.75"/>
	<path style="opacity:0.3;" d="M61.189,31.095v-3.86h-0.011v-6.076c0-1.149-0.939-2.086-2.089-2.086h-5.092
		c-0.229,0.029-0.58,0.124-0.822,0.43c-0.229,0.286-0.188,0.699-0.137,0.945l0.36,0.627l1.342,2.325
		c0.062,0.21,0.094,0.483-0.021,0.767c-0.123,0.318-0.459,0.484-0.699,0.568h-2.73h-2.706c-0.242-0.084-0.576-0.25-0.701-0.568
		c-0.135-0.337-0.066-0.66,0.016-0.878l1.277-2.214l0.324-0.562c0.058-0.236,0.128-0.702-0.121-1.011
		c-0.244-0.306-0.594-0.4-0.822-0.43H31.433c-0.23,0.029-0.582,0.124-0.826,0.43c-0.247,0.309-0.179,0.774-0.119,1.011l0.324,0.562
		l1.274,2.214c0.083,0.218,0.154,0.541,0.02,0.878c-0.124,0.318-0.462,0.484-0.7,0.568H28.7h-2.733
		c-0.242-0.084-0.575-0.25-0.699-0.568c-0.114-0.283-0.082-0.557-0.021-0.767l1.342-2.325l0.358-0.627
		c0.055-0.246,0.092-0.659-0.135-0.945c-0.242-0.306-0.592-0.4-0.823-0.43h-5.091c-1.149,0-2.088,0.937-2.088,2.086v6.076v0.291
		v3.569H61.189z"/>
	<path style="fill:#FFFFFF;" d="M61.179,28.756V22.68c0-1.149-0.939-2.088-2.089-2.088h-5.092c-0.229,0.03-0.58,0.125-0.822,0.43
		c-0.229,0.287-0.188,0.699-0.137,0.947l0.36,0.626l1.342,2.325c0.062,0.209,0.094,0.484-0.021,0.767
		c-0.123,0.317-0.459,0.485-0.699,0.567h-2.73h-2.706c-0.242-0.082-0.576-0.25-0.701-0.567c-0.135-0.337-0.066-0.658,0.016-0.877
		l1.277-2.215l0.324-0.562c0.058-0.235,0.128-0.701-0.121-1.012c-0.244-0.305-0.594-0.399-0.822-0.43H31.433
		c-0.23,0.03-0.582,0.125-0.826,0.43c-0.247,0.311-0.179,0.776-0.119,1.012l0.324,0.562l1.274,2.215
		c0.083,0.219,0.154,0.54,0.02,0.877c-0.124,0.317-0.462,0.485-0.7,0.567H28.7h-2.733c-0.242-0.082-0.575-0.25-0.699-0.567
		c-0.114-0.282-0.082-0.558-0.021-0.767l1.342-2.325l0.358-0.626c0.055-0.248,0.092-0.66-0.135-0.947
		c-0.242-0.305-0.592-0.399-0.823-0.43h-5.091c-1.149,0-2.088,0.938-2.088,2.088v6.076v0.291V54.71c0,2.95,2.413,5.362,5.36,5.362
		h31.655c2.95,0,5.363-2.412,5.363-5.362V28.756H61.179z M39.159,51.221h-11.38v-2.13h3.81V36.129l-3.81,0.816v-2.126l5.64-1.757
		h2.154v16.028h3.586V51.221z M52.644,51.221h-11.43v-1.582c0-3.638,2.374-5.966,4.675-7.892c1.559-1.313,2.522-2.254,2.522-3.786
		c0-1.658-0.815-2.572-2.77-2.572c-1.385,0-2.623,0.395-3.812,0.814v-2.449c1.584-0.469,3.192-0.741,4.826-0.741
		c3.613,0,5.839,1.463,5.839,4.799c0,2.675-1.485,4.083-3.588,5.861c-2.228,1.879-3.686,3.193-3.859,5.145h7.596V51.221z"/>
</g>
</svg>
