<?xml version="1.0" encoding="iso-8859-1"?>
<!-- Generator: Adobe Illustrator 14.0.0, SVG Export Plug-In . SVG Version: 6.00 Build 43363)  -->
<!DOCTYPE svg PUBLIC "-//W3C//DTD SVG 1.1//EN" "http://www.w3.org/Graphics/SVG/1.1/DTD/svg11.dtd">
<svg version="1.1" id="icon-m-camera-sound-recording-on-layer"
	 xmlns="http://www.w3.org/2000/svg" xmlns:xlink="http://www.w3.org/1999/xlink" x="0px" y="0px" width="32px" height="32px"
	 viewBox="0 0 32 32" style="enable-background:new 0 0 32 32;" xml:space="preserve">
<g id="icon-m-camera-sound-recording-on_1_">
	<rect style="fill:none;" width="32" height="32"/>
	<path style="fill:#333333;" d="M11.008,11.305l7.881,7.881l7.748-7.751c0.484-0.481,0.484-1.268,0-1.751l-6.125-6.131
		c-0.483-0.479-1.271-0.479-1.755,0L11.008,11.305z M15.087,9.405l1.5-1.499l5.7,5.699l-1.499,1.498L15.087,9.405z M15.169,18.651
		l-3.626-3.627l-7.588,8.415l2.798,2.799L15.169,18.651z M4.603,27.288l-1.703-1.704l-2.206,2.215L2.395,29.5L4.603,27.288z"/>
	<circle style="fill:#333333;" cx="25.802" cy="24.198" r="5.302"/>
</g>
</svg>
