<?xml version="1.0" encoding="iso-8859-1"?>
<!-- Generator: Adobe Illustrator 14.0.0, SVG Export Plug-In . SVG Version: 6.00 Build 43363)  -->
<!DOCTYPE svg PUBLIC "-//W3C//DTD SVG 1.1//EN" "http://www.w3.org/Graphics/SVG/1.1/DTD/svg11.dtd">
<svg version="1.1" id="icon-l-backup-layer" xmlns="http://www.w3.org/2000/svg" xmlns:xlink="http://www.w3.org/1999/xlink"
	 x="0px" y="0px" width="44px" height="44px" viewBox="0 0 44 44" style="enable-background:new 0 0 44 44;" xml:space="preserve">
<g id="icon-l-backup_1_">
	<path style="fill:#359FD9;" d="M0,2.19c0,8.737,0,32.148,0,39.428c0,2.191,2.19,2.191,2.19,2.191h39.429c0,0,2.189,0,2.189-2.191
		c0-8.738,0-32.149,0-39.429C43.809,0,41.619,0,41.619,0H2.19C2.19,0,0,0,0,2.19z M40.523,32.856h-4.381V27.38h4.381V32.856z
		 M40.523,16.428h-4.381v-5.477h4.381V16.428z M4.38,4.38h33.954v4.382h-4.381v9.856h4.381v6.57h-4.381v9.857h4.381v4.383H4.38V4.38
		z M25.91,18.808l3.098-3.099c3.1,3.099,3.1,9.293,0,12.391l-3.098-3.099C27.459,23.452,27.459,20.355,25.91,18.808z M25.91,12.61
		l-3.098,3.099c-1.548-1.549-4.646-1.549-6.196,0l-3.098-3.099C16.618,9.514,22.812,9.513,25.91,12.61z M22.812,28.1l3.098,3.098
		c-3.098,3.098-9.293,3.098-12.391,0.001l3.098-3.099C18.166,29.649,21.263,29.649,22.812,28.1z M13.519,25.002L10.421,28.1
		c-3.098-3.098-3.097-9.292,0-12.391l3.098,3.099C11.971,20.355,11.971,23.454,13.519,25.002z"/>
</g>
</svg>
