<?xml version="1.0" encoding="iso-8859-1"?>
<!-- Generator: Adobe Illustrator 14.0.0, SVG Export Plug-In . SVG Version: 6.00 Build 43363)  -->
<!DOCTYPE svg PUBLIC "-//W3C//DTD SVG 1.1//EN" "http://www.w3.org/Graphics/SVG/1.1/DTD/svg11.dtd">
<svg version="1.1" id="icon-l-rss-layer" xmlns="http://www.w3.org/2000/svg" xmlns:xlink="http://www.w3.org/1999/xlink" x="0px"
	 y="0px" width="80px" height="80px" viewBox="0 0 80 80" style="enable-background:new 0 0 80 80;" xml:space="preserve">
<g id="icon-l-rss_1_">
	<rect style="fill:none;" width="80" height="80"/>
	<path id="_x31__pixel_shadow_22_" style="opacity:0.4;" d="M58.207,77.145c-0.089,0.025-0.182,0.045-0.271,0.07
		c-0.497,0.133-1,0.26-1.52,0.377c-0.521,0.119-1.06,0.229-1.604,0.332c-0.112,0.021-0.219,0.047-0.331,0.068
		c-4.176,0.773-8.979,1.131-14.479,1.131c-5.503,0-10.305-0.357-14.479-1.131c-0.114-0.021-0.219-0.047-0.33-0.068
		c-0.545-0.104-1.085-0.213-1.606-0.332c-0.52-0.117-1.021-0.244-1.519-0.377c-0.09-0.025-0.184-0.045-0.271-0.07
		C6.457,72.99,0.592,61.875,0.506,40.098c0,0.162-0.006,0.314-0.006,0.477C0.5,69.84,10.735,80,40.002,80
		C69.267,80,79.5,69.84,79.5,40.574c0-0.162-0.002-0.314-0.004-0.477C79.411,61.875,73.545,72.99,58.207,77.145"/>
	<path id="flat_colour_squircle_23_" style="fill:#FF6F14;" d="M79.5,39.571c0,29.267-10.233,39.501-39.499,39.501
		C10.733,79.072,0.5,68.838,0.5,39.571c0-29.263,10.233-39.499,39.501-39.499C69.267,0.072,79.5,10.309,79.5,39.571"/>
	<linearGradient id="shine_top_layer_1_" gradientUnits="userSpaceOnUse" x1="39.9995" y1="0" x2="39.9995" y2="79.0005">
		<stop  offset="0" style="stop-color:#FFFFFF"/>
		<stop  offset="0.7362" style="stop-color:#FFFFFF;stop-opacity:0"/>
	</linearGradient>
	<path id="shine_top_layer_18_" style="opacity:0.2;fill:url(#shine_top_layer_1_);" d="M79.5,39.5C79.5,68.766,69.267,79,40,79
		C10.735,79,0.5,68.766,0.5,39.5C0.5,10.236,10.735,0,40,0C69.267,0,79.5,10.236,79.5,39.5z"/>
	<linearGradient id="top_edge_highlight_1_" gradientUnits="userSpaceOnUse" x1="47.7109" y1="-0.1699" x2="32.2889" y2="79.1698">
		<stop  offset="0" style="stop-color:#FFFFFF"/>
		<stop  offset="0.1117" style="stop-color:#EBEBEB"/>
		<stop  offset="0.3969" style="stop-color:#BDBDBD"/>
		<stop  offset="0.6503" style="stop-color:#9B9B9B"/>
		<stop  offset="0.86" style="stop-color:#878787"/>
		<stop  offset="1" style="stop-color:#808080"/>
	</linearGradient>
	<path id="top_edge_highlight_22_" style="opacity:0.25;fill:url(#top_edge_highlight_1_);" d="M40.001,79
		C10.837,79,0.5,68.664,0.5,39.499C0.5,10.336,10.837,0,40.001,0C69.164,0,79.5,10.336,79.5,39.499C79.5,68.664,69.164,79,40.001,79
		L40.001,79z M40.001,0.988c-28.795,0-38.514,9.717-38.514,38.511c0,28.796,9.719,38.513,38.514,38.513
		c28.794,0,38.512-9.717,38.512-38.513C78.513,10.705,68.795,0.988,40.001,0.988L40.001,0.988z"/>
	<path style="opacity:0.3;fill:#231F20;" d="M25.087,59.146c-2.965,0-5.377-2.414-5.377-5.379s2.412-5.375,5.377-5.375
		c2.967,0,5.379,2.41,5.379,5.375S28.054,59.146,25.087,59.146z M38.288,58.168c0-9.715-7.878-17.598-17.597-17.598v-6.598
		c13.366,0,24.199,10.832,24.199,24.195H38.288z M53.688,58.168c0-18.222-14.775-32.994-32.996-32.994v-6.602
		c21.866,0,39.599,17.729,39.599,39.596H53.688z"/>
	<path style="fill:#FFFFFF;" d="M25.087,60.572c-2.965,0-5.377-2.414-5.377-5.379s2.412-5.377,5.377-5.377
		c2.967,0,5.379,2.412,5.379,5.377S28.054,60.572,25.087,60.572z M38.288,59.594c0-9.713-7.878-17.598-17.597-17.598v-6.598
		c13.366,0,24.199,10.834,24.199,24.195H38.288z M53.688,59.594c0-18.221-14.775-32.992-32.996-32.992v-6.603
		c21.866,0,39.599,17.728,39.599,39.595H53.688z"/>
</g>
</svg>
