<?xml version="1.0" encoding="iso-8859-1"?>
<!-- Generator: Adobe Illustrator 14.0.0, SVG Export Plug-In . SVG Version: 6.00 Build 43363)  -->
<!DOCTYPE svg PUBLIC "-//W3C//DTD SVG 1.1//EN" "http://www.w3.org/Graphics/SVG/1.1/DTD/svg11.dtd">
<svg version="1.1" id="icon-m-common-35g-layer" xmlns="http://www.w3.org/2000/svg" xmlns:xlink="http://www.w3.org/1999/xlink"
	 x="0px" y="0px" width="64px" height="64px" viewBox="0 0 64 64" style="enable-background:new 0 0 64 64;" xml:space="preserve">
<g id="icon-m-common-35g">
	<rect style="fill:none;" width="64" height="64"/>
	<path style="fill:#333333;" d="M10.962,17.926c-2.346,0-4.793,0.611-7.241,1.275v-4.947c2.651-0.662,5.762-1.224,8.924-1.224
		c6.986,0,12.035,2.346,12.035,9.229c0,4.335-2.397,7.293-6.731,8.619c4.793,0.867,7.394,4.131,7.394,8.669
		c0,8.159-5.15,11.423-14.176,11.423c-3.009,0-5.661-0.408-8.567-1.174v-4.945c3.06,0.713,5.457,1.224,7.751,1.224
		c4.691,0,6.527-2.244,6.527-6.374c0-5.457-3.162-6.426-11.015-6.426v-4.691c7.547,0,10.556-0.816,10.556-5.763
		C16.419,19.507,14.583,17.926,10.962,17.926z"/>
	<path style="fill:#333333;" d="M33.556,50.971c-2.499,0-4.488-1.989-4.488-4.488c0-2.498,1.989-4.538,4.488-4.538
		s4.538,2.04,4.538,4.538C38.094,48.981,36.055,50.971,33.556,50.971z"/>
	<path style="fill:#333333;" d="M50.18,26.748c0.664-0.102,1.479-0.102,2.244-0.102c7.19,0,11.576,3.926,11.576,11.729
		c0,8.465-4.336,12.596-13.82,12.596c-3.008,0-6.018-0.459-8.72-1.122v-4.997c2.55,0.662,4.845,1.224,7.241,1.224
		c4.896,0,6.834-2.448,6.834-7.445c0-4.335-2.244-6.936-7.496-6.936c-1.633,0-3.825,0.052-5.406,0.255V13.438h19.939v4.896H50.18
		V26.748z"/>
</g>
</svg>
