<?xml version="1.0" encoding="iso-8859-1"?>
<!-- Generator: Adobe Illustrator 14.0.0, SVG Export Plug-In . SVG Version: 6.00 Build 43363)  -->
<!DOCTYPE svg PUBLIC "-//W3C//DTD SVG 1.1//EN" "http://www.w3.org/Graphics/SVG/1.1/DTD/svg11.dtd">
<svg version="1.1" id="icon-l-video-layer" xmlns="http://www.w3.org/2000/svg" xmlns:xlink="http://www.w3.org/1999/xlink" x="0px"
	 y="0px" width="80px" height="81px" viewBox="0 0 80 81" style="enable-background:new 0 0 80 81;" xml:space="preserve">
<g id="icon-l-video_1_">
	<rect style="fill:none;" width="80" height="80.002"/>
	<path style="fill:#EB2D7C;" d="M64.262,20.059H67V16H12.509v4.01v0.049h2.765c0.557,0,1.016,0.457,1.016,1.016v4.021
		c0,0.559-0.459,1.924-1.016,1.924h-2.765v0.049v2.521v0.034h11.92v20.434h-11.92v0.033v3.373v0.049h2.765
		c0.557,0,1.016,0.457,1.016,1.016v4.021c0,0.559-0.459,1.016-1.016,1.016h-2.765v0.049v3.215H67v-3.264h-2.738
		c-0.56,0-1.018-0.457-1.018-1.016V54.48c0-0.561,0.458-1.018,1.018-1.018H67v-3.406h-2.555V29.623H67v-2.555h-2.738
		c-0.56,0-1.018-1.365-1.018-1.927v-4.067C63.244,20.516,63.702,20.059,64.262,20.059z M50.021,21.074
		c0-0.559,0.458-1.016,1.019-1.016h4.068c0.557,0,1.016,0.457,1.016,1.016v4.067c0,0.562-0.459,1.927-1.016,1.927H51.04
		c-0.561,0-1.019-1.365-1.019-1.927V21.074z M36.757,21.074c0-0.559,0.459-1.016,1.019-1.016h4.068c0.561,0,1.015,0.457,1.015,1.016
		v4.067c0,0.562-0.454,1.927-1.015,1.927h-4.068c-0.56,0-1.019-1.365-1.019-1.927V21.074z M29.554,58.549
		c0,0.559-0.457,1.016-1.019,1.016h-4.067c-0.56,0-1.017-0.457-1.017-1.016v-4.021c0-0.559,0.457-1.016,1.017-1.016h4.067
		c0.562,0,1.019,0.457,1.019,1.016V58.549z M29.554,25.096c0,0.559-0.457,1.924-1.019,1.924h-4.067c-0.56,0-1.017-1.365-1.017-1.924
		v-4.021c0-0.559,0.457-1.016,1.017-1.016h4.067c0.562,0,1.019,0.457,1.019,1.016V25.096z M42.858,58.549
		c0,0.559-0.454,1.016-1.015,1.016h-4.068c-0.56,0-1.019-0.457-1.019-1.016V54.48c0-0.561,0.459-1.018,1.019-1.018h4.068
		c0.561,0,1.015,0.457,1.015,1.018V58.549z M56.124,58.549c0,0.559-0.459,1.016-1.016,1.016H51.04c-0.561,0-1.019-0.457-1.019-1.016
		V54.48c0-0.561,0.458-1.018,1.019-1.018h4.068c0.557,0,1.016,0.457,1.016,1.018V58.549z M58.486,50.057L29.554,50.09v-0.033h-0.017
		V29.623h0.017v-0.034h28.933V50.057z"/>
</g>
</svg>
