<?xml version="1.0" encoding="iso-8859-1"?>
<!-- Generator: Adobe Illustrator 14.0.0, SVG Export Plug-In . SVG Version: 6.00 Build 43363)  -->
<!DOCTYPE svg PUBLIC "-//W3C//DTD SVG 1.1//EN" "http://www.w3.org/Graphics/SVG/1.1/DTD/svg11.dtd">
<svg version="1.1" id="icon-m-content-game-layer" xmlns="http://www.w3.org/2000/svg" xmlns:xlink="http://www.w3.org/1999/xlink"
	 x="0px" y="0px" width="64px" height="64px" viewBox="0 0 64 64" style="enable-background:new 0 0 64 64;" xml:space="preserve">
<g id="icon-m-content-game">
	<rect style="fill:none;" width="64" height="64"/>
	<path style="fill:#333333;" d="M63.462,44.812c0-0.012,0.018-0.033,0.018-0.045c-0.094-1.389-2.248-24.997-2.248-24.997
		l-0.055,0.006c-0.058-0.362-0.107-0.728-0.191-1.089c-1.564-6.96-8.418-11.318-15.309-9.733c-3.127,0.719-5.713,2.544-7.468,4.968
		H25.793c-1.753-2.424-4.341-4.249-7.468-4.968c-6.889-1.585-13.744,2.773-15.307,9.733c-0.082,0.361-0.139,0.727-0.192,1.089
		l-0.054-0.006c0,0-2.155,23.608-2.249,24.997c0,0.012,0.017,0.033,0.017,0.045c-0.424,4.761,2.648,9.225,7.385,10.316
		c4.75,1.091,9.443-1.61,11.082-6.103l0.157-0.116l6.112-16.088c0.832-1.763,3.393-3.055,6.461-3.055
		c0.073,0,0.143,0.006,0.212,0.009v0.007c0.019,0,0.034-0.002,0.051-0.002s0.034,0.002,0.053,0.002v-0.007
		c0.071-0.003,0.139-0.009,0.212-0.009c3.067,0,5.629,1.292,6.461,3.055l6.113,16.088l0.153,0.116
		c1.642,4.492,6.333,7.193,11.084,6.103C60.815,54.037,63.888,49.573,63.462,44.812z M14.759,29.804c-3.893,0-7.05-3.185-7.05-7.113
		c0-3.925,3.158-7.112,7.05-7.112c3.891,0,7.049,3.188,7.049,7.112C21.808,26.619,18.649,29.804,14.759,29.804z M37.035,22.475
		c0,1.402-1.128,2.541-2.519,2.541h-5.034c-1.388,0-2.519-1.139-2.519-2.541v-1.018c0-1.4,1.131-2.539,2.519-2.539h5.034
		c1.391,0,2.519,1.139,2.519,2.539V22.475z M49.242,29.804c-3.891,0-7.048-3.185-7.048-7.113c0-3.925,3.157-7.112,7.048-7.112
		c3.894,0,7.053,3.188,7.053,7.112C56.295,26.619,53.136,29.804,49.242,29.804z"/>
</g>
</svg>
