<?xml version="1.0" encoding="iso-8859-1"?>
<!-- Generator: Adobe Illustrator 14.0.0, SVG Export Plug-In . SVG Version: 6.00 Build 43363)  -->
<!DOCTYPE svg PUBLIC "-//W3C//DTD SVG 1.1//EN" "http://www.w3.org/Graphics/SVG/1.1/DTD/svg11.dtd">
<svg version="1.1" id="icon-m-camera-video-record-layer"
	 xmlns="http://www.w3.org/2000/svg" xmlns:xlink="http://www.w3.org/1999/xlink" x="0px" y="0px" width="40px" height="40px"
	 viewBox="0 0 40 40" style="enable-background:new 0 0 40 40;" xml:space="preserve">
<g id="icon-m-camera-video-record">
	<rect style="fill:none;" width="40" height="40"/>
	<path style="fill:#ED1D37;" d="M10,15.625v3.75c1.25,0,2.5-1.248,2.5-1.875C12.5,16.25,11.25,15.625,10,15.625z"/>
	<path style="fill:#ED1D37;" d="M19.886,0.71C9.204,0.71,0.625,9.401,0.625,20.085s8.579,19.29,19.261,19.29
		c10.685,0,19.489-8.606,19.489-19.29S30.57,0.71,19.886,0.71z M13.125,26.875l-2.5-5.625l0,0H10v5.625H7.5V13.688l3.75,0.062
		c1.347,0,2.388,0.125,3.066,0.758c0.69,0.646,1.037,1.615,1.037,2.878c0,0.919-0.224,1.719-0.667,2.376
		c-0.327,0.489-0.765,0.873-1.31,1.152l2.875,5.961H13.125z M24.375,26.875H17.5V13.688l6.875,0.062v2.5H20v2.438l3.75,0.062v2.5H20
		v3.062l4.375,0.062V26.875z M32.5,16.25c0,0-1.25-0.625-2.316-0.428c-0.67,0.124-1.16,0.273-1.501,0.865
		c-0.396,0.683-0.558,1.868-0.558,3.312c0,1.578,0.172,2.648,0.582,3.396c0.357,0.646,0.854,0.949,1.557,0.949
		c0.451,0,0.925-0.074,1.406-0.219l0.83-0.377v2.5l-0.494,0.215c-0.665,0.185-1.338,0.276-2.002,0.276
		c-1.635,0-2.892-0.581-3.737-1.724C25.456,23.913,25,22.305,25,20c0-2.061,0.476-3.714,1.283-4.819
		c0.852-1.164,2.11-1.753,3.748-1.753c0.723,0,2.469,0.322,2.469,0.322V16.25z"/>
</g>
</svg>
