<?xml version="1.0" encoding="iso-8859-1"?>
<!-- Generator: Adobe Illustrator 14.0.0, SVG Export Plug-In . SVG Version: 6.00 Build 43363)  -->
<!DOCTYPE svg PUBLIC "-//W3C//DTD SVG 1.1//EN" "http://www.w3.org/Graphics/SVG/1.1/DTD/svg11.dtd">
<svg version="1.1" id="icon-l-games-layer" xmlns="http://www.w3.org/2000/svg" xmlns:xlink="http://www.w3.org/1999/xlink" x="0px"
	 y="0px" width="46px" height="34px" viewBox="0 0 46 34" style="enable-background:new 0 0 46 34;" xml:space="preserve">
<g id="icon-l-games_1_">
	<path style="fill:#EB2D7C;" d="M45.973,26.845c0-0.009,0.012-0.025,0.012-0.033c-0.067-0.99-1.605-17.854-1.605-17.854L44.34,8.961
		c-0.041-0.259-0.077-0.519-0.137-0.775c-1.118-4.973-6.013-8.085-10.935-6.953c-2.234,0.512-4.081,1.815-5.335,3.548h-8.868
		c-1.252-1.732-3.101-3.036-5.334-3.548C8.811,0.101,3.914,3.213,2.798,8.186C2.739,8.442,2.699,8.702,2.661,8.961L2.622,8.958
		c0,0-1.538,16.863-1.606,17.854c0,0.008,0.012,0.024,0.012,0.033c-0.303,3.4,1.892,6.59,5.274,7.368
		c3.393,0.78,6.746-1.149,7.916-4.359l0.112-0.081l4.366-11.492c0.595-1.26,2.424-2.183,4.616-2.183
		c0.052,0,0.102,0.004,0.151,0.007v0.005c0.013,0,0.024-0.003,0.036-0.003c0.013,0,0.024,0.003,0.038,0.003v-0.005
		c0.051-0.003,0.099-0.007,0.15-0.007c2.191,0,4.021,0.923,4.615,2.183l4.367,11.492l0.11,0.081c1.172,3.21,4.522,5.14,7.917,4.359
		C44.081,33.435,46.275,30.245,45.973,26.845z M11.184,16.123c-2.781,0-5.036-2.274-5.036-5.08c0-2.805,2.255-5.081,5.036-5.081
		c2.779,0,5.035,2.276,5.035,5.081C16.219,13.849,13.963,16.123,11.184,16.123z M27.097,10.89c0,1-0.807,1.813-1.8,1.813h-3.596
		c-0.991,0-1.799-0.813-1.799-1.813v-0.727c0-1.002,0.809-1.813,1.799-1.813h3.596c0.993,0,1.8,0.812,1.8,1.813V10.89z
		 M35.816,16.123c-2.78,0-5.036-2.274-5.036-5.08c0-2.805,2.256-5.081,5.036-5.081c2.779,0,5.036,2.276,5.036,5.081
		C40.853,13.849,38.596,16.123,35.816,16.123z"/>
</g>
</svg>
