<?xml version="1.0" encoding="iso-8859-1"?>
<!-- Generator: Adobe Illustrator 14.0.0, SVG Export Plug-In . SVG Version: 6.00 Build 43363)  -->
<!DOCTYPE svg PUBLIC "-//W3C//DTD SVG 1.1//EN" "http://www.w3.org/Graphics/SVG/1.1/DTD/svg11.dtd">
<svg version="1.1" id="icon-l-email-layer" xmlns="http://www.w3.org/2000/svg" xmlns:xlink="http://www.w3.org/1999/xlink" x="0px"
	 y="0px" width="46px" height="46px" viewBox="0 0 46 46" style="enable-background:new 0 0 46 46;" xml:space="preserve">
<g id="icon-l-email_1_">
	<path style="fill:#F78F20;" d="M40.021,5.692C36.223,1.895,30.888,0,24.011,0c-4.498,0-8.61,0.902-12.33,2.738
		c-3.72,1.824-6.602,4.438-8.624,7.846C1.015,14.005,0,18.021,0,22.654c0,7.419,2.179,13.106,6.54,17.085
		c4.352,3.984,10.232,5.976,17.637,5.976c1.838,0,3.94-0.202,6.351-0.575c2.381-0.39,4.344-0.861,5.817-1.4v-4.696
		c-4.07,1.36-7.985,2.032-11.7,2.032c-6.285,0-10.989-1.557-14.137-4.688c-3.15-3.104-4.712-7.783-4.712-14.001
		c0-5.563,1.703-9.931,5.133-13.068c3.403-3.158,7.796-4.736,13.203-4.736c5.145,0,9.131,1.5,11.949,4.498
		c2.815,3.009,4.211,7.215,4.211,12.649c0,3.084-0.409,5.477-1.266,7.17c-0.869,1.716-2.034,2.557-3.525,2.557
		c-1.155,0-1.97-0.346-2.458-1.002c-0.478-0.673-0.724-2.075-0.724-4.219c0-3.524,0.65-8.87,1.968-16.062h-8.093
		c-4.597,0-8.256,1.378-11.005,4.108c-2.732,2.734-4.116,6.496-4.116,11.317c0,3.083,0.805,5.51,2.368,7.322
		c1.582,1.795,3.511,2.699,5.779,2.699c3.39,0,6.064-1.736,8.037-5.166c0.46,1.619,1.333,2.894,2.574,3.787
		c1.238,0.936,2.687,1.379,4.349,1.379c3.578,0,6.416-1.244,8.459-3.707c2.064-2.44,3.075-5.912,3.075-10.422
		C45.715,14.762,43.821,9.49,40.021,5.692z M26.028,22.326c-0.753,6.053-2.346,9.067-4.792,9.067c-1.307,0-2.231-0.479-2.761-1.476
		c-0.537-1-0.797-2.522-0.797-4.593c0-3.343,0.73-5.983,2.162-7.949c1.465-1.978,3.217-2.955,5.238-2.955h1.96L26.028,22.326z"/>
</g>
</svg>
