<?xml version="1.0" encoding="iso-8859-1"?>
<!-- Generator: Adobe Illustrator 14.0.0, SVG Export Plug-In . SVG Version: 6.00 Build 43363)  -->
<!DOCTYPE svg PUBLIC "-//W3C//DTD SVG 1.1//EN" "http://www.w3.org/Graphics/SVG/1.1/DTD/svg11.dtd">
<svg version="1.1" id="icon-m-camera-shutter-layer"
	 xmlns="http://www.w3.org/2000/svg" xmlns:xlink="http://www.w3.org/1999/xlink" x="0px" y="0px" width="64px" height="64px"
	 viewBox="0 0 64 64" style="enable-background:new 0 0 64 64;" xml:space="preserve">
<g id="icon-m-camera-shutter">
	<rect style="fill:none;" width="64" height="64"/>
	<path style="fill:#333333;" d="M48.469,31.477l-0.027,0.045l9.623,16.727C61.184,43.412,63,37.658,63,31.477
		c0-2.94-0.418-5.78-1.184-8.477H43.572L48.469,31.477z"/>
	<path style="fill:#333333;" d="M30,18h30C55.957,10.23,48.232,4.102,39.541,1.93L30,18z"/>
	<path style="fill:#333333;" d="M18.857,26.137l14.49-25.103C32.899,1.016,32.452,1,32,1c-8.668,0-16.501,3.561-22.127,9.294
		L18.857,26.137z"/>
	<path style="fill:#333333;" d="M5.963,15.184C2.827,20.029,1,25.8,1,32c0,2.912,0.252,5.329,1,8h18L5.963,15.184z"/>
	<path style="fill:#333333;" d="M45.082,37.863l-4.848,8.394h-0.053l-9.644,16.707C31.022,62.986,31.51,63,32,63
		c8.689,0,16.541-3.58,22.17-9.342L45.082,37.863z"/>
	<path style="fill:#333333;" d="M34,46H4c4.021,7.779,11.68,13.848,20.355,16.049L34,46z"/>
</g>
</svg>
