<?xml version="1.0" encoding="iso-8859-1"?>
<!-- Generator: Adobe Illustrator 14.0.0, SVG Export Plug-In . SVG Version: 6.00 Build 43363)  -->
<!DOCTYPE svg PUBLIC "-//W3C//DTD SVG 1.1//EN" "http://www.w3.org/Graphics/SVG/1.1/DTD/svg11.dtd">
<svg version="1.1" id="icon-m-transfer-pause-layer"
	 xmlns="http://www.w3.org/2000/svg" xmlns:xlink="http://www.w3.org/1999/xlink" x="0px" y="0px" width="64px" height="64px"
	 viewBox="0 0 64 64" style="enable-background:new 0 0 64 64;" xml:space="preserve">
<g id="icon-m-transfer-pause">
	<rect style="fill:none;" width="64" height="64"/>
	<path style="fill:#333333;" d="M28.342,45.562H19.34V18.438h9.001V45.562z M44.659,45.562h-9V18.438h9V45.562z"/>
	<path style="fill:#333333;" d="M32,63C14.907,63,1,49.094,1,32S14.907,1,32,1c17.093,0,31,13.906,31,31S49.094,63,32,63L32,63z
		 M32,6.314C17.837,6.314,6.314,17.838,6.314,32S17.837,57.686,32,57.686c14.164,0,25.685-11.523,25.685-25.686
		S46.164,6.314,32,6.314L32,6.314z"/>
</g>
</svg>
