<?xml version="1.0" encoding="iso-8859-1"?>
<!-- Generator: Adobe Illustrator 14.0.0, SVG Export Plug-In . SVG Version: 6.00 Build 43363)  -->
<!DOCTYPE svg PUBLIC "-//W3C//DTD SVG 1.1//EN" "http://www.w3.org/Graphics/SVG/1.1/DTD/svg11.dtd">
<svg version="1.1" id="icon-l-help-layer" xmlns="http://www.w3.org/2000/svg" xmlns:xlink="http://www.w3.org/1999/xlink" x="0px"
	 y="0px" width="80px" height="80px" viewBox="0 0 80 80" style="enable-background:new 0 0 80 80;" xml:space="preserve">
<g id="icon-l-help_1_">
	<rect style="fill:none;" width="80" height="80"/>
	<path id="_x31__pixel_shadow_16_" style="opacity:0.4;" d="M58.207,77.145c-0.088,0.025-0.182,0.046-0.271,0.069
		c-0.496,0.133-1,0.26-1.52,0.378c-0.521,0.119-1.059,0.227-1.604,0.332c-0.113,0.02-0.219,0.047-0.332,0.067
		c-4.176,0.772-8.979,1.132-14.479,1.132c-5.503,0-10.305-0.359-14.479-1.132c-0.114-0.021-0.219-0.048-0.33-0.067
		c-0.545-0.105-1.085-0.213-1.606-0.332c-0.52-0.118-1.021-0.245-1.519-0.378c-0.09-0.023-0.184-0.044-0.271-0.069
		C6.457,72.99,0.592,61.875,0.506,40.098c0,0.162-0.006,0.313-0.006,0.477C0.5,69.84,10.735,80,40.002,80
		C69.268,80,79.5,69.84,79.5,40.574c0-0.163-0.002-0.314-0.004-0.477C79.412,61.875,73.545,72.99,58.207,77.145"/>
	<path id="flat_colour_squircle_17_" style="fill:#9095A2;" d="M79.5,39.571c0,29.267-10.232,39.501-39.5,39.501
		S0.5,68.838,0.5,39.571C0.5,10.309,10.733,0.072,40,0.072S79.5,10.309,79.5,39.571"/>
	<linearGradient id="shine_top_layer_1_" gradientUnits="userSpaceOnUse" x1="39.9995" y1="0" x2="39.9995" y2="79.0005">
		<stop  offset="0" style="stop-color:#FFFFFF"/>
		<stop  offset="0.7362" style="stop-color:#FFFFFF;stop-opacity:0"/>
	</linearGradient>
	<path id="shine_top_layer_2_" style="opacity:0.4;fill:url(#shine_top_layer_1_);" d="M79.5,39.5C79.5,68.766,69.266,79,40,79
		C10.736,79,0.5,68.766,0.5,39.5C0.5,10.235,10.736,0,40,0C69.266,0,79.5,10.235,79.5,39.5z"/>
	<linearGradient id="top_edge_highlight_1_" gradientUnits="userSpaceOnUse" x1="47.7109" y1="-0.1699" x2="32.2889" y2="79.1698">
		<stop  offset="0" style="stop-color:#FFFFFF"/>
		<stop  offset="0.1117" style="stop-color:#EBEBEB"/>
		<stop  offset="0.3969" style="stop-color:#BDBDBD"/>
		<stop  offset="0.6503" style="stop-color:#9B9B9B"/>
		<stop  offset="0.86" style="stop-color:#878787"/>
		<stop  offset="1" style="stop-color:#808080"/>
	</linearGradient>
	<path id="top_edge_highlight_16_" style="opacity:0.61;fill:url(#top_edge_highlight_1_);" d="M40,79
		C10.837,79,0.5,68.664,0.5,39.5S10.837,0,40,0s39.5,10.336,39.5,39.5S69.164,79,40,79L40,79z M40,0.986
		c-28.794,0-38.513,9.719-38.513,38.514S11.206,78.012,40,78.012S78.514,68.295,78.514,39.5S68.795,0.986,40,0.986L40,0.986z"/>
	<path style="opacity:0.3;" d="M22.332,37.619c0.66-9.182,8.321-16.456,17.668-16.456c9.346,0,17.01,7.274,17.668,16.456h4.117
		C61.123,26.159,51.623,17.072,40,17.072c-11.625,0-21.123,9.087-21.785,20.547H22.332z"/>
	<path style="opacity:0.1;" d="M40,18.424c-12.054,0-21.825,9.77-21.825,21.824c0,12.051,9.771,21.824,21.825,21.824
		c12.053,0,21.827-9.773,21.827-21.824C61.826,28.193,52.053,18.424,40,18.424z"/>
	<path style="fill:#FFFFFF;" d="M40,18.424c-12.054,0-21.825,9.77-21.825,21.824c0,12.051,9.771,21.824,21.825,21.824
		c12.053,0,21.827-9.773,21.827-21.824C61.826,28.193,52.053,18.424,40,18.424z M40,57.98c-9.778,0-17.732-7.957-17.732-17.732
		c0-9.778,7.954-17.732,17.732-17.732c9.778,0,17.733,7.954,17.733,17.732C57.732,50.023,49.777,57.98,40,57.98z M41.961,49.692
		c0,1.829-1.496,3.286-3.329,3.286c-1.828,0-3.287-1.457-3.287-3.286c0-1.831,1.459-3.323,3.287-3.323
		C40.465,46.369,41.961,47.861,41.961,49.692z M46.859,33.424c0,2.773-1.707,4.279-3.311,5.812
		c-1.639,1.538-2.338,2.338-2.338,3.708v1.37h-5.73v-1.604c0-2.307,1.136-3.676,2.873-5.277c1.271-1.168,2.34-2.171,2.34-3.74
		c0-1.938-1.27-2.972-3.376-2.972c-1.135,0-2.672,0.267-4.177,0.668v-3.204c1.57-0.369,4.025-0.67,5.796-0.67
		C43.217,27.516,46.859,28.951,46.859,33.424z"/>
</g>
</svg>
