<?xml version="1.0" encoding="iso-8859-1"?>
<!-- Generator: Adobe Illustrator 14.0.0, SVG Export Plug-In . SVG Version: 6.00 Build 43363)  -->
<!DOCTYPE svg PUBLIC "-//W3C//DTD SVG 1.1//EN" "http://www.w3.org/Graphics/SVG/1.1/DTD/svg11.dtd">
<svg version="1.1" id="icon-s-status-ovi-layer" xmlns="http://www.w3.org/2000/svg" xmlns:xlink="http://www.w3.org/1999/xlink"
	 x="0px" y="0px" width="18px" height="18px" viewBox="0 0 18 18" style="enable-background:new 0 0 18 18;" xml:space="preserve">
<g id="icon-s-status-ovi_1_">
	<rect style="fill:none;" width="18" height="18"/>
	<path style="fill:#FFFFFF;" d="M4.482,7.544c-1.063,0-1.147,1.292-1.147,2.284c0,1.016,0.047,2.57,1.147,2.57
		c1.099,0,1.159-1.387,1.159-2.57C5.642,8.907,5.499,7.544,4.482,7.544z"/>
	<path style="fill:#FFFFFF;" d="M16.978,0H1.022C0.46,0,0,0.46,0,1.022v15.955C0,17.54,0.46,18,1.022,18h15.955
		C17.54,18,18,17.54,18,16.978V1.022C18,0.46,17.54,0,16.978,0z M4.482,13.5c-2.332,0-3.132-1.604-3.132-3.635
		c0-2.011,1.088-3.421,3.157-3.421c2.14,0,3.12,1.423,3.12,3.468C7.627,12.052,6.634,13.5,4.482,13.5z M11.601,12.472
		c-0.239,0.634-0.497,1.028-1.337,1.028c-0.839,0-1.096-0.395-1.336-1.028L7.21,6.54h1.997l1.22,5.133l1.291-5.133h1.688
		L11.601,12.472z M16.086,12.621c0,0.176,0,0.496-0.271,0.688c-0.142,0.1-0.356,0.19-0.685,0.19c-0.315,0-0.537-0.092-0.679-0.19
		c-0.271-0.192-0.271-0.513-0.271-0.688V7.637c0,0-0.047,0-0.11,0c-0.183,0-0.333-0.001-0.44-0.144
		c-0.049-0.067-0.117-0.179-0.117-0.402c0-0.215,0.068-0.337,0.117-0.402c0.107-0.145,0.258-0.147,0.44-0.147
		c0.063,0,0.13-0.001,0.13-0.001h1.885V12.621z M15.148,5.82c-0.609,0-1.052-0.312-1.052-0.885c0-0.575,0.43-0.886,1.052-0.886
		c0.586,0,1.051,0.323,1.051,0.886C16.199,5.509,15.759,5.82,15.148,5.82z"/>
</g>
</svg>
