<?xml version="1.0" encoding="iso-8859-1"?>
<!-- Generator: Adobe Illustrator 14.0.0, SVG Export Plug-In . SVG Version: 6.00 Build 43363)  -->
<!DOCTYPE svg PUBLIC "-//W3C//DTD SVG 1.1//EN" "http://www.w3.org/Graphics/SVG/1.1/DTD/svg11.dtd">
<svg version="1.1" id="icon-m-common-camera-layer" xmlns="http://www.w3.org/2000/svg" xmlns:xlink="http://www.w3.org/1999/xlink"
	 x="0px" y="0px" width="64px" height="64px" viewBox="0 0 64 64" style="enable-background:new 0 0 64 64;" xml:space="preserve">
<g id="icon-m-common-camera">
	<rect style="fill:none;" width="64" height="64"/>
	<path style="fill:#333333;" d="M60.759,9.598H3.241c-1.752,0-3.195,1.443-3.195,3.199v38.402c0,1.759,1.443,3.203,3.195,3.203
		h57.518c1.752,0,3.195-1.444,3.195-3.203V12.797C63.954,11.041,62.511,9.598,60.759,9.598z M32,46.98
		c-7.94,0-14.38-6.459-14.38-14.404c0-7.953,6.44-14.399,14.38-14.399c7.944,0,14.379,6.446,14.379,14.399
		C46.379,40.524,39.944,46.98,32,46.98z M59.867,19.916H47.498v-6.193h12.369V19.916z"/>
</g>
</svg>
