<?xml version="1.0" encoding="iso-8859-1"?>
<!-- Generator: Adobe Illustrator 14.0.0, SVG Export Plug-In . SVG Version: 6.00 Build 43363)  -->
<!DOCTYPE svg PUBLIC "-//W3C//DTD SVG 1.1//EN" "http://www.w3.org/Graphics/SVG/1.1/DTD/svg11.dtd">
<svg version="1.1" id="icon-l-default-application-layer"
	 xmlns="http://www.w3.org/2000/svg" xmlns:xlink="http://www.w3.org/1999/xlink" x="0px" y="0px" width="80px" height="80px"
	 viewBox="0 0 80 80" style="enable-background:new 0 0 80 80;" xml:space="preserve">
<g id="icon-l-default-application">
	<rect style="fill:none;" width="80" height="80"/>
	<path id="_x31__pixel_shadow_10_" style="opacity:0.4;" d="M58.207,77.144c-0.089,0.026-0.182,0.046-0.271,0.069
		c-0.497,0.133-1,0.261-1.52,0.379c-0.521,0.118-1.06,0.227-1.604,0.332c-0.112,0.021-0.219,0.046-0.331,0.067
		c-4.176,0.772-8.979,1.132-14.479,1.132c-5.503,0-10.305-0.359-14.479-1.132c-0.114-0.021-0.219-0.047-0.33-0.067
		c-0.545-0.105-1.085-0.214-1.606-0.332c-0.52-0.118-1.021-0.246-1.519-0.379c-0.09-0.023-0.184-0.043-0.271-0.069
		C6.457,72.99,0.592,61.873,0.506,40.098c0,0.162-0.006,0.313-0.006,0.477C0.5,69.838,10.735,80,40.002,80
		C69.267,80,79.5,69.838,79.5,40.574c0-0.163-0.002-0.314-0.004-0.477C79.411,61.873,73.545,72.99,58.207,77.144"/>
	<path id="flat_colour_squircle_11_" style="fill:#539D03;" d="M79.5,39.57c0,29.267-10.233,39.502-39.499,39.502
		C10.733,79.072,0.5,68.837,0.5,39.57c0-29.264,10.233-39.498,39.501-39.498C69.267,0.072,79.5,10.307,79.5,39.57"/>
	<linearGradient id="shine_top_layer_1_" gradientUnits="userSpaceOnUse" x1="39.9995" y1="0" x2="39.9995" y2="79.0005">
		<stop  offset="0" style="stop-color:#FFFFFF"/>
		<stop  offset="0.7362" style="stop-color:#FFFFFF;stop-opacity:0"/>
	</linearGradient>
	<path id="shine_top_layer_24_" style="opacity:0.15;fill:url(#shine_top_layer_1_);" d="M79.5,39.5C79.5,68.766,69.266,79,40,79
		C10.735,79,0.5,68.766,0.5,39.5S10.735,0,40,0C69.266,0,79.5,10.234,79.5,39.5z"/>
	<linearGradient id="top_edge_highlight_1_" gradientUnits="userSpaceOnUse" x1="47.7109" y1="-0.1699" x2="32.2889" y2="79.1698">
		<stop  offset="0" style="stop-color:#FFFFFF"/>
		<stop  offset="0.1117" style="stop-color:#EBEBEB"/>
		<stop  offset="0.3969" style="stop-color:#BDBDBD"/>
		<stop  offset="0.6503" style="stop-color:#9B9B9B"/>
		<stop  offset="0.86" style="stop-color:#878787"/>
		<stop  offset="1" style="stop-color:#808080"/>
	</linearGradient>
	<path id="top_edge_highlight_10_" style="opacity:0.25;fill:url(#top_edge_highlight_1_);" d="M40.001,79
		C10.837,79,0.5,68.664,0.5,39.499C0.5,10.336,10.837,0,40.001,0C69.164,0,79.5,10.336,79.5,39.499C79.5,68.664,69.164,79,40.001,79
		L40.001,79z M40.001,0.986c-28.795,0-38.514,9.719-38.514,38.513c0,28.795,9.719,38.513,38.514,38.513
		c28.794,0,38.512-9.718,38.512-38.513C78.513,10.705,68.795,0.986,40.001,0.986L40.001,0.986z"/>
	<path id="icon-l-default-application_6_" style="opacity:0.3;" d="M40.521,18.925l-1.046-0.003C23.48,18.922,20,25.949,20,38.895
		c0,12.977,3.577,20.024,19.476,20.024l1.046,0.003C56.518,58.922,60,51.898,60,38.951C60,25.973,56.421,18.925,40.521,18.925z"/>
	<path id="icon-l-default-application_5_" style="fill:#FFFFFF;" d="M40.521,20.225l-1.046-0.003C23.48,20.222,20,27.248,20,40.195
		c0,12.977,3.577,20.024,19.476,20.024l1.046,0.002C56.518,60.222,60,53.199,60,40.251C60,27.272,56.421,20.225,40.521,20.225z"/>
</g>
</svg>
