<?xml version="1.0" encoding="iso-8859-1"?>
<!-- Generator: Adobe Illustrator 14.0.0, SVG Export Plug-In . SVG Version: 6.00 Build 43363)  -->
<!DOCTYPE svg PUBLIC "-//W3C//DTD SVG 1.1//EN" "http://www.w3.org/Graphics/SVG/1.1/DTD/svg11.dtd">
<svg version="1.1" id="icon-m-framework-done-layer"
	 xmlns="http://www.w3.org/2000/svg" xmlns:xlink="http://www.w3.org/1999/xlink" x="0px" y="0px" width="32px" height="32px"
	 viewBox="0 0 32 32" style="enable-background:new 0 0 32 32;" xml:space="preserve">
<g id="icon-m-framework-done">
	<path style="fill:#FFFFFF;" d="M31.18,5.824c-0.061-0.174-0.23-0.291-0.422-0.288C19.854,5.748,11.792,16.387,10.15,18.693
		l-5.364-5.379c-0.163-0.164-0.438-0.172-0.61-0.014l-3.24,2.916c-0.084,0.078-0.133,0.186-0.136,0.297
		c-0.002,0.117,0.042,0.222,0.124,0.303l9.716,9.523c0.081,0.082,0.196,0.125,0.31,0.125c0.012,0,0.025-0.002,0.037-0.002
		c0.128-0.01,0.246-0.077,0.319-0.177c4.699-6.495,9.633-11.495,13.387-14.872c3.758-3.375,6.318-5.111,6.322-5.117
		C31.172,6.192,31.236,6,31.18,5.824z"/>
	<rect style="fill:none;" width="32" height="32"/>
</g>
</svg>
