<?xml version="1.0" encoding="iso-8859-1"?>
<!-- Generator: Adobe Illustrator 14.0.0, SVG Export Plug-In . SVG Version: 6.00 Build 43363)  -->
<!DOCTYPE svg PUBLIC "-//W3C//DTD SVG 1.1//EN" "http://www.w3.org/Graphics/SVG/1.1/DTD/svg11.dtd">
<svg version="1.1" id="icon-l-videos-tv-layer" xmlns="http://www.w3.org/2000/svg" xmlns:xlink="http://www.w3.org/1999/xlink"
	 x="0px" y="0px" width="80px" height="80px" viewBox="0 0 80 80" style="enable-background:new 0 0 80 80;" xml:space="preserve">
<g id="icon-l-videos-tv">
	<rect style="fill:none;" width="80" height="80"/>
	<path id="_x31__pixel_shadow_31_" style="opacity:0.4;" d="M58.207,77.143c-0.089,0.027-0.182,0.047-0.271,0.071
		c-0.497,0.132-1,0.26-1.52,0.378c-0.521,0.117-1.06,0.227-1.604,0.332c-0.112,0.02-0.219,0.047-0.331,0.066
		c-4.176,0.773-8.979,1.133-14.479,1.133c-5.503,0-10.305-0.359-14.479-1.133c-0.114-0.02-0.219-0.047-0.33-0.066
		c-0.545-0.105-1.085-0.215-1.606-0.332c-0.52-0.118-1.021-0.246-1.519-0.378c-0.09-0.024-0.184-0.044-0.271-0.071
		C6.457,72.989,0.592,61.873,0.506,40.097c0,0.163-0.006,0.313-0.006,0.477C0.5,69.838,10.735,80,40.002,80
		C69.267,80,79.5,69.838,79.5,40.573c0-0.163-0.002-0.313-0.004-0.477C79.411,61.873,73.545,72.989,58.207,77.143"/>
	<path id="flat_colour_squircle_32_" style="fill:#C20068;" d="M79.5,39.57c0,29.268-10.233,39.502-39.499,39.502
		C10.733,79.072,0.5,68.838,0.5,39.57c0-29.264,10.233-39.498,39.501-39.498C69.267,0.072,79.5,10.307,79.5,39.57"/>
	<linearGradient id="shine_top_layer_1_" gradientUnits="userSpaceOnUse" x1="39.9995" y1="0" x2="39.9995" y2="79.0005">
		<stop  offset="0" style="stop-color:#FFFFFF"/>
		<stop  offset="0.7362" style="stop-color:#FFFFFF;stop-opacity:0"/>
	</linearGradient>
	<path id="shine_top_layer_30_" style="opacity:0.21;fill:url(#shine_top_layer_1_);" d="M79.5,39.5C79.5,68.765,69.266,79,40,79
		C10.736,79,0.5,68.765,0.5,39.5C0.5,10.234,10.736,0,40,0C69.266,0,79.5,10.234,79.5,39.5z"/>
	<linearGradient id="top_edge_highlight_1_" gradientUnits="userSpaceOnUse" x1="47.7109" y1="-0.1699" x2="32.2889" y2="79.1698">
		<stop  offset="0" style="stop-color:#FFFFFF"/>
		<stop  offset="0.1117" style="stop-color:#EBEBEB"/>
		<stop  offset="0.3969" style="stop-color:#BDBDBD"/>
		<stop  offset="0.6503" style="stop-color:#9B9B9B"/>
		<stop  offset="0.86" style="stop-color:#878787"/>
		<stop  offset="1" style="stop-color:#808080"/>
	</linearGradient>
	<path id="top_edge_highlight_31_" style="opacity:0.25;fill:url(#top_edge_highlight_1_);" d="M40.001,79
		C10.837,79,0.5,68.663,0.5,39.499C0.5,10.336,10.837,0,40.001,0C69.164,0,79.5,10.336,79.5,39.499C79.5,68.663,69.164,79,40.001,79
		L40.001,79z M40.001,0.986c-28.795,0-38.514,9.717-38.514,38.513s9.719,38.513,38.514,38.513c28.794,0,38.512-9.717,38.512-38.513
		S68.795,0.986,40.001,0.986L40.001,0.986z"/>
	<path style="opacity:0.3;" d="M60.7,20.449H19.3c-0.989,0-1.8,0.81-1.8,1.799v25.844c0,0.99,0.811,1.799,1.8,1.799h19.06v3.239
		c-3.488,0.401-6.341,2.062-7.5,4.265h18.281c-1.127-2.152-3.881-3.785-7.266-4.232v-3.271H60.7c0.989,0,1.8-0.809,1.8-1.799V22.248
		C62.5,21.259,61.689,20.449,60.7,20.449z M57.55,48.446h-35.1V23.41h35.1V48.446z"/>
	<rect x="22.45" y="23.41" style="opacity:0.06;" width="35.1" height="25.036"/>
	<path style="fill:#FFFFFF;" d="M60.7,21.748H19.3c-0.989,0-1.8,0.811-1.8,1.801v25.842c0,0.991,0.811,1.801,1.8,1.801h19.06v3.237
		c-3.488,0.402-6.341,2.062-7.5,4.265h18.281c-1.127-2.151-3.881-3.783-7.266-4.232v-3.27H60.7c0.989,0,1.8-0.81,1.8-1.801V23.549
		C62.5,22.559,61.689,21.748,60.7,21.748z M57.55,48.229h-35.1V24.711h35.1V48.229z"/>
</g>
</svg>
