<?xml version="1.0" encoding="iso-8859-1"?>
<!-- Generator: Adobe Illustrator 14.0.0, SVG Export Plug-In . SVG Version: 6.00 Build 43363)  -->
<!DOCTYPE svg PUBLIC "-//W3C//DTD SVG 1.1//EN" "http://www.w3.org/Graphics/SVG/1.1/DTD/svg11.dtd">
<svg version="1.1" id="icon-m-common-wlan-wpa-layer"
	 xmlns="http://www.w3.org/2000/svg" xmlns:xlink="http://www.w3.org/1999/xlink" x="0px" y="0px" width="64px" height="64px"
	 viewBox="0 0 64 64" style="enable-background:new 0 0 64 64;" xml:space="preserve">
<g id="icon-m-common-wlan-wpa">
	<rect style="fill:none;" width="64" height="64"/>
	<g>
		<path style="fill:#333333;" d="M50.5,27.438h-2.49c-0.002-3.225-0.008-7.395-0.008-7.498C48,11.182,40.84,4.088,32,4.086
			C23.162,4.088,16.002,11.182,16,19.939c0,0.104-0.006,4.236-0.007,7.498H13.5c-1.275,0-2.314,1.008-2.314,2.244v27.983
			c0,1.233,1.039,2.249,2.314,2.249h37c1.271,0,2.314-1.008,2.314-2.249V29.682C52.812,28.445,51.771,27.438,50.5,27.438z
			 M20.893,19.939C20.903,13.862,25.866,8.941,32,8.934c6.134,0.008,11.099,4.929,11.109,11.006c0,0.104,0.006,4.273,0.008,7.498
			h-22.21C20.899,24.176,20.893,20.044,20.893,19.939z M27.241,43.383v10.252h-6.137V43.516c-1.704-1.012-2.849-2.865-2.849-4.99
			c0-3.209,2.6-5.809,5.808-5.809c3.207,0,5.808,2.6,5.808,5.809C29.871,40.559,28.823,42.346,27.241,43.383z M43.24,43.383v10.252
			h-6.137V43.516c-1.703-1.012-2.85-2.865-2.85-4.99c0-3.209,2.602-5.809,5.809-5.809s5.809,2.6,5.809,5.809
			C45.871,40.559,44.824,42.346,43.24,43.383z"/>
	</g>
</g>
</svg>
