<?xml version="1.0" encoding="iso-8859-1"?>
<!-- Generator: Adobe Illustrator 14.0.0, SVG Export Plug-In . SVG Version: 6.00 Build 43363)  -->
<!DOCTYPE svg PUBLIC "-//W3C//DTD SVG 1.1//EN" "http://www.w3.org/Graphics/SVG/1.1/DTD/svg11.dtd">
<svg version="1.1" id="icon-l-search-layer" xmlns="http://www.w3.org/2000/svg" xmlns:xlink="http://www.w3.org/1999/xlink"
	 x="0px" y="0px" width="80px" height="80px" viewBox="0 0 80 80" style="enable-background:new 0 0 80 80;" xml:space="preserve">
<g id="icon-l-search_1_">
	<rect style="fill:none;" width="80" height="80"/>
	<path id="_x31__pixel_shadow_19_" style="opacity:0.4;" d="M58.207,77.143c-0.089,0.027-0.182,0.047-0.271,0.072
		c-0.497,0.133-1,0.26-1.52,0.377c-0.521,0.119-1.06,0.227-1.604,0.332c-0.112,0.021-0.219,0.047-0.331,0.068
		c-4.176,0.771-8.979,1.131-14.479,1.131c-5.503,0-10.305-0.359-14.479-1.131c-0.114-0.021-0.219-0.047-0.33-0.068
		c-0.545-0.105-1.085-0.213-1.606-0.332c-0.52-0.117-1.021-0.244-1.519-0.377c-0.09-0.025-0.184-0.045-0.271-0.072
		C6.457,72.99,0.592,61.875,0.506,40.098c0,0.162-0.006,0.313-0.006,0.477C0.5,69.84,10.735,80,40.002,80
		C69.267,80,79.5,69.84,79.5,40.574c0-0.163-0.002-0.314-0.004-0.477C79.411,61.875,73.545,72.99,58.207,77.143"/>
	<path id="flat_colour_squircle_20_" style="fill:#FF6F14;" d="M79.5,39.571c0,29.267-10.233,39.501-39.499,39.501
		C10.733,79.072,0.5,68.838,0.5,39.571c0-29.264,10.233-39.499,39.501-39.499C69.267,0.072,79.5,10.308,79.5,39.571"/>
	<linearGradient id="shine_top_layer_1_" gradientUnits="userSpaceOnUse" x1="39.9995" y1="0" x2="39.9995" y2="79.0005">
		<stop  offset="0" style="stop-color:#FFFFFF"/>
		<stop  offset="0.7362" style="stop-color:#FFFFFF;stop-opacity:0"/>
	</linearGradient>
	<path id="shine_top_layer_12_" style="opacity:0.2;fill:url(#shine_top_layer_1_);" d="M79.5,39.5C79.5,68.766,69.267,79,40,79
		C10.735,79,0.5,68.766,0.5,39.5C0.5,10.235,10.735,0,40,0C69.267,0,79.5,10.235,79.5,39.5z"/>
	<linearGradient id="top_edge_highlight_1_" gradientUnits="userSpaceOnUse" x1="47.7109" y1="-0.1699" x2="32.2889" y2="79.1698">
		<stop  offset="0" style="stop-color:#FFFFFF"/>
		<stop  offset="0.1117" style="stop-color:#EBEBEB"/>
		<stop  offset="0.3969" style="stop-color:#BDBDBD"/>
		<stop  offset="0.6503" style="stop-color:#9B9B9B"/>
		<stop  offset="0.86" style="stop-color:#878787"/>
		<stop  offset="1" style="stop-color:#808080"/>
	</linearGradient>
	<path id="top_edge_highlight_19_" style="opacity:0.25;fill:url(#top_edge_highlight_1_);" d="M40.001,79
		C10.837,79,0.5,68.664,0.5,39.5S10.837,0,40.001,0C69.164,0,79.5,10.336,79.5,39.5S69.164,79,40.001,79L40.001,79z M40.001,0.987
		c-28.795,0-38.514,9.718-38.514,38.513c0,28.797,9.719,38.514,38.514,38.514c28.794,0,38.512-9.717,38.512-38.514
		C78.513,10.705,68.795,0.987,40.001,0.987L40.001,0.987z"/>
	<circle style="opacity:0.06;" cx="33.782" cy="34.217" r="10.125"/>
	<path style="opacity:0.3;" d="M59.931,52.848l-7.48-7.494c-0.248-0.246-0.732-0.5-1.077-0.562l-3.407-0.607l-2.958-2.961
		c4.22-5.525,3.808-13.476-1.241-18.526c-5.499-5.499-14.446-5.499-19.945,0c-5.501,5.498-5.501,14.448,0,19.944
		c5.047,5.049,13,5.461,18.525,1.242l2.961,2.965l0.608,3.4c0.062,0.344,0.315,0.828,0.563,1.078l7.488,7.486
		c0.493,0.494,1.307,0.494,1.801,0l4.162-4.164C60.429,54.154,60.429,53.342,59.931,52.848z M34.115,44.342
		c-5.592,0-10.125-4.533-10.125-10.125c0-0.452,0.04-0.895,0.098-1.33c-0.057-2.562,0.882-5.141,2.833-7.091
		c3.79-3.788,9.958-3.788,13.748,0c0.962,0.962,1.677,2.077,2.151,3.267c0.896,1.512,1.421,3.27,1.421,5.154
		C44.24,39.809,39.707,44.342,34.115,44.342z"/>
	<path style="fill:#FFFFFF;" d="M43.767,24.085c-5.499-5.499-14.446-5.499-19.945,0c-5.501,5.499-5.501,14.45,0,19.946
		c5.047,5.049,13,5.459,18.525,1.238l2.961,2.967l0.608,3.398c0.062,0.348,0.315,0.832,0.563,1.08l7.488,7.486
		c0.493,0.496,1.307,0.496,1.801,0l4.162-4.164c0.498-0.494,0.498-1.305,0-1.799l-7.48-7.494c-0.248-0.248-0.732-0.502-1.077-0.564
		l-3.407-0.605l-2.958-2.961C49.228,37.086,48.815,29.135,43.767,24.085z M40.668,40.934c-3.79,3.789-9.957,3.789-13.747,0
		c-3.792-3.791-3.792-9.958-0.001-13.748c3.79-3.788,9.958-3.788,13.748,0C44.459,30.976,44.459,37.143,40.668,40.934z"/>
</g>
</svg>
