<?xml version="1.0" encoding="iso-8859-1"?>
<!-- Generator: Adobe Illustrator 14.0.0, SVG Export Plug-In . SVG Version: 6.00 Build 43363)  -->
<!DOCTYPE svg PUBLIC "-//W3C//DTD SVG 1.1//EN" "http://www.w3.org/Graphics/SVG/1.1/DTD/svg11.dtd">
<svg version="1.1" id="icon-l-telphony-layer" xmlns="http://www.w3.org/2000/svg" xmlns:xlink="http://www.w3.org/1999/xlink"
	 x="0px" y="0px" width="84px" height="84px" viewBox="0 0 84 84" style="enable-background:new 0 0 84 84;" xml:space="preserve">
<g id="icon-l-telphony">
	<g>
		<path style="fill:#8EBE3F;" d="M43.096,84C76.688,84,84,69.25,84,42.063c0-27.256-7.516-42.055-40.904-42.055L40.898,0
			C7.311,0,0,14.755,0,41.942c0,27.251,7.514,42.054,40.898,42.054L43.096,84z"/>
	</g>
	<linearGradient id="SVGID_1_" gradientUnits="userSpaceOnUse" x1="41.9995" y1="21.9712" x2="41.9995" y2="213.0924">
		<stop  offset="0" style="stop-color:#FFFFFF"/>
		<stop  offset="1" style="stop-color:#B3B2C9"/>
	</linearGradient>
	<path style="fill:url(#SVGID_1_);" d="M65.403,23.688c0.01,0,1.351,1.387-0.021,2.759L54.26,34.636
		c-0.721,0.554-1.661,1.108-2.787-0.027c0,0-4.09-5.696-6.716-4.054c-1.818,1.137-13.156,12.416-14.313,14.23
		c-1.661,2.613,4.017,6.741,4.017,6.741c1.129,1.122,0.572,2.065,0.012,2.785l-8.259,11.064c-1.236,1.372-2.74,0.007-2.74,0.007
		c-3.035-2.446-6.869-10.296-4.965-15.248c4.344-11.308,22.527-27.221,31.659-31.489C54.994,16.394,62.973,20.646,65.403,23.688z"/>
</g>
</svg>
