<?xml version="1.0" encoding="iso-8859-1"?>
<!-- Generator: Adobe Illustrator 14.0.0, SVG Export Plug-In . SVG Version: 6.00 Build 43363)  -->
<!DOCTYPE svg PUBLIC "-//W3C//DTD SVG 1.1//EN" "http://www.w3.org/Graphics/SVG/1.1/DTD/svg11.dtd">
<svg version="1.1" id="icon-m-applet-settings-layer"
	 xmlns="http://www.w3.org/2000/svg" xmlns:xlink="http://www.w3.org/1999/xlink" x="0px" y="0px" width="48px" height="48px"
	 viewBox="0 0 48 48" style="enable-background:new 0 0 48 48;" xml:space="preserve">
<g id="icon-m-applet-settings">
	<rect style="fill:none;" width="48" height="48"/>
	<path style="fill:#333333;" d="M24.626,0.004L23.371,0C4.178,0,0,8.432,0,23.967c0,15.572,4.293,24.031,23.371,24.031L24.626,48
		C43.821,48,48,39.572,48,24.035C48,8.461,43.705,0.004,24.626,0.004z M36.116,33.484l-2.648,2.657
		c-0.492,0.476-1.281,0.476-1.766,0L21.351,25.773c-6.312,3.492-9.836-4.352-9.836-6.484c0-1.758,0.133-2.656,0.773-2.008
		l4.789,4.789c2.594-0.711,4.219-2.68,4.969-4.969l-4.758-4.766c-1.195-1.194,2.867-1.148,5.547,0.407
		c5.945,3.437,3.461,7.937,2.953,8.624l10.328,10.336C36.607,32.195,36.607,32.984,36.116,33.484z"/>
</g>
</svg>
