<?xml version="1.0" encoding="iso-8859-1"?>
<!-- Generator: Adobe Illustrator 14.0.0, SVG Export Plug-In . SVG Version: 6.00 Build 43363)  -->
<!DOCTYPE svg PUBLIC "-//W3C//DTD SVG 1.1//EN" "http://www.w3.org/Graphics/SVG/1.1/DTD/svg11.dtd">
<svg version="1.1" id="icon-m-image-edit-autofix-all-layer"
	 xmlns="http://www.w3.org/2000/svg" xmlns:xlink="http://www.w3.org/1999/xlink" x="0px" y="0px" width="48px" height="48px"
	 viewBox="0 0 48 48" style="enable-background:new 0 0 48 48;" xml:space="preserve">
<g id="icon-m-image-edit-autofix-all">
	<rect style="fill:none;" width="48" height="48"/>
	<path style="fill:#333333;" d="M46.351,12.877c0.153,0.093,0.224,0.033,0.157-0.132l-1.234-3.072
		c-0.066-0.167-0.012-0.397,0.126-0.515l2.517-2.146c0.137-0.118,0.102-0.202-0.076-0.193l-3.304,0.192
		c-0.179,0.011-0.38-0.118-0.446-0.283l-1.234-3.07c-0.066-0.167-0.159-0.161-0.205,0.012l-0.839,3.19
		c-0.045,0.174-0.229,0.325-0.408,0.335l-3.407,0.198c-0.18,0.011-0.205,0.103-0.057,0.204l2.775,1.903
		c0.15,0.103,0.241,0.329,0.203,0.506l-0.686,3.295c-0.037,0.176,0.045,0.224,0.182,0.107l2.598-2.214
		c0.136-0.117,0.371-0.135,0.525-0.04L46.351,12.877z"/>
	<path style="fill:#333333;" d="M26.898,4.555c0.105,0.021,0.133-0.025,0.062-0.105l-1.317-1.488
		c-0.07-0.08-0.086-0.223-0.032-0.316l0.991-1.721c0.054-0.092,0.017-0.135-0.083-0.092l-1.828,0.773
		c-0.099,0.043-0.239,0.01-0.31-0.07l-1.316-1.486c-0.072-0.08-0.123-0.059-0.114,0.047l0.168,1.973
		c0.01,0.107-0.063,0.23-0.164,0.271l-1.885,0.799c-0.1,0.043-0.096,0.1,0.008,0.127l1.953,0.516
		c0.105,0.029,0.202,0.139,0.216,0.246l0.275,2c0.015,0.107,0.071,0.117,0.125,0.023l1.022-1.773c0.053-0.094,0.184-0.15,0.29-0.129
		L26.898,4.555z"/>
	<path style="fill:#333333;" d="M17.554,16.357c0.315,0.064,0.398-0.078,0.186-0.315l-3.918-4.427
		c-0.211-0.243-0.257-0.664-0.096-0.943l2.949-5.117c0.157-0.279,0.046-0.401-0.245-0.279L10.987,7.58
		c-0.294,0.125-0.709,0.029-0.921-0.208L6.149,2.945c-0.213-0.24-0.364-0.174-0.338,0.143l0.501,5.87
		c0.03,0.319-0.19,0.685-0.486,0.808l-5.612,2.377c-0.295,0.125-0.285,0.296,0.027,0.377l5.812,1.537
		c0.313,0.083,0.6,0.409,0.645,0.73l0.819,5.952c0.044,0.317,0.21,0.349,0.371,0.072l3.042-5.281
		c0.159-0.277,0.545-0.449,0.86-0.383L17.554,16.357z"/>
	<path style="fill:#333333;" d="M25.234,12.039c-0.613,0.913-1.615,2.41-2.227,3.323l-2.782,4.155
		c-0.613,0.911-1.615,2.407-2.227,3.321L5.2,41.942c-0.612,0.913-0.365,2.162,0.548,2.773l3.323,2.226
		c0.912,0.612,2.162,0.366,2.775-0.548l12.797-19.101c0.614-0.916,1.615-2.41,2.227-3.324l2.784-4.154
		c0.612-0.912,1.614-2.41,2.226-3.322l2.784-4.154c0.611-0.914,0.364-2.163-0.55-2.774l-3.323-2.227
		c-0.913-0.612-2.16-0.366-2.773,0.548L25.234,12.039z M32.724,13.438l-3.897,5.814l-4.983-3.34l3.896-5.814L32.724,13.438z"/>
	<path style="fill:#333333;" d="M42.066,27.75h-4.695L31.326,48h3.411l1.343-4.645h6.773L44.199,48H48L42.066,27.75z M36.732,40.79
		l2.764-10.007l2.741,10.053L36.732,40.79z"/>
</g>
</svg>
