<?xml version="1.0" encoding="iso-8859-1"?>
<!-- Generator: Adobe Illustrator 14.0.0, SVG Export Plug-In . SVG Version: 6.00 Build 43363)  -->
<!DOCTYPE svg PUBLIC "-//W3C//DTD SVG 1.1//EN" "http://www.w3.org/Graphics/SVG/1.1/DTD/svg11.dtd">
<svg version="1.1" id="icon-m-content-podcast-video-layer"
	 xmlns="http://www.w3.org/2000/svg" xmlns:xlink="http://www.w3.org/1999/xlink" x="0px" y="0px" width="64px" height="64px"
	 viewBox="0 0 64 64" style="enable-background:new 0 0 64 64;" xml:space="preserve">
<g id="icon-m-content-podcast-video">
	<rect style="fill:none;" width="64" height="64"/>
	<path style="fill:#333333;" d="M31.987,55.639c6.894,0,12.483-5.59,12.483-12.483c0-6.896-5.589-12.484-12.483-12.484
		c-6.895,0-12.483,5.589-12.483,12.484C19.503,50.049,25.092,55.639,31.987,55.639z M31.987,38.351c2.651,0,4.804,2.155,4.804,4.804
		s-2.153,4.805-4.804,4.805c-2.649,0-4.805-2.156-4.805-4.805S29.337,38.351,31.987,38.351z"/>
	<path style="fill:#333333;" d="M41.709,57.064c-2.709,2.044-6.074,3.259-9.722,3.259c-3.647,0-7.015-1.215-9.723-3.259
		c0,0-0.001,0-0.001,0.001L18.019,64h27.963l-4.228-6.909C41.738,57.083,41.725,57.073,41.709,57.064z"/>
	<path style="fill:#333333;" d="M57,18.358c-0.445,0-0.89-0.18-1.215-0.533C55.688,17.72,45.948,7.309,32.797,7.299l-1.188,0.004
		C18.215,7.098,8.314,17.719,8.215,17.825c-0.617,0.67-1.66,0.714-2.331,0.099c-0.67-0.616-0.716-1.658-0.101-2.329
		C6.222,15.116,16.582,4,31.215,4c0.138,0,0.275,0,0.415,0.002L32.794,4c14.633,0.01,24.989,11.121,25.422,11.594
		c0.615,0.672,0.569,1.714-0.102,2.33C57.799,18.215,57.398,18.358,57,18.358L57,18.358z"/>
	<path style="fill:#333333;" d="M15.499,28.666c-0.354,0-0.71-0.113-1.012-0.348c-0.719-0.559-0.849-1.596-0.289-2.315
		c6.067-7.801,14.152-8.661,17.347-8.669l1.175,0.002c3.174,0.06,11.136,1.022,17.083,8.667c0.559,0.721,0.43,1.757-0.289,2.315
		c-0.721,0.561-1.757,0.43-2.316-0.289c-5.072-6.522-11.84-7.344-14.513-7.394l-1.14-0.003c-2.703,0.008-9.566,0.742-14.743,7.396
		C16.477,28.448,15.991,28.666,15.499,28.666L15.499,28.666z"/>
</g>
</svg>
