<?xml version="1.0" encoding="iso-8859-1"?>
<!-- Generator: Adobe Illustrator 14.0.0, SVG Export Plug-In . SVG Version: 6.00 Build 43363)  -->
<!DOCTYPE svg PUBLIC "-//W3C//DTD SVG 1.1//EN" "http://www.w3.org/Graphics/SVG/1.1/DTD/svg11.dtd">
<svg version="1.1" id="icon-l-ovi-layer" xmlns="http://www.w3.org/2000/svg" xmlns:xlink="http://www.w3.org/1999/xlink" x="0px"
	 y="0px" width="80px" height="80px" viewBox="0 0 80 80" style="enable-background:new 0 0 80 80;" xml:space="preserve">
<g id="icon-l-ovi">
	<rect style="fill:none;" width="80" height="80"/>
	<path id="_x31__pixel_shadow_2_" style="opacity:0.4;" d="M58.207,77.145c-0.09,0.024-0.182,0.044-0.271,0.068
		c-0.498,0.133-1,0.261-1.52,0.378c-0.521,0.118-1.061,0.227-1.605,0.332c-0.111,0.02-0.219,0.046-0.33,0.068
		c-4.176,0.772-8.979,1.131-14.479,1.131c-5.503,0-10.305-0.358-14.479-1.131c-0.114-0.022-0.219-0.049-0.33-0.068
		c-0.545-0.105-1.085-0.214-1.606-0.332c-0.52-0.117-1.021-0.245-1.519-0.378c-0.09-0.024-0.184-0.044-0.271-0.068
		C6.457,72.99,0.591,61.873,0.506,40.098c0,0.162-0.006,0.312-0.006,0.476C0.5,69.838,10.735,80,40.002,80
		C69.266,80,79.5,69.838,79.5,40.573c0-0.163-0.002-0.313-0.004-0.476C79.41,61.873,73.545,72.99,58.207,77.145"/>
	<path id="flat_colour_squircle_3_" style="fill:#539D03;" d="M79.5,39.57c0,29.266-10.234,39.502-39.499,39.502
		C10.733,79.072,0.5,68.836,0.5,39.57c0-29.264,10.233-39.498,39.501-39.498C69.266,0.072,79.5,10.307,79.5,39.57"/>
	<linearGradient id="shine_top_layer_1_" gradientUnits="userSpaceOnUse" x1="39.9995" y1="0" x2="39.9995" y2="79.0005">
		<stop  offset="0" style="stop-color:#FFFFFF"/>
		<stop  offset="0.7362" style="stop-color:#FFFFFF;stop-opacity:0"/>
	</linearGradient>
	<path id="shine_top_layer_25_" style="opacity:0.15;fill:url(#shine_top_layer_1_);" d="M79.5,39.5C79.5,68.766,69.266,79,40,79
		C10.736,79,0.5,68.766,0.5,39.5S10.736,0,40,0C69.266,0,79.5,10.234,79.5,39.5z"/>
	<linearGradient id="top_edge_highlight_1_" gradientUnits="userSpaceOnUse" x1="47.7109" y1="-0.1699" x2="32.2889" y2="79.1698">
		<stop  offset="0" style="stop-color:#FFFFFF"/>
		<stop  offset="0.1117" style="stop-color:#EBEBEB"/>
		<stop  offset="0.3969" style="stop-color:#BDBDBD"/>
		<stop  offset="0.6503" style="stop-color:#9B9B9B"/>
		<stop  offset="0.86" style="stop-color:#878787"/>
		<stop  offset="1" style="stop-color:#808080"/>
	</linearGradient>
	<path id="top_edge_highlight_2_" style="opacity:0.25;fill:url(#top_edge_highlight_1_);" d="M40.001,79
		C10.837,79,0.5,68.664,0.5,39.498C0.5,10.336,10.837,0,40.001,0C69.164,0,79.5,10.336,79.5,39.498C79.5,68.664,69.164,79,40.001,79
		L40.001,79z M40.001,0.986c-28.795,0-38.514,9.718-38.514,38.512c0,28.797,9.719,38.514,38.514,38.514
		c28.794,0,38.511-9.717,38.511-38.514C78.512,10.704,68.795,0.986,40.001,0.986L40.001,0.986z"/>
	<path style="opacity:0.15;" d="M25.692,34.066c-3.225,0-3.478,3.912-3.478,6.916c0,3.08,0.146,7.789,3.478,7.789
		c3.334,0,3.51-4.201,3.51-7.789C29.202,38.196,28.771,34.066,25.692,34.066z"/>
	<path style="opacity:0.3;" d="M25.692,50.588c-7.061,0-9.492-4.855-9.492-11.014c0-6.085,3.298-10.358,9.563-10.358
		c6.487,0,9.457,4.311,9.457,10.503C35.22,46.204,32.215,50.588,25.692,50.588z M25.692,34.066c-3.225,0-3.478,3.912-3.478,6.916
		c0,3.08,0.146,7.789,3.478,7.789c3.334,0,3.51-4.201,3.51-7.789C29.202,38.196,28.771,34.066,25.692,34.066z M33.958,29.508h6.052
		l3.697,15.547l3.916-15.547h5.109l-5.469,17.966c-0.607,1.847-1.508,3.114-4.055,3.114c-2.541,0-3.48-1.268-4.044-3.114
		L33.958,29.508z M58.014,27.326c-1.848,0-3.189-0.942-3.189-2.68c0-1.739,1.305-2.684,3.189-2.684c1.771,0,3.186,0.98,3.186,2.684
		C61.199,26.384,59.861,27.326,58.014,27.326z M55.086,47.93c0,0.527,0,1.502,0.816,2.078c0.428,0.301,1.104,0.58,2.059,0.58
		c0.99,0,1.643-0.275,2.072-0.58c0.82-0.576,0.82-1.551,0.82-2.078V29.507h-5.707c0,0-0.205,0.001-0.395,0.001
		c-0.557,0-1.012,0.011-1.336,0.447c-0.15,0.202-0.357,0.568-0.357,1.217c0,0.682,0.207,1.019,0.357,1.223
		c0.324,0.438,0.779,0.438,1.336,0.438c0.189,0,0.334,0,0.334,0V47.93z"/>
	<path style="fill:#FFFFFF;" d="M25.692,51.98c-7.061,0-9.492-4.854-9.492-11.013c0-6.085,3.298-10.359,9.563-10.359
		c6.487,0,9.457,4.312,9.457,10.503C35.22,47.598,32.215,51.98,25.692,51.98z M25.692,33.941c-3.225,0-3.478,3.912-3.478,6.917
		c0,3.079,0.146,7.789,3.478,7.789c3.334,0,3.51-4.2,3.51-7.789C29.202,38.071,28.771,33.941,25.692,33.941z M33.958,30.9h6.052
		l3.697,15.547L47.623,30.9h5.109l-5.469,17.967c-0.607,1.848-1.508,3.113-4.055,3.113c-2.541,0-3.48-1.266-4.044-3.113L33.958,30.9
		z M58.014,28.718c-1.848,0-3.189-0.941-3.189-2.679c0-1.74,1.305-2.681,3.189-2.681c1.771,0,3.186,0.979,3.186,2.681
		C61.199,27.776,59.861,28.718,58.014,28.718z M55.086,49.321c0,0.528,0,1.504,0.816,2.079c0.428,0.301,1.104,0.58,2.059,0.58
		c0.99,0,1.643-0.275,2.072-0.58c0.82-0.575,0.82-1.551,0.82-2.079V30.9h-5.707c0,0-0.205,0-0.395,0
		c-0.557,0-1.012,0.012-1.336,0.447c-0.15,0.202-0.357,0.568-0.357,1.217c0,0.684,0.207,1.02,0.357,1.223
		c0.324,0.437,0.779,0.439,1.336,0.439c0.189,0,0.334,0,0.334,0V49.321z"/>
</g>
</svg>
