<?xml version="1.0" encoding="iso-8859-1"?>
<!-- Generator: Adobe Illustrator 14.0.0, SVG Export Plug-In . SVG Version: 6.00 Build 43363)  -->
<!DOCTYPE svg PUBLIC "-//W3C//DTD SVG 1.1//EN" "http://www.w3.org/Graphics/SVG/1.1/DTD/svg11.dtd">
<svg version="1.1" id="icon-m-applet-error-layer" xmlns="http://www.w3.org/2000/svg" xmlns:xlink="http://www.w3.org/1999/xlink"
	 x="0px" y="0px" width="48px" height="48px" viewBox="0 0 48 48" style="enable-background:new 0 0 48 48;" xml:space="preserve">
<g id="icon-m-applet-error">
	<rect style="fill:none;" width="48" height="48"/>
	<path style="fill:#333333;" d="M24.626,0.004L23.37,0C4.178,0,0,8.432,0,23.967c0,15.572,4.293,24.031,23.37,24.031L24.626,48
		C43.821,48,48,39.572,48,24.036C48,8.463,43.705,0.004,24.626,0.004z M22.487,9h3.249c1.312,0,2.381,1.068,2.381,2.383
		l-0.831,13.028c0.001,1.288-1.067,2.357-2.38,2.357h-1.589c-1.313,0-2.381-1.069-2.382-2.384l-0.829-12.978
		C20.106,10.068,21.174,9,22.487,9z M24.002,39c-2.46,0-4.462-2.002-4.462-4.463c0-2.46,2.001-4.46,4.462-4.46
		c2.458,0,4.458,2,4.458,4.46C28.46,36.998,26.46,39,24.002,39z"/>
</g>
</svg>
