<?xml version="1.0" encoding="iso-8859-1"?>
<!-- Generator: Adobe Illustrator 14.0.0, SVG Export Plug-In . SVG Version: 6.00 Build 43363)  -->
<!DOCTYPE svg PUBLIC "-//W3C//DTD SVG 1.1//EN" "http://www.w3.org/Graphics/SVG/1.1/DTD/svg11.dtd">
<svg version="1.1" id="icon-l-office-tools-layer" xmlns="http://www.w3.org/2000/svg" xmlns:xlink="http://www.w3.org/1999/xlink"
	 x="0px" y="0px" width="45px" height="45px" viewBox="0 0 45 45" style="enable-background:new 0 0 45 45;" xml:space="preserve">
<g id="icon-l-office-tools_1_">
	<path style="fill:#A67D52;" d="M43.787,12.857H18.168l0,0c-0.563,0-1.024,0.462-1.024,1.025v0.002v29.718
		c0,0.562,0.461,1.024,1.024,1.024h25.619h0.002c0.562,0,1.025-0.462,1.025-1.024l0,0v-29.72
		C44.814,13.319,44.351,12.857,43.787,12.857z M42.671,23.853l-5.019,8.188l-4.092-2.552l-2.225,6.959l-3.89-1.786l-3.146,4.252
		h18.37v2.143H20.528V16.502h2.143v20.034l3.902-5.274l3.105,1.427l2.354-7.365l4.73,2.949l5.907-9.635V23.853z M26.645,0H1.025l0,0
		C0.462,0,0,0.463,0,1.025l0,0v29.72c0,0.562,0.462,1.025,1.025,1.025h12.732v-6.848h-3.715V21.43h3.715v-5.078h-3.715v-3.494h3.715
		v-1.053c0-1.181,0.964-2.145,2.143-2.145h11.771V1.025C27.671,0.463,27.208,0,26.645,0z M4.963,25.318
		c-1.185,0-2.143-0.958-2.143-2.143c0-1.186,0.958-2.143,2.143-2.143s2.143,0.957,2.143,2.143
		C7.105,24.36,6.147,25.318,4.963,25.318z M4.963,16.747c-1.185,0-2.143-0.958-2.143-2.144c0-1.184,0.958-2.143,2.143-2.143
		s2.143,0.959,2.143,2.143C7.105,15.789,6.147,16.747,4.963,16.747z M4.963,8.176c-1.185,0-2.143-0.958-2.143-2.144
		c0-1.185,0.958-2.142,2.143-2.142s2.143,0.957,2.143,2.142C7.105,7.218,6.147,8.176,4.963,8.176z M25,7.781H10.043V4.287H25V7.781z
		"/>
</g>
</svg>
