<?xml version="1.0" encoding="iso-8859-1"?>
<!-- Generator: Adobe Illustrator 14.0.0, SVG Export Plug-In . SVG Version: 6.00 Build 43363)  -->
<!DOCTYPE svg PUBLIC "-//W3C//DTD SVG 1.1//EN" "http://www.w3.org/Graphics/SVG/1.1/DTD/svg11.dtd">
<svg version="1.1" id="icon-l-calendar-layer" xmlns="http://www.w3.org/2000/svg" xmlns:xlink="http://www.w3.org/1999/xlink"
	 x="0px" y="0px" width="48px" height="48px" viewBox="0 0 48 48" style="enable-background:new 0 0 48 48;" xml:space="preserve">
<g id="icon-l-calendar">
	<rect style="fill:none;" width="48" height="48"/>
	<g>
		<path style="opacity:0.2;fill:#010101;" d="M44.242,7.26c-0.035-0.49-0.332-1.13-1.187-1.17h-6.882V5.281
			c-0.217-3.06-4.446-2.932-4.541,0V6.09H16.385V5.281c-0.229-3.096-4.381-2.875-4.544,0V6.09H4.994
			C4.533,6.13,3.846,6.385,3.807,7.26c0,0-0.018,32.072-0.018,32.279c0.002,1.476,0.613,5.475,5.454,5.492h29.56
			c0.033,0,0.07,0.004,0.103,0.004c4.69-0.021,5.393-4.039,5.354-5.496C44.25,39.314,44.242,7.26,44.242,7.26z"/>
		<path style="opacity:0.5;fill:#010101;" d="M43.056,39.13v-1.594L4.994,37.583v1.547c0,0-0.533,4.729,4.249,4.729h29.563
			C43.587,43.859,43.056,39.13,43.056,39.13z"/>
		<linearGradient id="SVGID_1_" gradientUnits="userSpaceOnUse" x1="23.9683" y1="-3.8276" x2="23.9683" y2="43.1253">
			<stop  offset="0" style="stop-color:#FFFFFF"/>
			<stop  offset="1" style="stop-color:#B3B3B3"/>
		</linearGradient>
		<path style="fill:url(#SVGID_1_);" d="M43,37.957V6.09H4.938v31.867c0,0-0.532,4.729,4.249,4.729H38.75
			C43.531,42.686,43,37.957,43,37.957z"/>
		<path style="opacity:0.3;" d="M38.961,9.062H9.089C8.481,9.117,8.222,9.578,8.247,9.896v27.899
			c-0.045,0.23,0.217,0.816,0.842,0.832h29.872c0.238,0.039,0.813-0.178,0.841-0.832V9.896C39.812,9.596,39.572,9.1,38.961,9.062z"
			/>
		<linearGradient id="SVGID_2_" gradientUnits="userSpaceOnUse" x1="24.0249" y1="15.396" x2="24.0249" y2="109.4491">
			<stop  offset="0" style="stop-color:#FFFFFF"/>
			<stop  offset="1" style="stop-color:#B3B2C9"/>
		</linearGradient>
		<rect x="9.089" y="13.448" style="fill:url(#SVGID_2_);" width="29.872" height="23.608"/>
		<linearGradient id="SVGID_3_" gradientUnits="userSpaceOnUse" x1="24.0249" y1="5.7627" x2="24.0249" y2="58.8073">
			<stop  offset="0" style="stop-color:#E92629"/>
			<stop  offset="0.3873" style="stop-color:#C72226"/>
			<stop  offset="1" style="stop-color:#911A1D"/>
		</linearGradient>
		<rect x="9.089" y="9.062" style="fill:url(#SVGID_3_);" width="29.872" height="4.477"/>
		<path style="fill:#FFFFFF;" d="M32.426,37.066h6.558v-5.676C34.158,32.75,32.426,37.066,32.426,37.066z"/>
		<path style="opacity:0.2;fill:#010101;" d="M11.311,6.096l0.695,4.309c0,1.162,0.953,2.104,2.13,2.104
			c1.173,0,2.124-0.942,2.124-2.104l0.697-4.309H11.311z"/>
		<path style="opacity:0.2;fill:#010101;" d="M31.088,6.096l0.697,4.309c0,1.162,0.953,2.104,2.127,2.104
			c1.172,0,2.125-0.942,2.125-2.104l0.696-4.309H31.088z"/>
		<path style="fill:#010101;" d="M35.485,10.486c0,0.844-0.706,1.527-1.577,1.527c-0.872,0-1.578-0.684-1.578-1.527
			c0-0.84,0.706-1.525,1.578-1.525C34.779,8.961,35.485,9.646,35.485,10.486z"/>
		<path style="fill:#010101;" d="M15.687,10.486c0,0.844-0.706,1.527-1.58,1.527c-0.871,0-1.576-0.684-1.576-1.527
			c0-0.84,0.705-1.525,1.576-1.525C14.98,8.961,15.687,9.646,15.687,10.486z"/>
		<linearGradient id="SVGID_4_" gradientUnits="userSpaceOnUse" x1="13.4893" y1="7.2153" x2="16.3088" y2="7.2153">
			<stop  offset="0" style="stop-color:#E3E3E3"/>
			<stop  offset="1" style="stop-color:#414141"/>
		</linearGradient>
		<path style="fill:url(#SVGID_4_);" d="M15.198,4.105v6.223c-0.062,1.484-2.158,1.357-2.17,0V4.105
			C13.098,2.697,15.08,2.662,15.198,4.105z"/>
		<linearGradient id="SVGID_5_" gradientUnits="userSpaceOnUse" x1="33.3652" y1="7.2256" x2="35.5893" y2="7.2256">
			<stop  offset="0" style="stop-color:#E3E3E3"/>
			<stop  offset="1" style="stop-color:#414141"/>
		</linearGradient>
		<path style="fill:url(#SVGID_5_);" d="M34.991,4.105v6.223c-0.054,1.449-2.093,1.412-2.171,0V4.105
			C32.823,2.79,34.844,2.607,34.991,4.105z"/>
		<linearGradient id="SVGID_6_" gradientUnits="userSpaceOnUse" x1="18.6519" y1="17.4775" x2="18.6519" y2="31.9712">
			<stop  offset="0" style="stop-color:#E92629"/>
			<stop  offset="0.3873" style="stop-color:#C72226"/>
			<stop  offset="1" style="stop-color:#911A1D"/>
		</linearGradient>
		<polygon style="fill:url(#SVGID_6_);" points="20.47,17.478 18.732,17.478 14.641,18.777 14.641,20.478 17.25,19.924 
			17.25,30.273 14.875,30.273 14.875,31.971 22.662,31.971 22.662,30.273 20.47,30.273 		"/>
		<linearGradient id="SVGID_7_" gradientUnits="userSpaceOnUse" x1="28.8262" y1="17.4351" x2="28.8262" y2="31.9712">
			<stop  offset="0" style="stop-color:#E92629"/>
			<stop  offset="0.3873" style="stop-color:#C72226"/>
			<stop  offset="1" style="stop-color:#911A1D"/>
		</linearGradient>
		<path style="fill:url(#SVGID_7_);" d="M27.335,30.053c0-1.631,2.119-3.239,3.122-4.109c1.043-0.911,2.846-2.147,2.895-4.675
			c0.025-1.263-0.326-3.786-4.717-3.833c-1.26-0.014-2.559,0.197-3.891,0.593v1.956c1.219-0.438,2.241-0.684,3.073-0.652
			c3.135,0.109,2.135,2.98,1.805,3.475c-0.957,1.433-5.446,3.662-5.374,7.901v1.263h9.159v-1.918H27.335z"/>
		<linearGradient id="SVGID_8_" gradientUnits="userSpaceOnUse" x1="14.0122" y1="12.5356" x2="57.2815" y2="55.8062">
			<stop  offset="0" style="stop-color:#FFFFFF"/>
			<stop  offset="1" style="stop-color:#B3B2C9"/>
		</linearGradient>
		<polygon style="fill:url(#SVGID_8_);" points="38.983,31.391 32.906,31.049 32.426,37.066 		"/>
	</g>
</g>
</svg>
