<?xml version="1.0" encoding="iso-8859-1"?>
<!-- Generator: Adobe Illustrator 14.0.0, SVG Export Plug-In . SVG Version: 6.00 Build 43363)  -->
<!DOCTYPE svg PUBLIC "-//W3C//DTD SVG 1.1//EN" "http://www.w3.org/Graphics/SVG/1.1/DTD/svg11.dtd">
<svg version="1.1" id="icon-l-music-layer" xmlns="http://www.w3.org/2000/svg" xmlns:xlink="http://www.w3.org/1999/xlink" x="0px"
	 y="0px" width="80px" height="80px" viewBox="0 0 80 80" style="enable-background:new 0 0 80 80;" xml:space="preserve">
<g id="icon-l-music_1_">
	<rect style="fill:none;" width="80" height="80"/>
	<path id="_x31__pixel_shadow_9_" style="opacity:0.4;" d="M58.207,77.144c-0.089,0.025-0.182,0.046-0.271,0.069
		c-0.497,0.133-1,0.261-1.52,0.38c-0.521,0.116-1.06,0.226-1.604,0.332c-0.112,0.019-0.219,0.045-0.331,0.065
		c-4.176,0.773-8.979,1.133-14.479,1.133c-5.503,0-10.305-0.359-14.479-1.133c-0.114-0.021-0.219-0.047-0.33-0.065
		c-0.545-0.106-1.085-0.216-1.606-0.332c-0.52-0.119-1.021-0.247-1.519-0.38c-0.09-0.023-0.184-0.044-0.271-0.069
		C6.457,72.989,0.592,61.873,0.506,40.098c0,0.163-0.006,0.313-0.006,0.478C0.5,69.838,10.735,80,40.002,80
		C69.267,80,79.5,69.838,79.5,40.575c0-0.164-0.002-0.314-0.004-0.478C79.411,61.873,73.545,72.989,58.207,77.144"/>
	<path id="flat_colour_squircle_10_" style="fill:#C20068;" d="M79.5,39.57c0,29.267-10.233,39.501-39.499,39.501
		C10.733,79.071,0.5,68.837,0.5,39.57c0-29.264,10.233-39.499,39.501-39.499C69.267,0.071,79.5,10.307,79.5,39.57"/>
	<linearGradient id="shine_top_layer_1_" gradientUnits="userSpaceOnUse" x1="39.9995" y1="0" x2="39.9995" y2="79.0005">
		<stop  offset="0" style="stop-color:#FFFFFF"/>
		<stop  offset="0.7362" style="stop-color:#FFFFFF;stop-opacity:0"/>
	</linearGradient>
	<path id="shine_top_layer_11_" style="opacity:0.21;fill:url(#shine_top_layer_1_);" d="M79.5,39.5C79.5,68.766,69.267,79,40,79
		C10.736,79,0.5,68.766,0.5,39.5S10.736,0,40,0C69.267,0,79.5,10.234,79.5,39.5z"/>
	<linearGradient id="top_edge_highlight_1_" gradientUnits="userSpaceOnUse" x1="47.7109" y1="-0.1699" x2="32.2889" y2="79.1698">
		<stop  offset="0" style="stop-color:#FFFFFF"/>
		<stop  offset="0.1117" style="stop-color:#EBEBEB"/>
		<stop  offset="0.3969" style="stop-color:#BDBDBD"/>
		<stop  offset="0.6503" style="stop-color:#9B9B9B"/>
		<stop  offset="0.86" style="stop-color:#878787"/>
		<stop  offset="1" style="stop-color:#808080"/>
	</linearGradient>
	<path id="top_edge_highlight_9_" style="opacity:0.25;fill:url(#top_edge_highlight_1_);" d="M40.001,79
		C10.837,79,0.5,68.664,0.5,39.498C0.5,10.336,10.837,0,40.001,0C69.164,0,79.5,10.336,79.5,39.498C79.5,68.664,69.164,79,40.001,79
		L40.001,79z M40.001,0.986c-28.795,0-38.514,9.718-38.514,38.512c0,28.796,9.719,38.514,38.514,38.514
		c28.794,0,38.512-9.718,38.512-38.514C78.513,10.704,68.795,0.986,40.001,0.986L40.001,0.986z"/>
	<path style="opacity:0.3;" d="M54.894,25.268v5.449v3.057v8.399V53.71c0,3.3-3.455,5.972-7.716,5.972
		c-4.273,0-7.73-2.672-7.73-5.972c0-3.304,3.457-5.975,7.73-5.975c1.783,0,3.432,0.479,4.75,1.275V32.518
		c-3.711-1.473-10.331-3.791-16.574-4.398v9.779v10.486c0,3.297-3.457,5.965-7.72,5.965c-4.272,0-7.728-2.668-7.728-5.965
		c0-3.307,3.455-5.979,7.728-5.979c1.783,0,3.434,0.477,4.751,1.273V19.531c0-1.129,0.614-1.396,1.038-1.449v-0.004
		c0,0,0.011,0,0.021,0c0.209-0.02,0.371,0.008,0.371,0.008c0.11,0.018,0.682,0.083,0.799,0.106
		c2.583,0.297,11.07,1.479,18.874,4.918C53.487,23.11,54.894,23.648,54.894,25.268"/>
	<path style="fill:#FFFFFF;" d="M54.894,26.658v5.447v3.059v8.397V55.1c0,3.301-3.455,5.972-7.716,5.972
		c-4.273,0-7.73-2.671-7.73-5.972c0-3.303,3.457-5.975,7.73-5.975c1.783,0,3.432,0.479,4.75,1.274v-16.49
		c-3.711-1.475-10.331-3.79-16.574-4.399v9.779v10.485c0,3.296-3.457,5.967-7.72,5.967c-4.272,0-7.728-2.671-7.728-5.967
		c0-3.306,3.455-5.978,7.728-5.978c1.783,0,3.434,0.477,4.751,1.272V20.923c0-1.13,0.614-1.399,1.038-1.45v-0.004
		c0,0,0.011,0.001,0.021,0.001c0.209-0.021,0.371,0.005,0.371,0.005c0.11,0.021,0.682,0.085,0.799,0.107
		c2.583,0.297,11.07,1.479,18.874,4.918C53.487,24.5,54.894,25.037,54.894,26.658"/>
</g>
</svg>
