<?xml version="1.0" encoding="iso-8859-1"?>
<!-- Generator: Adobe Illustrator 14.0.0, SVG Export Plug-In . SVG Version: 6.00 Build 43363)  -->
<!DOCTYPE svg PUBLIC "-//W3C//DTD SVG 1.1//EN" "http://www.w3.org/Graphics/SVG/1.1/DTD/svg11.dtd">
<svg version="1.1" id="icon-l-mms-layer" xmlns="http://www.w3.org/2000/svg" xmlns:xlink="http://www.w3.org/1999/xlink" x="0px"
	 y="0px" width="80px" height="81px" viewBox="0 0 80 81" style="enable-background:new 0 0 80 81;" xml:space="preserve">
<g id="icon-l-mms_1_">
	<path style="fill:#75336B;" d="M62.124,20.157l-25.81,11.307L10.5,20.157v-6.988c0-0.887,0.727-1.615,1.615-1.615h48.396
		c0.888,0,1.612,0.729,1.612,1.615V20.157z M62.124,33.679v-7.536l-17.237,7.536H62.124z M29.754,34.56L10.5,26.143v20.326
		c0,0.886,0.727,1.611,1.615,1.611h17.639V34.56z M56.417,50.918c0.464,0,0.883-0.182,1.206-0.461c0.43,0.61,1.04,0.995,1.719,0.995
		c0.677,0,1.287-0.385,1.719-0.995c0.324,0.279,0.743,0.461,1.201,0.461c1.016,0,1.832-0.822,1.832-1.837
		c0-1.018-0.816-1.843-1.832-1.843c-0.23,0-0.45,0.047-0.658,0.132c-0.295-1.305-1.195-2.254-2.262-2.254s-1.969,0.949-2.264,2.254
		c-0.203-0.085-0.426-0.132-0.661-0.132c-1.009,0-1.827,0.825-1.827,1.843C54.59,50.096,55.408,50.918,56.417,50.918z
		 M55.103,58.002c-2.726-6.305-8.232-13.682-13.339,5.467H63.81C63.81,63.469,59.646,47.951,55.103,58.002z M69.5,40v28.446H36.074
		V40H69.5z M66.655,65.601V42.753l-27.736,0.021v22.826H66.655z"/>
	<rect style="fill:none;" width="80" height="80"/>
</g>
</svg>
