<?xml version="1.0" encoding="iso-8859-1"?>
<!-- Generator: Adobe Illustrator 14.0.0, SVG Export Plug-In . SVG Version: 6.00 Build 43363)  -->
<!DOCTYPE svg PUBLIC "-//W3C//DTD SVG 1.1//EN" "http://www.w3.org/Graphics/SVG/1.1/DTD/svg11.dtd">
<svg version="1.1" id="icon-m-telephony-dialer-layer"
	 xmlns="http://www.w3.org/2000/svg" xmlns:xlink="http://www.w3.org/1999/xlink" x="0px" y="0px" width="64px" height="64px"
	 viewBox="0 0 64 64" style="enable-background:new 0 0 64 64;" xml:space="preserve">
<g id="icon-m-telephony-dialer">
	<rect style="fill:none;" width="64" height="64"/>
	<rect x="24.162" y="1.436" style="fill:#333333;" width="15.896" height="9.271"/>
	<path style="fill:#333333;" d="M15.894,1.436H3.704C1.659,1.436,0,3.009,0,4.942v5.765h15.894V1.436z"/>
	<path style="fill:#333333;" d="M64,4.942c0-1.934-1.657-3.507-3.707-3.507H48.105v9.271H64V4.942z"/>
	<rect x="24.162" y="18.797" style="fill:#333333;" width="15.896" height="9.271"/>
	<rect x="24.162" y="36.156" style="fill:#333333;" width="15.896" height="9.273"/>
	<rect y="18.797" style="fill:#333333;" width="15.894" height="9.271"/>
	<path style="fill:#333333;" d="M0,41.922c0,1.937,1.659,3.508,3.704,3.508h12.189v-9.273H0V41.922z"/>
	<path style="fill:#333333;" d="M48.105,45.43h12.188c2.05,0,3.707-1.571,3.707-3.508v-5.766H48.105V45.43z"/>
	<rect x="48.105" y="18.797" style="fill:#333333;" width="15.895" height="9.271"/>
	<path style="fill:#333333;" d="M40.058,53.297v6.179c0,1.704-1.657,3.091-3.705,3.091h-8.484c-2.045,0-3.706-1.387-3.706-3.091
		v-6.179H40.058z"/>
</g>
</svg>
