<?xml version="1.0" encoding="iso-8859-1"?>
<!-- Generator: Adobe Illustrator 14.0.0, SVG Export Plug-In . SVG Version: 6.00 Build 43363)  -->
<!DOCTYPE svg PUBLIC "-//W3C//DTD SVG 1.1//EN" "http://www.w3.org/Graphics/SVG/1.1/DTD/svg11.dtd">
<svg version="1.1" id="icon-l-clock-layer" xmlns="http://www.w3.org/2000/svg" xmlns:xlink="http://www.w3.org/1999/xlink" x="0px"
	 y="0px" width="80px" height="80px" viewBox="0 0 80 80" style="enable-background:new 0 0 80 80;" xml:space="preserve">
<g id="icon-l-clock_1_">
	<rect style="fill:none;" width="80" height="80"/>
	<path id="_x31__pixel_shadow_13_" style="opacity:0.4;" d="M58.207,77.144c-0.089,0.025-0.182,0.046-0.271,0.07
		c-0.497,0.133-1,0.26-1.52,0.378c-0.521,0.118-1.06,0.228-1.604,0.332c-0.112,0.021-0.219,0.046-0.331,0.067
		c-4.176,0.772-8.979,1.132-14.479,1.132c-5.503,0-10.305-0.359-14.479-1.132c-0.114-0.021-0.219-0.047-0.33-0.067
		c-0.545-0.104-1.085-0.214-1.606-0.332c-0.52-0.118-1.021-0.245-1.519-0.378c-0.09-0.024-0.184-0.045-0.271-0.07
		C6.457,72.989,0.592,61.874,0.506,40.097c0,0.163-0.006,0.314-0.006,0.477C0.5,69.839,10.735,80,40.002,80
		C69.267,80,79.5,69.839,79.5,40.573c0-0.162-0.002-0.313-0.004-0.477C79.411,61.874,73.545,72.989,58.207,77.144"/>
	<path id="flat_colour_squircle_14_" style="fill:#C51E14;" d="M79.5,39.57c0,29.267-10.233,39.501-39.499,39.501
		C10.733,79.071,0.5,68.837,0.5,39.57c0-29.263,10.233-39.498,39.501-39.498C69.267,0.072,79.5,10.308,79.5,39.57"/>
	<linearGradient id="shine_top_layer_1_" gradientUnits="userSpaceOnUse" x1="39.9995" y1="0.0723" x2="39.9995" y2="79.0718">
		<stop  offset="0" style="stop-color:#FFFFFF"/>
		<stop  offset="0.7362" style="stop-color:#FFFFFF;stop-opacity:0"/>
	</linearGradient>
	<path id="shine_top_layer_5_" style="opacity:0.15;fill:url(#shine_top_layer_1_);" d="M79.5,39.572
		c0,29.265-10.234,39.499-39.5,39.499c-29.264,0-39.5-10.234-39.5-39.499s10.236-39.5,39.5-39.5
		C69.266,0.072,79.5,10.308,79.5,39.572z"/>
	<linearGradient id="top_edge_highlight_1_" gradientUnits="userSpaceOnUse" x1="47.7109" y1="-0.1699" x2="32.2889" y2="79.1698">
		<stop  offset="0" style="stop-color:#FFFFFF"/>
		<stop  offset="0.1117" style="stop-color:#EBEBEB"/>
		<stop  offset="0.3969" style="stop-color:#BDBDBD"/>
		<stop  offset="0.6503" style="stop-color:#9B9B9B"/>
		<stop  offset="0.86" style="stop-color:#878787"/>
		<stop  offset="1" style="stop-color:#808080"/>
	</linearGradient>
	<path id="top_edge_highlight_13_" style="opacity:0.25;fill:url(#top_edge_highlight_1_);" d="M40.001,79
		C10.837,79,0.5,68.663,0.5,39.499C0.5,10.336,10.837,0,40.001,0C69.164,0,79.5,10.336,79.5,39.499C79.5,68.663,69.164,79,40.001,79
		L40.001,79z M40.001,0.986c-28.795,0-38.514,9.719-38.514,38.513c0,28.795,9.719,38.513,38.514,38.513
		c28.794,0,38.512-9.718,38.512-38.513C78.513,10.705,68.795,0.986,40.001,0.986L40.001,0.986z"/>
	<path style="opacity:0.2;" d="M40,21.859c9.409,0,18.579,7.654,18.579,17.062c0,9.407-9.17,18.579-18.579,18.579
		c-9.408,0-18.58-9.172-18.58-18.579C21.42,29.514,30.592,21.859,40,21.859 M40,17.922c-11.598,0-21,9.402-21,21
		c0,11.597,9.402,20.999,21,20.999s21-9.402,21-20.999C61,27.324,51.598,17.922,40,17.922L40,17.922z"/>
	<path style="opacity:0.12;" d="M40,23.16c9.409,0,17.062,7.652,17.062,17.062c0,9.407-7.653,17.062-17.062,17.062
		c-9.408,0-17.062-7.655-17.062-17.062C22.938,30.812,30.592,23.16,40,23.16"/>
	<path style="fill:#FFFFFF;" d="M42.648,40.826c-0.277,1.307-1.406,2.235-2.75,2.235c-1.555,0-2.82-1.267-2.82-2.818
		c0-0.236,0.031-0.473,0.093-0.702l-6.194-7.799l2.64-2.113l6.196,7.797c0.488-0.021,0.965,0.094,1.406,0.333l5.827-2.712
		l1.427,3.073L42.648,40.826z M40,23.16c9.409,0,17.062,7.652,17.062,17.062c0,9.407-7.653,17.062-17.062,17.062
		c-9.408,0-17.062-7.655-17.062-17.062C22.938,30.812,30.592,23.16,40,23.16 M40,19.222c-11.598,0-21,9.402-21,21s9.402,21,21,21
		s21-9.402,21-21S51.598,19.222,40,19.222L40,19.222z"/>
</g>
</svg>
