<?xml version="1.0" encoding="iso-8859-1"?>
<!-- Generator: Adobe Illustrator 14.0.0, SVG Export Plug-In . SVG Version: 6.00 Build 43363)  -->
<!DOCTYPE svg PUBLIC "-//W3C//DTD SVG 1.1//EN" "http://www.w3.org/Graphics/SVG/1.1/DTD/svg11.dtd">
<svg version="1.1" id="icon-m-common-wlan-strength2-layer"
	 xmlns="http://www.w3.org/2000/svg" xmlns:xlink="http://www.w3.org/1999/xlink" x="0px" y="0px" width="48px" height="48px"
	 viewBox="0 0 48 48" style="enable-background:new 0 0 48 48;" xml:space="preserve">
<g id="icon-m-common-wlan-strength2">
	<rect style="fill:none;" width="48" height="48"/>
	<circle id="local_8_" style="fill:#333333;" cx="17" cy="32.986" r="3"/>
	<path style="fill:#333333;" d="M23.721,26.993c-1.705-1.827-4.126-2.978-6.814-2.979c-2.644,0.002-5.031,1.112-6.73,2.887
		c0,0-0.207,0.219-0.207,0.562c0,0.467,0.379,0.844,0.845,0.844c0.268,0,0.498-0.133,0.652-0.328
		c1.391-1.409,3.311-2.293,5.438-2.297h0.003c2.205,0.004,4.188,0.953,5.588,2.451c0.153,0.221,0.394,0.373,0.682,0.373
		c0.467,0,0.846-0.379,0.846-0.846C24.023,27.396,23.721,26.993,23.721,26.993z"/>
	<path style="fill:#333333;" d="M27.742,22.544c-2.779-2.786-6.601-4.528-10.835-4.53c-4.298,0.002-8.183,1.785-10.971,4.646
		c0,0-0.292,0.239-0.292,0.64c0,0.469,0.379,0.848,0.845,0.848c0.256,0,0.478-0.121,0.633-0.301l0,0
		c2.486-2.558,5.951-4.157,9.783-4.164h0.003c3.876,0.007,7.375,1.648,9.867,4.257c0,0,0.221,0.208,0.603,0.208
		c0.467,0,0.845-0.379,0.845-0.848C28.223,22.965,28.016,22.758,27.742,22.544z"/>
	<path style="fill:#333333;" d="M32.207,18.506l0.002-0.002c-0.002-0.001-0.004-0.001-0.005-0.002
		c-0.034-0.042-0.071-0.078-0.112-0.11c-3.873-3.932-9.248-6.378-15.187-6.378c-5.949,0.002-11.333,2.453-15.207,6.396
		c-0.175,0.155-0.29,0.374-0.29,0.626c0,0.467,0.379,0.846,0.845,0.846c0.416,0,0.63-0.272,0.63-0.272
		c3.572-3.644,8.537-5.918,14.02-5.927h0.002c5.529,0.011,10.527,2.322,14.106,6.02c0,0,0.263,0.18,0.551,0.18
		c0.467,0,0.845-0.379,0.845-0.846C32.408,18.832,32.328,18.652,32.207,18.506z"/>
	<rect x="35" y="38" style="fill:#333333;" width="13" height="4"/>
	<rect x="35" y="30" style="fill:#333333;" width="13" height="4"/>
	<rect x="35" y="22" style="opacity:0.3;fill:#333333;" width="13" height="4"/>
	<rect x="35" y="14" style="opacity:0.3;fill:#333333;" width="13" height="4"/>
	<rect x="35" y="6" style="opacity:0.3;fill:#333333;" width="13" height="4"/>
</g>
</svg>
