<?xml version="1.0" encoding="iso-8859-1"?>
<!-- Generator: Adobe Illustrator 14.0.0, SVG Export Plug-In . SVG Version: 6.00 Build 43363)  -->
<!DOCTYPE svg PUBLIC "-//W3C//DTD SVG 1.1//EN" "http://www.w3.org/Graphics/SVG/1.1/DTD/svg11.dtd">
<svg version="1.1" id="icon-m-toolbar-content-audio-layer"
	 xmlns="http://www.w3.org/2000/svg" xmlns:xlink="http://www.w3.org/1999/xlink" x="0px" y="0px" width="32px" height="33px"
	 viewBox="0 0 32 33" style="enable-background:new 0 0 32 33;" xml:space="preserve">
<g id="icon-m-toolbar-content-audio_1_">
	<rect y="1" style="fill:none;" width="32" height="32"/>
	<path style="fill:#FFFFFF;" d="M24.916,18.332c-1.286-0.473-2.945-0.321-4.478,0.531c-2.484,1.385-3.59,3.976-2.515,5.914
		c1.072,1.936,3.865,2.379,6.343,1.004c1.644-0.908,2.695-2.358,2.897-3.797c0.02-0.172,0.029-0.24,0.029-0.356v-2.896V1.334
		c0-0.293-0.21-0.42-0.465-0.273L12.671,8.828c-0.252,0.138-0.457,0.492-0.457,0.791v14.129c-1.292-0.465-2.955-0.312-4.482,0.541
		c-2.487,1.375-3.586,3.967-2.517,5.903c1.073,1.938,3.863,2.386,6.345,1.011c1.642-0.912,2.728-2.357,2.923-3.796
		c0.012-0.157,0.028-0.239,0.028-0.356V15.865c0-0.227,0.209-0.645,0.462-0.787l9.454-5.224c0.254-0.14,0.463-0.016,0.463,0.274
		v9.043"/>
</g>
</svg>
