<?xml version="1.0" encoding="iso-8859-1"?>
<!-- Generator: Adobe Illustrator 14.0.0, SVG Export Plug-In . SVG Version: 6.00 Build 43363)  -->
<!DOCTYPE svg PUBLIC "-//W3C//DTD SVG 1.1//EN" "http://www.w3.org/Graphics/SVG/1.1/DTD/svg11.dtd">
<svg version="1.1" id="icon-m-startup-clock-layer" xmlns="http://www.w3.org/2000/svg" xmlns:xlink="http://www.w3.org/1999/xlink"
	 x="0px" y="0px" width="64px" height="64px" viewBox="0 0 64 64" style="enable-background:new 0 0 64 64;" xml:space="preserve">
<g id="icon-m-startup-clock_1_">
	<rect style="fill:none;" width="64" height="64"/>
	<g>
		<g>
			<path style="fill:#333333;" d="M35.911,32.891c-0.411,1.93-2.079,3.301-4.061,3.301c-2.294,0-4.163-1.868-4.163-4.161
				c0-0.349,0.046-0.696,0.137-1.037L18.68,19.482l3.896-3.121l9.146,11.51c0.721-0.028,1.425,0.141,2.078,0.494l8.604-4.006
				l2.103,4.537L35.911,32.891z"/>
		</g>
	</g>
	<path style="fill:#333333;" d="M32,6.812c13.889,0,25.188,11.3,25.188,25.188S45.889,57.188,32,57.188
		c-13.889,0-25.188-11.3-25.188-25.188S18.111,6.812,32,6.812 M32,1C14.878,1,1,14.879,1,32c0,17.119,13.878,31,31,31
		c17.121,0,31-13.881,31-31C63,14.879,49.121,1,32,1L32,1z"/>
</g>
</svg>
