<?xml version="1.0" encoding="iso-8859-1"?>
<!-- Generator: Adobe Illustrator 14.0.0, SVG Export Plug-In . SVG Version: 6.00 Build 43363)  -->
<!DOCTYPE svg PUBLIC "-//W3C//DTD SVG 1.1//EN" "http://www.w3.org/Graphics/SVG/1.1/DTD/svg11.dtd">
<svg version="1.1" id="icon-s-status-silent-layer" xmlns="http://www.w3.org/2000/svg" xmlns:xlink="http://www.w3.org/1999/xlink"
	 x="0px" y="0px" width="18px" height="18px" viewBox="0 0 18 18" style="enable-background:new 0 0 18 18;" xml:space="preserve">
<g id="icon-s-status-silent">
	<rect style="fill:none;" width="18" height="18"/>
	<path style="fill:#FFFFFF;" d="M9.576,4.713V2.861h5.328V1H8.269C7.954,1,7.697,1.258,7.697,1.572v1.262L9.576,4.713z"/>
	<path style="fill:#FFFFFF;" d="M7.697,10.167v1.837c-0.762-0.272-1.972-0.319-2.875,0.184c-1.468,0.811-2.117,2.342-1.486,3.485
		c0.634,1.145,2.307,1.653,4.055,1.106c1.058-0.33,2.053-1.246,2.168-2.096c0.008-0.092,0.017-0.796,0.017-0.865l-0.001-1.772
		L7.697,10.167z"/>
	
		<rect x="8.186" y="-0.639" transform="matrix(0.7074 -0.7068 0.7068 0.7074 -2.8837 8.6453)" style="fill:#FFFFFF;" width="1.628" height="16.889"/>
</g>
</svg>
