<?xml version="1.0" encoding="iso-8859-1"?>
<!-- Generator: Adobe Illustrator 14.0.0, SVG Export Plug-In . SVG Version: 6.00 Build 43363)  -->
<!DOCTYPE svg PUBLIC "-//W3C//DTD SVG 1.1//EN" "http://www.w3.org/Graphics/SVG/1.1/DTD/svg11.dtd">
<svg version="1.1" id="icon-l-email-layer" xmlns="http://www.w3.org/2000/svg" xmlns:xlink="http://www.w3.org/1999/xlink" x="0px"
	 y="0px" width="80px" height="81px" viewBox="0 0 80 81" style="enable-background:new 0 0 80 81;" xml:space="preserve">
<g id="icon-l-email_1_">
	<path style="fill:#F78F20;" d="M62.526,17.471C57.542,12.486,50.54,10,41.513,10c-5.902,0-11.3,1.185-16.182,3.594
		c-4.882,2.395-8.665,5.824-11.319,10.298C11.332,28.381,10,33.651,10,39.734c0,9.737,2.859,17.202,8.583,22.424
		C24.295,67.388,32.013,70,41.731,70c2.412,0,5.172-0.265,8.335-0.755c3.125-0.512,5.701-1.13,7.635-1.838v-6.164
		c-5.342,1.786-10.479,2.667-15.355,2.667c-8.249,0-14.423-2.042-18.555-6.152c-4.135-4.074-6.184-10.216-6.184-18.376
		c0-7.302,2.235-13.033,6.737-17.151c4.466-4.146,10.232-6.216,17.329-6.216c6.752,0,11.984,1.969,15.683,5.902
		c3.695,3.949,5.527,9.47,5.527,16.602c0,4.05-0.537,7.189-1.661,9.411c-1.141,2.252-2.67,3.355-4.627,3.355
		c-1.517,0-2.586-0.453-3.227-1.314c-0.627-0.883-0.95-2.724-0.95-5.536c0-4.627,0.854-11.643,2.583-21.083H44.38
		c-6.033,0-10.836,1.809-14.444,5.393c-3.586,3.589-5.402,8.525-5.402,14.853c0,4.048,1.057,7.232,3.108,9.611
		c2.076,2.356,4.607,3.544,7.585,3.544c4.45,0,7.96-2.28,10.549-6.781c0.603,2.125,1.749,3.798,3.379,4.971
		c1.625,1.229,3.525,1.811,5.707,1.811c4.696,0,8.421-1.634,11.103-4.866C68.673,48.683,70,44.126,70,38.207
		C70,29.375,67.516,22.455,62.526,17.471z M44.161,39.303c-0.987,7.944-3.078,11.901-6.289,11.901c-1.715,0-2.929-0.629-3.623-1.937
		c-0.705-1.312-1.046-3.312-1.046-6.028c0-4.388,0.958-7.853,2.838-10.434c1.922-2.596,4.222-3.879,6.875-3.879h2.572L44.161,39.303
		z"/>
	<rect style="fill:none;" width="80" height="80.001"/>
</g>
</svg>
