<?xml version="1.0" encoding="iso-8859-1"?>
<!-- Generator: Adobe Illustrator 14.0.0, SVG Export Plug-In . SVG Version: 6.00 Build 43363)  -->
<!DOCTYPE svg PUBLIC "-//W3C//DTD SVG 1.1//EN" "http://www.w3.org/Graphics/SVG/1.1/DTD/svg11.dtd">
<svg version="1.1" id="icon-m-settings-keychain-layer"
	 xmlns="http://www.w3.org/2000/svg" xmlns:xlink="http://www.w3.org/1999/xlink" x="0px" y="0px" width="64px" height="64px"
	 viewBox="0 0 64 64" style="enable-background:new 0 0 64 64;" xml:space="preserve">
<g id="icon-m-settings-keychain">
	<rect style="fill:none;" width="64" height="64"/>
	<path style="fill:#333333;" d="M35.755,18.32c-5.501,1.79-7.864,7.494-6.076,12.986c1.235,3.793,6.742,6.744,6.742,6.744
		c0.143,0.059,3.771,1.176,3.854,1.486c-0.156,0.574-2.1,4.341-2.1,4.341s3.349,0.969,4.311,1.508
		c-0.315,1.16-2.119,4.38-2.119,4.38s3.77,1.46,4.853,2.162c-0.358,0.955-2.209,3.5-2.209,3.5l4.072,2.14l0.345,1.059l5.471-1.805
		c0.555-0.185,0.875-0.8,0.692-1.361l-6.409-19.688c-0.184-0.563-0.08-1.466,0.185-1.997c0,0,2.676-5.352,1.574-8.74
		C47.151,19.544,41.237,16.535,35.755,18.32z M36.851,20.999c2.535-0.825,5.271,0.561,6.1,3.104
		c0.827,2.544-0.567,5.278-3.102,6.104c-2.548,0.828-5.277-0.564-6.105-3.107C32.915,24.555,34.304,21.828,36.851,20.999z"/>
	<path style="fill:#333333;" d="M18.951,20.001l3.149-0.337c-0.951-1.315-1.595-2.88-1.81-4.602
		C19.613,9.602,23.505,4.606,28.965,3.93c5.463-0.679,10.457,3.213,11.134,8.674c0.36,2.9-0.576,5.66-2.345,7.721
		c1.096-0.01,2.17,0.172,3.189,0.508c1.597-2.449,2.373-5.451,1.985-8.58C42.057,5.22,35.647,0.227,28.614,1.099
		c-7.033,0.874-12.026,7.282-11.153,14.314C17.667,17.075,18.191,18.617,18.951,20.001z"/>
	<path style="fill:#333333;" d="M32,22h1.267l-4.214-3.543c-1.235-1.039-3.563-1.748-5.168-1.578l-7.218,0.771
		c-1.606,0.172-2.831,1.488-2.72,2.926l1.502,19.574c0.079,1.029,0.483,2.02,0.998,2.592l-1.578,5.166l0.723,0.221l-0.752,2.461
		l-0.721-0.221l-0.752,2.461l2.167,0.662l-0.752,2.463l-2.167-0.663l-0.751,2.462l2.167,0.662l-0.751,2.463l-2.167-0.662
		l-0.752,2.461L14.692,64l6.086-19.937c0.746-0.187,1.633-0.782,2.274-1.592L32,31.161V22z M28.508,26.506
		c-0.624,2.039-3.068,3.1-5.461,2.369c-2.394-0.731-3.829-2.977-3.207-5.016c0.623-2.037,3.067-3.1,5.461-2.368
		C27.695,22.221,29.13,24.468,28.508,26.506z"/>
</g>
</svg>
