<?xml version="1.0" encoding="iso-8859-1"?>
<!-- Generator: Adobe Illustrator 14.0.0, SVG Export Plug-In . SVG Version: 6.00 Build 43363)  -->
<!DOCTYPE svg PUBLIC "-//W3C//DTD SVG 1.1//EN" "http://www.w3.org/Graphics/SVG/1.1/DTD/svg11.dtd">
<svg version="1.1" id="icon-l-settings-layer" xmlns="http://www.w3.org/2000/svg" xmlns:xlink="http://www.w3.org/1999/xlink"
	 x="0px" y="0px" width="48px" height="48px" viewBox="0 0 48 48" style="enable-background:new 0 0 48 48;" xml:space="preserve">
<g id="icon-l-settings">
	<rect style="fill:none;" width="48" height="48"/>
	<g id="icon-l-settings_1_">
		<path style="opacity:0.2;fill:#010101;" d="M46.338,35.242L35.562,24.469c-1.984-1.957-3.989-2.98-4.771-3.334
			c-1.092-1.099-2.053-2.06-2.775-2.781c0.656-1.622,1.089-3.393,1.092-5.203c0.013-2.428-0.834-4.955-2.902-7.007
			c-3.265-3.258-7.59-5.725-12.245-5.736c-0.428,0.001-0.861,0.019-1.297,0.069c-0.249,0.027-0.718,0.051-1.233,0.186
			c-0.262,0.078-0.551,0.17-0.884,0.414C10.22,1.289,9.828,1.836,9.84,2.447c0.029,0.777,0.408,1.213,0.792,1.627l7.636,7.629
			c-0.592,1.645-1.591,3.152-2.547,4.102c-0.959,0.963-2.523,2.011-4.159,2.607l-7.68-7.668c-0.374-0.355-0.805-0.733-1.569-0.756
			c-0.616-0.016-1.151,0.377-1.369,0.693c-0.623,0.943-0.533,1.688-0.623,2.135c-0.047,0.418-0.067,0.836-0.067,1.254
			c0.013,4.671,2.538,8.961,5.791,12.232c1.977,1.979,4.473,2.733,6.857,2.725c1.896-0.002,3.752-0.448,5.424-1.087
			c0.726,0.727,1.699,1.699,2.814,2.812c0.323,0.725,1.351,2.809,3.338,4.795L35.26,46.324c0.838,0.844,1.955,1.271,3.061,1.269
			h0.011c1.107,0,2.218-0.433,3.061-1.272l5.154-5.146c0.07-0.097,1.161-1.063,1.198-2.857
			C47.757,37.327,47.311,36.196,46.338,35.242z"/>
		<path style="opacity:0.5;fill:#010101;" d="M45.412,36.17C45.405,36.166,34.64,25.4,34.634,25.398
			c-2.156-2.156-4.553-3.152-4.597-3.165c-1.527-1.529-2.813-2.815-3.581-3.58c1.714-3.686,2.236-8.174-1.175-11.581
			c-3.377-3.378-7.912-5.76-12.478-5.293c-0.735,0.076-2.425,0.178-1.238,1.371l8.2,8.195c-0.612,2.156-1.853,4.123-3.116,5.387
			c-1.275,1.271-3.297,2.571-5.448,3.176L2.957,11.68c-1.109-1.119-1.248,0.533-1.33,1.272c-0.464,4.562,1.976,9.044,5.351,12.423
			c3.283,3.281,8.026,2.613,11.666,1.025c0.759,0.755,2.059,2.055,3.606,3.607v0.002c0,0,0.948,2.406,3.158,4.61
			c0.003,0.005,10.777,10.774,10.779,10.775c1.177,1.183,3.098,1.183,4.279-0.005c0.004,0,5.152-5.148,5.152-5.148
			S47.588,38.352,45.412,36.17z"/>
		<linearGradient id="SVGID_1_" gradientUnits="userSpaceOnUse" x1="22.9565" y1="-5.2817" x2="22.9565" y2="36.7196">
			<stop  offset="0" style="stop-color:#FFFFFF"/>
			<stop  offset="1" style="stop-color:#B3B2C9"/>
		</linearGradient>
		<path style="fill:url(#SVGID_1_);" d="M43.479,34.363c-0.033-0.035-13.617-13.621-17.022-17.025
			c1.714-3.682,2.236-8.172-1.175-11.576c-3.377-3.377-7.912-5.76-12.478-5.293c-0.735,0.076-2.425,0.174-1.238,1.367l8.2,8.195
			c-0.612,2.159-1.853,4.125-3.116,5.388c-1.275,1.271-3.297,2.572-5.448,3.177l-8.245-8.23c-1.109-1.119-1.248,0.537-1.33,1.273
			c-0.464,4.565,1.976,9.045,5.351,12.426c3.283,3.278,8.026,2.611,11.666,1.022c3.34,3.339,17.026,17.027,17.06,17.057
			c0.995,0.991,2.609,0.991,3.604-0.001c0.008-0.002,4.348-4.344,4.348-4.344S45.314,36.199,43.479,34.363z"/>
		<path style="opacity:0.2;" d="M19.738,10.005l1.371-0.375l-7.952-7.95L11.22,1.355c0.059,0.137,0.157,0.293,0.346,0.48
			L19.738,10.005z M43.1,36.17c0,0.18-0.073,0.387-0.167,0.536l-4.502,4.558c-0.259,0.258-0.595,0.382-0.933,0.382
			c-0.339,0-0.664-0.122-0.918-0.375L18.923,23.613l-0.774,0.337c-1.638,0.715-3.499,1.214-5.245,1.21
			c-1.892-0.006-3.602-0.533-5.05-1.977c-2.951-2.949-5.06-6.727-5.045-10.425l0.031-0.765L2.308,9.988
			C1.786,10,1.691,11.08,1.627,11.639c-0.464,4.565,1.976,9.045,5.351,12.426c3.283,3.278,8.026,2.611,11.666,1.022
			c3.34,3.339,17.06,17.057,17.06,17.057c0.995,0.991,2.609,0.991,3.604-0.001c0.008-0.002,4.348-4.344,4.348-4.344
			s0.683-0.668,0.683-1.629H43.1z"/>
		<path style="opacity:0.4;fill:#FFFFFF;" d="M19.738,10.005c-0.614,2.162-1.826,4.151-3.089,5.414
			c-1.275,1.271-3.297,2.572-5.448,3.177l-8.245-8.23c-0.269-0.278-0.479-0.378-0.648-0.377l0.531,2.006l7.998,7.995l0.7-0.202
			c2.396-0.678,4.548-2.061,5.982-3.488c1.428-1.438,2.75-3.537,3.44-5.93l0.149-0.739L19.738,10.005z M43.479,34.363
			c0,0-17.016-17.021-17.022-17.025c0.842-1.809,1.393-3.812,1.334-5.789c-0.062-2.045-0.774-4.058-2.509-5.787
			c-3.377-3.377-7.912-5.76-12.478-5.293c-0.618,0.062-1.889,0.156-1.584,0.887l1.938,0.324c0.261-0.024,0.528-0.031,0.8-0.031
			c3.707-0.012,7.516,2.045,10.443,4.99c1.574,1.584,2.139,3.313,2.154,5.188c0.002,0.005,0.002,0.006,0.002,0.009
			c0,1.644-0.482,3.381-1.223,4.983l-0.37,0.785L42.599,35.24c0.464,0.477,0.49,0.73,0.501,0.93h1.237
			C44.334,35.637,44.127,35.019,43.479,34.363z"/>
		
			<linearGradient id="SVGID_2_" gradientUnits="userSpaceOnUse" x1="41.0605" y1="26.9258" x2="27.5144" y2="40.4726" gradientTransform="matrix(1 0 0 1 -0.3291 0.0928)">
			<stop  offset="0" style="stop-color:#517EBF"/>
			<stop  offset="1" style="stop-color:#283176"/>
		</linearGradient>
		<path style="fill:url(#SVGID_2_);" d="M34.634,24.088c-2.177-2.18-4.604-3.173-4.604-3.173l-7.78,7.781
			c0,0,0.948,2.405,3.158,4.608c0.003,0.009,10.777,10.781,10.779,10.783c1.177,1.182,3.098,1.182,4.279-0.005
			c0.004,0,5.152-5.151,5.152-5.151s1.969-1.893-0.207-4.071C45.405,34.854,34.64,24.091,34.634,24.088z"/>
	</g>
</g>
</svg>
