<?xml version="1.0" encoding="iso-8859-1"?>
<!-- Generator: Adobe Illustrator 14.0.0, SVG Export Plug-In . SVG Version: 6.00 Build 43363)  -->
<!DOCTYPE svg PUBLIC "-//W3C//DTD SVG 1.1//EN" "http://www.w3.org/Graphics/SVG/1.1/DTD/svg11.dtd">
<svg version="1.1" id="icon-l-calculator-layer" xmlns="http://www.w3.org/2000/svg" xmlns:xlink="http://www.w3.org/1999/xlink"
	 x="0px" y="0px" width="48px" height="49px" viewBox="0 0 48 49" style="enable-background:new 0 0 48 49;" xml:space="preserve">
<g id="icon-l-calculator">
	<rect style="fill:none;" width="48" height="48"/>
	<g>
		<path style="opacity:0.2;fill:#010101;" d="M36.441,1.59H11.558c-1.534,0.006-2.76,1.236-2.767,2.763v41.475
			c0.007,1.528,1.239,2.761,2.767,2.763h24.884c1.525-0.002,2.76-1.23,2.766-2.763V4.353C39.197,2.822,37.974,1.596,36.441,1.59z"/>
		<path style="opacity:0.5;fill:#010101;" d="M10.175,42.826v3.001c0,0.762,0.621,1.383,1.382,1.383h24.884
			c0.76,0,1.383-0.621,1.383-1.383V42.82L10.175,42.826z"/>
		<linearGradient id="SVGID_1_" gradientUnits="userSpaceOnUse" x1="23.9995" y1="-2.5596" x2="23.9995" y2="47.2079">
			<stop  offset="0" style="stop-color:#5F83C2"/>
			<stop  offset="1" style="stop-color:#283176"/>
		</linearGradient>
		<path style="fill:url(#SVGID_1_);" d="M36.441,1.59H11.558c-0.761,0-1.382,0.625-1.382,1.383v41.474
			c0,0.762,0.621,1.381,1.382,1.381h24.884c0.76,0,1.383-0.619,1.383-1.381V2.973C37.824,2.215,37.201,1.59,36.441,1.59z"/>
		<path style="fill:#FFFFFF;" d="M15.013,25.092c0,0.761,0.621,1.382,1.382,1.382h1.383c0.758,0,1.382-0.621,1.382-1.382v-1.384
			c0-0.758-0.624-1.382-1.382-1.382h-1.383c-0.761,0-1.382,0.624-1.382,1.382V25.092z"/>
		<path style="fill:#FFFFFF;" d="M21.927,25.092c0,0.761,0.621,1.382,1.382,1.382h1.382c0.758,0,1.382-0.621,1.382-1.382v-1.384
			c0-0.758-0.624-1.382-1.382-1.382h-1.382c-0.761,0-1.382,0.624-1.382,1.382V25.092z"/>
		<path style="fill:#FFFFFF;" d="M30.221,22.326c-0.762,0-1.383,0.624-1.383,1.382v1.384c0,0.761,0.621,1.382,1.383,1.382h1.383
			c0.759,0,1.382-0.621,1.382-1.382v-1.384c0-0.758-0.623-1.382-1.382-1.382H30.221z"/>
		<path style="fill:#FFFFFF;" d="M15.013,32.004c0,0.763,0.621,1.383,1.382,1.383h1.383c0.758,0,1.382-0.62,1.382-1.383v-1.383
			c0-0.758-0.624-1.383-1.382-1.383h-1.383c-0.761,0-1.382,0.625-1.382,1.383V32.004z"/>
		<path style="fill:#FFFFFF;" d="M21.927,32.004c0,0.763,0.621,1.383,1.382,1.383h1.382c0.758,0,1.382-0.62,1.382-1.383v-1.383
			c0-0.758-0.624-1.383-1.382-1.383h-1.382c-0.761,0-1.382,0.625-1.382,1.383V32.004z"/>
		<path style="fill:#FFFFFF;" d="M28.838,32.004c0,0.763,0.621,1.383,1.383,1.383h1.383c0.759,0,1.382-0.62,1.382-1.383v-1.383
			c0-0.758-0.623-1.383-1.382-1.383h-1.383c-0.762,0-1.383,0.625-1.383,1.383V32.004z"/>
		<path style="fill:#FFFFFF;" d="M15.013,38.916c0,0.761,0.621,1.383,1.382,1.383h1.383c0.758,0,1.382-0.622,1.382-1.383v-1.383
			c0-0.758-0.624-1.383-1.382-1.383h-1.383c-0.761,0-1.382,0.625-1.382,1.383V38.916z"/>
		<path style="fill:#FFFFFF;" d="M21.927,38.916c0,0.761,0.621,1.383,1.382,1.383h1.382c0.758,0,1.382-0.622,1.382-1.383v-1.383
			c0-0.758-0.624-1.383-1.382-1.383h-1.382c-0.761,0-1.382,0.625-1.382,1.383V38.916z"/>
		<path style="fill:#FFFFFF;" d="M28.838,38.916c0,0.761,0.621,1.383,1.383,1.383h1.383c0.759,0,1.382-0.622,1.382-1.383v-1.383
			c0-0.758-0.623-1.383-1.382-1.383h-1.383c-0.762,0-1.383,0.625-1.383,1.383V38.916z"/>
		<linearGradient id="SVGID_2_" gradientUnits="userSpaceOnUse" x1="24.0005" y1="18.1797" x2="24.0005" y2="7.1179">
			<stop  offset="0" style="stop-color:#5F83C2"/>
			<stop  offset="1" style="stop-color:#283176"/>
		</linearGradient>
		<rect x="11.558" y="5.735" style="fill:url(#SVGID_2_);" width="24.886" height="12.444"/>
		<linearGradient id="SVGID_3_" gradientUnits="userSpaceOnUse" x1="23.9995" y1="8.502" x2="23.9995" y2="43.065">
			<stop  offset="0" style="stop-color:#DEEDF8"/>
			<stop  offset="1" style="stop-color:#3AC5F2"/>
		</linearGradient>
		<rect x="12.941" y="7.119" style="fill:url(#SVGID_3_);" width="22.118" height="9.678"/>
		<polygon style="fill:#010101;" points="27.067,15.414 22.617,15.414 22.617,14.581 24.105,14.581 24.105,9.51 22.617,9.829 
			22.617,8.997 24.819,8.312 25.663,8.312 25.663,14.581 27.067,14.581 		"/>
		<path style="fill:#010101;" d="M32.58,15.414h-4.469v-0.617c0-0.508,0.139-1.76,1.828-3.087c1.008-0.896,0.988-1.227,0.988-1.481
			c0-0.672-0.445-1.503-2.574-0.687V8.585c0.646-0.192,1.271-0.304,1.883-0.29c2.061,0.043,2.284,1.258,2.284,1.876
			c0,0.368,0.133,0.989-1.398,2.29c-1.645,1.399-1.491,1.801-1.511,2.015h2.967L32.58,15.414L32.58,15.414z"/>
		<polygon style="opacity:0.25;fill:#FFFFFF;" points="29.67,7.119 12.941,7.119 12.941,14.922 		"/>
	</g>
</g>
</svg>
