<?xml version="1.0" encoding="iso-8859-1"?>
<!-- Generator: Adobe Illustrator 14.0.0, SVG Export Plug-In . SVG Version: 6.00 Build 43363)  -->
<!DOCTYPE svg PUBLIC "-//W3C//DTD SVG 1.1//EN" "http://www.w3.org/Graphics/SVG/1.1/DTD/svg11.dtd">
<svg version="1.1" id="icon-l-mms-layer" xmlns="http://www.w3.org/2000/svg" xmlns:xlink="http://www.w3.org/1999/xlink" x="0px"
	 y="0px" width="45px" height="44px" viewBox="0 0 45 44" style="enable-background:new 0 0 45 44;" xml:space="preserve">
<g id="icon-l-mms_1_">
	<path style="fill:#75336B;" d="M39.166,6.527l-19.581,8.578L0,6.527V1.225C0,0.553,0.551,0,1.226,0h36.717
		c0.674,0,1.224,0.553,1.224,1.225V6.527z M39.166,16.785v-5.717l-13.078,5.717H39.166z M14.607,17.453L0,11.068v15.42
		c0,0.674,0.551,1.225,1.226,1.225h13.382V17.453z M34.836,29.865c0.352,0,0.67-0.137,0.915-0.35
		c0.326,0.463,0.789,0.754,1.304,0.754c0.514,0,0.977-0.291,1.305-0.754c0.245,0.213,0.563,0.35,0.911,0.35
		c0.771,0,1.39-0.625,1.39-1.395c0-0.771-0.619-1.398-1.39-1.398c-0.175,0-0.342,0.037-0.5,0.102
		c-0.224-0.99-0.906-1.711-1.716-1.711c-0.809,0-1.493,0.721-1.717,1.711c-0.154-0.064-0.323-0.102-0.502-0.102
		c-0.766,0-1.386,0.627-1.386,1.398C33.45,29.24,34.07,29.865,34.836,29.865z M33.839,35.24c-2.068-4.783-6.246-10.381-10.12,4.146
		h16.726C40.444,39.387,37.286,27.613,33.839,35.24z M44.762,21.582v21.582H19.402V21.582H44.762z M42.604,41.004V23.67
		l-21.043,0.016v17.318H42.604z"/>
</g>
</svg>
