<?xml version="1.0" encoding="iso-8859-1"?>
<!-- Generator: Adobe Illustrator 14.0.0, SVG Export Plug-In . SVG Version: 6.00 Build 43363)  -->
<!DOCTYPE svg PUBLIC "-//W3C//DTD SVG 1.1//EN" "http://www.w3.org/Graphics/SVG/1.1/DTD/svg11.dtd">
<svg version="1.1" id="icon-m-organizer-checkbox-checked-layer"
	 xmlns="http://www.w3.org/2000/svg" xmlns:xlink="http://www.w3.org/1999/xlink" x="0px" y="0px" width="64px" height="64px"
	 viewBox="0 0 64 64" style="enable-background:new 0 0 64 64;" xml:space="preserve">
<g id="icon-m-organizer-checkbox-checked_2_">
	<rect x="-1" style="fill:none;" width="64" height="64"/>
	<path style="fill:#333333;" d="M62.951,14.766c-0.1-0.3-0.395-0.5-0.721-0.494c-18.709,0.361-32.537,18.613-35.354,22.572
		l-9.202-9.229c-0.279-0.281-0.75-0.297-1.046-0.025l-5.559,5.003c-0.145,0.135-0.228,0.316-0.233,0.51
		c-0.004,0.2,0.072,0.38,0.213,0.521l16.667,16.334c0.139,0.142,0.335,0.216,0.533,0.216c0.02,0,0.042-0.001,0.062-0.003
		c0.22-0.018,0.422-0.131,0.547-0.303c8.063-11.142,16.528-19.722,22.967-25.512c6.445-5.789,10.84-8.768,10.846-8.78
		C62.939,15.396,63.051,15.066,62.951,14.766z"/>
	<path style="fill:#333333;" d="M48.156,34.84v18.603c0,1.097-0.902,1.994-2.006,1.994H7.037c-1.104,0-2.009-0.897-2.009-1.994
		V10.557c0-1.1,0.904-1.995,2.009-1.995H46.15c1.104,0,2.006,0.896,2.006,1.995v0.35c1.908-0.977,3.918-1.816,6.016-2.467V4.572
		c0-1.095-0.902-1.99-2.004-1.99H1.018c-1.103,0-2.006,0.896-2.006,1.99v54.853c0,1.096,0.903,1.995,2.006,1.995h51.15
		c1.102,0,2.004-0.674,2.004-1.495V29.318c-0.594,0.521-1.205,1.057-1.844,1.63C51.018,32.131,49.615,33.432,48.156,34.84z"/>
</g>
</svg>
