<?xml version="1.0" encoding="iso-8859-1"?>
<!-- Generator: Adobe Illustrator 14.0.0, SVG Export Plug-In . SVG Version: 6.00 Build 43363)  -->
<!DOCTYPE svg PUBLIC "-//W3C//DTD SVG 1.1//EN" "http://www.w3.org/Graphics/SVG/1.1/DTD/svg11.dtd">
<svg version="1.1" id="icon-l-settings-layer" xmlns="http://www.w3.org/2000/svg" xmlns:xlink="http://www.w3.org/1999/xlink"
	 x="0px" y="0px" width="80px" height="80px" viewBox="0 0 80 80" style="enable-background:new 0 0 80 80;" xml:space="preserve">
<g id="icon-l-settings_2_">
	<rect style="fill:none;" width="80" height="80"/>
	<path id="_x31__pixel_shadow_3_" style="opacity:0.4;" d="M58.207,77.144c-0.088,0.025-0.182,0.046-0.271,0.07
		c-0.496,0.132-1,0.26-1.52,0.377c-0.521,0.119-1.059,0.228-1.604,0.332c-0.113,0.021-0.219,0.047-0.332,0.068
		c-4.176,0.772-8.979,1.132-14.479,1.132c-5.502,0-10.305-0.359-14.479-1.132c-0.115-0.021-0.219-0.047-0.33-0.068
		c-0.545-0.104-1.086-0.213-1.607-0.332c-0.52-0.117-1.02-0.245-1.518-0.377c-0.09-0.024-0.184-0.045-0.271-0.07
		C6.457,72.99,0.592,61.874,0.506,40.098c0,0.162-0.006,0.313-0.006,0.477c0,29.265,10.236,39.425,39.502,39.425
		S79.5,69.839,79.5,40.574c0-0.163-0.002-0.314-0.004-0.477C79.412,61.874,73.545,72.99,58.207,77.144"/>
	<path id="flat_colour_squircle_4_" style="fill:#9095A2;" d="M79.5,39.57c0,29.267-10.232,39.501-39.498,39.501
		C10.734,79.071,0.5,68.837,0.5,39.57c0-29.264,10.234-39.498,39.502-39.498C69.268,0.072,79.5,10.307,79.5,39.57"/>
	<linearGradient id="shine_top_layer_1_" gradientUnits="userSpaceOnUse" x1="39.8218" y1="0" x2="39.8218" y2="79.0005">
		<stop  offset="0" style="stop-color:#FFFFFF"/>
		<stop  offset="0.7362" style="stop-color:#FFFFFF;stop-opacity:0"/>
	</linearGradient>
	<path id="shine_top_layer_3_" style="opacity:0.4;fill:url(#shine_top_layer_1_);" d="M79.322,39.5c0,29.265-10.234,39.5-39.5,39.5
		c-29.265,0-39.5-10.235-39.5-39.5c0-29.266,10.235-39.5,39.5-39.5C69.088,0,79.322,10.234,79.322,39.5z"/>
	<linearGradient id="top_edge_highlight_1_" gradientUnits="userSpaceOnUse" x1="47.7109" y1="-0.1699" x2="32.2888" y2="79.1703">
		<stop  offset="0" style="stop-color:#FFFFFF"/>
		<stop  offset="0.1117" style="stop-color:#EBEBEB"/>
		<stop  offset="0.3969" style="stop-color:#BDBDBD"/>
		<stop  offset="0.6503" style="stop-color:#9B9B9B"/>
		<stop  offset="0.86" style="stop-color:#878787"/>
		<stop  offset="1" style="stop-color:#808080"/>
	</linearGradient>
	<path id="top_edge_highlight_3_" style="opacity:0.61;fill:url(#top_edge_highlight_1_);" d="M40.002,79
		C10.838,79,0.5,68.664,0.5,39.499C0.5,10.336,10.838,0,40.002,0C69.164,0,79.5,10.336,79.5,39.499C79.5,68.664,69.164,79,40.002,79
		L40.002,79z M40.002,0.986c-28.795,0-38.514,9.719-38.514,38.513c0,28.795,9.719,38.514,38.514,38.514
		c28.793,0,38.512-9.719,38.512-38.514C78.514,10.705,68.795,0.986,40.002,0.986L40.002,0.986z"/>
	<path style="opacity:0.3;" d="M60.139,51.647L42.973,34.465c0.846-1.141,4.967-8.617-4.908-14.333
		c-4.449-2.577-11.207-2.662-9.221-0.671l7.908,7.914c-1.246,3.804-3.941,7.086-8.266,8.258l-7.941-7.957
		c-1.072-1.078-1.289,0.414-1.289,3.338c0,3.543,5.855,16.578,16.34,10.776l17.193,17.211c0.814,0.81,2.127,0.81,2.939,0
		l4.408-4.412C60.947,53.773,60.947,52.459,60.139,51.647z"/>
	<path style="fill:#FFFFFF;" d="M60.139,53.11L42.973,35.93c0.846-1.142,4.967-8.619-4.908-14.334
		c-4.449-2.576-11.207-2.662-9.221-0.672l7.908,7.914c-1.246,3.805-3.941,7.087-8.266,8.258l-7.941-7.956
		c-1.072-1.078-1.289,0.414-1.289,3.338c0,3.544,5.855,16.578,16.34,10.775l17.193,17.213c0.814,0.809,2.127,0.809,2.939,0
		l4.408-4.413C60.947,55.237,60.947,53.923,60.139,53.11z"/>
</g>
</svg>
