<?xml version="1.0" encoding="iso-8859-1"?>
<!-- Generator: Adobe Illustrator 14.0.0, SVG Export Plug-In . SVG Version: 6.00 Build 43363)  -->
<!DOCTYPE svg PUBLIC "-//W3C//DTD SVG 1.1//EN" "http://www.w3.org/Graphics/SVG/1.1/DTD/svg11.dtd">
<svg version="1.1" id="icon-l-notes-layer" xmlns="http://www.w3.org/2000/svg" xmlns:xlink="http://www.w3.org/1999/xlink" x="0px"
	 y="0px" width="80px" height="80px" viewBox="0 0 80 80" style="enable-background:new 0 0 80 80;" xml:space="preserve">
<g id="icon-l-notes_1_">
	<rect style="fill:none;" width="80" height="80"/>
	<path id="_x31__pixel_shadow_20_" style="opacity:0.4;" d="M58.207,77.143c-0.089,0.026-0.182,0.046-0.271,0.069
		c-0.497,0.133-1,0.262-1.52,0.379c-0.521,0.117-1.06,0.228-1.604,0.332c-0.112,0.02-0.219,0.046-0.331,0.066
		c-4.176,0.773-8.979,1.133-14.479,1.133c-5.503,0-10.305-0.359-14.479-1.133c-0.114-0.021-0.219-0.047-0.33-0.066
		c-0.545-0.104-1.085-0.215-1.606-0.332c-0.52-0.117-1.021-0.246-1.519-0.379c-0.09-0.023-0.184-0.043-0.271-0.069
		C6.457,72.989,0.592,61.874,0.506,40.096c0,0.163-0.006,0.314-0.006,0.477C0.5,69.839,10.735,80,40.002,80
		C69.267,80,79.5,69.839,79.5,40.572c0-0.162-0.002-0.313-0.004-0.477C79.411,61.874,73.545,72.989,58.207,77.143"/>
	<path id="flat_colour_squircle_21_" style="fill:#C51E14;" d="M79.5,39.57c0,29.267-10.233,39.501-39.499,39.501
		C10.733,79.071,0.5,68.837,0.5,39.57c0-29.265,10.233-39.5,39.501-39.5C69.267,0.07,79.5,10.306,79.5,39.57"/>
	<linearGradient id="shine_top_layer_1_" gradientUnits="userSpaceOnUse" x1="39.9995" y1="0" x2="39.9995" y2="79.0005">
		<stop  offset="0" style="stop-color:#FFFFFF"/>
		<stop  offset="0.7362" style="stop-color:#FFFFFF;stop-opacity:0"/>
	</linearGradient>
	<path id="shine_top_layer_13_" style="opacity:0.15;fill:url(#shine_top_layer_1_);" d="M79.5,39.5C79.5,68.764,69.266,79,40,79
		C10.735,79,0.5,68.764,0.5,39.5C0.5,10.234,10.735,0,40,0C69.266,0,79.5,10.234,79.5,39.5z"/>
	<linearGradient id="top_edge_highlight_1_" gradientUnits="userSpaceOnUse" x1="47.7109" y1="-0.1699" x2="32.2889" y2="79.1698">
		<stop  offset="0" style="stop-color:#FFFFFF"/>
		<stop  offset="0.1117" style="stop-color:#EBEBEB"/>
		<stop  offset="0.3969" style="stop-color:#BDBDBD"/>
		<stop  offset="0.6503" style="stop-color:#9B9B9B"/>
		<stop  offset="0.86" style="stop-color:#878787"/>
		<stop  offset="1" style="stop-color:#808080"/>
	</linearGradient>
	<path id="top_edge_highlight_20_" style="opacity:0.25;fill:url(#top_edge_highlight_1_);" d="M40.001,79
		C10.837,79,0.5,68.663,0.5,39.498C0.5,10.336,10.837,0,40.001,0C69.164,0,79.5,10.336,79.5,39.498C79.5,68.663,69.164,79,40.001,79
		L40.001,79z M40.001,0.986c-28.795,0-38.514,9.717-38.514,38.512c0,28.796,9.719,38.513,38.514,38.513
		c28.794,0,38.512-9.717,38.512-38.513C78.513,10.703,68.795,0.986,40.001,0.986L40.001,0.986z"/>
	<path style="opacity:0.3;" d="M56.979,26.668v-5.701c0-0.768-0.629-1.396-1.398-1.396h-4.641v2.14c0,0.815-0.669,1.484-1.48,1.484
		h-0.867c-0.815,0-1.483-0.669-1.483-1.484v-2.14h-5.195v2.14c0,0.815-0.668,1.484-1.481,1.484h-0.866
		c-0.812,0-1.482-0.669-1.482-1.484v-2.14h-5.196v2.14c0,0.815-0.665,1.484-1.48,1.484h-0.867c-0.812,0-1.481-0.669-1.481-1.484
		v-2.14H24.42c-0.771,0-1.398,0.629-1.398,1.396v5.701H56.979z"/>
	<g style="opacity:0.12;">
		<path style="opacity:0.3;" d="M23.021,29.292v27.501c0,0.771,0.628,1.398,1.398,1.398h31.16c0.77,0,1.398-0.628,1.398-1.396
			V29.292H23.021z"/>
	</g>
	<path style="fill:#FFFFFF;" d="M56.979,22.347c0-0.767-0.629-1.396-1.398-1.396h-4.641v2.137c0,0.816-0.669,1.484-1.48,1.484
		h-0.867c-0.815,0-1.483-0.668-1.483-1.484v-2.137h-5.195v2.137c0,0.816-0.668,1.484-1.481,1.484h-0.866
		c-0.812,0-1.482-0.668-1.482-1.484v-2.137h-5.196v2.137c0,0.816-0.665,1.484-1.48,1.484h-0.867c-0.812,0-1.481-0.668-1.481-1.484
		v-2.137H24.42c-0.771,0-1.398,0.629-1.398,1.396v35.826c0,0.771,0.628,1.398,1.398,1.398h31.16c0.77,0,1.398-0.628,1.398-1.397
		V22.347L56.979,22.347z M28.446,30.383h22.913v3.673H28.446V30.383z M28.446,38.222h22.913v3.674H28.446V38.222z M28.446,46.058
		h11.459v3.676H28.446V46.058z"/>
</g>
</svg>
