<?xml version="1.0" encoding="iso-8859-1"?>
<!-- Generator: Adobe Illustrator 14.0.0, SVG Export Plug-In . SVG Version: 6.00 Build 43363)  -->
<!DOCTYPE svg PUBLIC "-//W3C//DTD SVG 1.1//EN" "http://www.w3.org/Graphics/SVG/1.1/DTD/svg11.dtd">
<svg version="1.1" id="icon-m-gallery-image-edit-layer"
	 xmlns="http://www.w3.org/2000/svg" xmlns:xlink="http://www.w3.org/1999/xlink" x="0px" y="0px" width="65px" height="64px"
	 viewBox="0 0 65 64" style="enable-background:new 0 0 65 64;" xml:space="preserve">
<g id="icon-m-gallery-image-edit">
	<rect x="1" style="fill:none;" width="64" height="64"/>
	<path style="fill:#333333;" d="M10.002,54.541h32.381c0,0-6.326-22.209-13.003-7.435C25.373,37.841,17.508,26.394,10.002,54.541z"
		/>
	<path style="fill:#333333;" d="M46.646,36.479v21.659H5.414V25.146h21.612l1.513-4.497H1v41.988h50.062V32.301l-3.208,3.184
		C47.509,35.832,47.088,36.162,46.646,36.479z"/>
	<path style="fill:#333333;" d="M64.697,8.998l-7.312-7.332c-0.407-0.403-1.067-0.403-1.474,0L34.896,22.48
		c-0.401,0.404-0.881,1.18-1.065,1.723l-3.752,11.262c-0.179,0.541,0.117,0.837,0.661,0.657l11.248-3.753
		c0.538-0.18,1.312-0.658,1.717-1.064l20.99-20.836C65.102,10.066,65.102,9.402,64.697,8.998z M41.61,29.837l-4.487,1.497
		l-2.259-2.259l1.497-4.496l1.991-1.992l5.204,5.302L41.61,29.837z"/>
</g>
</svg>
