<?xml version="1.0" encoding="iso-8859-1"?>
<!-- Generator: Adobe Illustrator 14.0.0, SVG Export Plug-In . SVG Version: 6.00 Build 43363)  -->
<!DOCTYPE svg PUBLIC "-//W3C//DTD SVG 1.1//EN" "http://www.w3.org/Graphics/SVG/1.1/DTD/svg11.dtd">
<svg version="1.1" id="icon-m-toolbar-refresh-layer"
	 xmlns="http://www.w3.org/2000/svg" xmlns:xlink="http://www.w3.org/1999/xlink" x="0px" y="0px" width="32px" height="32px"
	 viewBox="0 0 32 32" style="enable-background:new 0 0 32 32;" xml:space="preserve">
<g id="icon-m-toolbar-refresh_1_">
	<rect style="fill:none;" width="32" height="32"/>
	<path style="fill:#FFFFFF;" d="M16,1.6C8.047,1.6,1.6,8.047,1.6,16c0,7.952,6.447,14.4,14.4,14.4S30.4,23.952,30.4,16
		C30.4,8.047,23.953,1.6,16,1.6z M8.864,21.688c-0.113,0-0.227-0.041-0.315-0.123l-5.4-5.005C3.055,16.473,3.001,16.352,3,16.226
		c-0.002-0.128,0.05-0.25,0.141-0.341c0.087-0.082,0.243-0.168,0.363-0.168h2.933c0.153-5.02,4.286-9.058,9.342-9.062
		c1.832,0,3.609,0.534,5.139,1.547c0.115,0.076,0.191,0.201,0.205,0.341c0.015,0.138-0.034,0.274-0.133,0.374l-2.102,2.104
		c-0.145,0.145-0.365,0.178-0.545,0.082c-0.799-0.42-1.662-0.635-2.564-0.635c-2.951,0.004-5.374,2.334-5.529,5.25h3.975
		c0.124,0,0.241,0.049,0.328,0.137c0.089,0.089,0.158,0.229,0.156,0.355c-0.002,0.127-0.037,0.267-0.129,0.351l-5.4,5.005
		C9.091,21.646,8.978,21.688,8.864,21.688z M28.497,16.646h-3.404c-0.336,4.834-4.421,8.697-9.313,8.699h0
		c-1.57-0.001-3.123-0.398-4.49-1.148c-0.128-0.071-0.215-0.199-0.236-0.344c-0.02-0.144,0.028-0.29,0.131-0.393l2.173-2.174
		c0.128-0.128,0.32-0.17,0.489-0.105c0.632,0.234,1.283,0.354,1.934,0.354c2.84-0.003,5.167-2.116,5.49-4.89h-3.497
		c-0.119,0-0.235-0.049-0.322-0.131c-0.092-0.089-0.162-0.23-0.16-0.358c0.001-0.126,0.036-0.267,0.129-0.354l5.4-5.002
		c0.178-0.164,0.452-0.164,0.631,0l5.4,5.002c0.094,0.088,0.147,0.211,0.148,0.338c0.001,0.129-0.051,0.25-0.145,0.34
		C28.769,16.562,28.617,16.646,28.497,16.646z"/>
</g>
</svg>
