<?xml version="1.0" encoding="iso-8859-1"?>
<!-- Generator: Adobe Illustrator 14.0.0, SVG Export Plug-In . SVG Version: 6.00 Build 43363)  -->
<!DOCTYPE svg PUBLIC "-//W3C//DTD SVG 1.1//EN" "http://www.w3.org/Graphics/SVG/1.1/DTD/svg11.dtd">
<svg version="1.1" id="icon-l-calculator-layer" xmlns="http://www.w3.org/2000/svg" xmlns:xlink="http://www.w3.org/1999/xlink"
	 x="0px" y="0px" width="40px" height="45px" viewBox="0 0 40 45" style="enable-background:new 0 0 40 45;" xml:space="preserve">
<g id="icon-l-calculator_1_">
	<path style="fill:#64C0CF;" d="M38.571,0H1.429C0.643,0,0,0.626,0,1.392v41.761c0,0.765,0.643,1.391,1.429,1.391h37.143
		c0.786,0,1.429-0.626,1.429-1.391V1.392C40,0.626,39.357,0,38.571,0z M12.143,40.367H5v-6.96h7.143V40.367z M12.143,30.623H5v-6.96
		h7.143V30.623z M23.571,40.367h-7.143v-6.96h7.143V40.367z M23.571,30.623h-7.143v-6.96h7.143V30.623z M35,40.367h-7.143v-6.96H35
		V40.367z M35,30.623h-7.143v-6.96H35V30.623z M35,20.184H5V4.175h30V20.184z M24.43,17.207h-6.572v-1.225h2.2V8.715l-2.2,0.459
		V7.977l3.257-0.988h1.244v8.994h2.071V17.207z M32.458,17.207h-6.602v-0.892c0-2.13,1.329-3.353,2.658-4.441
		c0.9-0.735,1.5-1.267,1.5-2.128c0-0.935-0.472-1.448-1.601-1.448c-0.8,0-1.515,0.222-2.199,0.46V7.377
		C27.128,7.113,28.057,6.96,29,6.96c2.086,0,3.387,0.821,3.387,2.7c0,1.505-0.843,2.312-2.058,3.314
		c-1.286,1.059-2.13,1.795-2.229,2.896h4.357V17.207z"/>
</g>
</svg>
