<?xml version="1.0" encoding="iso-8859-1"?>
<!-- Generator: Adobe Illustrator 14.0.0, SVG Export Plug-In . SVG Version: 6.00 Build 43363)  -->
<!DOCTYPE svg PUBLIC "-//W3C//DTD SVG 1.1//EN" "http://www.w3.org/Graphics/SVG/1.1/DTD/svg11.dtd">
<svg version="1.1" id="icon-m-organizer-note-reminder-layer"
	 xmlns="http://www.w3.org/2000/svg" xmlns:xlink="http://www.w3.org/1999/xlink" x="0px" y="0px" width="64px" height="64px"
	 viewBox="0 0 64 64" style="enable-background:new 0 0 64 64;" xml:space="preserve">
<g id="icon-m-organizer-note-reminder">
	<rect style="fill:none;" width="64" height="64"/>
	<path style="fill:#333333;" d="M22,46c0-8.314,4.251-15.652,10.692-19.961H6.967v-4.855h33.066v1.568
		C41.941,22.262,43.941,22,46,22c0.336,0,0.668,0.012,1,0.025V2.186C47,0.984,46.017,0,44.814,0h-4.189v2.403
		c0,1.277-1.045,2.322-2.322,2.322h-1.355c-1.277,0-2.322-1.045-2.322-2.322V0H26.5v2.403c0,1.277-1.045,2.322-2.322,2.322h-1.355
		c-1.277,0-2.322-1.045-2.322-2.322V0h-8.125v2.403c0,1.277-1.045,2.322-2.322,2.322H8.697c-1.277,0-2.322-1.045-2.322-2.322V0
		H2.186C0.983,0,0,0.984,0,2.186v45.907c0,1.203,0.983,2.187,2.186,2.187H22.39C22.138,48.89,22,47.461,22,46z M6.967,12.039h33.066
		v4.856H6.967V12.039z M6.967,30.184h16v4.855h-16V30.184z"/>
	<path style="fill:#333333;" d="M46,28c-9.941,0-18,8.059-18,18c0,9.94,8.059,18,18,18c9.94,0,18-8.06,18-18
		C64,36.059,55.94,28,46,28z M43.984,54.852c-0.233,0.232-0.698,0.15-0.933-0.082c-0.349-0.35-0.367-0.372-0.72-0.721
		c-0.52-0.51-0.643-1.051-0.902-1.726c-0.621-1.622-1.539-3.222-2.637-4.573c-0.735-0.908-1.338-1.748-1.771-2.863
		c-0.92-2.363-0.668-4.855,1.119-6.721l0.023-0.023c1.865-1.789,4.358-2.041,6.721-1.121c1.117,0.436,1.955,1.037,2.863,1.773
		c1.353,1.096,2.951,2.014,4.574,2.637c0.676,0.26,1.215,0.382,1.727,0.902c0.346,0.352,0.369,0.369,0.72,0.721
		c0.233,0.232,0.314,0.697,0.081,0.932l-5.422,5.42l-0.023,0.024L43.984,54.852z M52.092,55.5c-1.204,0-2.295-0.619-2.918-1.656
		L48.967,53.5l4.531-4.533l0.346,0.207c1.036,0.623,1.654,1.715,1.656,2.919C55.498,53.973,53.97,55.5,52.092,55.5z"/>
</g>
</svg>
