<?xml version="1.0" encoding="iso-8859-1"?>
<!-- Generator: Adobe Illustrator 14.0.0, SVG Export Plug-In . SVG Version: 6.00 Build 43363)  -->
<!DOCTYPE svg PUBLIC "-//W3C//DTD SVG 1.1//EN" "http://www.w3.org/Graphics/SVG/1.1/DTD/svg11.dtd">
<svg version="1.1" id="icon-l-extras-layer" xmlns="http://www.w3.org/2000/svg" xmlns:xlink="http://www.w3.org/1999/xlink"
	 x="0px" y="0px" width="33px" height="45px" viewBox="0 0 33 45" style="enable-background:new 0 0 33 45;" xml:space="preserve">
<g id="icon-l-extras_1_">
	<path style="fill:#64C0CF;" d="M27.445,6.264h-6.263V0h6.263V6.264z M31.529,24.243H17.836v-3.984c0-0.381-0.312-0.692-0.693-0.692
		h-6.464v-7.881h7.648V2.48H9.12v7.447H0.693C0.312,9.928,0,10.237,0,10.62v9.292c0,0.381,0.312,0.692,0.693,0.692h1.962v13.451
		c0,0.379,0.312,0.689,0.692,0.689h9.523v8.154c0,0.762,0.624,1.386,1.386,1.386h17.272c0.761,0,1.385-0.624,1.385-1.386V25.626
		C32.914,24.864,32.29,24.243,31.529,24.243z"/>
</g>
</svg>
