<?xml version="1.0" encoding="iso-8859-1"?>
<!-- Generator: Adobe Illustrator 14.0.0, SVG Export Plug-In . SVG Version: 6.00 Build 43363)  -->
<!DOCTYPE svg PUBLIC "-//W3C//DTD SVG 1.1//EN" "http://www.w3.org/Graphics/SVG/1.1/DTD/svg11.dtd">
<svg version="1.1" id="icon-l-extras-layer" xmlns="http://www.w3.org/2000/svg" xmlns:xlink="http://www.w3.org/1999/xlink"
	 x="0px" y="0px" width="80px" height="80px" viewBox="0 0 80 80" style="enable-background:new 0 0 80 80;" xml:space="preserve">
<g id="icon-l-extras_5_">
	<rect style="fill:none;" width="80" height="80"/>
	<path id="_x31__pixel_shadow_24_" style="opacity:0.4;" d="M58.207,77.144c-0.09,0.025-0.182,0.046-0.271,0.07
		c-0.498,0.132-1,0.26-1.52,0.378c-0.521,0.118-1.061,0.227-1.605,0.332c-0.111,0.02-0.219,0.046-0.33,0.067
		c-4.176,0.772-8.979,1.132-14.479,1.132c-5.503,0-10.305-0.359-14.479-1.132c-0.115-0.021-0.219-0.048-0.33-0.067
		c-0.545-0.105-1.085-0.214-1.606-0.332c-0.52-0.118-1.021-0.246-1.519-0.378c-0.09-0.024-0.184-0.045-0.271-0.07
		C6.457,72.99,0.592,61.874,0.506,40.098c0,0.162-0.006,0.313-0.006,0.477C0.5,69.839,10.735,80,40.002,80
		C69.266,80,79.5,69.839,79.5,40.574c0-0.163-0.002-0.314-0.004-0.477C79.41,61.874,73.545,72.99,58.207,77.144"/>
	<path id="flat_colour_squircle_25_" style="fill:#539D03;" d="M79.5,39.57c0,29.267-10.234,39.501-39.499,39.501
		C10.733,79.071,0.5,68.837,0.5,39.57c0-29.264,10.233-39.498,39.501-39.498C69.266,0.072,79.5,10.307,79.5,39.57"/>
	<linearGradient id="shine_top_layer_1_" gradientUnits="userSpaceOnUse" x1="39.9995" y1="0" x2="39.9995" y2="79.0005">
		<stop  offset="0" style="stop-color:#FFFFFF"/>
		<stop  offset="0.7362" style="stop-color:#FFFFFF;stop-opacity:0"/>
	</linearGradient>
	<path id="shine_top_layer_22_" style="opacity:0.15;fill:url(#shine_top_layer_1_);" d="M79.5,39.5C79.5,68.765,69.266,79,40,79
		C10.736,79,0.5,68.765,0.5,39.5C0.5,10.234,10.736,0,40,0C69.266,0,79.5,10.234,79.5,39.5z"/>
	<linearGradient id="top_edge_highlight_1_" gradientUnits="userSpaceOnUse" x1="47.7109" y1="-0.1699" x2="32.2889" y2="79.1698">
		<stop  offset="0" style="stop-color:#FFFFFF"/>
		<stop  offset="0.1117" style="stop-color:#EBEBEB"/>
		<stop  offset="0.3969" style="stop-color:#BDBDBD"/>
		<stop  offset="0.6503" style="stop-color:#9B9B9B"/>
		<stop  offset="0.86" style="stop-color:#878787"/>
		<stop  offset="1" style="stop-color:#808080"/>
	</linearGradient>
	<path id="top_edge_highlight_24_" style="opacity:0.25;fill:url(#top_edge_highlight_1_);" d="M40.001,79
		C10.837,79,0.5,68.664,0.5,39.499C0.5,10.336,10.837,0,40.001,0C69.164,0,79.5,10.336,79.5,39.499C79.5,68.664,69.164,79,40.001,79
		L40.001,79z M40.001,0.986c-28.795,0-38.514,9.719-38.514,38.513c0,28.795,9.719,38.513,38.514,38.513
		c28.794,0,38.511-9.718,38.511-38.513C78.512,10.705,68.795,0.986,40.001,0.986L40.001,0.986z"/>
	<path style="opacity:0.3;" d="M50.816,23.238h-6.164v-6.166h6.164V23.238z M54.836,40.938H41.357v-3.923
		c0-0.375-0.309-0.682-0.682-0.682h-6.364v-7.758h7.529v-9.062h-9.063v7.332h-8.294c-0.378,0-0.684,0.304-0.684,0.682v9.146
		c0,0.375,0.306,0.683,0.684,0.683h1.93v13.241c0,0.374,0.308,0.679,0.683,0.679h9.375v8.027c0,0.75,0.613,1.365,1.363,1.365h17.002
		c0.75,0,1.365-0.615,1.365-1.365V42.3C56.201,41.55,55.586,40.938,54.836,40.938z"/>
	<path style="fill:#FFFFFF;" d="M50.816,24.643h-6.164v-6.166h6.164V24.643z M54.836,42.342H41.357V38.42
		c0-0.375-0.309-0.682-0.682-0.682h-6.364V29.98h7.529v-9.062h-9.063v7.332h-8.294c-0.378,0-0.684,0.305-0.684,0.682v9.146
		c0,0.375,0.306,0.684,0.684,0.684h1.93v13.239c0,0.373,0.308,0.68,0.683,0.68h9.375v8.027c0,0.75,0.613,1.363,1.363,1.363h17.002
		c0.75,0,1.365-0.613,1.365-1.363V43.704C56.201,42.954,55.586,42.342,54.836,42.342z"/>
</g>
</svg>
