<?xml version="1.0" encoding="iso-8859-1"?>
<!-- Generator: Adobe Illustrator 14.0.0, SVG Export Plug-In . SVG Version: 6.00 Build 43363)  -->
<!DOCTYPE svg PUBLIC "-//W3C//DTD SVG 1.1//EN" "http://www.w3.org/Graphics/SVG/1.1/DTD/svg11.dtd">
<svg version="1.1" id="icon-l-camera-layer" xmlns="http://www.w3.org/2000/svg" xmlns:xlink="http://www.w3.org/1999/xlink"
	 x="0px" y="0px" width="48px" height="48px" viewBox="0 0 48 48" style="enable-background:new 0 0 48 48;" xml:space="preserve">
<g id="icon-l-camera">
	<rect style="fill:none;" width="48" height="48"/>
	<g>
		<path style="opacity:0.2;fill:#010101;" d="M43.217,7.045H6.108C4.316,7.008,3,7.875,2.432,8.85
			c-0.586,0.953-0.602,1.826-0.608,2.109c0,0.033,0.001,0.068,0.003,0.092v0.366C1.036,11.854,0.502,12.689,0.5,13.66v20.674
			c0.002,0.971,0.536,1.812,1.328,2.246c0,0-0.003,0.414-0.003,0.457c0.006,0.277,0.022,1.152,0.608,2.111
			c0.565,0.971,1.881,1.84,3.676,1.807h37.108c0.035,0,0.072,0,0.107,0c1.736,0,3.014-0.857,3.566-1.811
			c0.545-0.887,0.596-1.705,0.604-2.039c0-0.02,0.004-0.033,0.004-0.047l0.002-0.055V10.992c0,0,0-0.01,0-0.031
			c-0.008-0.281-0.023-1.155-0.609-2.108C46.328,7.877,45.01,7.008,43.217,7.045z"/>
		<path style="opacity:0.5;fill:#010101;" d="M46.229,10.994c0,0,0.109-2.678-3.012-2.678H6.108c-3.124,0-3.013,2.678-3.013,2.678
			v1.378H3.062c-0.712,0-1.291,0.578-1.291,1.29v20.674c0,0.715,0.579,1.293,1.291,1.293h0.033v1.375c0,0-0.111,2.678,3.013,2.678
			h37.108c3.121,0,3.012-2.678,3.012-2.678V10.994z"/>
		<linearGradient id="SVGID_1_" gradientUnits="userSpaceOnUse" x1="24.6616" y1="4.2974" x2="24.6616" y2="45.4466">
			<stop  offset="0" style="stop-color:#E6E5F3"/>
			<stop  offset="1" style="stop-color:#333442"/>
		</linearGradient>
		<path style="fill:url(#SVGID_1_);" d="M43.217,7.045H6.108c-3.124,0-3.013,2.678-3.013,2.678v26.006c0,0-0.111,2.68,3.013,2.68
			h37.108c3.121,0,3.012-2.68,3.012-2.68V9.723C46.229,9.723,46.338,7.045,43.217,7.045z"/>
		<path style="opacity:0.15;fill:#FFFFFF;" d="M45.148,9.687c0.004-0.042-0.027-0.526-0.252-0.861c-0.234-0.326-0.51-0.673-1.68-0.7
			H6.108c-1.174,0.027-1.45,0.374-1.687,0.7C4.242,9.1,4.187,9.473,4.174,9.621L4.18,9.637v23.932l40.969-19.1V9.723
			C45.146,9.723,45.146,9.709,45.148,9.687z"/>
		<path style="opacity:0.3;fill:#FFFFFF;" d="M43.217,7.045H6.108c-3.124,0-3.013,2.678-3.013,2.678v26.006
			c0,0-0.027,0.779,0.431,1.494l0.862-0.654c-0.146-0.268-0.201-0.59-0.212-0.732l0.004-0.012V9.637L4.174,9.621
			C4.187,9.473,4.242,9.1,4.422,8.825c0.237-0.326,0.512-0.673,1.687-0.7h37.108c1.086,0.025,1.4,0.325,1.625,0.627l1.006-0.445
			C45.467,7.662,44.717,7.045,43.217,7.045z"/>
		<linearGradient id="SVGID_2_" gradientUnits="userSpaceOnUse" x1="-6.8091" y1="22.7266" x2="14.4824" y2="22.7266">
			<stop  offset="0" style="stop-color:#404040"/>
			<stop  offset="1" style="stop-color:#000000"/>
		</linearGradient>
		<path style="fill:url(#SVGID_2_);" d="M12.249,33.064c0,0.713-0.58,1.291-1.292,1.291H3.062c-0.712,0-1.291-0.578-1.291-1.291
			V12.393c0-0.717,0.579-1.295,1.291-1.295h7.894c0.712,0,1.292,0.578,1.292,1.295V33.064z"/>
		<path style="opacity:0.25;fill:#FFFFFF;" d="M2.85,34.332V11.12c-0.606,0.108-1.079,0.632-1.079,1.272v20.672
			C1.771,33.701,2.244,34.232,2.85,34.332z"/>
		<path style="opacity:0.25;fill:#FFFFFF;" d="M15.87,24.415c0-6.585,5.333-11.923,11.916-11.923l0,0
			c6.588,0,11.922,5.338,11.922,11.923l0,0c0,6.585-5.334,11.919-11.922,11.919l0,0C21.203,36.334,15.87,31,15.87,24.415
			L15.87,24.415z M16.672,24.415c0.015,6.14,4.977,11.104,11.113,11.114l0,0c6.143-0.01,11.107-4.975,11.115-11.114l0,0
			c-0.008-6.14-4.973-11.105-11.115-11.114l0,0C21.649,13.31,16.687,18.275,16.672,24.415L16.672,24.415z"/>
		<path style="opacity:0.25;fill:#FFFFFF;" d="M36.594,24.415c0,4.862-3.939,8.804-8.805,8.804c-4.869,0-8.806-3.941-8.806-8.804
			s3.937-8.801,8.806-8.801C32.654,15.614,36.594,19.553,36.594,24.415z"/>
		<linearGradient id="SVGID_3_" gradientUnits="userSpaceOnUse" x1="27.7891" y1="36.0742" x2="27.7891" y2="20.9829">
			<stop  offset="0" style="stop-color:#404040"/>
			<stop  offset="1" style="stop-color:#000000"/>
		</linearGradient>
		<circle style="fill:url(#SVGID_3_);" cx="27.79" cy="24.415" r="7.382"/>
		<linearGradient id="SVGID_4_" gradientUnits="userSpaceOnUse" x1="27.7891" y1="31.793" x2="27.7891" y2="15.4975">
			<stop  offset="0" style="stop-color:#676868"/>
			<stop  offset="1" style="stop-color:#010101"/>
		</linearGradient>
		<path style="fill:url(#SVGID_4_);" d="M27.789,17.036c-4.076,0-7.382,3.302-7.382,7.379c0,4.075,3.306,7.378,7.382,7.378
			s7.383-3.303,7.383-7.378C35.172,20.338,31.865,17.036,27.789,17.036z M27.789,30.982c-3.619,0-6.562-2.939-6.562-6.567
			c0-3.621,2.943-6.562,6.562-6.562s6.566,2.94,6.566,6.562C34.355,28.043,31.408,30.982,27.789,30.982z"/>
		<path style="opacity:0.2;" d="M23.606,12.346c0,1.529-1.237,2.764-2.759,2.764c-1.53,0-2.767-1.234-2.767-2.764
			c0-1.525,1.237-2.758,2.767-2.758C22.37,9.588,23.606,10.82,23.606,12.346z"/>
		<linearGradient id="SVGID_5_" gradientUnits="userSpaceOnUse" x1="20.8433" y1="16.3296" x2="20.8433" y2="10.5273">
			<stop  offset="0" style="stop-color:#676868"/>
			<stop  offset="1" style="stop-color:#010101"/>
		</linearGradient>
		<path style="fill:url(#SVGID_5_);" d="M23.098,12.346c0,1.249-1.006,2.254-2.25,2.254c-1.248,0-2.258-1.005-2.258-2.254
			c0-1.248,1.01-2.256,2.258-2.256C22.092,10.09,23.098,11.098,23.098,12.346z"/>
		<path style="opacity:0.25;fill:#FFFFFF;enable-background:new    ;" d="M22.659,11.562c-0.305-0.711-0.995-1.209-1.812-1.209
			c-1.102,0-1.997,0.895-1.997,1.992c0,0.326,0.093,0.615,0.231,0.883L22.659,11.562z"/>
		<rect x="35.029" y="9.512" style="fill:#F2F2F2;" width="8.449" height="4.221"/>
		<circle style="fill:#010101;" cx="27.789" cy="24.415" r="3.674"/>
		<path style="opacity:0.25;fill:#FFFFFF;enable-background:new    ;" d="M33.824,21.9c-1-2.35-3.295-4.024-6.02-4.024
			c-3.639,0-6.587,2.957-6.587,6.597c0,1.074,0.279,2.07,0.742,2.961L33.824,21.9z"/>
	</g>
</g>
</svg>
