<?xml version="1.0" encoding="iso-8859-1"?>
<!-- Generator: Adobe Illustrator 14.0.0, SVG Export Plug-In . SVG Version: 6.00 Build 43363)  -->
<!DOCTYPE svg PUBLIC "-//W3C//DTD SVG 1.1//EN" "http://www.w3.org/Graphics/SVG/1.1/DTD/svg11.dtd">
<svg version="1.1" id="icon-l-gallery-layer" xmlns="http://www.w3.org/2000/svg" xmlns:xlink="http://www.w3.org/1999/xlink"
	 x="0px" y="0px" width="80px" height="81px" viewBox="0 0 80 81" style="enable-background:new 0 0 80 81;" xml:space="preserve">
<g id="icon-l-gallery_1_">
	<path style="fill:#00A79C;" d="M25.447,49.188c-0.149,0.312-0.464,0.535-0.834,0.535h-3.708c-0.511,0-0.927-0.416-0.927-0.927
		V45.13c0-0.508,0.416-0.927,0.927-0.927h3.708c0.371,0,0.685,0.222,0.834,0.535l0.08-22.315h0.014v-0.032h26.382v8.234h5.435
		v-8.202h2.329v-2.329H57.19c-0.511,0-0.929-1.246-0.929-1.759v-3.708c0-0.51,0.418-0.928,0.929-0.928h2.497V10H10v3.656v0.043h2.52
		c0.509,0,0.927,0.418,0.927,0.928v3.667c0,0.508-0.418,1.756-0.927,1.756H10v0.044v2.297v0.032h10.869v18.631H10v0.03v3.076v0.043
		h2.52c0.509,0,0.927,0.419,0.927,0.927v3.667c0,0.511-0.418,0.927-0.927,0.927H10v0.044v2.932h15.447V49.188z M44.205,14.627
		c0-0.51,0.418-0.928,0.928-0.928h3.71c0.509,0,0.927,0.418,0.927,0.928v3.708c0,0.513-0.418,1.759-0.927,1.759h-3.71
		c-0.51,0-0.928-1.246-0.928-1.759V14.627z M32.11,14.627c0-0.51,0.419-0.928,0.929-0.928h3.71c0.51,0,0.925,0.418,0.925,0.928
		v3.708c0,0.513-0.416,1.759-0.925,1.759h-3.71c-0.51,0-0.929-1.246-0.929-1.759V14.627z M19.978,18.294v-3.667
		c0-0.51,0.416-0.928,0.927-0.928h3.708c0.512,0,0.929,0.418,0.929,0.928v3.667c0,0.508-0.417,1.756-0.929,1.756h-3.708
		C20.394,20.05,19.978,18.802,19.978,18.294z M52.018,46.643c0-1.229,0.988-2.222,2.205-2.222c0.283,0,0.551,0.055,0.797,0.157
		c0.355-1.572,1.443-2.717,2.729-2.717c1.287,0,2.373,1.145,2.729,2.717c0.25-0.103,0.516-0.157,0.797-0.157
		c1.222,0,2.207,0.993,2.207,2.222c0,1.224-0.985,2.216-2.207,2.216c-0.556,0-1.061-0.218-1.45-0.556
		c-0.521,0.736-1.257,1.202-2.075,1.202s-1.553-0.466-2.073-1.202c-0.39,0.338-0.894,0.556-1.452,0.556
		C53.006,48.858,52.018,47.866,52.018,46.643z M63.138,63.995H36.549c6.158-23.094,12.799-14.197,16.088-6.592
		C58.115,45.28,63.138,63.995,63.138,63.995z M29.688,35.69V70H70V35.69H29.688z M33.119,66.567V39.036l33.45-0.027v27.559H33.119z"
		/>
	<rect style="fill:none;" width="80" height="80.001"/>
</g>
</svg>
