<?xml version="1.0" encoding="iso-8859-1"?>
<!-- Generator: Adobe Illustrator 14.0.0, SVG Export Plug-In . SVG Version: 6.00 Build 43363)  -->
<!DOCTYPE svg PUBLIC "-//W3C//DTD SVG 1.1//EN" "http://www.w3.org/Graphics/SVG/1.1/DTD/svg11.dtd">
<svg version="1.1" id="icon-m-common-wlan-strength4-layer"
	 xmlns="http://www.w3.org/2000/svg" xmlns:xlink="http://www.w3.org/1999/xlink" x="0px" y="0px" width="64px" height="64px"
	 viewBox="0 0 64 64" style="enable-background:new 0 0 64 64;" xml:space="preserve">
<g id="icon-m-common-wlan-strength4">
	<rect style="fill:none;" width="64" height="64"/>
	<path style="fill:#333333;" d="M28.519,45.694h-3.765l-3.455-14.481c1.511-0.561,2.607-2.045,2.607-3.826
		c0-2.268-1.747-4.096-3.906-4.096s-3.913,1.828-3.913,4.096c0,1.781,1.09,3.263,2.605,3.826l-3.446,14.481h-3.766
		c-0.69,0-1.251,0.57-1.251,1.252v1.598c0,0.699,0.562,1.252,1.251,1.252h17.037c0.69,0,1.251-0.553,1.251-1.252v-1.598
		C29.77,46.265,29.208,45.694,28.519,45.694"/>
	<path style="fill:#333333;" d="M34.488,14.402c-0.443-0.334-1.08-0.234-1.421,0.217c-0.335,0.449-0.236,1.102,0.222,1.438
		c2.883,2.188,4.689,6.509,4.689,11.273c0,4.751-1.807,9.076-4.689,11.258c-0.458,0.345-0.557,0.976-0.222,1.438
		c0.341,0.455,0.978,0.547,1.421,0.213C37.885,37.661,40,32.724,40,27.331C40,21.926,37.885,16.98,34.488,14.402"/>
	<path style="fill:#333333;" d="M31.573,21.718c0,0-0.02-0.069-0.039-0.104c-0.215-0.5-0.723-1.43-0.723-1.43
		c-0.547-0.938-1.099-1.668-1.933-2.447c-0.294-0.287-0.624-0.523-0.938-0.772c-0.072-0.06-0.146-0.095-0.225-0.123
		c-0.439-0.237-0.988-0.12-1.303,0.302c-0.272,0.385-0.262,0.887-0.004,1.244c0.067,0.129,0.204,0.272,0.282,0.339
		c0.48,0.442,0.991,0.87,1.426,1.386c0.163,0.201,0.319,0.41,0.471,0.619c1.134,1.761,1.815,4.104,1.815,6.604
		c0,2.486-0.646,4.803-1.759,6.562c-0.569,0.783-1.224,1.43-1.933,2.03c-0.441,0.377-0.56,1.019-0.216,1.487
		c0.345,0.47,0.978,0.582,1.465,0.271c0.333-0.222,0.645-0.433,0.939-0.722c0.923-0.775,1.654-1.932,2.271-3.107h-0.013
		c0.958-1.872,1.499-4.14,1.499-6.521C32.654,25.331,32.27,23.397,31.573,21.718"/>
	<path style="fill:#333333;" d="M6.711,16.058c0.459-0.337,0.557-0.989,0.223-1.438c-0.342-0.451-0.979-0.551-1.421-0.217
		C2.116,16.98,0,21.926,0,27.331c0,5.393,2.116,10.33,5.512,12.908c0.443,0.334,1.079,0.242,1.421-0.213
		c0.334-0.462,0.236-1.093-0.223-1.438c-2.884-2.182-4.689-6.507-4.689-11.258C2.021,22.566,3.827,18.246,6.711,16.058"/>
	<path style="fill:#333333;" d="M11.103,36.96c0.293,0.29,0.606,0.5,0.938,0.724c0.488,0.312,1.121,0.199,1.466-0.271
		c0.344-0.469,0.224-1.112-0.217-1.487c-0.709-0.601-1.364-1.247-1.933-2.03c-1.114-1.759-1.758-4.077-1.758-6.562
		c0-2.5,0.681-4.843,1.814-6.604c0.151-0.211,0.308-0.42,0.471-0.621c0.434-0.516,0.946-0.943,1.425-1.385
		c0.077-0.068,0.215-0.209,0.281-0.338c0.259-0.359,0.269-0.862-0.003-1.245c-0.314-0.421-0.864-0.538-1.302-0.302
		c-0.079,0.029-0.154,0.062-0.226,0.123c-0.314,0.248-0.645,0.486-0.938,0.771c-0.834,0.782-1.386,1.513-1.933,2.45
		c0,0-0.508,0.926-0.723,1.43c-0.019,0.033-0.039,0.104-0.039,0.104c-0.698,1.68-1.082,3.613-1.082,5.617
		c0,2.381,0.54,4.647,1.499,6.521H8.832C9.446,35.03,10.178,36.186,11.103,36.96"/>
	<rect x="47.025" y="51.834" style="fill:#333333;" width="16.975" height="5"/>
	<rect x="47.025" y="40.666" style="fill:#333333;" width="16.975" height="5"/>
	<rect x="47.025" y="29.5" style="fill:#333333;" width="16.975" height="5"/>
	<rect x="47.025" y="18.334" style="fill:#333333;" width="16.975" height="5"/>
	<rect x="47.025" y="7.166" style="opacity:0.3;fill:#333333;" width="16.975" height="5"/>
</g>
</svg>
