<?xml version="1.0" encoding="iso-8859-1"?>
<!-- Generator: Adobe Illustrator 14.0.0, SVG Export Plug-In . SVG Version: 6.00 Build 43363)  -->
<!DOCTYPE svg PUBLIC "-//W3C//DTD SVG 1.1//EN" "http://www.w3.org/Graphics/SVG/1.1/DTD/svg11.dtd">
<svg version="1.1" id="icon-l-calendar-reminder-layer"
	 xmlns="http://www.w3.org/2000/svg" xmlns:xlink="http://www.w3.org/1999/xlink" x="0px" y="0px" width="86px" height="90px"
	 viewBox="0 0 86 90" style="enable-background:new 0 0 86 90;" xml:space="preserve">
<g id="icon-l-calendar-reminder">
	<rect style="fill:none;" width="86" height="86"/>
	<rect x="9.124" y="53.177" style="fill:none;" width="12.46" height="12.127"/>
	<rect x="24.907" y="68.61" style="fill:none;" width="12.603" height="12.128"/>
	<rect x="9.124" y="68.61" style="fill:none;" width="12.46" height="12.128"/>
	<rect x="40.835" y="37.607" style="fill:none;" width="12.462" height="12.263"/>
	<rect x="56.623" y="37.607" style="fill:none;" width="12.328" height="12.263"/>
	<rect x="9.124" y="37.607" style="fill:none;" width="12.46" height="12.263"/>
	<rect x="24.978" y="53.177" style="fill:none;" width="12.462" height="12.127"/>
	<rect x="24.907" y="37.607" style="fill:none;" width="12.603" height="12.263"/>
	<path style="fill:#333333;" d="M21.521,16.225h0.686c1.537,0,2.791-1.263,2.791-2.804V2.848c0-1.544-1.254-2.807-2.791-2.807
		h-0.686c-1.536,0-2.793,1.263-2.793,2.807v10.573C18.728,14.962,19.985,16.225,21.521,16.225z"/>
	<path style="fill:#333333;" d="M56.33,16.225h0.686c1.537,0,2.794-1.263,2.794-2.804V2.848c0-1.544-1.257-2.807-2.794-2.807H56.33
		c-1.536,0-2.793,1.263-2.793,2.807v10.573C53.537,14.962,54.794,16.225,56.33,16.225z"/>
	<path style="fill:#333333;" d="M74.93,13.093h-9.37c-0.516,4.714-4.433,8.378-9.19,8.378c-4.759,0-8.676-3.664-9.191-8.378H30.75
		c-0.516,4.714-4.432,8.378-9.19,8.378c-4.76,0-8.673-3.664-9.192-8.378h-9.15v13.904H74.93V13.093z"/>
	<path style="fill:#333333;" d="M71.225,85.955l0.9-0.001c1.479,0,2.688-1.209,2.688-2.688l0.001-0.9L71.225,85.955z"/>
	<path style="fill:#333333;" d="M69.018,53.177v4.605c0.151,0.12,0.303,0.24,0.45,0.359c1.556,1.263,3.445,2.357,5.353,3.133
		l0.009-28.886H3.217L3.182,83.267c0,1.479,1.209,2.688,2.688,2.688h43.182c-0.745-1.645-1.71-3.242-2.806-4.592
		c-0.166-0.203-0.332-0.412-0.499-0.625h-4.912V53.177H69.018z M56.623,37.607h12.328V49.87H56.623V37.607z M21.583,80.738H9.124
		V68.61h12.46V80.738z M21.583,65.304H9.124V53.177h12.46V65.304z M21.583,49.87H9.124V37.607h12.46V49.87z M37.51,80.738H24.907
		V68.61H37.51V80.738z M24.978,65.304V53.177h12.462v12.127H24.978z M37.51,49.87H24.907V37.607H37.51V49.87z M40.835,37.607h12.462
		V49.87H40.835V37.607z"/>
	<path style="fill:#333333;" d="M75.729,68.688c-0.825-0.84-1.697-1.036-2.787-1.455c-2.623-1.008-5.209-2.49-7.393-4.262
		c-1.467-1.189-2.824-2.162-4.627-2.865c-3.819-1.485-7.848-1.078-10.862,1.811l-0.039,0.037c-2.888,3.015-3.296,7.043-1.81,10.863
		c0.703,1.803,1.676,3.158,2.866,4.627c1.771,2.183,3.255,4.769,4.261,7.392c0.42,1.091,0.615,1.962,1.456,2.788
		c0.571,0.561,0.599,0.6,1.165,1.163c0.378,0.376,1.127,0.508,1.506,0.131l8.76-8.76l0.037-0.039l8.762-8.759
		c0.377-0.379,0.246-1.129-0.131-1.507C76.326,69.289,76.289,69.261,75.729,68.688z"/>
	<path style="fill:#333333;" d="M67.115,84.292c0.818,1.361,2.305,2.274,4.006,2.274c2.582,0,4.676-2.094,4.677-4.677
		c-0.001-1.705-0.913-3.188-2.273-4.005L67.115,84.292z"/>
</g>
</svg>
