<?xml version="1.0" encoding="iso-8859-1"?>
<!-- Generator: Adobe Illustrator 14.0.0, SVG Export Plug-In . SVG Version: 6.00 Build 43363)  -->
<!DOCTYPE svg PUBLIC "-//W3C//DTD SVG 1.1//EN" "http://www.w3.org/Graphics/SVG/1.1/DTD/svg11.dtd">
<svg version="1.1" id="icon-m-energy-management-powersave7-layer"
	 xmlns="http://www.w3.org/2000/svg" xmlns:xlink="http://www.w3.org/1999/xlink" x="0px" y="0px" width="64px" height="64px"
	 viewBox="0 0 64 64" style="enable-background:new 0 0 64 64;" xml:space="preserve">
<g id="icon-m-energy-management-powersave7">
	<rect style="fill:none;" width="64" height="64"/>
	<path style="fill:#333333;" d="M25.609,58.093H6.117c-1.003,0-1.829-0.824-1.829-1.827v-42c0-1.005,0.825-1.83,1.829-1.83h23.772
		c1.004,0,1.828,0.825,1.828,1.83v12.713c1.326-1.021,2.759-1.91,4.283-2.639V8.723c0-1.006-0.821-1.827-1.826-1.827h-9.803V4.154
		c0-1.006-0.822-1.829-1.827-1.829h-9.085c-1.004,0-1.826,0.823-1.826,1.829v2.741H1.828C0.822,6.896,0,7.717,0,8.723v51.125
		c0,1.008,0.822,1.829,1.828,1.829h26.349C27.216,60.566,26.356,59.367,25.609,58.093z"/>
	<path style="fill:#333333;" d="M22.327,46c0-6.146,2.325-11.757,6.138-16.007v-9.472H7.736v33.779h16.071
		C22.851,51.713,22.327,48.916,22.327,46z"/>
	<path style="fill:#333333;" d="M46,28c-9.941,0-18,8.061-18,18c0,9.941,8.059,18,18,18s18-8.059,18-18C64,36.061,55.941,28,46,28z
		 M53.84,58.057c-1.052,0.287-2.157,0.443-3.301,0.443c-6.904,0-12.379-5.596-12.379-12.5c0-6.902,5.475-12.5,12.379-12.5
		c1.144,0,2.249,0.156,3.301,0.445C48.539,35.393,44.826,40.24,44.826,46C44.826,51.761,48.539,56.607,53.84,58.057z"/>
</g>
</svg>
