<?xml version="1.0" encoding="iso-8859-1"?>
<!-- Generator: Adobe Illustrator 14.0.0, SVG Export Plug-In . SVG Version: 6.00 Build 43363)  -->
<!DOCTYPE svg PUBLIC "-//W3C//DTD SVG 1.1//EN" "http://www.w3.org/Graphics/SVG/1.1/DTD/svg11.dtd">
<svg version="1.1" id="icon-l-browser-layer" xmlns="http://www.w3.org/2000/svg" xmlns:xlink="http://www.w3.org/1999/xlink"
	 x="0px" y="0px" width="46px" height="46px" viewBox="0 0 46 46" style="enable-background:new 0 0 46 46;" xml:space="preserve">
<g id="icon-l-browser_1_">
	<path style="fill:#E7D51E;" d="M13.469,29.396c-0.893-1.104-2.242-2.153-1.854-3.817c0.088-0.383,0.408-0.645,0.559-0.997
		c0.551-1.299,0.927-1.957,2.638-1.562c1.002,0.231,0.955,0.461,1.757,0.936c0.936,0.55,1.02,0.676,1.693,1.385
		c0.438,0.461,1.381,0.728,1.84,1.286c0.559,0.679,0.298,1.361,0.114,2.1c-0.05,0.201-0.473,0.516-0.56,0.802
		c-0.126,0.422,0.163,0.998,0.015,1.411c-0.257,0.727-1.145,1.131-1.535,1.701c-0.903,1.322-2.088,2.586-2.259,4.244
		c-0.057,0.555,0.374,1.553-0.468,1.55c-0.475-0.002-0.9-0.862-1.077-1.205c-0.66-1.279-0.864-2.677-0.593-4.056
		C14.023,31.716,14.472,30.638,13.469,29.396z M45.715,22.856c0,12.623-10.233,22.858-22.857,22.858S0,35.479,0,22.856
		C0,10.232,10.233,0,22.857,0S45.715,10.232,45.715,22.856z M4.289,22.799c0,0.02-0.003,0.038-0.003,0.058
		c0,10.24,8.331,18.571,18.571,18.571c10.24,0,18.571-8.331,18.571-18.571c0-1.288-0.133-2.546-0.384-3.761
		c-0.807-0.875-1.303-2.232-2.28-3.056c-0.919-0.769-2.626-0.761-4.069-1.266c-1.035-0.362-1.704-1.679-2.414,0.106
		c-0.286,0.715,0.533,1.801,0.966,2.307c0.95,1.112,2.259,1.303,2.901,2.826c0.443,1.055,0.17,1.594-0.26,2.564
		c-0.531,1.195-0.633,2.484-1.2,3.661c-0.597,1.238-1.489,2.311-2.311,3.402c-0.959,1.281-1.544,2.711-2.423,3.996
		c-0.685,1.003-1.908,1.666-2.371-0.081c-0.389-1.474-0.026-3.012-0.148-4.421c-0.053-0.597-0.439-1.039-0.426-1.715
		c0.008-0.463,0.178-0.788,0.228-1.129c0.195-1.32-0.101-2.216-1.659-1.982c-0.578,0.086-1.202,0.262-1.779,0.018
		c-0.466-0.195-0.924-0.616-1.246-1.026c-1.116-1.416-1.194-3.559-0.638-5.158c0.46-1.317,1.561-2.223,2.772-2.848
		c0.564-0.293,1.437-0.752,2.095-0.723c0.696,0.033,1.093,0.545,1.88,0.383c0.951-0.196,1.759-0.896,2.142-1.781
		c0.881-2.032-1.89-3.193-3.283-3.566c0.105-1.077,0.772-0.824,1.293-1.496c0.016-0.023,0.874-1.422,0.925-1.447
		c0.537-0.262,1.327-0.119,2.021-0.1c-2.645-1.451-5.678-2.279-8.901-2.279c-5.464,0-10.369,2.387-13.77,6.154
		c1.126-0.256,1.537,0.707,2.442,0.975c2.474,0.732,3.263-1.436,5.295-1.82c2.005-0.381,4.578,1.156,6.032,2.249
		c-1.854,1.419-4.293,0.388-6.278,1.272c-2.214,0.988-2.828,3.975-5.041,5.002c-1.012,0.47-2.785,0.27-3.184,1.381
		c-0.447,1.252,1.255,2.367,1.18,3.295C9.379,24.685,5.898,23.919,4.289,22.799z"/>
</g>
</svg>
