<?xml version="1.0" encoding="iso-8859-1"?>
<!-- Generator: Adobe Illustrator 14.0.0, SVG Export Plug-In . SVG Version: 6.00 Build 43363)  -->
<!DOCTYPE svg PUBLIC "-//W3C//DTD SVG 1.1//EN" "http://www.w3.org/Graphics/SVG/1.1/DTD/svg11.dtd">
<svg version="1.1" id="icon-l-help-layer" xmlns="http://www.w3.org/2000/svg" xmlns:xlink="http://www.w3.org/1999/xlink" x="0px"
	 y="0px" width="46px" height="46px" viewBox="0 0 46 46" style="enable-background:new 0 0 46 46;" xml:space="preserve">
<g id="icon-l-help_1_">
	<linearGradient id="SVGID_1_" gradientUnits="userSpaceOnUse" x1="22.8569" y1="3.7715" x2="22.8569" y2="185.8844">
		<stop  offset="0" style="stop-color:#FFFFFF"/>
		<stop  offset="1" style="stop-color:#B3B2C9"/>
	</linearGradient>
	<path style="fill:url(#SVGID_1_);" d="M22.857,0C10.232,0,0,10.232,0,22.855s10.232,22.857,22.857,22.857
		c12.623,0,22.857-10.234,22.857-22.857S35.48,0,22.857,0z M22.857,41.428c-10.241,0-18.571-8.332-18.571-18.572
		c0-10.239,8.33-18.57,18.571-18.57c10.24,0,18.571,8.331,18.571,18.57C41.429,33.096,33.098,41.428,22.857,41.428z M24.912,32.748
		c0,1.916-1.566,3.441-3.486,3.441c-1.916,0-3.444-1.525-3.444-3.441c0-1.918,1.528-3.48,3.444-3.48
		C23.346,29.268,24.912,30.83,24.912,32.748z M30.041,15.711c0,2.904-1.787,4.479-3.467,6.088c-1.715,1.607-2.449,2.445-2.449,3.881
		v1.436h-6v-1.68c0-2.414,1.189-3.85,3.01-5.527c1.33-1.223,2.449-2.271,2.449-3.916c0-2.029-1.329-3.111-3.536-3.111
		c-1.188,0-2.798,0.279-4.374,0.699v-3.357c1.644-0.385,4.216-0.701,6.07-0.701C26.226,9.521,30.041,11.025,30.041,15.711z"/>
</g>
</svg>
