<?xml version="1.0" encoding="iso-8859-1"?>
<!-- Generator: Adobe Illustrator 14.0.0, SVG Export Plug-In . SVG Version: 6.00 Build 43363)  -->
<!DOCTYPE svg PUBLIC "-//W3C//DTD SVG 1.1//EN" "http://www.w3.org/Graphics/SVG/1.1/DTD/svg11.dtd">
<svg version="1.1" id="icon-l-music-layer" xmlns="http://www.w3.org/2000/svg" xmlns:xlink="http://www.w3.org/1999/xlink" x="0px"
	 y="0px" width="80px" height="81px" viewBox="0 0 80 81" style="enable-background:new 0 0 80 81;" xml:space="preserve">
<g id="icon-l-music_1_">
	<path style="fill:#EB2D7C;" d="M25.411,9.782l20.281,11.151c-3.445,1.206-6.502,3.25-8.92,5.89l-6.843-3.762
		c-0.494-0.271-0.868-0.03-0.868,0.537l-0.016,26.418c0,0.229-0.015,0.422-0.036,0.73c-0.386,2.811-2.518,5.64-5.744,7.419
		c-4.875,2.688-10.357,1.817-12.464-1.975c-2.1-3.785,0.059-8.853,4.943-11.538c2.981-1.659,6.223-1.959,8.754-1.074V10.314
		C24.499,9.743,24.91,9.499,25.411,9.782 M37.806,57.343c-2.822,2.776-3.784,6.506-2.146,9.462
		c2.105,3.788,7.589,4.659,12.466,1.974c2.438-1.348,4.25-3.294,5.155-5.378c-0.13,0.002-0.26,0.011-0.391,0.011
		C47.043,63.411,41.73,61.098,37.806,57.343z M70,41.562c0,9.449-7.659,17.109-17.109,17.109c-9.451,0-17.11-7.66-17.11-17.109
		c0-9.451,7.659-17.11,17.11-17.11C62.341,24.451,70,32.11,70,41.562z M62.223,40.692l-13.062-7.619
		c-0.821-0.479-1.492-0.092-1.492,0.855v15.265c0,0.949,0.671,1.336,1.492,0.857l13.062-7.619
		C63.042,41.955,63.042,41.17,62.223,40.692z"/>
	<rect style="fill:none;" width="80" height="80"/>
</g>
</svg>
