<?xml version="1.0" encoding="iso-8859-1"?>
<!-- Generator: Adobe Illustrator 14.0.0, SVG Export Plug-In . SVG Version: 6.00 Build 43363)  -->
<!DOCTYPE svg PUBLIC "-//W3C//DTD SVG 1.1//EN" "http://www.w3.org/Graphics/SVG/1.1/DTD/svg11.dtd">
<svg version="1.1" id="icon-m-energy-management-powersave1-layer"
	 xmlns="http://www.w3.org/2000/svg" xmlns:xlink="http://www.w3.org/1999/xlink" x="0px" y="0px" width="64px" height="64px"
	 viewBox="0 0 64 64" style="enable-background:new 0 0 64 64;" xml:space="preserve">
<g id="icon-m-energy-management-powersave1">
	<rect style="fill:none;" width="64" height="64"/>
	<path style="fill:#333333;" d="M25.609,58.094H6.117c-1.003,0-1.829-0.826-1.829-1.828V14.264c0-1.004,0.825-1.828,1.829-1.828
		H29.89c1.004,0,1.828,0.824,1.828,1.828v12.713c1.325-1.021,2.759-1.908,4.282-2.639V8.721c0-1.006-0.82-1.826-1.826-1.826h-9.803
		V4.152c0-1.004-0.822-1.828-1.827-1.828h-9.085c-1.004,0-1.826,0.824-1.826,1.828v2.742H1.829C0.823,6.895,0,7.715,0,8.721v51.127
		c0,1.006,0.823,1.83,1.829,1.83h26.349C27.217,60.566,26.356,59.367,25.609,58.094z"/>
	<path style="fill:#333333;" d="M22.328,46c0-0.049,0.003-0.098,0.004-0.146H7.737v8.445h16.071
		C22.852,51.711,22.328,48.916,22.328,46z"/>
	<path style="fill:#333333;" d="M46,28c-9.941,0-18,8.061-18,18c0,9.941,8.059,18,18,18s18-8.059,18-18C64,36.061,55.941,28,46,28z
		 M53.84,58.057c-1.051,0.287-2.156,0.443-3.301,0.443c-6.904,0-12.379-5.596-12.379-12.5c0-6.902,5.475-12.5,12.379-12.5
		c1.145,0,2.25,0.156,3.301,0.445C48.539,35.393,44.826,40.24,44.826,46S48.539,56.607,53.84,58.057z"/>
</g>
</svg>
