<?xml version="1.0" encoding="iso-8859-1"?>
<!-- Generator: Adobe Illustrator 14.0.0, SVG Export Plug-In . SVG Version: 6.00 Build 43363)  -->
<!DOCTYPE svg PUBLIC "-//W3C//DTD SVG 1.1//EN" "http://www.w3.org/Graphics/SVG/1.1/DTD/svg11.dtd">
<svg version="1.1" id="icon-m-image-edit-contrast-brightness-layer"
	 xmlns="http://www.w3.org/2000/svg" xmlns:xlink="http://www.w3.org/1999/xlink" x="0px" y="0px" width="64px" height="64px"
	 viewBox="0 0 64 64" style="enable-background:new 0 0 64 64;" xml:space="preserve">
<g id="icon-m-image-edit-contrast-brightness">
	<rect style="fill:none;" width="64" height="64"/>
	<path style="fill:#333333;" d="M32,0c-2,0-3,1-3,2v6c0,1,1,2,3,2c2,0,3-1,3-2V2C35,1,34,0,32,0z"/>
	<path style="fill:#333333;" d="M32,54c-2,0-3,1-3,2v6c0,1,1,2,3,2c2,0,3-1,3-2v-6C35,55,34,54,32,54z"/>
	<path style="fill:#333333;" d="M32,54c-2,0-3,1-3,2v6c0,1,1,2,3,2c2,0,3-1,3-2v-6C35,55,34,54,32,54z"/>
	<path style="fill:#333333;" d="M0,32c0,2,1,3,2,3h6c1,0,2-1,2-3s-1-3-2-3H2C1,29,0,30,0,32z"/>
	<path style="fill:#333333;" d="M54,32c0,2,1,3,2,3h6c1,0,2-1,2-3s-1-3-2-3h-6C55,29,54,30,54,32z"/>
	<path style="fill:#333333;" d="M9.372,54.628c1.414,1.414,2.828,1.414,3.536,0.706l4.242-4.242
		c0.707-0.707,0.707-2.121-0.707-3.535s-2.828-1.414-3.536-0.707l-4.243,4.242C7.958,51.799,7.958,53.214,9.372,54.628z"/>
	<path style="fill:#333333;" d="M47.557,16.443c1.414,1.414,2.828,1.414,3.535,0.707l4.242-4.242
		c0.707-0.707,0.707-2.121-0.707-3.535s-2.828-1.414-3.535-0.707l-4.243,4.242C46.142,13.615,46.143,15.029,47.557,16.443z"/>
	<path style="fill:#333333;" d="M54.627,54.628c1.414-1.414,1.414-2.828,0.707-3.536l-4.242-4.242
		c-0.707-0.707-2.121-0.707-3.535,0.707s-1.414,2.828-0.707,3.536l4.242,4.242C51.799,56.042,53.213,56.042,54.627,54.628z"/>
	<path style="fill:#333333;" d="M16.443,16.443c1.414-1.414,1.414-2.828,0.707-3.535l-4.242-4.242
		c-0.707-0.707-2.121-0.707-3.535,0.707s-1.414,2.828-0.707,3.535l4.242,4.243C13.615,17.858,15.029,17.857,16.443,16.443z"/>
	<path style="fill:#333333;" d="M31.907,13.4c-10.258,0-18.601,8.346-18.601,18.6s8.342,18.6,18.601,18.6
		c10.254,0,18.6-8.346,18.6-18.6S42.161,13.4,31.907,13.4z M31.907,46.736c-8.127,0-14.735-6.609-14.735-14.736
		s6.608-14.736,14.735-14.736c8.124,0,14.734,6.609,14.734,14.736S40.031,46.736,31.907,46.736z"/>
	<path style="fill:#333333;" d="M32.254,21.799c-0.024,0-0.049,0.002-0.073,0.002v20.397c0.024,0,0.049,0.003,0.073,0.003
		c5.628,0,10.201-4.569,10.201-10.201C42.455,26.369,37.883,21.799,32.254,21.799z"/>
</g>
</svg>
