<?xml version="1.0" encoding="iso-8859-1"?>
<!-- Generator: Adobe Illustrator 14.0.0, SVG Export Plug-In . SVG Version: 6.00 Build 43363)  -->
<!DOCTYPE svg PUBLIC "-//W3C//DTD SVG 1.1//EN" "http://www.w3.org/Graphics/SVG/1.1/DTD/svg11.dtd">
<svg version="1.1" id="icon-l-contacts-layer" xmlns="http://www.w3.org/2000/svg" xmlns:xlink="http://www.w3.org/1999/xlink"
	 x="0px" y="0px" width="80px" height="81px" viewBox="0 0 80 81" style="enable-background:new 0 0 80 81;" xml:space="preserve">
<g id="icon-l-contacts_1_">
	<path style="fill:#1D76BB;" d="M19.54,56.545h-7.543c-1.102,0-1.997-0.896-1.997-1.992v-0.49c0-1.094,0.896-1.99,1.997-1.99h7.543
		c1.099,0,1.999,0.896,1.999,1.99v0.49C21.539,55.648,20.639,56.545,19.54,56.545z M11.997,27.035h7.543
		c1.099,0,1.999-0.896,1.999-1.991v-0.49c0-1.094-0.9-1.991-1.999-1.991h-7.543c-1.102,0-1.997,0.897-1.997,1.991v0.49
		C10,26.139,10.896,27.035,11.997,27.035z M19.445,69.016V62.91c4.207-0.477,7.476-3.971,7.476-8.219s-3.269-7.746-7.476-8.219
		V33.605c4.207-0.477,7.476-3.972,7.476-8.218c0-4.249-3.269-7.746-7.476-8.22v-6.184h48.68c1.03,0,1.875,0.843,1.875,1.874v6.041
		v42.204v6.037c0,1.031-0.845,1.875-1.875,1.875H19.445z M41.704,27.91c0,2.06,0.3,3.936,1.667,6.474
		c2.592,4.874,6.811,5.04,9.868,0c1.369-2.538,1.67-4.414,1.67-6.474c0-3.748-2.914-6.853-6.605-6.853
		C44.61,21.058,41.704,24.162,41.704,27.91z M61.2,52.242c-0.004-5.039-1.502-9.396-5.874-11.522
		c-2.711,2.542-5.49,3.009-7.149,3.009h-0.002c-2.577,0-4.987-1.049-6.981-2.959c-4.307,2.141-5.789,6.473-5.789,11.473v2.354
		c0,5.795,25.796,5.795,25.796,0V52.242z"/>
	<rect style="fill:none;" width="80" height="80"/>
</g>
</svg>
