<?xml version="1.0" encoding="iso-8859-1"?>
<!-- Generator: Adobe Illustrator 14.0.0, SVG Export Plug-In . SVG Version: 6.00 Build 43363)  -->
<!DOCTYPE svg PUBLIC "-//W3C//DTD SVG 1.1//EN" "http://www.w3.org/Graphics/SVG/1.1/DTD/svg11.dtd">
<svg version="1.1" id="icon-m-common-4G-layer" xmlns="http://www.w3.org/2000/svg" xmlns:xlink="http://www.w3.org/1999/xlink"
	 x="0px" y="0px" width="64px" height="64px" viewBox="0 0 64 64" style="enable-background:new 0 0 64 64;" xml:space="preserve">
<g id="icon-m-common-4G">
	<rect style="fill:none;" width="64" height="64"/>
	<path style="fill:#333333;" d="M27.23,42.709h-3.825v7.854h-8.21v-7.854H0.662v-4.691l14.941-24.732h7.803v24.529h3.825V42.709z
		 M15.195,37.814V22.82L6.373,37.814H15.195z"/>
	<path style="fill:#333333;" d="M58.033,47.299c-1.428,2.193-4.283,3.672-7.445,3.672c-11.116,0-12.799-9.842-12.799-19.379
		c0-9.893,3.773-18.562,16.318-18.562c2.703,0,5.405,0.307,7.904,0.969v4.846c-2.396-0.664-4.59-0.918-7.14-0.918
		c-6.782,0-8.363,6.885-8.363,13.564c0,7.496,0.306,14.584,5.456,14.584c2.602,0,3.825-2.141,3.825-5.1v-5.66h-4.284V30.42H64
		v20.143h-4.946L58.033,47.299z"/>
</g>
</svg>
