<?xml version="1.0" encoding="iso-8859-1"?>
<!-- Generator: Adobe Illustrator 14.0.0, SVG Export Plug-In . SVG Version: 6.00 Build 43363)  -->
<!DOCTYPE svg PUBLIC "-//W3C//DTD SVG 1.1//EN" "http://www.w3.org/Graphics/SVG/1.1/DTD/svg11.dtd">
<svg version="1.1" id="icon-m-content-email-layer" xmlns="http://www.w3.org/2000/svg" xmlns:xlink="http://www.w3.org/1999/xlink"
	 x="0px" y="0px" width="64px" height="64px" viewBox="0 0 64 64" style="enable-background:new 0 0 64 64;" xml:space="preserve">
<g id="icon-m-content-email">
	<rect style="fill:none;" width="64" height="64"/>
	<path style="fill:#333333;" d="M32,1C14.878,1,1,14.881,1,32c0,17.121,13.878,31,31,31c17.119,0,31-13.879,31-31
		C63,14.881,49.119,1,32,1z M50.025,40.254c-1.861,2.244-4.447,3.377-7.708,3.377c-1.514,0-2.835-0.404-3.962-1.258
		c-1.133-0.814-1.93-1.977-2.346-3.451c-1.798,3.127-4.235,4.709-7.325,4.709c-2.067,0-3.824-0.824-5.267-2.46
		c-1.424-1.651-2.157-3.861-2.157-6.673c0-4.393,1.26-7.818,3.75-10.312c2.506-2.488,5.84-3.743,10.028-3.743h7.375
		c-1.199,6.556-1.794,11.425-1.794,14.638c0,1.953,0.226,3.23,0.659,3.842c0.445,0.602,1.189,0.914,2.241,0.914
		c1.358,0,2.421-0.766,3.212-2.33c0.779-1.541,1.153-3.723,1.153-6.533c0-4.951-1.271-8.785-3.837-11.527
		c-2.568-2.73-6.201-4.098-10.887-4.098c-4.928,0-8.931,1.438-12.033,4.316c-3.125,2.858-4.677,6.839-4.677,11.906
		c0,5.668,1.422,9.93,4.293,12.76c2.869,2.854,7.157,4.271,12.882,4.271c3.385,0,6.953-0.612,10.662-1.852v4.279
		c-1.344,0.491-3.133,0.922-5.3,1.273c-2.198,0.344-4.111,0.525-5.788,0.525c-6.747,0-12.105-1.812-16.071-5.442
		c-3.974-3.627-5.958-8.808-5.958-15.57c0-4.222,0.923-7.882,2.784-10.999c1.843-3.105,4.469-5.486,7.859-7.148
		c3.389-1.672,7.137-2.496,11.234-2.496c6.266,0,11.127,1.727,14.591,5.188c3.463,3.46,5.188,8.266,5.188,14.395
		C52.828,34.865,51.906,38.029,50.025,40.254z"/>
	<path style="fill:#333333;" d="M29.705,26.96c-1.304,1.792-1.97,4.197-1.97,7.243c0,1.887,0.237,3.274,0.727,4.187
		c0.481,0.907,1.325,1.345,2.515,1.345c2.229,0,3.68-2.748,4.366-8.264l0.923-7.205h-1.788
		C32.635,24.266,31.038,25.158,29.705,26.96z"/>
</g>
</svg>
