<?xml version="1.0" encoding="iso-8859-1"?>
<!-- Generator: Adobe Illustrator 14.0.0, SVG Export Plug-In . SVG Version: 6.00 Build 43363)  -->
<!DOCTYPE svg PUBLIC "-//W3C//DTD SVG 1.1//EN" "http://www.w3.org/Graphics/SVG/1.1/DTD/svg11.dtd">
<svg version="1.1" id="icon-m-camera-roll-layer" xmlns="http://www.w3.org/2000/svg" xmlns:xlink="http://www.w3.org/1999/xlink"
	 x="0px" y="0px" width="32px" height="32px" viewBox="0 0 32 32" style="enable-background:new 0 0 32 32;" xml:space="preserve">
<g id="icon-m-camera-roll">
	<rect style="fill:none;" width="32" height="32"/>
	<path style="fill:#FFFFFF;" d="M18,5.5h-5v-2c0-0.527-0.474-1-1-1H7.5c-0.526,0-1,0.473-1,1v2h-5c-1.5,0-1,2,0,2V28
		c-1,0-1.5,1.95,0,1.95H18c1.5,0,1-1.95,0-1.95V7.5C19,7.5,19.5,5.5,18,5.5z M7,28H4V7.45h3V28z"/>
	<path style="fill:#FFFFFF;" d="M20,8.5v18h3v-5c0-1.5,0.5-2.55,2-2.55L31.5,19V8.5H20z M23,14h-2V9.95L23,10V14z M26.5,14h-2V9.95
		l2,0.05V14z M30,14h-2V9.95L30,10V14z"/>
</g>
</svg>
