<?xml version="1.0" encoding="iso-8859-1"?>
<!-- Generator: Adobe Illustrator 14.0.0, SVG Export Plug-In . SVG Version: 6.00 Build 43363)  -->
<!DOCTYPE svg PUBLIC "-//W3C//DTD SVG 1.1//EN" "http://www.w3.org/Graphics/SVG/1.1/DTD/svg11.dtd">
<svg version="1.1" id="icon-l-mms-layer" xmlns="http://www.w3.org/2000/svg" xmlns:xlink="http://www.w3.org/1999/xlink" x="0px"
	 y="0px" width="80px" height="81px" viewBox="0 0 80 81" style="enable-background:new 0 0 80 81;" xml:space="preserve">
<g id="icon-l-mms_1_">
	<g>
		<g>
			<path style="fill:#75336B;" d="M53.566,24.131c2.25,0,4.418,0.334,6.484,0.922v-9.165c0-0.886-0.725-1.609-1.609-1.609H10.207
				c-0.887,0-1.611,0.724-1.611,1.609v6.965l25.668,11.241C38.578,28.074,45.613,24.131,53.566,24.131z"/>
			<path style="fill:#75336B;" d="M29.816,47.881c0-3.224,0.65-6.299,1.82-9.105L8.596,28.817v20.259
				c0,0.885,0.725,1.606,1.611,1.606h19.789C29.887,49.762,29.816,48.831,29.816,47.881z"/>
		</g>
		<path style="fill:#75336B;" d="M53.566,30.043c-9.854,0-17.838,7.985-17.838,17.838c0,9.854,7.984,17.84,17.838,17.84
			s17.838-7.986,17.838-17.84C71.404,38.028,63.42,30.043,53.566,30.043z M63.297,48.791l-13.617,7.94
			c-0.857,0.5-1.557,0.099-1.557-0.894V39.924c0-0.988,0.699-1.393,1.557-0.893l13.617,7.945
			C64.152,47.474,64.152,48.291,63.297,48.791z"/>
	</g>
	<rect style="fill:none;" width="80" height="80"/>
</g>
</svg>
