<?xml version="1.0" encoding="iso-8859-1"?>
<!-- Generator: Adobe Illustrator 14.0.0, SVG Export Plug-In . SVG Version: 6.00 Build 43363)  -->
<!DOCTYPE svg PUBLIC "-//W3C//DTD SVG 1.1//EN" "http://www.w3.org/Graphics/SVG/1.1/DTD/svg11.dtd">
<svg version="1.1" id="icon-l-extras-layer" xmlns="http://www.w3.org/2000/svg" xmlns:xlink="http://www.w3.org/1999/xlink"
	 x="0px" y="0px" width="80px" height="81px" viewBox="0 0 80 81" style="enable-background:new 0 0 80 81;" xml:space="preserve">
<g id="icon-l-extras_1_">
	<path style="fill:#64C0CF;" d="M54.889,18.485h-8.486V10h8.486V18.485z M60.42,42.846H41.867v-5.398
		c0-0.516-0.422-0.938-0.938-0.938H32.17V25.832h10.361V13.359H30.06v10.09H18.643c-0.518,0-0.939,0.42-0.939,0.939v12.589
		c0,0.516,0.422,0.938,0.939,0.938h2.658V56.14c0,0.513,0.422,0.935,0.938,0.935h12.903v11.048c0,1.032,0.845,1.878,1.877,1.878
		H60.42c1.031,0,1.877-0.846,1.877-1.878V44.72C62.297,43.688,61.451,42.846,60.42,42.846z"/>
	<rect style="fill:none;" width="80" height="80.001"/>
</g>
</svg>
