<?xml version="1.0" encoding="iso-8859-1"?>
<!-- Generator: Adobe Illustrator 14.0.0, SVG Export Plug-In . SVG Version: 6.00 Build 43363)  -->
<!DOCTYPE svg PUBLIC "-//W3C//DTD SVG 1.1//EN" "http://www.w3.org/Graphics/SVG/1.1/DTD/svg11.dtd">
<svg version="1.1" id="icon-m-telephony-call-end-layer"
	 xmlns="http://www.w3.org/2000/svg" xmlns:xlink="http://www.w3.org/1999/xlink" x="0px" y="0px" width="48px" height="48px"
	 viewBox="0 0 48 48" style="enable-background:new 0 0 48 48;" xml:space="preserve">
<g id="icon-m-telephony-call-end_2_">
	<rect style="fill:none;" width="48" height="48"/>
	<path style="fill:#FFFFFF;" d="M17.161,38.73c0,0-0.645-3.947,1.078-4.339c1.193-0.271,10.318-0.265,11.514,0.008
		c1.725,0.394,1.092,4.342,1.092,4.342L17.161,38.73z"/>
	<path style="fill:#FFFFFF;" d="M41.785,26.18c-7.578-2.735-26.817-3.974-35.629-0.031c-3.86,1.728-6.098,8.326-5.745,11.42
		c-0.008,0.007,0.143,1.631,1.56,1.54l10.895-1.606c0.721-0.09,1.562-0.312,1.557-1.586c0,0-0.903-5.522,1.506-6.068
		c1.671-0.374,14.432-0.363,16.102,0.011c2.412,0.554,1.527,6.077,1.527,6.077c0.004,1.277,0.848,1.49,1.564,1.582l10.908,1.633
		c1.426,0.085,1.566-1.54,1.561-1.545C47.918,34.519,45.779,27.623,41.785,26.18z"/>
</g>
</svg>
