<?xml version="1.0" encoding="iso-8859-1"?>
<!-- Generator: Adobe Illustrator 14.0.0, SVG Export Plug-In . SVG Version: 6.00 Build 43363)  -->
<!DOCTYPE svg PUBLIC "-//W3C//DTD SVG 1.1//EN" "http://www.w3.org/Graphics/SVG/1.1/DTD/svg11.dtd">
<svg version="1.1" id="icon-m-email-directory-send-layer"
	 xmlns="http://www.w3.org/2000/svg" xmlns:xlink="http://www.w3.org/1999/xlink" x="0px" y="0px" width="65px" height="64px"
	 viewBox="0 0 65 64" style="enable-background:new 0 0 65 64;" xml:space="preserve">
<g id="icon-m-email-directory-send">
	<rect x="1" style="fill:none;" width="64" height="64"/>
	<path style="fill:#333333;" d="M36.969,5.099c0-1.101-0.9-2-2-2H3.021c-1.1,0-2,0.899-2,2l0,7.336h35.949V5.099z"/>
	<path style="fill:#333333;" d="M38.359,34.768c-1.039,1.427-1.57,3.345-1.57,5.771c0,1.502,0.189,2.606,0.58,3.332
		c0.383,0.724,1.055,1.073,2.004,1.073c1.775,0,2.932-2.188,3.479-6.583l0.734-5.739h-1.424
		C40.695,32.622,39.422,33.332,38.359,34.768z"/>
	<path style="fill:#333333;" d="M63,16.582H1.02L1.017,58.904c0,1.1,0.899,2,2,2H63c1.1,0,2-0.9,2-2V18.582
		C65,17.482,64.1,16.582,63,16.582z M20,49.073h-8.743c-1.312,0-2.386-0.894-2.386-1.983s1.074-1.981,2.386-1.981H20V49.073z
		 M20,41.119h-8.743c-1.312,0-2.386-0.893-2.386-1.984c0-1.088,1.074-1.98,2.386-1.98H20V41.119z M20,33.164h-8.743
		c-1.312,0-2.386-0.895-2.386-1.984s1.074-1.98,2.386-1.98H20V33.164z M54.91,45.322c-1.482,1.787-3.543,2.689-6.139,2.689
		c-1.207,0-2.26-0.322-3.158-1.004c-0.9-0.647-1.535-1.573-1.867-2.747c-1.434,2.489-3.375,3.751-5.838,3.751
		c-1.645,0-3.045-0.656-4.195-1.961c-1.134-1.314-1.717-3.075-1.717-5.316c0-3.5,1.002-6.228,2.987-8.214
		c1.996-1.983,4.652-2.981,7.99-2.981h5.875c-0.957,5.222-1.43,9.101-1.43,11.66c0,1.557,0.18,2.572,0.525,3.062
		c0.354,0.477,0.947,0.727,1.785,0.727c1.082,0,1.93-0.61,2.561-1.854c0.621-1.229,0.918-2.967,0.918-5.206
		c0-3.944-1.014-7-3.057-9.184c-2.047-2.175-4.939-3.266-8.674-3.266c-3.926,0-7.117,1.146-9.586,3.438
		c-2.49,2.277-3.727,5.449-3.727,9.488c0,4.514,1.133,7.908,3.419,10.164c2.286,2.274,5.702,3.402,10.265,3.402
		c2.695,0,5.539-0.487,8.494-1.475v3.409c-1.07,0.393-2.496,0.735-4.223,1.015c-1.75,0.273-3.275,0.418-4.611,0.418
		c-5.375,0-9.644-1.443-12.803-4.334c-3.167-2.891-4.748-7.02-4.748-12.404c0-3.365,0.736-6.28,2.219-8.764
		c1.468-2.475,3.559-4.371,6.261-5.697c2.7-1.332,5.686-1.988,8.95-1.988c4.992,0,8.865,1.378,11.625,4.135
		c2.758,2.755,4.133,6.584,4.133,11.469C57.145,41.028,56.41,43.549,54.91,45.322z"/>
</g>
</svg>
