<?xml version="1.0" encoding="iso-8859-1"?>
<!-- Generator: Adobe Illustrator 14.0.0, SVG Export Plug-In . SVG Version: 6.00 Build 43363)  -->
<!DOCTYPE svg PUBLIC "-//W3C//DTD SVG 1.1//EN" "http://www.w3.org/Graphics/SVG/1.1/DTD/svg11.dtd">
<svg version="1.1" id="icon-m-content-playlist-auto-layer"
	 xmlns="http://www.w3.org/2000/svg" xmlns:xlink="http://www.w3.org/1999/xlink" x="0px" y="0px" width="64px" height="65px"
	 viewBox="0 0 64 65" style="enable-background:new 0 0 64 65;" xml:space="preserve">
<g id="icon-m-content-playlist-auto">
	<rect y="1" style="fill:none;" width="64" height="64"/>
	<path style="fill:#333333;" d="M45.324,1H14.512c-0.922,0-1.693,0.754-1.693,1.677l-0.003,29.946
		c-2.234-0.803-5.112-0.539-7.756,0.937c-4.302,2.379-6.205,6.866-4.355,10.215c1.858,3.355,6.685,4.128,10.979,1.75
		c2.841-1.576,4.719-4.08,5.058-6.568c0.021-0.272,0.048-0.414,0.048-0.618l0.012-24.121c0-0.922,0.771-1.677,1.693-1.677h26.828
		c0.922,0,1.676-0.755,1.676-1.677V2.677C47,1.754,46.246,1,45.324,1z"/>
	<rect x="22.413" y="17.568" style="fill:#333333;" width="22.63" height="5.029"/>
	<rect x="22.413" y="27.627" style="fill:#333333;" width="22.63" height="5.027"/>
	<path style="fill:#333333;" d="M55.614,38.175h-6.26l-8.059,27h4.547l1.791-6.192h9.03l1.793,6.192h5.069L55.614,38.175z
		 M48.503,55.562l3.686-13.343l3.654,13.402L48.503,55.562z"/>
</g>
</svg>
