<?xml version="1.0" encoding="iso-8859-1"?>
<!-- Generator: Adobe Illustrator 14.0.0, SVG Export Plug-In . SVG Version: 6.00 Build 43363)  -->
<!DOCTYPE svg PUBLIC "-//W3C//DTD SVG 1.1//EN" "http://www.w3.org/Graphics/SVG/1.1/DTD/svg11.dtd">
<svg version="1.1" id="icon-l-music-layer" xmlns="http://www.w3.org/2000/svg" xmlns:xlink="http://www.w3.org/1999/xlink" x="0px"
	 y="0px" width="46px" height="46px" viewBox="0 0 46 46" style="enable-background:new 0 0 46 46;" xml:space="preserve">
<g id="icon-l-music_1_">
	<path style="fill:#EB2D7C;" d="M12.612-0.91l15.282,8.401c-2.596,0.909-4.9,2.449-6.722,4.438l-5.155-2.834
		c-0.373-0.204-0.655-0.022-0.655,0.405l-0.011,19.904c0,0.174-0.011,0.318-0.028,0.551c-0.29,2.117-1.896,4.25-4.328,5.59
		c-3.673,2.025-7.804,1.369-9.392-1.488c-1.582-2.852,0.044-6.67,3.725-8.693c2.246-1.25,4.688-1.477,6.596-0.809V-0.51
		C11.924-0.94,12.234-1.124,12.612-0.91 M21.951,34.925c-2.126,2.092-2.852,4.901-1.617,7.13c1.586,2.854,5.719,3.51,9.394,1.486
		c1.836-1.016,3.201-2.482,3.884-4.053c-0.098,0.002-0.195,0.009-0.294,0.009C28.911,39.497,24.908,37.754,21.951,34.925z
		 M46.209,23.034c0,7.12-5.771,12.892-12.892,12.892c-7.121,0-12.893-5.771-12.893-12.892c0-7.121,5.772-12.893,12.893-12.893
		C40.438,10.142,46.209,15.913,46.209,23.034z M40.349,22.38l-9.842-5.741c-0.618-0.36-1.124-0.069-1.124,0.645v11.501
		c0,0.716,0.506,1.007,1.124,0.646l9.842-5.739C40.966,23.331,40.966,22.739,40.349,22.38z"/>
</g>
</svg>
