<?xml version="1.0" encoding="iso-8859-1"?>
<!-- Generator: Adobe Illustrator 14.0.0, SVG Export Plug-In . SVG Version: 6.00 Build 43363)  -->
<!DOCTYPE svg PUBLIC "-//W3C//DTD SVG 1.1//EN" "http://www.w3.org/Graphics/SVG/1.1/DTD/svg11.dtd">
<svg version="1.1" id="icon-m-content-dictionary-layer"
	 xmlns="http://www.w3.org/2000/svg" xmlns:xlink="http://www.w3.org/1999/xlink" x="0px" y="0px" width="64px" height="64px"
	 viewBox="0 0 64 64" style="enable-background:new 0 0 64 64;" xml:space="preserve">
<g id="icon-m-content-dictionary">
	<rect style="fill:none;" width="64" height="64"/>
	<rect style="fill:#333333;" width="6.26" height="64"/>
	<polygon style="fill:#333333;" points="25.127,31.423 30.025,31.423 27.558,25.264 	"/>
	<path style="fill:#333333;" d="M62,0H12v64h50c1.1,0,2-0.9,2-2V2C64,0.9,63.1,0,62,0z M58.102,41.392H42.914h-1.188H29.836v-2.183
		l0.463-0.035c0.536-0.039,1.179-0.139,1.913-0.295c0.442-0.094,0.647-0.182,0.736-0.23c-0.003-0.029-0.007-0.059-0.012-0.09
		c-0.003-0.026-0.022-0.113-0.101-0.307l-1.765-4.281h-6.982c-0.14,0.348-0.29,0.739-0.45,1.172
		c-0.211,0.572-0.394,1.078-0.548,1.522c-0.231,0.686-0.305,1.017-0.327,1.171c-0.032,0.229-0.05,0.387-0.05,0.479
		c0,0.112,0.175,0.262,0.467,0.396c0.45,0.209,1.242,0.365,2.355,0.464l0.456,0.042v2.175H15.898v-2.188l0.47-0.029
		c0.318-0.02,0.687-0.071,1.093-0.155c0.372-0.075,0.661-0.177,0.859-0.301c0.386-0.227,0.706-0.497,0.963-0.813
		c0.262-0.322,0.486-0.715,0.665-1.166l3.636-8.803c1.213-2.938,2.555-6.178,4.023-9.719l0.128-0.309h3.795l0.127,0.311
		c2.042,5.024,3.642,8.993,4.798,11.912c1.148,2.896,2.141,5.332,2.949,7.238c0.114,0.266,0.264,0.513,0.441,0.729
		c0.171,0.209,0.426,0.416,0.76,0.612c0.238,0.139,0.531,0.244,0.865,0.317c0.219,0.047,0.422,0.08,0.615,0.106l8.147-11.816
		c-0.86,0.004-1.653,0.02-2.379,0.042c-0.931,0.03-1.665,0.146-2.185,0.343c0.01,0-0.158,0.138-0.518,0.883
		c-0.312,0.65-0.562,1.336-0.74,2.037L44.318,31h-1.982v-6.108h15.531v1.624l-8.559,12.467c0.053,0,0.107,0.002,0.165,0.004
		c1.03,0.022,1.915,0.024,2.988-0.023c0.567-0.025,1.007-0.058,1.32-0.098c0.327-0.04,0.569-0.14,0.748-0.308
		c0.204-0.19,0.368-0.425,0.486-0.695c0.134-0.298,0.306-0.743,0.52-1.335c0.212-0.591,0.376-1.121,0.485-1.579l0.092-0.384h1.988
		V41.392z"/>
</g>
</svg>
