<?xml version="1.0" encoding="iso-8859-1"?>
<!-- Generator: Adobe Illustrator 14.0.0, SVG Export Plug-In . SVG Version: 6.00 Build 43363)  -->
<!DOCTYPE svg PUBLIC "-//W3C//DTD SVG 1.1//EN" "http://www.w3.org/Graphics/SVG/1.1/DTD/svg11.dtd">
<svg version="1.1" id="icon-m-camera-panorama-layer"
	 xmlns="http://www.w3.org/2000/svg" xmlns:xlink="http://www.w3.org/1999/xlink" x="0px" y="0px" width="40px" height="40px"
	 viewBox="0 0 40 40" style="enable-background:new 0 0 40 40;" xml:space="preserve">
<g id="icon-m-camera-panorama">
	<rect style="fill:none;" width="40" height="40"/>
	<path style="fill:#FFFFFF;" d="M20,10.625c-8.068,0-14.778-2.087-19.375-5v28.75C5.489,31.567,12.029,30,20,30
		s14.512,1.567,19.375,4.375V5.625C34.779,8.551,28.09,10.625,20,10.625z M3.968,26.283c-0.165,0.577-0.02,1.3-0.218,1.842V11.25
		c2.158,0.816,4.214,1.16,6.787,1.628c-0.021,0.011-0.042,0.021-0.063,0.03c-0.809,2.481-1.98,6.103-3.343,8.369
		C5.914,23.309,4.664,23.851,3.968,26.283z M13.922,16.038c-0.021,0.137-0.47,2.673-1.843,5.444
		c-0.029,0.049-0.68,1.023-0.534,2.363c0.018,0.146,0.02,0.297,0.018,0.445c-0.018,1.09-0.408,1.888-1.099,2.248
		c-0.134,0.069-0.253,0.104-0.365,0.104c-0.15,0-0.279-0.062-0.367-0.172c-0.171-0.219-0.125-0.547-0.002-0.974
		c0.177-0.615,0.247-1.34,0.183-1.891c-0.029-0.246-0.043-0.502-0.058-0.754l-0.003-0.082c-0.008-0.128-0.09-0.268-0.176-0.415
		c-0.058-0.101-0.115-0.202-0.159-0.304l-0.038-0.09c-0.098-0.222-0.197-0.449-0.241-0.717c-0.084-0.514-0.043-1.107,0.125-1.766
		c0.165-0.651,0.541-1.244,0.904-1.814c0.571-0.895,1.107-1.739,0.799-2.729c-0.018-0.059-0.05-0.11-0.084-0.172
		c-0.066-0.111-0.149-0.248-0.159-0.446c-0.014-0.278,0.103-0.442,0.203-0.529c0.128-0.113,0.305-0.171,0.526-0.171
		c0.561,0,1.275,0.373,1.283,0.377C13.592,14.395,13.989,15.139,13.922,16.038z M18.335,24.821l-0.137,0.025
		c-0.138,0.026-0.266,0.038-0.384,0.038c-0.439,0-0.783-0.167-1.12-0.549c-0.357-0.402-0.453-0.989-0.539-1.508
		c-0.036-0.227-0.072-0.439-0.124-0.615c-0.107-0.357-0.268-0.722-0.425-1.074c-0.078-0.179-0.157-0.354-0.227-0.531
		c-0.087-0.209-0.175-0.404-0.26-0.597c-0.301-0.675-0.586-1.312-0.593-2.161l-0.001-0.369l0.374,0.057
		c1.581,0.239,2.76,1.771,3.186,3.094c0.065,0.209,0.15,0.446,0.238,0.696c0.292,0.834,0.627,1.781,0.66,2.502l0.01,0.19
		C19.025,24.578,18.916,24.715,18.335,24.821z M33.297,30.768c-0.553-0.123-0.854-0.361-1.172-0.615
		c-0.106-0.086-0.219-0.175-0.35-0.266c-0.356-0.246-0.732-0.463-1.132-0.69c-0.646-0.371-1.312-0.753-1.89-1.276
		c-0.768-0.693-2.477-2.453-1.764-3.785l0.088-0.164l0.191-0.004c0,0,0.009,0,0.014,0c0.207,0,0.463,0.092,0.604,0.182l0.159,0.097
		l-0.008,0.106l0.022-0.014c0.603,0.987,1.562,1.791,2.577,2.64c1.182,0.987,2.402,2.007,3.024,3.358l0.263,0.569L33.297,30.768z
		 M36.25,28.125c-0.809-0.57-1.813-0.787-3.03-1.787c-1.687-1.387-3.277-4.914-5.319-5.323c-2.271-0.455-4.641,3.829-6.783,2.927
		c-1.149-0.484-0.908-2.285-1.347-2.99c-0.539-0.866-1.421-1.543-2.027-2.475c-0.844-1.298-2.171-3.305-2.834-5.008
		c1.607,0.146,3.262,0.228,4.96,0.228c6.195,0,11.784-0.706,16.381-2.446V28.125z"/>
</g>
</svg>
