<?xml version="1.0" encoding="iso-8859-1"?>
<!-- Generator: Adobe Illustrator 14.0.0, SVG Export Plug-In . SVG Version: 6.00 Build 43363)  -->
<!DOCTYPE svg PUBLIC "-//W3C//DTD SVG 1.1//EN" "http://www.w3.org/Graphics/SVG/1.1/DTD/svg11.dtd">
<svg version="1.1" id="icon-l-activities-layer" xmlns="http://www.w3.org/2000/svg" xmlns:xlink="http://www.w3.org/1999/xlink"
	 x="0px" y="0px" width="80px" height="80px" viewBox="0 0 80 80" style="enable-background:new 0 0 80 80;" xml:space="preserve">
<g id="icon-l-activities_2_">
	<rect style="fill:none;" width="80" height="80"/>
	<path id="_x31__pixel_shadow_18_" style="opacity:0.4;" d="M58.207,77.145c-0.089,0.024-0.182,0.045-0.271,0.068
		c-0.497,0.133-1,0.261-1.52,0.379c-0.521,0.117-1.06,0.227-1.604,0.332c-0.112,0.02-0.219,0.046-0.331,0.066
		c-4.176,0.773-8.979,1.133-14.479,1.133c-5.503,0-10.305-0.359-14.479-1.133c-0.114-0.021-0.219-0.047-0.33-0.066
		c-0.545-0.105-1.085-0.215-1.606-0.332c-0.52-0.118-1.021-0.246-1.519-0.379c-0.09-0.023-0.184-0.044-0.271-0.068
		C6.457,72.99,0.592,61.873,0.506,40.097c0,0.163-0.006,0.314-0.006,0.478C0.5,69.838,10.735,80,40.002,80
		C69.267,80,79.5,69.838,79.5,40.574c0-0.163-0.002-0.314-0.004-0.478C79.411,61.873,73.545,72.99,58.207,77.145"/>
	<path id="flat_colour_squircle_19_" style="fill:#0032C2;" d="M79.5,39.57c0,29.267-10.233,39.502-39.499,39.502
		C10.733,79.072,0.5,68.837,0.5,39.57c0-29.264,10.233-39.498,39.501-39.498C69.267,0.072,79.5,10.307,79.5,39.57"/>
	<linearGradient id="shine_top_layer_1_" gradientUnits="userSpaceOnUse" x1="39.9995" y1="0" x2="39.9995" y2="79.0005">
		<stop  offset="0" style="stop-color:#FFFFFF"/>
		<stop  offset="0.7362" style="stop-color:#FFFFFF;stop-opacity:0"/>
	</linearGradient>
	<path id="shine_top_layer_19_" style="opacity:0.15;fill:url(#shine_top_layer_1_);" d="M79.5,39.5C79.5,68.765,69.267,79,40,79
		C10.736,79,0.5,68.765,0.5,39.5S10.736,0,40,0C69.267,0,79.5,10.235,79.5,39.5z"/>
	<linearGradient id="top_edge_highlight_1_" gradientUnits="userSpaceOnUse" x1="47.7109" y1="-0.1699" x2="32.2889" y2="79.1698">
		<stop  offset="0" style="stop-color:#FFFFFF"/>
		<stop  offset="0.1117" style="stop-color:#EBEBEB"/>
		<stop  offset="0.3969" style="stop-color:#BDBDBD"/>
		<stop  offset="0.6503" style="stop-color:#9B9B9B"/>
		<stop  offset="0.86" style="stop-color:#878787"/>
		<stop  offset="1" style="stop-color:#808080"/>
	</linearGradient>
	<path id="top_edge_highlight_18_" style="opacity:0.25;fill:url(#top_edge_highlight_1_);" d="M40.001,79
		C10.837,79,0.5,68.663,0.5,39.499C0.5,10.336,10.837,0,40.001,0C69.164,0,79.5,10.336,79.5,39.499C79.5,68.663,69.164,79,40.001,79
		L40.001,79z M40.001,0.986c-28.795,0-38.514,9.719-38.514,38.513c0,28.795,9.719,38.513,38.514,38.513
		c28.794,0,38.512-9.718,38.512-38.513C78.513,10.705,68.795,0.986,40.001,0.986L40.001,0.986z"/>
	<path style="opacity:0.15;" d="M47.848,39.84c0,0.925-0.926,1.847-1.848,1.847h-3.693v4.615c0,0,0,0.924-0.92,0.924
		c-0.924,0-3.693-5.539-3.693-5.539h-9.234V29.685c0-0.923,0.926-1.845,1.85-1.845h17.539V39.84z"/>
	<path style="opacity:0.2;" d="M58.928,26.381h-11.08v-6.462c0-0.925-0.926-1.847-1.848-1.847H21.074
		c-0.922,0-1.846,0.922-1.846,1.847V38.38c0,0.925,0.924,1.847,1.846,1.847h7.385V29.685c0-0.923,0.926-1.845,1.85-1.845h17.539v12
		c0,0.925-0.926,1.847-1.848,1.847h-3.693v4.615c0,0,0,0.924-0.92,0.924c-0.924,0-3.693-5.539-3.693-5.539h-9.234v8.694
		c0,0.924,0.926,1.846,1.85,1.846h13.848v6.463c0,0,0,0.924,0.916,0.924c0.928,0,5.543-7.387,5.543-7.387h8.312
		c0.922,0,1.844-0.922,1.844-1.846V28.227C60.771,27.302,59.85,26.381,58.928,26.381z"/>
	<path id="icon-l-activities_5_" style="fill:#FFFFFF;" d="M58.928,27.84h-11.08v-6.463c0-0.924-0.926-1.846-1.848-1.846H21.074
		c-0.922,0-1.846,0.922-1.846,1.846V39.84c0,0.925,0.924,1.847,1.846,1.847h7.385V51.84c0,0.925,0.926,1.847,1.85,1.847h13.848
		v6.464c0,0,0,0.922,0.916,0.922c0.928,0,5.543-7.386,5.543-7.386h8.312c0.922,0,1.844-0.922,1.844-1.847V29.685
		C60.771,28.762,59.85,27.84,58.928,27.84z M47.848,39.84c0,0.925-0.926,1.847-1.848,1.847h-3.693v4.615c0,0,0,0.924-0.92,0.924
		c-0.924,0-3.693-5.539-3.693-5.539h-9.234V29.685c0-0.923,0.926-1.845,1.85-1.845h17.539V39.84z"/>
</g>
</svg>
