<?xml version="1.0" encoding="iso-8859-1"?>
<!-- Generator: Adobe Illustrator 14.0.0, SVG Export Plug-In . SVG Version: 6.00 Build 43363)  -->
<!DOCTYPE svg PUBLIC "-//W3C//DTD SVG 1.1//EN" "http://www.w3.org/Graphics/SVG/1.1/DTD/svg11.dtd">
<svg version="1.1" id="icon-m-applet-close-layer" xmlns="http://www.w3.org/2000/svg" xmlns:xlink="http://www.w3.org/1999/xlink"
	 x="0px" y="0px" width="48px" height="48px" viewBox="0 0 48 48" style="enable-background:new 0 0 48 48;" xml:space="preserve">
<g id="icon-m-applet-close">
	<rect style="fill:none;" width="48" height="48"/>
	<path style="fill:#333333;" d="M24.626,0.004L23.371,0C4.178,0,0,8.432,0,23.967c0,15.572,4.293,24.031,23.371,24.031L24.626,48
		C43.821,48,48,39.572,48,24.036C48,8.461,43.705,0.004,24.626,0.004z M34.266,30.671c0.986,0.988,0.975,2.593-0.014,3.571
		c-0.488,0.493-1.133,0.744-1.781,0.744c-0.646,0-1.291-0.251-1.784-0.744L24,27.568l-6.68,6.674
		c-0.492,0.493-1.141,0.744-1.784,0.744c-0.646,0-1.297-0.251-1.789-0.744c-0.982-0.979-0.993-2.578-0.006-3.568l6.693-6.669
		l-6.693-6.681c-0.987-0.979-0.987-2.581,0-3.572c0.983-0.983,2.591-0.983,3.579,0l6.683,6.68l6.684-6.68
		c0.987-0.983,2.58-0.983,3.565,0c0.988,0.991,1,2.593,0.014,3.575l-6.689,6.671L34.266,30.671z"/>
</g>
</svg>
