<?xml version="1.0" encoding="iso-8859-1"?>
<!-- Generator: Adobe Illustrator 14.0.0, SVG Export Plug-In . SVG Version: 6.00 Build 43363)  -->
<!DOCTYPE svg PUBLIC "-//W3C//DTD SVG 1.1//EN" "http://www.w3.org/Graphics/SVG/1.1/DTD/svg11.dtd">
<svg version="1.1" id="icon-m-status-menu-alarm-layer"
	 xmlns="http://www.w3.org/2000/svg" xmlns:xlink="http://www.w3.org/1999/xlink" x="0px" y="0px" width="48px" height="48px"
	 viewBox="0 0 48 48" style="enable-background:new 0 0 48 48;" xml:space="preserve">
<g id="icon-m-status-menu-alarm">
	<rect style="fill:none;" width="48" height="48"/>
	<g>
		<path style="fill:#FFFFFF;" d="M40.168,17.357c-0.994-1.019-2.045-1.251-3.358-1.757c-3.159-1.213-6.275-3.001-8.907-5.133
			c-1.768-1.436-3.401-2.605-5.574-3.454c-4.602-1.788-9.456-1.301-13.086,2.18L9.196,9.239c-3.479,3.636-3.971,8.487-2.178,13.09
			c0.845,2.174,2.017,3.806,3.448,5.571c2.136,2.634,3.923,5.751,5.136,8.91c0.504,1.311,0.74,2.362,1.753,3.355
			c0.688,0.677,0.722,0.723,1.402,1.401c0.456,0.457,1.359,0.615,1.815,0.158L31.127,31.17l0.045-0.045l10.556-10.549
			c0.456-0.457,0.298-1.363-0.157-1.815C40.891,18.079,40.845,18.044,40.168,17.357z"/>
		<path style="fill:#FFFFFF;" d="M29.791,37.512c0.986,1.639,2.775,2.739,4.826,2.739c3.111,0,5.635-2.524,5.636-5.63
			c-0.001-2.057-1.103-3.847-2.74-4.833L29.791,37.512z"/>
	</g>
</g>
</svg>
