<?xml version="1.0" encoding="iso-8859-1"?>
<!-- Generator: Adobe Illustrator 14.0.0, SVG Export Plug-In . SVG Version: 6.00 Build 43363)  -->
<!DOCTYPE svg PUBLIC "-//W3C//DTD SVG 1.1//EN" "http://www.w3.org/Graphics/SVG/1.1/DTD/svg11.dtd">
<svg version="1.1" id="icon-l-telephony-layer" xmlns="http://www.w3.org/2000/svg" xmlns:xlink="http://www.w3.org/1999/xlink"
	 x="0px" y="0px" width="46px" height="46px" viewBox="0 0 46 46" style="enable-background:new 0 0 46 46;" xml:space="preserve">
<g id="icon-l-telephony_1_">
	<path style="fill:#8EBE3F;" d="M46.146,5.405c0.01,0,1.287,1.32-0.02,2.627l-10.594,7.799c-0.687,0.528-1.582,1.056-2.653-0.026
		c0,0-3.896-5.425-6.396-3.86c-1.732,1.082-12.53,11.825-13.632,13.553c-1.582,2.488,3.825,6.42,3.825,6.42
		c1.076,1.07,0.545,1.967,0.012,2.653L8.822,45.108c-1.177,1.306-2.609,0.006-2.609,0.006c-2.891-2.33-6.542-9.805-4.729-14.521
		C5.622,19.823,22.939,4.667,31.637,0.604C36.232-1.543,43.831,2.508,46.146,5.405z"/>
</g>
</svg>
