<?xml version="1.0" encoding="iso-8859-1"?>
<!-- Generator: Adobe Illustrator 14.0.0, SVG Export Plug-In . SVG Version: 6.00 Build 43363)  -->
<!DOCTYPE svg PUBLIC "-//W3C//DTD SVG 1.1//EN" "http://www.w3.org/Graphics/SVG/1.1/DTD/svg11.dtd">
<svg version="1.1" id="icon-l-content-manager-layer"
	 xmlns="http://www.w3.org/2000/svg" xmlns:xlink="http://www.w3.org/1999/xlink" x="0px" y="0px" width="80px" height="81px"
	 viewBox="0 0 80 81" style="enable-background:new 0 0 80 81;" xml:space="preserve">
<g id="icon-l-content-manager_1_">
	<path style="fill:#00A79C;" d="M22.652,38.142v18.587H57.35V38.142H22.652z M47.436,48.054h-14.87v-6.195h14.87V48.054z
		 M41.238,17.077H25.13v-2.479c0-1.24,1.239-1.24,1.239-1.24H40c0,0,1.238,0,1.238,1.24V17.077z M68.5,26.988v39.654h-57V26.988
		h9.913v6.196h-3.718v28.501h44.609V33.185h-3.717v-6.196H68.5z M25.13,33.185V19.466l27.261,0.003c1.242,0,2.479,1.238,2.479,2.479
		v11.237H25.13z"/>
	<rect style="fill:none;" width="80" height="80"/>
</g>
</svg>
