<?xml version="1.0" encoding="iso-8859-1"?>
<!-- Generator: Adobe Illustrator 14.0.0, SVG Export Plug-In . SVG Version: 6.00 Build 43363)  -->
<!DOCTYPE svg PUBLIC "-//W3C//DTD SVG 1.1//EN" "http://www.w3.org/Graphics/SVG/1.1/DTD/svg11.dtd">
<svg version="1.1" id="icon-m-toolbar-sorting-alphabetical-layer"
	 xmlns="http://www.w3.org/2000/svg" xmlns:xlink="http://www.w3.org/1999/xlink" x="0px" y="0px" width="42px" height="55px"
	 viewBox="0 0 42 55" style="enable-background:new 0 0 42 55;" xml:space="preserve">
<g id="icon-m-toolbar-sorting-alphabetical">
	<path style="fill:#FFFFFF;" d="M36.265,14.893h4.48c1.1,0,1.55-0.778,1-1.73L34.583,0.756c-0.551-0.953-1.455-0.955-2.01-0.007
		l-7.266,12.418c-0.556,0.95-0.109,1.726,0.989,1.726h3.968v39.242h6V14.893z"/>
	<g>
		<g>
			<g>
				<g>
					<g>
						<path style="fill:#FFFFFF;" d="M18.167,22.228h-5.343l-1.099-4.61H5.679l-1.129,4.61H0L6.229,0h6.106L18.167,22.228z
							 M11.114,14.688L8.732,4.244L6.29,14.688H11.114z"/>
					</g>
					<g>
						<path style="fill:#FFFFFF;" d="M15.999,34.141L7.908,51.146h7.969v2.932H2.106v-2.291l8.091-17.006H2.595V31.85h13.404V34.141
							z"/>
					</g>
				</g>
			</g>
		</g>
	</g>
</g>
</svg>
