<?xml version="1.0" encoding="iso-8859-1"?>
<!-- Generator: Adobe Illustrator 14.0.0, SVG Export Plug-In . SVG Version: 6.00 Build 43363)  -->
<!DOCTYPE svg PUBLIC "-//W3C//DTD SVG 1.1//EN" "http://www.w3.org/Graphics/SVG/1.1/DTD/svg11.dtd">
<svg version="1.1" id="icon-m-toolbar-refresh2-layer"
	 xmlns="http://www.w3.org/2000/svg" xmlns:xlink="http://www.w3.org/1999/xlink" x="0px" y="0px" width="32px" height="32px"
	 viewBox="0 0 32 32" style="enable-background:new 0 0 32 32;" xml:space="preserve">
<g id="icon-m-toolbar-refresh2_1_">
	<rect style="fill:none;" width="32" height="32"/>
	<path style="fill:#FFFFFF;" d="M1.6,16c0,7.953,6.447,14.4,14.4,14.4c7.952,0,14.4-6.447,14.4-14.4S23.952,1.6,16,1.6
		C8.047,1.6,1.6,8.047,1.6,16z M21.688,23.136c0,0.112-0.041,0.228-0.123,0.315l-5.005,5.4c-0.086,0.094-0.208,0.146-0.334,0.148
		c-0.128,0.002-0.25-0.049-0.34-0.141c-0.083-0.088-0.168-0.244-0.168-0.363v-2.934c-5.02-0.152-9.058-4.285-9.062-9.342
		c0-1.832,0.534-3.607,1.546-5.139c0.076-0.115,0.201-0.191,0.341-0.204c0.137-0.015,0.275,0.033,0.374,0.133l2.104,2.103
		c0.144,0.143,0.177,0.364,0.083,0.543c-0.421,0.799-0.635,1.662-0.635,2.564c0.004,2.951,2.334,5.374,5.25,5.529v-3.976
		c0-0.124,0.048-0.241,0.137-0.327c0.089-0.09,0.229-0.158,0.355-0.156c0.127,0.002,0.267,0.036,0.351,0.129l5.005,5.4
		C21.646,22.909,21.688,23.022,21.688,23.136z M16.646,3.503v3.404c4.834,0.336,8.698,4.423,8.7,9.313l0,0
		c-0.001,1.57-0.398,3.123-1.148,4.49c-0.071,0.127-0.199,0.215-0.344,0.236c-0.144,0.02-0.29-0.029-0.393-0.132l-2.174-2.173
		c-0.129-0.128-0.17-0.32-0.105-0.49c0.234-0.632,0.354-1.283,0.354-1.934c-0.003-2.84-2.116-5.166-4.89-5.488v3.496
		c0,0.121-0.048,0.235-0.131,0.322c-0.088,0.092-0.23,0.162-0.358,0.16c-0.126-0.002-0.266-0.036-0.354-0.129l-5.002-5.4
		c-0.165-0.178-0.165-0.452,0-0.631l5.002-5.4C15.891,3.055,16.013,3,16.141,3c0.128-0.002,0.25,0.051,0.339,0.144
		C16.562,3.231,16.646,3.383,16.646,3.503z"/>
</g>
</svg>
