<?xml version="1.0" encoding="iso-8859-1"?>
<!-- Generator: Adobe Illustrator 14.0.0, SVG Export Plug-In . SVG Version: 6.00 Build 43363)  -->
<!DOCTYPE svg PUBLIC "-//W3C//DTD SVG 1.1//EN" "http://www.w3.org/Graphics/SVG/1.1/DTD/svg11.dtd">
<svg version="1.1" id="icon-l-clock-layer" xmlns="http://www.w3.org/2000/svg" xmlns:xlink="http://www.w3.org/1999/xlink" x="0px"
	 y="0px" width="46px" height="46px" viewBox="0 0 46 46" style="enable-background:new 0 0 46 46;" xml:space="preserve">
<g id="icon-l-clock_1_">
	<linearGradient id="SVGID_1_" gradientUnits="userSpaceOnUse" x1="22.8569" y1="3.7715" x2="22.8569" y2="185.8922">
		<stop  offset="0" style="stop-color:#FFFFFF"/>
		<stop  offset="1" style="stop-color:#B3B2C9"/>
	</linearGradient>
	<path style="fill:url(#SVGID_1_);" d="M25.741,23.515c-0.303,1.423-1.532,2.434-2.994,2.434c-1.692,0-3.069-1.378-3.069-3.068
		c0-0.257,0.034-0.514,0.101-0.764l-6.742-8.488l2.872-2.302l6.744,8.487c0.532-0.022,1.051,0.104,1.533,0.363l6.343-2.952
		l1.551,3.346L25.741,23.515z M22.857,4.287c10.24,0,18.571,8.33,18.571,18.57c0,10.239-8.331,18.571-18.571,18.571
		c-10.241,0-18.571-8.332-18.571-18.571C4.286,12.617,12.617,4.287,22.857,4.287 M22.857,0C10.233,0,0,10.234,0,22.857
		s10.233,22.857,22.857,22.857S45.715,35.48,45.715,22.857S35.481,0,22.857,0L22.857,0z"/>
</g>
</svg>
