<?xml version="1.0" encoding="iso-8859-1"?>
<!-- Generator: Adobe Illustrator 14.0.0, SVG Export Plug-In . SVG Version: 6.00 Build 43363)  -->
<!DOCTYPE svg PUBLIC "-//W3C//DTD SVG 1.1//EN" "http://www.w3.org/Graphics/SVG/1.1/DTD/svg11.dtd">
<svg version="1.1" id="icon-m-toolbar-refresh3-layer"
	 xmlns="http://www.w3.org/2000/svg" xmlns:xlink="http://www.w3.org/1999/xlink" x="0px" y="0px" width="32px" height="32px"
	 viewBox="0 0 32 32" style="enable-background:new 0 0 32 32;" xml:space="preserve">
<g id="icon-m-toolbar-refresh3_1_">
	<rect style="fill:none;" width="32" height="32"/>
	<path style="fill:#FFFFFF;" d="M5.818,26.182c5.624,5.624,14.742,5.624,20.365,0.001s5.624-14.742,0-20.364
		c-5.624-5.625-14.742-5.624-20.365,0C0.194,11.44,0.194,20.559,5.818,26.182z M25.067,17.023c0.08,0.08,0.131,0.189,0.136,0.311
		l0.28,7.357c0.005,0.127-0.044,0.251-0.132,0.342c-0.089,0.092-0.212,0.141-0.34,0.141c-0.12-0.003-0.291-0.054-0.376-0.139
		l-2.074-2.073c-3.657,3.44-9.436,3.374-13.014-0.198c-1.296-1.295-2.174-2.93-2.54-4.727c-0.028-0.135,0.007-0.277,0.096-0.387
		c0.086-0.106,0.218-0.17,0.358-0.17l2.974-0.002c0.204,0.002,0.383,0.133,0.443,0.327c0.268,0.862,0.727,1.626,1.364,2.263
		c2.089,2.084,5.451,2.149,7.622,0.197l-2.811-2.812c-0.088-0.087-0.137-0.204-0.136-0.328c0-0.126,0.051-0.273,0.141-0.36
		c0.093-0.089,0.216-0.164,0.341-0.157l7.356,0.28C24.878,16.894,24.987,16.943,25.067,17.023z M7.62,6.706l2.407,2.407
		c3.656-3.182,9.276-3.023,12.736,0.436l0,0c1.11,1.11,1.927,2.488,2.363,3.986c0.04,0.14,0.012,0.292-0.076,0.409
		c-0.087,0.115-0.225,0.185-0.37,0.185h-3.073c-0.182,0.002-0.347-0.105-0.422-0.271c-0.281-0.612-0.656-1.157-1.116-1.618
		c-2.011-2.006-5.15-2.158-7.339-0.424l2.473,2.473c0.085,0.084,0.132,0.2,0.135,0.321c0.002,0.126-0.048,0.275-0.14,0.365
		c-0.09,0.089-0.213,0.163-0.342,0.159l-7.355-0.281c-0.242-0.01-0.437-0.203-0.446-0.446L6.773,7.053
		C6.77,6.924,6.817,6.799,6.908,6.707c0.09-0.091,0.213-0.141,0.341-0.138C7.368,6.575,7.536,6.621,7.62,6.706z"/>
</g>
</svg>
