<?xml version="1.0" encoding="iso-8859-1"?>
<!-- Generator: Adobe Illustrator 14.0.0, SVG Export Plug-In . SVG Version: 6.00 Build 43363)  -->
<!DOCTYPE svg PUBLIC "-//W3C//DTD SVG 1.1//EN" "http://www.w3.org/Graphics/SVG/1.1/DTD/svg11.dtd">
<svg version="1.1" id="icon-s-current-page-layer" xmlns="http://www.w3.org/2000/svg" xmlns:xlink="http://www.w3.org/1999/xlink"
	 x="0px" y="0px" width="13px" height="12px" viewBox="0 0 13 12" style="enable-background:new 0 0 13 12;" xml:space="preserve">
<g id="icon-s-current-page_3_">
	<rect x="1" style="fill:none;" width="12" height="12"/>
	<g>
		<path style="fill:#333333;" d="M7,2.5C5.07,2.5,3.5,4.069,3.5,6c0,1.93,1.57,3.5,3.5,3.5s3.5-1.57,3.5-3.5
			C10.5,4.069,8.93,2.5,7,2.5z"/>
	</g>
	<g>
		<path style="fill:#333333;" d="M7,0C3.686,0,1,2.686,1,6s2.686,6,6,6c3.312,0,6-2.686,6-6S10.312,0,7,0z M7,10.8
			C4.349,10.8,2.2,8.65,2.2,6S4.349,1.2,7,1.2c2.65,0,4.801,2.149,4.801,4.8S9.65,10.8,7,10.8z"/>
	</g>
</g>
</svg>
