<?xml version="1.0" encoding="iso-8859-1"?>
<!-- Generator: Adobe Illustrator 14.0.0, SVG Export Plug-In . SVG Version: 6.00 Build 43363)  -->
<!DOCTYPE svg PUBLIC "-//W3C//DTD SVG 1.1//EN" "http://www.w3.org/Graphics/SVG/1.1/DTD/svg11.dtd">
<svg version="1.1" id="icon-l-email-layer" xmlns="http://www.w3.org/2000/svg" xmlns:xlink="http://www.w3.org/1999/xlink" x="0px"
	 y="0px" width="80px" height="80px" viewBox="0 0 80 80" style="enable-background:new 0 0 80 80;" xml:space="preserve">
<g id="icon-l-email_1_">
	<rect style="fill:none;" width="80" height="80"/>
	<path id="_x31__pixel_shadow_4_" style="opacity:0.4;" d="M58.207,77.144c-0.089,0.026-0.182,0.046-0.271,0.069
		c-0.497,0.133-1,0.261-1.52,0.378c-0.521,0.119-1.06,0.228-1.604,0.332c-0.112,0.021-0.219,0.047-0.331,0.067
		c-4.176,0.773-8.979,1.133-14.479,1.133c-5.503,0-10.305-0.359-14.479-1.133c-0.114-0.021-0.219-0.046-0.33-0.067
		c-0.545-0.104-1.085-0.213-1.606-0.332c-0.52-0.117-1.021-0.245-1.519-0.378c-0.09-0.023-0.184-0.043-0.271-0.069
		C6.457,72.989,0.592,61.873,0.506,40.098c0,0.161-0.006,0.313-0.006,0.478C0.5,69.838,10.735,80,40.002,80
		C69.267,80,79.5,69.838,79.5,40.575c0-0.164-0.002-0.316-0.004-0.478C79.411,61.873,73.545,72.989,58.207,77.144"/>
	<path id="flat_colour_squircle_5_" style="fill:#EBB10A;" d="M79.5,39.57c0,29.267-10.233,39.501-39.499,39.501
		C10.733,79.071,0.5,68.837,0.5,39.57c0-29.264,10.233-39.499,39.501-39.499C69.267,0.071,79.5,10.307,79.5,39.57"/>
	<linearGradient id="shine_top_layer_1_" gradientUnits="userSpaceOnUse" x1="39.9995" y1="0" x2="39.9995" y2="79.0005">
		<stop  offset="0" style="stop-color:#FFFFFF"/>
		<stop  offset="0.7362" style="stop-color:#FFFFFF;stop-opacity:0"/>
	</linearGradient>
	<path id="shine_top_layer_6_" style="opacity:0.4;fill:url(#shine_top_layer_1_);" d="M79.5,39.5C79.5,68.766,69.266,79,40,79
		C10.735,79,0.5,68.766,0.5,39.5S10.735,0,40,0C69.266,0,79.5,10.234,79.5,39.5z"/>
	<linearGradient id="top_edge_highlight_1_" gradientUnits="userSpaceOnUse" x1="47.7109" y1="-0.1699" x2="32.2889" y2="79.1698">
		<stop  offset="0" style="stop-color:#FFFFFF"/>
		<stop  offset="0.1117" style="stop-color:#EBEBEB"/>
		<stop  offset="0.3969" style="stop-color:#BDBDBD"/>
		<stop  offset="0.6503" style="stop-color:#9B9B9B"/>
		<stop  offset="0.86" style="stop-color:#878787"/>
		<stop  offset="1" style="stop-color:#808080"/>
	</linearGradient>
	<path id="top_edge_highlight_4_" style="opacity:0.61;fill:url(#top_edge_highlight_1_);" d="M40.001,79
		C10.837,79,0.5,68.664,0.5,39.5S10.837,0,40.001,0C69.164,0,79.5,10.336,79.5,39.5S69.164,79,40.001,79L40.001,79z M40.001,0.986
		c-28.795,0-38.514,9.718-38.514,38.514c0,28.794,9.719,38.512,38.514,38.512c28.794,0,38.512-9.718,38.512-38.512
		C78.513,10.704,68.795,0.986,40.001,0.986L40.001,0.986z"/>
	<path style="opacity:0.3;fill:#231F20;" d="M55.774,23.043c-3.496-3.49-8.397-5.23-14.715-5.23c-4.132,0-7.911,0.83-11.329,2.516
		c-3.416,1.678-6.065,4.076-7.917,7.209C19.932,30.681,19,34.371,19,38.625c0,6.818,2,12.045,6.013,15.699
		c3.994,3.659,9.396,5.488,16.194,5.488c1.693,0,3.625-0.186,5.839-0.525c2.188-0.361,3.991-0.793,5.346-1.29v-4.313
		c-3.74,1.25-7.336,1.868-10.75,1.868c-5.773,0-10.097-1.431-12.988-4.308c-2.895-2.853-4.329-7.152-4.329-12.864
		c0-5.11,1.565-9.122,4.716-12.007c3.125-2.9,7.163-4.35,12.133-4.35c4.724,0,8.387,1.377,10.977,4.133
		c2.587,2.764,3.871,6.629,3.871,11.619c0,2.835-0.379,5.033-1.165,6.589c-0.8,1.575-1.867,2.35-3.239,2.35
		c-1.061,0-1.81-0.319-2.258-0.923c-0.44-0.615-0.665-1.904-0.665-3.874c0-3.239,0.601-8.15,1.807-14.759h-7.435
		c-4.224,0-7.585,1.266-10.11,3.774c-2.51,2.513-3.781,5.97-3.781,10.398c0,2.831,0.739,5.062,2.176,6.728
		c1.456,1.648,3.225,2.48,5.312,2.48c3.117,0,5.569-1.596,7.383-4.748c0.421,1.488,1.224,2.66,2.364,3.48
		c1.137,0.86,2.469,1.268,3.994,1.268c3.288,0,5.896-1.142,7.772-3.407C60.071,44.891,61,41.703,61,37.559
		C61,31.375,59.26,26.532,55.774,23.043z M44.43,38.326c-0.691,5.561-3.667,11.363-5.92,11.363c-1.199,0-3.567-3.474-4.053-4.39
		c-0.493-0.918,0.786-2.316,0.786-4.219c0-3.073,0.672-5.498,1.986-7.304c1.347-1.818,2.96-2.715,4.812-2.715h1.801L44.43,38.326z"
		/>
	<path style="fill:#FFFFFF;" d="M55.774,24.56c-3.496-3.489-8.397-5.229-14.715-5.229c-4.132,0-7.911,0.829-11.329,2.515
		c-3.416,1.677-6.065,4.077-7.917,7.21C19.932,32.195,19,35.887,19,40.143c0,6.816,2,12.043,6.013,15.699
		c3.994,3.658,9.396,5.488,16.194,5.488c1.693,0,3.625-0.186,5.839-0.527c2.188-0.359,3.991-0.793,5.346-1.288v-4.313
		c-3.74,1.25-7.336,1.867-10.75,1.867c-5.773,0-10.097-1.432-12.988-4.307c-2.895-2.854-4.329-7.152-4.329-12.864
		c0-5.11,1.565-9.124,4.716-12.007c3.125-2.902,7.163-4.35,12.133-4.35c4.724,0,8.387,1.376,10.977,4.131
		c2.587,2.764,3.871,6.629,3.871,11.621c0,2.834-0.379,5.031-1.165,6.587c-0.8,1.577-1.867,2.352-3.239,2.352
		c-1.061,0-1.81-0.319-2.258-0.923c-0.44-0.617-0.665-1.906-0.665-3.875c0-3.239,0.601-8.15,1.807-14.758h-7.435
		c-4.224,0-7.585,1.266-10.11,3.774c-2.51,2.514-3.781,5.968-3.781,10.397c0,2.833,0.739,5.062,2.176,6.727
		c1.456,1.65,3.225,2.48,5.312,2.48c3.117,0,5.569-1.596,7.383-4.746c0.421,1.489,1.224,2.659,2.364,3.48
		c1.137,0.858,2.469,1.266,3.994,1.266c3.288,0,5.896-1.143,7.772-3.405C60.071,46.408,61,43.219,61,39.074
		C61,32.893,59.26,28.05,55.774,24.56z M42.913,39.842c-0.691,5.561-2.15,8.33-4.403,8.33c-1.199,0-2.05-0.44-2.536-1.354
		c-0.493-0.92-0.731-2.318-0.731-4.222c0-3.07,0.672-5.496,1.986-7.303c1.347-1.817,2.96-2.715,4.812-2.715h1.801L42.913,39.842z"/>
	<path style="opacity:0.15;fill:#231F20;" d="M42.913,39.842c-0.691,5.561-2.15,8.33-4.403,8.33c-1.199,0-2.05-0.44-2.536-1.354
		c-0.493-0.92-0.731-2.318-0.731-4.222c0-3.07,0.672-5.496,1.986-7.303c1.347-1.817,2.96-2.715,4.812-2.715h1.801L42.913,39.842z"/>
</g>
</svg>
