<?xml version="1.0" encoding="iso-8859-1"?>
<!-- Generator: Adobe Illustrator 14.0.0, SVG Export Plug-In . SVG Version: 6.00 Build 43363)  -->
<!DOCTYPE svg PUBLIC "-//W3C//DTD SVG 1.1//EN" "http://www.w3.org/Graphics/SVG/1.1/DTD/svg11.dtd">
<svg version="1.1" id="icon-m-organizer-today-layer"
	 xmlns="http://www.w3.org/2000/svg" xmlns:xlink="http://www.w3.org/1999/xlink" x="0px" y="0px" width="64px" height="64px"
	 viewBox="0 0 64 64" style="enable-background:new 0 0 64 64;" xml:space="preserve">
<g id="icon-m-organizer-today">
	<rect style="fill:none;" width="64" height="64"/>
	<path style="fill:#333333;" d="M21.525,10.021c0,1.146-0.934,2.086-2.077,2.086h-0.511c-1.143,0-2.078-0.939-2.078-2.086V2.152
		c0-1.148,0.936-2.088,2.078-2.088h0.511c1.144,0,2.077,0.939,2.077,2.088V10.021z"/>
	<path style="fill:#333333;" d="M47.432,10.021c0,1.146-0.936,2.086-2.079,2.086h-0.511c-1.143,0-2.078-0.939-2.078-2.086V2.152
		c0-1.148,0.936-2.088,2.078-2.088h0.511c1.144,0,2.079,0.939,2.079,2.088V10.021z"/>
	<path style="fill:#333333;" d="M5.316,24.137L5.291,62c0,1.1,0.9,2,2,2h49.307c1.1,0,2-0.9,2-2l0.057-37.863H5.316z M29.598,35.535
		c0-1.215,0.985-2.205,2.198-2.205h0.646c1.211,0,2.198,0.99,2.198,2.205v5.13c0,1.216-0.986,2.205-2.198,2.205h-0.646
		c-1.213,0-2.198-0.989-2.198-2.205V35.535z M20.036,53.891c0,0.223-0.045,0.418-0.085,0.563l-0.095,0.353h-9.149l-0.095-0.353
		c-0.039-0.146-0.084-0.341-0.084-0.563v-0.649c0-1.216,0.986-2.204,2.198-2.204h5.111c1.213,0,2.199,0.988,2.199,2.204V53.891z
		 M20.237,46.65l-3.616-3.626c-0.855-0.859-0.855-2.257,0-3.117l0.459-0.46c0.793-0.797,2.313-0.797,3.11,0.001l3.614,3.628
		c0.413,0.412,0.641,0.966,0.641,1.559c0,0.589-0.228,1.143-0.641,1.559l-0.457,0.458c-0.415,0.416-0.967,0.647-1.556,0.647
		C21.202,47.299,20.65,47.066,20.237,46.65z M21.873,54.807l0.023-0.5c0.248-5.42,4.674-9.666,10.077-9.666
		s9.829,4.246,10.076,9.666l0.022,0.5H21.873z M40.889,46.651l-0.456-0.458c-0.856-0.86-0.856-2.259,0-3.117l3.614-3.628
		c0.794-0.8,2.314-0.8,3.11,0l0.457,0.458c0.855,0.861,0.855,2.259,0.001,3.117l-3.617,3.628c-0.412,0.416-0.965,0.647-1.553,0.647
		S41.304,47.067,40.889,46.651z M53.416,53.891c0,0.229-0.047,0.431-0.084,0.563l-0.094,0.353h-9.15l-0.096-0.353
		c-0.057-0.209-0.082-0.388-0.082-0.563v-0.649c0-1.216,0.985-2.204,2.197-2.204h5.111c1.212,0,2.197,0.988,2.197,2.204V53.891z"/>
	<path style="fill:#333333;" d="M51.711,9.777c-0.384,3.508-3.299,6.234-6.84,6.234s-6.455-2.727-6.84-6.234H25.806
		c-0.384,3.508-3.298,6.234-6.839,6.234c-3.542,0-6.455-2.727-6.841-6.234H5.316v10.348h53.367V9.777H51.711z"/>
</g>
</svg>
