<?xml version="1.0" encoding="iso-8859-1"?>
<!-- Generator: Adobe Illustrator 14.0.0, SVG Export Plug-In . SVG Version: 6.00 Build 43363)  -->
<!DOCTYPE svg PUBLIC "-//W3C//DTD SVG 1.1//EN" "http://www.w3.org/Graphics/SVG/1.1/DTD/svg11.dtd">
<svg version="1.1" id="icon-m-framework-back-layer"
	 xmlns="http://www.w3.org/2000/svg" xmlns:xlink="http://www.w3.org/1999/xlink" x="0px" y="0px" width="32px" height="32px"
	 viewBox="0 0 32 32" style="enable-background:new 0 0 32 32;" xml:space="preserve">
<g id="icon-m-framework-back">
	<rect style="fill:none;" width="32" height="32"/>
	<path style="fill:#FFFFFF;" d="M19.467,31.5c0.925,0,4.795-0.188,7.932-3.186c2.654-2.535,3.979-5.343,3.984-10.222l0.021-0.091
		c-0.006-4.88-1.351-7.75-4.005-10.283c-3.137-3-7.007-3.035-7.932-3.035c-0.059,0-8.939,0-8.939,0V1.207
		c0-0.527,0-0.992-0.993-0.494L1.094,5.678c0,0-0.498,0.495-0.498,0.744c0,0.225,0.498,0.746,0.498,0.746l8.441,5.461
		c0.993,0.496,0.993,0.032,0.993-0.496V8.606l8.939,0.049c0,0,3.017-0.351,5.312,1.876c1.846,1.785,2.63,3.787,2.633,7.562
		c-0.003,3.771-0.787,5.622-2.633,7.409c-2.296,2.226-5.293,2.027-5.312,2.024H7.549c-0.994,0-0.994,0.992-0.994,0.992v1.987
		c0,0,0,0.994,0.994,0.994H19.467z"/>
</g>
</svg>
