<?xml version="1.0" encoding="iso-8859-1"?>
<!-- Generator: Adobe Illustrator 14.0.0, SVG Export Plug-In . SVG Version: 6.00 Build 43363)  -->
<!DOCTYPE svg PUBLIC "-//W3C//DTD SVG 1.1//EN" "http://www.w3.org/Graphics/SVG/1.1/DTD/svg11.dtd">
<svg version="1.1" id="icon-l-search-layer" xmlns="http://www.w3.org/2000/svg" xmlns:xlink="http://www.w3.org/1999/xlink"
	 x="0px" y="0px" width="43px" height="43px" viewBox="0 0 43 43" style="enable-background:new 0 0 43 43;" xml:space="preserve">
<g id="icon-l-search_1_">
	<linearGradient id="SVGID_1_" gradientUnits="userSpaceOnUse" x1="21.4272" y1="3.5356" x2="21.4272" y2="174.2827">
		<stop  offset="0" style="stop-color:#FFFFFF"/>
		<stop  offset="1" style="stop-color:#B3B2C9"/>
	</linearGradient>
	<path style="fill:url(#SVGID_1_);" d="M25.403,4.352c-5.803-5.803-15.247-5.803-21.05,0c-5.804,5.804-5.804,15.249,0,21.05
		c5.327,5.329,13.72,5.763,19.551,1.31l3.125,3.128l0.643,3.589c0.065,0.365,0.332,0.877,0.594,1.139l7.903,7.9
		c0.521,0.522,1.377,0.522,1.899,0l4.395-4.396c0.523-0.521,0.523-1.376,0-1.898l-7.896-7.909c-0.263-0.261-0.773-0.527-1.138-0.594
		l-3.594-0.641l-3.124-3.124C31.165,18.073,30.73,9.682,25.403,4.352z M22.133,22.133c-4,3.999-10.508,3.999-14.508,0
		c-4.001-4-4.001-10.509-0.001-14.509c4.001-3.998,10.51-3.998,14.51,0C26.133,11.624,26.133,18.133,22.133,22.133z"/>
</g>
</svg>
