<?xml version="1.0" encoding="iso-8859-1"?>
<!-- Generator: Adobe Illustrator 14.0.0, SVG Export Plug-In . SVG Version: 6.00 Build 43363)  -->
<!DOCTYPE svg PUBLIC "-//W3C//DTD SVG 1.1//EN" "http://www.w3.org/Graphics/SVG/1.1/DTD/svg11.dtd">
<svg version="1.1" id="icon-m-email-directory-incoming-layer"
	 xmlns="http://www.w3.org/2000/svg" xmlns:xlink="http://www.w3.org/1999/xlink" x="0px" y="0px" width="64px" height="64px"
	 viewBox="0 0 64 64" style="enable-background:new 0 0 64 64;" xml:space="preserve">
<g id="icon-m-email-directory-incoming_1_">
	<rect style="fill:none;" width="64" height="64"/>
	<path style="fill:#333333;" d="M35.965,5.098c0-1.1-0.899-2-2-2H2.017c-1.101,0-2,0.9-2,2l-0.001,7.336h35.949V5.098z"/>
	<path style="fill:#333333;" d="M62,16.582H0.02l-0.003,42.32c0,1.101,0.899,2,2,2H62c1.1,0,2-0.899,2-2v-40.32
		C64,17.48,63.1,16.582,62,16.582z M44.074,40.217L31.954,52.363L19.862,40.217c-0.697-0.723-0.445-1.314,0.559-1.314h6.97V26.948
		c0-1.004,0.821-1.825,1.825-1.825h5.476c1.004,0,1.824,0.821,1.824,1.825v11.954h6.998C44.518,38.902,44.77,39.494,44.074,40.217z"
		/>
</g>
</svg>
