<?xml version="1.0" encoding="iso-8859-1"?>
<!-- Generator: Adobe Illustrator 14.0.0, SVG Export Plug-In . SVG Version: 6.00 Build 43363)  -->
<!DOCTYPE svg PUBLIC "-//W3C//DTD SVG 1.1//EN" "http://www.w3.org/Graphics/SVG/1.1/DTD/svg11.dtd">
<svg version="1.1" id="icon-m-transfer-error-layer"
	 xmlns="http://www.w3.org/2000/svg" xmlns:xlink="http://www.w3.org/1999/xlink" x="0px" y="0px" width="64px" height="64px"
	 viewBox="0 0 64 64" style="enable-background:new 0 0 64 64;" xml:space="preserve">
<g id="icon-m-transfer-error">
	<rect style="fill:none;" width="64" height="64"/>
	<path style="fill:#333333;" d="M32.002,39.098c-2.873,0-5.211,2.336-5.211,5.209s2.338,5.213,5.211,5.213
		c2.871,0,5.207-2.34,5.207-5.213S34.873,39.098,32.002,39.098z"/>
	<path style="fill:#333333;" d="M31.202,35.234h1.856c1.533,0,2.781-1.25,2.78-2.754l0.97-15.217c0-1.535-1.248-2.783-2.781-2.783
		h-3.794c-1.534,0-2.781,1.248-2.781,2.812l0.968,15.156C28.421,33.984,29.668,35.234,31.202,35.234z"/>
	<path style="fill:#333333;" d="M32,1C14.907,1,1,14.906,1,32s13.907,31,31,31c17.093,0,31-13.906,31-31S49.094,1,32,1z M32,57.686
		C17.837,57.686,6.314,46.162,6.314,32C6.314,17.836,17.837,6.312,32,6.312c14.164,0,25.685,11.523,25.685,25.688
		C57.686,46.162,46.164,57.686,32,57.686z"/>
</g>
</svg>
