<?xml version="1.0" encoding="iso-8859-1"?>
<!-- Generator: Adobe Illustrator 14.0.0, SVG Export Plug-In . SVG Version: 6.00 Build 43363)  -->
<!DOCTYPE svg PUBLIC "-//W3C//DTD SVG 1.1//EN" "http://www.w3.org/Graphics/SVG/1.1/DTD/svg11.dtd">
<svg version="1.1" id="icon-m-content-attachment-layer"
	 xmlns="http://www.w3.org/2000/svg" xmlns:xlink="http://www.w3.org/1999/xlink" x="0px" y="0px" width="64px" height="64px"
	 viewBox="0 0 64 64" style="enable-background:new 0 0 64 64;" xml:space="preserve">
<g id="icon-m-content-attachment_1_">
	<rect style="fill:none;" width="64" height="64"/>
	<path style="fill:#333333;" d="M46.434,14.232c0-1.059-0.871-1.922-1.941-1.922c-1.072,0-1.939,0.863-1.939,1.922
		c0,0.135,0,36.133,0,36.133c-0.385,5.457-4.951,9.766-10.553,9.773c-5.599-0.008-10.138-4.312-10.524-9.766V9.922
		c0.561-3.434,3.576-6.057,7.197-6.063c3.631,0.007,6.706,2.644,7.254,6.093l-0.01,28.526h-0.004
		c0.002,0.028,0.008,0.052,0.008,0.081c-0.002,1.9-1.555,3.441-3.476,3.443c-1.917-0.002-3.469-1.541-3.475-3.439v-0.008
		c0-0.027,0.006-0.051,0.008-0.077h-0.008L28.96,14.115c-0.064-1.004-0.9-1.805-1.931-1.805c-1.029,0-1.862,0.801-1.927,1.805
		L25.09,38.553v0.006v0.006v0.074h0.004c0.045,3.992,3.317,7.209,7.352,7.211c4.063,0,7.356-3.266,7.356-7.291
		c0-0.026-0.004-0.053-0.004-0.081h-0.002L39.772,9.951C39.203,4.369,34.453,0.01,28.673,0.01c-5.78,0-10.556,4.359-11.123,9.941
		l-0.002,40.414C17.93,57.953,24.252,63.986,32,63.988c7.748-0.002,14.07-6.037,14.451-13.623
		C46.451,50.365,46.434,14.367,46.434,14.232z"/>
</g>
</svg>
