<?xml version="1.0" encoding="iso-8859-1"?>
<!-- Generator: Adobe Illustrator 14.0.0, SVG Export Plug-In . SVG Version: 6.00 Build 43363)  -->
<!DOCTYPE svg PUBLIC "-//W3C//DTD SVG 1.1//EN" "http://www.w3.org/Graphics/SVG/1.1/DTD/svg11.dtd">
<svg version="1.1" id="icon-l-notes-layer" xmlns="http://www.w3.org/2000/svg" xmlns:xlink="http://www.w3.org/1999/xlink" x="0px"
	 y="0px" width="42px" height="43px" viewBox="0 0 42 43" style="enable-background:new 0 0 42 43;" xml:space="preserve">
<g id="icon-l-notes_1_">
	<path style="fill:#64C0CF;" d="M11.938,29.78l0.089,0.038h-0.104L11.938,29.78z M34.151,37.868l0.279-0.114l-7.327-3.056
		c-0.785-0.326-1.693,0.049-2.021,0.832l-3.055,7.326L34.151,37.868z M41.66,20.411l-5.743,13.778l-7.327-3.055
		c-2.752-1.148-5.925,0.157-7.072,2.909l-3.055,7.327L5.936,36.147c-0.785-0.327-1.159-1.236-0.832-2.021L15.389,9.457
		c0.327-0.783,1.236-1.158,2.021-0.831l23.42,9.765C41.614,18.719,41.988,19.626,41.66,20.411z M25.08,26.054l-9.982-4.163
		l-1.487,3.565l9.983,4.161L25.08,26.054z M36.193,21.479l-17.825-7.431l-1.487,3.566l17.826,7.43L36.193,21.479z M28.463,1.429
		C28.463,0.646,27.82,0,27.035,0H1.428C0.642,0,0,0.646,0,1.429v28.39h1.879L11.11,7.674c0.964-2.31,3.203-3.801,5.708-3.801
		c0.82,0,1.619,0.16,2.377,0.476l9.268,3.863V1.429z"/>
</g>
</svg>
