<?xml version="1.0" encoding="iso-8859-1"?>
<!-- Generator: Adobe Illustrator 14.0.0, SVG Export Plug-In . SVG Version: 6.00 Build 43363)  -->
<!DOCTYPE svg PUBLIC "-//W3C//DTD SVG 1.1//EN" "http://www.w3.org/Graphics/SVG/1.1/DTD/svg11.dtd">
<svg version="1.1" id="icon-m-music-video-audio-settings-layer"
	 xmlns="http://www.w3.org/2000/svg" xmlns:xlink="http://www.w3.org/1999/xlink" x="0px" y="0px" width="64px" height="64px"
	 viewBox="0 0 64 64" style="enable-background:new 0 0 64 64;" xml:space="preserve">
<g id="icon-m-music-video-audio-settings">
	<rect style="fill:none;" width="64" height="64"/>
	<path style="fill:#333333;" d="M47.826,53.146c-7.58,4.194-11.814-5.23-11.814-7.793c0-2.115,0.154-3.192,0.931-2.416l5.743,5.756
		c3.127-0.848,5.076-3.221,5.977-5.973L42.945,37c-1.438-1.441,3.448-1.381,6.666,0.483c7.143,4.133,4.16,9.54,3.549,10.364
		l7.934,7.939C62.926,52.969,64,49.612,64,46c0-9.941-8.059-18-18-18s-18,8.059-18,18s8.059,18,18,18
		c3.606,0,6.957-1.072,9.774-2.898L47.826,53.146z"/>
	<path style="fill:#333333;" d="M37.681,17.127v7.714c1.378-0.551,2.823-0.968,4.319-1.237V0.626c0-0.549-0.395-0.785-0.872-0.511
		L14.754,14.687c-0.473,0.259-0.858,0.924-0.858,1.483v26.508c-2.422-0.87-5.543-0.585-8.408,1.016
		c-4.665,2.58-6.728,7.444-4.723,11.076c2.015,3.639,7.249,4.476,11.905,1.896c3.08-1.709,5.117-4.423,5.484-7.122
		c0.022-0.296,0.052-0.448,0.052-0.669V27.889c0-0.422,0.393-1.207,0.868-1.476l17.737-9.8
		C37.287,16.352,37.681,16.584,37.681,17.127z"/>
</g>
</svg>
