<?xml version="1.0" encoding="iso-8859-1"?>
<!-- Generator: Adobe Illustrator 14.0.0, SVG Export Plug-In . SVG Version: 6.00 Build 43363)  -->
<!DOCTYPE svg PUBLIC "-//W3C//DTD SVG 1.1//EN" "http://www.w3.org/Graphics/SVG/1.1/DTD/svg11.dtd">
<svg version="1.1" id="icon-l-games-layer" xmlns="http://www.w3.org/2000/svg" xmlns:xlink="http://www.w3.org/1999/xlink" x="0px"
	 y="0px" width="80px" height="80px" viewBox="0 0 80 80" style="enable-background:new 0 0 80 80;" xml:space="preserve">
<g id="icon-l-games_1_">
	<rect style="fill:none;" width="80" height="80"/>
	<path id="_x31__pixel_shadow_23_" style="opacity:0.4;" d="M58.207,77.144c-0.09,0.025-0.182,0.046-0.271,0.068
		c-0.498,0.134-1,0.262-1.52,0.38c-0.521,0.117-1.061,0.227-1.605,0.332c-0.111,0.02-0.219,0.046-0.33,0.067
		c-4.176,0.772-8.979,1.132-14.479,1.132c-5.503,0-10.305-0.359-14.479-1.132c-0.114-0.021-0.219-0.048-0.33-0.067
		c-0.545-0.105-1.085-0.215-1.606-0.332c-0.52-0.118-1.021-0.246-1.519-0.38c-0.09-0.022-0.184-0.043-0.271-0.068
		C6.457,72.99,0.592,61.874,0.505,40.097c0,0.163-0.005,0.314-0.005,0.477C0.5,69.837,10.735,80,40.002,80
		C69.266,80,79.5,69.837,79.5,40.573c0-0.162-0.002-0.313-0.004-0.477C79.41,61.874,73.545,72.99,58.207,77.144"/>
	<path id="flat_colour_squircle_24_" style="fill:#C20068;" d="M79.5,39.57c0,29.267-10.234,39.501-39.499,39.501
		C10.733,79.071,0.5,68.837,0.5,39.57c0-29.264,10.233-39.499,39.501-39.499C69.266,0.071,79.5,10.307,79.5,39.57"/>
	<linearGradient id="shine_top_layer_1_" gradientUnits="userSpaceOnUse" x1="39.9995" y1="0" x2="39.9995" y2="79.0005">
		<stop  offset="0" style="stop-color:#FFFFFF"/>
		<stop  offset="0.7362" style="stop-color:#FFFFFF;stop-opacity:0"/>
	</linearGradient>
	<path id="shine_top_layer_21_" style="opacity:0.21;fill:url(#shine_top_layer_1_);" d="M79.5,39.5C79.5,68.765,69.266,79,40,79
		C10.736,79,0.5,68.765,0.5,39.5C0.5,10.234,10.736,0,40,0C69.266,0,79.5,10.234,79.5,39.5z"/>
	<linearGradient id="top_edge_highlight_1_" gradientUnits="userSpaceOnUse" x1="47.7109" y1="-0.1699" x2="32.2889" y2="79.1698">
		<stop  offset="0" style="stop-color:#FFFFFF"/>
		<stop  offset="0.1117" style="stop-color:#EBEBEB"/>
		<stop  offset="0.3969" style="stop-color:#BDBDBD"/>
		<stop  offset="0.6503" style="stop-color:#9B9B9B"/>
		<stop  offset="0.86" style="stop-color:#878787"/>
		<stop  offset="1" style="stop-color:#808080"/>
	</linearGradient>
	<path id="top_edge_highlight_23_" style="opacity:0.25;fill:url(#top_edge_highlight_1_);" d="M40.001,79
		C10.837,79,0.5,68.663,0.5,39.499C0.5,10.336,10.837,0,40.001,0C69.164,0,79.5,10.336,79.5,39.499C79.5,68.663,69.164,79,40.001,79
		L40.001,79z M40.001,0.986c-28.795,0-38.514,9.718-38.514,38.513s9.719,38.513,38.514,38.513c28.794,0,38.511-9.718,38.511-38.513
		S68.795,0.986,40.001,0.986L40.001,0.986z"/>
	<path style="opacity:0.3;" d="M59.572,28.667v0.007c-1.32-2.867-4.045-4.939-7.295-5.313v-0.042h-0.541l-0.549-0.025l-0.482,0.025
		h-0.938c-1.619,0.243-2.434,0.4-4.885,1.565c-2.076,0.983-3.797,1.123-4.593,1.123c-0.227,0-0.399-0.015-0.455-0.018
		c-0.067,0.003-0.234,0.018-0.469,0.018c-0.812,0-2.505-0.14-4.581-1.123c-2.454-1.165-3.289-1.322-4.885-1.565h-0.605l-0.483-0.025
		h-0.025c-3.702,0-6.894,2.208-8.337,5.381l-0.02-0.007c-4.59,9.27-2.414,21.592-2.414,21.592l0.082-0.041
		c0.273,2.432,2.332,4.32,4.827,4.331c0.015,0,0.015,0,0.015,0c1.555,0,2.938-0.727,3.838-1.854l0.018,0.061
		c0,0,2.641-3.491,5.496-8.312l0.017,0.012c0,0,0.871-1.385,2.437-1.982H23.081v-13.5h34.775v13.5H45.273
		c1.564,0.598,2.418,1.982,2.418,1.982l0.041-0.014c2.832,4.823,5.473,8.314,5.473,8.314l0.018-0.061
		c0.9,1.128,2.283,1.854,3.838,1.854c0,0,0,0,0.016,0c2.518-0.011,4.57-1.899,4.84-4.331l0.068,0.041
		C61.984,50.259,64.16,37.937,59.572,28.667z"/>
	<rect x="23.081" y="28.972" style="opacity:0.1;" width="34.25" height="13.25"/>
	<path style="fill:#FFFFFF;" d="M59.572,29.967v0.008c-1.32-2.868-4.045-4.939-7.295-5.314v-0.042h-0.541l-0.549-0.024l-0.482,0.024
		h-0.938c-1.619,0.243-2.434,0.401-4.885,1.565c-2.076,0.983-3.797,1.123-4.593,1.123c-0.227,0-0.399-0.014-0.455-0.019
		c-0.067,0.005-0.234,0.019-0.469,0.019c-0.812,0-2.505-0.14-4.581-1.123c-2.454-1.164-3.289-1.322-4.885-1.565h-0.605l-0.483-0.024
		h-0.025c-3.702,0-6.894,2.207-8.337,5.381l-0.02-0.008c-4.59,9.27-2.414,21.593-2.414,21.593l0.082-0.041
		c0.273,2.431,2.332,4.32,4.827,4.331c0.015,0,0.015,0,0.015,0c1.555,0,2.938-0.728,3.838-1.855l0.018,0.062
		c0,0,2.641-3.492,5.496-8.313l0.017,0.013c0,0,1.39-2.263,3.856-2.263h7.689c2.475,0,3.838,2.263,3.838,2.263l0.041-0.014
		c2.832,4.822,5.473,8.314,5.473,8.314l0.018-0.062c0.9,1.128,2.283,1.855,3.838,1.855c0,0,0,0,0.016,0
		c2.518-0.011,4.57-1.9,4.84-4.331l0.068,0.041C61.984,51.56,64.16,39.236,59.572,29.967z M34.359,36.201
		c0,0.492-0.398,0.891-0.895,0.891h-2.979v2.97c0,0.49-0.394,0.887-0.879,0.887h-1.192c-0.482,0-0.879-0.396-0.879-0.887v-2.97
		h-2.977c-0.488,0-0.879-0.398-0.879-0.891v-1.188c0-0.488,0.391-0.886,0.879-0.886h2.977V31.16c0-0.493,0.396-0.894,0.879-0.894
		h1.192c0.485,0,0.879,0.4,0.879,0.894v2.968h2.979c0.497,0,0.895,0.397,0.895,0.886V36.201z M42.428,38.664h-5.104v-6.049h5.104
		V38.664z M53.971,35.487c0,1.657-1.342,3-3,3c-1.656,0-3-1.343-3-3s1.344-3,3-3C52.629,32.487,53.971,33.83,53.971,35.487z
		 M51.021,41.191c-0.014,0-0.014,0-0.014,0h-0.029c-3.121-0.011-5.656-2.547-5.682-5.68c0-3.143,2.545-5.696,5.682-5.708
		c0,0,0,0,0.029,0h0.014c3.123,0.02,5.656,2.542,5.656,5.671C56.703,38.622,54.17,41.181,51.021,41.191z"/>
</g>
</svg>
