<?xml version="1.0" encoding="iso-8859-1"?>
<!-- Generator: Adobe Illustrator 14.0.0, SVG Export Plug-In . SVG Version: 6.00 Build 43363)  -->
<!DOCTYPE svg PUBLIC "-//W3C//DTD SVG 1.1//EN" "http://www.w3.org/Graphics/SVG/1.1/DTD/svg11.dtd">
<svg version="1.1" id="icon-l-telephony-layer" xmlns="http://www.w3.org/2000/svg" xmlns:xlink="http://www.w3.org/1999/xlink"
	 x="0px" y="0px" width="80px" height="80px" viewBox="0 0 80 80" style="enable-background:new 0 0 80 80;" xml:space="preserve">
<g id="icon-l-telephony_3_">
	<rect style="fill:none;" width="80" height="80"/>
	<path id="_x31__pixel_shadow_8_" style="opacity:0.4;" d="M58.207,77.144c-0.088,0.025-0.182,0.046-0.271,0.07
		c-0.496,0.133-1,0.26-1.52,0.378c-0.521,0.118-1.059,0.228-1.604,0.332c-0.113,0.021-0.219,0.046-0.332,0.067
		c-4.176,0.772-8.979,1.131-14.479,1.131c-5.502,0-10.305-0.358-14.479-1.131c-0.116-0.021-0.219-0.047-0.33-0.067
		c-0.545-0.104-1.086-0.214-1.607-0.332c-0.52-0.118-1.02-0.245-1.518-0.378c-0.09-0.024-0.184-0.045-0.271-0.07
		C6.457,72.989,0.592,61.874,0.506,40.098c0,0.162-0.006,0.313-0.006,0.477C0.5,69.839,10.736,80,40.002,80S79.5,69.839,79.5,40.574
		c0-0.163-0.002-0.314-0.004-0.477C79.412,61.874,73.545,72.989,58.207,77.144"/>
	<path id="flat_colour_squircle_9_" style="fill:#FF6F14;" d="M79.5,39.57c0,29.267-10.232,39.501-39.498,39.501
		C10.734,79.071,0.5,68.837,0.5,39.57c0-29.263,10.234-39.498,39.502-39.498C69.268,0.072,79.5,10.308,79.5,39.57"/>
	<linearGradient id="shine_top_layer_1_" gradientUnits="userSpaceOnUse" x1="39.9995" y1="0" x2="39.9995" y2="79.0005">
		<stop  offset="0" style="stop-color:#FFFFFF"/>
		<stop  offset="0.7362" style="stop-color:#FFFFFF;stop-opacity:0"/>
	</linearGradient>
	<path id="shine_top_layer_20_" style="opacity:0.2;fill:url(#shine_top_layer_1_);" d="M79.5,39.5C79.5,68.765,69.266,79,40,79
		C10.736,79,0.5,68.765,0.5,39.5S10.736,0,40,0C69.266,0,79.5,10.235,79.5,39.5z"/>
	<linearGradient id="top_edge_highlight_1_" gradientUnits="userSpaceOnUse" x1="47.7109" y1="-0.1699" x2="32.2888" y2="79.1703">
		<stop  offset="0" style="stop-color:#FFFFFF"/>
		<stop  offset="0.1117" style="stop-color:#EBEBEB"/>
		<stop  offset="0.3969" style="stop-color:#BDBDBD"/>
		<stop  offset="0.6503" style="stop-color:#9B9B9B"/>
		<stop  offset="0.86" style="stop-color:#878787"/>
		<stop  offset="1" style="stop-color:#808080"/>
	</linearGradient>
	<path id="top_edge_highlight_8_" style="opacity:0.25;fill:url(#top_edge_highlight_1_);" d="M40.002,79
		C10.838,79,0.5,68.663,0.5,39.498C0.5,10.336,10.838,0,40.002,0C69.164,0,79.5,10.336,79.5,39.498C79.5,68.663,69.164,79,40.002,79
		L40.002,79z M40.002,0.986c-28.795,0-38.514,9.719-38.514,38.512c0,28.796,9.719,38.514,38.514,38.514
		c28.793,0,38.512-9.718,38.512-38.514C78.514,10.705,68.795,0.986,40.002,0.986L40.002,0.986z"/>
	<path style="opacity:0.3;fill:#231F20;" d="M60.773,22.609c0.008,0,1.197,1.23-0.021,2.449l-9.873,7.267
		c-0.637,0.491-1.473,0.983-2.471-0.024c0,0-3.633-5.055-5.961-3.598c-1.613,1.008-11.678,11.021-12.705,12.63
		c-1.474,2.318,3.566,5.984,3.566,5.984c1.005,0.996,0.51,1.832,0.011,2.471l-7.329,9.821c-1.099,1.216-2.435,0.007-2.435,0.007
		c-2.692-2.172-6.096-9.14-4.406-13.534c3.855-10.037,19.994-24.161,28.102-27.948C51.533,16.134,58.615,19.908,60.773,22.609z"/>
	<path style="fill:#FFFFFF;" d="M60.773,24.029c0.008,0,1.197,1.23-0.021,2.449l-9.873,7.268c-0.637,0.492-1.473,0.982-2.471-0.023
		c0,0-3.633-5.059-5.961-3.6c-1.613,1.008-11.678,11.02-12.705,12.63c-1.474,2.32,3.566,5.984,3.566,5.984
		c1.005,0.997,0.51,1.834,0.011,2.471L25.99,61.03c-1.099,1.215-2.435,0.006-2.435,0.006c-2.692-2.171-6.096-9.138-4.406-13.535
		c3.855-10.034,19.994-24.159,28.102-27.946C51.533,17.555,58.615,21.328,60.773,24.029z"/>
</g>
</svg>
