<?xml version="1.0" encoding="iso-8859-1"?>
<!-- Generator: Adobe Illustrator 14.0.0, SVG Export Plug-In . SVG Version: 6.00 Build 43363)  -->
<!DOCTYPE svg PUBLIC "-//W3C//DTD SVG 1.1//EN" "http://www.w3.org/Graphics/SVG/1.1/DTD/svg11.dtd">
<svg version="1.1" id="icon-m-music-video-repeat-on-layer"
	 xmlns="http://www.w3.org/2000/svg" xmlns:xlink="http://www.w3.org/1999/xlink" x="0px" y="0px" width="64px" height="64px"
	 viewBox="0 0 64 64" style="enable-background:new 0 0 64 64;" xml:space="preserve">
<g id="icon-m-music-video-repeat-on">
	<rect style="fill:none;" width="64" height="64"/>
	<path style="fill:#333333;" d="M52,15H38l5,5l-5,5h7c2,0,2,2,2,2v15c0,0,0,2-2,2H19c-2,0-2-2-2-2V27c0,0-0.15-2,1.85-2H24v5l11-10
		L24,10v5H12c-5,0-5,5-5,5v29c0,0,0,5,5,5h40c5,0,5-5,5-5V20C57,20,57,15,52,15z"/>
</g>
</svg>
