<?xml version="1.0" encoding="iso-8859-1"?>
<!-- Generator: Adobe Illustrator 14.0.0, SVG Export Plug-In . SVG Version: 6.00 Build 43363)  -->
<!DOCTYPE svg PUBLIC "-//W3C//DTD SVG 1.1//EN" "http://www.w3.org/Graphics/SVG/1.1/DTD/svg11.dtd">
<svg version="1.1" id="icon-l-browser-layer" xmlns="http://www.w3.org/2000/svg" xmlns:xlink="http://www.w3.org/1999/xlink"
	 x="0px" y="0px" width="80px" height="81px" viewBox="0 0 80 81" style="enable-background:new 0 0 80 81;" xml:space="preserve">
<g id="icon-l-browser_1_">
	<path style="fill:#E7D51E;" d="M27.678,48.583c-1.172-1.45-2.942-2.826-2.434-5.01c0.115-0.503,0.536-0.848,0.733-1.31
		c0.723-1.704,1.217-2.567,3.462-2.05c1.315,0.303,1.254,0.604,2.306,1.227c1.228,0.722,1.338,0.888,2.222,1.818
		c0.575,0.604,1.813,0.955,2.416,1.688c0.733,0.89,0.391,1.786,0.15,2.755c-0.065,0.265-0.621,0.677-0.734,1.053
		c-0.166,0.554,0.214,1.31,0.019,1.851c-0.337,0.954-1.502,1.484-2.015,2.233c-1.186,1.736-2.74,3.395-2.965,5.57
		c-0.074,0.728,0.491,2.038-0.614,2.034c-0.624-0.002-1.182-1.132-1.413-1.581c-0.867-1.68-1.134-3.514-0.778-5.323
		C28.406,51.626,28.995,50.211,27.678,48.583z M70,39.999C70,56.567,56.568,70,40,70c-16.569,0-30-13.433-30-30.001S23.431,10,40,10
		C56.568,10,70,23.431,70,39.999z M15.629,39.924c0,0.025-0.004,0.05-0.004,0.075c0,13.439,10.934,24.374,24.375,24.374
		c13.44,0,24.375-10.935,24.375-24.374c0-1.69-0.175-3.341-0.504-4.937c-1.059-1.147-1.709-2.93-2.993-4.01
		c-1.206-1.01-3.447-0.999-5.341-1.662c-1.358-0.475-2.236-2.202-3.169,0.142c-0.375,0.938,0.7,2.362,1.269,3.025
		c1.246,1.461,2.965,1.711,3.807,3.71c0.583,1.385,0.223,2.092-0.341,3.366c-0.696,1.568-0.829,3.261-1.574,4.806
		c-0.784,1.625-1.954,3.032-3.032,4.465c-1.26,1.682-2.027,3.558-3.181,5.245c-0.898,1.316-2.505,2.186-3.111-0.106
		c-0.511-1.935-0.035-3.953-0.195-5.803c-0.069-0.783-0.577-1.363-0.56-2.251c0.012-0.606,0.234-1.034,0.299-1.481
		c0.257-1.733-0.131-2.908-2.178-2.601c-0.758,0.112-1.577,0.343-2.334,0.022c-0.612-0.258-1.213-0.811-1.636-1.347
		c-1.465-1.858-1.567-4.672-0.837-6.771c0.604-1.729,2.049-2.917,3.639-3.739c0.74-0.383,1.885-0.985,2.749-0.948
		c0.915,0.044,1.435,0.717,2.468,0.504c1.248-0.258,2.309-1.176,2.811-2.339c1.156-2.667-2.479-4.189-4.31-4.681
		c0.139-1.413,1.015-1.081,1.697-1.963c0.021-0.031,1.146-1.867,1.214-1.9c0.705-0.342,1.742-0.155,2.652-0.131
		c-3.472-1.904-7.453-2.99-11.684-2.99c-7.171,0-13.608,3.132-18.073,8.078c1.478-0.337,2.018,0.928,3.206,1.278
		c3.247,0.961,4.283-1.884,6.95-2.391c2.631-0.498,6.008,1.519,7.917,2.953c-2.434,1.861-5.635,0.509-8.24,1.67
		c-2.906,1.298-3.712,5.216-6.616,6.564c-1.328,0.617-3.655,0.354-4.178,1.812c-0.586,1.644,1.647,3.107,1.548,4.325
		C22.31,42.397,17.741,41.394,15.629,39.924z"/>
	<rect style="fill:none;" width="80" height="80.001"/>
</g>
</svg>
