<?xml version="1.0" encoding="iso-8859-1"?>
<!-- Generator: Adobe Illustrator 14.0.0, SVG Export Plug-In . SVG Version: 6.00 Build 43363)  -->
<!DOCTYPE svg PUBLIC "-//W3C//DTD SVG 1.1//EN" "http://www.w3.org/Graphics/SVG/1.1/DTD/svg11.dtd">
<svg version="1.1" id="icon-m-toolbar-refresh1-layer"
	 xmlns="http://www.w3.org/2000/svg" xmlns:xlink="http://www.w3.org/1999/xlink" x="0px" y="0px" width="32px" height="32px"
	 viewBox="0 0 32 32" style="enable-background:new 0 0 32 32;" xml:space="preserve">
<g id="icon-m-toolbar-refresh1_1_">
	<rect style="fill:none;" width="32" height="32"/>
	<path style="fill:#FFFFFF;" d="M5.817,5.818c-5.624,5.624-5.623,14.741,0,20.364s14.741,5.624,20.365,0
		c5.624-5.623,5.622-14.741-0.001-20.364C20.559,0.194,11.441,0.194,5.817,5.818z M14.976,25.068c-0.08,0.08-0.19,0.131-0.312,0.135
		l-7.356,0.28c-0.127,0.005-0.251-0.044-0.342-0.132c-0.093-0.088-0.142-0.212-0.141-0.34c0.003-0.12,0.053-0.291,0.138-0.376
		l2.074-2.074c-3.441-3.657-3.375-9.435,0.197-13.013c1.296-1.297,2.929-2.176,4.728-2.54c0.135-0.028,0.277,0.006,0.386,0.096
		c0.107,0.086,0.17,0.218,0.17,0.357l0.002,2.975c0,0.203-0.133,0.383-0.327,0.442c-0.863,0.27-1.625,0.727-2.263,1.365
		c-2.083,2.088-2.149,5.449-0.197,7.621l2.811-2.811c0.087-0.088,0.205-0.137,0.329-0.135c0.126-0.001,0.274,0.05,0.361,0.141
		c0.088,0.092,0.163,0.214,0.157,0.34l-0.28,7.356C15.106,24.878,15.056,24.988,14.976,25.068z M25.293,7.62l-2.407,2.407
		c3.182,3.656,3.024,9.276-0.434,12.736v0.002c-1.11,1.107-2.49,1.925-3.987,2.361c-0.141,0.039-0.293,0.012-0.41-0.076
		c-0.115-0.086-0.185-0.224-0.185-0.369l0.001-3.074c-0.001-0.182,0.105-0.347,0.27-0.422c0.613-0.281,1.158-0.656,1.619-1.115
		c2.006-2.012,2.157-5.15,0.424-7.34l-2.473,2.472c-0.085,0.085-0.201,0.132-0.32,0.136c-0.127,0.002-0.277-0.048-0.367-0.139
		c-0.088-0.091-0.162-0.215-0.158-0.343l0.281-7.354c0.009-0.241,0.203-0.436,0.445-0.446l7.355-0.282
		c0.129-0.004,0.254,0.045,0.345,0.134c0.092,0.091,0.141,0.213,0.138,0.341C25.426,7.368,25.378,7.535,25.293,7.62z"/>
</g>
</svg>
