<?xml version="1.0" encoding="iso-8859-1"?>
<!-- Generator: Adobe Illustrator 14.0.0, SVG Export Plug-In . SVG Version: 6.00 Build 43363)  -->
<!DOCTYPE svg PUBLIC "-//W3C//DTD SVG 1.1//EN" "http://www.w3.org/Graphics/SVG/1.1/DTD/svg11.dtd">
<svg version="1.1" id="icon-l-clock-layer" xmlns="http://www.w3.org/2000/svg" xmlns:xlink="http://www.w3.org/1999/xlink" x="0px"
	 y="0px" width="80px" height="81px" viewBox="0 0 80 81" style="enable-background:new 0 0 80 81;" xml:space="preserve">
<g id="icon-l-clock_1_">
	<linearGradient id="SVGID_1_" gradientUnits="userSpaceOnUse" x1="39.9995" y1="14.9502" x2="39.9995" y2="253.9762">
		<stop  offset="0" style="stop-color:#FFFFFF"/>
		<stop  offset="1" style="stop-color:#B3B2C9"/>
	</linearGradient>
	<path style="fill:url(#SVGID_1_);" d="M43.785,40.862c-0.397,1.867-2.012,3.194-3.93,3.194c-2.221,0-4.029-1.809-4.029-4.027
		c0-0.337,0.045-0.674,0.132-1.002L27.11,27.886l3.77-3.021l8.851,11.14c0.698-0.029,1.379,0.136,2.012,0.477l8.324-3.875
		l2.035,4.391L43.785,40.862z M40,15.626c13.44,0,24.375,10.933,24.375,24.374c0,13.438-10.935,24.374-24.375,24.374
		c-13.441,0-24.375-10.936-24.375-24.374C15.625,26.559,26.559,15.626,40,15.626 M40,10c-16.569,0-30,13.432-30,30
		c0,16.566,13.431,29.999,30,29.999c16.568,0,30-13.433,30-29.999C70,23.432,56.568,10,40,10L40,10z"/>
	<rect style="fill:none;" width="80" height="80"/>
</g>
</svg>
