<?xml version="1.0" encoding="iso-8859-1"?>
<!-- Generator: Adobe Illustrator 14.0.0, SVG Export Plug-In . SVG Version: 6.00 Build 43363)  -->
<!DOCTYPE svg PUBLIC "-//W3C//DTD SVG 1.1//EN" "http://www.w3.org/Graphics/SVG/1.1/DTD/svg11.dtd">
<svg version="1.1" id="icon-m-energy-management-battery4-layer"
	 xmlns="http://www.w3.org/2000/svg" xmlns:xlink="http://www.w3.org/1999/xlink" x="0px" y="0px" width="64px" height="64px"
	 viewBox="0 0 64 64" style="enable-background:new 0 0 64 64;" xml:space="preserve">
<g id="icon-m-energy-management-battery4">
	<rect style="fill:none;" width="64" height="64"/>
	<path style="fill:#333333;" d="M25.454,3.378v2.817H15.38c-1.033,0-1.879,0.846-1.879,1.879v52.547
		c0,1.033,0.846,1.879,1.879,1.879h33.241c1.033,0,1.881-0.846,1.881-1.879V8.074c0-1.033-0.848-1.879-1.881-1.879H38.549V3.378
		c0-1.034-0.848-1.88-1.879-1.88h-9.336C26.301,1.498,25.454,2.344,25.454,3.378z M44.221,11.892c1.033,0,1.877,0.845,1.877,1.878
		v43.168c0,1.033-0.844,1.881-1.877,1.881H19.787c-1.032,0-1.877-0.848-1.877-1.881V13.77c0-1.033,0.845-1.878,1.877-1.878H44.221z"
		/>
	<rect x="21.245" y="35.295" style="fill:#333333;" width="21.514" height="20.156"/>
</g>
</svg>
