<?xml version="1.0" encoding="iso-8859-1"?>
<!-- Generator: Adobe Illustrator 14.0.0, SVG Export Plug-In . SVG Version: 6.00 Build 43363)  -->
<!DOCTYPE svg PUBLIC "-//W3C//DTD SVG 1.1//EN" "http://www.w3.org/Graphics/SVG/1.1/DTD/svg11.dtd">
<svg version="1.1" id="icon-m-content-mms-layer" xmlns="http://www.w3.org/2000/svg" xmlns:xlink="http://www.w3.org/1999/xlink"
	 x="0px" y="0px" width="64px" height="64px" viewBox="0 0 64 64" style="enable-background:new 0 0 64 64;" xml:space="preserve">
<g id="icon-m-content-mms">
	<rect style="fill:none;" width="64" height="64"/>
	<path style="fill:#333333;" d="M53,6.532C53,5.69,52.311,5,51.469,5H5.532C4.689,5,4,5.69,4,6.532l0,6.634l24.503,10.732L53,13.166
		V6.532z"/>
	<polygon style="fill:#333333;" points="53,26 53,18.848 36.637,26 	"/>
	<path style="fill:#333333;" d="M22.275,26.836L4,18.848L4,38.14c0,0.841,0.689,1.53,1.532,1.53h16.743V26.836z"/>
	<path style="fill:#333333;" d="M47.584,42.363c0.439,0,0.836-0.172,1.143-0.438c0.408,0.58,0.987,0.944,1.633,0.944
		c0.643,0,1.222-0.364,1.632-0.944c0.306,0.266,0.704,0.438,1.14,0.438c0.963,0,1.738-0.781,1.738-1.745
		c0-0.966-0.775-1.748-1.738-1.748c-0.22,0-0.43,0.045-0.625,0.124c-0.279-1.236-1.135-2.139-2.146-2.139
		c-1.014,0-1.868,0.902-2.148,2.139c-0.194-0.079-0.404-0.124-0.627-0.124c-0.959,0-1.736,0.782-1.736,1.748
		C45.848,41.582,46.625,42.363,47.584,42.363z"/>
	<path style="fill:#333333;" d="M46.336,49.087c-2.588-5.984-7.814-12.986-12.662,5.188H54.6
		C54.6,54.274,50.646,39.547,46.336,49.087z"/>
	<path style="fill:#333333;" d="M28.275,32v27H60V32H28.275z M30.975,56.3V34.633l26.324-0.021V56.3H30.975z"/>
</g>
</svg>
