<?xml version="1.0" encoding="iso-8859-1"?>
<!-- Generator: Adobe Illustrator 14.0.0, SVG Export Plug-In . SVG Version: 6.00 Build 43363)  -->
<!DOCTYPE svg PUBLIC "-//W3C//DTD SVG 1.1//EN" "http://www.w3.org/Graphics/SVG/1.1/DTD/svg11.dtd">
<svg version="1.1" id="icon-l-browser-layer" xmlns="http://www.w3.org/2000/svg" xmlns:xlink="http://www.w3.org/1999/xlink"
	 x="0px" y="0px" width="80px" height="80px" viewBox="0 0 80 80" style="enable-background:new 0 0 80 80;" xml:space="preserve">
<g id="icon-l-browser_1_">
	<rect style="fill:none;" width="80" height="80"/>
	<path id="_x31__pixel_shadow_11_" style="opacity:0.4;" d="M58.207,77.144c-0.09,0.025-0.182,0.046-0.271,0.069
		c-0.498,0.133-1,0.261-1.52,0.379c-0.521,0.118-1.061,0.227-1.605,0.332c-0.111,0.02-0.219,0.046-0.33,0.066
		c-4.176,0.773-8.979,1.133-14.479,1.133c-5.503,0-10.305-0.359-14.479-1.133c-0.114-0.021-0.219-0.047-0.33-0.066
		c-0.545-0.105-1.085-0.214-1.606-0.332c-0.52-0.118-1.021-0.246-1.519-0.379c-0.09-0.023-0.184-0.044-0.271-0.069
		C6.457,72.989,0.591,61.874,0.506,40.098c0,0.162-0.006,0.314-0.006,0.477C0.5,69.838,10.735,80,40.002,80
		C69.266,80,79.5,69.838,79.5,40.574c0-0.162-0.002-0.314-0.004-0.477C79.41,61.874,73.545,72.989,58.207,77.144"/>
	<path id="flat_colour_squircle_12_" style="fill:#FF6F14;" d="M79.5,39.57c0,29.267-10.234,39.501-39.499,39.501
		C10.733,79.071,0.5,68.837,0.5,39.57c0-29.263,10.233-39.499,39.501-39.499C69.266,0.071,79.5,10.308,79.5,39.57"/>
	<linearGradient id="shine_top_layer_1_" gradientUnits="userSpaceOnUse" x1="39.9995" y1="0" x2="39.9995" y2="79.0005">
		<stop  offset="0" style="stop-color:#FFFFFF"/>
		<stop  offset="0.7362" style="stop-color:#FFFFFF;stop-opacity:0"/>
	</linearGradient>
	<path id="shine_top_layer_10_" style="opacity:0.2;fill:url(#shine_top_layer_1_);" d="M79.5,39.5C79.5,68.765,69.266,79,40,79
		C10.736,79,0.5,68.765,0.5,39.5S10.736,0,40,0C69.266,0,79.5,10.235,79.5,39.5z"/>
	<linearGradient id="top_edge_highlight_1_" gradientUnits="userSpaceOnUse" x1="47.7109" y1="-0.1699" x2="32.2889" y2="79.1698">
		<stop  offset="0" style="stop-color:#FFFFFF"/>
		<stop  offset="0.1117" style="stop-color:#EBEBEB"/>
		<stop  offset="0.3969" style="stop-color:#BDBDBD"/>
		<stop  offset="0.6503" style="stop-color:#9B9B9B"/>
		<stop  offset="0.86" style="stop-color:#878787"/>
		<stop  offset="1" style="stop-color:#808080"/>
	</linearGradient>
	<path id="top_edge_highlight_11_" style="opacity:0.25;fill:url(#top_edge_highlight_1_);" d="M40.001,79
		C10.837,79,0.5,68.664,0.5,39.499C0.5,10.336,10.837,0,40.001,0C69.164,0,79.5,10.336,79.5,39.499C79.5,68.664,69.164,79,40.001,79
		L40.001,79z M40.001,0.986c-28.795,0-38.514,9.718-38.514,38.513s9.719,38.513,38.514,38.513c28.794,0,38.511-9.718,38.511-38.513
		S68.795,0.986,40.001,0.986L40.001,0.986z"/>
	<ellipse style="opacity:0.06;" cx="39.736" cy="38.132" rx="15.721" ry="17.284"/>
	<path style="opacity:0.3;" d="M61.807,33.486c-0.193,1.523-0.416,2.303-0.631,2.357c-0.066-2.533-0.445-4.809-1.145-6.802
		c0-0.007-0.004-0.031-0.021-0.05c-0.545-1.555-1.281-2.944-2.213-4.176c0.434,1.695,0.652,3.018,0.666,3.982
		c-0.252-0.881-0.629-1.719-1.117-2.494c-0.131,0.52-0.33,1.25-0.604,2.049c-2.867-6.636-9.467-11.282-17.156-11.282
		c-6.491,0-12.207,3.313-15.555,8.337c-0.641-0.857-1.107-2.164-1.378-3.938c-1.601,1.572-2.375,4.367-2.319,8.41
		c-0.12,0.158-0.273,0.394-0.446,0.661c-0.044,0.038-0.092,0.062-0.134,0.102c-0.008,0-0.021,0.007-0.021,0.025
		c-0.013,0-0.013,0.005-0.013,0.005c-0.013,0.014-0.024,0.027-0.024,0.043c-0.243,0.387-0.571,0.951-0.997,1.715
		c-0.604,1.075-0.812,1.989-0.874,2.787c0,0.001-0.001,0.001-0.001,0.001c0,0.001,0,0.001,0,0.007
		c-0.003,0.081-0.008,0.152-0.013,0.228c0.008-0.013,0.013-0.018,0.019-0.03c0.007,0.177,0.019,0.346,0.066,0.506l1.298-1.056
		c-0.473,1.177-0.785,2.433-0.937,3.757c-0.484,4.355,0.737,8.656,3.683,12.907c4.42,5.716,9.974,8.778,16.661,9.181
		c6.688,0.401,12.391-2.06,17.096-7.371c3.186-3.902,5.139-7.987,5.871-12.26C62.303,38.152,62.387,35.611,61.807,33.486z
		 M39.736,55.416c-8.684,0-15.722-7.738-15.722-17.284c0-4.871,1.839-9.263,4.787-12.404c-0.265-0.017-0.534-0.022-0.812-0.006
		c2.815-3.251,6.969-5.312,11.597-5.312c7.309,0,13.432,5.14,14.967,11.991c0.576,1.797,0.904,3.719,0.904,5.731
		C55.457,47.678,48.418,55.416,39.736,55.416z"/>
	<path style="fill:#FFFFFF;" d="M61.807,34.799c-0.193,1.523-0.416,2.303-0.631,2.356c-0.066-2.534-0.445-4.81-1.145-6.804
		c0-0.004-0.004-0.029-0.021-0.049c-0.545-1.555-1.281-2.943-2.213-4.174c0.434,1.693,0.652,3.016,0.666,3.981
		c-0.252-0.88-0.629-1.719-1.117-2.495c-0.131,0.521-0.33,1.25-0.604,2.049c-2.867-6.635-9.467-11.281-17.156-11.281
		c-6.491,0-12.207,3.312-15.555,8.336c-0.641-0.857-1.107-2.164-1.378-3.938c-1.601,1.573-2.375,4.367-2.319,8.409
		c-0.12,0.161-0.273,0.396-0.446,0.663c-0.044,0.038-0.092,0.062-0.134,0.102c-0.008,0-0.021,0.006-0.021,0.025
		c-0.013,0-0.013,0.004-0.013,0.004c-0.013,0.014-0.024,0.027-0.024,0.043c-0.243,0.387-0.571,0.951-0.997,1.716
		c-0.604,1.075-0.812,1.989-0.874,2.788h-0.001c0,0,0,0.002,0,0.007c-0.003,0.079-0.008,0.151-0.013,0.227
		c0.008-0.013,0.013-0.017,0.019-0.03c0.007,0.178,0.019,0.346,0.066,0.506l1.298-1.055c-0.473,1.178-0.785,2.432-0.937,3.758
		c-0.484,4.355,0.737,8.654,3.683,12.906c4.42,5.716,9.974,8.777,16.661,9.18c6.688,0.402,12.391-2.06,17.096-7.37
		c3.186-3.904,5.139-7.988,5.871-12.261C62.303,39.464,62.387,36.923,61.807,34.799z M39.586,21.72
		c8.463,0,15.35,6.886,15.35,15.349c0,0.127-0.01,0.252-0.012,0.379c-0.088,1.541-0.369,2.968-0.725,4.084
		c-0.527-1.588-1.01-2.533-1.432-2.867c0.309,2.552,0.227,4.752-0.225,6.615c-0.514,0.81-1.102,1.566-1.754,2.264
		c0.078-0.578,0.096-1.096,0.053-1.552c-2.598,3.874-5.539,5.88-8.84,6.009c-1.301-0.016-2.534-0.213-3.692-0.59
		c-1.702-0.569-3.244-1.543-4.619-2.924c2.14,0.178,4.096-0.193,5.821-1.062l2.817-1.834l-0.01-0.004
		c0.363-0.138,0.707-0.129,1.049,0.028c0.689-0.097,0.922-0.459,0.693-1.07c-0.328-0.463-0.83-0.889-1.48-1.252
		c-1.408-0.729-2.881-0.609-4.416,0.361c-1.469,0.823-2.878,0.788-4.244-0.086c-0.896-0.617-1.767-1.442-2.599-2.475l-0.337-0.488
		v-0.002v-0.011c0.043-1.028,0.467-1.591,1.29-1.712c-0.217-0.018-0.39-0.035-0.555-0.051c0.166,0.016,0.338,0.031,0.555,0.047
		c0.91,0.083,1.97,0.295,3.163,0.643c0.196-1.146-0.064-2.336-0.783-3.553c0-0.018,0-0.023,0-0.023
		c1.112-1.037,2.105-1.787,2.949-2.267c0.382-0.201,0.597-0.505,0.672-0.911c0.012-0.005,0.021-0.02,0.034-0.02l0.009-0.012
		c0.013-0.014,0.028-0.031,0.044-0.042c0.217-0.321,0.144-0.581-0.237-0.815c-0.78,0.043-1.562-0.008-2.341-0.16l-0.018,0.025
		c-0.321-0.092-0.727-0.368-1.233-0.854l-1.283-1.252l-0.389-0.3c0,0.001,0,0.017,0,0.038H32.86l0.002-0.056l-0.066-0.067
		c0.042-0.027,0.066-0.059,0.106-0.076c0.174-0.949,0.465-1.768,0.884-2.463l0.092-0.087c0.42-0.69,1.228-1.431,2.405-2.226
		c-2.196,0.273-4.181,1.256-5.945,2.945c-0.719-0.262-1.503-0.364-2.349-0.312C30.804,23.781,34.958,21.72,39.586,21.72z"/>
</g>
</svg>
