<?xml version="1.0" encoding="iso-8859-1"?>
<!-- Generator: Adobe Illustrator 14.0.0, SVG Export Plug-In . SVG Version: 6.00 Build 43363)  -->
<!DOCTYPE svg PUBLIC "-//W3C//DTD SVG 1.1//EN" "http://www.w3.org/Graphics/SVG/1.1/DTD/svg11.dtd">
<svg version="1.1" id="icon-m-common-packetdata-strength5-layer"
	 xmlns="http://www.w3.org/2000/svg" xmlns:xlink="http://www.w3.org/1999/xlink" x="0px" y="0px" width="48px" height="48px"
	 viewBox="0 0 48 48" style="enable-background:new 0 0 48 48;" xml:space="preserve">
<g id="icon-m-common-packetdata-strength5">
	<rect style="fill:none;" width="48" height="48"/>
	<path style="fill:#333333;" d="M22,31c1.807-1,2.043-2.768,2.043-3.788c0-0.21-0.054-0.59-0.043-1.212H0l10,9c0,0,0-3.184,0-4H22z"
		/>
	<path style="fill:#333333;" d="M8.474,17c-0.497,0.192-2.557,1.582-2.557,4.545C5.917,21.545,6,21.626,6,22h24l-10-9
		c0,0,0,3.19,0,4H8.474z"/>
	<rect x="35" y="38" style="fill:#333333;" width="13" height="4"/>
	<rect x="35" y="30" style="fill:#333333;" width="13" height="4"/>
	<rect x="35" y="22" style="fill:#333333;" width="13" height="4"/>
	<rect x="35" y="14" style="fill:#333333;" width="13" height="4"/>
	<rect x="35" y="6" style="fill:#333333;" width="13" height="4"/>
</g>
</svg>
