<?xml version="1.0" encoding="iso-8859-1"?>
<!-- Generator: Adobe Illustrator 14.0.0, SVG Export Plug-In . SVG Version: 6.00 Build 43363)  -->
<!DOCTYPE svg PUBLIC "-//W3C//DTD SVG 1.1//EN" "http://www.w3.org/Graphics/SVG/1.1/DTD/svg11.dtd">
<svg version="1.1" id="icon-m-content-artist-layer"
	 xmlns="http://www.w3.org/2000/svg" xmlns:xlink="http://www.w3.org/1999/xlink" x="0px" y="0px" width="64px" height="64px"
	 viewBox="0 0 64 64" style="enable-background:new 0 0 64 64;" xml:space="preserve">
<g id="icon-m-content-artist">
	<path style="fill:#333333;" d="M0,0v64h64V0H0z M3.5,59.479c1.05-1.914,2.273-3.501,3.428-4.382
		c3.252-2.482,11.492-3.159,12.934-7.358c1.146-3.337-1.776-6.745-2.964-9.567c-1.396-3.32-2.263-7.022-2.263-10.687
		c0-9.415,6.093-17.047,13.611-17.047c8.411,0,13.834,8.742,13.17,17.003c-0.156,1.945-0.65,3.863-1.521,5.634
		c-5.411,10.991,2.979,17.446,11.801,21.542c2.566,1.191,7.299,2.207,8.805,4.862H3.5z"/>
</g>
</svg>
