<?xml version="1.0" encoding="iso-8859-1"?>
<!-- Generator: Adobe Illustrator 14.0.0, SVG Export Plug-In . SVG Version: 6.00 Build 43363)  -->
<!DOCTYPE svg PUBLIC "-//W3C//DTD SVG 1.1//EN" "http://www.w3.org/Graphics/SVG/1.1/DTD/svg11.dtd">
<svg version="1.1" id="icon-m-common-wlan-connecting-2-layer"
	 xmlns="http://www.w3.org/2000/svg" xmlns:xlink="http://www.w3.org/1999/xlink" x="0px" y="0px" width="32px" height="32px"
	 viewBox="0 0 32 32" style="enable-background:new 0 0 32 32;" xml:space="preserve">
<g id="icon-m-common-wlan-connecting-2">
	<rect style="fill:none;" width="32" height="31.999"/>
	<path style="fill:#FFFFFF;" d="M22.474,26.409H19.61L16.984,15.4c1.152-0.43,1.984-1.553,1.984-2.908
		c0-1.723-1.326-3.115-2.968-3.115s-2.972,1.393-2.972,3.115c0,1.355,0.829,2.475,1.978,2.908l-2.617,11.009H9.526
		c-0.523,0-0.952,0.427-0.952,0.949v1.217c0,0.523,0.429,0.949,0.952,0.949h12.947c0.523,0,0.951-0.426,0.951-0.949v-1.217
		C23.425,26.836,22.997,26.409,22.474,26.409"/>
	<path style="opacity:0;fill:#FFFFFF;" d="M27.012,2.627c-0.338-0.258-0.82-0.184-1.081,0.16c-0.254,0.344-0.18,0.836,0.167,1.094
		c2.193,1.663,3.563,4.943,3.563,8.563c0,3.614-1.37,6.902-3.563,8.562c-0.347,0.258-0.421,0.742-0.167,1.09
		c0.261,0.346,0.743,0.416,1.081,0.162c2.582-1.959,4.188-5.715,4.188-9.814C31.2,8.339,29.594,4.584,27.012,2.627"/>
	<path style="opacity:0.2;fill:#FFFFFF;" d="M24.798,8.184c0,0-0.02-0.053-0.033-0.082c-0.162-0.383-0.549-1.08-0.549-1.08
		c-0.414-0.719-0.836-1.27-1.469-1.863c-0.223-0.217-0.473-0.404-0.715-0.59c-0.053-0.039-0.109-0.068-0.168-0.091
		c-0.332-0.18-0.754-0.091-0.992,0.231c-0.207,0.285-0.197,0.666-0.003,0.945c0.054,0.098,0.157,0.199,0.217,0.252
		c0.362,0.334,0.75,0.66,1.084,1.058c0.122,0.153,0.241,0.308,0.356,0.472c0.862,1.332,1.381,3.111,1.381,5.018
		c0,1.886-0.49,3.65-1.338,4.982c-0.436,0.6-0.931,1.089-1.468,1.543c-0.337,0.286-0.427,0.775-0.169,1.13
		c0.264,0.357,0.747,0.449,1.117,0.208c0.253-0.167,0.49-0.333,0.715-0.549c0.7-0.591,1.254-1.464,1.724-2.356h-0.011
		c0.728-1.423,1.141-3.146,1.141-4.958C25.618,10.926,25.323,9.461,24.798,8.184"/>
	<path style="opacity:0;fill:#FFFFFF;" d="M5.902,3.881c0.347-0.258,0.421-0.75,0.167-1.094c-0.261-0.344-0.744-0.418-1.081-0.16
		C2.406,4.584,0.8,8.339,0.8,12.444c0,4.1,1.606,7.855,4.188,9.814c0.337,0.254,0.82,0.184,1.081-0.162
		c0.254-0.348,0.179-0.832-0.167-1.09c-2.193-1.66-3.564-4.948-3.564-8.562C2.337,8.824,3.709,5.544,5.902,3.881"/>
	<path style="opacity:0.2;fill:#FFFFFF;" d="M9.235,19.767c0.225,0.216,0.46,0.381,0.715,0.549c0.368,0.24,0.852,0.149,1.116-0.207
		c0.259-0.354,0.167-0.844-0.169-1.131c-0.538-0.455-1.033-0.944-1.467-1.543c-0.849-1.332-1.339-3.097-1.339-4.981
		c0-1.906,0.519-3.687,1.38-5.02C9.589,7.271,9.708,7.115,9.83,6.963c0.333-0.398,0.722-0.724,1.083-1.057
		c0.058-0.053,0.163-0.156,0.216-0.252c0.196-0.279,0.206-0.662-0.002-0.947c-0.238-0.322-0.661-0.41-0.991-0.23
		c-0.06,0.023-0.118,0.052-0.17,0.092C9.725,4.754,9.476,4.939,9.251,5.156C8.62,5.75,8.197,6.303,7.783,7.02
		c0,0-0.386,0.699-0.547,1.082C7.221,8.129,7.203,8.184,7.203,8.184c-0.528,1.276-0.821,2.741-0.821,4.27
		c0,1.811,0.412,3.533,1.14,4.956H7.511C7.98,18.304,8.534,19.177,9.235,19.767"/>
</g>
</svg>
