<?xml version="1.0" encoding="iso-8859-1"?>
<!-- Generator: Adobe Illustrator 14.0.0, SVG Export Plug-In . SVG Version: 6.00 Build 43363)  -->
<!DOCTYPE svg PUBLIC "-//W3C//DTD SVG 1.1//EN" "http://www.w3.org/Graphics/SVG/1.1/DTD/svg11.dtd">
<svg version="1.1" id="icon-l-drive-layer" xmlns="http://www.w3.org/2000/svg" xmlns:xlink="http://www.w3.org/1999/xlink" x="0px"
	 y="0px" width="51px" height="40px" viewBox="0 0 51 40" style="enable-background:new 0 0 51 40;" xml:space="preserve">
<g id="icon-l-drive">
	<linearGradient id="SVGID_1_" gradientUnits="userSpaceOnUse" x1="25.9995" y1="2.5723" x2="25.9995" y2="126.7762">
		<stop  offset="0" style="stop-color:#FFFFFF"/>
		<stop  offset="1" style="stop-color:#B3B2C9"/>
	</linearGradient>
	<path style="fill:url(#SVGID_1_);" d="M3.101,15.271c0.551,0.288,1.285,0.426,2.037,0.479c-1.224,0.945-2.02,2.423-2.02,4.079
		v8.248c0,0.669,0.222,1.284,0.587,1.791v1.308H13.5V31.17l2.435,0.001h20.104H38.5v0.006h9.795V29.87
		c0.365-0.506,0.587-1.123,0.587-1.792V19.83c0-1.656-0.796-3.134-2.021-4.079c0.752-0.054,1.485-0.191,2.037-0.479
		c1.803-0.936,2.599-2.975,1.778-4.551c-0.615-1.18-4.865-0.381-6.967,0.097C41.525,2.254,38.476,0,37.761,0
		c-0.101,0-0.155,0.011-0.155,0.011H14.396c0,0-0.055-0.011-0.156-0.011c-0.715,0-3.766,2.254-5.949,10.817
		c-2.102-0.478-6.354-1.276-6.968-0.097C0.503,12.297,1.298,14.336,3.101,15.271z M35,27.128c0,0.549-0.45,1-1,1H18
		c-0.55,0-1-0.451-1-1v-1c0-0.551,0.45-1,1-1h16c0.55,0,1,0.449,1,1V27.128z M35,22.128c0,0.549-0.45,1-1,1H18c-0.55,0-1-0.451-1-1
		v-1c0-0.551,0.45-1.001,1-1.001h16c0.55,0,1,0.45,1,1.001V22.128z M46.12,23.728c0,2.208-1.79,4-4.001,4
		c-2.209,0-3.999-1.792-3.999-4c0-2.209,1.79-4.001,3.999-4.001C44.33,19.727,46.12,21.519,46.12,23.728z M15.387,2.07h0.191h20.844
		l0.03,0.057l0.161-0.057c0.379,0.088,2.738,2.695,4.385,10.752H11C12.65,4.762,15.01,2.157,15.387,2.07z M9.881,19.729
		c2.208,0,3.999,1.791,3.999,3.999c0,2.211-1.791,4.002-3.999,4.002c-2.21,0-4.001-1.791-4.001-4.002
		C5.88,21.52,7.671,19.729,9.881,19.729z"/>
	<linearGradient id="SVGID_2_" gradientUnits="userSpaceOnUse" x1="8.603" y1="33.668" x2="8.603" y2="57.3762">
		<stop  offset="0" style="stop-color:#FFFFFF"/>
		<stop  offset="1" style="stop-color:#B3B2C9"/>
	</linearGradient>
	<path style="fill:url(#SVGID_2_);" d="M3.706,33.177v2.857c0,1.701,1.393,3.094,3.094,3.094h3.607c1.701,0,3.094-1.393,3.094-3.094
		v-2.857H3.706z"/>
	<linearGradient id="SVGID_3_" gradientUnits="userSpaceOnUse" x1="43.3975" y1="33.668" x2="43.3975" y2="57.3762">
		<stop  offset="0" style="stop-color:#FFFFFF"/>
		<stop  offset="1" style="stop-color:#B3B2C9"/>
	</linearGradient>
	<path style="fill:url(#SVGID_3_);" d="M38.5,33.177v2.857c0,1.701,1.393,3.094,3.094,3.094h3.607c1.701,0,3.094-1.393,3.094-3.094
		v-2.857H38.5z"/>
</g>
</svg>
