<?xml version="1.0" encoding="iso-8859-1"?>
<!-- Generator: Adobe Illustrator 14.0.0, SVG Export Plug-In . SVG Version: 6.00 Build 43363)  -->
<!DOCTYPE svg PUBLIC "-//W3C//DTD SVG 1.1//EN" "http://www.w3.org/Graphics/SVG/1.1/DTD/svg11.dtd">
<svg version="1.1" id="icon-l-content-manager-layer"
	 xmlns="http://www.w3.org/2000/svg" xmlns:xlink="http://www.w3.org/1999/xlink" x="0px" y="0px" width="44px" height="41px"
	 viewBox="0 0 44 41" style="enable-background:new 0 0 44 41;" xml:space="preserve">
<g id="icon-l-content-manager_1_">
	<path style="fill:#00A79C;" d="M8.571,19.049v14.285h26.667V19.049H8.571z M27.619,26.666H16.19v-4.762h11.429V26.666z
		 M22.856,2.858H10.476V0.953C10.476,0,11.428,0,11.428,0h10.477c0,0,0.952,0,0.952,0.953V2.858z M43.809,10.477v30.477H0V10.477
		h7.619v4.762H4.762v21.905h34.285V15.238H36.19v-4.762H43.809z M10.476,15.238V4.694l20.952,0.003c0.954,0,1.905,0.951,1.905,1.904
		v8.637H10.476z"/>
</g>
</svg>
