<?xml version="1.0" encoding="iso-8859-1"?>
<!-- Generator: Adobe Illustrator 14.0.0, SVG Export Plug-In . SVG Version: 6.00 Build 43363)  -->
<!DOCTYPE svg PUBLIC "-//W3C//DTD SVG 1.1//EN" "http://www.w3.org/Graphics/SVG/1.1/DTD/svg11.dtd">
<svg version="1.1" id="icon-m-status-menu-normal-layer"
	 xmlns="http://www.w3.org/2000/svg" xmlns:xlink="http://www.w3.org/1999/xlink" x="0px" y="0px" width="48px" height="48px"
	 viewBox="0 0 48 48" style="enable-background:new 0 0 48 48;" xml:space="preserve">
<g id="icon-m-status-menu-normal">
	<rect style="fill:none;" width="48" height="48"/>
	<g>
		<path style="fill:#FFFFFF;" d="M25.133,10.636h-0.51c-0.119,0-0.292,0.063-0.386,0.14l-8.836,7.319H5v11.414h10.312l8.947,7.393
			c0.094,0.079,0.267,0.141,0.386,0.141h0.51c0.114,0,0.211-0.112,0.211-0.249l-0.022-25.906
			C25.343,10.748,25.246,10.636,25.133,10.636z"/>
		<path style="fill:#FFFFFF;" d="M37.76,11.072c-0.424-0.321-1.026-0.229-1.352,0.2c-0.318,0.431-0.225,1.045,0.208,1.371
			c2.744,2.08,4.46,6.183,4.46,10.714c0,4.522-1.716,8.637-4.46,10.713c-0.433,0.321-0.526,0.928-0.208,1.361
			c0.325,0.434,0.928,0.522,1.352,0.204C40.989,33.187,43,28.484,43,23.357C43,18.221,40.989,13.52,37.76,11.072z"/>
		<path style="fill:#FFFFFF;" d="M34.988,18.092c0,0-0.022-0.068-0.04-0.102c-0.202-0.479-0.686-1.354-0.686-1.354
			c-0.519-0.9-1.046-1.588-1.837-2.33c-0.279-0.271-0.594-0.506-0.895-0.738c-0.066-0.049-0.139-0.086-0.213-0.114
			c-0.414-0.224-0.942-0.112-1.24,0.291c-0.26,0.354-0.248,0.832-0.003,1.184c0.067,0.12,0.198,0.246,0.271,0.315
			c0.453,0.417,0.939,0.824,1.356,1.323c0.153,0.188,0.302,0.384,0.447,0.589c1.078,1.666,1.727,3.894,1.727,6.279
			c0,2.356-0.613,4.564-1.675,6.231c-0.543,0.75-1.162,1.358-1.835,1.93c-0.423,0.359-0.536,0.972-0.212,1.416
			c0.33,0.443,0.936,0.561,1.396,0.258c0.318-0.208,0.615-0.416,0.895-0.687c0.877-0.737,1.57-1.83,2.157-2.948H34.59
			c0.91-1.78,1.426-3.937,1.426-6.2C36.016,21.522,35.648,19.688,34.988,18.092z"/>
	</g>
</g>
</svg>
