<?xml version="1.0" encoding="iso-8859-1"?>
<!-- Generator: Adobe Illustrator 14.0.0, SVG Export Plug-In . SVG Version: 6.00 Build 43363)  -->
<!DOCTYPE svg PUBLIC "-//W3C//DTD SVG 1.1//EN" "http://www.w3.org/Graphics/SVG/1.1/DTD/svg11.dtd">
<svg version="1.1" id="icon-m-common-silver-layer" xmlns="http://www.w3.org/2000/svg" xmlns:xlink="http://www.w3.org/1999/xlink"
	 x="0px" y="0px" width="48px" height="48px" viewBox="0 0 48 48" style="enable-background:new 0 0 48 48;" xml:space="preserve">
<g id="icon-m-common-silver">
	<rect style="fill:none;" width="48" height="48"/>
	<g>
		<path style="fill:#F1F0F1;" d="M23.581,39.498c-12.613,0-15.081-5.69-15.081-15.521C8.5,13.939,10.903,8.5,23.58,8.5l0.835,0.003
			c12.617,0,15.084,5.691,15.084,15.521c0,10.037-2.403,15.476-15.083,15.476h0.001L23.581,39.498z"/>
		<path style="fill:#C9C3C3;" d="M23.58,9L23.58,9l0.837,0.003C36.676,9.003,39,14.282,39,24.024C39,33.736,36.676,39,24.42,39
			l-0.84-0.002C11.324,38.998,9,33.719,9,23.978C9,14.264,11.324,9,23.58,9 M23.58,8C10.785,8,8,13.621,8,23.978
			c0,10.382,2.863,16.021,15.58,16.021L24.417,40C37.215,40,40,34.381,40,24.024c0-10.384-2.863-16.021-15.583-16.021L23.58,8
			L23.58,8z"/>
	</g>
</g>
</svg>
