<?xml version="1.0" encoding="iso-8859-1"?>
<!-- Generator: Adobe Illustrator 14.0.0, SVG Export Plug-In . SVG Version: 6.00 Build 43363)  -->
<!DOCTYPE svg PUBLIC "-//W3C//DTD SVG 1.1//EN" "http://www.w3.org/Graphics/SVG/1.1/DTD/svg11.dtd">
<svg version="1.1" id="icon-l-video-layer" xmlns="http://www.w3.org/2000/svg" xmlns:xlink="http://www.w3.org/1999/xlink" x="0px"
	 y="0px" width="80px" height="80px" viewBox="0 0 80 80" style="enable-background:new 0 0 80 80;" xml:space="preserve">
<g id="icon-l-video_1_">
	<rect style="fill:none;" width="80" height="80"/>
	<path id="_x31__pixel_shadow_14_" style="opacity:0.4;" d="M58.207,77.143c-0.089,0.025-0.182,0.046-0.271,0.07
		c-0.497,0.132-1,0.26-1.52,0.378c-0.521,0.118-1.06,0.228-1.604,0.332c-0.112,0.021-0.219,0.046-0.331,0.067
		c-4.176,0.773-8.979,1.132-14.479,1.132c-5.503,0-10.305-0.358-14.479-1.132c-0.114-0.021-0.219-0.047-0.33-0.067
		c-0.545-0.104-1.085-0.214-1.606-0.332c-0.52-0.118-1.021-0.246-1.519-0.378c-0.09-0.024-0.184-0.045-0.271-0.07
		C6.457,72.988,0.592,61.873,0.506,40.096c0,0.163-0.006,0.314-0.006,0.477C0.5,69.838,10.735,80,40.002,80
		C69.267,80,79.5,69.838,79.5,40.572c0-0.162-0.002-0.313-0.004-0.477C79.411,61.873,73.545,72.988,58.207,77.143"/>
	<path id="flat_colour_squircle_15_" style="fill:#C20068;" d="M79.5,39.57c0,29.266-10.233,39.5-39.499,39.5
		C10.733,79.07,0.5,68.836,0.5,39.57c0-29.264,10.233-39.5,39.501-39.5C69.267,0.07,79.5,10.307,79.5,39.57"/>
	<linearGradient id="shine_top_layer_1_" gradientUnits="userSpaceOnUse" x1="39.9995" y1="0" x2="39.9995" y2="79.0005">
		<stop  offset="0" style="stop-color:#FFFFFF"/>
		<stop  offset="0.7362" style="stop-color:#FFFFFF;stop-opacity:0"/>
	</linearGradient>
	<path id="shine_top_layer_28_" style="opacity:0.21;fill:url(#shine_top_layer_1_);" d="M79.5,39.5C79.5,68.764,69.266,79,40,79
		C10.736,79,0.5,68.764,0.5,39.5C0.5,10.234,10.736,0,40,0C69.266,0,79.5,10.234,79.5,39.5z"/>
	<linearGradient id="top_edge_highlight_1_" gradientUnits="userSpaceOnUse" x1="47.7109" y1="-0.1699" x2="32.2889" y2="79.1698">
		<stop  offset="0" style="stop-color:#FFFFFF"/>
		<stop  offset="0.1117" style="stop-color:#EBEBEB"/>
		<stop  offset="0.3969" style="stop-color:#BDBDBD"/>
		<stop  offset="0.6503" style="stop-color:#9B9B9B"/>
		<stop  offset="0.86" style="stop-color:#878787"/>
		<stop  offset="1" style="stop-color:#808080"/>
	</linearGradient>
	<path id="top_edge_highlight_14_" style="opacity:0.25;fill:url(#top_edge_highlight_1_);" d="M40.001,79
		C10.837,79,0.5,68.662,0.5,39.498C0.5,10.335,10.837,0,40.001,0C69.164,0,79.5,10.335,79.5,39.498C79.5,68.662,69.164,79,40.001,79
		L40.001,79z M40.001,0.986c-28.795,0-38.514,9.717-38.514,38.512c0,28.796,9.719,38.513,38.514,38.513
		c28.794,0,38.512-9.717,38.512-38.513C78.513,10.703,68.795,0.986,40.001,0.986L40.001,0.986z"/>
	<path style="opacity:0.3;" d="M59.34,23.535h2.16v-3.203h-43v3.164v0.039h2.181c0.44,0,0.801,0.359,0.801,0.801v3.174
		c0,0.439-0.36,1.52-0.801,1.52H18.5v0.038v1.989v0.025h9.406v16.126H18.5v0.024v2.662v0.039h2.181c0.44,0,0.801,0.36,0.801,0.801
		v3.175c0,0.44-0.36,0.801-0.801,0.801H18.5v0.04v2.535h43V54.71h-2.16c-0.442,0-0.804-0.359-0.804-0.801v-3.21
		c0-0.441,0.361-0.803,0.804-0.803h2.16v-2.688h-2.015V31.082H61.5v-2.015h-2.16c-0.442,0-0.804-1.078-0.804-1.521v-3.211
		C58.536,23.896,58.897,23.535,59.34,23.535z M48.1,24.336c0-0.439,0.363-0.801,0.804-0.801h3.212c0.44,0,0.801,0.359,0.801,0.801
		v3.211c0,0.442-0.36,1.521-0.801,1.521h-3.212c-0.44,0-0.804-1.078-0.804-1.521V24.336z M37.634,24.336
		c0-0.439,0.362-0.801,0.804-0.801h3.211c0.441,0,0.801,0.359,0.801,0.801v3.211c0,0.442-0.359,1.521-0.801,1.521h-3.211
		c-0.441,0-0.804-1.078-0.804-1.521V24.336z M31.95,53.909c0,0.44-0.361,0.8-0.804,0.8h-3.209c-0.443,0-0.801-0.359-0.801-0.8
		v-3.175c0-0.44,0.357-0.803,0.801-0.803h3.209c0.442,0,0.804,0.362,0.804,0.803V53.909z M31.95,27.51
		c0,0.439-0.361,1.52-0.804,1.52h-3.209c-0.443,0-0.801-1.08-0.801-1.52v-3.174c0-0.439,0.357-0.801,0.801-0.801h3.209
		c0.442,0,0.804,0.359,0.804,0.801V27.51z M42.449,53.909c0,0.44-0.359,0.8-0.803,0.8h-3.211c-0.439,0-0.803-0.359-0.803-0.8v-3.212
		c0-0.443,0.363-0.803,0.803-0.803h3.211c0.441,0,0.803,0.359,0.803,0.803V53.909z M52.916,53.909c0,0.44-0.36,0.8-0.801,0.8h-3.212
		c-0.44,0-0.804-0.359-0.804-0.8v-3.212c0-0.443,0.363-0.803,0.804-0.803h3.212c0.44,0,0.801,0.359,0.801,0.803V53.909z
		 M54.781,48.725L31.95,48.75v-1.542h-0.013V31.082h0.013v-0.025h22.831V48.725z"/>
	<rect x="30.971" y="31.625" style="opacity:0.06;" width="24.166" height="18"/>
	<path style="fill:#FFFFFF;" d="M59.34,25.061h2.16v-3.203h-43v3.163v0.04h2.181c0.44,0,0.801,0.358,0.801,0.801v3.174
		c0,0.44-0.36,1.519-0.801,1.519H18.5v0.039v1.989v0.025h9.406v16.125H18.5v0.025v2.662v0.039h2.181c0.44,0,0.801,0.359,0.801,0.801
		v3.174c0,0.439-0.36,0.803-0.801,0.803H18.5v0.037v2.537h43v-2.574h-2.16c-0.442,0-0.804-0.36-0.804-0.803v-3.208
		c0-0.442,0.361-0.806,0.804-0.806h2.16v-2.686h-2.015V32.607H61.5v-2.015h-2.16c-0.442,0-0.804-1.079-0.804-1.522v-3.209
		C58.536,25.42,58.897,25.061,59.34,25.061z M48.1,25.861c0-0.441,0.363-0.801,0.804-0.801h3.212c0.44,0,0.801,0.358,0.801,0.801
		v3.209c0,0.443-0.36,1.522-0.801,1.522h-3.212c-0.44,0-0.804-1.079-0.804-1.522V25.861z M37.634,25.861
		c0-0.441,0.362-0.801,0.804-0.801h3.211c0.441,0,0.801,0.358,0.801,0.801v3.209c0,0.443-0.359,1.522-0.801,1.522h-3.211
		c-0.441,0-0.804-1.079-0.804-1.522V25.861z M31.95,55.434c0,0.439-0.361,0.802-0.804,0.802h-3.209
		c-0.443,0-0.801-0.362-0.801-0.802V52.26c0-0.441,0.357-0.803,0.801-0.803h3.209c0.442,0,0.804,0.361,0.804,0.803V55.434z
		 M31.95,29.035c0,0.44-0.361,1.519-0.804,1.519h-3.209c-0.443,0-0.801-1.078-0.801-1.519v-3.174c0-0.441,0.357-0.801,0.801-0.801
		h3.209c0.442,0,0.804,0.358,0.804,0.801V29.035z M42.449,55.434c0,0.439-0.359,0.802-0.803,0.802h-3.211
		c-0.439,0-0.803-0.362-0.803-0.802v-3.211c0-0.441,0.363-0.803,0.803-0.803h3.211c0.441,0,0.803,0.361,0.803,0.803V55.434z
		 M52.916,55.434c0,0.439-0.36,0.802-0.801,0.802h-3.212c-0.44,0-0.804-0.362-0.804-0.802v-3.211c0-0.441,0.363-0.803,0.804-0.803
		h3.212c0.44,0,0.801,0.361,0.801,0.803V55.434z M54.781,48.732L31.95,48.758v-0.025h-0.013V32.607h0.013v-0.025h22.831V48.732z"/>
</g>
</svg>
