<?xml version="1.0" encoding="iso-8859-1"?>
<!-- Generator: Adobe Illustrator 14.0.0, SVG Export Plug-In . SVG Version: 6.00 Build 43363)  -->
<!DOCTYPE svg PUBLIC "-//W3C//DTD SVG 1.1//EN" "http://www.w3.org/Graphics/SVG/1.1/DTD/svg11.dtd">
<svg version="1.1" id="icon-m-content-feed-layer" xmlns="http://www.w3.org/2000/svg" xmlns:xlink="http://www.w3.org/1999/xlink"
	 x="0px" y="0px" width="64px" height="64px" viewBox="0 0 64 64" style="enable-background:new 0 0 64 64;" xml:space="preserve">
<g id="icon-m-content-feed">
	<rect style="fill:none;" width="64" height="64"/>
	<path style="fill:#333333;" d="M0.869,23.982v11.801c14.342,0.84,25.956,12.031,27.492,26.205h11.813
		C38.58,41.307,21.697,24.852,0.869,23.982z"/>
	<path style="fill:#333333;" d="M7.601,48.447c-3.718,0-6.732,3.031-6.732,6.771c0,3.738,3.014,6.77,6.732,6.77
		c3.714,0,6.73-3.031,6.73-6.77C14.332,51.479,11.315,48.447,7.601,48.447z"/>
	<path style="fill:#333333;" d="M44.393,20.594C32.724,8.9,17.315,2.328,0.869,1.99v11.789
		c26.693,0.678,48.416,21.747,50.218,48.209h11.782C62.014,46.348,55.533,31.758,44.393,20.594z"/>
</g>
</svg>
