<?xml version="1.0" encoding="iso-8859-1"?>
<!-- Generator: Adobe Illustrator 14.0.0, SVG Export Plug-In . SVG Version: 6.00 Build 43363)  -->
<!DOCTYPE svg PUBLIC "-//W3C//DTD SVG 1.1//EN" "http://www.w3.org/Graphics/SVG/1.1/DTD/svg11.dtd">
<svg version="1.1" id="icon-l-ovi-store-layer" xmlns="http://www.w3.org/2000/svg" xmlns:xlink="http://www.w3.org/1999/xlink"
	 x="0px" y="0px" width="80px" height="80px" viewBox="0 0 80 80" style="enable-background:new 0 0 80 80;" xml:space="preserve">
<g id="icon-l-ovi-store_1_">
	<rect style="fill:none;" width="80" height="80"/>
	<path id="_x31__pixel_shadow_12_" style="opacity:0.4;" d="M58.207,77.145c-0.089,0.025-0.182,0.045-0.271,0.068
		c-0.497,0.133-1,0.262-1.52,0.379c-0.521,0.117-1.06,0.227-1.604,0.332c-0.112,0.02-0.219,0.047-0.331,0.068
		c-4.176,0.771-8.979,1.131-14.479,1.131c-5.503,0-10.305-0.359-14.479-1.131c-0.114-0.021-0.219-0.049-0.33-0.068
		c-0.545-0.105-1.085-0.215-1.606-0.332c-0.52-0.117-1.021-0.246-1.519-0.379c-0.09-0.023-0.184-0.043-0.271-0.068
		C6.457,72.99,0.592,61.875,0.506,40.098c0,0.162-0.006,0.314-0.006,0.477C0.5,69.838,10.735,80,40.002,80
		C69.267,80,79.5,69.838,79.5,40.574c0-0.162-0.002-0.314-0.004-0.477C79.411,61.875,73.545,72.99,58.207,77.145"/>
	<path id="flat_colour_squircle_13_" style="fill:#539D03;" d="M79.5,39.57c0,29.268-10.233,39.502-39.499,39.502
		C10.733,79.072,0.5,68.838,0.5,39.57c0-29.263,10.233-39.498,39.501-39.498C69.267,0.072,79.5,10.308,79.5,39.57"/>
	<linearGradient id="shine_top_layer_1_" gradientUnits="userSpaceOnUse" x1="39.9995" y1="0" x2="39.9995" y2="79.0005">
		<stop  offset="0" style="stop-color:#FFFFFF"/>
		<stop  offset="0.7362" style="stop-color:#FFFFFF;stop-opacity:0"/>
	</linearGradient>
	<path id="shine_top_layer_14_" style="opacity:0.15;fill:url(#shine_top_layer_1_);" d="M79.5,39.5C79.5,68.766,69.267,79,40,79
		C10.736,79,0.5,68.766,0.5,39.5C0.5,10.235,10.736,0,40,0C69.267,0,79.5,10.235,79.5,39.5z"/>
	<linearGradient id="top_edge_highlight_1_" gradientUnits="userSpaceOnUse" x1="47.7109" y1="-0.1699" x2="32.2889" y2="79.1698">
		<stop  offset="0" style="stop-color:#FFFFFF"/>
		<stop  offset="0.1117" style="stop-color:#EBEBEB"/>
		<stop  offset="0.3969" style="stop-color:#BDBDBD"/>
		<stop  offset="0.6503" style="stop-color:#9B9B9B"/>
		<stop  offset="0.86" style="stop-color:#878787"/>
		<stop  offset="1" style="stop-color:#808080"/>
	</linearGradient>
	<path id="top_edge_highlight_12_" style="opacity:0.25;fill:url(#top_edge_highlight_1_);" d="M40.001,79
		C10.837,79,0.5,68.664,0.5,39.499C0.5,10.336,10.837,0,40.001,0C69.164,0,79.5,10.336,79.5,39.499C79.5,68.664,69.164,79,40.001,79
		L40.001,79z M40.001,0.986c-28.795,0-38.514,9.719-38.514,38.513c0,28.796,9.719,38.513,38.514,38.513
		c28.794,0,38.512-9.717,38.512-38.513C78.513,10.705,68.795,0.986,40.001,0.986L40.001,0.986z"/>
	<circle style="opacity:0.3;" cx="30.219" cy="34.352" r="2.25"/>
	<circle style="opacity:0.3;" cx="49.469" cy="34.352" r="2.25"/>
	<path style="opacity:0.3;" d="M28.968,33.119c-0.001-0.017-0.005-0.031-0.005-0.047c0-0.807,0.651-1.459,1.459-1.459
		c0.807,0,1.459,0.652,1.459,1.459c0,0.016-0.004,0.03-0.005,0.047h16.175c-0.001-0.017-0.005-0.031-0.005-0.047
		c0-0.807,0.651-1.459,1.458-1.459c0.808,0,1.459,0.652,1.459,1.459c0,0.016-0.004,0.03-0.005,0.047h7.083l-0.047-1.883
		c-0.1-2.492-2.53-2.297-2.53-2.297H50.03l-3.169-8.24c-0.457-1.565-2.35-4.32-6.49-4.615v-0.029c-0.126,0-0.243,0.01-0.364,0.015
		c-0.122-0.005-0.239-0.015-0.364-0.015v0.029c-4.141,0.295-6.034,3.05-6.492,4.615l-3.168,8.24h-5.27c0,0-2.693-0.073-2.693,2.43
		l-0.044,1.75H28.968z M35.898,21.684l0.042-0.129c0.076-0.255,0.824-2.413,4.066-2.567c3.241,0.154,3.988,2.312,4.061,2.548
		l2.84,7.404h-0.253H33.359h-0.252L35.898,21.684z"/>
	<path style="fill:#FFFFFF;" d="M58.641,58.887l-0.646-26.133c-0.1-2.492-2.53-2.298-2.53-2.298H50.03l-3.169-8.241
		c-0.457-1.564-2.35-4.32-6.49-4.613v-0.029c-0.126,0-0.243,0.01-0.364,0.014c-0.122-0.004-0.239-0.014-0.364-0.014v0.029
		c-4.141,0.293-6.034,3.049-6.492,4.613l-3.168,8.241h-5.27c0,0-2.693-0.073-2.693,2.431l-0.649,26c0,0-0.425,2.686,2.249,2.686
		h32.514C58.988,61.572,58.641,58.887,58.641,58.887z M30.422,36.338c-0.969,0-1.75-0.78-1.75-1.75c0-0.965,0.781-1.75,1.75-1.75
		c0.968,0,1.75,0.785,1.75,1.75C32.172,35.558,31.39,36.338,30.422,36.338z M46.654,30.456H33.359h-0.252l2.791-7.256l0.042-0.129
		c0.076-0.255,0.824-2.412,4.066-2.567c3.241,0.155,3.988,2.312,4.061,2.549l2.84,7.403H46.654z M49.504,36.338
		c-0.968,0-1.75-0.78-1.75-1.75c0-0.966,0.782-1.75,1.75-1.75c0.969,0,1.75,0.784,1.75,1.75
		C51.254,35.558,50.473,36.338,49.504,36.338z"/>
</g>
</svg>
