<?xml version="1.0" encoding="iso-8859-1"?>
<!-- Generator: Adobe Illustrator 14.0.0, SVG Export Plug-In . SVG Version: 6.00 Build 43363)  -->
<!DOCTYPE svg PUBLIC "-//W3C//DTD SVG 1.1//EN" "http://www.w3.org/Graphics/SVG/1.1/DTD/svg11.dtd">
<svg version="1.1" id="icon-m-common-printer-layer"
	 xmlns="http://www.w3.org/2000/svg" xmlns:xlink="http://www.w3.org/1999/xlink" x="0px" y="0px" width="64px" height="64px"
	 viewBox="0 0 64 64" style="enable-background:new 0 0 64 64;" xml:space="preserve">
<g id="icon-m-common-printer">
	<rect style="fill:none;" width="64" height="64"/>
	<path style="fill:#333333;" d="M60.004,8.002H4c-2.212,0-4,1.789-4,4v27.996h8v16h48v-16h8V12.002
		C64,9.791,62.211,8.002,60.004,8.002z M58.732,32.578h-7.054v19.088H12.108V32.578h-6.88v-5.16h53.505V32.578z M59.891,16.279
		c0,1.135-0.931,2.062-2.064,2.062H47.502c-1.136,0-2.062-0.928-2.062-2.062v-2.062c0-1.137,0.927-2.064,2.062-2.064h10.324
		c1.134,0,2.064,0.928,2.064,2.064V16.279z M32.373,33.467l6.293,6.179l7.066-7.067H16v5.572l5.75,5.745L32.373,33.467z"/>
</g>
</svg>
