<?xml version="1.0" encoding="iso-8859-1"?>
<!-- Generator: Adobe Illustrator 14.0.0, SVG Export Plug-In . SVG Version: 6.00 Build 43363)  -->
<!DOCTYPE svg PUBLIC "-//W3C//DTD SVG 1.1//EN" "http://www.w3.org/Graphics/SVG/1.1/DTD/svg11.dtd">
<svg version="1.1" id="icon-m-toolbar-todo-layer" xmlns="http://www.w3.org/2000/svg" xmlns:xlink="http://www.w3.org/1999/xlink"
	 x="0px" y="0px" width="32px" height="32px" viewBox="0 0 32 32" style="enable-background:new 0 0 32 32;" xml:space="preserve">
<g id="icon-m-toolbar-todo">
	<rect style="fill:none;" width="32" height="32"/>
	<path style="fill:#FFFFFF;" d="M31.475,15.38c-0.069-0.21-0.268-0.35-0.501-0.35c-4.827,0.096-8.466,4.354-9.748,6.093
		l-2.269-2.297c-0.187-0.193-0.529-0.197-0.721-0.02l-1.534,1.391c-0.1,0.095-0.157,0.224-0.16,0.364
		c-0.002,0.138,0.051,0.265,0.15,0.368l4.574,4.522c0.096,0.098,0.231,0.155,0.373,0.155h0.041c0.15-0.014,0.287-0.088,0.381-0.214
		c1.794-2.504,3.961-4.931,6.266-7.023c1.53-1.385,2.637-2.188,2.939-2.401l0.062-0.048C31.479,15.785,31.539,15.573,31.475,15.38z"
		/>
	<rect x="6.312" y="12.125" style="fill:#FFFFFF;" width="15.5" height="2.906"/>
	<rect x="6.312" y="18.906" style="fill:#FFFFFF;" width="7.456" height="2.906"/>
	<path style="fill:#FFFFFF;" d="M24.719,28.594H3.406V6.312h3.875v1.979h13.562V6.312h3.875v7.677
		c0.891-0.528,1.861-0.981,2.906-1.311V4.859c0-0.799-0.654-1.453-1.453-1.453h-5.328V1.953c0-0.799-0.654-1.453-1.453-1.453H8.734
		c-0.799,0-1.453,0.654-1.453,1.453v1.453H1.953C1.154,3.406,0.5,4.061,0.5,4.859v25.188c0,0.799,0.654,1.453,1.453,1.453h12.109
		h12.109c0.799,0,1.453-0.654,1.453-1.453v-6.866c-1.041,1.13-2.018,2.311-2.906,3.519V28.594z"/>
</g>
</svg>
