<?xml version="1.0" encoding="iso-8859-1"?>
<!-- Generator: Adobe Illustrator 14.0.0, SVG Export Plug-In . SVG Version: 6.00 Build 43363)  -->
<!DOCTYPE svg PUBLIC "-//W3C//DTD SVG 1.1//EN" "http://www.w3.org/Graphics/SVG/1.1/DTD/svg11.dtd">
<svg version="1.1" id="icon-m-common-add-contact-layer"
	 xmlns="http://www.w3.org/2000/svg" xmlns:xlink="http://www.w3.org/1999/xlink" x="0px" y="0px" width="64px" height="64px"
	 viewBox="0 0 64 64" style="enable-background:new 0 0 64 64;" xml:space="preserve">
<g id="icon-m-common-add-contact">
	<rect style="fill:none;" width="64" height="64"/>
	<path style="fill:#333333;" d="M14.859,23.227c5.766,0,10.438-4.525,10.438-10.096C25.298,7.54,20.625,3,14.859,3
		C9.085,3,4.413,7.54,4.413,13.131C4.413,18.701,9.085,23.227,14.859,23.227z"/>
	<path style="fill:#333333;" d="M22,46c0-5.201,1.668-10.018,4.491-13.951c-2.681-3.066-6.953-5.062-11.785-5.062
		C6.58,26.986,0,32.602,0,39.531V53h23.044C22.367,50.783,22,48.434,22,46z"/>
	<path style="fill:#333333;" d="M46,28c-9.941,0-18,8.059-18,18c0,9.939,8.059,18,18,18c9.94,0,18-8.061,18-18
		C64,36.059,55.94,28,46,28z M56.799,48.867h-7.842v7.934h-5.87v-7.934H35.2v-5.826h7.887v-7.842h5.87v7.842h7.842V48.867z"/>
</g>
</svg>
