<?xml version="1.0" encoding="iso-8859-1"?>
<!-- Generator: Adobe Illustrator 14.0.0, SVG Export Plug-In . SVG Version: 6.00 Build 43363)  -->
<!DOCTYPE svg PUBLIC "-//W3C//DTD SVG 1.1//EN" "http://www.w3.org/Graphics/SVG/1.1/DTD/svg11.dtd">
<svg version="1.1" id="icon-m-common-presence-online-layer"
	 xmlns="http://www.w3.org/2000/svg" xmlns:xlink="http://www.w3.org/1999/xlink" x="0px" y="0px" width="65px" height="64px"
	 viewBox="0 0 65 64" style="enable-background:new 0 0 65 64;" xml:space="preserve">
<g id="icon-m-common-presence-online">
	<rect x="1" style="fill:none;" width="64" height="64"/>
	<path style="fill:#333333;" d="M33.006,1C15.881,1,2,14.894,2,32.02C2,49.12,15.881,63,33.006,63C50.112,63,64,49.12,64,32.02
		C64,14.894,50.112,1,33.006,1z M54.604,20.525L54.604,20.525L54.6,20.529c-0.005,0.004-0.01,0.007-0.014,0.011v-0.003l-0.01,0.007
		c-0.006,0.006-0.018,0.013-0.027,0.022c-0.028,0.018-0.062,0.042-0.108,0.077c-0.095,0.069-0.233,0.171-0.417,0.304
		c-0.365,0.273-0.9,0.676-1.579,1.212c-1.356,1.075-3.288,2.675-5.589,4.798c-4.6,4.242-10.646,10.523-16.403,18.682
		C30.274,45.885,30,46.047,29.68,46.07l-0.043,0.004l-0.029-0.499l0,0v0.499c-0.272,0-0.536-0.105-0.734-0.305L16.919,33.756
		c-0.183-0.184-0.293-0.438-0.299-0.699c0,0-0.004-0.03,0.002-0.079c-0.002-0.018,0-0.043,0.007-0.069
		c0.029-0.235,0.136-0.461,0.32-0.627l3.979-3.676c0.2-0.189,0.456-0.281,0.712-0.281c0.266-0.004,0.539,0.105,0.74,0.316
		l6.183,6.352c7.931-11.041,20.042-16.186,25.328-16.312c0.008,0,0.014-0.003,0.091-0.008c0.442,0,0.84,0.283,0.981,0.71
		c0.039,0.108,0.055,0.218,0.052,0.319C55.017,20.025,54.864,20.328,54.604,20.525z"/>
</g>
</svg>
