<?xml version="1.0" encoding="iso-8859-1"?>
<!-- Generator: Adobe Illustrator 14.0.0, SVG Export Plug-In . SVG Version: 6.00 Build 43363)  -->
<!DOCTYPE svg PUBLIC "-//W3C//DTD SVG 1.1//EN" "http://www.w3.org/Graphics/SVG/1.1/DTD/svg11.dtd">
<svg version="1.1" id="icon-m-camera-flash-off-screen-layer"
	 xmlns="http://www.w3.org/2000/svg" xmlns:xlink="http://www.w3.org/1999/xlink" x="0px" y="0px" width="24px" height="24px"
	 viewBox="0 0 24 24" style="enable-background:new 0 0 24 24;" xml:space="preserve">
<g id="icon-m-camera-flash-off-screen">
	<rect style="fill:none;" width="24" height="24"/>
	<path style="fill:#FFFFFF;" d="M12,0.338C5.581,0.339,0.375,5.547,0.375,11.97C0.375,18.385,5.581,23.587,12,23.588
		c6.417-0.001,11.623-5.203,11.625-11.618C23.623,5.547,18.419,0.339,12,0.338z M19.716,18.139l-3.255-3.256l-1.709,1.372
		l3.423,3.425c-1.692,1.355-3.837,2.17-6.174,2.173c-5.461-0.009-9.88-4.428-9.891-9.883c0.005-2.339,0.819-4.486,2.177-6.181
		l2.878,2.879L8.8,7.223L5.827,4.248C7.52,2.893,9.664,2.078,12,2.075V2.073c5.458,0.011,9.879,4.433,9.89,9.896
		C21.886,14.304,21.072,16.448,19.716,18.139z"/>
	<polygon style="fill:#FFFFFF;" points="15.223,4.697 8.632,10.522 12.132,12.584 7.277,19.229 16.723,11.645 12.955,9.734 	"/>
</g>
</svg>
