<?xml version="1.0" encoding="iso-8859-1"?>
<!-- Generator: Adobe Illustrator 14.0.0, SVG Export Plug-In . SVG Version: 6.00 Build 43363)  -->
<!DOCTYPE svg PUBLIC "-//W3C//DTD SVG 1.1//EN" "http://www.w3.org/Graphics/SVG/1.1/DTD/svg11.dtd">
<svg version="1.1" id="icon-l-contacts-layer" xmlns="http://www.w3.org/2000/svg" xmlns:xlink="http://www.w3.org/1999/xlink"
	 x="0px" y="0px" width="80px" height="80px" viewBox="0 0 80 80" style="enable-background:new 0 0 80 80;" xml:space="preserve">
<g id="icon-l-contacts_1_">
	<rect style="fill:none;" width="80" height="80"/>
	<path id="_x31__pixel_shadow_26_" style="opacity:0.4;" d="M58.207,77.144c-0.089,0.026-0.182,0.046-0.271,0.069
		c-0.497,0.133-1,0.261-1.52,0.379c-0.521,0.117-1.06,0.227-1.604,0.332c-0.112,0.02-0.219,0.047-0.331,0.067
		c-4.176,0.773-8.979,1.132-14.479,1.132c-5.503,0-10.305-0.358-14.479-1.132c-0.114-0.021-0.219-0.048-0.33-0.067
		c-0.545-0.105-1.085-0.215-1.606-0.332c-0.52-0.118-1.021-0.246-1.519-0.379c-0.09-0.023-0.184-0.043-0.271-0.069
		C6.457,72.99,0.592,61.873,0.506,40.098c0,0.162-0.006,0.313-0.006,0.477C0.5,69.838,10.735,80,40.002,80
		C69.267,80,79.5,69.838,79.5,40.574c0-0.163-0.002-0.314-0.004-0.477C79.411,61.873,73.545,72.99,58.207,77.144"/>
	<path id="flat_colour_squircle_27_" style="fill:#0032C2;" d="M79.5,39.57c0,29.268-10.233,39.502-39.499,39.502
		C10.733,79.072,0.5,68.838,0.5,39.57c0-29.264,10.233-39.498,39.501-39.498C69.267,0.072,79.5,10.307,79.5,39.57"/>
	<linearGradient id="shine_top_layer_1_" gradientUnits="userSpaceOnUse" x1="39.9995" y1="0" x2="39.9995" y2="79.0005">
		<stop  offset="0" style="stop-color:#FFFFFF"/>
		<stop  offset="0.7362" style="stop-color:#FFFFFF;stop-opacity:0"/>
	</linearGradient>
	<path id="shine_top_layer_16_" style="opacity:0.15;fill:url(#shine_top_layer_1_);" d="M79.5,39.5C79.5,68.765,69.267,79,40,79
		C10.736,79,0.5,68.765,0.5,39.5C0.5,10.234,10.736,0,40,0C69.267,0,79.5,10.234,79.5,39.5z"/>
	<linearGradient id="top_edge_highlight_1_" gradientUnits="userSpaceOnUse" x1="47.7109" y1="-0.1699" x2="32.2889" y2="79.1698">
		<stop  offset="0" style="stop-color:#FFFFFF"/>
		<stop  offset="0.1117" style="stop-color:#EBEBEB"/>
		<stop  offset="0.3969" style="stop-color:#BDBDBD"/>
		<stop  offset="0.6503" style="stop-color:#9B9B9B"/>
		<stop  offset="0.86" style="stop-color:#878787"/>
		<stop  offset="1" style="stop-color:#808080"/>
	</linearGradient>
	<path id="top_edge_highlight_26_" style="opacity:0.25;fill:url(#top_edge_highlight_1_);" d="M40.001,79
		C10.837,79,0.5,68.664,0.5,39.499C0.5,10.336,10.837,0,40.001,0C69.164,0,79.5,10.336,79.5,39.499C79.5,68.664,69.164,79,40.001,79
		L40.001,79z M40.001,0.986c-28.795,0-38.514,9.719-38.514,38.513c0,28.796,9.719,38.513,38.514,38.513
		c28.794,0,38.512-9.717,38.512-38.513C78.513,10.705,68.795,0.986,40.001,0.986L40.001,0.986z"/>
	<path style="opacity:0.3;" d="M33.76,38.517c0.301,0.392,0.615,0.762,0.945,1.103c1.517,1.566,3.336,2.539,5.291,2.539
		c1.975,0,3.808-0.99,5.334-2.577c2.078-2.161,3.563-5.435,4.067-8.819c0.111-0.773,0.188-1.553,0.193-2.329
		c0-0.033,0.004-0.065,0.004-0.099c0-6.678-4.295-9.762-9.599-9.762c-5.296,0-9.591,3.084-9.591,9.762c0,1.92,0.368,3.873,1,5.691
		C31.985,35.688,32.78,37.231,33.76,38.517z"/>
	<path style="opacity:0.3;" d="M59.159,55.207c-0.264-3.015-1.682-5.59-5.242-7.395c-2.26-1.146-4.691-2.721-6.373-3.867
		c-0.082-0.052-0.146-0.097-0.222-0.15c-0.28-0.162-0.599-0.262-0.947-0.262c-0.438,0-0.843,0.158-1.16,0.412l-0.287,0.282
		l-2.944,2.907c-0.545,0.544-1.265,0.809-1.983,0.803c-0.718,0.006-1.437-0.259-1.986-0.803l-2.945-2.907l-0.284-0.282
		c-0.319-0.254-0.722-0.412-1.163-0.412c-0.348,0-0.667,0.1-0.947,0.262c-0.074,0.054-0.14,0.099-0.219,0.15
		c-1.684,1.146-4.116,2.721-6.379,3.867c-3.555,1.805-4.974,4.38-5.236,7.395c-0.033,0.359-0.056,0.723-0.056,1.096
		c0,0,0.453,2.824,18.985,2.881h0.215h0.004h0.021h0.002h0.215c18.534-0.057,18.987-2.881,18.987-2.881
		C59.215,55.93,59.191,55.566,59.159,55.207z"/>
	<path style="fill:#FFFFFF;" d="M33.76,39.904c0.301,0.392,0.615,0.762,0.945,1.102c1.517,1.566,3.336,2.541,5.291,2.541
		c1.975,0,3.808-0.992,5.334-2.576c2.078-2.164,3.563-5.436,4.067-8.821c0.111-0.774,0.188-1.553,0.193-2.329
		c0-0.033,0.004-0.066,0.004-0.099c0-6.678-4.295-9.762-9.599-9.762c-5.296,0-9.591,3.084-9.591,9.762c0,1.921,0.368,3.873,1,5.692
		C31.985,37.074,32.78,38.621,33.76,39.904z"/>
	<path style="fill:#FFFFFF;" d="M59.159,56.595c-0.264-3.014-1.682-5.591-5.242-7.394c-2.26-1.146-4.691-2.723-6.373-3.867
		c-0.082-0.053-0.146-0.098-0.222-0.15c-0.28-0.164-0.599-0.262-0.947-0.262c-0.438,0-0.843,0.158-1.16,0.412l-0.287,0.282
		l-2.944,2.907c-0.545,0.543-1.265,0.808-1.983,0.803c-0.718,0.005-1.437-0.26-1.986-0.803l-2.945-2.907l-0.284-0.282
		c-0.319-0.254-0.722-0.412-1.163-0.412c-0.348,0-0.667,0.098-0.947,0.262c-0.074,0.053-0.14,0.098-0.219,0.15
		c-1.684,1.145-4.116,2.721-6.379,3.867c-3.555,1.803-4.974,4.38-5.236,7.394c-0.033,0.36-0.056,0.723-0.056,1.096
		c0,0,0.453,2.826,18.985,2.882h0.215h0.004h0.021h0.002h0.215c18.534-0.056,18.987-2.882,18.987-2.882
		C59.215,57.317,59.191,56.955,59.159,56.595z"/>
</g>
</svg>
