<?xml version="1.0" encoding="iso-8859-1"?>
<!-- Generator: Adobe Illustrator 14.0.0, SVG Export Plug-In . SVG Version: 6.00 Build 43363)  -->
<!DOCTYPE svg PUBLIC "-//W3C//DTD SVG 1.1//EN" "http://www.w3.org/Graphics/SVG/1.1/DTD/svg11.dtd">
<svg version="1.1" id="icon-s-status-notifier-layer"
	 xmlns="http://www.w3.org/2000/svg" xmlns:xlink="http://www.w3.org/1999/xlink" x="0px" y="0px" width="36px" height="18px"
	 viewBox="0 0 36 18" style="enable-background:new 0 0 36 18;" xml:space="preserve">
<g id="icon-s-status-notifier">
	<rect style="fill:none;" width="36" height="18"/>
	<path style="fill:#FFFFFF;" d="M24.663,4.973c-1.966,0-3.983-0.896-5.742-1.661c-1.335-0.58-2.645-1.221-3.923-1.909
		c-1.499-0.81-3.655-1.238-5.412-1.287C9.176,0.103,8.432,0.133,8,0.246V12.99c0.422-0.135,1.172-0.229,1.585-0.298
		c1.732-0.289,3.913,0.479,5.412,1.287c1.279,0.689,2.588,1.33,3.923,1.91c1.759,0.764,3.776,1.66,5.742,1.66
		c0.341,0,0.007-0.017,0.337-0.047V4.925C24.67,4.955,25.004,4.973,24.663,4.973z"/>
</g>
</svg>
