<?xml version="1.0" encoding="iso-8859-1"?>
<!-- Generator: Adobe Illustrator 14.0.0, SVG Export Plug-In . SVG Version: 6.00 Build 43363)  -->
<!DOCTYPE svg PUBLIC "-//W3C//DTD SVG 1.1//EN" "http://www.w3.org/Graphics/SVG/1.1/DTD/svg11.dtd">
<svg version="1.1" id="icon-m-common-packetdata-strength0-layer"
	 xmlns="http://www.w3.org/2000/svg" xmlns:xlink="http://www.w3.org/1999/xlink" x="0px" y="0px" width="64px" height="64px"
	 viewBox="0 0 64 64" style="enable-background:new 0 0 64 64;" xml:space="preserve">
<g id="icon-m-common-packetdata-strength0">
	<rect style="fill:none;" width="64" height="64"/>
	<path style="fill:#333333;" d="M28.818,41.485c2.409-1.333,3.24-3.99,3.24-5.351c0-0.28-0.011-1.095,0.002-1.925L0,34.212
		l12.702,12.626c0,0,0-4.263,0-5.353H28.818z"/>
	<path style="fill:#333333;" d="M11.298,22.506c-0.663,0.256-3.408,2.123-3.408,6.074c0,0,0,0.695,0,1.193L40,29.77L27.266,17.16
		c0,0,0,4.266,0,5.346H11.298z"/>
	<rect x="47.025" y="51.832" style="opacity:0.3;fill:#333333;" width="16.975" height="5"/>
	<rect x="47.025" y="40.665" style="opacity:0.3;fill:#333333;" width="16.975" height="5"/>
	<rect x="47.025" y="29.498" style="opacity:0.3;fill:#333333;" width="16.975" height="5.001"/>
	<rect x="47.025" y="18.332" style="opacity:0.3;fill:#333333;" width="16.975" height="5"/>
	<rect x="47.025" y="7.166" style="opacity:0.3;fill:#333333;" width="16.975" height="5"/>
</g>
</svg>
