<?xml version="1.0" encoding="iso-8859-1"?>
<!-- Generator: Adobe Illustrator 14.0.0, SVG Export Plug-In . SVG Version: 6.00 Build 43363)  -->
<!DOCTYPE svg PUBLIC "-//W3C//DTD SVG 1.1//EN" "http://www.w3.org/Graphics/SVG/1.1/DTD/svg11.dtd">
<svg version="1.1" id="icon-l-camera-layer" xmlns="http://www.w3.org/2000/svg" xmlns:xlink="http://www.w3.org/1999/xlink"
	 x="0px" y="0px" width="80px" height="80px" viewBox="0 0 80 80" style="enable-background:new 0 0 80 80;" xml:space="preserve">
<g id="icon-l-camera_1_">
	<rect style="fill:none;" width="80" height="80"/>
	<path id="_x31__pixel_shadow_21_" style="opacity:0.4;" d="M58.207,77.144c-0.09,0.026-0.182,0.046-0.271,0.07
		c-0.498,0.132-1,0.259-1.52,0.378c-0.521,0.118-1.061,0.227-1.605,0.332c-0.111,0.021-0.219,0.046-0.33,0.067
		c-4.176,0.772-8.979,1.132-14.479,1.132c-5.503,0-10.305-0.359-14.479-1.132c-0.114-0.021-0.219-0.047-0.33-0.067
		c-0.545-0.105-1.085-0.214-1.606-0.332c-0.52-0.119-1.021-0.246-1.519-0.378c-0.09-0.024-0.184-0.044-0.271-0.07
		C6.457,72.99,0.592,61.875,0.506,40.098c0,0.162-0.006,0.314-0.006,0.477C0.5,69.838,10.735,80,40.002,80
		C69.266,80,79.5,69.838,79.5,40.574c0-0.162-0.002-0.314-0.004-0.477C79.41,61.875,73.545,72.99,58.207,77.144"/>
	<path id="flat_colour_squircle_22_" style="fill:#328BB7;" d="M79.5,39.57c0,29.268-10.234,39.502-39.499,39.502
		C10.733,79.072,0.5,68.838,0.5,39.57c0-29.264,10.233-39.498,39.501-39.498C69.266,0.072,79.5,10.307,79.5,39.57"/>
	<linearGradient id="shine_top_layer_2_" gradientUnits="userSpaceOnUse" x1="39.9995" y1="0" x2="39.9995" y2="79.0005">
		<stop  offset="0" style="stop-color:#FFFFFF"/>
		<stop  offset="0.7362" style="stop-color:#FFFFFF;stop-opacity:0"/>
	</linearGradient>
	<path id="shine_top_layer_1_" style="opacity:0.15;fill:url(#shine_top_layer_2_);" d="M79.5,39.5C79.5,68.764,69.266,79,40,79
		C10.736,79,0.5,68.764,0.5,39.5C0.5,10.234,10.736,0,40,0C69.266,0,79.5,10.234,79.5,39.5z"/>
	<linearGradient id="top_edge_highlight_1_" gradientUnits="userSpaceOnUse" x1="47.7109" y1="-0.1699" x2="32.2889" y2="79.1698">
		<stop  offset="0" style="stop-color:#FFFFFF"/>
		<stop  offset="0.1117" style="stop-color:#EBEBEB"/>
		<stop  offset="0.3969" style="stop-color:#BDBDBD"/>
		<stop  offset="0.6503" style="stop-color:#9B9B9B"/>
		<stop  offset="0.86" style="stop-color:#878787"/>
		<stop  offset="1" style="stop-color:#808080"/>
	</linearGradient>
	<path id="top_edge_highlight_21_" style="opacity:0.25;fill:url(#top_edge_highlight_1_);" d="M40.001,79
		C10.837,79,0.5,68.664,0.5,39.5C0.5,10.337,10.837,0,40.001,0C69.164,0,79.5,10.337,79.5,39.5C79.5,68.664,69.164,79,40.001,79
		L40.001,79z M40.001,0.986c-28.795,0-38.514,9.719-38.514,38.514s9.719,38.512,38.514,38.512c28.794,0,38.511-9.717,38.511-38.512
		S68.795,0.986,40.001,0.986L40.001,0.986z"/>
	<path style="opacity:0.3;" d="M24.073,29.606c0.036-0.741,0.646-1.33,1.401-1.33c0.763,0,1.369,0.589,1.404,1.33h7.243
		c1.89-0.921,3.975-1.448,6.03-1.448c2.059,0,4.145,0.527,6.036,1.448h6.004v-1.33h7.496v1.33H62.5v-2.243
		c0-1.029-0.84-1.867-1.875-1.867H29.597v-0.321c0-1.024-0.838-1.853-1.875-1.853h-3.853c-1.031,0-1.87,0.828-1.87,1.853v0.321
		h-2.622c-1.032,0-1.876,0.838-1.876,1.867v2.243H24.073z"/>
	<path style="opacity:0.25;" d="M60.625,27.014H29.597v-0.322c0-1.023-0.838-1.852-1.875-1.852h-3.853
		c-1.031,0-1.87,0.828-1.87,1.852v0.322h-2.622c-1.032,0-1.876,0.837-1.876,1.865v24.985c0,1.03,0.844,1.867,1.876,1.867h41.249
		c1.035,0,1.875-0.837,1.875-1.867V28.879C62.5,27.851,61.66,27.014,60.625,27.014"/>
	<path style="fill:#FFFFFF;" d="M40.152,31.99c-5.175,0-9.37,4.15-9.37,9.266c0,5.114,4.195,9.263,9.37,9.263
		c5.184,0,9.377-4.148,9.377-9.263C49.529,36.141,45.336,31.99,40.152,31.99 M40.152,47.172c-3.3,0-5.981-2.65-5.981-5.916
		c0-3.27,2.682-5.918,5.981-5.918c3.313,0,5.993,2.648,5.993,5.918C46.145,44.521,43.465,47.172,40.152,47.172"/>
	<path style="fill:#FFFFFF;" d="M60.625,27.014H29.597v-0.322c0-1.023-0.838-1.852-1.875-1.852h-3.853
		c-1.031,0-1.87,0.828-1.87,1.852v0.322h-2.622c-1.032,0-1.876,0.837-1.876,1.865v24.985c0,1.03,0.844,1.867,1.876,1.867h41.249
		c1.035,0,1.875-0.837,1.875-1.867V28.879C62.5,27.851,61.66,27.014,60.625,27.014 M25.474,32.586c-0.779,0-1.408-0.625-1.408-1.396
		c0-0.772,0.629-1.397,1.408-1.397c0.786,0,1.411,0.625,1.411,1.397C26.885,31.961,26.26,32.586,25.474,32.586 M40.152,52.834
		c-6.465,0-11.717-5.184-11.717-11.58c0-6.394,5.252-11.579,11.717-11.579c6.473,0,11.725,5.186,11.725,11.579
		C51.877,47.65,46.625,52.834,40.152,52.834 M59.688,32.572h-7.496v-2.779h7.496V32.572z"/>
</g>
</svg>
