<?xml version="1.0" encoding="iso-8859-1"?>
<!-- Generator: Adobe Illustrator 14.0.0, SVG Export Plug-In . SVG Version: 6.00 Build 43363)  -->
<!DOCTYPE svg PUBLIC "-//W3C//DTD SVG 1.1//EN" "http://www.w3.org/Graphics/SVG/1.1/DTD/svg11.dtd">
<svg version="1.1" id="icon-l-gallery-layer" xmlns="http://www.w3.org/2000/svg" xmlns:xlink="http://www.w3.org/1999/xlink"
	 x="0px" y="0px" width="46px" height="46px" viewBox="0 0 46 46" style="enable-background:new 0 0 46 46;" xml:space="preserve">
<g id="icon-l-gallery_1_">
	<path style="fill:#00A79C;" d="M11.77,29.858c-0.114,0.238-0.354,0.407-0.636,0.407H8.308c-0.389,0-0.706-0.316-0.706-0.706v-2.794
		c0-0.387,0.317-0.706,0.706-0.706h2.826c0.282,0,0.522,0.169,0.636,0.408l0.061-17.003h0.011V9.441h20.101v6.273h4.141v-6.25h1.774
		V7.689h-1.902c-0.39,0-0.707-0.948-0.707-1.339V3.525c0-0.389,0.317-0.707,0.707-0.707h1.902V0H0v2.785v0.033h1.92
		c0.388,0,0.706,0.318,0.706,0.707v2.794c0,0.387-0.318,1.338-0.706,1.338H0v0.032v1.752v0.023h8.281V23.66H0v0.023v2.343v0.033
		h1.92c0.388,0,0.706,0.319,0.706,0.706v2.794c0,0.39-0.318,0.706-0.706,0.706H0V30.3v2.233h11.77V29.858z M26.062,3.525
		c0-0.389,0.318-0.707,0.707-0.707h2.826c0.388,0,0.706,0.318,0.706,0.707v2.825c0,0.391-0.318,1.339-0.706,1.339h-2.826
		c-0.389,0-0.707-0.948-0.707-1.339V3.525z M16.846,3.525c0-0.389,0.319-0.707,0.708-0.707h2.827c0.389,0,0.705,0.318,0.705,0.707
		v2.825c0,0.391-0.316,1.339-0.705,1.339h-2.827c-0.388,0-0.708-0.948-0.708-1.339V3.525z M7.602,6.319V3.525
		c0-0.389,0.317-0.707,0.706-0.707h2.826c0.39,0,0.708,0.318,0.708,0.707v2.794c0,0.387-0.318,1.338-0.708,1.338H8.308
		C7.919,7.657,7.602,6.706,7.602,6.319z M32.014,27.918c0-0.937,0.753-1.692,1.681-1.692c0.215,0,0.419,0.042,0.606,0.12
		c0.271-1.197,1.1-2.07,2.08-2.07s1.808,0.873,2.078,2.07c0.189-0.078,0.393-0.12,0.606-0.12c0.931,0,1.683,0.756,1.683,1.692
		c0,0.933-0.752,1.688-1.683,1.688c-0.423,0-0.808-0.166-1.104-0.423c-0.396,0.562-0.957,0.916-1.58,0.916
		c-0.625,0-1.185-0.354-1.58-0.916c-0.297,0.257-0.682,0.423-1.106,0.423C32.767,29.606,32.014,28.851,32.014,27.918z M40.486,41.14
		H20.228c4.692-17.596,9.751-10.817,12.257-5.022C36.659,26.881,40.486,41.14,40.486,41.14z M15,19.574v26.141h30.715V19.574H15z
		 M17.614,43.1V22.123l25.486-0.021V43.1H17.614z"/>
</g>
</svg>
