<?xml version="1.0" encoding="iso-8859-1"?>
<!-- Generator: Adobe Illustrator 14.0.0, SVG Export Plug-In . SVG Version: 6.00 Build 43363)  -->
<!DOCTYPE svg PUBLIC "-//W3C//DTD SVG 1.1//EN" "http://www.w3.org/Graphics/SVG/1.1/DTD/svg11.dtd">
<svg version="1.1" id="icon-m-common-packetdata-strength1-layer"
	 xmlns="http://www.w3.org/2000/svg" xmlns:xlink="http://www.w3.org/1999/xlink" x="0px" y="0px" width="64px" height="64px"
	 viewBox="0 0 64 64" style="enable-background:new 0 0 64 64;" xml:space="preserve">
<g id="icon-m-common-packetdata-strength1">
	<rect style="fill:none;" width="64" height="64"/>
	<path style="fill:#333333;" d="M28.818,41.487c2.409-1.334,3.24-3.989,3.24-5.352c0-0.279-0.011-1.094,0.002-1.924L0,34.214
		l12.702,12.625c0,0,0-4.264,0-5.352H28.818z"/>
	<path style="fill:#333333;" d="M11.298,22.507c-0.663,0.257-3.408,2.123-3.408,6.075c0,0,0,0.694,0,1.192L40,29.771L27.266,17.162
		c0,0,0,4.265,0,5.345H11.298z"/>
	<rect x="47.025" y="51.832" style="fill:#333333;" width="16.975" height="5"/>
	<rect x="47.025" y="40.666" style="opacity:0.3;fill:#333333;" width="16.975" height="5"/>
	<rect x="47.025" y="29.5" style="opacity:0.3;fill:#333333;" width="16.975" height="5"/>
	<rect x="47.025" y="18.334" style="opacity:0.3;fill:#333333;" width="16.975" height="5"/>
	<rect x="47.025" y="7.167" style="opacity:0.3;fill:#333333;" width="16.975" height="5"/>
</g>
</svg>
