<?xml version="1.0" encoding="iso-8859-1"?>
<!-- Generator: Adobe Illustrator 14.0.0, SVG Export Plug-In . SVG Version: 6.00 Build 43363)  -->
<!DOCTYPE svg PUBLIC "-//W3C//DTD SVG 1.1//EN" "http://www.w3.org/Graphics/SVG/1.1/DTD/svg11.dtd">
<svg version="1.1" id="icon-l-mail-layer" xmlns="http://www.w3.org/2000/svg" xmlns:xlink="http://www.w3.org/1999/xlink" x="0px"
	 y="0px" width="84px" height="84px" viewBox="0 0 84 84" style="enable-background:new 0 0 84 84;" xml:space="preserve">
<g id="icon-l-mail">
	<g>
		<path style="fill:#F78F20;" d="M43.096,84C76.688,84,84,69.25,84,42.063c0-27.256-7.516-42.055-40.904-42.055L40.898,0
			C7.311,0,0,14.755,0,41.942c0,27.251,7.514,42.054,40.898,42.054L43.096,84z"/>
	</g>
	<linearGradient id="SVGID_1_" gradientUnits="userSpaceOnUse" x1="41.9985" y1="21.96" x2="41.9985" y2="213.1843">
		<stop  offset="0" style="stop-color:#FFFFFF"/>
		<stop  offset="1" style="stop-color:#B3B2C9"/>
	</linearGradient>
	<path style="fill:url(#SVGID_1_);" d="M60.021,23.978C56.032,19.988,50.431,18,43.209,18c-4.722,0-9.04,0.948-12.946,2.876
		c-3.905,1.916-6.932,4.659-9.055,8.237c-2.144,3.592-3.209,7.809-3.209,12.675c0,7.79,2.288,13.761,6.866,17.939
		C29.435,63.911,35.609,66,43.384,66c1.931,0,4.138-0.211,6.669-0.604c2.5-0.407,4.561-0.902,6.107-1.469v-4.931
		c-4.273,1.429-8.384,2.133-12.285,2.133c-6.599,0-11.538-1.633-14.843-4.921c-3.308-3.261-4.948-8.173-4.948-14.702
		c0-5.841,1.788-10.426,5.39-13.721c3.573-3.316,8.186-4.973,13.864-4.973c5.4,0,9.587,1.574,12.546,4.721
		c2.956,3.16,4.422,7.577,4.422,13.283c0,3.238-0.431,5.751-1.329,7.528c-0.912,1.802-2.137,2.685-3.701,2.685
		c-1.214,0-2.068-0.363-2.582-1.052c-0.501-0.707-0.76-2.179-0.76-4.429c0-3.701,0.684-9.314,2.066-16.867h-8.496
		c-4.828,0-8.669,1.447-11.556,4.314c-2.869,2.871-4.322,6.82-4.322,11.883c0,3.237,0.846,5.785,2.487,7.688
		c1.661,1.885,3.686,2.835,6.068,2.835c3.56,0,6.368-1.824,8.438-5.425c0.482,1.699,1.399,3.037,2.703,3.976
		c1.301,0.982,2.821,1.449,4.566,1.449c3.757,0,6.736-1.307,8.882-3.893c2.167-2.562,3.229-6.208,3.229-10.943
		C65.999,33.5,64.012,27.965,60.021,23.978z M45.328,41.443c-0.79,6.355-2.463,9.521-5.031,9.521c-1.372,0-2.343-0.504-2.898-1.551
		c-0.564-1.049-0.837-2.648-0.837-4.821c0-3.511,0.767-6.283,2.27-8.347c1.538-2.077,3.378-3.104,5.5-3.104h2.058L45.328,41.443z"/>
</g>
</svg>
