<?xml version="1.0" encoding="iso-8859-1"?>
<!-- Generator: Adobe Illustrator 14.0.0, SVG Export Plug-In . SVG Version: 6.00 Build 43363)  -->
<!DOCTYPE svg PUBLIC "-//W3C//DTD SVG 1.1//EN" "http://www.w3.org/Graphics/SVG/1.1/DTD/svg11.dtd">
<svg version="1.1" id="iocn-l-mms-layer" xmlns="http://www.w3.org/2000/svg" xmlns:xlink="http://www.w3.org/1999/xlink" x="0px"
	 y="0px" width="84px" height="84px" viewBox="0 0 84 84" style="enable-background:new 0 0 84 84;" xml:space="preserve">
<g id="iocn-l-mms">
	<g>
		<path style="fill:#75336B;" d="M43.096,84C76.688,84,84,69.25,84,42.063c0-27.256-7.516-42.055-40.904-42.055L40.898,0
			C7.311,0,0,14.755,0,41.942c0,27.251,7.514,42.054,40.898,42.054L43.096,84z"/>
	</g>
	<linearGradient id="SVGID_1_" gradientUnits="userSpaceOnUse" x1="41.9995" y1="23.0791" x2="41.9995" y2="203.632">
		<stop  offset="0" style="stop-color:#FFFFFF"/>
		<stop  offset="1" style="stop-color:#B3B2C9"/>
	</linearGradient>
	<path style="fill:url(#SVGID_1_);" d="M59.625,26.193l-20.561,9.006L18.5,26.193v-5.568c0-0.707,0.578-1.285,1.287-1.285H58.34
		c0.707,0,1.285,0.578,1.285,1.285V26.193z M59.625,36.965v-6.004l-13.732,6.004H59.625z M33.838,37.666L18.5,30.961v16.191
		c0,0.706,0.578,1.283,1.287,1.283h14.051V37.666z M55.078,50.697c0.369,0,0.703-0.145,0.961-0.367
		c0.342,0.486,0.828,0.793,1.369,0.793c0.539,0,1.025-0.307,1.369-0.793c0.258,0.223,0.592,0.367,0.957,0.367
		c0.809,0,1.459-0.656,1.459-1.465c0-0.811-0.65-1.467-1.459-1.467c-0.184,0-0.359,0.037-0.525,0.105
		c-0.234-1.039-0.951-1.796-1.801-1.796s-1.568,0.757-1.803,1.796c-0.162-0.068-0.34-0.105-0.527-0.105
		c-0.805,0-1.455,0.656-1.455,1.467C53.623,50.041,54.273,50.697,55.078,50.697z M54.031,56.34
		c-2.172-5.021-6.559-10.898-10.627,4.355h17.562C60.967,60.695,57.65,48.334,54.031,56.34z M65.5,42v22.661H38.873V42H65.5z
		 M63.234,62.394V44.192L41.139,44.21v18.184H63.234z"/>
</g>
</svg>
