<?xml version="1.0" encoding="iso-8859-1"?>
<!-- Generator: Adobe Illustrator 14.0.0, SVG Export Plug-In . SVG Version: 6.00 Build 43363)  -->
<!DOCTYPE svg PUBLIC "-//W3C//DTD SVG 1.1//EN" "http://www.w3.org/Graphics/SVG/1.1/DTD/svg11.dtd">
<svg version="1.1" id="camera-layer" xmlns="http://www.w3.org/2000/svg" xmlns:xlink="http://www.w3.org/1999/xlink" x="0px"
	 y="0px" width="89px" height="1369px" viewBox="0 0 89 1369" style="enable-background:new 0 0 89 1369;" xml:space="preserve">
<g id="camera">
	<g id="camera-capturemodebutton-top-background">
		<path style="opacity:0.4;fill:#010101;" d="M76.719,1281.678H11.283c-6.205,0-11.282,4.482-11.282,9.963v78.037h88v-78.037
			C88.001,1286.16,82.923,1281.678,76.719,1281.678z"/>
		<path style="opacity:0.5;fill:#FFFFFF;" d="M76.719,1281.678H11.283c-6.205,0-11.282,4.482-11.282,9.963v78.037h1.127v-78.037
			c0-4.951,4.548-8.967,10.155-8.967h65.436c5.609,0,10.153,4.016,10.153,8.967v78.037h1.129v-78.037
			C88.001,1286.16,82.923,1281.678,76.719,1281.678z"/>
		<path style="opacity:0.5;fill:#010101;" d="M76.719,1282.674H11.284c-5.607,0-10.155,4.016-10.155,8.967v78.037h1.128v-78.037
			c0-4.402,4.042-7.97,9.027-7.97h65.435c4.986,0,9.025,3.567,9.025,7.97v78.037h1.129v-78.037
			C86.873,1286.689,82.328,1282.674,76.719,1282.674z"/>
		<rect x="11.668" y="1368.678" style="opacity:0.4;fill:#010101;" width="64.666" height="1"/>
	</g>
	<g id="camera-capturemodebutton-top-background-pressed">
		<path style="opacity:0.4;fill:#F9A01B;" d="M76.718,1146.965H11.282c-6.205,0-11.282,4.482-11.282,9.963v78.037h88v-78.037
			C88,1151.447,82.922,1146.965,76.718,1146.965z"/>
		<path style="opacity:0.5;fill:#FFFFFF;" d="M76.718,1146.965H11.282c-6.205,0-11.282,4.482-11.282,9.963v78.037h1.127v-78.037
			c0-4.952,4.548-8.967,10.155-8.967h65.436c5.609,0,10.153,4.015,10.153,8.967v78.037H88v-78.037
			C88,1151.447,82.922,1146.965,76.718,1146.965z"/>
		<path style="opacity:0.5;fill:#010101;" d="M76.718,1147.961H11.282c-5.607,0-10.154,4.015-10.154,8.967v78.037h1.128v-78.037
			c0-4.402,4.042-7.971,9.026-7.971h65.436c4.986,0,9.025,3.568,9.025,7.971v78.037h1.129v-78.037
			C86.872,1151.976,82.327,1147.961,76.718,1147.961z"/>
		<rect x="11.667" y="1233.965" style="opacity:0.4;fill:#010101;" width="64.666" height="1"/>
	</g>
	<g id="camera-capturesettingsbutton-bottom-background">
		<path style="opacity:0.4;fill:#010101;" d="M11.283,1096.177h65.436c6.205,0,11.282-4.483,11.282-9.963v-78.037h-88v78.037
			C0.001,1091.693,5.079,1096.177,11.283,1096.177z"/>
		<path style="opacity:0.5;fill:#FFFFFF;" d="M11.283,1096.177h65.436c6.205,0,11.282-4.483,11.282-9.963v-78.037h-1.127v78.037
			c0,4.952-4.548,8.966-10.155,8.966H11.283c-5.609,0-10.153-4.014-10.153-8.966v-78.037H0.001v78.037
			C0.001,1091.693,5.079,1096.177,11.283,1096.177z"/>
		<path style="opacity:0.5;fill:#010101;" d="M11.282,1095.18h65.436c5.607,0,10.155-4.014,10.155-8.966v-78.037h-1.128v78.037
			c0,4.402-4.042,7.97-9.027,7.97H11.282c-4.985,0-9.025-3.567-9.025-7.97v-78.037H1.129v78.037
			C1.129,1091.166,5.673,1095.18,11.282,1095.18z"/>
		<rect x="11.668" y="1008.177" style="opacity:0.25;fill:#FFFFFF;" width="64.666" height="1"/>
	</g>
	<g id="camera-capturesettingsbutton-bottom-background-pressed">
		<path style="opacity:0.4;fill:#F9A01B;" d="M11.283,959.427h65.436c6.205,0,11.282-4.482,11.282-9.963v-78.037h-88v78.037
			C0.001,954.944,5.079,959.427,11.283,959.427z"/>
		<path style="opacity:0.5;fill:#FFFFFF;" d="M11.283,959.427h65.436c6.205,0,11.282-4.482,11.282-9.963v-78.037h-1.127v78.037
			c0,4.952-4.548,8.967-10.155,8.967H11.283c-5.609,0-10.153-4.015-10.153-8.967v-78.037H0.001v78.037
			C0.001,954.944,5.079,959.427,11.283,959.427z"/>
		<path style="opacity:0.5;fill:#010101;" d="M11.282,958.431h65.436c5.607,0,10.155-4.015,10.155-8.967v-78.037h-1.128v78.037
			c0,4.402-4.042,7.971-9.027,7.971H11.282c-4.985,0-9.025-3.568-9.025-7.971v-78.037H1.129v78.037
			C1.129,954.416,5.673,958.431,11.282,958.431z"/>
		<rect x="11.668" y="871.427" style="opacity:0.25;fill:#FFFFFF;" width="64.666" height="1"/>
	</g>
	<g id="camera-capturemodebutton-left-background">
		<path style="opacity:0.4;fill:#010101;" d="M0.001,745.958v65.436c0,6.205,4.483,11.283,9.963,11.283h78.037v-88H9.964
			C4.484,734.677,0.001,739.755,0.001,745.958z"/>
		<path style="opacity:0.5;fill:#FFFFFF;" d="M0.001,745.958v65.436c0,6.205,4.483,11.283,9.963,11.283h78.037v-1.127H9.964
			c-4.952,0-8.966-4.549-8.966-10.156v-65.436c0-5.609,4.015-10.152,8.966-10.152h78.037v-1.129H9.964
			C4.484,734.677,0.001,739.755,0.001,745.958z"/>
		<path style="opacity:0.5;fill:#010101;" d="M0.998,745.958v65.436c0,5.607,4.015,10.154,8.966,10.154h78.037v-1.127H9.964
			c-4.402,0-7.97-4.043-7.97-9.027v-65.436c0-4.985,3.567-9.025,7.97-9.025h78.037v-1.128H9.964
			C5.012,735.805,0.998,740.349,0.998,745.958z"/>
		<rect x="87.001" y="746.343" style="opacity:0.4;fill:#010101;" width="1" height="64.666"/>
	</g>
	<g id="camera-capturemodebutton-left-background-pressed">
		<path style="opacity:0.4;fill:#F9A01B;" d="M0.001,609.209v65.436c0,6.205,4.483,11.282,9.963,11.282h78.037v-88H9.964
			C4.484,597.927,0.001,603.005,0.001,609.209z"/>
		<path style="opacity:0.5;fill:#FFFFFF;" d="M0.001,609.209v65.436c0,6.205,4.483,11.282,9.963,11.282h78.037V684.8H9.964
			c-4.952,0-8.966-4.548-8.966-10.155v-65.436c0-5.609,4.015-10.153,8.966-10.153h78.037v-1.129H9.964
			C4.484,597.927,0.001,603.005,0.001,609.209z"/>
		<path style="opacity:0.5;fill:#010101;" d="M0.998,609.209v65.436c0,5.607,4.015,10.154,8.966,10.154h78.037v-1.128H9.964
			c-4.402,0-7.97-4.042-7.97-9.026v-65.436c0-4.986,3.567-9.025,7.97-9.025h78.037v-1.129H9.964
			C5.012,599.055,0.998,603.6,0.998,609.209z"/>
		<rect x="87.001" y="609.594" style="opacity:0.4;fill:#010101;" width="1" height="64.666"/>
	</g>
	<g id="camera-capturesettingsbutton-right-background">
		<path style="opacity:0.4;fill:#010101;" d="M88.001,537.893v-65.436c0-6.205-4.482-11.281-9.963-11.281H0.001v88h78.037
			C83.519,549.176,88.001,544.098,88.001,537.893z"/>
		<path style="opacity:0.5;fill:#FFFFFF;" d="M88.001,537.893v-65.436c0-6.205-4.482-11.281-9.963-11.281H0.001v1.127h78.037
			c4.952,0,8.967,4.547,8.967,10.154v65.436c0,5.609-4.015,10.154-8.967,10.154H0.001v1.129h78.037
			C83.519,549.176,88.001,544.098,88.001,537.893z"/>
		<path style="opacity:0.5;fill:#010101;" d="M87.005,537.895v-65.436c0-5.607-4.015-10.156-8.967-10.156H0.001v1.129h78.037
			c4.402,0,7.97,4.041,7.97,9.027v65.436c0,4.984-3.567,9.025-7.97,9.025H0.001v1.127h78.037
			C82.99,548.047,87.005,543.504,87.005,537.895z"/>
		<rect x="0.001" y="472.842" style="opacity:0.25;fill:#FFFFFF;" width="1" height="64.666"/>
	</g>
	<g id="camera-capturesettingsbutton-right-background-pressed">
		<path style="opacity:0.4;fill:#F9A01B;" d="M88.001,401.143v-65.436c0-6.205-4.482-11.281-9.963-11.281H0.001v88h78.037
			C83.519,412.426,88.001,407.348,88.001,401.143z"/>
		<path style="opacity:0.5;fill:#FFFFFF;" d="M88.001,401.143v-65.436c0-6.205-4.482-11.281-9.963-11.281H0.001v1.127h78.037
			c4.952,0,8.967,4.547,8.967,10.154v65.436c0,5.609-4.015,10.154-8.967,10.154H0.001v1.129h78.037
			C83.519,412.426,88.001,407.348,88.001,401.143z"/>
		<path style="opacity:0.5;fill:#010101;" d="M87.005,401.145v-65.436c0-5.607-4.015-10.156-8.967-10.156H0.001v1.129h78.037
			c4.402,0,7.97,4.041,7.97,9.027v65.436c0,4.984-3.567,9.025-7.97,9.025H0.001v1.127h78.037
			C82.99,411.297,87.005,406.754,87.005,401.145z"/>
		<rect x="0.001" y="336.092" style="opacity:0.25;fill:#FFFFFF;" width="1" height="64.666"/>
	</g>
	<g id="camera-capturezoomslider-background">
		<path style="opacity:0.4;fill:#010101;" d="M79.503,281.076c0,5.5-4.5,10-10,10h-52c-5.5,0-10-4.5-10-10v-52c0-5.5,4.5-10,10-10
			h52c5.5,0,10,4.5,10,10V281.076z"/>
		<path style="opacity:0.5;fill:#FFFFFF;" d="M69.503,220.076c4.963,0,9,4.037,9,9v52c0,4.963-4.037,9-9,9h-52c-4.963,0-9-4.037-9-9
			v-52c0-4.963,4.037-9,9-9H69.503 M69.503,219.076h-52c-5.5,0-10,4.5-10,10v52c0,5.5,4.5,10,10,10h52c5.5,0,10-4.5,10-10v-52
			C79.503,223.576,75.003,219.076,69.503,219.076L69.503,219.076z"/>
		<path style="fill:#010101;" d="M69.503,221.076c4.411,0,8,3.589,8,8v52c0,4.411-3.589,8-8,8h-52c-4.411,0-8-3.589-8-8v-52
			c0-4.411,3.589-8,8-8H69.503 M69.503,220.076h-52c-4.95,0-9,4.05-9,9v52c0,4.95,4.05,9,9,9h52c4.95,0,9-4.05,9-9v-52
			C78.503,224.126,74.453,220.076,69.503,220.076L69.503,220.076z"/>
	</g>
	<g id="cemera-videocapturebutton-background">
		<path style="opacity:0.4;fill:#010101;" d="M79.503,188.081c0,5.5-4.5,10-10,10h-52c-5.5,0-10-4.5-10-10v-52c0-5.5,4.5-10,10-10
			h52c5.5,0,10,4.5,10,10V188.081z"/>
		<path style="opacity:0.5;fill:#FFFFFF;" d="M69.503,127.081c4.963,0,9,4.037,9,9v52c0,4.963-4.037,9-9,9h-52c-4.963,0-9-4.037-9-9
			v-52c0-4.963,4.037-9,9-9H69.503 M69.503,126.081h-52c-5.5,0-10,4.5-10,10v52c0,5.5,4.5,10,10,10h52c5.5,0,10-4.5,10-10v-52
			C79.503,130.581,75.003,126.081,69.503,126.081L69.503,126.081z"/>
		<path style="fill:#010101;" d="M69.503,128.081c4.411,0,8,3.589,8,8v52c0,4.411-3.589,8-8,8h-52c-4.411,0-8-3.589-8-8v-52
			c0-4.411,3.589-8,8-8H69.503 M69.503,127.081h-52c-4.95,0-9,4.05-9,9v52c0,4.95,4.05,9,9,9h52c4.95,0,9-4.05,9-9v-52
			C78.503,131.131,74.453,127.081,69.503,127.081L69.503,127.081z"/>
	</g>
	<g id="camera-panoramastitchingbutton-background">
		<path style="opacity:0.4;fill:#010101;" d="M79.503,96.586c0,5.5-4.5,10-10,10h-52c-5.5,0-10-4.5-10-10v-52c0-5.5,4.5-10,10-10h52
			c5.5,0,10,4.5,10,10V96.586z"/>
		<path style="opacity:0.5;fill:#FFFFFF;" d="M69.503,35.586c4.963,0,9,4.037,9,9v52c0,4.963-4.037,9-9,9h-52c-4.963,0-9-4.037-9-9
			v-52c0-4.963,4.037-9,9-9H69.503 M69.503,34.586h-52c-5.5,0-10,4.5-10,10v52c0,5.5,4.5,10,10,10h52c5.5,0,10-4.5,10-10v-52
			C79.503,39.086,75.003,34.586,69.503,34.586L69.503,34.586z"/>
		<path style="fill:#010101;" d="M69.503,36.586c4.411,0,8,3.589,8,8v52c0,4.411-3.589,8-8,8h-52c-4.411,0-8-3.589-8-8v-52
			c0-4.411,3.589-8,8-8H69.503 M69.503,35.586h-52c-4.95,0-9,4.05-9,9v52c0,4.95,4.05,9,9,9h52c4.95,0,9-4.05,9-9v-52
			C78.503,39.636,74.453,35.586,69.503,35.586L69.503,35.586z"/>
	</g>
	<g id="camera-exposurevalue-tickmark">
		<rect x="39.499" y="1" style="opacity:0.5;fill:#231F20;" width="5" height="10"/>
		<rect x="44.499" y="1" style="fill:#FFFFFF;" width="5" height="10"/>
	</g>
</g>
</svg>
