<?xml version="1.0" encoding="iso-8859-1"?>
<!-- Generator: Adobe Illustrator 14.0.0, SVG Export Plug-In . SVG Version: 6.00 Build 43363)  -->
<!DOCTYPE svg PUBLIC "-//W3C//DTD SVG 1.1//EN" "http://www.w3.org/Graphics/SVG/1.1/DTD/svg11.dtd">
<svg version="1.1" id="icon-m-telephony-call-end-layer"
	 xmlns="http://www.w3.org/2000/svg" xmlns:xlink="http://www.w3.org/1999/xlink" x="0px" y="0px" width="64px" height="64px"
	 viewBox="0 0 64 64" style="enable-background:new 0 0 64 64;" xml:space="preserve">
<g id="icon-m-telephony-call-end">
	<rect style="fill:none;" width="64" height="64"/>
	<path style="fill:#EC2227;" d="M22.881,51.64c0,0-0.859-5.263,1.437-5.784c1.592-0.359,13.759-0.353,15.351,0.01
		c2.303,0.525,1.457,5.79,1.457,5.79L22.881,51.64z"/>
	<path style="fill:#EC2227;" d="M55.713,34.905c-10.103-3.646-35.755-5.297-47.505-0.04c-5.146,2.303-8.129,11.101-7.659,15.226
		c-0.01,0.009,0.19,2.173,2.08,2.054l14.526-2.143c0.961-0.119,2.083-0.414,2.076-2.114c0,0-1.204-7.364,2.008-8.093
		c2.228-0.496,19.243-0.482,21.468,0.016c3.219,0.738,2.039,8.103,2.039,8.103c0.004,1.703,1.129,1.987,2.086,2.108l14.545,2.178
		c1.898,0.114,2.086-2.053,2.08-2.059C63.891,46.024,61.039,36.832,55.713,34.905z"/>
</g>
</svg>
