<?xml version="1.0" encoding="iso-8859-1"?>
<!-- Generator: Adobe Illustrator 14.0.0, SVG Export Plug-In . SVG Version: 6.00 Build 43363)  -->
<!DOCTYPE svg PUBLIC "-//W3C//DTD SVG 1.1//EN" "http://www.w3.org/Graphics/SVG/1.1/DTD/svg11.dtd">
<svg version="1.1" id="icon-m-input-methods-error-correction-layer"
	 xmlns="http://www.w3.org/2000/svg" xmlns:xlink="http://www.w3.org/1999/xlink" x="0px" y="0px" width="65px" height="64px"
	 viewBox="0 0 65 64" style="enable-background:new 0 0 65 64;" xml:space="preserve">
<g id="icon-m-input-methods-error-correction">
	<rect x="1" style="fill:none;" width="64" height="64"/>
	<path style="fill:#333333;" d="M8.461,62.467L2.49,56.494c-2.06-2.059-1.84-5.629,0.489-7.958l7.029-7.028l13.443,13.443
		l-7.027,7.029C14.094,64.309,10.524,64.528,8.461,62.467L8.461,62.467z M9.764,45.488l-4.916,4.916
		c-1.166,1.165-1.275,2.951-0.247,3.978l5.971,5.974c1.031,1.029,2.816,0.921,3.982-0.244l4.916-4.917L9.764,45.488L9.764,45.488z"
		/>
	<path style="fill:#333333;" d="M13.745,39.176l12.043,12.069c0.662,0.664,1.748,0.664,2.41,0l28.738-28.782
		c0.66-0.663,1.445-1.934,1.742-2.824l6.156-18.473c0.297-0.891-0.189-1.375-1.078-1.078L45.309,6.242
		c-0.891,0.297-2.162,1.084-2.822,1.746L13.745,36.762C13.083,37.426,13.083,38.512,13.745,39.176z M53.283,7.939l3.705,3.706
		l-2.459,7.376l-3.26,3.266l-8.541-8.695l3.191-3.193L53.283,7.939z"/>
	<polygon style="fill:#333333;" points="62.488,64 62.488,57.679 32.278,57.679 25.911,64 	"/>
</g>
</svg>
