<?xml version="1.0" encoding="UTF-8" standalone="no"?>
<!-- Generator: Adobe Illustrator 14.0.0, SVG Export Plug-In . SVG Version: 6.00 Build 43363)  -->

<svg
   xmlns:dc="http://purl.org/dc/elements/1.1/"
   xmlns:cc="http://creativecommons.org/ns#"
   xmlns:rdf="http://www.w3.org/1999/02/22-rdf-syntax-ns#"
   xmlns:svg="http://www.w3.org/2000/svg"
   xmlns="http://www.w3.org/2000/svg"
   xmlns:sodipodi="http://sodipodi.sourceforge.net/DTD/sodipodi-0.dtd"
   xmlns:inkscape="http://www.inkscape.org/namespaces/inkscape"
   version="1.1"
   id="icon-m-framework-viewmenu-arrow-layer"
   x="0px"
   y="0px"
   width="24"
   height="24"
   viewBox="0 0 24 24"
   xml:space="preserve"
   inkscape:version="0.47pre4 r22446"
   sodipodi:docname="icon-m-framework-viewmenu-arrow.svg"><metadata
   id="metadata14"><rdf:RDF><cc:Work
       rdf:about=""><dc:format>image/svg+xml</dc:format><dc:type
         rdf:resource="http://purl.org/dc/dcmitype/StillImage" /></cc:Work></rdf:RDF></metadata><defs
   id="defs12"><inkscape:perspective
     sodipodi:type="inkscape:persp3d"
     inkscape:vp_x="0 : 32 : 1"
     inkscape:vp_y="0 : 1000 : 0"
     inkscape:vp_z="64 : 32 : 1"
     inkscape:persp3d-origin="32 : 21.333333 : 1"
     id="perspective16" /></defs><sodipodi:namedview
   pagecolor="#ffffff"
   bordercolor="#666666"
   borderopacity="1"
   objecttolerance="10"
   gridtolerance="10"
   guidetolerance="10"
   inkscape:pageopacity="0"
   inkscape:pageshadow="2"
   inkscape:window-width="2560"
   inkscape:window-height="1532"
   id="namedview10"
   showgrid="true"
   inkscape:zoom="43.663844"
   inkscape:cx="13.886105"
   inkscape:cy="12.765814"
   inkscape:window-x="0"
   inkscape:window-y="25"
   inkscape:window-maximized="1"
   inkscape:current-layer="icon-m-framework-viewmenu-arrow-layer"><inkscape:grid
     type="xygrid"
     id="grid3594"
     empspacing="5"
     visible="true"
     enabled="true"
     snapvisiblegridlinesonly="true" /></sodipodi:namedview>
<g
   id="icon-m-framework-viewmenu-arrow"
   transform="matrix(0.375,0,0,0.375,-2.229e-6,2e-6)">
	<rect
   style="fill:none"
   width="64"
   height="64"
   id="rect4"
   x="0"
   y="0" />
	<g
   id="g6"
   style="fill:#ffffff;fill-opacity:1"
   transform="matrix(5.0537898,0,0,4.9749134,-218.3968,-121.64142)">
		<path
   style="fill:#ffffff;fill-opacity:1"
   d="m 50.074,36.413 c -0.253,0.506 -0.666,0.506 -0.92,0 L 46.99,32.086 C 46.738,31.58 46.324,30.752 46.071,30.247 L 43.908,25.92 C 43.654,25.414 43.91,25 44.476,25 h 4.11 c 0.566,0 1.491,0 2.057,0 h 4.11 c 0.565,0 0.821,0.414 0.567,0.92 l -2.163,4.327 c -0.253,0.505 -0.667,1.333 -0.919,1.839 l -2.164,4.327 z"
   id="path8" />
	</g>
</g>
</svg>