<?xml version="1.0" encoding="iso-8859-1"?>
<!-- Generator: Adobe Illustrator 14.0.0, SVG Export Plug-In . SVG Version: 6.00 Build 43363)  -->
<!DOCTYPE svg PUBLIC "-//W3C//DTD SVG 1.1//EN" "http://www.w3.org/Graphics/SVG/1.1/DTD/svg11.dtd">
<svg version="1.1" id="icon-s-status-presence-online-layer"
	 xmlns="http://www.w3.org/2000/svg" xmlns:xlink="http://www.w3.org/1999/xlink" x="0px" y="0px" width="18px" height="18px"
	 viewBox="0 0 18 18" style="enable-background:new 0 0 18 18;" xml:space="preserve">
<g id="icon-s-status-presence-online">
	<rect style="fill:none;" width="18" height="18"/>
	<path style="fill:#FFFFFF;" d="M15.769,5.927c-1.741,1.605-4.335,4.252-6.802,7.743c-0.076,0.111-0.182,0.194-0.305,0.241v0.049
		l-0.476-0.038C8.09,13.89,8.003,13.834,7.93,13.76L2.947,8.752C2.826,8.631,2.754,8.463,2.75,8.291l0.005-0.099
		c0.021-0.16,0.097-0.307,0.213-0.415l1.658-1.531C4.887,6.002,5.34,6.015,5.582,6.273L7.95,8.705
		c2.218-2.978,5.156-4.922,7.558-5.904C13.867,1.08,11.561,0,9,0C4.037,0,0,4.037,0,9s4.037,9,9,9s9-4.037,9-9
		c0-1.496-0.373-2.905-1.021-4.148C16.576,5.193,16.173,5.553,15.769,5.927z"/>
</g>
</svg>
