<?xml version="1.0" encoding="iso-8859-1"?>
<!-- Generator: Adobe Illustrator 14.0.0, SVG Export Plug-In . SVG Version: 6.00 Build 43363)  -->
<!DOCTYPE svg PUBLIC "-//W3C//DTD SVG 1.1//EN" "http://www.w3.org/Graphics/SVG/1.1/DTD/svg11.dtd">
<svg version="1.1" id="icon-m-common-favorite-unmark-layer"
	 xmlns="http://www.w3.org/2000/svg" xmlns:xlink="http://www.w3.org/1999/xlink" x="0px" y="0px" width="64px" height="64px"
	 viewBox="0 0 64 64" style="enable-background:new 0 0 64 64;" xml:space="preserve">
<g id="icon-m-common-favorite-unmark">
	<rect style="fill:none;" width="64" height="64"/>
	<path style="fill:#333333;" d="M62.527,24.188H41.89c-1.119,0-2.328-0.868-2.683-1.928l-6.56-19.553
		c-0.356-1.062-0.938-1.062-1.293,0L24.788,22.26c-0.356,1.06-1.563,1.928-2.682,1.928H1.474c-1.122,0-1.3,0.546-0.401,1.216
		l16.505,12.268c0.901,0.665,1.341,2.08,0.985,3.143l-6.773,20.171c-0.357,1.061,0.112,1.422,1.044,0.803l17.473-11.641
		c0.933-0.619,2.456-0.619,3.388,0l17.467,11.641c0.932,0.619,1.403,0.258,1.046-0.803l-6.771-20.171
		c-0.355-1.063,0.088-2.478,0.987-3.143l16.506-12.268C63.825,24.733,63.647,24.188,62.527,24.188z M44.932,35.664
		c-1.76,1.302-2.564,3.857-1.867,5.942l5.096,15.175l-13.08-8.715c-0.857-0.571-1.951-0.884-3.079-0.884
		c-1.128,0-2.221,0.313-3.077,0.881l-13.086,8.718l5.095-15.172c0.699-2.091-0.105-4.647-1.871-5.95l-12.07-8.971l15.115-0.001
		c2.183,0,4.355-1.561,5.051-3.631L32,8.638l4.838,14.417c0.691,2.07,2.863,3.633,5.052,3.633h15.119L44.932,35.664z"/>
</g>
</svg>
