<?xml version="1.0" encoding="iso-8859-1"?>
<!-- Generator: Adobe Illustrator 14.0.0, SVG Export Plug-In . SVG Version: 6.00 Build 43363)  -->
<!DOCTYPE svg PUBLIC "-//W3C//DTD SVG 1.1//EN" "http://www.w3.org/Graphics/SVG/1.1/DTD/svg11.dtd">
<svg version="1.1" id="icon-m-content-user-certificates-layer"
	 xmlns="http://www.w3.org/2000/svg" xmlns:xlink="http://www.w3.org/1999/xlink" x="0px" y="0px" width="64px" height="64px"
	 viewBox="0 0 64 64" style="enable-background:new 0 0 64 64;" xml:space="preserve">
<g id="icon-m-content-user-certificates">
	<rect style="fill:none;" width="64" height="64"/>
	<path style="fill:#333333;" d="M31.939,8.951c-6.931,0-12.562,5.641-12.562,12.562c0,6.93,5.631,12.561,12.562,12.561
		c6.926,0,12.561-5.631,12.561-12.561C44.5,14.592,38.865,8.951,31.939,8.951z"/>
	<path style="fill:#333333;" d="M53.632,21.632C53.632,9.688,43.948,0,32,0C20.049,0,10.368,9.688,10.368,21.632
		c0,8.35,4.744,15.589,11.67,19.19L17.825,64L32,54.729L46.174,64l-4.212-23.178C48.888,37.221,53.632,29.981,53.632,21.632z
		 M31.939,38.963c-9.621,0-17.445-7.829-17.445-17.45c0-9.614,7.824-17.444,17.445-17.444c9.616,0,17.442,7.83,17.442,17.444
		C49.382,31.134,41.556,38.963,31.939,38.963z"/>
</g>
</svg>
