<?xml version="1.0" encoding="iso-8859-1"?>
<!-- Generator: Adobe Illustrator 13.0.2, SVG Export Plug-In . SVG Version: 6.00 Build 14948)  -->
<!DOCTYPE svg PUBLIC "-//W3C//DTD SVG 1.1//EN" "http://www.w3.org/Graphics/SVG/1.1/DTD/svg11.dtd">
<svg version="1.1" xmlns="http://www.w3.org/2000/svg" xmlns:xlink="http://www.w3.org/1999/xlink" x="0px" y="0px" width="89px"
	 height="89px" viewBox="0 0 89 89" style="enable-background:new 0 0 89 89;" xml:space="preserve">
	<g id="icon-m-aol-messenger">
		<rect id="_x3C_Slice_x3E__4_" style="fill:none;" width="89" height="89"/>
		<path style="fill-rule:evenodd;clip-rule:evenodd;" d="M51.836,33.051c3.241,4.145,9.898-0.331,12.461-2.295
			c2.678,3.313,4.502,7.484,6.794,11.186c-2.812,5.373-9.027,7.301-16.14,8.321c1.372,1.731,3.496,2.783,5.379,4.302
			c5.187,4.178,10.785,9.504,13.592,16.348c-4.808,2.492-9.48,5.116-13.875,8.029c-4.221-5.858-9.228-10.922-15.856-14.34
			c-7.002,7.244-14.071,14.43-25.768,16.924c-2.421-5.485-4.555-11.26-7.079-16.637c3.546-1.242,7.726-1.56,11.042-3.157
			c2.669-1.278,6.5-4.118,7.364-6.883c0.777-2.479,0.412-5.423,0.851-8.029c1.227-7.314,3.512-13.206,8.21-17.783
			C30.298,18.822,37.909,3.742,50.703,4.941c7.039,0.659,13.606,6.887,12.461,16.35C62.393,27.661,58.076,31.568,51.836,33.051z"/>
		<path style="fill:#FBCD0B;" d="M41.925,12.4c-4.764,5.488-1.644,16.568,7.646,16.348c4.145-0.097,9.346-3.477,9.346-9.752
			c0-6.451-5.425-10.645-11.611-9.466C45.014,9.969,43.075,11.075,41.925,12.4z"/>
		<path style="fill:#FBCD0B;" d="M41.925,31.901c-4.367,3.54-6.351,10.701-7.361,16.638c-0.351,2.067,0.048,4.615-0.566,6.885
			c-0.572,2.117-3.361,5.08-5.38,6.885c-3.376,3.012-7.175,4.43-11.328,5.447c0.919,2.512,2.112,4.744,3.114,7.17
			c7.393-1.521,12.286-6.352,16.992-11.187c1.303-1.337,3.636-4.591,4.813-4.872c1.86-0.449,4.155,0.975,5.946,2.006
			c5.629,3.238,9.19,7.735,13.31,11.471c1.604-1.72,4.151-2.487,5.665-4.303c-6.054-7.639-14.18-13.17-22.088-18.928
			c1.016-1.267,1.201-3.374,2.264-4.588c6.18,2.551,15.149,0.752,18.406-3.157c-0.982-1.681-1.904-3.425-3.396-4.589
			c-4.691,3.305-14.861,3.412-15.291-3.729C45.176,32.82,43.773,32.136,41.925,31.901z"/>
	</g>
</svg>
