<?xml version="1.0" encoding="iso-8859-1"?>
<!-- Generator: Adobe Illustrator 14.0.0, SVG Export Plug-In . SVG Version: 6.00 Build 43363)  -->
<!DOCTYPE svg PUBLIC "-//W3C//DTD SVG 1.1//EN" "http://www.w3.org/Graphics/SVG/1.1/DTD/svg11.dtd">
<svg version="1.1" id="icon-m-content-podcast-audio-layer"
	 xmlns="http://www.w3.org/2000/svg" xmlns:xlink="http://www.w3.org/1999/xlink" x="0px" y="0px" width="64px" height="64px"
	 viewBox="0 0 64 64" style="enable-background:new 0 0 64 64;" xml:space="preserve">
<g id="icon-m-content-podcast-audio">
	<rect style="fill:none;" width="64" height="64"/>
	<path style="fill:#333333;" d="M37.245,40.306v-7.468c0-2.871-2.35-5.197-5.241-5.197c-2.896,0-5.242,2.326-5.242,5.197v7.468
		c0,2.869,2.347,5.197,5.242,5.197C34.896,45.503,37.245,43.175,37.245,40.306z"/>
	<path style="fill:#333333;" d="M40.994,44.164c-1.113,3.529-4.811,5.995-8.99,5.995c-4.185,0-7.879-2.466-8.987-5.994l-0.116-0.368
		H18.5l0.142,0.601c1.145,4.875,5.615,8.589,11.209,9.366v6.503h-0.003h-2.742c-1.101,0-2,0.84-2,1.866c0,1.027,0.899,1.867,2,1.867
		h9.788c1.101,0,2-0.84,2-1.867c0-1.026-0.899-1.866-2-1.866h-2.736v-6.503c5.599-0.778,10.069-4.492,11.202-9.367l0.141-0.6h-4.39
		L40.994,44.164z"/>
	<path style="fill:#333333;" d="M57,18.358c-0.445,0-0.89-0.18-1.215-0.533C55.688,17.72,45.948,7.309,32.797,7.299l-1.188,0.004
		C18.215,7.098,8.314,17.719,8.215,17.825c-0.617,0.67-1.66,0.714-2.331,0.099c-0.67-0.616-0.716-1.658-0.101-2.329
		C6.222,15.116,16.582,4,31.215,4c0.138,0,0.275,0,0.415,0.002L32.794,4c14.633,0.01,24.989,11.121,25.422,11.594
		c0.615,0.672,0.569,1.714-0.102,2.33C57.799,18.215,57.398,18.358,57,18.358L57,18.358z"/>
	<path style="fill:#333333;" d="M15.499,28.666c-0.354,0-0.71-0.113-1.012-0.348c-0.719-0.559-0.849-1.596-0.289-2.315
		c6.067-7.801,14.152-8.661,17.347-8.669l1.175,0.002c3.174,0.06,11.136,1.022,17.083,8.667c0.559,0.721,0.43,1.757-0.289,2.315
		c-0.721,0.561-1.757,0.43-2.316-0.289c-5.072-6.522-11.84-7.344-14.513-7.394l-1.14-0.003c-2.703,0.008-9.566,0.742-14.743,7.396
		C16.477,28.448,15.991,28.666,15.499,28.666L15.499,28.666z"/>
</g>
</svg>
