<?xml version="1.0" encoding="iso-8859-1"?>
<!-- Generator: Adobe Illustrator 14.0.0, SVG Export Plug-In . SVG Version: 6.00 Build 43363)  -->
<!DOCTYPE svg PUBLIC "-//W3C//DTD SVG 1.1//EN" "http://www.w3.org/Graphics/SVG/1.1/DTD/svg11.dtd">
<svg version="1.1" id="icon-m-settings-applications-layer"
	 xmlns="http://www.w3.org/2000/svg" xmlns:xlink="http://www.w3.org/1999/xlink" x="0px" y="0px" width="64px" height="64px"
	 viewBox="0 0 64 64" style="enable-background:new 0 0 64 64;" xml:space="preserve">
<g id="icon-m-settings-applications_1_">
	<rect style="fill:none;" width="64" height="64"/>
	<path style="fill:#333333;" d="M29.083,6.752c0-0.043,0.002-0.094,0.002-0.15c-0.011-0.516-0.042-1.729-0.857-3.078
		c-0.694-1.213-2.236-2.279-4.177-2.484c-0.036-0.006-0.074-0.004-0.108-0.006c-0.231-0.02-0.467-0.037-0.708-0.031h-6.854v0.006
		H9.623C7.267,0.945,5.361,2.15,4.569,3.539C3.746,4.896,3.721,6.111,3.706,6.611c0,0.061,0.001,0.111,0.001,0.152l0.04,13.783
		c-0.002,0.043-0.002,0.096-0.002,0.152c0.011,0.516,0.04,1.729,0.857,3.076c0.789,1.377,2.674,2.568,4.993,2.523h13.58
		c0.055,0,0.111,0.002,0.166,0.002c0.189,0,0.371-0.021,0.553-0.033c0.07-0.008,0.142-0.008,0.21-0.018
		c0.125-0.016,0.244-0.041,0.365-0.062c1.758-0.301,3.146-1.299,3.792-2.428c0.823-1.355,0.852-2.572,0.862-3.074
		c-0.001-0.059-0.003-0.107-0.003-0.148L29.083,6.752z"/>
	<path style="fill:#333333;" d="M34.956,26.299c0,0.041-0.002,0.086-0.002,0.137c0.011,0.479,0.032,1.678,0.821,3.035
		c0.743,1.369,2.594,2.615,4.893,2.584h0.006h13.701c0.058,0.002,0.113,0.004,0.169,0.004c2.282,0,4.117-1.188,4.892-2.543
		c0.821-1.359,0.848-2.578,0.859-3.072c0-0.088-0.004-0.145-0.004-0.17l-0.038-13.822c-0.005-0.049-0.003-0.098-0.01-0.186
		c-0.015-0.453-0.097-1.475-0.694-2.662c-0.644-1.406-2.527-2.934-4.978-2.857c-0.058,0-0.135,0-0.231,0.004H40.83
		c-2.355-0.062-4.259,1.146-5.054,2.531c-0.822,1.357-0.851,2.578-0.862,3.078c0,0.061,0.002,0.113,0.004,0.154L34.956,26.299z
		 M39.308,12.357c0,0,0-0.004,0-0.023c0-0.121,0.06-0.545,0.196-0.734c0.182-0.178,0.137-0.398,1.326-0.459h13.646l0.079-0.006
		h0.016c0.976,0.074,0.834,0.197,1.08,0.492c0.083,0.158,0.149,0.381,0.178,0.559c0.03,0.174,0.03,0.275,0.03,0.275l0.04,13.896
		c0,0.07,0,0.084,0,0.084c0.015,0.057-0.046,0.549-0.197,0.756c-0.182,0.18-0.136,0.404-1.329,0.463H40.812c0,0-0.017,0-0.022,0
		c-0.022,0-0.032,0-0.032,0c-1.11-0.062-1.021-0.248-1.211-0.441c-0.132-0.189-0.194-0.594-0.202-0.736l0.004-0.047l-0.04-14.068
		V12.357z"/>
	<path style="fill:#333333;" d="M60.255,43.314c-0.013-0.48-0.034-1.678-0.812-3.035c-0.736-1.383-2.623-2.66-4.948-2.594
		c-0.026,0-0.071,0-0.142,0.004H40.832c-2.355-0.064-4.263,1.141-5.053,2.533c-0.825,1.357-0.851,2.578-0.865,3.08
		c0,0.061,0.002,0.111,0.004,0.154l0.038,13.793c-0.002,0.045-0.002,0.098-0.002,0.16c0.011,0.523,0.04,1.73,0.846,3.074
		c0.773,1.373,2.65,2.574,4.95,2.514h13.625c0.058,0,0.116,0.002,0.176,0.002c2.281,0,4.115-1.188,4.889-2.545
		c0.817-1.36,0.844-2.576,0.855-3.072c0-0.088,0-0.148,0-0.168l-0.042-13.75C60.253,43.436,60.255,43.383,60.255,43.314z
		 M55.701,58.145c-0.179,0.182-0.135,0.402-1.326,0.461v0.002H40.827c-0.04,0-0.066,0-0.077,0c-1.113-0.062-1.033-0.252-1.212-0.421
		c-0.129-0.177-0.19-0.595-0.196-0.735c0.002-0.021,0.002-0.037,0.002-0.037l0.002-0.033L39.31,43.314l-0.004-0.055
		c0.006-0.141,0.067-0.535,0.202-0.719c0.178-0.18,0.135-0.4,1.324-0.461h13.654h0.02c1.062,0.064,0.966,0.234,1.153,0.428
		c0.155,0.227,0.214,0.746,0.202,0.807v0.008l-0.004,0.041l0.042,13.934c0.004,0.072,0.004,0.086,0.004,0.086
		C55.914,57.438,55.855,57.934,55.701,58.145z"/>
	<path style="fill:#333333;" d="M23.19,37.688H9.625c-2.361-0.062-4.264,1.15-5.055,2.541c-0.823,1.359-0.849,2.576-0.863,3.076
		c0,0.055,0.002,0.105,0.004,0.145L3.75,57.218c-0.002,0.052-0.004,0.121-0.004,0.204c0.013,0.537,0.045,1.752,0.867,3.096
		c0.762,1.318,2.528,2.449,4.706,2.479l0.005,0.002h13.846c0.057,0,0.116,0,0.172,0c2.218,0,4.028-1.121,4.813-2.459
		c0.829-1.34,0.871-2.562,0.879-3.109c0-0.068-0.001-0.125-0.001-0.168l0.012-13.787c0.004-0.061,0.006-0.137,0.006-0.234
		c-0.01-0.568-0.057-1.789-0.896-3.111c-0.817-1.354-2.706-2.467-4.977-2.441 M24.644,57.432c0,0-0.053,0.566-0.194,0.75
		c-0.163,0.154-0.112,0.367-1.28,0.428H9.706c-0.051-0.004-0.089-0.004-0.11-0.004c-0.009,0-0.015,0-0.015,0
		c-1.146-0.059-1.082-0.264-1.249-0.422c-0.13-0.176-0.198-0.603-0.196-0.736c0.002-0.025,0.002-0.025,0.002-0.025l0.002-0.045
		L8.104,43.33L8.1,43.277c0.002-0.129,0.064-0.545,0.202-0.734c0.18-0.182,0.135-0.402,1.323-0.461h13.538
		c1.175,0.066,1.156,0.293,1.311,0.436c0.13,0.176,0.188,0.725,0.188,0.725L24.644,57.432z"/>
</g>
</svg>
