<?xml version="1.0" encoding="iso-8859-1"?>
<!-- Generator: Adobe Illustrator 14.0.0, SVG Export Plug-In . SVG Version: 6.00 Build 43363)  -->
<!DOCTYPE svg PUBLIC "-//W3C//DTD SVG 1.1//EN" "http://www.w3.org/Graphics/SVG/1.1/DTD/svg11.dtd">
<svg version="1.1" id="icon-m-toolbar-gallery-layer"
	 xmlns="http://www.w3.org/2000/svg" xmlns:xlink="http://www.w3.org/1999/xlink" x="0px" y="0px" width="64px" height="64px"
	 viewBox="0 0 64 64" style="enable-background:new 0 0 64 64;" xml:space="preserve">
<g id="icon-m-toolbar-gallery">
	<rect style="fill:none;" width="64" height="64"/>
	<path style="fill:#FFFFFF;" d="M44.605,37.352c0.65,0,1.238-0.253,1.693-0.647c0.605,0.86,1.463,1.4,2.418,1.4
		c0.953,0,1.811-0.54,2.418-1.4c0.455,0.395,1.043,0.647,1.69,0.647c1.425,0,2.575-1.156,2.575-2.584
		c0-1.432-1.15-2.589-2.575-2.589c-0.327,0-0.638,0.065-0.929,0.183c-0.413-1.83-1.68-3.166-3.18-3.166s-2.767,1.336-3.182,3.166
		c-0.289-0.117-0.6-0.183-0.93-0.183c-1.42,0-2.571,1.157-2.571,2.589C42.034,36.195,43.186,37.352,44.605,37.352z"/>
	<path style="fill:#FFFFFF;" d="M42.757,47.314C38.922,38.448,31.18,28.075,24,55h31C55,55,49.144,33.181,42.757,47.314z"/>
	<path style="fill:#FFFFFF;" d="M16,22v40h47V22H16z M20,58V25.9L59,26v32H20z"/>
	<polygon style="fill:#FFFFFF;" points="43,1 1,23 13,46 13,37 7,25 41,7 47,18 52,18 	"/>
</g>
</svg>
