<?xml version="1.0" encoding="iso-8859-1"?>
<!-- Generator: Adobe Illustrator 14.0.0, SVG Export Plug-In . SVG Version: 6.00 Build 43363)  -->
<!DOCTYPE svg PUBLIC "-//W3C//DTD SVG 1.1//EN" "http://www.w3.org/Graphics/SVG/1.1/DTD/svg11.dtd">
<svg version="1.1" id="icon-m-framework-close-layer"
	 xmlns="http://www.w3.org/2000/svg" xmlns:xlink="http://www.w3.org/1999/xlink" x="0px" y="0px" width="64px" height="64px"
	 viewBox="0 0 64 64" style="enable-background:new 0 0 64 64;" xml:space="preserve">
<g id="icon-m-framework-close">
	<rect style="fill:none;" width="64" height="64"/>
	<path id="Icon-m-close_1_" style="fill:#FFFFFF;" d="M43.344,20.686c-6.227-6.246-16.361-6.246-22.625,0
		c-6.267,6.252-6.295,16.379-0.064,22.627c6.231,6.25,16.361,6.25,22.63-0.001C49.549,37.063,49.576,26.936,43.344,20.686z
		 M39.279,36.73c0.7,0.701,0.691,1.84-0.008,2.533c-0.349,0.35-0.805,0.527-1.266,0.527c-0.457,0-0.916-0.178-1.266-0.527
		l-4.742-4.734l-4.739,4.734c-0.349,0.35-0.809,0.527-1.265,0.527c-0.458,0-0.92-0.178-1.269-0.527
		c-0.698-0.693-0.705-1.828-0.004-2.531l4.748-4.73l-4.748-4.738c-0.7-0.694-0.7-1.831,0-2.534c0.697-0.696,1.837-0.696,2.538,0
		L32,29.467l4.74-4.737c0.701-0.696,1.83-0.696,2.531,0c0.699,0.703,0.708,1.84,0.008,2.536l-4.744,4.732L39.279,36.73z"/>
</g>
</svg>
