<?xml version="1.0" encoding="iso-8859-1"?>
<!-- Generator: Adobe Illustrator 14.0.0, SVG Export Plug-In . SVG Version: 6.00 Build 43363)  -->
<!DOCTYPE svg PUBLIC "-//W3C//DTD SVG 1.1//EN" "http://www.w3.org/Graphics/SVG/1.1/DTD/svg11.dtd">
<svg version="1.1" id="icon-m-settings-reset-layer"
	 xmlns="http://www.w3.org/2000/svg" xmlns:xlink="http://www.w3.org/1999/xlink" x="0px" y="0px" width="64px" height="64px"
	 viewBox="0 0 64 64" style="enable-background:new 0 0 64 64;" xml:space="preserve">
<g id="icon-m-settings-reset">
	<rect style="fill:none;" width="64" height="64"/>
	<path style="fill:#333333;" d="M26.787,20.49l-7.334-7.334c8.139-3.721,18.092-2.24,24.781,4.451
		c3.914,3.912,6.027,8.943,6.379,14.074l6.807,6.807c1.664-9.143-1.025-18.932-8.082-25.986C39.807,2.965,25.273,1.4,14.092,7.797
		L7.354,1.059c-0.51-0.508-1.748-0.543-1.811,0.689l0.324,19.061c-0.035,0.633,0.488,1.148,1.113,1.121l19.113,0.369
		C27.134,22.248,27.35,21.057,26.787,20.49z"/>
	<path style="fill:#333333;" d="M57.891,56.648L42.599,41.342c0.757-1.016,4.427-7.678-4.368-12.77
		c-3.964-2.295-9.99-2.369-8.217-0.596l7.043,7.049c-1.108,3.389-3.51,6.312-7.363,7.357l-7.072-7.09
		c-0.956-0.959-1.146,0.369-1.146,2.975c0,3.156,5.215,14.768,14.555,9.6L51.34,63.199c0.725,0.721,1.898,0.719,2.623,0l3.926-3.93
		C58.609,58.543,58.609,57.371,57.891,56.648z"/>
</g>
</svg>
