<?xml version="1.0" encoding="iso-8859-1"?>
<!-- Generator: Adobe Illustrator 14.0.0, SVG Export Plug-In . SVG Version: 6.00 Build 43363)  -->
<!DOCTYPE svg PUBLIC "-//W3C//DTD SVG 1.1//EN" "http://www.w3.org/Graphics/SVG/1.1/DTD/svg11.dtd">
<svg version="1.1" id="icon-m-camera-whitebalance-sunny-screen-layer"
	 xmlns="http://www.w3.org/2000/svg" xmlns:xlink="http://www.w3.org/1999/xlink" x="0px" y="0px" width="24px" height="24px"
	 viewBox="0 0 24 24" style="enable-background:new 0 0 24 24;" xml:space="preserve">
<g id="icon-m-camera-whitebalance-sunny-screen">
	<rect style="fill:none;" width="24" height="24"/>
	<path style="fill:#FFFFFF;" d="M12,8.438c1.965,0,3.562,1.598,3.562,3.562S13.965,15.562,12,15.562
		c-1.964,0-3.562-1.598-3.562-3.562S10.036,8.438,12,8.438 M12,6.75c-2.898,0-5.25,2.341-5.25,5.25c0,2.908,2.352,5.25,5.25,5.25
		s5.25-2.342,5.25-5.25C17.25,9.091,14.898,6.75,12,6.75L12,6.75z"/>
	<path style="fill:#FFFFFF;" d="M12,0.375c-0.75,0-1.125,0.375-1.125,0.75V4.5c0,0.375,0.375,0.75,1.125,0.75
		s1.125-0.375,1.125-0.75V1.125C13.125,0.75,12.75,0.375,12,0.375z"/>
	<path style="fill:#FFFFFF;" d="M5.25,12.002c0-0.752-0.375-1.127-0.75-1.127H1.125c-0.375,0-0.75,0.375-0.75,1.124
		c0,0.751,0.375,1.126,0.75,1.126H4.5C4.875,13.125,5.25,12.75,5.25,12.002z"/>
	<path style="fill:#FFFFFF;" d="M23.625,12.002c0-0.752-0.375-1.127-0.75-1.127H19.5c-0.375,0-0.75,0.375-0.75,1.124
		c0,0.751,0.375,1.126,0.75,1.126h3.375C23.25,13.125,23.625,12.75,23.625,12.002z"/>
	<path style="fill:#FFFFFF;" d="M7.292,5.815L5.321,3.837c-0.354-0.354-0.975-0.354-1.328,0l-0.25,0.25
		c-0.366,0.367-0.366,0.966,0,1.332l1.972,1.979c0.177,0.178,0.412,0.274,0.663,0.274c0.251,0,0.487-0.097,0.664-0.274l0.25-0.25
		c0.177-0.178,0.274-0.415,0.274-0.666C7.566,6.229,7.469,5.993,7.292,5.815z"/>
	<path style="fill:#FFFFFF;" d="M20.281,4.087l-0.249-0.25c-0.354-0.355-0.975-0.355-1.328,0l-1.972,1.979
		c-0.365,0.368-0.365,0.965,0,1.333l0.25,0.25c0.176,0.178,0.412,0.274,0.663,0.274c0.252,0,0.487-0.097,0.664-0.274l1.972-1.979
		C20.646,5.053,20.646,4.454,20.281,4.087z"/>
	<path style="fill:#FFFFFF;" d="M12,23.625c0.75,0,1.125-0.375,1.125-0.75V19.5c0-0.375-0.375-0.75-1.125-0.75
		s-1.125,0.375-1.125,0.75v3.375C10.875,23.25,11.25,23.625,12,23.625z"/>
	<path style="fill:#FFFFFF;" d="M16.732,18.212l1.972,1.979c0.354,0.355,0.974,0.355,1.327,0l0.25-0.25
		c0.365-0.367,0.365-0.966,0-1.333l-1.972-1.979c-0.177-0.178-0.413-0.275-0.664-0.275s-0.487,0.098-0.663,0.275l-0.25,0.25
		c-0.177,0.178-0.273,0.415-0.273,0.666C16.459,17.798,16.556,18.034,16.732,18.212z"/>
	<path style="fill:#FFFFFF;" d="M3.744,19.94l0.249,0.25c0.354,0.355,0.974,0.355,1.328,0l1.971-1.978
		c0.367-0.368,0.367-0.966,0-1.334l-0.249-0.25c-0.177-0.178-0.413-0.274-0.664-0.274c-0.251,0-0.487,0.097-0.663,0.274
		l-1.972,1.979C3.378,18.975,3.378,19.573,3.744,19.94z"/>
</g>
</svg>
