<?xml version="1.0" encoding="iso-8859-1"?>
<!-- Generator: Adobe Illustrator 14.0.0, SVG Export Plug-In . SVG Version: 6.00 Build 43363)  -->
<!DOCTYPE svg PUBLIC "-//W3C//DTD SVG 1.1//EN" "http://www.w3.org/Graphics/SVG/1.1/DTD/svg11.dtd">
<svg version="1.1" id="icon-m-content-ringtone-layer"
	 xmlns="http://www.w3.org/2000/svg" xmlns:xlink="http://www.w3.org/1999/xlink" x="0px" y="0px" width="64px" height="64px"
	 viewBox="0 0 64 64" style="enable-background:new 0 0 64 64;" xml:space="preserve">
<g id="icon-m-content-ringtone">
	<rect style="fill:none;" width="64" height="64"/>
	<path style="fill:#333333;" d="M47.688,18.566C37.76,11.779,35.266,2.925,35.222,2.766c-0.005-0.049-0.042-0.137-0.042-0.137
		c-0.275-0.778-1.012-1.344-1.881-1.344h-1.642c-1.1,0-1.911,0.9-1.911,2l-0.003,39.52c-3.116-1.118-7.128-0.752-10.814,1.307
		c-5.999,3.315-8.651,9.571-6.073,14.241c2.591,4.68,9.321,5.755,15.309,2.439c3.961-2.197,6.58-5.688,7.052-9.157
		c0.029-0.38,0.068-0.579,0.068-0.861l0.014-31.192c22.085,0.318,11.389,21.61,11.389,21.61
		C58.313,26.566,47.688,18.566,47.688,18.566z"/>
</g>
</svg>
