<?xml version="1.0" encoding="iso-8859-1"?>
<!-- Generator: Adobe Illustrator 14.0.0, SVG Export Plug-In . SVG Version: 6.00 Build 43363)  -->
<!DOCTYPE svg PUBLIC "-//W3C//DTD SVG 1.1//EN" "http://www.w3.org/Graphics/SVG/1.1/DTD/svg11.dtd">
<svg version="1.1" id="icon-m-content-webhistory-layer"
	 xmlns="http://www.w3.org/2000/svg" xmlns:xlink="http://www.w3.org/1999/xlink" x="0px" y="0px" width="64px" height="64px"
	 viewBox="0 0 64 64" style="enable-background:new 0 0 64 64;" xml:space="preserve">
<g id="icon-m-content-webhistory">
	<rect style="fill:none;" width="64" height="64"/>
	<path style="fill:#333333;" d="M32.777,48.877l0.175,0.264c2.494,1.262,6.503-0.031,8.828-0.984
		c1.346-0.553,2.629-0.734,3.721-1.678c1.275-1.1,2.463-2.215,3.585-3.475c0.476-0.527,1.719-1.361,1.902-2.037
		c0.184-0.666-0.339-1.172-0.732-1.744c-0.381-0.541-0.791-1.008-1.075-1.633c-0.257-0.57-0.14-1.34-0.416-1.832
		c-0.263-0.471-1.138-0.965-1.551-1.396c-0.547-0.564-0.926-0.975-1.642-1.283c-1.376-0.586-2.16,0.143-3.131,1.25
		c-2.31,2.629-3.452,4.873-2.53,8.457C40.806,46.252,34.696,47.25,32.777,48.877z"/>
	<path style="fill:#333333;" d="M56.925,14.075l-0.004,0.067c-4.527-5.343-11.053-8.947-18.52-9.5
		c-14.89-1.104-27.902,10.273-29.01,25.359c-0.184,2.523-0.018,4.988,0.446,7.355H0.906c-0.433,0-0.537,0.258-0.231,0.566
		L11.85,49.279c0.306,0.307,0.808,0.307,1.113,0l11.172-11.355c0.308-0.309,0.203-0.566-0.229-0.566l-8.962-0.021
		c-0.539-2.221-0.75-4.561-0.574-6.965c0.418-5.708,2.929-10.766,6.718-14.459c0.201,0.259,0.389,0.528,0.505,0.832
		c0.991,2.547-0.812,5.766,0.041,8.538c0.697,2.259,1.901,4.745,3.885,6.185c1.463,1.066,3.112,1.854,4.409,2.912
		c0.678,0.557,3.691,3.443,4.63,2.832c1.078-0.703-0.604-2.699-1.051-3.256c-1.584-1.971-4.658-4.224-2.577-6.971
		c1.657-2.187,4.55-0.129,6.85-0.547c1.676-0.299,2.812-1.41,3.944-2.609c4.457-4.715-3.007-3.66-5.686-5.953
		c-1.324-1.131-0.914-2.664-1.465-4.03c-0.938-2.342-2.507-2.694-4.5-3.269c2.508-0.766,5.193-1.092,7.959-0.889
		c9.881,0.732,17.777,7.981,19.891,17.283h0.01c0.49,2.128,0.684,4.366,0.516,6.662c-0.342,4.66-2.078,8.885-4.762,12.289
		l-0.012-0.014c-2.473,3.145-5.756,5.588-9.496,7.027c-0.01,0.004-0.022,0.008-0.031,0.012c-0.377,0.145-0.756,0.277-1.142,0.398
		c-0.064,0.021-0.13,0.041-0.195,0.062c-0.347,0.105-0.7,0.207-1.057,0.295c-0.066,0.02-0.136,0.039-0.204,0.053
		c-0.409,0.104-0.823,0.191-1.24,0.27c-0.073,0.014-0.148,0.021-0.222,0.033c-0.325,0.057-0.65,0.107-0.979,0.15
		c-0.188,0.023-0.376,0.037-0.563,0.057c-0.214,0.021-0.428,0.041-0.643,0.055c-0.223,0.018-0.448,0.031-0.673,0.037
		c-0.169,0.006-0.344,0.008-0.514,0.012c-0.259,0.002-0.515,0.006-0.775,0.002c-0.06-0.002-0.12-0.006-0.183-0.008
		c-0.322-0.008-0.646-0.021-0.975-0.047c-3.647-0.27-7.021-1.436-9.938-3.26l-3.963,3.438c3.861,2.742,8.474,4.498,13.507,4.871
		c0.417,0.031,0.83,0.041,1.244,0.053c0.062,0,0.125,0.006,0.191,0.008c0.311,0.006,0.617,0.002,0.926-0.002
		c0.205-0.002,0.41-0.004,0.615-0.012c0.271-0.008,0.537-0.023,0.805-0.041c0.25-0.02,0.496-0.037,0.746-0.062
		c0.234-0.023,0.467-0.043,0.701-0.074c0.301-0.037,0.603-0.078,0.902-0.127c0.178-0.029,0.357-0.055,0.536-0.084
		c1.002-0.178,1.983-0.412,2.944-0.701c0.039-0.01,0.074-0.021,0.112-0.031c0.458-0.139,0.91-0.291,1.358-0.455
		c0.049-0.018,0.099-0.035,0.149-0.053c0.456-0.17,0.907-0.35,1.351-0.541c0.016-0.008,0.029-0.014,0.045-0.02
		c9.014-3.912,15.635-12.654,16.408-23.221C63.978,26.459,61.45,19.394,56.925,14.075z"/>
</g>
</svg>
