<?xml version="1.0" encoding="iso-8859-1"?>
<!-- Generator: Adobe Illustrator 14.0.0, SVG Export Plug-In . SVG Version: 6.00 Build 43363)  -->
<!DOCTYPE svg PUBLIC "-//W3C//DTD SVG 1.1//EN" "http://www.w3.org/Graphics/SVG/1.1/DTD/svg11.dtd">
<svg version="1.1" id="icon-m-transfer-syc-layer" xmlns="http://www.w3.org/2000/svg" xmlns:xlink="http://www.w3.org/1999/xlink"
	 x="0px" y="0px" width="64px" height="64px" viewBox="0 0 64 64" style="enable-background:new 0 0 64 64;" xml:space="preserve">
<g id="icon-m-transfer-syc">
	<rect style="fill:none;" width="64" height="64"/>
	<g>
		<path style="fill:#333333;" d="M44.096,27.949l-2.614-13l-3.735,4.925c-0.894-0.673-7.162-5.393-7.207-5.421
			c-2.132-1.502-4.805-1.992-7.331-1.345c-4.75,1.221-7.624,6.076-6.405,10.827l1.536,5.988l5.154-0.389L21.73,22.67
			c-0.519-2.031,0.707-4.11,2.743-4.633c1.075-0.275,2.218-0.065,3.146,0.581l7.113,5.233l-3.856,5.086L44.096,27.949z"/>
		<path style="fill:#333333;" d="M19.107,35.31l2.614,13.001l3.735-4.926c0.896,0.674,7.163,5.393,7.208,5.422
			c2.133,1.502,4.805,1.992,7.331,1.344c4.749-1.22,7.622-6.074,6.405-10.826l-1.537-5.989l-5.154,0.39l1.764,6.864
			c0.52,2.032-0.707,4.11-2.742,4.634c-1.075,0.274-2.219,0.066-3.146-0.581l-7.113-5.233l3.855-5.086L19.107,35.31z"/>
		<path style="fill:#333333;" d="M32,62.692c-17.093,0-31-13.907-31-31s13.907-31,31-31s31,13.907,31,31S49.094,62.692,32,62.692
			L32,62.692z M32,6.007c-14.163,0-25.686,11.522-25.686,25.686c0,14.162,11.522,25.685,25.686,25.685
			c14.163,0,25.686-11.522,25.686-25.685C57.687,17.529,46.163,6.007,32,6.007L32,6.007z"/>
	</g>
</g>
</svg>
