<?xml version="1.0" encoding="iso-8859-1"?>
<!-- Generator: Adobe Illustrator 14.0.0, SVG Export Plug-In . SVG Version: 6.00 Build 43363)  -->
<!DOCTYPE svg PUBLIC "-//W3C//DTD SVG 1.1//EN" "http://www.w3.org/Graphics/SVG/1.1/DTD/svg11.dtd">
<svg version="1.1" id="icon-m-content-note-layer" xmlns="http://www.w3.org/2000/svg" xmlns:xlink="http://www.w3.org/1999/xlink"
	 x="0px" y="0px" width="64px" height="64px" viewBox="0 0 64 64" style="enable-background:new 0 0 64 64;" xml:space="preserve">
<g id="icon-m-content-note">
	<rect style="fill:none;" width="64" height="64"/>
	<path style="fill:#333333;" d="M60.135,2.314C60.135,1.041,59.094,0,57.82,0h-7.688v3.543c0,1.353-1.106,2.459-2.459,2.459h-1.435
		c-1.353,0-2.459-1.106-2.459-2.459V0h-8.603v3.543c0,1.353-1.106,2.459-2.459,2.459h-1.436c-1.352,0-2.459-1.106-2.459-2.459V0
		h-8.603v3.543c0,1.353-1.106,2.459-2.459,2.459h-1.435c-1.353,0-2.459-1.106-2.459-2.459V0H6.18C4.907,0,3.865,1.041,3.865,2.314
		v59.369C3.865,62.957,4.907,64,6.18,64H57.82c1.273,0,2.314-1.043,2.314-2.316V2.314z M12.858,15.629h37.968v6.089H12.858V15.629z
		 M12.858,28.618h37.968v6.089H12.858V28.618z M12.858,41.607h18.984v6.088H12.858V41.607z"/>
</g>
</svg>
