<?xml version="1.0" encoding="iso-8859-1"?>
<!-- Generator: Adobe Illustrator 14.0.0, SVG Export Plug-In . SVG Version: 6.00 Build 43363)  -->
<!DOCTYPE svg PUBLIC "-//W3C//DTD SVG 1.1//EN" "http://www.w3.org/Graphics/SVG/1.1/DTD/svg11.dtd">
<svg version="1.1" id="icon-l-common-video-playback-layer"
	 xmlns="http://www.w3.org/2000/svg" xmlns:xlink="http://www.w3.org/1999/xlink" x="0px" y="0px" width="120px" height="120px"
	 viewBox="0 0 120 120" style="enable-background:new 0 0 120 120;" xml:space="preserve">
<g id="icon-l-common-video-playback">
	<path style="fill:#FFFFFF;" d="M60.011,0C26.875,0,0,26.865,0,59.992C0,93.135,26.875,120,60.011,120
		C93.135,120,120,93.135,120,59.992C120,26.865,93.135,0,60.011,0z M60.017,108.273c-26.675-0.051-48.234-21.617-48.281-48.281
		c0.044-26.663,21.609-48.223,48.275-48.27c26.651,0.047,48.216,21.606,48.267,48.27C108.227,86.66,86.662,108.223,60.017,108.273z"
		/>
	<g>
		<path style="fill:#FFFFFF;" d="M40.941,30c0-1.1,0.782-1.554,1.737-1.009l52.584,30.018c0.956,0.545,0.956,1.438,0,1.982
			L42.678,91.009C41.723,91.554,40.941,91.1,40.941,90V30z"/>
	</g>
</g>
</svg>
