<?xml version="1.0" encoding="iso-8859-1"?>
<!-- Generator: Adobe Illustrator 14.0.0, SVG Export Plug-In . SVG Version: 6.00 Build 43363)  -->
<!DOCTYPE svg PUBLIC "-//W3C//DTD SVG 1.1//EN" "http://www.w3.org/Graphics/SVG/1.1/DTD/svg11.dtd">
<svg version="1.1" id="icon-m-content-podcast-audio-layer"
	 xmlns="http://www.w3.org/2000/svg" xmlns:xlink="http://www.w3.org/1999/xlink" x="0px" y="0px" width="65px" height="64px"
	 viewBox="0 0 65 64" style="enable-background:new 0 0 65 64;" xml:space="preserve">
<g id="icon-m-content-podcast-audio">
	<rect x="1" style="fill:none;" width="64.001" height="64"/>
	<path style="fill:#333333;" d="M38.175,40.242v-7.467c0-2.871-2.35-5.197-5.243-5.197c-2.895,0-5.242,2.326-5.242,5.197v7.467
		c0,2.87,2.347,5.197,5.242,5.197C35.825,45.439,38.175,43.112,38.175,40.242z"/>
	<path style="fill:#333333;" d="M41.924,44.102c-1.114,3.529-4.812,5.994-8.992,5.994c-4.183,0-7.878-2.465-8.986-5.994
		l-0.116-0.367h-4.401l0.142,0.601c1.145,4.875,5.616,8.589,11.209,9.366v6.503h-0.003h-2.742c-1.1,0-2,0.84-2,1.866
		c0,1.027,0.9,1.867,2,1.867h9.789c1.1,0,2-0.84,2-1.867c0-1.026-0.9-1.866-2-1.866h-2.736v-6.503
		c5.6-0.778,10.068-4.492,11.202-9.367l0.14-0.6H42.04L41.924,44.102z"/>
	<path style="fill:#333333;" d="M55.829,27.66l-0.004,0.002c-4.818-7.533-13.244-12.548-22.831-12.548
		c-9.534,0-17.915,4.958-22.748,12.422l-0.004-0.003l-0.262,0.386c-0.62,0.905-0.385,2.151,0.52,2.772l1.118,0.73
		c0.907,0.617,2.152,0.385,2.772-0.521l0.108-0.131c3.844-6.195,10.683-10.342,18.496-10.342c7.728,0,14.508,4.055,18.374,10.141
		l0.154,0.252c0.575,0.936,1.807,1.229,2.744,0.655l1.15-0.675c0.935-0.574,1.23-1.81,0.656-2.744L55.829,27.66z"/>
	<path style="fill:#333333;" d="M64.58,16.742l-0.163-0.21l0.002-0.001c-0.014-0.016-0.025-0.029-0.037-0.045l-0.088-0.113
		l-0.004,0.002c-7.296-9.32-18.584-15.36-31.272-15.528V0.846c-0.006,0-0.012,0-0.018,0c-0.005,0-0.011,0-0.017,0v0.001
		C20.295,1.015,9.006,7.055,1.71,16.375l-0.003-0.002l-0.088,0.113c-0.012,0.016-0.024,0.029-0.037,0.045l0.001,0.001l-0.163,0.21
		c-0.675,0.863-0.521,2.123,0.344,2.799l1.069,0.801c0.866,0.674,2.124,0.521,2.799-0.345l0.29-0.358
		C12.245,11.564,22.011,6.323,33,6.162c10.989,0.161,20.755,5.402,27.078,13.477l0.29,0.358c0.676,0.866,1.934,1.019,2.799,0.345
		l1.069-0.801C65.101,18.865,65.255,17.605,64.58,16.742z"/>
</g>
</svg>
