<?xml version="1.0" encoding="iso-8859-1"?>
<!-- Generator: Adobe Illustrator 14.0.0, SVG Export Plug-In . SVG Version: 6.00 Build 43363)  -->
<!DOCTYPE svg PUBLIC "-//W3C//DTD SVG 1.1//EN" "http://www.w3.org/Graphics/SVG/1.1/DTD/svg11.dtd">
<svg version="1.1" id="icon-m-content-feed-layer" xmlns="http://www.w3.org/2000/svg" xmlns:xlink="http://www.w3.org/1999/xlink"
	 x="0px" y="0px" width="64px" height="64px" viewBox="0 0 64 64" style="enable-background:new 0 0 64 64;" xml:space="preserve">
<g id="icon-m-content-feed">
	<rect style="fill:none;" width="64" height="64"/>
	<path style="fill:#333333;" d="M0,23.734v12.182c14.805,0.867,26.793,12.418,28.379,27.051h12.193
		C38.928,41.617,21.5,24.633,0,23.734z"/>
	<path style="fill:#333333;" d="M6.949,48.988C3.111,48.988,0,52.117,0,55.979c0,3.859,3.111,6.988,6.949,6.988
		c3.834,0,6.948-3.129,6.948-6.988C13.897,52.117,10.783,48.988,6.949,48.988z"/>
	<path style="fill:#333333;" d="M44.928,20.236C32.883,8.166,16.977,1.381,0,1.033v12.168c27.555,0.701,49.979,22.449,51.838,49.766
		H64C63.117,46.82,56.428,31.762,44.928,20.236z"/>
</g>
</svg>
