<?xml version="1.0" encoding="iso-8859-1"?>
<!-- Generator: Adobe Illustrator 14.0.0, SVG Export Plug-In . SVG Version: 6.00 Build 43363)  -->
<!DOCTYPE svg PUBLIC "-//W3C//DTD SVG 1.1//EN" "http://www.w3.org/Graphics/SVG/1.1/DTD/svg11.dtd">
<svg version="1.1" id="icon-m-common-3g-layer" xmlns="http://www.w3.org/2000/svg" xmlns:xlink="http://www.w3.org/1999/xlink"
	 x="0px" y="0px" width="64px" height="64px" viewBox="0 0 64 64" style="enable-background:new 0 0 64 64;" xml:space="preserve">
<g id="icon-m-common-3g">
	<rect style="fill:none;" width="64" height="64"/>
	<path style="fill:#333333;" d="M10.86,17.926c-2.346,0-4.793,0.611-7.241,1.275v-4.947c2.651-0.662,5.762-1.224,8.924-1.224
		c6.986,0,12.035,2.346,12.035,9.229c0,4.335-2.397,7.293-6.731,8.619c4.793,0.867,7.394,4.131,7.394,8.669
		c0,8.159-5.15,11.423-14.176,11.423c-3.009,0-5.661-0.408-8.567-1.174v-4.945c3.06,0.713,5.457,1.224,7.751,1.224
		c4.691,0,6.527-2.244,6.527-6.374c0-5.457-3.162-6.426-11.015-6.426v-4.691c7.547,0,10.556-0.816,10.556-5.763
		C16.317,19.507,14.481,17.926,10.86,17.926z"/>
	<path style="fill:#333333;" d="M58.033,47.299c-1.428,2.193-4.283,3.672-7.445,3.672c-11.116,0-12.799-9.842-12.799-19.379
		c0-9.893,3.773-18.562,16.318-18.562c2.703,0,5.405,0.306,7.904,0.969v4.845c-2.396-0.663-4.59-0.918-7.14-0.918
		c-6.782,0-8.363,6.885-8.363,13.564c0,7.496,0.306,14.585,5.456,14.585c2.602,0,3.825-2.142,3.825-5.1v-5.661h-4.284V30.42H64
		v20.143h-4.946L58.033,47.299z"/>
</g>
</svg>
