<?xml version="1.0" encoding="iso-8859-1"?>
<!-- Generator: Adobe Illustrator 14.0.0, SVG Export Plug-In . SVG Version: 6.00 Build 43363)  -->
<!DOCTYPE svg PUBLIC "-//W3C//DTD SVG 1.1//EN" "http://www.w3.org/Graphics/SVG/1.1/DTD/svg11.dtd">
<svg version="1.1" id="icon-m-common-jabber-layer" xmlns="http://www.w3.org/2000/svg" xmlns:xlink="http://www.w3.org/1999/xlink"
	 x="0px" y="0px" width="64px" height="64px" viewBox="0 0 64 64" style="enable-background:new 0 0 64 64;" xml:space="preserve">
<g id="icon-m-common-jabber">
	<rect style="fill:none;" width="64" height="64"/>
	<path style="fill:#333333;" d="M53.505,24.746C51.122,14.493,45.827,0.772,27.399,0h-3.697c-2.938,0.125-6.615,1-9.832,2.347
		l-0.377,0.156c-1.549,0.636-3.309,1.353-2.969,4.08v3.886l0.012,0.105c0.113,0.526,0.464,2.129,1.682,2.129
		c1.08,0,2.141-1.361,3.168-2.672c0.42-0.535,0.813-1.038,1.104-1.297c1.891-1.672,5.754-2.631,10.598-2.631
		c2.119,0,4.285,0.191,6.102,0.542c4.734,0.915,8.836,3.297,11.25,6.533c2.494,3.34,4.732,9.139,4.107,14.564
		c-0.59,5.109-4.799,8.913-8.84,11.949c-4.004,3.014-7.879,6.616-7.441,14.495l0.01,0.215c0.08,1.607,0.267,5.386,2.311,5.384
		c0.293,0,0.604-0.087,0.924-0.255c1.127-0.604,0.834-2.368,0.521-4.233c-0.133-0.813-0.271-1.654-0.262-2.286
		c0.09-5.241,3.572-7.561,7.264-10.016c1.555-1.034,3.164-2.105,4.461-3.402c3.24-3.241,5.039-6.611,6.016-11.274l0.01-3.462
		L53.505,24.746z"/>
	<path style="fill:#333333;" d="M26.435,38.498c-0.375,0.746-0.656,1.795-0.318,2.526c0.166,0.36,0.461,0.599,0.854,0.697
		c0.113,0.024,0.229,0.04,0.342,0.04c1.092,0,1.791-1.19,2.352-2.147c0.158-0.27,0.303-0.52,0.439-0.705
		c0.307-0.404,0.586-0.753,0.844-1.071c0.547-0.672,1.02-1.253,1.412-2.052c1.096-2.23,1.549-6.397-0.238-7.846
		c-0.498-0.4-1.055-0.611-1.654-0.611c-1.748,0-3.334,1.725-4.285,2.754l-0.107,0.116c-0.004-0.063-0.01-0.125-0.014-0.175
		c-0.027-0.417-0.059-0.85-0.209-1.176c-0.701-1.493-2.426-2.418-4.268-2.277c-1.773,0.147-3.892,1.227-3.918,5.529
		c0,0.047,0.038,4.637,1.458,6.065c0.537,0.542,1.253,0.591,1.939,0.12c0.889-0.607,0.721-2.252,0.51-4.332
		c-0.176-1.71-0.393-3.835,0.266-4.567c0.217-0.239,0.533-0.314,0.984-0.262c0.613,0.081,0.72,1.364,0.816,2.489
		c0.115,1.368,0.225,2.661,1.252,2.863l0.123,0.01c0.422,0,0.932-0.413,1.91-1.291c0.23-0.209,0.432-0.391,0.564-0.49l0.115-0.088
		c0.582-0.441,1.559-1.181,2.107-1.181c0.094,0,0.27,0,0.354,0.532c0.193,1.209-1.135,2.986-2.201,4.419
		C27.288,37.152,26.749,37.876,26.435,38.498z"/>
	<path style="fill:#333333;" d="M14.181,41.493c-1.104,0.204-1.525,0.838-1.684,1.333c-0.497,1.542,0.887,3.663,1.417,4.215
		c2.473,2.585,7.172,4.459,11.174,4.459c0.492,0,4.842-0.046,6.086-1.685c0.322-0.427,0.416-0.932,0.271-1.46
		c-0.098-0.346-0.443-0.924-1.67-0.924c-0.377,0-0.803,0.054-1.232,0.158c-3.602,0.873-6.803,0.239-9.004-1.776
		c-0.342-0.309-0.719-0.84-1.121-1.397C17.382,42.972,16.05,41.142,14.181,41.493z"/>
	<path style="fill:#333333;" d="M11.151,49.451c-0.256,0.743,0.311,1.545,0.961,2.3c2.929,3.398,8.6,5.973,13.789,6.261
		c0.318,0.018,0.686,0.028,1.074,0.028c2.441,0,3.924-0.365,4.404-1.087c0.449-0.671,0.365-1.584,0.139-2.21
		c-0.244-0.664-0.66-1.12-1.145-1.266c-0.427-0.122-1.136,0.021-1.75,0.154c-0.281,0.065-0.544,0.128-0.734,0.141
		c-4.211,0.299-7.104-0.846-9.092-1.839c-0.568-0.284-1.203-0.804-1.873-1.354c-1.406-1.148-2.896-2.351-4.428-2.05
		C11.767,48.67,11.315,48.982,11.151,49.451z"/>
	<path style="fill:#333333;" d="M31.675,59.547c-0.768,0-1.996,0.345-3.184,0.677c-0.838,0.236-1.701,0.479-2.078,0.48
		c-2.77,0-7.92-1.695-9.5-3.126c-0.127-0.116-0.338-0.446-0.541-0.761c-0.631-0.995-1.5-2.351-2.902-2.415
		c-1.225,0-2.184,1.145-2.313,2.219c-0.236,1.974,1.416,3.736,4.914,5.238c2.287,0.98,4.939,1.739,7.547,2.141h3.527l0.059-0.016
		c0.227-0.056,0.457-0.106,0.695-0.155c0.705-0.147,1.502-0.317,2.34-0.719c0.922-0.442,3.008-1.626,2.449-3.041
		C32.55,59.722,32.212,59.547,31.675,59.547z"/>
</g>
</svg>
