<?xml version="1.0" encoding="iso-8859-1"?>
<!-- Generator: Adobe Illustrator 14.0.0, SVG Export Plug-In . SVG Version: 6.00 Build 43363)  -->
<!DOCTYPE svg PUBLIC "-//W3C//DTD SVG 1.1//EN" "http://www.w3.org/Graphics/SVG/1.1/DTD/svg11.dtd">
<svg version="1.1" id="icon-m-email-mailbox-layer" xmlns="http://www.w3.org/2000/svg" xmlns:xlink="http://www.w3.org/1999/xlink"
	 x="0px" y="0px" width="64px" height="64px" viewBox="0 0 64 64" style="enable-background:new 0 0 64 64;" xml:space="preserve">
<g id="icon-m-email-mailbox">
	<rect style="fill:none;" width="64" height="64"/>
	<path style="fill:#333333;" d="M64,8.14H53.115h-3.867h-0.137v43.717H4.003V21.144h32.04v16.06
		c-0.104,5.201-1.887,6.703-3.921,6.703c-1.606,0-2.427-0.508-2.427-4.311c0-3.615,0.91-9.521,1.558-13.324h-6.186
		c-6.871,0-11.911,4.395-11.911,12.781c0,5.676,3.204,8.289,6.365,8.289c3.299,0,4.854-1.835,6.141-4.26
		c0.733,2.654,2.793,4.26,5.452,4.26c5.403,0,8.877-3.799,8.934-11.541L40.046,17.14H0V55.86h49.111h4.004v-4.004V17.854H64V8.14z
		 M24.607,36.348c-0.503,3.894-1.238,7.511-3.528,7.511c-1.741,0-2.611-1.095-2.611-5.04c0-6.044,2.792-9.021,5.59-9.021h1.377
		L24.607,36.348z"/>
</g>
</svg>
