<?xml version="1.0" encoding="iso-8859-1"?>
<!-- Generator: Adobe Illustrator 13.0.2, SVG Export Plug-In . SVG Version: 6.00 Build 14948)  -->
<!DOCTYPE svg PUBLIC "-//W3C//DTD SVG 1.1//EN" "http://www.w3.org/Graphics/SVG/1.1/DTD/svg11.dtd">
<svg version="1.1" xmlns="http://www.w3.org/2000/svg" xmlns:xlink="http://www.w3.org/1999/xlink" x="0px" y="0px" width="18px"
	 height="18px" viewBox="0 0 18 18" style="enable-background:new 0 0 18 18;" xml:space="preserve">
	<g id="icon-s-camera">
		<rect style="fill:none;" width="18" height="18"/>
		<path style="fill:#333333;" d="M17.088,2.699H0.912c-0.493,0-0.899,0.406-0.899,0.9V14.4c0,0.494,0.406,0.9,0.899,0.9h16.176
			c0.492,0,0.898-0.406,0.898-0.9V3.6C17.986,3.105,17.58,2.699,17.088,2.699z M9,13.213c-2.233,0-4.044-1.816-4.044-4.051
			c0-2.236,1.812-4.051,4.044-4.051c2.234,0,4.043,1.814,4.043,4.051C13.043,11.396,11.234,13.213,9,13.213z M16.838,5.602h-3.479
			V3.859h3.479V5.602z"/>
	</g>
</svg>
