<?xml version="1.0" encoding="iso-8859-1"?>
<!-- Generator: Adobe Illustrator 14.0.0, SVG Export Plug-In . SVG Version: 6.00 Build 43363)  -->
<!DOCTYPE svg PUBLIC "-//W3C//DTD SVG 1.1//EN" "http://www.w3.org/Graphics/SVG/1.1/DTD/svg11.dtd">
<svg version="1.1" id="icon-m-camera-face-detection-screen-layer"
	 xmlns="http://www.w3.org/2000/svg" xmlns:xlink="http://www.w3.org/1999/xlink" x="0px" y="0px" width="24px" height="24px"
	 viewBox="0 0 24 24" style="enable-background:new 0 0 24 24;" xml:space="preserve">
<g id="icon-m-camera-face-detection-screen">
	<rect style="fill:none;" width="24" height="24"/>
	<path style="fill:#FFFFFF;" d="M6.375,21.75H2.25V2.213L6.375,2.25V0.375H2.25c-1.031,0-1.875,0.844-1.875,1.875v19.5
		c0,1.031,0.844,1.875,1.875,1.875h4.125V21.75z"/>
	<path style="fill:#FFFFFF;" d="M17.625,2.25l4.125-0.037V21.75h-4.125v1.875h4.125c1.031,0,1.875-0.844,1.875-1.875V2.25
		c0-1.031-0.844-1.875-1.875-1.875h-4.125V2.25z"/>
	<path style="fill:#FFFFFF;" d="M4.875,18h14.25c0-1.875-2.777-3.154-5.267-3.739c1.005-1.013,1.517-2.699,1.517-4.169
		C15.375,7.802,13.987,6,12,6s-3.75,1.802-3.75,4.092c0,1.47,0.751,3.156,1.756,4.169C7.518,14.846,4.875,16.168,4.875,18z"/>
</g>
</svg>
