<?xml version="1.0" encoding="iso-8859-1"?>
<!-- Generator: Adobe Illustrator 14.0.0, SVG Export Plug-In . SVG Version: 6.00 Build 43363)  -->
<!DOCTYPE svg PUBLIC "-//W3C//DTD SVG 1.1//EN" "http://www.w3.org/Graphics/SVG/1.1/DTD/svg11.dtd">
<svg version="1.1" id="icon-m-common-share-layer" xmlns="http://www.w3.org/2000/svg" xmlns:xlink="http://www.w3.org/1999/xlink"
	 x="0px" y="0px" width="65px" height="64px" viewBox="0 0 65 64" style="enable-background:new 0 0 65 64;" xml:space="preserve">
<g id="icon-m-common-share">
	<rect x="1" style="fill:none;" width="64" height="64"/>
	<path id="Share_2_" style="fill:#333333;" d="M53.668,38.187c-3.721,0-7.014,1.756-9.08,4.455l-20.985-9.413
		c0.035-0.34,0.056-0.685,0.056-1.036c0-0.392-0.023-0.781-0.067-1.163l21.184-9.428c2.074,2.561,5.283,4.21,8.893,4.21
		C59.926,25.812,65,20.873,65,14.787c0-6.088-5.074-11.021-11.332-11.021c-6.256,0-11.326,4.934-11.326,11.021
		c0,0.69,0.074,1.365,0.197,2.021l-20.797,9.253c-2.033-2.948-5.488-4.892-9.416-4.892C6.071,21.17,1,26.104,1,32.192
		c0,6.089,5.07,11.024,11.326,11.024c3.969,0,7.458-1.988,9.479-4.992l20.687,9.271c-0.092,0.561-0.15,1.131-0.15,1.717
		c0,6.09,5.07,11.023,11.326,11.023C59.926,60.236,65,55.303,65,49.213S59.926,38.187,53.668,38.187z"/>
</g>
</svg>
