<?xml version="1.0" encoding="iso-8859-1"?>
<!-- Generator: Adobe Illustrator 13.0.2, SVG Export Plug-In . SVG Version: 6.00 Build 14948)  -->
<!DOCTYPE svg PUBLIC "-//W3C//DTD SVG 1.1//EN" "http://www.w3.org/Graphics/SVG/1.1/DTD/svg11.dtd">
<svg version="1.1" xmlns="http://www.w3.org/2000/svg" xmlns:xlink="http://www.w3.org/1999/xlink" x="0px" y="0px" width="64px"
	 height="64px" viewBox="0 0 64 64" style="enable-background:new 0 0 64 64;" xml:space="preserve">
	<g id="icon-m-toolbar-search">
		<rect y="0" style="fill:none;" width="64" height="64"/>
		<path id="Icon-search_1_" style="fill:#FFFFFF;" d="M39.891,50.807c2.342,2.346,0,0,12.342,12.344
			c1.658,1.656,5.287,0.826,8.035-1.932c2.762-2.732,3.635-6.346,1.919-8.031L49.624,40.573c-1.147-1.107-3.173-1.094-5.155-0.145
			l-3.623-3.643c-0.053-0.037-0.117-0.094-0.157-0.129c7.509-8.973,7.226-22.09-0.915-30.254c-8.689-8.701-22.98-8.506-31.956,0.416
			c-8.972,8.963-9.2,23.223-0.541,31.896c7.522,7.557,19.341,8.393,28.189,2.615c0.135,0.148,0.22,0.297,0.359,0.432l3.639,3.633
			C39.465,45.395,37.543,48.459,39.891,50.807z M12.275,33.762c-5.992-6.025-5.819-15.908,0.365-22.081
			c6.206-6.19,16.101-6.319,22.111-0.296c6.013,5.988,5.847,15.857-0.358,22.072C28.17,39.59,18.275,39.737,12.275,33.762z"/>
	</g>
</svg>
