<?xml version="1.0" encoding="iso-8859-1"?>
<!-- Generator: Adobe Illustrator 14.0.0, SVG Export Plug-In . SVG Version: 6.00 Build 43363)  -->
<!DOCTYPE svg PUBLIC "-//W3C//DTD SVG 1.1//EN" "http://www.w3.org/Graphics/SVG/1.1/DTD/svg11.dtd">
<svg version="1.1" id="icon-m-event-missed-layer" xmlns="http://www.w3.org/2000/svg" xmlns:xlink="http://www.w3.org/1999/xlink"
	 x="0px" y="0px" width="64px" height="64px" viewBox="0 0 64 64" style="enable-background:new 0 0 64 64;" xml:space="preserve">
<g id="icon-m-event-missed">
	<rect style="fill:none;" width="64" height="64"/>
	<path style="fill:#333333;" d="M63.954,28.982c-0.01-1.15-0.897-2.068-2.075-2.068l-9.001,0.006c-1.174,0-2.061,0.914-2.074,2.062
		H50.78c-0.021,8.237-5.918,16.42-13.192,16.42c-7.233,0-13.099-8.109-13.186-16.281l0.005-5.041l9.776-0.004
		c0.859,0,1.938-1.049,0.947-2.176L18.738,5.595c-0.505-0.579-1.384-0.573-1.89-0.003L0.37,21.9
		c-0.836,0.947-0.012,2.176,0.947,2.176h9.863v5.045c0.086,16.43,11.887,29.719,26.407,29.719c14.562,0,26.367-13.363,26.388-29.857
		H63.954z"/>
</g>
</svg>
