<?xml version="1.0" encoding="iso-8859-1"?>
<!-- Generator: Adobe Illustrator 14.0.0, SVG Export Plug-In . SVG Version: 6.00 Build 43363)  -->
<!DOCTYPE svg PUBLIC "-//W3C//DTD SVG 1.1//EN" "http://www.w3.org/Graphics/SVG/1.1/DTD/svg11.dtd">
<svg version="1.1" id="icon-s-messaging-smiley-surprised-layer"
	 xmlns="http://www.w3.org/2000/svg" xmlns:xlink="http://www.w3.org/1999/xlink" x="0px" y="0px" width="18px" height="18px"
	 viewBox="0 0 18 18" style="enable-background:new 0 0 18 18;" xml:space="preserve">
<g id="icon-s-messaging-smiley-surprised">
	<rect style="fill:none;" width="18" height="18"/>
	<path style="fill:#333333;" d="M17.408,2.973c-0.154-0.067-0.26-0.225-0.253-0.402c0.051-1.336-1.783-1.731-1.802-1.735
		c-0.229-0.047-0.375-0.271-0.328-0.498c0.047-0.229,0.271-0.375,0.498-0.328c0.883,0.183,2.537,0.96,2.475,2.594
		c-0.009,0.233-0.205,0.415-0.438,0.405C17.506,3.006,17.455,2.994,17.408,2.973L17.408,2.973z"/>
	<path style="fill:#333333;" d="M0.592,2.973C0.747,2.905,0.852,2.748,0.845,2.57C0.794,1.234,2.628,0.839,2.646,0.835
		c0.229-0.047,0.375-0.271,0.328-0.498C2.927,0.108,2.704-0.038,2.476,0.009c-0.883,0.183-2.537,0.96-2.474,2.594
		c0.009,0.233,0.205,0.415,0.438,0.405C0.494,3.006,0.545,2.994,0.592,2.973L0.592,2.973z"/>
	<ellipse style="fill:#333333;" cx="9" cy="12.656" rx="2.461" ry="2.813"/>
	<circle style="fill:#333333;" cx="6.02" cy="5.906" r="1.406"/>
	<circle style="fill:#333333;" cx="11.98" cy="5.906" r="1.406"/>
	<path style="fill:#333333;" d="M9,1.125c4.342,0,7.875,3.533,7.875,7.875c0,4.343-3.533,7.875-7.875,7.875
		c-4.342,0-7.875-3.532-7.875-7.875C1.125,4.658,4.658,1.125,9,1.125 M9,0C4.029,0,0,4.029,0,9s4.029,9,9,9s9-4.029,9-9
		S13.971,0,9,0L9,0z"/>
</g>
</svg>
