<?xml version="1.0" encoding="iso-8859-1"?>
<!-- Generator: Adobe Illustrator 14.0.0, SVG Export Plug-In . SVG Version: 6.00 Build 43363)  -->
<!DOCTYPE svg PUBLIC "-//W3C//DTD SVG 1.1//EN" "http://www.w3.org/Graphics/SVG/1.1/DTD/svg11.dtd">
<svg version="1.1" id="icon-m-content-poi-layer" xmlns="http://www.w3.org/2000/svg" xmlns:xlink="http://www.w3.org/1999/xlink"
	 x="0px" y="0px" width="64px" height="64px" viewBox="0 0 64 64" style="enable-background:new 0 0 64 64;" xml:space="preserve">
<g id="icon-m-content-poi">
	<rect style="fill:none;" width="64" height="64"/>
	<path style="fill:#333333;" d="M48.969,30.827c-4.996-4.997-13.126-4.997-18.123,0c-4.996,4.995-4.997,13.126,0,18.122
		c4.586,4.588,11.812,4.961,16.832,1.126l2.691,2.692l0.553,3.093c0.057,0.313,0.285,0.753,0.511,0.978l6.806,6.803
		c0.449,0.449,1.186,0.449,1.637,0l3.781-3.783c0.45-0.45,0.45-1.186,0-1.637l-6.798-6.807c-0.226-0.227-0.665-0.455-0.979-0.512
		l-3.096-0.553l-2.688-2.689C53.93,42.639,53.555,35.414,48.969,30.827z M46.154,46.135c-3.444,3.442-9.048,3.442-12.491,0
		c-3.444-3.444-3.444-9.047-0.001-12.491c3.443-3.442,9.048-3.442,12.492,0C49.598,37.088,49.598,42.691,46.154,46.135z"/>
	<path style="fill:#333333;" d="M22.439,32.932H2v-2.344l0.097,0.207l19.12-9.139l5.245,5.094c0.052-0.053,0.097-0.112,0.15-0.166
		c1.453-1.453,3.111-2.624,4.9-3.518l-4.368-4.243l16.682-7.973l11.751,11.501l-4.461,2.447c0.732,0.545,1.441,1.129,2.1,1.786
		c0.096,0.097,0.182,0.198,0.275,0.296l4.303-2.36l4.191,4.103v4.309h-4.606c0.259,0.655,0.472,1.324,0.655,2h5.951v-7.117
		L64,27.799l-0.016-0.016V0.023H0v34.908h21.782C21.966,34.253,22.181,33.584,22.439,32.932z M61.984,25.826l-7.393-7.236
		l7.393-3.697V25.826z M61.984,2.172v9.365l-9.662,4.832l-6.576-6.436L61.984,2.172z M45.119,2.023l-23.64,11.298L9.848,2.023
		H45.119z M2,2.99l13.553,13.164L2,22.633V2.99z"/>
</g>
</svg>
