<?xml version="1.0" encoding="iso-8859-1"?>
<!-- Generator: Adobe Illustrator 14.0.0, SVG Export Plug-In . SVG Version: 6.00 Build 43363)  -->
<!DOCTYPE svg PUBLIC "-//W3C//DTD SVG 1.1//EN" "http://www.w3.org/Graphics/SVG/1.1/DTD/svg11.dtd">
<svg version="1.1" id="icon-m-quicklaunchbar-close-layer"
	 xmlns="http://www.w3.org/2000/svg" xmlns:xlink="http://www.w3.org/1999/xlink" x="0px" y="0px" width="64px" height="64px"
	 viewBox="0 0 64 64" style="enable-background:new 0 0 64 64;" xml:space="preserve">
<g id="icon-m-quicklaunchbar-menu-close">
	<rect style="fill:none;" width="64" height="64"/>
	<path id="Icon-m-close_1_" style="fill:#FFFFFF;" d="M46.933,41.703c1.435,1.438,1.418,3.771-0.02,5.195
		c-0.713,0.717-1.648,1.08-2.593,1.08c-0.938,0-1.878-0.363-2.595-1.08l-9.727-9.709l-9.716,9.709
		c-0.715,0.717-1.66,1.08-2.594,1.08c-0.941,0-1.888-0.363-2.603-1.08c-1.43-1.424-1.445-3.75-0.009-5.191l9.736-9.701l-9.736-9.717
		c-1.437-1.424-1.437-3.754,0-5.195c1.431-1.43,3.769-1.43,5.205,0l9.721,9.715l9.723-9.715c1.438-1.43,3.753-1.43,5.188,0
		c1.438,1.441,1.454,3.771,0.02,5.199l-9.73,9.705L46.933,41.703z"/>
</g>
</svg>
