<?xml version="1.0" encoding="iso-8859-1"?>
<!-- Generator: Adobe Illustrator 14.0.0, SVG Export Plug-In . SVG Version: 6.00 Build 43363)  -->
<!DOCTYPE svg PUBLIC "-//W3C//DTD SVG 1.1//EN" "http://www.w3.org/Graphics/SVG/1.1/DTD/svg11.dtd">
<svg version="1.1" id="icon-m-messaging-smiley-picker-layer"
	 xmlns="http://www.w3.org/2000/svg" xmlns:xlink="http://www.w3.org/1999/xlink" x="0px" y="0px" width="64px" height="64px"
	 viewBox="0 0 64 64" style="enable-background:new 0 0 64 64;" xml:space="preserve">
<g id="icon-m-messaging-smiley-picker">
	<rect style="fill:none;" width="64" height="64"/>
	<circle style="fill:#333333;" cx="15.37" cy="14.827" r="3.59"/>
	<circle style="fill:#333333;" cx="30.589" cy="14.827" r="3.591"/>
	<path style="fill:#333333;" d="M22.979,31.656c-7.415,0-13.575-4.732-14.838-11.785c-0.156,0.872-0.242,1.762-0.242,2.676
		c0,8.328,6.751,13.822,15.08,13.822c8.329,0,15.08-5.494,15.08-13.822c0-0.914-0.085-1.804-0.241-2.676
		C36.556,26.924,30.395,31.656,22.979,31.656z"/>
	<path style="fill:#333333;" d="M22.979,2.872c11.087,0,20.107,9.021,20.107,20.106c0,11.088-9.02,20.107-20.107,20.107
		c-11.087,0-20.106-9.02-20.106-20.107C2.873,11.893,11.892,2.872,22.979,2.872 M22.979,0C10.288,0,0,10.287,0,22.979
		c0,12.692,10.288,22.979,22.979,22.979s22.979-10.287,22.979-22.979C45.958,10.287,35.67,0,22.979,0L22.979,0z"/>
	<path style="fill:#333333;" d="M46,28c-9.941,0-18,8.059-18,18c0,9.94,8.059,18,18,18c9.94,0,18-8.06,18-18
		C64,36.059,55.94,28,46,28z M56.8,48.867h-7.842v7.934h-5.871v-7.934H35.2v-5.825h7.887v-7.841h5.871v7.841H56.8V48.867z"/>
</g>
</svg>
