<?xml version="1.0" encoding="iso-8859-1"?>
<!-- Generator: Adobe Illustrator 14.0.0, SVG Export Plug-In . SVG Version: 6.00 Build 43363)  -->
<!DOCTYPE svg PUBLIC "-//W3C//DTD SVG 1.1//EN" "http://www.w3.org/Graphics/SVG/1.1/DTD/svg11.dtd">
<svg version="1.1" id="icon-m-common-wlan-layer" xmlns="http://www.w3.org/2000/svg" xmlns:xlink="http://www.w3.org/1999/xlink"
	 x="0px" y="0px" width="64px" height="64px" viewBox="0 0 64 64" style="enable-background:new 0 0 64 64;" xml:space="preserve">
<g id="icon-m-common-wlan">
	<rect style="fill:none;" width="64" height="64"/>
	<path style="fill:#333333;" d="M45.615,55.443h-6.021l-5.522-23.152c2.421-0.903,4.173-3.266,4.173-6.117
		c0-3.623-2.791-6.551-6.244-6.551c-3.452,0-6.251,2.928-6.251,6.551c0,2.852,1.744,5.206,4.162,6.117l-5.504,23.152h-6.021
		c-1.1,0-2,0.9-2,2V60c0,1.1,0.9,2,2,2h27.23c1.101,0,2-0.9,2-2v-2.557C47.615,56.344,46.716,55.443,45.615,55.443"/>
	<path style="fill:#333333;" d="M53.59,4.99c-0.711-0.538-1.725-0.385-2.273,0.338c-0.533,0.724-0.377,1.759,0.352,2.303
		c4.613,3.496,7.496,10.396,7.496,18.01c0,7.602-2.883,14.52-7.496,18.01c-0.729,0.541-0.885,1.561-0.352,2.291
		c0.549,0.728,1.563,0.875,2.273,0.342c5.43-4.119,8.809-12.021,8.809-20.643C62.398,17.008,59.02,9.107,53.59,4.99"/>
	<path style="fill:#333333;" d="M49.273,16.682c0,0-0.039-0.115-0.068-0.174c-0.34-0.805-1.153-2.275-1.153-2.275
		c-0.871-1.509-1.759-2.67-3.088-3.918c-0.47-0.455-0.996-0.848-1.504-1.238c-0.111-0.084-0.232-0.145-0.357-0.193
		c-0.696-0.376-1.584-0.189-2.085,0.488c-0.436,0.599-0.415,1.402-0.005,1.99c0.112,0.201,0.332,0.416,0.455,0.529
		c0.763,0.701,1.578,1.385,2.28,2.225c0.257,0.318,0.507,0.646,0.752,0.99c1.812,2.803,2.902,6.545,2.902,10.555
		c0,3.965-1.031,7.676-2.815,10.477c-0.914,1.262-1.955,2.289-3.087,3.246c-0.709,0.604-0.897,1.633-0.354,2.379
		c0.556,0.75,1.572,0.941,2.349,0.436c0.535-0.352,1.033-0.699,1.504-1.154c1.474-1.241,2.638-3.078,3.627-4.956h-0.023
		C50.132,33.094,51,29.47,51,25.66C51,22.447,50.382,19.365,49.273,16.682"/>
	<path style="fill:#333333;" d="M12.331,7.631c0.73-0.544,0.886-1.579,0.353-2.303c-0.549-0.723-1.563-0.876-2.274-0.338
		c-5.43,4.117-8.809,12.018-8.809,20.65c0,8.621,3.379,16.523,8.809,20.643c0.711,0.533,1.726,0.386,2.274-0.342
		c0.533-0.73,0.377-1.75-0.353-2.291c-4.612-3.49-7.496-10.408-7.496-18.01C4.835,18.027,7.719,11.127,12.331,7.631"/>
	<path style="fill:#333333;" d="M19.002,41.041c0.472,0.455,0.969,0.803,1.504,1.154c0.775,0.507,1.793,0.314,2.348-0.436
		c0.544-0.746,0.353-1.774-0.356-2.379c-1.131-0.957-2.172-1.984-3.085-3.245c-1.784-2.802-2.813-6.513-2.813-10.478
		c0-4.01,1.09-7.752,2.901-10.556c0.244-0.343,0.494-0.671,0.752-0.989c0.701-0.84,1.518-1.522,2.279-2.225
		c0.124-0.113,0.344-0.328,0.456-0.529c0.411-0.587,0.432-1.393-0.004-1.99c-0.501-0.678-1.389-0.865-2.085-0.488
		C20.772,8.93,20.65,8.99,20.539,9.074c-0.508,0.391-1.033,0.783-1.504,1.238c-1.328,1.248-2.216,2.408-3.087,3.918
		c0,0-0.813,1.472-1.153,2.276c-0.027,0.058-0.067,0.173-0.067,0.173C13.617,19.363,13,22.445,13,25.658
		c0,3.809,0.867,7.434,2.398,10.426h-0.024C16.363,37.963,17.527,39.799,19.002,41.041"/>
</g>
</svg>
