<?xml version="1.0" encoding="iso-8859-1"?>
<!-- Generator: Adobe Illustrator 14.0.0, SVG Export Plug-In . SVG Version: 6.00 Build 43363)  -->
<!DOCTYPE svg PUBLIC "-//W3C//DTD SVG 1.1//EN" "http://www.w3.org/Graphics/SVG/1.1/DTD/svg11.dtd">
<svg version="1.1" id="icon-m-image-edit-red-eyes-remove-layer"
	 xmlns="http://www.w3.org/2000/svg" xmlns:xlink="http://www.w3.org/1999/xlink" x="0px" y="0px" width="64px" height="64px"
	 viewBox="0 0 64 64" style="enable-background:new 0 0 64 64;" xml:space="preserve">
<g id="icon-m-image-edit-red-eyes-remove">
	<rect style="fill:none;" width="64" height="64"/>
	<path style="fill:#333333;" d="M62.301,31.24c0,0-14.502-15.537-30.301-15.537c-15.801,0-30.303,15.537-30.303,15.537
		c-0.374,0.402-0.374,1.115,0,1.518c0,0,14.502,15.539,30.303,15.539c15.799,0,30.301-15.539,30.301-15.539
		C62.677,32.355,62.677,31.643,62.301,31.24z M54.726,32.568c0,0-10.876,11.654-22.726,11.654
		c-11.852,0-22.727-11.654-22.727-11.654c-0.281-0.301-0.521-0.59-0.518-0.59c0.004,0,0.237-0.246,0.518-0.549
		c0,0,10.875-11.652,22.727-11.652c11.85,0,22.726,11.652,22.726,11.652c0.281,0.303,0.515,0.549,0.518,0.549
		C55.247,31.979,55.007,32.268,54.726,32.568z"/>
	<path style="fill:#333333;" d="M32,21c-6.075,0-11,4.924-11,11s4.925,11,11,11c6.076,0,11-4.924,11-11S38.076,21,32,21z M32,38.602
		c-3.635,0-6.586-2.939-6.6-6.572h6.591v-6.631c0.005,0,0.006,0,0.009,0c3.647,0,6.6,2.955,6.6,6.602S35.647,38.602,32,38.602z"/>
</g>
</svg>
