<?xml version="1.0" encoding="iso-8859-1"?>
<!-- Generator: Adobe Illustrator 14.0.0, SVG Export Plug-In . SVG Version: 6.00 Build 43363)  -->
<!DOCTYPE svg PUBLIC "-//W3C//DTD SVG 1.1//EN" "http://www.w3.org/Graphics/SVG/1.1/DTD/svg11.dtd">
<svg version="1.1" id="icon-m-toolbar-volume-layer"
	 xmlns="http://www.w3.org/2000/svg" xmlns:xlink="http://www.w3.org/1999/xlink" x="0px" y="0px" width="64px" height="64px"
	 viewBox="0 0 64 64" style="enable-background:new 0 0 64 64;" xml:space="preserve">
<g id="icon-m-toolbar-volume">
	<rect style="fill:none;" width="64" height="64"/>
	<path style="fill:#FFFFFF;" d="M33.523,14.245h-0.687c-0.159,0-0.392,0.087-0.519,0.189l-11.883,9.841H6.448v15.35h13.867
		l12.033,9.942c0.126,0.106,0.359,0.188,0.519,0.188h0.686c0.153,0,0.283-0.15,0.283-0.335l-0.029-34.838
		C33.807,14.396,33.676,14.245,33.523,14.245z"/>
	<path style="fill:#FFFFFF;" d="M50.504,14.831c-0.568-0.431-1.379-0.308-1.818,0.271c-0.426,0.578-0.301,1.406,0.281,1.843
		c3.691,2.797,5.997,8.316,5.997,14.408c0,6.081-2.306,11.614-5.997,14.407c-0.582,0.433-0.707,1.248-0.281,1.833
		c0.439,0.581,1.25,0.7,1.818,0.272c4.344-3.295,7.047-9.617,7.047-16.513C57.551,24.445,54.848,18.125,50.504,14.831z"/>
	<path style="fill:#FFFFFF;" d="M46.777,24.272c0,0-0.031-0.093-0.055-0.14c-0.271-0.644-0.922-1.82-0.922-1.82
		c-0.697-1.208-1.407-2.136-2.47-3.135c-0.376-0.363-0.797-0.678-1.203-0.99c-0.089-0.067-0.187-0.115-0.286-0.154
		c-0.558-0.302-1.268-0.151-1.668,0.391c-0.35,0.479-0.332,1.122-0.004,1.592c0.09,0.161,0.266,0.332,0.364,0.424
		c0.609,0.561,1.263,1.107,1.823,1.78c0.207,0.255,0.406,0.517,0.602,0.792c1.45,2.241,2.322,5.235,2.322,8.443
		c0,3.172-0.825,6.14-2.252,8.381c-0.731,1.01-1.564,1.83-2.469,2.597c-0.566,0.483-0.719,1.307-0.284,1.903
		c0.444,0.6,1.258,0.754,1.878,0.349c0.428-0.281,0.826-0.56,1.203-0.924c1.18-0.993,2.111-2.462,2.902-3.966h-0.02
		c1.225-2.394,1.919-5.293,1.919-8.34C48.159,28.885,47.664,26.419,46.777,24.272z"/>
</g>
</svg>
