<?xml version="1.0" encoding="iso-8859-1"?>
<!-- Generator: Adobe Illustrator 14.0.0, SVG Export Plug-In . SVG Version: 6.00 Build 43363)  -->
<!DOCTYPE svg PUBLIC "-//W3C//DTD SVG 1.1//EN" "http://www.w3.org/Graphics/SVG/1.1/DTD/svg11.dtd">
<svg version="1.1" id="icon-m-internet-connection-saved-layer"
	 xmlns="http://www.w3.org/2000/svg" xmlns:xlink="http://www.w3.org/1999/xlink" x="0px" y="0px" width="64px" height="64px"
	 viewBox="0 0 64 64" style="enable-background:new 0 0 64 64;" xml:space="preserve">
<g id="icon-m-internet-connection-saved">
	<rect style="fill:none;" width="64" height="64"/>
	<path style="fill:#333333;" d="M59.304,16.884c-0.004,0.013-3.995,2.712-9.849,7.967c-5.848,5.267-13.525,13.052-20.854,23.177
		c-0.113,0.148-0.297,0.254-0.495,0.277c-0.017,0-0.038,0-0.059,0c-0.179,0-0.355-0.072-0.483-0.197L12.432,33.275
		c-0.131-0.137-0.2-0.293-0.196-0.473c0.006-0.176,0.082-0.346,0.212-0.463l5.049-4.545c0.268-0.25,0.694-0.235,0.949,0.015
		l8.354,8.382c2.562-3.591,15.116-20.171,32.106-20.498c0.295,0,0.563,0.186,0.652,0.457c0.023,0.066,0.033,0.135,0.033,0.203V8.438
		V4.574V4.572c0-1.097-0.904-1.992-2.007-1.992H6.416c-1.103,0-2.005,0.674-2.005,1.494v0.498v30.105v20.881v3.865v0.002
		c0,1.094,0.902,1.992,2.005,1.992h51.169c1.103,0,2.007-0.674,2.007-1.494v-0.498V29.32V16.356
		C59.59,16.561,59.487,16.76,59.304,16.884z"/>
</g>
</svg>
