<?xml version="1.0" encoding="iso-8859-1"?>
<!-- Generator: Adobe Illustrator 14.0.0, SVG Export Plug-In . SVG Version: 6.00 Build 43363)  -->
<!DOCTYPE svg PUBLIC "-//W3C//DTD SVG 1.1//EN" "http://www.w3.org/Graphics/SVG/1.1/DTD/svg11.dtd">
<svg version="1.1" id="icon-m-image-edit-add-text-layer"
	 xmlns="http://www.w3.org/2000/svg" xmlns:xlink="http://www.w3.org/1999/xlink" x="0px" y="0px" width="65px" height="64px"
	 viewBox="0 0 65 64" style="enable-background:new 0 0 65 64;" xml:space="preserve">
<g id="icon-m-image-edit-add-text">
	<path style="fill:#333333;" d="M8.477,7.495c-2.152,0-4.512,0.377-6.7,0.923V11.7c1.673-0.513,3.521-0.923,5.163-0.923
		c2.358,0,3.692,0.786,3.692,3.214v1.503C4.717,15.598,0,16.28,0,21.889c0,3.76,2.323,5.776,6.084,5.776
		c2.633,0,4.41-0.888,5.983-3.043l0.753,2.805h3.314V14.06C16.135,9.171,12.785,7.495,8.477,7.495z M10.632,20.896
		c0,2.188-0.891,3.658-2.94,3.658c-1.607,0-2.257-1.129-2.257-2.77c0-2.564,1.64-3.555,3.932-3.555h1.266V20.896z"/>
	<path style="fill:#333333;" d="M37.498,17.204c0-4.923-1.333-9.709-6.769-9.709c-1.914,0-3.451,0.479-4.888,1.847V1h-5.504v26.151
		c2.494,0.344,4.65,0.445,7.52,0.445C34.216,27.597,37.498,23.733,37.498,17.204z M27.856,24.589c-0.648,0-1.468-0.103-2.016-0.171
		v-7.214c0-3.213,0.137-6.427,3.077-6.427c2.632,0,2.906,3.76,2.906,6.393C31.824,21.067,31.242,24.589,27.856,24.589z"/>
	<g>
		<path style="fill:#333333;" d="M46.188,28.279c-9.941,0-18,8.06-18,18c0,9.941,8.059,18,18,18c9.94,0,18-8.059,18-18
			C64.188,36.339,56.129,28.279,46.188,28.279z M56.988,49.146h-7.843v7.934h-5.87v-7.934h-7.887v-5.824h7.887V35.48h5.87v7.842
			h7.843V49.146z"/>
	</g>
</g>
</svg>
