<?xml version="1.0" encoding="iso-8859-1"?>
<!-- Generator: Adobe Illustrator 14.0.0, SVG Export Plug-In . SVG Version: 6.00 Build 43363)  -->
<!DOCTYPE svg PUBLIC "-//W3C//DTD SVG 1.1//EN" "http://www.w3.org/Graphics/SVG/1.1/DTD/svg11.dtd">
<svg version="1.1" id="icon-m-common-pages2-layer" xmlns="http://www.w3.org/2000/svg" xmlns:xlink="http://www.w3.org/1999/xlink"
	 x="0px" y="0px" width="64px" height="64px" viewBox="0 0 64 64" style="enable-background:new 0 0 64 64;" xml:space="preserve">
<g id="icon-m-common-pages2">
	<rect style="fill:none;" width="64" height="64"/>
	<path style="fill:#333333;" d="M27,31.363V0H0v36h24.191C24.954,34.344,25.897,32.79,27,31.363z M3,33.246V2.99h21v30.256H3z"/>
	<path style="fill:#333333;" d="M34,25.229V2.99h21v20.768c1.038,0.422,2.039,0.914,3,1.471V0H31v27.285
		C31.944,26.526,32.947,25.84,34,25.229z"/>
	<path style="fill:#333333;" d="M46,28c-9.941,0-18,8.06-18,18c0,9.941,8.059,18,18,18s18-8.059,18-18C64,36.06,55.941,28,46,28z
		 M53.323,57.675H38.676v-2.537c0-5.349,3.374-8.198,5.838-10.278c1.729-1.45,2.777-2.428,2.777-3.79
		c0-1.638-0.719-2.307-2.48-2.307c-1.426,0-2.843,0.433-4.162,0.899l-1.334,0.473v-4.672l0.697-0.221
		c1.922-0.608,3.829-0.916,5.669-0.916c4.872,0,7.556,2.333,7.556,6.568c0,3.738-2.578,5.902-4.65,7.641
		c-2.111,1.784-3.543,3.096-4.04,4.703h8.777V57.675z"/>
</g>
</svg>
