<?xml version="1.0" encoding="iso-8859-1"?>
<!-- Generator: Adobe Illustrator 14.0.0, SVG Export Plug-In . SVG Version: 6.00 Build 43363)  -->
<!DOCTYPE svg PUBLIC "-//W3C//DTD SVG 1.1//EN" "http://www.w3.org/Graphics/SVG/1.1/DTD/svg11.dtd">
<svg version="1.1" id="icon-m-camera-focusmode-touch-scren-layer"
	 xmlns="http://www.w3.org/2000/svg" xmlns:xlink="http://www.w3.org/1999/xlink" x="0px" y="0px" width="24px" height="24px"
	 viewBox="0 0 24 24" style="enable-background:new 0 0 24 24;" xml:space="preserve">
<g id="icon-m-camera-focusmode-touch-scren">
	<rect style="fill:none;" width="24" height="24"/>
	<path style="fill:#FFFFFF;" d="M17.044,11.773c-0.308-1.083-2.11-0.57-1.804,0.512l0.307,1.082l-0.721,0.205l-0.819-2.887
		c-0.308-1.082-2.111-0.57-1.804,0.513l0.614,2.164l-0.722,0.205l-0.921-3.247c-0.307-1.082-2.111-0.57-1.804,0.512l0.717,2.525
		l-0.722,0.205L7.318,6.348c-0.307-1.083-2.111-0.57-1.793,0.549l3.471,12.229l9.38-2.662L17.044,11.773z"/>
	<path style="fill:#FFFFFF;" d="M6.375,21.75H2.25V2.213L6.375,2.25V0.375H2.25c-1.031,0-1.875,0.844-1.875,1.875v19.5
		c0,1.031,0.844,1.875,1.875,1.875h4.125V21.75z"/>
	<path style="fill:#FFFFFF;" d="M17.625,2.25l4.125-0.037V21.75h-4.125v1.875h4.125c1.031,0,1.875-0.844,1.875-1.875V2.25
		c0-1.031-0.844-1.875-1.875-1.875h-4.125V2.25z"/>
</g>
</svg>
