<?xml version="1.0" encoding="iso-8859-1"?>
<!-- Generator: Adobe Illustrator 14.0.0, SVG Export Plug-In . SVG Version: 6.00 Build 43363)  -->
<!DOCTYPE svg PUBLIC "-//W3C//DTD SVG 1.1//EN" "http://www.w3.org/Graphics/SVG/1.1/DTD/svg11.dtd">
<svg version="1.1" id="icon-m-camera-resolution-71m-layer"
	 xmlns="http://www.w3.org/2000/svg" xmlns:xlink="http://www.w3.org/1999/xlink" x="0px" y="0px" width="64px" height="64px"
	 viewBox="0 0 64 64" style="enable-background:new 0 0 64 64;" xml:space="preserve">
<g id="icon-m-camera-resolution-71m">
	<rect style="fill:none;" width="64" height="64"/>
	<polygon style="fill:#333333;" points="51.702,39.404 51.702,0 43.82,0 43.82,7.881 35.94,7.881 35.94,15.762 28.059,15.762 
		28.059,23.642 20.178,23.642 20.178,31.523 12.298,31.523 12.298,39.404 	"/>
	<path style="fill:#333333;" d="M19.25,47.579c-2.899,4.948-4.648,9.897-4.824,16.221h-4.274c0.15-5.799,2.224-11.447,4.848-15.721
		H7.728v-2.475H19.25V47.579z"/>
	<path style="fill:#333333;" d="M23.026,64c-1.225,0-2.199-0.976-2.199-2.2s0.975-2.225,2.199-2.225c1.224,0,2.224,1,2.224,2.225
		S24.25,64,23.026,64z"/>
	<path style="fill:#333333;" d="M38.424,63.8H26.927v-2.199h3.849V48.554l-3.849,0.824v-2.148l5.698-1.775H34.8v16.146h3.624V63.8z"
		/>
	<path style="fill:#333333;" d="M56.272,63.8h-4.024V51.728l-3.174,6.148h-1.5l-3.124-6.148V63.8h-4.124V45.604h3.6l4.398,8.598
		l4.398-8.598h3.55V63.8z"/>
</g>
</svg>
