<?xml version="1.0" encoding="iso-8859-1"?>
<!-- Generator: Adobe Illustrator 14.0.0, SVG Export Plug-In . SVG Version: 6.00 Build 43363)  -->
<!DOCTYPE svg PUBLIC "-//W3C//DTD SVG 1.1//EN" "http://www.w3.org/Graphics/SVG/1.1/DTD/svg11.dtd">
<svg version="1.1" id="icon-m-resolution-3m-layer" xmlns="http://www.w3.org/2000/svg" xmlns:xlink="http://www.w3.org/1999/xlink"
	 x="0px" y="0px" width="64px" height="64px" viewBox="0 0 64 64" style="enable-background:new 0 0 64 64;" xml:space="preserve">
<g id="icon-m-camera-resolution-3m">
	<rect style="fill:none;" width="64" height="64"/>
	<polygon style="fill:#333333;" points="51.566,39.112 51.566,0 38.521,0 38.521,13.043 25.478,13.043 25.478,26.089 25.478,26.087 
		12.434,26.087 12.434,39.114 	"/>
	<path style="fill:#333333;" d="M21.276,47.804c-1.15,0-2.35,0.3-3.549,0.625v-2.425c1.3-0.325,2.824-0.6,4.374-0.6
		c3.424,0,5.898,1.149,5.898,4.524c0,2.124-1.175,3.574-3.299,4.224c2.35,0.425,3.624,2.024,3.624,4.249
		C28.324,62.4,25.8,64,21.375,64c-1.474,0-2.773-0.2-4.198-0.575v-2.424c1.499,0.35,2.674,0.6,3.799,0.6
		c2.3,0,3.199-1.1,3.199-3.125c0-2.674-1.55-3.148-5.398-3.148v-2.3c3.699,0,5.174-0.399,5.174-2.824
		C23.951,48.579,23.05,47.804,21.276,47.804z"/>
	<path style="fill:#333333;" d="M46.822,63.8h-4.023V51.728l-3.174,6.148h-1.5L35,51.728V63.8h-4.124V45.604h3.599l4.399,8.598
		l4.398-8.598h3.549V63.8z"/>
</g>
</svg>
