<?xml version="1.0" encoding="iso-8859-1"?>
<!-- Generator: Adobe Illustrator 14.0.0, SVG Export Plug-In . SVG Version: 6.00 Build 43363)  -->
<!DOCTYPE svg PUBLIC "-//W3C//DTD SVG 1.1//EN" "http://www.w3.org/Graphics/SVG/1.1/DTD/svg11.dtd">
<svg version="1.1" id="icon-m-toolbar-search-document-layer"
	 xmlns="http://www.w3.org/2000/svg" xmlns:xlink="http://www.w3.org/1999/xlink" x="0px" y="0px" width="64px" height="64px"
	 viewBox="0 0 64 64" style="enable-background:new 0 0 64 64;" xml:space="preserve">
<g id="icon-m-toolbar-search-document">
	<rect style="fill:none;" width="64" height="64"/>
	<polygon style="fill:#FFFFFF;" points="26.718,12.166 26.718,22.334 36.572,22.334 36.572,18 	"/>
	<path style="fill:#FFFFFF;" d="M21.121,34.886c0-4.038,1.57-7.831,4.421-10.681c0.072-0.072,0.152-0.135,0.226-0.205h-0.195
		c-1.19,0-2.158-0.969-2.158-2.158V12H11.625c-0.527,0-0.96,0.432-0.96,0.96v27.824c0,0.528,0.433,0.96,0.96,0.96H22.77
		C21.699,39.646,21.121,37.313,21.121,34.886z"/>
	<path style="fill:#FFFFFF;" d="M42.66,28.448c-3.549-3.55-9.326-3.55-12.876,0c-3.551,3.55-3.551,9.325,0,12.874
		c3.258,3.262,8.392,3.525,11.958,0.801l1.912,1.912l0.393,2.197c0.041,0.224,0.203,0.535,0.363,0.697l4.835,4.831
		c0.319,0.319,0.843,0.319,1.162,0l2.687-2.688c0.32-0.319,0.32-0.843,0-1.162l-4.828-4.837c-0.161-0.16-0.474-0.322-0.697-0.363
		l-2.197-0.393l-1.911-1.911C46.184,36.84,45.919,31.707,42.66,28.448z M40.91,39.484c-2.537,2.535-6.662,2.535-9.197,0
		c-2.536-2.535-2.536-6.661,0-9.197c2.536-2.535,6.661-2.535,9.198,0C43.445,32.823,43.445,36.949,40.91,39.484z"/>
</g>
</svg>
