<?xml version="1.0" encoding="iso-8859-1"?>
<!-- Generator: Adobe Illustrator 13.0.2, SVG Export Plug-In . SVG Version: 6.00 Build 14948)  -->
<!DOCTYPE svg PUBLIC "-//W3C//DTD SVG 1.1//EN" "http://www.w3.org/Graphics/SVG/1.1/DTD/svg11.dtd">
<svg version="1.1" xmlns="http://www.w3.org/2000/svg" xmlns:xlink="http://www.w3.org/1999/xlink" x="0px" y="0px" width="64px"
	 height="64.414px" viewBox="0 0 64 64.414" style="enable-background:new 0 0 64 64.414;" xml:space="preserve">
	<g id="icon-m-content-genre">
		<rect style="fill:none;" width="64" height="64"/>
		<path style="fill:#343434;" d="M0,0.414v64h64v-64H0z"/>
		<path style="fill:#FFFFFF;" d="M35.623,47.746l-0.365,3.203c-0.063,1.188-0.672,1.502-1.268,1.502
			c-0.57,0-1.033-0.672-1.072-1.518c-0.004-0.01,0.057-36.412,0.057-36.412c0.479-12.379-6.741-12.457-6.741-12.457
			C18.066,1.246,17.453,8.6,17.453,8.6c0.199,2.898-2.586,3.887-5.48,4.145c-0.4-0.721-1.025-1.193-1.738-1.193H5.185
			c-1.209,0-2.188,1.346-2.188,3.004s0.979,3.002,2.188,3.002h5.049c0.693,0,1.303-0.447,1.703-1.135
			c0.508,0.135,0.819,0.143,0.819,0.143c8.578,1.021,8.578-3.064,8.578-3.064c0.269-6.936,3.268-6.33,3.268-6.33
			c2.385-0.189,2.451,4.697,2.451,4.697s-0.409,24.57-1.838,38.254c-1.43,13.684,7.352,12.867,7.352,12.867
			C41.59,63.475,42.955,49.32,42.955,49.32c1.688-8.697,11.668-5.938,11.668-5.938l-9.6-19.402
			C36.832,31.85,35.623,47.746,35.623,47.746z"/>
		<path style="fill:#FFFFFF;" d="M60.789,40.963L50.072,19.357c-0.465-0.941-1.547-1.357-2.414-0.926
			c-0.867,0.43-1.191,1.541-0.725,2.484l10.715,21.605c0.469,0.941,1.549,1.357,2.416,0.928
			C60.932,43.018,61.258,41.906,60.789,40.963z"/>
	</g>
</svg>
