<?xml version="1.0" encoding="iso-8859-1"?>
<!-- Generator: Adobe Illustrator 14.0.0, SVG Export Plug-In . SVG Version: 6.00 Build 43363)  -->
<!DOCTYPE svg PUBLIC "-//W3C//DTD SVG 1.1//EN" "http://www.w3.org/Graphics/SVG/1.1/DTD/svg11.dtd">
<svg version="1.1" id="icon-m-energy-management-charging2-layer"
	 xmlns="http://www.w3.org/2000/svg" xmlns:xlink="http://www.w3.org/1999/xlink" x="0px" y="0px" width="64px" height="64px"
	 viewBox="0 0 64 64" style="enable-background:new 0 0 64 64;" xml:space="preserve">
<g id="icon-m-energy-management-charging2">
	<rect style="fill:none;" width="64" height="64"/>
	<path style="fill:#333333;" d="M25.609,58.094H6.117c-1.003,0-1.829-0.826-1.829-1.828V14.264c0-1.003,0.825-1.828,1.829-1.828
		h23.772c1.004,0,1.828,0.825,1.828,1.828v12.713c1.326-1.021,2.759-1.908,4.283-2.639V8.723c0-1.008-0.821-1.828-1.826-1.828
		h-9.803V4.152c0-1.006-0.822-1.828-1.827-1.828h-9.085c-1.004,0-1.826,0.822-1.826,1.828v2.742H1.828C0.822,6.895,0,7.715,0,8.723
		v51.125c0,1.006,0.822,1.83,1.828,1.83h26.349C27.216,60.566,26.356,59.367,25.609,58.094z"/>
	<path style="fill:#333333;" d="M22.327,46c0-1.49,0.144-2.951,0.406-4.367H7.736v12.666h16.071
		C22.851,51.711,22.327,48.916,22.327,46z"/>
	<path style="fill:#333333;" d="M54.148,49.443v3.676c-0.003,1.23-1.296,2.234-2.872,2.23l-7.782-0.031l0.016-4.066l-7.924-0.029
		c-0.42,0-0.761-0.344-0.759-0.766l0.005-1.396c0-0.418,0.346-0.758,0.766-0.758l7.93,0.029l0.01-4.709l-7.922-0.016
		c-0.421,0-0.76-0.344-0.76-0.764l0.004-1.395c0.004-0.422,0.347-0.764,0.766-0.762l7.924,0.016l0.016-4.053l7.782,0.01
		c1.576,0.004,2.86,1.018,2.856,2.25l-0.013,3.695L64,42.629C62.42,34.301,55.114,28,46.327,28c-9.94,0-18,8.059-18,18
		c0,9.939,8.06,18,18,18c8.763,0,16.055-6.264,17.663-14.557H54.148z"/>
</g>
</svg>
