<?xml version="1.0" encoding="iso-8859-1"?>
<!-- Generator: Adobe Illustrator 14.0.0, SVG Export Plug-In . SVG Version: 6.00 Build 43363)  -->
<!DOCTYPE svg PUBLIC "-//W3C//DTD SVG 1.1//EN" "http://www.w3.org/Graphics/SVG/1.1/DTD/svg11.dtd">
<svg version="1.1" id="icon-m-common-wlan-strength0-layer"
	 xmlns="http://www.w3.org/2000/svg" xmlns:xlink="http://www.w3.org/1999/xlink" x="0px" y="0px" width="64px" height="64px"
	 viewBox="0 0 64 64" style="enable-background:new 0 0 64 64;" xml:space="preserve">
<g id="icon-m-common-wlan-strength0">
	<path style="fill:#333333;" d="M28.519,59.898h-3.765l-3.455-14.48c1.511-0.562,2.607-2.046,2.607-3.827
		c0-2.267-1.747-4.096-3.906-4.096s-3.913,1.829-3.913,4.096c0,1.781,1.09,3.264,2.605,3.827l-3.446,14.48h-3.766
		c-0.69,0-1.251,0.57-1.251,1.252v1.598c0,0.699,0.562,1.252,1.251,1.252h17.037c0.69,0,1.251-0.553,1.251-1.252V61.15
		C29.77,60.469,29.208,59.898,28.519,59.898"/>
	<path style="fill:#333333;" d="M34.488,28.606c-0.443-0.333-1.08-0.234-1.421,0.217c-0.335,0.45-0.236,1.102,0.222,1.438
		c2.884,2.188,4.689,6.51,4.689,11.273c0,4.752-1.806,9.076-4.689,11.258c-0.458,0.345-0.557,0.977-0.222,1.438
		c0.341,0.455,0.978,0.547,1.421,0.211C37.885,51.866,40,46.928,40,41.535C40,36.131,37.885,31.185,34.488,28.606"/>
	<path style="fill:#333333;" d="M31.573,35.923c0,0-0.02-0.069-0.039-0.104c-0.215-0.502-0.723-1.431-0.723-1.431
		c-0.547-0.938-1.099-1.667-1.933-2.447c-0.293-0.287-0.624-0.523-0.938-0.772c-0.072-0.059-0.146-0.096-0.225-0.123
		c-0.439-0.236-0.988-0.119-1.303,0.303c-0.272,0.384-0.262,0.886-0.004,1.243c0.067,0.13,0.204,0.272,0.282,0.339
		c0.48,0.442,0.991,0.869,1.426,1.386c0.163,0.201,0.319,0.411,0.471,0.619c1.134,1.761,1.815,4.103,1.815,6.604
		c0,2.486-0.646,4.802-1.759,6.561c-0.569,0.783-1.224,1.431-1.933,2.031c-0.441,0.376-0.56,1.018-0.216,1.486
		c0.345,0.469,0.978,0.583,1.465,0.271c0.333-0.222,0.645-0.433,0.939-0.722c0.923-0.775,1.654-1.932,2.271-3.106h-0.013
		c0.958-1.872,1.499-4.141,1.499-6.521C32.654,39.535,32.27,37.602,31.573,35.923"/>
	<path style="fill:#333333;" d="M6.711,30.262c0.459-0.337,0.557-0.988,0.223-1.438c-0.342-0.451-0.979-0.55-1.421-0.217
		C2.116,31.185,0,36.131,0,41.535c0,5.393,2.116,10.331,5.512,12.907c0.443,0.336,1.079,0.244,1.421-0.211
		c0.334-0.462,0.236-1.094-0.223-1.438c-2.884-2.182-4.689-6.506-4.689-11.258C2.021,36.771,3.827,32.449,6.711,30.262"/>
	<path style="fill:#333333;" d="M11.103,51.164c0.293,0.29,0.606,0.5,0.938,0.724c0.487,0.313,1.121,0.198,1.466-0.271
		c0.344-0.469,0.224-1.112-0.217-1.486c-0.709-0.603-1.364-1.248-1.933-2.031c-1.114-1.759-1.758-4.076-1.758-6.561
		c0-2.502,0.681-4.844,1.814-6.604c0.151-0.21,0.308-0.42,0.471-0.62c0.434-0.517,0.946-0.944,1.425-1.386
		c0.077-0.067,0.215-0.21,0.281-0.338c0.259-0.359,0.269-0.861-0.003-1.245c-0.314-0.421-0.864-0.538-1.302-0.302
		c-0.079,0.028-0.154,0.063-0.226,0.123c-0.314,0.248-0.644,0.486-0.938,0.771c-0.834,0.78-1.386,1.512-1.933,2.449
		c0,0-0.508,0.927-0.723,1.429c-0.019,0.035-0.039,0.104-0.039,0.104c-0.698,1.679-1.082,3.612-1.082,5.618
		c0,2.38,0.54,4.646,1.499,6.521H8.832C9.447,49.234,10.178,50.39,11.103,51.164"/>
	<rect style="fill:none;" width="64" height="64"/>
	<rect x="47.025" y="59" style="opacity:0.3;fill:#333333;" width="16.975" height="5"/>
	<rect x="47.025" y="47.833" style="opacity:0.3;fill:#333333;" width="16.975" height="5"/>
	<rect x="47.025" y="36.667" style="opacity:0.3;fill:#333333;" width="16.975" height="5"/>
	<rect x="47.025" y="25.501" style="opacity:0.3;fill:#333333;" width="16.975" height="5"/>
	<rect x="47.025" y="14.334" style="opacity:0.3;fill:#333333;" width="16.975" height="5"/>
</g>
</svg>
