<?xml version="1.0" encoding="iso-8859-1"?>
<!-- Generator: Adobe Illustrator 14.0.0, SVG Export Plug-In . SVG Version: 6.00 Build 43363)  -->
<!DOCTYPE svg PUBLIC "-//W3C//DTD SVG 1.1//EN" "http://www.w3.org/Graphics/SVG/1.1/DTD/svg11.dtd">
<svg version="1.1" id="icon-m-content-ovi-music-layer"
	 xmlns="http://www.w3.org/2000/svg" xmlns:xlink="http://www.w3.org/1999/xlink" x="0px" y="0px" width="64px" height="64px"
	 viewBox="0 0 64 64" style="enable-background:new 0 0 64 64;" xml:space="preserve">
<g id="icon-m-content-ovi-music">
	<rect style="fill:none;" width="64" height="64"/>
	<path style="fill:#333333;" d="M55.343,14.493v35.014C60.597,45.473,64,39.15,64,32.005S60.597,18.528,55.343,14.493z"/>
	<path style="fill:#333333;" d="M47.554,6.487H1.901C0.854,6.487,0,7.343,0,8.388v47.225c0,1.045,0.854,1.9,1.901,1.9h45.653
		c1.046,0,1.901-0.855,1.901-1.9V8.388C49.455,7.343,48.6,6.487,47.554,6.487z M37.57,24.366c-3.335-1.855-7.051-3.11-11.006-3.601
		v23.449c0.102,2.977-2.538,5.794-6.289,6.449c-4.026,0.71-7.749-1.327-8.322-4.538c-0.552-3.223,2.238-6.411,6.266-7.122
		c1.685-0.292,3.304-0.078,4.674,0.465V13.194c5.329,0,10.326,1.392,14.677,3.814V24.366z"/>
</g>
</svg>
