<?xml version="1.0" encoding="iso-8859-1"?>
<!-- Generator: Adobe Illustrator 14.0.0, SVG Export Plug-In . SVG Version: 6.00 Build 43363)  -->
<!DOCTYPE svg PUBLIC "-//W3C//DTD SVG 1.1//EN" "http://www.w3.org/Graphics/SVG/1.1/DTD/svg11.dtd">
<svg version="1.1" id="icon-m-content-podcast-audio-layer"
	 xmlns="http://www.w3.org/2000/svg" xmlns:xlink="http://www.w3.org/1999/xlink" x="0px" y="0px" width="64px" height="64px"
	 viewBox="0 0 64 64" style="enable-background:new 0 0 64 64;" xml:space="preserve">
<g id="icon-m-content-podcast-audio">
	<rect style="fill:none;" width="64.001" height="64"/>
	<path style="fill:#333333;" d="M37.175,40.243v-7.468c0-2.871-2.35-5.197-5.242-5.197c-2.896,0-5.242,2.326-5.242,5.197v7.468
		c0,2.869,2.347,5.197,5.242,5.197C34.825,45.44,37.175,43.112,37.175,40.243z"/>
	<path style="fill:#333333;" d="M40.924,44.102c-1.114,3.529-4.812,5.995-8.991,5.995c-4.185,0-7.879-2.466-8.987-5.994
		l-0.116-0.368h-4.401l0.142,0.601c1.145,4.875,5.615,8.589,11.209,9.366v6.503h-0.003h-2.742c-1.101,0-2,0.84-2,1.866
		c0,1.027,0.899,1.867,2,1.867h9.789c1.1,0,2-0.84,2-1.867c0-1.026-0.9-1.866-2-1.866h-2.736v-6.503
		c5.599-0.778,10.068-4.492,11.201-9.367l0.141-0.6H41.04L40.924,44.102z"/>
	<path style="fill:#333333;" d="M54.829,27.66l-0.004,0.002c-4.818-7.533-13.244-12.548-22.831-12.548
		c-9.534,0-17.915,4.959-22.747,12.422l-0.004-0.003l-0.262,0.386c-0.62,0.905-0.385,2.151,0.52,2.772l1.118,0.73
		c0.907,0.618,2.152,0.385,2.772-0.521l0.107-0.131c3.845-6.194,10.684-10.341,18.496-10.341c7.729,0,14.509,4.054,18.374,10.14
		l0.153,0.252c0.576,0.936,1.808,1.229,2.745,0.655l1.15-0.676c0.935-0.573,1.23-1.809,0.656-2.742L54.829,27.66z"/>
	<path style="fill:#333333;" d="M63.58,16.742l-0.163-0.21l0.002-0.001c-0.014-0.016-0.026-0.029-0.037-0.045l-0.088-0.112
		l-0.004,0.002C55.994,7.055,44.706,1.015,32.017,0.847V0.846c-0.006,0-0.011,0.001-0.017,0.001s-0.011-0.001-0.017-0.001v0.001
		C19.295,1.015,8.006,7.055,0.71,16.376l-0.003-0.002l-0.087,0.112c-0.012,0.016-0.024,0.029-0.038,0.045l0.001,0.001l-0.163,0.21
		c-0.675,0.863-0.521,2.123,0.344,2.8l1.068,0.8c0.867,0.674,2.124,0.521,2.8-0.345l0.29-0.358C11.245,11.564,21.011,6.323,32,6.162
		c10.989,0.161,20.755,5.402,27.078,13.477l0.29,0.358c0.676,0.866,1.934,1.019,2.799,0.345l1.069-0.8
		C64.101,18.865,64.255,17.605,63.58,16.742z"/>
</g>
</svg>
