<?xml version="1.0" encoding="UTF-8" standalone="no"?>
<!-- Generator: Adobe Illustrator 14.0.0, SVG Export Plug-In . SVG Version: 6.00 Build 43363)  -->

<svg
   xmlns:dc="http://purl.org/dc/elements/1.1/"
   xmlns:cc="http://creativecommons.org/ns#"
   xmlns:rdf="http://www.w3.org/1999/02/22-rdf-syntax-ns#"
   xmlns:svg="http://www.w3.org/2000/svg"
   xmlns="http://www.w3.org/2000/svg"
   xmlns:sodipodi="http://sodipodi.sourceforge.net/DTD/sodipodi-0.dtd"
   xmlns:inkscape="http://www.inkscape.org/namespaces/inkscape"
   version="1.1"
   id="icon-m-framework-close-layer"
   x="0px"
   y="0px"
   width="64px"
   height="64px"
   viewBox="0 0 64 64"
   style="enable-background:new 0 0 64 64;"
   xml:space="preserve"
   inkscape:version="0.47pre4 r22446"
   sodipodi:docname="Icon-close.svg"><metadata
   id="metadata11"><rdf:RDF><cc:Work
       rdf:about=""><dc:format>image/svg+xml</dc:format><dc:type
         rdf:resource="http://purl.org/dc/dcmitype/StillImage" /></cc:Work></rdf:RDF></metadata><defs
   id="defs9"><inkscape:perspective
     sodipodi:type="inkscape:persp3d"
     inkscape:vp_x="0 : 32 : 1"
     inkscape:vp_y="0 : 1000 : 0"
     inkscape:vp_z="64 : 32 : 1"
     inkscape:persp3d-origin="32 : 21.333333 : 1"
     id="perspective13" /></defs><sodipodi:namedview
   pagecolor="#ffffff"
   bordercolor="#666666"
   borderopacity="1"
   objecttolerance="10"
   gridtolerance="10"
   guidetolerance="10"
   inkscape:pageopacity="0"
   inkscape:pageshadow="2"
   inkscape:window-width="1414"
   inkscape:window-height="1297"
   id="namedview7"
   showgrid="true"
   inkscape:zoom="1"
   inkscape:cx="-124.88787"
   inkscape:cy="31.699183"
   inkscape:window-x="860"
   inkscape:window-y="25"
   inkscape:window-maximized="0"
   inkscape:current-layer="icon-m-framework-close"><inkscape:grid
     type="xygrid"
     id="grid2819" /></sodipodi:namedview>
<g
   id="icon-m-framework-close">
	<rect
   style="fill:none;"
   width="64"
   height="64"
   id="rect4" />
	<path
   id="Icon-m-close_1_"
   style="fill:#ffffff;fill-opacity:1"
   d="m 43.344,20.686 c -6.227,-6.246 -16.361,-6.246 -22.625,0 -6.267,6.252 -6.295,16.379 -0.064,22.627 6.231,6.25 16.361,6.25 22.63,-0.001 6.264,-6.249 6.291,-16.376 0.059,-22.626 z M 39.279,36.73 c 0.7,0.701 0.691,1.84 -0.008,2.533 -0.349,0.35 -0.805,0.527 -1.266,0.527 -0.457,0 -0.916,-0.178 -1.266,-0.527 l -4.742,-4.734 -4.739,4.734 c -0.349,0.35 -0.809,0.527 -1.265,0.527 -0.458,0 -0.92,-0.178 -1.269,-0.527 -0.698,-0.693 -0.705,-1.828 -0.004,-2.531 l 4.748,-4.73 -4.748,-4.738 c -0.7,-0.694 -0.7,-1.831 0,-2.534 0.697,-0.696 1.837,-0.696 2.538,0 L 32,29.467 36.74,24.73 c 0.701,-0.696 1.83,-0.696 2.531,0 0.699,0.703 0.708,1.84 0.008,2.536 l -4.744,4.732 4.744,4.732 z"
   transform="matrix(1.9374777,0,0,1.9375681,-29.999286,-30.094319)" />
</g>
</svg>