<?xml version="1.0" encoding="iso-8859-1"?>
<!-- Generator: Adobe Illustrator 14.0.0, SVG Export Plug-In . SVG Version: 6.00 Build 43363)  -->
<!DOCTYPE svg PUBLIC "-//W3C//DTD SVG 1.1//EN" "http://www.w3.org/Graphics/SVG/1.1/DTD/svg11.dtd">
<svg version="1.1" id="icon-m-organizer-checkbox-checked-layer"
	 xmlns="http://www.w3.org/2000/svg" xmlns:xlink="http://www.w3.org/1999/xlink" x="0px" y="0px" width="64px" height="64px"
	 viewBox="0 0 64 64" style="enable-background:new 0 0 64 64;" xml:space="preserve">
<g id="icon-m-organizer-checkbox-checked">
	<rect style="fill:none;" width="64" height="64"/>
	<path style="fill:#333333;" d="M63.951,14.766c-0.1-0.3-0.395-0.5-0.721-0.494c-18.709,0.361-32.537,18.613-35.354,22.571
		l-9.202-9.228c-0.279-0.281-0.75-0.297-1.046-0.024l-5.559,5.002c-0.145,0.135-0.228,0.316-0.233,0.511
		c-0.004,0.199,0.072,0.378,0.213,0.519l16.667,16.336c0.139,0.141,0.335,0.215,0.533,0.215c0.02,0,0.042-0.002,0.063-0.003
		c0.22-0.018,0.422-0.132,0.547-0.303c8.063-11.142,16.528-19.721,22.967-25.512c6.445-5.79,10.84-8.769,10.846-8.78
		C63.939,15.396,64.051,15.065,63.951,14.766z"/>
	<path style="fill:#333333;" d="M49.156,34.839v18.604c0,1.096-0.902,1.994-2.006,1.994H8.037c-1.104,0-2.009-0.898-2.009-1.994
		V10.556c0-1.098,0.904-1.993,2.009-1.993H47.15c1.104,0,2.006,0.896,2.006,1.993v0.35c1.908-0.976,3.918-1.816,6.016-2.466V4.573
		c0-1.096-0.902-1.992-2.004-1.992H2.018c-1.103,0-2.006,0.896-2.006,1.992v54.852c0,1.096,0.903,1.994,2.006,1.994h51.15
		c1.102,0,2.004-0.673,2.004-1.494V29.318c-0.594,0.521-1.205,1.058-1.844,1.63C52.018,32.131,50.615,33.431,49.156,34.839z"/>
</g>
</svg>
