<?xml version="1.0" encoding="iso-8859-1"?>
<!-- Generator: Adobe Illustrator 14.0.0, SVG Export Plug-In . SVG Version: 6.00 Build 43363)  -->
<!DOCTYPE svg PUBLIC "-//W3C//DTD SVG 1.1//EN" "http://www.w3.org/Graphics/SVG/1.1/DTD/svg11.dtd">
<svg version="1.1" id="icon-m-toolbar-mediacontrol-next-layer"
	 xmlns="http://www.w3.org/2000/svg" xmlns:xlink="http://www.w3.org/1999/xlink" x="0px" y="0px" width="64px" height="64px"
	 viewBox="0 0 64 64" style="enable-background:new 0 0 64 64;" xml:space="preserve">
<g id="icon-m-toolbar-mediacontrol-next">
	<rect style="fill:none;" width="64" height="64"/>
	<g>
		<path style="fill:#FFFFFF;" d="M43.301,14.5c-1.1,0-2,0.9-2,2v10.992c0,1.1-0.781,1.554-1.736,1.008L16.784,15.492
			c-0.955-0.546-1.737-0.092-1.737,1.008v31c0,1.1,0.782,1.554,1.737,1.008L39.564,35.5c0.955-0.546,1.736-0.092,1.736,1.008V47.5
			c0,1.1,0.9,2,2,2h3.652c1.1,0,2-0.9,2-2v-31c0-1.1-0.9-2-2-2H43.301z"/>
	</g>
</g>
</svg>
