<?xml version="1.0" encoding="iso-8859-1"?>
<!-- Generator: Adobe Illustrator 14.0.0, SVG Export Plug-In . SVG Version: 6.00 Build 43363)  -->
<!DOCTYPE svg PUBLIC "-//W3C//DTD SVG 1.1//EN" "http://www.w3.org/Graphics/SVG/1.1/DTD/svg11.dtd">
<svg version="1.1" id="icon-m-content-user-certificates-layer"
	 xmlns="http://www.w3.org/2000/svg" xmlns:xlink="http://www.w3.org/1999/xlink" x="0px" y="0px" width="64px" height="64px"
	 viewBox="0 0 64 64" style="enable-background:new 0 0 64 64;" xml:space="preserve">
<g id="icon-m-content-user-certificates">
	<rect style="fill:none;" width="64" height="64"/>
	<path style="fill:#333333;" d="M31.941,9.67c-6.715,0-12.169,5.465-12.169,12.17c0,6.713,5.454,12.168,12.169,12.168
		c6.709,0,12.168-5.455,12.168-12.168C44.109,15.135,38.65,9.67,31.941,9.67z"/>
	<path style="fill:#333333;" d="M52.956,21.955C52.956,10.385,43.574,1,32,1c-11.578,0-20.956,9.385-20.956,20.955
		c0,8.09,4.595,15.102,11.305,18.591l-4.082,22.453L32,54.018L45.73,63l-4.08-22.454C48.359,37.057,52.956,30.045,52.956,21.955z
		 M31.941,38.745c-9.32,0-16.9-7.584-16.9-16.905c0-9.313,7.58-16.899,16.9-16.899c9.316,0,16.897,7.586,16.897,16.899
		C48.839,31.161,41.258,38.745,31.941,38.745z"/>
</g>
</svg>
