<?xml version="1.0" encoding="iso-8859-1"?>
<!-- Generator: Adobe Illustrator 14.0.0, SVG Export Plug-In . SVG Version: 6.00 Build 43363)  -->
<!DOCTYPE svg PUBLIC "-//W3C//DTD SVG 1.1//EN" "http://www.w3.org/Graphics/SVG/1.1/DTD/svg11.dtd">
<svg version="1.1" id="icon-m-common-handsfree-layer"
	 xmlns="http://www.w3.org/2000/svg" xmlns:xlink="http://www.w3.org/1999/xlink" x="0px" y="0px" width="64px" height="64px"
	 viewBox="0 0 64 64" style="enable-background:new 0 0 64 64;" xml:space="preserve">
<g id="icon-m-common-handsfree">
	<rect style="fill:none;" width="64" height="64"/>
	<path style="fill:#333333;" d="M4,29c0.025-0.003,2,0,2,0s1,0.072,1,1v17c0,0-0.072,1-1,1c0,0-1.975,0.003-2,0c-2.783,0-4-6-4-10
		S1.217,29,4,29z"/>
	<path style="fill:#333333;" d="M50,28v20h5V28l0,0C55.02,16.172,44.46,4,32,4S9,15.941,9,28l0,0l0,0v20h5V28l0,0c0-10,9-19,18-19
		S50,18,50,28L50,28z"/>
	<path style="fill:#333333;" d="M64,38c0-3.625-1.217-9-4-9c0.638-0.072-2,0-2,0s-1,0-1,1v17l-3,5c0,0-1,2-2,2H39c0,0-1-2-4-2
		c-2,0-4,1.5-4,3.5s2,3.5,4,3.5c3,0,4-2,4-2h14c2,0,3-2,3-2l4-7C63,48,64,41.448,64,38z"/>
</g>
</svg>
