<?xml version="1.0" encoding="iso-8859-1"?>
<!-- Generator: Adobe Illustrator 14.0.0, SVG Export Plug-In . SVG Version: 6.00 Build 43363)  -->
<!DOCTYPE svg PUBLIC "-//W3C//DTD SVG 1.1//EN" "http://www.w3.org/Graphics/SVG/1.1/DTD/svg11.dtd">
<svg version="1.1" id="icon-m-email-directory-trash-layer"
	 xmlns="http://www.w3.org/2000/svg" xmlns:xlink="http://www.w3.org/1999/xlink" x="0px" y="0px" width="64px" height="64px"
	 viewBox="0 0 64 64" style="enable-background:new 0 0 64 64;" xml:space="preserve">
<g id="icon-m-email-directory-trash">
	<rect style="fill:none;" width="64" height="64"/>
	<path style="fill:#333333;" d="M35.961,5.097c0-1.101-0.9-2-2-2H2.013c-1.1,0-2,0.899-2,2l-0.001,7.336h35.949V5.097z"/>
	<path style="fill:#333333;" d="M61.992,16.58H0.012L0.008,58.902c0,1.1,0.9,2,2,2h59.984c1.1,0,2-0.9,2-2V18.58
		C63.992,17.48,63.092,16.58,61.992,16.58z M40.995,52.256c0,0.543-0.443,0.987-0.985,0.987H23.99c-0.543,0-0.987-0.444-0.987-0.987
		l-1.478-17.99h20.949L40.995,52.256z M43.091,31.307H20.909v-3.204c0-0.541,0.443-0.985,0.986-0.985h6.161v-1.889
		c0-0.542,0.443-0.985,0.985-0.985h5.916c0.543,0,0.986,0.443,0.986,0.985v1.889h6.161c0.542,0,0.986,0.444,0.986,0.985V31.307z"/>
</g>
</svg>
