<?xml version="1.0" encoding="iso-8859-1"?>
<!-- Generator: Adobe Illustrator 14.0.0, SVG Export Plug-In . SVG Version: 6.00 Build 43363)  -->
<!DOCTYPE svg PUBLIC "-//W3C//DTD SVG 1.1//EN" "http://www.w3.org/Graphics/SVG/1.1/DTD/svg11.dtd">
<svg version="1.1" id="icon-m-organizer-note-time-layer"
	 xmlns="http://www.w3.org/2000/svg" xmlns:xlink="http://www.w3.org/1999/xlink" x="0px" y="0px" width="64px" height="64px"
	 viewBox="0 0 64 64" style="enable-background:new 0 0 64 64;" xml:space="preserve">
<g id="icon-m-organizer-note-time">
	<rect style="fill:none;" width="64" height="64"/>
	<path style="fill:#333333;" d="M22,46c0-8.314,4.25-15.652,10.692-19.961H6.967v-4.856h33.066v1.567C41.941,22.262,43.941,22,46,22
		c0.336,0,0.668,0.012,1,0.026V2.186C47,0.983,46.017,0,44.814,0h-4.189v2.403c0,1.278-1.045,2.322-2.322,2.322h-1.355
		c-1.277,0-2.322-1.044-2.322-2.322V0H26.5v2.403c0,1.278-1.045,2.322-2.322,2.322h-1.355c-1.277,0-2.322-1.044-2.322-2.322V0
		h-8.125v2.403c0,1.278-1.045,2.322-2.322,2.322H8.697c-1.277,0-2.323-1.044-2.323-2.322V0H2.186C0.983,0,0,0.983,0,2.186v45.907
		c0,1.204,0.983,2.187,2.186,2.187H22.39C22.138,48.89,22,47.461,22,46z M6.967,12.039h33.066v4.856H6.967V12.039z M6.967,30.183h16
		v4.856h-16V30.183z"/>
	<path style="fill:#333333;" d="M46,28c-9.941,0-18,8.059-18,18c0,9.94,8.059,18,18,18c9.94,0,18-8.06,18-18
		C64,36.059,55.94,28,46,28z M58.051,48.65c-0.557,0.564-1.299,0.878-2.092,0.882l-11.229,0.006h-0.001
		c-0.866,0-1.57-0.265-2.096-0.786c-0.557-0.551-0.876-1.318-0.876-2.106V35.435c0-1.64,1.333-2.973,2.972-2.973
		c1.641,0,2.975,1.333,2.975,2.973v8.214l8.211-0.062c1.645,0,2.981,1.323,2.996,2.948C58.914,47.334,58.61,48.084,58.051,48.65z"/>
</g>
</svg>
