<?xml version="1.0" encoding="iso-8859-1"?>
<!-- Generator: Adobe Illustrator 14.0.0, SVG Export Plug-In . SVG Version: 6.00 Build 43363)  -->
<!DOCTYPE svg PUBLIC "-//W3C//DTD SVG 1.1//EN" "http://www.w3.org/Graphics/SVG/1.1/DTD/svg11.dtd">
<svg version="1.1" id="icon-m-image-edit-autofix-all-layer"
	 xmlns="http://www.w3.org/2000/svg" xmlns:xlink="http://www.w3.org/1999/xlink" x="0px" y="0px" width="64px" height="65px"
	 viewBox="0 0 64 65" style="enable-background:new 0 0 64 65;" xml:space="preserve">
<g id="icon-m-image-edit-autofix-all">
	<path style="fill:#333333;" d="M28.912,29.214c12.959,5.377,18.149-10.5,17.702-14.605c-0.368-3.393-0.814-5.092-1.925-3.702
		l-8.257,10.246c-5.191-0.794-8.744-4.253-10.671-8.508l8.214-10.201c2.067-2.564-5.801-1.593-10.669,1.969
		c-10.791,7.904-5.046,16.042-3.915,17.261L1.534,43.81c-0.838,1.046-0.673,2.573,0.376,3.413l5.693,4.549
		c1.048,0.837,2.583,0.668,3.429-0.377L28.912,29.214z"/>
	<rect x="1" y="1" style="fill:none;" width="64" height="64"/>
	<path style="fill:#333333;" d="M56.614,38.175h-6.26l-8.059,27h4.547l1.791-6.193h9.031l1.793,6.193h5.068L56.614,38.175z
		 M49.503,55.562l3.686-13.343l3.654,13.403L49.503,55.562z"/>
</g>
</svg>
