<?xml version="1.0" encoding="iso-8859-1"?>
<!-- Generator: Adobe Illustrator 14.0.0, SVG Export Plug-In . SVG Version: 6.00 Build 43363)  -->
<!DOCTYPE svg PUBLIC "-//W3C//DTD SVG 1.1//EN" "http://www.w3.org/Graphics/SVG/1.1/DTD/svg11.dtd">
<svg version="1.1" id="icon-l-camera-layer" xmlns="http://www.w3.org/2000/svg" xmlns:xlink="http://www.w3.org/1999/xlink"
	 x="0px" y="0px" width="77px" height="76px" viewBox="0 0 77 76" style="enable-background:new 0 0 77 76;" xml:space="preserve">
<g id="icon-l-camera">
	<path style="opacity:0.2;fill:#010101;" d="M65.063,18.322H14.625c-2.436-0.051-4.225,1.127-4.996,2.453
		c-0.797,1.296-0.817,2.48-0.826,2.866c0,0.046,0.002,0.094,0.005,0.126v0.496c-1.077,0.595-1.802,1.73-1.805,3.05v28.099
		c0.003,1.319,0.728,2.464,1.805,3.053c0,0-0.005,0.563-0.005,0.619c0.009,0.38,0.029,1.567,0.826,2.872
		c0.769,1.318,2.556,2.501,4.996,2.455h50.438c0.048,0,0.098,0,0.145,0c2.361,0,4.098-1.165,4.849-2.462
		c0.739-1.204,0.81-2.317,0.82-2.769c0-0.028,0.004-0.046,0.004-0.065l0.003-0.074V23.688c0,0,0-0.015,0-0.043
		c-0.011-0.383-0.031-1.57-0.827-2.866C69.291,19.453,67.498,18.271,65.063,18.322z"/>
	<path style="opacity:0.5;fill:#010101;" d="M69.156,23.69c0,0,0.148-3.641-4.094-3.641H14.625c-4.244,0-4.094,3.641-4.094,3.641
		v1.872h-0.045c-0.968,0-1.755,0.785-1.755,1.753v28.1c0,0.972,0.787,1.756,1.755,1.756h0.045v1.87c0,0-0.15,3.64,4.094,3.64h50.438
		c4.242,0,4.094-3.64,4.094-3.64V23.69z"/>
	<rect x="1" style="fill:none;" width="76.013" height="76"/>
	<linearGradient id="SVGID_1_" gradientUnits="userSpaceOnUse" x1="39.8438" y1="14.5884" x2="39.8437" y2="70.5143">
		<stop  offset="0" style="stop-color:#E6E5F3"/>
		<stop  offset="1" style="stop-color:#333442"/>
	</linearGradient>
	<path style="fill:url(#SVGID_1_);" d="M65.063,18.322H14.625c-4.244,0-4.094,3.641-4.094,3.641v35.345c0,0-0.15,3.641,4.094,3.641
		h50.438c4.242,0,4.094-3.641,4.094-3.641V21.963C69.156,21.963,69.305,18.322,65.063,18.322z"/>
	<path style="opacity:0.15;fill:#FFFFFF;" d="M67.688,21.912c0.004-0.058-0.037-0.715-0.342-1.171
		c-0.319-0.442-0.693-0.914-2.283-0.951H14.625c-1.596,0.037-1.97,0.509-2.292,0.951c-0.245,0.374-0.319,0.88-0.337,1.082
		l0.008,0.021V54.37l55.684-25.958v-6.449C67.684,21.963,67.684,21.943,67.688,21.912z"/>
	<path style="opacity:0.3;fill:#FFFFFF;" d="M65.063,18.322H14.625c-4.244,0-4.094,3.641-4.094,3.641v35.345
		c0,0-0.037,1.059,0.585,2.03l1.171-0.891c-0.199-0.362-0.273-0.799-0.288-0.994l0.005-0.017V21.844l-0.008-0.021
		c0.018-0.202,0.092-0.708,0.337-1.082c0.322-0.442,0.696-0.914,2.292-0.951h50.438c1.475,0.034,1.903,0.44,2.209,0.852l1.365-0.605
		C68.119,19.162,67.101,18.322,65.063,18.322z"/>
	<linearGradient id="SVGID_2_" gradientUnits="userSpaceOnUse" x1="-2.9321" y1="39.6348" x2="26.0069" y2="39.6348">
		<stop  offset="0" style="stop-color:#404040"/>
		<stop  offset="1" style="stop-color:#000000"/>
	</linearGradient>
	<path style="fill:url(#SVGID_2_);" d="M22.971,53.687c0,0.969-0.788,1.754-1.756,1.754H10.485c-0.968,0-1.755-0.785-1.755-1.754
		V25.589c0-0.972,0.787-1.759,1.755-1.759h10.729c0.968,0,1.756,0.787,1.756,1.759V53.687z"/>
	<path style="opacity:0.25;fill:#FFFFFF;" d="M10.197,55.409V23.861c-0.825,0.146-1.466,0.859-1.466,1.728v28.098
		C8.73,54.553,9.372,55.273,10.197,55.409z"/>
	<path style="opacity:0.25;fill:#FFFFFF;" d="M27.893,41.931c0-8.95,7.248-16.205,16.196-16.205l0,0
		c8.951,0,16.202,7.255,16.202,16.205l0,0c0,8.951-7.251,16.199-16.202,16.199l0,0C35.141,58.13,27.893,50.882,27.893,41.931
		L27.893,41.931z M28.982,41.931c0.021,8.346,6.765,15.092,15.106,15.105l0,0c8.349-0.014,15.095-6.76,15.106-15.105l0,0
		c-0.012-8.345-6.758-15.094-15.106-15.106l0,0C35.747,26.837,29.003,33.586,28.982,41.931L28.982,41.931z"/>
	<path style="opacity:0.25;fill:#FFFFFF;" d="M56.061,41.931c0,6.609-5.356,11.966-11.969,11.966
		c-6.617,0-11.968-5.356-11.968-11.966s5.351-11.962,11.968-11.962C50.704,29.969,56.061,35.321,56.061,41.931z"/>
	<linearGradient id="SVGID_3_" gradientUnits="userSpaceOnUse" x1="44.0928" y1="57.7754" x2="44.0928" y2="37.265">
		<stop  offset="0" style="stop-color:#404040"/>
		<stop  offset="1" style="stop-color:#000000"/>
	</linearGradient>
	<ellipse style="fill:url(#SVGID_3_);" cx="44.093" cy="41.931" rx="10.034" ry="10.026"/>
	<linearGradient id="SVGID_4_" gradientUnits="userSpaceOnUse" x1="44.0928" y1="51.957" x2="44.0928" y2="29.8101">
		<stop  offset="0" style="stop-color:#676868"/>
		<stop  offset="1" style="stop-color:#010101"/>
	</linearGradient>
	<path style="fill:url(#SVGID_4_);" d="M44.092,31.901c-5.539,0-10.032,4.489-10.032,10.029c0,5.539,4.493,10.026,10.032,10.026
		c5.541,0,10.035-4.487,10.035-10.026C54.127,36.391,49.633,31.901,44.092,31.901z M44.092,50.855c-4.918,0-8.919-3.994-8.919-8.925
		c0-4.922,4.001-8.919,8.919-8.919c4.92,0,8.925,3.997,8.925,8.919C53.017,46.861,49.012,50.855,44.092,50.855z"/>
	<path style="opacity:0.2;" d="M38.408,25.526c0,2.078-1.681,3.757-3.75,3.757c-2.08,0-3.761-1.679-3.761-3.757
		c0-2.073,1.682-3.749,3.761-3.749C36.727,21.777,38.408,23.453,38.408,25.526z"/>
	<linearGradient id="SVGID_5_" gradientUnits="userSpaceOnUse" x1="34.6519" y1="30.9414" x2="34.6519" y2="23.0547">
		<stop  offset="0" style="stop-color:#676868"/>
		<stop  offset="1" style="stop-color:#010101"/>
	</linearGradient>
	<path style="fill:url(#SVGID_5_);" d="M37.716,25.526c0,1.698-1.367,3.063-3.058,3.063c-1.697,0-3.07-1.365-3.07-3.063
		c0-1.696,1.373-3.066,3.07-3.066C36.349,22.46,37.716,23.83,37.716,25.526z"/>
	<path style="opacity:0.25;fill:#FFFFFF;enable-background:new    ;" d="M37.12,24.461c-0.414-0.965-1.353-1.642-2.462-1.642
		c-1.498,0-2.713,1.216-2.713,2.707c0,0.442,0.126,0.836,0.313,1.202L37.12,24.461z"/>
	<rect x="53.934" y="21.675" style="fill:#F2F2F2;" width="11.482" height="5.737"/>
	<path style="fill:#010101;" d="M49.086,41.931c0,2.756-2.237,4.988-4.994,4.988c-2.758,0-4.992-2.232-4.992-4.988
		c0-2.755,2.234-4.996,4.992-4.996C46.849,36.935,49.086,39.176,49.086,41.931z"/>
	<path style="opacity:0.25;fill:#FFFFFF;enable-background:new    ;" d="M52.295,38.514c-1.359-3.195-4.478-5.471-8.18-5.471
		c-4.947,0-8.954,4.02-8.954,8.965c0,1.461,0.38,2.815,1.009,4.025L52.295,38.514z"/>
</g>
</svg>
