<?xml version="1.0" encoding="iso-8859-1"?>
<!-- Generator: Adobe Illustrator 14.0.0, SVG Export Plug-In . SVG Version: 6.00 Build 43363)  -->
<!DOCTYPE svg PUBLIC "-//W3C//DTD SVG 1.1//EN" "http://www.w3.org/Graphics/SVG/1.1/DTD/svg11.dtd">
<svg version="1.1" id="icon-m-telephony-video-call-off-layer"
	 xmlns="http://www.w3.org/2000/svg" xmlns:xlink="http://www.w3.org/1999/xlink" x="0px" y="0px" width="64px" height="64px"
	 viewBox="0 0 64 64" style="enable-background:new 0 0 64 64;" xml:space="preserve">
<g id="icon-m-telephony-video-call-off">
	<rect style="fill:none;" width="64" height="64"/>
	<path style="fill:#333333;" d="M42.92,54.94c-3.4,1.288-7.074,2.015-10.92,2.015c-6.986,0-13.438-2.327-18.626-6.244
		C7.788,53.991,4.245,58.726,4.142,64h47.836L42.92,54.94z"/>
	<path style="fill:#333333;" d="M28.605,16.585c1.062-0.385,2.202-0.605,3.395-0.605c5.516,0,10,4.483,10,9.995
		c0,1.194-0.221,2.335-0.607,3.398l11.725,11.725c3.056-4.26,4.86-9.478,4.86-15.12C57.978,11.628,46.347,0,32,0
		c-5.643,0-10.86,1.805-15.12,4.859L28.605,16.585z"/>
	<path style="fill:#333333;" d="M6.978,18.998c-0.618,2.222-0.956,4.561-0.956,6.979c0,14.35,11.631,25.978,25.979,25.978
		c2.418,0,4.757-0.338,6.979-0.956L6.978,18.998z"/>
	
		<rect x="-10.747" y="29.48" transform="matrix(0.7071 0.7071 -0.7071 0.7071 31.9802 -13.2462)" style="fill:#333333;" width="85.453" height="4.999"/>
</g>
</svg>
