<?xml version="1.0" encoding="iso-8859-1"?>
<!-- Generator: Adobe Illustrator 14.0.0, SVG Export Plug-In . SVG Version: 6.00 Build 43363)  -->
<!DOCTYPE svg PUBLIC "-//W3C//DTD SVG 1.1//EN" "http://www.w3.org/Graphics/SVG/1.1/DTD/svg11.dtd">
<svg version="1.1" id="icon-l-contacts-layer" xmlns="http://www.w3.org/2000/svg" xmlns:xlink="http://www.w3.org/1999/xlink"
	 x="0px" y="0px" width="48px" height="55px" viewBox="0 0 48 55" style="enable-background:new 0 0 48 55;" xml:space="preserve">
<g id="icon-l-contacts">
	<path style="opacity:0.2;fill:#010101;stroke:#010101;stroke-width:2;stroke-linejoin:round;" d="M47.49,49.962V5.33
		c0-3.983-3.807-3.589-3.807-3.589H3.341v5.987H1.418C0.634,7.729,0,8.357,0,9.135c0,0.783,0.634,1.417,1.418,1.417h1.923v9.381
		H1.418C0.634,19.933,0,20.564,0,21.353c0,0.773,0.634,1.406,1.418,1.406h1.923v9.467H1.418C0.634,32.226,0,32.857,0,33.646
		c0,0.773,0.634,1.404,1.418,1.404h1.923v9.43H1.418C0.634,44.479,0,45.1,0,45.887c0,0.786,0.634,1.418,1.418,1.418h1.923v6.698
		h39.905C47.801,54.003,47.49,49.962,47.49,49.962z"/>
	<path style="opacity:0.5;fill:#010101;" d="M47.49,49.962V5.33c0-3.983-3.807-3.589-3.807-3.589H3.341v5.987H1.418
		C0.634,7.729,0,8.357,0,9.135c0,0.783,0.634,1.417,1.418,1.417h1.923v9.381H1.418C0.634,19.933,0,20.564,0,21.353
		c0,0.773,0.634,1.406,1.418,1.406h1.923v9.467H1.418C0.634,32.226,0,32.857,0,33.646c0,0.773,0.634,1.404,1.418,1.404h1.923v9.43
		H1.418C0.634,44.479,0,45.1,0,45.887c0,0.786,0.634,1.418,1.418,1.418h1.923v6.698h39.905C47.801,54.003,47.49,49.962,47.49,49.962
		z"/>
	<linearGradient id="SVGID_1_" gradientUnits="userSpaceOnUse" x1="25.418" y1="-5.5986" x2="25.418" y2="63.4729">
		<stop  offset="0" style="stop-color:#517EBF"/>
		<stop  offset="1" style="stop-color:#283176"/>
	</linearGradient>
	<path style="fill:url(#SVGID_1_);" d="M43.246,52.271H3.341V0.01h40.343c0,0,3.807-0.386,3.807,3.588v44.634
		C47.49,48.231,47.801,52.271,43.246,52.271z"/>
	<g>
		<polygon style="opacity:0.4;fill:#010101;" points="7.94,45.349 3.341,48.351 3.341,45.599 6.23,44.669 		"/>
		<g>
			<path style="fill:#010101;" d="M9.327,44.172c0,1.125-0.909,2.024-2.021,2.024c-1.113,0-2.012-0.899-2.012-2.024
				c0-1.11,0.898-2.009,2.012-2.009C8.418,42.163,9.327,43.062,9.327,44.172z"/>
			<linearGradient id="SVGID_2_" gradientUnits="userSpaceOnUse" x1="4.2715" y1="41.999" x2="4.2715" y2="47.6455">
				<stop  offset="0.1978" style="stop-color:#FFFFFF"/>
				<stop  offset="0.8462" style="stop-color:#000000"/>
			</linearGradient>
			<path style="fill:url(#SVGID_2_);" d="M8.543,44.166c0,0.775-0.631,1.406-1.416,1.406H1.418C0.634,45.572,0,44.941,0,44.166l0,0
				c0-0.788,0.634-1.417,1.418-1.417h5.709C7.912,42.749,8.543,43.378,8.543,44.166L8.543,44.166z"/>
		</g>
	</g>
	<g>
		<polygon style="opacity:0.4;fill:#010101;" points="7.94,33.073 3.341,36.077 3.341,33.332 6.23,32.407 		"/>
		<g>
			<path style="fill:#010101;" d="M9.327,31.927c0,1.111-0.909,2.013-2.021,2.013c-1.113,0-2.012-0.901-2.012-2.013
				c0-1.122,0.898-2.021,2.012-2.021C8.418,29.906,9.327,30.805,9.327,31.927z"/>
			<linearGradient id="SVGID_3_" gradientUnits="userSpaceOnUse" x1="4.2715" y1="29.7539" x2="4.2715" y2="35.4023">
				<stop  offset="0.1978" style="stop-color:#FFFFFF"/>
				<stop  offset="0.8462" style="stop-color:#000000"/>
			</linearGradient>
			<path style="fill:url(#SVGID_3_);" d="M8.543,31.913c0,0.783-0.631,1.415-1.416,1.415H1.418C0.634,33.328,0,32.696,0,31.913l0,0
				c0-0.788,0.634-1.409,1.418-1.409h5.709C7.912,30.504,8.543,31.125,8.543,31.913L8.543,31.913z"/>
		</g>
	</g>
	<g>
		<polygon style="opacity:0.4;fill:#010101;" points="7.94,20.828 3.341,23.831 3.341,21.089 6.23,20.149 		"/>
		<g>
			<path style="fill:#010101;" d="M9.327,19.692c0,1.111-0.909,2.012-2.021,2.012c-1.113,0-2.012-0.9-2.012-2.012
				c0-1.123,0.898-2.021,2.012-2.021C8.418,17.671,9.327,18.569,9.327,19.692z"/>
			<linearGradient id="SVGID_4_" gradientUnits="userSpaceOnUse" x1="4.2715" y1="17.4478" x2="4.2715" y2="23.1196">
				<stop  offset="0.1978" style="stop-color:#FFFFFF"/>
				<stop  offset="0.8462" style="stop-color:#000000"/>
			</linearGradient>
			<path style="fill:url(#SVGID_4_);" d="M8.543,19.621c0,0.783-0.631,1.416-1.416,1.416H1.418C0.634,21.037,0,20.404,0,19.621l0,0
				c0-0.788,0.634-1.42,1.418-1.42h5.709C7.912,18.201,8.543,18.833,8.543,19.621L8.543,19.621z"/>
		</g>
	</g>
	<g>
		<polygon style="opacity:0.4;fill:#010101;" points="7.94,8.594 3.341,11.597 3.341,8.855 6.23,7.917 		"/>
		<g>
			<path style="fill:#010101;" d="M9.327,7.539c0,1.112-0.909,2.011-2.021,2.011c-1.113,0-2.012-0.898-2.012-2.011
				c0-1.119,0.898-2.022,2.012-2.022C8.418,5.517,9.327,6.42,9.327,7.539z"/>
			<linearGradient id="SVGID_5_" gradientUnits="userSpaceOnUse" x1="4.2715" y1="5.2568" x2="4.2715" y2="10.9053">
				<stop  offset="0.1978" style="stop-color:#FFFFFF"/>
				<stop  offset="0.8462" style="stop-color:#000000"/>
			</linearGradient>
			<path style="fill:url(#SVGID_5_);" d="M8.543,7.413c0,0.783-0.631,1.418-1.416,1.418H1.418C0.634,8.831,0,8.196,0,7.413l0,0
				c0-0.786,0.634-1.406,1.418-1.406h5.709C7.912,6.007,8.543,6.627,8.543,7.413L8.543,7.413z"/>
		</g>
	</g>
	<linearGradient id="SVGID_6_" gradientUnits="userSpaceOnUse" x1="27.0117" y1="9.0522" x2="27.0117" y2="63.0765">
		<stop  offset="0" style="stop-color:#F2F2F2"/>
		<stop  offset="0.1379" style="stop-color:#E4EDF0"/>
		<stop  offset="0.3971" style="stop-color:#C0DFEB"/>
		<stop  offset="0.747" style="stop-color:#86C8E4"/>
		<stop  offset="0.9945" style="stop-color:#59B7DE"/>
	</linearGradient>
	<path style="fill:url(#SVGID_6_);" d="M30.154,25.716c-1.039,0.636-2.129,0.977-3.26,0.977c-0.789,0-1.951-0.188-3.188-0.934
		c-6.408,1.162-8.463,5.859-8.463,11.479v2.153c0,5.282,23.535,5.282,23.535,0v-2.153C38.779,31.565,36.695,26.836,30.154,25.716z
		 M31.512,20.947c1.254-2.31,1.527-4.021,1.527-5.907c0-3.413-2.643-6.247-5.963-6.247c-0.023,0-0.043,0.009-0.068,0.009
		c-0.014,0-0.033-0.009-0.059-0.009c-3.316,0-5.959,2.834-5.959,6.247c0,1.887,0.281,3.598,1.524,5.907
		C24.88,25.396,28.721,25.55,31.512,20.947z"/>
	<path style="fill:#283176;" d="M26.949,9.999c0.025,0,0.045,0.004,0.059,0.004c0.025,0,0.045-0.004,0.068-0.004
		c3.189,0,5.729,2.629,5.926,5.872c0.012-0.277,0.037-0.548,0.037-0.831c0-3.413-2.643-6.247-5.963-6.247
		c-0.023,0-0.043,0.009-0.068,0.009c-0.014,0-0.033-0.009-0.059-0.009c-3.316,0-5.959,2.834-5.959,6.247
		c0,0.283,0.025,0.554,0.039,0.831C21.224,12.628,23.763,9.999,26.949,9.999z M30.154,25.716c-1.039,0.636-2.129,0.977-3.26,0.977
		c-0.789,0-1.951-0.188-3.188-0.934c-6.408,1.162-8.463,5.859-8.463,11.479v1.21c0-5.618,2.055-10.316,8.463-11.488
		c1.236,0.757,2.398,0.943,3.188,0.943c1.131,0,2.221-0.342,3.26-0.977c6.541,1.112,8.625,5.851,8.625,11.521v-1.21
		C38.779,31.565,36.695,26.836,30.154,25.716z"/>
	<path style="opacity:0.2;fill:#010101;" d="M26.949,9.999c0.025,0,0.045,0.004,0.059,0.004c0.025,0,0.045-0.004,0.068-0.004
		c3.189,0,5.729,2.629,5.926,5.872c0.012-0.277,0.037-0.548,0.037-0.831c0-3.413-2.643-6.247-5.963-6.247
		c-0.023,0-0.043,0.009-0.068,0.009c-0.014,0-0.033-0.009-0.059-0.009c-3.316,0-5.959,2.834-5.959,6.247
		c0,0.283,0.025,0.554,0.039,0.831C21.224,12.628,23.763,9.999,26.949,9.999z M30.154,25.716c-1.039,0.636-2.129,0.977-3.26,0.977
		c-0.789,0-1.951-0.188-3.188-0.934c-6.408,1.162-8.463,5.859-8.463,11.479v1.21c0-5.618,2.055-10.316,8.463-11.488
		c1.236,0.757,2.398,0.943,3.188,0.943c1.131,0,2.221-0.342,3.26-0.977c6.541,1.112,8.625,5.851,8.625,11.521v-1.21
		C38.779,31.565,36.695,26.836,30.154,25.716z"/>
</g>
</svg>
