<?xml version="1.0" encoding="iso-8859-1"?>
<!-- Generator: Adobe Illustrator 14.0.0, SVG Export Plug-In . SVG Version: 6.00 Build 43363)  -->
<!DOCTYPE svg PUBLIC "-//W3C//DTD SVG 1.1//EN" "http://www.w3.org/Graphics/SVG/1.1/DTD/svg11.dtd">
<svg version="1.1" id="icon-m-toolbar-volume-off-layer"
	 xmlns="http://www.w3.org/2000/svg" xmlns:xlink="http://www.w3.org/1999/xlink" x="0px" y="0px" width="64px" height="64px"
	 viewBox="0 0 64 64" style="enable-background:new 0 0 64 64;" xml:space="preserve">
<g id="icon-m-toolbar-volume-off">
	<rect style="fill:none;" width="64" height="64"/>
	<path style="fill:#FFFFFF;" d="M45.034,48.416L33.69,37.074l-0.018-19.998c-0.003-0.688-0.458-1.426-1.387-1.47h-0.625
		c-0.524,0.034-0.777,0.135-1.183,0.432l-9.644,8.179L9.5,12.885l-2.42,2.42l9.677,9.676H6.448v16.668h13.379l10.669,9.028
		c0.413,0.312,0.68,0.407,1.189,0.438h0.628c0.921-0.041,1.383-0.775,1.388-1.468l-0.008-7.729l8.92,8.92L45.034,48.416z
		 M31.417,18.247l0.014,16.567l-8.972-8.971L31.417,18.247z M31.442,48.475L20.637,39.33H8.704V27.297h10.367L31.436,39.66
		L31.442,48.475z"/>
</g>
</svg>
