<?xml version="1.0" encoding="iso-8859-1"?>
<!-- Generator: Adobe Illustrator 14.0.0, SVG Export Plug-In . SVG Version: 6.00 Build 43363)  -->
<!DOCTYPE svg PUBLIC "-//W3C//DTD SVG 1.1//EN" "http://www.w3.org/Graphics/SVG/1.1/DTD/svg11.dtd">
<svg version="1.1" id="icon-l-games-layer" xmlns="http://www.w3.org/2000/svg" xmlns:xlink="http://www.w3.org/1999/xlink" x="0px"
	 y="0px" width="63px" height="45px" viewBox="0 0 63 45" style="enable-background:new 0 0 63 45;" xml:space="preserve">
<g id="icon-l-games">
	<path style="opacity:0.2;fill:#010101;" d="M45.672,0c-3.133,0-5.457,0.992-7.846,2.653H24.254C21.863,0.992,19.506,0,16.371,0
		C8.2,0,1.572,6.614,1.549,14.778C1.443,16.212,0.009,35.321,0,35.749c0.002,5.004,4.061,9.063,9.066,9.063
		c3.83,0,7.088-2.378,8.418-5.723l4.218-9.898h18.636l4.231,9.934c1.317,3.31,4.579,5.688,8.407,5.688
		c5.008,0,9.064-4.06,9.067-9.063c-0.014-0.428-1.446-19.532-1.555-20.971C60.465,6.614,53.844,0,45.672,0z"/>
	<path style="opacity:0.5;fill:#010101;" d="M58.854,14.816L58.854,14.816c-0.002-7.277-5.902-13.18-13.184-13.18
		c-2.965,0-5.695,0.996-7.896,2.652h-13.5c-2.203-1.656-4.936-2.652-7.9-2.652c-7.281,0-13.184,5.902-13.184,13.18
		c0,0-1.551,20.755-1.551,20.933c0,4.102,3.324,7.429,7.432,7.429c3.135,0,5.801-1.948,6.893-4.691l4.657-10.931h20.803
		l4.653,10.931c1.097,2.743,3.766,4.691,6.9,4.691c4.104,0,7.431-3.327,7.431-7.429C60.407,35.571,58.854,14.816,58.854,14.816z"/>
	<linearGradient id="SVGID_1_" gradientUnits="userSpaceOnUse" x1="31.0229" y1="-5.144" x2="31.0229" y2="52.8449">
		<stop  offset="0" style="stop-color:#FFFFFF"/>
		<stop  offset="1" style="stop-color:#B3B2C9"/>
	</linearGradient>
	<path style="fill:url(#SVGID_1_);" d="M58.854,13.18L58.854,13.18C58.852,5.902,52.951,0.001,45.67,0.001
		c-2.965,0-5.695,0.995-7.896,2.651h-13.5c-2.203-1.656-4.936-2.651-7.9-2.651c-7.281,0-13.184,5.901-13.184,13.179
		c0,0-1.551,20.755-1.551,20.933c0,4.102,3.324,7.429,7.432,7.429c3.135,0,5.801-1.948,6.893-4.691l4.657-10.931h20.803
		l4.653,10.931c1.097,2.743,3.766,4.691,6.9,4.691c4.104,0,7.431-3.327,7.431-7.429C60.407,33.935,58.854,13.18,58.854,13.18z"/>
	<path style="opacity:0.35;fill:#FFFFFF;" d="M45.67,1.407c-2.648,0-5.074,0.882-7.058,2.366l-0.369,0.281H23.801L23.43,3.773
		c-1.979-1.484-4.408-2.366-7.057-2.366C9.869,1.404,4.596,6.679,4.592,13.176L3.285,30.697L55.316,6.437
		C53.188,3.398,49.666,1.404,45.67,1.407z"/>
	<polygon style="fill:#414141;" points="22.732,12.227 17.923,12.227 17.923,7.418 14.832,7.418 14.832,12.227 10.021,12.227 
		10.021,15.319 14.832,15.319 14.832,20.123 17.923,20.123 17.923,15.319 22.732,15.319 	"/>
	<linearGradient id="SVGID_2_" gradientUnits="userSpaceOnUse" x1="45.7637" y1="23.4609" x2="45.7637" y2="16.5015">
		<stop  offset="0" style="stop-color:#FFFFFF"/>
		<stop  offset="1" style="stop-color:#B3B2C9"/>
	</linearGradient>
	<path style="fill:url(#SVGID_2_);" d="M45.764,15.303c-2.056,0-3.721,1.666-3.724,3.725c0.003,2.055,1.665,3.72,3.724,3.723
		c2.058-0.003,3.723-1.668,3.723-3.723C49.486,16.969,47.814,15.303,45.764,15.303z"/>
	<circle style="fill:#283176;" cx="45.763" cy="19.025" r="2.317"/>
	<linearGradient id="SVGID_3_" gradientUnits="userSpaceOnUse" x1="51.3115" y1="17.9087" x2="51.3115" y2="10.9529">
		<stop  offset="0" style="stop-color:#FFFFFF"/>
		<stop  offset="1" style="stop-color:#B3B2C9"/>
	</linearGradient>
	<path style="fill:url(#SVGID_3_);" d="M51.312,9.756c-2.056,0-3.72,1.664-3.724,3.721c0.004,2.054,1.666,3.721,3.724,3.723
		c2.058-0.002,3.724-1.669,3.724-3.723C55.035,11.42,53.367,9.756,51.312,9.756z"/>
	<circle style="fill:#EC3182;" cx="51.313" cy="13.477" r="2.319"/>
	<linearGradient id="SVGID_4_" gradientUnits="userSpaceOnUse" x1="45.8066" y1="12.4082" x2="45.8066" y2="5.4478">
		<stop  offset="0" style="stop-color:#FFFFFF"/>
		<stop  offset="1" style="stop-color:#B3B2C9"/>
	</linearGradient>
	<path style="fill:url(#SVGID_4_);" d="M45.809,4.25c-2.053,0-3.721,1.667-3.725,3.725c0.004,2.054,1.669,3.721,3.725,3.724
		c2.058-0.003,3.722-1.67,3.722-3.724C49.53,5.917,47.866,4.25,45.809,4.25z"/>
	<path style="fill:#FEE23F;" d="M48.129,7.974c0,1.276-1.039,2.318-2.318,2.318c-1.281,0-2.316-1.042-2.316-2.318
		c0-1.28,1.035-2.319,2.316-2.319C47.09,5.654,48.129,6.693,48.129,7.974z"/>
	<linearGradient id="SVGID_5_" gradientUnits="userSpaceOnUse" x1="40.2607" y1="17.9561" x2="40.2607" y2="10.9993">
		<stop  offset="0" style="stop-color:#FFFFFF"/>
		<stop  offset="1" style="stop-color:#B3B2C9"/>
	</linearGradient>
	<path style="fill:url(#SVGID_5_);" d="M40.26,9.802c-2.052,0-3.721,1.666-3.721,3.724c0,2.055,1.666,3.72,3.721,3.721
		c2.059-0.001,3.723-1.666,3.723-3.721C43.982,11.468,42.314,9.802,40.26,9.802z"/>
	<path style="fill:#7EC242;" d="M42.58,13.525c0,1.277-1.039,2.316-2.32,2.316c-1.275,0-2.317-1.039-2.317-2.316
		c0-1.282,1.042-2.318,2.317-2.318C41.541,11.207,42.58,12.243,42.58,13.525z"/>
	<linearGradient id="SVGID_6_" gradientUnits="userSpaceOnUse" x1="31.0229" y1="-4.019" x2="31.0229" y2="39.2425">
		<stop  offset="0" style="stop-color:#FFFFFF"/>
		<stop  offset="1" style="stop-color:#B3B2C9"/>
	</linearGradient>
	<path style="fill:url(#SVGID_6_);" d="M60.407,34.112c0-0.178-1.554-20.933-1.554-20.933C58.852,5.902,52.951,0.001,45.67,0.001
		c-2.965,0-5.695,0.995-7.896,2.651h-13.5c-2.203-1.656-4.936-2.651-7.9-2.651c-7.281,0-13.184,5.901-13.184,13.179
		c0,0-1.551,20.755-1.551,20.933c0,4.102,3.324,7.429,7.432,7.429c3.135,0,5.801-1.948,6.893-4.691l4.657-10.931h20.803
		l4.644,10.934l0.01-0.003c1.097,2.743,3.766,4.691,6.9,4.691C57.08,41.541,60.407,38.214,60.407,34.112z M52.977,40.134
		c-2.544,0.003-4.705-1.576-5.593-3.804L42.35,24.513H19.693L14.656,36.33c-0.888,2.228-3.048,3.807-5.585,3.804
		c-3.332-0.006-6.025-2.696-6.031-6.021l1.553-20.937C4.596,6.679,9.869,1.404,16.373,1.407c2.648,0,5.078,0.882,7.057,2.366
		l0.371,0.281h14.442l0.369-0.281c1.983-1.484,4.409-2.366,7.058-2.366c6.504-0.003,11.776,5.271,11.781,11.769
		c0,0,1.55,20.856,1.55,20.937C58.994,37.438,56.301,40.128,52.977,40.134z"/>
	<polygon style="opacity:0.15;" points="41.376,25.919 42.289,24.513 19.693,24.513 19.607,24.716 20.686,25.919 	"/>
</g>
</svg>
