<?xml version="1.0" encoding="iso-8859-1"?>
<!-- Generator: Adobe Illustrator 14.0.0, SVG Export Plug-In . SVG Version: 6.00 Build 43363)  -->
<!DOCTYPE svg PUBLIC "-//W3C//DTD SVG 1.1//EN" "http://www.w3.org/Graphics/SVG/1.1/DTD/svg11.dtd">
<svg version="1.1" id="icon-m-toolbar-refresh-layer"
	 xmlns="http://www.w3.org/2000/svg" xmlns:xlink="http://www.w3.org/1999/xlink" x="0px" y="0px" width="65px" height="64px"
	 viewBox="0 0 65 64" style="enable-background:new 0 0 65 64;" xml:space="preserve">
<g id="icon-m-toolbar-refresh">
	<g>
		<rect x="1" style="fill:none;" width="64" height="64"/>
	</g>
	<path style="fill:#FFFFFF;" d="M33,12c-11.045,0-20,8.954-20,20c0,11.045,8.955,20,20,20c11.047,0,20-8.955,20-20
		C53,20.954,44.047,12,33,12z M14.67,32.394l0.06-0.058h5.091c-0.005-0.091-0.014-0.174-0.014-0.268
		c0.002-7.338,5.95-13.287,13.292-13.293c2.702,0,5.209,0.813,7.306,2.198l-3.146,3.147c-1.244-0.654-2.658-1.028-4.16-1.031
		c-4.961,0.008-8.97,4.017-8.98,8.979c0,0.092,0.02,0.177,0.022,0.268h6.633l0.058,0.058l-8.081,7.487L14.67,32.394z M46.371,32.336
		c-0.146,7.217-6.021,13.017-13.271,13.02c-2.315-0.002-4.49-0.595-6.385-1.635l3.252-3.252c0.978,0.363,2.029,0.572,3.133,0.575
		c4.866-0.007,8.81-3.874,8.963-8.708h-5.979l-0.058-0.055l8.08-7.484l8.081,7.484l-0.058,0.055H46.371z"/>
</g>
</svg>
