<?xml version="1.0" encoding="iso-8859-1"?>
<!-- Generator: Adobe Illustrator 14.0.0, SVG Export Plug-In . SVG Version: 6.00 Build 43363)  -->
<!DOCTYPE svg PUBLIC "-//W3C//DTD SVG 1.1//EN" "http://www.w3.org/Graphics/SVG/1.1/DTD/svg11.dtd">
<svg version="1.1" id="icon-m-transfer-continue-layer"
	 xmlns="http://www.w3.org/2000/svg" xmlns:xlink="http://www.w3.org/1999/xlink" x="0px" y="0px" width="64px" height="64px"
	 viewBox="0 0 64 64" style="enable-background:new 0 0 64 64;" xml:space="preserve">
<g id="icon-m-transfer-continue">
	<rect style="fill:none;" width="64" height="64"/>
	<path style="fill:#333333;" d="M30.493,21.104h-2.641v-5.164c0-0.5-0.643-0.932-1.139-0.494l-8.535,8.623
		c-0.299,0.268-0.302,0.725,0.001,0.99l8.534,8.58c0.589,0.518,1.139-0.047,1.139-0.498l0.002-5.115l2.639-0.002
		c4.275,0.045,8.521,3.113,8.521,6.9c0,3.807-4.283,6.895-8.594,6.904v0.014c-0.602,0.008-1.08,0.471-1.08,1.086l-0.003,4.709
		c0,0.617,0.48,1.082,1.083,1.086v0.012c8.633-0.01,15.627-6.189,15.627-13.811C46.047,27.324,39.092,21.146,30.493,21.104z"/>
	<path style="fill:#333333;" d="M32,1C14.907,1,1,14.906,1,32s13.907,30.998,31,30.998c17.094,0,31-13.904,31-30.998S49.094,1,32,1z
		 M32,57.686C17.837,57.686,6.314,46.162,6.314,32C6.314,17.836,17.837,6.313,32,6.313S57.686,17.836,57.686,32
		C57.686,46.162,46.163,57.686,32,57.686z"/>
</g>
</svg>
