<?xml version="1.0" encoding="iso-8859-1"?>
<!-- Generator: Adobe Illustrator 14.0.0, SVG Export Plug-In . SVG Version: 6.00 Build 43363)  -->
<!DOCTYPE svg PUBLIC "-//W3C//DTD SVG 1.1//EN" "http://www.w3.org/Graphics/SVG/1.1/DTD/svg11.dtd">
<svg version="1.1" id="icon-l-video-layer" xmlns="http://www.w3.org/2000/svg" xmlns:xlink="http://www.w3.org/1999/xlink" x="0px"
	 y="0px" width="48px" height="48px" viewBox="0 0 48 48" style="enable-background:new 0 0 48 48;" xml:space="preserve">
<g id="icon-l-video">
	<rect style="fill:none;" width="48" height="48"/>
	<g>
		<path style="opacity:0.2;fill:#010101;" d="M42.338,23.76V7.425c-0.02-0.384-0.264-1.138-1.207-1.206H2.782
			C2.393,6.23,1.697,6.438,1.577,7.425v31.35c0.007,0.519,0.42,1.177,1.205,1.205h21.706c3.765,5.341,11.548,7.08,17.317,2.665
			C47.928,37.962,48.219,28.809,42.338,23.76z"/>
		<path style="opacity:0.5;fill:#010101;" d="M44.9,29.786L2.782,37.24v1.535h22.351c1.936,3.096,5.367,5.162,9.287,5.162
			c6.057,0,10.957-4.902,10.957-10.955C45.377,31.868,45.209,30.794,44.9,29.786z"/>
		<linearGradient id="SVGID_1_" gradientUnits="userSpaceOnUse" x1="21.957" y1="13.4795" x2="21.957" y2="48.8738">
			<stop  offset="0" style="stop-color:#E3E3E3"/>
			<stop  offset="1" style="stop-color:#414141"/>
		</linearGradient>
		<rect x="2.782" y="6.219" style="fill:url(#SVGID_1_);" width="38.351" height="31.35"/>
		<rect x="9.006" y="31.588" style="fill:#1A1A1A;" width="3.588" height="3.588"/>
		<rect x="16.495" y="31.588" style="fill:#1A1A1A;" width="3.588" height="3.588"/>
		<rect x="2.782" y="31.588" style="fill:#1A1A1A;" width="2.32" height="3.588"/>
		<rect x="2.782" y="13.727" style="opacity:0.4;" width="9.812" height="16.332"/>
		<polygon style="opacity:0.4;" points="41.133,23.423 38.969,21.98 38.969,13.727 41.133,13.727 		"/>
		<polygon style="opacity:0.4;" points="35.062,21.098 23.766,30.059 16.495,30.059 16.495,13.727 35.062,13.727 		"/>
		<polygon style="opacity:0.3;fill:#FFFFFF;" points="41.133,10.894 41.133,6.219 2.782,6.219 2.782,28.754 		"/>
		<rect x="9.006" y="8.509" style="fill:#1A1A1A;" width="3.588" height="3.589"/>
		<rect x="16.495" y="8.509" style="fill:#1A1A1A;" width="3.588" height="3.589"/>
		<rect x="23.989" y="8.509" style="fill:#1A1A1A;" width="3.585" height="3.589"/>
		<rect x="31.479" y="8.509" style="fill:#1A1A1A;" width="3.584" height="3.589"/>
		<rect x="38.969" y="8.509" style="fill:#1A1A1A;" width="2.164" height="3.589"/>
		<rect x="2.782" y="8.509" style="fill:#1A1A1A;" width="2.32" height="3.589"/>
		<path style="opacity:0.3;fill:#010101;" d="M41.133,23.512v-1.854c-0.027-0.021-0.041-0.051-0.07-0.071
			c-1.91-1.251-4.193-1.978-6.641-1.978c-6.709,0-12.165,5.457-12.165,12.165c0,2.095,0.532,4.069,1.47,5.793
			c0,0.001,0,0.001,0,0.001h2.296L41.133,23.512z"/>
		<linearGradient id="SVGID_2_" gradientUnits="userSpaceOnUse" x1="34.4199" y1="20.8145" x2="34.4199" y2="42.7339">
			<stop  offset="0" style="stop-color:#FFFFFF"/>
			<stop  offset="1" style="stop-color:#B3B3B3"/>
		</linearGradient>
		<path style="fill:url(#SVGID_2_);" d="M45.377,31.774c0,6.052-4.9,10.959-10.957,10.959c-6.051,0-10.958-4.907-10.958-10.959
			c0-6.05,4.908-10.96,10.958-10.96C40.477,20.814,45.377,25.725,45.377,31.774z"/>
		<linearGradient id="SVGID_3_" gradientUnits="userSpaceOnUse" x1="36.1719" y1="40.1543" x2="36.1719" y2="18.2432">
			<stop  offset="0" style="stop-color:#43B649"/>
			<stop  offset="0.1067" style="stop-color:#52B848"/>
			<stop  offset="0.4025" style="stop-color:#6CBE45"/>
			<stop  offset="0.7001" style="stop-color:#7AC143"/>
			<stop  offset="1" style="stop-color:#7EC242"/>
		</linearGradient>
		<polygon style="fill:url(#SVGID_3_);" points="31.33,26.416 31.33,37.315 41.014,31.865 		"/>
		<path style="fill:#FFFFFF;" d="M31.836,38.214l9.684-5.451c0.555-0.311,0.525-0.888,0.525-0.932l-1.031,0.034l-9.684,5.45
			l-0.523,0.891C31.131,38.396,31.525,38.391,31.836,38.214z"/>
		<path style="opacity:0.2;" d="M31.33,26.416l9.684,5.449l1.031-0.034c-0.014-0.36-0.211-0.691-0.525-0.87l-9.684-5.449
			c-0.689-0.391-1.543,0.115-1.543,0.901v10.902c0,0.36,0.197,0.708,0.514,0.891l0.523-0.891"/>
	</g>
</g>
</svg>
