<?xml version="1.0" encoding="iso-8859-1"?>
<!-- Generator: Adobe Illustrator 14.0.0, SVG Export Plug-In . SVG Version: 6.00 Build 43363)  -->
<!DOCTYPE svg PUBLIC "-//W3C//DTD SVG 1.1//EN" "http://www.w3.org/Graphics/SVG/1.1/DTD/svg11.dtd">
<svg version="1.1" id="icon-m-content-call-layer" xmlns="http://www.w3.org/2000/svg" xmlns:xlink="http://www.w3.org/1999/xlink"
	 x="0px" y="0px" width="64px" height="64px" viewBox="0 0 64 64" style="enable-background:new 0 0 64 64;" xml:space="preserve">
<g id="icon-m-content-call">
	<rect style="fill:none;" width="64" height="64"/>
	<path style="fill:#333333;" d="M31.873,0.988c-17.124,0-31.003,13.893-31.003,31.019c0,17.104,13.879,30.981,31.003,30.981
		c17.108,0,30.997-13.877,30.997-30.981C62.869,14.881,48.98,0.988,31.873,0.988z M50.396,20.504l-8.62,6.381
		c-0.404,0.313-0.918,0.639-1.566,0.639c-0.553,0-1.078-0.242-1.561-0.723l-0.079-0.092c-0.967-1.332-3.144-3.569-4.188-2.91
		c-1.291,0.814-9.956,9.465-10.779,10.762c-0.668,1.061,1.729,3.307,2.925,4.167l0.09,0.075c0.947,0.939,0.975,1.996,0.082,3.141
		l-6.336,8.529c-0.452,0.518-0.98,0.766-1.567,0.766c-0.697,0-1.326-0.361-1.619-0.613l-0.001,0.002
		c-2.689-2.141-5.668-8.51-4.113-12.584c3.367-8.82,17.386-21.279,24.751-24.739c0.801-0.375,1.729-0.565,2.759-0.565
		c3.626,0,8.104,2.402,9.892,4.574c0.158,0.156,0.328,0.412,0.488,0.833C51.288,19.031,51.086,19.891,50.396,20.504z"/>
</g>
</svg>
