<?xml version="1.0" encoding="iso-8859-1"?>
<!-- Generator: Adobe Illustrator 14.0.0, SVG Export Plug-In . SVG Version: 6.00 Build 43363)  -->
<!DOCTYPE svg PUBLIC "-//W3C//DTD SVG 1.1//EN" "http://www.w3.org/Graphics/SVG/1.1/DTD/svg11.dtd">
<svg version="1.1" id="icon-m-bluetooth-pda-layer" xmlns="http://www.w3.org/2000/svg" xmlns:xlink="http://www.w3.org/1999/xlink"
	 x="0px" y="0px" width="64px" height="64px" viewBox="0 0 64 64" style="enable-background:new 0 0 64 64;" xml:space="preserve">
<g id="icon-m-bluetooth-pda">
	<rect style="fill:none;" width="64" height="64"/>
	<path style="fill:#333333;" d="M60.807,8.077c-0.592-0.967-2.662-0.793-4.6,0.392L22.738,28.928
		c-1.938,1.184-3.038,2.944-2.446,3.913s2.661,0.794,4.599-0.393l33.47-20.456C60.298,10.808,61.398,9.048,60.807,8.077z"/>
	<path style="fill:#333333;" d="M40.645,39.411c0,2.271-1.857,4.13-4.129,4.13H12.05c-2.271,0-4.129-1.858-4.129-4.13V11.202
		c0-2.27,1.857-4.129,4.129-4.129h24.466c1.803,0,3.328,1.18,3.887,2.797l4.56-2.786c-1.202-3.077-4.197-5.276-7.688-5.276H11.291
		c-4.542,0-8.258,3.717-8.258,8.258v43.866c0,4.542,3.716,8.259,8.258,8.259h25.982c4.543,0,8.259-3.717,8.259-8.259V28.09
		l-4.888,2.987V39.411z M24.283,58.902c-3.07,0-5.558-2.483-5.558-5.548c0-3.063,2.487-5.548,5.558-5.548
		c3.068,0,5.557,2.484,5.557,5.548C29.84,56.419,27.352,58.902,24.283,58.902z"/>
</g>
</svg>
