<?xml version="1.0" encoding="iso-8859-1"?>
<!-- Generator: Adobe Illustrator 14.0.0, SVG Export Plug-In . SVG Version: 6.00 Build 43363)  -->
<!DOCTYPE svg PUBLIC "-//W3C//DTD SVG 1.1//EN" "http://www.w3.org/Graphics/SVG/1.1/DTD/svg11.dtd">
<svg version="1.1" id="icon-m-framework-grid-layer"
	 xmlns="http://www.w3.org/2000/svg" xmlns:xlink="http://www.w3.org/1999/xlink" x="0px" y="0px" width="64px" height="64px"
	 viewBox="0 0 64 64" style="enable-background:new 0 0 64 64;" xml:space="preserve">
<g id="icon-m-framework-grid">
	<rect style="fill:none;" width="64" height="64"/>
	<g>
		<path style="fill:#FFFFFF;" d="M37.334,20.666c0,1.1-0.9,2-2,2h-6.667c-1.1,0-2-0.9-2-2V14c0-1.1,0.9-2,2-2h6.667c1.1,0,2,0.9,2,2
			V20.666z"/>
	</g>
	<g>
		<path style="fill:#FFFFFF;" d="M52.668,20.666c0,1.1-0.9,2-2,2H44c-1.1,0-2-0.9-2-2V14c0-1.1,0.9-2,2-2h6.668c1.1,0,2,0.9,2,2
			V20.666z"/>
	</g>
	<g>
		<path style="fill:#FFFFFF;" d="M22.667,35.332c0,1.1-0.9,2-2,2H14c-1.1,0-2-0.9-2-2v-6.666c0-1.1,0.9-2,2-2h6.667c1.1,0,2,0.9,2,2
			V35.332z"/>
	</g>
	<g>
		<path style="fill:#FFFFFF;" d="M37.334,35.332c0,1.1-0.9,2-2,2h-6.667c-1.1,0-2-0.9-2-2v-6.666c0-1.1,0.9-2,2-2h6.667
			c1.1,0,2,0.9,2,2V35.332z"/>
	</g>
	<g>
		<path style="fill:#FFFFFF;" d="M52.668,35.332c0,1.1-0.9,2-2,2H44c-1.1,0-2-0.9-2-2v-6.666c0-1.1,0.9-2,2-2h6.668c1.1,0,2,0.9,2,2
			V35.332z"/>
	</g>
	<g>
		<path style="fill:#FFFFFF;" d="M22.667,50c0,1.1-0.9,2-2,2H14c-1.1,0-2-0.9-2-2v-6.668c0-1.1,0.9-2,2-2h6.667c1.1,0,2,0.9,2,2V50z
			"/>
	</g>
	<g>
		<path style="fill:#FFFFFF;" d="M37.334,50c0,1.1-0.9,2-2,2h-6.667c-1.1,0-2-0.9-2-2v-6.668c0-1.1,0.9-2,2-2h6.667c1.1,0,2,0.9,2,2
			V50z"/>
	</g>
	<g>
		<path style="fill:#FFFFFF;" d="M52.668,50c0,1.1-0.9,2-2,2H44c-1.1,0-2-0.9-2-2v-6.668c0-1.1,0.9-2,2-2h6.668c1.1,0,2,0.9,2,2V50z
			"/>
	</g>
	<g>
		<path style="fill:#FFFFFF;" d="M22.667,20.666c0,1.1-0.9,2-2,2H14c-1.1,0-2-0.9-2-2V14c0-1.1,0.9-2,2-2h6.667c1.1,0,2,0.9,2,2
			V20.666z"/>
	</g>
</g>
</svg>
