<?xml version="1.0" encoding="iso-8859-1"?>
<!-- Generator: Adobe Illustrator 14.0.0, SVG Export Plug-In . SVG Version: 6.00 Build 43363)  -->
<!DOCTYPE svg PUBLIC "-//W3C//DTD SVG 1.1//EN" "http://www.w3.org/Graphics/SVG/1.1/DTD/svg11.dtd">
<svg version="1.1" id="icon-m-common-save-as-layer"
	 xmlns="http://www.w3.org/2000/svg" xmlns:xlink="http://www.w3.org/1999/xlink" x="0px" y="0px" width="64px" height="64px"
	 viewBox="0 0 64 64" style="enable-background:new 0 0 64 64;" xml:space="preserve">
<g id="icon-m-common-save-as">
	<rect style="fill:none;" width="64" height="64"/>
	<path style="fill:#333333;" d="M63.192,8.232l-7.405-7.428c-0.412-0.406-1.081-0.406-1.492,0L33.012,21.887
		c-0.406,0.408-0.892,1.193-1.078,1.744l-3.801,11.404c-0.18,0.549,0.119,0.848,0.67,0.667l11.39-3.802
		c0.546-0.182,1.33-0.666,1.74-1.078L63.191,9.722C63.602,9.313,63.602,8.641,63.192,8.232z M39.812,29.334l-4.544,1.518
		l-2.288-2.286l1.516-4.554l2.018-2.018l5.268,5.369L39.812,29.334z"/>
	<rect x="13.687" y="43.016" style="fill:#333333;" width="16.385" height="3.273"/>
	<rect x="13.792" y="50.693" style="fill:#333333;" width="9.821" height="3.274"/>
	<path style="fill:#333333;" d="M41.795,37.494l-6.311,2.104c0.023,0.11,0.036,0.223,0.036,0.339v16.909
		c0,0.899-0.734,1.638-1.636,1.638H9.95c-0.9,0-1.638-0.738-1.638-1.638V39.938c0-0.9,0.738-1.637,1.638-1.637h12.683
		c-0.815-1.542-0.965-3.358-0.389-5.115l0.351-1.054H10.957c-0.45,0-0.819-0.367-0.819-0.818V20.666h-8
		c-0.9,0-1.637,0.738-1.637,1.639v39.559c0,0.9,0.737,1.637,1.637,1.637h39.559c0.899,0,1.638-0.736,1.638-1.637V36.797
		C42.819,37.076,42.299,37.324,41.795,37.494z"/>
	<path style="fill:#333333;" d="M22.578,27.903h1.426l2.048-6.147c0.133-0.391,0.308-0.791,0.505-1.189H21.76v6.518
		C21.76,27.535,22.127,27.903,22.578,27.903z"/>
</g>
</svg>
