<?xml version="1.0" encoding="iso-8859-1"?>
<!-- Generator: Adobe Illustrator 13.0.2, SVG Export Plug-In . SVG Version: 6.00 Build 14948)  -->
<!DOCTYPE svg PUBLIC "-//W3C//DTD SVG 1.1//EN" "http://www.w3.org/Graphics/SVG/1.1/DTD/svg11.dtd">
<svg version="1.1" xmlns="http://www.w3.org/2000/svg" xmlns:xlink="http://www.w3.org/1999/xlink" x="0px" y="0px" width="64px"
	 height="64px" viewBox="0 0 64 64" style="enable-background:new 0 0 64 64;" xml:space="preserve">
	<g id="icon-m-common-location-picker">
		<rect style="fill:none;" width="64" height="64"/>
		<path style="fill:#333333;" d="M40.42,0.838C34.111,0.91,29.021,5.502,29.021,11.164c0,1.809,0.52,3.508,1.432,4.986
			c0.001,0,0.001,0,0.001,0c0.302,0.492,2.022,2.947,2.407,3.387c3.965,5.662,5.92,12.314,7.473,19.697h0.17
			c1.555-7.383,3.51-14.035,7.475-19.697c0.385-0.439,2.104-2.895,2.407-3.385V16.15c0.912-1.479,1.433-3.178,1.433-4.986
			C51.818,5.502,46.729,0.91,40.42,0.838z M40.635,15.432c-2.446,0-4.426-1.973-4.426-4.412c0-2.438,1.979-4.412,4.426-4.412
			c2.441,0,4.424,1.975,4.424,4.412C45.059,13.459,43.076,15.432,40.635,15.432z"/>
		<path style="fill:#333333;" d="M63.029,28.251H49.801c-0.277,0.64-0.539,2.284-0.782,2.94h12.042v6.014L24.371,46.8l-7.424-15.604
			l14.846,0.008c-0.236-0.701-0.488-2.338-0.754-2.952H0.969C0.434,28.251,0,28.686,0,29.221v32.971
			c0,0.535,0.434,0.969,0.969,0.969h62.061c0.536,0,0.971-0.434,0.971-0.969V29.221C64,28.686,63.565,28.251,63.029,28.251z
			 M61.061,44.342v8.762H46.203c-1.002-1.576-2.319-3.17-3.85-4.377L61.061,44.342z M8.424,31.193l4.583,9.785H2.939v-9.787
			L8.424,31.193z M2.939,44.979h11.805l4.436,9.18l18.679-4.379c2.804,0.506,5.828,4.347,7.01,7.182
			c0.579,1.387,0.895,2.471,1.055,3.26H2.939V44.979z M48.939,60.221c-0.164-1.229-0.582-2.689-1.303-4.414
			c-0.159-0.383,0.104,0.027-0.111-0.387h13.572l-0.037,4.801H48.939z"/>
	</g>
</svg>
