<?xml version="1.0" encoding="iso-8859-1"?>
<!-- Generator: Adobe Illustrator 14.0.0, SVG Export Plug-In . SVG Version: 6.00 Build 43363)  -->
<!DOCTYPE svg PUBLIC "-//W3C//DTD SVG 1.1//EN" "http://www.w3.org/Graphics/SVG/1.1/DTD/svg11.dtd">
<svg version="1.1" id="icon-m-toolbar-mediacontrol-previous-layer"
	 xmlns="http://www.w3.org/2000/svg" xmlns:xlink="http://www.w3.org/1999/xlink" x="0px" y="0px" width="64px" height="64px"
	 viewBox="0 0 64 64" style="enable-background:new 0 0 64 64;" xml:space="preserve">
<g id="icon-m-toolbar-mediacontrol-previous">
	<rect style="fill:none;" width="64" height="64"/>
	<g>
		<path style="fill:#FFFFFF;" d="M20.699,49.5c1.1,0,2-0.9,2-2V36.506c0-1.1,0.782-1.554,1.737-1.008l22.782,13.01
			c0.955,0.546,1.736,0.092,1.736-1.008v-31c0-1.1-0.781-1.554-1.737-1.009L24.436,28.499c-0.955,0.545-1.737,0.091-1.737-1.009
			V16.5c0-1.1-0.9-2-2-2h-3.653c-1.1,0-2,0.9-2,2v31c0,1.1,0.9,2,2,2H20.699z"/>
	</g>
</g>
</svg>
