<?xml version="1.0" encoding="iso-8859-1"?>
<!-- Generator: Adobe Illustrator 14.0.0, SVG Export Plug-In . SVG Version: 6.00 Build 43363)  -->
<!DOCTYPE svg PUBLIC "-//W3C//DTD SVG 1.1//EN" "http://www.w3.org/Graphics/SVG/1.1/DTD/svg11.dtd">
<svg version="1.1" id="icon-m-toolbar-mediacontrol-forward-layer"
	 xmlns="http://www.w3.org/2000/svg" xmlns:xlink="http://www.w3.org/1999/xlink" x="0px" y="0px" width="64px" height="64px"
	 viewBox="0 0 64 64" style="enable-background:new 0 0 64 64;" xml:space="preserve">
<g id="icon-m-toolbar-mediacontrol-forward">
	<rect style="fill:none;" width="64" height="64"/>
	<g>
		<path style="fill:#FFFFFF;" d="M2.727,47.5c0,1.1,0.782,1.554,1.737,1.009L28.88,34.569c0.955-0.545,1.737-0.091,1.737,1.009V47.5
			c0,1.1,0.782,1.554,1.737,1.009L59.536,32.99c0.956-0.545,0.956-1.438,0-1.982L32.354,15.491
			c-0.955-0.545-1.737-0.091-1.737,1.009v11.92c0,1.1-0.782,1.554-1.737,1.009L4.464,15.491C3.509,14.946,2.727,15.4,2.727,16.5
			V47.5z"/>
	</g>
</g>
</svg>
