<?xml version="1.0" encoding="iso-8859-1"?>
<!-- Generator: Adobe Illustrator 14.0.0, SVG Export Plug-In . SVG Version: 6.00 Build 43363)  -->
<!DOCTYPE svg PUBLIC "-//W3C//DTD SVG 1.1//EN" "http://www.w3.org/Graphics/SVG/1.1/DTD/svg11.dtd">
<svg version="1.1" id="icon-m-telephony-call-answer-layer"
	 xmlns="http://www.w3.org/2000/svg" xmlns:xlink="http://www.w3.org/1999/xlink" x="0px" y="0px" width="64px" height="64px"
	 viewBox="0 0 64 64" style="enable-background:new 0 0 64 64;" xml:space="preserve">
<g id="icon-m-telephony-call-answer">
	<rect style="fill:none;" width="64" height="64"/>
	<path style="fill:#333333;" d="M10.153,11.245c-3.142,8.712-4.568,30.833-0.034,40.966c1.985,4.438,9.574,7.011,13.131,6.606
		c0.007,0.008,1.875-0.165,1.771-1.795l-1.85-12.526c-0.103-0.829-0.356-1.797-1.82-1.791c0,0-6.352,1.038-6.98-1.731
		c-0.428-1.922-0.417-16.595,0.016-18.513c0.634-2.777,6.984-1.759,6.984-1.759c1.468-0.005,1.714-0.975,1.82-1.8l1.876-12.541
		c0.097-1.639-1.77-1.801-1.776-1.795C19.743,4.193,11.815,6.652,10.153,11.245z"/>
	<path style="fill:#333333;" d="M37.742,13.969l-2.948,3.661c0.146,0.158,0.298,0.316,0.431,0.482
		c5.189,6.448,5.189,16.948,0.004,23.401c-0.25,0.308-0.514,0.584-0.771,0.865l2.947,3.661c0.251-0.285,0.51-0.575,0.754-0.882
		c6.807-8.465,6.812-22.225,0.001-30.699C38.025,14.293,37.885,14.139,37.742,13.969z"/>
	<path style="fill:#333333;" d="M51.157,7.317c-0.136-0.174-0.275-0.329-0.416-0.493l-2.936,3.643
		c0.142,0.163,0.282,0.329,0.415,0.496c8.36,10.392,8.361,27.298,0.002,37.687c-0.243,0.305-0.493,0.604-0.746,0.888l2.93,3.648
		c0.254-0.291,0.508-0.584,0.751-0.89C61.137,39.896,61.13,19.716,51.157,7.317z"/>
</g>
</svg>
