<?xml version="1.0" encoding="iso-8859-1"?>
<!-- Generator: Adobe Illustrator 14.0.0, SVG Export Plug-In . SVG Version: 6.00 Build 43363)  -->
<!DOCTYPE svg PUBLIC "-//W3C//DTD SVG 1.1//EN" "http://www.w3.org/Graphics/SVG/1.1/DTD/svg11.dtd">
<svg version="1.1" id="icon-m-content-playlist-auto-layer"
	 xmlns="http://www.w3.org/2000/svg" xmlns:xlink="http://www.w3.org/1999/xlink" x="0px" y="0px" width="64px" height="65px"
	 viewBox="0 0 64 65" style="enable-background:new 0 0 64 65;" xml:space="preserve">
<g id="icon-m-content-playlist-auto">
	<rect y="1" style="fill:none;" width="64" height="64"/>
	<path style="fill:#333333;" d="M56.088,38.001h-6.26L41.77,65h4.547l1.791-6.191h9.031L58.932,65H64L56.088,38.001z M48.977,55.389
		l3.686-13.344l3.654,13.402L48.977,55.389z"/>
	<path style="fill:#333333;" d="M45.366,1H15.337c-0.898,0-1.65,0.735-1.65,1.635l-0.003,29.184
		c-2.177-0.781-4.982-0.523-7.559,0.914c-4.192,2.318-6.046,6.691-4.244,9.955c1.812,3.27,6.515,4.023,10.701,1.705
		c2.769-1.536,4.599-3.977,4.929-6.401c0.02-0.265,0.047-0.403,0.047-0.602l0.011-23.509c0-0.899,0.751-1.635,1.65-1.635h26.146
		c0.899,0,1.634-0.734,1.634-1.634V2.635C47,1.735,46.266,1,45.366,1z"/>
	<rect x="22.948" y="17.207" style="fill:#333333;" width="22.137" height="4.92"/>
	<rect x="22.948" y="27.047" style="fill:#333333;" width="22.137" height="4.918"/>
</g>
</svg>
