<?xml version="1.0" encoding="iso-8859-1"?>
<!-- Generator: Adobe Illustrator 14.0.0, SVG Export Plug-In . SVG Version: 6.00 Build 43363)  -->
<!DOCTYPE svg PUBLIC "-//W3C//DTD SVG 1.1//EN" "http://www.w3.org/Graphics/SVG/1.1/DTD/svg11.dtd">
<svg version="1.1" id="icon-m-startup-personalize-layer"
	 xmlns="http://www.w3.org/2000/svg" xmlns:xlink="http://www.w3.org/1999/xlink" x="0px" y="0px" width="64px" height="64px"
	 viewBox="0 0 64 64" style="enable-background:new 0 0 64 64;" xml:space="preserve">
<g id="icon-m-startup-personalize">
	<rect style="fill:none;" width="64" height="64"/>
	<path style="fill:#333333;" d="M37.13,39.924c-0.138-5.364,3.58-9.934,9.11-11.218l0.008-9.198
		c-4.971-4.325-12.472-7.08-20.865-7.08c-4.877,0-9.79,0.929-14.229,2.913c-2.387,1.065-4.757,2.303-6.814,3.93
		c-1.552,1.227-3.706,3.537-3.286,5.718c0.23,1.195,0.774,1.975,1.791,2.589c1.772,1.069,3.758,1.44,5.784,1.745
		c3.908,0.588,7.846,1.678,8.704,6.145c0.833,4.336-5.231,6.996-3.375,11.396c1.851,4.393,7.288,4.709,11.426,4.709
		c5.586,0,10.777-1.222,15.09-3.313c-1.646-1.587-2.804-3.654-3.221-6.003C37.118,41.492,37.078,40.727,37.13,39.924z
		 M26.593,16.316c2.483,0.11,4.406,2.212,4.295,4.694c-0.111,2.484-2.213,4.407-4.696,4.297c-2.483-0.11-4.405-2.213-4.295-4.697
		C22.008,18.128,24.11,16.205,26.593,16.316z M14.005,26.919c-2.288-0.112-4.06-2.213-3.958-4.696
		c0.102-2.482,2.04-4.404,4.327-4.295c2.288,0.111,4.06,2.213,3.958,4.696C18.23,25.107,16.293,27.029,14.005,26.919z
		 M27.195,45.766c-2.977,0-5.39-2.412-5.39-5.39s2.413-5.391,5.39-5.391c2.978,0,5.391,2.413,5.391,5.391
		S30.173,45.766,27.195,45.766z M34.452,24.316c0.11-2.481,2.212-4.406,4.695-4.295c2.484,0.111,4.407,2.213,4.296,4.695
		c-0.111,2.483-2.213,4.407-4.697,4.296C36.264,28.901,34.342,26.8,34.452,24.316z"/>
	<path style="fill:#333333;" d="M63,24.469v-7c-3.389-1.869-6.594-2.562-10.747-2.562l-0.019,19.971
		c-1.178-0.472-2.788-0.659-4.234-0.409c-3.29,0.577-5.058,2.969-4.858,5.572c-0.044,0.386-0.05,0.775,0.019,1.168
		c0.485,2.736,3.387,4.866,6.84,4.26c3.281-0.573,5.199-3.4,5-6c0.021-0.196,0.008-0.8,0-1v-17C58.086,21.845,60.4,23.032,63,24.469
		z"/>
</g>
</svg>
