<?xml version="1.0" encoding="iso-8859-1"?>
<!-- Generator: Adobe Illustrator 14.0.0, SVG Export Plug-In . SVG Version: 6.00 Build 43363)  -->
<!DOCTYPE svg PUBLIC "-//W3C//DTD SVG 1.1//EN" "http://www.w3.org/Graphics/SVG/1.1/DTD/svg11.dtd">
<svg version="1.1" id="icon-m-telephony-ongoing-layer"
	 xmlns="http://www.w3.org/2000/svg" xmlns:xlink="http://www.w3.org/1999/xlink" x="0px" y="0px" width="40px" height="41px"
	 viewBox="0 0 40 41" style="enable-background:new 0 0 40 41;" xml:space="preserve">
<g id="icon-m-telephony-ongoing">
	<rect style="fill:none;" width="40" height="40"/>
	<g>
		<path style="fill:#FFFFFF;" d="M24.453,10.807L12.929,0.225c-0.329-0.3-0.868-0.3-1.197,0L0.207,10.807
			c-0.329,0.3-0.263,0.544,0.182,0.544H3.17v10.73h5.166v-7.55c-0.006-0.727,0.795-0.794,0.795-0.794h2.782c0,0,0.795,0,0.795,0.794
			v7.55h8.743v-10.73h2.782C24.677,11.351,24.782,11.106,24.453,10.807z"/>
	</g>
	<path style="fill:#FFFFFF;" d="M33.225,19.772c-3.904,1.833-11.658,8.648-13.501,13.479c-0.808,2.114,0.844,5.46,2.149,6.498
		c-0.001,0.004,0.671,0.563,1.174-0.008l3.516-4.733c0.239-0.308,0.475-0.709-0.01-1.189c0,0-2.433-1.75-1.729-2.869
		c0.492-0.773,5.327-5.602,6.103-6.091c1.122-0.705,2.878,1.721,2.878,1.721c0.485,0.482,0.886,0.243,1.192,0.008l4.747-3.513
		c0.572-0.508,0.011-1.176,0.007-1.176C38.704,20.609,35.283,18.807,33.225,19.772z"/>
</g>
</svg>
