<?xml version="1.0" encoding="iso-8859-1"?>
<!-- Generator: Adobe Illustrator 14.0.0, SVG Export Plug-In . SVG Version: 6.00 Build 43363)  -->
<!DOCTYPE svg PUBLIC "-//W3C//DTD SVG 1.1//EN" "http://www.w3.org/Graphics/SVG/1.1/DTD/svg11.dtd">
<svg version="1.1" id="icon-s-status-25-layer" xmlns="http://www.w3.org/2000/svg" xmlns:xlink="http://www.w3.org/1999/xlink"
	 x="0px" y="0px" width="30px" height="18px" viewBox="0 0 30 18" style="enable-background:new 0 0 30 18;" xml:space="preserve">
<g id="icon-s-status-25">
	<path style="fill:#FFFFFF;" d="M12.089,17.666H1v-1.537c0-3.672,2.232-5.784,4.464-7.656c1.512-1.271,2.52-2.184,2.52-3.672
		c0-1.608-0.792-2.496-2.688-2.496c-1.344,0-2.544,0.383-3.696,0.791V0.721C3.136,0.264,4.696,0,6.28,0
		c3.504,0,5.688,1.416,5.688,4.656c0,2.592-1.416,3.984-3.456,5.713c-2.16,1.824-3.577,3.096-3.745,4.992h7.321V17.666z"/>
	<path style="fill:#FFFFFF;" d="M15.76,17.857c-1.176,0-2.112-0.936-2.112-2.111c0-1.177,0.936-2.137,2.112-2.137
		c1.176,0,2.136,0.96,2.136,2.137C17.896,16.922,16.936,17.857,15.76,17.857z"/>
	<path style="fill:#FFFFFF;" d="M23.584,6.457c0.312-0.049,0.695-0.049,1.056-0.049c3.384,0,5.448,1.849,5.448,5.521
		c0,3.984-2.039,5.928-6.504,5.928c-1.416,0-2.832-0.216-4.104-0.527v-2.354c1.2,0.313,2.28,0.576,3.408,0.576
		c2.304,0,3.216-1.151,3.216-3.504c0-2.04-1.056-3.264-3.527-3.264c-0.769,0-1.801,0.023-2.545,0.119V0.191h9.385v2.305h-5.832
		V6.457z"/>
</g>
</svg>
