<?xml version="1.0" encoding="iso-8859-1"?>
<!-- Generator: Adobe Illustrator 14.0.0, SVG Export Plug-In . SVG Version: 6.00 Build 43363)  -->
<!DOCTYPE svg PUBLIC "-//W3C//DTD SVG 1.1//EN" "http://www.w3.org/Graphics/SVG/1.1/DTD/svg11.dtd">
<svg version="1.1" id="icon-s-messaging-layer" xmlns="http://www.w3.org/2000/svg" xmlns:xlink="http://www.w3.org/1999/xlink"
	 x="0px" y="0px" width="18px" height="16px" viewBox="0 0 18 16" style="enable-background:new 0 0 18 16;" xml:space="preserve">
<g id="icon-s-messaging">
	<path style="fill:#333333;" d="M12,0H1c-1.012,0-1,1-1,1v1l6.5,3L13,2V1C13,1,13.006,0,12,0z"/>
	<g>
		<path style="fill:#333333;" d="M6,7L0,4v5c0,0-0.012,1,1,1h5V7z"/>
	</g>
	<path style="fill:#333333;" d="M17,6H9C8,6,8,7,8,7v6c0,0,0,1,1,1h2l2,2v-2h4c1,0,1-1,1-1V7C18,6,17,6,17,6z M17,10H9V9h8V10z
		 M17,8H9V7h8V8z"/>
</g>
</svg>
