<?xml version="1.0" encoding="iso-8859-1"?>
<!-- Generator: Adobe Illustrator 14.0.0, SVG Export Plug-In . SVG Version: 6.00 Build 43363)  -->
<!DOCTYPE svg PUBLIC "-//W3C//DTD SVG 1.1//EN" "http://www.w3.org/Graphics/SVG/1.1/DTD/svg11.dtd">
<svg version="1.1" id="icon-m-organizer-location-user-layer"
	 xmlns="http://www.w3.org/2000/svg" xmlns:xlink="http://www.w3.org/1999/xlink" x="0px" y="0px" width="64px" height="64px"
	 viewBox="0 0 64 64" style="enable-background:new 0 0 64 64;" xml:space="preserve">
<g id="icon-m-organizer-location-user">
	<rect style="fill:none;" width="64" height="64"/>
	<path style="fill:#333333;" d="M40.514,13.222c3.6,0,6.519-2.864,6.519-6.388c0-3.535-2.919-6.407-6.519-6.407
		c-3.605,0-6.523,2.872-6.523,6.407C33.99,10.357,36.908,13.222,40.514,13.222z"/>
	<path style="fill:#333333;" d="M63.984,56.426V28.672H55.6v5.199l6.385-3.051v9.363l-9.662,4.831l-6.298-6.163H28.001l-6.521,3.115
		L9.848,30.672h15.389v-2H0v34.902h63.984v-7.117L64,56.441L63.984,56.426z M2,31.639l13.553,13.162L2,51.276V31.639z M2,61.574
		V59.23l0.097,0.206l19.12-9.136l11.61,11.273H2z M27.144,47.469l16.683-7.971l11.75,11.498l-15.851,8.69L27.144,47.469z
		 M61.984,61.574H42.456l15.337-8.41l4.191,4.102V61.574z M61.984,54.469l-7.393-7.234l7.393-3.696V54.469z"/>
	<path style="fill:#333333;" d="M40.416,16.398c-5.072,0-9.181,3.55-9.181,7.934v8.521h18.366v-8.521
		C49.601,19.948,45.49,16.398,40.416,16.398z"/>
</g>
</svg>
