<?xml version="1.0" encoding="iso-8859-1"?>
<!-- Generator: Adobe Illustrator 14.0.0, SVG Export Plug-In . SVG Version: 6.00 Build 43363)  -->
<!DOCTYPE svg PUBLIC "-//W3C//DTD SVG 1.1//EN" "http://www.w3.org/Graphics/SVG/1.1/DTD/svg11.dtd">
<svg version="1.1" id="icon-m-common-redo-layer" xmlns="http://www.w3.org/2000/svg" xmlns:xlink="http://www.w3.org/1999/xlink"
	 x="0px" y="0px" width="65px" height="64px" viewBox="0 0 65 64" style="enable-background:new 0 0 65 64;" xml:space="preserve">
<g id="icon-m-common-redo">
	<rect x="1" style="fill:none;" width="64" height="64"/>
	<path style="fill:#333333;" d="M11.071,9.026h30.748l0.004,0.012c2.533-0.1,5.104,0.74,7.125,2.56l5.527,4.975l5.555-6.063
		c0.288-0.316,0.592-0.23,0.684,0.185l4.271,20.114c0.086,0.42-0.184,0.716-0.609,0.669l-20.412-2.488
		c-0.422-0.055-0.533-0.35-0.244-0.666l5.656-6.179l-3.428-3.086h-0.005c-1.765-1.533-4.052-2.478-6.562-2.478l-28.31-0.001
		c-1.364,0-2.518,1.153-2.518,2.518v25.807c0,1.364,1.153,2.518,2.518,2.518h34.933v7.553H11.071C5.532,54.974,1,50.442,1,44.903
		V19.097C1,13.558,5.532,9.026,11.071,9.026z"/>
</g>
</svg>
