<?xml version="1.0" encoding="iso-8859-1"?>
<!-- Generator: Adobe Illustrator 14.0.0, SVG Export Plug-In . SVG Version: 6.00 Build 43363)  -->
<!DOCTYPE svg PUBLIC "-//W3C//DTD SVG 1.1//EN" "http://www.w3.org/Graphics/SVG/1.1/DTD/svg11.dtd">
<svg version="1.1" id="icon-m-common-favorite-mark-layer"
	 xmlns="http://www.w3.org/2000/svg" xmlns:xlink="http://www.w3.org/1999/xlink" x="0px" y="0px" width="64px" height="64px"
	 viewBox="0 0 64 64" style="enable-background:new 0 0 64 64;" xml:space="preserve">
<g id="icon-m-common-favorite-mark">
	<rect style="fill:none;" width="64" height="64"/>
	<path style="fill:#333333;" d="M62.929,25.403c0.896-0.669,0.719-1.216-0.401-1.216H41.89c-1.119,0-2.328-0.868-2.683-1.928
		l-6.56-19.553c-0.356-1.062-0.938-1.062-1.293,0L24.788,22.26c-0.356,1.06-1.563,1.928-2.682,1.928H1.474
		c-1.122,0-1.3,0.547-0.401,1.216l16.505,12.268c0.901,0.665,1.341,2.08,0.985,3.143l-6.773,20.171
		c-0.357,1.061,0.112,1.422,1.044,0.803l17.473-11.641c0.933-0.619,2.456-0.619,3.388,0l17.467,11.641
		c0.932,0.619,1.403,0.258,1.046-0.803l-6.771-20.171c-0.355-1.063,0.088-2.478,0.987-3.143L62.929,25.403z"/>
</g>
</svg>
