<?xml version="1.0" encoding="iso-8859-1"?>
<!-- Generator: Adobe Illustrator 14.0.0, SVG Export Plug-In . SVG Version: 6.00 Build 43363)  -->
<!DOCTYPE svg PUBLIC "-//W3C//DTD SVG 1.1//EN" "http://www.w3.org/Graphics/SVG/1.1/DTD/svg11.dtd">
<svg version="1.1" id="icon-m-startup-clock-layer" xmlns="http://www.w3.org/2000/svg" xmlns:xlink="http://www.w3.org/1999/xlink"
	 x="0px" y="0px" width="64px" height="64px" viewBox="0 0 64 64" style="enable-background:new 0 0 64 64;" xml:space="preserve">
<g id="icon-m-startup-clock">
	<rect style="fill:none;" width="64" height="64"/>
	<path style="fill:#333333;" d="M32,1C14.879,1,1,14.879,1,32s13.879,31,31,31c17.122,0,31-13.879,31-31S49.122,1,32,1z
		 M32.002,57.688c-14.186,0-25.686-11.5-25.686-25.688s11.5-25.686,25.686-25.686S57.688,17.813,57.688,32
		S46.188,57.688,32.002,57.688z"/>
	<polygon style="fill:#333333;" points="31.667,29.148 21.22,14.42 17.76,16.875 30.645,35.039 30.679,35.014 30.696,35.039 
		43.67,25.834 41.215,22.373 	"/>
</g>
</svg>
