<?xml version="1.0" encoding="iso-8859-1"?>
<!-- Generator: Adobe Illustrator 14.0.0, SVG Export Plug-In . SVG Version: 6.00 Build 43363)  -->
<!DOCTYPE svg PUBLIC "-//W3C//DTD SVG 1.1//EN" "http://www.w3.org/Graphics/SVG/1.1/DTD/svg11.dtd">
<svg version="1.1" id="icon-m-common-directory-new-content-layer"
	 xmlns="http://www.w3.org/2000/svg" xmlns:xlink="http://www.w3.org/1999/xlink" x="0px" y="0px" width="65px" height="64px"
	 viewBox="0 0 65 64" style="enable-background:new 0 0 65 64;" xml:space="preserve">
<g id="icon-m-common-directory-new-content">
	<rect x="1" style="fill:none;" width="64" height="64"/>
	<path style="fill:#333333;" d="M47,42c-13.234,0-24.001-10.766-24.001-24c0-0.477,0.019-0.947,0.046-1.418H1.02L1.017,58.904
		c0,1.1,0.899,2,2,2H63c1.1,0,2-0.9,2-2V33.85C60.6,38.842,54.164,42,47,42z"/>
	<path style="fill:#333333;" d="M28.207,3.099H3.021c-1.1,0-2,0.899-2,2l0,7.336h22.638C24.483,8.973,26.06,5.801,28.207,3.099z"/>
	<path style="fill:#333333;" d="M47,0c-9.941,0-18.001,8.058-18.001,18c0,9.939,8.06,18,18.001,18s18-8.061,18-18
		C65,8.058,56.941,0,47,0z M58.5,22.125l-2.686,4.336l-6.266-3.883v7.371h-5.098v-7.371l-6.268,3.883L35.5,22.125L42.16,18
		l-6.66-4.128l2.684-4.335l6.268,3.885V6.049h5.098v7.373l6.266-3.882l2.686,4.332L51.84,18L58.5,22.125z"/>
</g>
</svg>
