<?xml version="1.0" encoding="iso-8859-1"?>
<!-- Generator: Adobe Illustrator 14.0.0, SVG Export Plug-In . SVG Version: 6.00 Build 43363)  -->
<!DOCTYPE svg PUBLIC "-//W3C//DTD SVG 1.1//EN" "http://www.w3.org/Graphics/SVG/1.1/DTD/svg11.dtd">
<svg version="1.1" id="icon-m-common-volume-layer" xmlns="http://www.w3.org/2000/svg" xmlns:xlink="http://www.w3.org/1999/xlink"
	 x="0px" y="0px" width="64px" height="64px" viewBox="0 0 64 64" style="enable-background:new 0 0 64 64;" xml:space="preserve">
<g id="icon-m-common-volume">
	<rect style="fill:none;" width="64" height="64"/>
	<path style="fill:#333333;" d="M33.904,9.807h-0.857c-0.199,0-0.49,0.107-0.648,0.236L17.545,22.344H0.061v19.188h17.334
		l15.041,12.428c0.158,0.133,0.449,0.234,0.648,0.234h0.857c0.191,0,0.354-0.188,0.354-0.418l-0.037-43.547
		C34.258,9.996,34.096,9.807,33.904,9.807z"/>
	<path style="fill:#333333;" d="M55.131,10.539c-0.711-0.539-1.725-0.385-2.273,0.338c-0.533,0.723-0.377,1.758,0.352,2.303
		c4.613,3.496,7.496,10.396,7.496,18.01c0,7.602-2.883,14.52-7.496,18.01c-0.729,0.541-0.885,1.561-0.352,2.291
		c0.549,0.727,1.562,0.875,2.273,0.342c5.43-4.119,8.809-12.021,8.809-20.643C63.939,22.557,60.561,14.656,55.131,10.539z"/>
	<path style="fill:#333333;" d="M50.473,22.34c0,0-0.039-0.115-0.068-0.174c-0.34-0.805-1.152-2.275-1.152-2.275
		c-0.871-1.51-1.76-2.67-3.088-3.918c-0.471-0.455-0.996-0.848-1.504-1.238c-0.111-0.084-0.232-0.145-0.357-0.193
		c-0.697-0.377-1.584-0.189-2.086,0.488c-0.436,0.598-0.414,1.402-0.004,1.99c0.111,0.201,0.332,0.416,0.455,0.529
		c0.762,0.701,1.578,1.385,2.279,2.225c0.258,0.318,0.508,0.646,0.752,0.99c1.812,2.803,2.902,6.545,2.902,10.555
		c0,3.965-1.031,7.676-2.814,10.477c-0.914,1.262-1.955,2.289-3.086,3.246c-0.709,0.604-0.898,1.633-0.355,2.379
		c0.555,0.75,1.572,0.941,2.348,0.436c0.535-0.352,1.033-0.699,1.504-1.154c1.475-1.242,2.639-3.078,3.627-4.957h-0.023
		c1.531-2.992,2.398-6.617,2.398-10.426C52.199,28.105,51.582,25.023,50.473,22.34z"/>
</g>
</svg>
