<?xml version="1.0" encoding="iso-8859-1"?>
<!-- Generator: Adobe Illustrator 14.0.0, SVG Export Plug-In . SVG Version: 6.00 Build 43363)  -->
<!DOCTYPE svg PUBLIC "-//W3C//DTD SVG 1.1//EN" "http://www.w3.org/Graphics/SVG/1.1/DTD/svg11.dtd">
<svg version="1.1" id="icon-m-content-server-certificates-layer"
	 xmlns="http://www.w3.org/2000/svg" xmlns:xlink="http://www.w3.org/1999/xlink" x="0px" y="0px" width="64px" height="64px"
	 viewBox="0 0 64 64" style="enable-background:new 0 0 64 64;" xml:space="preserve">
<g id="icon-m-content-server-certificates">
	<rect style="fill:none;" width="64" height="64"/>
	<path style="fill:#333333;" d="M0.086,3.227V50.83c0,1.765,1.449,3.201,3.235,3.201h32.357c0.932,0,1.768-0.398,2.358-1.025
		c-6.912-3.713-11.624-11.012-11.624-19.393c0-3.768,0.954-7.316,2.631-10.42H8.76c-0.455,0-0.825-0.37-0.825-0.825v-3.301
		c0-0.451,0.37-0.825,0.825-0.825h21.479c0.453,0,0.826,0.374,0.826,0.825v1.042c2.084-2.671,4.766-4.855,7.848-6.336V3.227
		c0-1.764-1.451-3.195-3.234-3.195H3.321C1.535,0.031,0.086,1.463,0.086,3.227z M8.122,28.889c0-0.454,0.373-0.824,0.826-0.824
		h4.131c0.456,0,0.825,0.37,0.825,0.824v4.128c0,0.454-0.369,0.825-0.825,0.825H8.948c-0.453,0-0.826-0.371-0.826-0.825V28.889z
		 M7.935,10.84c0-0.457,0.37-0.834,0.825-0.834h21.479c0.453,0,0.826,0.377,0.826,0.834v3.334c0,0.46-0.373,0.832-0.826,0.832H8.76
		c-0.455,0-0.825-0.372-0.825-0.832V10.84z"/>
	<path style="fill:#333333;" d="M48.459,24.528c4.963,0,9,4.038,9,9c0,4.964-4.037,9-9,9c-4.962,0-9-4.036-9-9
		C39.459,28.566,43.497,24.528,48.459,24.528z"/>
	<path style="fill:#333333;" d="M41.278,47.363l-3.021,16.605l10.156-6.641l10.158,6.64l-3.021-16.604
		c4.967-2.582,8.363-7.767,8.363-13.75c0-8.56-6.938-15.5-15.501-15.5c-8.559,0-15.5,6.94-15.5,15.5
		C32.913,39.597,36.313,44.781,41.278,47.363z M35.959,33.528c0-6.892,5.607-12.5,12.5-12.5s12.5,5.608,12.5,12.5
		c0,6.894-5.607,12.5-12.5,12.5S35.959,40.422,35.959,33.528z"/>
</g>
</svg>
