<?xml version="1.0" encoding="iso-8859-1"?>
<!-- Generator: Adobe Illustrator 14.0.0, SVG Export Plug-In . SVG Version: 6.00 Build 43363)  -->
<!DOCTYPE svg PUBLIC "-//W3C//DTD SVG 1.1//EN" "http://www.w3.org/Graphics/SVG/1.1/DTD/svg11.dtd">
<svg version="1.1" id="icon-m-camera-scene-portrait-screen-layer"
	 xmlns="http://www.w3.org/2000/svg" xmlns:xlink="http://www.w3.org/1999/xlink" x="0px" y="0px" width="24px" height="24px"
	 viewBox="0 0 24 24" style="enable-background:new 0 0 24 24;" xml:space="preserve">
<g id="icon-m-camera-scene-portrait-screen">
	<rect style="fill:none;" width="24" height="24"/>
	<path style="fill:#FFFFFF;" d="M14.891,7.858l-0.004-1.18c-1.145-0.164-1.979-0.731-2.609-1.278
		c-0.067,0.135-0.142,0.27-0.225,0.401c-0.229,0.366-0.51,0.706-0.833,1.01C10.155,7.811,8.96,7.926,8.154,7.926
		c-0.227,0-0.448-0.011-0.665-0.021C7.483,7.992,7.473,8.079,7.473,8.172c0,2.574,2.543,5.898,4.514,5.898s4.401-3.527,4.401-6.101
		c0-0.038-0.006-0.07-0.007-0.107L14.891,7.858z"/>
	<path style="fill:#FFFFFF;" d="M11.863,0.57c-2.952,0-5.344,2.393-5.344,5.343c0,0.173,0.01,0.343,0.025,0.511
		C7.89,6.425,9.146,6.78,10.233,5.76c0.221-0.206,0.429-0.453,0.598-0.723c0.19-0.304,0.331-0.637,0.384-0.979
		c0.019-0.118,0.102-1.341,0.008-1.391c0.631,0.329,1.052,0.751,1.482,1.166c0.673,0.646,1.509,1.452,2.852,1.452
		c0.25,0,0.504-0.029,0.765-0.088c0,0.001,0,0.002,0,0.002l0.01-0.005v1.228l0.848,0.002c0.016-0.168,0.025-0.338,0.025-0.511
		C17.205,2.963,14.813,0.57,11.863,0.57z"/>
	<path style="fill:#FFFFFF;" d="M17.25,13.125L12,21.375l-5.25-8.25C4.125,14.25,2.625,16.5,2.625,19.5v4.125h18.75l-0.006-4.16
		C21.375,16.875,19.875,14.25,17.25,13.125z"/>
</g>
</svg>
