<?xml version="1.0" encoding="iso-8859-1"?>
<!-- Generator: Adobe Illustrator 14.0.0, SVG Export Plug-In . SVG Version: 6.00 Build 43363)  -->
<!DOCTYPE svg PUBLIC "-//W3C//DTD SVG 1.1//EN" "http://www.w3.org/Graphics/SVG/1.1/DTD/svg11.dtd">
<svg version="1.1" id="icon-m-common-no-simcard-layer"
	 xmlns="http://www.w3.org/2000/svg" xmlns:xlink="http://www.w3.org/1999/xlink" x="0px" y="0px" width="64px" height="64px"
	 viewBox="0 0 64 64" style="enable-background:new 0 0 64 64;" xml:space="preserve">
<g id="icon-m-common-no-simcard">
	<rect style="fill:none;" width="64" height="64"/>
	
		<rect x="-4.864" y="29.461" transform="matrix(-0.6007 -0.7995 0.7995 -0.6007 25.6379 76.8086)" style="fill:#333333;" width="73.728" height="5.082"/>
	<polygon style="fill:#333333;" points="34.32,21.183 51.697,21.183 51.697,42.819 50.578,42.819 	"/>
	<polygon style="fill:#333333;" points="62.382,53.412 58.537,53.412 55.589,49.487 59.078,49.487 59.078,14.515 29.312,14.515 
		26.362,10.588 63,10.588 63,53.412 62.673,53.412 	"/>
	<polygon style="fill:#333333;" points="11.783,19.003 4.924,24.784 4.924,49.487 34.689,49.487 37.639,53.412 1.002,53.412 
		1,22.961 9.424,15.861 	"/>
</g>
</svg>
