<?xml version="1.0" encoding="iso-8859-1"?>
<!-- Generator: Adobe Illustrator 14.0.0, SVG Export Plug-In . SVG Version: 6.00 Build 43363)  -->
<!DOCTYPE svg PUBLIC "-//W3C//DTD SVG 1.1//EN" "http://www.w3.org/Graphics/SVG/1.1/DTD/svg11.dtd">
<svg version="1.1" id="icon-s-status-presence-offline-layer"
	 xmlns="http://www.w3.org/2000/svg" xmlns:xlink="http://www.w3.org/1999/xlink" x="0px" y="0px" width="18px" height="18px"
	 viewBox="0 0 18 18" style="enable-background:new 0 0 18 18;" xml:space="preserve">
<g id="icon-s-status-presence-offline">
	<path style="fill:#FFFFFF;" d="M9,0C4.03,0,0,4.029,0,9c0,4.972,4.03,9,9,9c4.971,0,9-4.028,9-9C18,4.029,13.971,0,9,0z
		 M14.067,11.821c0.65,0.653,0.65,1.714,0,2.363c-0.313,0.315-0.733,0.489-1.183,0.489c-0.447,0-0.868-0.174-1.183-0.49
		l-2.864-2.862L6.33,13.829c-0.615,0.616-1.762,0.712-2.449,0.203c-0.352-0.26-0.563-0.631-0.595-1.045
		c-0.032-0.427,0.128-0.841,0.452-1.166l2.799-2.801l-2.799-2.8C3.424,5.907,3.251,5.488,3.25,5.041
		c0-0.448,0.174-0.868,0.488-1.184c0.628-0.627,1.734-0.627,2.363,0l2.801,2.802l2.801-2.802c0.616-0.616,1.76-0.711,2.449-0.202
		c0.353,0.263,0.563,0.634,0.594,1.049c0.032,0.427-0.129,0.839-0.451,1.163l-3.093,3.09L14.067,11.821z"/>
</g>
</svg>
