<?xml version="1.0" encoding="iso-8859-1"?>
<!-- Generator: Adobe Illustrator 14.0.0, SVG Export Plug-In . SVG Version: 6.00 Build 43363)  -->
<!DOCTYPE svg PUBLIC "-//W3C//DTD SVG 1.1//EN" "http://www.w3.org/Graphics/SVG/1.1/DTD/svg11.dtd">
<svg version="1.1" id="icon-m-clock-alarm-repeating-layer"
	 xmlns="http://www.w3.org/2000/svg" xmlns:xlink="http://www.w3.org/1999/xlink" x="0px" y="0px" width="64px" height="64px"
	 viewBox="0 0 64 64" style="enable-background:new 0 0 64 64;" xml:space="preserve">
<g id="icon-m-clock-alarm-repeating">
	<rect style="fill:none;" width="64" height="64"/>
	<path style="fill:#333333;" d="M48.552,57.373c1.126,1.872,3.171,3.129,5.515,3.129c3.553,0,6.436-2.882,6.437-6.436
		c-0.001-2.345-1.258-4.39-3.13-5.516L48.552,57.373z"/>
	<path style="fill:#333333;" d="M4.089,35.271c0,3.716,3.013,6.729,6.729,6.729c2.45,0,4.588-1.314,5.765-3.271l-9.222-9.223
		C5.403,30.682,4.089,32.82,4.089,35.271z"/>
	<path style="fill:#333333;" d="M20.578,20.811l0.234-0.234c3.672-3.518,8.293-5.377,13.364-5.377c2.709,0,5.453,0.535,8.159,1.588
		c0.811,0.314,1.566,0.657,2.286,1.024c1.002-4.618,0.021-9.24-3.438-12.851l-0.056-0.055c-4.337-4.158-10.135-4.744-15.63-2.605
		c-2.596,1.011-4.547,2.411-6.659,4.125c-3.143,2.549-6.863,4.683-10.638,6.132c-1.57,0.603-2.824,0.886-4.012,2.095
		c-0.807,0.822-0.86,0.862-1.674,1.678c-0.544,0.543-0.732,1.621-0.189,2.165l12.608,12.607l0.055,0.054l0.408,0.408
		C15.93,27.562,17.673,23.841,20.578,20.811z"/>
	<path style="fill:#333333;" d="M60.873,34.385c-1.156-1.178-2.375-1.451-3.9-2.037c-3.669-1.409-7.287-3.482-10.342-5.962
		c-2.053-1.666-3.949-3.026-6.473-4.008c-5.343-2.079-10.979-1.509-15.196,2.53l-0.053,0.054c-4.042,4.218-4.612,9.853-2.532,15.197
		c0.982,2.522,2.343,4.419,4.008,6.472c2.478,3.055,4.553,6.673,5.961,10.342c0.586,1.525,0.86,2.744,2.037,3.9
		c0.799,0.784,0.838,0.837,1.63,1.627c0.529,0.529,1.576,0.712,2.105,0.184l12.256-12.256l0.053-0.053l12.256-12.256
		c0.528-0.528,0.346-1.578-0.184-2.105C61.709,35.223,61.657,35.183,60.873,34.385z"/>
</g>
</svg>
