<?xml version="1.0" encoding="iso-8859-1"?>
<!-- Generator: Adobe Illustrator 14.0.0, SVG Export Plug-In . SVG Version: 6.00 Build 43363)  -->
<!DOCTYPE svg PUBLIC "-//W3C//DTD SVG 1.1//EN" "http://www.w3.org/Graphics/SVG/1.1/DTD/svg11.dtd">
<svg version="1.1" id="icon-m-image-edit-contrast-layer"
	 xmlns="http://www.w3.org/2000/svg" xmlns:xlink="http://www.w3.org/1999/xlink" x="0px" y="0px" width="64px" height="64px"
	 viewBox="0 0 64 64" style="enable-background:new 0 0 64 64;" xml:space="preserve">
<g id="icon-m-image-edit-contrast">
	<rect style="fill:none;" width="64" height="64"/>
	<path style="fill:#333333;" d="M31.908,1C14.811,1,0.907,14.91,0.907,32c0,17.091,13.904,31,31.001,31
		c17.09,0,30.999-13.909,30.999-31C62.906,14.91,48.998,1,31.908,1z M31.908,56.562C18.363,56.562,7.349,45.546,7.349,32
		S18.363,7.438,31.908,7.438c13.54,0,24.557,11.016,24.557,24.562S45.447,56.562,31.908,56.562z"/>
	<path style="fill:#333333;" d="M32.486,14.997c-0.04,0-0.082,0.005-0.121,0.005v33.995c0.04,0,0.081,0.006,0.121,0.006
		c9.381,0,17.001-7.616,17.001-17.003C49.487,22.614,41.867,14.997,32.486,14.997z"/>
</g>
</svg>
