<?xml version="1.0" encoding="iso-8859-1"?>
<!-- Generator: Adobe Illustrator 14.0.0, SVG Export Plug-In . SVG Version: 6.00 Build 43363)  -->
<!DOCTYPE svg PUBLIC "-//W3C//DTD SVG 1.1//EN" "http://www.w3.org/Graphics/SVG/1.1/DTD/svg11.dtd">
<svg version="1.1" id="icon-m-camera-resolution-10.6m-layer"
	 xmlns="http://www.w3.org/2000/svg" xmlns:xlink="http://www.w3.org/1999/xlink" x="0px" y="0px" width="64px" height="64px"
	 viewBox="0 0 64 64" style="enable-background:new 0 0 64 64;" xml:space="preserve">
<g id="icon-m-camera-resolution-106m">
	<rect style="fill:none;" width="64" height="64"/>
	<path style="fill:#333333;" d="M12.687,63.8H1.19v-2.199h3.849V48.554L1.19,49.379v-2.15l5.699-1.774h2.174v16.146h3.624V63.8z"/>
	<path style="fill:#333333;" d="M20.188,63.975c-5.673,0-6.148-4.824-6.148-9.498c0-4.224,0.675-9.072,6.248-9.072
		c5.499,0,6.099,4.799,6.099,9.072C26.387,59.201,25.812,63.975,20.188,63.975z M20.188,47.679c-1.974,0-2.099,2.649-2.099,6.798
		c0,4.824,0.2,7.224,2.099,7.224c1.875,0,2.05-2.399,2.05-7.224C22.238,50.303,22.138,47.679,20.188,47.679z"/>
	<path style="fill:#333333;" d="M29.564,64c-1.225,0-2.199-0.975-2.199-2.199s0.975-2.225,2.199-2.225s2.225,1,2.225,2.225
		S30.789,64,29.564,64z"/>
	<path style="fill:#333333;" d="M43.586,48.054c-0.899-0.175-1.649-0.25-2.449-0.25c-2.749,0-3.799,2.149-4.074,4.849
		c0.801-0.699,1.875-1.05,3.275-1.05c3.599,0,4.898,2.624,4.898,5.874c0,3.574-1.775,6.498-6.248,6.498
		c-5.35,0-6.099-4.623-6.099-8.648c0-4.773,1.799-9.922,7.848-9.922c0.975,0,2.024,0.075,2.849,0.2V48.054z M39.138,54.002
		c-1.601,0-2.101,1.525-2.101,3.174c0,2.15,0.125,4.524,1.976,4.524c1.874,0,2.074-1.85,2.074-4.149
		C41.087,55.677,40.787,54.002,39.138,54.002z"/>
	<path style="fill:#333333;" d="M62.811,63.8h-4.024V51.728l-3.175,6.149h-1.499l-3.124-6.149V63.8h-4.125V45.604h3.6l4.398,8.598
		l4.399-8.598h3.55V63.8z"/>
	<path style="fill:#333333;" d="M51.545,39.091V0c-21.589,0-39.09,17.501-39.09,39.091H51.545z"/>
</g>
</svg>
