<?xml version="1.0" encoding="iso-8859-1"?>
<!-- Generator: Adobe Illustrator 14.0.0, SVG Export Plug-In . SVG Version: 6.00 Build 43363)  -->
<!DOCTYPE svg PUBLIC "-//W3C//DTD SVG 1.1//EN" "http://www.w3.org/Graphics/SVG/1.1/DTD/svg11.dtd">
<svg version="1.1" id="icon-m-transfer-content-layer"
	 xmlns="http://www.w3.org/2000/svg" xmlns:xlink="http://www.w3.org/1999/xlink" x="0px" y="0px" width="64px" height="64px"
	 viewBox="0 0 64 64" style="enable-background:new 0 0 64 64;" xml:space="preserve">
<g id="icon-m-transfer-content">
	<rect style="fill:none;" width="64" height="64"/>
	<path style="fill:#333333;" d="M35.547,28.666H23.663l-0.003,6.485c0,0.513-0.608,1.16-1.264,0.569l-9.459-9.79
		c-0.334-0.302-0.329-0.823-0.005-1.124l9.464-9.842c0.555-0.501,1.264-0.004,1.264,0.568v6.639l11.888,0.002
		c0.42-0.002,0.76,0.334,0.76,0.755v4.978C36.309,28.379,35.906,28.666,35.547,28.666z"/>
	<path style="fill:#333333;" d="M28.455,35.334h11.884l0.003-6.484c0-0.514,0.608-1.161,1.263-0.569l9.46,9.789
		c0.334,0.304,0.329,0.824,0.006,1.126l-9.466,9.84c-0.554,0.5-1.263,0.006-1.263-0.568v-6.638H28.455
		c-0.42,0-0.76-0.337-0.76-0.757v-4.979C27.693,35.623,28.094,35.334,28.455,35.334z"/>
	<path style="fill:#333333;" d="M63,32.001C63,49.094,49.094,63,32,63C14.906,63,1,49.094,1,32.001C1,14.907,14.906,1,32,1
		C49.094,1,63,14.907,63,32.001L63,32.001z M6.314,32.001c0,14.164,11.524,25.686,25.686,25.686
		c14.161,0,25.686-11.521,25.686-25.686C57.686,17.838,46.161,6.314,32,6.314C17.838,6.314,6.314,17.838,6.314,32.001L6.314,32.001z
		"/>
</g>
</svg>
