<?xml version="1.0" encoding="iso-8859-1"?>
<!-- Generator: Adobe Illustrator 13.0.2, SVG Export Plug-In . SVG Version: 6.00 Build 14948)  -->
<!DOCTYPE svg PUBLIC "-//W3C//DTD SVG 1.1//EN" "http://www.w3.org/Graphics/SVG/1.1/DTD/svg11.dtd">
<svg version="1.1" xmlns="http://www.w3.org/2000/svg" xmlns:xlink="http://www.w3.org/1999/xlink" x="0px" y="0px" width="64px"
	 height="64px" viewBox="0 0 64 64" style="enable-background:new 0 0 64 64;" xml:space="preserve">
	<g id="icon-m-clock-alarm-create">
		<path style="fill:#343434;" d="M5.655,29.972c-2.065,1.241-3.451,3.497-3.451,6.081c0,3.92,3.179,7.099,7.097,7.099
			c2.584,0,4.84-1.388,6.082-3.451L5.655,29.972z"/>
		<path style="fill:#343434;" d="M43.376,22.147c0.248-0.504,0.484-1.021,0.699-1.575c2.258-5.799,1.637-11.912-2.746-16.487
			l-0.059-0.059c-4.574-4.384-10.689-5.004-16.487-2.747c-2.738,1.066-4.796,2.542-7.023,4.351
			c-3.314,2.688-7.239,4.938-11.219,6.468c-1.657,0.635-2.979,0.933-4.233,2.209c-0.85,0.866-0.907,0.91-1.765,1.77
			c-0.575,0.572-0.773,1.711-0.2,2.283l13.298,13.297l0.058,0.059l8.915,8.915C24.87,30.804,33.169,23.262,43.376,22.147"/>
		<path style="fill:#343434;" d="M46,28c-9.94,0-18,8.059-18,18s8.06,18,18,18c9.941,0,18-8.059,18-18S55.941,28,46,28 M56.8,48.868
			h-7.842v7.934h-5.871v-7.934H35.2v-5.824h7.887v-7.842h5.871v7.842H56.8V48.868z"/>
	</g>
</svg>
