<?xml version="1.0" encoding="iso-8859-1"?>
<!-- Generator: Adobe Illustrator 14.0.0, SVG Export Plug-In . SVG Version: 6.00 Build 43363)  -->
<!DOCTYPE svg PUBLIC "-//W3C//DTD SVG 1.1//EN" "http://www.w3.org/Graphics/SVG/1.1/DTD/svg11.dtd">
<svg version="1.1" id="icon-m-camera-resolution-4m-layer"
	 xmlns="http://www.w3.org/2000/svg" xmlns:xlink="http://www.w3.org/1999/xlink" x="0px" y="0px" width="64px" height="64px"
	 viewBox="0 0 64 64" style="enable-background:new 0 0 64 64;" xml:space="preserve">
<g id="icon-m-camera-resolution-4m">
	<rect style="fill:none;" width="64" height="64"/>
	<path style="fill:#333333;" d="M29.749,60.15h-1.874V64h-4.024v-3.85h-7.124v-2.299l7.323-12.122h3.824v12.022h1.874V60.15z
		 M23.851,57.752v-7.349l-4.324,7.349H23.851z"/>
	<path style="fill:#333333;" d="M47.272,64h-4.024V51.928l-3.174,6.148h-1.5l-3.124-6.148V64h-4.124V45.805h3.6l4.398,8.598
		l4.398-8.598h3.55V64z"/>
	<polygon style="fill:#333333;" points="51.566,39.113 51.566,0 38.521,0 38.521,13.043 25.478,13.043 25.478,26.09 25.478,26.088 
		12.434,26.088 12.434,39.115 	"/>
</g>
</svg>
