<?xml version="1.0" encoding="iso-8859-1"?>
<!-- Generator: Adobe Illustrator 13.0.2, SVG Export Plug-In . SVG Version: 6.00 Build 14948)  -->
<!DOCTYPE svg PUBLIC "-//W3C//DTD SVG 1.1//EN" "http://www.w3.org/Graphics/SVG/1.1/DTD/svg11.dtd">
<svg version="1.1" xmlns="http://www.w3.org/2000/svg" xmlns:xlink="http://www.w3.org/1999/xlink" x="0px" y="0px" width="64px"
	 height="64px" viewBox="0 0 64 64" style="enable-background:new 0 0 64 64;" xml:space="preserve">
	<g id="icon-m-common-emergency">
		<polygon style="fill:none;" points="11.818,10.914 59.819,10.858 59.819,58.858 11.818,58.914 		"/>
		<polygon style="fill:#EE272A;" points="56.348,40.087 49.348,40.087 49.348,32.912 42.348,32.912 42.348,39.858 35.348,39.858 
			35.348,46.858 42.348,46.858 42.348,53.858 49.348,53.858 49.348,46.858 56.348,46.858 		"/>
		<g id="icon-m-telephony-call-activated_1_">
			<rect style="fill:none;" width="64" height="64"/>
			<path style="fill:#333333;" d="M42.798,13.426c-8.383,3.938-25.033,18.572-28.992,28.944c-1.733,4.542,1.813,11.726,4.614,13.954
				c-0.002,0.011,1.441,1.209,2.521-0.017l7.55-10.164c0.514-0.658,1.019-1.522-0.021-2.554c0,0-5.225-3.758-3.712-6.16
				c1.056-1.662,11.439-12.028,13.103-13.08c2.411-1.515,6.182,3.695,6.182,3.695c1.041,1.035,1.9,0.522,2.56,0.016l10.194-7.543
				c1.229-1.09,0.021-2.523,0.014-2.523C54.564,15.221,47.22,11.354,42.798,13.426z"/>
		</g>
	</g>
</svg>
