<?xml version="1.0" encoding="iso-8859-1"?>
<!-- Generator: Adobe Illustrator 14.0.0, SVG Export Plug-In . SVG Version: 6.00 Build 43363)  -->
<!DOCTYPE svg PUBLIC "-//W3C//DTD SVG 1.1//EN" "http://www.w3.org/Graphics/SVG/1.1/DTD/svg11.dtd">
<svg version="1.1" id="icon-m-launcher-layer" xmlns="http://www.w3.org/2000/svg" xmlns:xlink="http://www.w3.org/1999/xlink"
	 x="0px" y="0px" width="64px" height="64px" viewBox="0 0 64 64" style="enable-background:new 0 0 64 64;" xml:space="preserve">
<g id="icon-m-launcher">
	<rect style="fill:none;" width="64" height="64"/>
	<path id="Icon-menu_3_" style="fill:#333333;" d="M64,5.663v16.752c0,2.859-2.321,5.189-5.248,5.189H41.938
		c-2.843,0-5.196-2.33-5.196-5.189V5.663c0-2.858,2.354-5.193,5.196-5.193h16.814C61.679,0.47,64,2.805,64,5.663L64,5.663z
		 M64,41.592v16.755c0,2.856-2.321,5.185-5.248,5.185H41.938c-2.843,0-5.196-2.328-5.196-5.185V41.592
		c0-2.838,2.354-5.192,5.196-5.192h16.814C61.679,36.399,64,38.754,64,41.592L64,41.592z M27.254,5.663v16.752
		c0,2.859-2.303,5.189-5.216,5.189H5.201C2.332,27.604,0,25.274,0,22.415V5.663C0,2.805,2.332,0.47,5.201,0.47h16.837
		C24.951,0.47,27.254,2.805,27.254,5.663L27.254,5.663z M27.254,41.592v16.755c0,2.856-2.303,5.185-5.216,5.185H5.201
		C2.332,63.531,0,61.203,0,58.347V41.592c0-2.838,2.332-5.192,5.201-5.192h16.837C24.951,36.399,27.254,38.754,27.254,41.592
		L27.254,41.592z"/>
</g>
</svg>
