<?xml version="1.0" encoding="iso-8859-1"?>
<!-- Generator: Adobe Illustrator 14.0.0, SVG Export Plug-In . SVG Version: 6.00 Build 43363)  -->
<!DOCTYPE svg PUBLIC "-//W3C//DTD SVG 1.1//EN" "http://www.w3.org/Graphics/SVG/1.1/DTD/svg11.dtd">
<svg version="1.1" id="icon-m-transfer-download-layer"
	 xmlns="http://www.w3.org/2000/svg" xmlns:xlink="http://www.w3.org/1999/xlink" x="0px" y="0px" width="64px" height="64px"
	 viewBox="0 0 64 64" style="enable-background:new 0 0 64 64;" xml:space="preserve">
<g id="icon-m-transfer-download">
	<rect style="fill:none;" width="64" height="64"/>
	<path style="fill:#333333;" d="M42.914,27.417H36.32V16.538c0-0.473-0.38-0.847-0.85-0.847h-7.14
		c-0.531-0.002-0.853,0.44-0.853,0.847v10.876l-6.535,0.003c-0.574,0-1.295,0.68-0.633,1.41l10.958,10.584
		c0.337,0.375,0.924,0.371,1.264,0.004l11.014-10.588C44.106,28.212,43.555,27.417,42.914,27.417z"/>
	<rect x="21.412" y="42.691" style="fill:#333333;" width="21" height="7"/>
	<path style="fill:#333333;" d="M31.912,63.691c-17.094,0-31-13.906-31-31c0-17.093,13.907-31,31-31s31,13.907,31,31
		C62.912,49.785,49.006,63.691,31.912,63.691L31.912,63.691z M31.912,7.006c-14.164,0-25.686,11.523-25.686,25.686
		s11.522,25.685,25.686,25.685c14.162,0,25.686-11.522,25.686-25.685S46.074,7.006,31.912,7.006L31.912,7.006z"/>
</g>
</svg>
