<?xml version="1.0" encoding="iso-8859-1"?>
<!-- Generator: Adobe Illustrator 14.0.0, SVG Export Plug-In . SVG Version: 6.00 Build 43363)  -->
<!DOCTYPE svg PUBLIC "-//W3C//DTD SVG 1.1//EN" "http://www.w3.org/Graphics/SVG/1.1/DTD/svg11.dtd">
<svg version="1.1" id="icon-m-content-audio-layer" xmlns="http://www.w3.org/2000/svg" xmlns:xlink="http://www.w3.org/1999/xlink"
	 x="0px" y="0px" width="64px" height="64px" viewBox="0 0 64 64" style="enable-background:new 0 0 64 64;" xml:space="preserve">
<g id="icon-m-content-audio">
	<rect style="fill:none;" width="64" height="64"/>
	<path style="fill:#333333;" d="M49.832,35.664c-2.572-0.946-5.891-0.643-8.955,1.062c-4.969,2.771-7.18,7.951-5.029,11.829
		c2.143,3.87,7.73,4.758,12.686,2.005c3.286-1.813,5.391-4.715,5.797-7.593c0.035-0.343,0.057-0.479,0.057-0.712v-5.791V1.667
		c0-0.585-0.42-0.838-0.93-0.545L25.342,16.655c-0.505,0.276-0.914,0.984-0.914,1.581v28.258c-2.583-0.927-5.91-0.623-8.965,1.084
		c-4.973,2.75-7.172,7.936-5.034,11.806c2.147,3.88,7.727,4.771,12.69,2.022c3.284-1.821,5.455-4.716,5.847-7.592
		c0.024-0.314,0.056-0.479,0.056-0.714V30.729c0-0.451,0.419-1.288,0.925-1.573l18.908-10.447c0.508-0.279,0.926-0.031,0.926,0.548
		v18.087"/>
</g>
</svg>
