<?xml version="1.0" encoding="iso-8859-1"?>
<!-- Generator: Adobe Illustrator 14.0.0, SVG Export Plug-In . SVG Version: 6.00 Build 43363)  -->
<!DOCTYPE svg PUBLIC "-//W3C//DTD SVG 1.1//EN" "http://www.w3.org/Graphics/SVG/1.1/DTD/svg11.dtd">
<svg version="1.1" id="icon-m-common-grid-2column-layer"
	 xmlns="http://www.w3.org/2000/svg" xmlns:xlink="http://www.w3.org/1999/xlink" x="0px" y="0px" width="64px" height="64px"
	 viewBox="0 0 64 64" style="enable-background:new 0 0 64 64;" xml:space="preserve">
<g id="icon-m-common-grid-2column">
	<rect style="fill:none;" width="64" height="64"/>
	<rect style="fill:#333333;" width="21" height="6"/>
	<rect y="11.6" style="fill:#333333;" width="21" height="6"/>
	<rect y="23.199" style="fill:#333333;" width="21" height="6"/>
	<rect y="34.801" style="fill:#333333;" width="21" height="5.998"/>
	<rect y="46.4" style="fill:#333333;" width="21" height="6"/>
	<rect y="58" style="fill:#333333;" width="21" height="6"/>
	<rect x="28" style="fill:#333333;" width="21" height="6"/>
	<rect x="28" y="11.6" style="fill:#333333;" width="21" height="6"/>
	<path style="fill:#333333;" d="M38.52,23.199H28v6h0.883C31.542,26.491,34.835,24.412,38.52,23.199z"/>
	<path style="fill:#333333;" d="M46,28c-9.94,0-18,8.06-18,18c0,9.942,8.06,18,18,18c9.941,0,18-8.058,18-18
		C64,36.06,55.941,28,46,28z M53.468,57.305H38.531v-2.791c0-4.644,2.75-7.337,5.566-9.7c1.795-1.51,2.582-2.299,2.582-3.517
		c0-1.211-0.35-1.912-2.136-1.912c-1.415,0-2.689,0.409-3.978,0.865l-1.334,0.473v-4.934l0.715-0.211
		c1.998-0.594,3.877-0.881,5.744-0.881c4.924,0,7.637,2.283,7.637,6.432c0,3.439-1.901,5.322-4.386,7.426
		c-1.885,1.594-3.198,2.755-3.747,4.063h8.272V57.305z"/>
</g>
</svg>
