<?xml version="1.0" encoding="iso-8859-1"?>
<!-- Generator: Adobe Illustrator 14.0.0, SVG Export Plug-In . SVG Version: 6.00 Build 43363)  -->
<!DOCTYPE svg PUBLIC "-//W3C//DTD SVG 1.1//EN" "http://www.w3.org/Graphics/SVG/1.1/DTD/svg11.dtd">
<svg version="1.1" id="icon-m-content-dictionary-layer"
	 xmlns="http://www.w3.org/2000/svg" xmlns:xlink="http://www.w3.org/1999/xlink" x="0px" y="0px" width="64px" height="64px"
	 viewBox="0 0 64 64" style="enable-background:new 0 0 64 64;" xml:space="preserve">
<g id="icon-m-content-dictionary">
	<rect style="fill:none;" width="64" height="64"/>
	<rect style="fill:#333333;" width="6.26" height="64"/>
	<polygon style="fill:#333333;" points="25.127,31.423 30.025,31.423 27.558,25.262 	"/>
	<path style="fill:#333333;" d="M62,0H12v64h50c1.1,0,2-0.9,2-2V2C64,0.9,63.1,0,62,0z M58.102,41.392H42.914h-1.188H29.836v-2.184
		l0.463-0.033c0.536-0.04,1.18-0.14,1.913-0.296c0.442-0.094,0.647-0.182,0.736-0.23c-0.003-0.028-0.007-0.058-0.012-0.09
		c-0.004-0.026-0.022-0.112-0.101-0.306l-1.765-4.283h-6.982c-0.14,0.35-0.29,0.74-0.45,1.173c-0.211,0.571-0.394,1.077-0.548,1.522
		c-0.231,0.686-0.305,1.016-0.327,1.17c-0.032,0.229-0.05,0.388-0.05,0.479c0,0.113,0.175,0.262,0.467,0.398
		c0.45,0.209,1.242,0.364,2.355,0.463l0.456,0.041v2.176H15.898v-2.189l0.47-0.028c0.318-0.019,0.687-0.071,1.093-0.155
		c0.372-0.076,0.661-0.177,0.859-0.301c0.386-0.227,0.706-0.498,0.963-0.813c0.262-0.322,0.486-0.714,0.665-1.165l3.636-8.805
		c1.213-2.937,2.555-6.177,4.023-9.719l0.128-0.308h3.795l0.127,0.311c2.042,5.023,3.642,8.993,4.798,11.91
		c1.148,2.897,2.141,5.333,2.949,7.239c0.113,0.266,0.264,0.514,0.441,0.73c0.17,0.209,0.426,0.416,0.76,0.613
		c0.238,0.137,0.531,0.244,0.865,0.316c0.219,0.047,0.422,0.08,0.615,0.105l8.146-11.816c-0.859,0.005-1.652,0.021-2.379,0.042
		c-0.93,0.031-1.664,0.146-2.184,0.344c0.01,0-0.158,0.138-0.518,0.883c-0.313,0.65-0.563,1.336-0.74,2.038l-0.096,0.377h-1.982
		v-6.109h15.531v1.624l-8.559,12.466c0.053,0.002,0.107,0.003,0.164,0.004c1.031,0.023,1.916,0.025,2.988-0.023
		c0.568-0.024,1.008-0.057,1.32-0.098c0.328-0.039,0.57-0.14,0.748-0.307c0.205-0.191,0.369-0.425,0.486-0.695
		c0.135-0.298,0.307-0.742,0.52-1.336c0.213-0.59,0.377-1.12,0.486-1.578l0.092-0.385h1.988V41.392z"/>
</g>
</svg>
