<?xml version="1.0" encoding="iso-8859-1"?>
<!-- Generator: Adobe Illustrator 14.0.0, SVG Export Plug-In . SVG Version: 6.00 Build 43363)  -->
<!DOCTYPE svg PUBLIC "-//W3C//DTD SVG 1.1//EN" "http://www.w3.org/Graphics/SVG/1.1/DTD/svg11.dtd">
<svg version="1.1" id="icon-m-framework-back-layer"
	 xmlns="http://www.w3.org/2000/svg" xmlns:xlink="http://www.w3.org/1999/xlink" x="0px" y="0px" width="64px" height="64px"
	 viewBox="0 0 64 64" style="enable-background:new 0 0 64 64;" xml:space="preserve">
<g id="icon-m-framework-back">
	<rect style="fill:none;" width="64" height="64"/>
	<path style="fill:#FFFFFF;" d="M36.598,51.788c1.193,0,6.188-0.241,10.234-4.111c3.425-3.27,5.135-6.893,5.143-13.189L52,34.372
		c-0.008-6.297-1.743-10-5.168-13.271c-4.047-3.87-9.041-3.915-10.234-3.915c-0.075,0-11.534,0-11.534,0v-4.485
		c0-0.683,0-1.281-1.281-0.64L12.89,18.469c0,0-0.641,0.64-0.641,0.961c0,0.288,0.641,0.962,0.641,0.962l10.893,7.047
		c1.281,0.642,1.281,0.042,1.281-0.64v-4.551l11.534,0.063c0,0,3.893-0.452,6.855,2.419c2.381,2.306,3.393,4.889,3.396,9.757
		c-0.004,4.866-1.016,7.254-3.396,9.562c-2.963,2.871-6.83,2.615-6.855,2.611H21.219c-1.282,0-1.282,1.282-1.282,1.282v2.563
		c0,0,0,1.282,1.282,1.282H36.598z"/>
</g>
</svg>
