<?xml version="1.0" encoding="iso-8859-1"?>
<!-- Generator: Adobe Illustrator 14.0.0, SVG Export Plug-In . SVG Version: 6.00 Build 43363)  -->
<!DOCTYPE svg PUBLIC "-//W3C//DTD SVG 1.1//EN" "http://www.w3.org/Graphics/SVG/1.1/DTD/svg11.dtd">
<svg version="1.1" id="icon-s-application-layer" xmlns="http://www.w3.org/2000/svg" xmlns:xlink="http://www.w3.org/1999/xlink"
	 x="0px" y="0px" width="18px" height="18px" viewBox="0 0 18 18" style="enable-background:new 0 0 18 18;" xml:space="preserve">
<g id="icon-s-application">
	<path style="fill:#333333;" d="M7.367,1.671c0-0.014,0-0.028,0-0.045C7.365,1.477,7.356,1.124,7.119,0.732
		C6.917,0.381,6.47,0.071,5.906,0.011C5.896,0.01,5.885,0.01,5.875,0.01C5.808,0.005,5.739-0.001,5.669,0H3.68v0.002H1.717
		C1.034-0.016,0.48,0.334,0.25,0.737C0.011,1.131,0.004,1.484,0,1.629c0,0.018,0,0.033,0,0.044l0.011,4.002c0,0.013,0,0.027,0,0.044
		C0.015,5.868,0.023,6.222,0.26,6.613c0.229,0.398,0.776,0.744,1.45,0.732h3.942c0.016,0,0.032,0,0.048,0
		c0.055,0,0.107-0.007,0.16-0.011C5.881,7.334,5.902,7.334,5.922,7.33c0.037-0.004,0.071-0.012,0.106-0.018
		c0.511-0.088,0.914-0.377,1.101-0.704c0.239-0.394,0.247-0.748,0.25-0.894c0-0.017-0.001-0.031-0.001-0.043L7.367,1.671z"/>
	<path style="fill:#333333;" d="M10.322,7.346c0,0.011,0,0.024,0,0.038c0.003,0.141,0.009,0.488,0.238,0.882
		c0.215,0.398,0.753,0.759,1.42,0.75h0.002h3.979c0.016,0.001,0.032,0.001,0.049,0.001c0.662,0,1.195-0.345,1.42-0.737
		c0.238-0.396,0.246-0.75,0.249-0.892c0-0.026-0.001-0.042-0.001-0.051l-0.012-4.012c0-0.016,0-0.028-0.002-0.055
		c-0.004-0.132-0.027-0.428-0.201-0.772c-0.188-0.409-0.734-0.853-1.445-0.83c-0.018,0-0.04,0-0.067,0.001h-3.923
		c-0.684-0.018-1.236,0.333-1.467,0.736c-0.238,0.394-0.247,0.747-0.25,0.894c0,0.018,0,0.031,0.001,0.044L10.322,7.346z
		 M11.586,3.297c0,0,0,0,0-0.007c0-0.035,0.018-0.158,0.057-0.213c0.053-0.052,0.04-0.116,0.385-0.134h3.963l0.022-0.002h0.005
		c0.283,0.022,0.242,0.058,0.313,0.144c0.024,0.046,0.044,0.11,0.052,0.162s0.008,0.08,0.008,0.08l0.012,4.034
		c0,0.021,0,0.024,0,0.024c0.005,0.017-0.013,0.159-0.057,0.22c-0.053,0.053-0.039,0.117-0.386,0.134h-3.938c0,0-0.005,0-0.007,0
		c-0.006,0-0.009,0-0.009,0c-0.323-0.018-0.297-0.071-0.352-0.128c-0.038-0.055-0.057-0.171-0.06-0.214l0.002-0.014L11.586,3.3
		V3.297z"/>
	<path style="fill:#333333;" d="M17.668,12.285c-0.004-0.14-0.01-0.486-0.236-0.882c-0.213-0.401-0.762-0.772-1.438-0.753
		c-0.006,0-0.021,0-0.041,0.001h-3.924c-0.685-0.019-1.238,0.331-1.468,0.735c-0.239,0.395-0.247,0.749-0.251,0.895
		c0,0.018,0,0.032,0.001,0.045l0.011,4.004c0,0.014,0,0.029,0,0.047c0.003,0.152,0.012,0.502,0.245,0.893
		c0.224,0.398,0.77,0.746,1.438,0.729h3.956c0.016,0,0.033,0.002,0.051,0.002c0.662,0,1.194-0.345,1.419-0.739
		c0.237-0.395,0.245-0.747,0.248-0.892c0-0.025,0-0.043,0-0.049l-0.013-3.992C17.666,12.32,17.668,12.305,17.668,12.285z
		 M16.346,16.591c-0.053,0.052-0.039,0.116-0.385,0.132v0.002h-3.934c-0.012,0-0.02,0-0.022,0c-0.323-0.019-0.3-0.073-0.353-0.122
		c-0.037-0.051-0.055-0.173-0.057-0.214c0-0.006,0-0.01,0-0.01l0.001-0.011l-0.011-4.083v-0.017c0.001-0.04,0.02-0.155,0.058-0.209
		c0.052-0.052,0.039-0.116,0.386-0.134h3.963h0.006c0.309,0.02,0.281,0.068,0.334,0.125c0.046,0.066,0.063,0.217,0.061,0.234v0.002
		l-0.002,0.012l0.012,4.045c0.002,0.021,0.002,0.025,0.002,0.025C16.407,16.385,16.39,16.529,16.346,16.591z"/>
	<path style="fill:#333333;" d="M6.907,10.651H2.969c-0.686-0.019-1.238,0.334-1.468,0.737c-0.239,0.395-0.247,0.748-0.25,0.894
		c0,0.017,0,0.03,0.001,0.041l0.011,3.998c0,0.015-0.001,0.035-0.001,0.06c0.003,0.155,0.013,0.508,0.252,0.898
		c0.221,0.383,0.733,0.711,1.366,0.719h0.002h4.02c0.016,0,0.033,0,0.05,0c0.644,0,1.169-0.323,1.397-0.713
		c0.241-0.389,0.253-0.744,0.256-0.902c0-0.02-0.001-0.035-0.001-0.049l0.004-4.003c0.001-0.018,0.001-0.04,0.001-0.067
		c-0.003-0.166-0.017-0.521-0.26-0.904c-0.237-0.393-0.785-0.716-1.444-0.708 M7.329,16.383c0,0-0.016,0.165-0.057,0.217
		c-0.047,0.046-0.032,0.107-0.371,0.125H2.992c-0.015-0.002-0.026-0.002-0.032-0.002c-0.003,0-0.004,0-0.004,0
		c-0.333-0.016-0.315-0.074-0.363-0.121c-0.038-0.051-0.058-0.175-0.057-0.214c0-0.007,0-0.007,0-0.007l0.001-0.014l-0.01-4.078
		l-0.001-0.016c0-0.037,0.019-0.158,0.059-0.213c0.052-0.053,0.039-0.117,0.384-0.134h3.93c0.341,0.021,0.335,0.085,0.381,0.127
		c0.038,0.051,0.054,0.21,0.054,0.21L7.329,16.383z"/>
</g>
</svg>
