<?xml version="1.0" encoding="iso-8859-1"?>
<!-- Generator: Adobe Illustrator 14.0.0, SVG Export Plug-In . SVG Version: 6.00 Build 43363)  -->
<!DOCTYPE svg PUBLIC "-//W3C//DTD SVG 1.1//EN" "http://www.w3.org/Graphics/SVG/1.1/DTD/svg11.dtd">
<svg version="1.1" id="icon-m-content-pending-layer"
	 xmlns="http://www.w3.org/2000/svg" xmlns:xlink="http://www.w3.org/1999/xlink" x="0px" y="0px" width="65px" height="64px"
	 viewBox="0 0 65 64" style="enable-background:new 0 0 65 64;" xml:space="preserve">
<g id="icon-m-content-pending">
	<rect x="1" style="fill:none;" width="64" height="64"/>
	<path style="fill:#333333;" d="M32.452,1.525c-17.106,0-30.995,13.88-30.995,30.98c0,17.126,13.888,31.02,30.995,31.02
		c17.125,0,31.005-13.894,31.005-31.02C63.457,15.405,49.576,1.525,32.452,1.525z M37.262,35.64
		c3.256,2.573,5.293,7.583,5.293,13.052H22.36c0-5.133,1.843-9.951,4.821-12.641v-0.007l0.154-0.147
		c1.229-1.045,1.856-2.136,1.86-3.246c0.007-1.574-1.202-2.954-2.217-3.834c-2.897-2.766-4.618-7.418-4.618-12.458h20.195
		c0,5.468-2.035,10.474-5.311,13.069c-0.705,0.733-1.586,1.929-1.557,3.268C35.711,33.697,36.24,34.688,37.262,35.64z"/>
	<path style="fill:#333333;" d="M34.836,38.946c-0.506-0.453-0.77-0.927-0.779-1.405c0-0.027,0.01-0.053,0.012-0.079h-3.237
		c0.001,0.02,0.011,0.038,0.011,0.059c-0.002,0.53-0.312,1.05-0.922,1.548l-0.076,0.07v0.004c-1.475,1.281-2.387,3.58-2.387,6.028
		h10C37.457,42.562,36.447,40.174,34.836,38.946z"/>
</g>
</svg>
