<?xml version="1.0" encoding="iso-8859-1"?>
<!-- Generator: Adobe Illustrator 14.0.0, SVG Export Plug-In . SVG Version: 6.00 Build 43363)  -->
<!DOCTYPE svg PUBLIC "-//W3C//DTD SVG 1.1//EN" "http://www.w3.org/Graphics/SVG/1.1/DTD/svg11.dtd">
<svg version="1.1" id="icon-s-status-usb-layer" xmlns="http://www.w3.org/2000/svg" xmlns:xlink="http://www.w3.org/1999/xlink"
	 x="0px" y="0px" width="29px" height="18px" viewBox="0 0 29 18" style="enable-background:new 0 0 29 18;" xml:space="preserve">
<g id="icon-s-status-usb">
	<rect style="fill:none;" width="29" height="18"/>
	<path style="fill:#FFFFFF;" d="M28.437,8.982L25,6.308v2.019H9.207l1.743-4.483C10.95,3.828,11,3.756,11.076,3.707
		c0.074-0.052,0.163-0.072,0.175-0.068h3.968v0.033c0.301,0.691,1.006,1.175,1.828,1.175c1.097,0,1.984-0.861,1.984-1.925
		C19.031,1.861,18.144,1,17.047,1c-0.829,0-1.541,0.493-1.837,1.193l0.001,0.033h-3.96c-0.763,0.033-1.371,0.439-1.67,1.12
		L7.646,8.324H5.644C5.323,7.329,4.365,6.607,3.231,6.607c-1.396,0-2.526,1.095-2.526,2.447s1.13,2.449,2.526,2.449
		c1.139,0,2.101-0.729,2.417-1.734h4.982l2.049,4.975c0.313,0.67,0.92,1.068,1.681,1.101h3.82V17h3.836v-3.717h-3.836v1.15h-3.82
		c-0.015,0.004-0.108-0.018-0.186-0.071c-0.079-0.049-0.133-0.127-0.135-0.14L12.202,9.77H25v1.876L28.437,8.982z"/>
</g>
</svg>
