<?xml version="1.0" encoding="iso-8859-1"?>
<!-- Generator: Adobe Illustrator 14.0.0, SVG Export Plug-In . SVG Version: 6.00 Build 43363)  -->
<!DOCTYPE svg PUBLIC "-//W3C//DTD SVG 1.1//EN" "http://www.w3.org/Graphics/SVG/1.1/DTD/svg11.dtd">
<svg version="1.1" id="icon-m-telephony-call-missed-layer"
	 xmlns="http://www.w3.org/2000/svg" xmlns:xlink="http://www.w3.org/1999/xlink" x="0px" y="0px" width="64px" height="64px"
	 viewBox="0 0 64 64" style="enable-background:new 0 0 64 64;" xml:space="preserve">
<g id="icon-m-telephony-call-missed">
	<rect style="fill:none;" width="64" height="64"/>
	<path style="fill:#333333;" d="M38.211,41.583"/>
	<path style="fill:#333333;" d="M62.085,25.944h-8.814c-1.054,0-1.916,0.862-1.916,1.915v1.373
		c-0.019,7.894-5.671,15.739-12.641,15.739c-6.933,0-12.553-7.775-12.636-15.606l0.003-3.421h12.253
		c1.055,0,1.307-0.609,0.562-1.354L21.017,6.711c-0.746-0.744-1.963-0.744-2.708,0L0.428,24.59
		c-0.745,0.745-0.493,1.354,0.561,1.354h12.417v3.421c0.083,15.751,11.391,28.481,25.307,28.481c13.639,0,24.75-12.24,25.262-27.554
		c0.011-0.08,0.024-0.16,0.024-0.244v-2.189C64,26.807,63.139,25.944,62.085,25.944z"/>
</g>
</svg>
