<?xml version="1.0" encoding="iso-8859-1"?>
<!-- Generator: Adobe Illustrator 14.0.0, SVG Export Plug-In . SVG Version: 6.00 Build 43363)  -->
<!DOCTYPE svg PUBLIC "-//W3C//DTD SVG 1.1//EN" "http://www.w3.org/Graphics/SVG/1.1/DTD/svg11.dtd">
<svg version="1.1" id="icon-m-content-excel-layer" xmlns="http://www.w3.org/2000/svg" xmlns:xlink="http://www.w3.org/1999/xlink"
	 x="0px" y="0px" width="64px" height="64px" viewBox="0 0 64 64" style="enable-background:new 0 0 64 64;" xml:space="preserve">
<g id="icon-m-content-excel">
	<rect style="fill:none;" width="64" height="64"/>
	<polygon style="fill:#333333;" points="38.668,0.359 38.668,22.235 59.873,22.235 59.873,21.562 	"/>
	<path style="fill:#333333;" d="M38.152,27.396c-2.562,0-4.645-2.084-4.645-4.645V0H6.194C5.06,0,4.128,0.93,4.128,2.064v59.871
		C4.128,63.071,5.06,64,6.194,64h51.614c1.133,0,2.064-0.929,2.064-2.064V27.396H38.152z M34.084,30.983
		c1.791-0.906,4.293,0.443,5.575,2.983c1.276,2.567,0.861,5.375-0.942,6.274c-1.793,0.889-4.295-0.444-5.578-2.995
		C31.862,34.676,32.276,31.868,34.084,30.983z M17.612,58.592c-2.812,0-5.093-2.014-5.093-4.502c0-2.49,2.281-4.498,5.093-4.498
		c2.813,0,5.085,2.008,5.085,4.498C22.698,56.578,20.425,58.592,17.612,58.592z M41.617,53.281
		c-0.799,0.076-1.476-0.124-2.166-0.493c-0.895-0.478-1.27-1.194-1.867-1.965c-0.395-0.506-0.797-0.996-1.16-1.529
		c-0.353-0.519-0.649-1.096-1.188-1.435c-1.334-0.841-3.26-0.406-4.69-0.119c-0.73,0.146-1.484,0.298-2.218,0.369
		c-0.916,0.086-1.747,0.129-2.54,0.129c-2.567,0-4.646-0.448-6.355-1.368c-2.129-1.162-3.83-2.77-5.201-4.915
		c-1.396-2.187-2.279-4.061-2.778-5.896c-0.52-1.927-0.737-3.617-0.646-5.023c0.005-0.188,0.025-0.363,0.056-0.57
		c0.327-2.143,2.159-3.42,4.603-3.209c3.426,0.314,5.956,1.653,7.318,3.871c0.803,1.327,1.224,2.577,1.368,4.056
		c0.03,0.296,0.053,0.594,0.077,0.893c0.087,1.105,0.17,2.15,0.561,3.116c0.464,1.145,1.314,2.129,2.397,2.726
		c1.065,0.587,2.29,0.656,3.48,0.658c1.229,0.002,2.102-0.064,3.446-0.174c0.629-0.051,1.407-0.16,2.03-0.139
		c1.796,0.063,3.575,0.599,4.917,1.833c1.035,0.952,1.855,2.173,2.328,3.499c0.084,0.234,0.156,0.474,0.216,0.716
		C44.01,49.958,43.86,53.066,41.617,53.281z"/>
</g>
</svg>
