<?xml version="1.0" encoding="iso-8859-1"?>
<!-- Generator: Adobe Illustrator 13.0.2, SVG Export Plug-In . SVG Version: 6.00 Build 14948)  -->
<!DOCTYPE svg PUBLIC "-//W3C//DTD SVG 1.1//EN" "http://www.w3.org/Graphics/SVG/1.1/DTD/svg11.dtd">
<svg version="1.1" xmlns="http://www.w3.org/2000/svg" xmlns:xlink="http://www.w3.org/1999/xlink" x="0px" y="0px" width="18px"
	 height="18px" viewBox="0 0 18 18" style="enable-background:new 0 0 18 18;" xml:space="preserve">
	<g id="icon-s-status-internet-connection-off">
		<rect style="fill:none;" width="18" height="18"/>
		<path style="fill:#333333;" d="M11.321,8.52c1.099,0.368,2.132,0.986,3.006,1.86c0.056,0.055,0.106,0.112,0.159,0.168l0.98-0.979
			c-0.053-0.057-0.104-0.114-0.159-0.168c-1.479-1.48-3.343-2.342-5.272-2.59L11.321,8.52z"/>
		<path style="fill:#333333;" d="M5.188,7.498c-0.959,0.42-1.86,1.011-2.656,1.775l0.98,0.98c0.753-0.719,1.617-1.256,2.536-1.612
			L5.188,7.498z"/>
		<path style="fill:#333333;" d="M8.338,4.551c3.068-0.14,6.184,0.958,8.522,3.297c0.055,0.055,0.106,0.111,0.159,0.168L18,7.034
			c-0.054-0.056-0.104-0.112-0.16-0.168c-2.858-2.858-6.751-4.063-10.485-3.623L8.338,4.551z"/>
		<path style="fill:#333333;" d="M2.994,4.58C1.921,5.137,0.91,5.856,0,6.74l0.98,0.98c0.865-0.838,1.833-1.508,2.861-2.016
			L2.994,4.58z"/>
		<circle style="fill:#333333;" cx="9.281" cy="16.418" r="1.582"/>
		<path style="fill:#333333;" d="M7.441,10.496c-0.864,0.227-1.685,0.661-2.377,1.31l0.984,0.983
			c0.665-0.608,1.481-0.959,2.322-1.057L7.441,10.496z"/>
		
			<rect x="-1.046" y="8.263" transform="matrix(-0.6009 -0.7993 0.7993 -0.6009 7.2137 21.6036)" style="fill:#333333;" width="20.093" height="1.476"/>
	</g>
</svg>
