<?xml version="1.0" encoding="iso-8859-1"?>
<!-- Generator: Adobe Illustrator 14.0.0, SVG Export Plug-In . SVG Version: 6.00 Build 43363)  -->
<!DOCTYPE svg PUBLIC "-//W3C//DTD SVG 1.1//EN" "http://www.w3.org/Graphics/SVG/1.1/DTD/svg11.dtd">
<svg version="1.1" id="icon-m-toolbar-volume-off-layer"
	 xmlns="http://www.w3.org/2000/svg" xmlns:xlink="http://www.w3.org/1999/xlink" x="0px" y="0px" width="64px" height="64px"
	 viewBox="0 0 64 64" style="enable-background:new 0 0 64 64;" xml:space="preserve">
<g id="icon-m-toolbar-volume-off">
	<rect style="fill:none;" width="64" height="64"/>
	<path style="fill:#FFFFFF;" d="M42.613,50.838l2.421-2.422L9.5,12.885l-2.42,2.42L42.613,50.838z"/>
	<path style="fill:#FFFFFF;" d="M33.807,14.582c0-0.186-0.131-0.337-0.283-0.337h-0.687c-0.159,0-0.392,0.087-0.519,0.188
		l-11.883,9.842H6.448v15.35h13.867l12.033,9.941c0.126,0.108,0.359,0.188,0.519,0.188h0.686c0.153,0,0.283-0.15,0.283-0.335
		L33.807,14.582z M22.227,37.312l-0.832-0.687h-1.079H9.448v-9.35h10.987h1.081l0.833-0.689l8.461-7.008l0.021,24.844L22.227,37.312
		z"/>
</g>
</svg>
