<?xml version="1.0" encoding="iso-8859-1"?>
<!-- Generator: Adobe Illustrator 14.0.0, SVG Export Plug-In . SVG Version: 6.00 Build 43363)  -->
<!DOCTYPE svg PUBLIC "-//W3C//DTD SVG 1.1//EN" "http://www.w3.org/Graphics/SVG/1.1/DTD/svg11.dtd">
<svg version="1.1" id="icon-m-toolbar-forward-layer"
	 xmlns="http://www.w3.org/2000/svg" xmlns:xlink="http://www.w3.org/1999/xlink" x="0px" y="0px" width="65px" height="64px"
	 viewBox="0 0 65 64" style="enable-background:new 0 0 65 64;" xml:space="preserve">
<g id="icon-m-toolbar-forward">
	<rect x="1" style="fill:none;" width="64" height="64"/>
	<path style="fill:#FFFFFF;" d="M33,12c-11.045,0-20,8.955-20,20s8.955,20,20,20c11.047,0,20-8.955,20-20S44.047,12,33,12z
		 M44.977,32.557l-9.213,9.533c-0.636,0.576-1.229-0.053-1.229-0.549v-5.752h-13.02c-0.352,0-0.74-0.275-0.738-0.734v-7.109
		c0-0.419,0.328-0.745,0.738-0.74l13.02-0.005V22.43c0-0.557,0.692-1.036,1.229-0.548l9.217,9.581
		C45.304,31.756,45.305,32.264,44.977,32.557z"/>
</g>
</svg>
