<?xml version="1.0" encoding="iso-8859-1"?>
<!-- Generator: Adobe Illustrator 14.0.0, SVG Export Plug-In . SVG Version: 6.00 Build 43363)  -->
<!DOCTYPE svg PUBLIC "-//W3C//DTD SVG 1.1//EN" "http://www.w3.org/Graphics/SVG/1.1/DTD/svg11.dtd">
<svg version="1.1" id="icon-m-history-layer" xmlns="http://www.w3.org/2000/svg" xmlns:xlink="http://www.w3.org/1999/xlink"
	 x="0px" y="0px" width="64px" height="64px" viewBox="0 0 64 64" style="enable-background:new 0 0 64 64;" xml:space="preserve">
<g id="icon-m-history">
	<rect style="fill:none;" width="64" height="64"/>
	<path style="fill:#333333;" d="M62.969,29.475c-0.002-0.037-0.006-0.074-0.008-0.111c-0.033-0.359-0.08-0.715-0.127-1.072
		c-0.01-0.062-0.016-0.123-0.025-0.185c-0.049-0.343-0.107-0.679-0.17-1.017c-0.014-0.078-0.029-0.158-0.043-0.238
		c-0.062-0.316-0.133-0.633-0.205-0.944c-0.025-0.103-0.045-0.204-0.07-0.304c-0.072-0.289-0.15-0.574-0.232-0.859
		c-0.035-0.132-0.07-0.258-0.107-0.386c-0.078-0.252-0.16-0.503-0.244-0.752c-0.053-0.161-0.105-0.323-0.162-0.483
		c-0.076-0.213-0.156-0.424-0.238-0.632c-0.074-0.196-0.15-0.394-0.23-0.587c-0.072-0.169-0.146-0.34-0.223-0.51
		c-0.098-0.227-0.199-0.455-0.305-0.68c-0.064-0.135-0.131-0.268-0.199-0.4c-0.125-0.254-0.25-0.505-0.385-0.756
		c-0.057-0.103-0.115-0.205-0.172-0.309c-0.15-0.27-0.303-0.539-0.463-0.805c-0.049-0.084-0.104-0.166-0.154-0.248
		c-0.172-0.277-0.344-0.553-0.525-0.822c-0.053-0.076-0.105-0.148-0.156-0.223c-0.186-0.271-0.375-0.541-0.57-0.805
		c-0.062-0.084-0.127-0.164-0.189-0.245c-0.191-0.251-0.383-0.499-0.584-0.743c-0.092-0.113-0.189-0.221-0.285-0.333
		c-0.176-0.208-0.352-0.417-0.535-0.622c-0.207-0.227-0.422-0.447-0.637-0.668c-0.078-0.082-0.154-0.168-0.234-0.248
		c-0.002-0.002-0.004-0.004-0.008-0.006c-0.305-0.307-0.617-0.604-0.938-0.896c-0.084-0.074-0.168-0.144-0.252-0.217
		c-0.24-0.21-0.48-0.424-0.727-0.625c-0.111-0.09-0.225-0.176-0.336-0.264c-0.225-0.179-0.451-0.357-0.68-0.527
		c-0.119-0.09-0.244-0.174-0.365-0.262c-0.227-0.162-0.455-0.324-0.689-0.479c-0.115-0.078-0.234-0.152-0.354-0.229
		c-0.244-0.158-0.49-0.312-0.74-0.462c-0.102-0.062-0.203-0.12-0.305-0.179c-0.275-0.158-0.549-0.312-0.828-0.463
		c-0.076-0.039-0.154-0.076-0.229-0.115c-0.311-0.162-0.625-0.318-0.941-0.467c-0.043-0.02-0.086-0.039-0.131-0.059
		c-0.35-0.162-0.705-0.317-1.066-0.465c-0.004-0.001-0.01-0.003-0.014-0.006c-3.012-1.225-6.301-1.906-9.75-1.908
		c-0.83,0-1.65,0.043-2.461,0.119c-0.016,0.002-0.031,0.002-0.047,0.004c-0.33,0.034-0.66,0.074-0.988,0.119
		c-0.096,0.012-0.193,0.021-0.291,0.038c-0.285,0.04-0.566,0.091-0.848,0.142c-0.143,0.026-0.283,0.047-0.426,0.075
		c-0.242,0.05-0.484,0.104-0.725,0.16c-0.182,0.04-0.363,0.079-0.543,0.124c-0.199,0.051-0.396,0.105-0.594,0.16
		c-0.223,0.062-0.447,0.123-0.67,0.189C29.396,7.039,29.25,7.09,29.1,7.137c-0.27,0.089-0.537,0.176-0.805,0.273
		c-0.096,0.035-0.191,0.072-0.285,0.108c-0.316,0.118-0.631,0.241-0.945,0.371c-0.041,0.019-0.084,0.038-0.125,0.056
		c-2.971,1.264-5.754,3.104-8.176,5.528l0.006,0.005c-4.586,4.588-7.457,10.885-7.598,17.85H8.809L2.016,31.33
		c-0.596,0-1.346,0.719-0.656,1.492l11.389,11.173C13.1,44.393,13.711,44.39,14.061,44L25.51,32.822
		c0.582-0.649,0.01-1.492-0.658-1.492h-6.854h-2.236c0.225-8.621,5.52-15.979,13.025-19.174l0.041-0.018
		c0.248-0.105,0.498-0.203,0.75-0.298c0.105-0.039,0.209-0.081,0.314-0.118c0.16-0.059,0.324-0.111,0.486-0.165
		c0.199-0.065,0.395-0.132,0.594-0.192c0.068-0.02,0.139-0.039,0.207-0.059c4.918-1.414,10.242-1.034,14.943,1.146
		c0,0,0.004,0,0.006,0.001c0.266,0.123,0.529,0.256,0.791,0.391c0.072,0.037,0.145,0.074,0.215,0.112
		c0.189,0.099,0.377,0.206,0.562,0.312c0.139,0.08,0.277,0.157,0.412,0.238c0.115,0.069,0.227,0.141,0.338,0.211
		c0.201,0.127,0.402,0.252,0.6,0.386c0.035,0.022,0.07,0.048,0.105,0.073c3.057,2.092,5.545,4.957,7.184,8.315
		c0.021,0.046,0.047,0.093,0.068,0.14c0.107,0.225,0.205,0.451,0.307,0.679c0.049,0.113,0.1,0.226,0.146,0.339
		c0.068,0.164,0.131,0.33,0.195,0.496c0.068,0.18,0.141,0.361,0.205,0.546c0.035,0.099,0.068,0.2,0.104,0.302
		c0.082,0.248,0.166,0.499,0.238,0.751c0.01,0.032,0.02,0.067,0.031,0.101c1.145,3.939,1.143,8.143-0.014,12.081
		c-0.004,0.015-0.008,0.031-0.014,0.046c-0.08,0.272-0.168,0.541-0.26,0.809c-0.027,0.082-0.053,0.16-0.08,0.24
		c-0.074,0.206-0.152,0.408-0.23,0.612c-0.055,0.141-0.109,0.283-0.168,0.421c-0.057,0.141-0.119,0.279-0.182,0.418
		c-0.086,0.2-0.174,0.399-0.266,0.595c-0.039,0.077-0.076,0.154-0.115,0.229c-0.123,0.251-0.25,0.504-0.385,0.75
		c-0.008,0.018-0.018,0.034-0.027,0.054c-1.805,3.306-4.449,6.084-7.648,8.043c-0.018,0.009-0.033,0.021-0.049,0.031
		c-0.24,0.144-0.484,0.283-0.729,0.42c-0.074,0.041-0.148,0.081-0.221,0.12c-0.193,0.105-0.391,0.203-0.586,0.303
		c-0.133,0.066-0.264,0.133-0.396,0.195c-0.143,0.068-0.289,0.133-0.434,0.197c-0.191,0.086-0.383,0.17-0.576,0.251
		c-0.088,0.036-0.18,0.072-0.271,0.107c-0.25,0.099-0.504,0.195-0.756,0.284c-0.035,0.012-0.068,0.024-0.104,0.036
		c-7.49,2.589-16.123,0.899-22.105-5.072l-3.24,3.243c5.395,5.401,12.576,7.926,19.643,7.57c0.209-0.008,0.414-0.029,0.621-0.042
		c0.211-0.017,0.42-0.028,0.627-0.05c0.293-0.027,0.58-0.063,0.867-0.103c0.125-0.017,0.248-0.03,0.371-0.047
		c0.322-0.049,0.643-0.104,0.961-0.162c0.09-0.018,0.178-0.032,0.27-0.05c0.33-0.065,0.658-0.139,0.982-0.216
		c0.082-0.021,0.164-0.037,0.244-0.057c0.322-0.079,0.641-0.167,0.957-0.259c0.09-0.025,0.18-0.049,0.27-0.076
		c0.301-0.092,0.598-0.189,0.895-0.291c0.107-0.034,0.215-0.069,0.324-0.106c0.271-0.098,0.541-0.202,0.809-0.308
		c0.133-0.053,0.266-0.104,0.396-0.158c0.238-0.098,0.475-0.201,0.711-0.309c0.158-0.069,0.316-0.14,0.475-0.214
		c0.203-0.099,0.41-0.199,0.611-0.304c0.182-0.092,0.363-0.183,0.543-0.279c0.178-0.093,0.352-0.195,0.527-0.293
		c0.199-0.113,0.396-0.225,0.592-0.341c0.156-0.095,0.307-0.191,0.461-0.29c0.207-0.131,0.416-0.259,0.619-0.398
		c0.143-0.095,0.279-0.193,0.42-0.293c0.209-0.146,0.416-0.289,0.621-0.44c0.137-0.102,0.27-0.21,0.404-0.313
		c0.201-0.155,0.4-0.311,0.6-0.474c0.139-0.114,0.275-0.235,0.412-0.354c0.186-0.159,0.371-0.316,0.555-0.48
		c0.133-0.122,0.26-0.25,0.389-0.372c0.178-0.168,0.357-0.33,0.529-0.505c0.242-0.241,0.473-0.488,0.703-0.739
		c0.051-0.057,0.107-0.111,0.16-0.17c0.219-0.24,0.428-0.486,0.635-0.733c0.064-0.076,0.131-0.148,0.193-0.226
		c0.211-0.255,0.41-0.516,0.609-0.777c0.055-0.072,0.113-0.144,0.168-0.214c0.197-0.269,0.387-0.537,0.574-0.811
		c0.051-0.075,0.104-0.147,0.154-0.224c0.18-0.265,0.35-0.536,0.518-0.812c0.055-0.086,0.113-0.175,0.166-0.263
		c0.154-0.259,0.305-0.521,0.449-0.783c0.062-0.111,0.125-0.22,0.186-0.332c0.129-0.242,0.252-0.486,0.373-0.732
		c0.07-0.142,0.143-0.281,0.211-0.424c0.102-0.218,0.197-0.436,0.295-0.654c0.078-0.178,0.158-0.356,0.232-0.535
		c0.076-0.185,0.148-0.374,0.219-0.562c0.086-0.217,0.168-0.434,0.248-0.654c0.053-0.154,0.105-0.312,0.156-0.465
		c0.086-0.253,0.17-0.51,0.248-0.768c0.037-0.123,0.07-0.245,0.104-0.373c0.084-0.288,0.164-0.578,0.236-0.869
		c0.023-0.098,0.043-0.195,0.066-0.293c0.076-0.316,0.146-0.634,0.209-0.955c0.016-0.078,0.027-0.156,0.043-0.234
		c0.061-0.337,0.121-0.674,0.172-1.016c0.008-0.064,0.016-0.127,0.023-0.191c0.049-0.354,0.094-0.709,0.129-1.068
		c0.002-0.031,0.002-0.062,0.006-0.093c0.074-0.796,0.115-1.601,0.115-2.413C63.082,31.055,63.041,30.26,62.969,29.475z
		 M35.281,15.914V33.82l17.938,0.014v-3.967H39.281V15.914H35.281z"/>
</g>
</svg>
