<?xml version="1.0" encoding="iso-8859-1"?>
<!-- Generator: Adobe Illustrator 14.0.0, SVG Export Plug-In . SVG Version: 6.00 Build 43363)  -->
<!DOCTYPE svg PUBLIC "-//W3C//DTD SVG 1.1//EN" "http://www.w3.org/Graphics/SVG/1.1/DTD/svg11.dtd">
<svg version="1.1" id="icon-m-common-volume-off-layer"
	 xmlns="http://www.w3.org/2000/svg" xmlns:xlink="http://www.w3.org/1999/xlink" x="0px" y="0px" width="64px" height="64px"
	 viewBox="0 0 64 64" style="enable-background:new 0 0 64 64;" xml:space="preserve">
<g id="icon-m-common-volume-off">
	<rect style="fill:none;" width="64" height="64"/>
	<path style="fill:#333333;" d="M48.045,54.236l2.42-2.423l-45-44.997l-2.42,2.42L48.045,54.236z"/>
	<path style="fill:#333333;" d="M34.264,10c0-0.23-0.163-0.418-0.354-0.418h-0.86c-0.199,0-0.49,0.105-0.649,0.234L17.518,22.142H0
		v19.224h17.368l15.07,12.451c0.158,0.136,0.45,0.236,0.649,0.236h0.858c0.193,0,0.355-0.188,0.355-0.42L34.264,10z M19.761,38.469
		l-1.042-0.86h-1.351H3.757v-11.71h13.761h1.354l1.043-0.863l10.597-8.776l0.026,31.114L19.761,38.469z"/>
</g>
</svg>
