<?xml version="1.0" encoding="iso-8859-1"?>
<!-- Generator: Adobe Illustrator 13.0.2, SVG Export Plug-In . SVG Version: 6.00 Build 14948)  -->
<!DOCTYPE svg PUBLIC "-//W3C//DTD SVG 1.1//EN" "http://www.w3.org/Graphics/SVG/1.1/DTD/svg11.dtd">
<svg version="1.1" xmlns="http://www.w3.org/2000/svg" xmlns:xlink="http://www.w3.org/1999/xlink" x="0px" y="0px"
	 width="43.698px" height="61.708px" viewBox="0 0 43.698 61.708" style="enable-background:new 0 0 43.698 61.708;"
	 xml:space="preserve">
	<g id="icon-m-camera-whitebalance-tungsten">
		<path style="fill:#343434;" d="M30.195,52.541c0,1.104-0.895,2-2,2H15.501c-1.104,0-2-0.896-2-2c0-1.105,0.896-2,2-2h12.694
			C29.301,50.541,30.195,51.436,30.195,52.541"/>
		<path style="fill:#343434;" d="M30.195,59.708c0,1.105-0.895,2-2,2H15.501c-1.104,0-2-0.895-2-2c0-1.104,0.896-2,2-2h12.694
			C29.301,57.708,30.195,58.604,30.195,59.708"/>
		<path style="fill:#343434;" d="M25.581,47.412h-7.465c-3.815,0-6.918-3.159-6.918-7.047v1.18c0-2.26-1.757-4.336-3.983-6.967
			C3.998,30.783,0,26.072,0,18.543C0,9.625,8.354,0,21.85,0c13.494,0,21.848,9.625,21.848,18.543c0,7.533-3.998,12.242-7.211,16.027
			c-2.235,2.645-3.989,4.721-3.989,6.975v-1.18C32.498,44.253,29.396,47.412,25.581,47.412 M21.85,4.356
			c-10.807,0-17.496,7.362-17.496,14.187c0,5.93,3.141,9.632,6.176,13.21c2.588,3.061,5.021,5.938,5.021,9.792v-1.18
			c0,1.484,1.151,2.693,2.565,2.693h7.465c1.414,0,2.563-1.209,2.563-2.693v1.18c0-3.848,2.43-6.723,5-9.766
			c3.06-3.604,6.199-7.303,6.199-13.236C39.344,11.719,32.655,4.356,21.85,4.356"/>
	</g>
</svg>
