<?xml version="1.0" encoding="iso-8859-1"?>
<!-- Generator: Adobe Illustrator 14.0.0, SVG Export Plug-In . SVG Version: 6.00 Build 43363)  -->
<!DOCTYPE svg PUBLIC "-//W3C//DTD SVG 1.1//EN" "http://www.w3.org/Graphics/SVG/1.1/DTD/svg11.dtd">
<svg version="1.1" id="icon-m-device-system-layer" xmlns="http://www.w3.org/2000/svg" xmlns:xlink="http://www.w3.org/1999/xlink"
	 x="0px" y="0px" width="64px" height="64px" viewBox="0 0 64 64" style="enable-background:new 0 0 64 64;" xml:space="preserve">
<g id="icon-m-device-system">
	<rect style="fill:none;" width="64" height="64"/>
	<path style="fill:#333333;" d="M61.642,12.811c-0.086-0.258-0.336-0.432-0.609-0.426c-15.787,0.311-27.449,16.07-29.828,19.488
		l-7.762-7.967c-0.238-0.244-0.635-0.256-0.885-0.02l-4.688,4.318c-0.125,0.117-0.191,0.273-0.199,0.441
		c-0.004,0.17,0.062,0.324,0.182,0.447l14.059,14.105c0.121,0.121,0.285,0.184,0.451,0.184c0.02,0,0.035,0,0.055-0.002
		c0.182-0.016,0.354-0.111,0.459-0.262c6.805-9.619,13.945-17.025,19.379-22.027c5.438-4.998,9.143-7.57,9.148-7.582
		C61.63,13.355,61.726,13.07,61.642,12.811z"/>
	<path style="fill:#333333;" d="M33.081,51.354l-0.719,0.029c-1.902,0-3.762-0.648-5.26-1.797v4.525h-9.289v-9.277h4.432
		l-4.049-4.062H8.007V5.725h28.902v8.348c1.744-1.416,3.641-2.777,5.678-4.018V6.994c0-3.84-3.316-6.949-7.414-6.949H9.741
		c-4.1,0-7.412,3.109-7.412,6.949v50.02c0,3.805,3.312,6.941,7.412,6.941h25.432c4.098,0,7.414-3.119,7.414-6.941V43.447
		c-1.062,1.375-2.125,2.801-3.18,4.293C37.938,49.822,35.63,51.143,33.081,51.354z"/>
</g>
</svg>
