<?xml version="1.0" encoding="iso-8859-1"?>
<!-- Generator: Adobe Illustrator 14.0.0, SVG Export Plug-In . SVG Version: 6.00 Build 43363)  -->
<!DOCTYPE svg PUBLIC "-//W3C//DTD SVG 1.1//EN" "http://www.w3.org/Graphics/SVG/1.1/DTD/svg11.dtd">
<svg version="1.1" id="icon-m-common-volume-layer" xmlns="http://www.w3.org/2000/svg" xmlns:xlink="http://www.w3.org/1999/xlink"
	 x="0px" y="0px" width="64px" height="64px" viewBox="0 0 64 64" style="enable-background:new 0 0 64 64;" xml:space="preserve">
<g id="icon-m-common-volume">
	<rect style="fill:none;" width="64" height="64"/>
	<path style="fill:#333333;" d="M33.908,9.764h-0.859c-0.2,0-0.491,0.108-0.649,0.238L17.518,22.326H0V41.55h17.367L32.437,54
		c0.158,0.135,0.45,0.236,0.649,0.236h0.859c0.191,0,0.354-0.189,0.354-0.42l-0.037-43.631C34.263,9.953,34.1,9.764,33.908,9.764z"
		/>
	<path style="fill:#333333;" d="M55.174,10.498c-0.711-0.539-1.727-0.385-2.277,0.339c-0.533,0.724-0.377,1.762,0.352,2.307
		c4.623,3.503,7.512,10.417,7.512,18.045c0,7.616-2.889,14.547-7.512,18.044c-0.729,0.541-0.885,1.562-0.352,2.296
		c0.551,0.728,1.566,0.876,2.277,0.341C60.615,47.744,64,39.826,64,31.188C64,22.539,60.615,14.623,55.174,10.498z"/>
	<path style="fill:#333333;" d="M50.508,22.323c0,0-0.039-0.116-0.068-0.175c-0.341-0.807-1.154-2.28-1.154-2.28
		c-0.873-1.514-1.764-2.675-3.094-3.925c-0.472-0.457-0.998-0.852-1.507-1.242c-0.111-0.084-0.233-0.145-0.358-0.193
		c-0.698-0.377-1.587-0.189-2.09,0.49c-0.437,0.598-0.415,1.404-0.004,1.994c0.111,0.201,0.332,0.414,0.456,0.528
		c0.763,0.704,1.581,1.389,2.283,2.231c0.259,0.318,0.509,0.646,0.753,0.992c1.816,2.806,2.909,6.557,2.909,10.574
		c0,3.971-1.034,7.688-2.82,10.495c-0.916,1.265-1.96,2.292-3.092,3.253c-0.71,0.604-0.9,1.635-0.356,2.383
		c0.557,0.751,1.576,0.943,2.352,0.438c0.537-0.354,1.036-0.703,1.508-1.159c1.477-1.243,2.644-3.082,3.634-4.965h-0.024
		c1.534-2.999,2.404-6.629,2.404-10.444C52.238,28.099,51.618,25.011,50.508,22.323z"/>
</g>
</svg>
