<?xml version="1.0" encoding="iso-8859-1"?>
<!-- Generator: Adobe Illustrator 14.0.0, SVG Export Plug-In . SVG Version: 6.00 Build 43363)  -->
<!DOCTYPE svg PUBLIC "-//W3C//DTD SVG 1.1//EN" "http://www.w3.org/Graphics/SVG/1.1/DTD/svg11.dtd">
<svg version="1.1" id="icon-m-content-backup-layer"
	 xmlns="http://www.w3.org/2000/svg" xmlns:xlink="http://www.w3.org/1999/xlink" x="0px" y="0px" width="64px" height="64px"
	 viewBox="0 0 64 64" style="enable-background:new 0 0 64 64;" xml:space="preserve">
<g id="icon-m-content-backup">
	<rect style="fill:none;" width="64" height="64"/>
	<rect x="50" y="39" style="fill:#333333;" width="5" height="9"/>
	<rect x="50" y="17.108" style="fill:#333333;" width="5" height="9"/>
	<path style="fill:#333333;" d="M62,0H2C0.9,0,0,0.898,0,2v60c0,1.1,0.9,2,2,2h60c1.1,0,2-0.9,2-2V2C64,0.898,63.1,0,62,0z M59,59H5
		V5h54V59z"/>
	<path style="fill:#333333;" d="M47,16.26V14h2.831H53V8H8v48h44.271v-4.477h-2.44H47v-3.149v-9.677v-3.148h2.831H52v-6.463h-2.169
		H47v-3.15V16.26z M33.211,19.524l-2.589,3.924c-3.227-1.323-6.965-0.523-9.374,2.015l-3.925-2.59
		C21.206,18.226,27.792,16.848,33.211,19.524z M15.676,25.368l3.925,2.59c-1.385,3.211-0.65,6.964,1.837,9.41l-2.59,3.927
		C14.255,37.366,12.931,30.768,15.676,25.368z M21.318,42.979l2.59-3.927c3.304,1.496,7.207,0.718,9.682-1.919l3.926,2.59
		C33.571,44.479,26.801,45.848,21.318,42.979z M39.113,37.303l-3.926-2.59c1.451-3.315,0.629-7.209-2.045-9.656l2.589-3.925
		C40.526,25.043,41.932,31.805,39.113,37.303z"/>
</g>
</svg>
