<?xml version="1.0" encoding="iso-8859-1"?>
<!-- Generator: Adobe Illustrator 14.0.0, SVG Export Plug-In . SVG Version: 6.00 Build 43363)  -->
<!DOCTYPE svg PUBLIC "-//W3C//DTD SVG 1.1//EN" "http://www.w3.org/Graphics/SVG/1.1/DTD/svg11.dtd">
<svg version="1.1" id="icon-m-toolbar-edit-layer" xmlns="http://www.w3.org/2000/svg" xmlns:xlink="http://www.w3.org/1999/xlink"
	 x="0px" y="0px" width="64px" height="64px" viewBox="0 0 64 64" style="enable-background:new 0 0 64 64;" xml:space="preserve">
<g id="icon-m-toolbar-edit">
	<rect style="fill:none;" width="64" height="64"/>
	<path style="fill:#FFFFFF;" d="M51.59,21.715l-9.31-9.33c-0.513-0.513-1.352-0.513-1.863,0L18.202,34.634
		c-0.513,0.515-1.121,1.497-1.349,2.185l-4.759,14.28c-0.229,0.688,0.146,1.063,0.833,0.835l14.262-4.759
		c0.687-0.229,1.669-0.838,2.181-1.351l22.218-22.242C52.102,23.068,52.102,22.228,51.59,21.715z M26.716,43.962l-5.692,1.901
		l-2.864-2.865l1.901-5.701l2.521-2.527l6.603,6.723L26.716,43.962z"/>
</g>
</svg>
