<?xml version="1.0" encoding="iso-8859-1"?>
<!-- Generator: Adobe Illustrator 14.0.0, SVG Export Plug-In . SVG Version: 6.00 Build 43363)  -->
<!DOCTYPE svg PUBLIC "-//W3C//DTD SVG 1.1//EN" "http://www.w3.org/Graphics/SVG/1.1/DTD/svg11.dtd">
<svg version="1.1" id="icon-m-camera-sound-recording-off-layer"
	 xmlns="http://www.w3.org/2000/svg" xmlns:xlink="http://www.w3.org/1999/xlink" x="0px" y="0px" width="64px" height="64px"
	 viewBox="0 0 64 64" style="enable-background:new 0 0 64 64;" xml:space="preserve">
<g id="icon-m-camera-sound-recording-off">
	<rect style="fill:none;" width="64" height="64"/>
	<path style="fill:#333333;" d="M22.016,22.61l15.761,15.759L53.273,22.87c0.969-0.964,0.969-2.536,0-3.503L41.023,7.105
		c-0.967-0.959-2.541-0.959-3.509,0.002L22.016,22.61z M30.173,18.811l3.001-2.998l11.4,11.399l-2.998,2.996L30.173,18.811z
		 M30.339,37.303l-7.253-7.254L7.909,46.881l5.596,5.596L30.339,37.303z M9.204,54.577l-3.405-3.408l-4.413,4.429L4.789,59
		L9.204,54.577z"/>
	<path style="fill:#333333;" d="M51.603,37.793C45.747,37.793,41,42.541,41,48.396S45.747,59,51.603,59
		c5.856,0,10.604-4.748,10.604-10.604S57.459,37.793,51.603,37.793z M51.603,55.396c-3.867,0-7-3.133-7-7c0-3.865,3.133-7,7-7
		c3.868,0,7,3.135,7,7C58.603,52.264,55.471,55.396,51.603,55.396z"/>
</g>
</svg>
