<?xml version="1.0" encoding="iso-8859-1"?>
<!-- Generator: Adobe Illustrator 14.0.0, SVG Export Plug-In . SVG Version: 6.00 Build 43363)  -->
<!DOCTYPE svg PUBLIC "-//W3C//DTD SVG 1.1//EN" "http://www.w3.org/Graphics/SVG/1.1/DTD/svg11.dtd">
<svg version="1.1" id="icon-m-telephony-call-combine-layer"
	 xmlns="http://www.w3.org/2000/svg" xmlns:xlink="http://www.w3.org/1999/xlink" x="0px" y="0px" width="64px" height="64px"
	 viewBox="0 0 64 64" style="enable-background:new 0 0 64 64;" xml:space="preserve">
<g id="icon-m-telephony-call-combine">
	<rect style="fill:none;" width="64" height="64"/>
	<path style="fill:#333333;" d="M10.787,19.199c3.402,0,6.16,2.787,6.16,6.226c0,3.434-2.76,6.222-6.16,6.222
		c-3.406,0-6.165-2.788-6.165-6.222C4.621,21.984,7.379,19.199,10.787,19.199"/>
	<path style="fill:#333333;" d="M21.561,51.117c-1.229,4.252-20.428,3.951-21.553,0v-6.219c0-12.188,21.287-12.527,21.553,0V51.117z
		"/>
	<path style="fill:#333333;" d="M53.213,19.199c3.404,0,6.164,2.787,6.164,6.226c0,3.434-2.764,6.222-6.164,6.222
		c-3.404,0-6.162-2.788-6.162-6.222C47.051,21.984,49.809,19.199,53.213,19.199"/>
	<path style="fill:#333333;" d="M63.992,51.117c-1.188,4.305-20.846,3.857-21.551,0v-6.219c0.639-12.934,21.551-11.896,21.551,0
		V51.117z"/>
	<path style="fill:#333333;" d="M32.002,9.807c3.408,0,6.17,2.783,6.17,6.225c0,3.434-2.762,6.225-6.17,6.225
		c-3.406,0-6.168-2.791-6.168-6.225C25.833,12.59,28.596,9.807,32.002,9.807z"/>
	<path style="fill:#333333;" d="M22.115,31.67c3.955,2.592,6.123,5.654,5.627,12.828c3.102,0.56,6.797,0.258,8.514,0.02
		c-0.545-7.387,2.348-10.773,5.627-12.848C37.783,24.244,26.145,24.563,22.115,31.67z"/>
</g>
</svg>
