<?xml version="1.0" encoding="iso-8859-1"?>
<!-- Generator: Adobe Illustrator 14.0.0, SVG Export Plug-In . SVG Version: 6.00 Build 43363)  -->
<!DOCTYPE svg PUBLIC "-//W3C//DTD SVG 1.1//EN" "http://www.w3.org/Graphics/SVG/1.1/DTD/svg11.dtd">
<svg version="1.1" id="icon-m-energy-management-remove-charger-layer"
	 xmlns="http://www.w3.org/2000/svg" xmlns:xlink="http://www.w3.org/1999/xlink" x="0px" y="0px" width="64px" height="64px"
	 viewBox="0 0 64 64" style="enable-background:new 0 0 64 64;" xml:space="preserve">
<g id="icon-m-energy-management-remove-charger">
	<rect style="fill:none;" width="64" height="64"/>
	<path style="fill:#333333;" d="M46.003,28C36.06,28,28,36.067,28,46.012C28,55.94,36.06,64,46.003,64C55.936,64,64,55.94,64,46.012
		C64,36.067,55.936,28,46.003,28z M57.742,38.594v0.002l-0.002,0.002c-0.004,0.002-0.006,0.004-0.01,0.006v-0.002l-0.006,0.004
		c-0.004,0.006-0.01,0.008-0.018,0.016c-0.016,0.012-0.037,0.025-0.066,0.049c-0.059,0.041-0.146,0.106-0.261,0.188
		c-0.229,0.171-0.563,0.423-0.987,0.758c-0.848,0.673-2.055,1.673-3.492,2.999c-2.875,2.65-6.656,6.577-10.254,11.676
		c-0.11,0.154-0.282,0.256-0.482,0.27l-0.025,0.002l-0.02-0.313v0.313c-0.169,0-0.334-0.064-0.459-0.189l-7.473-7.508
		c-0.113-0.115-0.182-0.273-0.188-0.438c0,0-0.002-0.02,0.004-0.05c-0.004-0.011,0-0.026,0.004-0.044
		c0.02-0.147,0.084-0.287,0.2-0.393l2.487-2.297c0.125-0.118,0.285-0.176,0.443-0.176c0.168-0.002,0.338,0.066,0.465,0.197
		l3.865,3.971c4.956-6.902,12.526-10.116,15.828-10.195c0.006,0,0.01-0.002,0.057-0.004c0.277,0,0.526,0.176,0.615,0.441
		c0.025,0.068,0.033,0.137,0.031,0.201C58,38.283,57.904,38.472,57.742,38.594z"/>
	<path style="fill:#333333;" d="M25.281,58.127H6.116c-1.005,0-1.827-0.819-1.827-1.828V14.131c0-1.008,0.822-1.832,1.827-1.832
		h23.771c1.009,0,1.829,0.824,1.829,1.832v12.597c1.33-0.988,2.765-1.837,4.285-2.537V8.721c0-1.008-0.824-1.827-1.828-1.827h-9.804
		V4.152c0-1.009-0.825-1.827-1.827-1.827h-9.082c-1.007,0-1.829,0.818-1.829,1.827v2.741H1.828C0.823,6.894,0,7.713,0,8.721v51.125
		c0,1.008,0.823,1.831,1.828,1.831h26.021C26.889,60.564,26.028,59.402,25.281,58.127z"/>
	<path style="fill:#333333;" d="M22,45.586c0-6.32,2.459-12.072,6.465-16.363V16.299H7.736v38h15.951
		C22.603,51.566,22,48.699,22,45.586z"/>
</g>
</svg>
