<?xml version="1.0" encoding="iso-8859-1"?>
<!-- Generator: Adobe Illustrator 14.0.0, SVG Export Plug-In . SVG Version: 6.00 Build 43363)  -->
<!DOCTYPE svg PUBLIC "-//W3C//DTD SVG 1.1//EN" "http://www.w3.org/Graphics/SVG/1.1/DTD/svg11.dtd">
<svg version="1.1" id="icon-m-content-videostream-layer"
	 xmlns="http://www.w3.org/2000/svg" xmlns:xlink="http://www.w3.org/1999/xlink" x="0px" y="0px" width="64px" height="64px"
	 viewBox="0 0 64 64" style="enable-background:new 0 0 64 64;" xml:space="preserve">
<g id="icon-m-content-videostream">
	<rect style="fill:none;" width="64" height="64"/>
	<path style="fill:#333333;" d="M48.512,7.96h1.859V5.203h-37v2.724V7.96h1.876c0.379,0,0.69,0.308,0.69,0.689v2.729
		c0,0.38-0.311,1.308-0.69,1.308h-1.876v0.032v1.712v0.022h8.094v13.875h-8.094v0.021v2.291v0.031h1.876
		c0.379,0,0.69,0.313,0.69,0.691v2.729c0,0.382-0.311,0.69-0.69,0.69h-1.876v0.032V37h37v-2.217h-1.859
		c-0.381,0-0.691-0.309-0.691-0.69v-2.759c0-0.384,0.311-0.693,0.691-0.693h1.859v-2.313h-1.734V14.453h1.734v-1.734h-1.859
		c-0.381,0-0.691-0.928-0.691-1.31v-2.76C47.82,8.268,48.131,7.96,48.512,7.96z M38.842,8.649c0-0.382,0.313-0.689,0.691-0.689
		h2.762c0.38,0,0.691,0.308,0.691,0.689v2.76c0,0.382-0.312,1.31-0.691,1.31h-2.762c-0.379,0-0.691-0.928-0.691-1.31V8.649z
		 M29.835,8.649c0-0.382,0.313-0.689,0.691-0.689h2.763c0.38,0,0.689,0.308,0.689,0.689v2.76c0,0.382-0.31,1.31-0.689,1.31h-2.763
		c-0.379,0-0.691-0.928-0.691-1.31V8.649z M24.945,34.093c0,0.382-0.312,0.69-0.692,0.69h-2.762c-0.38,0-0.69-0.309-0.69-0.69
		v-2.729c0-0.379,0.31-0.691,0.69-0.691h2.762c0.38,0,0.692,0.313,0.692,0.691V34.093z M24.945,11.379
		c0,0.38-0.312,1.308-0.692,1.308h-2.762c-0.38,0-0.69-0.928-0.69-1.308V8.649c0-0.382,0.31-0.689,0.69-0.689h2.762
		c0.38,0,0.692,0.308,0.692,0.689V11.379z M33.979,34.093c0,0.382-0.31,0.69-0.689,0.69h-2.763c-0.379,0-0.691-0.309-0.691-0.69
		v-2.759c0-0.384,0.313-0.693,0.691-0.693h2.763c0.38,0,0.689,0.31,0.689,0.693V34.093z M42.986,34.093
		c0,0.382-0.312,0.69-0.691,0.69h-2.762c-0.379,0-0.691-0.309-0.691-0.69v-2.759c0-0.384,0.313-0.693,0.691-0.693h2.762
		c0.38,0,0.691,0.31,0.691,0.693V34.093z M44.59,28.328L24.945,28.35v-0.021h-0.011V14.453h0.011v-0.022H44.59V28.328z"/>
	<circle style="fill:#333333;" cx="31.977" cy="55.133" r="8.858"/>
	<circle style="fill:#333333;" cx="14.878" cy="55.133" r="5.489"/>
	<circle style="fill:#333333;" cx="3.493" cy="55.133" r="3.493"/>
	<circle style="fill:#333333;" cx="49.077" cy="55.133" r="5.489"/>
	<circle style="fill:#333333;" cx="60.507" cy="55.133" r="3.493"/>
</g>
</svg>
