<?xml version="1.0" encoding="iso-8859-1"?>
<!-- Generator: Adobe Illustrator 14.0.0, SVG Export Plug-In . SVG Version: 6.00 Build 43363)  -->
<!DOCTYPE svg PUBLIC "-//W3C//DTD SVG 1.1//EN" "http://www.w3.org/Graphics/SVG/1.1/DTD/svg11.dtd">
<svg version="1.1" id="icon-m-common-keyboard-layer"
	 xmlns="http://www.w3.org/2000/svg" xmlns:xlink="http://www.w3.org/1999/xlink" x="0px" y="0px" width="28px" height="28px"
	 viewBox="0 0 28 28" style="enable-background:new 0 0 28 28;" xml:space="preserve">
<g id="icon-m-common-keyboard">
	<rect style="fill:none;" width="28" height="28"/>
	<path style="fill:#FFFFFF;" d="M25.45,5.006H2.548c-1.352,0-2.452,1.104-2.452,2.461v13.069c0,1.357,1.101,2.459,2.451,2.459H25.45
		c1.354,0,2.45-1.102,2.455-2.459V7.467C27.905,6.11,26.807,5.006,25.45,5.006z M5.621,10.536H2.363V7.278h3.258V10.536z
		 M10.625,10.536H7.367V7.278h3.258V10.536z M15.629,10.536H12.37V7.278h3.259V10.536z M20.633,10.536h-3.259V7.278h3.259V10.536z
		 M25.636,10.536h-3.259V7.278h3.259V10.536z M5.621,20.536H2.363v-3.258h3.258V20.536z M20.555,20.536H7.38v-3.258h13.175V20.536z
		 M25.636,20.536h-3.259v-3.258h3.259V20.536z M8.444,15.604H5.187v-3.258h3.258V15.604z M13.448,15.604H10.19v-3.258h3.258V15.604z
		 M18.452,15.604h-3.259v-3.258h3.259V15.604z M23.456,15.604h-3.259v-3.258h3.259V15.604z"/>
</g>
</svg>
