<?xml version="1.0" encoding="iso-8859-1"?>
<!-- Generator: Adobe Illustrator 13.0.2, SVG Export Plug-In . SVG Version: 6.00 Build 14948)  -->
<!DOCTYPE svg PUBLIC "-//W3C//DTD SVG 1.1//EN" "http://www.w3.org/Graphics/SVG/1.1/DTD/svg11.dtd">
<svg version="1.1" xmlns="http://www.w3.org/2000/svg" xmlns:xlink="http://www.w3.org/1999/xlink" x="0px" y="0px" width="64px"
	 height="64px" viewBox="0 0 64 64" style="enable-background:new 0 0 64 64;" xml:space="preserve">
	<g id="icon-m-music-video-shuffle-on">
		<rect style="fill:none;" width="64" height="64"/>
		<path style="fill:#333333;" d="M19.01,26.305h0.004l0.311,0.4l6.391-8.225l-1.334-1.718c-0.182-0.271-0.385-0.524-0.599-0.77
			l-0.154-0.198l-0.015,0.012c-1.378-1.486-3.32-2.438-5.49-2.515v-0.015H0v10.092h13.104C15.494,23.436,17.613,24.563,19.01,26.305
			z"/>
		<path style="fill:#333333;" d="M53.188,40.053h-7.297c-2.226-0.124-4.193-1.168-5.547-2.764l-6.396,8.232l1.271,1.636v0.036h0.012
			c1.439,1.795,3.645,2.948,6.125,2.948c0.039,0,0.078-0.004,0.116-0.005v0.006h11.716v5.73L64,45.137L53.188,34.398V40.053z"/>
		<path style="fill:#333333;" d="M45.891,23.949h7.297v5.654L64,18.865L53.188,8.128v5.73H41.472v0.006
			c-0.038-0.001-0.077-0.005-0.116-0.005c-2.48,0-4.686,1.153-6.125,2.948h-0.012v0.036L19.014,37.697H19.01
			c-1.397,1.741-3.516,2.868-5.907,2.935H0v10.092h18.124v-0.015c2.169-0.077,4.111-1.027,5.49-2.516l0.015,0.013l0.154-0.198
			c0.213-0.245,0.417-0.499,0.599-0.77l15.871-20.425C41.606,25.158,43.617,24.074,45.891,23.949z"/>
	</g>
</svg>
