<?xml version="1.0" encoding="iso-8859-1"?>
<!-- Generator: Adobe Illustrator 14.0.0, SVG Export Plug-In . SVG Version: 6.00 Build 43363)  -->
<!DOCTYPE svg PUBLIC "-//W3C//DTD SVG 1.1//EN" "http://www.w3.org/Graphics/SVG/1.1/DTD/svg11.dtd">
<svg version="1.1" id="icon-l-help-layer" xmlns="http://www.w3.org/2000/svg" xmlns:xlink="http://www.w3.org/1999/xlink" x="0px"
	 y="0px" width="48px" height="48px" viewBox="0 0 48 48" style="enable-background:new 0 0 48 48;" xml:space="preserve">
<g id="icon-l-help">
	<rect style="fill:none;" width="48" height="48"/>
	<g>
		<path style="opacity:0.2;fill:#010101;" d="M24,1.002c-12.979,0-23.498,10.518-23.5,23.5C0.503,37.482,11.021,47.997,24,48
			c12.976-0.003,23.496-10.518,23.5-23.498C47.496,11.52,36.977,1.002,24,1.002z"/>
		<path style="opacity:0.5;fill:#010101;" d="M46.055,24.502c0,12.183-9.875,22.051-22.054,22.051
			c-12.178,0-22.054-9.868-22.054-22.051C1.947,12.321,11.822,2.449,24,2.449C36.18,2.449,46.055,12.321,46.055,24.502z"/>
		<linearGradient id="SVGID_1_" gradientUnits="userSpaceOnUse" x1="24.0005" y1="0.6411" x2="24.0005" y2="88.477">
			<stop  offset="0" style="stop-color:#FFFFFF"/>
			<stop  offset="1" style="stop-color:#B3B2C9"/>
		</linearGradient>
		<path style="fill:url(#SVGID_1_);" d="M46.055,23.053c0,12.185-9.875,22.056-22.054,22.056c-12.178,0-22.054-9.871-22.054-22.056
			C1.947,10.876,11.822,1.002,24,1.002C36.18,1.002,46.055,10.876,46.055,23.053z"/>
		<linearGradient id="SVGID_2_" gradientUnits="userSpaceOnUse" x1="23.3726" y1="41.3701" x2="23.3726" y2="29.5599">
			<stop  offset="0" style="stop-color:#FFFFFF"/>
			<stop  offset="1" style="stop-color:#B3B2C9"/>
		</linearGradient>
		<path style="fill:url(#SVGID_2_);" d="M27.881,36.172c0,2.487-2.019,4.504-4.509,4.504c-2.489,0-4.507-2.017-4.507-4.504
			c0-2.493,2.019-4.509,4.507-4.509C25.862,31.663,27.881,33.679,27.881,36.172z"/>
		<linearGradient id="SVGID_3_" gradientUnits="userSpaceOnUse" x1="23.3735" y1="11.061" x2="23.3735" y2="99.6407">
			<stop  offset="0" style="stop-color:#517EBF"/>
			<stop  offset="1" style="stop-color:#283176"/>
		</linearGradient>
		<path style="fill:url(#SVGID_3_);" d="M26.641,36.172c0,1.802-1.464,3.268-3.269,3.268c-1.803,0-3.265-1.466-3.265-3.268
			c0-1.805,1.462-3.269,3.265-3.269C25.177,32.903,26.641,34.367,26.641,36.172z"/>
		<linearGradient id="SVGID_4_" gradientUnits="userSpaceOnUse" x1="25.3955" y1="11.0625" x2="25.3955" y2="99.6463">
			<stop  offset="0" style="stop-color:#517EBF"/>
			<stop  offset="1" style="stop-color:#283176"/>
		</linearGradient>
		<path style="fill:url(#SVGID_4_);" d="M17.391,12.46V8.904c2.389-0.644,4.518-0.972,6.389-0.972c3.119,0,5.501,0.629,7.151,1.88
			c1.651,1.26,2.47,3.113,2.47,5.566c0,1.031-0.237,2.095-0.715,3.18c-0.475,1.081-1.607,2.521-3.403,4.311
			c-1.305,1.296-2.183,2.267-2.626,2.904c-0.438,0.64-0.661,1.381-0.661,2.224v1.882h-5.254v-2.172c0-1.391,0.31-2.599,0.935-3.623
			c0.616-1.018,1.577-2.139,2.869-3.369c1.371-1.325,2.213-2.328,2.537-3.018c0.328-0.691,0.484-1.367,0.484-2.025
			c0-1.382-0.391-2.415-1.178-3.104c-0.789-0.691-1.968-1.035-3.538-1.035C21.318,11.533,19.5,11.84,17.391,12.46"/>
		<linearGradient id="SVGID_5_" gradientUnits="userSpaceOnUse" x1="25.3916" y1="42.5762" x2="25.3916" y2="-16.3561">
			<stop  offset="0" style="stop-color:#FFFFFF"/>
			<stop  offset="1" style="stop-color:#B3B2C9"/>
		</linearGradient>
		<path style="fill:url(#SVGID_5_);" d="M32.582,9.648c-0.274-0.294-0.569-0.574-0.9-0.825c-1.964-1.485-4.626-2.21-7.902-2.138
			c-3.515,0.074-7.631,1.266-7.631,1.266l-0.004,5.98v0.132c0,0,4.166-1.327,6.706-1.293c1.401,0.022,2.258,0.318,2.721,0.728
			c0.068,0.063,0.122,0.136,0.183,0.208c0.342,0.399,0.56,0.972,0.572,1.966c-0.004,0.456-0.112,0.948-0.363,1.489
			c-0.17,0.394-0.957,1.394-2.283,2.663c-1.333,1.27-2.365,2.458-3.066,3.613c-0.753,1.237-1.115,2.693-1.113,4.27v3.405v0.006
			h7.736v-3.123c0.003-0.623,0.151-1.087,0.443-1.519c0.34-0.5,1.195-1.46,2.478-2.729c1.849-1.856,3.056-3.335,3.664-4.692
			c0.536-1.218,0.822-2.456,0.818-3.679C34.66,13.113,33.963,11.116,32.582,9.648z M32.686,18.559
			c-0.475,1.081-1.607,2.521-3.403,4.311c-1.305,1.296-2.183,2.267-2.626,2.904c-0.438,0.64-0.661,1.381-0.661,2.224v1.882h-5.22
			h-0.034v-2.172c0-1.391,0.31-2.599,0.935-3.623c0.616-1.018,1.577-2.139,2.869-3.369c1.371-1.325,2.213-2.328,2.537-3.018
			c0.328-0.691,0.484-1.367,0.484-2.025c0-1.225-0.325-2.159-0.941-2.838c-0.08-0.09-0.146-0.188-0.236-0.266
			c-0.789-0.691-1.968-1.035-3.538-1.035c-1.525,0-3.33,0.303-5.426,0.92c-0.011,0.001-0.021,0.004-0.034,0.007V8.904
			c2.389-0.644,4.518-0.972,6.389-0.972c3.119,0,5.501,0.629,7.151,1.88c0.286,0.221,0.516,0.48,0.753,0.736
			c1.125,1.21,1.717,2.803,1.717,4.83C33.4,16.41,33.163,17.474,32.686,18.559z"/>
		<polygon style="opacity:0.4;fill:#FFFFFF;" points="25.995,29.879 20.775,29.879 20.741,29.879 19.5,31.118 27.234,31.118 		"/>
		<path style="opacity:0.15;" d="M16.145,14.063c0,0,0.018-0.006,0.031-0.011l1.215-1.593V8.904l-1.242-0.953l-0.004,5.98V14.063z"
			/>
	</g>
</g>
</svg>
