<?xml version="1.0" encoding="iso-8859-1"?>
<!-- Generator: Adobe Illustrator 14.0.0, SVG Export Plug-In . SVG Version: 6.00 Build 43363)  -->
<!DOCTYPE svg PUBLIC "-//W3C//DTD SVG 1.1//EN" "http://www.w3.org/Graphics/SVG/1.1/DTD/svg11.dtd">
<svg version="1.1" id="icon-s-status-email-layer" xmlns="http://www.w3.org/2000/svg" xmlns:xlink="http://www.w3.org/1999/xlink"
	 x="0px" y="0px" width="18px" height="18px" viewBox="0 0 18 18" style="enable-background:new 0 0 18 18;" xml:space="preserve">
<g id="icon-s-status-email">
	<rect style="fill:none;" width="18" height="18"/>
	<path style="fill:#FFFFFF;" d="M10.313,4.006c-1.809,0-3.249,0.543-4.332,1.617C4.904,6.701,4.359,8.18,4.359,10.08
		c0,1.214,0.317,2.168,0.934,2.883c0.622,0.707,1.381,1.062,2.274,1.062c1.335,0,2.388-0.683,3.165-2.033
		c0.18,0.637,0.525,1.14,1.014,1.491c0.487,0.367,1.059,0.542,1.713,0.542c1.408,0,2.525-0.489,3.33-1.458
		C17.602,11.604,18,10.238,18,8.463c0-2.65-0.746-4.727-2.242-6.221C14.262,0.746,12.161,0,9.453,0C7.684,0,6.063,0.355,4.6,1.078
		C3.135,1.797,2,2.827,1.203,4.168C0.399,5.515,0,7.096,0,8.92c0,2.922,0.857,5.162,2.575,6.729C4.289,17.217,6.604,18,9.52,18
		c0.724,0,1.551-0.08,2.5-0.228c0.937-0.151,1.71-0.338,2.291-0.55v-1.85c-1.604,0.535-3.145,0.8-4.607,0.8
		c-2.475,0-4.326-0.612-5.566-1.845c-1.24-1.223-1.855-3.064-1.855-5.515c0-2.19,0.671-3.909,2.021-5.145
		c1.34-1.243,3.07-1.864,5.199-1.864c2.025,0,3.595,0.59,4.704,1.771c1.108,1.186,1.659,2.841,1.659,4.981
		c0,1.214-0.162,2.156-0.499,2.822c-0.343,0.676-0.802,1.006-1.388,1.006c-0.455,0-0.777-0.135-0.969-0.394
		c-0.188-0.265-0.285-0.816-0.285-1.661c0-1.387,0.257-3.492,0.775-6.324H10.313z M10.248,8.791c-0.296,2.384-0.924,3.57-1.887,3.57
		c-0.514,0-0.879-0.189-1.086-0.58c-0.212-0.395-0.314-0.994-0.314-1.81c0-1.315,0.287-2.355,0.852-3.13
		C8.389,6.063,9.078,5.68,9.874,5.68h0.772L10.248,8.791z"/>
</g>
</svg>
