<?xml version="1.0" encoding="iso-8859-1"?>
<!-- Generator: Adobe Illustrator 14.0.0, SVG Export Plug-In . SVG Version: 6.00 Build 43363)  -->
<!DOCTYPE svg PUBLIC "-//W3C//DTD SVG 1.1//EN" "http://www.w3.org/Graphics/SVG/1.1/DTD/svg11.dtd">
<svg version="1.1" id="icon-m-telephony-ongoing-muted-layer"
	 xmlns="http://www.w3.org/2000/svg" xmlns:xlink="http://www.w3.org/1999/xlink" x="0px" y="0px" width="32px" height="32px"
	 viewBox="0 0 32 32" style="enable-background:new 0 0 32 32;" xml:space="preserve">
<g id="icon-m-telephony-ongoing-muted">
	<rect style="fill:none;" width="32" height="32"/>
	<path style="fill:#FFFFFF;" d="M19.492,8.793l-9.036-8.295c-0.258-0.236-0.681-0.236-0.938,0L0.482,8.793
		C0.224,9.028,0.276,9.22,0.625,9.22h2.18v8.413h4.05v-5.92c-0.005-0.569,0.623-0.623,0.623-0.623H9.66c0,0,0.623,0,0.623,0.623
		v5.92h6.854V9.22h2.182C19.666,9.22,19.75,9.028,19.492,8.793z"/>
	<path style="fill:#FFFFFF;" d="M16.371,25.18c-0.238,0.416-0.44,0.82-0.588,1.21c-0.634,1.659,0.661,4.282,1.684,5.095
		c0,0.005,0.527,0.442,0.921-0.006l1.824-2.456L16.371,25.18z"/>
	
		<rect x="19.44" y="17.818" transform="matrix(0.7076 -0.7066 0.7066 0.7076 -11.6234 21.3293)" style="fill:#FFFFFF;" width="1.039" height="13.781"/>
	<path style="fill:#FFFFFF;" d="M31.483,17.488c-0.819-1.011-3.501-2.424-5.115-1.666c-1.647,0.773-4.165,2.681-6.368,4.864
		l1.76,1.762c1.168-1.179,2.471-2.427,2.806-2.638c0.88-0.552,2.257,1.35,2.257,1.35c0.381,0.377,0.693,0.191,0.935,0.006
		l3.722-2.755C31.928,18.014,31.486,17.488,31.483,17.488z"/>
</g>
</svg>
