<?xml version="1.0" encoding="iso-8859-1"?>
<!-- Generator: Adobe Illustrator 14.0.0, SVG Export Plug-In . SVG Version: 6.00 Build 43363)  -->
<!DOCTYPE svg PUBLIC "-//W3C//DTD SVG 1.1//EN" "http://www.w3.org/Graphics/SVG/1.1/DTD/svg11.dtd">
<svg version="1.1" id="icon-m-image-edit-straighten-layer"
	 xmlns="http://www.w3.org/2000/svg" xmlns:xlink="http://www.w3.org/1999/xlink" x="0px" y="0px" width="64px" height="64px"
	 viewBox="0 0 64 64" style="enable-background:new 0 0 64 64;" xml:space="preserve">
<g id="icon-m-image-edit-straighten">
	<rect style="fill:none;" width="64" height="64"/>
	<path style="fill:#333333;" d="M23.256,61.625v-3h5.55v3H23.256L23.256,61.625z M34.672,61.625v-3h5.865v3H34.672L34.672,61.625z
		 M46.402,61.625v-3h5.866v3H46.402L46.402,61.625z M58.135,61.625v-3H64v3H58.135L58.135,61.625z"/>
	<path style="fill:#333333;" d="M0,61.625v-3h5.865v3H0L0,61.625z M11.731,61.625v-3h5.866v3H11.731L11.731,61.625z"/>
	<polygon style="fill:#333333;" points="33.426,45.625 4,45.625 4,23.673 8.869,23.673 10.873,19.673 0,19.673 0,49.625 39,49.625 
		39,48.418 	"/>
	<path style="fill:#333333;" d="M25.133,2.375L11.715,29.153l34.867,17.472L60,19.847L25.133,2.375z M26.917,7.743l27.715,13.888
		l-9.835,19.626L17.082,27.369L26.917,7.743z"/>
</g>
</svg>
