<?xml version="1.0" encoding="iso-8859-1"?>
<!-- Generator: Adobe Illustrator 14.0.0, SVG Export Plug-In . SVG Version: 6.00 Build 43363)  -->
<!DOCTYPE svg PUBLIC "-//W3C//DTD SVG 1.1//EN" "http://www.w3.org/Graphics/SVG/1.1/DTD/svg11.dtd">
<svg version="1.1" id="icon-s-voicemail-layer" xmlns="http://www.w3.org/2000/svg" xmlns:xlink="http://www.w3.org/1999/xlink"
	 x="0px" y="0px" width="33px" height="13px" viewBox="0 0 33 13" style="enable-background:new 0 0 33 13;" xml:space="preserve">
<g id="icon-s-voicemail">
	<rect style="fill:none;" width="33" height="13"/>
	<path style="fill:#333333;" d="M32.33,8.727C31.339,11.284,28.896,13,26.252,13H6.731c-2.98-0.004-5.504-1.99-6.282-4.948
		c-0.757-2.878,0.46-5.702,3.1-7.2c3.149-1.788,7.018-0.65,8.768,2.39c0.907,1.572,1.111,3.382,0.616,5.06h7.1
		c-0.502-1.631-0.33-3.326,0.529-4.816c1.202-2.092,3.515-3.441,5.892-3.441c1.529,0,2.949,0.559,4.105,1.615
		C32.646,3.563,33.307,6.207,32.33,8.727z"/>
</g>
</svg>
