<?xml version="1.0" encoding="iso-8859-1"?>
<!-- Generator: Adobe Illustrator 14.0.0, SVG Export Plug-In . SVG Version: 6.00 Build 43363)  -->
<!DOCTYPE svg PUBLIC "-//W3C//DTD SVG 1.1//EN" "http://www.w3.org/Graphics/SVG/1.1/DTD/svg11.dtd">
<svg version="1.1" id="icon-m-organizer-maps-layer"
	 xmlns="http://www.w3.org/2000/svg" xmlns:xlink="http://www.w3.org/1999/xlink" x="0px" y="0px" width="64px" height="64px"
	 viewBox="0 0 64 64" style="enable-background:new 0 0 64 64;" xml:space="preserve">
<g id="icon-m-organizer-maps">
	<rect style="fill:none;" width="64" height="64"/>
	<path style="fill:#333333;" d="M32.006,0C14.333,0,0,14.328,0,31.996C0,49.672,14.333,64,32.006,64C49.672,64,64,49.672,64,31.996
		C64,14.328,49.672,0,32.006,0z M32.009,57.746c-14.227-0.027-25.725-11.529-25.75-25.75C6.282,17.775,17.784,6.277,32.006,6.252
		C46.22,6.277,57.722,17.775,57.748,31.996C57.722,46.219,46.22,57.719,32.009,57.746z"/>
	<polygon style="fill:#333333;" points="52.918,31.963 34.522,29.439 33.697,29.439 33.638,29.39 13.407,21.627 23.698,30.232 
		11.081,31.963 28.639,34.364 29.573,35.146 32.006,52.881 34.162,37.113 50.261,43.292 38.992,33.867 	"/>
	<polygon style="fill:#333333;" points="29.767,14.973 34.718,22.873 34.877,22.873 36.115,22.873 36.401,22.873 36.401,10.946 
		34.21,10.946 34.21,18.617 29.381,10.946 27.571,10.946 27.571,22.873 29.767,22.873 	"/>
</g>
</svg>
