<?xml version="1.0" encoding="iso-8859-1"?>
<!-- Generator: Adobe Illustrator 14.0.0, SVG Export Plug-In . SVG Version: 6.00 Build 43363)  -->
<!DOCTYPE svg PUBLIC "-//W3C//DTD SVG 1.1//EN" "http://www.w3.org/Graphics/SVG/1.1/DTD/svg11.dtd">
<svg version="1.1" id="icon-m-framework-back-layer"
	 xmlns="http://www.w3.org/2000/svg" xmlns:xlink="http://www.w3.org/1999/xlink" x="0px" y="0px" width="64px" height="64px"
	 viewBox="0 0 64 64" style="enable-background:new 0 0 64 64;" xml:space="preserve">
<g id="icon-m-framework-back">
	<rect style="fill:none;" width="64" height="64"/>
	<path style="fill:#FFFFFF;" d="M35.598,47.787c0.956,0,4.95-0.193,8.189-3.289c2.738-2.615,4.107-5.514,4.113-10.551l0.02-0.093
		c-0.006-5.038-1.395-7.999-4.133-10.616c-3.239-3.096-7.233-3.132-8.189-3.132c-0.06,0-9.227,0-9.227,0v-3.589
		c0-0.546,0-1.024-1.025-0.512l-8.714,5.126c0,0-0.513,0.513-0.513,0.769c0,0.23,0.513,0.77,0.513,0.77l8.714,5.639
		c1.025,0.512,1.025,0.031,1.025-0.514v-3.639l9.227,0.051c0,0,3.115-0.363,5.485,1.934c1.903,1.846,2.714,3.912,2.716,7.807
		c-0.002,3.893-0.813,5.804-2.716,7.648c-2.37,2.297-5.464,2.092-5.485,2.09H23.295c-1.025,0-1.025,1.025-1.025,1.025v2.051
		c0,0,0,1.025,1.025,1.025H35.598z"/>
</g>
</svg>
