<?xml version="1.0" encoding="iso-8859-1"?>
<!-- Generator: Adobe Illustrator 14.0.0, SVG Export Plug-In . SVG Version: 6.00 Build 43363)  -->
<!DOCTYPE svg PUBLIC "-//W3C//DTD SVG 1.1//EN" "http://www.w3.org/Graphics/SVG/1.1/DTD/svg11.dtd">
<svg version="1.1" id="icon-m-energy-management-battery-low-layer"
	 xmlns="http://www.w3.org/2000/svg" xmlns:xlink="http://www.w3.org/1999/xlink" x="0px" y="0px" width="64px" height="64px"
	 viewBox="0 0 64 64" style="enable-background:new 0 0 64 64;" xml:space="preserve">
<g id="icon-m-energy-management-battery-low">
	<rect style="fill:none;" width="64" height="64"/>
	<path style="fill:#333333;" d="M25.455,3.378v2.819H15.38c-1.033,0-1.88,0.843-1.88,1.876v52.546c0,1.035,0.847,1.881,1.88,1.881
		h33.243c1.033,0,1.877-0.846,1.877-1.881V8.073c0-1.033-0.844-1.876-1.877-1.876H38.547V3.378c0-1.036-0.845-1.88-1.878-1.88
		h-9.336C26.3,1.498,25.455,2.342,25.455,3.378z M44.22,11.89c1.033,0,1.878,0.845,1.878,1.878v43.17
		c0,1.033-0.845,1.879-1.878,1.879H19.788c-1.033,0-1.88-0.846-1.88-1.879v-43.17c0-1.033,0.847-1.878,1.88-1.878H44.22z"/>
	<rect x="21.244" y="51.402" style="fill:#333333;" width="21.514" height="4.031"/>
</g>
</svg>
