<?xml version="1.0" encoding="iso-8859-1"?>
<!-- Generator: Adobe Illustrator 14.0.0, SVG Export Plug-In . SVG Version: 6.00 Build 43363)  -->
<!DOCTYPE svg PUBLIC "-//W3C//DTD SVG 1.1//EN" "http://www.w3.org/Graphics/SVG/1.1/DTD/svg11.dtd">
<svg version="1.1" id="icon-m-messaging-smiley-skeptical-layer"
	 xmlns="http://www.w3.org/2000/svg" xmlns:xlink="http://www.w3.org/1999/xlink" x="0px" y="0px" width="64px" height="64px"
	 viewBox="0 0 64 64" style="enable-background:new 0 0 64 64;" xml:space="preserve">
<g id="icon-m-messaging-smiley-skeptical">
	<rect style="fill:none;" width="64" height="64"/>
	<path style="fill:#333333;" d="M45.71,42.963c-1.456-1.902-4.6-2.721-9.614-2.503c-7.037,0.306-15.414,2.627-15.496,2.65
		c-0.412,0.115-0.67,0.632-0.582,1.165c0.089,0.529,0.492,0.889,0.907,0.798c3.271-0.694,6.413-1.111,9.336-1.237
		c10.535-0.458,15.138,2.982,15.185,3.018c0.134,0.104,0.287,0.152,0.438,0.146c0.111-0.006,0.223-0.041,0.324-0.107
		c0.24-0.158,0.395-0.467,0.412-0.814C46.671,44.867,46.365,43.819,45.71,42.963z"/>
	<path style="fill:#333333;" d="M15.454,23.575c-0.825,0-1.496-0.666-1.5-1.491c-0.004-0.829,0.664-1.504,1.492-1.509L48.473,20.5
		c0.002,0,0.006,0,0.008,0c0.824,0,1.496,0.666,1.5,1.492c0.004,0.828-0.664,1.504-1.492,1.508l-33.026,0.075
		C15.459,23.575,15.457,23.575,15.454,23.575L15.454,23.575z"/>
	<g>
		<circle style="fill:#333333;" cx="22.467" cy="26.5" r="3.5"/>
		<circle style="fill:#333333;" cx="41.467" cy="26.5" r="3.5"/>
	</g>
	<path style="fill:#333333;" d="M32,4c15.439,0,28,12.561,28,28S47.439,60,32,60S4,47.439,4,32S16.561,4,32,4 M32,0
		C14.327,0,0,14.327,0,32c0,17.674,14.327,32,32,32c17.674,0,32-14.326,32-32C64,14.327,49.674,0,32,0L32,0z"/>
</g>
</svg>
