<?xml version="1.0" encoding="iso-8859-1"?>
<!-- Generator: Adobe Illustrator 14.0.0, SVG Export Plug-In . SVG Version: 6.00 Build 43363)  -->
<!DOCTYPE svg PUBLIC "-//W3C//DTD SVG 1.1//EN" "http://www.w3.org/Graphics/SVG/1.1/DTD/svg11.dtd">
<svg version="1.1" id="icon-m-common-newest-on-top-layer"
	 xmlns="http://www.w3.org/2000/svg" xmlns:xlink="http://www.w3.org/1999/xlink" x="0px" y="0px" width="64px" height="64px"
	 viewBox="0 0 64 64" style="enable-background:new 0 0 64 64;" xml:space="preserve">
<g id="icon-m-common-newest-on-top">
	<rect style="fill:none;" width="64" height="64"/>
	<rect x="4.863" y="57.039" style="fill:#333333;" width="38.375" height="6"/>
	<rect x="4.812" y="41.316" style="fill:#333333;" width="38.375" height="6"/>
	<path style="fill:#333333;" d="M55.034,17.879c-0.677-6.539-6.216-11.653-12.93-11.653h-7.387v-4.11c0-1.1-0.779-1.551-1.732-1
		L20.58,8.277c-0.953,0.55-0.956,1.455-0.006,2.01l12.417,7.266c0.948,0.556,1.727,0.109,1.727-0.991v-4.336h7.387
		c3.753,0,6.818,2.972,6.984,6.688c-0.166,3.713-3.231,6.686-6.984,6.686H4.812v6h37.292c6.957,0,12.639-5.498,12.968-12.374
		L55.034,17.879z"/>
</g>
</svg>
