<?xml version="1.0" encoding="iso-8859-1"?>
<!-- Generator: Adobe Illustrator 14.0.0, SVG Export Plug-In . SVG Version: 6.00 Build 43363)  -->
<!DOCTYPE svg PUBLIC "-//W3C//DTD SVG 1.1//EN" "http://www.w3.org/Graphics/SVG/1.1/DTD/svg11.dtd">
<svg version="1.1" id="icon-m-camera-whitebalance-tungsten-screen-layer"
	 xmlns="http://www.w3.org/2000/svg" xmlns:xlink="http://www.w3.org/1999/xlink" x="0px" y="0px" width="24px" height="24px"
	 viewBox="0 0 24 24" style="enable-background:new 0 0 24 24;" xml:space="preserve">
<g id="icon-m-camera-whitebalance-tungsten-screen">
	<rect style="fill:none;" width="24" height="24"/>
	<path style="fill:#FFFFFF;" d="M15.131,20.133c0,0.414-0.336,0.75-0.75,0.75H9.62c-0.414,0-0.75-0.336-0.75-0.75l0,0
		c0-0.415,0.336-0.75,0.75-0.75h4.761C14.795,19.383,15.131,19.718,15.131,20.133L15.131,20.133z"/>
	<path style="fill:#FFFFFF;" d="M15.131,22.82c0,0.414-0.336,0.75-0.75,0.75H9.62c-0.414,0-0.75-0.336-0.75-0.75l0,0
		c0-0.414,0.336-0.75,0.75-0.75h4.761C14.795,22.07,15.131,22.406,15.131,22.82L15.131,22.82z"/>
	<path style="fill:#FFFFFF;" d="M13.4,18.209h-2.8c-1.431,0-2.595-1.185-2.595-2.643v0.442c0-0.848-0.659-1.626-1.493-2.612
		c-1.206-1.423-2.706-3.189-2.706-6.014c0-3.344,3.132-6.953,8.194-6.953c5.06,0,8.192,3.609,8.192,6.953
		c0,2.825-1.499,4.591-2.704,6.011c-0.838,0.991-1.495,1.771-1.495,2.615v-0.442C15.994,17.024,14.83,18.209,13.4,18.209
		L13.4,18.209z M12.001,2.063c-4.053,0-6.562,2.761-6.562,5.319c0,2.224,1.178,3.612,2.316,4.954
		c0.97,1.147,1.883,2.227,1.883,3.672v-0.442c0,0.557,0.432,1.01,0.962,1.01h2.8c0.529,0,0.961-0.453,0.961-1.01v0.442
		c0-1.442,0.91-2.521,1.875-3.662c1.146-1.352,2.324-2.738,2.324-4.964C18.561,4.824,16.053,2.063,12.001,2.063L12.001,2.063z"/>
</g>
</svg>
