<?xml version="1.0" encoding="iso-8859-1"?>
<!-- Generator: Adobe Illustrator 14.0.0, SVG Export Plug-In . SVG Version: 6.00 Build 43363)  -->
<!DOCTYPE svg PUBLIC "-//W3C//DTD SVG 1.1//EN" "http://www.w3.org/Graphics/SVG/1.1/DTD/svg11.dtd">
<svg version="1.1" id="icon-m-toolbar-send-layer" xmlns="http://www.w3.org/2000/svg" xmlns:xlink="http://www.w3.org/1999/xlink"
	 x="0px" y="0px" width="65px" height="64px" viewBox="0 0 65 64" style="enable-background:new 0 0 65 64;" xml:space="preserve">
<g id="icon-m-toolbar-send">
	<rect x="1" style="fill:none;" width="64" height="64"/>
	<path style="fill:#FFFFFF;" d="M40.391,38.111l-0.625-0.264l-20.133-8.802v16.343c0,0.713,0.584,1.297,1.297,1.297h38.917
		c0.714,0,1.297-0.584,1.297-1.297V29.046l-20.136,8.802L40.391,38.111z"/>
	<path style="fill:#FFFFFF;" d="M61.144,18.611c0-0.713-0.583-1.297-1.297-1.297H20.93c-0.713,0-1.297,0.584-1.297,1.297v5.621
		l20.758,9.092l20.753-9.092V18.611z"/>
	<path style="fill:#FFFFFF;" d="M4.855,23.355c0,1.246,1.228,2.268,2.727,2.268h9.043v-4.531H7.583
		C6.083,21.092,4.855,22.11,4.855,23.355z"/>
	<path style="fill:#FFFFFF;" d="M4.855,32.447c0,1.245,1.228,2.268,2.727,2.268h9.043v-4.533H7.583
		C6.083,30.182,4.855,31.201,4.855,32.447z"/>
	<path style="fill:#FFFFFF;" d="M4.855,41.537c0,1.246,1.228,2.268,2.727,2.268h9.043v-4.531H7.583
		C6.083,39.273,4.855,40.291,4.855,41.537z"/>
</g>
</svg>
