<?xml version="1.0" encoding="iso-8859-1"?>
<!-- Generator: Adobe Illustrator 14.0.0, SVG Export Plug-In . SVG Version: 6.00 Build 43363)  -->
<!DOCTYPE svg PUBLIC "-//W3C//DTD SVG 1.1//EN" "http://www.w3.org/Graphics/SVG/1.1/DTD/svg11.dtd">
<svg version="1.1" id="icon-m-camera-pause-indication-layer"
	 xmlns="http://www.w3.org/2000/svg" xmlns:xlink="http://www.w3.org/1999/xlink" x="0px" y="0px" width="24px" height="24px"
	 viewBox="0 0 24 24" style="enable-background:new 0 0 24 24;" xml:space="preserve">
<g id="icon-m-camera-pause-indication_1_">
	<rect style="fill:none;" width="24" height="24"/>
	<path style="fill:#FFFFFF;" d="M12,2.775c5.087,0,9.225,4.138,9.225,9.225c0,5.086-4.138,9.225-9.225,9.225S2.775,17.086,2.775,12
		C2.775,6.913,6.913,2.775,12,2.775 M12,0.375C5.59,0.375,0.375,5.59,0.375,12S5.59,23.625,12,23.625
		c6.41,0,11.625-5.215,11.625-11.625S18.41,0.375,12,0.375L12,0.375z"/>
	<g>
		<g>
			<path style="fill:#FFFFFF;" d="M10.95,15.25c0,1.1-0.886,2-1.969,2s-1.969-0.9-1.969-2v-6.5c0-1.1,0.886-2,1.969-2
				s1.969,0.9,1.969,2V15.25z"/>
		</g>
		<g>
			<path style="fill:#FFFFFF;" d="M16.987,15.25c0,1.1-0.886,2-1.969,2s-1.969-0.9-1.969-2v-6.5c0-1.1,0.886-2,1.969-2
				s1.969,0.9,1.969,2V15.25z"/>
		</g>
	</g>
</g>
</svg>
