<?xml version="1.0" encoding="iso-8859-1"?>
<!-- Generator: Adobe Illustrator 14.0.0, SVG Export Plug-In . SVG Version: 6.00 Build 43363)  -->
<!DOCTYPE svg PUBLIC "-//W3C//DTD SVG 1.1//EN" "http://www.w3.org/Graphics/SVG/1.1/DTD/svg11.dtd">
<svg version="1.1" id="icon-m-common-no-internet-connection-layer"
	 xmlns="http://www.w3.org/2000/svg" xmlns:xlink="http://www.w3.org/1999/xlink" x="0px" y="0px" width="32px" height="32px"
	 viewBox="0 0 32 32" style="enable-background:new 0 0 32 32;" xml:space="preserve">
<g id="icon-m-common-no-internet-connection">
	<rect style="fill:none;" width="32" height="32"/>
	<path style="fill:#FFFFFF;" d="M10.754,23.765c-0.013-0.175-0.02-0.35-0.025-0.524c-0.004-0.136-0.011-0.271-0.01-0.405
		c-5.174-0.781-9.158-5.244-9.158-10.633c0-0.656,0.062-1.298,0.175-1.922c0.069,0.257,0.178,0.504,0.324,0.724
		c0.413,0.616,1.07,0.247,1.643,0.503c0.625,0.279,1.204,0.94,1.989,0.666c0.538-0.188,0.486-0.576,0.06-0.876
		c-0.188-0.133-0.418-0.141-0.615-0.252c-0.263-0.149-0.45-0.475-0.761-0.535c-0.472-0.093-0.807,0.432-0.805-0.448
		c0.003-0.659,0.495-1.648,1.116-1.9c0.588-0.238,1.399-0.162,2-0.262C7.191,7.815,7.8,7.654,8.142,7.258
		C8.487,6.856,8.362,6.405,8.754,6.08c0.247-0.205,0.599-0.32,0.841-0.502c0.272-0.205,0.314-0.382,0.491-0.64
		c0.331-0.484,0.776-0.51,1.372-0.566c0.461-0.045,1.553-0.124,0.678-0.615c-0.547-0.307-1.36-0.367-1.985-0.338
		c-0.771,0.034-0.974,0.548-1.6,0.702C7.905,4.278,7.269,3.892,6.64,4.077C6.2,4.207,5.714,4.511,5.289,4.688
		C4.878,4.861,4.404,5.015,4.057,5.319c1.977-2.372,4.95-3.884,8.271-3.884c1.879,0,3.646,0.484,5.185,1.334
		c-0.205,0.001-0.386,0.081-0.516,0.286c-0.337,0.531,0.473,1.112,0.794,1.406c0.766,0.696,1.759,1.712,1.361,2.85
		c-0.268,0.764-1.519,1.273-1.422,2.134c0.165,1.479,2.767,0.714,3.663,1.429c0.016,0.013,0.029,0.026,0.045,0.039
		c0.22-0.024,0.441-0.044,0.663-0.057c0.007,0,0.014-0.001,0.021-0.002c0.226-0.012,0.453-0.02,0.682-0.02
		c0.26,0,0.518,0.011,0.775,0.027c0.046,0.003,0.092,0.006,0.137,0.01c0.25,0.019,0.498,0.044,0.745,0.077c0.002,0,0.004,0,0.005,0
		C23.838,4.807,18.634,0,12.328,0C5.601,0,0.126,5.474,0.126,12.202c0,6.211,4.666,11.349,10.674,12.103v-0.001
		C10.78,24.124,10.767,23.944,10.754,23.765z"/>
	<path style="fill:#FFFFFF;" d="M12.046,16.775c-0.033,0.284-0.066,0.563-0.095,0.84c0.571-1.169,1.33-2.268,2.3-3.238
		c0.896-0.896,1.908-1.631,3.001-2.196c-0.324-0.134-0.684-0.204-0.899-0.287c-0.276-0.106-0.903-0.18-1.076-0.562
		c-0.062-0.138-0.013-0.364-0.032-0.524c-0.079-0.644-0.56-1.008-1.003-1.124c-0.493-0.127-0.962-0.371-1.449-0.464
		c-0.401-0.077-0.817-0.146-1.171-0.289c-0.262-0.105-0.704-0.255-0.979-0.11c-0.41,0.216-0.649,1.171-0.68,1.767
		c-0.02,0.369,0.119,0.864,0.031,1.199c-0.065,0.249-0.224,0.313-0.276,0.608c-0.037,0.213-0.016,0.553,0.026,0.757
		c0.217,1.062,1.294,1.584,1.771,2.415C11.796,16.057,12.123,16.118,12.046,16.775z"/>
	<path style="fill:#FFFFFF;" d="M29.218,16.515c-3.543-3.542-9.286-3.542-12.829,0c-3.542,3.542-3.542,9.286,0,12.829
		c3.542,3.542,9.285,3.541,12.828,0C32.76,25.801,32.76,20.057,29.218,16.515z M26.54,29.387l-3.704-3.705l-3.747,3.747
		l-2.774-2.771l3.747-3.75l-3.724-3.725l2.751-2.754l3.727,3.729l3.704-3.706l2.773,2.771l-3.704,3.706l3.704,3.705L26.54,29.387z"
		/>
</g>
</svg>
