<?xml version="1.0" encoding="iso-8859-1"?>
<!-- Generator: Adobe Illustrator 14.0.0, SVG Export Plug-In . SVG Version: 6.00 Build 43363)  -->
<!DOCTYPE svg PUBLIC "-//W3C//DTD SVG 1.1//EN" "http://www.w3.org/Graphics/SVG/1.1/DTD/svg11.dtd">
<svg version="1.1" id="icon-m-camera-scene-sports-screen-layer"
	 xmlns="http://www.w3.org/2000/svg" xmlns:xlink="http://www.w3.org/1999/xlink" x="0px" y="0px" width="24px" height="24px"
	 viewBox="0 0 24 24" style="enable-background:new 0 0 24 24;" xml:space="preserve">
<g id="icon-m-camera-scene-sports-screen">
	<rect style="fill:none;" width="24" height="24"/>
	<path style="fill:#FFFFFF;" d="M21.709,13.072h-1.131c-0.619,0-1.215-0.493-1.324-1.098l-0.199-1.08
		c-0.109-0.604-0.558-1.453-0.998-1.887l-3.016-2.967c-0.439-0.434-1.295-0.897-1.898-1.03l-1.542-0.342
		c-0.604-0.134-1.465,0.102-1.916,0.523L7.701,7.051C7.25,7.473,7.205,8.164,7.599,8.59c0.391,0.422,1.099,0.441,1.568,0.039
		l1.202-1.027c0.469-0.401,1.015-0.545,1.208-0.314c0.194,0.228,0.01,0.777-0.419,1.221l-2.78,2.887
		c-0.427,0.448-0.838,1.308-0.912,1.92L7.29,14.764c-0.075,0.609-0.536,1.418-1.025,1.793l-4.753,3.641
		c-0.488,0.375-0.627,1.112-0.306,1.637l0.309,0.504c0.324,0.525,0.995,0.664,1.496,0.301l5.863-4.21
		c0.502-0.358,1.054-0.492,1.23-0.298c0.175,0.196-0.077,0.67-0.559,1.051l-1.422,1.135c-0.484,0.385-0.562,1.092-0.174,1.569
		l0.281,0.347c0.391,0.479,1.109,0.566,1.597,0.191l4.859-3.693c0.487-0.375,0.57-1.066,0.172-1.54l-1.363-1.638
		c-0.394-0.473-0.359-1.216,0.078-1.647l2.306-2.293c0.437-0.435,0.901-0.297,1.035,0.302l0.475,2.162
		c0.133,0.6,0.747,1.09,1.365,1.09h2.956c0.618,0,1.125-0.47,1.125-1.047C22.834,13.544,22.327,13.072,21.709,13.072z"/>
	<ellipse style="fill:#FFFFFF;" cx="19.482" cy="4.103" rx="3.173" ry="3.151"/>
</g>
</svg>
