<?xml version="1.0" encoding="iso-8859-1"?>
<!-- Generator: Adobe Illustrator 13.0.2, SVG Export Plug-In . SVG Version: 6.00 Build 14948)  -->
<!DOCTYPE svg PUBLIC "-//W3C//DTD SVG 1.1//EN" "http://www.w3.org/Graphics/SVG/1.1/DTD/svg11.dtd">
<svg version="1.1" xmlns="http://www.w3.org/2000/svg" xmlns:xlink="http://www.w3.org/1999/xlink" x="0px" y="0px" width="64px"
	 height="64px" viewBox="0 0 64 64" style="enable-background:new 0 0 64 64;" xml:space="preserve">
	<g id="icon-m-clock-alarm-repeating">
		<path style="fill:#343434;" d="M5.654,29.972c-2.065,1.242-3.451,3.497-3.452,6.082c0.001,3.919,3.18,7.097,7.098,7.097
			c2.584,0,4.84-1.386,6.082-3.449L5.654,29.972z"/>
		<path style="fill:#343434;" d="M20.348,20.584l0.236-0.236c3.754-3.597,8.478-5.497,13.664-5.497c2.771,0,5.58,0.546,8.351,1.625
			c0.844,0.329,1.629,0.687,2.379,1.07c1.022-4.84-0.022-9.677-3.647-13.462l0.002-0.004c-0.01-0.01-0.02-0.018-0.029-0.027
			s-0.018-0.021-0.028-0.031L41.27,4.025c-4.573-4.383-10.689-5.003-16.487-2.746c-2.737,1.065-4.795,2.542-7.022,4.35
			c-3.315,2.688-7.241,4.939-11.221,6.469c-1.655,0.635-2.978,0.933-4.232,2.209c-0.851,0.866-0.908,0.909-1.765,1.769
			c-0.574,0.573-0.773,1.711-0.199,2.283l13.297,13.299l0.058,0.057l1.219,1.221C15.22,28.328,17.054,24.022,20.348,20.584"/>
		<path style="fill:#343434;" d="M61.804,34.461c-1.192-1.214-2.451-1.498-4.025-2.102c-3.787-1.455-7.521-3.597-10.676-6.154
			c-2.118-1.72-4.077-3.124-6.682-4.139c-5.515-2.146-11.333-1.558-15.686,2.613l-0.055,0.055
			c-4.171,4.354-4.761,10.172-2.613,15.688c1.013,2.604,2.419,4.563,4.137,6.682c2.558,3.152,4.7,6.887,6.154,10.674
			c0.605,1.576,0.888,2.834,2.102,4.027c0.825,0.809,0.865,0.864,1.684,1.68c0.545,0.545,1.627,0.734,2.174,0.188l12.65-12.649
			l0.055-0.056l12.65-12.651c0.547-0.545,0.357-1.627-0.188-2.172C62.667,35.327,62.614,35.286,61.804,34.461"/>
		<path style="fill:#343434;" d="M49.366,58.622c1.181,1.964,3.326,3.283,5.785,3.283c3.729,0,6.752-3.024,6.754-6.754
			c-0.002-2.459-1.32-4.604-3.285-5.784L49.366,58.622z"/>
	</g>
</svg>
