<?xml version="1.0" encoding="iso-8859-1"?>
<!-- Generator: Adobe Illustrator 14.0.0, SVG Export Plug-In . SVG Version: 6.00 Build 43363)  -->
<!DOCTYPE svg PUBLIC "-//W3C//DTD SVG 1.1//EN" "http://www.w3.org/Graphics/SVG/1.1/DTD/svg11.dtd">
<svg version="1.1" id="icon-m-toolbar-share-layer" xmlns="http://www.w3.org/2000/svg" xmlns:xlink="http://www.w3.org/1999/xlink"
	 x="0px" y="0px" width="64px" height="64px" viewBox="0 0 64 64" style="enable-background:new 0 0 64 64;" xml:space="preserve">
<g id="icon-m-toolbar-share">
	<rect style="fill:none;" width="64" height="64"/>
	<path id="Share_3_" style="fill:#FFFFFF;" d="M47.086,36.383c-2.636,0-4.969,1.244-6.432,3.156L25.79,32.872
		c0.023-0.241,0.039-0.485,0.039-0.734c0-0.278-0.017-0.554-0.047-0.825l15.005-6.678c1.469,1.814,3.742,2.982,6.299,2.982
		c4.432,0,8.026-3.496,8.026-7.809s-3.595-7.807-8.026-7.807s-8.023,3.494-8.023,7.807c0,0.49,0.053,0.968,0.141,1.432
		l-14.731,6.555c-1.44-2.089-3.888-3.465-6.669-3.465c-4.432,0-8.023,3.495-8.023,7.808c0,4.312,3.591,7.808,8.023,7.808
		c2.811,0,5.282-1.408,6.714-3.535l14.654,6.567c-0.065,0.396-0.107,0.8-0.107,1.216c0,4.313,3.592,7.809,8.023,7.809
		s8.026-3.495,8.026-7.809C55.112,39.879,51.518,36.383,47.086,36.383z"/>
</g>
</svg>
