<?xml version="1.0" encoding="iso-8859-1"?>
<!-- Generator: Adobe Illustrator 14.0.0, SVG Export Plug-In . SVG Version: 6.00 Build 43363)  -->
<!DOCTYPE svg PUBLIC "-//W3C//DTD SVG 1.1//EN" "http://www.w3.org/Graphics/SVG/1.1/DTD/svg11.dtd">
<svg version="1.1" id="icon-m-telephony-microphone-off-layer"
	 xmlns="http://www.w3.org/2000/svg" xmlns:xlink="http://www.w3.org/1999/xlink" x="0px" y="0px" width="64px" height="64px"
	 viewBox="0 0 64 64" style="enable-background:new 0 0 64 64;" xml:space="preserve">
<g id="icon-m-telephony-microphone-off">
	<rect style="fill:none;" width="64" height="64"/>
	<path style="fill:#333333;" d="M16.811,35.381L35.394,16.82L20.427,1.849c-1.141-1.132-2.995-1.132-4.134-0.002L1.857,16.297
		c-1.144,1.14-1.143,2.992,0,4.127L16.811,35.381z M27.452,14.019l3.537,3.533L17.552,30.982l-3.535-3.531L27.452,14.019z"/>
	<polygon style="fill:#333333;" points="53.787,57.786 58.99,62.999 63,58.989 57.801,53.771 	"/>
	<polygon style="fill:#333333;" points="41.927,33.87 33.867,41.923 48.721,55.312 55.314,48.717 	"/>
	<path style="fill:#333333;" d="M6.967,53.692l3.313,3.313l46.752-46.707l-3.311-3.305L6.967,53.692z"/>
</g>
</svg>
