<?xml version="1.0" encoding="iso-8859-1"?>
<!-- Generator: Adobe Illustrator 14.0.0, SVG Export Plug-In . SVG Version: 6.00 Build 43363)  -->
<!DOCTYPE svg PUBLIC "-//W3C//DTD SVG 1.1//EN" "http://www.w3.org/Graphics/SVG/1.1/DTD/svg11.dtd">
<svg version="1.1" id="icon-m-energy-management-battery-verylow-layer"
	 xmlns="http://www.w3.org/2000/svg" xmlns:xlink="http://www.w3.org/1999/xlink" x="0px" y="0px" width="64px" height="64px"
	 viewBox="0 0 64 64" style="enable-background:new 0 0 64 64;" xml:space="preserve">
<g id="icon-m-energy-management-battery-verylow">
	<rect style="fill:none;" width="64" height="64"/>
	<path style="fill:#333333;" d="M25.455,3.377v2.818H15.38c-1.033,0-1.88,0.845-1.88,1.879v52.547c0,1.033,0.847,1.879,1.88,1.879
		h33.243c1.033,0,1.877-0.846,1.877-1.879V8.074c0-1.034-0.844-1.879-1.877-1.879H38.547V3.377c0-1.033-0.845-1.879-1.878-1.879
		h-9.336C26.3,1.498,25.455,2.344,25.455,3.377z M44.22,11.891c1.033,0,1.878,0.846,1.878,1.879v43.168
		c0,1.033-0.845,1.879-1.878,1.879H19.79c-1.035,0-1.881-0.846-1.881-1.879V13.77c0-1.033,0.846-1.879,1.881-1.879H44.22z"/>
</g>
</svg>
