<?xml version="1.0" encoding="iso-8859-1"?>
<!-- Generator: Adobe Illustrator 14.0.0, SVG Export Plug-In . SVG Version: 6.00 Build 43363)  -->
<!DOCTYPE svg PUBLIC "-//W3C//DTD SVG 1.1//EN" "http://www.w3.org/Graphics/SVG/1.1/DTD/svg11.dtd">
<svg version="1.1" id="icon-l-content-manager-layer"
	 xmlns="http://www.w3.org/2000/svg" xmlns:xlink="http://www.w3.org/1999/xlink" x="0px" y="0px" width="48px" height="48px"
	 viewBox="0 0 48 48" style="enable-background:new 0 0 48 48;" xml:space="preserve">
<g id="icon-l-content-manager">
	<rect style="fill:none;" width="48" height="48"/>
	<g>
		<path style="opacity:0.2;" d="M11.739,4.178c-1.768,0-3.208,1.439-3.208,3.209c0,0,0,4.693,0,6.605c-1.8,0-5.625,0-5.625,0
			c-0.777,0-1.407,0.629-1.407,1.405v28.132c0,0.777,0.629,1.406,1.407,1.406h42.187c0.777,0,1.406-0.629,1.406-1.406V15.397
			c0-0.776-0.629-1.405-1.406-1.405c0,0-3.807,0-5.604,0c0-1.307,0-3.004,0-3.004c0-1.275-1.036-2.309-2.309-2.309
			c0,0-11.632,0-12.853,0c-0.658-0.822-3.176-3.975-3.176-3.975c-0.268-0.332-0.672-0.527-1.099-0.527H11.739z"/>
		<rect x="2.907" y="40.71" style="opacity:0.5;" width="42.187" height="2.819"/>
		<linearGradient id="SVGID_1_" gradientUnits="userSpaceOnUse" x1="24" y1="5.0688" x2="24" y2="54.1243">
			<stop  offset="0" style="stop-color:#E6E5F3"/>
			<stop  offset="1" style="stop-color:#333442"/>
		</linearGradient>
		<rect x="2.907" y="13.992" style="fill:url(#SVGID_1_);" width="42.187" height="28.131"/>
		<polygon style="opacity:0.15;fill:#FFFFFF;" points="4.312,40.714 4.312,15.402 43.688,15.402 45.094,13.992 2.907,13.992 
			2.907,42.123 		"/>
		<polygon style="opacity:0.2;fill:#010101;" points="43.688,15.402 43.688,40.714 4.312,40.714 2.907,42.123 45.094,42.123 
			45.094,13.992 		"/>
		<path style="opacity:0.3;fill:#010101;" d="M9.234,13.992v6.332h-2.11c-0.388,0-0.704,0.314-0.704,0.703v19.688
			c0,0.388,0.315,0.704,0.704,0.704h33.75c0.387,0,0.705-0.316,0.705-0.704V21.027c0-0.389-0.318-0.703-0.705-0.703h-2.089v-6.332
			H9.234z"/>
		<linearGradient id="SVGID_2_" gradientUnits="userSpaceOnUse" x1="24.0112" y1="4.1602" x2="24.0112" y2="27.639">
			<stop  offset="0" style="stop-color:#FEE23F"/>
			<stop  offset="0.1759" style="stop-color:#FAD63A"/>
			<stop  offset="0.5155" style="stop-color:#F1B831"/>
			<stop  offset="0.981" style="stop-color:#E48A25"/>
			<stop  offset="1" style="stop-color:#E38825"/>
		</linearGradient>
		<path style="fill:url(#SVGID_2_);" d="M37.181,8.68H23.653l-3.6-4.502L9.938,5.979v14.147h28.146V9.58
			C38.084,9.081,37.682,8.68,37.181,8.68z"/>
		<linearGradient id="SVGID_3_" gradientUnits="userSpaceOnUse" x1="16.7954" y1="-0.0674" x2="16.7954" y2="28.0595">
			<stop  offset="0" style="stop-color:#FEE23F"/>
			<stop  offset="0.1759" style="stop-color:#FAD63A"/>
			<stop  offset="0.5155" style="stop-color:#F1B831"/>
			<stop  offset="0.981" style="stop-color:#E48A25"/>
			<stop  offset="1" style="stop-color:#E38825"/>
		</linearGradient>
		<path style="fill:url(#SVGID_3_);" d="M23.653,8.68l-3.6-4.502h-8.314c-0.992,0-1.801,0.812-1.801,1.802v2.7H23.653z"/>
		<linearGradient id="SVGID_4_" gradientUnits="userSpaceOnUse" x1="24" y1="19.623" x2="24" y2="39.3105">
			<stop  offset="0" style="stop-color:#E6E6E6"/>
			<stop  offset="1" style="stop-color:#B3B2C9"/>
		</linearGradient>
		<rect x="7.125" y="19.623" style="fill:url(#SVGID_4_);" width="33.75" height="19.688"/>
		<polygon style="opacity:0.2;fill:#010101;" points="39.469,21.029 39.469,37.904 8.532,37.904 8.532,37.904 7.125,39.311 
			40.875,39.311 40.875,19.623 		"/>
		<polygon style="opacity:0.35;fill:#FFFFFF;" points="40.875,19.623 7.125,19.623 7.125,39.311 8.532,37.904 8.532,21.029 
			39.469,21.029 		"/>
		<polygon style="opacity:0.25;fill:#FFFFFF;" points="16.967,30.35 16.967,23.842 30.924,23.842 36.955,21.029 8.532,21.029 
			8.532,34.284 		"/>
		
			<linearGradient id="SVGID_5_" gradientUnits="userSpaceOnUse" x1="24.1284" y1="299.4482" x2="24.1284" y2="305.4245" gradientTransform="matrix(1 0 0 0.7752 -0.1284 -207.0607)">
			<stop  offset="0" style="stop-color:#FFFFFF"/>
			<stop  offset="1" style="stop-color:#E6E6E6"/>
		</linearGradient>
		<rect x="18.375" y="25.248" style="fill:url(#SVGID_5_);" width="11.25" height="4.219"/>
		<polygon style="opacity:0.25;fill:#FFFFFF;" points="29.625,25.283 29.625,29.467 18.375,29.467 16.967,30.873 31.03,30.873 
			31.03,23.876 		"/>
		<polygon style="opacity:0.15;" points="18.375,29.467 18.375,25.248 29.625,25.248 31.03,23.842 16.967,23.842 16.967,30.873 		
			"/>
	</g>
</g>
</svg>
