<?xml version="1.0" encoding="iso-8859-1"?>
<!-- Generator: Adobe Illustrator 14.0.0, SVG Export Plug-In . SVG Version: 6.00 Build 43363)  -->
<!DOCTYPE svg PUBLIC "-//W3C//DTD SVG 1.1//EN" "http://www.w3.org/Graphics/SVG/1.1/DTD/svg11.dtd">
<svg version="1.1" id="icon-m-image-edit-rotate-left-layer"
	 xmlns="http://www.w3.org/2000/svg" xmlns:xlink="http://www.w3.org/1999/xlink" x="0px" y="0px" width="64px" height="64px"
	 viewBox="0 0 64 64" style="enable-background:new 0 0 64 64;" xml:space="preserve">
<g id="icon-m-image-edit-rotate-left">
	<rect style="fill:none;" width="64" height="64"/>
	
		<ellipse transform="matrix(-0.7072 -0.707 0.707 -0.7072 48.7373 117.0029)" style="fill:#333333;" cx="48.595" cy="48.41" rx="3.915" ry="3.937"/>
	
		<ellipse transform="matrix(-0.7071 -0.7071 0.7071 -0.7071 21.9907 117.8017)" style="fill:#333333;" cx="35.391" cy="54.347" rx="3.916" ry="3.936"/>
	
		<ellipse transform="matrix(-0.7072 -0.707 0.707 -0.7072 0.2873 102.8651)" style="fill:#333333;" cx="21.442" cy="51.373" rx="3.915" ry="3.937"/>
	<path style="fill:#333333;" d="M16.113,12.395L9.641,5.922c-0.338-0.338-0.678-0.225-0.76,0.25L5,29.066
		c-0.082,0.475,0.24,0.797,0.717,0.717L28.611,25.9c0.475-0.08,0.586-0.422,0.25-0.76l-8.58-8.578
		c7.873-6.65,19.658-6.313,27.033,1.063c6.16,6.16,7.4,15.393,3.775,22.855l5.479,2.209c4.484-9.598,2.797-21.365-5.078-29.24
		C41.824,3.783,26.299,3.447,16.113,12.395z"/>
</g>
</svg>
