<?xml version="1.0" encoding="iso-8859-1"?>
<!-- Generator: Adobe Illustrator 13.0.2, SVG Export Plug-In . SVG Version: 6.00 Build 14948)  -->
<!DOCTYPE svg PUBLIC "-//W3C//DTD SVG 1.1//EN" "http://www.w3.org/Graphics/SVG/1.1/DTD/svg11.dtd">
<svg version="1.1" xmlns="http://www.w3.org/2000/svg" xmlns:xlink="http://www.w3.org/1999/xlink" x="0px" y="0px" width="88px"
	 height="88px" viewBox="0 0 88 88" style="enable-background:new 0 0 88 88;" xml:space="preserve">
	<g id="icon-m-myspace">
		<rect style="fill:none;" width="88" height="88"/>
		<rect id="_x3C_Slice_x3E__18_" style="fill:none;" width="88" height="88"/>
		<g>
			<path style="fill-rule:evenodd;clip-rule:evenodd;fill:#233E90;" d="M56.764,36.932c5.5,0,9.959-4.459,9.959-9.964
				c0-5.499-4.459-9.968-9.959-9.968c-5.504,0-9.964,4.469-9.964,9.968C46.8,32.473,51.26,36.932,56.764,36.932L56.764,36.932z"/>
			<path style="fill-rule:evenodd;clip-rule:evenodd;fill:#233E90;" d="M48.608,46.529c0-5.505-4.464-9.967-9.964-9.967
				c-5.504,0-9.961,4.462-9.961,9.967c0,0.226,0.013,0.447,0.031,0.67h-0.031v17.264h19.925V47.199h-0.034
				C48.59,46.977,48.608,46.755,48.608,46.529L48.608,46.529z"/>
			<path style="fill-rule:evenodd;clip-rule:evenodd;fill:#233E90;" d="M38.645,35.24c4.033,0,7.304-3.273,7.304-7.307
				s-3.271-7.303-7.304-7.303s-7.306,3.27-7.306,7.303S34.611,35.24,38.645,35.24L38.645,35.24z"/>
			<path style="fill-rule:evenodd;clip-rule:evenodd;fill:#233E90;" d="M70.35,52.328c0-7.498-6.083-13.592-13.586-13.592
				c-7.508,0-13.591,6.094-13.591,13.592c0,0.309,0.026,0.604,0.044,0.907h-0.044v23.55H70.35v-23.55h-0.049
				C70.323,52.932,70.35,52.637,70.35,52.328L70.35,52.328z"/>
			<path style="fill-rule:evenodd;clip-rule:evenodd;fill:#233E90;" d="M24.146,35.477c-4.502,0-8.146,3.65-8.146,8.152
				c0,0.189,0.018,0.366,0.026,0.549H16v14.129h16.302V44.178h-0.026c0.014-0.183,0.026-0.359,0.026-0.549
				C32.302,39.127,28.661,35.477,24.146,35.477L24.146,35.477z"/>
			<path style="fill-rule:evenodd;clip-rule:evenodd;fill:#233E90;" d="M24.146,34.398c3.306,0,5.983-2.678,5.983-5.984
				c0-3.299-2.678-5.975-5.983-5.975c-3.297,0-5.975,2.676-5.975,5.975C18.172,31.721,20.85,34.398,24.146,34.398L24.146,34.398z"/>
		</g>
	</g>
</svg>
