<?xml version="1.0" encoding="iso-8859-1"?>
<!-- Generator: Adobe Illustrator 14.0.0, SVG Export Plug-In . SVG Version: 6.00 Build 43363)  -->
<!DOCTYPE svg PUBLIC "-//W3C//DTD SVG 1.1//EN" "http://www.w3.org/Graphics/SVG/1.1/DTD/svg11.dtd">
<svg version="1.1" id="icon-l-games-layer" xmlns="http://www.w3.org/2000/svg" xmlns:xlink="http://www.w3.org/1999/xlink" x="0px"
	 y="0px" width="64px" height="64px" viewBox="0 0 64 64" style="enable-background:new 0 0 64 64;" xml:space="preserve">
<g id="icon-l-games">
	<rect style="fill:none;" width="64" height="64"/>
	<path style="opacity:0.2;fill:#010101;" d="M46.65,9.594c-3.133,0-5.457,0.992-7.846,2.653H25.232
		c-2.391-1.661-4.748-2.653-7.883-2.653c-8.171,0-14.799,6.614-14.822,14.778c-0.105,1.434-1.54,20.543-1.549,20.971
		c0.002,5.004,4.061,9.063,9.067,9.063c3.83,0,7.088-2.378,8.418-5.723l4.218-9.898h18.636l4.23,9.934
		c1.318,3.31,4.58,5.688,8.408,5.688c5.008,0,9.063-4.06,9.066-9.063c-0.013-0.428-1.445-19.532-1.554-20.971
		C61.443,16.208,54.822,9.594,46.65,9.594z"/>
	<path style="opacity:0.5;fill:#010101;" d="M59.832,24.41L59.832,24.41c-0.002-7.277-5.902-13.18-13.184-13.18
		c-2.965,0-5.695,0.996-7.896,2.652h-13.5c-2.203-1.656-4.936-2.652-7.9-2.652c-7.281,0-13.184,5.902-13.184,13.18
		c0,0-1.551,20.755-1.551,20.933c0,4.102,3.324,7.429,7.432,7.429c3.135,0,5.801-1.948,6.893-4.691l4.657-10.932H42.4l4.654,10.932
		c1.096,2.743,3.766,4.691,6.9,4.691c4.104,0,7.43-3.327,7.43-7.429C61.385,45.165,59.832,24.41,59.832,24.41z"/>
	<linearGradient id="SVGID_1_" gradientUnits="userSpaceOnUse" x1="32.0005" y1="4.4497" x2="32.0005" y2="62.4386">
		<stop  offset="0" style="stop-color:#FFFFFF"/>
		<stop  offset="1" style="stop-color:#B3B2C9"/>
	</linearGradient>
	<path style="fill:url(#SVGID_1_);" d="M59.832,22.773L59.832,22.773C59.83,15.496,53.93,9.595,46.648,9.595
		c-2.965,0-5.695,0.996-7.896,2.651h-13.5c-2.203-1.655-4.936-2.651-7.9-2.651c-7.281,0-13.184,5.901-13.184,13.179
		c0,0-1.551,20.755-1.551,20.933c0,4.103,3.324,7.429,7.432,7.429c3.135,0,5.801-1.948,6.893-4.691l4.657-10.931H42.4l4.654,10.931
		c1.096,2.743,3.766,4.691,6.9,4.691c4.104,0,7.43-3.326,7.43-7.429C61.385,43.528,59.832,22.773,59.832,22.773z"/>
	<path style="opacity:0.35;fill:#FFFFFF;" d="M46.648,11.001c-2.648,0-5.074,0.882-7.058,2.366l-0.37,0.281H24.779l-0.371-0.281
		c-1.979-1.484-4.408-2.366-7.057-2.366C10.847,10.998,5.574,16.272,5.57,22.77L4.263,40.291L56.295,16.03
		C54.166,12.992,50.644,10.998,46.648,11.001z"/>
	<polygon style="fill:#414141;" points="23.71,21.82 18.901,21.82 18.901,17.012 15.81,17.012 15.81,21.82 11,21.82 11,24.913 
		15.81,24.913 15.81,29.717 18.901,29.717 18.901,24.913 23.71,24.913 	"/>
	<linearGradient id="SVGID_2_" gradientUnits="userSpaceOnUse" x1="46.7412" y1="33.0547" x2="46.7412" y2="26.0952">
		<stop  offset="0" style="stop-color:#FFFFFF"/>
		<stop  offset="1" style="stop-color:#B3B2C9"/>
	</linearGradient>
	<path style="fill:url(#SVGID_2_);" d="M46.742,24.896c-2.057,0-3.722,1.666-3.725,3.725c0.003,2.055,1.666,3.72,3.725,3.723
		c2.057-0.003,3.723-1.668,3.723-3.723C50.465,26.563,48.793,24.896,46.742,24.896z"/>
	<circle style="fill:#283176;" cx="46.741" cy="28.619" r="2.317"/>
	<linearGradient id="SVGID_3_" gradientUnits="userSpaceOnUse" x1="52.29" y1="27.5024" x2="52.29" y2="20.5466">
		<stop  offset="0" style="stop-color:#FFFFFF"/>
		<stop  offset="1" style="stop-color:#B3B2C9"/>
	</linearGradient>
	<path style="fill:url(#SVGID_3_);" d="M52.289,19.35c-2.055,0-3.719,1.665-3.723,3.721c0.004,2.054,1.666,3.721,3.723,3.723
		c2.059-0.002,3.725-1.669,3.725-3.723C56.014,21.015,54.346,19.35,52.289,19.35z"/>
	<circle style="fill:#EC3182;" cx="52.291" cy="23.07" r="2.318"/>
	<linearGradient id="SVGID_4_" gradientUnits="userSpaceOnUse" x1="46.7852" y1="22.002" x2="46.7852" y2="15.0416">
		<stop  offset="0" style="stop-color:#FFFFFF"/>
		<stop  offset="1" style="stop-color:#B3B2C9"/>
	</linearGradient>
	<path style="fill:url(#SVGID_4_);" d="M46.787,13.844c-2.053,0-3.721,1.667-3.726,3.725c0.005,2.054,1.669,3.721,3.726,3.724
		c2.057-0.003,3.722-1.67,3.722-3.724C50.509,15.511,48.844,13.844,46.787,13.844z"/>
	<path style="fill:#FEE23F;" d="M49.107,17.567c0,1.276-1.039,2.318-2.318,2.318c-1.281,0-2.316-1.042-2.316-2.318
		c0-1.28,1.035-2.319,2.316-2.319C48.068,15.248,49.107,16.287,49.107,17.567z"/>
	<linearGradient id="SVGID_5_" gradientUnits="userSpaceOnUse" x1="41.2393" y1="27.5508" x2="41.2393" y2="20.5931">
		<stop  offset="0" style="stop-color:#FFFFFF"/>
		<stop  offset="1" style="stop-color:#B3B2C9"/>
	</linearGradient>
	<path style="fill:url(#SVGID_5_);" d="M41.238,19.396c-2.053,0-3.721,1.666-3.721,3.724c0,2.055,1.666,3.72,3.721,3.722
		c2.059-0.002,3.723-1.667,3.723-3.722C44.961,21.062,43.293,19.396,41.238,19.396z"/>
	<path style="fill:#7EC242;" d="M43.559,23.119c0,1.277-1.04,2.316-2.32,2.316c-1.275,0-2.318-1.039-2.318-2.316
		c0-1.282,1.043-2.318,2.318-2.318C42.519,20.801,43.559,21.837,43.559,23.119z"/>
	<linearGradient id="SVGID_6_" gradientUnits="userSpaceOnUse" x1="32.0005" y1="5.5747" x2="32.0005" y2="48.8363">
		<stop  offset="0" style="stop-color:#FFFFFF"/>
		<stop  offset="1" style="stop-color:#B3B2C9"/>
	</linearGradient>
	<path style="fill:url(#SVGID_6_);" d="M61.385,43.706c0-0.178-1.553-20.933-1.553-20.933C59.83,15.496,53.93,9.595,46.648,9.595
		c-2.965,0-5.695,0.996-7.896,2.651h-13.5c-2.203-1.655-4.936-2.651-7.9-2.651c-7.281,0-13.184,5.901-13.184,13.179
		c0,0-1.551,20.755-1.551,20.933c0,4.103,3.324,7.429,7.432,7.429c3.135,0,5.801-1.948,6.893-4.691l4.657-10.931H42.4l4.645,10.934
		l0.01-0.003c1.096,2.743,3.766,4.691,6.9,4.691C58.059,51.135,61.385,47.809,61.385,43.706z M53.955,49.728
		c-2.545,0.003-4.705-1.576-5.594-3.804l-5.033-11.817H20.671l-5.038,11.817c-0.888,2.228-3.048,3.807-5.585,3.804
		c-3.332-0.005-6.025-2.696-6.031-6.021L5.57,22.77c0.004-6.497,5.277-11.771,11.781-11.769c2.648,0,5.078,0.882,7.057,2.366
		l0.371,0.281h14.442l0.37-0.281c1.983-1.484,4.409-2.366,7.058-2.366c6.504-0.003,11.776,5.271,11.781,11.769
		c0,0,1.549,20.856,1.549,20.937C59.973,47.031,57.279,49.723,53.955,49.728z"/>
	<polygon style="opacity:0.15;" points="42.354,35.513 43.268,34.106 20.671,34.106 20.585,34.31 21.664,35.513 	"/>
</g>
</svg>
