<?xml version="1.0" encoding="iso-8859-1"?>
<!-- Generator: Adobe Illustrator 14.0.0, SVG Export Plug-In . SVG Version: 6.00 Build 43363)  -->
<!DOCTYPE svg PUBLIC "-//W3C//DTD SVG 1.1//EN" "http://www.w3.org/Graphics/SVG/1.1/DTD/svg11.dtd">
<svg version="1.1" id="icon-m-camera-resolution-12m-layer"
	 xmlns="http://www.w3.org/2000/svg" xmlns:xlink="http://www.w3.org/1999/xlink" x="0px" y="0px" width="64px" height="64px"
	 viewBox="0 0 64 64" style="enable-background:new 0 0 64 64;" xml:space="preserve">
<g id="icon-m-camera-resolution-12m">
	<rect style="fill:none;" width="64" height="64"/>
	<path style="fill:#333333;" d="M22.074,64H10.577v-2.199h3.849V48.754l-3.849,0.824V47.43l5.698-1.775h2.175v16.146h3.624V64z"/>
	<path style="fill:#333333;" d="M35.123,64H23.577v-1.6c0-3.824,2.325-6.023,4.649-7.973c1.575-1.325,2.625-2.275,2.625-3.824
		c0-1.675-0.825-2.6-2.799-2.6c-1.4,0-2.649,0.4-3.849,0.824v-2.474c1.6-0.476,3.224-0.75,4.874-0.75
		c3.649,0,5.922,1.475,5.922,4.849c0,2.699-1.474,4.149-3.598,5.949c-2.25,1.898-3.724,3.224-3.899,5.198h7.623V64z"/>
	<path style="fill:#333333;" d="M53.423,64h-4.024V51.928l-3.174,6.148h-1.5l-3.124-6.148V64h-4.124V45.805h3.6l4.398,8.598
		l4.398-8.598h3.55V64z"/>
	<path style="fill:#333333;" d="M51.545,39.091V0c-21.589,0-39.09,17.501-39.09,39.091H51.545z"/>
</g>
</svg>
