<?xml version="1.0" encoding="iso-8859-1"?>
<!-- Generator: Adobe Illustrator 14.0.0, SVG Export Plug-In . SVG Version: 6.00 Build 43363)  -->
<!DOCTYPE svg PUBLIC "-//W3C//DTD SVG 1.1//EN" "http://www.w3.org/Graphics/SVG/1.1/DTD/svg11.dtd">
<svg version="1.1" id="icon-m-energy-management-charging88-layer"
	 xmlns="http://www.w3.org/2000/svg" xmlns:xlink="http://www.w3.org/1999/xlink" x="0px" y="0px" width="64px" height="64px"
	 viewBox="0 0 64 64" style="enable-background:new 0 0 64 64;" xml:space="preserve">
<g id="icon-m-energy-management-charging88">
	<rect style="fill:none;" width="64" height="64"/>
	<path style="fill:#333333;" d="M25.609,58.093H6.117c-1.003,0-1.829-0.824-1.829-1.827v-42c0-1.005,0.825-1.83,1.829-1.83h23.772
		c1.004,0,1.828,0.825,1.828,1.83v12.713c1.326-1.021,2.759-1.91,4.283-2.639V8.723c0-1.006-0.821-1.827-1.826-1.827h-9.803V4.154
		c0-1.006-0.822-1.829-1.827-1.829h-9.085c-1.004,0-1.826,0.823-1.826,1.829v2.741H1.828C0.822,6.896,0,7.717,0,8.723v51.125
		c0,1.008,0.822,1.829,1.828,1.829h26.349C27.216,60.566,26.356,59.367,25.609,58.093z"/>
	<path style="fill:#333333;" d="M22.327,46c0-6.146,2.325-11.757,6.138-16.007v-9.472H7.736v33.779h16.071
		C22.851,51.713,22.327,48.916,22.327,46z"/>
	<path style="fill:#333333;" d="M54.148,49.444v3.675c-0.003,1.23-1.296,2.236-2.872,2.23l-7.782-0.031l0.016-4.066l-7.924-0.029
		c-0.42,0-0.761-0.342-0.759-0.766l0.005-1.396c0-0.418,0.346-0.759,0.766-0.759l7.93,0.029l0.01-4.709l-7.922-0.013
		c-0.421-0.002-0.76-0.345-0.76-0.766l0.004-1.396c0.004-0.42,0.347-0.763,0.766-0.761l7.924,0.015l0.016-4.051l7.782,0.009
		c1.576,0.003,2.86,1.019,2.856,2.249l-0.013,3.697L64,42.629C62.42,34.303,55.114,28,46.327,28c-9.94,0-18,8.059-18,18
		c0,9.939,8.06,18,18,18c8.763,0,16.055-6.264,17.663-14.556H54.148z"/>
</g>
</svg>
