<?xml version="1.0" encoding="iso-8859-1"?>
<!-- Generator: Adobe Illustrator 14.0.0, SVG Export Plug-In . SVG Version: 6.00 Build 43363)  -->
<!DOCTYPE svg PUBLIC "-//W3C//DTD SVG 1.1//EN" "http://www.w3.org/Graphics/SVG/1.1/DTD/svg11.dtd">
<svg version="1.1" id="icon-l-music-layer" xmlns="http://www.w3.org/2000/svg" xmlns:xlink="http://www.w3.org/1999/xlink" x="0px"
	 y="0px" width="64px" height="64px" viewBox="0 0 64 64" style="enable-background:new 0 0 64 64;" xml:space="preserve">
<g id="icon-l-music">
	<rect style="fill:none;" width="64" height="64"/>
	<g>
		<path style="opacity:0.5;fill:#010101;" d="M47.262,25.678c-1.632,0-3.202,0.264-4.676,0.736v-10.91c0,0-10.543-9.002-27.15-9.664
			v31.223c-1.735-0.705-3.787-0.967-5.924-0.598c-5.101,0.898-8.634,4.938-7.927,9.014c0.716,4.07,5.433,6.666,10.537,5.758
			c4.747-0.838,8.72-4.467,8.72-8.182V16.953c1.014,0.225,9.938,1.67,16.239,6.508v6.137c-3.109,2.793-5.075,6.83-5.075,11.338
			c0,1.109,0.126,2.191,0.352,3.232c-0.398,0.029-0.795,0.059-1.2,0.129c-5.103,0.895-8.632,4.932-7.932,9.014
			c0.723,4.063,5.435,6.658,10.538,5.752c2.986-0.523,5.705-2.127,7.313-4.189c1.891,0.846,3.98,1.32,6.186,1.32
			c8.436,0,15.255-6.83,15.255-15.258C62.517,32.513,55.697,25.678,47.262,25.678z"/>
		<path style="opacity:0.2;fill:#010101;" d="M31.701,60.23c-4.82,0-8.706-2.779-9.45-6.758c-0.068-0.393-0.103-0.799-0.103-1.201
			c0.045-4.176,3.506-7.826,8.417-8.869l0.615-0.131l-0.069-0.625c-0.063-0.568-0.095-1.143-0.095-1.711
			c-0.003-4.377,1.726-8.488,4.867-11.574l0.208-0.203v-5.207l-0.292-0.207c-4.163-2.957-9.434-4.574-13.124-5.41l-0.847-0.191
			v24.916c-0.13,4.863-4.9,8.289-9.546,9.148c-0.708,0.123-1.453,0.189-2.208,0.195c-4.844,0-8.727-2.775-9.464-6.75
			c-0.073-0.426-0.107-0.824-0.103-1.213c0.046-4.287,3.758-8.051,8.825-8.949c0.677-0.121,1.387-0.184,2.111-0.184
			c0.728,0,1.46,0.068,2.178,0.203l0.822,0.152V5.838c0-0.268,0.111-0.527,0.304-0.713c0.185-0.176,0.439-0.277,0.695-0.277
			c16.087,0.662,26.613,8.942,27.76,9.885c0.241,0.203,0.37,0.484,0.37,0.771v9.592l0.819-0.148c0.942-0.172,1.909-0.26,2.87-0.26
			c8.957,0,16.244,7.289,16.244,16.248c0,8.957-7.287,16.244-16.244,16.244c-1.874,0-3.719-0.32-5.482-0.953l-0.417-0.15
			l-0.312,0.314c-1.831,1.857-4.361,3.152-7.123,3.646c-0.744,0.129-1.485,0.193-2.199,0.193H31.701z"/>
		<linearGradient id="SVGID_1_" gradientUnits="userSpaceOnUse" x1="22.0396" y1="24.0156" x2="22.0395" y2="67.1873">
			<stop  offset="0" style="stop-color:#EC3182"/>
			<stop  offset="0.1829" style="stop-color:#E52F7F"/>
			<stop  offset="0.3849" style="stop-color:#D62C78"/>
			<stop  offset="0.5959" style="stop-color:#C0276E"/>
			<stop  offset="0.8118" style="stop-color:#A42161"/>
			<stop  offset="1" style="stop-color:#881C55"/>
		</linearGradient>
		<path style="fill:url(#SVGID_1_);" d="M15.436,35.377c-1.735-0.697-3.787-0.967-5.924-0.6c-5.101,0.9-8.634,4.938-7.927,9.021
			c0.716,4.066,5.433,6.662,10.537,5.75c4.747-0.83,8.72-4.459,8.72-8.176V15.271c1.014,0.22,9.938,1.666,16.239,6.508v21.424
			c-1.734-0.697-3.787-0.967-5.923-0.592c-5.103,0.9-8.632,4.938-7.932,9.014c0.723,4.066,5.435,6.664,10.538,5.758
			c4.744-0.84,8.822-4.383,8.822-8.182V13.822c0,0-10.543-9-27.15-9.662V35.377z"/>
		<path style="opacity:0.3;fill:#FFFFFF;" d="M42.586,13.822c0,0-10.543-9-27.15-9.662v31.217c-1.735-0.697-3.787-0.967-5.924-0.6
			c-5.101,0.9-8.634,4.938-7.927,9.021c0.324,1.842,1.469,3.381,3.1,4.428l1.255-1.133c-1.519-0.844-2.534-2.137-2.76-3.58
			c-0.05-0.25-0.07-0.502-0.07-0.76c-0.05-2.676,2.611-5.67,6.687-6.375c0.559-0.104,2.531-0.449,5.028,0.494l2.228,0.898v-31.9
			c7.263,0.551,13.233,2.717,17.468,4.816c2.273,1.128,4.045,2.236,5.24,3.057c0.518,0.344,2.535,1.8,2.826,2.027V13.822z
			 M37.08,43.203c-1.734-0.697-3.787-0.967-5.923-0.592c-5.103,0.9-8.632,4.938-7.932,9.014c0.339,1.91,1.568,3.494,3.296,4.541
			l1.282-1.148c-1.633-0.84-2.745-2.172-2.987-3.68c-0.042-0.24-0.063-0.492-0.063-0.748c-0.049-2.688,2.609-5.672,6.687-6.387
			c0.56-0.102,2.434-0.391,5.035,0.502l2.223,1.047V23.04l-1.617-1.261V43.203z"/>
		<path style="opacity:0.3;" d="M37.08,43.203c-1.734-0.697-3.787-0.967-5.923-0.592c-0.033,0.006-0.066,0.02-0.102,0.025
			c0.572,5.32,3.705,9.859,8.135,12.389c2.044-1.543,3.396-3.639,3.396-5.824L37.08,43.203z"/>
		<linearGradient id="SVGID_2_" gradientUnits="userSpaceOnUse" x1="47.2617" y1="22.7056" x2="47.2617" y2="66.0551">
			<stop  offset="0" style="stop-color:#FFFFFF"/>
			<stop  offset="1" style="stop-color:#B3B2C9"/>
		</linearGradient>
		<path style="fill:url(#SVGID_2_);" d="M62.517,39.252c0,8.426-6.819,15.258-15.255,15.258c-8.423,0-15.256-6.832-15.256-15.258
			s6.833-15.259,15.256-15.259C55.697,23.993,62.517,30.826,62.517,39.252z"/>
		<path style="opacity:0.2;" d="M57.854,39.254c0-0.525-0.275-1.016-0.744-1.273l-13.592-7.649c-0.22-0.124-0.469-0.19-0.715-0.19
			c-0.256,0-0.51,0.072-0.74,0.209c-0.444,0.26-0.727,0.733-0.727,1.262v15.295c0.008,0.516,0.313,0.982,0.738,1.242l0.918-1.582
			l0.016-0.014v-14.6l12.971,7.299l0.143-0.078L57.77,39.6l-0.002,0.002C57.778,39.537,57.853,39.432,57.854,39.254z"/>
		<path style="fill:#FFFFFF;" d="M56.121,39.174l-13.129,7.393l-0.921,1.588l0.038,0.021c0.212,0.121,0.461,0.184,0.709,0.184
			c0.237,0,0.484-0.063,0.699-0.184l13.592-7.643c0.367-0.209,0.564-0.566,0.658-0.926L57.77,39.6L56.121,39.174z"/>
		<linearGradient id="SVGID_3_" gradientUnits="userSpaceOnUse" x1="49.6016" y1="38.5361" x2="49.6016" y2="83.5551">
			<stop  offset="0" style="stop-color:#7EC242"/>
			<stop  offset="1" style="stop-color:#1D6433"/>
		</linearGradient>
		<polygon style="fill:url(#SVGID_3_);" points="42.807,31.611 42.807,46.906 56.396,39.254 		"/>
	</g>
</g>
</svg>
