<?xml version="1.0" encoding="iso-8859-1"?>
<!-- Generator: Adobe Illustrator 14.0.0, SVG Export Plug-In . SVG Version: 6.00 Build 43363)  -->
<!DOCTYPE svg PUBLIC "-//W3C//DTD SVG 1.1//EN" "http://www.w3.org/Graphics/SVG/1.1/DTD/svg11.dtd">
<svg version="1.1" id="icon-m-toolbar-send-file-layer"
	 xmlns="http://www.w3.org/2000/svg" xmlns:xlink="http://www.w3.org/1999/xlink" x="0px" y="0px" width="64px" height="64px"
	 viewBox="0 0 64 64" style="enable-background:new 0 0 64 64;" xml:space="preserve">
<g id="icon-m-toolbar-send-file">
	<rect style="fill:none;" width="64" height="64"/>
	<polygon style="fill:#FFFFFF;" points="42.539,12.223 42.539,25.896 55.793,25.896 55.793,25.476 	"/>
	<path style="fill:#FFFFFF;" d="M42.216,29.123c-1.599,0-2.902-1.303-2.902-2.904V12h-17.07c-0.709,0-1.291,0.58-1.291,1.289V50.71
		c0,0.71,0.582,1.29,1.291,1.29h32.261c0.707,0,1.289-0.58,1.289-1.29V29.123H42.216z M36.834,29.15H25.867v-3.229h10.967V29.15z
		 M36.834,22.209H25.867v-3.225h10.967V22.209z"/>
	<path style="fill:#FFFFFF;" d="M8.207,29.406c0,1.018,1.003,1.852,2.229,1.852h7.388v-3.702h-7.388
		C9.21,27.556,8.207,28.389,8.207,29.406z"/>
	<path style="fill:#FFFFFF;" d="M8.207,36.832c0,1.02,1.003,1.854,2.229,1.854h7.388v-3.703h-7.388
		C9.21,34.982,8.207,35.815,8.207,36.832z"/>
	<path style="fill:#FFFFFF;" d="M8.207,44.261c0,1.018,1.003,1.851,2.229,1.851h7.388V42.41h-7.388
		C9.21,42.41,8.207,43.243,8.207,44.261z"/>
</g>
</svg>
