<?xml version="1.0" encoding="iso-8859-1"?>
<!-- Generator: Adobe Illustrator 14.0.0, SVG Export Plug-In . SVG Version: 6.00 Build 43363)  -->
<!DOCTYPE svg PUBLIC "-//W3C//DTD SVG 1.1//EN" "http://www.w3.org/Graphics/SVG/1.1/DTD/svg11.dtd">
<svg version="1.1" id="icon-m-common-printer-layer"
	 xmlns="http://www.w3.org/2000/svg" xmlns:xlink="http://www.w3.org/1999/xlink" x="0px" y="0px" width="64px" height="64px"
	 viewBox="0 0 64 64" style="enable-background:new 0 0 64 64;" xml:space="preserve">
<g id="icon-m-common-printer">
	<rect style="fill:none;" width="64" height="64"/>
	<path style="fill:#333333;" d="M60,8L3,8.001c-2,0-2,2-2,2v29.997h8v16h45V40h8V10C62,8,60,8,60,8z M57,33h-7v19l-37,0.001v-19H6
		v-6L57,27V33z M58,16c0,2-2,2-2,2h-9c-2,0-2-2-2-2v-2c0,0,0-2,2-2h9c0,0,2,0,2,2V16z M32,34.001l7,6l7-7H16v5l6,6L32,34.001z"/>
</g>
</svg>
