<?xml version="1.0" encoding="iso-8859-1"?>
<!-- Generator: Adobe Illustrator 14.0.0, SVG Export Plug-In . SVG Version: 6.00 Build 43363)  -->
<!DOCTYPE svg PUBLIC "-//W3C//DTD SVG 1.1//EN" "http://www.w3.org/Graphics/SVG/1.1/DTD/svg11.dtd">
<svg version="1.1" id="icon-m-common-metadata-edit-layer"
	 xmlns="http://www.w3.org/2000/svg" xmlns:xlink="http://www.w3.org/1999/xlink" x="0px" y="0px" width="64px" height="65px"
	 viewBox="0 0 64 65" style="enable-background:new 0 0 64 65;" xml:space="preserve">
<g id="icon-m-common-metadata-edit">
	<rect y="1" style="fill:none;" width="64" height="64"/>
	<path style="fill:#333333;" d="M35.332,52.41c0,1.311,0.599,1.311,0.918,1.311c0.672,0,1.44-0.229,1.44-1.992v-1.23h-0.159
		C35.582,50.498,35.332,51.52,35.332,52.41z"/>
	<path style="fill:#333333;" d="M43.199,34.449c-0.863,0.604-1.826,1.123-2.727,1.426l-11.464,3.824
		c-0.714,0.238-1.457,0.361-2.198,0.361h0c-0.06,0-0.118-0.008-0.177-0.01v4.646l-7.587,2.725l7.587,2.723v5.135l-13.914-5.697
		v-4.32l13.007-5.303c-1.648-0.279-3.142-1.178-4.125-2.535c-0.645-0.891-1.031-1.908-1.163-2.975h-8.545v-4.182h9.243l1.604-4.813
		H11.894v-4.182h12.24l0.434-1.305c0.489-1.441,1.474-3.033,2.52-4.085l3.659-3.667H7.197c-0.921,0-1.673,0.754-1.673,1.674V62.4
		c0,0.92,0.752,1.674,1.673,1.674h41.82c0.919,0,1.704-0.754,1.704-1.674L50.71,27.188l-6.146,6.152
		c-0.056,0.057-0.127,0.107-0.184,0.162 M43.51,57.521h-3.96l-0.345-1.295c-1.125,1.016-2.449,1.479-4.18,1.479
		c-3.366,0-5.457-2-5.457-5.217c0-5.211,4.861-5.588,8.122-5.672v-0.359c0-1.096-0.312-1.65-2.015-1.65
		c-1.008,0-2.256,0.225-3.708,0.672l-1.042,0.318V41.57l0.611-0.152c1.899-0.477,3.736-0.729,5.314-0.729
		c4.293,0,6.658,2.066,6.658,5.818V57.521z"/>
	<path style="fill:#333333;" d="M58.168,9.73l-7.479-7.495c-0.414-0.411-1.088-0.411-1.5,0L31.345,20.111
		c-0.41,0.41-0.898,1.201-1.085,1.755l-3.823,11.472c-0.181,0.551,0.12,0.854,0.672,0.668l11.458-3.822
		c0.549-0.184,1.338-0.672,1.75-1.084l17.85-17.869C58.58,10.818,58.58,10.145,58.168,9.73z M38.186,27.604l-4.572,1.527
		l-2.301-2.303l1.526-4.58l2.027-2.027l5.303,5.398L38.186,27.604z"/>
</g>
</svg>
