<?xml version="1.0" encoding="iso-8859-1"?>
<!-- Generator: Adobe Illustrator 14.0.0, SVG Export Plug-In . SVG Version: 6.00 Build 43363)  -->
<!DOCTYPE svg PUBLIC "-//W3C//DTD SVG 1.1//EN" "http://www.w3.org/Graphics/SVG/1.1/DTD/svg11.dtd">
<svg version="1.1" id="icon-m-music-video-now-playing-layer"
	 xmlns="http://www.w3.org/2000/svg" xmlns:xlink="http://www.w3.org/1999/xlink" x="0px" y="0px" width="64px" height="64px"
	 viewBox="0 0 64 64" style="enable-background:new 0 0 64 64;" xml:space="preserve">
<g id="icon-m-music-video-now-playing">
	<polygon style="fill:none;" points="64,64 0,63.876 0,0 64,0.125 	"/>
	<g>
		<path style="fill:#333333;" d="M21.135,17.928c0-1.1,0.782-1.554,1.737-1.009l24.575,14.028c0.956,0.545,0.956,1.438,0,1.982
			L22.872,46.958c-0.955,0.545-1.737,0.091-1.737-1.009V17.928z"/>
	</g>
	<path style="fill:#333333;" d="M63.5,32C63.5,14.604,49.397,0.502,32,0.502S0.5,14.604,0.5,32c0,17.396,14.103,31.498,31.5,31.498
		c3.062,0,6.018-0.444,8.816-1.26v-5.17c-2.761,0.973-5.727,1.508-8.816,1.508C17.345,58.576,5.422,46.654,5.422,32
		C5.422,17.348,17.345,5.424,32,5.424c14.654,0,26.578,11.924,26.578,26.576c0,6.773-2.557,12.953-6.744,17.65l-5.111-5.111V58.32
		h13.781l-5.178-5.178C60.398,47.553,63.5,40.143,63.5,32z"/>
</g>
</svg>
