<?xml version="1.0" encoding="iso-8859-1"?>
<!-- Generator: Adobe Illustrator 14.0.0, SVG Export Plug-In . SVG Version: 6.00 Build 43363)  -->
<!DOCTYPE svg PUBLIC "-//W3C//DTD SVG 1.1//EN" "http://www.w3.org/Graphics/SVG/1.1/DTD/svg11.dtd">
<svg version="1.1" id="icon-m-content-image-layer" xmlns="http://www.w3.org/2000/svg" xmlns:xlink="http://www.w3.org/1999/xlink"
	 x="0px" y="0px" width="64px" height="64px" viewBox="0 0 64 64" style="enable-background:new 0 0 64 64;" xml:space="preserve">
<g id="icon-m-content-image">
	<rect style="fill:none;" width="64" height="64"/>
	<path style="fill:#333333;" d="M38.953,25.672c0.885,0,1.686-0.346,2.305-0.883c0.824,1.171,1.992,1.906,3.293,1.906
		c1.299,0,2.466-0.735,3.293-1.906c0.619,0.537,1.42,0.883,2.301,0.883c1.941,0,3.506-1.576,3.506-3.52
		c0-1.95-1.564-3.525-3.506-3.525c-0.444,0-0.867,0.088-1.264,0.249c-0.563-2.493-2.287-4.313-4.33-4.313
		c-2.042,0-3.768,1.82-4.332,4.313c-0.394-0.161-0.816-0.249-1.266-0.249c-1.935,0-3.502,1.575-3.502,3.525
		C35.451,24.096,37.019,25.672,38.953,25.672z"/>
	<path style="fill:#333333;" d="M36.436,39.236c-5.222-12.072-15.765-26.197-25.542,10.466h42.213
		C53.106,49.702,45.132,19.991,36.436,39.236z"/>
	<path style="fill:#333333;" d="M0,4.766v54.469h64V4.766H0z M5.447,53.787v-43.71l53.106-0.042v43.752H5.447z"/>
</g>
</svg>
