<?xml version="1.0" encoding="iso-8859-1"?>
<!-- Generator: Adobe Illustrator 14.0.0, SVG Export Plug-In . SVG Version: 6.00 Build 43363)  -->
<!DOCTYPE svg PUBLIC "-//W3C//DTD SVG 1.1//EN" "http://www.w3.org/Graphics/SVG/1.1/DTD/svg11.dtd">
<svg version="1.1" id="icon-m-content-chat-layer" xmlns="http://www.w3.org/2000/svg" xmlns:xlink="http://www.w3.org/1999/xlink"
	 x="0px" y="0px" width="64px" height="64px" viewBox="0 0 64 64" style="enable-background:new 0 0 64 64;" xml:space="preserve">
<g id="icon-m-content-chat">
	<rect style="fill:none;" width="64" height="64"/>
	<path style="fill:#333333;" d="M63.889,3.469c0-1.1-0.9-2-2-2H2c-1.1,0-2,0.9-2,2v43.58c0,1.1,0.9,2,2,2l30.137,0.019v11.785
		c0,0-0.028,1.278,1.168,1.631c1.065,0.326,1.881-1.06,1.881-1.06l7.545-12.356l19.158-0.019c1.1,0,2-0.9,2-2V3.469z M32.024,33.562
		H7.146v-6.785h24.878V33.562z M7.146,19.896v-6.785h49.758v6.785H7.146z"/>
</g>
</svg>
