<?xml version="1.0" encoding="iso-8859-1"?>
<!-- Generator: Adobe Illustrator 14.0.0, SVG Export Plug-In . SVG Version: 6.00 Build 43363)  -->
<!DOCTYPE svg PUBLIC "-//W3C//DTD SVG 1.1//EN" "http://www.w3.org/Graphics/SVG/1.1/DTD/svg11.dtd">
<svg version="1.1" id="icon-m-image-edit-color-layer"
	 xmlns="http://www.w3.org/2000/svg" xmlns:xlink="http://www.w3.org/1999/xlink" x="0px" y="0px" width="64px" height="65px"
	 viewBox="0 0 64 65" style="enable-background:new 0 0 64 65;" xml:space="preserve">
<g id="icon-m-image-edit-color">
	<rect style="fill:none;" width="64" height="64"/>
	<path style="fill:#333333;" d="M24.39,48.511c2.011-1.389,4.201-2.166,6.513-2.312l0.297-0.642l3.332-5.791
		c1.342-2.331,2.959-4.742,4.809-7.165c2.629-3.447,6.41-7.704,9.916-11.175c-4.168-6.937-13.732-11.79-24.873-11.79
		c-4.877,0-9.79,0.929-14.229,2.913c-2.388,1.065-4.757,2.303-6.814,3.93c-1.553,1.227-3.706,3.537-3.286,5.718
		c0.23,1.195,0.774,1.975,1.791,2.589c1.772,1.069,3.758,1.44,5.784,1.745c3.908,0.588,7.846,1.678,8.704,6.145
		c0.833,4.336-5.231,6.996-3.375,11.396c1.803,4.277,7.002,4.688,11.095,4.707C24.168,48.693,24.27,48.594,24.39,48.511z
		 M38.146,17.23c2.486,0.111,4.408,2.213,4.297,4.695c-0.111,2.483-2.213,4.407-4.697,4.296c-2.482-0.111-4.404-2.213-4.293-4.696
		C33.563,19.044,35.666,17.119,38.146,17.23z M25.592,13.525c2.483,0.11,4.406,2.212,4.295,4.694
		c-0.11,2.484-2.212,4.407-4.696,4.297c-2.483-0.11-4.406-2.213-4.294-4.697C21.007,15.337,23.11,13.414,25.592,13.525z
		 M12.636,24.128c-2.483-0.112-4.406-2.213-4.295-4.696c0.11-2.481,2.213-4.404,4.695-4.295c2.483,0.111,4.406,2.213,4.295,4.696
		C17.22,22.315,15.119,24.238,12.636,24.128z M26.195,32.194c2.978,0,5.391,2.413,5.391,5.391s-2.413,5.39-5.391,5.39
		c-2.977,0-5.391-2.412-5.391-5.39S23.218,32.194,26.195,32.194z"/>
	<path style="fill:#333333;" d="M63.777,21.338c-1.625-1.224-11.945,9.239-17.221,16.153c-1.682,2.205-3.129,4.375-4.266,6.351
		l5.152,3.876c1.605-1.622,3.32-3.591,5.002-5.795C57.721,35.007,65.404,22.562,63.777,21.338z"/>
	<polygon style="fill:#333333;" points="36.859,52.973 40.18,55.471 45.777,50.005 40.645,46.142 	"/>
	<path style="fill:#333333;" d="M32.707,54.049h-0.119c-0.951,0.061-1.814,0.379-2.692,0.985c-0.865,0.598-1.501,1.379-1.866,2.207
		l-0.32,0.868c-0.419,0.94-1.16,1.837-2.132,2.582c-1.396,1.066-2.991,1.553-4.34,1.445c1.566,1.583,6.387,2.057,9.62,1.796
		c0.864-0.045,1.642-0.137,2.256-0.273c3.27-0.726,5.443-3.421,4.859-6.025c-0.469-2.079-2.557-3.469-5.045-3.573
		c0,0-0.002,0-0.004,0"/>
</g>
</svg>
