<?xml version="1.0" encoding="iso-8859-1"?>
<!-- Generator: Adobe Illustrator 14.0.0, SVG Export Plug-In . SVG Version: 6.00 Build 43363)  -->
<!DOCTYPE svg PUBLIC "-//W3C//DTD SVG 1.1//EN" "http://www.w3.org/Graphics/SVG/1.1/DTD/svg11.dtd">
<svg version="1.1" id="icon-s-status-sip-layer" xmlns="http://www.w3.org/2000/svg" xmlns:xlink="http://www.w3.org/1999/xlink"
	 x="0px" y="0px" width="20px" height="18px" viewBox="0 0 20 18" style="enable-background:new 0 0 20 18;" xml:space="preserve">
<g id="icon-s-status-sip">
	<rect style="fill:none;" width="20" height="18"/>
	<path style="fill:#FFFFFF;" d="M18.322,0H1.677C1.023,0,0.488,0.535,0.488,1.188v11.897c0,0.654,0.535,1.189,1.188,1.189h2.563V18
		l3.084-3.725h10.999c0.654,0,1.189-0.535,1.189-1.189V1.188C19.512,0.535,18.977,0,18.322,0z M7.691,9.925
		c-0.148,0.315-0.358,0.587-0.623,0.807c-0.262,0.218-0.574,0.384-0.925,0.494c-0.345,0.106-0.721,0.16-1.118,0.16
		c-0.276,0-0.537-0.022-0.774-0.071c-0.236-0.046-0.45-0.104-0.633-0.172c-0.185-0.067-0.346-0.141-0.477-0.217
		c-0.141-0.081-0.236-0.149-0.298-0.215c-0.071-0.074-0.124-0.167-0.156-0.275c-0.029-0.096-0.042-0.215-0.042-0.363
		c0-0.102,0.005-0.187,0.015-0.253c0.01-0.078,0.028-0.145,0.053-0.2c0.035-0.08,0.086-0.141,0.151-0.179
		c0.149-0.087,0.319-0.073,0.562,0.089c0.096,0.063,0.221,0.133,0.373,0.209c0.151,0.076,0.336,0.148,0.551,0.215
		c0.205,0.064,0.45,0.096,0.725,0.096c0.204,0,0.39-0.027,0.554-0.08c0.16-0.053,0.298-0.125,0.412-0.219
		c0.109-0.089,0.191-0.197,0.25-0.328c0.06-0.132,0.089-0.287,0.089-0.459c0-0.178-0.039-0.33-0.116-0.451
		c-0.087-0.134-0.199-0.25-0.343-0.354c-0.154-0.11-0.333-0.213-0.531-0.306L4.737,7.549C4.509,7.442,4.284,7.323,4.068,7.195
		C3.842,7.061,3.637,6.899,3.458,6.717C3.275,6.529,3.125,6.306,3.012,6.055C2.896,5.799,2.837,5.492,2.837,5.143
		c0-0.358,0.066-0.686,0.199-0.971s0.32-0.529,0.558-0.724C3.83,3.256,4.11,3.108,4.428,3.01c0.475-0.146,1.03-0.191,1.578-0.098
		c0.185,0.032,0.363,0.075,0.528,0.129c0.167,0.055,0.318,0.116,0.449,0.185C7.13,3.301,7.221,3.36,7.278,3.416
		c0.054,0.055,0.091,0.102,0.114,0.143C7.413,3.598,7.43,3.644,7.443,3.699c0.01,0.044,0.018,0.095,0.023,0.155
		C7.471,3.91,7.473,3.979,7.473,4.063c0,0.081-0.003,0.154-0.01,0.219C7.455,4.354,7.442,4.416,7.426,4.466
		C7.401,4.547,7.36,4.61,7.304,4.656C7.171,4.766,7.019,4.771,6.763,4.617C6.671,4.563,6.559,4.502,6.426,4.434
		C6.3,4.369,6.148,4.309,5.975,4.254C5.657,4.155,5.201,4.146,4.913,4.25C4.78,4.299,4.671,4.361,4.588,4.438
		C4.507,4.514,4.448,4.6,4.408,4.702C4.366,4.81,4.344,4.925,4.344,5.045c0,0.176,0.038,0.322,0.117,0.444
		c0.085,0.133,0.202,0.254,0.347,0.358c0.155,0.111,0.336,0.216,0.537,0.312c0.214,0.102,0.433,0.202,0.654,0.306
		C6.224,6.569,6.451,6.687,6.67,6.813C6.9,6.945,7.108,7.104,7.29,7.285c0.186,0.186,0.338,0.408,0.452,0.66
		c0.115,0.256,0.174,0.56,0.174,0.902C7.916,9.246,7.84,9.609,7.691,9.925z M10.451,10.891c0,0.076-0.022,0.148-0.062,0.208
		c-0.044,0.065-0.11,0.114-0.196,0.145c-0.05,0.019-0.117,0.033-0.201,0.046c-0.079,0.012-0.175,0.019-0.286,0.019
		c-0.106,0-0.201-0.007-0.281-0.018c-0.086-0.013-0.154-0.028-0.205-0.047c-0.088-0.03-0.155-0.079-0.198-0.147
		c-0.039-0.057-0.061-0.129-0.061-0.205V3.359c0-0.08,0.024-0.155,0.071-0.218C9.08,3.08,9.146,3.033,9.232,3.006
		C9.285,2.988,9.351,2.973,9.433,2.96c0.167-0.024,0.405-0.022,0.557,0c0.085,0.013,0.152,0.028,0.203,0.046
		c0.086,0.031,0.152,0.08,0.196,0.145c0.04,0.061,0.062,0.133,0.062,0.209V10.891z M17.146,6.646
		C17.005,6.99,16.8,7.287,16.537,7.531c-0.264,0.242-0.588,0.432-0.965,0.563c-0.371,0.129-0.816,0.193-1.324,0.193H13.58v2.604
		c0,0.081-0.026,0.158-0.074,0.22c-0.041,0.056-0.104,0.103-0.184,0.133c-0.053,0.019-0.117,0.033-0.201,0.046
		c-0.08,0.012-0.176,0.019-0.286,0.019s-0.206-0.007-0.285-0.019c-0.084-0.013-0.15-0.027-0.201-0.046
		c-0.088-0.03-0.153-0.079-0.197-0.146c-0.04-0.061-0.062-0.132-0.062-0.207V3.65c0-0.231,0.071-0.404,0.21-0.52
		c0.126-0.102,0.269-0.152,0.427-0.152h1.68c0.176,0,0.348,0.008,0.508,0.021c0.166,0.016,0.36,0.049,0.579,0.096
		c0.233,0.051,0.473,0.147,0.713,0.286c0.241,0.139,0.45,0.315,0.621,0.521c0.17,0.206,0.302,0.447,0.394,0.717
		c0.091,0.266,0.137,0.563,0.137,0.881C17.357,5.919,17.286,6.305,17.146,6.646z"/>
	<path style="fill:#FFFFFF;" d="M15.301,4.496c-0.15-0.09-0.307-0.146-0.465-0.171c-0.176-0.026-0.35-0.04-0.516-0.04h-0.74v2.701
		h0.717c0.286,0,0.523-0.035,0.704-0.105c0.178-0.069,0.327-0.164,0.446-0.285c0.119-0.12,0.209-0.266,0.271-0.436
		c0.063-0.174,0.097-0.369,0.097-0.576c0-0.278-0.051-0.512-0.152-0.69C15.563,4.715,15.441,4.582,15.301,4.496z"/>
</g>
</svg>
