<?xml version="1.0" encoding="iso-8859-1"?>
<!-- Generator: Adobe Illustrator 14.0.0, SVG Export Plug-In . SVG Version: 6.00 Build 43363)  -->
<!DOCTYPE svg PUBLIC "-//W3C//DTD SVG 1.1//EN" "http://www.w3.org/Graphics/SVG/1.1/DTD/svg11.dtd">
<svg version="1.1" id="icon-s-organizer-layer" xmlns="http://www.w3.org/2000/svg" xmlns:xlink="http://www.w3.org/1999/xlink"
	 x="0px" y="0px" width="18px" height="18px" viewBox="0 0 18 18" style="enable-background:new 0 0 18 18;" xml:space="preserve">
<g id="icon-s-organizer">
	<path style="fill:#333333;" d="M6.631,13.264H1.895V3.789h1.895v0.947h6.632V3.789h0.947v3.789h1.896V2.842
		c0,0,0-0.947-0.948-0.947h-1.895C10.421,0,9.474,0,9.474,0H4.737c0,0-0.948,0-0.948,1.895H0.947c0,0-0.947,0-0.947,0.947v11.369
		c0,0,0,0.947,0.947,0.947h5.684V13.264z"/>
	<path style="fill:#333333;" d="M17.053,8.526V7.578c0-0.947-0.947-0.947-0.947-0.947s-0.947,0-0.947,0.947v0.948h-4.737V7.578
		c0-0.947-0.947-0.947-0.947-0.947s-0.948,0-0.948,0.947v0.948H7.579c0,0,0,5.685,0,7.578C7.579,18,8.526,18,8.526,18h8.527
		c0,0,0.947,0,0.947-1.896V8.526H17.053z M17.053,16.104h-3.789h-0.948h-3.79v-1.894h0.948v-1.895H8.526v-1.896l1.895-0.947h0.947
		v4.737h0.947l1.896-1.895c0,0-0.947-0.948-1.896,0v-1.896c0,0,0.948-0.947,2.843-0.947c0.947,0,1.895,0.642,1.895,1.895
		c0,0.948-1.895,2.843-1.895,2.843h1.895V16.104z"/>
</g>
</svg>
