<?xml version="1.0" encoding="iso-8859-1"?>
<!-- Generator: Adobe Illustrator 14.0.0, SVG Export Plug-In . SVG Version: 6.00 Build 43363)  -->
<!DOCTYPE svg PUBLIC "-//W3C//DTD SVG 1.1//EN" "http://www.w3.org/Graphics/SVG/1.1/DTD/svg11.dtd">
<svg version="1.1" id="icon-m-toolbar-media-server-layer"
	 xmlns="http://www.w3.org/2000/svg" xmlns:xlink="http://www.w3.org/1999/xlink" x="0px" y="0px" width="64px" height="64px"
	 viewBox="0 0 64 64" style="enable-background:new 0 0 64 64;" xml:space="preserve">
<g id="icon-m-toolbar-media-server">
	<rect style="fill:none;" width="64" height="64"/>
	<path style="fill:#FFFFFF;" d="M51.615,33.486h1.164v-1.742h-23.15v1.721v0.021h1.174c0.237,0,0.432,0.193,0.432,0.432v1.709
		c0,0.236-0.195,0.43-0.432,0.43h-1.174v0.021v1.828v0.014h4.919v7.939h-4.919v0.014v1.828v0.021h1.174
		c0.237,0,0.432,0.193,0.432,0.432v1.709c0,0.236-0.195,0.432-0.432,0.432h-1.174v0.02v1.721h23.15v-1.74h-1.164
		c-0.237,0-0.432-0.195-0.432-0.432v-1.729c0-0.238,0.194-0.433,0.432-0.433h1.164v-1.828h-0.895v-7.967h0.895v-1.828h-1.164
		c-0.237,0-0.432-0.193-0.432-0.433v-1.728C51.184,33.68,51.378,33.486,51.615,33.486z M45.565,33.918
		c0-0.238,0.194-0.432,0.433-0.432h1.729c0.237,0,0.432,0.193,0.432,0.432v1.728c0,0.239-0.194,0.433-0.432,0.433h-1.729
		c-0.238,0-0.433-0.193-0.433-0.433V33.918z M39.93,33.918c0-0.238,0.195-0.432,0.433-0.432h1.729c0.238,0,0.432,0.193,0.432,0.432
		v1.728c0,0.239-0.193,0.433-0.432,0.433h-1.729c-0.237,0-0.433-0.193-0.433-0.433V33.918z M36.87,49.863
		c0,0.236-0.194,0.432-0.433,0.432h-1.729c-0.238,0-0.432-0.195-0.432-0.432v-1.709c0-0.238,0.193-0.432,0.432-0.432h1.729
		c0.238,0,0.433,0.193,0.433,0.432V49.863z M36.87,35.627c0,0.236-0.194,0.43-0.433,0.43h-1.729c-0.238,0-0.432-0.193-0.432-0.43
		v-1.709c0-0.238,0.193-0.432,0.432-0.432h1.729c0.238,0,0.433,0.193,0.433,0.432V35.627z M42.522,49.863
		c0,0.236-0.193,0.432-0.432,0.432h-1.729c-0.237,0-0.433-0.195-0.433-0.432v-1.729c0-0.238,0.195-0.433,0.433-0.433h1.729
		c0.238,0,0.432,0.194,0.432,0.433V49.863z M48.158,49.863c0,0.236-0.194,0.432-0.432,0.432h-1.729
		c-0.238,0-0.433-0.195-0.433-0.432v-1.729c0-0.238,0.194-0.433,0.433-0.433h1.729c0.237,0,0.432,0.194,0.432,0.433V49.863z
		 M48.851,45.873H37.52v-0.014h-0.006V37.92h0.006v-0.014h4.772h0.104h6.454V45.873z"/>
	<path style="fill:#FFFFFF;" d="M25.976,27.801H36.97v-13.77c0-1.102-0.906-1.996-2.021-1.996H14.754
		c-1.116,0-2.02,0.895-2.02,1.996v27.944c0,1.102,0.904,1.997,2.02,1.997h11.222V27.801z M17.751,28.281
		c0-0.283,0.233-0.515,0.516-0.515h2.578c0.284,0,0.516,0.231,0.516,0.515v2.575c0,0.285-0.231,0.515-0.516,0.515h-2.578
		c-0.283,0-0.516-0.229-0.516-0.515V28.281z M17.634,22.15c0-0.283,0.231-0.516,0.516-0.516h13.406c0.283,0,0.516,0.232,0.516,0.516
		v2.061c0,0.283-0.233,0.516-0.516,0.516H18.149c-0.284,0-0.516-0.232-0.516-0.516V22.15z M17.634,16.871
		c0-0.283,0.231-0.517,0.516-0.517h13.406c0.283,0,0.516,0.233,0.516,0.517v2.061c0,0.283-0.233,0.514-0.516,0.514H18.149
		c-0.284,0-0.516-0.23-0.516-0.514V16.871z"/>
</g>
</svg>
