<?xml version="1.0" encoding="iso-8859-1"?>
<!-- Generator: Adobe Illustrator 14.0.0, SVG Export Plug-In . SVG Version: 6.00 Build 43363)  -->
<!DOCTYPE svg PUBLIC "-//W3C//DTD SVG 1.1//EN" "http://www.w3.org/Graphics/SVG/1.1/DTD/svg11.dtd">
<svg version="1.1" id="icon-l-calculator-layer" xmlns="http://www.w3.org/2000/svg" xmlns:xlink="http://www.w3.org/1999/xlink"
	 x="0px" y="0px" width="68px" height="68px" viewBox="0 0 68 68" style="enable-background:new 0 0 68 68;" xml:space="preserve">
<g id="icon-l-calculator">
	<g>
		<path style="opacity:0.2;fill:#010101;" d="M49.135,6.957H18.864c-1.866,0.007-3.357,1.505-3.366,3.361V60.77
			c0.008,1.86,1.507,3.359,3.366,3.362h30.271c1.855-0.003,3.357-1.497,3.363-3.362V10.318C52.488,8.455,50.998,6.964,49.135,6.957z
			"/>
		<path style="opacity:0.5;fill:#010101;" d="M17.183,57.121v3.648c0,0.928,0.754,1.684,1.681,1.684h30.271
			c0.924,0,1.683-0.756,1.683-1.684v-3.658L17.183,57.121z"/>
		<linearGradient id="SVGID_1_" gradientUnits="userSpaceOnUse" x1="34" y1="1.9092" x2="34" y2="62.4488">
			<stop  offset="0" style="stop-color:#5F83C2"/>
			<stop  offset="1" style="stop-color:#283176"/>
		</linearGradient>
		<path style="fill:url(#SVGID_1_);" d="M49.135,6.957H18.864c-0.927,0-1.681,0.76-1.681,1.682V59.09c0,0.927,0.754,1.68,1.681,1.68
			h30.271c0.924,0,1.683-0.753,1.683-1.68V8.639C50.817,7.717,50.059,6.957,49.135,6.957z"/>
		<path style="fill:#FFFFFF;" d="M23.068,35.546c0,0.927,0.755,1.682,1.682,1.682h1.682c0.922,0,1.681-0.755,1.681-1.682v-1.683
			c0-0.922-0.759-1.682-1.681-1.682H24.75c-0.927,0-1.682,0.76-1.682,1.682V35.546z"/>
		<path style="fill:#FFFFFF;" d="M31.478,35.546c0,0.927,0.755,1.682,1.681,1.682h1.682c0.923,0,1.682-0.755,1.682-1.682v-1.683
			c0-0.922-0.759-1.682-1.682-1.682h-1.682c-0.926,0-1.681,0.76-1.681,1.682V35.546z"/>
		<path style="fill:#FFFFFF;" d="M41.566,32.182c-0.926,0-1.681,0.76-1.681,1.682v1.683c0,0.927,0.755,1.682,1.681,1.682h1.684
			c0.922,0,1.682-0.755,1.682-1.682v-1.683c0-0.922-0.76-1.682-1.682-1.682H41.566z"/>
		<path style="fill:#FFFFFF;" d="M23.068,43.955c0,0.927,0.755,1.682,1.682,1.682h1.682c0.922,0,1.681-0.755,1.681-1.682v-1.683
			c0-0.922-0.759-1.682-1.681-1.682H24.75c-0.927,0-1.682,0.76-1.682,1.682V43.955z"/>
		<path style="fill:#FFFFFF;" d="M31.478,43.955c0,0.927,0.755,1.682,1.681,1.682h1.682c0.923,0,1.682-0.755,1.682-1.682v-1.683
			c0-0.922-0.759-1.682-1.682-1.682h-1.682c-0.926,0-1.681,0.76-1.681,1.682V43.955z"/>
		<path style="fill:#FFFFFF;" d="M39.886,43.955c0,0.927,0.755,1.682,1.681,1.682h1.684c0.922,0,1.682-0.755,1.682-1.682v-1.683
			c0-0.922-0.76-1.682-1.682-1.682h-1.684c-0.926,0-1.681,0.76-1.681,1.682V43.955z"/>
		<path style="fill:#FFFFFF;" d="M23.068,52.362c0,0.927,0.755,1.683,1.682,1.683h1.682c0.922,0,1.681-0.756,1.681-1.683v-1.682
			c0-0.922-0.759-1.682-1.681-1.682H24.75c-0.927,0-1.682,0.76-1.682,1.682V52.362z"/>
		<path style="fill:#FFFFFF;" d="M31.478,52.362c0,0.927,0.755,1.683,1.681,1.683h1.682c0.923,0,1.682-0.756,1.682-1.683v-1.682
			c0-0.922-0.759-1.682-1.682-1.682h-1.682c-0.926,0-1.681,0.76-1.681,1.682V52.362z"/>
		<path style="fill:#FFFFFF;" d="M39.886,52.362c0,0.927,0.755,1.683,1.681,1.683h1.684c0.922,0,1.682-0.756,1.682-1.683v-1.682
			c0-0.922-0.76-1.682-1.682-1.682h-1.684c-0.926,0-1.681,0.76-1.681,1.682V52.362z"/>
		<linearGradient id="SVGID_2_" gradientUnits="userSpaceOnUse" x1="34.0005" y1="27.1377" x2="34.0005" y2="13.6827">
			<stop  offset="0" style="stop-color:#5F83C2"/>
			<stop  offset="1" style="stop-color:#283176"/>
		</linearGradient>
		<rect x="18.864" y="12.001" style="fill:url(#SVGID_2_);" width="30.272" height="15.137"/>
		<linearGradient id="SVGID_3_" gradientUnits="userSpaceOnUse" x1="33.9995" y1="15.3652" x2="33.9995" y2="57.4129">
			<stop  offset="0" style="stop-color:#DEEDF8"/>
			<stop  offset="1" style="stop-color:#3AC5F2"/>
		</linearGradient>
		<rect x="20.547" y="13.683" style="fill:url(#SVGID_3_);" width="26.906" height="11.773"/>
		<polygon style="fill:#010101;" points="37.73,23.773 32.317,23.773 32.317,22.761 34.128,22.761 34.128,16.592 32.317,16.979 
			32.317,15.969 34.996,15.134 36.023,15.134 36.023,22.761 37.73,22.761 		"/>
		<path style="fill:#010101;" d="M44.438,23.773h-5.436v-0.751c0-0.617,0.168-2.14,2.225-3.755c1.225-1.09,1.201-1.491,1.201-1.802
			c0-0.817-0.541-1.828-3.133-0.835v-1.165c0.787-0.234,1.549-0.369,2.293-0.353c2.506,0.052,2.777,1.529,2.777,2.283
			c0,0.447,0.162,1.203-1.701,2.784c-2,1.703-1.814,2.191-1.839,2.451h3.61L44.438,23.773L44.438,23.773z"/>
		<polygon style="opacity:0.25;fill:#FFFFFF;" points="40.897,13.683 20.547,13.683 20.547,23.175 		"/>
	</g>
	<rect style="fill:none;" width="68" height="68"/>
</g>
</svg>
