<?xml version="1.0" encoding="iso-8859-1"?>
<!-- Generator: Adobe Illustrator 14.0.0, SVG Export Plug-In . SVG Version: 6.00 Build 43363)  -->
<!DOCTYPE svg PUBLIC "-//W3C//DTD SVG 1.1//EN" "http://www.w3.org/Graphics/SVG/1.1/DTD/svg11.dtd">
<svg version="1.1" id="icon-m-framework-done-layer"
	 xmlns="http://www.w3.org/2000/svg" xmlns:xlink="http://www.w3.org/1999/xlink" x="0px" y="0px" width="40px" height="28px"
	 viewBox="0 0 40 28" style="enable-background:new 0 0 40 28;" xml:space="preserve">
<g id="icon-m-framework-done">
	<path style="fill:#FFFFFF;" d="M38.973,0.379C38.896,0.149,38.67-0.005,38.419,0c-14.35,0.277-24.955,14.276-27.116,17.313
		l-7.058-7.078c-0.214-0.216-0.575-0.227-0.802-0.019l-4.264,3.837C-0.932,14.156-0.996,14.295-1,14.443
		c-0.003,0.153,0.055,0.291,0.164,0.398l12.784,12.529c0.106,0.107,0.257,0.165,0.408,0.165c0.015,0,0.032-0.001,0.048-0.003
		c0.168-0.014,0.324-0.101,0.419-0.231C19.007,18.756,25.5,12.176,30.439,7.734c4.944-4.44,8.313-6.726,8.317-6.734
		C38.964,0.862,39.05,0.609,38.973,0.379z"/>
</g>
</svg>
