<?xml version="1.0" encoding="iso-8859-1"?>
<!-- Generator: Adobe Illustrator 13.0.2, SVG Export Plug-In . SVG Version: 6.00 Build 14948)  -->
<!DOCTYPE svg PUBLIC "-//W3C//DTD SVG 1.1//EN" "http://www.w3.org/Graphics/SVG/1.1/DTD/svg11.dtd">
<svg version="1.1" xmlns="http://www.w3.org/2000/svg" xmlns:xlink="http://www.w3.org/1999/xlink" x="0px" y="0px" width="64px"
	 height="64px" viewBox="0 0 64 64" style="enable-background:new 0 0 64 64;" xml:space="preserve">
	<g id="icon-m-toolbar-new-chat">
		<rect style="fill:none;" width="64" height="64"/>
		<path style="fill:#FFFFFF;" d="M24.988,29.582H5.128v-4.871h17.834C22.34,22.58,22,20.328,22,18c0-0.312,0.012-0.619,0.023-0.927
			H2.938C1.323,17.073,0,18.394,0,20.011v30.729c0,1.608,1.323,2.935,2.938,2.935h3.959v9.033c0,0-0.022,0.982,0.896,1.254
			c0.819,0.25,1.445-0.813,1.445-0.813l5.798-9.474h31.208c1.619,0,2.936-1.326,2.936-2.935v-8.958C48.14,41.92,47.079,42,46,42
			C36.964,42,29.082,36.979,24.988,29.582z M22.982,39.389H5.128v-4.87h17.854V39.389z"/>
		<path style="fill:#FFFFFF;" d="M46,0c-9.941,0-18,8.057-18,18c0,9.939,8.059,18,18,18s18-8.061,18-18C64,8.057,55.941,0,46,0z
			 M57.5,22.125l-2.685,4.335l-6.267-3.883v7.372h-5.098v-7.372l-6.268,3.883L34.5,22.125L41.16,18l-6.66-4.128l2.684-4.335
			l6.268,3.885V6.049h5.098v7.373l6.267-3.882l2.685,4.332L50.841,18L57.5,22.125z"/>
	</g>
</svg>
