<?xml version="1.0" encoding="iso-8859-1"?>
<!-- Generator: Adobe Illustrator 14.0.0, SVG Export Plug-In . SVG Version: 6.00 Build 43363)  -->
<!DOCTYPE svg PUBLIC "-//W3C//DTD SVG 1.1//EN" "http://www.w3.org/Graphics/SVG/1.1/DTD/svg11.dtd">
<svg version="1.1" id="icon-m-input-methods-error-correction-layer"
	 xmlns="http://www.w3.org/2000/svg" xmlns:xlink="http://www.w3.org/1999/xlink" x="0px" y="0px" width="34px" height="33px"
	 viewBox="0 0 34 33" style="enable-background:new 0 0 34 33;" xml:space="preserve">
<g id="icon-m-input-methods-error-correction">
	<rect style="fill:none;" width="33" height="33"/>
	<path style="fill:#333333;" d="M3.848,32.209L0.769,29.13c-1.062-1.062-0.948-2.902,0.252-4.104l3.625-3.624l6.932,6.932
		l-3.624,3.625C6.752,33.16,4.911,33.272,3.848,32.209L3.848,32.209z M4.52,23.455L1.984,25.99c-0.601,0.6-0.657,1.521-0.127,2.051
		l3.079,3.08c0.531,0.53,1.452,0.475,2.053-0.126l2.535-2.536L4.52,23.455L4.52,23.455z"/>
	<path style="fill:#333333;" d="M6.572,20.2l6.209,6.224c0.341,0.342,0.901,0.342,1.243,0l14.817-14.842
		c0.341-0.341,0.746-0.996,0.898-1.455l3.174-9.525c0.154-0.459-0.098-0.709-0.555-0.557l-9.512,3.174
		c-0.46,0.153-1.115,0.559-1.456,0.9L6.572,18.956C6.23,19.298,6.23,19.857,6.572,20.2z M26.959,4.094l1.91,1.911l-1.268,3.803
		l-1.681,1.684l-4.404-4.482l1.646-1.647L26.959,4.094z"/>
</g>
</svg>
