<?xml version="1.0" encoding="iso-8859-1"?>
<!-- Generator: Adobe Illustrator 13.0.2, SVG Export Plug-In . SVG Version: 6.00 Build 14948)  -->
<!DOCTYPE svg PUBLIC "-//W3C//DTD SVG 1.1//EN" "http://www.w3.org/Graphics/SVG/1.1/DTD/svg11.dtd">
<svg version="1.1" xmlns="http://www.w3.org/2000/svg" xmlns:xlink="http://www.w3.org/1999/xlink" x="0px" y="0px" width="64px"
	 height="64px" viewBox="0 0 64 64" style="enable-background:new 0 0 64 64;" xml:space="preserve">
	<g id="icon-m-toolbar-reply">
		<path style="fill:#FFFFFF;" d="M0,32c0,17.671,14.326,32,32,32s32-14.329,32-32C64,14.326,49.674,0,32,0S0,14.326,0,32z
			 M12.833,31.139l14.746-15.328c0.856-0.78,1.965-0.014,1.965,0.877v7.633l20.832,0.006c0.655-0.006,1.18,0.516,1.18,1.185v11.375
			c0.004,0.734-0.616,1.177-1.18,1.177H29.544v9.202c0,0.796-0.948,1.802-1.965,0.879L12.838,32.89
			C12.313,32.42,12.315,31.608,12.833,31.139z"/>
	</g>
</svg>
