<?xml version="1.0" encoding="iso-8859-1"?>
<!-- Generator: Adobe Illustrator 14.0.0, SVG Export Plug-In . SVG Version: 6.00 Build 43363)  -->
<!DOCTYPE svg PUBLIC "-//W3C//DTD SVG 1.1//EN" "http://www.w3.org/Graphics/SVG/1.1/DTD/svg11.dtd">
<svg version="1.1" id="icon-m-toolbar-favorite-mark-layer"
	 xmlns="http://www.w3.org/2000/svg" xmlns:xlink="http://www.w3.org/1999/xlink" x="0px" y="0px" width="64px" height="64px"
	 viewBox="0 0 64 64" style="enable-background:new 0 0 64 64;" xml:space="preserve">
<g id="icon-m-toolbar-favorite-mark">
	<rect style="fill:none;" width="64" height="64"/>
	<path style="fill:#FFFFFF;" d="M54.274,27.615c0.597-0.445,0.478-0.808-0.267-0.808H40.29c-0.743,0-1.548-0.577-1.782-1.281
		l-4.361-12.997c-0.236-0.705-0.623-0.705-0.859,0l-4.364,12.997c-0.236,0.704-1.039,1.281-1.782,1.281H13.426
		c-0.746,0-0.864,0.362-0.267,0.808l10.97,8.153c0.6,0.443,0.892,1.384,0.655,2.09l-4.502,13.407
		c-0.238,0.705,0.074,0.945,0.694,0.533l11.614-7.737c0.62-0.411,1.632-0.411,2.251,0l11.61,7.737
		c0.619,0.412,0.933,0.172,0.695-0.533l-4.501-13.407c-0.236-0.706,0.058-1.646,0.655-2.09L54.274,27.615z"/>
</g>
</svg>
