<?xml version="1.0" encoding="iso-8859-1"?>
<!-- Generator: Adobe Illustrator 14.0.0, SVG Export Plug-In . SVG Version: 6.00 Build 43363)  -->
<!DOCTYPE svg PUBLIC "-//W3C//DTD SVG 1.1//EN" "http://www.w3.org/Graphics/SVG/1.1/DTD/svg11.dtd">
<svg version="1.1" id="icon-m-telephony-ongoing-muted-layer"
	 xmlns="http://www.w3.org/2000/svg" xmlns:xlink="http://www.w3.org/1999/xlink" x="0px" y="0px" width="40px" height="41px"
	 viewBox="0 0 40 41" style="enable-background:new 0 0 40 41;" xml:space="preserve">
<g id="icon-m-telephony-ongoing-muted">
	<rect style="fill:none;" width="40" height="40"/>
	<g>
		<path style="fill:#FFFFFF;" d="M24.453,10.807L12.929,0.225c-0.329-0.3-0.868-0.3-1.197,0L0.207,10.807
			c-0.329,0.3-0.263,0.544,0.182,0.544H3.17v10.73h5.166v-7.55c-0.006-0.727,0.795-0.794,0.795-0.794h2.782c0,0,0.795,0,0.795,0.794
			v7.55h8.743v-10.73h2.782C24.677,11.351,24.782,11.106,24.453,10.807z"/>
	</g>
	<g>
		<g>
			<path style="fill:#FFFFFF;" d="M20.473,31.709c-0.304,0.529-0.562,1.047-0.75,1.542c-0.809,2.116,0.844,5.462,2.148,6.499
				c0,0.006,0.672,0.563,1.174-0.008l2.328-3.133L20.473,31.709z"/>
			
				<rect x="24.387" y="22.318" transform="matrix(0.7073 -0.7069 0.7069 0.7073 -14.6574 26.8138)" style="fill:#FFFFFF;" width="1.326" height="17.578"/>
			<path style="fill:#FFFFFF;" d="M39.75,21.898c-1.046-1.29-4.466-3.092-6.525-2.126c-2.102,0.986-5.313,3.419-8.122,6.206
				l2.245,2.245c1.488-1.503,3.15-3.094,3.577-3.363c1.123-0.705,2.88,1.72,2.88,1.72c0.484,0.482,0.884,0.244,1.191,0.009
				l4.748-3.514C40.315,22.567,39.754,21.898,39.75,21.898z"/>
		</g>
	</g>
</g>
</svg>
