<?xml version="1.0" encoding="iso-8859-1"?>
<!-- Generator: Adobe Illustrator 14.0.0, SVG Export Plug-In . SVG Version: 6.00 Build 43363)  -->
<!DOCTYPE svg PUBLIC "-//W3C//DTD SVG 1.1//EN" "http://www.w3.org/Graphics/SVG/1.1/DTD/svg11.dtd">
<svg version="1.1" id="icon-m-content-word-layer" xmlns="http://www.w3.org/2000/svg" xmlns:xlink="http://www.w3.org/1999/xlink"
	 x="0px" y="0px" width="64px" height="64px" viewBox="0 0 64 64" style="enable-background:new 0 0 64 64;" xml:space="preserve">
<g id="icon-m-content-word">
	<rect style="fill:none;" width="64" height="64"/>
	<polygon style="fill:#333333;" points="38.668,0.359 38.668,22.235 59.873,22.235 59.873,21.562 	"/>
	<path style="fill:#333333;" d="M38.152,27.396c-2.563,0-4.645-2.084-4.645-4.645V0H6.194C5.059,0,4.127,0.93,4.127,2.064v59.871
		C4.127,63.071,5.059,64,6.194,64h51.615c1.133,0,2.064-0.929,2.064-2.064V27.396H38.152z M34.18,54.469
		c-0.343,0.07-0.662,0.135-0.945,0.196c-0.619,0.134-1.237,0.275-1.854,0.416c-2.546,0.581-5.179,1.182-7.571,1.182
		c-2.743,0.001-4.896-0.805-6.582-2.461c-2.713-2.668-3.835-7.688-4.825-12.115l-0.419-1.848c-0.507-2.181-1.139-4.896,0.043-6.491
		c0.561-0.757,1.483-1.184,2.741-1.268c5.737-0.377,6.923,4.995,8.065,10.181l0.224,1.01c0.156,0.693,0.281,1.476,0.415,2.303
		c0.299,1.868,0.61,3.8,1.291,4.764c0.531,0.752,1.487,1.102,3.007,1.102c0.938,0,1.971-0.133,2.986-0.275
		c-1.372-2.06-2.068-4.487-2.836-8.136l-0.092-0.43c-0.344-1.597-0.733-3.406-0.372-5.254c0.269-1.375,1.456-2.263,3.024-2.263
		c0.812,0,1.611,0.252,2.253,0.71c1.394,0.995,1.722,3.172,2.069,5.477c0.092,0.613,0.186,1.232,0.301,1.836
		c0.066,0.348,0.131,0.723,0.199,1.11c0.385,2.217,0.865,4.976,2.098,5.514c0.338,0.147,0.813,0.161,1.272,0.175
		c0.942,0.027,2.114,0.062,2.194,1.437C40.966,53.085,37.043,53.885,34.18,54.469z M46.307,51.54
		c-0.468,0.548-1.146,0.837-1.964,0.837h-0.038c-2.568-0.03-3.064-2.759-3.544-5.398l-0.128-0.701
		c-0.105-0.551-0.249-1.165-0.399-1.803c-0.74-3.145-1.579-6.708,1.017-7.687c0.467-0.175,0.912-0.264,1.324-0.264
		c2.877,0,3.444,3.812,3.9,6.875c0.052,0.346,0.098,0.656,0.146,0.954C47.07,47.18,47.537,50.099,46.307,51.54z"/>
</g>
</svg>
