<?xml version="1.0" encoding="iso-8859-1"?>
<!-- Generator: Adobe Illustrator 14.0.0, SVG Export Plug-In . SVG Version: 6.00 Build 43363)  -->
<!DOCTYPE svg PUBLIC "-//W3C//DTD SVG 1.1//EN" "http://www.w3.org/Graphics/SVG/1.1/DTD/svg11.dtd">
<svg version="1.1" id="icon-s-status-silent-layer" xmlns="http://www.w3.org/2000/svg" xmlns:xlink="http://www.w3.org/1999/xlink"
	 x="0px" y="0px" width="15px" height="18px" viewBox="0 0 15 18" style="enable-background:new 0 0 15 18;" xml:space="preserve">
<g id="icon-s-status-silent">
	<rect style="fill:none;" width="15" height="18"/>
	<path style="fill:#FFFFFF;" d="M8.147,4.176V2.094h5.995V0H6.677C6.323,0,6.034,0.289,6.034,0.644v1.42L8.147,4.176z"/>
	<path style="fill:#FFFFFF;" d="M6.034,10.313v2.066C5.176,12.072,3.815,12.02,2.8,12.586c-1.651,0.912-2.381,2.635-1.671,3.92
		c0.713,1.289,2.595,1.861,4.562,1.246C6.881,17.38,8,16.349,8.13,15.395c0.009-0.104,0.019-0.896,0.019-0.975v-1.994L6.034,10.313z
		"/>
	
		<rect x="6.584" y="-1.845" transform="matrix(0.7071 -0.7071 0.7071 0.7071 -3.2165 7.5453)" style="fill:#FFFFFF;" width="1.831" height="19"/>
</g>
</svg>
