<?xml version="1.0" encoding="iso-8859-1"?>
<!-- Generator: Adobe Illustrator 14.0.0, SVG Export Plug-In . SVG Version: 6.00 Build 43363)  -->
<!DOCTYPE svg PUBLIC "-//W3C//DTD SVG 1.1//EN" "http://www.w3.org/Graphics/SVG/1.1/DTD/svg11.dtd">
<svg version="1.1" id="icon-s-framework-close-thumbnail-layer"
	 xmlns="http://www.w3.org/2000/svg" xmlns:xlink="http://www.w3.org/1999/xlink" x="0px" y="0px" width="18px" height="18px"
	 viewBox="0 0 18 18" style="enable-background:new 0 0 18 18;" xml:space="preserve">
<g id="icon-s-framework-close-thumbnail">
	<rect style="fill:none;" width="18" height="18"/>
	<path id="Icon-m-close_3_" style="fill:#FFFFFF;" d="M17.399,14.458c0.808,0.809,0.798,2.122-0.011,2.922
		c-0.401,0.403-0.928,0.608-1.459,0.608c-0.527,0-1.057-0.205-1.459-0.608l-5.472-5.46l-5.465,5.46
		c-0.402,0.403-0.934,0.608-1.459,0.608c-0.529,0-1.062-0.205-1.464-0.608c-0.804-0.8-0.813-2.108-0.005-2.92l5.477-5.456
		L0.606,3.538c-0.808-0.802-0.808-2.112,0-2.923c0.805-0.805,2.12-0.805,2.928,0L9.001,6.08l5.469-5.465
		c0.809-0.805,2.111-0.805,2.918,0c0.809,0.811,0.818,2.121,0.011,2.925l-5.474,5.459L17.399,14.458z"/>
</g>
</svg>
