<?xml version="1.0" encoding="iso-8859-1"?>
<!-- Generator: Adobe Illustrator 14.0.0, SVG Export Plug-In . SVG Version: 6.00 Build 43363)  -->
<!DOCTYPE svg PUBLIC "-//W3C//DTD SVG 1.1//EN" "http://www.w3.org/Graphics/SVG/1.1/DTD/svg11.dtd">
<svg version="1.1" id="icon-l-backup-layer" xmlns="http://www.w3.org/2000/svg" xmlns:xlink="http://www.w3.org/1999/xlink"
	 x="0px" y="0px" width="54px" height="51px" viewBox="0 0 54 51" style="enable-background:new 0 0 54 51;" xml:space="preserve">
<g id="icon-l-backup">
	<polygon style="opacity:0.2;stroke:#010101;stroke-width:2.5;stroke-linecap:round;stroke-linejoin:round;" points="51.889,50 
		3.313,50 3.313,1.422 51.889,1.422 51.889,50 	"/>
	<polygon style="opacity:0.5;" points="51.889,50 3.313,50 3.313,1.422 51.889,1.422 51.889,50 	"/>
	<linearGradient id="SVGID_1_" gradientUnits="userSpaceOnUse" x1="27.6001" y1="0.4023" x2="27.6001" y2="48.9829">
		<stop  offset="0" style="stop-color:#B3B3B3"/>
		<stop  offset="0.1999" style="stop-color:#ADADAD"/>
		<stop  offset="0.4615" style="stop-color:#9D9D9D"/>
		<stop  offset="0.756" style="stop-color:#828282"/>
		<stop  offset="1" style="stop-color:#666666"/>
	</linearGradient>
	<polygon style="fill:url(#SVGID_1_);" points="51.889,48.982 3.313,48.982 3.313,0.402 51.889,0.402 51.889,48.982 	"/>
	<linearGradient id="SVGID_2_" gradientUnits="userSpaceOnUse" x1="28.9346" y1="6.873" x2="28.9346" y2="42.5122">
		<stop  offset="0" style="stop-color:#404040"/>
		<stop  offset="1" style="stop-color:#000000"/>
	</linearGradient>
	<polygon style="fill:url(#SVGID_2_);" points="48.088,21.145 48.088,11.393 45.42,11.393 45.42,6.873 9.781,6.873 9.781,42.512 
		45.42,42.512 45.42,38.453 48.088,38.453 48.088,28.699 45.42,28.699 45.42,21.145 	"/>
	<g>
		<path style="opacity:0.3;fill:#010101;" d="M16.884,25.365c0-6.15,4.99-11.146,11.147-11.146c6.154,0,11.145,4.996,11.145,11.146
			c0,6.156-4.99,11.145-11.145,11.145C21.874,36.51,16.884,31.521,16.884,25.365z"/>
		<g>
			<defs>
				<path id="SVGID_3_" d="M16.884,24.01c0-6.148,4.99-11.145,11.147-11.145c6.154,0,11.145,4.996,11.145,11.145
					c0,6.158-4.99,11.145-11.145,11.145C21.874,35.154,16.884,30.168,16.884,24.01z"/>
			</defs>
			<clipPath id="SVGID_4_">
				<use xlink:href="#SVGID_3_"  style="overflow:visible;"/>
			</clipPath>
			<g style="clip-path:url(#SVGID_4_);">
				<linearGradient id="SVGID_5_" gradientUnits="userSpaceOnUse" x1="28.0303" y1="12.8652" x2="28.0303" y2="35.1548">
					<stop  offset="0" style="stop-color:#FFFFFF"/>
					<stop  offset="1" style="stop-color:#B3B2C9"/>
				</linearGradient>
				<path style="fill:url(#SVGID_5_);" d="M16.884,24.01c0-6.148,4.99-11.145,11.147-11.145c6.154,0,11.145,4.996,11.145,11.145
					c0,6.158-4.99,11.145-11.145,11.145C21.874,35.154,16.884,30.168,16.884,24.01z"/>
				<g style="opacity:0.5;">
					<g>
						<linearGradient id="SVGID_6_" gradientUnits="userSpaceOnUse" x1="16.2578" y1="23.8047" x2="39.8262" y2="23.8047">
							<stop  offset="0" style="stop-color:#404040"/>
							<stop  offset="1" style="stop-color:#000000"/>
						</linearGradient>
						<path style="fill:url(#SVGID_6_);" d="M27.559,12.277L26.93,19.83l2.287,0.033l-0.646-7.586H27.559z M27.439,35.332h1.012
							l0.582-6.893H26.93L27.439,35.332z M32.41,22.953l-0.035,2.143l7.451-0.518v-1.012L32.41,22.953z M23.912,23.064l-7.654,0.449
							v1.01l7.619,0.537L23.912,23.064z M25.475,20.23l-5.684-4.824l-0.717,0.717l4.838,5.703L25.475,20.23z M19.463,32.295
							l0.711,0.711l5.594-4.785l-1.639-1.674L19.463,32.295z M30.338,27.711l5.654,4.906l0.715-0.711L31.9,26.188L30.338,27.711z
							 M36.857,16.279l-0.709-0.715l-5.482,4.633l1.494,1.666L36.857,16.279z"/>
					</g>
				</g>
			</g>
			<linearGradient id="SVGID_7_" gradientUnits="userSpaceOnUse" x1="28.0303" y1="19.0566" x2="28.0303" y2="28.9712">
				<stop  offset="0" style="stop-color:#FFFFFF"/>
				<stop  offset="1" style="stop-color:#B3B2C9"/>
			</linearGradient>
			<path style="clip-path:url(#SVGID_4_);fill:url(#SVGID_7_);" d="M28.031,28.971c-2.734,0-4.958-2.225-4.958-4.959
				c0-2.732,2.224-4.955,4.958-4.955c2.732,0,4.955,2.223,4.955,4.955C32.986,26.746,30.764,28.971,28.031,28.971L28.031,28.971z"/>
			<g style="opacity:0.6;clip-path:url(#SVGID_4_);">
				<g>
					<linearGradient id="SVGID_8_" gradientUnits="userSpaceOnUse" x1="28.0303" y1="16.3027" x2="28.0303" y2="31.7251">
						<stop  offset="0" style="stop-color:#404040"/>
						<stop  offset="1" style="stop-color:#000000"/>
					</linearGradient>
					<path style="fill:url(#SVGID_8_);" d="M28.031,16.303c-4.252,0-7.713,3.457-7.713,7.709s3.461,7.713,7.713,7.713
						c4.25,0,7.711-3.461,7.711-7.713S32.281,16.303,28.031,16.303z M28.031,28.42c-2.436,0-4.406-1.975-4.406-4.408
						c0-2.432,1.971-4.404,4.406-4.404c2.432,0,4.406,1.973,4.406,4.404C32.438,26.445,30.463,28.42,28.031,28.42z"/>
				</g>
			</g>
		</g>
	</g>
	<g>
		<defs>
			<polygon id="SVGID_9_" points="1.101,33.453 1,-0.24 54.57,-1 54.461,9.648 			"/>
		</defs>
		<clipPath id="SVGID_10_">
			<use xlink:href="#SVGID_9_"  style="overflow:visible;"/>
		</clipPath>
		<polygon style="opacity:0.3;clip-path:url(#SVGID_10_);fill:#FFFFFF;" points="51.889,48.982 3.313,48.982 3.313,0.402 
			51.889,0.402 51.889,48.982 		"/>
	</g>
	<polygon style="opacity:0.25;fill:#FFFFFF;" points="51.889,0.402 3.29,0.406 3.313,48.982 5.838,46.418 5.838,2.953 49.367,2.889 
			"/>
	<polygon style="opacity:0.25;fill:#010101;" points="49.367,2.889 49.332,46.482 5.838,46.418 3.313,48.982 51.91,49.049 
		51.889,0.402 	"/>
</g>
</svg>
