<?xml version="1.0" encoding="iso-8859-1"?>
<!-- Generator: Adobe Illustrator 14.0.0, SVG Export Plug-In . SVG Version: 6.00 Build 43363)  -->
<!DOCTYPE svg PUBLIC "-//W3C//DTD SVG 1.1//EN" "http://www.w3.org/Graphics/SVG/1.1/DTD/svg11.dtd">
<svg version="1.1" id="icon-m-messaging-smiley-surprised-layer"
	 xmlns="http://www.w3.org/2000/svg" xmlns:xlink="http://www.w3.org/1999/xlink" x="0px" y="0px" width="64px" height="64px"
	 viewBox="0 0 64 64" style="enable-background:new 0 0 64 64;" xml:space="preserve">
<g id="icon-m-messaging-smiley-surprised">
	<rect style="fill:none;" width="64" height="64"/>
	<path style="fill:#333333;" d="M61.894,10.57c-0.548-0.24-0.922-0.797-0.897-1.432c0.182-4.754-6.34-6.156-6.406-6.169
		c-0.814-0.167-1.333-0.96-1.166-1.772c0.168-0.811,0.961-1.332,1.771-1.166c3.141,0.648,9.021,3.409,8.799,9.223
		c-0.031,0.828-0.729,1.473-1.557,1.44C62.244,10.688,62.061,10.644,61.894,10.57L61.894,10.57z"/>
	<path style="fill:#333333;" d="M2.106,10.57c0.549-0.24,0.922-0.797,0.897-1.432C2.822,4.385,9.344,2.982,9.411,2.97
		c0.813-0.167,1.333-0.96,1.166-1.772c-0.168-0.811-0.961-1.332-1.772-1.166C5.665,0.68-0.217,3.44,0.006,9.254
		c0.031,0.828,0.728,1.473,1.557,1.44C1.756,10.688,1.939,10.644,2.106,10.57L2.106,10.57z"/>
	<ellipse style="fill:#333333;" cx="32" cy="45" rx="8.75" ry="10"/>
	<circle style="fill:#333333;" cx="21.403" cy="21" r="5"/>
	<circle style="fill:#333333;" cx="42.597" cy="21" r="5"/>
	<path style="fill:#333333;" d="M32,4c15.439,0,28,12.561,28,28S47.439,60,32,60S4,47.439,4,32S16.561,4,32,4 M32,0
		C14.327,0,0,14.327,0,32c0,17.674,14.327,32,32,32c17.674,0,32-14.326,32-32C64,14.327,49.674,0,32,0L32,0z"/>
</g>
</svg>
