<?xml version="1.0" encoding="iso-8859-1"?>
<!-- Generator: Adobe Illustrator 14.0.0, SVG Export Plug-In . SVG Version: 6.00 Build 43363)  -->
<!DOCTYPE svg PUBLIC "-//W3C//DTD SVG 1.1//EN" "http://www.w3.org/Graphics/SVG/1.1/DTD/svg11.dtd">
<svg version="1.1" id="icon-m-messaging-smiley-worried-layer"
	 xmlns="http://www.w3.org/2000/svg" xmlns:xlink="http://www.w3.org/1999/xlink" x="0px" y="0px" width="65px" height="64px"
	 viewBox="0 0 65 64" style="enable-background:new 0 0 65 64;" xml:space="preserve">
<g id="icon-m-messaging-smiley-worried">
	<rect x="1.01" style="fill:none;" width="64" height="64"/>
	<path style="fill:#333333;" d="M49.809,21.5c-0.676,0-1.289-0.46-1.455-1.146c-0.393-1.615-1.279-2.734-2.633-3.322
		c-1.596-0.693-3.35-0.449-3.867-0.246c-0.432,0.469-1.131,0.627-1.738,0.344c-0.75-0.352-1.074-1.244-0.725-1.994
		c0.709-1.52,3.531-1.656,4.926-1.52c3.574,0.357,6.109,2.555,6.951,6.031c0.195,0.805-0.299,1.616-1.104,1.811
		C50.045,21.486,49.926,21.5,49.809,21.5L49.809,21.5z"/>
	<path style="fill:#333333;" d="M16.19,21.5c0.676,0,1.291-0.46,1.457-1.146c0.392-1.615,1.278-2.734,2.632-3.322
		c1.596-0.693,3.349-0.449,3.867-0.246c0.431,0.469,1.13,0.627,1.738,0.344c0.75-0.352,1.075-1.244,0.725-1.994
		c-0.709-1.52-3.532-1.656-4.926-1.52c-3.575,0.357-6.109,2.555-6.952,6.031c-0.195,0.805,0.299,1.616,1.104,1.811
		C15.954,21.486,16.073,21.5,16.19,21.5L16.19,21.5z"/>
	<g>
		<path style="fill:#333333;" d="M40.495,24c1.107,0,2.127,0.506,2.795,1.389c1.164,1.537,0.859,3.736-0.679,4.901
			C41.998,30.754,41.269,31,40.502,31c-1.107,0-2.125-0.505-2.792-1.386c-1.165-1.54-0.861-3.74,0.677-4.904
			C39,24.246,39.729,24,40.495,24 M40.495,22c-1.156,0-2.322,0.363-3.315,1.115c-2.422,1.834-2.898,5.283-1.064,7.706
			C37.196,32.249,38.84,33,40.502,33c1.157,0,2.323-0.363,3.316-1.115c2.422-1.834,2.9-5.281,1.066-7.703
			C43.802,22.752,42.158,22,40.495,22L40.495,22z"/>
	</g>
	<g>
		<path style="fill:#333333;" d="M25.495,24c1.108,0,2.127,0.506,2.795,1.388c1.165,1.538,0.86,3.737-0.678,4.901
			c-0.614,0.464-1.343,0.71-2.11,0.71c-1.108,0-2.125-0.505-2.792-1.386c-0.565-0.746-0.806-1.667-0.678-2.593
			c0.128-0.926,0.609-1.747,1.354-2.311C24,24.246,24.729,24,25.495,24 M25.495,22c-1.156,0-2.322,0.363-3.315,1.115
			c-2.422,1.834-2.899,5.283-1.064,7.706C22.196,32.249,23.84,33,25.502,33c1.157,0,2.324-0.363,3.317-1.115
			c2.422-1.834,2.899-5.281,1.065-7.703C28.802,22.752,27.159,22,25.495,22L25.495,22z"/>
	</g>
	<path style="fill:#333333;" d="M33,4c15.439,0,28,12.561,28,28S48.439,60,33,60S5,47.439,5,32S17.561,4,33,4 M33,0
		C15.327,0,1,14.327,1,32c0,17.674,14.327,32,32,32c17.674,0,32-14.326,32-32C65,14.327,50.674,0,33,0L33,0z"/>
	<path style="fill:#333333;" d="M49.744,45.051c-0.104-0.104-7.041-6.874-16.223-6.929H33.52h-0.002
		c-6.838,0.04-12.406,3.79-14.859,5.751c-0.805,0.582-3.842,3.029-0.443,4.748c0,0,2.876,1.354,5.248-3.107
		c0,0,1.267-3.031,4.182-4.464l-0.089,0.027c1.804-0.612,3.811-1.024,5.963-1.018c8.232-0.022,14.426,6.021,14.811,6.405
		c0.391,0.391,1.023,0.391,1.414,0S50.135,45.441,49.744,45.051z"/>
</g>
</svg>
