<?xml version="1.0" encoding="iso-8859-1"?>
<!-- Generator: Adobe Illustrator 14.0.0, SVG Export Plug-In . SVG Version: 6.00 Build 43363)  -->
<!DOCTYPE svg PUBLIC "-//W3C//DTD SVG 1.1//EN" "http://www.w3.org/Graphics/SVG/1.1/DTD/svg11.dtd">
<svg version="1.1" id="icon-m-telephony-ongoing-layer"
	 xmlns="http://www.w3.org/2000/svg" xmlns:xlink="http://www.w3.org/1999/xlink" x="0px" y="0px" width="65px" height="64px"
	 viewBox="0 0 65 64" style="enable-background:new 0 0 65 64;" xml:space="preserve">
<g id="icon-m-telephony-ongoing">
	<rect x="1" style="fill:none;" width="64" height="64"/>
	<path style="fill:#FFFFFF;" d="M37.453,22.808L25.929,12.226c-0.329-0.3-0.868-0.3-1.197,0L13.207,22.808
		c-0.329,0.3-0.263,0.544,0.182,0.544h2.781v10.73h5.166v-7.55c-0.006-0.727,0.795-0.794,0.795-0.794h2.782c0,0,0.794,0,0.794,0.794
		v7.55h8.742v-10.73h2.783C37.676,23.352,37.781,23.107,37.453,22.808z"/>
	<path style="fill:#FFFFFF;" d="M46.225,31.773c-3.904,1.833-11.658,8.648-13.501,13.479c-0.808,2.114,0.843,5.46,2.148,6.497
		c0,0.005,0.672,0.563,1.174-0.007l3.516-4.733c0.24-0.308,0.475-0.709-0.01-1.189c0,0-2.432-1.75-1.729-2.869
		c0.492-0.773,5.328-5.602,6.104-6.091c1.121-0.705,2.877,1.722,2.877,1.722c0.486,0.481,0.887,0.242,1.193,0.007l4.746-3.513
		c0.572-0.508,0.012-1.176,0.008-1.176C51.703,32.61,48.283,30.808,46.225,31.773z"/>
</g>
</svg>
