<?xml version="1.0" encoding="iso-8859-1"?>
<!-- Generator: Adobe Illustrator 14.0.0, SVG Export Plug-In . SVG Version: 6.00 Build 43363)  -->
<!DOCTYPE svg PUBLIC "-//W3C//DTD SVG 1.1//EN" "http://www.w3.org/Graphics/SVG/1.1/DTD/svg11.dtd">
<svg version="1.1" id="icon-m-content-call-duration-layer"
	 xmlns="http://www.w3.org/2000/svg" xmlns:xlink="http://www.w3.org/1999/xlink" x="0px" y="0px" width="64px" height="64px"
	 viewBox="0 0 64 64" style="enable-background:new 0 0 64 64;" xml:space="preserve">
<g id="icon-m-content-call-duration">
	<rect style="fill:none;" width="64" height="64"/>
	<path style="fill:#333333;" d="M33.029,3.498C24.646,7.437,7.997,22.069,4.038,32.442c-1.733,4.541,1.813,11.725,4.614,13.953
		c-0.002,0.012,1.441,1.21,2.521-0.015l7.55-10.166c0.514-0.659,1.019-1.521-0.021-2.555c0,0-5.225-3.756-3.712-6.16
		c1.056-1.658,11.439-12.028,13.103-13.08c2.411-1.512,6.181,3.696,6.181,3.696c1.041,1.035,1.9,0.523,2.561,0.017l10.193-7.543
		c1.229-1.092,0.021-2.523,0.014-2.523C44.796,5.293,37.451,1.425,33.029,3.498z"/>
	<g>
		<g>
			<path style="fill:#333333;" d="M48.623,47.978c-0.179,0.84-0.905,1.438-1.769,1.438c-0.999,0-1.813-0.814-1.813-1.813
				c0-0.15,0.021-0.303,0.061-0.451l-3.455-4.485l1.697-1.359l3.455,4.485c0.313-0.014,0.62,0.062,0.904,0.215l3.747-1.744
				l0.915,1.976L48.623,47.978z"/>
		</g>
	</g>
	<path style="fill:#333333;" d="M46.92,36.621c6.048,0,10.969,4.921,10.969,10.969c0,6.047-4.921,10.969-10.969,10.969
		c-6.049,0-10.969-4.922-10.969-10.969C35.951,41.542,40.871,36.621,46.92,36.621 M46.92,34.09c-7.457,0-13.5,6.045-13.5,13.5
		c0,7.456,6.043,13.5,13.5,13.5c7.455,0,13.5-6.044,13.5-13.5C60.42,40.135,54.375,34.09,46.92,34.09L46.92,34.09z"/>
</g>
</svg>
