<?xml version="1.0" encoding="iso-8859-1"?>
<!-- Generator: Adobe Illustrator 13.0.2, SVG Export Plug-In . SVG Version: 6.00 Build 14948)  -->
<!DOCTYPE svg PUBLIC "-//W3C//DTD SVG 1.1//EN" "http://www.w3.org/Graphics/SVG/1.1/DTD/svg11.dtd">
<svg version="1.1" xmlns="http://www.w3.org/2000/svg" xmlns:xlink="http://www.w3.org/1999/xlink" x="0px" y="0px" width="18px"
	 height="18px" viewBox="0 0 18 18" style="enable-background:new 0 0 18 18;" xml:space="preserve">
	<g id="icon-s-music">
		<rect style="fill:none;" width="18" height="18"/>
		<path style="fill:#333333;" d="M14.519,6.861c-0.371-0.361-0.728-0.736-1.06-1.133c-0.236-0.281-0.46-0.574-0.66-0.884
			c-0.134-0.206-0.256-0.42-0.356-0.644c-0.059-0.132-0.114-0.27-0.145-0.412c-0.016-0.07-0.026-0.17-0.063-0.232
			c-0.034-0.061-0.087-0.121-0.139-0.168c-0.116-0.105-0.27-0.164-0.427-0.164h-0.011c-0.357,0-0.636,0.289-0.635,0.646
			l-0.005,9.645c-0.255-0.068-0.535-0.1-0.839-0.088c-0.548,0.023-1.123,0.182-1.662,0.455c-0.711,0.361-1.288,0.887-1.624,1.479
			C6.551,15.973,6.5,16.582,6.752,17.08c0.31,0.613,1.043,0.955,1.96,0.916c0.547-0.021,1.122-0.18,1.662-0.453
			c1.156-0.588,1.917-1.566,1.945-2.459l-0.002-7.693c3.926,1.164,2.054,6.074,2.054,6.074C17.702,10.117,14.519,6.861,14.519,6.861
			z"/>
		<path style="fill:#333333;" d="M7.813,8.573l0.81-0.638C7.838,7.454,7.31,6.573,7.31,5.565c0-1.133,0.667-2.108,1.615-2.531
			L8.101,2.385c-1.154,0.63-1.936,1.818-1.936,3.181C6.165,6.811,6.818,7.912,7.813,8.573z"/>
		<path style="fill:#333333;" d="M5.881,0.635L5.075,0C3.282,1.236,2.109,3.27,2.109,5.565c0,2.181,1.059,4.124,2.7,5.374
			l0.803-0.633c-1.43-1.08-2.357-2.804-2.357-4.741C3.255,3.51,4.3,1.696,5.881,0.635z"/>
	</g>
</svg>
