<?xml version="1.0" encoding="iso-8859-1"?>
<!-- Generator: Adobe Illustrator 14.0.0, SVG Export Plug-In . SVG Version: 6.00 Build 43363)  -->
<!DOCTYPE svg PUBLIC "-//W3C//DTD SVG 1.1//EN" "http://www.w3.org/Graphics/SVG/1.1/DTD/svg11.dtd">
<svg version="1.1" id="icon-m-camera-scene-landscape-screen-layer"
	 xmlns="http://www.w3.org/2000/svg" xmlns:xlink="http://www.w3.org/1999/xlink" x="0px" y="0px" width="24px" height="24px"
	 viewBox="0 0 24 24" style="enable-background:new 0 0 24 24;" xml:space="preserve">
<g id="icon-m-camera-scene-landscape-screen">
	<rect style="fill:none;" width="24" height="24"/>
	<path style="fill:#FFFFFF;" d="M15.449,7.744c0.493,0,0.938-0.189,1.281-0.493c0.459,0.653,1.109,1.065,1.832,1.065
		s1.373-0.412,1.833-1.065c0.343,0.304,0.787,0.493,1.28,0.493c1.078,0,1.949-0.877,1.949-1.959s-0.871-1.96-1.949-1.96
		c-0.249,0-0.484,0.052-0.703,0.138c-0.314-1.387-1.273-2.396-2.41-2.396s-2.096,1.01-2.41,2.396
		c-0.218-0.086-0.454-0.138-0.703-0.138c-1.076,0-1.949,0.878-1.949,1.96S14.373,7.744,15.449,7.744z"/>
	<path style="fill:#FFFFFF;" d="M14.25,15.375c-2.904-6.717-8.435-15.148-13.875,5.25h23.25
		C23.625,20.625,19.089,4.668,14.25,15.375z"/>
</g>
</svg>
