<?xml version="1.0" encoding="iso-8859-1"?>
<!-- Generator: Adobe Illustrator 14.0.0, SVG Export Plug-In . SVG Version: 6.00 Build 43363)  -->
<!DOCTYPE svg PUBLIC "-//W3C//DTD SVG 1.1//EN" "http://www.w3.org/Graphics/SVG/1.1/DTD/svg11.dtd">
<svg version="1.1" id="icon-m-common-share-layer" xmlns="http://www.w3.org/2000/svg" xmlns:xlink="http://www.w3.org/1999/xlink"
	 x="0px" y="0px" width="64px" height="64px" viewBox="0 0 64 64" style="enable-background:new 0 0 64 64;" xml:space="preserve">
<g id="icon-m-common-share_1_">
	<rect style="fill:none;" width="64" height="64"/>
	<path id="Share_3_" style="fill:#333333;" d="M51.764,37.917c-3.559,0-6.707,1.679-8.684,4.26l-20.066-9
		c0.032-0.327,0.053-0.655,0.053-0.991c0-0.376-0.023-0.747-0.064-1.113l20.257-9.016c1.983,2.448,5.052,4.026,8.504,4.026
		c5.983,0,10.836-4.721,10.836-10.543c0-5.821-4.853-10.539-10.836-10.539c-5.982,0-10.831,4.718-10.831,10.539
		c0,0.662,0.071,1.306,0.188,1.933l-19.887,8.85c-1.944-2.82-5.248-4.679-9.004-4.679c-5.983,0-10.831,4.72-10.831,10.542
		c0,5.821,4.848,10.541,10.831,10.541c3.795,0,7.131-1.901,9.064-4.774l19.782,8.866c-0.088,0.536-0.144,1.082-0.144,1.642
		c0,5.823,4.849,10.541,10.831,10.541c5.983,0,10.836-4.718,10.836-10.541C62.6,42.636,57.747,37.917,51.764,37.917z"/>
</g>
</svg>
