<?xml version="1.0" encoding="iso-8859-1"?>
<!-- Generator: Adobe Illustrator 14.0.0, SVG Export Plug-In . SVG Version: 6.00 Build 43363)  -->
<!DOCTYPE svg PUBLIC "-//W3C//DTD SVG 1.1//EN" "http://www.w3.org/Graphics/SVG/1.1/DTD/svg11.dtd">
<svg version="1.1" id="icon-m-toolbar-new-chat-layer"
	 xmlns="http://www.w3.org/2000/svg" xmlns:xlink="http://www.w3.org/1999/xlink" x="0px" y="0px" width="65px" height="64px"
	 viewBox="0 0 65 64" style="enable-background:new 0 0 65 64;" xml:space="preserve">
<g id="icon-m-toolbar-new-chat">
	<rect x="1" style="fill:none;" width="64" height="64"/>
	<path style="fill:#FFFFFF;" d="M28.618,30.488H16.205v-3.044h11.146c-0.389-1.331-0.602-2.739-0.602-4.194
		c0-0.195,0.008-0.387,0.015-0.58H14.837c-1.01,0-1.837,0.826-1.837,1.837v19.206c0,1.004,0.827,1.834,1.837,1.834h2.475v5.646
		c0,0-0.015,0.614,0.56,0.784c0.512,0.156,0.903-0.51,0.903-0.51l3.624-5.92h19.506c1.012,0,1.834-0.83,1.834-1.834v-5.6
		c-0.65,0.086-1.313,0.137-1.987,0.137C36.103,38.25,31.177,35.113,28.618,30.488z M27.364,36.619H16.205v-3.044h11.159V36.619z"/>
	<path style="fill:#FFFFFF;" d="M41.751,12C35.537,12,30.5,17.035,30.5,23.25c0,6.213,5.037,11.25,11.251,11.25
		c6.213,0,11.25-5.037,11.25-11.25C53.001,17.035,47.964,12,41.751,12z M48.938,25.828l-1.678,2.709l-3.917-2.426v4.607h-3.187
		v-4.607l-3.917,2.426l-1.677-2.709l4.162-2.578l-4.162-2.58l1.677-2.709l3.917,2.428v-4.607h3.187v4.607l3.917-2.426l1.678,2.707
		l-4.162,2.58L48.938,25.828z"/>
</g>
</svg>
