<?xml version="1.0" encoding="iso-8859-1"?>
<!-- Generator: Adobe Illustrator 14.0.0, SVG Export Plug-In . SVG Version: 6.00 Build 43363)  -->
<!DOCTYPE svg PUBLIC "-//W3C//DTD SVG 1.1//EN" "http://www.w3.org/Graphics/SVG/1.1/DTD/svg11.dtd">
<svg version="1.1" id="icon-m-clock-alarm-create-layer"
	 xmlns="http://www.w3.org/2000/svg" xmlns:xlink="http://www.w3.org/1999/xlink" x="0px" y="0px" width="64px" height="64px"
	 viewBox="0 0 64 64" style="enable-background:new 0 0 64 64;" xml:space="preserve">
<g id="icon-m-clock-alarm-create">
	<rect style="fill:none;" width="64" height="64"/>
	<path style="fill:#333333;" d="M4.089,35.271c0,3.716,3.013,6.729,6.729,6.729c2.45,0,4.588-1.314,5.765-3.271l-9.222-9.223
		C5.403,30.682,4.089,32.82,4.089,35.271z"/>
	<path style="fill:#333333;" d="M40.902,22.455c0.73-0.154,1.469-0.286,2.223-0.369c0.234-0.477,0.457-0.969,0.662-1.492
		c2.141-5.498,1.553-11.295-2.604-15.633l-0.056-0.055c-4.337-4.158-10.135-4.744-15.63-2.605c-2.596,1.011-4.547,2.412-6.659,4.125
		c-3.143,2.549-6.863,4.683-10.638,6.132c-1.57,0.603-2.824,0.886-4.012,2.095c-0.807,0.822-0.86,0.862-1.674,1.678
		c-0.544,0.543-0.732,1.621-0.189,2.166l12.608,12.606l0.055,0.054l7.914,7.914C25.295,30.673,32.247,24.179,40.902,22.455z"/>
	<path style="fill:#333333;" d="M45,27.5c-9.941,0-18,8.059-18,18c0,9.939,8.059,18,18,18c9.94,0,18-8.061,18-18
		C63,35.559,54.94,27.5,45,27.5z M55.8,48.366h-7.843V56.3h-5.87v-7.934h-7.886v-5.825h7.886v-7.842h5.87v7.842H55.8V48.366z"/>
</g>
</svg>
