<?xml version="1.0" encoding="iso-8859-1"?>
<!-- Generator: Adobe Illustrator 14.0.0, SVG Export Plug-In . SVG Version: 6.00 Build 43363)  -->
<!DOCTYPE svg PUBLIC "-//W3C//DTD SVG 1.1//EN" "http://www.w3.org/Graphics/SVG/1.1/DTD/svg11.dtd">
<svg version="1.1" id="icon-l-contacts-layer" xmlns="http://www.w3.org/2000/svg" xmlns:xlink="http://www.w3.org/1999/xlink"
	 x="0px" y="0px" width="48px" height="48px" viewBox="0 0 48 48" style="enable-background:new 0 0 48 48;" xml:space="preserve">
<g id="icon-l-contacts">
	<rect style="fill:none;" width="48" height="48"/>
	<g>
		<path style="opacity:0.2;fill:#010101;stroke:#010101;stroke-width:2;stroke-linejoin:round;" d="M41.564,42.113V7.401
			c0-3.099-2.961-2.792-2.961-2.792H7.228v4.657H5.733c-0.609,0-1.103,0.489-1.103,1.094c0,0.608,0.493,1.102,1.103,1.102h1.495
			v7.296H5.733c-0.609,0-1.103,0.491-1.103,1.104c0,0.602,0.493,1.094,1.103,1.094h1.495v7.362H5.733
			c-0.609,0-1.103,0.492-1.103,1.104c0,0.603,0.493,1.092,1.103,1.092h1.495v7.335H5.733c-0.609,0-1.103,0.481-1.103,1.094
			c0,0.611,0.493,1.103,1.103,1.103h1.495v5.21h31.036C41.807,45.256,41.564,42.113,41.564,42.113z"/>
		<path style="opacity:0.5;fill:#010101;" d="M41.564,42.113V7.401c0-3.099-2.961-2.792-2.961-2.792H7.228v4.657H5.733
			c-0.609,0-1.103,0.489-1.103,1.094c0,0.608,0.493,1.102,1.103,1.102h1.495v7.296H5.733c-0.609,0-1.103,0.491-1.103,1.104
			c0,0.602,0.493,1.094,1.103,1.094h1.495v7.362H5.733c-0.609,0-1.103,0.492-1.103,1.104c0,0.603,0.493,1.092,1.103,1.092h1.495
			v7.335H5.733c-0.609,0-1.103,0.481-1.103,1.094c0,0.611,0.493,1.103,1.103,1.103h1.495v5.21h31.036
			C41.807,45.256,41.564,42.113,41.564,42.113z"/>
		<linearGradient id="SVGID_1_" gradientUnits="userSpaceOnUse" x1="24.3979" y1="-1.0981" x2="24.3979" y2="52.6205">
			<stop  offset="0" style="stop-color:#517EBF"/>
			<stop  offset="1" style="stop-color:#283176"/>
		</linearGradient>
		<path style="fill:url(#SVGID_1_);" d="M38.264,43.908H7.228V3.264h31.376c0,0,2.961-0.301,2.961,2.789v34.714
			C41.564,40.767,41.807,43.908,38.264,43.908z"/>
		<g>
			<polygon style="opacity:0.4;fill:#010101;" points="10.806,38.524 7.228,40.859 7.228,38.719 9.476,37.997 			"/>
			<g>
				<path style="fill:#010101;" d="M11.884,37.609c0,0.875-0.707,1.574-1.571,1.574c-0.866,0-1.565-0.699-1.565-1.574
					c0-0.863,0.699-1.562,1.565-1.562C11.177,36.047,11.884,36.746,11.884,37.609z"/>
				<linearGradient id="SVGID_2_" gradientUnits="userSpaceOnUse" x1="7.9526" y1="35.9199" x2="7.9526" y2="40.3125">
					<stop  offset="0.1978" style="stop-color:#FFFFFF"/>
					<stop  offset="0.8462" style="stop-color:#000000"/>
				</linearGradient>
				<path style="fill:url(#SVGID_2_);" d="M11.274,37.604c0,0.604-0.491,1.095-1.102,1.095h-4.44c-0.609,0-1.103-0.491-1.103-1.095
					l0,0c0-0.612,0.493-1.102,1.103-1.102h4.44C10.784,36.503,11.274,36.992,11.274,37.604L11.274,37.604z"/>
			</g>
		</g>
		<g>
			<polygon style="opacity:0.4;fill:#010101;" points="10.806,28.978 7.228,31.314 7.228,29.179 9.476,28.459 			"/>
			<g>
				<path style="fill:#010101;" d="M11.884,28.086c0,0.864-0.707,1.565-1.571,1.565c-0.866,0-1.565-0.701-1.565-1.565
					c0-0.873,0.699-1.571,1.565-1.571C11.177,26.515,11.884,27.213,11.884,28.086z"/>
				<linearGradient id="SVGID_3_" gradientUnits="userSpaceOnUse" x1="7.9526" y1="26.3945" x2="7.9526" y2="30.7891">
					<stop  offset="0.1978" style="stop-color:#FFFFFF"/>
					<stop  offset="0.8462" style="stop-color:#000000"/>
				</linearGradient>
				<path style="fill:url(#SVGID_3_);" d="M11.274,28.075c0,0.609-0.491,1.101-1.102,1.101h-4.44c-0.609,0-1.103-0.491-1.103-1.101
					l0,0c0-0.613,0.493-1.097,1.103-1.097h4.44C10.784,26.979,11.274,27.462,11.274,28.075L11.274,28.075z"/>
			</g>
		</g>
		<g>
			<polygon style="opacity:0.4;fill:#010101;" points="10.806,19.454 7.228,21.79 7.228,19.657 9.476,18.927 			"/>
			<g>
				<path style="fill:#010101;" d="M11.884,18.57c0,0.865-0.707,1.565-1.571,1.565c-0.866,0-1.565-0.7-1.565-1.565
					c0-0.873,0.699-1.571,1.565-1.571C11.177,16.999,11.884,17.697,11.884,18.57z"/>
				<linearGradient id="SVGID_4_" gradientUnits="userSpaceOnUse" x1="7.9526" y1="16.8252" x2="7.9526" y2="21.2373">
					<stop  offset="0.1978" style="stop-color:#FFFFFF"/>
					<stop  offset="0.8462" style="stop-color:#000000"/>
				</linearGradient>
				<path style="fill:url(#SVGID_4_);" d="M11.274,18.516c0,0.609-0.491,1.102-1.102,1.102h-4.44c-0.609,0-1.103-0.492-1.103-1.102
					l0,0c0-0.613,0.493-1.104,1.103-1.104h4.44C10.784,17.411,11.274,17.902,11.274,18.516L11.274,18.516z"/>
			</g>
		</g>
		<g>
			<polygon style="opacity:0.4;fill:#010101;" points="10.806,9.938 7.228,12.274 7.228,10.143 9.476,9.413 			"/>
			<g>
				<path style="fill:#010101;" d="M11.884,9.119c0,0.865-0.707,1.563-1.571,1.563c-0.866,0-1.565-0.698-1.565-1.563
					c0-0.871,0.699-1.573,1.565-1.573C11.177,7.546,11.884,8.248,11.884,9.119z"/>
				<linearGradient id="SVGID_5_" gradientUnits="userSpaceOnUse" x1="7.9526" y1="7.3442" x2="7.9526" y2="11.7368">
					<stop  offset="0.1978" style="stop-color:#FFFFFF"/>
					<stop  offset="0.8462" style="stop-color:#000000"/>
				</linearGradient>
				<path style="fill:url(#SVGID_5_);" d="M11.274,9.021c0,0.609-0.491,1.104-1.102,1.104h-4.44c-0.609,0-1.103-0.494-1.103-1.104
					l0,0c0-0.611,0.493-1.093,1.103-1.093h4.44C10.784,7.928,11.274,8.409,11.274,9.021L11.274,9.021z"/>
			</g>
		</g>
		<linearGradient id="SVGID_6_" gradientUnits="userSpaceOnUse" x1="25.6377" y1="10.2954" x2="25.6377" y2="52.3118">
			<stop  offset="0" style="stop-color:#F2F2F2"/>
			<stop  offset="0.1379" style="stop-color:#E4EDF0"/>
			<stop  offset="0.3971" style="stop-color:#C0DFEB"/>
			<stop  offset="0.747" style="stop-color:#86C8E4"/>
			<stop  offset="0.9945" style="stop-color:#59B7DE"/>
		</linearGradient>
		<path style="fill:url(#SVGID_6_);" d="M28.081,23.256c-0.808,0.494-1.655,0.759-2.534,0.759c-0.614,0-1.518-0.146-2.479-0.726
			c-4.984,0.903-6.582,4.557-6.582,8.927v1.675c0,4.108,18.303,4.108,18.303,0v-1.675C34.789,27.805,33.168,24.127,28.081,23.256z
			 M29.137,19.547c0.977-1.797,1.188-3.127,1.188-4.594c0-2.655-2.055-4.859-4.638-4.859c-0.017,0-0.032,0.007-0.053,0.007
			c-0.011,0-0.024-0.007-0.044-0.007c-2.58,0-4.635,2.204-4.635,4.859c0,1.467,0.219,2.797,1.185,4.594
			C23.98,23.008,26.967,23.127,29.137,19.547z"/>
		<path style="fill:#283176;" d="M25.59,11.032c0.02,0,0.033,0.002,0.044,0.002c0.021,0,0.036-0.002,0.053-0.002
			c2.482,0,4.457,2.045,4.61,4.566c0.01-0.216,0.027-0.426,0.027-0.646c0-2.655-2.055-4.859-4.638-4.859
			c-0.017,0-0.032,0.007-0.053,0.007c-0.011,0-0.024-0.007-0.044-0.007c-2.58,0-4.635,2.204-4.635,4.859
			c0,0.22,0.02,0.43,0.03,0.646C21.136,13.077,23.111,11.032,25.59,11.032z M28.081,23.256c-0.808,0.494-1.655,0.759-2.534,0.759
			c-0.614,0-1.518-0.146-2.479-0.726c-4.984,0.903-6.582,4.557-6.582,8.927v0.941c0-4.37,1.598-8.023,6.582-8.935
			c0.961,0.588,1.865,0.733,2.479,0.733c0.879,0,1.727-0.266,2.534-0.76c5.087,0.865,6.708,4.55,6.708,8.961v-0.941
			C34.789,27.805,33.168,24.127,28.081,23.256z"/>
		<path style="opacity:0.2;fill:#010101;" d="M25.59,11.032c0.02,0,0.033,0.002,0.044,0.002c0.021,0,0.036-0.002,0.053-0.002
			c2.482,0,4.457,2.045,4.61,4.566c0.01-0.216,0.027-0.426,0.027-0.646c0-2.655-2.055-4.859-4.638-4.859
			c-0.017,0-0.032,0.007-0.053,0.007c-0.011,0-0.024-0.007-0.044-0.007c-2.58,0-4.635,2.204-4.635,4.859
			c0,0.22,0.02,0.43,0.03,0.646C21.136,13.077,23.111,11.032,25.59,11.032z M28.081,23.256c-0.808,0.494-1.655,0.759-2.534,0.759
			c-0.614,0-1.518-0.146-2.479-0.726c-4.984,0.903-6.582,4.557-6.582,8.927v0.941c0-4.37,1.598-8.023,6.582-8.935
			c0.961,0.588,1.865,0.733,2.479,0.733c0.879,0,1.727-0.266,2.534-0.76c5.087,0.865,6.708,4.55,6.708,8.961v-0.941
			C34.789,27.805,33.168,24.127,28.081,23.256z"/>
	</g>
</g>
</svg>
