<?xml version="1.0" encoding="iso-8859-1"?>
<!-- Generator: Adobe Illustrator 14.0.0, SVG Export Plug-In . SVG Version: 6.00 Build 43363)  -->
<!DOCTYPE svg PUBLIC "-//W3C//DTD SVG 1.1//EN" "http://www.w3.org/Graphics/SVG/1.1/DTD/svg11.dtd">
<svg version="1.1" id="icon-m-camera-flash-off-screen-layer"
	 xmlns="http://www.w3.org/2000/svg" xmlns:xlink="http://www.w3.org/1999/xlink" x="0px" y="0px" width="24px" height="24px"
	 viewBox="0 0 24 24" style="enable-background:new 0 0 24 24;" xml:space="preserve">
<g id="icon-m-camera-flash-off-screen">
	<rect style="fill:none;" width="24" height="24"/>
	<path style="fill:#FFFFFF;" d="M12.001,0.338C5.581,0.339,0.376,5.547,0.375,11.97c0.001,6.415,5.206,11.617,11.626,11.618
		c6.417-0.001,11.623-5.203,11.624-11.618C23.624,5.547,18.419,0.339,12.001,0.338z M19.716,18.139l-3.255-3.256l-1.709,1.372
		l3.423,3.425c-1.692,1.355-3.837,2.17-6.174,2.174c-5.461-0.01-9.881-4.429-9.892-9.884c0.005-2.339,0.819-4.486,2.177-6.181
		l2.878,2.879L8.8,7.223L5.827,4.248c1.692-1.355,3.837-2.17,6.174-2.174V2.073c5.458,0.011,9.879,4.433,9.89,9.896
		C21.886,14.304,21.072,16.447,19.716,18.139z"/>
	<polygon style="fill:#FFFFFF;" points="15.223,4.697 8.632,10.522 12.132,12.585 7.277,19.229 16.723,11.645 12.955,9.734 	"/>
</g>
</svg>
