<?xml version="1.0" encoding="iso-8859-1"?>
<!-- Generator: Adobe Illustrator 14.0.0, SVG Export Plug-In . SVG Version: 6.00 Build 43363)  -->
<!DOCTYPE svg PUBLIC "-//W3C//DTD SVG 1.1//EN" "http://www.w3.org/Graphics/SVG/1.1/DTD/svg11.dtd">
<svg version="1.1" id="icon-m-organizer-location-target-layer"
	 xmlns="http://www.w3.org/2000/svg" xmlns:xlink="http://www.w3.org/1999/xlink" x="0px" y="0px" width="64px" height="64px"
	 viewBox="0 0 64 64" style="enable-background:new 0 0 64 64;" xml:space="preserve">
<g id="icon-m-organizer-location-target">
	<rect x="0.007" style="fill:none;" width="63.987" height="64"/>
	<path style="fill:#333333;" d="M63.984,56.012v-27.76h-3.035c-0.499,1.229-1.105,2.4-1.808,3.508l2.843-1.359v9.365l-9.662,4.832
		l-4.064-3.979c-0.703,0.264-1.422,0.496-2.155,0.689l9.474,9.271l-15.851,8.693L27.144,47.053l10.804-5.164
		c-3.57-0.405-6.885-1.658-9.732-3.558l-6.735,3.22L9.848,30.252h11.067c-0.344-0.648-0.653-1.316-0.931-2H0v34.909h63.984v-7.118
		L64,56.027L63.984,56.012z M2,31.219l13.553,13.164L2,50.861V31.219z M2,61.161v-2.344l0.097,0.206l19.12-9.139l11.61,11.276H2z
		 M61.984,61.161H42.456l15.337-8.411l4.191,4.102V61.161z M61.984,54.055l-7.393-7.236l7.393-3.697V54.055z"/>
	<ellipse style="fill:#333333;" cx="40.466" cy="20.037" rx="5.027" ry="5.001"/>
	<path style="fill:#333333;" d="M40.466,4.037c-8.886,0-16.087,7.162-16.087,16c0,8.836,7.202,16,16.087,16s16.088-7.164,16.088-16
		C56.554,11.199,49.352,4.037,40.466,4.037z M40.466,30.037c-5.554,0-10.054-4.479-10.054-10c0-5.52,4.5-10,10.054-10
		c5.553,0,10.055,4.48,10.055,10C50.521,25.559,46.019,30.037,40.466,30.037z"/>
</g>
</svg>
