<?xml version="1.0" encoding="iso-8859-1"?>
<!-- Generator: Adobe Illustrator 14.0.0, SVG Export Plug-In . SVG Version: 6.00 Build 43363)  -->
<!DOCTYPE svg PUBLIC "-//W3C//DTD SVG 1.1//EN" "http://www.w3.org/Graphics/SVG/1.1/DTD/svg11.dtd">
<svg version="1.1" id="icon-m-email-directory-draft-layer"
	 xmlns="http://www.w3.org/2000/svg" xmlns:xlink="http://www.w3.org/1999/xlink" x="0px" y="0px" width="65px" height="64px"
	 viewBox="0 0 65 64" style="enable-background:new 0 0 65 64;" xml:space="preserve">
<g id="icon-m-email-directory-draft">
	<rect x="1" style="fill:none;" width="64" height="64"/>
	<rect x="22.945" y="44.174" style="fill:#333333;" width="10.893" height="3"/>
	<rect x="22.945" y="36.15" style="fill:#333333;" width="20.125" height="3"/>
	<rect x="22.945" y="28.086" style="fill:#333333;" width="20.125" height="3"/>
	<path style="fill:#333333;" d="M36.969,5.099c0-1.101-0.9-2-2-2H3.021c-1.1,0-2,0.899-2,2l0,7.336h35.949V5.099z"/>
	<path style="fill:#333333;" d="M63,16.582H1.02L1.017,58.904c0,1.1,0.899,2,2,2H63c1.1,0,2-0.9,2-2V18.582
		C65,17.482,64.1,16.582,63,16.582z M45.953,54.806H20.044c-0.571,0-1.036-0.466-1.036-1.037V23.717c0-0.57,0.465-1.037,1.036-1.037
		h25.918c0.57,0,1.035,0.467,1.035,1.037l0.01,30.052C47.008,54.34,46.521,54.806,45.953,54.806z"/>
</g>
</svg>
