<?xml version="1.0" encoding="iso-8859-1"?>
<!-- Generator: Adobe Illustrator 14.0.0, SVG Export Plug-In . SVG Version: 6.00 Build 43363)  -->
<!DOCTYPE svg PUBLIC "-//W3C//DTD SVG 1.1//EN" "http://www.w3.org/Graphics/SVG/1.1/DTD/svg11.dtd">
<svg version="1.1" id="icon-m-bluetooth-pda-layer" xmlns="http://www.w3.org/2000/svg" xmlns:xlink="http://www.w3.org/1999/xlink"
	 x="0px" y="0px" width="64px" height="64px" viewBox="0 0 64 64" style="enable-background:new 0 0 64 64;" xml:space="preserve">
<g id="icon-m-bluetooth-pda">
	<rect style="fill:none;" width="64" height="64"/>
	<path style="fill:#333333;" d="M60.807,8.077c-0.592-0.966-2.663-0.792-4.6,0.392L22.738,28.928
		c-1.938,1.184-3.038,2.945-2.447,3.914c0.592,0.969,2.662,0.793,4.599-0.393l33.47-20.456C60.297,10.809,61.398,9.049,60.807,8.077
		z"/>
	<path style="fill:#333333;" d="M40.644,39.411c0,2.272-1.856,4.13-4.128,4.13H12.05c-2.271,0-4.129-1.857-4.129-4.13V11.202
		c0-2.269,1.857-4.128,4.129-4.128h24.466c1.803,0,3.328,1.18,3.887,2.796l4.56-2.786c-1.202-3.076-4.197-5.275-7.688-5.275H11.291
		c-4.542,0-8.257,3.717-8.257,8.258v43.865c0,4.543,3.715,8.26,8.257,8.26h25.983c4.543,0,8.259-3.717,8.259-8.26V28.091
		l-4.889,2.986V39.411z M24.283,58.902c-3.07,0-5.558-2.482-5.558-5.548c0-3.063,2.487-5.547,5.558-5.547
		c3.068,0,5.557,2.483,5.557,5.547C29.84,56.42,27.352,58.902,24.283,58.902z"/>
</g>
</svg>
