<?xml version="1.0" encoding="iso-8859-1"?>
<!-- Generator: Adobe Illustrator 14.0.0, SVG Export Plug-In . SVG Version: 6.00 Build 43363)  -->
<!DOCTYPE svg PUBLIC "-//W3C//DTD SVG 1.1//EN" "http://www.w3.org/Graphics/SVG/1.1/DTD/svg11.dtd">
<svg version="1.1" id="icon-m-email-directory-trash-layer"
	 xmlns="http://www.w3.org/2000/svg" xmlns:xlink="http://www.w3.org/1999/xlink" x="0px" y="0px" width="64px" height="64px"
	 viewBox="0 0 64 64" style="enable-background:new 0 0 64 64;" xml:space="preserve">
<g id="icon-m-email-directory-trash">
	<rect style="fill:none;" width="64" height="64"/>
	<g>
		<path style="fill:#333333;" d="M35.961,9.287c0-3.404-2.788-6.191-6.193-6.191H6.206c-3.407,0-6.193,2.787-6.193,6.191
			l-0.001,3.145h35.95V9.287z"/>
		<path style="fill:#333333;" d="M55.734,16.598L0.011,16.582L0.008,52.645c0,4.541,3.716,8.258,8.258,8.258h47.468
			c4.541,0,8.258-3.717,8.258-8.258V24.855C63.992,20.314,60.275,16.598,55.734,16.598z M40.995,52.256
			c0,0.543-0.443,0.986-0.985,0.986H23.99c-0.543,0-0.986-0.443-0.986-0.986l-1.479-17.99h20.949L40.995,52.256z M43.091,31.307
			H20.909v-3.203c0-0.543,0.443-0.986,0.986-0.986h6.161v-1.889c0-0.543,0.443-0.986,0.985-0.986h5.915
			c0.543,0,0.986,0.443,0.986,0.986v1.889h6.161c0.542,0,0.986,0.443,0.986,0.986V31.307z"/>
	</g>
</g>
</svg>
