<?xml version="1.0" encoding="iso-8859-1"?>
<!-- Generator: Adobe Illustrator 14.0.0, SVG Export Plug-In . SVG Version: 6.00 Build 43363)  -->
<!DOCTYPE svg PUBLIC "-//W3C//DTD SVG 1.1//EN" "http://www.w3.org/Graphics/SVG/1.1/DTD/svg11.dtd">
<svg version="1.1" id="icon-m-email-directory-outgoing-layer"
	 xmlns="http://www.w3.org/2000/svg" xmlns:xlink="http://www.w3.org/1999/xlink" x="0px" y="0px" width="64px" height="64px"
	 viewBox="0 0 64 64" style="enable-background:new 0 0 64 64;" xml:space="preserve">
<g id="icon-m-email-directory-outgoing">
	<rect style="fill:none;" width="64" height="64"/>
	<path style="fill:#333333;" d="M35.969,5.098c0-1.1-0.9-2-2-2H2.021c-1.1,0-2,0.9-2,2L0.02,12.434h35.949V5.098z"/>
	<path style="fill:#333333;" d="M62,16.582H0.02c0,0-0.003,25.174-0.003,25.177v17.145c0,1.101,0.899,2,2,2H62c1.1,0,2-0.899,2-2
		V18.582C64,17.482,63.1,16.582,62,16.582z M43.515,38.584h-6.97v11.953c0,1.004-0.821,1.826-1.825,1.826h-5.475
		c-1.004,0-1.825-0.822-1.825-1.826V38.584h-6.998c-1.004,0-1.256-0.593-0.56-1.316l12.12-12.146l12.092,12.146
		C44.771,37.991,44.519,38.584,43.515,38.584z"/>
</g>
</svg>
