<?xml version="1.0" encoding="iso-8859-1"?>
<!-- Generator: Adobe Illustrator 14.0.0, SVG Export Plug-In . SVG Version: 6.00 Build 43363)  -->
<!DOCTYPE svg PUBLIC "-//W3C//DTD SVG 1.1//EN" "http://www.w3.org/Graphics/SVG/1.1/DTD/svg11.dtd">
<svg version="1.1" id="icon-m-telephony-ongoing-muted-layer"
	 xmlns="http://www.w3.org/2000/svg" xmlns:xlink="http://www.w3.org/1999/xlink" x="0px" y="0px" width="64px" height="64px"
	 viewBox="0 0 64 64" style="enable-background:new 0 0 64 64;" xml:space="preserve">
<g id="icon-m-telephony-ongoing-muted">
	<rect style="fill:none;" width="64" height="64"/>
	<path style="fill:#FFFFFF;" d="M36.453,22.807L24.929,12.226c-0.329-0.3-0.868-0.3-1.197,0L12.207,22.807
		c-0.329,0.301-0.263,0.545,0.182,0.545h2.781v10.73h5.166v-7.551c-0.006-0.727,0.795-0.793,0.795-0.793h2.782
		c0,0,0.795,0,0.795,0.793v7.551h8.743v-10.73h2.782C36.677,23.352,36.782,23.107,36.453,22.807z"/>
	<path style="fill:#FFFFFF;" d="M32.473,43.71c-0.304,0.528-0.562,1.046-0.75,1.542c-0.809,2.115,0.844,5.463,2.148,6.498
		c0,0.006,0.672,0.563,1.174-0.007l2.328-3.133L32.473,43.71z"/>
	
		<rect x="36.387" y="34.318" transform="matrix(0.7073 -0.7069 0.7069 0.7073 -19.6287 38.8096)" style="fill:#FFFFFF;" width="1.326" height="17.578"/>
	<path style="fill:#FFFFFF;" d="M51.75,33.898c-1.046-1.289-4.466-3.092-6.525-2.125c-2.102,0.986-5.313,3.419-8.122,6.205
		l2.245,2.246c1.488-1.504,3.15-3.094,3.577-3.363c1.123-0.705,2.88,1.721,2.88,1.721c0.484,0.48,0.884,0.243,1.191,0.008
		l4.748-3.514C52.315,34.568,51.754,33.898,51.75,33.898z"/>
</g>
</svg>
