<?xml version="1.0" encoding="iso-8859-1"?>
<!-- Generator: Adobe Illustrator 14.0.0, SVG Export Plug-In . SVG Version: 6.00 Build 43363)  -->
<!DOCTYPE svg PUBLIC "-//W3C//DTD SVG 1.1//EN" "http://www.w3.org/Graphics/SVG/1.1/DTD/svg11.dtd">
<svg version="1.1" id="icon-m-music-video-all-songs-layer"
	 xmlns="http://www.w3.org/2000/svg" xmlns:xlink="http://www.w3.org/1999/xlink" x="0px" y="0px" width="64px" height="64px"
	 viewBox="0 0 64 64" style="enable-background:new 0 0 64 64;" xml:space="preserve">
<g id="icon-m-music-video-all-songs">
	<rect style="fill:none;" width="64" height="64"/>
	<path style="fill:#333333;" d="M37.681,17.127v7.044c0.382-0.33,0.788-0.634,1.235-0.878L42,21.589V0.626
		c0-0.549-0.395-0.785-0.872-0.511L14.754,14.687c-0.473,0.259-0.858,0.924-0.858,1.483v26.508c-2.422-0.87-5.543-0.585-8.408,1.016
		c-4.665,2.58-6.728,7.444-4.723,11.076c2.015,3.639,7.249,4.476,11.905,1.896c3.08-1.709,5.117-4.423,5.484-7.122
		c0.022-0.296,0.052-0.448,0.052-0.669V27.889c0-0.422,0.393-1.207,0.868-1.476l17.737-9.8
		C37.287,16.352,37.681,16.584,37.681,17.127z"/>
	<path style="fill:#333333;" d="M63.289,16.68l-21.5,11.881c-0.386,0.21-0.699,0.752-0.699,1.209v21.609
		c-1.975-0.709-4.519-0.479-6.855,0.828c-3.803,2.102-5.484,6.068-3.849,9.027c1.642,2.967,5.909,3.648,9.705,1.547
		c2.512-1.393,4.172-3.606,4.471-5.805c0.019-0.242,0.043-0.367,0.043-0.546V39.322c0-0.345,0.32-0.984,0.707-1.203l14.46-7.989
		c0.388-0.214,0.708-0.023,0.708,0.419v12.535c-1.961-0.707-4.48-0.472-6.809,0.824c-3.801,2.12-5.491,6.082-3.847,9.047
		c1.64,2.959,5.912,3.637,9.702,1.533c2.512-1.389,4.121-3.607,4.432-5.809C63.984,48.42,64,48.314,64,48.137v-4.43V17.098
		C64,16.65,63.679,16.457,63.289,16.68z"/>
</g>
</svg>
