<?xml version="1.0" encoding="iso-8859-1"?>
<!-- Generator: Adobe Illustrator 13.0.2, SVG Export Plug-In . SVG Version: 6.00 Build 14948)  -->
<!DOCTYPE svg PUBLIC "-//W3C//DTD SVG 1.1//EN" "http://www.w3.org/Graphics/SVG/1.1/DTD/svg11.dtd">
<svg version="1.1" xmlns="http://www.w3.org/2000/svg" xmlns:xlink="http://www.w3.org/1999/xlink" x="0px" y="0px" width="88px"
	 height="88px" viewBox="0 0 88 88" style="enable-background:new 0 0 88 88;" xml:space="preserve">
	<g id="icon-m-youtube">
		<linearGradient id="SVGID_1_" gradientUnits="userSpaceOnUse" x1="65.3008" y1="32.1372" x2="69.394" y2="25.0475">
			<stop  offset="0" style="stop-color:#EC272C"/>
			<stop  offset="0.2568" style="stop-color:#F17158"/>
			<stop  offset="0.6225" style="stop-color:#FAB9A3"/>
			<stop  offset="0.8784" style="stop-color:#FEE9E0"/>
			<stop  offset="1" style="stop-color:#FFFFFF"/>
		</linearGradient>
		<path style="fill-rule:evenodd;clip-rule:evenodd;fill:url(#SVGID_1_);" d="M58.668,28.951h-6.084
			c-14.346,0-16.019,0.646-16.019,11.338v3.333v3.335c0,10.691,1.673,11.337,16.019,11.337h6.084h6.083
			c14.345,0,16.019-0.646,16.019-11.337v-3.335v-3.333c0-10.691-1.674-11.338-16.019-11.338H58.668z"/>
		<path style="fill:#ED2224;" d="M58.668,29.388h-6.084c-7.086,0-11.036,0.153-13.145,1.583c-2.051,1.387-2.438,4.127-2.438,9.318
			h-0.003v3.333h0.003v3.335c0,5.191,0.386,7.93,2.438,9.318c2.109,1.429,6.059,1.582,13.145,1.582h6.084h6.083
			c7.086,0,11.036-0.153,13.146-1.582c2.051-1.389,2.437-4.127,2.437-9.318v-3.335h0.003v-3.333h-0.003
			c0-5.191-0.386-7.932-2.437-9.318c-2.109-1.43-6.06-1.583-13.146-1.583H58.668L58.668,29.388z M52.584,28.516h6.084h6.083
			c7.259,0,11.319,0.17,13.633,1.736c2.372,1.607,2.822,4.536,2.822,10.037h-0.002v3.333h0.002v3.335c0,5.5-0.45,8.43-2.822,10.037
			c-2.313,1.566-6.374,1.736-13.633,1.736h-6.083h-6.084c-7.259,0-11.319-0.17-13.631-1.736c-2.375-1.607-2.823-4.537-2.823-10.037
			v-3.335h0.001v-3.333h-0.001c0-5.501,0.449-8.43,2.823-10.037C41.265,28.686,45.325,28.516,52.584,28.516z"/>
		<linearGradient id="SVGID_2_" gradientUnits="userSpaceOnUse" x1="19.9878" y1="33.7041" x2="19.9878" y2="53.1235">
			<stop  offset="0" style="stop-color:#595A5C"/>
			<stop  offset="1" style="stop-color:#302E2E"/>
		</linearGradient>
		<path style="fill:url(#SVGID_2_);" d="M10.151,52.74v-8.071L6.158,33.704h3.143l2.305,7.155l2.276-7.155h3.055l-3.926,10.965
			v8.071H10.151L10.151,52.74z M33.818,38.438V52.74h-2.6v-1.424c-0.27,0.596-0.611,1.044-1.016,1.352
			c-0.405,0.303-0.866,0.455-1.387,0.455c-0.832,0-1.465-0.296-1.9-0.885c-0.436-0.588-0.652-1.443-0.652-2.565V38.438h2.552v9.346
			c0,0.948,0.083,1.602,0.256,1.961c0.173,0.358,0.462,0.535,0.87,0.535c0.45,0,0.763-0.198,0.942-0.594
			c0.183-0.393,0.274-1.098,0.274-2.115v-9.133H33.818z"/>
		<linearGradient id="SVGID_3_" gradientUnits="userSpaceOnUse" x1="58.668" y1="33.7041" x2="58.668" y2="53.1235">
			<stop  offset="0" style="stop-color:#FFFFFF"/>
			<stop  offset="1" style="stop-color:#E8E7E8"/>
		</linearGradient>
		<path style="fill:url(#SVGID_3_);" d="M43.556,52.74V36.844h-3.291v-3.14h9.446v3.14h-3.293V52.74H43.556L43.556,52.74z
			 M57.165,38.438h-2.683v9.133c0,1.018-0.093,1.723-0.275,2.115c-0.182,0.396-0.496,0.594-0.95,0.594
			c-0.413,0-0.704-0.177-0.878-0.535c-0.174-0.359-0.259-1.013-0.259-1.961v-9.346h-2.572v11.235c0,1.122,0.217,1.978,0.656,2.565
			c0.438,0.589,1.079,0.885,1.916,0.885c0.524,0,0.991-0.152,1.399-0.455c0.409-0.308,0.752-0.756,1.023-1.352v1.424h2.622V38.438
			L57.165,38.438z M63.448,40.838c-0.534,0-0.896,0.313-1.092,0.941c-0.198,0.625-0.293,2.096-0.293,4.414
			c0,1.779,0.095,2.923,0.293,3.433c0.196,0.511,0.558,0.769,1.092,0.769c0.47,0,0.793-0.279,0.966-0.841
			c0.176-0.561,0.26-1.868,0.26-3.917c0-2.117-0.084-3.449-0.26-3.988C64.241,41.107,63.918,40.838,63.448,40.838L63.448,40.838z
			 M59.469,52.74V33.704h2.672v5.947c0.225-0.535,0.523-0.935,0.893-1.196c0.37-0.266,0.826-0.397,1.371-0.397
			c1.104,0,1.877,0.545,2.318,1.638c0.442,1.092,0.664,3.08,0.664,5.965c0,2.784-0.229,4.726-0.686,5.817
			c-0.451,1.098-1.238,1.646-2.357,1.646c-0.558,0-1.035-0.159-1.43-0.477c-0.396-0.316-0.699-0.785-0.913-1.401v1.495H59.469
			L59.469,52.74z M71.794,43.783h2.594v-0.607c0-0.979-0.097-1.654-0.289-2.025c-0.194-0.371-0.531-0.557-1.019-0.557
			c-0.473,0-0.807,0.19-1.008,0.573c-0.196,0.384-0.297,1.055-0.297,2.009c0,0,0.002,0.071,0.008,0.207
			C71.791,43.52,71.794,43.652,71.794,43.783L71.794,43.783z M74.477,47.838h2.516c0,0.067,0.004,0.16,0.006,0.283
			c0.008,0.125,0.01,0.215,0.01,0.273c0,1.628-0.311,2.825-0.938,3.585c-0.631,0.765-1.628,1.144-2.99,1.144
			c-0.718,0-1.32-0.109-1.804-0.333c-0.486-0.224-0.886-0.569-1.198-1.037c-0.374-0.553-0.635-1.249-0.789-2.089
			c-0.153-0.84-0.229-2.354-0.229-4.535c0-1.738,0.068-2.983,0.201-3.733c0.133-0.751,0.357-1.362,0.677-1.844
			c0.334-0.493,0.767-0.865,1.302-1.118c0.537-0.25,1.174-0.376,1.908-0.376c0.713,0,1.328,0.136,1.843,0.401
			c0.514,0.27,0.94,0.675,1.282,1.22c0.286,0.476,0.49,1.074,0.612,1.796s0.185,1.887,0.185,3.494v1.088h-5.246
			c-0.012,0.105-0.02,0.22-0.024,0.338c-0.001,0.122-0.006,0.313-0.006,0.578c0,1.357,0.103,2.308,0.307,2.852
			c0.2,0.546,0.544,0.814,1.032,0.814c0.471,0,0.813-0.219,1.026-0.658C74.371,49.539,74.477,48.824,74.477,47.838z"/>
		<linearGradient id="SVGID_4_" gradientUnits="userSpaceOnUse" x1="20.3052" y1="38.0576" x2="20.3052" y2="53.1235">
			<stop  offset="0" style="stop-color:#595A5C"/>
			<stop  offset="1" style="stop-color:#302E2E"/>
		</linearGradient>
		<path style="fill:url(#SVGID_4_);" d="M23.444,39.665c-0.594-1.071-1.64-1.607-3.144-1.607c-1.497,0-2.54,0.536-3.134,1.607
			c-0.594,1.073-0.891,3.046-0.891,5.933c0,2.88,0.297,4.86,0.891,5.927c0.595,1.067,1.638,1.599,3.134,1.599
			c1.504,0,2.55-0.531,3.144-1.599c0.595-1.066,0.891-3.047,0.891-5.927C24.335,42.711,24.039,40.738,23.444,39.665z M21.626,46.263
			c0,1.954-0.092,3.161-0.277,3.624c-0.185,0.469-0.54,0.701-1.067,0.701c-0.509,0-0.851-0.25-1.03-0.742
			c-0.179-0.494-0.266-1.848-0.266-4.067v-1.32c0-1.679,0.093-2.742,0.279-3.181c0.191-0.443,0.533-0.662,1.035-0.662
			c0.508,0,0.856,0.239,1.044,0.721c0.186,0.486,0.281,1.657,0.281,3.531V46.263z"/>
		<rect x="0.281" y="0.109" style="fill:none;" width="87.687" height="87.687"/>
		<rect id="_x3C_Slice_x3E__11_" style="fill:none;" width="88" height="88"/>
	</g>
</svg>
