<?xml version="1.0" encoding="iso-8859-1"?>
<!-- Generator: Adobe Illustrator 14.0.0, SVG Export Plug-In . SVG Version: 6.00 Build 43363)  -->
<!DOCTYPE svg PUBLIC "-//W3C//DTD SVG 1.1//EN" "http://www.w3.org/Graphics/SVG/1.1/DTD/svg11.dtd">
<svg version="1.1" id="icon-m-common-ovi-layer" xmlns="http://www.w3.org/2000/svg" xmlns:xlink="http://www.w3.org/1999/xlink"
	 x="0px" y="0px" width="64px" height="64px" viewBox="0 0 64 64" style="enable-background:new 0 0 64 64;" xml:space="preserve">
<g id="icon-m-common-ovi">
	<rect style="fill:none;" width="64" height="64"/>
	<path style="fill:#333333;" d="M15.938,26.823c-3.781,0-4.08,4.594-4.08,8.121c0,3.613,0.17,9.141,4.08,9.141
		c3.908,0,4.123-4.932,4.123-9.141C20.061,31.67,19.551,26.823,15.938,26.823z"/>
	<path style="fill:#333333;" d="M60.365,0H3.637C1.637,0,0,1.636,0,3.636v56.729C0,62.363,1.637,64,3.637,64h56.729
		c2,0,3.635-1.637,3.635-3.636V3.636C64,1.636,62.365,0,60.365,0z M15.938,48C7.648,48,4.801,42.299,4.801,35.075
		c0-7.148,3.869-12.162,11.225-12.162c7.607,0,11.094,5.06,11.094,12.33C27.119,42.853,23.59,48,15.938,48z M41.248,44.344
		C40.395,46.598,39.482,48,36.496,48c-2.984,0-3.898-1.402-4.752-3.656l-6.105-21.09h7.102l4.336,18.25l4.594-18.25h5.996
		L41.248,44.344z M57.195,44.877c0,0.621,0,1.764-0.963,2.446C55.732,47.677,54.965,48,53.799,48c-1.121,0-1.91-0.328-2.412-0.677
		c-0.961-0.683-0.961-1.825-0.961-2.446V27.154c0,0-0.168,0-0.395,0c-0.648,0-1.186-0.003-1.564-0.512
		c-0.176-0.239-0.418-0.634-0.418-1.431c0-0.766,0.242-1.196,0.418-1.431c0.379-0.514,0.916-0.526,1.564-0.526
		c0.227,0,0.465-0.001,0.465-0.001h6.699V44.877z M53.861,20.696c-2.168,0-3.738-1.109-3.738-3.147c0-2.045,1.527-3.149,3.738-3.149
		c2.084,0,3.738,1.147,3.738,3.149C57.6,19.587,56.031,20.696,53.861,20.696z"/>
</g>
</svg>
