<?xml version="1.0" encoding="iso-8859-1"?>
<!-- Generator: Adobe Illustrator 14.0.0, SVG Export Plug-In . SVG Version: 6.00 Build 43363)  -->
<!DOCTYPE svg PUBLIC "-//W3C//DTD SVG 1.1//EN" "http://www.w3.org/Graphics/SVG/1.1/DTD/svg11.dtd">
<svg version="1.1" id="icon-m-common-settings-layer"
	 xmlns="http://www.w3.org/2000/svg" xmlns:xlink="http://www.w3.org/1999/xlink" x="0px" y="0px" width="64px" height="64px"
	 viewBox="0 0 64 64" style="enable-background:new 0 0 64 64;" xml:space="preserve">
<g id="icon-m-common-settings">
	<rect style="fill:none;" width="64" height="64"/>
	<path style="fill:#333333;" d="M61.123,50.522L36.297,25.676c1.222-1.649,7.186-12.466-7.098-20.73
		C22.765,1.22,12.991,1.097,15.864,3.978l11.437,11.446c-1.803,5.499-5.701,10.245-11.952,11.94L3.863,15.854
		C2.312,14.299,2,16.457,2,20.685c0,5.125,8.466,23.978,23.631,15.586l24.867,24.894c1.174,1.167,3.067,1.167,4.246,0l6.377-6.384
		C62.293,53.601,62.293,51.696,61.123,50.522z"/>
</g>
</svg>
