<?xml version="1.0" encoding="iso-8859-1"?>
<!-- Generator: Adobe Illustrator 14.0.0, SVG Export Plug-In . SVG Version: 6.00 Build 43363)  -->
<!DOCTYPE svg PUBLIC "-//W3C//DTD SVG 1.1//EN" "http://www.w3.org/Graphics/SVG/1.1/DTD/svg11.dtd">
<svg version="1.1" id="icon-m-energy-management-battery50-layer"
	 xmlns="http://www.w3.org/2000/svg" xmlns:xlink="http://www.w3.org/1999/xlink" x="0px" y="0px" width="64px" height="65px"
	 viewBox="0 0 64 65" style="enable-background:new 0 0 64 65;" xml:space="preserve">
<g id="icon-m-energy-management-battery50">
	<rect y="1" style="fill:none;" width="64" height="64"/>
	<g>
		<path style="fill:#333333;" d="M60.623,26.453h-2.818V16.381c0-1.034-0.845-1.879-1.878-1.879H3.38
			c-1.032,0-1.879,0.845-1.879,1.879v33.24c0,1.033,0.847,1.881,1.879,1.881h52.547c1.033,0,1.878-0.848,1.878-1.881V39.548h2.818
			c1.033,0,1.879-0.847,1.879-1.878v-9.336C62.502,27.301,61.656,26.453,60.623,26.453z M52.11,45.221
			c0,1.033-0.847,1.877-1.88,1.877H7.063c-1.033,0-1.878-0.844-1.878-1.877V20.787c0-1.033,0.845-1.879,1.878-1.879H50.23
			c1.033,0,1.88,0.846,1.88,1.879V45.221z"/>
		<rect x="8.543" y="22.244" style="fill:#333333;" width="20.155" height="21.515"/>
	</g>
</g>
</svg>
