<?xml version="1.0" encoding="iso-8859-1"?>
<!-- Generator: Adobe Illustrator 13.0.2, SVG Export Plug-In . SVG Version: 6.00 Build 14948)  -->
<!DOCTYPE svg PUBLIC "-//W3C//DTD SVG 1.1//EN" "http://www.w3.org/Graphics/SVG/1.1/DTD/svg11.dtd">
<svg version="1.1" xmlns="http://www.w3.org/2000/svg" xmlns:xlink="http://www.w3.org/1999/xlink" x="0px" y="0px" width="64px"
	 height="17px" viewBox="0 0 64 17" style="enable-background:new 0 0 64 17;" xml:space="preserve">
	<g id="icon-m-camera-whitebalance-fluorescent">
		<path style="fill:#343434;" d="M8,0C7.039,0,6,1.039,6,2v13c0,0.961,1.039,2,2,2h48c0.963,0,2-1.039,2-2V2c0-0.961-1.037-2-2-2H8z
			 M54,13H10V4h44V13z"/>
		<path style="fill:#343434;" d="M60,2c0-2.25,4-2.25,4,0v13c0,2.25-4,2-4,0V2z"/>
		<path style="fill:#343434;" d="M0,2c0-2,4-2,4,0v13c0,2.25-4,2.25-4,0V2z"/>
	</g>
</svg>
