<?xml version="1.0" encoding="iso-8859-1"?>
<!-- Generator: Adobe Illustrator 14.0.0, SVG Export Plug-In . SVG Version: 6.00 Build 43363)  -->
<!DOCTYPE svg PUBLIC "-//W3C//DTD SVG 1.1//EN" "http://www.w3.org/Graphics/SVG/1.1/DTD/svg11.dtd">
<svg version="1.1" id="icon-m-content-applet-layer"
	 xmlns="http://www.w3.org/2000/svg" xmlns:xlink="http://www.w3.org/1999/xlink" x="0px" y="0px" width="64px" height="64px"
	 viewBox="0 0 64 64" style="enable-background:new 0 0 64 64;" xml:space="preserve">
<g id="icon-m-content-applet">
	<rect style="fill:none;" width="64" height="64"/>
	<path style="fill:#333333;" d="M46.75,34.309c2.158,0,5.426,2.713,5.426,2.713s6.725,7.26,7.822-2.605V18.813H41.963
		c-6.688-1.497-0.869-6.889-0.869-6.889s2.473-2.977,2.473-4.944c0-3.855-3.84-6.98-8.58-6.98c-4.738,0-8.581,3.125-8.581,6.98
		c0,1.968,1.005,3.742,2.615,5.011c0.633,0.617,5.317,5.423-0.938,6.822H4.001V64h5.595c8.672-1.066,3.117-6.891,2.406-7.598
		C10.304,55.033,9.243,53.121,9.243,51c0-4.156,4.054-7.527,9.052-7.527c4.999,0,9.051,3.371,9.051,7.527
		c0,2.121-2.608,5.33-2.608,5.33s-6.905,6.537,2.352,7.67h32.909V52.939c-1.033-9.256-7.025-3.416-7.752-2.67
		c-1.391,1.766-3.338,2.867-5.496,2.867c-4.23,0-7.658-4.215-7.658-9.414S42.52,34.309,46.75,34.309z"/>
</g>
</svg>
