<?xml version="1.0" encoding="iso-8859-1"?>
<!-- Generator: Adobe Illustrator 14.0.0, SVG Export Plug-In . SVG Version: 6.00 Build 43363)  -->
<!DOCTYPE svg PUBLIC "-//W3C//DTD SVG 1.1//EN" "http://www.w3.org/Graphics/SVG/1.1/DTD/svg11.dtd">
<svg version="1.1" id="icon-m-framework-close-layer"
	 xmlns="http://www.w3.org/2000/svg" xmlns:xlink="http://www.w3.org/1999/xlink" x="0px" y="0px" width="64px" height="64px"
	 viewBox="0 0 64 64" style="enable-background:new 0 0 64 64;" xml:space="preserve">
<g id="icon-m-framework-close">
	<rect style="fill:none;" width="64" height="64"/>
	<path id="Icon-m-close_2_" style="fill:#FFFFFF;" d="M48.18,17.856c-7.785-7.808-20.452-7.808-28.282,0
		c-7.834,7.815-7.87,20.474-0.081,28.284c7.789,7.813,20.452,7.813,28.288-0.001C55.936,38.328,55.969,25.67,48.18,17.856z
		 M43.1,37.914c0.874,0.875,0.863,2.299-0.012,3.166c-0.436,0.438-1.006,0.659-1.581,0.659c-0.572,0-1.146-0.222-1.581-0.659
		l-5.93-5.918l-5.923,5.918c-0.436,0.438-1.012,0.659-1.582,0.659c-0.573,0-1.15-0.222-1.586-0.659
		c-0.872-0.867-0.881-2.285-0.005-3.164l5.935-5.914L24.9,26.08c-0.876-0.869-0.876-2.289,0-3.168c0.872-0.871,2.297-0.871,3.173,0
		l5.925,5.922l5.928-5.922c0.875-0.871,2.287-0.871,3.162,0c0.875,0.879,0.886,2.299,0.012,3.17l-5.932,5.916L43.1,37.914z"/>
</g>
</svg>
