<?xml version="1.0" encoding="iso-8859-1"?>
<!-- Generator: Adobe Illustrator 13.0.2, SVG Export Plug-In . SVG Version: 6.00 Build 14948)  -->
<!DOCTYPE svg PUBLIC "-//W3C//DTD SVG 1.1//EN" "http://www.w3.org/Graphics/SVG/1.1/DTD/svg11.dtd">
<svg version="1.1" xmlns="http://www.w3.org/2000/svg" xmlns:xlink="http://www.w3.org/1999/xlink" x="0px" y="0px" width="280px"
	 height="280px" viewBox="0 0 280 280" style="enable-background:new 0 0 280 280;" xml:space="preserve">
	<g id="icon-l-facebook">
		<path style="fill-rule:evenodd;clip-rule:evenodd;fill:#3C5A98;" d="M33.693,131.016c0.421-2.947,0.736-6.005,0.95-9.161
			c-2.739,0-5.479,0-8.215,0c0.381-2.766-0.674-5.454,0.472-7.108c1.309-1.889,4.789-0.508,7.743-0.949c0-3.055,0-6.107,0-9.162
			c-7,0.008-13.035-0.609-16.429,2.843c-3.021,3.077-2.753,8.284-3,14.377c-1.74,0-3.479,0-5.215,0c0,3.055,0,6.105,0,9.161
			c1.739,0.105,3.893-0.21,5.371,0.159c0,8.014,0,18.206,0,26.222c3.686,0,7.367,0,11.058,0c0.104-8.742-0.212-17.903,0.155-26.381
			C28.953,131.016,31.325,131.016,33.693,131.016z M143.317,122.485c-0.239-4.079,0.309-10.775,0-15.321
			c-0.11-1.592,0.02-1.656-1.264-1.422c-2.796,0.513-6.837,0.945-9.794,1.735c0,16.222,0,33.275,0,48.97
			c9.692,1.215,23.667,3.943,29.379-3.16c2.695-3.345,2.687-8.963,2.687-15.164c0-4.648,0.261-9.059-1.422-12.164
			C160.068,120.73,149.795,120.584,143.317,122.485z M152.163,147.442c-2.021,2.269-5.661,1.18-8.846,1.264
			c0-5.581,0-11.161,0-16.742c2.504-0.886,6.75-2.712,9.003-0.317c1.316,1.397,0.946,5.038,0.946,8.057
			C153.267,142.483,153.664,145.76,152.163,147.442z M270,121.854c-3.947,0-7.897,0-11.847,0c-3.382,4.938-6.603,10.876-9.952,15.32
			c-0.207-10.48,0.417-21.72-0.315-31.59c-3.638,0.521-7.123,1.194-10.74,1.737c0,16.69,0,33.381,0,50.074c3.687,0,7.368,0,11.056,0
			c0-5.426,0-10.849,0-16.271c3.559,5.234,6.422,11.166,10.109,16.271c3.842,0,7.688,0,11.531,0
			c-3.104-5.955-7.324-12.16-10.74-18.326C262.842,133.439,266.428,127.653,270,121.854z M73.182,123.749
			c-5.144,3.138-6,9.382-6,16.427c0,7.062,1.342,12.925,6.789,15.795c5.823,3.065,13.711,2.035,20.696,0.477
			c0-2.949,0-5.898,0-8.848c-4.347,0.231-14.085,3.289-15.954-1.104c-0.646-1.515-0.475-4.695-0.475-7.108
			c0-3.68-0.277-6.825,1.736-8.057c4.043-2.474,10.471,0.423,14.692,0.315c0-2.947,0-5.896,0-8.846
			C87.775,120.986,78.495,120.511,73.182,123.749z M110.937,121.379c-5.019,0.372-9.081,2.187-11.218,5.687
			c-2.632,4.325-2.368,11.855-1.895,18.009c1.052,13.645,16.475,14.489,30.015,11.531c0-3.003,0-6.002,0-9.006
			c-5.423,0.234-20.828,4.704-18.957-4.738c6.635,0,13.269,0,19.903,0C130.503,127.714,125.084,120.34,110.937,121.379z
			 M117.728,135.438c-2.949,0-5.896,0-8.846,0c0.007-1.611-0.408-3.199,0.788-4.58c1.422-1.633,5.451-1.629,6.951-0.317
			C117.731,131.512,117.777,133.122,117.728,135.438z M181.069,121.539c-5.931,0.494-10.179,2.707-12.162,6.475
			c-2.536,4.816-2.396,18.648,0,23.221c4.717,8.999,23.674,8.566,28.432,0.473c2.99-5.084,2.876-19.508-0.157-24.481
			C194.429,122.71,187.817,120.973,181.069,121.539z M187.072,147.6c-1.727,1.689-6.429,1.809-8.056-0.471
			c-1.048-1.469-0.792-4.744-0.792-7.426c0-5.201-0.452-8.48,4.267-9.003c5.998-0.666,5.687,3.345,5.687,9.476
			C188.178,142.955,188.318,146.377,187.072,147.6z M216.136,121.539c-6.153,0.453-10.6,2.755-12.637,7.264
			c-2.323,5.143-1.962,18.584,0.633,22.904c3.938,6.556,18.138,8.555,25.272,3.161c2.657-2.012,4.416-5.425,4.738-9.636
			c0.391-5.057,0.659-11.605-0.946-15.797C230.981,123.66,224.197,120.942,216.136,121.539z M222.296,147.285
			c-1.677,2.078-7.26,1.925-8.528-0.476c-0.95-1.794-0.987-11.946-0.157-13.899c0.563-1.335,1.686-1.96,3.632-2.21
			c2.651-0.342,4.982,0.356,5.687,2.527C223.601,135.3,223.262,146.09,222.296,147.285z M61.969,126.435
			c-3.844-5.941-13.947-4.302-23.693-4.58c-0.46,2.912-0.741,6-0.948,9.161c4.355,0.57,12.626-1.18,14.689,1.262
			c0.951,1.127,0.609,3.329,0.634,5.056c-5.686,0.128-11.445-0.566-15.008,1.424c-7.121,3.974-4.902,18.28,5.054,19.11
			c3.942,0.328,7.607-0.791,11.533-2.527c0.155,0.79-0.041,1.939,0.631,2.212c2.949,0,5.896,0,8.843,0
			C62.427,148.335,66.115,132.846,61.969,126.435z M52.65,148.706c-1.789,0.866-6.506,2.515-7.742,0
			c-0.261-0.533-0.693-2.16,0-3.159c1.15-1.65,5.064-0.38,7.742-0.79C52.777,145.66,52.563,147.345,52.65,148.706z"/>
		<rect style="fill:none;" width="280" height="280"/>
		<rect id="_x3C_Slice_x3E__19_" style="fill:none;" width="280" height="280"/>
	</g>
</svg>
