<?xml version="1.0" encoding="iso-8859-1"?>
<!-- Generator: Adobe Illustrator 14.0.0, SVG Export Plug-In . SVG Version: 6.00 Build 43363)  -->
<!DOCTYPE svg PUBLIC "-//W3C//DTD SVG 1.1//EN" "http://www.w3.org/Graphics/SVG/1.1/DTD/svg11.dtd">
<svg version="1.1" id="icon-m-toolbar-send-email-layer"
	 xmlns="http://www.w3.org/2000/svg" xmlns:xlink="http://www.w3.org/1999/xlink" x="0px" y="0px" width="65px" height="64px"
	 viewBox="0 0 65 64" style="enable-background:new 0 0 65 64;" xml:space="preserve">
<g id="icon-m-toolbar-send-email">
	<rect x="1" style="fill:none;" width="64" height="64"/>
	<path style="fill:#FFFFFF;" d="M51.719,19.094c-2.858-2.857-6.871-4.283-12.042-4.283c-3.382,0-6.475,0.682-9.271,2.061
		c-2.798,1.373-4.965,3.338-6.485,5.9c-1.536,2.573-2.298,5.594-2.298,9.077c0,5.58,1.638,9.856,4.917,12.851
		c3.273,2.996,7.695,4.49,13.264,4.49c1.383,0,2.963-0.15,4.776-0.434c1.789-0.289,3.266-0.645,4.374-1.051v-3.531
		c-3.061,1.023-6.006,1.527-8.799,1.527c-4.726,0-8.264-1.169-10.632-3.523c-2.369-2.336-3.542-5.854-3.542-10.53
		c0-4.185,1.28-7.469,3.86-9.827c2.56-2.375,5.864-3.563,9.93-3.563c3.868,0,6.866,1.129,8.985,3.383
		c2.117,2.262,3.167,5.426,3.167,9.513c0,2.319-0.309,4.12-0.952,5.392c-0.653,1.291-1.53,1.922-2.651,1.922
		c-0.867,0-1.482-0.258-1.849-0.753c-0.358-0.505-0.545-1.559-0.545-3.171c0-2.651,0.491-6.67,1.48-12.08H41.32
		c-3.457,0-6.209,1.035-8.277,3.089c-2.055,2.058-3.095,4.885-3.095,8.511c0,2.319,0.605,4.144,1.781,5.506
		c1.19,1.352,2.64,2.031,4.346,2.031c2.55,0,4.562-1.306,6.045-3.886c0.344,1.217,1.002,2.176,1.937,2.848
		c0.93,0.704,2.02,1.038,3.27,1.038c2.69,0,4.825-0.936,6.361-2.786C55.24,36.977,56,34.366,56,30.974
		C56,25.914,54.576,21.948,51.719,19.094z M41.195,31.603c-0.566,4.553-1.765,6.819-3.604,6.819c-0.982,0-1.678-0.361-2.075-1.11
		c-0.404-0.753-0.6-1.897-0.6-3.454c0-2.514,0.549-4.499,1.626-5.979c1.1-1.486,2.418-2.222,3.938-2.222h1.476L41.195,31.603z"/>
	<path style="fill:#FFFFFF;" d="M9.044,24.643c0,1.061,1.045,1.929,2.321,1.929h7.697v-3.856h-7.697
		C10.09,22.715,9.044,23.582,9.044,24.643z"/>
	<path style="fill:#FFFFFF;" d="M9.044,32.379c0,1.063,1.045,1.932,2.321,1.932h7.697v-3.857h-7.697
		C10.09,30.453,9.044,31.32,9.044,32.379z"/>
	<path style="fill:#FFFFFF;" d="M9.044,40.118c0,1.06,1.045,1.929,2.321,1.929h7.697V38.19h-7.697
		C10.09,38.19,9.044,39.058,9.044,40.118z"/>
</g>
</svg>
