<?xml version="1.0" encoding="iso-8859-1"?>
<!-- Generator: Adobe Illustrator 14.0.0, SVG Export Plug-In . SVG Version: 6.00 Build 43363)  -->
<!DOCTYPE svg PUBLIC "-//W3C//DTD SVG 1.1//EN" "http://www.w3.org/Graphics/SVG/1.1/DTD/svg11.dtd">
<svg version="1.1" id="icon-m-organizer-location-user-layer"
	 xmlns="http://www.w3.org/2000/svg" xmlns:xlink="http://www.w3.org/1999/xlink" x="0px" y="0px" width="64px" height="64px"
	 viewBox="0 0 64 64" style="enable-background:new 0 0 64 64;" xml:space="preserve">
<g id="icon-m-organizer-location-user">
	<rect x="0.007" style="fill:none;" width="63.987" height="64"/>
	<path style="fill:#333333;" d="M40.514,12.809c3.6,0,6.519-2.863,6.519-6.388c0-3.534-2.919-6.407-6.519-6.407
		c-3.605,0-6.523,2.873-6.523,6.407C33.99,9.945,36.908,12.809,40.514,12.809z"/>
	<path style="fill:#333333;" d="M63.984,56.013V28.26H55.6v5.199l6.385-3.051v9.363l-9.662,4.83l-6.298-6.162H28l-6.521,3.115
		L9.848,30.259h15.389V28.26H0v34.901h63.984v-7.116L64,56.028L63.984,56.013z M2,31.227l13.553,13.161L2,50.863V31.227z M2,61.162
		v-2.344l0.097,0.205l19.12-9.136l11.61,11.274H2z M27.144,47.057l16.683-7.972l11.75,11.497l-15.851,8.691L27.144,47.057z
		 M61.984,61.162H42.456l15.337-8.41l4.191,4.102V61.162z M61.984,54.057l-7.393-7.234l7.393-3.697V54.057z"/>
	<path style="fill:#333333;" d="M40.416,15.985c-5.072,0-9.181,3.55-9.181,7.934v8.521h18.366v-8.521
		C49.601,19.535,45.49,15.985,40.416,15.985z"/>
</g>
</svg>
