<?xml version="1.0" encoding="iso-8859-1"?>
<!-- Generator: Adobe Illustrator 14.0.0, SVG Export Plug-In . SVG Version: 6.00 Build 43363)  -->
<!DOCTYPE svg PUBLIC "-//W3C//DTD SVG 1.1//EN" "http://www.w3.org/Graphics/SVG/1.1/DTD/svg11.dtd">
<svg version="1.1" id="icon-m-common-forward-layer"
	 xmlns="http://www.w3.org/2000/svg" xmlns:xlink="http://www.w3.org/1999/xlink" x="0px" y="0px" width="64px" height="64px"
	 viewBox="0 0 64 64" style="enable-background:new 0 0 64 64;" xml:space="preserve">
<g id="icon-m-common-forward">
	<rect style="fill:none;" width="64" height="64"/>
	<g>
		<path style="fill:#333333;" d="M0,49.131c0,1.1,0.782,1.554,1.737,1.009l27.014-15.422c0.955-0.545,1.737-0.091,1.737,1.009
			v13.404c0,1.1,0.782,1.554,1.737,1.009l30.038-17.148c0.956-0.545,0.956-1.438,0-1.982L32.225,13.862
			c-0.955-0.545-1.737-0.091-1.737,1.009v13.402c0,1.1-0.782,1.554-1.737,1.009L1.737,13.862C0.782,13.317,0,13.771,0,14.871V49.131
			z"/>
	</g>
</g>
</svg>
