<?xml version="1.0" encoding="iso-8859-1"?>
<!-- Generator: Adobe Illustrator 14.0.0, SVG Export Plug-In . SVG Version: 6.00 Build 43363)  -->
<!DOCTYPE svg PUBLIC "-//W3C//DTD SVG 1.1//EN" "http://www.w3.org/Graphics/SVG/1.1/DTD/svg11.dtd">
<svg version="1.1" id="icon-m-framework-search-layer"
	 xmlns="http://www.w3.org/2000/svg" xmlns:xlink="http://www.w3.org/1999/xlink" x="0px" y="0px" width="64px" height="64px"
	 viewBox="0 0 64 64" style="enable-background:new 0 0 64 64;" xml:space="preserve">
<g id="icon-m-framework-search">
	<rect style="fill:none;" width="64" height="64"/>
	<path style="fill:#FFFFFF;" d="M35.713,16.063c-5.417-5.417-14.231-5.417-19.647,0c-5.417,5.415-5.417,14.231,0,19.646
		c4.971,4.973,12.805,5.377,18.247,1.221l2.918,2.918l0.598,3.352c0.063,0.34,0.311,0.818,0.555,1.063l7.377,7.373
		c0.486,0.487,1.285,0.487,1.773,0l4.102-4.102c0.487-0.486,0.488-1.285,0-1.772l-7.37-7.382c-0.245-0.244-0.722-0.492-1.062-0.554
		l-3.355-0.599l-2.915-2.916C41.09,28.867,40.685,21.035,35.713,16.063z M32.66,32.658c-3.733,3.731-9.807,3.731-13.541,0
		c-3.734-3.734-3.734-9.809-0.001-13.543c3.734-3.732,9.809-3.732,13.542,0C36.393,22.85,36.393,28.925,32.66,32.658z"/>
</g>
</svg>
