<?xml version="1.0" encoding="iso-8859-1"?>
<!-- Generator: Adobe Illustrator 14.0.0, SVG Export Plug-In . SVG Version: 6.00 Build 43363)  -->
<!DOCTYPE svg PUBLIC "-//W3C//DTD SVG 1.1//EN" "http://www.w3.org/Graphics/SVG/1.1/DTD/svg11.dtd">
<svg version="1.1" id="icon-m-music-video-fm-transmitter-layer"
	 xmlns="http://www.w3.org/2000/svg" xmlns:xlink="http://www.w3.org/1999/xlink" x="0px" y="0px" width="64px" height="64px"
	 viewBox="0 0 64 64" style="enable-background:new 0 0 64 64;" xml:space="preserve">
<g id="icon-m-music-video-fm-transmitter">
	<rect style="fill:none;" width="64" height="64"/>
	<path style="fill:#333333;" d="M49.6,22.029L47.558,25c2.229,1.945,3.729,5.506,3.73,9.579c0,4.581-1.892,8.518-4.589,10.231
		l2.34,2.624c3.281-2.547,5.505-7.349,5.506-12.856C54.545,29.547,52.426,24.701,49.6,22.029z"/>
	<path style="fill:#333333;" d="M56.325,12.861l-2.28,2.553c4.067,4.368,6.699,11.336,6.699,19.164
		c0,8.308-2.968,15.64-7.461,19.929l2.291,2.569c5.092-5.003,8.424-13.22,8.426-22.498C63.998,25.764,60.992,17.91,56.325,12.861z"
		/>
	<path style="fill:#333333;" d="M0,22.273v25.322c0,1.146,0.927,2.073,2.075,2.073h39.004c1.146,0,2.077-0.928,2.077-2.073V22.273
		c0-1.146-0.932-2.076-2.077-2.076h-5.022L9.675,7.063c-0.664-0.33-1.478-0.055-1.808,0.615l-0.248,0.5
		C7.291,8.845,7.564,9.662,8.228,9.992l20.501,10.205H2.075C0.927,20.197,0,21.127,0,22.273z M24.321,40.994
		c0-3.271,2.649-5.916,5.914-5.918c3.272,0.002,5.919,2.647,5.919,5.918c0,3.267-2.646,5.913-5.919,5.917
		C26.971,46.907,24.321,44.261,24.321,40.994z M6.918,40.994c0-3.271,2.65-5.916,5.918-5.918c3.27,0.002,5.916,2.647,5.916,5.918
		c0,3.267-2.646,5.913-5.916,5.917C9.568,46.907,6.918,44.261,6.918,40.994z M4.15,25.766c0-0.771,0.624-1.4,1.39-1.4H37.56
		c0.767,0,1.394,0.629,1.394,1.4v4.669c0,0.769-0.627,1.398-1.394,1.398H16.716l-1.779-6.304l-1.779,6.304H5.541
		c-0.766,0-1.39-0.63-1.39-1.398V25.766z"/>
</g>
</svg>
