<?xml version="1.0" encoding="iso-8859-1"?>
<!-- Generator: Adobe Illustrator 14.0.0, SVG Export Plug-In . SVG Version: 6.00 Build 43363)  -->
<!DOCTYPE svg PUBLIC "-//W3C//DTD SVG 1.1//EN" "http://www.w3.org/Graphics/SVG/1.1/DTD/svg11.dtd">
<svg version="1.1" id="icon-m-organizer-day-layer" xmlns="http://www.w3.org/2000/svg" xmlns:xlink="http://www.w3.org/1999/xlink"
	 x="0px" y="0px" width="64px" height="64px" viewBox="0 0 64 64" style="enable-background:new 0 0 64 64;" xml:space="preserve">
<g id="icon-m-organizer-day">
	<rect style="fill:none;" width="64" height="64"/>
	<path style="fill:#333333;" d="M21.525,10.021c0,1.146-0.934,2.086-2.077,2.086h-0.511c-1.143,0-2.078-0.939-2.078-2.086V2.152
		c0-1.148,0.936-2.088,2.078-2.088h0.511c1.144,0,2.077,0.939,2.077,2.088V10.021z"/>
	<path style="fill:#333333;" d="M47.432,10.021c0,1.146-0.936,2.086-2.079,2.086h-0.511c-1.143,0-2.078-0.939-2.078-2.086V2.152
		c0-1.148,0.936-2.088,2.078-2.088h0.511c1.144,0,2.079,0.939,2.079,2.088V10.021z"/>
	<path style="fill:#333333;" d="M5.291,62c0,1.1,0.9,2,2,2h49.307c1.1,0,2-0.9,2-2l0.057-37.863H5.316L5.291,62z M24.248,53.758
		h5.312v-18.07l-5.312,1.143v-2.979l7.863-2.457h3v22.363h5v3.043H24.248V53.758z"/>
	<path style="fill:#333333;" d="M51.711,9.777c-0.384,3.508-3.299,6.234-6.84,6.234s-6.455-2.727-6.84-6.234H25.806
		c-0.384,3.508-3.298,6.234-6.839,6.234c-3.542,0-6.455-2.727-6.841-6.234H5.316v10.348h53.367V9.777H51.711z"/>
</g>
</svg>
