<?xml version="1.0" encoding="iso-8859-1"?>
<!-- Generator: Adobe Illustrator 14.0.0, SVG Export Plug-In . SVG Version: 6.00 Build 43363)  -->
<!DOCTYPE svg PUBLIC "-//W3C//DTD SVG 1.1//EN" "http://www.w3.org/Graphics/SVG/1.1/DTD/svg11.dtd">
<svg version="1.1" id="icon-m-common-grid-6column-layer"
	 xmlns="http://www.w3.org/2000/svg" xmlns:xlink="http://www.w3.org/1999/xlink" x="0px" y="0px" width="64px" height="64px"
	 viewBox="0 0 64 64" style="enable-background:new 0 0 64 64;" xml:space="preserve">
<g id="icon-m-common-grid-6column">
	<rect style="fill:none;" width="64" height="64"/>
	<rect style="fill:#333333;" width="21" height="6"/>
	<rect y="11.6" style="fill:#333333;" width="21" height="6"/>
	<rect y="23.199" style="fill:#333333;" width="21" height="6"/>
	<rect y="34.801" style="fill:#333333;" width="21" height="5.998"/>
	<rect y="46.4" style="fill:#333333;" width="21" height="6"/>
	<rect y="58" style="fill:#333333;" width="21" height="6"/>
	<rect x="28" style="fill:#333333;" width="21" height="6"/>
	<rect x="28" y="11.6" style="fill:#333333;" width="21" height="6"/>
	<path style="fill:#333333;" d="M38.52,23.199H28v6h0.883C31.542,26.491,34.835,24.412,38.52,23.199z"/>
	<path style="fill:#333333;" d="M46,28c-9.94,0-18,8.06-18,18c0,9.942,8.06,18,18,18c9.941,0,18-8.058,18-18
		C64,36.06,55.941,28,46,28z M45.916,57.402c-7.832,0-7.832-8.044-7.832-10.688c0-7.588,3.66-12.117,9.791-12.117
		c1.139,0,2.356,0.086,3.343,0.234l0.851,0.131v4.816l-1.191-0.232c-0.931-0.18-1.718-0.262-2.553-0.262
		c-1.077,0-2.473,0.308-3.188,2.564c0.682-0.206,1.443-0.309,2.291-0.309c4.123,0,6.488,2.764,6.488,7.58
		C53.916,54.307,50.926,57.402,45.916,57.402z"/>
	<path style="fill:#333333;" d="M46.084,46.23c-0.897,0-1.352,0.859-1.352,2.555c0,2.93,0.34,4.068,1.211,4.068
		c0.751,0,1.324-0.268,1.324-3.647C47.268,46.23,46.498,46.23,46.084,46.23z"/>
</g>
</svg>
