<?xml version="1.0" encoding="iso-8859-1"?>
<!-- Generator: Adobe Illustrator 14.0.0, SVG Export Plug-In . SVG Version: 6.00 Build 43363)  -->
<!DOCTYPE svg PUBLIC "-//W3C//DTD SVG 1.1//EN" "http://www.w3.org/Graphics/SVG/1.1/DTD/svg11.dtd">
<svg version="1.1" id="icon-m-common-cellular-layer"
	 xmlns="http://www.w3.org/2000/svg" xmlns:xlink="http://www.w3.org/1999/xlink" x="0px" y="0px" width="64px" height="64px"
	 viewBox="0 0 64 64" style="enable-background:new 0 0 64 64;" xml:space="preserve">
<g id="icon-m-common-cellular">
	<rect style="fill:none;" width="64" height="64"/>
	<path style="fill:#333333;" d="M42.798,13.427c-8.384,3.938-25.033,18.571-28.992,28.943c-1.733,4.542,1.813,11.726,4.614,13.955
		c-0.002,0.01,1.441,1.208,2.521-0.018l7.55-10.164c0.514-0.658,1.019-1.522-0.021-2.553c0,0-5.225-3.759-3.712-6.161
		c1.056-1.662,11.439-12.028,13.103-13.08c2.411-1.515,6.181,3.695,6.181,3.695c1.041,1.035,1.901,0.522,2.561,0.016l10.194-7.543
		c1.228-1.09,0.021-2.523,0.014-2.523C54.564,15.221,47.22,11.354,42.798,13.427z"/>
</g>
</svg>
