<?xml version="1.0" encoding="iso-8859-1"?>
<!-- Generator: Adobe Illustrator 14.0.0, SVG Export Plug-In . SVG Version: 6.00 Build 43363)  -->
<!DOCTYPE svg PUBLIC "-//W3C//DTD SVG 1.1//EN" "http://www.w3.org/Graphics/SVG/1.1/DTD/svg11.dtd">
<svg version="1.1" id="icon-l-help-layer" xmlns="http://www.w3.org/2000/svg" xmlns:xlink="http://www.w3.org/1999/xlink" x="0px"
	 y="0px" width="64px" height="64px" viewBox="0 0 64 64" style="enable-background:new 0 0 64 64;" xml:space="preserve">
<g id="icon-l-help">
	<rect style="fill:none;" width="64" height="64"/>
	<g>
		<path style="opacity:0.2;fill:#010101;" d="M32,6C17.642,6,6.003,17.637,5.999,32C6.003,46.363,17.642,57.996,32,58
			c14.357-0.004,25.996-11.637,26-26C57.996,17.637,46.357,6,32,6z"/>
		<path style="opacity:0.5;fill:#010101;" d="M56.401,32c0,13.479-10.925,24.398-24.401,24.398C18.527,56.398,7.6,45.479,7.6,32
			C7.6,18.523,18.527,7.602,32,7.602C45.477,7.602,56.401,18.523,56.401,32z"/>
		<linearGradient id="SVGID_1_" gradientUnits="userSpaceOnUse" x1="32.0005" y1="5.6011" x2="32.0005" y2="102.7834">
			<stop  offset="0" style="stop-color:#FFFFFF"/>
			<stop  offset="1" style="stop-color:#B3B2C9"/>
		</linearGradient>
		<path style="fill:url(#SVGID_1_);" d="M56.401,30.398C56.401,43.878,45.477,54.8,32,54.8c-13.474,0-24.4-10.922-24.4-24.401
			C7.6,16.926,18.527,6,32,6C45.477,6,56.401,16.926,56.401,30.398z"/>
		<linearGradient id="SVGID_2_" gradientUnits="userSpaceOnUse" x1="33.5449" y1="-102.8267" x2="33.5449" y2="369.6046">
			<stop  offset="0" style="stop-color:#517DBF"/>
			<stop  offset="1" style="stop-color:#293175"/>
		</linearGradient>
		<path style="fill:url(#SVGID_2_);" d="M34.922,44.912c0,1.994-1.619,3.616-3.617,3.616c-1.995,0-3.612-1.622-3.612-3.616
			c0-1.996,1.618-3.615,3.612-3.615C33.303,41.297,34.922,42.916,34.922,44.912z M24.688,18.678
			c2.334-0.687,4.344-1.026,6.041-1.026c1.738,0,3.042,0.382,3.914,1.146c0.87,0.763,1.303,1.905,1.303,3.435
			c0,0.729-0.172,1.476-0.534,2.24c-0.36,0.763-1.291,1.873-2.808,3.339c-1.43,1.361-2.493,2.603-3.175,3.728
			c-0.69,1.134-1.033,2.47-1.033,4.009v2.402h5.812v-2.081c0-0.933,0.247-1.753,0.731-2.46c0.491-0.707,1.462-1.78,2.905-3.214
			c1.988-1.98,3.24-3.572,3.766-4.77c0.529-1.2,0.791-2.377,0.791-3.517c0-2.716-0.905-4.767-2.732-6.16
			c-1.825-1.384-4.461-2.079-7.912-2.079c-2.07,0-4.426,0.362-7.068,1.075V18.678"/>
	</g>
</g>
</svg>
