<?xml version="1.0" encoding="iso-8859-1"?>
<!-- Generator: Adobe Illustrator 14.0.0, SVG Export Plug-In . SVG Version: 6.00 Build 43363)  -->
<!DOCTYPE svg PUBLIC "-//W3C//DTD SVG 1.1//EN" "http://www.w3.org/Graphics/SVG/1.1/DTD/svg11.dtd">
<svg version="1.1" id="icon-l-clock-layer" xmlns="http://www.w3.org/2000/svg" xmlns:xlink="http://www.w3.org/1999/xlink" x="0px"
	 y="0px" width="64px" height="64px" viewBox="0 0 64 64" style="enable-background:new 0 0 64 64;" xml:space="preserve">
<g id="icon-l-clock">
	<rect style="fill:none;" width="64" height="64"/>
	<path style="opacity:0.2;fill:#010101;" d="M32,4.526C16.537,4.529,4,17.055,4,32.522c0,15.47,12.537,28.004,28,28.004
		c15.465,0,28-12.534,28-28.004C60,17.055,47.465,4.529,32,4.526z"/>
	<circle style="opacity:0.5;fill:#010101;" cx="32" cy="32.526" r="26.404"/>
	<linearGradient id="SVGID_1_" gradientUnits="userSpaceOnUse" x1="32" y1="3.8716" x2="32" y2="65.9165">
		<stop  offset="0" style="stop-color:#E3E3E3"/>
		<stop  offset="1" style="stop-color:#414141"/>
	</linearGradient>
	<path style="fill:url(#SVGID_1_);" d="M58.404,30.924c0,14.587-11.82,26.406-26.402,26.406c-14.585,0-26.406-11.819-26.406-26.406
		c0-14.584,11.821-26.397,26.406-26.397C46.584,4.526,58.404,16.34,58.404,30.924z"/>
	<linearGradient id="SVGID_2_" gradientUnits="userSpaceOnUse" x1="32.0024" y1="15.4678" x2="32.0024" y2="69.0582">
		<stop  offset="0" style="stop-color:#FFFFFF"/>
		<stop  offset="1" style="stop-color:#B3B3B3"/>
	</linearGradient>
	<path style="fill:url(#SVGID_2_);" d="M53.881,30.924c0,12.087-9.799,21.879-21.878,21.879c-12.083,0-21.878-9.792-21.878-21.879
		c0-12.086,9.795-21.875,21.878-21.875C44.082,9.049,53.881,18.838,53.881,30.924z"/>
	<path style="opacity:0.35;fill:#FFFFFF;" d="M15.854,42.715l35.642-16.617C48.389,13.791,34.461,7.318,22.921,13.259
		C12.062,18.844,8.708,32.838,15.854,42.715z"/>
	<path style="fill:#414141;" d="M51.693,31.15c0,0.873-0.711,1.584-1.584,1.584c-0.871,0-1.582-0.711-1.582-1.584
		c0-0.871,0.711-1.582,1.582-1.582C50.982,29.568,51.693,30.279,51.693,31.15z"/>
	<path style="fill:#414141;" d="M33.777,49.059c0,0.88-0.716,1.588-1.59,1.588c-0.868,0-1.585-0.708-1.585-1.588
		c0-0.865,0.718-1.58,1.585-1.58C33.062,47.479,33.777,48.193,33.777,49.059z"/>
	<path style="fill:#414141;" d="M15.867,31.152c0,0.871-0.718,1.582-1.589,1.582s-1.582-0.711-1.582-1.582
		c0-0.873,0.711-1.582,1.582-1.582S15.867,30.279,15.867,31.152z"/>
	<path style="fill:#414141;" d="M33.777,13.234c0,0.87-0.716,1.584-1.59,1.584c-0.868,0-1.585-0.714-1.585-1.584
		c0-0.877,0.718-1.582,1.585-1.582C33.062,11.652,33.777,12.357,33.777,13.234z"/>
	<path style="fill:#414141;" d="M43.025,27.084l-0.984-2.119l-8.182,3.807c-0.893-0.76-1.871-0.78-2.57-0.599l-9.68-12.104
		l-1.817,1.458l9.68,12.104c-0.922,1.803,0.293,4.146,2.53,4.146c1.576,0,2.851-1.283,2.851-2.854c0-0.014-0.002-0.027-0.002-0.039
		L43.025,27.084z"/>
	<linearGradient id="SVGID_3_" gradientUnits="userSpaceOnUse" x1="32.0005" y1="71.1016" x2="32.0005" y2="-2.1764">
		<stop  offset="0" style="stop-color:#E3E3E3"/>
		<stop  offset="1" style="stop-color:#414141"/>
	</linearGradient>
	<path style="fill:url(#SVGID_3_);" d="M9.37,30.998C9.37,18.495,19.5,8.369,32.002,8.369l0,0c12.5,0,22.626,10.126,22.626,22.629
		l0,0h0.002c-0.002,12.5-10.129,22.631-22.628,22.633l0,0C19.5,53.629,9.37,43.498,9.37,30.998L9.37,30.998z M10.878,30.998
		c0.02,11.668,9.457,21.102,21.124,21.124l0,0C43.666,52.1,53.1,42.666,53.119,30.998l0,0C53.1,19.328,43.666,9.893,32.002,9.873
		l0,0C20.335,9.893,10.898,19.328,10.878,30.998L10.878,30.998z"/>
</g>
</svg>
