<?xml version="1.0" encoding="iso-8859-1"?>
<!-- Generator: Adobe Illustrator 14.0.0, SVG Export Plug-In . SVG Version: 6.00 Build 43363)  -->
<!DOCTYPE svg PUBLIC "-//W3C//DTD SVG 1.1//EN" "http://www.w3.org/Graphics/SVG/1.1/DTD/svg11.dtd">
<svg version="1.1" id="icon-m-gallery-dlna-layer" xmlns="http://www.w3.org/2000/svg" xmlns:xlink="http://www.w3.org/1999/xlink"
	 x="0px" y="0px" width="64px" height="64px" viewBox="0 0 64 64" style="enable-background:new 0 0 64 64;" xml:space="preserve">
<g id="icon-m-gallery-dlna">
	<rect style="fill:none;" width="64" height="64"/>
	<path style="fill:#333333;" d="M32.745,34.75c-0.841,0.088-3.477,0.506-5.166,2.352c-0.066,0.07-0.117,0.115-0.175,0.172
		c-1.555,1.963-3.958,3.227-6.657,3.227c-4.696,0-8.502-3.805-8.502-8.5c0-4.693,3.806-8.5,8.502-8.5
		c2.662,0,5.036,1.225,6.591,3.141c0.078,0.072,0.15,0.141,0.241,0.236c1.976,2.16,5.25,2.363,5.421,2.373h30.619
		C62.044,15.184,48.524,4.193,32.079,4.193c-10.247,0-19.356,4.271-25.15,10.891h21.484c0.841-0.088,3.477-0.506,5.166-2.352
		c0.064-0.07,0.115-0.115,0.173-0.172c1.559-1.963,3.958-3.227,6.659-3.227c4.696,0,8.5,3.805,8.5,8.5c0,4.693-3.804,8.5-8.5,8.5
		c-2.661,0-5.038-1.225-6.594-3.141c-0.074-0.072-0.15-0.14-0.238-0.236c-1.978-2.16-5.25-2.362-5.42-2.373H3.179
		C1.387,24.068,0.383,27.93,0.383,32s1.004,7.934,2.796,11.418h25.234c0.841-0.09,3.477-0.506,5.166-2.352
		c0.064-0.07,0.115-0.115,0.173-0.172c1.559-1.963,3.958-3.227,6.659-3.227c4.696,0,8.5,3.805,8.5,8.5c0,4.693-3.804,8.5-8.5,8.5
		c-2.661,0-5.038-1.227-6.594-3.141c-0.074-0.072-0.15-0.14-0.238-0.236c-1.978-2.16-5.25-2.365-5.42-2.373H6.929
		c5.794,6.619,14.903,10.889,25.15,10.889c16.445,0,29.965-10.99,31.54-25.057H32.745z"/>
</g>
</svg>
