<?xml version="1.0" encoding="iso-8859-1"?>
<!-- Generator: Adobe Illustrator 14.0.0, SVG Export Plug-In . SVG Version: 6.00 Build 43363)  -->
<!DOCTYPE svg PUBLIC "-//W3C//DTD SVG 1.1//EN" "http://www.w3.org/Graphics/SVG/1.1/DTD/svg11.dtd">
<svg version="1.1" id="icon-m-energy-management-charging50-layer"
	 xmlns="http://www.w3.org/2000/svg" xmlns:xlink="http://www.w3.org/1999/xlink" x="0px" y="0px" width="64px" height="64px"
	 viewBox="0 0 64 64" style="enable-background:new 0 0 64 64;" xml:space="preserve">
<g id="icon-m-energy-management-charging50">
	<rect style="fill:none;" width="64" height="64"/>
	<path style="fill:#333333;" d="M25.609,58.092H6.117c-1.003,0-1.829-0.824-1.829-1.828v-42c0-1.004,0.825-1.83,1.829-1.83h23.772
		c1.004,0,1.828,0.826,1.828,1.83v12.714c1.326-1.022,2.759-1.91,4.283-2.64V8.722c0-1.007-0.821-1.827-1.826-1.827h-9.803V4.152
		c0-1.006-0.822-1.83-1.827-1.83h-9.085c-1.004,0-1.826,0.824-1.826,1.83v2.742H1.828C0.822,6.895,0,7.715,0,8.722v51.124
		c0,1.008,0.822,1.83,1.828,1.83h26.349C27.216,60.564,26.356,59.365,25.609,58.092z"/>
	<path style="fill:#333333;" d="M22.327,45.998c0-4.709,1.369-9.102,3.722-12.812H7.736v21.112h16.071
		C22.851,51.711,22.327,48.914,22.327,45.998z"/>
	<path style="fill:#333333;" d="M54.148,49.442v3.675c-0.003,1.232-1.296,2.236-2.872,2.232l-7.782-0.033l0.016-4.064l-7.924-0.031
		c-0.42,0-0.761-0.343-0.759-0.766l0.005-1.396c0-0.418,0.346-0.759,0.766-0.758l7.93,0.028l0.01-4.707l-7.922-0.016
		c-0.421-0.001-0.76-0.344-0.76-0.764l0.004-1.396c0.004-0.421,0.347-0.762,0.766-0.76l7.924,0.014l0.016-4.051l7.782,0.009
		c1.576,0.005,2.86,1.018,2.856,2.25l-0.013,3.696L64,42.627c-1.58-8.326-8.886-14.629-17.673-14.629c-9.94,0-18,8.06-18,18
		c0,9.941,8.06,18,18,18c8.763,0,16.055-6.264,17.663-14.556H54.148z"/>
</g>
</svg>
