<?xml version="1.0" encoding="iso-8859-1"?>
<!-- Generator: Adobe Illustrator 14.0.0, SVG Export Plug-In . SVG Version: 6.00 Build 43363)  -->
<!DOCTYPE svg PUBLIC "-//W3C//DTD SVG 1.1//EN" "http://www.w3.org/Graphics/SVG/1.1/DTD/svg11.dtd">
<svg version="1.1" id="icon-m-organizer-checkbox-unchecked-layer"
	 xmlns="http://www.w3.org/2000/svg" xmlns:xlink="http://www.w3.org/1999/xlink" x="0px" y="0px" width="64px" height="64px"
	 viewBox="0 0 64 64" style="enable-background:new 0 0 64 64;" xml:space="preserve">
<g id="icon-m-organizer-checkbox-unchecked">
	<rect style="fill:none;" width="64" height="64"/>
	<path style="fill:#333333;" d="M53.176,2.581H2.007c-1.104,0-2.006,0.674-2.006,1.494v0.498V34.68v20.88v3.865v0.002
		c0,1.095,0.902,1.992,2.006,1.992h51.169c1.104,0,2.008-0.673,2.008-1.494v-0.498V29.32V8.439V4.575V4.573
		C55.184,3.478,54.279,2.581,53.176,2.581z M49.162,53.443c0,0.55-0.225,1.048-0.59,1.409c-0.031,0.032-0.07,0.057-0.105,0.087
		c-0.061,0.054-0.121,0.108-0.189,0.155c-0.32,0.218-0.705,0.342-1.119,0.342H8.028c-1.104,0-2.008-0.896-2.008-1.994V10.558
		c0-0.549,0.227-1.049,0.59-1.41c0.031-0.03,0.07-0.055,0.104-0.083c0.063-0.056,0.123-0.111,0.191-0.159
		c0.32-0.216,0.706-0.341,1.119-0.341h39.13c1.104,0,2.008,0.896,2.008,1.993V53.443z"/>
</g>
</svg>
