<?xml version="1.0" encoding="iso-8859-1"?>
<!-- Generator: Adobe Illustrator 14.0.0, SVG Export Plug-In . SVG Version: 6.00 Build 43363)  -->
<!DOCTYPE svg PUBLIC "-//W3C//DTD SVG 1.1//EN" "http://www.w3.org/Graphics/SVG/1.1/DTD/svg11.dtd">
<svg version="1.1" id="icon-m-image-edit-autofix-all-layer"
	 xmlns="http://www.w3.org/2000/svg" xmlns:xlink="http://www.w3.org/1999/xlink" x="0px" y="0px" width="64px" height="64px"
	 viewBox="0 0 64 64" style="enable-background:new 0 0 64 64;" xml:space="preserve">
<g id="icon-m-image-edit-autofix-all">
	<rect style="fill:none;" width="64" height="64"/>
	<path style="fill:#333333;" d="M29.012,29.74c12.494,5.184,17.496-10.123,17.066-14.081c-0.355-3.271-0.785-4.908-1.855-3.569
		l-7.961,9.878c-5.004-0.766-8.429-4.1-10.288-8.202l7.919-10.052c1.993-2.473-5.593-1.318-10.287,2.115
		c-10.402,7.621-4.864,15.466-3.773,16.641L2.619,43.812c-0.808,1.008-0.649,2.48,0.362,3.29l5.488,4.386
		c1.011,0.807,2.489,0.644,3.306-0.363L29.012,29.74z"/>
	<path style="fill:#333333;" d="M56.088,37h-6.26l-8.06,27h4.548l1.791-6.193h9.031L58.932,64H64L56.088,37z M48.977,54.387
		l3.686-13.343l3.654,13.403L48.977,54.387z"/>
</g>
</svg>
