<?xml version="1.0" encoding="iso-8859-1"?>
<!-- Generator: Adobe Illustrator 13.0.2, SVG Export Plug-In . SVG Version: 6.00 Build 14948)  -->
<!DOCTYPE svg PUBLIC "-//W3C//DTD SVG 1.1//EN" "http://www.w3.org/Graphics/SVG/1.1/DTD/svg11.dtd">
<svg version="1.1" xmlns="http://www.w3.org/2000/svg" xmlns:xlink="http://www.w3.org/1999/xlink" x="0px" y="0px" width="18px"
	 height="18px" viewBox="0 0 18 18" style="enable-background:new 0 0 18 18;" xml:space="preserve">
	<g id="icon-s-help">
		<rect style="fill:none;" width="18" height="18"/>
		<path style="fill:#333333;" d="M9,0C4.03,0,0,4.033,0,9.005C0,13.971,4.03,18,9,18c4.967,0,9-4.029,9-8.995C18,4.033,13.967,0,9,0
			z M8.711,15.097c-0.862,0-1.549-0.687-1.549-1.548c0-0.862,0.687-1.565,1.549-1.565c0.863,0,1.568,0.703,1.568,1.565
			C10.279,14.41,9.574,15.097,8.711,15.097z M11.027,8.623c-0.771,0.723-1.102,1.101-1.102,1.746v0.646h-2.7v-0.756
			c0-1.086,0.535-1.731,1.354-2.486C9.179,7.222,9.683,6.75,9.683,6.011c0-0.913-0.599-1.4-1.591-1.4
			c-0.534,0-1.259,0.126-1.968,0.315V3.414C6.863,3.241,8.02,3.1,8.854,3.1c2.017,0,3.732,0.676,3.732,2.785
			C12.587,7.19,11.783,7.899,11.027,8.623z"/>
	</g>
</svg>
