<?xml version="1.0" encoding="iso-8859-1"?>
<!-- Generator: Adobe Illustrator 14.0.0, SVG Export Plug-In . SVG Version: 6.00 Build 43363)  -->
<!DOCTYPE svg PUBLIC "-//W3C//DTD SVG 1.1//EN" "http://www.w3.org/Graphics/SVG/1.1/DTD/svg11.dtd">
<svg version="1.1" id="icon-s-messaging-smiley-skeptical-layer"
	 xmlns="http://www.w3.org/2000/svg" xmlns:xlink="http://www.w3.org/1999/xlink" x="0px" y="0px" width="18px" height="18px"
	 viewBox="0 0 18 18" style="enable-background:new 0 0 18 18;" xml:space="preserve">
<g id="icon-s-messaging-smiley-skeptical">
	<rect style="fill:none;" width="18" height="18"/>
	<path style="fill:#333333;" d="M12.855,12.082c-0.409-0.533-1.293-0.764-2.703-0.703c-1.979,0.086-4.336,0.74-4.358,0.746
		c-0.116,0.032-0.189,0.178-0.164,0.327s0.139,0.25,0.255,0.225c0.92-0.194,1.803-0.312,2.625-0.347
		c2.963-0.13,4.257,0.838,4.271,0.848c0.038,0.029,0.081,0.043,0.123,0.041c0.031-0.002,0.063-0.012,0.092-0.03
		c0.067-0.045,0.111-0.132,0.115-0.229C13.126,12.619,13.041,12.324,12.855,12.082z"/>
	<path style="fill:#333333;" d="M4.214,6.631c-0.232,0-0.421-0.188-0.422-0.42C3.791,5.978,3.979,5.788,4.211,5.787l3.933-0.021
		c0.001,0,0.002,0,0.002,0c0.232,0,0.421,0.188,0.422,0.42S8.382,6.608,8.149,6.61L4.216,6.631C4.216,6.631,4.214,6.631,4.214,6.631
		L4.214,6.631z"/>
	<circle style="fill:#333333;" cx="6.319" cy="7.453" r="0.984"/>
	<circle style="fill:#333333;" cx="11.662" cy="7.453" r="0.984"/>
	<path style="fill:#333333;" d="M13.786,6.328c-0.168,0-0.327-0.102-0.393-0.268c-0.489-1.245-2.328-0.871-2.347-0.867
		c-0.229,0.05-0.451-0.096-0.5-0.324s0.098-0.453,0.325-0.5c0.882-0.188,2.708-0.139,3.307,1.383
		c0.085,0.217-0.021,0.463-0.238,0.547C13.89,6.318,13.838,6.328,13.786,6.328L13.786,6.328z"/>
	<path style="fill:#333333;" d="M9,1.125c4.342,0,7.875,3.533,7.875,7.875c0,4.343-3.533,7.875-7.875,7.875
		c-4.342,0-7.875-3.532-7.875-7.875C1.125,4.658,4.658,1.125,9,1.125 M9,0C4.029,0,0,4.029,0,9s4.029,9,9,9s9-4.029,9-9
		S13.971,0,9,0L9,0z"/>
</g>
</svg>
