<?xml version="1.0" encoding="iso-8859-1"?>
<!-- Generator: Adobe Illustrator 14.0.0, SVG Export Plug-In . SVG Version: 6.00 Build 43363)  -->
<!DOCTYPE svg PUBLIC "-//W3C//DTD SVG 1.1//EN" "http://www.w3.org/Graphics/SVG/1.1/DTD/svg11.dtd">
<svg version="1.1" id="icon-m-camera-panorama-layer"
	 xmlns="http://www.w3.org/2000/svg" xmlns:xlink="http://www.w3.org/1999/xlink" x="0px" y="0px" width="64px" height="64px"
	 viewBox="0 0 64 64" style="enable-background:new 0 0 64 64;" xml:space="preserve">
<g id="icon-m-camera-panorama">
	<rect style="fill:none;" width="64" height="64"/>
	<path style="fill:#333333;" d="M32,17C19.091,17,8.354,13.661,1,9v46c7.783-4.492,18.247-7,31-7c12.752,0,23.218,2.508,31,7V9
		C55.647,13.682,44.943,17,32,17z M6.349,42.054C6.085,42.976,6.316,44.133,6,45V18c3.453,1.307,6.742,1.856,10.859,2.604
		c-0.033,0.018-0.066,0.031-0.101,0.049c-1.293,3.97-3.168,9.764-5.349,13.391C9.462,37.294,7.462,38.161,6.349,42.054z
		 M22.275,25.661c-0.034,0.219-0.752,4.277-2.949,8.711c-0.046,0.076-1.088,1.637-0.854,3.781c0.028,0.232,0.031,0.475,0.028,0.712
		c-0.028,1.743-0.652,3.021-1.758,3.597c-0.214,0.111-0.405,0.168-0.584,0.168c-0.24,0-0.446-0.099-0.587-0.275
		c-0.273-0.35-0.199-0.875-0.004-1.556c0.282-0.987,0.396-2.146,0.292-3.026c-0.047-0.395-0.069-0.804-0.092-1.206l-0.004-0.132
		c-0.012-0.205-0.144-0.428-0.281-0.664c-0.093-0.162-0.184-0.324-0.255-0.486l-0.061-0.145c-0.156-0.354-0.315-0.719-0.385-1.146
		c-0.135-0.82-0.068-1.771,0.199-2.824c0.265-1.043,0.866-1.99,1.446-2.903c0.913-1.431,1.772-2.783,1.279-4.366
		c-0.029-0.094-0.081-0.178-0.136-0.276c-0.105-0.177-0.238-0.396-0.254-0.712c-0.022-0.445,0.164-0.709,0.324-0.847
		c0.206-0.183,0.488-0.274,0.842-0.274c0.896,0,2.04,0.598,2.053,0.604C21.748,23.032,22.382,24.222,22.275,25.661z M29.336,39.715
		l-0.219,0.04c-0.22,0.041-0.425,0.06-0.614,0.06c-0.701,0-1.253-0.266-1.791-0.876c-0.571-0.645-0.725-1.584-0.862-2.414
		c-0.057-0.361-0.115-0.703-0.199-0.984c-0.171-0.571-0.429-1.154-0.68-1.719c-0.125-0.285-0.251-0.566-0.363-0.85
		c-0.139-0.334-0.279-0.646-0.416-0.954c-0.481-1.079-0.938-2.099-0.948-3.46l-0.003-0.589l0.598,0.091
		c2.53,0.383,4.416,2.834,5.097,4.949c0.105,0.335,0.24,0.715,0.381,1.114c0.468,1.335,1.003,2.851,1.056,4.003l0.016,0.306
		C30.44,39.325,30.265,39.542,29.336,39.715z M53.275,49.228c-0.884-0.196-1.365-0.577-1.874-0.984
		c-0.172-0.137-0.352-0.278-0.562-0.425c-0.569-0.394-1.172-0.739-1.81-1.104c-1.032-0.595-2.1-1.206-3.024-2.042
		c-1.228-1.111-3.963-3.925-2.821-6.057l0.141-0.264l0.307-0.006c0,0,0.014,0,0.021,0c0.33,0,0.741,0.146,0.967,0.289l0.255,0.156
		l-0.013,0.17l0.037-0.021c0.963,1.58,2.498,2.865,4.122,4.223c1.892,1.58,3.845,3.213,4.84,5.375l0.419,0.91L53.275,49.228z M58,45
		c-1.293-0.912-2.901-1.259-4.849-2.86c-2.697-2.217-5.243-7.861-8.512-8.517c-3.633-0.728-7.424,6.128-10.852,4.683
		c-1.84-0.773-1.453-3.655-2.154-4.783c-0.863-1.387-2.274-2.47-3.245-3.961c-1.351-2.075-3.473-5.287-4.534-8.012
		c2.571,0.234,5.22,0.363,7.936,0.363c9.912,0,18.855-1.128,26.209-3.913V45z"/>
</g>
</svg>
