<?xml version="1.0" encoding="iso-8859-1"?>
<!-- Generator: Adobe Illustrator 14.0.0, SVG Export Plug-In . SVG Version: 6.00 Build 43363)  -->
<!DOCTYPE svg PUBLIC "-//W3C//DTD SVG 1.1//EN" "http://www.w3.org/Graphics/SVG/1.1/DTD/svg11.dtd">
<svg version="1.1" id="icon-l-games-layer" xmlns="http://www.w3.org/2000/svg" xmlns:xlink="http://www.w3.org/1999/xlink" x="0px"
	 y="0px" width="48px" height="48px" viewBox="0 0 48 48" style="enable-background:new 0 0 48 48;" xml:space="preserve">
<g id="icon-l-games">
	<rect style="fill:none;" width="48" height="48"/>
	<g>
		<path style="opacity:0.2;fill:#010101;" d="M35.098,7.027c-2.373,0-4.134,0.751-5.943,2.01H18.873
			c-1.811-1.259-3.596-2.01-5.971-2.01c-6.189,0-11.211,5.01-11.228,11.194C1.593,19.309,0.507,33.783,0.5,34.107
			c0.001,3.791,3.076,6.866,6.868,6.866c2.901,0,5.37-1.801,6.376-4.335l3.195-7.498h14.117l3.206,7.524
			c0.997,2.508,3.468,4.309,6.368,4.309c3.793,0,6.866-3.075,6.869-6.866c-0.01-0.324-1.096-14.796-1.178-15.886
			C46.304,12.037,41.288,7.027,35.098,7.027z"/>
		<path style="opacity:0.5;fill:#010101;" d="M45.082,18.25L45.082,18.25c0-5.512-4.471-9.983-9.986-9.983
			c-2.246,0-4.314,0.755-5.981,2.01H18.888c-1.668-1.255-3.739-2.01-5.985-2.01c-5.516,0-9.987,4.472-9.987,9.983
			c0,0-1.174,15.724-1.174,15.857c0,3.107,2.518,5.628,5.63,5.628c2.375,0,4.394-1.477,5.221-3.554l3.528-8.281h15.758l3.525,8.281
			c0.83,2.077,2.852,3.554,5.227,3.554c3.109,0,5.629-2.521,5.629-5.628C46.26,33.974,45.082,18.25,45.082,18.25z"/>
		<linearGradient id="SVGID_1_" gradientUnits="userSpaceOnUse" x1="24.0005" y1="3.1309" x2="24.0005" y2="47.0579">
			<stop  offset="0" style="stop-color:#FFFFFF"/>
			<stop  offset="1" style="stop-color:#B3B2C9"/>
		</linearGradient>
		<path style="fill:url(#SVGID_1_);" d="M45.082,17.011L45.082,17.011c0-5.513-4.471-9.982-9.986-9.982
			c-2.246,0-4.314,0.754-5.981,2.007H18.888c-1.668-1.253-3.739-2.007-5.985-2.007c-5.516,0-9.987,4.47-9.987,9.982
			c0,0-1.174,15.723-1.174,15.856c0,3.108,2.518,5.628,5.63,5.628c2.375,0,4.394-1.477,5.221-3.554l3.528-8.28h15.758l3.525,8.28
			c0.83,2.077,2.852,3.554,5.227,3.554c3.109,0,5.629-2.52,5.629-5.628C46.26,32.733,45.082,17.011,45.082,17.011z"/>
		<path style="opacity:0.35;fill:#FFFFFF;" d="M35.096,8.093c-2.006,0-3.844,0.668-5.346,1.793l-0.279,0.213H18.53l-0.281-0.213
			c-1.499-1.125-3.339-1.793-5.346-1.793c-4.927-0.002-8.921,3.993-8.924,8.916l-0.99,13.272l39.415-18.379
			C40.791,9.602,38.123,8.091,35.096,8.093z"/>
		<polygon style="fill:#414141;" points="17.72,16.289 14.077,16.289 14.077,12.646 11.736,12.646 11.736,16.289 8.091,16.289 
			8.091,18.631 11.736,18.631 11.736,22.271 14.077,22.271 14.077,18.631 17.72,18.631 		"/>
		<linearGradient id="SVGID_2_" gradientUnits="userSpaceOnUse" x1="35.167" y1="24.7988" x2="35.167" y2="19.5268">
			<stop  offset="0" style="stop-color:#FFFFFF"/>
			<stop  offset="1" style="stop-color:#B3B2C9"/>
		</linearGradient>
		<circle style="fill:url(#SVGID_2_);" cx="35.166" cy="21.44" r="2.821"/>
		<circle style="fill:#283176;" cx="35.167" cy="21.438" r="1.755"/>
		<linearGradient id="SVGID_3_" gradientUnits="userSpaceOnUse" x1="39.3691" y1="20.5933" x2="39.3691" y2="15.3239">
			<stop  offset="0" style="stop-color:#FFFFFF"/>
			<stop  offset="1" style="stop-color:#B3B2C9"/>
		</linearGradient>
		<path style="fill:url(#SVGID_3_);" d="M39.37,14.417c-1.558,0-2.818,1.262-2.821,2.819c0.003,1.555,1.262,2.818,2.821,2.819
			c1.558-0.001,2.82-1.265,2.82-2.819C42.19,15.679,40.927,14.417,39.37,14.417z"/>
		<circle style="fill:#EC3182;" cx="39.371" cy="17.236" r="1.756"/>
		<linearGradient id="SVGID_4_" gradientUnits="userSpaceOnUse" x1="35.1992" y1="16.4268" x2="35.1992" y2="11.1538">
			<stop  offset="0" style="stop-color:#FFFFFF"/>
			<stop  offset="1" style="stop-color:#B3B2C9"/>
		</linearGradient>
		<path style="fill:url(#SVGID_4_);" d="M35.201,10.246c-1.556,0-2.818,1.263-2.822,2.822c0.004,1.556,1.265,2.818,2.822,2.82
			c1.559-0.002,2.819-1.265,2.819-2.82C38.021,11.509,36.76,10.246,35.201,10.246z"/>
		<path style="fill:#FEE23F;" d="M36.959,13.067c0,0.967-0.787,1.756-1.756,1.756c-0.971,0-1.756-0.789-1.756-1.756
			c0-0.97,0.785-1.757,1.756-1.757C36.172,11.311,36.959,12.098,36.959,13.067z"/>
		<linearGradient id="SVGID_5_" gradientUnits="userSpaceOnUse" x1="30.999" y1="20.6294" x2="30.999" y2="15.3591">
			<stop  offset="0" style="stop-color:#FFFFFF"/>
			<stop  offset="1" style="stop-color:#B3B2C9"/>
		</linearGradient>
		<circle style="fill:url(#SVGID_5_);" cx="30.998" cy="17.272" r="2.82"/>
		<linearGradient id="SVGID_6_" gradientUnits="userSpaceOnUse" x1="24.0005" y1="3.9834" x2="24.0005" y2="36.7544">
			<stop  offset="0" style="stop-color:#FFFFFF"/>
			<stop  offset="1" style="stop-color:#B3B2C9"/>
		</linearGradient>
		<path style="fill:url(#SVGID_6_);" d="M46.26,32.867c0-0.134-1.178-15.856-1.178-15.856c0-5.513-4.471-9.982-9.986-9.982
			c-2.246,0-4.314,0.754-5.981,2.007H18.888c-1.668-1.253-3.739-2.007-5.985-2.007c-5.516,0-9.987,4.47-9.987,9.982
			c0,0-1.174,15.723-1.174,15.856c0,3.108,2.518,5.628,5.63,5.628c2.375,0,4.394-1.477,5.221-3.554l3.528-8.28h15.758l3.518,8.283
			l0.008-0.003c0.83,2.077,2.852,3.554,5.227,3.554C43.74,38.495,46.26,35.976,46.26,32.867z M40.631,37.43
			c-1.927,0.002-3.564-1.195-4.236-2.882l-3.813-8.952H15.418l-3.815,8.952c-0.673,1.687-2.31,2.884-4.231,2.882
			c-2.524-0.004-4.564-2.043-4.569-4.562l1.176-15.858c0.003-4.923,3.998-8.918,8.924-8.916c2.006,0,3.847,0.668,5.346,1.793
			l0.281,0.213h10.941l0.279-0.213c1.502-1.125,3.34-1.793,5.346-1.793c4.928-0.002,8.922,3.993,8.925,8.916
			c0,0,1.174,15.799,1.174,15.858C45.189,35.387,43.149,37.426,40.631,37.43z"/>
		<polygon style="opacity:0.15;" points="31.844,26.661 32.535,25.596 15.418,25.596 15.353,25.75 16.17,26.661 		"/>
		<path style="fill:#7EC242;" d="M32.756,17.272c0,0.968-0.788,1.755-1.758,1.755c-0.967,0-1.756-0.787-1.756-1.755
			c0-0.971,0.789-1.756,1.756-1.756C31.968,15.517,32.756,16.302,32.756,17.272z"/>
	</g>
</g>
</svg>
