<?xml version="1.0" encoding="iso-8859-1"?>
<!-- Generator: Adobe Illustrator 14.0.0, SVG Export Plug-In . SVG Version: 6.00 Build 43363)  -->
<!DOCTYPE svg PUBLIC "-//W3C//DTD SVG 1.1//EN" "http://www.w3.org/Graphics/SVG/1.1/DTD/svg11.dtd">
<svg version="1.1" id="icon-m-energy-management-battery62-layer"
	 xmlns="http://www.w3.org/2000/svg" xmlns:xlink="http://www.w3.org/1999/xlink" x="0px" y="0px" width="64px" height="64px"
	 viewBox="0 0 64 64" style="enable-background:new 0 0 64 64;" xml:space="preserve">
<g id="icon-m-energy-management-battery62">
	<rect style="fill:none;" width="64" height="64"/>
	<path style="fill:#333333;" d="M60.623,25.453h-2.818V15.381c0-1.033-0.846-1.879-1.879-1.879H3.379
		c-1.033,0-1.878,0.846-1.878,1.879v33.24c0,1.033,0.845,1.881,1.878,1.881h52.547c1.033,0,1.879-0.848,1.879-1.881V38.549h2.818
		c1.033,0,1.879-0.848,1.879-1.879v-9.336C62.502,26.301,61.656,25.453,60.623,25.453z M52.108,44.221
		c0,1.033-0.845,1.877-1.878,1.877H7.063c-1.033,0-1.88-0.844-1.88-1.877V19.787c0-1.033,0.847-1.878,1.88-1.878H50.23
		c1.033,0,1.878,0.845,1.878,1.878V44.221z"/>
	<rect x="8.55" y="21.245" style="fill:#333333;" width="24.186" height="21.514"/>
</g>
</svg>
