<?xml version="1.0" encoding="iso-8859-1"?>
<!-- Generator: Adobe Illustrator 14.0.0, SVG Export Plug-In . SVG Version: 6.00 Build 43363)  -->
<!DOCTYPE svg PUBLIC "-//W3C//DTD SVG 1.1//EN" "http://www.w3.org/Graphics/SVG/1.1/DTD/svg11.dtd">
<svg version="1.1" id="icon-l-backup-layer" xmlns="http://www.w3.org/2000/svg" xmlns:xlink="http://www.w3.org/1999/xlink"
	 x="0px" y="0px" width="64px" height="64px" viewBox="0 0 64 64" style="enable-background:new 0 0 64 64;" xml:space="preserve">
<g id="icon-l-backup">
	<rect style="fill:none;" width="64" height="64"/>
	<g id="icon-l-backup_2_">
		<polygon style="opacity:0.2;stroke:#010101;stroke-width:2.5;stroke-linecap:round;stroke-linejoin:round;" points="56.104,57.5 
			7.528,57.5 7.528,8.922 56.104,8.922 56.104,57.5 		"/>
		<polygon style="opacity:0.5;" points="56.104,57.5 7.528,57.5 7.528,8.922 56.104,8.922 56.104,57.5 		"/>
		<linearGradient id="SVGID_1_" gradientUnits="userSpaceOnUse" x1="31.8154" y1="7.9023" x2="31.8154" y2="56.4829">
			<stop  offset="0" style="stop-color:#B3B3B3"/>
			<stop  offset="0.1999" style="stop-color:#ADADAD"/>
			<stop  offset="0.4615" style="stop-color:#9D9D9D"/>
			<stop  offset="0.756" style="stop-color:#828282"/>
			<stop  offset="1" style="stop-color:#666666"/>
		</linearGradient>
		<polygon style="fill:url(#SVGID_1_);" points="56.104,56.482 7.528,56.482 7.528,7.902 56.104,7.902 56.104,56.482 		"/>
		<linearGradient id="SVGID_2_" gradientUnits="userSpaceOnUse" x1="33.1504" y1="14.373" x2="33.1504" y2="50.0122">
			<stop  offset="0" style="stop-color:#404040"/>
			<stop  offset="1" style="stop-color:#000000"/>
		</linearGradient>
		<polygon style="fill:url(#SVGID_2_);" points="52.303,28.645 52.303,18.893 49.635,18.893 49.635,14.373 13.997,14.373 
			13.997,50.012 49.635,50.012 49.635,45.953 52.303,45.953 52.303,36.199 49.635,36.199 49.635,28.645 		"/>
		<g>
			<path style="opacity:0.3;fill:#010101;" d="M21.1,32.865c0-6.15,4.99-11.146,11.147-11.146c6.154,0,11.145,4.996,11.145,11.146
				c0,6.156-4.991,11.145-11.145,11.145C26.089,44.01,21.1,39.021,21.1,32.865z"/>
			<g>
				<defs>
					<path id="SVGID_3_" d="M21.1,31.51c0-6.148,4.99-11.145,11.147-11.145c6.154,0,11.145,4.996,11.145,11.145
						c0,6.158-4.991,11.145-11.145,11.145C26.089,42.654,21.1,37.668,21.1,31.51z"/>
				</defs>
				<clipPath id="SVGID_4_">
					<use xlink:href="#SVGID_3_"  style="overflow:visible;"/>
				</clipPath>
				<g style="clip-path:url(#SVGID_4_);">
					<linearGradient id="SVGID_5_" gradientUnits="userSpaceOnUse" x1="32.2456" y1="20.3652" x2="32.2456" y2="42.6548">
						<stop  offset="0" style="stop-color:#FFFFFF"/>
						<stop  offset="1" style="stop-color:#B3B2C9"/>
					</linearGradient>
					<path style="fill:url(#SVGID_5_);" d="M21.1,31.51c0-6.148,4.99-11.145,11.147-11.145c6.154,0,11.145,4.996,11.145,11.145
						c0,6.158-4.991,11.145-11.145,11.145C26.089,42.654,21.1,37.668,21.1,31.51z"/>
					<g style="opacity:0.5;">
						<g>
							<linearGradient id="SVGID_6_" gradientUnits="userSpaceOnUse" x1="20.4731" y1="31.3047" x2="44.041" y2="31.3047">
								<stop  offset="0" style="stop-color:#404040"/>
								<stop  offset="1" style="stop-color:#000000"/>
							</linearGradient>
							<path style="fill:url(#SVGID_6_);" d="M31.774,19.777l-0.629,7.553l2.287,0.033l-0.646-7.586H31.774z M31.655,42.832h1.012
								l0.582-6.893h-2.103L31.655,42.832z M36.625,30.453l-0.035,2.143l7.451-0.518v-1.012L36.625,30.453z M28.127,30.564
								l-7.654,0.449v1.01l7.619,0.537L28.127,30.564z M29.69,27.73l-5.684-4.824l-0.717,0.717l4.838,5.703L29.69,27.73z
								 M23.678,39.795l0.711,0.711l5.594-4.785l-1.639-1.674L23.678,39.795z M34.553,35.211l5.654,4.906l0.715-0.711l-4.807-5.719
								L34.553,35.211z M41.072,23.779l-0.709-0.715l-5.482,4.633l1.494,1.666L41.072,23.779z"/>
						</g>
					</g>
				</g>
				<linearGradient id="SVGID_7_" gradientUnits="userSpaceOnUse" x1="32.2446" y1="26.5566" x2="32.2446" y2="36.4712">
					<stop  offset="0" style="stop-color:#FFFFFF"/>
					<stop  offset="1" style="stop-color:#B3B2C9"/>
				</linearGradient>
				<path style="clip-path:url(#SVGID_4_);fill:url(#SVGID_7_);" d="M32.246,36.471c-2.733,0-4.957-2.225-4.957-4.959
					c0-2.732,2.224-4.955,4.957-4.955c2.733,0,4.956,2.223,4.956,4.955C37.201,34.246,34.979,36.471,32.246,36.471L32.246,36.471z"
					/>
				<g style="opacity:0.6;clip-path:url(#SVGID_4_);">
					<g>
						<linearGradient id="SVGID_8_" gradientUnits="userSpaceOnUse" x1="32.2451" y1="23.8027" x2="32.2451" y2="39.2251">
							<stop  offset="0" style="stop-color:#404040"/>
							<stop  offset="1" style="stop-color:#000000"/>
						</linearGradient>
						<path style="fill:url(#SVGID_8_);" d="M32.246,23.803c-4.251,0-7.712,3.457-7.712,7.709s3.461,7.713,7.712,7.713
							c4.25,0,7.711-3.461,7.711-7.713S36.496,23.803,32.246,23.803z M32.247,35.92c-2.436,0-4.406-1.975-4.406-4.408
							c0-2.432,1.971-4.404,4.406-4.404c2.431,0,4.406,1.973,4.406,4.404C36.652,33.945,34.678,35.92,32.247,35.92z"/>
					</g>
				</g>
			</g>
		</g>
		<g>
			<defs>
				<polygon id="SVGID_9_" points="5.316,40.953 5.215,7.26 58.785,6.5 58.676,17.148 				"/>
			</defs>
			<clipPath id="SVGID_10_">
				<use xlink:href="#SVGID_9_"  style="overflow:visible;"/>
			</clipPath>
			<polygon style="opacity:0.3;clip-path:url(#SVGID_10_);fill:#FFFFFF;" points="56.104,56.482 7.528,56.482 7.528,7.902 
				56.104,7.902 56.104,56.482 			"/>
		</g>
		<polygon style="opacity:0.25;fill:#FFFFFF;" points="56.104,7.902 7.505,7.906 7.528,56.482 10.053,53.918 10.053,10.453 
			53.582,10.389 		"/>
		<polygon style="opacity:0.25;fill:#010101;" points="53.582,10.389 53.547,53.982 10.053,53.918 7.528,56.482 56.125,56.549 
			56.104,7.902 		"/>
	</g>
</g>
</svg>
