<?xml version="1.0" encoding="iso-8859-1"?>
<!-- Generator: Adobe Illustrator 14.0.0, SVG Export Plug-In . SVG Version: 6.00 Build 43363)  -->
<!DOCTYPE svg PUBLIC "-//W3C//DTD SVG 1.1//EN" "http://www.w3.org/Graphics/SVG/1.1/DTD/svg11.dtd">
<svg version="1.1" id="icon-m-content-radiostation-layer"
	 xmlns="http://www.w3.org/2000/svg" xmlns:xlink="http://www.w3.org/1999/xlink" x="0px" y="0px" width="64px" height="64px"
	 viewBox="0 0 64 64" style="enable-background:new 0 0 64 64;" xml:space="preserve">
<g id="icon-m-content-radiostation">
	<rect style="fill:none;" width="64" height="64"/>
	<path style="fill:#333333;" d="M53.591,5.348c-0.711-0.418-1.726-0.299-2.274,0.262c-0.533,0.561-0.377,1.363,0.353,1.785
		c4.612,2.711,7.495,8.063,7.495,13.966c0,5.895-2.883,11.259-7.495,13.966c-0.729,0.419-0.886,1.21-0.353,1.776
		c0.549,0.563,1.563,0.679,2.274,0.265c5.43-3.193,8.808-9.321,8.808-16.007C62.398,14.666,59.021,8.539,53.591,5.348"/>
	<path style="fill:#333333;" d="M49.273,14.414c0,0-0.039-0.091-0.068-0.137c-0.34-0.623-1.152-1.764-1.152-1.764
		c-0.871-1.17-1.76-2.07-3.088-3.039c-0.471-0.352-0.996-0.656-1.504-0.959c-0.111-0.064-0.233-0.113-0.358-0.15
		c-0.696-0.291-1.584-0.146-2.085,0.379c-0.436,0.463-0.415,1.088-0.004,1.543c0.111,0.156,0.332,0.323,0.455,0.41
		c0.762,0.544,1.578,1.074,2.279,1.726c0.258,0.247,0.508,0.501,0.752,0.768c1.812,2.175,2.902,5.075,2.902,8.185
		c0,3.074-1.031,5.953-2.814,8.125c-0.914,0.978-1.955,1.774-3.088,2.518c-0.709,0.467-0.897,1.266-0.354,1.844
		c0.556,0.582,1.573,0.73,2.349,0.338c0.535-0.272,1.033-0.543,1.504-0.896c1.475-0.962,2.639-2.388,3.627-3.843h-0.023
		C50.133,27.14,51,24.33,51,21.375C51,18.885,50.383,16.494,49.273,14.414"/>
	<path style="fill:#333333;" d="M12.331,7.395c0.729-0.422,0.886-1.225,0.353-1.785c-0.549-0.561-1.563-0.68-2.274-0.262
		C4.98,8.539,1.601,14.666,1.601,21.36c0,6.686,3.379,12.813,8.809,16.007c0.711,0.414,1.726,0.299,2.274-0.265
		c0.533-0.566,0.376-1.357-0.353-1.776c-4.612-2.707-7.496-8.071-7.496-13.966C4.835,15.457,7.719,10.105,12.331,7.395"/>
	<path style="fill:#333333;" d="M19.002,33.303c0.472,0.353,0.969,0.622,1.504,0.895c0.775,0.393,1.793,0.244,2.347-0.337
		c0.544-0.579,0.353-1.376-0.356-1.845c-1.13-0.742-2.171-1.539-3.085-2.518c-1.784-2.172-2.813-5.05-2.813-8.125
		c0-3.109,1.09-6.011,2.901-8.185c0.244-0.267,0.494-0.521,0.752-0.768c0.701-0.651,1.518-1.181,2.279-1.724
		c0.124-0.089,0.343-0.256,0.456-0.412c0.411-0.455,0.432-1.08-0.004-1.542c-0.501-0.526-1.389-0.672-2.085-0.378
		c-0.125,0.037-0.247,0.083-0.358,0.148c-0.508,0.303-1.033,0.607-1.504,0.96c-1.329,0.968-2.216,1.868-3.087,3.038
		c0,0-0.813,1.142-1.153,1.766c-0.027,0.045-0.067,0.134-0.067,0.134C13.617,16.492,13,18.883,13,21.373
		c0,2.954,0.867,5.766,2.398,8.086h-0.024C16.364,30.916,17.528,32.339,19.002,33.303"/>
	<path style="fill:#333333;" d="M38.353,42.066c-2.991-6.65-4.184-13.379-4.652-17.314c0.021-0.17,0.035-0.33,0.053-0.491
		c1.211-0.634,2.038-1.899,2.038-3.36c0-2.096-1.697-3.793-3.791-3.793c-2.095,0-3.792,1.697-3.792,3.793
		c0,1.461,0.827,2.727,2.04,3.36c0.015,0.163,0.032,0.325,0.052,0.503c-0.465,3.913-1.646,10.586-4.613,17.217
		c-3.575,7.992-8.641,13.635-15.11,16.922h6.285c2.008-1.514,3.864-3.275,5.558-5.279h19.163c1.693,2.004,3.55,3.766,5.557,5.279
		h6.287C46.978,55.626,41.926,50.015,38.353,42.066z M32,34c0.678,2.635,1.589,5.494,2.814,8.389h-5.63
		C30.409,39.494,31.319,36.635,32,34z M24.958,50.252c0.948-1.404,1.832-2.902,2.649-4.493h8.785
		c0.816,1.591,1.701,3.089,2.647,4.493H24.958z"/>
</g>
</svg>
