<?xml version="1.0" encoding="iso-8859-1"?>
<!-- Generator: Adobe Illustrator 14.0.0, SVG Export Plug-In . SVG Version: 6.00 Build 43363)  -->
<!DOCTYPE svg PUBLIC "-//W3C//DTD SVG 1.1//EN" "http://www.w3.org/Graphics/SVG/1.1/DTD/svg11.dtd">
<svg version="1.1" id="icon-m-organizer-send-layer"
	 xmlns="http://www.w3.org/2000/svg" xmlns:xlink="http://www.w3.org/1999/xlink" x="0px" y="0px" width="65px" height="64px"
	 viewBox="0 0 65 64" style="enable-background:new 0 0 65 64;" xml:space="preserve">
<g id="icon-m-organizer-send">
	<rect x="1" style="fill:none;" width="64" height="64"/>
	<path style="fill:#333333;" d="M41.172,38.723l-0.688-0.29L18.336,28.75v17.979c0,0.784,0.642,1.426,1.427,1.426h42.811
		c0.784,0,1.426-0.642,1.426-1.426V28.75l-22.149,9.683L41.172,38.723z"/>
	<path style="fill:#333333;" d="M64,17.272c0-0.785-0.642-1.427-1.426-1.427H19.764c-0.785,0-1.427,0.642-1.427,1.427v6.183
		l22.835,10.002L64,23.455V17.272z"/>
	<path style="fill:#333333;" d="M2.082,22.492c0,1.369,1.351,2.492,3,2.492h9.948V20H5.082C3.433,20,2.082,21.122,2.082,22.492z"/>
	<path style="fill:#333333;" d="M2.082,32.492c0,1.369,1.351,2.492,3,2.492h9.948V30H5.082C3.433,30,2.082,31.122,2.082,32.492z"/>
	<path style="fill:#333333;" d="M2.082,42.492c0,1.369,1.351,2.492,3,2.492h9.948V40H5.082C3.433,40,2.082,41.122,2.082,42.492z"/>
</g>
</svg>
