<?xml version="1.0" encoding="iso-8859-1"?>
<!-- Generator: Adobe Illustrator 14.0.0, SVG Export Plug-In . SVG Version: 6.00 Build 43363)  -->
<!DOCTYPE svg PUBLIC "-//W3C//DTD SVG 1.1//EN" "http://www.w3.org/Graphics/SVG/1.1/DTD/svg11.dtd">
<svg version="1.1" id="icon-m-camera-whitebalance-cloudy-layer"
	 xmlns="http://www.w3.org/2000/svg" xmlns:xlink="http://www.w3.org/1999/xlink" x="0px" y="0px" width="64px" height="64px"
	 viewBox="0 0 64 64" style="enable-background:new 0 0 64 64;" xml:space="preserve">
<g id="icon-m-camera-whitebalance-cloudy">
	<rect style="fill:none;" width="64" height="64"/>
	<path style="fill:#333333;" d="M20.013,34.08c0.604-1.305,1.242-2.475,1.907-3.519c-2.184-1.075-3.693-3.317-3.693-5.912
		c0-3.636,2.958-6.593,6.593-6.593c2.995,0,5.525,2.009,6.325,4.75c1.419-0.484,2.758-0.706,3.928-0.776
		c-1.168-4.581-5.309-7.974-10.253-7.974c-5.851,0-10.593,4.743-10.593,10.593C14.227,28.767,16.581,32.328,20.013,34.08z"/>
	<path style="fill:#333333;" d="M27.25,9.173V3.546c0-1.011-0.885-1.896-1.894-1.894L24.645,1.65
		C23.6,1.652,22.75,2.502,22.75,3.545l0,5.629c0,0.506,0.197,0.98,0.556,1.34c0.358,0.357,0.833,0.556,1.338,0.555h0.711
		c0.505,0,0.982-0.198,1.34-0.556C27.053,10.153,27.25,9.678,27.25,9.173z"/>
	<path style="fill:#333333;" d="M9.255,22.75H3.628c-1.011,0-1.896,0.885-1.894,1.893l-0.002,0.713
		C1.735,26.4,2.584,27.25,3.627,27.25h5.629c0.506,0,0.98-0.197,1.34-0.557c0.357-0.357,0.556-0.832,0.555-1.338v-0.711
		c0-0.504-0.198-0.98-0.556-1.34C10.236,22.947,9.76,22.75,9.255,22.75z"/>
	<path style="fill:#333333;" d="M15.452,12.186l-3.979-3.979c-0.714-0.715-1.966-0.715-2.678,0L8.29,8.71
		c-0.738,0.739-0.738,1.941,0,2.679l3.979,3.98c0.357,0.357,0.833,0.554,1.34,0.554c0.507,0,0.982-0.196,1.339-0.554l0.503-0.503
		c0.357-0.356,0.554-0.834,0.554-1.34C16.006,13.019,15.809,12.543,15.452,12.186z"/>
	<path style="fill:#333333;" d="M41.669,8.71l-0.503-0.503c-0.715-0.715-1.965-0.715-2.68,0l-3.979,3.979
		c-0.738,0.739-0.738,1.94,0,2.681l0.504,0.503c0.355,0.357,0.832,0.553,1.339,0.553c0.508,0,0.982-0.195,1.34-0.553l3.979-3.98
		C42.406,10.651,42.406,9.449,41.669,8.71z"/>
	<path style="fill:#333333;" d="M37,63c-3.437,0-7.286-0.947-9.871-3.77C25.344,60.287,23.059,61,21,61c-6.432,0-11-5.541-11-12
		s4.832-11.574,11.263-11.574c0.661,0,2.102,0.463,2.737,0.574c2.26-6.785,6.131-11,12-11c5.867,0,10.736,4.215,13,11
		c0.633-0.111,2.002-0.574,2.66-0.574C58.091,37.426,63,42.541,63,49s-4.57,12-11,12c-2.055,0-4.41-0.713-6.188-1.768
		C43.201,62.086,40.481,63,37,63L37,63z M27.905,53.117l1.374,1.955c1.938,2.754,4.489,4.271,7.184,4.271
		c2.686,0,5.246-1.52,7.208-4.281l1.38-1.941l1.786,1.576c1.366,1.205,3.079,1.869,4.823,1.869c4.064,0,7.373-3.33,7.373-7.424
		c0-4.096-3.309-7.428-7.373-7.428c-0.912,0-1.785,0.174-2.593,0.512l-2.356,0.992l-0.566-2.492C44.801,34.811,40.82,31,36.463,31
		c-4.358,0-8.338,3.811-9.676,9.727l-0.564,2.492l-2.358-0.992c-0.808-0.338-1.683-0.512-2.601-0.512
		c-4.067,0-7.375,3.332-7.375,7.428c0,4.094,3.308,7.424,7.375,7.424c1.751,0,3.473-0.666,4.847-1.873L27.905,53.117L27.905,53.117z
		"/>
</g>
</svg>
