<?xml version="1.0" encoding="iso-8859-1"?>
<!-- Generator: Adobe Illustrator 14.0.0, SVG Export Plug-In . SVG Version: 6.00 Build 43363)  -->
<!DOCTYPE svg PUBLIC "-//W3C//DTD SVG 1.1//EN" "http://www.w3.org/Graphics/SVG/1.1/DTD/svg11.dtd">
<svg version="1.1" id="icon-m-common-location-picker-layer"
	 xmlns="http://www.w3.org/2000/svg" xmlns:xlink="http://www.w3.org/1999/xlink" x="0px" y="0px" width="64px" height="64px"
	 viewBox="0 0 64 64" style="enable-background:new 0 0 64 64;" xml:space="preserve">
<g id="icon-m-common-location-picker">
	<rect x="0.007" style="fill:none;" width="63.987" height="64"/>
	<path style="fill:#333333;" d="M63.984,56.011V28.252H49.996c-1.295,2.967-2.221,6.129-2.969,9.297L61.984,30.4v9.365l-9.662,4.832
		l-5.645-5.524c-0.103,0.466-0.208,0.934-0.306,1.397l-0.192,0.914l9.396,9.195l-15.852,8.692l-12.581-12.22l7.907-3.78
		l-0.589-2.804c-0.321-1.53-0.669-3.075-1.065-4.614L21.479,41.55L9.848,30.252H31.65c-0.251-0.676-0.522-1.342-0.809-2H0v34.909
		h63.984v-7.118L64,56.026L63.984,56.011z M2,31.219l13.553,13.164L2,50.86V31.219z M2,61.161v-2.345l0.097,0.207l19.121-9.139
		l11.609,11.276H2z M61.984,61.161H42.456l15.337-8.411l4.191,4.102V61.161z M61.984,54.054l-7.393-7.235l7.393-3.697V54.054z"/>
	<path style="fill:#333333;" d="M40.418,0.838C34.11,0.91,29.022,5.502,29.022,11.164c0,1.809,0.519,3.508,1.43,4.986h0.002
		c0.302,0.493,2.022,2.947,2.407,3.387c3.963,5.662,5.918,12.314,7.471,19.697h0.17c1.555-7.383,3.51-14.035,7.474-19.697
		c0.384-0.439,2.103-2.894,2.407-3.385V16.15c0.91-1.479,1.432-3.178,1.432-4.986C51.814,5.502,46.726,0.91,40.418,0.838z
		 M40.633,15.432c-2.445,0-4.424-1.972-4.424-4.413c0-2.437,1.979-4.411,4.424-4.411c2.441,0,4.424,1.975,4.424,4.411
		C45.057,13.46,43.074,15.432,40.633,15.432z"/>
</g>
</svg>
