<?xml version="1.0" encoding="iso-8859-1"?>
<!-- Generator: Adobe Illustrator 13.0.2, SVG Export Plug-In . SVG Version: 6.00 Build 14948)  -->
<!DOCTYPE svg PUBLIC "-//W3C//DTD SVG 1.1//EN" "http://www.w3.org/Graphics/SVG/1.1/DTD/svg11.dtd">
<svg version="1.1" xmlns="http://www.w3.org/2000/svg" xmlns:xlink="http://www.w3.org/1999/xlink" x="0px" y="0px" width="64px"
	 height="64px" viewBox="0 0 64 64" style="enable-background:new 0 0 64 64;" xml:space="preserve">
	<g id="icon-m-toolbar-send-receive">
		<g>
			<path style="fill:#FFFFFF;" d="M32,0C14.326,0,0,14.326,0,32c0,17.671,14.326,32,32,32s32-14.329,32-32C64,14.326,49.674,0,32,0z
				 M2.672,32.628l0.097-0.091h8.145c-0.007-0.146-0.022-0.278-0.022-0.429c0.003-11.74,9.52-21.261,21.267-21.268
				c4.323,0,8.335,1.299,11.689,3.517l-5.033,5.036c-1.99-1.046-4.253-1.646-6.656-1.65c-7.937,0.012-14.352,6.428-14.368,14.365
				c0,0.146,0.032,0.284,0.035,0.429h10.613l0.093,0.091l-12.93,11.98L2.672,32.628z M53.394,32.537
				c-0.234,11.545-9.636,20.826-21.235,20.833c-3.704-0.004-7.184-0.953-10.215-2.617l5.203-5.204
				c1.564,0.582,3.246,0.917,5.012,0.921c7.787-0.012,14.096-6.197,14.34-13.933h-9.565l-0.092-0.089L49.77,20.474l12.93,11.975
				l-0.093,0.089H53.394z"/>
		</g>
	</g>
</svg>
