<?xml version="1.0" encoding="iso-8859-1"?>
<!-- Generator: Adobe Illustrator 13.0.2, SVG Export Plug-In . SVG Version: 6.00 Build 14948)  -->
<!DOCTYPE svg PUBLIC "-//W3C//DTD SVG 1.1//EN" "http://www.w3.org/Graphics/SVG/1.1/DTD/svg11.dtd">
<svg version="1.1" xmlns="http://www.w3.org/2000/svg" xmlns:xlink="http://www.w3.org/1999/xlink" x="0px" y="0px"
	 width="13.487px" height="16.369px" viewBox="0 0 13.487 16.369" style="enable-background:new 0 0 13.487 16.369;"
	 xml:space="preserve">
	<g id="icon-s-status-wlan-fair">
		<path style="fill:#343434;" d="M1.838,5.666c-0.049-0.07-0.803-1.252-0.803-2.523c0-1.415,0.754-2.457,0.8-2.523
			C1.603,0.453,1.207,0.172,0.976,0C0.932,0.074,0,1.311,0,3.143c0,1.797,0.932,3.072,0.976,3.139
			C1.209,6.117,1.603,5.83,1.838,5.666"/>
		<path style="fill:#343434;" d="M11.65,0.615c0.049,0.072,0.8,1.254,0.8,2.523c0,1.416-0.751,2.457-0.798,2.523
			c0.23,0.164,0.624,0.449,0.855,0.619c0.046-0.072,0.979-1.313,0.979-3.143c0-1.799-0.932-3.074-0.978-3.139
			C12.279,0.164,11.886,0.449,11.65,0.615"/>
		<path style="fill:#343434;" d="M7.441,5.48c0.992-0.33,1.713-1.258,1.713-2.361c0-1.379-1.119-2.5-2.5-2.5s-2.5,1.121-2.5,2.5
			c0,1.104,0.72,2.029,1.712,2.361l-2.013,8.469H0.89v2.42h11.528v-2.42H9.462L7.441,5.48z"/>
	</g>
</svg>
