<?xml version="1.0" encoding="iso-8859-1"?>
<!-- Generator: Adobe Illustrator 14.0.0, SVG Export Plug-In . SVG Version: 6.00 Build 43363)  -->
<!DOCTYPE svg PUBLIC "-//W3C//DTD SVG 1.1//EN" "http://www.w3.org/Graphics/SVG/1.1/DTD/svg11.dtd">
<svg version="1.1" id="icon-m-content-image-layer" xmlns="http://www.w3.org/2000/svg" xmlns:xlink="http://www.w3.org/1999/xlink"
	 x="0px" y="0px" width="64px" height="64px" viewBox="0 0 64 64" style="enable-background:new 0 0 64 64;" xml:space="preserve">
<g id="icon-m-content-image">
	<rect style="fill:none;" width="64" height="64"/>
	<path style="fill:#333333;" d="M38.752,25.677c0.869,0,1.658-0.339,2.263-0.869c0.808,1.147,1.957,1.872,3.229,1.872
		c1.275,0,2.42-0.725,3.236-1.872c0.602,0.53,1.386,0.869,2.255,0.869c1.903,0,3.438-1.551,3.438-3.458
		c0-1.909-1.535-3.458-3.438-3.458c-0.438,0-0.856,0.087-1.237,0.245c-0.557-2.449-2.246-4.232-4.254-4.232
		c-2.002,0-3.697,1.783-4.252,4.232c-0.381-0.158-0.801-0.245-1.24-0.245c-1.895,0-3.439,1.549-3.439,3.458
		C35.312,24.126,36.857,25.677,38.752,25.677"/>
	<path style="fill:#333333;" d="M36.282,38.986c-5.124-11.848-15.181-26.48-24.774,9.505h41.395
		C52.902,48.491,44.818,20.1,36.282,38.986"/>
	<path style="fill:#333333;" d="M0,58.838h64V5.162H0V58.838z M5.645,10.912H58.35v42.176H5.645V10.912z"/>
</g>
</svg>
