<?xml version="1.0" encoding="iso-8859-1"?>
<!-- Generator: Adobe Illustrator 14.0.0, SVG Export Plug-In . SVG Version: 6.00 Build 43363)  -->
<!DOCTYPE svg PUBLIC "-//W3C//DTD SVG 1.1//EN" "http://www.w3.org/Graphics/SVG/1.1/DTD/svg11.dtd">
<svg version="1.1" id="icon-m-toolbar-delete-layer"
	 xmlns="http://www.w3.org/2000/svg" xmlns:xlink="http://www.w3.org/1999/xlink" x="0px" y="0px" width="64px" height="64px"
	 viewBox="0 0 64 64" style="enable-background:new 0 0 64 64;" xml:space="preserve">
<g id="icon-m-toolbar-delete">
	<rect style="fill:none;" width="64" height="64"/>
	<path style="fill:#FFFFFF;" d="M52.518,8.718h-12.5V4.885c0-1.1-0.899-2-2-2h-12c-1.1,0-2,0.9-2,2v3.833h-12.5c-1.1,0-2,0.9-2,2
		v6.5h45v-6.5C54.518,9.618,53.618,8.718,52.518,8.718z"/>
	<path style="fill:#FFFFFF;" d="M10.768,23.22l3,36.5c0,1.099,0.9,2,2,2h32.5c1.101,0,2-0.901,2-2l3-36.5H10.768z"/>
</g>
</svg>
