<?xml version="1.0" encoding="iso-8859-1"?>
<!-- Generator: Adobe Illustrator 14.0.0, SVG Export Plug-In . SVG Version: 6.00 Build 43363)  -->
<!DOCTYPE svg PUBLIC "-//W3C//DTD SVG 1.1//EN" "http://www.w3.org/Graphics/SVG/1.1/DTD/svg11.dtd">
<svg version="1.1" id="icon-m-common-keyboard-layer"
	 xmlns="http://www.w3.org/2000/svg" xmlns:xlink="http://www.w3.org/1999/xlink" x="0px" y="0px" width="64px" height="64px"
	 viewBox="0 0 64 64" style="enable-background:new 0 0 64 64;" xml:space="preserve">
<g id="icon-m-common-keyboard">
	<rect style="fill:none;" width="64" height="64"/>
	<path style="fill:#333333;" d="M59.837,13.936H4.161c-2.208,0-4.005,1.803-4.005,4.018v28.098c0,2.215,1.797,4.014,4.001,4.014
		h55.68c2.21,0,4-1.799,4.008-4.014V17.953C63.845,15.738,62.052,13.936,59.837,13.936z M43.058,19.145h6.192v6.193h-6.192V19.145z
		 M44.625,28.436v6.193h-6.192v-6.193H44.625z M33.767,19.145h6.194v6.193h-6.194V19.145z M35.204,28.436v6.193h-6.193v-6.193
		H35.204z M24.347,19.145h6.193v6.193h-6.193V19.145z M25.658,28.436v6.193h-6.194v-6.193H25.658z M14.797,19.145h6.195v6.193
		h-6.195V19.145z M5.379,19.145h6.194v6.193H5.379V19.145z M10.045,28.436h6.194v6.193h-6.194V28.436z M50.891,45.08H13.3v-6.193
		h37.591V45.08z M53.916,34.629h-6.193v-6.193h6.193V34.629z M58.669,25.338h-6.193v-6.193h6.193V25.338z"/>
</g>
</svg>
