<?xml version="1.0" encoding="iso-8859-1"?>
<!-- Generator: Adobe Illustrator 13.0.2, SVG Export Plug-In . SVG Version: 6.00 Build 14948)  -->
<!DOCTYPE svg PUBLIC "-//W3C//DTD SVG 1.1//EN" "http://www.w3.org/Graphics/SVG/1.1/DTD/svg11.dtd">
<svg version="1.1" xmlns="http://www.w3.org/2000/svg" xmlns:xlink="http://www.w3.org/1999/xlink" x="0px" y="0px" width="88px"
	 height="89px" viewBox="0 0 88 89" style="enable-background:new 0 0 88 89;" xml:space="preserve">
	<g id="icon-m-msn-messenger">
		<g>
			<path style="fill-rule:evenodd;clip-rule:evenodd;fill:none;stroke:#056937;stroke-width:2.4922;" d="M39.555,42.644
				c-1.967-1.997-4.272-3.264-6.373-3.683c1.999-1.522,3.291-3.927,3.291-6.635c0-4.603-3.732-8.334-8.334-8.334
				c-4.604,0-8.334,3.731-8.334,8.334c0,2.708,1.291,5.112,3.29,6.635c-2.101,0.419-4.406,1.686-6.373,3.683
				c-3.765,3.821-4.854,8.852-2.433,11.235c0.516,0.508,1.15,0.855,1.864,1.051l0,0c0-0.294,0.007-0.587,0.019-0.878
				c-0.012,0.293-0.019,0.588-0.019,0.886c0,3.452,5.057,5.179,11.985,5.179c6.928,0,11.984-2.532,11.984-5.179
				c0-0.3-0.008-0.599-0.019-0.895c0.011,0.293,0.017,0.588,0.019,0.887l0,0c0.713-0.195,1.348-0.543,1.864-1.051
				C44.409,51.495,43.318,46.465,39.555,42.644z M22.272,39.938c-0.019,0.018-0.037,0.033-0.056,0.049
				C22.235,39.971,22.254,39.955,22.272,39.938z M21.888,40.284c-0.006,0.005-0.013,0.012-0.019,0.018
				C21.875,40.296,21.882,40.289,21.888,40.284z M16.793,49.438c-0.06,0.251-0.117,0.504-0.17,0.76
				C16.678,49.942,16.733,49.689,16.793,49.438z M21.212,40.959c-0.01,0.01-0.021,0.021-0.029,0.03
				C21.191,40.979,21.202,40.969,21.212,40.959z M20.899,41.304c-0.036,0.04-0.073,0.082-0.11,0.123
				C20.826,41.386,20.863,41.344,20.899,41.304z M20.521,41.745c-0.016,0.02-0.032,0.041-0.048,0.06
				C20.488,41.786,20.505,41.765,20.521,41.745z M19.977,42.449c-0.047,0.063-0.093,0.124-0.139,0.188
				C19.884,42.573,19.93,42.512,19.977,42.449z M19.624,42.943c-0.052,0.077-0.104,0.155-0.153,0.233
				C19.52,43.099,19.572,43.021,19.624,42.943z M19.273,43.478c-0.102,0.161-0.201,0.324-0.298,0.492
				C19.072,43.802,19.172,43.639,19.273,43.478z M18.814,44.252c-0.061,0.104-0.119,0.21-0.176,0.318
				C18.695,44.462,18.754,44.356,18.814,44.252z M18.487,44.855c-0.065,0.128-0.131,0.261-0.195,0.393
				C18.356,45.116,18.422,44.983,18.487,44.855z M18.157,45.523c-0.083,0.181-0.167,0.365-0.246,0.552
				C17.99,45.889,18.074,45.704,18.157,45.523z M17.803,46.335c-0.061,0.145-0.119,0.289-0.176,0.435
				C17.684,46.624,17.742,46.479,17.803,46.335z M17.53,47.025c-0.083,0.221-0.163,0.443-0.238,0.671
				C17.367,47.469,17.447,47.246,17.53,47.025z M17.246,47.841c-0.063,0.192-0.123,0.387-0.182,0.586
				C17.123,48.228,17.184,48.033,17.246,47.841z M16.994,48.677c-0.052,0.182-0.102,0.365-0.146,0.552
				C16.893,49.042,16.942,48.858,16.994,48.677z M16.223,53.144c-0.018,0.218-0.029,0.438-0.041,0.66
				C16.193,53.581,16.205,53.361,16.223,53.144z M16.59,50.386c-0.041,0.205-0.079,0.412-0.113,0.621
				C16.511,50.798,16.549,50.591,16.59,50.386z M16.436,51.255c-0.034,0.228-0.067,0.456-0.097,0.688
				C16.368,51.711,16.401,51.482,16.436,51.255z M16.32,52.082c-0.031,0.275-0.059,0.554-0.083,0.834
				C16.262,52.636,16.289,52.357,16.32,52.082z M32.941,39.136c0.007-0.005,0.013-0.01,0.019-0.014
				c3.487,2.439,6.568,7.352,7.085,13.881C39.521,46.543,36.432,41.598,32.941,39.136z M40.047,53.042
				c0.021,0.267,0.036,0.538,0.05,0.813C40.083,53.581,40.068,53.309,40.047,53.042z"/>
			<radialGradient id="SVGID_1_" cx="28.248" cy="57.7207" r="21.3932" gradientUnits="userSpaceOnUse">
				<stop  offset="0.022" style="stop-color:#FFFFFF"/>
				<stop  offset="0.4835" style="stop-color:#8CC641"/>
				<stop  offset="1" style="stop-color:#056937"/>
			</radialGradient>
			<path style="fill-rule:evenodd;clip-rule:evenodd;fill:url(#SVGID_1_);" d="M40.123,54.938c0,2.646-5.057,5.179-11.984,5.179
				c-6.929,0-11.985-1.727-11.985-5.179c0-10.613,6.698-17.531,11.985-17.531S40.123,44.464,40.123,54.938z"/>
			<radialGradient id="SVGID_2_" cx="18.4038" cy="53.2344" r="9.8354" gradientUnits="userSpaceOnUse">
				<stop  offset="0.022" style="stop-color:#FFFFFF"/>
				<stop  offset="0.5385" style="stop-color:#8CC641"/>
				<stop  offset="1" style="stop-color:#099247"/>
			</radialGradient>
			<path style="fill-rule:evenodd;clip-rule:evenodd;fill:url(#SVGID_2_);" d="M23.709,38.859c-2.258,0.276-4.827,1.59-6.987,3.784
				c-3.765,3.821-4.854,8.852-2.433,11.235c0.516,0.508,1.15,0.855,1.864,1.051l0,0C16.157,47.185,19.726,41.413,23.709,38.859z"/>
			<radialGradient id="SVGID_3_" cx="19.481" cy="41.7979" r="15.4181" gradientUnits="userSpaceOnUse">
				<stop  offset="0.022" style="stop-color:#FFFFFF"/>
				<stop  offset="0.5385" style="stop-color:#8CC641"/>
				<stop  offset="1" style="stop-color:#099247"/>
			</radialGradient>
			<path style="opacity:0.68;fill-rule:evenodd;clip-rule:evenodd;fill:url(#SVGID_3_);" d="M15.74,54.343
				c-0.44-0.185-0.829-0.44-1.156-0.764c-1.064-1.047-1.415-2.715-0.988-4.689c0.444-2.047,1.661-4.159,3.426-5.951
				c1.473-1.492,3.174-2.607,4.863-3.208C18.857,42.445,15.9,47.431,15.74,54.343L15.74,54.343z"/>
			
				<radialGradient id="SVGID_4_" cx="-11825.9043" cy="53.2344" r="9.835" gradientTransform="matrix(-1 0 0 1 -11788.0313 0)" gradientUnits="userSpaceOnUse">
				<stop  offset="0.022" style="stop-color:#FFFFFF"/>
				<stop  offset="0.5385" style="stop-color:#8CC641"/>
				<stop  offset="1" style="stop-color:#099247"/>
			</radialGradient>
			<path style="fill-rule:evenodd;clip-rule:evenodd;fill:url(#SVGID_4_);" d="M32.568,38.859c2.256,0.276,4.826,1.59,6.986,3.784
				c3.764,3.821,4.854,8.852,2.433,11.235c-0.517,0.508-1.151,0.855-1.864,1.051l0,0C40.119,47.185,36.55,41.413,32.568,38.859z"/>
			
				<radialGradient id="SVGID_5_" cx="-11824.8262" cy="41.7979" r="15.4179" gradientTransform="matrix(-1 0 0 1 -11788.0313 0)" gradientUnits="userSpaceOnUse">
				<stop  offset="0.022" style="stop-color:#FFFFFF"/>
				<stop  offset="0.5385" style="stop-color:#8CC641"/>
				<stop  offset="1" style="stop-color:#099247"/>
			</radialGradient>
			<path style="opacity:0.68;fill-rule:evenodd;clip-rule:evenodd;fill:url(#SVGID_5_);" d="M40.535,54.343
				c0.44-0.185,0.829-0.44,1.157-0.764c1.063-1.047,1.413-2.715,0.986-4.689c-0.442-2.047-1.66-4.159-3.425-5.951
				c-1.471-1.492-3.172-2.607-4.861-3.208C37.417,42.445,40.375,47.431,40.535,54.343L40.535,54.343z"/>
			<defs>
				<filter id="Adobe_OpacityMaskFilter" filterUnits="userSpaceOnUse" x="20.946" y="37.49" width="14.384" height="9.221">
					<feColorMatrix  type="matrix" values="1 0 0 0 0  0 1 0 0 0  0 0 1 0 0  0 0 0 1 0"/>
				</filter>
			</defs>
			<mask maskUnits="userSpaceOnUse" x="20.946" y="37.49" width="14.384" height="9.221" id="SVGID_6_">
				<g style="filter:url(#Adobe_OpacityMaskFilter);">
					
						<linearGradient id="SVGID_7_" gradientUnits="userSpaceOnUse" x1="-13.1558" y1="-50.3955" x2="-13.1558" y2="-40.9258" gradientTransform="matrix(1.0071 0 0 1 42.3875 0)">
						<stop  offset="0" style="stop-color:#FFFFFF"/>
						<stop  offset="1" style="stop-color:#010101"/>
					</linearGradient>
					
						<rect x="18.281" y="-50.396" style="fill-rule:evenodd;clip-rule:evenodd;fill:url(#SVGID_7_);" width="21.715" height="9.47"/>
				</g>
			</mask>
			
				<radialGradient id="SVGID_8_" cx="-11394.5537" cy="-178.5142" r="24.9465" gradientTransform="matrix(-1.1122 0 0 -0.6479 -12644.9854 -75.5632)" gradientUnits="userSpaceOnUse">
				<stop  offset="0.022" style="stop-color:#FFFFFF"/>
				<stop  offset="0.5385" style="stop-color:#8CC641"/>
				<stop  offset="1" style="stop-color:#099247"/>
			</radialGradient>
			<path style="mask:url(#SVGID_6_);fill-rule:evenodd;clip-rule:evenodd;fill:url(#SVGID_8_);" d="M20.946,43.645
				c0-2.313,3.22-6.154,7.192-6.154c3.971,0,7.191,3.841,7.191,6.154c0,2.314-3.221,3.066-7.191,3.066
				C24.166,46.711,20.946,45.959,20.946,43.645z"/>
			<path style="opacity:0.28;fill-rule:evenodd;clip-rule:evenodd;fill:#056937;" d="M23.436,40.214
				c0-0.876,2.105-2.427,4.703-2.427s4.703,1.551,4.703,2.427c0,0.875-2.105,1.584-4.703,1.584S23.436,41.089,23.436,40.214z"/>
			<radialGradient id="SVGID_9_" cx="28.2153" cy="38.9033" r="14.9092" gradientUnits="userSpaceOnUse">
				<stop  offset="0.022" style="stop-color:#FFFFFF"/>
				<stop  offset="0.5385" style="stop-color:#8CC641"/>
				<stop  offset="1" style="stop-color:#099247"/>
			</radialGradient>
			<circle style="fill-rule:evenodd;clip-rule:evenodd;fill:url(#SVGID_9_);" cx="28.139" cy="32.326" r="8.334"/>
			<defs>
				<filter id="Adobe_OpacityMaskFilter_1_" filterUnits="userSpaceOnUse" x="22.709" y="24.528" width="10.857" height="7.033">
					<feColorMatrix  type="matrix" values="1 0 0 0 0  0 1 0 0 0  0 0 1 0 0  0 0 0 1 0"/>
				</filter>
			</defs>
			<mask maskUnits="userSpaceOnUse" x="22.709" y="24.528" width="10.857" height="7.033" id="SVGID_10_">
				<g style="filter:url(#Adobe_OpacityMaskFilter_1_);">
					
						<linearGradient id="SVGID_11_" gradientUnits="userSpaceOnUse" x1="-13.1567" y1="-64.084" x2="-13.1567" y2="-56.1328" gradientTransform="matrix(1.0071 0 0 1 42.3875 0)">
						<stop  offset="0" style="stop-color:#FFFFFF"/>
						<stop  offset="1" style="stop-color:#010101"/>
					</linearGradient>
					
						<rect x="20.941" y="-64.084" style="fill-rule:evenodd;clip-rule:evenodd;fill:url(#SVGID_11_);" width="16.393" height="7.951"/>
				</g>
			</mask>
			
				<radialGradient id="SVGID_12_" cx="-11999.0615" cy="-157.5537" r="20.4162" gradientTransform="matrix(-1 0 0 -0.6479 -11971 -75.5632)" gradientUnits="userSpaceOnUse">
				<stop  offset="0.022" style="stop-color:#FFFFFF"/>
				<stop  offset="0.5385" style="stop-color:#8CC641"/>
				<stop  offset="1" style="stop-color:#099247"/>
			</radialGradient>
			
				<ellipse style="mask:url(#SVGID_10_);fill-rule:evenodd;clip-rule:evenodd;fill:url(#SVGID_12_);" cx="28.138" cy="28.044" rx="5.429" ry="3.516"/>
			<path style="opacity:0.5;fill-rule:evenodd;clip-rule:evenodd;fill:#333333;" d="M28.139,39.36c-3.26,0-6.078-1.889-7.422-4.631
				c1.013,3.131,3.951,5.397,7.422,5.397c3.469,0,6.406-2.267,7.42-5.397C34.216,37.472,31.398,39.36,28.139,39.36z"/>
		</g>
		<g>
			<path style="fill-rule:evenodd;clip-rule:evenodd;fill:none;stroke:#0F4169;stroke-width:2.4922;" d="M71.104,48.545
				c-3.115-3.159-6.768-5.167-10.097-5.832c3.168-2.411,5.215-6.221,5.215-10.51C66.222,24.911,60.31,19,53.018,19
				c-7.293,0-13.205,5.911-13.205,13.203c0,4.289,2.047,8.099,5.216,10.51c-3.329,0.665-6.981,2.673-10.097,5.832
				c-5.964,6.057-7.691,14.026-3.856,17.803c0.818,0.806,1.823,1.354,2.956,1.664c0.002,0,0.002,0,0.002,0
				c0-0.47,0.01-0.931,0.027-1.39c-0.018,0.464-0.027,0.931-0.027,1.403c0,5.47,8.006,8.204,18.984,8.204
				c10.977,0,18.984-4.011,18.984-8.204c0-0.479-0.01-0.95-0.028-1.419c0.018,0.466,0.028,0.932,0.028,1.405h0.001
				c1.132-0.31,2.138-0.858,2.955-1.664C78.795,62.571,77.066,54.602,71.104,48.545z M43.725,44.262
				c-0.029,0.025-0.059,0.051-0.088,0.076C43.666,44.313,43.695,44.287,43.725,44.262z M43.115,44.81
				c-0.011,0.008-0.021,0.019-0.029,0.026C43.095,44.828,43.104,44.817,43.115,44.81z M35.045,59.313
				c-0.097,0.396-0.186,0.798-0.269,1.203C34.859,60.111,34.948,59.71,35.045,59.313z M42.044,45.878
				c-0.016,0.018-0.031,0.033-0.046,0.049C42.013,45.911,42.028,45.896,42.044,45.878z M41.547,46.423
				c-0.057,0.065-0.114,0.131-0.17,0.196C41.433,46.554,41.49,46.488,41.547,46.423z M40.949,47.123
				c-0.025,0.032-0.051,0.065-0.076,0.098C40.898,47.188,40.924,47.155,40.949,47.123z M40.086,48.238
				c-0.073,0.101-0.146,0.198-0.219,0.299C39.94,48.437,40.013,48.339,40.086,48.238z M39.528,49.024
				c-0.082,0.122-0.163,0.244-0.245,0.367C39.365,49.269,39.446,49.146,39.528,49.024z M38.972,49.869
				c-0.161,0.256-0.317,0.517-0.473,0.778C38.654,50.386,38.811,50.125,38.972,49.869z M38.246,51.096
				c-0.094,0.166-0.188,0.334-0.277,0.503C38.059,51.43,38.152,51.262,38.246,51.096z M37.729,52.052
				c-0.105,0.204-0.21,0.412-0.312,0.62C37.521,52.464,37.623,52.256,37.729,52.052z M37.207,53.11
				c-0.133,0.287-0.264,0.578-0.392,0.873C36.943,53.688,37.074,53.397,37.207,53.11z M36.643,54.396
				c-0.096,0.228-0.188,0.458-0.275,0.69C36.455,54.854,36.547,54.623,36.643,54.396z M36.211,55.489
				c-0.131,0.35-0.256,0.702-0.375,1.063C35.955,56.191,36.08,55.839,36.211,55.489z M35.762,56.781
				c-0.1,0.307-0.196,0.614-0.287,0.928C35.565,57.396,35.662,57.088,35.762,56.781z M35.362,58.105
				c-0.08,0.289-0.159,0.58-0.232,0.873C35.203,58.686,35.282,58.395,35.362,58.105z M34.138,65.181
				c-0.024,0.346-0.046,0.695-0.061,1.046C34.092,65.876,34.113,65.526,34.138,65.181z M34.72,60.811
				c-0.064,0.326-0.123,0.656-0.179,0.987C34.597,61.467,34.655,61.137,34.72,60.811z M34.479,62.191
				c-0.056,0.36-0.106,0.722-0.154,1.087C34.372,62.913,34.423,62.552,34.479,62.191z M34.295,63.5
				c-0.05,0.437-0.095,0.877-0.131,1.322C34.2,64.377,34.245,63.937,34.295,63.5z M60.628,42.99
				c0.009-0.007,0.019-0.014,0.028-0.021c5.525,3.865,10.406,11.647,11.223,21.991C71.053,54.724,66.158,46.891,60.628,42.99z
				 M71.884,65.021c0.034,0.425,0.059,0.854,0.079,1.288C71.942,65.875,71.918,65.445,71.884,65.021z"/>
			<radialGradient id="SVGID_13_" cx="53.1914" cy="72.4336" r="33.8882" gradientUnits="userSpaceOnUse">
				<stop  offset="0.022" style="stop-color:#FFFFFF"/>
				<stop  offset="0.5385" style="stop-color:#2CAAE2"/>
				<stop  offset="1" style="stop-color:#134B97"/>
			</radialGradient>
			<path style="fill-rule:evenodd;clip-rule:evenodd;fill:url(#SVGID_13_);" d="M72.002,68.025c0,4.193-8.008,8.204-18.984,8.204
				c-10.979,0-18.984-2.734-18.984-8.204c0-16.815,10.606-27.774,18.984-27.774C61.395,40.251,72.002,51.433,72.002,68.025z"/>
			<radialGradient id="SVGID_14_" cx="37.5947" cy="65.3252" r="15.5831" gradientUnits="userSpaceOnUse">
				<stop  offset="0.022" style="stop-color:#FFFFFF"/>
				<stop  offset="0.5385" style="stop-color:#2CAAE2"/>
				<stop  offset="1" style="stop-color:#134B97"/>
			</radialGradient>
			<path style="fill-rule:evenodd;clip-rule:evenodd;fill:url(#SVGID_14_);" d="M46,42.553c-3.575,0.437-7.647,2.521-11.068,5.992
				c-5.964,6.057-7.691,14.026-3.856,17.803c0.818,0.806,1.823,1.354,2.956,1.664c0.002,0,0.002,0,0.002,0
				C34.036,55.742,39.688,46.599,46,42.553z"/>
			<radialGradient id="SVGID_15_" cx="39.3032" cy="47.207" r="24.4279" gradientUnits="userSpaceOnUse">
				<stop  offset="0.022" style="stop-color:#FFFFFF"/>
				<stop  offset="0.5385" style="stop-color:#2CAAE2"/>
				<stop  offset="1" style="stop-color:#134B97"/>
			</radialGradient>
			<path style="opacity:0.68;fill-rule:evenodd;clip-rule:evenodd;fill:url(#SVGID_15_);" d="M33.375,67.083
				c-0.696-0.292-1.313-0.697-1.832-1.211c-1.686-1.66-2.24-4.299-1.561-7.431c0.7-3.239,2.627-6.588,5.424-9.427
				c2.33-2.366,5.027-4.129,7.704-5.083C38.315,48.234,33.631,56.133,33.375,67.083L33.375,67.083z"/>
			
				<radialGradient id="SVGID_16_" cx="-11856.4697" cy="65.3252" r="15.5827" gradientTransform="matrix(-1 0 0 1 -11788.0313 0)" gradientUnits="userSpaceOnUse">
				<stop  offset="0.022" style="stop-color:#FFFFFF"/>
				<stop  offset="0.5385" style="stop-color:#2CAAE2"/>
				<stop  offset="1" style="stop-color:#134B97"/>
			</radialGradient>
			<path style="fill-rule:evenodd;clip-rule:evenodd;fill:url(#SVGID_16_);" d="M60.034,42.553
				c3.576,0.437,7.647,2.521,11.069,5.992c5.963,6.057,7.691,14.026,3.854,17.803c-0.817,0.806-1.823,1.354-2.955,1.664h-0.001
				C71.999,55.742,66.346,46.599,60.034,42.553z"/>
			
				<radialGradient id="SVGID_17_" cx="-11854.7617" cy="47.207" r="24.4279" gradientTransform="matrix(-1 0 0 1 -11788.0313 0)" gradientUnits="userSpaceOnUse">
				<stop  offset="0.022" style="stop-color:#FFFFFF"/>
				<stop  offset="0.5385" style="stop-color:#2CAAE2"/>
				<stop  offset="1" style="stop-color:#134B97"/>
			</radialGradient>
			<path style="opacity:0.68;fill-rule:evenodd;clip-rule:evenodd;fill:url(#SVGID_17_);" d="M72.658,67.083
				c0.698-0.292,1.312-0.697,1.832-1.211c1.688-1.66,2.241-4.299,1.563-7.431c-0.701-3.239-2.629-6.588-5.426-9.427
				c-2.329-2.366-5.026-4.129-7.703-5.083C67.719,48.234,72.403,56.133,72.658,67.083L72.658,67.083z"/>
			<defs>
				<filter id="Adobe_OpacityMaskFilter_2_" filterUnits="userSpaceOnUse" x="41.624" y="40.382" width="22.786" height="14.609">
					<feColorMatrix  type="matrix" values="1 0 0 0 0  0 1 0 0 0  0 0 1 0 0  0 0 0 1 0"/>
				</filter>
			</defs>
			<mask maskUnits="userSpaceOnUse" x="41.624" y="40.382" width="22.786" height="14.609" id="SVGID_18_">
				<g style="filter:url(#Adobe_OpacityMaskFilter_2_);">
					
						<linearGradient id="SVGID_19_" gradientUnits="userSpaceOnUse" x1="11.5474" y1="-47.4375" x2="11.5474" y2="-32.4316" gradientTransform="matrix(1.0071 0 0 1 42.3875 0)">
						<stop  offset="0" style="stop-color:#FFFFFF"/>
						<stop  offset="1" style="stop-color:#010101"/>
					</linearGradient>
					
						<rect x="36.815" y="-47.438" style="fill-rule:evenodd;clip-rule:evenodd;fill:url(#SVGID_19_);" width="34.403" height="15.006"/>
				</g>
			</mask>
			
				<radialGradient id="SVGID_20_" cx="-11416.8691" cy="-185.3271" r="39.5199" gradientTransform="matrix(-1.1122 0 0 -0.6479 -12644.9854 -75.5632)" gradientUnits="userSpaceOnUse">
				<stop  offset="0.022" style="stop-color:#FFFFFF"/>
				<stop  offset="0.5385" style="stop-color:#2CAAE2"/>
				<stop  offset="1" style="stop-color:#134B97"/>
			</radialGradient>
			<path style="mask:url(#SVGID_18_);fill-rule:evenodd;clip-rule:evenodd;fill:url(#SVGID_20_);" d="M41.624,50.133
				c0-3.664,5.101-9.751,11.394-9.751s11.393,6.087,11.393,9.751c0,3.666-5.1,4.858-11.393,4.858S41.624,53.799,41.624,50.133z"/>
			<path style="opacity:0.28;fill-rule:evenodd;clip-rule:evenodd;fill:#1072BA;" d="M45.567,44.697c0-1.386,3.336-3.844,7.45-3.844
				s7.45,2.458,7.45,3.844c0,1.387-3.336,2.51-7.45,2.51S45.567,46.084,45.567,44.697z"/>
			<radialGradient id="SVGID_21_" cx="53.1387" cy="42.6201" r="23.6221" gradientUnits="userSpaceOnUse">
				<stop  offset="0.022" style="stop-color:#FFFFFF"/>
				<stop  offset="0.5385" style="stop-color:#2CAAE2"/>
				<stop  offset="1" style="stop-color:#134B97"/>
			</radialGradient>
			<circle style="fill-rule:evenodd;clip-rule:evenodd;fill:url(#SVGID_21_);" cx="53.017" cy="32.203" r="13.205"/>
			<defs>
				<filter id="Adobe_OpacityMaskFilter_3_" filterUnits="userSpaceOnUse" x="44.417" y="19.847" width="17.2" height="11.146">
					<feColorMatrix  type="matrix" values="1 0 0 0 0  0 1 0 0 0  0 0 1 0 0  0 0 0 1 0"/>
				</filter>
			</defs>
			<mask maskUnits="userSpaceOnUse" x="44.417" y="19.847" width="17.2" height="11.146" id="SVGID_22_">
				<g style="filter:url(#Adobe_OpacityMaskFilter_3_);">
					
						<linearGradient id="SVGID_23_" gradientUnits="userSpaceOnUse" x1="11.5483" y1="-69.1211" x2="11.5483" y2="-56.5244" gradientTransform="matrix(1.0071 0 0 1 42.3875 0)">
						<stop  offset="0" style="stop-color:#FFFFFF"/>
						<stop  offset="1" style="stop-color:#010101"/>
					</linearGradient>
					
						<rect x="41.032" y="-69.121" style="fill-rule:evenodd;clip-rule:evenodd;fill:url(#SVGID_23_);" width="25.971" height="12.597"/>
				</g>
			</mask>
			
				<radialGradient id="SVGID_24_" cx="-12023.8965" cy="-152.1216" r="32.3451" gradientTransform="matrix(-1 0 0 -0.6479 -11971 -75.5632)" gradientUnits="userSpaceOnUse">
				<stop  offset="0.022" style="stop-color:#FFFFFF"/>
				<stop  offset="0.5385" style="stop-color:#2CAAE2"/>
				<stop  offset="1" style="stop-color:#134B97"/>
			</radialGradient>
			
				<ellipse style="mask:url(#SVGID_22_);fill-rule:evenodd;clip-rule:evenodd;fill:url(#SVGID_24_);" cx="53.017" cy="25.419" rx="8.6" ry="5.572"/>
			<path style="opacity:0.5;fill-rule:evenodd;clip-rule:evenodd;fill:#333333;" d="M53.018,43.348
				c-5.165,0-9.629-2.994-11.755-7.34c1.604,4.961,6.26,8.551,11.755,8.551c5.496,0,10.152-3.59,11.756-8.551
				C62.646,40.354,58.182,43.348,53.018,43.348z"/>
		</g>
		<rect y="0.004" style="fill:none;" width="88" height="88"/>
		<rect id="_x3C_Slice_x3E__15_" style="fill:none;" width="88" height="89"/>
	</g>
</svg>
