<?xml version="1.0" encoding="iso-8859-1"?>
<!-- Generator: Adobe Illustrator 14.0.0, SVG Export Plug-In . SVG Version: 6.00 Build 43363)  -->
<!DOCTYPE svg PUBLIC "-//W3C//DTD SVG 1.1//EN" "http://www.w3.org/Graphics/SVG/1.1/DTD/svg11.dtd">
<svg version="1.1" id="icon-m-telephony-microphone-off-layer"
	 xmlns="http://www.w3.org/2000/svg" xmlns:xlink="http://www.w3.org/1999/xlink" x="0px" y="0px" width="64px" height="64px"
	 viewBox="0 0 64 64" style="enable-background:new 0 0 64 64;" xml:space="preserve">
<g id="icon-m-telephony-microphone-off">
	<rect style="fill:none;" width="64" height="64"/>
	<path style="fill:#333333;" d="M20.055,0.91c-1.176-1.166-3.09-1.166-4.262,0L0.895,15.809c-1.178,1.176-1.178,3.084,0,4.258
		l15.924,15.916l19.164-19.148L20.055,0.91z M14.607,28.699l-3.312-3.311l14.086-14.078l3.32,3.309L14.607,28.699z M49.252,56.035
		l6.807-6.799L43.248,34.424l-8.82,8.814L49.252,56.035z M7.714,54.436l3.313,3.312l46.752-46.707l-3.311-3.305L7.714,54.436z
		 M59.852,63.967l4.141-4.137l-4.251-4.26l-4.14,4.137L59.852,63.967z"/>
</g>
</svg>
