<?xml version="1.0" encoding="iso-8859-1"?>
<!-- Generator: Adobe Illustrator 14.0.0, SVG Export Plug-In . SVG Version: 6.00 Build 43363)  -->
<!DOCTYPE svg PUBLIC "-//W3C//DTD SVG 1.1//EN" "http://www.w3.org/Graphics/SVG/1.1/DTD/svg11.dtd">
<svg version="1.1" id="icon-m-content-email-layer" xmlns="http://www.w3.org/2000/svg" xmlns:xlink="http://www.w3.org/1999/xlink"
	 x="0px" y="0px" width="64px" height="64px" viewBox="0 0 64 64" style="enable-background:new 0 0 64 64;" xml:space="preserve">
<g id="icon-m-content-email">
	<rect style="fill:none;" width="64" height="64"/>
	<path style="fill:#333333;" d="M32,1C14.878,1,1,14.879,1,32s13.878,31,31,31c17.119,0,31-13.879,31-31S49.119,1,32,1z
		 M50.025,40.254c-1.861,2.244-4.447,3.377-7.708,3.377c-1.514,0-2.835-0.404-3.962-1.258c-1.133-0.814-1.93-1.977-2.346-3.451
		c-1.799,3.127-4.235,4.709-7.325,4.709c-2.067,0-3.824-0.824-5.267-2.461c-1.424-1.651-2.157-3.861-2.157-6.672
		c0-4.393,1.259-7.818,3.75-10.313c2.506-2.488,5.84-3.743,10.028-3.743h7.375c-1.199,6.556-1.794,11.425-1.794,14.638
		c0,1.953,0.226,3.23,0.659,3.842c0.445,0.6,1.189,0.914,2.241,0.914c1.358,0,2.421-0.766,3.212-2.33
		c0.779-1.541,1.153-3.723,1.153-6.533c0-4.952-1.271-8.785-3.837-11.527c-2.568-2.73-6.201-4.098-10.887-4.098
		c-4.928,0-8.931,1.438-12.033,4.316c-3.125,2.857-4.677,6.838-4.677,11.907c0,5.667,1.422,9.93,4.293,12.759
		c2.869,2.854,7.157,4.271,12.882,4.271c3.385,0,6.953-0.611,10.662-1.852v4.279c-1.344,0.491-3.133,0.922-5.3,1.273
		c-2.198,0.343-4.112,0.524-5.788,0.524c-6.747,0-12.105-1.812-16.071-5.44c-3.974-3.628-5.958-8.81-5.958-15.571
		c0-4.222,0.923-7.881,2.784-10.999c1.843-3.105,4.469-5.486,7.858-7.148c3.389-1.672,7.137-2.496,11.234-2.496
		c6.266,0,11.127,1.727,14.591,5.188c3.463,3.459,5.188,8.265,5.188,14.396C52.828,34.865,51.906,38.029,50.025,40.254z"/>
	<path style="fill:#333333;" d="M29.25,27.006c-1.305,1.793-1.971,4.197-1.971,7.244c0,1.887,0.238,3.272,0.727,4.186
		c0.482,0.907,1.325,1.344,2.515,1.344c2.229,0,3.681-2.746,4.367-8.262l0.922-7.205h-1.787
		C32.181,24.313,30.583,25.204,29.25,27.006z"/>
</g>
</svg>
