<?xml version="1.0" encoding="iso-8859-1"?>
<!-- Generator: Adobe Illustrator 14.0.0, SVG Export Plug-In . SVG Version: 6.00 Build 43363)  -->
<!DOCTYPE svg PUBLIC "-//W3C//DTD SVG 1.1//EN" "http://www.w3.org/Graphics/SVG/1.1/DTD/svg11.dtd">
<svg version="1.1" id="icon-m-common-wlan-strength0-layer"
	 xmlns="http://www.w3.org/2000/svg" xmlns:xlink="http://www.w3.org/1999/xlink" x="0px" y="0px" width="64px" height="64px"
	 viewBox="0 0 64 64" style="enable-background:new 0 0 64 64;" xml:space="preserve">
<g id="icon-m-common-wlan-strength0">
	<rect style="fill:none;" width="64" height="64"/>
	<path style="fill:#333333;" d="M28.519,59.898h-3.765l-3.455-14.48c1.511-0.562,2.607-2.047,2.607-3.827
		c0-2.267-1.747-4.097-3.906-4.097s-3.913,1.83-3.913,4.097c0,1.78,1.09,3.263,2.605,3.827l-3.446,14.48h-3.766
		c-0.69,0-1.251,0.57-1.251,1.252v1.598c0,0.699,0.562,1.252,1.251,1.252h17.037c0.69,0,1.251-0.553,1.251-1.252V61.15
		C29.77,60.469,29.208,59.898,28.519,59.898"/>
	<path style="fill:#333333;" d="M34.488,28.606c-0.443-0.333-1.08-0.235-1.421,0.217c-0.335,0.45-0.236,1.102,0.222,1.438
		c2.883,2.188,4.689,6.509,4.689,11.273c0,4.752-1.807,9.076-4.689,11.258c-0.458,0.344-0.557,0.976-0.222,1.438
		c0.341,0.455,0.978,0.547,1.421,0.212C37.885,51.865,40,46.928,40,41.535C40,36.131,37.885,31.184,34.488,28.606"/>
	<path style="fill:#333333;" d="M31.573,35.922c0,0-0.02-0.069-0.039-0.104c-0.215-0.502-0.723-1.432-0.723-1.432
		c-0.547-0.938-1.099-1.666-1.933-2.446c-0.294-0.288-0.624-0.524-0.938-0.772c-0.072-0.059-0.146-0.096-0.225-0.123
		c-0.439-0.236-0.988-0.119-1.303,0.303c-0.272,0.383-0.262,0.885-0.004,1.243c0.067,0.13,0.204,0.272,0.282,0.339
		c0.48,0.441,0.991,0.869,1.426,1.385c0.163,0.201,0.319,0.411,0.471,0.619c1.134,1.762,1.815,4.104,1.815,6.605
		c0,2.486-0.646,4.802-1.759,6.561c-0.569,0.783-1.224,1.43-1.933,2.031c-0.441,0.376-0.56,1.018-0.216,1.486
		c0.345,0.469,0.978,0.582,1.465,0.27c0.333-0.221,0.645-0.432,0.939-0.721c0.923-0.775,1.654-1.932,2.271-3.107h-0.013
		c0.958-1.872,1.499-4.141,1.499-6.52C32.654,39.535,32.27,37.602,31.573,35.922"/>
	<path style="fill:#333333;" d="M6.711,30.262c0.459-0.337,0.557-0.988,0.223-1.438c-0.342-0.452-0.979-0.55-1.421-0.217
		C2.116,31.184,0,36.131,0,41.535c0,5.393,2.116,10.33,5.512,12.907c0.443,0.335,1.079,0.243,1.421-0.212
		c0.334-0.462,0.236-1.094-0.223-1.438c-2.884-2.182-4.689-6.506-4.689-11.258C2.021,36.771,3.827,32.449,6.711,30.262"/>
	<path style="fill:#333333;" d="M11.103,51.164c0.293,0.289,0.606,0.5,0.938,0.723c0.488,0.313,1.121,0.199,1.466-0.27
		c0.344-0.469,0.224-1.113-0.217-1.486c-0.709-0.602-1.364-1.248-1.933-2.031c-1.114-1.759-1.758-4.076-1.758-6.561
		c0-2.502,0.681-4.844,1.814-6.605c0.151-0.209,0.308-0.419,0.471-0.62c0.434-0.515,0.946-0.944,1.425-1.386
		c0.077-0.066,0.215-0.209,0.281-0.337c0.259-0.36,0.269-0.862-0.003-1.245c-0.314-0.421-0.864-0.538-1.302-0.302
		c-0.079,0.028-0.154,0.063-0.226,0.122c-0.314,0.248-0.645,0.486-0.938,0.771c-0.834,0.781-1.386,1.512-1.933,2.449
		c0,0-0.508,0.927-0.723,1.43c-0.019,0.034-0.039,0.104-0.039,0.104c-0.698,1.68-1.082,3.613-1.082,5.619
		c0,2.379,0.54,4.646,1.499,6.52H8.832C9.446,49.234,10.178,50.389,11.103,51.164"/>
	<rect x="47.025" y="59" style="opacity:0.3;fill:#333333;" width="16.975" height="5"/>
	<rect x="47.025" y="47.832" style="opacity:0.3;fill:#333333;" width="16.975" height="5"/>
	<rect x="47.025" y="36.666" style="opacity:0.3;fill:#333333;" width="16.975" height="5"/>
	<rect x="47.025" y="25.5" style="opacity:0.3;fill:#333333;" width="16.975" height="5"/>
	<rect x="47.025" y="14.334" style="opacity:0.3;fill:#333333;" width="16.975" height="5"/>
</g>
</svg>
