<?xml version="1.0" encoding="iso-8859-1"?>
<!-- Generator: Adobe Illustrator 14.0.0, SVG Export Plug-In . SVG Version: 6.00 Build 43363)  -->
<!DOCTYPE svg PUBLIC "-//W3C//DTD SVG 1.1//EN" "http://www.w3.org/Graphics/SVG/1.1/DTD/svg11.dtd">
<svg version="1.1" id="icon-m-camera-roll-layer" xmlns="http://www.w3.org/2000/svg" xmlns:xlink="http://www.w3.org/1999/xlink"
	 x="0px" y="0px" width="64px" height="64px" viewBox="0 0 64 64" style="enable-background:new 0 0 64 64;" xml:space="preserve">
<g id="icon-m-camera-roll">
	<rect style="fill:none;" width="64" height="64"/>
	<path style="fill:#333333;" d="M36,11H26V7c0-1.054-0.948-2-2-2h-9c-1.052,0-2,0.946-2,2v4H3c-3,0-2,4,0,4v41c-2,0-3,3.9,0,3.9h33
		c3,0,2-3.9,0-3.9V15C38,15,39,11,36,11z M14,56H8V14.9h6V56z"/>
	<path style="fill:#333333;" d="M40,17v36h6V43c0-3,1-5.1,4-5.1L63,38V17H40z M46,28h-4v-8.1l4,0.1V28z M53,28h-4v-8.1l4,0.1V28z
		 M60,28h-4v-8.1l4,0.1V28z"/>
</g>
</svg>
