<?xml version="1.0" encoding="iso-8859-1"?>
<!-- Generator: Adobe Illustrator 14.0.0, SVG Export Plug-In . SVG Version: 6.00 Build 43363)  -->
<!DOCTYPE svg PUBLIC "-//W3C//DTD SVG 1.1//EN" "http://www.w3.org/Graphics/SVG/1.1/DTD/svg11.dtd">
<svg version="1.1" id="icon-m-common-handsfree-layer"
	 xmlns="http://www.w3.org/2000/svg" xmlns:xlink="http://www.w3.org/1999/xlink" x="0px" y="0px" width="64px" height="64px"
	 viewBox="0 0 64 64" style="enable-background:new 0 0 64 64;" xml:space="preserve">
<g id="icon-m-common-handsfree">
	<rect style="fill:none;" width="64" height="64"/>
	<path style="fill:#333333;" d="M63.5,36c0-3.567-1.826-7.999-4.565-7.999c-0.024-0.002-1.826,0-1.826,0s-0.913,0-0.913,0.913V44.02
		c0,0,0.002,0.042,0.01,0.099L46.172,55.752l-7.029,0.488c-0.721-1.465-2.209-2.484-3.945-2.484c-2.438,0-4.413,1.988-4.413,4.436
		s1.976,4.435,4.413,4.435c2.046,0,3.752-1.406,4.252-3.304l8.102-0.516L59.592,44.85C61.961,44.308,63.5,39.273,63.5,36z"/>
	<path style="fill:#333333;" d="M5.065,28.001c0.025-0.002,1.827,0,1.827,0s0.913,0,0.913,0.913V44.02c0,0,0,0.913-0.913,0.913
		c0,0-1.802,0.003-1.827,0C2.326,44.933,0.5,39.568,0.5,36C0.5,32.433,2.326,28.001,5.065,28.001z"/>
	<path style="fill:#333333;" d="M49.805,24.819v20.113h4.564V24.846l0,0c0.02-11.644-10.059-23.472-22.325-23.472
		C19.779,1.374,9.63,12.976,9.63,24.846l0,0l0,0v20.087h4.565V24.819l0,0c0-9.104,8.457-18.562,17.849-18.562
		c9.392,0,17.76,9.458,17.744,18.562H49.805z"/>
</g>
</svg>
