<?xml version="1.0" encoding="iso-8859-1"?>
<!-- Generator: Adobe Illustrator 14.0.0, SVG Export Plug-In . SVG Version: 6.00 Build 43363)  -->
<!DOCTYPE svg PUBLIC "-//W3C//DTD SVG 1.1//EN" "http://www.w3.org/Graphics/SVG/1.1/DTD/svg11.dtd">
<svg version="1.1" id="icon-l-email-layer" xmlns="http://www.w3.org/2000/svg" xmlns:xlink="http://www.w3.org/1999/xlink" x="0px"
	 y="0px" width="48px" height="48px" viewBox="0 0 48 48" style="enable-background:new 0 0 48 48;" xml:space="preserve">
<g id="icon-l-email">
	<rect style="fill:none;" width="48" height="48"/>
	<g>
		<g style="opacity:0.2;">
			<path style="fill:#231F20;" d="M24.002,46.75c-12.642,0-22.927-10.285-22.927-22.928c0-12.644,10.285-22.93,22.927-22.93
				c12.64,0,22.922,10.286,22.922,22.93C46.924,36.465,36.642,46.75,24.002,46.75L24.002,46.75z"/>
			<path style="fill:#010101;" d="M24.002,1.643c12.248,0,22.172,9.934,22.172,22.18C46.174,36.07,36.25,46,24.002,46
				C11.753,46,1.825,36.07,1.825,23.822C1.825,11.576,11.753,1.643,24.002,1.643 M24.002,0.143
				c-13.055,0-23.677,10.623-23.677,23.68c0,13.056,10.622,23.678,23.677,23.678c13.053,0,23.672-10.622,23.672-23.678
				C47.674,10.765,37.055,0.143,24.002,0.143L24.002,0.143z"/>
		</g>
		<circle style="opacity:0.5;fill:#231F20;" cx="24" cy="23.822" r="22.174"/>
		<linearGradient id="SVGID_1_" gradientUnits="userSpaceOnUse" x1="23.9995" y1="0" x2="23.9995" y2="44.356">
			<stop  offset="0" style="stop-color:#FFFFFF"/>
			<stop  offset="1" style="stop-color:#B3B3B3"/>
		</linearGradient>
		<path style="fill:url(#SVGID_1_);" d="M46.174,22.178c0,12.25-9.924,22.178-22.172,22.178c-12.249,0-22.177-9.928-22.177-22.178
			C1.825,9.934,11.753,0,24.002,0C36.25,0,46.174,9.934,46.174,22.178z"/>
		<linearGradient id="SVGID_2_" gradientUnits="userSpaceOnUse" x1="23.998" y1="6.5234" x2="23.998" y2="37.8281">
			<stop  offset="0" style="stop-color:#517DBF"/>
			<stop  offset="1" style="stop-color:#293175"/>
		</linearGradient>
		<path style="fill:url(#SVGID_2_);" d="M26.213,13.539h4.838c-0.834,5.256-1.255,8.883-1.255,10.883c0,1.9-0.002,3.738,2.062,3.738
			c0.996,0,3.551-0.818,3.551-6.781c0-7.979-4.159-11.902-10.538-11.902c-6.876,0-11.986,4.4-11.986,12.397
			c0,8.093,3.562,13.007,12.291,13.007c2.358,0,4.809-0.467,7.353-1.402v2.951c-4.621,1.846-13.492,2.652-19.072-2.689
			c-2.843-2.732-4.265-6.633-4.265-11.701c0-10.402,7.256-15.516,15.573-15.516c9.027,0,14.041,5.418,14.041,14.689
			c0,5.084-2.17,9.68-7.505,9.68c-1.884,0-3.84-1.08-4.423-3.711c-1.148,2.473-2.783,3.711-4.9,3.711
			c-3.566,0-5.178-3.297-5.178-6.789C16.798,16.209,21.785,13.539,26.213,13.539 M26.195,21.846l0.643-5.574h-1.225
			c-3.475,0-5.124,3.641-5.124,7.5c0,2.705,0.495,4.389,2.474,4.389C24.603,28.16,25.68,26.057,26.195,21.846"/>
	</g>
</g>
</svg>
