<?xml version="1.0" encoding="iso-8859-1"?>
<!-- Generator: Adobe Illustrator 14.0.0, SVG Export Plug-In . SVG Version: 6.00 Build 43363)  -->
<!DOCTYPE svg PUBLIC "-//W3C//DTD SVG 1.1//EN" "http://www.w3.org/Graphics/SVG/1.1/DTD/svg11.dtd">
<svg version="1.1" id="icon-m-content-pdf-layer" xmlns="http://www.w3.org/2000/svg" xmlns:xlink="http://www.w3.org/1999/xlink"
	 x="0px" y="0px" width="64px" height="64px" viewBox="0 0 64 64" style="enable-background:new 0 0 64 64;" xml:space="preserve">
<g id="icon-m-content-pdf">
	<rect style="fill:none;" width="64" height="64"/>
	<polygon style="fill:#333333;" points="38.668,0.359 38.668,22.234 59.873,22.234 59.873,21.561 	"/>
	<path style="fill:#333333;" d="M33.508,22.751V0H6.194C5.06,0,4.128,0.93,4.128,2.064v59.871C4.128,63.07,5.06,64,6.194,64h51.614
		c1.133,0,2.064-0.93,2.064-2.064V27.396H38.152C35.591,27.396,33.508,25.312,33.508,22.751z M47.69,41.77
		c0.552,0.701,0.71,1.559,0.469,2.551c-0.584,2.41-2.679,3.738-5.895,3.738c-2.455,0-4.975-0.771-6.379-1.535
		c-0.693-0.377-1.405-0.822-2.116-1.328c-3.248,0.359-6.3,0.994-9.072,1.891l-0.124,0.041c-0.564,0.182-1.279,0.412-2.062,0.688
		c-0.705,1.205-1.358,2.248-1.995,3.186c-0.053,0.078-5.402,7.789-8.867,7.789c-0.839,0-1.942-0.434-2.432-2.5
		c-1.341-5.625,5.253-9.881,8.15-11.449c0.432-0.232,0.875-0.447,1.319-0.66c1.577-3.031,2.86-5.871,3.922-8.678
		c0.358-0.939,0.767-2.023,1.133-3.115c-0.293-0.719-0.533-1.39-0.734-2.043c-0.881-2.869-2.072-8.102-0.17-10.918
		c0.77-1.137,1.954-1.779,3.515-1.91c1.412-0.121,2.491,0.324,3.245,1.303c2.159,2.799,0.793,9.402,0.044,12.314
		c0.225,0.449,0.451,0.841,0.685,1.195c1.69,2.537,3.68,5.414,6.029,7.555c1.021-0.068,2.314-0.143,3.661-0.143
		C44.104,39.74,46.616,40.404,47.69,41.77z"/>
	<path style="fill:#333333;" d="M24.084,42.965c2.425-0.715,4.914-1.309,7.402-1.764c-1.551-1.674-2.995-3.506-4.294-5.445
		C26.197,38.283,25.154,40.707,24.084,42.965z"/>
</g>
</svg>
