<?xml version="1.0" encoding="iso-8859-1"?>
<!-- Generator: Adobe Illustrator 13.0.2, SVG Export Plug-In . SVG Version: 6.00 Build 14948)  -->
<!DOCTYPE svg PUBLIC "-//W3C//DTD SVG 1.1//EN" "http://www.w3.org/Graphics/SVG/1.1/DTD/svg11.dtd">
<svg version="1.1" xmlns="http://www.w3.org/2000/svg" xmlns:xlink="http://www.w3.org/1999/xlink" x="0px" y="0px" width="281px"
	 height="281px" viewBox="0 0 281 281" style="enable-background:new 0 0 281 281;" xml:space="preserve">
	<g id="icon-l-youtube">
		<linearGradient id="SVGID_1_" gradientUnits="userSpaceOnUse" x1="208.5127" y1="102.6167" x2="221.5831" y2="79.9781">
			<stop  offset="0" style="stop-color:#EC272C"/>
			<stop  offset="0.2568" style="stop-color:#F17158"/>
			<stop  offset="0.6225" style="stop-color:#FAB9A3"/>
			<stop  offset="0.8784" style="stop-color:#FEE9E0"/>
			<stop  offset="1" style="stop-color:#FFFFFF"/>
		</linearGradient>
		<path style="fill-rule:evenodd;clip-rule:evenodd;fill:url(#SVGID_1_);" d="M187.338,92.447h-19.43
			c-45.807,0-51.147,2.063-51.147,36.203v10.642v10.651c0,34.137,5.341,36.2,51.147,36.2h19.43h19.424
			c45.807,0,51.151-2.063,51.151-36.2v-10.651V128.65c0-34.14-5.345-36.203-51.151-36.203H187.338z"/>
		<path style="fill:#ED2224;" d="M187.338,93.84h-19.43c-22.627,0-35.239,0.49-41.972,5.055c-6.55,4.428-7.784,13.178-7.784,29.756
			h-0.009v10.642h0.009v10.651c0,16.574,1.234,25.321,7.784,29.752c6.733,4.564,19.345,5.056,41.972,5.056h19.43h19.424
			c22.627,0,35.239-0.491,41.976-5.056c6.548-4.431,7.78-13.178,7.78-29.752v-10.651h0.01V128.65h-0.01
			c0-16.578-1.232-25.328-7.78-29.756c-6.736-4.564-19.349-5.055-41.976-5.055H187.338L187.338,93.84z M167.908,91.056h19.43h19.424
			c23.177,0,36.144,0.54,43.533,5.543c7.574,5.134,9.01,14.486,9.01,32.052h-0.006v10.642h0.006v10.651
			c0,17.563-1.436,26.916-9.01,32.049c-7.39,5.002-20.356,5.543-43.533,5.543h-19.424h-19.43c-23.176,0-36.143-0.541-43.525-5.543
			c-7.582-5.133-9.015-14.486-9.015-32.049v-10.651h0.003V128.65h-0.003c0-17.565,1.433-26.918,9.015-32.052
			C131.766,91.596,144.732,91.056,167.908,91.056z"/>
		<linearGradient id="SVGID_2_" gradientUnits="userSpaceOnUse" x1="63.8257" y1="107.623" x2="63.8257" y2="169.6313">
			<stop  offset="0" style="stop-color:#595A5C"/>
			<stop  offset="1" style="stop-color:#302E2E"/>
		</linearGradient>
		<path style="fill:url(#SVGID_2_);" d="M32.414,168.407v-25.771l-12.752-35.013h10.037l7.361,22.848l7.268-22.848h9.753
			l-12.535,35.013v25.771H32.414L32.414,168.407z M107.989,122.736v45.671h-8.303v-4.543c-0.861,1.901-1.951,3.331-3.244,4.313
			c-1.293,0.969-2.766,1.453-4.428,1.453c-2.657,0-4.68-0.944-6.069-2.824c-1.392-1.88-2.082-4.607-2.082-8.193v-35.877h8.15v29.843
			c0,3.029,0.267,5.114,0.817,6.264c0.553,1.144,1.476,1.709,2.778,1.709c1.436,0,2.436-0.634,3.008-1.898
			c0.584-1.252,0.876-3.502,0.876-6.752v-29.165H107.989z"/>
		<linearGradient id="SVGID_3_" gradientUnits="userSpaceOnUse" x1="187.3359" y1="107.623" x2="187.3359" y2="169.6313">
			<stop  offset="0" style="stop-color:#FFFFFF"/>
			<stop  offset="1" style="stop-color:#E8E7E8"/>
		</linearGradient>
		<path style="fill:url(#SVGID_3_);" d="M139.08,168.407v-50.76h-10.509v-10.024h30.165v10.024h-10.516v50.76H139.08L139.08,168.407
			z M182.537,122.736h-8.563v29.165c0,3.25-0.299,5.5-0.883,6.752c-0.578,1.265-1.585,1.898-3.033,1.898
			c-1.316,0-2.249-0.565-2.803-1.709c-0.556-1.149-0.826-3.234-0.826-6.264v-29.843h-8.215v35.877c0,3.586,0.692,6.313,2.097,8.193
			c1.401,1.88,3.446,2.824,6.118,2.824c1.675,0,3.163-0.484,4.469-1.453c1.305-0.982,2.398-2.412,3.269-4.313v4.543h8.37V122.736
			L182.537,122.736z M202.602,130.402c-1.706,0-2.859,0.998-3.486,3.005c-0.635,1.995-0.936,6.692-0.936,14.095
			c0,5.683,0.301,9.334,0.936,10.962c0.627,1.632,1.78,2.455,3.486,2.455c1.5,0,2.532-0.892,3.085-2.685
			c0.56-1.79,0.827-5.967,0.827-12.507c0-6.762-0.268-11.016-0.827-12.737C205.134,131.264,204.102,130.402,202.602,130.402
			L202.602,130.402z M189.896,168.407v-60.784h8.532v18.992c0.715-1.709,1.672-2.986,2.85-3.822
			c1.181-0.849,2.639-1.268,4.379-1.268c3.523,0,5.99,1.74,7.4,5.229c1.414,3.486,2.123,9.834,2.123,19.047
			c0,8.89-0.73,15.089-2.191,18.575c-1.441,3.505-3.952,5.254-7.525,5.254c-1.783,0-3.307-0.509-4.567-1.521
			c-1.262-1.01-2.231-2.505-2.915-4.475v4.772H189.896L189.896,168.407z M229.252,139.809h8.281v-1.942
			c0-3.126-0.309-5.279-0.924-6.466c-0.617-1.185-1.695-1.777-3.25-1.777c-1.51,0-2.575,0.608-3.219,1.83
			c-0.627,1.227-0.951,3.368-0.951,6.413c0,0,0.01,0.229,0.028,0.661C229.24,138.966,229.252,139.389,229.252,139.809
			L229.252,139.809z M237.815,152.753h8.036c0,0.218,0.009,0.513,0.018,0.904c0.022,0.4,0.031,0.687,0.031,0.873
			c0,5.201-0.994,9.023-2.995,11.45c-2.014,2.439-5.198,3.65-9.546,3.65c-2.293,0-4.219-0.348-5.76-1.063
			c-1.555-0.715-2.828-1.817-3.828-3.313c-1.193-1.765-2.026-3.989-2.518-6.671c-0.49-2.682-0.73-7.517-0.73-14.479
			c0-5.553,0.218-9.527,0.641-11.923c0.426-2.398,1.144-4.35,2.162-5.888c1.066-1.576,2.445-2.763,4.154-3.57
			c1.719-0.796,3.751-1.199,6.097-1.199c2.274,0,4.238,0.432,5.882,1.279c1.641,0.864,3.005,2.157,4.096,3.896
			c0.914,1.517,1.566,3.431,1.955,5.736c0.391,2.303,0.59,6.021,0.59,11.155v3.474h-16.751c-0.04,0.339-0.065,0.702-0.078,1.078
			c-0.006,0.392-0.019,0.998-0.019,1.846c0,4.338,0.326,7.371,0.979,9.107c0.641,1.743,1.737,2.602,3.297,2.602
			c1.504,0,2.595-0.699,3.275-2.102C237.48,158.188,237.815,155.903,237.815,152.753z"/>
		<linearGradient id="SVGID_4_" gradientUnits="userSpaceOnUse" x1="64.8369" y1="121.5254" x2="64.8369" y2="169.6313">
			<stop  offset="0" style="stop-color:#595A5C"/>
			<stop  offset="1" style="stop-color:#302E2E"/>
		</linearGradient>
		<path style="fill:url(#SVGID_4_);" d="M74.862,126.658c-1.896-3.421-5.235-5.133-10.04-5.133c-4.779,0-8.11,1.712-10.008,5.133
			c-1.898,3.424-2.846,9.726-2.846,18.941c0,9.197,0.948,15.521,2.846,18.927c1.898,3.408,5.229,5.104,10.008,5.104
			c4.804,0,8.144-1.696,10.04-5.104c1.898-3.405,2.843-9.729,2.843-18.927C77.706,136.384,76.761,130.082,74.862,126.658z
			 M69.055,147.726c0,6.239-0.292,10.092-0.885,11.571c-0.59,1.498-1.725,2.237-3.406,2.237c-1.625,0-2.719-0.796-3.291-2.368
			c-0.572-1.578-0.848-5.9-0.848-12.988v-4.217c0-5.359,0.298-8.756,0.892-10.154c0.609-1.416,1.703-2.115,3.306-2.115
			c1.622,0,2.734,0.764,3.334,2.302c0.593,1.551,0.897,5.292,0.897,11.276V147.726z"/>
		<rect x="0.897" y="0.349" style="fill:none;" width="280" height="280"/>
		<rect id="_x3C_Slice_x3E__10_" style="fill:none;" width="281" height="281"/>
	</g>
</svg>
