<?xml version="1.0" encoding="iso-8859-1"?>
<!-- Generator: Adobe Illustrator 14.0.0, SVG Export Plug-In . SVG Version: 6.00 Build 43363)  -->
<!DOCTYPE svg PUBLIC "-//W3C//DTD SVG 1.1//EN" "http://www.w3.org/Graphics/SVG/1.1/DTD/svg11.dtd">
<svg version="1.1" id="icon-s-gallery-metadata-layer"
	 xmlns="http://www.w3.org/2000/svg" xmlns:xlink="http://www.w3.org/1999/xlink" x="0px" y="0px" width="32px" height="18px"
	 viewBox="0 0 32 18" style="enable-background:new 0 0 32 18;" xml:space="preserve">
<g id="icon-s-gallery-metadata">
	<rect style="fill:none;" width="32" height="18"/>
	<path style="fill:#333333;" d="M20.633,12.286c0,1.83,0.838,1.83,1.283,1.83c0.939,0,2.014-0.316,2.014-2.779V9.616h-0.225
		C20.984,9.616,20.633,11.044,20.633,12.286z"/>
	<path style="fill:#333333;" d="M0,0v18h32V0H0z M14.773,5.73L8.492,7.986l6.281,2.253v4.253L3.252,9.773V6.195L14.773,1.5V5.73z
		 M28.748,16.349h-3.279l-0.285-1.072c-0.932,0.841-2.027,1.224-3.461,1.224c-2.787,0-4.52-1.655-4.52-4.319
		c0-4.315,4.025-4.628,6.727-4.696V7.186c0-0.906-0.258-1.366-1.668-1.366c-0.836,0-1.867,0.187-3.07,0.556l-0.863,0.266v-3.5
		l0.506-0.127c1.572-0.395,3.094-0.603,4.4-0.603c3.555,0,5.514,1.71,5.514,4.818V16.349z"/>
</g>
</svg>
