<?xml version="1.0" encoding="iso-8859-1"?>
<!-- Generator: Adobe Illustrator 13.0.2, SVG Export Plug-In . SVG Version: 6.00 Build 14948)  -->
<!DOCTYPE svg PUBLIC "-//W3C//DTD SVG 1.1//EN" "http://www.w3.org/Graphics/SVG/1.1/DTD/svg11.dtd">
<svg version="1.1" xmlns="http://www.w3.org/2000/svg" xmlns:xlink="http://www.w3.org/1999/xlink" x="0px" y="0px" width="64px"
	 height="64px" viewBox="0 0 64 64" style="enable-background:new 0 0 64 64;" xml:space="preserve">
	<g id="icon-m-toolbar-tag">
		<rect style="fill:none;" width="64" height="64"/>
		<path style="fill:#FFFFFF;" d="M54.008,21.78l0.086-0.219l-0.02-0.008c0.17-0.581,0.168-1.216-0.074-1.804L47.053,2.837
			c-0.546-1.329-2.057-1.918-3.359-1.309L27.135,9.283c-0.574,0.271-1.006,0.733-1.273,1.278l-0.02-0.008L9.809,51.704
			l28.252,11.007l15.945-40.926L54.008,21.78z M45.732,15.815c-1.117,2.767-4.236,4.177-6.969,3.149s-4.041-4.103-2.924-6.868
			c1.117-2.769,4.236-4.179,6.969-3.151S46.85,13.049,45.732,15.815z"/>
	</g>
</svg>
