<?xml version="1.0" encoding="iso-8859-1"?>
<!-- Generator: Adobe Illustrator 14.0.0, SVG Export Plug-In . SVG Version: 6.00 Build 43363)  -->
<!DOCTYPE svg PUBLIC "-//W3C//DTD SVG 1.1//EN" "http://www.w3.org/Graphics/SVG/1.1/DTD/svg11.dtd">
<svg version="1.1" id="icon-l-calendar-layer" xmlns="http://www.w3.org/2000/svg" xmlns:xlink="http://www.w3.org/1999/xlink"
	 x="0px" y="0px" width="64px" height="64px" viewBox="0 0 64 64" style="enable-background:new 0 0 64 64;" xml:space="preserve">
<g id="icon-l-calendar">
	<rect style="fill:none;" width="64" height="64"/>
	<path style="opacity:0.2;fill:#010101;" d="M58.988,9.68c-0.047-0.652-0.441-1.508-1.58-1.561h-9.176V7.04
		c-0.289-4.079-5.928-3.908-6.055,0v1.079H21.847V7.04c-0.305-4.126-5.842-3.832-6.06,0v1.079H6.659
		C6.043,8.172,5.128,8.513,5.076,9.68c0,0-0.024,42.764-0.024,43.039c0.003,1.967,0.817,7.299,7.272,7.323h39.413
		c0.045,0,0.094,0.003,0.137,0.003c6.256-0.027,7.191-5.384,7.141-7.326C59.002,52.419,58.988,9.68,58.988,9.68z"/>
	<path style="opacity:0.5;fill:#010101;" d="M57.408,52.172v-2.124l-50.75,0.062v2.063c0,0-0.71,6.307,5.665,6.307H51.74
		C58.115,58.479,57.408,52.172,57.408,52.172z"/>
	<linearGradient id="SVGID_1_" gradientUnits="userSpaceOnUse" x1="31.9585" y1="-5.1045" x2="31.9585" y2="57.5">
		<stop  offset="0" style="stop-color:#FFFFFF"/>
		<stop  offset="1" style="stop-color:#B3B3B3"/>
	</linearGradient>
	<path style="fill:url(#SVGID_1_);" d="M57.334,50.609V8.119H6.583v42.49c0,0-0.709,6.305,5.666,6.305h39.417
		C58.041,56.914,57.334,50.609,57.334,50.609z"/>
	<path style="opacity:0.3;" d="M51.947,12.084H12.119c-0.811,0.072-1.156,0.688-1.123,1.109v37.2
		c-0.06,0.306,0.289,1.088,1.123,1.108h39.829c0.318,0.053,1.086-0.237,1.121-1.108v-37.2
		C53.084,12.795,52.762,12.133,51.947,12.084z"/>
	<linearGradient id="SVGID_2_" gradientUnits="userSpaceOnUse" x1="32.0327" y1="20.5278" x2="32.0327" y2="145.9378">
		<stop  offset="0" style="stop-color:#FFFFFF"/>
		<stop  offset="1" style="stop-color:#B3B2C9"/>
	</linearGradient>
	<rect x="12.119" y="17.931" style="fill:url(#SVGID_2_);" width="39.829" height="31.479"/>
	<linearGradient id="SVGID_3_" gradientUnits="userSpaceOnUse" x1="32.0327" y1="7.686" x2="32.0327" y2="78.389">
		<stop  offset="0" style="stop-color:#E92629"/>
		<stop  offset="0.3873" style="stop-color:#C72226"/>
		<stop  offset="1" style="stop-color:#911A1D"/>
	</linearGradient>
	<rect x="12.119" y="12.084" style="fill:url(#SVGID_3_);" width="39.829" height="5.967"/>
	<path style="fill:#FFFFFF;" d="M43.234,49.422h8.743v-7.566C45.543,43.668,43.234,49.422,43.234,49.422z"/>
	<path style="opacity:0.2;fill:#010101;" d="M15.082,8.127l0.926,5.746c0,1.549,1.271,2.806,2.84,2.806
		c1.563,0,2.832-1.257,2.832-2.806l0.93-5.746H15.082z"/>
	<path style="opacity:0.2;fill:#010101;" d="M41.449,8.127l0.93,5.746c0,1.549,1.273,2.806,2.838,2.806
		c1.563,0,2.834-1.257,2.834-2.806l0.927-5.746H41.449z"/>
	<path style="fill:#010101;" d="M47.314,13.981c0,1.126-0.941,2.036-2.104,2.036s-2.104-0.91-2.104-2.036
		c0-1.12,0.941-2.034,2.104-2.034S47.314,12.861,47.314,13.981z"/>
	<path style="fill:#010101;" d="M20.916,13.981c0,1.126-0.941,2.036-2.106,2.036c-1.161,0-2.101-0.91-2.101-2.036
		c0-1.12,0.939-2.034,2.101-2.034C19.974,11.947,20.916,12.861,20.916,13.981z"/>
	<linearGradient id="SVGID_4_" gradientUnits="userSpaceOnUse" x1="17.9858" y1="9.6196" x2="21.7449" y2="9.6196">
		<stop  offset="0" style="stop-color:#E3E3E3"/>
		<stop  offset="1" style="stop-color:#414141"/>
	</linearGradient>
	<path style="fill:url(#SVGID_4_);" d="M20.264,5.474v8.296c-0.083,1.98-2.876,1.811-2.894,0V5.474
		C17.463,3.596,20.107,3.549,20.264,5.474z"/>
	<linearGradient id="SVGID_5_" gradientUnits="userSpaceOnUse" x1="44.4873" y1="9.6333" x2="47.4508" y2="9.6333">
		<stop  offset="0" style="stop-color:#E3E3E3"/>
		<stop  offset="1" style="stop-color:#414141"/>
	</linearGradient>
	<path style="fill:url(#SVGID_5_);" d="M46.654,5.474v8.296c-0.07,1.934-2.789,1.884-2.893,0V5.474
		C43.764,3.72,46.459,3.477,46.654,5.474z"/>
	<linearGradient id="SVGID_6_" gradientUnits="userSpaceOnUse" x1="24.8687" y1="23.3027" x2="24.8687" y2="42.6274">
		<stop  offset="0" style="stop-color:#E92629"/>
		<stop  offset="0.3873" style="stop-color:#C72226"/>
		<stop  offset="1" style="stop-color:#911A1D"/>
	</linearGradient>
	<polygon style="fill:url(#SVGID_6_);" points="27.293,23.303 24.976,23.303 19.521,25.037 19.521,27.303 23.001,26.564 
		23.001,40.364 19.834,40.364 19.834,42.627 30.216,42.627 30.216,40.364 27.293,40.364 	"/>
	<linearGradient id="SVGID_7_" gradientUnits="userSpaceOnUse" x1="38.4355" y1="23.2461" x2="38.4355" y2="42.6274">
		<stop  offset="0" style="stop-color:#E92629"/>
		<stop  offset="0.3873" style="stop-color:#C72226"/>
		<stop  offset="1" style="stop-color:#911A1D"/>
	</linearGradient>
	<path style="fill:url(#SVGID_7_);" d="M36.447,40.07c0-2.174,2.824-4.319,4.162-5.48c1.393-1.213,3.793-2.862,3.859-6.232
		c0.035-1.684-0.434-5.049-6.289-5.11c-1.68-0.018-3.412,0.262-5.188,0.79v2.609c1.625-0.584,2.989-0.912,4.096-0.872
		c4.18,0.147,2.848,3.976,2.408,4.634c-1.275,1.91-7.262,4.882-7.167,10.535v1.684h12.213V40.07H36.447z"/>
	<linearGradient id="SVGID_8_" gradientUnits="userSpaceOnUse" x1="18.6797" y1="16.7114" x2="76.3783" y2="74.4117">
		<stop  offset="0" style="stop-color:#FFFFFF"/>
		<stop  offset="1" style="stop-color:#B3B2C9"/>
	</linearGradient>
	<polygon style="fill:url(#SVGID_8_);" points="51.978,41.855 43.875,41.398 43.234,49.422 	"/>
</g>
</svg>
