<?xml version="1.0" encoding="iso-8859-1"?>
<!-- Generator: Adobe Illustrator 14.0.0, SVG Export Plug-In . SVG Version: 6.00 Build 43363)  -->
<!DOCTYPE svg PUBLIC "-//W3C//DTD SVG 1.1//EN" "http://www.w3.org/Graphics/SVG/1.1/DTD/svg11.dtd">
<svg version="1.1" id="icon-m-common-wlan-wpa-layer"
	 xmlns="http://www.w3.org/2000/svg" xmlns:xlink="http://www.w3.org/1999/xlink" x="0px" y="0px" width="64px" height="64px"
	 viewBox="0 0 64 64" style="enable-background:new 0 0 64 64;" xml:space="preserve">
<g id="icon-m-common-wlan-wpa">
	<rect style="fill:none;" width="64" height="64"/>
	<path style="fill:#333333;" d="M61.688,27.438h-2.492c-0.002-3.225-0.008-7.395-0.008-7.498c0-8.758-7.162-15.852-16-15.854
		c-8.84,0.002-15.999,7.096-16.001,15.854c0,0.104-0.006,4.236-0.007,7.498h-2.492c-1.275,0-2.314,1.008-2.314,2.244v27.982
		c0,1.234,1.039,2.25,2.314,2.25h37c1.271,0,2.313-1.008,2.313-2.25V29.682C64,28.445,62.959,27.438,61.688,27.438z M32.079,19.939
		c0.01-6.077,4.974-10.998,11.108-11.006c6.135,0.008,11.1,4.929,11.109,11.006c-0.002,0.104,0.004,4.273,0.006,7.498H32.093
		C32.086,24.176,32.079,20.044,32.079,19.939z M38.428,43.383v10.252H32.29V43.516c-1.704-1.012-2.849-2.865-2.849-4.99
		c0-3.209,2.6-5.809,5.809-5.809c3.207,0,5.807,2.6,5.807,5.809C41.057,40.559,40.01,42.346,38.428,43.383z M54.428,43.383v10.252
		h-6.137V43.516c-1.705-1.012-2.85-2.865-2.85-4.99c0-3.209,2.6-5.809,5.809-5.809c3.207,0,5.807,2.6,5.807,5.809
		C57.057,40.559,56.01,42.346,54.428,43.383z"/>
</g>
</svg>
