<?xml version="1.0" encoding="iso-8859-1"?>
<!-- Generator: Adobe Illustrator 14.0.0, SVG Export Plug-In . SVG Version: 6.00 Build 43363)  -->
<!DOCTYPE svg PUBLIC "-//W3C//DTD SVG 1.1//EN" "http://www.w3.org/Graphics/SVG/1.1/DTD/svg11.dtd">
<svg version="1.1" id="icon-m-settings-touch-feedback-layer"
	 xmlns="http://www.w3.org/2000/svg" xmlns:xlink="http://www.w3.org/1999/xlink" x="0px" y="0px" width="64px" height="64px"
	 viewBox="0 0 64 64" style="enable-background:new 0 0 64 64;" xml:space="preserve">
<g id="icon-m-settings-touch-feedback_1_">
	<rect style="fill:none;" width="64" height="64"/>
	<path style="fill:#333333;" d="M55.076,37.202c-1.084-3.825-7.457-2.02-6.371,1.806l1.084,3.825l-2.547,0.727l-2.895-10.195
		c-1.085-3.824-7.456-2.019-6.371,1.807l2.169,7.648L37.6,43.534l-3.256-11.46c-1.084-3.826-7.457-2.02-6.372,1.805l2.531,8.916
		l-2.547,0.728L20.721,18.04c-1.084-3.823-7.456-2.017-6.334,1.938l12.259,43.194l33.132-9.406L55.076,37.202z"/>
	<path style="fill:#333333;" d="M9,28V7h40v22h6V3c0,0,0-2-2-2H5C3,1,3,3,3,3v29c0,0,0,2,2,2h8l-2-6H9z"/>
</g>
</svg>
