<?xml version="1.0" encoding="iso-8859-1"?>
<!-- Generator: Adobe Illustrator 14.0.0, SVG Export Plug-In . SVG Version: 6.00 Build 43363)  -->
<!DOCTYPE svg PUBLIC "-//W3C//DTD SVG 1.1//EN" "http://www.w3.org/Graphics/SVG/1.1/DTD/svg11.dtd">
<svg version="1.1" id="icon-l-search-layer" xmlns="http://www.w3.org/2000/svg" xmlns:xlink="http://www.w3.org/1999/xlink"
	 x="0px" y="0px" width="64px" height="64px" viewBox="0 0 64 64" style="enable-background:new 0 0 64 64;" xml:space="preserve">
<g id="icon-l-search">
	<g>
		<path style="opacity:0.2;fill:#010101;" d="M45.379,37.209c1.672-3.082,2.638-6.614,2.635-10.372
			c0-12.064-9.77-21.84-21.833-21.84c-12.067,0-21.84,9.775-21.843,21.84c0.003,12.065,9.776,21.842,21.843,21.842
			c3.353,0,6.539-0.763,9.38-2.116c5.24,5.238,13.871,13.866,13.912,13.907c1.016,1.017,2.363,1.53,3.689,1.527h0.017
			c1.333,0,2.673-0.521,3.686-1.527l2.436-2.429c0.088-0.119,1.401-1.284,1.449-3.451c0.012-1.177-0.519-2.522-1.663-3.666
			C58.787,50.618,50.618,42.454,45.379,37.209z"/>
		<path style="opacity:0.5;fill:#010101;" d="M57.919,52.026c-0.044-0.047-9.368-9.367-14.55-14.553
			c1.918-3.095,3.042-6.729,3.042-10.637c0-11.176-9.056-20.231-20.23-20.233c-11.179,0-20.233,9.058-20.233,20.233
			c0,11.177,9.054,20.236,20.233,20.236c3.511,0,6.812-0.897,9.69-2.473c5.102,5.098,14.697,14.692,14.741,14.734
			c1.411,1.414,3.708,1.412,5.123-0.005c0.007-0.009,2.431-2.429,2.431-2.429S60.523,54.628,57.919,52.026z"/>
		<linearGradient id="SVGID_1_" gradientUnits="userSpaceOnUse" x1="51.9785" y1="43.2451" x2="39.829" y2="55.3947">
			<stop  offset="0" style="stop-color:#E3E3E3"/>
			<stop  offset="1" style="stop-color:#414141"/>
		</linearGradient>
		<path style="fill:url(#SVGID_1_);" d="M42.295,34.789c4.827,4.833,15.578,15.582,15.624,15.631
			c2.604,2.604,0.247,4.877,0.247,4.877s-2.424,2.417-2.431,2.426c-1.415,1.417-3.712,1.42-5.123,0.006
			c-0.048-0.048-10.938-10.932-15.683-15.673L42.295,34.789z"/>
		<path style="opacity:0.3;" d="M42.295,34.789l-7.365,7.267c0.795,0.79,1.799,1.794,2.902,2.896
			c3.006-1.778,5.58-4.212,7.496-7.124C44.181,36.673,43.129,35.621,42.295,34.789z"/>
		<linearGradient id="SVGID_2_" gradientUnits="userSpaceOnUse" x1="26.1792" y1="7.5103" x2="26.1792" y2="59.7184">
			<stop  offset="0" style="stop-color:#E3E3E3"/>
			<stop  offset="1" style="stop-color:#414141"/>
		</linearGradient>
		<path style="fill:url(#SVGID_2_);" d="M46.411,25.233c0,11.174-9.056,20.231-20.23,20.231c-11.179,0-20.233-9.058-20.233-20.231
			c0-11.179,9.054-20.236,20.233-20.236C37.355,4.999,46.411,14.055,46.411,25.233z"/>
		<linearGradient id="SVGID_3_" gradientUnits="userSpaceOnUse" x1="26.1792" y1="41.4463" x2="26.1792" y2="15.3425">
			<stop  offset="0" style="stop-color:#DEEDF8"/>
			<stop  offset="0.2511" style="stop-color:#C1E4F7"/>
			<stop  offset="0.7909" style="stop-color:#6DCDF3"/>
			<stop  offset="1" style="stop-color:#3AC5F2"/>
		</linearGradient>
		<path style="fill:url(#SVGID_3_);" d="M41.488,24.885c0,8.457-6.85,15.31-15.308,15.31c-8.459,0-15.308-6.853-15.311-15.303
			c0-8.459,6.852-15.314,15.311-15.314C34.639,9.577,41.488,16.428,41.488,24.885z"/>
		<path style="opacity:0.4;fill:#FFFFFF;" d="M49.59,56.709l7.311-7.312c-0.29-0.289-0.641-0.638-1.074-1.074l-7.311,7.313
			C48.951,56.071,49.297,56.418,49.59,56.709z"/>
		<linearGradient id="SVGID_4_" gradientUnits="userSpaceOnUse" x1="26.1787" y1="43.6563" x2="26.1787" y2="-5.5363">
			<stop  offset="0" style="stop-color:#E3E3E3"/>
			<stop  offset="1" style="stop-color:#414141"/>
		</linearGradient>
		<path style="fill:url(#SVGID_4_);" d="M26.177,8.2c-9.218,0-16.686,7.471-16.686,16.688c0,9.215,7.468,16.682,16.686,16.686
			c9.221-0.004,16.688-7.471,16.688-16.689l0,0C42.865,15.668,35.398,8.2,26.177,8.2z M26.181,40.194
			c-8.459,0-15.308-6.853-15.311-15.303c0-8.459,6.852-15.314,15.311-15.314c8.458,0,15.308,6.851,15.308,15.308
			S34.639,40.194,26.181,40.194z"/>
		<path style="opacity:0.4;fill:#FFFFFF;" d="M38.686,18.8c-2.258-4.636-6.996-7.834-12.508-7.844
			c-7.697,0.013-13.914,6.236-13.931,13.933c0.003,2.06,0.462,4.015,1.268,5.773L38.686,18.8z"/>
	</g>
	<rect style="fill:none;" width="64" height="63.997"/>
</g>
</svg>
