<?xml version="1.0" encoding="iso-8859-1"?>
<!-- Generator: Adobe Illustrator 14.0.0, SVG Export Plug-In . SVG Version: 6.00 Build 43363)  -->
<!DOCTYPE svg PUBLIC "-//W3C//DTD SVG 1.1//EN" "http://www.w3.org/Graphics/SVG/1.1/DTD/svg11.dtd">
<svg version="1.1" id="icon-m-camera-whitebalance-cloudy-screen-layer"
	 xmlns="http://www.w3.org/2000/svg" xmlns:xlink="http://www.w3.org/1999/xlink" x="0px" y="0px" width="24px" height="24px"
	 viewBox="0 0 24 24" style="enable-background:new 0 0 24 24;" xml:space="preserve">
<g id="icon-m-camera-whitebalance-cloudy-screen">
	<rect style="fill:none;" width="24" height="24"/>
	<path style="fill:#FFFFFF;" d="M7.505,12.78c0.226-0.489,0.466-0.929,0.715-1.319c-0.818-0.403-1.385-1.244-1.385-2.218
		c0-1.363,1.109-2.472,2.472-2.472c1.124,0,2.072,0.753,2.372,1.781c0.532-0.182,1.034-0.265,1.473-0.291
		c-0.438-1.719-1.991-2.99-3.845-2.99c-2.194,0-3.972,1.778-3.972,3.972C5.335,10.787,6.218,12.123,7.505,12.78z"/>
	<path style="fill:#FFFFFF;" d="M10.219,3.439V1.33c0-0.379-0.332-0.711-0.71-0.711H9.242c-0.392,0-0.71,0.319-0.71,0.71V3.44
		c0,0.189,0.073,0.367,0.208,0.502C8.874,4.076,9.052,4.151,9.241,4.15h0.267c0.189,0,0.368-0.074,0.503-0.208
		C10.145,3.808,10.219,3.629,10.219,3.439z"/>
	<path style="fill:#FFFFFF;" d="M3.471,8.531H1.36c-0.379,0-0.71,0.332-0.71,0.71l0,0.267c0,0.393,0.319,0.711,0.71,0.711h2.111
		c0.19,0,0.368-0.074,0.502-0.209c0.134-0.134,0.208-0.312,0.208-0.502V9.242c0-0.189-0.074-0.368-0.208-0.503
		C3.838,8.605,3.66,8.531,3.471,8.531z"/>
	<path style="fill:#FFFFFF;" d="M5.794,4.569L4.302,3.078c-0.268-0.269-0.737-0.269-1.004,0L3.109,3.267
		c-0.277,0.276-0.277,0.728,0,1.004l1.492,1.493c0.134,0.134,0.312,0.207,0.502,0.207s0.369-0.073,0.502-0.207l0.188-0.188
		c0.134-0.134,0.208-0.313,0.208-0.503C6.002,4.882,5.929,4.703,5.794,4.569z"/>
	<path style="fill:#FFFFFF;" d="M15.625,3.267l-0.188-0.188c-0.268-0.269-0.736-0.269-1.004,0L12.94,4.569
		c-0.277,0.277-0.277,0.728,0,1.006l0.189,0.188c0.133,0.134,0.312,0.207,0.502,0.207c0.19,0,0.369-0.073,0.503-0.207l1.491-1.493
		C15.902,3.994,15.902,3.543,15.625,3.267z"/>
	<path style="fill:#FFFFFF;" d="M13.875,23.625c-1.289,0-2.732-0.355-3.702-1.414c-0.669,0.396-1.527,0.664-2.299,0.664
		c-2.412,0-4.125-2.078-4.125-4.5s1.812-4.34,4.224-4.34c0.248,0,0.788,0.173,1.026,0.215c0.848-2.545,2.299-4.125,4.5-4.125
		c2.2,0,4.026,1.58,4.875,4.125c0.237-0.042,0.75-0.215,0.998-0.215c2.411,0,4.252,1.918,4.252,4.34s-1.714,4.5-4.125,4.5
		c-0.771,0-1.654-0.268-2.32-0.663C16.201,23.282,15.181,23.625,13.875,23.625L13.875,23.625z M10.464,19.919l0.515,0.733
		c0.727,1.032,1.683,1.602,2.694,1.602c1.007,0,1.967-0.57,2.703-1.605l0.517-0.729l0.671,0.592
		c0.512,0.451,1.154,0.701,1.809,0.701c1.523,0,2.764-1.249,2.764-2.784c0-1.536-1.24-2.786-2.764-2.786
		c-0.343,0-0.67,0.065-0.973,0.192l-0.884,0.372l-0.212-0.935c-0.504-2.219-1.997-3.647-3.631-3.647
		c-1.635,0-3.127,1.429-3.629,3.647l-0.212,0.935l-0.883-0.372c-0.304-0.127-0.631-0.192-0.976-0.192
		c-1.525,0-2.766,1.25-2.766,2.786c0,1.535,1.241,2.784,2.766,2.784c0.657,0,1.302-0.25,1.818-0.703L10.464,19.919L10.464,19.919z"
		/>
</g>
</svg>
