<?xml version="1.0" encoding="iso-8859-1"?>
<!-- Generator: Adobe Illustrator 14.0.0, SVG Export Plug-In . SVG Version: 6.00 Build 43363)  -->
<!DOCTYPE svg PUBLIC "-//W3C//DTD SVG 1.1//EN" "http://www.w3.org/Graphics/SVG/1.1/DTD/svg11.dtd">
<svg version="1.1" id="icon-m-transfer-cancel-layer"
	 xmlns="http://www.w3.org/2000/svg" xmlns:xlink="http://www.w3.org/1999/xlink" x="0px" y="0px" width="64px" height="64px"
	 viewBox="0 0 64 64" style="enable-background:new 0 0 64 64;" xml:space="preserve">
<g id="icon-m-transfer-cancel">
	<rect style="fill:none;" width="64" height="64"/>
	<g>
		<path style="fill:#333333;" d="M44.641,19.348c-1.217-1.213-3.18-1.213-4.396,0l-8.24,8.246l-8.24-8.246
			c-1.217-1.213-3.199-1.213-4.411,0c-1.217,1.223-1.217,3.203,0,4.41l8.251,8.248l-8.251,8.234
			c-1.217,1.221-1.206,3.197,0.005,4.404c0.607,0.609,1.412,0.918,2.205,0.918c0.795,0,1.595-0.309,2.201-0.918l8.235-8.24
			l8.245,8.24c0.605,0.609,1.402,0.918,2.199,0.918c0.799,0,1.592-0.309,2.197-0.918c1.217-1.207,1.23-3.191,0.016-4.408
			l-8.246-8.238l8.246-8.236C45.871,22.551,45.857,20.57,44.641,19.348z"/>
		<path style="fill:#333333;" d="M32,1C14.907,1,1,14.906,1,32s13.907,31,31,31c17.094,0,31-13.906,31-31S49.094,1,32,1z M32,57.686
			C17.837,57.686,6.314,46.162,6.314,32C6.314,17.837,17.837,6.314,32,6.314c14.164,0,25.686,11.522,25.686,25.686
			C57.686,46.162,46.164,57.686,32,57.686z"/>
	</g>
</g>
</svg>
