<?xml version="1.0" encoding="iso-8859-1"?>
<!-- Generator: Adobe Illustrator 14.0.0, SVG Export Plug-In . SVG Version: 6.00 Build 43363)  -->
<!DOCTYPE svg PUBLIC "-//W3C//DTD SVG 1.1//EN" "http://www.w3.org/Graphics/SVG/1.1/DTD/svg11.dtd">
<svg version="1.1" id="icon-m-camera-whitebalance-sunny-layer"
	 xmlns="http://www.w3.org/2000/svg" xmlns:xlink="http://www.w3.org/1999/xlink" x="0px" y="0px" width="64px" height="64px"
	 viewBox="0 0 64 64" style="enable-background:new 0 0 64 64;" xml:space="preserve">
<g id="icon-m-camera-whitebalance-sunny">
	<rect style="fill:none;" width="64" height="64"/>
	<g>
		<path style="fill:#333333;" d="M32,22.5c5.238,0,9.5,4.262,9.5,9.5s-4.262,9.5-9.5,9.5s-9.5-4.262-9.5-9.5S26.762,22.5,32,22.5
			 M32,18c-7.729,0-14,6.242-14,14c0,7.756,6.271,14,14,14c7.728,0,14-6.244,14-14C46,24.242,39.728,18,32,18L32,18z"/>
	</g>
	<path style="fill:#333333;" d="M32,1c-2,0-3,1-3,2v9c0,1,1,2,3,2c2,0,3-1,3-2V3C35,2,34,1,32,1z"/>
	<path style="fill:#333333;" d="M14,32.004C14,30,13,29,12,29H3c-1,0-2,1-2,2.997C1,34,2,35,3,35h9C13,35,14,34,14,32.004z"/>
	<path style="fill:#333333;" d="M63,32.004C63,30,62,29,61,29h-9c-1,0-2,1-2,2.997C50,34,51,35,52,35h9C62,35,63,34,63,32.004z"/>
	<path style="fill:#333333;" d="M19.446,15.508l-5.257-5.276c-0.944-0.946-2.598-0.946-3.54,0l-0.666,0.668
		c-0.975,0.979-0.975,2.574,0,3.552l5.258,5.277c0.471,0.475,1.099,0.733,1.769,0.733c0.669,0,1.299-0.259,1.77-0.732l0.665-0.667
		c0.472-0.474,0.731-1.106,0.731-1.776C20.177,16.612,19.918,15.982,19.446,15.508z"/>
	<path style="fill:#333333;" d="M54.082,10.898l-0.664-0.667c-0.944-0.947-2.598-0.947-3.539,0l-5.258,5.275
		c-0.977,0.981-0.977,2.574,0,3.556l0.665,0.667c0.471,0.474,1.099,0.732,1.771,0.732c0.67,0,1.298-0.259,1.768-0.732l5.26-5.279
		C55.059,13.474,55.059,11.878,54.082,10.898z"/>
	<path style="fill:#333333;" d="M32,63c2,0,3-1,3-2v-9c0-1-1-2-3-2s-3,1-3,2v9C29,62,30,63,32,63z"/>
	<path style="fill:#333333;" d="M44.62,48.564l5.258,5.276c0.942,0.947,2.597,0.947,3.54,0l0.664-0.667
		c0.976-0.979,0.976-2.574,0-3.553l-5.258-5.277c-0.471-0.475-1.099-0.733-1.77-0.733c-0.67,0-1.298,0.259-1.769,0.733l-0.666,0.667
		c-0.472,0.473-0.729,1.105-0.729,1.775C43.891,47.461,44.148,48.091,44.62,48.564z"/>
	<path style="fill:#333333;" d="M9.984,53.175l0.665,0.666c0.943,0.947,2.596,0.947,3.54,0l5.257-5.274
		c0.977-0.981,0.977-2.575,0-3.556l-0.664-0.667c-0.471-0.474-1.101-0.732-1.771-0.732c-0.67,0-1.298,0.259-1.768,0.732
		l-5.259,5.279C9.008,50.6,9.008,52.194,9.984,53.175z"/>
</g>
</svg>
