<?xml version="1.0" encoding="iso-8859-1"?>
<!-- Generator: Adobe Illustrator 14.0.0, SVG Export Plug-In . SVG Version: 6.00 Build 43363)  -->
<!DOCTYPE svg PUBLIC "-//W3C//DTD SVG 1.1//EN" "http://www.w3.org/Graphics/SVG/1.1/DTD/svg11.dtd">
<svg version="1.1" id="icon-m-setting-account-layer"
	 xmlns="http://www.w3.org/2000/svg" xmlns:xlink="http://www.w3.org/1999/xlink" x="0px" y="0px" width="64px" height="64px"
	 viewBox="0 0 64 64" style="enable-background:new 0 0 64 64;" xml:space="preserve">
<g id="icon-m-setting-account">
	<rect style="fill:none;" width="64" height="64"/>
	<path style="fill:#333333;" d="M32.008,1c4.425,0,8.016,3.701,8.016,8.267c0,4.573-3.591,8.279-8.016,8.279
		c-4.44,0-8.026-3.706-8.026-8.279C23.982,4.701,27.568,1,32.008,1z M46.032,42H17.968v-7.837c0-8.109,7.391-12.414,14.041-12.414
		c6.634,0,14.024,4.305,14.024,12.414V42z"/>
	<path style="fill:#333333;" d="M40.814,45c-2.99,0-6.566,3.526-6.566,3.526c-0.354,0.35-1.049,0.667-1.546,0.667H15.327
		c-0.497,0-0.904,0.415-0.907,0.905l-0.019,4.836h0.935l2.765,2.693c0,0,1.551-2.139,2.219-2.672
		c0.843,0.682,2.987,3.311,2.987,3.311s2.101-2.275,2.945-2.829c0.679,0.628,2.323,3.049,2.323,3.049s2.501-2.53,2.918-2.804
		c0.27-0.016,2.103,2.59,2.188,2.689c0,0,3.786,3.628,7.134,3.628c4.847,0,8.785-3.368,8.785-8.222C49.6,48.938,45.661,45,40.814,45
		z M43.115,57.663c-2.245,0-4.065-1.816-4.065-4.064c0-2.237,1.82-4.061,4.065-4.061c2.244,0,4.061,1.823,4.061,4.061
		C47.176,55.847,45.359,57.663,43.115,57.663z"/>
</g>
</svg>
