<?xml version="1.0" encoding="iso-8859-1"?>
<!-- Generator: Adobe Illustrator 14.0.0, SVG Export Plug-In . SVG Version: 6.00 Build 43363)  -->
<!DOCTYPE svg PUBLIC "-//W3C//DTD SVG 1.1//EN" "http://www.w3.org/Graphics/SVG/1.1/DTD/svg11.dtd">
<svg version="1.1" id="icon-m-toolbar-mediacontrol-backwards-layer"
	 xmlns="http://www.w3.org/2000/svg" xmlns:xlink="http://www.w3.org/1999/xlink" x="0px" y="0px" width="64px" height="64px"
	 viewBox="0 0 64 64" style="enable-background:new 0 0 64 64;" xml:space="preserve">
<g id="icon-m-toolbar-mediacontrol-backwards">
	<rect style="fill:none;" width="64" height="64"/>
	<g>
		<path style="fill:#FFFFFF;" d="M61.273,16.5c0-1.1-0.781-1.554-1.737-1.009L35.119,29.431c-0.956,0.545-1.737,0.091-1.737-1.009
			V16.5c0-1.1-0.782-1.554-1.737-1.009L4.463,31.009c-0.955,0.545-0.955,1.438,0,1.982l27.182,15.518
			c0.955,0.545,1.737,0.091,1.737-1.009V35.58c0-1.1,0.781-1.554,1.737-1.009l24.417,13.938c0.956,0.545,1.737,0.091,1.737-1.009
			V16.5z"/>
	</g>
</g>
</svg>
