<?xml version="1.0" encoding="iso-8859-1"?>
<!-- Generator: Adobe Illustrator 14.0.0, SVG Export Plug-In . SVG Version: 6.00 Build 43363)  -->
<!DOCTYPE svg PUBLIC "-//W3C//DTD SVG 1.1//EN" "http://www.w3.org/Graphics/SVG/1.1/DTD/svg11.dtd">
<svg version="1.1" id="icon-m-toolbar-tag-layer" xmlns="http://www.w3.org/2000/svg" xmlns:xlink="http://www.w3.org/1999/xlink"
	 x="0px" y="0px" width="64px" height="64px" viewBox="0 0 64 64" style="enable-background:new 0 0 64 64;" xml:space="preserve">
<g id="icon-m-toolbar-tag">
	<rect style="fill:none;" width="64" height="64"/>
	<path style="fill:#FFFFFF;" d="M44.659,25.344l0.056-0.142l-0.013-0.005c0.11-0.379,0.109-0.792-0.048-1.175L40.13,13.008
		c-0.355-0.865-1.339-1.249-2.188-0.852l-10.783,5.05c-0.374,0.176-0.655,0.478-0.83,0.832l-0.012-0.005L15.876,44.832l18.397,7.166
		l10.385-26.65L44.659,25.344z M39.27,21.46c-0.728,1.802-2.758,2.72-4.537,2.051c-1.78-0.669-2.632-2.672-1.904-4.473
		c0.728-1.803,2.759-2.722,4.538-2.052C39.146,17.655,39.998,19.658,39.27,21.46z"/>
</g>
</svg>
