<?xml version="1.0" encoding="iso-8859-1"?>
<!-- Generator: Adobe Illustrator 14.0.0, SVG Export Plug-In . SVG Version: 6.00 Build 43363)  -->
<!DOCTYPE svg PUBLIC "-//W3C//DTD SVG 1.1//EN" "http://www.w3.org/Graphics/SVG/1.1/DTD/svg11.dtd">
<svg version="1.1" id="icon-m-camera-video-low-layer"
	 xmlns="http://www.w3.org/2000/svg" xmlns:xlink="http://www.w3.org/1999/xlink" x="0px" y="0px" width="64px" height="64px"
	 viewBox="0 0 64 64" style="enable-background:new 0 0 64 64;" xml:space="preserve">
<g id="icon-m-camera-video-low">
	<rect style="fill:none;" width="64" height="64"/>
	<polygon style="fill:#FFFFFF;" points="62,61.998 62,25.33 49.771,25.33 49.771,37.557 37.541,37.557 37.541,49.789 37.541,49.787 
		25.314,49.787 25.314,62 	"/>
	<path style="fill:#FFFFFF;" d="M44.146,19.705h5.213v-5.283h2.329v-2.329H49.19c-0.511,0-0.928-1.246-0.928-1.757V6.628
		c0-0.511,0.417-0.927,0.928-0.927h2.497V2H2v3.657v0.044h2.52c0.509,0,0.927,0.416,0.927,0.927v3.667
		c0,0.508-0.418,1.754-0.927,1.754H2v0.044v2.3v0.029h10.869v18.633H2v0.03v3.075v0.044h2.52c0.509,0,0.927,0.419,0.927,0.927v3.668
		c0,0.508-0.418,0.925-0.927,0.925H2v0.045V44.7h17.689v-0.538h12.228V33.068l-14.375,0.017v-0.03h-0.014V14.422h0.014v-0.029
		h26.382 M24.109,37.09c0-0.512,0.419-0.93,0.929-0.93h3.709c0.51,0,0.926,0.418,0.926,0.93v3.709c0,0.508-0.416,0.925-0.926,0.925
		h-3.709c-0.509,0-0.929-0.417-0.929-0.925V37.09z M36.205,6.628c0-0.511,0.418-0.927,0.929-0.927h3.71
		c0.508,0,0.926,0.416,0.926,0.927v3.708c0,0.511-0.418,1.757-0.926,1.757h-3.71c-0.511,0-0.929-1.246-0.929-1.757V6.628z
		 M24.109,6.628c0-0.511,0.419-0.927,0.929-0.927h3.709c0.51,0,0.926,0.416,0.926,0.927v3.708c0,0.511-0.416,1.757-0.926,1.757
		h-3.709c-0.509,0-0.929-1.246-0.929-1.757V6.628z M11.978,10.295V6.628c0-0.511,0.416-0.927,0.926-0.927h3.709
		c0.511,0,0.928,0.416,0.928,0.927v3.667c0,0.508-0.417,1.754-0.928,1.754h-3.709C12.394,12.049,11.978,10.803,11.978,10.295z
		 M17.542,40.799c0,0.508-0.417,0.925-0.928,0.925h-3.709c-0.51,0-0.926-0.417-0.926-0.925v-3.668c0-0.508,0.416-0.927,0.926-0.927
		h3.709c0.511,0,0.928,0.419,0.928,0.927V40.799z"/>
	<path style="fill:none;" d="M52.639,10.766c0.121,0.039,0.24,0.082,0.361,0.123v-0.123H52.639z"/>
</g>
</svg>
