<?xml version="1.0" encoding="iso-8859-1"?>
<!-- Generator: Adobe Illustrator 14.0.0, SVG Export Plug-In . SVG Version: 6.00 Build 43363)  -->
<!DOCTYPE svg PUBLIC "-//W3C//DTD SVG 1.1//EN" "http://www.w3.org/Graphics/SVG/1.1/DTD/svg11.dtd">
<svg version="1.1" id="icon-l-music-layer" xmlns="http://www.w3.org/2000/svg" xmlns:xlink="http://www.w3.org/1999/xlink" x="0px"
	 y="0px" width="80px" height="80px" viewBox="0 0 80 80" style="enable-background:new 0 0 80 80;" xml:space="preserve">
<g id="icon-l-music">
	<path style="opacity:0.5;fill:#333333;" d="M56.487,33.154c-1.764,0-3.46,0.283-5.052,0.794V22.162c0,0-11.39-9.725-29.333-10.439
		v33.732c-1.875-0.762-4.09-1.047-6.399-0.646c-5.511,0.97-9.329,5.333-8.565,9.736c0.774,4.4,5.87,7.202,11.383,6.222
		c5.129-0.905,9.421-4.826,9.421-8.841V23.729c1.095,0.241,10.737,1.804,17.544,7.031v6.629c-3.357,3.018-5.482,7.381-5.482,12.25
		c0,1.199,0.137,2.367,0.379,3.492c-0.43,0.031-0.859,0.063-1.295,0.139c-5.512,0.967-9.326,5.327-8.57,9.738
		c0.781,4.389,5.873,7.193,11.386,6.215c3.227-0.564,6.164-2.299,7.9-4.526c2.043,0.914,4.3,1.427,6.683,1.427
		c9.113,0,16.481-7.379,16.481-16.484C72.969,40.539,65.601,33.154,56.487,33.154z"/>
	<path style="opacity:0.2;fill:#333333;" d="M56.487,31.334c-1.104,0-2.188,0.102-3.235,0.293v-9.465
		c0-0.529-0.232-1.039-0.638-1.384c-0.167-0.127-11.856-10.11-30.44-10.878c-0.495-0.018-0.977,0.17-1.334,0.508
		c-0.353,0.34-0.559,0.816-0.559,1.311v31.32c-0.804-0.15-1.638-0.232-2.492-0.232c-0.781,0-1.589,0.063-2.412,0.211
		C9.681,44.026,5.281,48.256,5.224,53.416c-0.005,0.477,0.039,0.96,0.124,1.455c0.913,4.921,5.728,7.916,10.967,7.906
		c0.827-0.007,1.668-0.076,2.518-0.225c5.773-1.066,10.785-5.275,10.926-10.621V25.952c3.239,0.733,9.236,2.404,13.909,5.725v4.922
		c-3.371,3.312-5.486,7.93-5.482,13.04c0,0.652,0.037,1.299,0.106,1.93c-5.479,1.166-9.633,5.307-9.687,10.316
		c0,0.465,0.039,0.945,0.124,1.436c0.918,4.911,5.718,7.915,10.947,7.915h0.03c0.824,0,1.662-0.075,2.507-0.223
		c3.162-0.564,6.037-2.062,8.098-4.149c1.93,0.693,4.008,1.075,6.177,1.075c10.115,0,18.3-8.194,18.3-18.3
		C74.787,39.531,66.603,31.334,56.487,31.334z"/>
	<rect style="fill:none;" width="80" height="80"/>
	<linearGradient id="SVGID_1_" gradientUnits="userSpaceOnUse" x1="29.2378" y1="31.3584" x2="29.2378" y2="77.9997">
		<stop  offset="0" style="stop-color:#EC3182"/>
		<stop  offset="0.1829" style="stop-color:#E52F7F"/>
		<stop  offset="0.3849" style="stop-color:#D62C78"/>
		<stop  offset="0.5959" style="stop-color:#C0276E"/>
		<stop  offset="0.8118" style="stop-color:#A42161"/>
		<stop  offset="1" style="stop-color:#881C55"/>
	</linearGradient>
	<path style="fill:url(#SVGID_1_);" d="M22.103,43.633c-1.875-0.754-4.09-1.047-6.399-0.646c-5.511,0.973-9.329,5.334-8.565,9.745
		c0.774,4.393,5.87,7.196,11.383,6.214c5.129-0.898,9.421-4.818,9.421-8.834v-28.2c1.095,0.237,10.737,1.8,17.544,7.031v23.146
		c-1.873-0.754-4.091-1.043-6.398-0.64c-5.512,0.974-9.326,5.335-8.57,9.738c0.781,4.395,5.873,7.199,11.386,6.221
		c5.127-0.907,9.531-4.737,9.531-8.839V20.346c0,0-11.39-9.723-29.333-10.438V43.633z"/>
	<path style="opacity:0.3;fill:#FFFFFF;" d="M51.436,20.346c0,0-11.39-9.723-29.333-10.438v33.726
		c-1.875-0.754-4.09-1.047-6.399-0.646c-5.511,0.973-9.329,5.334-8.565,9.745c0.35,1.989,1.587,3.653,3.349,4.783l1.357-1.223
		c-1.641-0.913-2.738-2.311-2.983-3.867c-0.053-0.271-0.075-0.544-0.075-0.823c-0.053-2.891,2.82-6.124,7.223-6.888
		c0.604-0.11,2.734-0.483,5.433,0.535l2.408,0.972V11.754c7.846,0.596,14.297,2.937,18.871,5.206
		c2.457,1.217,4.371,2.416,5.662,3.301c0.559,0.373,2.738,1.944,3.053,2.19V20.346z M45.486,52.088
		c-1.873-0.754-4.091-1.043-6.398-0.64c-5.512,0.974-9.326,5.335-8.57,9.738c0.367,2.065,1.695,3.774,3.562,4.907l1.385-1.24
		c-1.765-0.908-2.965-2.348-3.228-3.977c-0.045-0.261-0.067-0.531-0.067-0.807c-0.053-2.904,2.818-6.131,7.223-6.902
		c0.605-0.109,2.629-0.422,5.441,0.543l2.4,1.13V30.305l-1.748-1.362V52.088z"/>
	<path style="opacity:0.3;" d="M45.486,52.088c-1.873-0.754-4.091-1.043-6.398-0.64c-0.036,0.007-0.072,0.021-0.111,0.028
		c0.619,5.748,4.002,10.65,8.789,13.385c2.209-1.667,3.669-3.933,3.669-6.293L45.486,52.088z"/>
	<linearGradient id="SVGID_2_" gradientUnits="userSpaceOnUse" x1="56.4863" y1="29.9429" x2="56.4863" y2="76.7757">
		<stop  offset="0" style="stop-color:#FFFFFF"/>
		<stop  offset="1" style="stop-color:#B3B2C9"/>
	</linearGradient>
	<path style="fill:url(#SVGID_2_);" d="M72.969,47.818c0,9.105-7.368,16.484-16.481,16.484c-9.101,0-16.483-7.379-16.483-16.484
		c0-9.102,7.382-16.484,16.483-16.484C65.601,31.334,72.969,38.717,72.969,47.818z"/>
	<path style="opacity:0.2;" d="M67.932,47.822c0-0.568-0.3-1.098-0.805-1.377l-14.686-8.265c-0.236-0.134-0.506-0.206-0.771-0.206
		c-0.276,0-0.551,0.078-0.799,0.226c-0.48,0.282-0.787,0.794-0.787,1.364v16.523c0.009,0.559,0.34,1.063,0.799,1.343l0.992-1.71
		l0.018-0.014V39.934l14.012,7.885l0.153-0.084l1.782,0.46l-0.002,0.003C67.849,48.127,67.93,48.015,67.932,47.822z"/>
	<path style="fill:#FFFFFF;" d="M66.058,47.734l-14.183,7.986l-0.996,1.717l0.041,0.023c0.23,0.129,0.5,0.198,0.766,0.198
		c0.258,0,0.523-0.069,0.756-0.198l14.686-8.257c0.396-0.226,0.609-0.612,0.711-1.001l0.002-0.009L66.058,47.734z"/>
	<linearGradient id="SVGID_3_" gradientUnits="userSpaceOnUse" x1="59.0156" y1="47.0459" x2="59.0156" y2="95.6808">
		<stop  offset="0" style="stop-color:#7EC242"/>
		<stop  offset="1" style="stop-color:#1D6433"/>
	</linearGradient>
	<polygon style="fill:url(#SVGID_3_);" points="51.674,39.564 51.674,56.088 66.357,47.822 	"/>
</g>
</svg>
