<?xml version="1.0" encoding="iso-8859-1"?>
<!-- Generator: Adobe Illustrator 14.0.0, SVG Export Plug-In . SVG Version: 6.00 Build 43363)  -->
<!DOCTYPE svg PUBLIC "-//W3C//DTD SVG 1.1//EN" "http://www.w3.org/Graphics/SVG/1.1/DTD/svg11.dtd">
<svg version="1.1" id="icon-m-image-edit-text-add-layer"
	 xmlns="http://www.w3.org/2000/svg" xmlns:xlink="http://www.w3.org/1999/xlink" x="0px" y="0px" width="64px" height="64px"
	 viewBox="0 0 64 64" style="enable-background:new 0 0 64 64;" xml:space="preserve">
<g id="icon-m-image-edit-text-add">
	<rect style="fill:none;" width="64" height="64"/>
	<path style="fill:#333333;" d="M63.648,37.406l-7.732-7.75c-0.424-0.426-1.121-0.426-1.548,0l-18.449,18.48
		c-0.425,0.424-0.929,1.24-1.118,1.812l-3.953,11.859c-0.189,0.572,0.121,0.883,0.693,0.693l11.844-3.953
		c0.572-0.189,1.385-0.695,1.811-1.121l18.451-18.471C64.074,38.531,64.072,37.832,63.648,37.406z M42.992,55.883l-4.729,1.576
		l-2.379-2.379l1.578-4.734l3.506-3.512l5.504,5.562L42.992,55.883z"/>
	<path style="fill:#333333;" d="M10.948,9.803c-2.771,0-5.808,0.484-8.624,1.188v4.225c2.156-0.66,4.533-1.188,6.645-1.188
		c3.037,0,4.751,1.012,4.751,4.137V20.1c-7.61,0.133-13.685,1.012-13.685,8.23c0,4.84,2.992,7.436,7.833,7.436
		c3.39,0,5.677-1.143,7.701-3.916l0.967,3.609h4.271V18.252C20.807,11.959,16.494,9.803,10.948,9.803z M13.72,27.053
		c0,2.816-1.142,4.709-3.783,4.709c-2.068,0-2.904-1.453-2.904-3.564c0-3.301,2.112-4.576,5.062-4.576h1.626V27.053z"/>
	<path style="fill:#333333;" d="M48.307,22.301c0-6.338-1.717-12.498-8.713-12.498c-2.465,0-4.445,0.615-6.293,2.377V1.441h-7.086
		v33.664c3.213,0.441,5.985,0.572,9.682,0.572C44.082,35.678,48.307,30.705,48.307,22.301z M33.301,22.301
		c0-4.137,0.176-8.273,3.961-8.273c3.387,0,3.738,4.84,3.738,8.229c0,5.018-0.747,9.551-5.104,9.551
		c-0.836,0-1.894-0.133-2.596-0.221V22.301z"/>
</g>
</svg>
