<?xml version="1.0" encoding="iso-8859-1"?>
<!-- Generator: Adobe Illustrator 14.0.0, SVG Export Plug-In . SVG Version: 6.00 Build 43363)  -->
<!DOCTYPE svg PUBLIC "-//W3C//DTD SVG 1.1//EN" "http://www.w3.org/Graphics/SVG/1.1/DTD/svg11.dtd">
<svg version="1.1" id="icon-m-energy-management-battery38-layer"
	 xmlns="http://www.w3.org/2000/svg" xmlns:xlink="http://www.w3.org/1999/xlink" x="0px" y="0px" width="64px" height="64px"
	 viewBox="0 0 64 64" style="enable-background:new 0 0 64 64;" xml:space="preserve">
<g id="icon-m-energy-management-battery38">
	<rect style="fill:none;" width="64" height="64"/>
	<path style="fill:#333333;" d="M25.452,3.379v2.816H15.379c-1.033,0-1.878,0.848-1.878,1.879v52.548
		c0,1.033,0.845,1.878,1.878,1.878h33.242c1.032,0,1.879-0.845,1.879-1.878V8.074c0-1.031-0.847-1.879-1.879-1.879H38.547V3.379
		c0-1.034-0.846-1.881-1.879-1.881h-9.335C26.299,1.498,25.452,2.345,25.452,3.379z M44.219,11.891c1.033,0,1.879,0.846,1.879,1.88
		v43.168c0,1.034-0.846,1.879-1.879,1.879H19.786c-1.033,0-1.879-0.845-1.879-1.879V13.771c0-1.034,0.846-1.88,1.879-1.88H44.219z"
		/>
	<rect x="21.243" y="39.312" style="fill:#333333;" width="21.516" height="16.126"/>
</g>
</svg>
