<?xml version="1.0" encoding="iso-8859-1"?>
<!-- Generator: Adobe Illustrator 14.0.0, SVG Export Plug-In . SVG Version: 6.00 Build 43363)  -->
<!DOCTYPE svg PUBLIC "-//W3C//DTD SVG 1.1//EN" "http://www.w3.org/Graphics/SVG/1.1/DTD/svg11.dtd">
<svg version="1.1" id="icon-m-energy-management-battery25-layer"
	 xmlns="http://www.w3.org/2000/svg" xmlns:xlink="http://www.w3.org/1999/xlink" x="0px" y="0px" width="64px" height="64px"
	 viewBox="0 0 64 64" style="enable-background:new 0 0 64 64;" xml:space="preserve">
<g id="icon-m-energy-management-battery25">
	<rect style="fill:none;" width="64" height="64"/>
	<path style="fill:#333333;" d="M60.621,25.453h-2.818V15.381c0-1.033-0.846-1.881-1.879-1.881H3.377
		c-1.033,0-1.878,0.848-1.878,1.881v33.24c0,1.033,0.845,1.879,1.878,1.879h52.546c1.033,0,1.879-0.846,1.879-1.879V38.547h2.818
		c1.033,0,1.881-0.846,1.881-1.878v-9.337C62.502,26.301,61.654,25.453,60.621,25.453z M52.107,44.22
		c0,1.033-0.845,1.878-1.878,1.878H7.062c-1.035,0-1.88-0.845-1.88-1.878V19.785c0-1.033,0.846-1.877,1.88-1.877h43.168
		c1.033,0,1.878,0.844,1.878,1.877V44.22z"/>
	<rect x="8.547" y="21.244" style="fill:#333333;" width="12.094" height="21.515"/>
</g>
</svg>
