<?xml version="1.0" encoding="iso-8859-1"?>
<!-- Generator: Adobe Illustrator 14.0.0, SVG Export Plug-In . SVG Version: 6.00 Build 43363)  -->
<!DOCTYPE svg PUBLIC "-//W3C//DTD SVG 1.1//EN" "http://www.w3.org/Graphics/SVG/1.1/DTD/svg11.dtd">
<svg version="1.1" id="icon-m-camera-sound-recording-off-screen-layer"
	 xmlns="http://www.w3.org/2000/svg" xmlns:xlink="http://www.w3.org/1999/xlink" x="0px" y="0px" width="24px" height="24px"
	 viewBox="0 0 24 24" style="enable-background:new 0 0 24 24;" xml:space="preserve">
<g id="icon-m-camera-sound-recording-off-screen">
	<rect style="fill:none;" width="24" height="24"/>
	<path style="fill:#FFFFFF;" d="M8.256,8.479l5.91,5.91l5.812-5.812c0.363-0.361,0.363-0.951,0-1.313l-4.594-4.599
		c-0.362-0.359-0.952-0.359-1.315,0.001L8.256,8.479z M11.315,7.055L12.44,5.93l4.275,4.275l-1.125,1.123L11.315,7.055z
		 M11.377,13.988l-2.72-2.719L2.966,17.58l2.099,2.099L11.377,13.988z M3.452,20.467l-1.277-1.278L0.52,20.85l1.276,1.275
		L3.452,20.467z"/>
	<path style="fill:#FFFFFF;" d="M19.352,14.173c-2.196,0-3.977,1.78-3.977,3.976c0,2.196,1.78,3.977,3.977,3.977
		c2.195,0,3.976-1.78,3.976-3.977C23.327,15.953,21.547,14.173,19.352,14.173z M19.352,20.773c-1.451,0-2.625-1.175-2.625-2.625
		c0-1.449,1.174-2.625,2.625-2.625c1.449,0,2.625,1.176,2.625,2.625C21.977,19.599,20.801,20.773,19.352,20.773z"/>
</g>
</svg>
