<?xml version="1.0" encoding="iso-8859-1"?>
<!-- Generator: Adobe Illustrator 14.0.0, SVG Export Plug-In . SVG Version: 6.00 Build 43363)  -->
<!DOCTYPE svg PUBLIC "-//W3C//DTD SVG 1.1//EN" "http://www.w3.org/Graphics/SVG/1.1/DTD/svg11.dtd">
<svg version="1.1" id="icon-m-camera-video-record-layer"
	 xmlns="http://www.w3.org/2000/svg" xmlns:xlink="http://www.w3.org/1999/xlink" x="0px" y="0px" width="64px" height="64px"
	 viewBox="0 0 64 64" style="enable-background:new 0 0 64 64;" xml:space="preserve">
<g id="icon-m-camera-video-record">
	<rect style="fill:none;" width="64" height="64"/>
	<path style="fill:#ED1D37;" d="M16,25v6c2,0,4-1.996,4-3C20,26,18,25,16,25z"/>
	<path style="fill:#ED1D37;" d="M31.817,1.136C14.726,1.136,1,15.042,1,32.136S14.726,63,31.817,63C48.912,63,63,49.229,63,32.136
		S48.912,1.136,31.817,1.136z M21,43l-4-9l0,0h-1v9h-4V21.9l6,0.1c2.155,0,3.821,0.2,4.905,1.212
		c1.104,1.033,1.659,2.584,1.659,4.605c0,1.471-0.358,2.75-1.067,3.802c-0.524,0.782-1.225,1.397-2.096,1.843L26,43H21z M39,43H28
		V21.9L39,22v4h-7v3.9l6,0.1v4h-6v4.9l7,0.1V43z M52,26c0,0-2-1-3.707-0.685c-1.07,0.198-1.855,0.438-2.4,1.385
		C45.259,27.792,45,29.689,45,32c0,2.525,0.275,4.237,0.932,5.434c0.572,1.036,1.365,1.521,2.49,1.521
		c0.721,0,1.479-0.119,2.25-0.352L52,38v4l-0.791,0.345c-1.063,0.294-2.141,0.441-3.203,0.441c-2.615,0-4.626-0.93-5.979-2.758
		C40.73,38.261,40,35.687,40,32c0-3.297,0.761-5.942,2.053-7.711c1.363-1.862,3.378-2.806,5.996-2.806C49.207,21.483,52,22,52,22V26
		z"/>
</g>
</svg>
