<?xml version="1.0" encoding="iso-8859-1"?>
<!-- Generator: Adobe Illustrator 14.0.0, SVG Export Plug-In . SVG Version: 6.00 Build 43363)  -->
<!DOCTYPE svg PUBLIC "-//W3C//DTD SVG 1.1//EN" "http://www.w3.org/Graphics/SVG/1.1/DTD/svg11.dtd">
<svg version="1.1" id="icon-m-camera-resolution-83m-layer"
	 xmlns="http://www.w3.org/2000/svg" xmlns:xlink="http://www.w3.org/1999/xlink" x="0px" y="0px" width="64px" height="64px"
	 viewBox="0 0 64 64" style="enable-background:new 0 0 64 64;" xml:space="preserve">
<g id="icon-m-camera-resolution-83m">
	<rect style="fill:none;" width="64" height="64"/>
	<path style="fill:#333333;" d="M13.889,45.404c3.449,0,5.999,1.55,5.999,4.699c0,1.949-0.85,3.449-2.8,4.199
		c2.15,0.624,3.125,2.449,3.125,4.549c0,3.373-2.5,5.123-6.398,5.123c-3.824,0-6.298-1.774-6.298-5.123
		c0-2.075,0.95-3.975,3.099-4.549c-1.95-0.75-2.775-2.25-2.775-4.199C7.839,46.954,10.414,45.404,13.889,45.404z M13.838,55.477
		c-1.625,0-2.274,1.3-2.274,3.024s0.575,3.199,2.274,3.199c1.749,0,2.325-1.399,2.325-3.199
		C16.163,56.802,15.388,55.477,13.838,55.477z M13.838,47.679c-1.524,0-2.024,1.249-2.024,2.8c0,1.524,0.575,2.799,2.024,2.799
		c1.474,0,2.075-1.25,2.075-2.799C15.913,48.828,15.388,47.679,13.838,47.679z"/>
	<path style="fill:#333333;" d="M23.239,64c-1.225,0-2.199-0.975-2.199-2.199s0.975-2.225,2.199-2.225s2.225,1,2.225,2.225
		S24.463,64,23.239,64z"/>
	<path style="fill:#333333;" d="M30.938,47.804c-1.15,0-2.35,0.3-3.549,0.625v-2.425c1.3-0.324,2.824-0.6,4.374-0.6
		c3.424,0,5.899,1.15,5.899,4.523c0,2.125-1.176,3.574-3.3,4.225c2.35,0.425,3.624,2.024,3.624,4.249
		c0,3.999-2.523,5.599-6.948,5.599c-1.475,0-2.774-0.2-4.199-0.575V61c1.499,0.351,2.674,0.601,3.799,0.601
		c2.299,0,3.2-1.101,3.2-3.124c0-2.675-1.55-3.15-5.399-3.15v-2.299c3.699,0,5.174-0.4,5.174-2.824
		C33.613,48.578,32.712,47.804,30.938,47.804z"/>
	<path style="fill:#333333;" d="M56.484,63.8h-4.023V51.728l-3.174,6.149h-1.5l-3.125-6.149V63.8h-4.123V45.604h3.599l4.399,8.598
		l4.398-8.598h3.549V63.8z"/>
	<path style="fill:#333333;" d="M51.545,39.091V0c-21.589,0-39.09,17.501-39.09,39.091H51.545z"/>
</g>
</svg>
