<?xml version="1.0" encoding="iso-8859-1"?>
<!-- Generator: Adobe Illustrator 14.0.0, SVG Export Plug-In . SVG Version: 6.00 Build 43363)  -->
<!DOCTYPE svg PUBLIC "-//W3C//DTD SVG 1.1//EN" "http://www.w3.org/Graphics/SVG/1.1/DTD/svg11.dtd">
<svg version="1.1" id="icon-m-organizer-checkbox-checked-layer"
	 xmlns="http://www.w3.org/2000/svg" xmlns:xlink="http://www.w3.org/1999/xlink" x="0px" y="0px" width="64px" height="64px"
	 viewBox="0 0 64 64" style="enable-background:new 0 0 64 64;" xml:space="preserve">
<g id="icon-m-organizer-checkbox-checked">
	<rect style="fill:none;" width="64" height="64"/>
	<path style="fill:#333333;" d="M63.951,14.766c-0.102-0.299-0.396-0.5-0.722-0.494c-18.709,0.359-32.536,18.611-35.354,22.57
		l-9.202-9.227c-0.28-0.281-0.75-0.297-1.046-0.023l-5.558,5.002c-0.146,0.135-0.228,0.316-0.233,0.51
		c-0.004,0.197,0.072,0.377,0.212,0.518l16.668,16.338c0.139,0.141,0.334,0.215,0.531,0.215c0.021,0,0.043-0.002,0.062-0.006
		c0.22-0.016,0.424-0.129,0.549-0.301c8.061-11.143,16.525-19.721,22.966-25.512c6.446-5.791,10.839-8.768,10.845-8.781
		C63.938,15.396,64.052,15.064,63.951,14.766z"/>
	<path style="fill:#333333;" d="M49.155,34.84v18.602c0,1.098-0.902,1.994-2.005,1.994H8.037c-1.105,0-2.008-0.896-2.008-1.994
		V10.557c0-1.098,0.902-1.996,2.008-1.996H47.15c1.103,0,2.005,0.898,2.005,1.996v0.35c1.909-0.979,3.918-1.816,6.016-2.467V4.572
		c0-1.096-0.901-1.992-2.005-1.992H2.017c-1.103,0-2.005,0.896-2.005,1.992v54.852c0,1.096,0.902,1.994,2.005,1.994h51.149
		c1.104,0,2.005-0.674,2.005-1.494V29.32c-0.594,0.518-1.204,1.055-1.843,1.627C52.016,32.129,50.614,33.43,49.155,34.84z"/>
</g>
</svg>
