<?xml version="1.0" encoding="iso-8859-1"?>
<!-- Generator: Adobe Illustrator 14.0.0, SVG Export Plug-In . SVG Version: 6.00 Build 43363)  -->
<!DOCTYPE svg PUBLIC "-//W3C//DTD SVG 1.1//EN" "http://www.w3.org/Graphics/SVG/1.1/DTD/svg11.dtd">
<svg version="1.1" id="icon-m-content-genre-layer" xmlns="http://www.w3.org/2000/svg" xmlns:xlink="http://www.w3.org/1999/xlink"
	 x="0px" y="0px" width="64px" height="64px" viewBox="0 0 64 64" style="enable-background:new 0 0 64 64;" xml:space="preserve">
<g id="icon-m-content-genre">
	<path style="fill:#333333;" d="M0,0v64h64V0H0z M39.076,46.027c0,0-1.047,10.836-7.955,10.463c0,0-6.723,0.623-5.628-9.854
		C26.587,36.162,26.9,15.053,26.9,15.053s-0.05-3.741-1.877-3.596c0,0-2.295-0.463-2.501,4.848c0,0,0,3.129-6.568,2.346
		c0,0-0.238-0.008-0.625-0.111c-0.308,0.525-0.773,0.869-1.304,0.869h-3.865c-0.927,0-1.675-1.027-1.675-2.298
		c0-1.268,0.749-2.3,1.675-2.3h3.865c0.545,0,1.023,0.363,1.33,0.914c2.216-0.198,4.349-0.954,4.196-3.174
		c0,0,0.469-5.629,6.723-5.002c0,0,5.527,0.062,5.16,9.539c0,0-0.046,30.164-0.043,30.171c0.03,0.65,0.384,1.165,0.821,1.165
		c0.456,0,0.923-0.24,0.97-1.149l0.279-2.456c0,0,0.927-12.17,7.197-18.193l7.35,14.855C48.008,41.48,40.369,39.367,39.076,46.027z
		 M54.384,41.553c-0.281,0.138-0.579,0.207-0.89,0.207c-0.814,0-1.586-0.492-1.967-1.256l-8.204-16.543
		c-0.54-1.094-0.138-2.398,0.895-2.91c1.009-0.5,2.333-0.004,2.853,1.051l8.205,16.541C55.816,39.73,55.416,41.037,54.384,41.553z"
		/>
</g>
</svg>
