<?xml version="1.0" encoding="iso-8859-1"?>
<!-- Generator: Adobe Illustrator 14.0.0, SVG Export Plug-In . SVG Version: 6.00 Build 43363)  -->
<!DOCTYPE svg PUBLIC "-//W3C//DTD SVG 1.1//EN" "http://www.w3.org/Graphics/SVG/1.1/DTD/svg11.dtd">
<svg version="1.1" id="icon-s-email-attachment-layer"
	 xmlns="http://www.w3.org/2000/svg" xmlns:xlink="http://www.w3.org/1999/xlink" x="0px" y="0px" width="18px" height="18px"
	 viewBox="0 0 18 18" style="enable-background:new 0 0 18 18;" xml:space="preserve">
<g id="icon-s-email-attachment">
	<rect style="fill:none;" width="18" height="18"/>
	<path style="fill:#333333;" d="M14.289,4.322c-0.021-0.316-0.29-0.568-0.621-0.566s-0.598,0.254-0.619,0.57v8.547
		c-0.004,2.14-1.807,3.89-4.043,3.89c-2.234,0-4.037-1.75-4.041-3.89l0.004-9.742c0.182-1.082,1.148-1.914,2.312-1.92
		C8.447,1.207,9.654,1.916,9.831,3c0,0-0.004,5.551-0.004,7.934H8.6L8.594,4.322c-0.02-0.316-0.289-0.568-0.621-0.566
		c-0.33,0.002-0.598,0.254-0.618,0.57L7.35,12.184h3.713l0.004-9.188C10.883,1.24,9.139-0.008,7.281,0S3.889,1.388,3.707,3.145
		L3.705,13c0.072,2.777,2.43,4.994,5.301,5c2.918-0.006,5.285-2.271,5.287-5.111L14.289,4.322z"/>
</g>
</svg>
