<?xml version="1.0" encoding="iso-8859-1"?>
<!-- Generator: Adobe Illustrator 13.0.2, SVG Export Plug-In . SVG Version: 6.00 Build 14948)  -->
<!DOCTYPE svg PUBLIC "-//W3C//DTD SVG 1.1//EN" "http://www.w3.org/Graphics/SVG/1.1/DTD/svg11.dtd">
<svg version="1.1" xmlns="http://www.w3.org/2000/svg" xmlns:xlink="http://www.w3.org/1999/xlink" x="0px" y="0px" width="64px"
	 height="64px" viewBox="0 0 64 64" style="enable-background:new 0 0 64 64;" xml:space="preserve">
	<g id="icon-m-toolbar-new-message">
		<rect style="fill:none;" width="64" height="64"/>
		<path style="fill:#FFFFFF;" d="M46,0c-9.941,0-18,8.059-18,18c0,9.94,8.059,18,18,18s18-8.06,18-18C64,8.059,55.941,0,46,0z
			 M57.5,22.125l-2.685,4.336l-6.267-3.883v7.371h-5.098v-7.371l-6.268,3.883L34.5,22.125l6.66-4.122l-6.66-4.13l2.684-4.336
			l6.268,3.885V6.049h5.098v7.373l6.267-3.881l2.685,4.332l-6.659,4.13L57.5,22.125z"/>
		<path style="fill:#FFFFFF;" d="M39.484,40.552c-7.896-2.204-14.125-8.435-16.326-16.332H7.446C3.357,24.22,0,27.65,0,31.813v1.777
			l27.527,12.312L39.484,40.552z"/>
		<path style="fill:#FFFFFF;" d="M27.527,52.385l-0.828-0.357L0,40.109V56.4C0,60.6,3.357,64,7.446,64h40.172
			c4.065,0,7.428-3.4,7.428-7.6V40.109L28.347,52.027L27.527,52.385z"/>
	</g>
</svg>
