<?xml version="1.0" encoding="iso-8859-1"?>
<!-- Generator: Adobe Illustrator 13.0.2, SVG Export Plug-In . SVG Version: 6.00 Build 14948)  -->
<!DOCTYPE svg PUBLIC "-//W3C//DTD SVG 1.1//EN" "http://www.w3.org/Graphics/SVG/1.1/DTD/svg11.dtd">
<svg version="1.1" xmlns="http://www.w3.org/2000/svg" xmlns:xlink="http://www.w3.org/1999/xlink" x="0px" y="0px" width="64px"
	 height="64px" viewBox="0 0 64 64" style="enable-background:new 0 0 64 64;" xml:space="preserve">
	<g id="icon-m-camera-postcapture-view-disabled">
		<rect style="fill:none;" width="64" height="64"/>
		<path style="fill:#333333;" d="M24.403,39.705H6.46V5.143h51.051v21.535c2.51,1.5,4.705,3.475,6.46,5.801V3.203
			C63.971,1.445,62.526,0,60.773,0H3.198C1.444,0,0,1.445,0,3.203v38.439c0,1.76,1.444,3.207,3.198,3.207h20.331
			C23.619,43.072,23.923,41.352,24.403,39.705z"/>
		<line style="fill:#333333;" x1="46" y1="33.143" x2="46" y2="33.143"/>
		<path style="fill:#333333;" d="M31.756,17.059c0.669,0,1.271-0.26,1.737-0.666c0.622,0.881,1.504,1.438,2.484,1.438
			s1.862-0.557,2.486-1.438c0.463,0.406,1.068,0.666,1.735,0.666c1.462,0,2.644-1.189,2.644-2.654c0-1.471-1.182-2.66-2.644-2.66
			c-0.338,0-0.657,0.066-0.953,0.188c-0.427-1.883-1.728-3.252-3.269-3.252c-1.54,0-2.842,1.369-3.268,3.252
			c-0.296-0.121-0.617-0.188-0.954-0.188c-1.46,0-2.644,1.189-2.644,2.66C29.112,15.869,30.296,17.059,31.756,17.059z"/>
		<path style="fill:#333333;" d="M37.558,25.15c-2.209-2.469-4.925-2.84-7.703,3.307c-3.938-9.105-11.666-20.354-19.043,7.307
			h15.162C28.429,30.98,32.544,27.188,37.558,25.15z"/>
		<path style="fill:#333333;" d="M47.843,28.094v-3.172h3.187v-3.523h-10v3.523h3.193v3.168C35.129,28.986,28,36.676,28,46
			c0,9.926,8.075,18,18,18s18-8.074,18-18C64,36.698,56.905,29.02,47.843,28.094z M33.143,46c0-7.089,5.769-12.857,12.857-12.857
			c2.001,0,3.889,0.473,5.579,1.291L36.446,54.574C34.4,52.297,33.143,49.296,33.143,46z M46,58.857
			c-1.901,0-3.702-0.426-5.328-1.171l15.069-20.054c1.937,2.25,3.116,5.172,3.116,8.367C58.857,53.09,53.089,58.857,46,58.857z"/>
	</g>
</svg>
