<?xml version="1.0" encoding="iso-8859-1"?>
<!-- Generator: Adobe Illustrator 14.0.0, SVG Export Plug-In . SVG Version: 6.00 Build 43363)  -->
<!DOCTYPE svg PUBLIC "-//W3C//DTD SVG 1.1//EN" "http://www.w3.org/Graphics/SVG/1.1/DTD/svg11.dtd">
<svg version="1.1" id="icon-m-content-user-certificates-layer"
	 xmlns="http://www.w3.org/2000/svg" xmlns:xlink="http://www.w3.org/1999/xlink" x="0px" y="0px" width="64px" height="64px"
	 viewBox="0 0 64 64" style="enable-background:new 0 0 64 64;" xml:space="preserve">
<g id="icon-m-content-user-certificates">
	<rect style="fill:none;" width="64" height="64"/>
	<g>
		<path style="fill:#333333;" d="M31.941,9.671c-6.715,0-12.169,5.464-12.169,12.169c0,6.713,5.454,12.168,12.169,12.168
			c6.709,0,12.168-5.455,12.168-12.168C44.109,15.135,38.65,9.671,31.941,9.671z"/>
		<path style="fill:#333333;" d="M52.956,21.956C52.956,10.385,43.574,1,32.001,1c-11.579,0-20.957,9.385-20.957,20.956
			c0,8.089,4.595,15.101,11.305,18.59L18.268,63L32,54.019L45.73,63l-4.08-22.454C48.359,37.057,52.956,30.045,52.956,21.956z
			 M31.941,38.745c-9.32,0-16.899-7.585-16.899-16.905c0-9.313,7.579-16.898,16.899-16.898c9.316,0,16.897,7.586,16.897,16.898
			C48.839,31.16,41.258,38.745,31.941,38.745z"/>
	</g>
</g>
</svg>
