<?xml version="1.0" encoding="UTF-8" standalone="no"?>
<!-- Generator: Adobe Illustrator 14.0.0, SVG Export Plug-In . SVG Version: 6.00 Build 43363)  -->

<svg
   xmlns:dc="http://purl.org/dc/elements/1.1/"
   xmlns:cc="http://creativecommons.org/ns#"
   xmlns:rdf="http://www.w3.org/1999/02/22-rdf-syntax-ns#"
   xmlns:svg="http://www.w3.org/2000/svg"
   xmlns="http://www.w3.org/2000/svg"
   xmlns:sodipodi="http://sodipodi.sourceforge.net/DTD/sodipodi-0.dtd"
   xmlns:inkscape="http://www.inkscape.org/namespaces/inkscape"
   version="1.1"
   id="icon-m-framework-back-layer"
   x="0px"
   y="0px"
   width="64px"
   height="64px"
   viewBox="0 0 64 64"
   style="enable-background:new 0 0 64 64;"
   xml:space="preserve"
   inkscape:version="0.47pre4 r22446"
   sodipodi:docname="Icon-back.svg"><metadata
   id="metadata12"><rdf:RDF><cc:Work
       rdf:about=""><dc:format>image/svg+xml</dc:format><dc:type
         rdf:resource="http://purl.org/dc/dcmitype/StillImage" /></cc:Work></rdf:RDF></metadata><defs
   id="defs10"><inkscape:perspective
     sodipodi:type="inkscape:persp3d"
     inkscape:vp_x="0 : 32 : 1"
     inkscape:vp_y="0 : 1000 : 0"
     inkscape:vp_z="64 : 32 : 1"
     inkscape:persp3d-origin="32 : 21.333333 : 1"
     id="perspective14" /></defs><sodipodi:namedview
   pagecolor="#ffffff"
   bordercolor="#666666"
   borderopacity="1"
   objecttolerance="10"
   gridtolerance="10"
   guidetolerance="10"
   inkscape:pageopacity="0"
   inkscape:pageshadow="2"
   inkscape:window-width="1629"
   inkscape:window-height="1424"
   id="namedview8"
   showgrid="true"
   inkscape:snap-grids="false"
   inkscape:zoom="10.915961"
   inkscape:cx="26.290309"
   inkscape:cy="29.248532"
   inkscape:window-x="351"
   inkscape:window-y="50"
   inkscape:window-maximized="0"
   inkscape:current-layer="icon-m-framework-back-layer"><inkscape:grid
     type="xygrid"
     id="grid3592" /></sodipodi:namedview>
<g
   id="icon-m-framework-back">
	<rect
   style="fill:none;"
   width="64"
   height="64"
   id="rect4" />
	<path
   style="fill:#ffffff;fill-opacity:1"
   d="m 35.598,47.787 c 0.956,0 4.95,-0.193 8.189,-3.289 2.738,-2.615 4.107,-5.514 4.113,-10.551 l 0.02,-0.093 c -0.006,-5.038 -1.395,-7.999 -4.133,-10.616 -3.239,-3.096 -7.233,-3.132 -8.189,-3.132 -0.06,0 -9.227,0 -9.227,0 v -3.589 c 0,-0.546 0,-1.024 -1.025,-0.512 l -8.714,5.126 c 0,0 -0.513,0.513 -0.513,0.769 0,0.23 0.513,0.77 0.513,0.77 l 8.714,5.639 c 1.025,0.512 1.025,0.031 1.025,-0.514 v -3.639 l 9.227,0.051 c 0,0 3.115,-0.363 5.485,1.934 1.903,1.846 2.714,3.912 2.716,7.807 -0.002,3.893 -0.813,5.804 -2.716,7.648 -2.37,2.297 -5.464,2.092 -5.485,2.09 H 23.295 c -1.025,0 -1.025,1.025 -1.025,1.025 v 2.051 c 0,0 0,1.025 1.025,1.025 h 12.303 z"
   id="path6"
   transform="matrix(1.9476225,0,0,1.9389804,-30.414682,-29.663877)" />
</g>
</svg>