<?xml version="1.0" encoding="iso-8859-1"?>
<!-- Generator: Adobe Illustrator 14.0.0, SVG Export Plug-In . SVG Version: 6.00 Build 43363)  -->
<!DOCTYPE svg PUBLIC "-//W3C//DTD SVG 1.1//EN" "http://www.w3.org/Graphics/SVG/1.1/DTD/svg11.dtd">
<svg version="1.1" id="icon-m-messaging-smiley-cool-layer"
	 xmlns="http://www.w3.org/2000/svg" xmlns:xlink="http://www.w3.org/1999/xlink" x="0px" y="0px" width="64px" height="64px"
	 viewBox="0 0 64 64" style="enable-background:new 0 0 64 64;" xml:space="preserve">
<g id="icon-m-messaging-smiley-cool">
	<rect style="fill:none;" width="64" height="64"/>
	<path style="fill:#333333;" d="M32,45.053c-10.326,0-18.904-6.591-20.664-16.411C11.119,29.852,11,31.095,11,32.367
		c0,11.598,9.401,19.249,21,19.249s21-7.651,21-19.249c0-1.272-0.119-2.516-0.336-3.726C50.905,38.462,42.326,45.053,32,45.053z"/>
	<path style="fill:#333333;" d="M43.533,16.642c-1.123,0-2.363,0.079-3.574,0.263H23.961c-1.145-0.184-2.339-0.263-3.468-0.263
		c-4.139,0-7.494,3.013-7.494,6.733c0,3.72,3.355,6.73,7.494,6.73c3.946,0,8.722-4.553,9.164-8.201h4.092
		c0.498,3.648,5.854,8.201,9.783,8.201c4.124,0,7.467-3.011,7.467-6.73C51,19.654,47.657,16.642,43.533,16.642z"/>
	<path style="fill:#333333;" d="M32,4c15.439,0,28,12.561,28,28S47.439,60,32,60S4,47.439,4,32S16.561,4,32,4 M32,0
		C14.327,0,0,14.327,0,32c0,17.674,14.327,32,32,32c17.674,0,32-14.326,32-32C64,14.327,49.674,0,32,0L32,0z"/>
</g>
</svg>
