<?xml version="1.0" encoding="iso-8859-1"?>
<!-- Generator: Adobe Illustrator 13.0.2, SVG Export Plug-In . SVG Version: 6.00 Build 14948)  -->
<!DOCTYPE svg PUBLIC "-//W3C//DTD SVG 1.1//EN" "http://www.w3.org/Graphics/SVG/1.1/DTD/svg11.dtd">
<svg version="1.1" xmlns="http://www.w3.org/2000/svg" xmlns:xlink="http://www.w3.org/1999/xlink" x="0px" y="0px" width="64px"
	 height="64px" viewBox="0 0 64 64" style="enable-background:new 0 0 64 64;" xml:space="preserve">
	<g id="icon-m-organizer-note-todo">
		<rect style="fill:none;" width="64" height="64"/>
		<path style="fill:#333333;" d="M63.826,31.688c-0.143-0.435-0.55-0.723-1.032-0.723c-9.966,0.197-17.477,8.988-20.125,12.577
			l-4.685-4.742c-0.385-0.397-1.094-0.405-1.488-0.038l-3.166,2.872c-0.206,0.196-0.324,0.461-0.33,0.751
			c-0.003,0.284,0.105,0.548,0.311,0.759l9.445,9.338c0.195,0.204,0.477,0.32,0.768,0.32l0.086-0.002
			c0.311-0.026,0.594-0.179,0.786-0.44c3.704-5.168,8.18-10.18,12.938-14.501c3.157-2.856,5.441-4.515,6.066-4.955l0.131-0.1
			C63.836,32.526,63.96,32.089,63.826,31.688z"/>
		<path style="fill:#333333;" d="M47.799,57.352v-0.185h-40v-45h4.071v6.229h31.72v-6.229h4.209v17.995
			c2.3-1.603,4.911-3.014,7.798-3.962V8.135c0-1.135-0.927-2.063-2.06-2.063h-9.852V5.52h-0.014C43.548,2.451,41.007,0,37.879,0
			H17.687c-3.129,0-5.671,2.451-5.796,5.52H11.88v0.553H2.059C0.927,6.072,0,7,0,8.135v53.801C0,63.07,0.927,64,2.059,64h51.479
			c1.133,0,2.06-0.93,2.06-2.064v-13.86c-2.277,2.498-4.415,5.117-6.325,7.781C48.85,56.436,48.35,56.933,47.799,57.352z"/>
		<rect x="11.894" y="23.325" style="fill:#333333;" width="26" height="6"/>
		<rect x="11.894" y="34.325" style="fill:#333333;" width="15.5" height="6"/>
	</g>
</svg>
