<?xml version="1.0" encoding="iso-8859-1"?>
<!-- Generator: Adobe Illustrator 14.0.0, SVG Export Plug-In . SVG Version: 6.00 Build 43363)  -->
<!DOCTYPE svg PUBLIC "-//W3C//DTD SVG 1.1//EN" "http://www.w3.org/Graphics/SVG/1.1/DTD/svg11.dtd">
<svg version="1.1" id="icon-s-addressbook-layer" xmlns="http://www.w3.org/2000/svg" xmlns:xlink="http://www.w3.org/1999/xlink"
	 x="0px" y="0px" width="20px" height="18px" viewBox="0 0 20 18" style="enable-background:new 0 0 20 18;" xml:space="preserve">
<g id="icon-s-addressbook">
	<path style="fill:#333333;" d="M17.941,0H4.177v3.176H1v3.177l3.177-0.104v5.398H1v3.177l3.177-0.104V18h13.765
		c0,0,2.117,0,2.117-2.117V2.117C20.059,0,17.941,0,17.941,0z M12.646,2.117c2.119,0,3.283,1.165,3.283,3.283
		c0,2.117-1.164,3.282-3.283,3.282c-2.117,0-3.282-1.165-3.282-3.282C9.365,3.282,10.53,2.117,12.646,2.117z M16.883,15.883H8.412
		v-2.118c0,0,0-4.235,4.235-4.235c4.236,0,4.236,4.235,4.236,4.235V15.883z"/>
</g>
</svg>
