<?xml version="1.0" encoding="iso-8859-1"?>
<!-- Generator: Adobe Illustrator 13.0.2, SVG Export Plug-In . SVG Version: 6.00 Build 14948)  -->
<!DOCTYPE svg PUBLIC "-//W3C//DTD SVG 1.1//EN" "http://www.w3.org/Graphics/SVG/1.1/DTD/svg11.dtd">
<svg version="1.1" xmlns="http://www.w3.org/2000/svg" xmlns:xlink="http://www.w3.org/1999/xlink" x="0px" y="0px" width="64px"
	 height="64px" viewBox="0 0 64 64" style="enable-background:new 0 0 64 64;" xml:space="preserve">
	<g id="icon-m-toolbar-mediacontrol-previous">
		<rect style="fill:none;" width="64" height="64"/>
		<g>
			<path style="fill:#FFFFFF;" d="M19.832,51.131c1.1,0,2-0.9,2-2V36.74c0-1.1,0.782-1.554,1.737-1.008l25.226,14.406
				c0.955,0.546,1.736,0.092,1.736-1.008v-34.26c0-1.1-0.781-1.554-1.737-1.009L23.569,28.267c-0.955,0.545-1.737,0.091-1.737-1.009
				V14.871c0-1.1-0.9-2-2-2h-4.366c-1.1,0-2,0.9-2,2v34.26c0,1.1,0.9,2,2,2H19.832z"/>
		</g>
	</g>
</svg>
