<?xml version="1.0" encoding="iso-8859-1"?>
<!-- Generator: Adobe Illustrator 14.0.0, SVG Export Plug-In . SVG Version: 6.00 Build 43363)  -->
<!DOCTYPE svg PUBLIC "-//W3C//DTD SVG 1.1//EN" "http://www.w3.org/Graphics/SVG/1.1/DTD/svg11.dtd">
<svg version="1.1" id="icon-m-content-call-layer" xmlns="http://www.w3.org/2000/svg" xmlns:xlink="http://www.w3.org/1999/xlink"
	 x="0px" y="0px" width="64px" height="64px" viewBox="0 0 64 64" style="enable-background:new 0 0 64 64;" xml:space="preserve">
<g id="icon-m-content-call">
	<rect style="fill:none;" width="64" height="64"/>
	<path style="fill:#333333;" d="M32.004,0C14.328,0,0,14.342,0,32.02C0,49.676,14.328,64,32.004,64C49.664,64,64,49.676,64,32.02
		C64,14.342,49.664,0,32.004,0z M49.762,23.48c-2.307,2.305-5.291,3.127-6.711,1.854l-4.23-4.262
		c-0.994-0.994-2.697-0.918-3.781,0.166L20.662,35.611c-1.088,1.084-1.133,2.758-0.137,3.754c0,0,4.1,4.131,4.145,4.18
		c1.387,1.385,0.602,4.414-1.754,6.77c-2.354,2.352-5.387,3.137-6.771,1.752c-0.092-0.092-3.08-3.062-3.201-3.186
		c-4.148-4.146-1.77-14.59,6.111-22.682c0.129-0.129,2.414-2.412,2.545-2.543c0.096-0.1,3.885-3.885,3.984-3.98
		c8.111-7.949,18.617-10.367,22.783-6.203c0.184,0.186,3.154,3.184,3.18,3.207C52.93,18.066,52.119,21.123,49.762,23.48z"/>
</g>
</svg>
