<?xml version="1.0" encoding="iso-8859-1"?>
<!-- Generator: Adobe Illustrator 14.0.0, SVG Export Plug-In . SVG Version: 6.00 Build 43363)  -->
<!DOCTYPE svg PUBLIC "-//W3C//DTD SVG 1.1//EN" "http://www.w3.org/Graphics/SVG/1.1/DTD/svg11.dtd">
<svg version="1.1" id="icon-m-common-presence-busy-layer"
	 xmlns="http://www.w3.org/2000/svg" xmlns:xlink="http://www.w3.org/1999/xlink" x="0px" y="0px" width="65px" height="64px"
	 viewBox="0 0 65 64" style="enable-background:new 0 0 65 64;" xml:space="preserve">
<g id="icon-m-common-presence-busy">
	<rect x="1" style="fill:none;" width="64" height="64"/>
	<path style="fill:#333333;" d="M33.004,1C15.884,1,2,14.894,2,32.018C2,49.121,15.884,63,33.004,63C50.113,63,64,49.121,64,32.018
		C64,14.894,50.113,1,33.004,1z M50.135,34.07c0,1.908-1.561,3.468-3.469,3.468H19.602c-1.908,0-3.47-1.56-3.47-3.468v-4.065
		c0-1.907,1.562-3.466,3.47-3.466h27.064c1.908,0,3.469,1.559,3.469,3.466V34.07z"/>
</g>
</svg>
