<?xml version="1.0" encoding="iso-8859-1"?>
<!-- Generator: Adobe Illustrator 14.0.0, SVG Export Plug-In . SVG Version: 6.00 Build 43363)  -->
<!DOCTYPE svg PUBLIC "-//W3C//DTD SVG 1.1//EN" "http://www.w3.org/Graphics/SVG/1.1/DTD/svg11.dtd">
<svg version="1.1" id="icon-m-camera-postcapture-view-5sec-layer"
	 xmlns="http://www.w3.org/2000/svg" xmlns:xlink="http://www.w3.org/1999/xlink" x="0px" y="0px" width="64px" height="64px"
	 viewBox="0 0 64 64" style="enable-background:new 0 0 64 64;" xml:space="preserve">
<g id="icon-m-camera-postcapture-view-5sec">
	<rect style="fill:none;" width="64" height="64"/>
	<path style="fill:#333333;" d="M45.473,44.704c0.285-0.043,0.638-0.043,0.968-0.043c3.103,0,4.995,1.693,4.995,5.061
		c0,3.652-1.871,5.436-5.963,5.436c-1.299,0-2.598-0.199-3.764-0.484v-2.156c1.1,0.285,2.091,0.527,3.125,0.527
		c2.112,0,2.949-1.057,2.949-3.213c0-1.869-0.969-2.992-3.235-2.992c-0.704,0-1.649,0.021-2.332,0.109v-7.986h8.603v2.113h-5.346
		V44.704z"/>
	<path style="fill:#333333;" d="M31.577,17.221c0.669,0,1.271-0.26,1.737-0.667c0.621,0.883,1.504,1.438,2.484,1.438
		s1.862-0.556,2.486-1.438c0.463,0.407,1.068,0.667,1.735,0.667c1.462,0,2.644-1.19,2.644-2.655c0-1.47-1.182-2.659-2.644-2.659
		c-0.338,0-0.657,0.066-0.953,0.188c-0.427-1.883-1.728-3.252-3.269-3.252c-1.54,0-2.842,1.369-3.268,3.252
		c-0.296-0.121-0.617-0.188-0.954-0.188c-1.46,0-2.644,1.189-2.644,2.659C28.933,16.03,30.117,17.221,31.577,17.221z"/>
	<path style="fill:#333333;" d="M37.205,25.719c-2.14-2.392-4.771-2.752-7.462,3.203C25.928,20.102,18.146,9.08,11,35.876h15
		C28.378,31.242,32.348,27.691,37.205,25.719z"/>
	<path style="fill:#333333;" d="M6,6h52v22c3,2,5,5,5,5V3c0,0,0-2-2-2H3C1,1,1,3,1,3v40c0,2,2,2,2,2h21c0-3,1-5,1-5H6V6z"/>
	<path style="fill:#333333;" d="M47,28.218v-2.695h3v-4h-9v4h3v2.69c-8.81,0.868-16.054,8.316-16.054,17.35
		C27.946,55.178,35.769,63,45.384,63c9.614,0,17.438-7.822,17.438-17.438C62.821,36.551,55.779,29.114,47,28.218z M45.384,58.019
		c-6.867,0-12.456-5.587-12.456-12.456c0-6.866,5.589-12.455,12.456-12.455c6.866,0,12.455,5.589,12.455,12.455
		C57.839,52.432,52.25,58.019,45.384,58.019z"/>
</g>
</svg>
