<?xml version="1.0" encoding="iso-8859-1"?>
<!-- Generator: Adobe Illustrator 14.0.0, SVG Export Plug-In . SVG Version: 6.00 Build 43363)  -->
<!DOCTYPE svg PUBLIC "-//W3C//DTD SVG 1.1//EN" "http://www.w3.org/Graphics/SVG/1.1/DTD/svg11.dtd">
<svg version="1.1" id="icon-m-common-45g-layer" xmlns="http://www.w3.org/2000/svg" xmlns:xlink="http://www.w3.org/1999/xlink"
	 x="0px" y="0px" width="64px" height="64px" viewBox="0 0 64 64" style="enable-background:new 0 0 64 64;" xml:space="preserve">
<g id="icon-m-common-45g">
	<rect style="fill:none;" width="64" height="64"/>
	<path style="fill:#333333;" d="M27.332,42.581h-3.824v7.854h-8.21v-7.854H0.764V37.89l14.941-24.732h7.802v24.529h3.824V42.581z
		 M15.297,37.687V22.693L6.475,37.687H15.297z"/>
	<path style="fill:#333333;" d="M33.556,50.843c-2.499,0-4.488-1.989-4.488-4.488c0-2.498,1.989-4.538,4.488-4.538
		s4.538,2.04,4.538,4.538C38.094,48.854,36.055,50.843,33.556,50.843z"/>
	<path style="fill:#333333;" d="M50.18,26.62c0.664-0.102,1.479-0.102,2.244-0.102c7.19,0,11.576,3.926,11.576,11.729
		c0,8.465-4.336,12.596-13.82,12.596c-3.008,0-6.018-0.459-8.72-1.122v-4.997c2.55,0.662,4.845,1.224,7.241,1.224
		c4.896,0,6.834-2.448,6.834-7.445c0-4.335-2.244-6.936-7.496-6.936c-1.633,0-3.825,0.052-5.406,0.255V13.311h19.939v4.896H50.18
		V26.62z"/>
</g>
</svg>
