<?xml version="1.0" encoding="iso-8859-1"?>
<!-- Generator: Adobe Illustrator 14.0.0, SVG Export Plug-In . SVG Version: 6.00 Build 43363)  -->
<!DOCTYPE svg PUBLIC "-//W3C//DTD SVG 1.1//EN" "http://www.w3.org/Graphics/SVG/1.1/DTD/svg11.dtd">
<svg version="1.1" id="icon-m-framework-close-thumbnail-layer"
	 xmlns="http://www.w3.org/2000/svg" xmlns:xlink="http://www.w3.org/1999/xlink" x="0px" y="0px" width="32px" height="33px"
	 viewBox="0 0 32 33" style="enable-background:new 0 0 32 33;" xml:space="preserve">
<g id="icon-m-framework-close-thumbnail">
	<rect y="1.001" style="fill:none;" width="32" height="32"/>
	<path id="Icon-m-close_4_" style="fill:#FFFFFF;" d="M30.933,26.716c1.435,1.439,1.418,3.777-0.019,5.202
		C30.2,32.637,29.265,33,28.32,33c-0.938,0-1.879-0.363-2.594-1.082l-9.728-9.721l-9.716,9.721C5.567,32.637,4.623,33,3.688,33
		c-0.94,0-1.887-0.363-2.603-1.082c-1.429-1.425-1.445-3.753-0.009-5.198l9.736-9.713L1.077,7.277c-1.436-1.427-1.436-3.761,0-5.203
		c1.431-1.433,3.769-1.433,5.205,0l9.721,9.728l9.724-9.728c1.437-1.433,3.752-1.433,5.188,0c1.437,1.442,1.453,3.776,0.019,5.206
		l-9.729,9.719L30.933,26.716z"/>
</g>
</svg>
