<?xml version="1.0" encoding="iso-8859-1"?>
<!-- Generator: Adobe Illustrator 14.0.0, SVG Export Plug-In . SVG Version: 6.00 Build 43363)  -->
<!DOCTYPE svg PUBLIC "-//W3C//DTD SVG 1.1//EN" "http://www.w3.org/Graphics/SVG/1.1/DTD/svg11.dtd">
<svg version="1.1" id="icon-m-organizer-note-time-layer"
	 xmlns="http://www.w3.org/2000/svg" xmlns:xlink="http://www.w3.org/1999/xlink" x="0px" y="0px" width="65px" height="64px"
	 viewBox="0 0 65 64" style="enable-background:new 0 0 65 64;" xml:space="preserve">
<g id="icon-m-organizer-note-time">
	<rect x="1" style="fill:none;" width="64" height="64"/>
	<path style="fill:#333333;" d="M23,46c0-8.314,4.251-15.652,10.691-19.961H7.967v-4.856h33.066v1.568
		C42.941,22.262,44.941,22,47,22c0.336,0,0.668,0.012,1,0.025V2.186C48,0.983,47.016,0,45.814,0h-4.189v2.403
		c0,1.277-1.045,2.322-2.322,2.322h-1.355c-1.277,0-2.322-1.045-2.322-2.322V0H27.5v2.403c0,1.277-1.045,2.322-2.322,2.322h-1.355
		c-1.277,0-2.322-1.045-2.322-2.322V0h-8.125v2.403c0,1.277-1.045,2.322-2.322,2.322H9.697c-1.277,0-2.322-1.045-2.322-2.322V0
		H3.186C1.983,0,1,0.983,1,2.186v45.907c0,1.203,0.983,2.187,2.186,2.187H23.39C23.138,48.89,23,47.461,23,46z M7.967,12.039h33.066
		v4.856H7.967V12.039z M7.967,30.183h16v4.856h-16V30.183z"/>
	<path style="fill:#333333;" d="M47.537,27.398c-9.939,0-17.999,8.059-17.999,18c0,9.94,8.06,18,17.999,18c9.941,0,18-8.06,18-18
		C65.537,35.457,57.479,27.398,47.537,27.398z M59.59,48.049c-0.559,0.563-1.301,0.878-2.092,0.882l-11.23,0.006l0,0
		c-0.867,0-1.572-0.265-2.096-0.786c-0.557-0.55-0.877-1.319-0.877-2.106V34.833c0-1.639,1.334-2.973,2.973-2.973
		s2.973,1.334,2.973,2.973v8.214l8.213-0.062c1.645,0,2.98,1.322,2.994,2.949C60.453,46.732,60.148,47.483,59.59,48.049z"/>
</g>
</svg>
