<?xml version="1.0" encoding="iso-8859-1"?>
<!-- Generator: Adobe Illustrator 14.0.0, SVG Export Plug-In . SVG Version: 6.00 Build 43363)  -->
<!DOCTYPE svg PUBLIC "-//W3C//DTD SVG 1.1//EN" "http://www.w3.org/Graphics/SVG/1.1/DTD/svg11.dtd">
<svg version="1.1" id="icon-s-messaging-layer" xmlns="http://www.w3.org/2000/svg" xmlns:xlink="http://www.w3.org/1999/xlink"
	 x="0px" y="0px" width="21px" height="18px" viewBox="0 0 21 18" style="enable-background:new 0 0 21 18;" xml:space="preserve">
<g id="icon-s-messaging">
	<path style="fill:#333333;" d="M13.5,0H1.125C-0.014,0,0,1.125,0,1.125V2.25l7.313,3.375l7.313-3.375V1.125
		C14.625,1.125,14.633,0,13.5,0z"/>
	<path style="fill:#333333;" d="M6.75,7.875L0,4.5v5.625c0,0-0.014,1.125,1.125,1.125H6.75V7.875z"/>
	<path style="fill:#333333;" d="M19.125,6.75h-9C9,6.75,9,7.875,9,7.875v6.75c0,0,0,1.125,1.125,1.125h2.25l2.25,2.25v-2.25h4.5
		c1.125,0,1.125-1.125,1.125-1.125v-6.75C20.25,6.75,19.125,6.75,19.125,6.75z M16.875,11.25h-6.75v-1.125h6.75V11.25z M19.125,9h-9
		V7.875h9V9z"/>
</g>
</svg>
