<?xml version="1.0" encoding="iso-8859-1"?>
<!-- Generator: Adobe Illustrator 14.0.0, SVG Export Plug-In . SVG Version: 6.00 Build 43363)  -->
<!DOCTYPE svg PUBLIC "-//W3C//DTD SVG 1.1//EN" "http://www.w3.org/Graphics/SVG/1.1/DTD/svg11.dtd">
<svg version="1.1" id="icon-l-settings-layer" xmlns="http://www.w3.org/2000/svg" xmlns:xlink="http://www.w3.org/1999/xlink"
	 x="0px" y="0px" width="77px" height="77px" viewBox="0 0 77 77" style="enable-background:new 0 0 77 77;" xml:space="preserve">
<g id="icon-l-settings">
	<path style="opacity:0.2;fill:#010101;" d="M68.281,54.035L53.912,39.67c-2.646-2.609-5.318-3.975-6.361-4.445
		c-1.457-1.465-2.736-2.746-3.701-3.709c0.875-2.162,1.453-4.523,1.455-6.938c0.018-3.236-1.109-6.605-3.869-9.342
		c-4.354-4.344-10.12-7.633-16.327-7.648c-0.571,0.002-1.148,0.025-1.729,0.092c-0.332,0.037-0.957,0.068-1.645,0.248
		C21.386,8.031,21,8.154,20.557,8.48c-0.434,0.283-0.957,1.012-0.94,1.828c0.038,1.035,0.544,1.617,1.056,2.168l10.182,10.172
		c-0.79,2.193-2.122,4.203-3.397,5.469c-1.278,1.285-3.364,2.682-5.544,3.477l-10.24-10.223c-0.499-0.475-1.073-0.979-2.092-1.008
		c-0.821-0.021-1.535,0.502-1.825,0.924c-0.83,1.258-0.711,2.25-0.83,2.846c-0.063,0.559-0.089,1.115-0.089,1.672
		c0.017,6.229,3.384,11.949,7.722,16.311c2.635,2.639,5.963,3.645,9.143,3.633c2.529-0.002,5.003-0.598,7.233-1.449
		c0.967,0.969,2.265,2.266,3.752,3.748c0.431,0.967,1.802,3.746,4.451,6.395L53.51,68.811c1.117,1.125,2.607,1.695,4.08,1.691h0.014
		c1.477,0,2.957-0.576,4.082-1.697l6.873-6.861c0.092-0.129,1.549-1.418,1.596-3.811C70.172,56.814,69.576,55.307,68.281,54.035z"/>
	<path style="opacity:0.5;fill:#010101;" d="M67.045,55.271c-0.008-0.006-14.363-14.359-14.371-14.361
		c-2.873-2.875-6.07-4.203-6.127-4.221c-2.037-2.039-3.752-3.754-4.775-4.773c2.283-4.914,2.98-10.898-1.568-15.441
		c-4.502-4.504-10.548-7.68-16.636-7.057c-0.98,0.102-3.233,0.236-1.651,1.828l10.934,10.926c-0.817,2.875-2.472,5.498-4.156,7.184
		c-1.7,1.695-4.396,3.428-7.264,4.234L10.438,22.617c-1.479-1.492-1.664,0.711-1.773,1.697c-0.619,6.082,2.635,12.059,7.134,16.564
		c4.377,4.375,10.701,3.484,15.555,1.367c1.012,1.006,2.745,2.738,4.809,4.809v0.004c0,0,1.264,3.207,4.21,6.146
		c0.004,0.006,14.369,14.365,14.373,14.367c1.568,1.576,4.129,1.576,5.705-0.006c0.006,0,6.869-6.865,6.869-6.865
		S69.945,58.18,67.045,55.271z"/>
	<rect style="fill:none;" width="77" height="77"/>
	<linearGradient id="SVGID_1_" gradientUnits="userSpaceOnUse" x1="37.104" y1="0.0024" x2="37.104" y2="56.0043">
		<stop  offset="0" style="stop-color:#FFFFFF"/>
		<stop  offset="1" style="stop-color:#B3B2C9"/>
	</linearGradient>
	<path style="fill:url(#SVGID_1_);" d="M64.467,52.863c-0.045-0.047-18.156-18.162-22.695-22.701
		c2.283-4.908,2.98-10.896-1.568-15.436c-4.502-4.502-10.548-7.68-16.636-7.057c-0.98,0.102-3.233,0.232-1.651,1.822L32.851,20.42
		c-0.817,2.879-2.472,5.5-4.156,7.184c-1.7,1.695-4.396,3.43-7.264,4.236L10.438,20.865c-1.479-1.492-1.664,0.717-1.773,1.697
		C8.046,28.65,11.3,34.623,15.799,39.131c4.377,4.371,10.701,3.482,15.555,1.363c4.454,4.451,22.703,22.703,22.746,22.742
		c1.326,1.322,3.48,1.322,4.807-0.002c0.01-0.002,5.797-5.791,5.797-5.791S66.914,55.311,64.467,52.863z"/>
	<path style="opacity:0.2;" d="M32.813,20.385l1.828-0.5l-10.603-10.6l-2.584-0.434c0.079,0.184,0.209,0.391,0.461,0.641
		L32.813,20.385z M63.961,55.271c0,0.24-0.096,0.516-0.223,0.715l-6.002,6.076c-0.344,0.344-0.793,0.51-1.244,0.51
		s-0.885-0.162-1.223-0.5L31.726,38.529l-1.032,0.449c-2.185,0.953-4.666,1.619-6.993,1.613c-2.522-0.008-4.802-0.711-6.733-2.635
		c-3.935-3.934-6.747-8.969-6.727-13.9l0.041-1.02l-0.708-2.674c-0.697,0.016-0.822,1.455-0.908,2.199
		C8.046,28.65,11.3,34.623,15.799,39.131c4.377,4.371,10.701,3.482,15.555,1.363C35.807,44.945,54.1,63.236,54.1,63.236
		c1.326,1.322,3.48,1.322,4.807-0.002c0.01-0.002,5.797-5.791,5.797-5.791s0.908-0.891,0.908-2.172H63.961z"/>
	<path style="opacity:0.4;fill:#FFFFFF;" d="M32.813,20.385c-0.818,2.883-2.435,5.535-4.119,7.219
		c-1.7,1.695-4.396,3.43-7.264,4.236L10.438,20.865c-0.359-0.371-0.639-0.504-0.865-0.502l0.708,2.674l10.664,10.66l0.934-0.27
		c3.195-0.904,6.064-2.748,7.977-4.65c1.905-1.918,3.668-4.717,4.587-7.906l0.199-0.986L32.813,20.385z M64.467,52.863
		c0,0-22.688-22.695-22.695-22.701c1.121-2.412,1.855-5.084,1.777-7.719c-0.082-2.727-1.031-5.41-3.346-7.717
		c-4.502-4.502-10.548-7.68-16.636-7.057c-0.824,0.082-2.519,0.209-2.112,1.182l2.584,0.434c0.349-0.033,0.704-0.043,1.066-0.043
		c4.943-0.016,10.021,2.727,13.924,6.654c2.1,2.111,2.852,4.418,2.873,6.918c0.002,0.006,0.002,0.008,0.002,0.012
		c0,2.191-0.643,4.508-1.629,6.645l-0.494,1.047l23.514,23.514c0.619,0.637,0.652,0.975,0.666,1.24h1.65
		C65.607,54.561,65.332,53.736,64.467,52.863z"/>
	
		<linearGradient id="SVGID_2_" gradientUnits="userSpaceOnUse" x1="61.1338" y1="42.9766" x2="43.0719" y2="61.0393" gradientTransform="matrix(1 0 0 1 -0.3291 0.0928)">
		<stop  offset="0" style="stop-color:#517EBF"/>
		<stop  offset="1" style="stop-color:#283176"/>
	</linearGradient>
	<path style="fill:url(#SVGID_2_);" d="M52.674,39.162c-2.9-2.906-6.137-4.23-6.137-4.23L36.163,45.307c0,0,1.264,3.207,4.21,6.145
		c0.004,0.012,14.369,14.375,14.373,14.377c1.568,1.576,4.129,1.576,5.705-0.006c0.006,0,6.869-6.869,6.869-6.869
		s2.625-2.523-0.275-5.428C67.037,53.518,52.682,39.166,52.674,39.162z"/>
</g>
</svg>
