<?xml version="1.0" encoding="iso-8859-1"?>
<!-- Generator: Adobe Illustrator 14.0.0, SVG Export Plug-In . SVG Version: 6.00 Build 43363)  -->
<!DOCTYPE svg PUBLIC "-//W3C//DTD SVG 1.1//EN" "http://www.w3.org/Graphics/SVG/1.1/DTD/svg11.dtd">
<svg version="1.1" id="icon-m-toolbar-reply-layer" xmlns="http://www.w3.org/2000/svg" xmlns:xlink="http://www.w3.org/1999/xlink"
	 x="0px" y="0px" width="65px" height="64px" viewBox="0 0 65 64" style="enable-background:new 0 0 65 64;" xml:space="preserve">
<g id="icon-m-toolbar-reply">
	<rect x="1" style="fill:none;" width="64" height="64"/>
	<path style="fill:#FFFFFF;" d="M13,32c0,11.045,8.954,20,20,20c11.047,0,20-8.955,20-20c0-11.047-8.953-20-20-20
		C21.955,12,13,20.953,13,32z M21.021,31.462l9.216-9.581c0.536-0.487,1.228-0.008,1.228,0.549v4.77l13.02,0.004
		c0.409-0.004,0.737,0.323,0.737,0.741v7.108c0.002,0.461-0.385,0.736-0.737,0.736h-13.02v5.751c0,0.497-0.593,1.126-1.228,0.549
		l-9.213-9.533C20.696,32.264,20.698,31.754,21.021,31.462z"/>
</g>
</svg>
