<?xml version="1.0" encoding="iso-8859-1"?>
<!-- Generator: Adobe Illustrator 14.0.0, SVG Export Plug-In . SVG Version: 6.00 Build 43363)  -->
<!DOCTYPE svg PUBLIC "-//W3C//DTD SVG 1.1//EN" "http://www.w3.org/Graphics/SVG/1.1/DTD/svg11.dtd">
<svg version="1.1" id="icon-l-clock-layer" xmlns="http://www.w3.org/2000/svg" xmlns:xlink="http://www.w3.org/1999/xlink" x="0px"
	 y="0px" width="48px" height="48px" viewBox="0 0 48 48" style="enable-background:new 0 0 48 48;" xml:space="preserve">
<g id="icon-l-clock">
	<rect style="fill:none;" width="48" height="48"/>
	<g>
		<path style="opacity:0.2;fill:#010101;" d="M24,0.895C11.021,0.896,0.5,11.41,0.5,24.391c0,12.984,10.522,23.504,23.5,23.504
			c12.981,0,23.5-10.52,23.5-23.504C47.5,11.41,36.98,0.896,24,0.895z"/>
		<circle style="opacity:0.5;fill:#010101;" cx="24" cy="24.395" r="22.16"/>
		<linearGradient id="SVGID_1_" gradientUnits="userSpaceOnUse" x1="23.9995" y1="0.3452" x2="23.9995" y2="52.4176">
			<stop  offset="0" style="stop-color:#E3E3E3"/>
			<stop  offset="1" style="stop-color:#414141"/>
		</linearGradient>
		<circle style="fill:url(#SVGID_1_);" cx="24" cy="23.051" r="22.16"/>
		<linearGradient id="SVGID_2_" gradientUnits="userSpaceOnUse" x1="24.0015" y1="10.0767" x2="24.0015" y2="55.0564">
			<stop  offset="0" style="stop-color:#FFFFFF"/>
			<stop  offset="1" style="stop-color:#B3B3B3"/>
		</linearGradient>
		<path style="fill:url(#SVGID_2_);" d="M42.363,23.051c0,10.143-8.224,18.362-18.361,18.362c-10.141,0-18.362-8.22-18.362-18.362
			c0-10.145,8.221-18.361,18.362-18.361C34.14,4.689,42.363,12.906,42.363,23.051z"/>
		<path style="opacity:0.35;fill:#FFFFFF;" d="M10.449,32.945l29.914-13.947C37.756,8.67,26.064,3.238,16.38,8.225
			C7.266,12.91,4.452,24.656,10.449,32.945z"/>
		<path style="fill:#414141;" d="M40.527,23.239c0,0.733-0.596,1.331-1.329,1.331c-0.731,0-1.327-0.598-1.327-1.331
			c0-0.731,0.596-1.327,1.327-1.327C39.932,21.912,40.527,22.508,40.527,23.239z"/>
		<path style="fill:#414141;" d="M25.491,38.27c0,0.739-0.601,1.333-1.334,1.333c-0.729,0-1.331-0.594-1.331-1.333
			c0-0.725,0.602-1.325,1.331-1.325C24.891,36.944,25.491,37.545,25.491,38.27z"/>
		<path style="fill:#414141;" d="M10.459,23.243c0,0.729-0.603,1.327-1.334,1.327c-0.731,0-1.327-0.598-1.327-1.327
			c0-0.735,0.596-1.33,1.327-1.33C9.857,21.913,10.459,22.508,10.459,23.243z"/>
		<path style="fill:#414141;" d="M25.491,8.203c0,0.73-0.601,1.33-1.334,1.33c-0.729,0-1.331-0.6-1.331-1.33
			c0-0.734,0.602-1.327,1.331-1.327C24.891,6.876,25.491,7.469,25.491,8.203z"/>
		<path style="fill:#414141;" d="M33.253,19.827l-0.826-1.778l-6.866,3.194c-0.749-0.638-1.57-0.655-2.157-0.502L15.28,10.582
			l-1.526,1.223l8.124,10.16c-0.773,1.513,0.246,3.48,2.124,3.48c1.322,0,2.393-1.078,2.393-2.395c0-0.014-0.002-0.024-0.002-0.033
			L33.253,19.827z"/>
		<linearGradient id="SVGID_3_" gradientUnits="userSpaceOnUse" x1="24.0005" y1="56.7705" x2="24.0005" y2="-4.7302">
			<stop  offset="0" style="stop-color:#E3E3E3"/>
			<stop  offset="1" style="stop-color:#414141"/>
		</linearGradient>
		<path style="fill:url(#SVGID_3_);" d="M5.007,23.111c0-10.492,8.502-18.991,18.995-18.991l0,0c10.49,0,18.989,8.499,18.989,18.991
			l0,0h0.002c-0.002,10.492-8.501,18.994-18.991,18.996l0,0C13.509,42.105,5.007,33.604,5.007,23.111L5.007,23.111z M6.272,23.111
			c0.017,9.793,7.938,17.711,17.729,17.73l0,0c9.789-0.02,17.705-7.938,17.724-17.73l0,0c-0.019-9.793-7.935-17.713-17.724-17.729
			l0,0C14.21,5.398,6.289,13.318,6.272,23.111L6.272,23.111z"/>
	</g>
</g>
</svg>
