<?xml version="1.0" encoding="iso-8859-1"?>
<!-- Generator: Adobe Illustrator 14.0.0, SVG Export Plug-In . SVG Version: 6.00 Build 43363)  -->
<!DOCTYPE svg PUBLIC "-//W3C//DTD SVG 1.1//EN" "http://www.w3.org/Graphics/SVG/1.1/DTD/svg11.dtd">
<svg version="1.1" id="icon-m-telephony-call-initiating-layer"
	 xmlns="http://www.w3.org/2000/svg" xmlns:xlink="http://www.w3.org/1999/xlink" x="0px" y="0px" width="64px" height="64px"
	 viewBox="0 0 64 64" style="enable-background:new 0 0 64 64;" xml:space="preserve">
<g id="icon-m-telephony-call-initiating">
	<rect style="fill:none;" width="64" height="64"/>
	<g>
		<path style="fill:#333333;" d="M45.699,14.839c3.562,0,8.046,2.605,9.514,4.362l-9.83,7.274c-0.004,0.003-0.008,0.006-0.012,0.009
			c-1.083-1.408-3.723-4.41-6.538-4.41c-0.735,0-1.421,0.196-2.042,0.585c-1.881,1.19-12.525,11.815-13.726,13.705
			c-2.182,3.465,2.198,7.293,3.844,8.557c-0.008,0.01-0.016,0.02-0.023,0.03l-7.262,9.775c-2.188-1.789-5.303-8.098-3.95-11.644
			c3.708-9.717,19.821-24.016,27.972-27.846C44.21,14.973,44.9,14.839,45.699,14.839 M45.699,12.839
			c-1.04,0-2.027,0.178-2.901,0.587c-8.384,3.939-25.033,18.572-28.992,28.944c-1.733,4.542,1.813,11.726,4.614,13.954
			c-0.001,0.008,0.631,0.535,1.372,0.535c0.378,0,0.785-0.138,1.149-0.552l7.55-10.164c0.514-0.658,1.019-1.522-0.021-2.554
			c0,0-5.225-3.758-3.712-6.16c1.056-1.662,11.439-12.028,13.103-13.08c0.306-0.192,0.634-0.276,0.973-0.276
			c2.334,0,5.208,3.971,5.208,3.971c0.442,0.44,0.853,0.601,1.228,0.601c0.509,0,0.954-0.293,1.333-0.585l10.194-7.543
			c1.228-1.09,0.021-2.523,0.014-2.523C55.008,15.769,49.923,12.839,45.699,12.839L45.699,12.839z"/>
	</g>
</g>
</svg>
