<?xml version="1.0" encoding="iso-8859-1"?>
<!-- Generator: Adobe Illustrator 14.0.0, SVG Export Plug-In . SVG Version: 6.00 Build 43363)  -->
<!DOCTYPE svg PUBLIC "-//W3C//DTD SVG 1.1//EN" "http://www.w3.org/Graphics/SVG/1.1/DTD/svg11.dtd">
<svg version="1.1" id="icon-m-gallery-metadata-layer"
	 xmlns="http://www.w3.org/2000/svg" xmlns:xlink="http://www.w3.org/1999/xlink" x="0px" y="0px" width="64px" height="64px"
	 viewBox="0 0 64 64" style="enable-background:new 0 0 64 64;" xml:space="preserve">
<g id="icon-m-gallery-metadata">
	<rect style="fill:none;" width="64" height="64"/>
	<path style="fill:#333333;" d="M40.346,49.604c0,1.615,0.738,1.615,1.133,1.615c0.828,0,1.777-0.279,1.777-2.455v-1.519h-0.197
		C40.654,47.245,40.346,48.506,40.346,49.604z"/>
	<path style="fill:#333333;" d="M57.254,0H5.621C4.484,0,3.557,0.93,3.557,2.064v59.871C3.557,63.07,4.484,64,5.621,64h51.613
		c1.135,0,2.104-0.93,2.104-2.064L59.319,2.064C59.319,0.93,58.393,0,57.254,0z M29.609,40.086l-9.363,3.362l9.363,3.358v6.34
		l-17.172-7.033V40.78l17.172-6.999V40.086z M50.438,55.913h-4.887l-0.426-1.599c-1.389,1.254-3.022,1.824-5.158,1.824
		c-4.154,0-6.734-2.467-6.734-6.438c0-6.433,5.998-6.898,10.023-7v-0.445c0-1.352-0.385-2.037-2.486-2.037
		c-1.245,0-2.783,0.278-4.576,0.828l-1.285,0.396v-5.216l0.754-0.188c2.344-0.588,4.611-0.9,6.559-0.9
		c5.299,0,8.217,2.551,8.217,7.182V55.913z M51.513,27.438H11.418v-5.161h40.095V27.438z M51.513,16.336H11.418v-5.16h40.095V16.336
		z"/>
</g>
</svg>
