<?xml version="1.0" encoding="iso-8859-1"?>
<!-- Generator: Adobe Illustrator 13.0.2, SVG Export Plug-In . SVG Version: 6.00 Build 14948)  -->
<!DOCTYPE svg PUBLIC "-//W3C//DTD SVG 1.1//EN" "http://www.w3.org/Graphics/SVG/1.1/DTD/svg11.dtd">
<svg version="1.1" xmlns="http://www.w3.org/2000/svg" xmlns:xlink="http://www.w3.org/1999/xlink" x="0px" y="0px" width="64px"
	 height="64px" viewBox="0 0 64 64" style="enable-background:new 0 0 64 64;" xml:space="preserve">
	<g id="icon-m-camera-postcapture-view-always">
		<rect style="fill:none;" width="64" height="64"/>
		<line style="fill:#333333;" x1="46" y1="33.143" x2="46" y2="33.143"/>
		<path style="fill:#333333;" d="M39.246,11.933c-0.427-1.885-1.728-3.253-3.269-3.253c-1.54,0-2.842,1.368-3.268,3.253
			c-0.296-0.122-0.617-0.188-0.954-0.188c-1.46,0-2.644,1.188-2.644,2.659c0,1.465,1.184,2.654,2.644,2.654
			c0.669,0,1.271-0.261,1.737-0.666c0.622,0.882,1.504,1.438,2.484,1.438s1.862-0.556,2.486-1.438
			c0.463,0.405,1.068,0.666,1.735,0.666c1.462,0,2.644-1.189,2.644-2.654c0-1.471-1.182-2.659-2.644-2.659
			C39.861,11.745,39.542,11.811,39.246,11.933z"/>
		<path style="fill:#333333;" d="M37.558,25.15c-2.209-2.468-4.925-2.84-7.703,3.307c-3.938-9.105-11.666-20.354-19.043,7.307
			h15.162C28.429,30.98,32.544,27.188,37.558,25.15z"/>
		<path style="fill:#333333;" d="M6.46,5.143h51.051v21.535c2.51,1.5,4.705,3.476,6.46,5.801V3.203C63.971,1.445,62.526,0,60.773,0
			H3.198C1.444,0,0,1.445,0,3.203v38.439c0,1.76,1.444,3.207,3.198,3.207h20.331c0.09-1.777,0.394-3.498,0.874-5.145H6.46V5.143z"/>
		<path style="fill:#333333;" d="M47.843,28.095v-3.173h3.187v-3.523h-10v3.523h3.193v3.168C35.129,28.986,28,36.676,28,46
			c0,9.926,8.075,18,18,18s18-8.074,18-18C64,36.697,56.905,29.02,47.843,28.095z M46,58.857c-7.089,0-12.857-5.768-12.857-12.857
			c0-7.089,5.769-12.857,12.857-12.857S58.857,38.911,58.857,46C58.857,53.09,53.089,58.857,46,58.857z"/>
		<path style="fill:#333333;" d="M56.188,40.082c-0.097-0.295-0.374-0.492-0.702-0.492c-6.777,0.135-11.886,6.113-13.685,8.555
			l-3.187-3.227c-0.262-0.27-0.744-0.273-1.014-0.025l-2.152,1.953c-0.139,0.135-0.219,0.314-0.224,0.511
			c-0.003,0.194,0.071,0.372,0.211,0.515l6.424,6.353c0.132,0.14,0.323,0.218,0.521,0.218l0.057-0.001
			c0.214-0.019,0.406-0.121,0.535-0.3c2.52-3.516,5.564-6.924,8.799-9.861c2.148-1.943,3.7-3.072,4.126-3.369l0.088-0.068
			C56.195,40.652,56.28,40.355,56.188,40.082z"/>
	</g>
</svg>
