<?xml version="1.0" encoding="iso-8859-1"?>
<!-- Generator: Adobe Illustrator 14.0.0, SVG Export Plug-In . SVG Version: 6.00 Build 43363)  -->
<!DOCTYPE svg PUBLIC "-//W3C//DTD SVG 1.1//EN" "http://www.w3.org/Graphics/SVG/1.1/DTD/svg11.dtd">
<svg version="1.1" id="icon-m-messaging-smiley-sad-layer"
	 xmlns="http://www.w3.org/2000/svg" xmlns:xlink="http://www.w3.org/1999/xlink" x="0px" y="0px" width="64px" height="64px"
	 viewBox="0 0 64 64" style="enable-background:new 0 0 64 64;" xml:space="preserve">
<g id="icon-m-messaging-smiley-sad">
	<rect style="fill:none;" width="64" height="64"/>
	<path style="fill:#333333;" d="M32,39.42c7.811,0,14.304,4.127,15.709,9.58C47.894,48.283,48,47.547,48,46.789
		C48,40.277,40.836,35,32,35c-8.836,0-16,5.277-16,11.789c0,0.758,0.106,1.494,0.291,2.211C17.696,43.547,24.19,39.42,32,39.42z"/>
	<path style="fill:#333333;" d="M32,4c15.439,0,28,12.561,28,28S47.439,60,32,60S4,47.439,4,32S16.561,4,32,4 M32,0
		C14.327,0,0,14.327,0,32c0,17.674,14.327,32,32,32c17.674,0,32-14.326,32-32C64,14.327,49.674,0,32,0L32,0z"/>
	<circle style="fill:#333333;" cx="21.5" cy="20.648" r="4.5"/>
	<circle style="fill:#333333;" cx="42.5" cy="20.648" r="4.5"/>
</g>
</svg>
