<?xml version="1.0" encoding="iso-8859-1"?>
<!-- Generator: Adobe Illustrator 14.0.0, SVG Export Plug-In . SVG Version: 6.00 Build 43363)  -->
<!DOCTYPE svg PUBLIC "-//W3C//DTD SVG 1.1//EN" "http://www.w3.org/Graphics/SVG/1.1/DTD/svg11.dtd">
<svg version="1.1" id="icon-m-common-addressbook-layer"
	 xmlns="http://www.w3.org/2000/svg" xmlns:xlink="http://www.w3.org/1999/xlink" x="0px" y="0px" width="64px" height="64px"
	 viewBox="0 0 64 64" style="enable-background:new 0 0 64 64;" xml:space="preserve">
<g id="icon-m-common-addressbook">
	<rect style="fill:none;" width="64" height="64"/>
	<path style="fill:#333333;" d="M12.309,47.523V47c0-1.168-0.961-2.125-2.133-2.125H2.131C0.957,44.875,0,45.832,0,47v0.523
		c0,1.168,0.957,2.125,2.131,2.125h8.045C11.348,49.648,12.309,48.691,12.309,47.523z"/>
	<path style="fill:#333333;" d="M2.131,18.171h8.045c1.172,0,2.133-0.956,2.133-2.124v-0.521c0-1.169-0.961-2.126-2.133-2.126H2.131
		C0.957,13.4,0,14.357,0,15.526v0.521C0,17.215,0.957,18.171,2.131,18.171z"/>
	<path style="fill:#333333;" d="M62,1.049H10.076v6.598c4.486,0.504,7.973,4.234,7.973,8.766s-3.486,8.259-7.973,8.768v13.723
		c4.486,0.504,7.973,4.237,7.973,8.768c0,4.531-3.486,8.26-7.973,8.767v6.513H62c1.1,0,2-0.9,2-2V54.51V9.492V3.049
		C64,1.949,63.1,1.049,62,1.049z M40.961,11.387c4.258,0,7.713,3.563,7.713,7.951c0,4.398-3.455,7.963-7.713,7.963
		c-4.271,0-7.723-3.564-7.723-7.963C33.238,14.949,36.689,11.387,40.961,11.387z M54.453,51.799h-27v-7.541
		c0-7.797,7.109-11.943,13.508-11.943c6.383,0,13.492,4.146,13.492,11.943V51.799z"/>
</g>
</svg>
