<?xml version="1.0" encoding="iso-8859-1"?>
<!-- Generator: Adobe Illustrator 14.0.0, SVG Export Plug-In . SVG Version: 6.00 Build 43363)  -->
<!DOCTYPE svg PUBLIC "-//W3C//DTD SVG 1.1//EN" "http://www.w3.org/Graphics/SVG/1.1/DTD/svg11.dtd">
<svg version="1.1" id="icon-m-organizer-today-layer"
	 xmlns="http://www.w3.org/2000/svg" xmlns:xlink="http://www.w3.org/1999/xlink" x="0px" y="0px" width="64px" height="64px"
	 viewBox="0 0 64 64" style="enable-background:new 0 0 64 64;" xml:space="preserve">
<g id="icon-m-organizer-today">
	<rect style="fill:none;" width="64" height="64"/>
	<path style="fill:#333333;" d="M44.203,13.001h0.491c1.099,0,1.999-0.897,1.999-1.995V3.492c0-1.096-0.9-1.992-1.999-1.992h-0.491
		c-1.098,0-1.998,0.896-1.998,1.992v7.514C42.205,12.104,43.105,13.001,44.203,13.001z M19.304,13.001h0.49
		c1.099,0,1.999-0.897,1.999-1.995V3.492c0-1.096-0.9-1.992-1.999-1.992h-0.49c-1.099,0-1.999,0.896-1.999,1.992v7.514
		C17.306,12.104,18.205,13.001,19.304,13.001z M50.945,10.775c-0.368,3.348-3.17,5.952-6.574,5.952s-6.205-2.604-6.574-5.952H26.045
		c-0.369,3.348-3.171,5.952-6.575,5.952c-3.403,0-6.204-2.604-6.574-5.952H6.351v9.883h51.297v-9.883H50.945z"/>
	<path style="fill:#333333;" d="M6.351,24.488l0,36.012c0,1.101,0.9,2,2,2h47.297c1.1,0,2-0.899,2-2V24.488H6.351z M53.445,47.462
		v0.649c0,0.229-0.049,0.431-0.084,0.563l-0.096,0.353h-9.15l-0.095-0.353c-0.058-0.21-0.083-0.389-0.083-0.563v-0.649
		c0-1.216,0.986-2.204,2.197-2.204h5.111C52.459,45.258,53.445,46.246,53.445,47.462z M40.461,37.297l3.613-3.629
		c0.795-0.799,2.314-0.799,3.111,0.001l0.457,0.458c0.855,0.861,0.855,2.259,0,3.117l-3.615,3.628
		c-0.414,0.416-0.967,0.646-1.555,0.646s-1.141-0.229-1.557-0.646l-0.455-0.458C39.604,39.554,39.604,38.155,40.461,37.297z
		 M29.625,29.756c0-1.215,0.985-2.205,2.198-2.205h0.646c1.212,0,2.198,0.99,2.198,2.205v5.13c0,1.216-0.986,2.205-2.198,2.205
		h-0.646c-1.212,0-2.198-0.989-2.198-2.205V29.756z M32,38.861c5.402,0,9.828,4.246,10.076,9.666l0.022,0.5H21.901l0.022-0.5
		C22.171,43.107,26.597,38.861,32,38.861z M16.649,34.128l0.459-0.46c0.793-0.797,2.314-0.797,3.11,0l3.614,3.629
		c0.413,0.412,0.641,0.966,0.641,1.559c0,0.589-0.228,1.143-0.641,1.559l-0.457,0.458c-0.415,0.416-0.967,0.646-1.556,0.646
		c-0.589,0-1.141-0.23-1.554-0.647l-3.616-3.625C15.794,36.386,15.794,34.988,16.649,34.128z M10.555,47.462
		c0-1.216,0.986-2.204,2.198-2.204h5.111c1.213,0,2.199,0.988,2.199,2.204v0.649c0,0.223-0.045,0.418-0.085,0.563l-0.095,0.353
		h-9.149l-0.096-0.353c-0.039-0.146-0.084-0.341-0.084-0.563V47.462z"/>
</g>
</svg>
