<?xml version="1.0" encoding="iso-8859-1"?>
<!-- Generator: Adobe Illustrator 14.0.0, SVG Export Plug-In . SVG Version: 6.00 Build 43363)  -->
<!DOCTYPE svg PUBLIC "-//W3C//DTD SVG 1.1//EN" "http://www.w3.org/Graphics/SVG/1.1/DTD/svg11.dtd">
<svg version="1.1" id="icon-m-input-methods-error-correction-layer"
	 xmlns="http://www.w3.org/2000/svg" xmlns:xlink="http://www.w3.org/1999/xlink" x="0px" y="0px" width="35px" height="34px"
	 viewBox="0 0 35 34" style="enable-background:new 0 0 35 34;" xml:space="preserve">
<g id="icon-m-input-methods-error-correction">
	<rect x="1" style="fill:none;" width="34" height="34"/>
	<path style="fill:#333333;" d="M5.348,32.74l-3.079-3.079C1.207,28.6,1.32,26.758,2.521,25.557l3.624-3.623l6.933,6.932
		l-3.624,3.624C8.252,33.69,6.411,33.803,5.348,32.74L5.348,32.74z M6.019,23.986l-2.534,2.534
		c-0.601,0.601-0.657,1.521-0.127,2.051l3.078,3.081c0.532,0.529,1.453,0.475,2.054-0.127l2.535-2.535L6.019,23.986L6.019,23.986z"
		/>
	<path style="fill:#333333;" d="M8.072,20.73l6.209,6.224c0.341,0.343,0.901,0.343,1.243,0l14.817-14.841
		c0.341-0.342,0.746-0.996,0.898-1.456l3.174-9.524c0.154-0.459-0.098-0.71-0.555-0.557L24.348,3.75
		c-0.46,0.152-1.115,0.559-1.456,0.9L8.072,19.486C7.73,19.829,7.73,20.389,8.072,20.73z M28.457,4.625l1.912,1.91l-1.268,3.803
		l-1.681,1.684l-4.404-4.482l1.646-1.646L28.457,4.625z"/>
</g>
</svg>
