<?xml version="1.0" encoding="iso-8859-1"?>
<!-- Generator: Adobe Illustrator 14.0.0, SVG Export Plug-In . SVG Version: 6.00 Build 43363)  -->
<!DOCTYPE svg PUBLIC "-//W3C//DTD SVG 1.1//EN" "http://www.w3.org/Graphics/SVG/1.1/DTD/svg11.dtd">
<svg version="1.1" id="icon-m-image-edit-rotate-right-layer"
	 xmlns="http://www.w3.org/2000/svg" xmlns:xlink="http://www.w3.org/1999/xlink" x="0px" y="0px" width="64px" height="64px"
	 viewBox="0 0 64 64" style="enable-background:new 0 0 64 64;" xml:space="preserve">
<g id="icon-m-image-edit-rotate-right">
	<rect style="fill:none;" width="64" height="64"/>
	
		<ellipse transform="matrix(0.707 -0.7073 0.7073 0.707 -29.7252 25.0816)" style="fill:#333333;" cx="15.404" cy="48.411" rx="3.914" ry="3.937"/>
	
		<ellipse transform="matrix(0.7072 -0.707 0.707 0.7072 -30.0479 36.1352)" style="fill:#333333;" cx="28.606" cy="54.348" rx="3.915" ry="3.937"/>
	
		<ellipse transform="matrix(0.707 -0.7072 0.7072 0.707 -23.8635 45.1509)" style="fill:#333333;" cx="42.557" cy="51.374" rx="3.915" ry="3.937"/>
	<path style="fill:#333333;" d="M47.887,12.395l6.471-6.473c0.338-0.336,0.68-0.225,0.76,0.25L59,29.066
		c0.08,0.477-0.242,0.797-0.719,0.717l-22.893-3.881c-0.477-0.08-0.588-0.422-0.25-0.76l8.578-8.58
		c-7.871-6.65-19.658-6.311-27.033,1.064c-6.158,6.158-7.398,15.391-3.773,22.855l-5.48,2.207
		c-4.482-9.598-2.797-21.363,5.078-29.238C22.176,3.783,37.701,3.447,47.887,12.395z"/>
</g>
</svg>
