<?xml version="1.0" encoding="iso-8859-1"?>
<!-- Generator: Adobe Illustrator 14.0.0, SVG Export Plug-In . SVG Version: 6.00 Build 43363)  -->
<!DOCTYPE svg PUBLIC "-//W3C//DTD SVG 1.1//EN" "http://www.w3.org/Graphics/SVG/1.1/DTD/svg11.dtd">
<svg version="1.1" id="icon-m-energy-management-insufficient-power-layer"
	 xmlns="http://www.w3.org/2000/svg" xmlns:xlink="http://www.w3.org/1999/xlink" x="0px" y="0px" width="64px" height="64px"
	 viewBox="0 0 64 64" style="enable-background:new 0 0 64 64;" xml:space="preserve">
<g id="icon-m-energy-management-insufficient-power">
	<rect style="fill:none;" width="64" height="64"/>
	<path style="fill:#333333;" d="M46,28c-9.941,0-18,8.06-18,18c0,9.941,8.059,18,18,18s18-8.059,18-18C64,36.06,55.941,28,46,28z
		 M43.137,33.699C43.584,33.248,44.179,33,44.812,33h2.55c1.307,0,2.371,1.063,2.371,2.369l-0.654,10.258
		c0.002,0.59-0.242,1.176-0.688,1.621c-0.449,0.449-1.045,0.697-1.68,0.697h-1.247c-1.306,0-2.368-1.063-2.368-2.371l-0.65-10.152
		C42.443,34.75,42.689,34.148,43.137,33.699z M46.002,59.248c-2.346,0-4.252-1.907-4.252-4.25c0-2.344,1.906-4.25,4.252-4.25
		c2.342,0,4.248,1.906,4.248,4.25C50.25,57.341,48.344,59.248,46.002,59.248z"/>
	<path style="fill:#333333;" d="M25.609,58.092H6.117c-1.003,0-1.829-0.824-1.829-1.826V14.264c0-1.004,0.825-1.83,1.829-1.83
		h23.772c1.004,0,1.828,0.826,1.828,1.83v12.714c1.326-1.021,2.759-1.909,4.283-2.64V8.721c0-1.006-0.821-1.825-1.826-1.825h-9.803
		V4.152c0-1.004-0.822-1.828-1.827-1.828h-9.085c-1.004,0-1.826,0.824-1.826,1.828v2.743H1.828C0.822,6.896,0,7.715,0,8.721v51.127
		c0,1.006,0.822,1.828,1.828,1.828h26.349C27.216,60.564,26.356,59.367,25.609,58.092z"/>
</g>
</svg>
