<?xml version="1.0" encoding="iso-8859-1"?>
<!-- Generator: Adobe Illustrator 14.0.0, SVG Export Plug-In . SVG Version: 6.00 Build 43363)  -->
<!DOCTYPE svg PUBLIC "-//W3C//DTD SVG 1.1//EN" "http://www.w3.org/Graphics/SVG/1.1/DTD/svg11.dtd">
<svg version="1.1" id="icon-m-music-video-shuffle-on-layer"
	 xmlns="http://www.w3.org/2000/svg" xmlns:xlink="http://www.w3.org/1999/xlink" x="0px" y="0px" width="64px" height="64px"
	 viewBox="0 0 64 64" style="enable-background:new 0 0 64 64;" xml:space="preserve">
<g id="icon-m-music-video-shuffle-on">
	<rect style="fill:none;" width="64" height="64"/>
	<path style="fill:#333333;" d="M19.01,26.304h0.004l0.311,0.401l6.391-8.225l-1.334-1.719c-0.182-0.27-0.385-0.523-0.599-0.77
		l-0.154-0.197l-0.015,0.012c-1.378-1.486-3.32-2.438-5.49-2.515v-0.015H0v10.092h13.104C15.494,23.436,17.613,24.563,19.01,26.304z
		"/>
	<path style="fill:#333333;" d="M53.187,40.052h-7.296c-2.227-0.124-4.193-1.167-5.547-2.763l-6.396,8.231l1.271,1.636v0.037h0.012
		c1.439,1.795,3.645,2.947,6.125,2.947c0.039,0,0.078-0.003,0.116-0.003v0.006h11.715v5.729L64,45.136L53.187,34.398V40.052z"/>
	<path style="fill:#333333;" d="M45.891,23.949h7.296v5.654L64,18.865L53.187,8.127v5.731H41.472v0.005
		c-0.038,0-0.077-0.004-0.116-0.004c-2.48,0-4.686,1.152-6.125,2.947h-0.012v0.037L19.014,37.697H19.01
		c-1.397,1.741-3.516,2.867-5.907,2.934H0v10.092h18.124V50.71c2.169-0.079,4.111-1.028,5.49-2.517l0.015,0.012l0.154-0.196
		c0.213-0.246,0.417-0.5,0.599-0.77l15.871-20.427C41.606,25.158,43.617,24.075,45.891,23.949z"/>
</g>
</svg>
