<?xml version="1.0" encoding="iso-8859-1"?>
<!-- Generator: Adobe Illustrator 14.0.0, SVG Export Plug-In . SVG Version: 6.00 Build 43363)  -->
<!DOCTYPE svg PUBLIC "-//W3C//DTD SVG 1.1//EN" "http://www.w3.org/Graphics/SVG/1.1/DTD/svg11.dtd">
<svg version="1.1" id="icon-m-image-edit-clipart-layer"
	 xmlns="http://www.w3.org/2000/svg" xmlns:xlink="http://www.w3.org/1999/xlink" x="0px" y="0px" width="64px" height="64px"
	 viewBox="0 0 64 64" style="enable-background:new 0 0 64 64;" xml:space="preserve">
<g id="icon-m-content-clipart">
	<rect style="fill:none;" width="64" height="64"/>
	<path style="fill:#333333;" d="M40.988,5.863h-0.012C40.867,3.16,38.629,1,35.873,1H18.082c-2.756,0-4.996,2.16-5.105,4.863h-0.01
		v1.947h28.021V5.863z"/>
	<path style="fill:#333333;" d="M51.482,8.168c0-1-0.816-1.818-1.814-1.818h-3.48v6.637H7.793V6.35H4.314
		C3.316,6.35,2.5,7.168,2.5,8.168v47.4c0,1,0.816,1.818,1.814,1.818h14.838V26.549c0-2.605,2.117-4.727,4.725-4.727h27.605V8.168z"
		/>
	<polygon style="fill:#333333;" points="48.936,27.027 48.936,40.023 61.5,40.023 61.5,39.623 	"/>
	<path style="fill:#333333;" d="M43.895,42.418V26.98H25.531c-0.678,0-1.225,0.551-1.225,1.225v33.568
		c0,0.674,0.547,1.227,1.225,1.227h34.58c0.674,0,1.223-0.553,1.223-1.227V45.178H46.648C45.131,45.178,43.895,43.939,43.895,42.418
		z M27.297,54.596l6.996-24.48l6.996,24.48H27.297z M51.957,48.504c3.088,0,5.59,2.502,5.59,5.588c0,3.088-2.502,5.59-5.59,5.59
		c-3.086,0-5.588-2.502-5.588-5.59C46.369,51.006,48.871,48.504,51.957,48.504z"/>
</g>
</svg>
