<?xml version="1.0" encoding="iso-8859-1"?>
<!-- Generator: Adobe Illustrator 14.0.0, SVG Export Plug-In . SVG Version: 6.00 Build 43363)  -->
<!DOCTYPE svg PUBLIC "-//W3C//DTD SVG 1.1//EN" "http://www.w3.org/Graphics/SVG/1.1/DTD/svg11.dtd">
<svg version="1.1" id="icon-m-toolbar-addressbook-layer"
	 xmlns="http://www.w3.org/2000/svg" xmlns:xlink="http://www.w3.org/1999/xlink" x="0px" y="0px" width="64px" height="64px"
	 viewBox="0 0 64 64" style="enable-background:new 0 0 64 64;" xml:space="preserve">
<g id="icon-m-toolbar-addressbook">
	<rect style="fill:none;" width="64" height="64"/>
	<path style="fill:#FFFFFF;" d="M19.275,42.031v-0.338c0-0.755-0.621-1.373-1.378-1.373h-5.198c-0.759,0-1.377,0.618-1.377,1.373
		v0.338c0,0.756,0.618,1.374,1.377,1.374h5.198C18.654,43.405,19.275,42.787,19.275,42.031z"/>
	<path style="fill:#FFFFFF;" d="M12.698,23.064h5.198c0.758,0,1.378-0.617,1.378-1.372v-0.338c0-0.755-0.621-1.372-1.378-1.372
		h-5.198c-0.759,0-1.377,0.617-1.377,1.372v0.338C11.321,22.447,11.939,23.064,12.698,23.064z"/>
	<path style="fill:#FFFFFF;" d="M51.386,12H17.832v4.264c2.9,0.326,5.153,2.734,5.153,5.664c0,2.928-2.253,5.338-5.153,5.666v8.869
		c2.9,0.324,5.153,2.736,5.153,5.664s-2.253,5.338-5.153,5.664V52h33.554c0.711,0,1.292-0.582,1.292-1.293v-4.16V17.455v-4.162
		C52.678,12.582,52.097,12,51.386,12z M37.79,18.682c2.751,0,4.984,2.301,4.984,5.137c0,2.843-2.233,5.146-4.984,5.146
		c-2.76,0-4.99-2.304-4.99-5.146C32.8,20.982,35.03,18.682,37.79,18.682z M46.509,44.795H29.062v-4.873
		c0-5.039,4.594-7.718,8.729-7.718c4.124,0,8.719,2.679,8.719,7.718V44.795z"/>
</g>
</svg>
