<?xml version="1.0" encoding="iso-8859-1"?>
<!-- Generator: Adobe Illustrator 14.0.0, SVG Export Plug-In . SVG Version: 6.00 Build 43363)  -->
<!DOCTYPE svg PUBLIC "-//W3C//DTD SVG 1.1//EN" "http://www.w3.org/Graphics/SVG/1.1/DTD/svg11.dtd">
<svg version="1.1" id="icon-s-status-cellular-layer"
	 xmlns="http://www.w3.org/2000/svg" xmlns:xlink="http://www.w3.org/1999/xlink" x="0px" y="0px" width="18px" height="18px"
	 viewBox="0 0 18 18" style="enable-background:new 0 0 18 18;" xml:space="preserve">
<g id="icon-s-status-cellular">
	<rect x="1" style="fill:none;" width="18" height="18"/>
	<path style="fill:#FFFFFF;" d="M13.047,0.24C9.619,1.851,2.811,7.835,1.191,12.075c-0.709,1.857,0.742,4.795,1.887,5.706
		c-0.001,0.004,0.589,0.494,1.031-0.007l3.087-4.156c0.21-0.269,0.417-0.622-0.009-1.044c0,0-2.136-1.537-1.518-2.52
		c0.432-0.679,4.678-4.918,5.357-5.348c0.986-0.619,2.527,1.511,2.527,1.511c0.426,0.424,0.777,0.214,1.047,0.007l4.169-3.084
		c0.502-0.446,0.009-1.032,0.005-1.032C17.857,0.975,14.854-0.607,13.047,0.24z"/>
</g>
</svg>
