<?xml version="1.0" encoding="iso-8859-1"?>
<!-- Generator: Adobe Illustrator 14.0.0, SVG Export Plug-In . SVG Version: 6.00 Build 43363)  -->
<!DOCTYPE svg PUBLIC "-//W3C//DTD SVG 1.1//EN" "http://www.w3.org/Graphics/SVG/1.1/DTD/svg11.dtd">
<svg version="1.1" id="icon-m-camera-whitebalance-fluorescent-screen-layer"
	 xmlns="http://www.w3.org/2000/svg" xmlns:xlink="http://www.w3.org/1999/xlink" x="0px" y="0px" width="24px" height="24px"
	 viewBox="0 0 24 24" style="enable-background:new 0 0 24 24;" xml:space="preserve">
<g id="icon-m-camera-whitebalance-fluorescent-screen">
	<rect style="fill:none;" width="24" height="24"/>
	<path style="fill:#FFFFFF;" d="M3.375,8.625c-0.36,0-0.75,0.39-0.75,0.75v5.25c0,0.36,0.39,0.75,0.75,0.75h17.25
		c0.361,0,0.75-0.39,0.75-0.75v-5.25c0-0.36-0.389-0.75-0.75-0.75H3.375z M19.875,13.875H4.125v-3.787l15.75,0.037V13.875z"/>
	<path style="fill:#FFFFFF;" d="M22.125,9.375c0-0.844,1.5-0.844,1.5,0v5.25c0,0.844-1.5,0.75-1.5,0V9.375z"/>
	<path style="fill:#FFFFFF;" d="M0.375,9.375c0-0.75,1.5-0.75,1.5,0v5.25c0,0.844-1.5,0.844-1.5,0V9.375z"/>
</g>
</svg>
