<?xml version="1.0" encoding="iso-8859-1"?>
<!-- Generator: Adobe Illustrator 14.0.0, SVG Export Plug-In . SVG Version: 6.00 Build 43363)  -->
<!DOCTYPE svg PUBLIC "-//W3C//DTD SVG 1.1//EN" "http://www.w3.org/Graphics/SVG/1.1/DTD/svg11.dtd">
<svg version="1.1" id="icon-l-rss-layer" xmlns="http://www.w3.org/2000/svg" xmlns:xlink="http://www.w3.org/1999/xlink" x="0px"
	 y="0px" width="45px" height="46px" viewBox="0 0 45 46" style="enable-background:new 0 0 45 46;" xml:space="preserve">
<g id="icon-l-rss">
	<path style="opacity:0.2;fill:#010101;stroke:#010101;stroke-width:2;" d="M41.826,0.293H41.82H2.788C1.245,0.293,0,1.539,0,3.082
		v39.03C0,43.651,1.245,44.9,2.788,44.9H41.82c1.539,0,2.789-1.249,2.789-2.788V3.082C44.609,1.541,43.369,0.298,41.826,0.293z"/>
	<path style="opacity:0.5;fill:#010101;" d="M41.826,0.293H41.82H2.788C1.245,0.293,0,1.539,0,3.082v39.03
		C0,43.651,1.245,44.9,2.788,44.9H41.82c1.539,0,2.789-1.249,2.789-2.788V3.082C44.609,1.541,43.369,0.298,41.826,0.293z"/>
	<linearGradient id="SVGID_1_" gradientUnits="userSpaceOnUse" x1="22.3042" y1="-1" x2="22.3042" y2="43.6079">
		<stop  offset="0" style="stop-color:#FCBB7C"/>
		<stop  offset="1" style="stop-color:#F78C1E"/>
	</linearGradient>
	<path style="fill:url(#SVGID_1_);" d="M41.826-1H41.82H2.788C1.245-1,0,0.25,0,1.79v39.03c0,1.542,1.245,2.787,2.788,2.787H41.82
		c1.539,0,2.789-1.245,2.789-2.787V1.79C44.609,0.252,43.369-0.992,41.826-1z"/>
	<path style="fill:#FFFFFF;" d="M9.297,30.604c2.052,0,3.714,1.664,3.714,3.716c0,2.054-1.663,3.716-3.714,3.716
		c-2.055,0-3.718-1.662-3.718-3.716C5.579,32.268,7.242,30.604,9.297,30.604z"/>
	<path style="fill:#FFFFFF;" d="M5.582,4.583v5.575c15.396,0,27.877,12.482,27.877,27.877h5.578
		C39.037,19.561,24.055,4.583,5.582,4.583z"/>
	<path style="fill:#FFFFFF;" d="M5.582,17.593v5.573c8.21,0,14.868,6.662,14.868,14.869h5.576
		C26.025,26.746,16.874,17.593,5.582,17.593z"/>
	<g>
		<path style="fill:#FCBE81;" d="M2.144,40.82V1.794c0-0.358,0.291-0.646,0.646-0.646H41.82c0.189,0,0.355,0.083,0.475,0.212
			l1.518-1.52C43.307-0.676,42.605-0.994,41.826-1H41.82H2.788C1.245-1,0,0.25,0,1.79v39.03c0,0.781,0.323,1.487,0.837,1.992
			l1.519-1.52C2.226,41.178,2.144,41.012,2.144,40.82z"/>
		<path style="fill:#D77A27;" d="M41.82,43.607c1.539,0,2.789-1.245,2.789-2.787V1.79c0-0.759-0.305-1.448-0.797-1.95l-1.518,1.52
			c0.103,0.113,0.172,0.264,0.172,0.435V40.82c0,0.361-0.285,0.644-0.646,0.644H2.789c-0.171,0-0.32-0.065-0.434-0.171l-1.519,1.52
			c0.505,0.49,1.19,0.795,1.951,0.795H41.82z"/>
	</g>
</g>
</svg>
