<?xml version="1.0" encoding="iso-8859-1"?>
<!-- Generator: Adobe Illustrator 14.0.0, SVG Export Plug-In . SVG Version: 6.00 Build 43363)  -->
<!DOCTYPE svg PUBLIC "-//W3C//DTD SVG 1.1//EN" "http://www.w3.org/Graphics/SVG/1.1/DTD/svg11.dtd">
<svg version="1.1" id="icon-m-content-file-unknown-layer"
	 xmlns="http://www.w3.org/2000/svg" xmlns:xlink="http://www.w3.org/1999/xlink" x="0px" y="0px" width="64px" height="64px"
	 viewBox="0 0 64 64" style="enable-background:new 0 0 64 64;" xml:space="preserve">
<g id="icon-m-content-file-unknown">
	<rect style="fill:none;" width="64" height="64"/>
	<polygon style="fill:#333333;" points="38.668,0.359 38.668,22.235 59.873,22.235 59.873,21.562 	"/>
	<path style="fill:#333333;" d="M38.152,27.396c-2.562,0-4.645-2.084-4.645-4.645V0H6.194C5.06,0,4.128,0.93,4.128,2.064v59.871
		C4.128,63.071,5.06,64,6.194,64h51.614c1.133,0,2.064-0.929,2.064-2.064V27.396H38.152z M18.854,59
		c-2.617,0-4.701-2.082-4.701-4.699c0-2.615,2.084-4.748,4.701-4.748c2.619,0,4.756,2.133,4.756,4.748
		C23.609,56.918,21.473,59,18.854,59z M25.881,37.291c-2.34,2.195-3.344,3.34-3.344,5.299v1.957h-8.191v-2.291
		c0-3.295,1.624-5.254,4.108-7.543c1.816-1.672,3.345-3.104,3.345-5.348c0-2.77-1.814-4.25-4.827-4.25
		c-1.622,0-3.821,0.383-5.972,0.955v-4.584c2.247-0.523,5.755-0.953,8.287-0.953c6.117,0,11.325,2.053,11.325,8.449
		C30.612,32.945,28.174,35.096,25.881,37.291z"/>
</g>
</svg>
