<?xml version="1.0" encoding="iso-8859-1"?>
<!-- Generator: Adobe Illustrator 14.0.0, SVG Export Plug-In . SVG Version: 6.00 Build 43363)  -->
<!DOCTYPE svg PUBLIC "-//W3C//DTD SVG 1.1//EN" "http://www.w3.org/Graphics/SVG/1.1/DTD/svg11.dtd">
<svg version="1.1" id="icon-m-toolbar-locked-layer"
	 xmlns="http://www.w3.org/2000/svg" xmlns:xlink="http://www.w3.org/1999/xlink" x="0px" y="0px" width="64px" height="64px"
	 viewBox="0 0 64 64" style="enable-background:new 0 0 64 64;" xml:space="preserve">
<g id="icon-m-toolbar-locked">
	<rect style="fill:none;" width="64" height="64"/>
	<g>
		<path style="fill:#FFFFFF;" d="M50.5,27.438h-2.491c-0.002-3.225-0.008-7.395-0.008-7.498C48,11.182,40.839,4.088,32,4.086
			c-8.839,0.002-15.998,7.096-16.001,15.854c0,0.104-0.006,4.236-0.007,7.498H13.5c-1.275,0-2.314,1.008-2.314,2.244v27.983
			c0,1.233,1.039,2.249,2.314,2.249h37c1.271,0,2.313-1.008,2.313-2.249V29.682C52.812,28.445,51.771,27.438,50.5,27.438z
			 M20.892,19.939C20.902,13.862,25.866,8.941,32,8.934c6.135,0.008,11.1,4.929,11.109,11.006c-0.002,0.104,0.005,4.273,0.007,7.498
			h-22.21C20.899,24.176,20.892,20.044,20.892,19.939z M35.178,43.383v10.252h-6.137V43.516c-1.704-1.012-2.849-2.865-2.849-4.99
			c0-3.209,2.6-5.809,5.808-5.809c3.207,0,5.809,2.6,5.809,5.809C37.809,40.559,36.761,42.346,35.178,43.383z"/>
	</g>
</g>
</svg>
