<?xml version="1.0" encoding="iso-8859-1"?>
<!-- Generator: Adobe Illustrator 14.0.0, SVG Export Plug-In . SVG Version: 6.00 Build 43363)  -->
<!DOCTYPE svg PUBLIC "-//W3C//DTD SVG 1.1//EN" "http://www.w3.org/Graphics/SVG/1.1/DTD/svg11.dtd">
<svg version="1.1" id="icon-l-content-manager-layer"
	 xmlns="http://www.w3.org/2000/svg" xmlns:xlink="http://www.w3.org/1999/xlink" x="0px" y="0px" width="72px" height="72px"
	 viewBox="0 0 72 72" style="enable-background:new 0 0 72 72;" xml:space="preserve">
<g id="icon-l-content-manager">
	<g>
		<path style="opacity:0.2;" d="M20.742,9.828c-2.201,0-3.992,1.791-3.992,3.992c0,0,0,5.842,0,8.22c-2.241,0-7,0-7,0
			C8.782,22.04,8,22.824,8,23.791v35.008c0,0.967,0.783,1.75,1.75,1.75h52.499c0.968,0,1.751-0.783,1.751-1.75V23.791
			c0-0.967-0.783-1.751-1.751-1.751c0,0-4.737,0-6.974,0c0-1.624,0-3.739,0-3.739c0-1.583-1.289-2.871-2.873-2.871
			c0,0-14.475,0-15.994,0c-0.819-1.023-3.953-4.945-3.953-4.945c-0.333-0.414-0.836-0.656-1.368-0.656H20.742z"/>
		<rect x="9.75" y="55.291" style="opacity:0.5;" width="52.499" height="3.508"/>
		<linearGradient id="SVGID_1_" gradientUnits="userSpaceOnUse" x1="35.9995" y1="10.9351" x2="35.9995" y2="71.9842">
			<stop  offset="0" style="stop-color:#E6E5F3"/>
			<stop  offset="1" style="stop-color:#333442"/>
		</linearGradient>
		<rect x="9.75" y="22.04" style="fill:url(#SVGID_1_);" width="52.499" height="35.009"/>
		<polygon style="opacity:0.15;fill:#FFFFFF;" points="11.5,55.295 11.5,23.796 60.5,23.796 62.249,22.04 9.75,22.04 9.75,57.049 		
			"/>
		<polygon style="opacity:0.2;fill:#010101;" points="60.5,23.796 60.5,55.295 11.5,55.295 9.75,57.049 62.249,57.049 62.249,22.04 
					"/>
		<path style="opacity:0.3;fill:#010101;" d="M17.625,22.04v7.88H15c-0.483,0-0.876,0.394-0.876,0.876v24.501
			c0,0.482,0.394,0.877,0.876,0.877h42c0.481,0,0.877-0.395,0.877-0.877V30.796c0-0.482-0.396-0.876-0.877-0.876h-2.6v-7.88H17.625z
			"/>
		<linearGradient id="SVGID_2_" gradientUnits="userSpaceOnUse" x1="36.0122" y1="9.8062" x2="36.0122" y2="39.0239">
			<stop  offset="0" style="stop-color:#FEE23F"/>
			<stop  offset="0.1759" style="stop-color:#FAD63A"/>
			<stop  offset="0.5155" style="stop-color:#F1B831"/>
			<stop  offset="0.981" style="stop-color:#E48A25"/>
			<stop  offset="1" style="stop-color:#E38825"/>
		</linearGradient>
		<path style="fill:url(#SVGID_2_);" d="M52.402,15.43H35.567l-4.479-5.602L18.5,12.07v17.605h35.025V16.551
			C53.525,15.932,53.025,15.43,52.402,15.43z"/>
		<linearGradient id="SVGID_3_" gradientUnits="userSpaceOnUse" x1="27.0337" y1="4.5459" x2="27.0337" y2="39.5428">
			<stop  offset="0" style="stop-color:#FEE23F"/>
			<stop  offset="0.1759" style="stop-color:#FAD63A"/>
			<stop  offset="0.5155" style="stop-color:#F1B831"/>
			<stop  offset="0.981" style="stop-color:#E48A25"/>
			<stop  offset="1" style="stop-color:#E38825"/>
		</linearGradient>
		<path style="fill:url(#SVGID_3_);" d="M35.567,15.43l-4.479-5.602H20.742c-1.234,0-2.242,1.011-2.242,2.242v3.359H35.567z"/>
		<linearGradient id="SVGID_4_" gradientUnits="userSpaceOnUse" x1="36" y1="29.0488" x2="36" y2="53.5488">
			<stop  offset="0" style="stop-color:#E6E6E6"/>
			<stop  offset="1" style="stop-color:#B3B2C9"/>
		</linearGradient>
		<rect x="15" y="29.049" style="fill:url(#SVGID_4_);" width="42" height="24.5"/>
		<polygon style="opacity:0.2;fill:#010101;" points="55.25,30.799 55.25,51.799 16.75,51.799 16.75,51.797 15,53.549 57,53.549 
			57,29.049 		"/>
		<polygon style="opacity:0.35;fill:#FFFFFF;" points="57,29.049 15,29.049 15,53.549 16.75,51.797 16.75,30.799 55.25,30.799 		"/>
		<polygon style="opacity:0.25;fill:#FFFFFF;" points="27.248,42.397 27.248,34.299 44.616,34.299 52.121,30.799 16.75,30.799 
			16.75,47.293 		"/>
		
			<linearGradient id="SVGID_5_" gradientUnits="userSpaceOnUse" x1="36.1284" y1="309.8457" x2="36.1284" y2="317.2839" gradientTransform="matrix(1 0 0 0.7752 -0.1284 -204.3631)">
			<stop  offset="0" style="stop-color:#FFFFFF"/>
			<stop  offset="1" style="stop-color:#E6E6E6"/>
		</linearGradient>
		<rect x="29" y="36.049" style="fill:url(#SVGID_5_);" width="14" height="5.25"/>
		<polygon style="opacity:0.25;fill:#FFFFFF;" points="43,36.092 43,41.299 29,41.299 27.248,43.049 44.748,43.049 44.748,34.342 		
			"/>
		<polygon style="opacity:0.15;" points="29,41.299 29,36.049 43,36.049 44.748,34.299 27.248,34.299 27.248,43.049 		"/>
	</g>
	<rect style="fill:none;" width="72" height="72"/>
</g>
</svg>
