<?xml version="1.0" encoding="iso-8859-1"?>
<!-- Generator: Adobe Illustrator 14.0.0, SVG Export Plug-In . SVG Version: 6.00 Build 43363)  -->
<!DOCTYPE svg PUBLIC "-//W3C//DTD SVG 1.1//EN" "http://www.w3.org/Graphics/SVG/1.1/DTD/svg11.dtd">
<svg version="1.1" id="icon-m-email-message-forward-layer"
	 xmlns="http://www.w3.org/2000/svg" xmlns:xlink="http://www.w3.org/1999/xlink" x="0px" y="0px" width="64px" height="64px"
	 viewBox="0 0 64 64" style="enable-background:new 0 0 64 64;" xml:space="preserve">
<g id="icon-m-email-message-forward">
	<rect style="fill:none;" width="64" height="64"/>
	<path style="fill:#333333;" d="M40.82,13.851v-0.244c0-3.025-2.46-5.518-5.433-5.518H6.008c-2.992,0-5.447,2.492-5.447,5.518v0.244
		l20.132,8.948L40.82,13.851z M44.266,17.765c-5.613,0-10.646,2.418-14.153,6.244l-8.818,3.911l-0.602,0.258L20.09,27.92
		L0.561,19.261V31.47c0,3.054,2.455,5.524,5.447,5.524h19.09c0.08,10.453,8.626,18.918,19.168,18.918
		c10.58,0,19.17-8.539,19.17-19.062C63.436,26.313,54.846,17.765,44.266,17.765z M44.338,25.795l9.438,9.533
		c0.335,0.295,0.331,0.805,0.003,1.098l-9.441,9.584c-0.553,0.486-1.262,0.006-1.262-0.551v-5.736h-7.688
		c-0.421,0-0.755-0.33-0.755-0.74v-6.21c0-0.461,0.395-0.742,0.755-0.742h7.686l0.003-5.686
		C43.076,25.845,43.684,25.218,44.338,25.795z"/>
</g>
</svg>
