<?xml version="1.0" encoding="iso-8859-1"?>
<!-- Generator: Adobe Illustrator 14.0.0, SVG Export Plug-In . SVG Version: 6.00 Build 43363)  -->
<!DOCTYPE svg PUBLIC "-//W3C//DTD SVG 1.1//EN" "http://www.w3.org/Graphics/SVG/1.1/DTD/svg11.dtd">
<svg version="1.1" id="icon-s-status-jabber-layer" xmlns="http://www.w3.org/2000/svg" xmlns:xlink="http://www.w3.org/1999/xlink"
	 x="0px" y="0px" width="13px" height="18px" viewBox="0 0 13 18" style="enable-background:new 0 0 13 18;" xml:space="preserve">
<g id="icon-s-status-jabber">
	<rect style="fill:none;" width="13" height="18"/>
	<path style="fill:#FFFFFF;" d="M12.549,6.96c-0.67-2.884-2.16-6.743-7.343-6.96h-1.04C3.34,0.035,2.306,0.281,1.401,0.66
		L1.295,0.704C0.859,0.883,0.364,1.084,0.46,1.852v1.093l0.003,0.03c0.032,0.147,0.13,0.599,0.473,0.599
		c0.303,0,0.603-0.383,0.891-0.752c0.118-0.15,0.229-0.292,0.311-0.364c0.532-0.471,1.618-0.74,2.98-0.74
		c0.596,0,1.205,0.054,1.716,0.152C8.166,2.127,9.32,2.797,9.998,3.707c0.701,0.938,1.332,2.57,1.156,4.096
		c-0.166,1.438-1.35,2.507-2.486,3.361c-1.127,0.848-2.216,1.86-2.093,4.076l0.002,0.061c0.022,0.452,0.075,1.515,0.649,1.514
		c0.083,0,0.17-0.023,0.26-0.071c0.318-0.17,0.234-0.666,0.146-1.19c-0.037-0.229-0.076-0.465-0.072-0.643
		c0.025-1.475,1.004-2.127,2.043-2.817c0.438-0.291,0.889-0.593,1.254-0.957c0.912-0.911,1.418-1.859,1.691-3.171l0.004-0.974
		L12.549,6.96z"/>
	<path style="fill:#FFFFFF;" d="M4.935,10.828c-0.105,0.209-0.185,0.504-0.089,0.71c0.047,0.102,0.13,0.169,0.24,0.196
		c0.032,0.007,0.064,0.012,0.096,0.012c0.307,0,0.504-0.336,0.661-0.604c0.045-0.075,0.085-0.146,0.124-0.198
		c0.086-0.113,0.165-0.212,0.237-0.302c0.154-0.188,0.287-0.352,0.397-0.577c0.308-0.627,0.436-1.799-0.067-2.206
		c-0.14-0.112-0.296-0.172-0.465-0.172c-0.492,0-0.938,0.485-1.206,0.774l-0.03,0.033c-0.001-0.018-0.002-0.035-0.004-0.05
		C4.821,8.327,4.813,8.206,4.771,8.113c-0.198-0.42-0.682-0.68-1.2-0.64c-0.5,0.041-1.095,0.345-1.103,1.555
		c0,0.013,0.011,1.304,0.41,1.706c0.151,0.152,0.353,0.166,0.545,0.033c0.25-0.17,0.203-0.633,0.144-1.218
		c-0.049-0.481-0.11-1.079,0.075-1.284c0.061-0.068,0.15-0.089,0.277-0.074c0.172,0.023,0.203,0.384,0.229,0.7
		C4.181,9.276,4.211,9.64,4.5,9.697l0.034,0.002c0.119,0,0.262-0.115,0.536-0.363c0.066-0.059,0.123-0.109,0.16-0.137l0.032-0.025
		C5.426,9.05,5.702,8.842,5.856,8.842c0.026,0,0.076,0,0.1,0.149c0.053,0.341-0.319,0.841-0.619,1.243
		C5.175,10.449,5.023,10.652,4.935,10.828z"/>
	<path style="fill:#FFFFFF;" d="M1.488,11.67c-0.31,0.058-0.429,0.236-0.473,0.375c-0.139,0.434,0.25,1.03,0.399,1.186
		c0.695,0.727,2.017,1.254,3.143,1.254c0.139,0,1.362-0.013,1.712-0.474c0.09-0.12,0.116-0.263,0.076-0.411
		c-0.027-0.097-0.124-0.26-0.469-0.26c-0.106,0-0.226,0.016-0.347,0.045c-1.013,0.246-1.914,0.067-2.532-0.5
		c-0.096-0.086-0.202-0.236-0.315-0.393C2.389,12.086,2.014,11.571,1.488,11.67z"/>
	<path style="fill:#FFFFFF;" d="M0.636,13.908c-0.072,0.209,0.087,0.435,0.27,0.646c0.825,0.956,2.419,1.68,3.879,1.762
		c0.09,0.004,0.193,0.008,0.302,0.008c0.687,0,1.104-0.104,1.239-0.307c0.126-0.188,0.103-0.445,0.038-0.621
		c-0.068-0.187-0.185-0.314-0.321-0.355c-0.12-0.034-0.319,0.006-0.493,0.043c-0.079,0.019-0.153,0.036-0.206,0.039
		c-1.184,0.084-1.998-0.237-2.557-0.517c-0.16-0.08-0.339-0.226-0.527-0.381c-0.396-0.323-0.814-0.661-1.245-0.577
		C0.809,13.688,0.683,13.776,0.636,13.908z"/>
	<path style="fill:#FFFFFF;" d="M6.409,16.748c-0.216,0-0.562,0.097-0.896,0.189c-0.236,0.066-0.479,0.136-0.584,0.136
		c-0.779,0-2.228-0.478-2.672-0.88c-0.036-0.032-0.095-0.125-0.152-0.213c-0.178-0.28-0.422-0.662-0.816-0.68
		c-0.345,0-0.614,0.322-0.65,0.624c-0.067,0.556,0.398,1.051,1.382,1.474C2.664,17.674,3.409,17.887,4.143,18h0.991l0.017-0.004
		c0.064-0.016,0.128-0.03,0.196-0.044c0.198-0.042,0.422-0.089,0.658-0.202c0.259-0.125,0.846-0.457,0.689-0.855
		C6.654,16.797,6.56,16.748,6.409,16.748z"/>
</g>
</svg>
