<?xml version="1.0" encoding="iso-8859-1"?>
<!-- Generator: Adobe Illustrator 14.0.0, SVG Export Plug-In . SVG Version: 6.00 Build 43363)  -->
<!DOCTYPE svg PUBLIC "-//W3C//DTD SVG 1.1//EN" "http://www.w3.org/Graphics/SVG/1.1/DTD/svg11.dtd">
<svg version="1.1" id="icon-m-calendar-public-layer"
	 xmlns="http://www.w3.org/2000/svg" xmlns:xlink="http://www.w3.org/1999/xlink" x="0px" y="0px" width="64px" height="64px"
	 viewBox="0 0 64 64" style="enable-background:new 0 0 64 64;" xml:space="preserve">
<g id="icon-m-calendar-public">
	<rect style="fill:none;" width="64" height="64"/>
	<path style="fill:#333333;" d="M11.517,10.164h0.431c0.965,0,1.753-0.794,1.753-1.762V1.761C13.701,0.793,12.913,0,11.948,0h-0.431
		c-0.965,0-1.754,0.793-1.754,1.761v6.642C9.763,9.37,10.552,10.164,11.517,10.164z"/>
	<path style="fill:#333333;" d="M33.379,10.164h0.432c0.965,0,1.754-0.794,1.754-1.762V1.761C35.564,0.793,34.775,0,33.811,0h-0.432
		c-0.964,0-1.754,0.793-1.754,1.761v6.642C31.625,9.37,32.415,10.164,33.379,10.164z"/>
	<path style="fill:#333333;" d="M45.061,8.197h-5.885c-0.324,2.959-2.783,5.262-5.772,5.262c-2.989,0-5.448-2.303-5.772-5.262
		H17.312c-0.323,2.959-2.783,5.262-5.771,5.262c-2.99,0-5.448-2.303-5.773-5.262H0.021v8.732h45.039V8.197z"/>
	<path style="fill:#333333;" d="M22,46c0-3.076,0.588-6.018,1.648-8.723v-3.905h1.955c0.447-0.72,0.932-1.411,1.45-2.077h-3.405
		v-7.701h7.827v3.318c0.67-0.512,1.365-0.992,2.088-1.432v-1.887h3.854c2.371-0.912,4.92-1.459,7.581-1.567l0.001-1.71H0.021
		L0,52.27c0,0.928,0.759,1.688,1.688,1.688h21.674C22.483,51.465,22,48.789,22,46z M11.557,50.682H3.732v-7.617h7.825V50.682z
		 M11.557,40.988H3.732v-7.616h7.825V40.988z M11.557,31.295H3.732v-7.701h7.825V31.295z M21.56,50.682h-7.915v-7.617h7.915V50.682z
		 M13.688,40.988v-7.616h7.827v7.616H13.688z M21.56,31.295h-7.915v-7.701h7.915V31.295z"/>
	<path style="fill:#333333;" d="M46,28c-9.941,0-18,8.06-18,18c0,9.941,8.059,18,18,18c9.94,0,18-8.059,18-18
		C64,36.06,55.94,28,46,28z M39.621,37.01c2.074,0,3.754,1.633,3.754,3.644c0,2.003-1.68,3.631-3.754,3.631
		c-2.076,0-3.756-1.628-3.756-3.631C35.865,38.643,37.545,37.01,39.621,37.01z M44.883,54.99h-2.318h-5.969h-2.318v-4.842
		c0-2.493,2.367-4.513,5.289-4.513c0.005,0,0.01,0.001,0.014,0.001c0.006,0,0.01-0.001,0.015-0.001c2.923,0,5.288,2.02,5.288,4.513
		V54.99z M52.46,37.01c2.073,0,3.754,1.633,3.754,3.644c0,2.003-1.681,3.631-3.754,3.631c-2.077,0-3.757-1.628-3.757-3.631
		C48.703,38.643,50.383,37.01,52.46,37.01z M57.723,54.99h-2.319h-5.969h-2.317v-4.842c0-2.493,2.365-4.513,5.287-4.513
		c0.006,0,0.01,0.001,0.015,0.001s0.01-0.001,0.015-0.001c2.922,0,5.289,2.02,5.289,4.513V54.99z"/>
</g>
</svg>
