<?xml version="1.0" encoding="iso-8859-1"?>
<!-- Generator: Adobe Illustrator 14.0.0, SVG Export Plug-In . SVG Version: 6.00 Build 43363)  -->
<!DOCTYPE svg PUBLIC "-//W3C//DTD SVG 1.1//EN" "http://www.w3.org/Graphics/SVG/1.1/DTD/svg11.dtd">
<svg version="1.1" id="icon-m-energy-management-battery88-layer"
	 xmlns="http://www.w3.org/2000/svg" xmlns:xlink="http://www.w3.org/1999/xlink" x="0px" y="0px" width="64px" height="64px"
	 viewBox="0 0 64 64" style="enable-background:new 0 0 64 64;" xml:space="preserve">
<g id="icon-m-energy-management-battery88">
	<rect style="fill:none;" width="64" height="64"/>
	<path style="fill:#333333;" d="M25.452,3.377v2.818H15.379c-1.033,0-1.878,0.845-1.878,1.878v52.546
		c0,1.033,0.845,1.881,1.878,1.881h33.242c1.033,0,1.879-0.848,1.879-1.881V8.073c0-1.033-0.846-1.878-1.879-1.878H38.547V3.377
		c0-1.033-0.848-1.879-1.879-1.879h-9.335C26.299,1.498,25.452,2.344,25.452,3.377z M44.219,11.89c1.033,0,1.879,0.846,1.879,1.879
		v43.17c0,1.032-0.846,1.878-1.879,1.878H19.786c-1.033,0-1.878-0.846-1.878-1.878v-43.17c0-1.033,0.845-1.879,1.878-1.879H44.219z"
		/>
	<rect x="21.243" y="19.17" style="fill:#333333;" width="21.516" height="36.282"/>
</g>
</svg>
