<?xml version="1.0" encoding="iso-8859-1"?>
<!-- Generator: Adobe Illustrator 14.0.0, SVG Export Plug-In . SVG Version: 6.00 Build 43363)  -->
<!DOCTYPE svg PUBLIC "-//W3C//DTD SVG 1.1//EN" "http://www.w3.org/Graphics/SVG/1.1/DTD/svg11.dtd">
<svg version="1.1" id="icon-m-music-video-dlna-server-layer"
	 xmlns="http://www.w3.org/2000/svg" xmlns:xlink="http://www.w3.org/1999/xlink" x="0px" y="0px" width="64px" height="64px"
	 viewBox="0 0 64 64" style="enable-background:new 0 0 64 64;" xml:space="preserve">
<g id="icon-m-music-video-dlna-server">
	<rect style="fill:none;" width="64" height="64"/>
	<path style="fill:#333333;" d="M44.516,47.702c-0.098,0.004-1.877-0.084-2.955,1.096c-0.053,0.055-0.096,0.09-0.135,0.129
		c-0.848,1.047-2.145,1.715-3.596,1.715c-2.561,0-4.631-2.078-4.631-4.642c0-2.565,2.07-4.644,4.631-4.644
		c1.473,0,2.789,0.69,3.629,1.763c0.035,0.032,0.063,0.055,0.102,0.095c0.914,1.007,2.355,1.036,2.813,1.084H64
		C63.143,35.155,55.453,28,46.086,28c-5.799,0-10.941,2.752-14.234,7.011h11.525c0.1-0.003,1.877,0.085,2.955-1.096
		c0.053-0.054,0.096-0.09,0.135-0.129c0.848-1.047,2.145-1.716,3.596-1.716c2.561,0,4.631,2.079,4.631,4.644
		s-2.07,4.643-4.631,4.643c-1.473,0-2.787-0.69-3.627-1.763c-0.035-0.031-0.064-0.054-0.104-0.094
		c-0.914-1.007-2.355-1.037-2.813-1.085H29.779c-1.075,2.309-1.693,4.871-1.693,7.585c0,2.712,0.617,5.274,1.692,7.581h13.599
		c0.1-0.002,1.877,0.085,2.955-1.094c0.053-0.055,0.096-0.09,0.135-0.13c0.848-1.047,2.145-1.716,3.596-1.716
		c2.561,0,4.631,2.08,4.631,4.643c0,2.566-2.07,4.644-4.631,4.644c-1.473,0-2.787-0.69-3.627-1.763
		c-0.035-0.031-0.064-0.055-0.104-0.094c-0.914-1.008-2.355-1.037-2.813-1.084H31.851C35.143,61.245,40.287,64,46.086,64
		C55.453,64,63.141,56.845,64,47.702H44.516z"/>
	<path style="fill:#333333;" d="M22,46c0-11.819,8.59-21.664,19.854-23.634V3.476c0-1.899-1.563-3.444-3.488-3.444H3.488
		C1.564,0.031,0,1.576,0,3.476v48.263c0,1.902,1.564,3.449,3.488,3.449h20.343C22.653,52.355,22,49.252,22,46z M8.46,8.381
		c0-0.489,0.403-0.889,0.891-0.889h23.153c0.49,0,0.891,0.399,0.891,0.889v3.559c0,0.49-0.401,0.89-0.891,0.89H9.351
		c-0.488,0-0.891-0.399-0.891-0.89V8.381z M8.46,17.5c0-0.487,0.403-0.891,0.891-0.891h23.153c0.49,0,0.891,0.403,0.891,0.891v3.558
		c0,0.49-0.401,0.891-0.891,0.891H9.351c-0.488,0-0.891-0.4-0.891-0.891V17.5z M15.443,32.81c0,0.55-0.451,0.998-1,0.998h-5
		c-0.552,0-1-0.448-1-0.998v-4.996c0-0.55,0.449-0.999,1-0.999h5c0.549,0,1,0.449,1,0.999V32.81z"/>
</g>
</svg>
