<?xml version="1.0" encoding="iso-8859-1"?>
<!-- Generator: Adobe Illustrator 14.0.0, SVG Export Plug-In . SVG Version: 6.00 Build 43363)  -->
<!DOCTYPE svg PUBLIC "-//W3C//DTD SVG 1.1//EN" "http://www.w3.org/Graphics/SVG/1.1/DTD/svg11.dtd">
<svg version="1.1" id="icon-m-mms-layer" xmlns="http://www.w3.org/2000/svg" xmlns:xlink="http://www.w3.org/1999/xlink" x="0px"
	 y="0px" width="48px" height="48px" viewBox="0 0 48 48" style="enable-background:new 0 0 48 48;" xml:space="preserve">
<g id="icon-m-mms">
	<rect style="fill:none;" width="48" height="48"/>
	<g>
		<polygon style="opacity:0.2;fill:#010101;stroke:#010101;stroke-width:2;stroke-linejoin:round;" points="46.091,43.468 
			46.084,23.711 43.752,23.713 43.752,10.123 4.091,10.123 4.091,37.536 21.945,37.536 21.947,43.477 		"/>
		<polygon style="opacity:0.5;fill:#010101;" points="46.091,43.468 46.084,23.711 43.752,23.713 43.752,10.123 4.091,10.123 
			4.091,37.536 21.945,37.536 21.947,43.477 		"/>
		<linearGradient id="SVGID_1_" gradientUnits="userSpaceOnUse" x1="23.9214" y1="8.7207" x2="23.9214" y2="46.3979">
			<stop  offset="0" style="stop-color:#FEE23F"/>
			<stop  offset="0.1759" style="stop-color:#FAD63A"/>
			<stop  offset="0.5155" style="stop-color:#F1B831"/>
			<stop  offset="0.981" style="stop-color:#E48A25"/>
			<stop  offset="1" style="stop-color:#E38825"/>
		</linearGradient>
		<rect x="4.091" y="8.888" style="fill:url(#SVGID_1_);" width="39.661" height="27.413"/>
		<polygon style="opacity:0.2;" points="29.533,21.174 28.67,21.812 43.752,36.281 43.752,34.812 		"/>
		<polygon style="opacity:0.3;fill:#FFFFFF;enable-background:new    ;" points="18.385,21.159 4.091,34.803 4.091,36.269 
			19.25,21.801 		"/>
		<linearGradient id="SVGID_2_" gradientUnits="userSpaceOnUse" x1="23.9214" y1="8.5664" x2="23.9214" y2="41.9192">
			<stop  offset="0" style="stop-color:#FEE23F"/>
			<stop  offset="0.1759" style="stop-color:#FAD63A"/>
			<stop  offset="0.5155" style="stop-color:#F1B831"/>
			<stop  offset="0.981" style="stop-color:#E48A25"/>
			<stop  offset="1" style="stop-color:#E38825"/>
		</linearGradient>
		<path style="fill:url(#SVGID_2_);" d="M4.091,10.584l17.721,13.113c0,0,2.049,1.618,4.326,0l17.614-13.113V8.888H4.091V10.584z"/>
		<path style="opacity:0.2;" d="M26.75,24.561c-1.408,0.996-2.746,0.914-2.746,0.914c-1.689-0.016-2.823-0.926-2.823-0.926
			L4.091,11.896v1.317l16.547,12.249c0,0,1.558,1.052,3.355,1.074c0,0,1.798,0.13,3.372-1.113l16.387-12.186v-1.32L26.75,24.561z"/>
		<path style="opacity:0.4;" d="M26.138,23.697c-2.277,1.618-4.326,0-4.326,0L4.091,10.584v1.312l17.09,12.652
			c0,0,1.134,0.91,2.823,0.926c0,0,1.371,0.065,2.746-0.914l17.002-12.643v-1.334L26.138,23.697z"/>
		<path style="opacity:0.3;fill:#010101;" d="M43.752,23.094l-21.812,0.01c-0.341,0-0.618,0.276-0.618,0.617l0.003,12.58h22.426
			V23.094z"/>
		<linearGradient id="SVGID_3_" gradientUnits="userSpaceOnUse" x1="34.0156" y1="21.959" x2="34.0156" y2="66.8078">
			<stop  offset="0" style="stop-color:#FFFFFF"/>
			<stop  offset="1" style="stop-color:#B3B3B3"/>
		</linearGradient>
		<polygon style="fill:url(#SVGID_3_);" points="46.091,42.232 21.947,42.24 21.94,22.486 46.084,22.477 		"/>
		<linearGradient id="SVGID_4_" gradientUnits="userSpaceOnUse" x1="34.0156" y1="23.5825" x2="34.0156" y2="61.4265">
			<stop  offset="0" style="stop-color:#FFFFFF"/>
			<stop  offset="1" style="stop-color:#B3B3B3"/>
		</linearGradient>
		<polygon style="fill:url(#SVGID_4_);" points="44.516,40.689 23.521,40.696 23.516,24.028 44.51,24.02 		"/>
		<linearGradient id="SVGID_5_" gradientUnits="userSpaceOnUse" x1="34.0146" y1="32.5762" x2="34.0146" y2="20.7994">
			<stop  offset="0" style="stop-color:#DEEDF8"/>
			<stop  offset="0.2511" style="stop-color:#C1E4F7"/>
			<stop  offset="0.7909" style="stop-color:#6DCDF3"/>
			<stop  offset="1" style="stop-color:#3AC5F2"/>
		</linearGradient>
		<rect x="23.517" y="24.024" style="fill:url(#SVGID_5_);" width="20.995" height="16.67"/>
		<linearGradient id="SVGID_6_" gradientUnits="userSpaceOnUse" x1="34.9824" y1="23.6484" x2="34.9824" y2="46.2036">
			<stop  offset="0" style="stop-color:#7EC242"/>
			<stop  offset="1" style="stop-color:#1D6433"/>
		</linearGradient>
		<polygon style="fill:url(#SVGID_6_);" points="25.451,40.696 44.515,40.689 44.512,30.026 40.455,25.972 		"/>
		<linearGradient id="SVGID_7_" gradientUnits="userSpaceOnUse" x1="31.751" y1="30.5576" x2="31.751" y2="47.955">
			<stop  offset="0" style="stop-color:#7EC242"/>
			<stop  offset="1" style="stop-color:#1D6433"/>
		</linearGradient>
		<polygon style="fill:url(#SVGID_7_);" points="23.522,40.696 39.984,40.69 27.055,27.986 23.518,31.521 		"/>
	</g>
</g>
</svg>
