<?xml version="1.0" encoding="iso-8859-1"?>
<!-- Generator: Adobe Illustrator 14.0.0, SVG Export Plug-In . SVG Version: 6.00 Build 43363)  -->
<!DOCTYPE svg PUBLIC "-//W3C//DTD SVG 1.1//EN" "http://www.w3.org/Graphics/SVG/1.1/DTD/svg11.dtd">
<svg version="1.1" id="icon-s-status-wlan-layer" xmlns="http://www.w3.org/2000/svg" xmlns:xlink="http://www.w3.org/1999/xlink"
	 x="0px" y="0px" width="22px" height="18px" viewBox="0 0 22 18" style="enable-background:new 0 0 22 18;" xml:space="preserve">
<g id="icon-s-status-wlan">
	<rect style="fill:none;" width="22" height="18"/>
	<path style="fill:#FFFFFF;" d="M1.459,0.229C1.415,0.298,0,2.379,0,5.002c0,2.705,1.413,4.701,1.457,4.77
		C1.688,9.605,2.081,9.32,2.313,9.156C2.27,9.09,1.035,7.256,1.035,5.002c0-2.436,1.234-4.088,1.277-4.154
		C2.081,0.68,1.689,0.393,1.459,0.229"/>
	<path style="fill:#FFFFFF;" d="M5.838,7.438c-0.049-0.07-0.803-1.252-0.803-2.523c0-1.415,0.754-2.457,0.8-2.523
		C5.604,2.225,5.207,1.943,4.976,1.771C4.931,1.846,4,3.082,4,4.914c0,1.797,0.931,3.072,0.976,3.139
		C5.209,7.889,5.604,7.602,5.838,7.438"/>
	<path style="fill:#FFFFFF;" d="M20.541,0.229c-0.23,0.164-0.627,0.451-0.857,0.615C19.727,0.908,21,2.52,21,4.771
		c0,2.436-1.273,4.313-1.316,4.379c0.23,0.17,0.627,0.455,0.857,0.621C20.58,9.705,22,7.397,22,4.771
		C22,2.067,20.587,0.298,20.541,0.229"/>
	<path style="fill:#FFFFFF;" d="M16.031,2.208C16.08,2.28,17,3.502,17,4.771c0,1.416-0.92,2.416-0.967,2.483
		c0.23,0.165,0.623,0.45,0.855,0.619C16.934,7.803,18,6.602,18,4.771c0-1.799-1.064-3.113-1.109-3.178
		C16.66,1.758,16.266,2.042,16.031,2.208"/>
	<path style="fill:#FFFFFF;" d="M14,14.771l-1.812-7.247c0.972-0.42,1.664-1.343,1.78-2.438C14,4.897,14,4.771,14,4.771
		c0-1.656-1.344-3-3-3c-1.657,0-3,1.344-3,3c0,0,0,0.126,0.032,0.314c0.116,1.096,0.807,2.018,1.779,2.438L8.012,14.68L5,15.771v2
		h12v-2L14,14.771z"/>
</g>
</svg>
