<?xml version="1.0" encoding="iso-8859-1"?>
<!-- Generator: Adobe Illustrator 13.0.2, SVG Export Plug-In . SVG Version: 6.00 Build 14948)  -->
<!DOCTYPE svg PUBLIC "-//W3C//DTD SVG 1.1//EN" "http://www.w3.org/Graphics/SVG/1.1/DTD/svg11.dtd">
<svg version="1.1" xmlns="http://www.w3.org/2000/svg" xmlns:xlink="http://www.w3.org/1999/xlink" x="0px" y="0px" width="64px"
	 height="64px" viewBox="0 0 64 64" style="enable-background:new 0 0 64 64;" xml:space="preserve">
	<g id="icon-m-content-email">
		<rect style="fill:none;" width="64" height="64"/>
		<path style="fill:#333333;" d="M29.52,27.278c-1.309,1.794-1.949,4.177-1.949,7.221c0,1.872,0.223,3.261,0.708,4.169
			c0.497,0.904,1.323,1.327,2.515,1.327c2.217,0,3.648-2.728,4.339-8.214l0.913-7.178h-1.791
			C32.43,24.604,30.832,25.498,29.52,27.278z"/>
		<path style="fill:#333333;" d="M32.004,0C14.331,0,0,14.342,0,32.02C0,49.674,14.331,64,32.004,64C49.665,64,64,49.674,64,32.02
			C64,14.342,49.665,0,32.004,0z M50.19,40.479c-1.86,2.225-4.426,3.346-7.683,3.346c-1.475,0-2.822-0.404-3.926-1.236
			c-1.131-0.826-1.928-1.982-2.338-3.447c-1.797,3.113-4.219,4.684-7.273,4.684c-2.07,0-3.811-0.815-5.238-2.438
			c-1.412-1.648-2.168-3.854-2.168-6.639c0-4.373,1.248-7.787,3.74-10.262c2.488-2.49,5.809-3.723,9.961-3.723h7.373
			c-1.199,6.51-1.793,11.367-1.793,14.555c0,1.949,0.217,3.215,0.639,3.822c0.434,0.6,1.191,0.908,2.223,0.908
			c1.373,0,2.41-0.76,3.205-2.316c0.785-1.525,1.168-3.693,1.168-6.496c0-4.929-1.279-8.747-3.82-11.471
			c-2.576-2.716-6.193-4.076-10.844-4.076c-4.906,0-8.875,1.422-11.985,4.287c-3.101,2.853-4.667,6.8-4.667,11.857
			c0,5.637,1.435,9.873,4.293,12.688c2.873,2.85,7.127,4.259,12.803,4.259c3.387,0,6.945-0.606,10.627-1.85v4.265
			c-1.339,0.478-3.117,0.913-5.26,1.265c-2.195,0.345-4.11,0.516-5.785,0.516c-6.688,0-12.053-1.807-15.973-5.403
			c-3.963-3.614-5.951-8.778-5.951-15.495c0-4.207,0.949-7.843,2.787-10.949c1.826-3.084,4.439-5.469,7.828-7.107
			c3.359-1.68,7.082-2.494,11.163-2.494c6.236,0,11.074,1.714,14.521,5.17c3.471,3.434,5.152,8.214,5.152,14.328
			C52.969,35.109,52.078,38.264,50.19,40.479z"/>
	</g>
</svg>
