<?xml version="1.0" encoding="iso-8859-1"?>
<!-- Generator: Adobe Illustrator 14.0.0, SVG Export Plug-In . SVG Version: 6.00 Build 43363)  -->
<!DOCTYPE svg PUBLIC "-//W3C//DTD SVG 1.1//EN" "http://www.w3.org/Graphics/SVG/1.1/DTD/svg11.dtd">
<svg version="1.1" id="icon-l-email-layer" xmlns="http://www.w3.org/2000/svg" xmlns:xlink="http://www.w3.org/1999/xlink" x="0px"
	 y="0px" width="64px" height="64px" viewBox="0 0 64 64" style="enable-background:new 0 0 64 64;" xml:space="preserve">
<g id="icon-l-email">
	<rect style="fill:none;" width="64" height="64"/>
	<g>
		<g style="opacity:0.2;">
			<path style="fill:#231F20;" d="M32.002,59.719C17.25,59.719,5.25,47.716,5.25,32.963c0-14.752,12.001-26.754,26.752-26.754
				c14.749,0,26.748,12.002,26.748,26.754C58.75,47.716,46.751,59.719,32.002,59.719L32.002,59.719z"/>
			<path style="fill:#010101;" d="M32.002,6.959C46.362,6.959,58,18.605,58,32.963c0,14.363-11.638,26.006-25.998,26.006
				C17.64,58.969,6,47.326,6,32.963C6,18.605,17.64,6.959,32.002,6.959 M32.002,5.459C16.837,5.459,4.5,17.797,4.5,32.963
				c0,15.167,12.337,27.506,27.502,27.506c15.162,0,27.498-12.339,27.498-27.506C59.5,17.797,47.164,5.459,32.002,5.459
				L32.002,5.459z"/>
		</g>
		<path style="opacity:0.5;fill:#231F20;" d="M58,32.963c0,14.363-11.638,26.006-25.998,26.006C17.64,58.969,6,47.326,6,32.963
			C6,18.605,17.64,6.959,32.002,6.959C46.362,6.959,58,18.605,58,32.963z"/>
		<linearGradient id="SVGID_1_" gradientUnits="userSpaceOnUse" x1="31.9995" y1="5.0313" x2="31.9995" y2="93.3144">
			<stop  offset="0" style="stop-color:#FFFFFF"/>
			<stop  offset="1" style="stop-color:#B3B2C9"/>
		</linearGradient>
		<path style="fill:url(#SVGID_1_);" d="M58,31.037C58,45.4,46.362,57.041,32.002,57.041C17.64,57.041,6,45.4,6,31.037
			C6,16.68,17.64,5.031,32.002,5.031C46.362,5.031,58,16.68,58,31.037z"/>
		<linearGradient id="SVGID_2_" gradientUnits="userSpaceOnUse" x1="31.9971" y1="12.6797" x2="31.9971" y2="49.3857">
			<stop  offset="0" style="stop-color:#517DBF"/>
			<stop  offset="1" style="stop-color:#293175"/>
		</linearGradient>
		<path style="fill:url(#SVGID_2_);" d="M34.595,20.906h5.672c-0.978,6.162-1.472,10.416-1.472,12.762
			c0,2.229-0.002,4.381,2.418,4.381c1.168,0,4.162-0.957,4.162-7.949c0-9.356-4.875-13.955-12.354-13.955
			c-8.063,0-14.054,5.158-14.054,14.535c0,9.49,4.177,15.25,14.412,15.25c2.765,0,5.638-0.547,8.621-1.645v3.463
			c-5.418,2.162-15.819,3.107-22.362-3.154c-3.333-3.203-5.001-7.777-5.001-13.72c0-12.199,8.508-18.194,18.261-18.194
			c10.584,0,16.463,6.355,16.463,17.225c0,5.963-2.545,11.35-8.801,11.35c-2.209,0-4.502-1.266-5.186-4.352
			c-1.346,2.9-3.263,4.352-5.746,4.352c-4.181,0-6.071-3.865-6.071-7.959C23.556,24.037,29.403,20.906,34.595,20.906 M34.574,30.646
			l0.752-6.536h-1.436c-4.074,0-6.007,4.269-6.007,8.794c0,3.172,0.58,5.145,2.901,5.145C32.707,38.049,33.969,35.582,34.574,30.646
			"/>
	</g>
</g>
</svg>
