<?xml version="1.0" encoding="iso-8859-1"?>
<!-- Generator: Adobe Illustrator 14.0.0, SVG Export Plug-In . SVG Version: 6.00 Build 43363)  -->
<!DOCTYPE svg PUBLIC "-//W3C//DTD SVG 1.1//EN" "http://www.w3.org/Graphics/SVG/1.1/DTD/svg11.dtd">
<svg version="1.1" id="icon-l-rss-layer" xmlns="http://www.w3.org/2000/svg" xmlns:xlink="http://www.w3.org/1999/xlink" x="0px"
	 y="0px" width="48px" height="48px" viewBox="0 0 48 48" style="enable-background:new 0 0 48 48;" xml:space="preserve">
<g id="icon-l-rss">
	<rect style="fill:none;" width="48" height="48"/>
	<g>
		<path style="opacity:0.2;fill:#010101;stroke:#010101;stroke-width:2;" d="M41.132,4.116h-0.005H6.262
			c-1.379,0-2.491,1.112-2.491,2.491v34.863c0,1.375,1.112,2.49,2.491,2.49h34.865c1.375,0,2.492-1.115,2.492-2.49V6.607
			C43.619,5.23,42.511,4.12,41.132,4.116z"/>
		<path style="opacity:0.5;fill:#010101;" d="M41.132,4.116h-0.005H6.262c-1.379,0-2.491,1.112-2.491,2.491v34.863
			c0,1.375,1.112,2.49,2.491,2.49h34.865c1.375,0,2.492-1.115,2.492-2.49V6.607C43.619,5.23,42.511,4.12,41.132,4.116z"/>
		<linearGradient id="SVGID_1_" gradientUnits="userSpaceOnUse" x1="23.6948" y1="2.9609" x2="23.6948" y2="42.8062">
			<stop  offset="0" style="stop-color:#FCBB7C"/>
			<stop  offset="1" style="stop-color:#F78C1E"/>
		</linearGradient>
		<path style="fill:url(#SVGID_1_);" d="M41.132,2.961h-0.005H6.262c-1.379,0-2.491,1.116-2.491,2.492v34.863
			c0,1.377,1.112,2.489,2.491,2.489h34.865c1.375,0,2.492-1.112,2.492-2.489V5.453C43.619,4.079,42.511,2.968,41.132,2.961z"/>
		<path style="fill:#FFFFFF;" d="M12.076,31.19c1.833,0,3.317,1.486,3.317,3.319c0,1.834-1.485,3.318-3.317,3.318
			c-1.836,0-3.321-1.484-3.321-3.318C8.755,32.677,10.24,31.19,12.076,31.19z"/>
		<path style="fill:#FFFFFF;" d="M8.757,7.948v4.979c13.752,0,24.902,11.15,24.902,24.9h4.982
			C38.642,21.326,25.258,7.948,8.757,7.948z"/>
		<path style="fill:#FFFFFF;" d="M8.757,19.568v4.979c7.333,0,13.28,5.951,13.28,13.281h4.98
			C27.018,27.745,18.844,19.568,8.757,19.568z"/>
		<g>
			<path style="fill:#FCBE81;" d="M5.687,40.316V5.457c0-0.32,0.259-0.578,0.577-0.578h34.864c0.17,0,0.317,0.074,0.424,0.189
				l1.355-1.357c-0.451-0.461-1.078-0.745-1.774-0.75h-0.005H6.262c-1.379,0-2.491,1.116-2.491,2.492v34.863
				c0,0.698,0.289,1.328,0.747,1.779l1.357-1.357C5.76,40.636,5.687,40.487,5.687,40.316z"/>
			<path style="fill:#D77A27;" d="M41.127,42.806c1.375,0,2.492-1.112,2.492-2.489V5.453c0-0.678-0.273-1.294-0.713-1.742
				l-1.355,1.357c0.092,0.102,0.154,0.235,0.154,0.389v34.859c0,0.322-0.256,0.575-0.578,0.575H6.263
				c-0.153,0-0.286-0.059-0.388-0.153l-1.357,1.357c0.452,0.438,1.064,0.71,1.744,0.71H41.127z"/>
		</g>
	</g>
</g>
</svg>
