<?xml version="1.0" encoding="iso-8859-1"?>
<!-- Generator: Adobe Illustrator 14.0.0, SVG Export Plug-In . SVG Version: 6.00 Build 43363)  -->
<!DOCTYPE svg PUBLIC "-//W3C//DTD SVG 1.1//EN" "http://www.w3.org/Graphics/SVG/1.1/DTD/svg11.dtd">
<svg version="1.1" id="icon-m-toolbar-gallery-layer"
	 xmlns="http://www.w3.org/2000/svg" xmlns:xlink="http://www.w3.org/1999/xlink" x="0px" y="0px" width="64px" height="64px"
	 viewBox="0 0 64 64" style="enable-background:new 0 0 64 64;" xml:space="preserve">
<g id="icon-m-toolbar-gallery">
	<rect style="fill:none;" width="64" height="64"/>
	<path style="fill:#FFFFFF;" d="M40.267,35.338c0.427,0,0.812-0.166,1.109-0.424c0.397,0.563,0.96,0.916,1.587,0.916
		c0.625,0,1.187-0.353,1.585-0.916c0.298,0.258,0.684,0.424,1.108,0.424c0.935,0,1.688-0.76,1.688-1.694
		c0-0.94-0.754-1.698-1.688-1.698c-0.215,0-0.418,0.043-0.609,0.119c-0.271-1.199-1.102-2.076-2.084-2.076
		c-0.984,0-1.814,0.877-2.087,2.076c-0.189-0.076-0.394-0.119-0.609-0.119c-0.932,0-1.687,0.758-1.687,1.698
		C38.58,34.578,39.335,35.338,40.267,35.338z"/>
	<path style="fill:#FFFFFF;" d="M39.054,41.87c-2.515-5.813-7.591-12.616-12.299,5.04h20.328
		C47.082,46.91,43.242,32.603,39.054,41.87z"/>
	<path style="fill:#FFFFFF;" d="M21.509,25.271V51.5h30.819V25.271H21.509z M24.131,48.877V27.828l25.574,0.065v20.983H24.131z"/>
	<polygon style="fill:#FFFFFF;" points="39.213,11.5 11.672,25.927 19.541,41.009 19.541,35.106 15.606,27.238 37.902,15.435 
		41.836,22.648 45.115,22.648 	"/>
</g>
</svg>
