<?xml version="1.0" encoding="iso-8859-1"?>
<!-- Generator: Adobe Illustrator 14.0.0, SVG Export Plug-In . SVG Version: 6.00 Build 43363)  -->
<!DOCTYPE svg PUBLIC "-//W3C//DTD SVG 1.1//EN" "http://www.w3.org/Graphics/SVG/1.1/DTD/svg11.dtd">
<svg version="1.1" id="icon-s-contacts-layer" xmlns="http://www.w3.org/2000/svg" xmlns:xlink="http://www.w3.org/1999/xlink"
	 x="0px" y="0px" width="18px" height="17px" viewBox="0 0 18 17" style="enable-background:new 0 0 18 17;" xml:space="preserve">
<g id="icon-s-contacts">
	<path style="fill:#333333;" d="M16,0H3v3H0v3l3-0.1V11H0v3l3-0.1V17h13c0,0,2,0,2-2V2C18,0,16,0,16,0z M10,0.9c2,0,3.1,1.1,3.1,3.1
		S12,7.1,10,7.1S6.9,6,6.9,4S8,0.9,10,0.9z M15,16H6v-4c0-2,2.062-4.1,4.5-4.1C12.938,7.9,15,10,15,12V16z"/>
</g>
</svg>
