<?xml version="1.0" encoding="iso-8859-1"?>
<!-- Generator: Adobe Illustrator 14.0.0, SVG Export Plug-In . SVG Version: 6.00 Build 43363)  -->
<!DOCTYPE svg PUBLIC "-//W3C//DTD SVG 1.1//EN" "http://www.w3.org/Graphics/SVG/1.1/DTD/svg11.dtd">
<svg version="1.1" id="icon-s-status-35g-layer" xmlns="http://www.w3.org/2000/svg" xmlns:xlink="http://www.w3.org/1999/xlink"
	 x="0px" y="0px" width="29px" height="18px" viewBox="0 0 29 18" style="enable-background:new 0 0 29 18;" xml:space="preserve">
<g id="icon-s-status-35g">
	<path style="fill:#FFFFFF;" d="M3.937,2.305c-1.104,0-2.256,0.287-3.409,0.6V0.576C1.776,0.264,3.24,0,4.729,0
		c3.288,0,5.665,1.104,5.665,4.344c0,2.041-1.128,3.434-3.168,4.057c2.256,0.408,3.48,1.944,3.48,4.08
		c0,3.841-2.424,5.377-6.673,5.377c-1.416,0-2.664-0.191-4.032-0.552v-2.329c1.44,0.337,2.568,0.576,3.648,0.576
		c2.208,0,3.072-1.056,3.072-3c0-2.568-1.488-3.023-5.185-3.023V7.32c3.552,0,4.968-0.384,4.968-2.712
		C6.504,3.049,5.641,2.305,3.937,2.305z"/>
	<path style="fill:#FFFFFF;" d="M14.568,17.857c-1.176,0-2.112-0.936-2.112-2.111c0-1.177,0.936-2.137,2.112-2.137
		s2.135,0.96,2.135,2.137C16.703,16.922,15.744,17.857,14.568,17.857z"/>
	<path style="fill:#FFFFFF;" d="M22.393,6.457c0.312-0.049,0.695-0.049,1.055-0.049c3.385,0,5.449,1.849,5.449,5.521
		c0,3.984-2.04,5.928-6.504,5.928c-1.417,0-2.833-0.216-4.105-0.527v-2.354c1.201,0.313,2.281,0.576,3.408,0.576
		c2.305,0,3.217-1.151,3.217-3.504c0-2.04-1.057-3.264-3.528-3.264c-0.769,0-1.8,0.023-2.544,0.119V0.191h9.385v2.305h-5.832V6.457z
		"/>
</g>
</svg>
