<?xml version="1.0" encoding="iso-8859-1"?>
<!-- Generator: Adobe Illustrator 14.0.0, SVG Export Plug-In . SVG Version: 6.00 Build 43363)  -->
<!DOCTYPE svg PUBLIC "-//W3C//DTD SVG 1.1//EN" "http://www.w3.org/Graphics/SVG/1.1/DTD/svg11.dtd">
<svg version="1.1" id="icon-m-camera-video-screen-layer"
	 xmlns="http://www.w3.org/2000/svg" xmlns:xlink="http://www.w3.org/1999/xlink" x="0px" y="0px" width="24px" height="24px"
	 viewBox="0 0 24 24" style="enable-background:new 0 0 24 24;" xml:space="preserve">
<g id="icon-m-camera-video-screen">
	<rect style="fill:none;" width="24" height="24"/>
	<path style="fill:#FFFFFF;" d="M22.941,6.769l-3,0.75c0,0-0.375,0-0.375,0.75v0.375h-2.625V7.519c0-0.348-0.402-0.75-0.75-0.75h-12
		c-0.375,0-0.375,0.375-0.375,0.375l-3-0.75c0,0-0.375,0.027-0.375,0.375v3.375c0,0.375,0.375,0.375,0.375,0.375l3-0.75v7.125
		c0,0.75,1.125,0.712,1.125,0.712h10.875c0.75,0,1.125-0.712,1.125-0.712v-4.538h2.625v0.413c0,0.75,0.75,1.125,0.75,1.125
		l2.625,0.375c0,0,0.75,0,0.75-0.375v-6.75C23.691,6.769,22.941,6.769,22.941,6.769z"/>
</g>
</svg>
