<?xml version="1.0" encoding="iso-8859-1"?>
<!-- Generator: Adobe Illustrator 14.0.0, SVG Export Plug-In . SVG Version: 6.00 Build 43363)  -->
<!DOCTYPE svg PUBLIC "-//W3C//DTD SVG 1.1//EN" "http://www.w3.org/Graphics/SVG/1.1/DTD/svg11.dtd">
<svg version="1.1" id="icon-m-placeholder-stack-layer"
	 xmlns="http://www.w3.org/2000/svg" xmlns:xlink="http://www.w3.org/1999/xlink" x="0px" y="0px" width="64px" height="64px"
	 viewBox="0 0 64 64" style="enable-background:new 0 0 64 64;" xml:space="preserve">
<g id="icon-m-placeholder-stack">
	<rect style="fill:none;" width="64" height="64"/>
	<path style="fill:#333333;" d="M55.525,12.586V0H0.092v55.434h12.4V64h51.416V12.586H55.525z M12.492,51.416H4.109V4.018h47.398
		v8.568H12.492V51.416z M52.699,41.184v3.742c0,0.148-0.012,0.238-0.033,0.457c-0.271,1.863-1.629,3.74-3.754,4.91
		c-3.209,1.781-6.83,1.207-8.219-1.295c-1.389-2.506,0.041-5.855,3.258-7.645c1.975-1.096,4.115-1.295,5.771-0.701V30.055
		c0-0.375-0.277-0.535-0.611-0.354l-12.24,6.754c-0.33,0.184-0.6,0.73-0.6,1.016v14.467c0,0.152-0.021,0.256-0.029,0.461
		c-0.266,1.857-1.664,3.732-3.793,4.908c-3.215,1.777-6.832,1.201-8.215-1.307c-1.395-2.506,0.035-5.855,3.248-7.635
		c1.98-1.102,4.135-1.301,5.816-0.697V29.396c0-0.39,0.26-0.845,0.584-1.022L52.098,18.33c0.334-0.191,0.602-0.027,0.602,0.352
		V41.184z"/>
</g>
</svg>
