<?xml version="1.0" encoding="iso-8859-1"?>
<!-- Generator: Adobe Illustrator 14.0.0, SVG Export Plug-In . SVG Version: 6.00 Build 43363)  -->
<!DOCTYPE svg PUBLIC "-//W3C//DTD SVG 1.1//EN" "http://www.w3.org/Graphics/SVG/1.1/DTD/svg11.dtd">
<svg version="1.1" id="icon-m-organizer-note-create-layer"
	 xmlns="http://www.w3.org/2000/svg" xmlns:xlink="http://www.w3.org/1999/xlink" x="0px" y="0px" width="64px" height="64px"
	 viewBox="0 0 64 64" style="enable-background:new 0 0 64 64;" xml:space="preserve">
<g id="icon-m-organizer-note-create">
	<rect style="fill:none;" width="64" height="64"/>
	<path style="fill:#333333;" d="M22,46c0-8.314,4.251-15.651,10.692-19.96H6.967v-4.856h33.066v1.567C41.941,22.262,43.94,22,46,22
		c0.335,0,0.668,0.013,1,0.026V2.186C47,0.984,46.017,0,44.813,0h-4.188v2.404c0,1.277-1.045,2.322-2.322,2.322h-1.356
		c-1.276,0-2.321-1.045-2.321-2.322V0H26.5v2.404c0,1.277-1.045,2.322-2.322,2.322h-1.356c-1.277,0-2.322-1.045-2.322-2.322V0
		h-8.125v2.404c0,1.277-1.045,2.322-2.322,2.322H8.697c-1.277,0-2.322-1.045-2.322-2.322V0H2.186C0.983,0,0,0.984,0,2.186v45.908
		c0,1.203,0.983,2.186,2.186,2.186H22.39C22.138,48.891,22,47.461,22,46z M6.967,12.04h33.066v4.856H6.967V12.04z M6.967,30.184h16
		v4.857h-16V30.184z"/>
	<path style="fill:#333333;" d="M46,28c-9.94,0-18,8.059-18,18s8.06,18,18,18s18-8.059,18-18S55.94,28,46,28z M56.8,48.867h-7.842
		v7.934h-5.871v-7.934H35.2v-5.824h7.887v-7.842h5.871v7.842H56.8V48.867z"/>
</g>
</svg>
