<?xml version="1.0" encoding="iso-8859-1"?>
<!-- Generator: Adobe Illustrator 14.0.0, SVG Export Plug-In . SVG Version: 6.00 Build 43363)  -->
<!DOCTYPE svg PUBLIC "-//W3C//DTD SVG 1.1//EN" "http://www.w3.org/Graphics/SVG/1.1/DTD/svg11.dtd">
<svg version="1.1" id="icon-s-status-packetdata-active-layer"
	 xmlns="http://www.w3.org/2000/svg" xmlns:xlink="http://www.w3.org/1999/xlink" x="0px" y="0px" width="20px" height="18px"
	 viewBox="0 0 20 18" style="enable-background:new 0 0 20 18;" xml:space="preserve">
<g id="icon-s-status-packetdata-active">
	<path style="fill:#FFFFFF;" d="M10.499,0C5.26,0,1,4.038,1,9c0,4.963,4.26,9,9.499,9c5.241,0,9.502-4.037,9.502-9
		C20.001,4.038,15.74,0,10.499,0z M15.656,10.924c0,0.59-0.358,1.725-1.387,2.294H7.383c0,0.466,0,2.282,0,2.282l-5.432-5.393
		h13.705C15.648,10.457,15.656,10.813,15.656,10.924z M5.323,7.887c0-0.205,0-0.506,0-0.506c0-1.693,1.175-2.492,1.458-2.602h6.825
		c0-0.46,0-2.279,0-2.279l5.443,5.387H5.323z"/>
</g>
</svg>
