<?xml version="1.0" encoding="iso-8859-1"?>
<!-- Generator: Adobe Illustrator 14.0.0, SVG Export Plug-In . SVG Version: 6.00 Build 43363)  -->
<!DOCTYPE svg PUBLIC "-//W3C//DTD SVG 1.1//EN" "http://www.w3.org/Graphics/SVG/1.1/DTD/svg11.dtd">
<svg version="1.1" id="icon-m-music-video-dlna-server-layer"
	 xmlns="http://www.w3.org/2000/svg" xmlns:xlink="http://www.w3.org/1999/xlink" x="0px" y="0px" width="64px" height="64px"
	 viewBox="0 0 64 64" style="enable-background:new 0 0 64 64;" xml:space="preserve">
<g id="icon-m-music-video-dlna-server">
	<rect style="fill:none;" width="64" height="64"/>
	<path style="fill:#333333;" d="M44.516,47.703c-0.1,0.004-1.877-0.085-2.955,1.097c-0.053,0.054-0.096,0.089-0.135,0.128
		c-0.848,1.047-2.145,1.715-3.596,1.715c-2.562,0-4.631-2.078-4.631-4.643c0-2.565,2.069-4.643,4.631-4.643
		c1.473,0,2.788,0.689,3.627,1.762c0.036,0.032,0.063,0.057,0.104,0.096c0.914,1.008,2.355,1.036,2.813,1.085H64
		C63.142,35.155,55.453,28,46.086,28c-5.799,0-10.942,2.754-14.234,7.011h11.525c0.099-0.002,1.877,0.085,2.955-1.095
		c0.053-0.055,0.096-0.09,0.135-0.13c0.847-1.046,2.145-1.714,3.596-1.714c2.561,0,4.631,2.078,4.631,4.643s-2.07,4.643-4.631,4.643
		c-1.473,0-2.788-0.69-3.628-1.764c-0.035-0.031-0.063-0.054-0.103-0.094c-0.914-1.007-2.356-1.037-2.813-1.084H29.779
		c-1.075,2.307-1.693,4.87-1.693,7.584c0,2.713,0.617,5.275,1.692,7.583h13.599c0.099-0.004,1.877,0.084,2.955-1.095
		c0.053-0.055,0.096-0.09,0.135-0.13c0.847-1.048,2.145-1.716,3.596-1.716c2.561,0,4.631,2.08,4.631,4.643
		c0,2.565-2.07,4.643-4.631,4.643c-1.473,0-2.788-0.689-3.628-1.761c-0.035-0.032-0.063-0.056-0.103-0.095
		c-0.914-1.007-2.356-1.037-2.813-1.084H31.851C35.143,61.246,40.287,64,46.086,64C55.452,64,63.141,56.845,64,47.703H44.516z"/>
	<path style="fill:#333333;" d="M22,46c0-11.818,8.59-21.662,19.854-23.633V3.477c0-1.899-1.563-3.445-3.488-3.445H3.488
		C1.564,0.031,0,1.577,0,3.477v48.262c0,1.902,1.564,3.449,3.488,3.449h20.343C22.653,52.355,22,49.254,22,46z M8.46,8.381
		c0-0.488,0.403-0.888,0.891-0.888h23.153c0.491,0,0.89,0.399,0.89,0.888v3.561c0,0.488-0.399,0.888-0.89,0.888H9.351
		c-0.488,0-0.891-0.399-0.891-0.888V8.381z M8.46,17.5c0-0.486,0.403-0.89,0.891-0.89h23.153c0.491,0,0.89,0.403,0.89,0.89v3.559
		c0,0.49-0.399,0.892-0.89,0.892H9.351c-0.488,0-0.891-0.401-0.891-0.892V17.5z M15.443,32.81c0,0.551-0.451,0.999-1,0.999h-5
		c-0.552,0-1-0.448-1-0.999v-4.995c0-0.551,0.449-0.999,1-0.999h5c0.549,0,1,0.448,1,0.999V32.81z"/>
</g>
</svg>
