<?xml version="1.0" encoding="iso-8859-1"?>
<!-- Generator: Adobe Illustrator 14.0.0, SVG Export Plug-In . SVG Version: 6.00 Build 43363)  -->
<!DOCTYPE svg PUBLIC "-//W3C//DTD SVG 1.1//EN" "http://www.w3.org/Graphics/SVG/1.1/DTD/svg11.dtd">
<svg version="1.1" id="icon-m-common-pages5-layer" xmlns="http://www.w3.org/2000/svg" xmlns:xlink="http://www.w3.org/1999/xlink"
	 x="0px" y="0px" width="64px" height="64px" viewBox="0 0 64 64" style="enable-background:new 0 0 64 64;" xml:space="preserve">
<g id="icon-m-common-pages5">
	<rect style="fill:none;" width="64" height="64"/>
	<path style="fill:#333333;" d="M27,31.362V0H0v36h24.191C24.954,34.344,25.897,32.79,27,31.362z M3,33.246V2.99h21v30.256H3z"/>
	<path style="fill:#333333;" d="M34,25.229V2.99h21v20.768c1.038,0.422,2.039,0.914,3,1.471V0H31v27.285
		C31.944,26.526,32.947,25.84,34,25.229z"/>
	<path style="fill:#333333;" d="M46,28c-9.941,0-18,8.06-18,18c0,9.942,8.059,18,18,18s18-8.058,18-18C64,36.06,55.941,28,46,28z
		 M44.564,57.674c-1.494,0-3.232-0.238-4.894-0.67l-0.748-0.194v-4.556l1.247,0.318c1.34,0.342,2.605,0.666,3.813,0.666
		c2.295,0,3.148-0.972,3.148-3.584c0-2.236-1.069-3.234-3.468-3.234c-0.927,0-2.16,0.088-3.007,0.169l-1.097,0.106v-12.37h12.906
		v4.437h-7.309v3.223c0.124-0.001,0.246-0.001,0.362-0.001c4.802,0,7.556,2.743,7.556,7.526
		C53.076,54.928,50.213,57.674,44.564,57.674z"/>
</g>
</svg>
