<?xml version="1.0" encoding="iso-8859-1"?>
<!-- Generator: Adobe Illustrator 14.0.0, SVG Export Plug-In . SVG Version: 6.00 Build 43363)  -->
<!DOCTYPE svg PUBLIC "-//W3C//DTD SVG 1.1//EN" "http://www.w3.org/Graphics/SVG/1.1/DTD/svg11.dtd">
<svg version="1.1" id="icon-m-framework-list-layer"
	 xmlns="http://www.w3.org/2000/svg" xmlns:xlink="http://www.w3.org/1999/xlink" x="0px" y="0px" width="32px" height="32px"
	 viewBox="0 0 32 32" style="enable-background:new 0 0 32 32;" xml:space="preserve">
<g id="icon-m-framework-list">
	<rect style="fill:none;" width="32" height="32"/>
	<path style="fill:#FFFFFF;" d="M3.127,12.871C1.4,12.871,0,11.471,0,9.743c0-1.729,1.4-3.128,3.127-3.128
		c1.729,0,3.128,1.398,3.128,3.128C6.255,11.471,4.856,12.871,3.127,12.871"/>
	<path style="fill:#FFFFFF;" d="M32,10.994c0,0.688-0.564,1.252-1.252,1.252H11.26c-0.688,0-1.251-0.564-1.251-1.252V8.492
		c0-0.689,0.562-1.252,1.251-1.252h19.488C31.436,7.24,32,7.803,32,8.492V10.994z"/>
	<path style="fill:#FFFFFF;" d="M3.127,25.385C1.4,25.385,0,23.982,0,22.256c0-1.729,1.4-3.128,3.127-3.128
		c2.561,0,3.128,1.4,3.128,3.128C6.255,23.982,4.856,25.385,3.127,25.385"/>
	<path style="fill:#FFFFFF;" d="M32,23.506c0,0.689-0.564,1.252-1.252,1.252H11.26c-0.688,0-1.251-0.562-1.251-1.252v-2.502
		c0-0.689,0.562-1.252,1.251-1.252h19.488c0.688,0,1.252,0.562,1.252,1.252V23.506z"/>
</g>
</svg>
