<?xml version="1.0" encoding="iso-8859-1"?>
<!-- Generator: Adobe Illustrator 14.0.0, SVG Export Plug-In . SVG Version: 6.00 Build 43363)  -->
<!DOCTYPE svg PUBLIC "-//W3C//DTD SVG 1.1//EN" "http://www.w3.org/Graphics/SVG/1.1/DTD/svg11.dtd">
<svg version="1.1" id="icon-m-common-presence-unknown-layer"
	 xmlns="http://www.w3.org/2000/svg" xmlns:xlink="http://www.w3.org/1999/xlink" x="0px" y="0px" width="64px" height="64px"
	 viewBox="0 0 64 64" style="enable-background:new 0 0 64 64;" xml:space="preserve">
<g id="icon-m-common-presence-unknown">
	<rect style="fill:none;" width="64" height="64"/>
	<path style="fill:#333333;" d="M17.716,12.133c2.858-1.98,6.147-3.379,9.695-4.027V2.021c-5.197,0.757-9.977,2.801-14.003,5.804
		L17.716,12.133z"/>
	<path style="fill:#333333;" d="M7.328,28.191c0.65-3.548,2.047-6.836,4.026-9.693l-4.308-4.309
		c-3.001,4.027-5.044,8.807-5.803,14.002H7.328z"/>
	<path style="fill:#333333;" d="M36.412,2.021v6.084c3.548,0.648,6.836,2.046,9.695,4.026l4.307-4.306
		C46.387,4.822,41.607,2.777,36.412,2.021z"/>
	<path style="fill:#333333;" d="M11.347,46.892c-1.981-2.859-3.378-6.149-4.024-9.7H1.239c0.754,5.197,2.798,9.98,5.801,14.008
		L11.347,46.892z"/>
	<path style="fill:#333333;" d="M52.471,18.498c1.979,2.856,3.375,6.146,4.025,9.693h6.084c-0.759-5.195-2.803-9.975-5.803-14.002
		L52.471,18.498z"/>
	<path style="fill:#333333;" d="M56.5,37.191c-0.646,3.551-2.043,6.841-4.023,9.702l4.307,4.306
		c3.002-4.028,5.046-8.811,5.801-14.008H56.5z"/>
	<path style="fill:#333333;" d="M27.412,57.277c-3.55-0.646-6.839-2.043-9.699-4.023l-4.308,4.308
		c4.027,3.001,8.808,5.044,14.006,5.8V57.277z"/>
	<path style="fill:#333333;" d="M46.111,53.256c-2.859,1.979-6.15,3.375-9.699,4.022v6.085c5.197-0.758,9.979-2.801,14.006-5.802
		L46.111,53.256z"/>
</g>
</svg>
