<?xml version="1.0" encoding="iso-8859-1"?>
<!-- Generator: Adobe Illustrator 14.0.0, SVG Export Plug-In . SVG Version: 6.00 Build 43363)  -->
<!DOCTYPE svg PUBLIC "-//W3C//DTD SVG 1.1//EN" "http://www.w3.org/Graphics/SVG/1.1/DTD/svg11.dtd">
<svg version="1.1" id="icon-s-telephony-voicemail-layer"
	 xmlns="http://www.w3.org/2000/svg" xmlns:xlink="http://www.w3.org/1999/xlink" x="0px" y="0px" width="20px" height="19px"
	 viewBox="0 0 20 19" style="enable-background:new 0 0 20 19;" xml:space="preserve">
<g id="icon-s-voicemail">
	<rect style="fill:none;" width="20" height="18"/>
	<path style="fill:#333333;" d="M17.848,0H2.154C1.227,0,0.471,0.76,0.471,1.689v10.699c0,0.932,0.755,1.691,1.683,1.691h10.714
		l3.042,3.713c0.347,0.404,0.969,0.184,0.994-0.357V14.08h0.943c0.928,0,1.682-0.76,1.682-1.691V1.689
		C19.529,0.76,18.775,0,17.848,0z M17.586,7.877c-0.512,1.322-1.774,2.209-3.141,2.209H5.906c-1.541-0.002-2.846-1.029-3.247-2.558
		C2.268,6.041,2.896,4.58,4.261,3.806c1.627-0.923,3.627-0.335,4.532,1.236C9.262,5.855,9.368,6.79,9.112,7.657h2.119
		c-0.26-0.843-0.17-1.72,0.273-2.49c0.621-1.08,1.816-1.778,3.045-1.778c0.791,0,1.525,0.289,2.123,0.834
		C17.75,5.208,18.092,6.574,17.586,7.877z"/>
</g>
</svg>
