<?xml version="1.0" encoding="iso-8859-1"?>
<!-- Generator: Adobe Illustrator 14.0.0, SVG Export Plug-In . SVG Version: 6.00 Build 43363)  -->
<!DOCTYPE svg PUBLIC "-//W3C//DTD SVG 1.1//EN" "http://www.w3.org/Graphics/SVG/1.1/DTD/svg11.dtd">
<svg version="1.1" id="icon-m-USBhandling-usb-layer"
	 xmlns="http://www.w3.org/2000/svg" xmlns:xlink="http://www.w3.org/1999/xlink" x="0px" y="0px" width="64px" height="64px"
	 viewBox="0 0 64 64" style="enable-background:new 0 0 64 64;" xml:space="preserve">
<g id="icon-m-USBhandling-usb">
	<rect style="fill:none;" width="64" height="64"/>
	<path style="fill:#333333;" d="M62.016,31.965l-7.055-5.685v4.289H19.438l3.576-9.526c0.003-0.03,0.104-0.184,0.263-0.288
		c0.153-0.11,0.333-0.151,0.36-0.145h8.141v0.071c0.619,1.467,2.067,2.496,3.754,2.496c2.25,0,4.072-1.83,4.072-4.089
		c0-2.256-1.822-4.089-4.072-4.089c-1.705,0-3.161,1.051-3.77,2.537v0.073h-8.126c-1.568,0.067-2.817,0.932-3.433,2.38l-3.97,10.574
		h-4.108c-0.659-2.115-2.625-3.649-4.952-3.649c-2.864,0-5.186,2.329-5.186,5.202c0,2.875,2.322,5.205,5.186,5.205
		c2.337,0,4.309-1.553,4.959-3.682h10.223l4.208,10.566c0.642,1.424,1.888,2.271,3.45,2.34h7.842V49h7.871v-7.9h-7.871v2.447h-7.842
		c-0.031,0.008-0.221-0.037-0.381-0.15c-0.163-0.105-0.275-0.27-0.279-0.3l-3.767-9.456h29.375v3.982L62.016,31.965z"/>
</g>
</svg>
