<?xml version="1.0" encoding="iso-8859-1"?>
<!-- Generator: Adobe Illustrator 14.0.0, SVG Export Plug-In . SVG Version: 6.00 Build 43363)  -->
<!DOCTYPE svg PUBLIC "-//W3C//DTD SVG 1.1//EN" "http://www.w3.org/Graphics/SVG/1.1/DTD/svg11.dtd">
<svg version="1.1" id="icon-m-camera-focusmode-touch-layer"
	 xmlns="http://www.w3.org/2000/svg" xmlns:xlink="http://www.w3.org/1999/xlink" x="0px" y="0px" width="64px" height="64px"
	 viewBox="0 0 64 64" style="enable-background:new 0 0 64 64;" xml:space="preserve">
<g id="icon-m-camera-focusmode-touch">
	<rect style="fill:none;" width="64" height="64"/>
	<path style="fill:#333333;" d="M45.451,31.395c-0.819-2.886-5.629-1.521-4.811,1.365l0.819,2.887l-1.925,0.546l-2.184-7.696
		c-0.818-2.886-5.629-1.521-4.81,1.365l1.638,5.771l-1.924,0.546l-2.458-8.657c-0.819-2.887-5.629-1.521-4.81,1.364l1.911,6.734
		l-1.924,0.546l-5.46-19.24c-0.819-2.886-5.629-1.521-4.782,1.464L23.987,51L49,43.901L45.451,31.395z"/>
	<path style="fill:#333333;" d="M17,58H6V5.9L17,6V1H6C3.25,1,1,3.25,1,6v52c0,2.75,2.25,5,5,5h11V58z"/>
	<path style="fill:#333333;" d="M47,6l11-0.1V58H47v5h11c2.75,0,5-2.25,5-5V6c0-2.75-2.25-5-5-5H47V6z"/>
</g>
</svg>
