<?xml version="1.0" encoding="iso-8859-1"?>
<!-- Generator: Adobe Illustrator 14.0.0, SVG Export Plug-In . SVG Version: 6.00 Build 43363)  -->
<!DOCTYPE svg PUBLIC "-//W3C//DTD SVG 1.1//EN" "http://www.w3.org/Graphics/SVG/1.1/DTD/svg11.dtd">
<svg version="1.1" id="icon-m-common-25g-layer" xmlns="http://www.w3.org/2000/svg" xmlns:xlink="http://www.w3.org/1999/xlink"
	 x="0px" y="0px" width="64px" height="64px" viewBox="0 0 64 64" style="enable-background:new 0 0 64 64;" xml:space="preserve">
<g id="icon-m-common-25g">
	<rect style="fill:none;" width="64" height="64"/>
	<path style="fill:#333333;" d="M25.75,50.563H2.191v-3.264c0-7.803,4.743-12.289,9.485-16.268c3.213-2.703,5.354-4.641,5.354-7.803
		c0-3.416-1.683-5.303-5.711-5.303c-2.855,0-5.405,0.816-7.853,1.682v-5.047c3.264-0.969,6.578-1.531,9.944-1.531
		c7.445,0,12.086,3.01,12.086,9.895c0,5.506-3.009,8.465-7.343,12.137c-4.59,3.875-7.598,6.578-7.955,10.605H25.75V50.563z"/>
	<path style="fill:#333333;" d="M33.556,50.971c-2.499,0-4.488-1.99-4.488-4.488s1.989-4.539,4.488-4.539s4.538,2.041,4.538,4.539
		S36.055,50.971,33.556,50.971z"/>
	<path style="fill:#333333;" d="M50.18,26.748c0.664-0.102,1.479-0.102,2.244-0.102c7.19,0,11.576,3.926,11.576,11.729
		c0,8.465-4.336,12.596-13.82,12.596c-3.008,0-6.018-0.459-8.72-1.123v-4.996c2.55,0.662,4.845,1.223,7.241,1.223
		c4.896,0,6.834-2.447,6.834-7.445c0-4.334-2.244-6.936-7.496-6.936c-1.633,0-3.825,0.053-5.406,0.256V13.438h19.939v4.896H50.18
		V26.748z"/>
</g>
</svg>
