<?xml version="1.0" encoding="iso-8859-1"?>
<!-- Generator: Adobe Illustrator 14.0.0, SVG Export Plug-In . SVG Version: 6.00 Build 43363)  -->
<!DOCTYPE svg PUBLIC "-//W3C//DTD SVG 1.1//EN" "http://www.w3.org/Graphics/SVG/1.1/DTD/svg11.dtd">
<svg version="1.1" id="icon-m-common-wlan-layer" xmlns="http://www.w3.org/2000/svg" xmlns:xlink="http://www.w3.org/1999/xlink"
	 x="0px" y="0px" width="64px" height="64px" viewBox="0 0 64 64" style="enable-background:new 0 0 64 64;" xml:space="preserve">
<g id="icon-m-common-wlan">
	<rect style="fill:none;" width="64" height="64"/>
	<path style="fill:#333333;" d="M45.002,53.228h-5.838l-5.357-22.45c2.349-0.877,4.047-3.166,4.047-5.931
		c0-3.513-2.706-6.354-6.054-6.354c-3.348,0-6.062,2.841-6.062,6.354c0,2.765,1.69,5.048,4.035,5.931l-5.337,22.45h-5.838
		c-1.066,0-1.939,0.872-1.939,1.94v2.479c0,1.067,0.873,1.939,1.939,1.939h26.405c1.066,0,1.939-0.872,1.939-1.939v-2.479
		C46.941,54.1,46.068,53.228,45.002,53.228"/>
	<path style="fill:#333333;" d="M54.258,4.725c-0.689-0.521-1.673-0.373-2.204,0.328c-0.519,0.701-0.366,1.705,0.341,2.232
		c4.473,3.391,7.268,10.082,7.268,17.464c0,7.371-2.795,14.078-7.268,17.465c-0.707,0.524-0.859,1.513-0.341,2.221
		c0.531,0.704,1.515,0.85,2.204,0.332c5.266-3.995,8.542-11.657,8.542-20.018C62.8,16.378,59.523,8.718,54.258,4.725"/>
	<path style="fill:#333333;" d="M49.741,16.062c0,0-0.038-0.111-0.066-0.17c-0.329-0.779-1.118-2.205-1.118-2.205
		c-0.845-1.465-1.705-2.589-2.994-3.799c-0.455-0.441-0.967-0.822-1.459-1.202c-0.107-0.081-0.225-0.14-0.346-0.187
		c-0.676-0.365-1.535-0.185-2.021,0.474c-0.423,0.58-0.402,1.359-0.006,1.929c0.109,0.196,0.322,0.404,0.441,0.515
		c0.74,0.679,1.531,1.343,2.211,2.157c0.25,0.308,0.492,0.626,0.729,0.959c1.758,2.719,2.814,6.348,2.814,10.234
		c0,3.846-1,7.445-2.729,10.16c-0.887,1.224-1.896,2.219-2.992,3.148c-0.688,0.585-0.871,1.582-0.344,2.306
		c0.537,0.728,1.523,0.913,2.275,0.423c0.519-0.342,1.002-0.679,1.459-1.119c1.429-1.205,2.558-2.985,3.517-4.808H49.09
		c1.483-2.901,2.326-6.415,2.326-10.11C51.416,21.652,50.815,18.665,49.741,16.062"/>
	<path style="fill:#333333;" d="M11.206,7.285c0.707-0.527,0.858-1.531,0.341-2.232c-0.532-0.701-1.516-0.85-2.205-0.328
		C4.076,8.718,0.8,16.378,0.8,24.749c0,8.36,3.276,16.022,8.542,20.018c0.689,0.518,1.673,0.372,2.205-0.332
		c0.517-0.708,0.365-1.696-0.341-2.221C6.732,38.827,3.937,32.12,3.937,24.749C3.937,17.367,6.732,10.676,11.206,7.285"/>
	<path style="fill:#333333;" d="M18.004,39.684c0.457,0.439,0.939,0.777,1.458,1.118c0.751,0.491,1.738,0.306,2.277-0.423
		c0.526-0.723,0.342-1.721-0.345-2.307c-1.097-0.928-2.106-1.924-2.992-3.146c-1.73-2.716-2.729-6.314-2.729-10.159
		c0-3.888,1.057-7.518,2.814-10.237c0.237-0.33,0.479-0.648,0.729-0.958c0.68-0.814,1.472-1.477,2.209-2.157
		c0.119-0.108,0.334-0.318,0.441-0.512c0.398-0.572,0.419-1.352-0.004-1.932c-0.486-0.656-1.347-0.837-2.021-0.473
		c-0.122,0.047-0.24,0.105-0.347,0.188c-0.493,0.378-1.002,0.759-1.459,1.2c-1.288,1.21-2.149,2.336-2.995,3.8
		c0,0-0.788,1.426-1.118,2.206c-0.027,0.057-0.064,0.168-0.064,0.168c-1.077,2.603-1.675,5.591-1.675,8.707
		c0,3.692,0.84,7.208,2.325,10.108h-0.022C15.444,36.697,16.574,38.479,18.004,39.684"/>
</g>
</svg>
