<?xml version="1.0" encoding="iso-8859-1"?>
<!-- Generator: Adobe Illustrator 14.0.0, SVG Export Plug-In . SVG Version: 6.00 Build 43363)  -->
<!DOCTYPE svg PUBLIC "-//W3C//DTD SVG 1.1//EN" "http://www.w3.org/Graphics/SVG/1.1/DTD/svg11.dtd">
<svg version="1.1" id="icon-s-status-wlan-layer" xmlns="http://www.w3.org/2000/svg" xmlns:xlink="http://www.w3.org/1999/xlink"
	 x="0px" y="0px" width="24px" height="18px" viewBox="0 0 24 18" style="enable-background:new 0 0 24 18;" xml:space="preserve">
<g id="icon-s-status-wlan">
	<rect style="fill:none;" width="24" height="18"/>
	<path style="fill:#FFFFFF;" d="M1.646,0C1.603,0.068,0.188,2.15,0.188,4.773c0,2.705,1.413,4.702,1.457,4.77
		C1.875,9.378,2.269,9.092,2.5,8.928C2.457,8.861,1.223,7.028,1.223,4.773c0-2.436,1.234-4.088,1.277-4.154
		C2.269,0.449,1.877,0.164,1.646,0"/>
	<path style="fill:#FFFFFF;" d="M6.6,7.297C6.551,7.228,5.797,6.045,5.797,4.773c0-1.415,0.754-2.457,0.8-2.523
		C6.365,2.084,5.969,1.803,5.737,1.631C5.693,1.705,4.762,2.941,4.762,4.773c0,1.798,0.932,3.072,0.976,3.139
		C5.971,7.748,6.365,7.462,6.6,7.297"/>
	<path style="fill:#FFFFFF;" d="M22.354,0c-0.23,0.164-0.626,0.449-0.857,0.615c0.043,0.064,1.279,1.9,1.279,4.154
		c0,2.436-1.236,4.086-1.279,4.152c0.231,0.17,0.627,0.456,0.857,0.621c0.039-0.066,1.459-2.147,1.459-4.773
		C23.812,2.064,22.398,0.068,22.354,0"/>
	<path style="fill:#FFFFFF;" d="M16.412,2.246c0.049,0.072,0.8,1.254,0.8,2.523c0,1.416-0.751,2.458-0.798,2.524
		c0.23,0.164,0.624,0.448,0.855,0.618C17.315,7.84,18.249,6.6,18.249,4.77c0-1.799-0.932-3.074-0.978-3.139
		C17.041,1.795,16.647,2.08,16.412,2.246"/>
	<path style="fill:#FFFFFF;" d="M12.203,7.112c0.992-0.331,1.713-1.259,1.713-2.362c0-1.378-1.119-2.5-2.5-2.5s-2.5,1.122-2.5,2.5
		c0,1.104,0.721,2.029,1.711,2.362L8.615,15.58H5.651V18H17.18v-2.42h-2.957L12.203,7.112z"/>
</g>
</svg>
