<?xml version="1.0" encoding="iso-8859-1"?>
<!-- Generator: Adobe Illustrator 14.0.0, SVG Export Plug-In . SVG Version: 6.00 Build 43363)  -->
<!DOCTYPE svg PUBLIC "-//W3C//DTD SVG 1.1//EN" "http://www.w3.org/Graphics/SVG/1.1/DTD/svg11.dtd">
<svg version="1.1" id="icon-m-common-search-layer" xmlns="http://www.w3.org/2000/svg" xmlns:xlink="http://www.w3.org/1999/xlink"
	 x="0px" y="0px" width="64px" height="65px" viewBox="0 0 64 65" style="enable-background:new 0 0 64 65;" xml:space="preserve">
<g id="icon-m-common-search">
	<rect x="1" y="1" style="fill:none;" width="64" height="64"/>
	<path id="Icon-search_2_" style="fill:#333333;" d="M40.891,51.807c2.342,2.346,0,0,12.342,12.344
		c1.658,1.656,5.287,0.826,8.035-1.932c2.762-2.732,3.635-6.346,1.918-8.031L50.623,41.572c-1.146-1.107-3.172-1.094-5.154-0.145
		l-3.623-3.643c-0.053-0.037-0.117-0.094-0.158-0.129c7.51-8.973,7.227-22.091-0.914-30.255c-8.689-8.7-22.98-8.505-31.956,0.417
		c-8.972,8.963-9.2,23.222-0.541,31.896c7.522,7.557,19.341,8.393,28.189,2.615c0.135,0.148,0.219,0.297,0.359,0.432l3.639,3.633
		C40.465,46.395,38.543,49.459,40.891,51.807z M13.275,34.762c-5.992-6.025-5.819-15.909,0.365-22.081
		c6.206-6.19,16.101-6.319,22.11-0.296c6.014,5.988,5.848,15.857-0.357,22.072C29.17,40.59,19.275,40.736,13.275,34.762z"/>
</g>
</svg>
