<?xml version="1.0" encoding="iso-8859-1"?>
<!-- Generator: Adobe Illustrator 14.0.0, SVG Export Plug-In . SVG Version: 6.00 Build 43363)  -->
<!DOCTYPE svg PUBLIC "-//W3C//DTD SVG 1.1//EN" "http://www.w3.org/Graphics/SVG/1.1/DTD/svg11.dtd">
<svg version="1.1" id="icon-m-common-alarm-layer" xmlns="http://www.w3.org/2000/svg" xmlns:xlink="http://www.w3.org/1999/xlink"
	 x="0px" y="0px" width="64px" height="64px" viewBox="0 0 64 64" style="enable-background:new 0 0 64 64;" xml:space="preserve">
<g id="icon-m-common-alarm">
	<rect style="fill:none;" width="64" height="64"/>
	<path style="fill:#333333;" d="M59.396,21.24c-1.686-1.716-3.465-2.117-5.69-2.973c-5.355-2.055-10.634-5.082-15.092-8.698
		c-2.996-2.431-5.764-4.416-9.446-5.849C21.371,0.686,13.146,1.518,6.993,7.414L6.915,7.491c-5.897,6.153-6.73,14.378-3.694,22.177
		c1.433,3.68,3.42,6.449,5.85,9.445c3.615,4.457,6.643,9.736,8.698,15.091c0.856,2.228,1.256,4.005,2.972,5.691
		c1.167,1.145,1.223,1.222,2.379,2.374c0.771,0.771,2.301,1.038,3.073,0.268l17.884-17.884l0.077-0.077l17.885-17.884
		c0.771-0.772,0.505-2.302-0.268-3.073C60.616,22.465,60.541,22.406,59.396,21.24z"/>
	<path style="fill:#333333;" d="M41.812,53.096c1.67,2.776,4.704,4.641,8.179,4.641c5.271,0,9.547-4.273,9.547-9.546
		c0-3.478-1.864-6.511-4.642-8.18L41.812,53.096z"/>
</g>
</svg>
