<?xml version="1.0" encoding="iso-8859-1"?>
<!-- Generator: Adobe Illustrator 14.0.0, SVG Export Plug-In . SVG Version: 6.00 Build 43363)  -->
<!DOCTYPE svg PUBLIC "-//W3C//DTD SVG 1.1//EN" "http://www.w3.org/Graphics/SVG/1.1/DTD/svg11.dtd">
<svg version="1.1" id="icon-m-music-video-fm-radio-scan-layer"
	 xmlns="http://www.w3.org/2000/svg" xmlns:xlink="http://www.w3.org/1999/xlink" x="0px" y="0px" width="64px" height="64px"
	 viewBox="0 0 64 64" style="enable-background:new 0 0 64 64;" xml:space="preserve">
<g id="icon-m-music-video-fm-radio-scan">
	<rect style="fill:none;" width="64" height="64"/>
	<path style="fill:#333333;" d="M31.654,32.172c-0.958-0.957-0.802-2.681,0.348-3.828L42.867,17.48
		c-3.051-2.306-6.834-3.688-10.944-3.688c-10.042,0-18.212,8.167-18.212,18.208c0,10.043,8.17,18.211,18.212,18.211
		c9.775,0,17.754-7.746,18.171-17.422l-16.652-0.002C32.769,32.834,32.12,32.638,31.654,32.172z"/>
	<path style="fill:#333333;" d="M63.5,32c0-9.592-4.314-18.19-11.1-23.972l0.008-0.009C46.906,3.336,39.785,0.5,32.01,0.5
		C14.634,0.5,0.5,14.633,0.5,32c0,17.369,14.134,31.5,31.51,31.5c17.104,0,31.058-13.715,31.49-30.71h-0.021
		C63.486,32.527,63.5,32.266,63.5,32z M61.511,32.79l-8.388-0.001C52.703,44.092,43.402,53.164,32,53.164
		C20.33,53.164,10.835,43.67,10.835,32c0-11.668,9.495-21.164,21.164-21.164c4.924,0,9.452,1.705,13.051,4.539l5.954-5.953
		C57.436,14.844,61.531,22.952,61.531,32C61.531,32.266,61.518,32.527,61.511,32.79z"/>
	<path style="fill:#333333;" d="M44.623,15.725l-1.404,1.406c4.491,3.418,7.408,8.803,7.408,14.869c0,0.268-0.029,0.525-0.04,0.789
		h1.968c0.011-0.264,0.041-0.521,0.041-0.789C52.596,25.392,49.466,19.514,44.623,15.725z"/>
</g>
</svg>
