<?xml version="1.0" encoding="iso-8859-1"?>
<!-- Generator: Adobe Illustrator 14.0.0, SVG Export Plug-In . SVG Version: 6.00 Build 43363)  -->
<!DOCTYPE svg PUBLIC "-//W3C//DTD SVG 1.1//EN" "http://www.w3.org/Graphics/SVG/1.1/DTD/svg11.dtd">
<svg version="1.1" id="icon-m-content-event-layer" xmlns="http://www.w3.org/2000/svg" xmlns:xlink="http://www.w3.org/1999/xlink"
	 x="0px" y="0px" width="64px" height="64px" viewBox="0 0 64 64" style="enable-background:new 0 0 64 64;" xml:space="preserve">
<g id="icon-m-content-event">
	<rect style="fill:none;" width="64" height="64"/>
	<path style="fill:#333333;" d="M18.182,12.098h0.513c1.15,0,2.089-0.941,2.089-2.088V2.139c0-1.148-0.939-2.088-2.089-2.088h-0.513
		c-1.149,0-2.091,0.939-2.091,2.088v7.871C16.091,11.156,17.032,12.098,18.182,12.098z"/>
	<path style="fill:#333333;" d="M44.237,12.098h0.513c1.15,0,2.091-0.941,2.091-2.088V2.139c0-1.148-0.94-2.088-2.091-2.088h-0.513
		c-1.149,0-2.091,0.939-2.091,2.088v7.871C42.146,11.156,43.088,12.098,44.237,12.098z"/>
	<path style="fill:#333333;" d="M51.826,9.769c-0.387,3.507-3.318,6.233-6.88,6.233c-3.563,0-6.492-2.727-6.88-6.233H25.771
		c-0.387,3.507-3.318,6.233-6.879,6.233c-3.563,0-6.493-2.727-6.88-6.233H5.161v10.351h53.678V9.769H51.826z"/>
	<path style="fill:#333333;" d="M5.161,24.133l0,37.799c0,1.102,0.9,2,2,2h49.677c1.101,0,2-0.898,2-2V24.133H5.161z M43.932,56.377
		c0,0.66-0.636,1.198-1.417,1.198H19.541c-0.781,0-1.416-0.64-1.416-1.425V31.172c0-0.785,0.635-1.424,1.416-1.424h22.974
		c0.781,0,1.417,0.639,1.417,1.424v2.139l-0.362,0.113c-0.872,0.273-1.755,0.641-2.618,1.091l-0.755,0.39v-1.008
		c0-0.219-0.172-0.395-0.385-0.395H22.245c-0.212,0-0.384,0.176-0.384,0.395v19.531c0,0.215,0.172,0.393,0.384,0.393h17.567
		c0.213,0,0.385-0.178,0.385-0.393v-8.691l0.155-0.15c0.661-0.646,1.295-1.242,1.888-1.783c0.289-0.264,0.565-0.51,0.835-0.748
		l0.857-0.756V56.377z M47.86,36.475l-0.104,0.08c-0.502,0.354-2.334,1.686-4.866,3.977c-3.818,3.467-7.408,7.488-10.381,11.635
		c-0.152,0.209-0.381,0.332-0.63,0.354l-0.069,0.002c-0.234,0-0.459-0.094-0.615-0.258l-7.578-7.492
		c-0.166-0.168-0.251-0.383-0.25-0.609c0.005-0.23,0.1-0.445,0.266-0.602l2.539-2.305c0.316-0.295,0.885-0.287,1.194,0.031
		l3.758,3.803c2.125-2.875,8.15-9.931,16.145-10.088c0.388,0,0.714,0.232,0.828,0.58C48.205,35.902,48.106,36.254,47.86,36.475z"/>
</g>
</svg>
