<?xml version="1.0" encoding="iso-8859-1"?>
<!-- Generator: Adobe Illustrator 14.0.0, SVG Export Plug-In . SVG Version: 6.00 Build 43363)  -->
<!DOCTYPE svg PUBLIC "-//W3C//DTD SVG 1.1//EN" "http://www.w3.org/Graphics/SVG/1.1/DTD/svg11.dtd">
<svg version="1.1" id="icon-m-camera-scene-landscape-layer"
	 xmlns="http://www.w3.org/2000/svg" xmlns:xlink="http://www.w3.org/1999/xlink" x="0px" y="0px" width="64px" height="64px"
	 viewBox="0 0 64 64" style="enable-background:new 0 0 64 64;" xml:space="preserve">
<g id="icon-m-camera-scene-landscape">
	<rect style="fill:none;" width="64" height="64"/>
	<path style="fill:#333333;" d="M41.197,20.65c1.314,0,2.502-0.506,3.417-1.314c1.224,1.742,2.958,2.84,4.886,2.84
		s3.662-1.098,4.889-2.84c0.912,0.809,2.1,1.314,3.414,1.314c2.873,0,5.197-2.338,5.197-5.225c0-2.885-2.324-5.225-5.197-5.225
		c-0.664,0-1.294,0.137-1.877,0.365C55.09,6.869,52.531,4.176,49.5,4.176c-3.029,0-5.59,2.693-6.426,6.391
		c-0.582-0.229-1.213-0.365-1.877-0.365c-2.869,0-5.197,2.34-5.197,5.225C36,18.313,38.328,20.65,41.197,20.65z"/>
	<path style="fill:#333333;" d="M38,41C30.257,23.09,15.506,0.604,1,55h62C63,55,50.903,12.446,38,41z"/>
</g>
</svg>
