<?xml version="1.0" encoding="iso-8859-1"?>
<!-- Generator: Adobe Illustrator 14.0.0, SVG Export Plug-In . SVG Version: 6.00 Build 43363)  -->
<!DOCTYPE svg PUBLIC "-//W3C//DTD SVG 1.1//EN" "http://www.w3.org/Graphics/SVG/1.1/DTD/svg11.dtd">
<svg version="1.1" id="icon-l-contacts-layer" xmlns="http://www.w3.org/2000/svg" xmlns:xlink="http://www.w3.org/1999/xlink"
	 x="0px" y="0px" width="64px" height="64px" viewBox="0 0 64 64" style="enable-background:new 0 0 64 64;" xml:space="preserve">
<g id="icon-l-contacts">
	<rect style="fill:none;" width="64" height="64"/>
	<g>
		<path style="opacity:0.2;fill:#010101;stroke:#010101;stroke-width:2;stroke-linejoin:round;" d="M54.541,55.301V10.669
			c0-3.983-3.807-3.589-3.807-3.589H10.392v5.987H8.469c-0.784,0-1.418,0.629-1.418,1.406c0,0.783,0.634,1.417,1.418,1.417h1.923
			v9.381H8.469c-0.784,0-1.418,0.632-1.418,1.42c0,0.773,0.634,1.406,1.418,1.406h1.923v9.467H8.469
			c-0.784,0-1.418,0.632-1.418,1.42c0,0.774,0.634,1.404,1.418,1.404h1.923v9.43H8.469c-0.784,0-1.418,0.62-1.418,1.407
			c0,0.786,0.634,1.418,1.418,1.418h1.923v6.698h39.905C54.853,59.342,54.541,55.301,54.541,55.301z"/>
		<path style="opacity:0.5;fill:#010101;" d="M54.541,55.301V10.669c0-3.983-3.807-3.589-3.807-3.589H10.392v5.987H8.469
			c-0.784,0-1.418,0.629-1.418,1.406c0,0.783,0.634,1.417,1.418,1.417h1.923v9.381H8.469c-0.784,0-1.418,0.632-1.418,1.42
			c0,0.773,0.634,1.406,1.418,1.406h1.923v9.467H8.469c-0.784,0-1.418,0.632-1.418,1.42c0,0.774,0.634,1.404,1.418,1.404h1.923v9.43
			H8.469c-0.784,0-1.418,0.62-1.418,1.407c0,0.786,0.634,1.418,1.418,1.418h1.923v6.698h39.905
			C54.853,59.342,54.541,55.301,54.541,55.301z"/>
		<linearGradient id="SVGID_1_" gradientUnits="userSpaceOnUse" x1="32.4688" y1="-0.2598" x2="32.4687" y2="68.8118">
			<stop  offset="0" style="stop-color:#517EBF"/>
			<stop  offset="1" style="stop-color:#283176"/>
		</linearGradient>
		<path style="fill:url(#SVGID_1_);" d="M50.297,57.609H10.392V5.349h40.342c0,0,3.807-0.386,3.807,3.588V53.57
			C54.541,53.57,54.853,57.609,50.297,57.609z"/>
		<g>
			<polygon style="opacity:0.4;fill:#010101;" points="14.992,50.688 10.392,53.689 10.392,50.938 13.282,50.009 			"/>
			<g>
				<path style="fill:#010101;" d="M16.378,49.511c0,1.125-0.909,2.024-2.021,2.024c-1.113,0-2.012-0.899-2.012-2.024
					c0-1.11,0.898-2.009,2.012-2.009C15.469,47.502,16.378,48.4,16.378,49.511z"/>
				<linearGradient id="SVGID_2_" gradientUnits="userSpaceOnUse" x1="11.3228" y1="47.3379" x2="11.3228" y2="52.9844">
					<stop  offset="0.1978" style="stop-color:#FFFFFF"/>
					<stop  offset="0.8462" style="stop-color:#000000"/>
				</linearGradient>
				<path style="fill:url(#SVGID_2_);" d="M15.594,49.505c0,0.775-0.631,1.406-1.416,1.406H8.469c-0.784,0-1.418-0.631-1.418-1.406
					l0,0c0-0.788,0.634-1.417,1.418-1.417h5.709C14.963,48.088,15.594,48.717,15.594,49.505L15.594,49.505z"/>
			</g>
		</g>
		<g>
			<polygon style="opacity:0.4;fill:#010101;" points="14.992,38.412 10.392,41.416 10.392,38.671 13.282,37.746 			"/>
			<g>
				<path style="fill:#010101;" d="M16.378,37.266c0,1.111-0.909,2.013-2.021,2.013c-1.113,0-2.012-0.901-2.012-2.013
					c0-1.122,0.898-2.021,2.012-2.021C15.469,35.245,16.378,36.144,16.378,37.266z"/>
				<linearGradient id="SVGID_3_" gradientUnits="userSpaceOnUse" x1="11.3228" y1="35.0928" x2="11.3228" y2="40.7412">
					<stop  offset="0.1978" style="stop-color:#FFFFFF"/>
					<stop  offset="0.8462" style="stop-color:#000000"/>
				</linearGradient>
				<path style="fill:url(#SVGID_3_);" d="M15.594,37.252c0,0.783-0.631,1.415-1.416,1.415H8.469c-0.784,0-1.418-0.632-1.418-1.415
					l0,0c0-0.788,0.634-1.409,1.418-1.409h5.709C14.963,35.843,15.594,36.464,15.594,37.252L15.594,37.252z"/>
			</g>
		</g>
		<g>
			<polygon style="opacity:0.4;fill:#010101;" points="14.992,26.167 10.392,29.17 10.392,26.428 13.282,25.488 			"/>
			<g>
				<path style="fill:#010101;" d="M16.378,25.031c0,1.111-0.909,2.012-2.021,2.012c-1.113,0-2.012-0.9-2.012-2.012
					c0-1.123,0.898-2.021,2.012-2.021C15.469,23.01,16.378,23.908,16.378,25.031z"/>
				<linearGradient id="SVGID_4_" gradientUnits="userSpaceOnUse" x1="11.3228" y1="22.7866" x2="11.3228" y2="28.4585">
					<stop  offset="0.1978" style="stop-color:#FFFFFF"/>
					<stop  offset="0.8462" style="stop-color:#000000"/>
				</linearGradient>
				<path style="fill:url(#SVGID_4_);" d="M15.594,24.96c0,0.783-0.631,1.416-1.416,1.416H8.469c-0.784,0-1.418-0.633-1.418-1.416
					l0,0c0-0.788,0.634-1.42,1.418-1.42h5.709C14.963,23.54,15.594,24.172,15.594,24.96L15.594,24.96z"/>
			</g>
		</g>
		<g>
			<polygon style="opacity:0.4;fill:#010101;" points="14.992,13.933 10.392,16.936 10.392,14.194 13.282,13.256 			"/>
			<g>
				<path style="fill:#010101;" d="M16.378,12.878c0,1.112-0.909,2.011-2.021,2.011c-1.113,0-2.012-0.898-2.012-2.011
					c0-1.119,0.898-2.022,2.012-2.022C15.469,10.855,16.378,11.759,16.378,12.878z"/>
				<linearGradient id="SVGID_5_" gradientUnits="userSpaceOnUse" x1="11.3228" y1="10.5957" x2="11.3228" y2="16.2441">
					<stop  offset="0.1978" style="stop-color:#FFFFFF"/>
					<stop  offset="0.8462" style="stop-color:#000000"/>
				</linearGradient>
				<path style="fill:url(#SVGID_5_);" d="M15.594,12.752c0,0.783-0.631,1.418-1.416,1.418H8.469c-0.784,0-1.418-0.635-1.418-1.418
					l0,0c0-0.787,0.634-1.406,1.418-1.406h5.709C14.963,11.346,15.594,11.965,15.594,12.752L15.594,12.752z"/>
			</g>
		</g>
		<linearGradient id="SVGID_6_" gradientUnits="userSpaceOnUse" x1="34.0625" y1="14.3911" x2="34.0625" y2="68.4154">
			<stop  offset="0" style="stop-color:#F2F2F2"/>
			<stop  offset="0.1379" style="stop-color:#E4EDF0"/>
			<stop  offset="0.3971" style="stop-color:#C0DFEB"/>
			<stop  offset="0.747" style="stop-color:#86C8E4"/>
			<stop  offset="0.9945" style="stop-color:#59B7DE"/>
		</linearGradient>
		<path style="fill:url(#SVGID_6_);" d="M37.205,31.055c-1.039,0.636-2.129,0.977-3.26,0.977c-0.789,0-1.951-0.188-3.187-0.934
			c-6.408,1.162-8.463,5.859-8.463,11.479v2.153c0,5.282,23.535,5.282,23.535,0v-2.153C45.83,36.904,43.746,32.175,37.205,31.055z
			 M38.563,26.286c1.254-2.31,1.527-4.021,1.527-5.907c0-3.414-2.643-6.247-5.963-6.247c-0.023,0-0.043,0.009-0.068,0.009
			c-0.014,0-0.033-0.009-0.059-0.009c-3.316,0-5.958,2.833-5.958,6.247c0,1.887,0.281,3.598,1.524,5.907
			C31.931,30.735,35.771,30.889,38.563,26.286z"/>
		<path style="fill:#283176;" d="M34,15.338c0.025,0,0.045,0.004,0.059,0.004c0.025,0,0.045-0.004,0.068-0.004
			c3.189,0,5.729,2.629,5.926,5.872c0.012-0.278,0.037-0.548,0.037-0.831c0-3.414-2.643-6.247-5.963-6.247
			c-0.023,0-0.043,0.009-0.068,0.009c-0.014,0-0.033-0.009-0.059-0.009c-3.316,0-5.958,2.833-5.958,6.247
			c0,0.283,0.025,0.553,0.039,0.831C28.275,17.967,30.814,15.338,34,15.338z M37.205,31.055c-1.039,0.636-2.129,0.977-3.26,0.977
			c-0.789,0-1.951-0.188-3.187-0.934c-6.408,1.162-8.463,5.859-8.463,11.479v1.21c0-5.618,2.055-10.316,8.463-11.488
			c1.236,0.757,2.398,0.943,3.187,0.943c1.131,0,2.221-0.343,3.26-0.977c6.541,1.112,8.625,5.851,8.625,11.521v-1.21
			C45.83,36.904,43.746,32.175,37.205,31.055z"/>
		<path style="opacity:0.2;fill:#010101;" d="M34,15.338c0.025,0,0.045,0.004,0.059,0.004c0.025,0,0.045-0.004,0.068-0.004
			c3.189,0,5.729,2.629,5.926,5.872c0.012-0.278,0.037-0.548,0.037-0.831c0-3.414-2.643-6.247-5.963-6.247
			c-0.023,0-0.043,0.009-0.068,0.009c-0.014,0-0.033-0.009-0.059-0.009c-3.316,0-5.958,2.833-5.958,6.247
			c0,0.283,0.025,0.553,0.039,0.831C28.275,17.967,30.814,15.338,34,15.338z M37.205,31.055c-1.039,0.636-2.129,0.977-3.26,0.977
			c-0.789,0-1.951-0.188-3.187-0.934c-6.408,1.162-8.463,5.859-8.463,11.479v1.21c0-5.618,2.055-10.316,8.463-11.488
			c1.236,0.757,2.398,0.943,3.187,0.943c1.131,0,2.221-0.343,3.26-0.977c6.541,1.112,8.625,5.851,8.625,11.521v-1.21
			C45.83,36.904,43.746,32.175,37.205,31.055z"/>
	</g>
</g>
</svg>
