<?xml version="1.0" encoding="iso-8859-1"?>
<!-- Generator: Adobe Illustrator 14.0.0, SVG Export Plug-In . SVG Version: 6.00 Build 43363)  -->
<!DOCTYPE svg PUBLIC "-//W3C//DTD SVG 1.1//EN" "http://www.w3.org/Graphics/SVG/1.1/DTD/svg11.dtd">
<svg version="1.1" id="icon-m-content-backup-layer"
	 xmlns="http://www.w3.org/2000/svg" xmlns:xlink="http://www.w3.org/1999/xlink" x="0px" y="0px" width="64px" height="64px"
	 viewBox="0 0 64 64" style="enable-background:new 0 0 64 64;" xml:space="preserve">
<g id="icon-m-content-backup">
	<rect style="fill:none;" width="64" height="64"/>
	<g>
		<rect x="49.438" y="38.781" style="fill:#333333;" width="4.844" height="8.719"/>
		<rect x="49.438" y="17.469" style="fill:#333333;" width="4.844" height="8.719"/>
		<path style="fill:#333333;" d="M61.063,1H2.938C1.872,1,1,1.871,1,2.938v58.125C1,62.128,1.872,63,2.938,63h58.125
			C62.129,63,63,62.128,63,61.063V2.938C63,1.871,62.129,1,61.063,1z M58.156,58.156H5.844V5.844h52.313V58.156z"/>
		<path style="fill:#333333;" d="M46.531,16.752v-2.189h2.742h3.07V8.75H8.75v46.5h42.889v-4.336h-2.365h-2.742v-3.052v-9.375v-3.05
			h2.742h2.102v-6.26h-2.102h-2.742v-3.053V16.752z"/>
		<circle style="fill:#FFFFFF;" cx="27.55" cy="31.336" r="12.743"/>
		<circle style="fill:#FFFFFF;" cx="27.551" cy="31.336" r="4.844"/>
		<g>
			
				<rect x="30.11" y="18.031" transform="matrix(0.9062 0.4228 -0.4228 0.9062 12.4214 -11.2452)" style="fill:#333333;" width="2.896" height="8.689"/>
			
				<rect x="22.082" y="35.469" transform="matrix(0.9062 0.4229 -0.4229 0.9062 18.9835 -6.2095)" style="fill:#333333;" width="2.811" height="8.426"/>
			
				<rect x="17.216" y="22.724" transform="matrix(0.4226 -0.9063 0.9063 0.4226 -13.7561 32.5435)" style="fill:#333333;" width="2.896" height="8.689"/>
			
				<rect x="34.802" y="30.925" transform="matrix(0.4222 -0.9065 0.9065 0.4222 -11.0271 53.2384)" style="fill:#333333;" width="2.896" height="8.689"/>
			<circle style="fill:#333333;" cx="27.396" cy="31.301" r="8.235"/>
		</g>
	</g>
</g>
</svg>
