<?xml version="1.0" encoding="iso-8859-1"?>
<!-- Generator: Adobe Illustrator 14.0.0, SVG Export Plug-In . SVG Version: 6.00 Build 43363)  -->
<!DOCTYPE svg PUBLIC "-//W3C//DTD SVG 1.1//EN" "http://www.w3.org/Graphics/SVG/1.1/DTD/svg11.dtd">
<svg version="1.1" id="icon-m-camera-flash-off-layer"
	 xmlns="http://www.w3.org/2000/svg" xmlns:xlink="http://www.w3.org/1999/xlink" x="0px" y="0px" width="64px" height="64px"
	 viewBox="0 0 64 64" style="enable-background:new 0 0 64 64;" xml:space="preserve">
<g id="icon-m-camera-flash-off">
	<rect style="fill:none;" width="64" height="64"/>
	<path style="fill:#333333;" d="M32.003,0.902C14.882,0.903,1.002,14.791,1,31.919c0.002,17.107,13.882,30.979,31.003,30.983
		C49.115,62.898,62.998,49.026,63,31.919C62.998,14.791,49.117,0.903,32.003,0.902z M52.575,48.369l-8.681-8.682l-4.557,3.66
		l9.129,9.13c-4.513,3.615-10.232,5.788-16.463,5.798C17.438,58.25,5.654,46.466,5.625,31.919c0.014-6.237,2.185-11.964,5.805-16.48
		l7.675,7.675l4.362-3.853l-7.929-7.931c4.513-3.617,10.232-5.789,16.465-5.799V5.529c14.552,0.027,26.343,11.818,26.37,26.39
		C58.362,38.144,56.191,43.86,52.575,48.369z"/>
	<polygon style="fill:#333333;" points="40.594,12.527 23.018,28.06 32.353,33.56 19.406,51.277 44.594,31.053 34.547,25.957 	"/>
</g>
</svg>
