<?xml version="1.0" encoding="iso-8859-1"?>
<!-- Generator: Adobe Illustrator 14.0.0, SVG Export Plug-In . SVG Version: 6.00 Build 43363)  -->
<!DOCTYPE svg PUBLIC "-//W3C//DTD SVG 1.1//EN" "http://www.w3.org/Graphics/SVG/1.1/DTD/svg11.dtd">
<svg version="1.1" id="icon-l-extras-layer" xmlns="http://www.w3.org/2000/svg" xmlns:xlink="http://www.w3.org/1999/xlink"
	 x="0px" y="0px" width="48px" height="48px" viewBox="0 0 48 48" style="enable-background:new 0 0 48 48;" xml:space="preserve">
<g id="icon-l-extras">
	<rect style="fill:none;" width="48" height="48"/>
	<g id="icon-l-extras_2_">
		<path style="opacity:0.2;fill:#010101;stroke:#010101;stroke-width:2;" d="M36.855,22.629h-10.53l0.005-3.199h1.015
			c2.572,0,2.393-2.297,2.393-2.297l0.008-5.769h4.185c1.505,0,1.399-1.343,1.399-1.343l0.008-5.312c0,0,0.086-1.346-1.402-1.343
			h-5.191c-1.503,0-1.399,1.343-1.399,1.343l-0.001,1.052h-8.858c-2.57,0-2.393,2.295-2.393,2.295l-0.009,6.574h-5.574
			c-3.61,0-3.359,3.223-3.359,3.223L7.131,30.603c0,0-0.213,3.205,3.361,3.224h7.504l-0.012,7.832c0,0-0.253,3.82,4.008,3.842
			h14.847c4.301,0,4.004-3.842,4.004-3.842l0.022-15.19C40.867,26.468,41.11,22.626,36.855,22.629z"/>
		<path style="fill:#010101;fill-opacity:0.4;" d="M36.855,22.629h-10.53l0.005-3.199h1.015c2.572,0,2.393-2.297,2.393-2.297
			l0.008-5.769h4.185c1.505,0,1.399-1.343,1.399-1.343l0.008-5.312c0,0,0.086-1.346-1.402-1.343h-5.191
			c-1.503,0-1.399,1.343-1.399,1.343l-0.001,1.052h-8.858c-2.57,0-2.393,2.295-2.393,2.295l-0.009,6.574h-5.574
			c-3.61,0-3.359,3.223-3.359,3.223L7.131,30.603c0,0-0.213,3.205,3.361,3.224h7.504l-0.012,7.832c0,0-0.253,3.82,4.008,3.842
			h14.847c4.301,0,4.004-3.842,4.004-3.842l0.022-15.19C40.867,26.468,41.11,22.626,36.855,22.629z"/>
		<g style="opacity:0.9;">
			<path style="fill:#7EC242;" d="M27.353,4.895h-8.868c-2.57,0-2.393,2.297-2.393,2.297l-0.012,9.076c0,0-0.153,2.282,2.393,2.295
				h8.873c2.572,0,2.393-2.295,2.393-2.295l0.014-9.076C29.751,7.191,29.896,4.895,27.353,4.895z"/>
			<path style="fill:#FEE23D;" d="M33.935,2.5h-5.191c-1.503,0-1.399,1.342-1.399,1.342l-0.006,5.312c0,0-0.091,1.335,1.4,1.344
				h5.191c1.505,0,1.399-1.344,1.399-1.344l0.008-5.312C35.337,3.842,35.423,2.498,33.935,2.5z"/>
		</g>
		<g>
			<linearGradient id="SVGID_1_" gradientUnits="userSpaceOnUse" x1="31.3379" y1="2.5" x2="31.3379" y2="10.498">
				<stop  offset="0" style="stop-color:#FEE23F"/>
				<stop  offset="0.1759" style="stop-color:#FAD63A"/>
				<stop  offset="0.5155" style="stop-color:#F1B831"/>
				<stop  offset="0.981" style="stop-color:#E48A25"/>
				<stop  offset="1" style="stop-color:#E38825"/>
			</linearGradient>
			<path style="fill:url(#SVGID_1_);" d="M33.935,2.5h-5.191c-1.503,0-1.399,1.342-1.399,1.342l-0.006,5.312
				c0,0-0.091,1.335,1.4,1.344h5.191c1.505,0,1.399-1.344,1.399-1.344l0.008-5.312C35.337,3.842,35.423,2.498,33.935,2.5z"/>
			<path style="opacity:0.3;fill:#FFFFFF;" d="M27.823,9.205l-0.009-5.413c0.038-0.614,0.388-0.794,0.924-0.807h5.191
				c0.44,0.009,0.612,0.118,0.723,0.244l0.345-0.347C34.792,2.666,34.463,2.5,33.935,2.5h-5.191c-1.503,0-1.399,1.342-1.399,1.342
				l-0.006,5.312c0,0-0.04,0.565,0.337,0.961l0.346-0.346C27.847,9.601,27.823,9.343,27.823,9.205z"/>
			<path style="opacity:0.2;" d="M34.997,2.883l-0.345,0.347c0.188,0.184,0.201,0.485,0.199,0.562c0,0,0.005,5.387,0.005,5.413
				c-0.024,0.605-0.387,0.793-0.924,0.809h-5.189C28.305,10,28.132,9.895,28.021,9.77l-0.346,0.346
				c0.207,0.215,0.535,0.383,1.063,0.383h5.191c1.505,0,1.399-1.344,1.399-1.344l0.008-5.312
				C35.337,3.842,35.378,3.275,34.997,2.883z"/>
		</g>
		<g>
			<defs>
				<path id="SVGID_2_" d="M33.935,2.5h-5.191c-1.503,0-1.399,1.342-1.399,1.342l-0.006,5.312c0,0-0.091,1.335,1.4,1.344h5.191
					c1.505,0,1.399-1.344,1.399-1.344l0.008-5.312C35.337,3.842,35.423,2.498,33.935,2.5z"/>
			</defs>
			<clipPath id="SVGID_3_">
				<use xlink:href="#SVGID_2_"  style="overflow:visible;"/>
			</clipPath>
			<path style="opacity:0.3;clip-path:url(#SVGID_3_);fill:#010101;" d="M28.153,4.168h-8.869c-2.571,0-2.394,2.295-2.394,2.295
				l-0.012,9.076c0,0-0.152,2.283,2.394,2.295h8.871c2.572,0,2.393-2.295,2.393-2.295l0.014-9.076
				C30.55,6.463,30.696,4.168,28.153,4.168z"/>
		</g>
		<g>
			<linearGradient id="SVGID_4_" gradientUnits="userSpaceOnUse" x1="22.915" y1="4.8945" x2="22.915" y2="18.5625">
				<stop  offset="0" style="stop-color:#7EC242"/>
				<stop  offset="1" style="stop-color:#1D6433"/>
			</linearGradient>
			<path style="fill:url(#SVGID_4_);" d="M27.353,4.895h-8.868c-2.57,0-2.393,2.297-2.393,2.297l-0.012,9.076
				c0,0-0.153,2.282,2.393,2.295h8.873c2.572,0,2.393-2.295,2.393-2.295l0.014-9.076C29.751,7.191,29.896,4.895,27.353,4.895z"/>
			<path style="opacity:0.3;fill:#FFFFFF;" d="M16.909,16.354l-0.012-9.252c0.062-1.046,0.659-1.357,1.577-1.379h8.871
				c0.754,0.015,1.049,0.201,1.236,0.418l0.588-0.593c-0.352-0.371-0.912-0.654-1.816-0.654h-8.868c-2.57,0-2.393,2.297-2.393,2.297
				l-0.012,9.076c0,0-0.066,0.967,0.578,1.642l0.59-0.59C16.948,17.029,16.909,16.59,16.909,16.354z"/>
			<path style="opacity:0.2;" d="M29.169,5.549l-0.588,0.593c0.317,0.313,0.344,0.831,0.34,0.962c0,0,0.006,9.207,0.006,9.251
				c-0.039,1.034-0.656,1.354-1.575,1.382h-8.869c-0.75-0.021-1.046-0.206-1.235-0.417l-0.59,0.59
				c0.353,0.368,0.912,0.653,1.814,0.653h8.873c2.572,0,2.393-2.295,2.393-2.295l0.014-9.076
				C29.751,7.191,29.817,6.223,29.169,5.549z"/>
		</g>
		<g>
			<defs>
				<path id="SVGID_5_" d="M27.353,4.895h-8.868c-2.57,0-2.393,2.297-2.393,2.297l-0.012,9.076c0,0-0.153,2.282,2.393,2.295h8.873
					c2.572,0,2.393-2.295,2.393-2.295l0.014-9.076C29.751,7.191,29.896,4.895,27.353,4.895z"/>
			</defs>
			<clipPath id="SVGID_6_">
				<use xlink:href="#SVGID_5_"  style="overflow:visible;"/>
			</clipPath>
			<path style="opacity:0.3;clip-path:url(#SVGID_6_);fill:#010101;" d="M23.916,12.965H11.458c-3.608,0-3.36,3.222-3.36,3.222
				L8.083,28.936c0,0-0.215,3.205,3.362,3.224h12.459c3.612,0,3.361-3.224,3.361-3.224l0.018-12.749
				C27.282,16.187,27.487,12.965,23.916,12.965z"/>
		</g>
		<g>
			<linearGradient id="SVGID_7_" gradientUnits="userSpaceOnUse" x1="16.7319" y1="13.7646" x2="16.7319" y2="32.9595">
				<stop  offset="0" style="stop-color:#E38825"/>
				<stop  offset="0.3764" style="stop-color:#D07726"/>
				<stop  offset="1" style="stop-color:#AD5726"/>
			</linearGradient>
			<path style="fill:url(#SVGID_7_);" d="M22.966,13.765H10.509c-3.61,0-3.359,3.222-3.359,3.222L7.131,29.735
				c0,0-0.213,3.205,3.361,3.224h12.459c3.614,0,3.363-3.224,3.363-3.224l0.019-12.749C26.333,16.986,26.538,13.765,22.966,13.765z"
				/>
			<path style="opacity:0.3;fill:#FFFFFF;" d="M8.296,29.857L8.281,16.864c0.086-1.471,0.924-1.907,2.215-1.937h12.455
				c1.061,0.021,1.476,0.284,1.738,0.588l0.826-0.834c-0.494-0.521-1.281-0.917-2.549-0.917H10.509c-3.61,0-3.359,3.222-3.359,3.222
				L7.131,29.735c0,0-0.092,1.357,0.813,2.305l0.828-0.825C8.353,30.806,8.296,30.188,8.296,29.857z"/>
			<path style="opacity:0.2;" d="M25.516,14.682l-0.826,0.834c0.445,0.44,0.481,1.167,0.478,1.352c0,0,0.01,12.928,0.01,12.99
				c-0.056,1.452-0.924,1.902-2.215,1.942H10.507c-1.054-0.033-1.467-0.29-1.734-0.585L7.945,32.04
				c0.495,0.516,1.279,0.919,2.548,0.919h12.459c3.614,0,3.363-3.224,3.363-3.224l0.019-12.749
				C26.333,16.986,26.427,15.629,25.516,14.682z"/>
		</g>
		<g>
			<defs>
				<path id="SVGID_8_" d="M22.966,13.765H10.509c-3.61,0-3.359,3.222-3.359,3.222L7.131,29.735c0,0-0.213,3.205,3.361,3.224h12.459
					c3.614,0,3.363-3.224,3.363-3.224l0.019-12.749C26.333,16.986,26.538,13.765,22.966,13.765z"/>
			</defs>
			<clipPath id="SVGID_9_">
				<use xlink:href="#SVGID_8_"  style="overflow:visible;"/>
			</clipPath>
			<path style="clip-path:url(#SVGID_9_);fill:#010101;fill-opacity:0.3;" d="M36.855,20.483H22.013
				c-4.302,0-4.005,3.841-4.005,3.841l-0.021,15.19c0,0-0.254,3.818,4.007,3.842h14.847c4.301,0,4.005-3.842,4.005-3.842
				l0.021-15.19C40.867,24.324,41.111,20.48,36.855,20.483z"/>
		</g>
		<g>
			<linearGradient id="SVGID_10_" gradientUnits="userSpaceOnUse" x1="29.4268" y1="21.915" x2="29.4268" y2="44.1416">
				<stop  offset="0" style="stop-color:#517DBF"/>
				<stop  offset="1" style="stop-color:#293175"/>
			</linearGradient>
			<path style="fill:url(#SVGID_10_);" d="M36.855,21.762H22.013c-4.301,0-4.005,3.84-4.005,3.84l-0.022,15.189
				c0,0-0.253,3.82,4.008,3.842h14.847c4.301,0,4.004-3.842,4.004-3.842l0.022-15.189C40.867,25.602,41.11,21.759,36.855,21.762z"/>
			<path style="opacity:0.3;fill:#FFFFFF;" d="M19.375,40.936l-0.018-15.48c0.103-1.753,1.101-2.271,2.64-2.307h14.844
				c1.26,0.023,1.755,0.337,2.066,0.7l0.986-0.992c-0.589-0.622-1.527-1.095-3.038-1.095H22.013c-4.301,0-4.005,3.84-4.005,3.84
				l-0.022,15.189c0,0-0.109,1.616,0.97,2.747l0.985-0.985C19.44,42.067,19.375,41.33,19.375,40.936z"/>
			<path style="opacity:0.2;" d="M39.894,22.856l-0.986,0.992c0.532,0.522,0.576,1.39,0.57,1.609c0,0,0.012,15.406,0.012,15.478
				c-0.068,1.733-1.101,2.268-2.637,2.315H22.01c-1.256-0.039-1.75-0.344-2.069-0.698l-0.985,0.985
				c0.592,0.616,1.527,1.095,3.038,1.095h14.847c4.301,0,4.004-3.842,4.004-3.842l0.022-15.189
				C40.867,25.602,40.979,23.983,39.894,22.856z"/>
		</g>
	</g>
</g>
</svg>
