<?xml version="1.0" encoding="iso-8859-1"?>
<!-- Generator: Adobe Illustrator 14.0.0, SVG Export Plug-In . SVG Version: 6.00 Build 43363)  -->
<!DOCTYPE svg PUBLIC "-//W3C//DTD SVG 1.1//EN" "http://www.w3.org/Graphics/SVG/1.1/DTD/svg11.dtd">
<svg version="1.1" id="icon-m-camera-pause-layer" xmlns="http://www.w3.org/2000/svg" xmlns:xlink="http://www.w3.org/1999/xlink"
	 x="0px" y="0px" width="40px" height="40px" viewBox="0 0 40 40" style="enable-background:new 0 0 40 40;" xml:space="preserve">
<g id="icon-m-camera-pause">
	<rect style="fill:none;" width="40" height="40"/>
	<path style="fill:#FFFFFF;" d="M20,4.625c8.478,0,15.375,6.897,15.375,15.375S28.478,35.375,20,35.375
		c-8.478,0-15.375-6.897-15.375-15.375S11.522,4.625,20,4.625 M20,0.625C9.317,0.625,0.625,9.316,0.625,20S9.317,39.375,20,39.375
		c10.685,0,19.375-8.691,19.375-19.375S30.685,0.625,20,0.625L20,0.625z"/>
	<g>
		<g>
			<path style="fill:#FFFFFF;" d="M18.25,26.75c0,1.1-0.9,2-2,2h-2.562c-1.1,0-2-0.9-2-2v-13.5c0-1.1,0.9-2,2-2h2.562
				c1.1,0,2,0.9,2,2V26.75z"/>
		</g>
		<g>
			<path style="fill:#FFFFFF;" d="M28.312,26.75c0,1.1-0.9,2-2,2H23.75c-1.1,0-2-0.9-2-2v-13.5c0-1.1,0.9-2,2-2h2.562
				c1.1,0,2,0.9,2,2V26.75z"/>
		</g>
	</g>
</g>
</svg>
