<?xml version="1.0" encoding="iso-8859-1"?>
<!-- Generator: Adobe Illustrator 14.0.0, SVG Export Plug-In . SVG Version: 6.00 Build 43363)  -->
<!DOCTYPE svg PUBLIC "-//W3C//DTD SVG 1.1//EN" "http://www.w3.org/Graphics/SVG/1.1/DTD/svg11.dtd">
<svg version="1.1" id="icon-m-content-audiostream-layer"
	 xmlns="http://www.w3.org/2000/svg" xmlns:xlink="http://www.w3.org/1999/xlink" x="0px" y="0px" width="64px" height="64px"
	 viewBox="0 0 64 64" style="enable-background:new 0 0 64 64;" xml:space="preserve">
<g id="icon-m-content-audiostream">
	<rect style="fill:none;" width="64" height="64"/>
	<path style="fill:#333333;" d="M43.818,25.251c-1.723-0.649-3.946-0.442-6,0.728c-3.328,1.902-4.81,5.454-3.369,8.114
		c1.436,2.654,5.18,3.264,8.5,1.375c2.201-1.243,3.611-3.233,3.883-5.208c0.025-0.234,0.039-0.329,0.039-0.487v-3.975V1.931
		c0-0.401-0.281-0.574-0.623-0.374L27.41,12.211c-0.338,0.19-0.613,0.675-0.613,1.085v19.383c-1.73-0.636-3.959-0.427-6.006,0.743
		c-3.332,1.887-4.806,5.442-3.374,8.099c1.44,2.66,5.179,3.271,8.504,1.386c2.201-1.248,3.655-3.233,3.917-5.207
		c0.017-0.216,0.038-0.329,0.038-0.489V21.866c0-0.31,0.281-0.884,0.62-1.08l12.669-7.166c0.34-0.191,0.621-0.021,0.621,0.376
		v12.405"/>
	<circle style="fill:#333333;" cx="31.977" cy="55.133" r="8.858"/>
	<circle style="fill:#333333;" cx="14.878" cy="55.133" r="5.489"/>
	<circle style="fill:#333333;" cx="3.493" cy="55.133" r="3.493"/>
	<circle style="fill:#333333;" cx="49.077" cy="55.133" r="5.489"/>
	<circle style="fill:#333333;" cx="60.507" cy="55.133" r="3.493"/>
</g>
</svg>
