<?xml version="1.0" encoding="iso-8859-1"?>
<!-- Generator: Adobe Illustrator 14.0.0, SVG Export Plug-In . SVG Version: 6.00 Build 43363)  -->
<!DOCTYPE svg PUBLIC "-//W3C//DTD SVG 1.1//EN" "http://www.w3.org/Graphics/SVG/1.1/DTD/svg11.dtd">
<svg version="1.1" id="icon-m-toolbar-delete-layer"
	 xmlns="http://www.w3.org/2000/svg" xmlns:xlink="http://www.w3.org/1999/xlink" x="0px" y="0px" width="64px" height="64px"
	 viewBox="0 0 64 64" style="enable-background:new 0 0 64 64;" xml:space="preserve">
<g id="icon-m-toolbar-delete">
	<rect style="fill:none;" width="64" height="64"/>
	<path style="fill:#FFFFFF;" d="M45.937,16.269h-8.497v-2.606c0-0.748-0.612-1.359-1.359-1.359h-8.159
		c-0.748,0-1.36,0.611-1.36,1.359v2.606h-8.498c-0.748,0-1.36,0.612-1.36,1.359v4.419h30.594v-4.419
		C47.297,16.881,46.686,16.269,45.937,16.269z"/>
	<path style="fill:#FFFFFF;" d="M17.553,26.128l2.039,24.815c0,0.746,0.612,1.359,1.36,1.359h22.095c0.747,0,1.36-0.613,1.36-1.359
		l2.039-24.815H17.553z"/>
</g>
</svg>
