<?xml version="1.0" encoding="iso-8859-1"?>
<!-- Generator: Adobe Illustrator 14.0.0, SVG Export Plug-In . SVG Version: 6.00 Build 43363)  -->
<!DOCTYPE svg PUBLIC "-//W3C//DTD SVG 1.1//EN" "http://www.w3.org/Graphics/SVG/1.1/DTD/svg11.dtd">
<svg version="1.1" id="icon-m-common-ovi-layer" xmlns="http://www.w3.org/2000/svg" xmlns:xlink="http://www.w3.org/1999/xlink"
	 x="0px" y="0px" width="64px" height="64px" viewBox="0 0 64 64" style="enable-background:new 0 0 64 64;" xml:space="preserve">
<g id="icon-m-common-ovi">
	<rect style="fill:none;" width="64" height="64"/>
	<path style="fill:#333333;" d="M16.439,26.985c-3.663,0-3.953,4.45-3.953,7.867c0,3.5,0.165,8.855,3.953,8.855
		c3.786,0,3.994-4.778,3.994-8.855C20.434,31.681,19.94,26.985,16.439,26.985z"/>
	<path style="fill:#333333;" d="M59.479,1H4.523C2.585,1,1,2.585,1,4.521v54.957C1,61.415,2.585,63,4.523,63h54.956
		C61.416,63,63,61.415,63,59.479V4.521C63,2.585,61.416,1,59.479,1z M16.439,47.5c-8.03,0-10.789-5.522-10.789-12.521
		c0-6.924,3.748-11.781,10.874-11.781c7.37,0,10.747,4.902,10.747,11.944C27.271,42.514,23.853,47.5,16.439,47.5z M40.959,43.958
		c-0.826,2.184-1.711,3.542-4.604,3.542c-2.891,0-3.776-1.358-4.604-3.542l-5.915-20.431h6.88l4.201,17.68l4.449-17.68h5.809
		L40.959,43.958z M56.408,44.475c0,0.602,0,1.709-0.934,2.369c-0.484,0.343-1.228,0.656-2.357,0.656
		c-1.086,0-1.85-0.317-2.336-0.656c-0.932-0.66-0.932-1.768-0.932-2.369V27.306c0,0-0.162,0-0.382,0
		c-0.628,0-1.148-0.003-1.516-0.495c-0.171-0.232-0.405-0.614-0.405-1.386c0-0.743,0.234-1.159,0.405-1.387
		c0.367-0.497,0.888-0.51,1.516-0.51c0.22,0,0.45-0.001,0.45-0.001h6.49V44.475z M53.178,21.049c-2.1,0-3.621-1.074-3.621-3.049
		c0-1.98,1.479-3.051,3.621-3.051c2.02,0,3.622,1.111,3.622,3.051C56.8,19.975,55.28,21.049,53.178,21.049z"/>
</g>
</svg>
