<?xml version="1.0" encoding="iso-8859-1"?>
<!-- Generator: Adobe Illustrator 13.0.2, SVG Export Plug-In . SVG Version: 6.00 Build 14948)  -->
<!DOCTYPE svg PUBLIC "-//W3C//DTD SVG 1.1//EN" "http://www.w3.org/Graphics/SVG/1.1/DTD/svg11.dtd">
<svg version="1.1" xmlns="http://www.w3.org/2000/svg" xmlns:xlink="http://www.w3.org/1999/xlink" x="0px" y="0px" width="280px"
	 height="280px" viewBox="0 0 280 280" style="enable-background:new 0 0 280 280;" xml:space="preserve">
	<g id="icon-l-ovi">
		<linearGradient id="SVGID_1_" gradientUnits="userSpaceOnUse" x1="35.0205" y1="126.8887" x2="235.9785" y2="126.8887">
			<stop  offset="0" style="stop-color:#B9D532"/>
			<stop  offset="0.5281" style="stop-color:#5CBA47"/>
			<stop  offset="1" style="stop-color:#B9D532"/>
		</linearGradient>
		<path style="fill:url(#SVGID_1_);" d="M77.411,190.803c-31.551,0-42.391-21.677-42.391-49.178
			c0-27.18,14.728-46.266,42.718-46.266c28.953,0,42.221,19.25,42.221,46.913C119.959,171.229,106.529,190.803,77.411,190.803z
			 M77.411,110.238c-14.402,0-15.527,17.475-15.527,30.897c0,13.754,0.646,34.784,15.527,34.784
			c14.878,0,15.689-18.763,15.689-34.784C93.101,128.686,91.165,110.238,77.411,110.238z M114.322,96.656h27.027l16.512,69.431
			l17.479-69.431h22.823l-24.424,80.237c-2.711,8.252-6.725,13.909-18.085,13.909c-11.359,0-15.568-5.657-18.087-13.909
			L114.322,96.656z M221.748,86.918c-8.262,0-14.229-4.205-14.229-11.971c0-7.77,5.818-11.973,14.229-11.973
			c7.922,0,14.23,4.369,14.23,11.973C235.979,82.713,230.003,86.918,221.748,86.918z M208.666,178.929c0,2.356,0,6.705,3.657,9.286
			c1.903,1.346,4.923,2.588,9.181,2.588c4.439,0,7.348-1.233,9.265-2.588c3.659-2.581,3.659-6.93,3.659-9.286V96.654h-25.503
			c0,0-0.904,0.006-1.745,0.006c-2.479,0-4.521,0.055-5.964,2c-0.665,0.901-1.598,2.535-1.598,5.444
			c0,3.037,0.933,4.543,1.598,5.444c1.443,1.941,3.484,1.959,5.964,1.959c0.841,0,1.486-0.004,1.486-0.004V178.929z"/>
		<rect x="30" y="59.776" style="fill:none;" width="211" height="134.224"/>
		<g>
			<path style="fill:#0E9447;" d="M208.924,96.654c0,0-0.904,0.006-1.747,0.006c-2.477,0-4.52,0.055-5.961,2
				c-0.665,0.901-1.598,2.535-1.598,5.444c0,3.037,0.933,4.543,1.598,5.443c1.441,1.942,3.484,1.96,5.961,1.96
				c0.843,0,1.489-0.004,1.489-0.004v33.245c8.742,1.47,17.354,2.907,25.762,4.296V96.654H208.924z"/>
			
				<linearGradient id="SVGID_2_" gradientUnits="userSpaceOnUse" x1="-115.4131" y1="81.6328" x2="567.6853" y2="81.6328" gradientTransform="matrix(0.9686 0.2484 -0.2484 0.9686 19.683 18.57)">
				<stop  offset="0.0052" style="stop-color:#109647"/>
				<stop  offset="0.4599" style="stop-color:#179747"/>
				<stop  offset="0.6237" style="stop-color:#299B47"/>
				<stop  offset="0.7404" style="stop-color:#3CA147"/>
				<stop  offset="0.8347" style="stop-color:#54AA46"/>
				<stop  offset="0.9147" style="stop-color:#6EB944"/>
				<stop  offset="0.9429" style="stop-color:#79C143"/>
			</linearGradient>
			<path style="fill:url(#SVGID_2_);" d="M208.666,141.885v26.922c8.586-0.713,17.164-1.39,25.762-2.033V140.41
				C225.84,140.871,217.257,141.357,208.666,141.885z"/>
			
				<linearGradient id="SVGID_3_" gradientUnits="userSpaceOnUse" x1="-115.4097" y1="127.1445" x2="567.6849" y2="127.1445" gradientTransform="matrix(0.9686 0.2484 -0.2484 0.9686 19.683 18.57)">
				<stop  offset="0.0052" style="stop-color:#109647"/>
				<stop  offset="0.4599" style="stop-color:#179747"/>
				<stop  offset="0.6237" style="stop-color:#299B47"/>
				<stop  offset="0.7404" style="stop-color:#3CA147"/>
				<stop  offset="0.8347" style="stop-color:#54AA46"/>
				<stop  offset="0.9147" style="stop-color:#6EB944"/>
				<stop  offset="0.9429" style="stop-color:#79C143"/>
			</linearGradient>
			<path style="fill:url(#SVGID_3_);" d="M92.889,151.068c-0.695,12.94-3.618,24.853-15.479,24.853
				c-10.557,0-13.956-10.586-15.033-21.643c-8.662,0.96-17.32,1.966-25.974,3.017c2.438,12.648,8.274,22.904,18.875,28.604
				c17.644-2.526,35.309-4.837,52.986-6.962c6.807-7.366,10.555-17.828,11.476-30.404
				C110.783,149.336,101.84,150.179,92.889,151.068z"/>
			
				<linearGradient id="SVGID_4_" gradientUnits="userSpaceOnUse" x1="-115.4111" y1="101.5762" x2="567.6799" y2="101.5762" gradientTransform="matrix(0.9686 0.2484 -0.2484 0.9686 19.683 18.57)">
				<stop  offset="0.0052" style="stop-color:#109647"/>
				<stop  offset="0.4599" style="stop-color:#179747"/>
				<stop  offset="0.6237" style="stop-color:#299B47"/>
				<stop  offset="0.7404" style="stop-color:#3CA147"/>
				<stop  offset="0.8347" style="stop-color:#54AA46"/>
				<stop  offset="0.9147" style="stop-color:#6EB944"/>
				<stop  offset="0.9429" style="stop-color:#79C143"/>
			</linearGradient>
			<path style="fill:url(#SVGID_4_);" d="M163.178,144.967l-5.32,21.12l-4.835-20.345c-7.974,0.624-15.938,1.279-23.909,1.967
				l8.086,27.92c12.692-1.376,25.392-2.665,38.098-3.862l8.612-28.286C176.998,143.955,170.092,144.446,163.178,144.967z"/>
			
				<linearGradient id="SVGID_5_" gradientUnits="userSpaceOnUse" x1="-151.2607" y1="215.0586" x2="717.0958" y2="215.0586" gradientTransform="matrix(0.9856 -0.1694 0.1694 0.9856 -42.2355 -47.7078)">
				<stop  offset="0.0955" style="stop-color:#B9D532"/>
				<stop  offset="1" style="stop-color:#0E9447"/>
			</linearGradient>
			<path style="fill:url(#SVGID_5_);" d="M199.642,103.332c-0.014,0.25-0.023,0.502-0.023,0.772c0,3.037,0.933,4.543,1.598,5.443
				c1.441,1.942,3.484,1.96,5.961,1.96c0.843,0,1.489-0.004,1.489-0.004v41.498c8.496-2.117,17.113-4.16,25.762-6.079v-41.599
				C223.033,105.089,211.445,104.457,199.642,103.332z"/>
			
				<linearGradient id="SVGID_6_" gradientUnits="userSpaceOnUse" x1="-151.2671" y1="211.3467" x2="717.126" y2="211.3467" gradientTransform="matrix(0.9856 -0.1694 0.1694 0.9856 -42.2355 -47.7078)">
				<stop  offset="0.0955" style="stop-color:#B9D532"/>
				<stop  offset="1" style="stop-color:#0E9447"/>
			</linearGradient>
			<path style="fill:url(#SVGID_6_);" d="M119.959,142.272c0-18.424-5.887-33.108-18.369-40.868
				c-17.136,0.928-35.161,2.407-53.389,4.49c-8.703,8.225-13.183,20.749-13.183,35.73c0,27.503,10.841,49.178,42.392,49.178
				c1.879,0,3.694-0.079,5.439-0.242c5.212-2.156,10.068-3.978,14.522-5.373c1.923-0.606,3.927-1.232,5.995-1.881
				C114.618,175.064,119.959,160.534,119.959,142.272z M77.41,175.921c-14.882,0-15.527-21.03-15.527-34.785
				c0-13.423,1.124-30.899,15.527-30.899c13.754,0,15.689,18.449,15.689,30.899C93.1,157.157,92.289,175.921,77.41,175.921z"/>
			
				<linearGradient id="SVGID_7_" gradientUnits="userSpaceOnUse" x1="-151.2466" y1="210.4443" x2="717.0817" y2="210.4443" gradientTransform="matrix(0.9856 -0.1694 0.1694 0.9856 -42.2355 -47.7078)">
				<stop  offset="0.0955" style="stop-color:#B9D532"/>
				<stop  offset="1" style="stop-color:#0E9447"/>
			</linearGradient>
			<path style="fill:url(#SVGID_7_);" d="M191.161,102.441c-5.078-0.586-10.748-1.063-16.917-1.422l-16.387,65.067l-15.664-65.874
				c-8.469,0.019-17.401,0.201-26.679,0.55l20.953,72.313c12.995-3.926,27.212-8.088,42.141-12.191l17.628-57.893
				C194.551,102.817,192.854,102.635,191.161,102.441z"/>
			<path style="fill:#46A547;" d="M221.744,62.975c-8.409,0-14.225,4.203-14.225,11.973c0,7.766,5.967,11.971,14.225,11.971
				c8.259,0,14.234-4.205,14.234-11.971C235.979,67.344,229.67,62.975,221.744,62.975z"/>
			<path style="fill:#46A547;" d="M175.339,96.654l-4.182,16.63c8.089-2.622,16.183-5.146,24.254-7.576l2.751-9.054H175.339z"/>
			<path style="fill:#46A547;" d="M207.177,96.66c-2.477,0-4.52,0.055-5.961,2c-0.665,0.901-1.598,2.535-1.598,5.444
				c0,0.117,0.001,0.231,0.004,0.345c9.208-2.729,18.384-5.335,27.542-7.795h-18.24C208.924,96.654,208.02,96.66,207.177,96.66z"/>
			<path style="fill:#46A547;" d="M141.35,96.654h-27.027l9.547,32.932c7.772-2.836,15.56-5.603,23.343-8.288L141.35,96.654z"/>
			<path style="fill:#0F4C26;" d="M221.744,62.975c-1.909,0-3.675,0.216-5.279,0.64L234.048,81.6
				c1.235-1.788,1.931-4.014,1.931-6.652C235.979,67.344,229.67,62.975,221.744,62.975z"/>
			<path style="fill:#0E9447;" d="M83.615,95.643c-1.883-0.188-3.838-0.283-5.877-0.283c-12.769,0-22.78,3.971-29.883,10.877
				c-2.808,2.721,22.668,1.891,29.555,1.891C85.572,108.127,104.105,97.673,83.615,95.643z"/>
			<path style="fill:#46A547;" d="M83.613,95.646c-12.656,3.65-24.624,7.209-35.758,10.591
				c-8.473,8.224-12.837,20.611-12.837,35.388c0,7.563,0.823,14.689,2.669,21.041c7.713-2.784,15.9-5.867,24.612-9.264
				c-0.37-4.248-0.417-8.525-0.417-12.267c0-13.423,1.124-30.899,15.527-30.899c13.754,0,15.689,18.449,15.689,30.899
				c0,0.017,0,0.038,0,0.057c8.682-3.383,17.387-6.681,26.089-9.89C116.248,111.422,104.789,97.747,83.613,95.646z"/>
		</g>
		<path style="fill:none;" d="M0,280V0h280v280H0z"/>
		<rect id="_x3C_Slice_x3E__37_" style="fill:none;" width="280" height="280"/>
	</g>
</svg>
