<?xml version="1.0" encoding="iso-8859-1"?>
<!-- Generator: Adobe Illustrator 14.0.0, SVG Export Plug-In . SVG Version: 6.00 Build 43363)  -->
<!DOCTYPE svg PUBLIC "-//W3C//DTD SVG 1.1//EN" "http://www.w3.org/Graphics/SVG/1.1/DTD/svg11.dtd">
<svg version="1.1" id="icon-l-extras-layer" xmlns="http://www.w3.org/2000/svg" xmlns:xlink="http://www.w3.org/1999/xlink"
	 x="0px" y="0px" width="64px" height="64px" viewBox="0 0 64 64" style="enable-background:new 0 0 64 64;" xml:space="preserve">
<g id="icon-l-extras">
	<rect style="fill:none;" width="64" height="64"/>
	<g id="icon-l-extras_2_">
		<path style="opacity:0.2;fill:#010101;stroke:#010101;stroke-width:2;" d="M48.444,30.246h-13.47l0.007-4.092h1.297
			c3.289,0,3.061-2.938,3.061-2.938l0.012-7.379h5.352c1.924,0,1.789-1.717,1.789-1.717l0.01-6.795c0,0,0.111-1.721-1.793-1.717
			h-6.639c-1.924,0-1.791,1.717-1.791,1.717l-0.002,1.346H24.946c-3.288,0-3.061,2.936-3.061,2.936l-0.012,8.408h-7.129
			c-4.617,0-4.297,4.123-4.297,4.123l-0.023,16.307c0,0-0.272,4.1,4.3,4.123h9.598l-0.015,10.018c0,0-0.324,4.887,5.126,4.914
			h18.991c5.502,0,5.121-4.914,5.121-4.914l0.029-19.43C53.575,35.156,53.886,30.242,48.444,30.246z"/>
		<path style="fill:#010101;fill-opacity:0.4;" d="M48.444,30.246h-13.47l0.007-4.092h1.297c3.289,0,3.061-2.938,3.061-2.938
			l0.012-7.379h5.352c1.924,0,1.789-1.717,1.789-1.717l0.01-6.795c0,0,0.111-1.721-1.793-1.717h-6.639
			c-1.924,0-1.791,1.717-1.791,1.717l-0.002,1.346H24.946c-3.288,0-3.061,2.936-3.061,2.936l-0.012,8.408h-7.129
			c-4.617,0-4.297,4.123-4.297,4.123l-0.023,16.307c0,0-0.272,4.1,4.3,4.123h9.598l-0.015,10.018c0,0-0.324,4.887,5.126,4.914
			h18.991c5.502,0,5.121-4.914,5.121-4.914l0.029-19.43C53.575,35.156,53.886,30.242,48.444,30.246z"/>
		<g style="opacity:0.9;">
			<path style="fill:#7EC242;" d="M36.29,7.563H24.946c-3.288,0-3.061,2.938-3.061,2.938L21.87,22.109c0,0-0.195,2.92,3.061,2.936
				h11.348c3.289,0,3.061-2.936,3.061-2.936L39.356,10.5C39.356,10.5,39.542,7.563,36.29,7.563z"/>
			<path style="fill:#FEE23D;" d="M44.708,4.5h-6.639c-1.924,0-1.791,1.717-1.791,1.717l-0.008,6.795c0,0-0.115,1.707,1.791,1.719
				h6.641c1.924,0,1.789-1.719,1.789-1.719l0.01-6.795C46.501,6.217,46.612,4.498,44.708,4.5z"/>
		</g>
		<g>
			<linearGradient id="SVGID_1_" gradientUnits="userSpaceOnUse" x1="41.3857" y1="4.5" x2="41.3857" y2="14.7305">
				<stop  offset="0" style="stop-color:#FEE23F"/>
				<stop  offset="0.1759" style="stop-color:#FAD63A"/>
				<stop  offset="0.5155" style="stop-color:#F1B831"/>
				<stop  offset="0.981" style="stop-color:#E48A25"/>
				<stop  offset="1" style="stop-color:#E38825"/>
			</linearGradient>
			<path style="fill:url(#SVGID_1_);" d="M44.708,4.5h-6.639c-1.924,0-1.791,1.717-1.791,1.717l-0.008,6.795
				c0,0-0.115,1.707,1.791,1.719h6.641c1.924,0,1.789-1.719,1.789-1.719l0.01-6.795C46.501,6.217,46.612,4.498,44.708,4.5z"/>
			<path style="opacity:0.3;fill:#FFFFFF;" d="M36.89,13.076l-0.01-6.924c0.049-0.785,0.494-1.016,1.182-1.031h6.641
				c0.563,0.012,0.783,0.15,0.924,0.313l0.439-0.443c-0.26-0.277-0.682-0.49-1.357-0.49h-6.639c-1.924,0-1.791,1.717-1.791,1.717
				l-0.008,6.795c0,0-0.051,0.723,0.432,1.229l0.441-0.441C36.921,13.582,36.89,13.252,36.89,13.076z"/>
			<path style="opacity:0.2;" d="M46.065,4.99l-0.439,0.443c0.24,0.234,0.258,0.621,0.254,0.719c0,0,0.008,6.891,0.008,6.924
				c-0.033,0.775-0.494,1.014-1.182,1.035h-6.637c-0.563-0.018-0.785-0.152-0.926-0.313l-0.441,0.441
				c0.264,0.275,0.682,0.49,1.359,0.49h6.641c1.924,0,1.789-1.719,1.789-1.719l0.01-6.795C46.501,6.217,46.554,5.492,46.065,4.99z"
				/>
		</g>
		<g>
			<defs>
				<path id="SVGID_2_" d="M44.708,4.5h-6.639c-1.924,0-1.791,1.717-1.791,1.717l-0.008,6.795c0,0-0.115,1.707,1.791,1.719h6.641
					c1.924,0,1.789-1.719,1.789-1.719l0.01-6.795C46.501,6.217,46.612,4.498,44.708,4.5z"/>
			</defs>
			<clipPath id="SVGID_3_">
				<use xlink:href="#SVGID_2_"  style="overflow:visible;"/>
			</clipPath>
			<path style="opacity:0.3;clip-path:url(#SVGID_3_);fill:#010101;" d="M37.312,6.633H25.968c-3.288,0-3.062,2.936-3.062,2.936
				l-0.015,11.609c0,0-0.195,2.92,3.062,2.936h11.348c3.289,0,3.061-2.936,3.061-2.936l0.016-11.609
				C40.378,9.568,40.565,6.633,37.312,6.633z"/>
		</g>
		<g>
			<linearGradient id="SVGID_4_" gradientUnits="userSpaceOnUse" x1="30.6128" y1="7.5625" x2="30.6128" y2="25.0449">
				<stop  offset="0" style="stop-color:#7EC242"/>
				<stop  offset="1" style="stop-color:#1D6433"/>
			</linearGradient>
			<path style="fill:url(#SVGID_4_);" d="M36.29,7.563H24.946c-3.288,0-3.061,2.938-3.061,2.938L21.87,22.109
				c0,0-0.195,2.92,3.061,2.936h11.348c3.289,0,3.061-2.936,3.061-2.936L39.356,10.5C39.356,10.5,39.542,7.563,36.29,7.563z"/>
			<path style="opacity:0.3;fill:#FFFFFF;" d="M22.93,22.221l-0.016-11.834c0.08-1.338,0.844-1.736,2.018-1.764h11.346
				c0.965,0.02,1.342,0.258,1.582,0.535L38.612,8.4c-0.449-0.475-1.166-0.838-2.322-0.838H24.946c-3.288,0-3.061,2.938-3.061,2.938
				L21.87,22.109c0,0-0.084,1.236,0.739,2.1l0.755-0.754C22.981,23.084,22.93,22.521,22.93,22.221z"/>
			<path style="opacity:0.2;" d="M38.612,8.4L37.86,9.158c0.405,0.4,0.439,1.063,0.436,1.23c0,0,0.008,11.775,0.008,11.832
				c-0.051,1.322-0.842,1.732-2.016,1.768H24.944c-0.96-0.027-1.338-0.264-1.58-0.533l-0.755,0.754
				c0.451,0.471,1.166,0.836,2.321,0.836h11.348c3.289,0,3.061-2.936,3.061-2.936L39.356,10.5C39.356,10.5,39.442,9.262,38.612,8.4z
				"/>
		</g>
		<g>
			<defs>
				<path id="SVGID_5_" d="M36.29,7.563H24.946c-3.288,0-3.061,2.938-3.061,2.938L21.87,22.109c0,0-0.195,2.92,3.061,2.936h11.348
					c3.289,0,3.061-2.936,3.061-2.936L39.356,10.5C39.356,10.5,39.542,7.563,36.29,7.563z"/>
			</defs>
			<clipPath id="SVGID_6_">
				<use xlink:href="#SVGID_5_"  style="overflow:visible;"/>
			</clipPath>
			<path style="opacity:0.3;clip-path:url(#SVGID_6_);fill:#010101;" d="M31.893,17.885H15.959c-4.616,0-4.297,4.121-4.297,4.121
				l-0.022,16.307c0,0-0.274,4.1,4.3,4.123h15.936c4.621,0,4.3-4.123,4.3-4.123L36.2,22.006
				C36.2,22.006,36.462,17.885,31.893,17.885z"/>
		</g>
		<g>
			<linearGradient id="SVGID_7_" gradientUnits="userSpaceOnUse" x1="22.7036" y1="18.9082" x2="22.7036" y2="43.4595">
				<stop  offset="0" style="stop-color:#E38825"/>
				<stop  offset="0.3764" style="stop-color:#D07726"/>
				<stop  offset="1" style="stop-color:#AD5726"/>
			</linearGradient>
			<path style="fill:url(#SVGID_7_);" d="M30.678,18.908H14.745c-4.617,0-4.297,4.121-4.297,4.121l-0.023,16.307
				c0,0-0.272,4.1,4.3,4.123h15.936c4.622,0,4.299-4.123,4.299-4.123l0.023-16.307C34.983,23.029,35.247,18.908,30.678,18.908z"/>
			<path style="opacity:0.3;fill:#FFFFFF;" d="M11.915,39.492l-0.02-16.619c0.111-1.881,1.182-2.439,2.834-2.477h15.932
				c1.355,0.027,1.887,0.363,2.223,0.752l1.055-1.066c-0.631-0.666-1.637-1.174-3.26-1.174H14.745c-4.617,0-4.297,4.121-4.297,4.121
				l-0.023,16.307c0,0-0.118,1.736,1.04,2.947l1.06-1.055C11.987,40.705,11.915,39.914,11.915,39.492z"/>
			<path style="opacity:0.2;" d="M33.938,20.082l-1.055,1.066c0.569,0.563,0.616,1.492,0.612,1.729c0,0,0.012,16.535,0.012,16.615
				c-0.07,1.857-1.182,2.434-2.833,2.484H14.743c-1.348-0.043-1.877-0.371-2.219-0.748l-1.06,1.055
				c0.633,0.66,1.637,1.176,3.26,1.176h15.936c4.622,0,4.299-4.123,4.299-4.123l0.023-16.307
				C34.983,23.029,35.104,21.293,33.938,20.082z"/>
		</g>
		<g>
			<defs>
				<path id="SVGID_8_" d="M30.678,18.908H14.745c-4.617,0-4.297,4.121-4.297,4.121l-0.023,16.307c0,0-0.272,4.1,4.3,4.123h15.936
					c4.622,0,4.299-4.123,4.299-4.123l0.023-16.307C34.983,23.029,35.247,18.908,30.678,18.908z"/>
			</defs>
			<clipPath id="SVGID_9_">
				<use xlink:href="#SVGID_8_"  style="overflow:visible;"/>
			</clipPath>
			<path style="clip-path:url(#SVGID_9_);fill:#010101;fill-opacity:0.3;" d="M48.444,27.502H29.459
				c-5.503,0-5.123,4.912-5.123,4.912l-0.027,19.43c0,0-0.325,4.885,5.125,4.914h18.991c5.502,0,5.123-4.914,5.123-4.914
				l0.027-19.43C53.575,32.414,53.888,27.498,48.444,27.502z"/>
		</g>
		<g>
			<linearGradient id="SVGID_10_" gradientUnits="userSpaceOnUse" x1="38.9414" y1="29.3325" x2="38.9414" y2="57.7619">
				<stop  offset="0" style="stop-color:#517DBF"/>
				<stop  offset="1" style="stop-color:#293175"/>
			</linearGradient>
			<path style="fill:url(#SVGID_10_);" d="M48.444,29.137H29.458c-5.502,0-5.122,4.912-5.122,4.912l-0.029,19.428
				c0,0-0.324,4.887,5.126,4.914h18.991c5.502,0,5.121-4.914,5.121-4.914l0.029-19.428C53.575,34.049,53.886,29.133,48.444,29.137z"
				/>
			<path style="opacity:0.3;fill:#FFFFFF;" d="M26.084,53.662l-0.023-19.801c0.132-2.242,1.408-2.906,3.377-2.951h18.987
				c1.611,0.031,2.244,0.432,2.645,0.896l1.26-1.27c-0.752-0.795-1.953-1.4-3.885-1.4H29.458c-5.502,0-5.122,4.912-5.122,4.912
				l-0.029,19.428c0,0-0.139,2.068,1.241,3.514l1.261-1.26C26.168,55.109,26.084,54.166,26.084,53.662z"/>
			<path style="opacity:0.2;" d="M52.329,30.537l-1.26,1.27c0.68,0.668,0.734,1.777,0.727,2.059c0,0,0.018,19.705,0.018,19.797
				c-0.089,2.217-1.408,2.9-3.373,2.961H29.455c-1.606-0.049-2.237-0.439-2.646-0.893l-1.261,1.26c0.757,0.789,1.953,1.4,3.886,1.4
				h18.991c5.502,0,5.121-4.914,5.121-4.914l0.029-19.428C53.575,34.049,53.718,31.979,52.329,30.537z"/>
		</g>
	</g>
</g>
</svg>
