<?xml version="1.0" encoding="iso-8859-1"?>
<!-- Generator: Adobe Illustrator 14.0.0, SVG Export Plug-In . SVG Version: 6.00 Build 43363)  -->
<!DOCTYPE svg PUBLIC "-//W3C//DTD SVG 1.1//EN" "http://www.w3.org/Graphics/SVG/1.1/DTD/svg11.dtd">
<svg version="1.1" id="icon-m-music-video-dlna-device-layer"
	 xmlns="http://www.w3.org/2000/svg" xmlns:xlink="http://www.w3.org/1999/xlink" x="0px" y="0px" width="64px" height="64px"
	 viewBox="0 0 64 64" style="enable-background:new 0 0 64 64;" xml:space="preserve">
<g id="icon-m-music-video-dlna-device">
	<path style="fill:#333333;" d="M44.516,47.703c-0.1,0.003-1.877-0.085-2.955,1.096c-0.053,0.054-0.096,0.089-0.135,0.129
		c-0.848,1.047-2.145,1.715-3.596,1.715c-2.562,0-4.631-2.08-4.631-4.643c0-2.565,2.069-4.643,4.631-4.643
		c1.473,0,2.788,0.689,3.627,1.762c0.036,0.032,0.063,0.056,0.104,0.096c0.914,1.006,2.355,1.035,2.812,1.084H64
		C63.142,35.155,55.453,28,46.086,28c-5.799,0-10.942,2.753-14.234,7.012h11.525c0.099-0.004,1.877,0.084,2.955-1.096
		c0.053-0.053,0.096-0.09,0.135-0.13c0.847-1.046,2.145-1.715,3.596-1.715c2.561,0,4.631,2.079,4.631,4.644s-2.07,4.643-4.631,4.643
		c-1.473,0-2.788-0.691-3.628-1.764c-0.035-0.031-0.063-0.054-0.103-0.094c-0.914-1.006-2.356-1.037-2.812-1.084H29.779
		c-1.075,2.308-1.693,4.871-1.693,7.584s0.617,5.275,1.692,7.582h13.599c0.099-0.003,1.877,0.085,2.955-1.095
		c0.053-0.054,0.096-0.091,0.135-0.13c0.847-1.047,2.145-1.715,3.596-1.715c2.561,0,4.631,2.079,4.631,4.643
		c0,2.565-2.07,4.645-4.631,4.645c-1.473,0-2.788-0.691-3.628-1.764c-0.035-0.031-0.063-0.055-0.103-0.095
		c-0.914-1.007-2.356-1.036-2.812-1.084H31.851C35.143,61.246,40.287,64,46.086,64C55.452,64,63.141,56.846,64,47.703H44.516z"/>
	<rect style="fill:none;" width="64" height="64"/>
	<path style="fill:#333333;" d="M28.357,0.031H6.4c-3.541,0-6.4,2.685-6.4,6v43.187c0,3.284,2.86,5.992,6.4,5.992h17.483
		c-1.184-2.838-1.84-5.948-1.84-9.21c0-3.886,0.934-7.555,2.581-10.805H4.902V4.936h24.955v23.361
		c1.477-1.352,3.123-2.518,4.901-3.471V6.031C34.758,2.716,31.896,0.031,28.357,0.031z M13.879,41.211c0-1.1,0.9-2,2-2h3
		c1.1,0,2,0.9,2,2v2.991c0,1.101-0.9,2-2,2h-3c-1.1,0-2-0.899-2-2V41.211z"/>
</g>
</svg>
