<?xml version="1.0" encoding="iso-8859-1"?>
<!-- Generator: Adobe Illustrator 14.0.0, SVG Export Plug-In . SVG Version: 6.00 Build 43363)  -->
<!DOCTYPE svg PUBLIC "-//W3C//DTD SVG 1.1//EN" "http://www.w3.org/Graphics/SVG/1.1/DTD/svg11.dtd">
<svg version="1.1" id="icon-m-common-locked-layer" xmlns="http://www.w3.org/2000/svg" xmlns:xlink="http://www.w3.org/1999/xlink"
	 x="0px" y="0px" width="64px" height="64px" viewBox="0 0 64 64" style="enable-background:new 0 0 64 64;" xml:space="preserve">
<g id="icon-m-common-locked">
	<rect style="fill:none;" width="64" height="64"/>
	<path style="fill:#333333;" d="M60.182,27.668h-2.364c-0.002-3.063-0.007-7.02-0.007-7.117C57.809,12.236,51.011,5.5,42.62,5.5
		c-8.392,0-15.188,6.736-15.19,15.051c0,0.098-0.006,4.02-0.007,7.117h-2.365c-1.211,0-2.197,0.955-2.197,2.129v26.566
		c0,1.172,0.986,2.137,2.197,2.137h35.124c1.207,0,2.197-0.959,2.197-2.137V29.797C62.377,28.623,61.389,27.668,60.182,27.668z
		 M32.075,20.551c0.01-5.771,4.722-10.441,10.545-10.449c5.823,0.008,10.536,4.678,10.546,10.449
		c-0.002,0.098,0.005,4.055,0.007,7.117H32.088C32.081,24.57,32.075,20.648,32.075,20.551z M45.637,42.805v9.732h-5.826v-9.605
		c-1.617-0.961-2.705-2.721-2.705-4.738c0-3.045,2.47-5.514,5.515-5.514c3.044,0,5.514,2.469,5.514,5.514
		C48.134,40.123,47.139,41.82,45.637,42.805z"/>
</g>
</svg>
