<?xml version="1.0" encoding="UTF-8" standalone="no"?>
<!-- Generator: Adobe Illustrator 14.0.0, SVG Export Plug-In . SVG Version: 6.00 Build 43363)  -->

<svg
   xmlns:dc="http://purl.org/dc/elements/1.1/"
   xmlns:cc="http://creativecommons.org/ns#"
   xmlns:rdf="http://www.w3.org/1999/02/22-rdf-syntax-ns#"
   xmlns:svg="http://www.w3.org/2000/svg"
   xmlns="http://www.w3.org/2000/svg"
   xmlns:sodipodi="http://sodipodi.sourceforge.net/DTD/sodipodi-0.dtd"
   xmlns:inkscape="http://www.inkscape.org/namespaces/inkscape"
   version="1.1"
   id="icon-m-framework-home-layer"
   x="0px"
   y="0px"
   width="64px"
   height="64px"
   viewBox="0 0 64 64"
   style="enable-background:new 0 0 64 64;"
   xml:space="preserve"
   inkscape:version="0.47pre4 r22446"
   sodipodi:docname="Icon-home.svg"><metadata
   id="metadata12"><rdf:RDF><cc:Work
       rdf:about=""><dc:format>image/svg+xml</dc:format><dc:type
         rdf:resource="http://purl.org/dc/dcmitype/StillImage" /></cc:Work></rdf:RDF></metadata><defs
   id="defs10"><inkscape:perspective
     sodipodi:type="inkscape:persp3d"
     inkscape:vp_x="0 : 32 : 1"
     inkscape:vp_y="0 : 1000 : 0"
     inkscape:vp_z="64 : 32 : 1"
     inkscape:persp3d-origin="32 : 21.333333 : 1"
     id="perspective14" /></defs><sodipodi:namedview
   pagecolor="#ffffff"
   bordercolor="#666666"
   borderopacity="1"
   objecttolerance="10"
   gridtolerance="10"
   guidetolerance="10"
   inkscape:pageopacity="0"
   inkscape:pageshadow="2"
   inkscape:window-width="1232"
   inkscape:window-height="1381"
   id="namedview8"
   showgrid="true"
   inkscape:snap-grids="false"
   inkscape:zoom="15.4375"
   inkscape:cx="18.605701"
   inkscape:cy="28.991794"
   inkscape:window-x="522"
   inkscape:window-y="164"
   inkscape:window-maximized="0"
   inkscape:current-layer="icon-m-framework-home"><inkscape:grid
     type="xygrid"
     id="grid2820" /></sodipodi:namedview>
<g
   id="icon-m-framework-home">
	<rect
   style="fill:none;"
   width="64"
   height="64"
   id="rect4" />
	<path
   style="fill:#ffffff;fill-opacity:1"
   d="M 47.732,31.818503 32.767,18.272497 c -0.427,-0.389 -1.126,-0.389 -1.553,0 L 16.25,31.818503 c -0.427,0.389 -0.342,0.707 0.235,0.707 l 3.612,0 0,14.030497 6.741514,0 0,-9.999993 c -0.008,-0.943 1.032,-1.031 1.032,-1.031 l 3.578486,0 c 0,0 1.032,0 1.032,1.031 l 0,9.999993 11.452543,0 0,-14.030497 3.510457,0 c 0.577,0 0.714,-0.318 0.288,-0.707 z"
   id="path6"
   transform="matrix(1.9328285,0,0,1.9932172,-29.874265,-31.801249)"
   sodipodi:nodetypes="ccccccccccccccccc" />
</g>
</svg>