<?xml version="1.0" encoding="iso-8859-1"?>
<!-- Generator: Adobe Illustrator 14.0.0, SVG Export Plug-In . SVG Version: 6.00 Build 43363)  -->
<!DOCTYPE svg PUBLIC "-//W3C//DTD SVG 1.1//EN" "http://www.w3.org/Graphics/SVG/1.1/DTD/svg11.dtd">
<svg version="1.1" id="icon-m-camera-resolution-53m-layer"
	 xmlns="http://www.w3.org/2000/svg" xmlns:xlink="http://www.w3.org/1999/xlink" x="0px" y="0px" width="64px" height="64px"
	 viewBox="0 0 64 64" style="enable-background:new 0 0 64 64;" xml:space="preserve">
<g id="icon-m-camera-resolution-53m">
	<rect style="fill:none;" width="64" height="64"/>
	<path style="fill:#333333;" d="M12.202,52.128c0.325-0.051,0.725-0.051,1.1-0.051c3.524,0,5.674,1.925,5.674,5.749
		c0,4.149-2.125,6.174-6.773,6.174c-1.475,0-2.949-0.226-4.274-0.55v-2.449c1.25,0.324,2.375,0.6,3.55,0.6
		c2.399,0,3.349-1.2,3.349-3.649c0-2.124-1.1-3.399-3.674-3.399c-0.8,0-1.875,0.025-2.649,0.125v-9.072h9.773v2.399h-6.074V52.128z"
		/>
	<path style="fill:#333333;" d="M22.827,64c-1.225,0-2.199-0.976-2.199-2.2s0.975-2.225,2.199-2.225s2.225,1,2.225,2.225
		S24.051,64,22.827,64z"/>
	<path style="fill:#333333;" d="M30.526,47.804c-1.15,0-2.35,0.3-3.549,0.625v-2.425c1.3-0.325,2.824-0.6,4.374-0.6
		c3.424,0,5.899,1.149,5.899,4.524c0,2.124-1.176,3.574-3.3,4.224c2.35,0.425,3.624,2.024,3.624,4.249
		c0,3.999-2.523,5.599-6.949,5.599c-1.474,0-2.773-0.2-4.198-0.575v-2.424c1.499,0.35,2.674,0.6,3.799,0.6c2.3,0,3.2-1.1,3.2-3.125
		c0-2.674-1.55-3.148-5.399-3.148v-2.3c3.699,0,5.174-0.399,5.174-2.824C33.201,48.579,32.3,47.804,30.526,47.804z"/>
	<path style="fill:#333333;" d="M56.072,63.8h-4.023V51.728l-3.174,6.148h-1.5l-3.125-6.148V63.8h-4.123V45.604h3.599l4.399,8.598
		l4.398-8.598h3.549V63.8z"/>
	<polygon style="fill:#333333;" points="51.702,39.404 51.702,0 43.82,0 43.82,7.881 35.94,7.881 35.94,15.762 28.059,15.762 
		28.059,23.642 20.178,23.642 20.178,31.523 12.298,31.523 12.298,39.404 	"/>
</g>
</svg>
