<?xml version="1.0" encoding="iso-8859-1"?>
<!-- Generator: Adobe Illustrator 14.0.0, SVG Export Plug-In . SVG Version: 6.00 Build 43363)  -->
<!DOCTYPE svg PUBLIC "-//W3C//DTD SVG 1.1//EN" "http://www.w3.org/Graphics/SVG/1.1/DTD/svg11.dtd">
<svg version="1.1" id="icon-s-status-notifier-error-layer"
	 xmlns="http://www.w3.org/2000/svg" xmlns:xlink="http://www.w3.org/1999/xlink" x="0px" y="0px" width="36px" height="18px"
	 viewBox="0 0 36 18" style="enable-background:new 0 0 36 18;" xml:space="preserve">
<g id="icon-s-status-notifier-error">
	<rect style="fill:none;" width="36" height="18"/>
	<path style="fill:#FFFFFF;" d="M14.998,1.401c-1.499-0.809-3.655-1.237-5.412-1.287C9.176,0.103,8.432,0.132,8,0.246V12.99
		c0.422-0.135,1.172-0.229,1.585-0.298c1.732-0.289,3.913,0.479,5.412,1.287c1.279,0.689,2.588,1.33,3.923,1.91
		c0.233,0.102,0.472,0.205,0.714,0.309V3.62c-0.242-0.104-0.48-0.207-0.714-0.309C17.586,2.731,16.276,2.091,14.998,1.401z"/>
	<g id="error">
		<rect x="22" y="5" style="fill:#FFFFFF;" width="3" height="9"/>
		<rect x="22" y="16" style="fill:#FFFFFF;" width="3" height="2"/>
	</g>
</g>
</svg>
