<?xml version="1.0" encoding="iso-8859-1"?>
<!-- Generator: Adobe Illustrator 13.0.2, SVG Export Plug-In . SVG Version: 6.00 Build 14948)  -->
<!DOCTYPE svg PUBLIC "-//W3C//DTD SVG 1.1//EN" "http://www.w3.org/Graphics/SVG/1.1/DTD/svg11.dtd">
<svg version="1.1" xmlns="http://www.w3.org/2000/svg" xmlns:xlink="http://www.w3.org/1999/xlink" x="0px" y="0px" width="64px"
	 height="63.999px" viewBox="0 0 64 63.999" style="enable-background:new 0 0 64 63.999;" xml:space="preserve">
	<g id="icon-m-camera-tag-edit">
		<rect style="fill:none;" width="64" height="63.999"/>
		<path style="fill:#333333;" d="M27.285,51.137c-1.139-1.574-1.428-3.584-0.793-5.513l3.83-11.491
			c0.465-1.372,1.402-2.889,2.398-3.892L44.072,18.87L37.486,2.837c-0.545-1.329-2.057-1.918-3.359-1.309L17.568,9.283
			c-0.574,0.271-1.006,0.733-1.273,1.278l-0.02-0.008L0.242,51.704l28.252,11.007l3.564-9.146
			C30.164,53.556,28.381,52.65,27.285,51.137z M26.273,12.097c1.117-2.769,4.236-4.179,6.969-3.151s4.041,4.104,2.924,6.87
			s-4.236,4.177-6.969,3.149S25.156,14.862,26.273,12.097z"/>
		<path style="fill:#333333;" d="M63.447,23.737l-7.479-7.496c-0.414-0.412-1.088-0.412-1.5,0L36.625,34.116
			c-0.41,0.412-0.898,1.202-1.086,1.755l-3.822,11.473c-0.182,0.552,0.119,0.854,0.672,0.669l11.459-3.822
			c0.549-0.184,1.338-0.672,1.75-1.084l17.85-17.87C63.859,24.825,63.859,24.15,63.447,23.737z M43.465,41.61l-4.572,1.526
			l-2.301-2.302l1.525-4.58l2.027-2.029l5.303,5.4L43.465,41.61z"/>
	</g>
</svg>
