<?xml version="1.0" encoding="iso-8859-1"?>
<!-- Generator: Adobe Illustrator 14.0.0, SVG Export Plug-In . SVG Version: 6.00 Build 43363)  -->
<!DOCTYPE svg PUBLIC "-//W3C//DTD SVG 1.1//EN" "http://www.w3.org/Graphics/SVG/1.1/DTD/svg11.dtd">
<svg version="1.1" id="icon-l-office-tools-layer" xmlns="http://www.w3.org/2000/svg" xmlns:xlink="http://www.w3.org/1999/xlink"
	 x="0px" y="0px" width="64px" height="64px" viewBox="0 0 64 64" style="enable-background:new 0 0 64 64;" xml:space="preserve">
<g id="icon-l-office-tools">
	<rect style="fill:none;" width="63.998" height="64"/>
	<g>
		<linearGradient id="SVGID_1_" gradientUnits="userSpaceOnUse" x1="23.8452" y1="8.4746" x2="23.8452" y2="54.1558">
			<stop  offset="0" style="stop-color:#FFFFFF"/>
			<stop  offset="1" style="stop-color:#B3B2C9"/>
		</linearGradient>
		
			<rect x="6.451" y="8.475" style="opacity:0.2;fill:url(#SVGID_1_);stroke:#010101;stroke-width:2.4246;stroke-linejoin:round;" width="34.789" height="45.681"/>
		<rect x="6.451" y="8.475" style="opacity:0.5;fill:#010101;" width="34.789" height="45.681"/>
		<linearGradient id="SVGID_2_" gradientUnits="userSpaceOnUse" x1="23.8452" y1="1.459" x2="23.8452" y2="155.7363">
			<stop  offset="0" style="stop-color:#FFFFFF"/>
			<stop  offset="1" style="stop-color:#B3B2C9"/>
		</linearGradient>
		<rect x="6.451" y="6.981" style="fill:url(#SVGID_2_);" width="34.789" height="45.678"/>
		<path style="fill:#666666;" d="M12.624,29.385c0,0.8-0.645,1.442-1.443,1.442c-0.789,0-1.438-0.643-1.438-1.442
			c0-0.791,0.649-1.439,1.438-1.439C11.979,27.945,12.624,28.594,12.624,29.385z"/>
		<path style="fill:#666666;" d="M12.624,21.71c0,0.795-0.645,1.438-1.443,1.438c-0.789,0-1.438-0.644-1.438-1.438
			c0-0.797,0.649-1.438,1.438-1.438C11.979,20.271,12.624,20.913,12.624,21.71z"/>
		<path style="fill:#666666;" d="M12.624,37.059c0,0.801-0.645,1.442-1.443,1.442c-0.789,0-1.438-0.642-1.438-1.442
			c0-0.788,0.649-1.436,1.438-1.436C11.979,35.623,12.624,36.271,12.624,37.059z"/>
		<path style="fill:#666666;" d="M12.624,44.735c0,0.797-0.645,1.44-1.443,1.44c-0.789,0-1.438-0.644-1.438-1.44
			s0.649-1.439,1.438-1.439C11.979,43.296,12.624,43.938,12.624,44.735z"/>
		<rect x="15.243" y="20.705" style="fill:#666666;" width="21.72" height="2.009"/>
		<rect x="15.247" y="36.088" style="fill:#666666;" width="21.716" height="2.005"/>
		<rect x="15.243" y="28.399" style="fill:#666666;" width="21.72" height="2.006"/>
		<rect x="15.243" y="43.778" style="fill:#666666;" width="21.72" height="2.001"/>
		<linearGradient id="SVGID_3_" gradientUnits="userSpaceOnUse" x1="23.8452" y1="7.293" x2="23.8452" y2="20.5806">
			<stop  offset="0" style="stop-color:#7EC242"/>
			<stop  offset="1" style="stop-color:#1D6433"/>
		</linearGradient>
		<rect x="6.451" y="6.829" style="fill:url(#SVGID_3_);" width="34.789" height="7.928"/>
		<linearGradient id="SVGID_4_" gradientUnits="userSpaceOnUse" x1="39.7813" y1="13.1494" x2="39.7812" y2="58.8296">
			<stop  offset="0" style="stop-color:#FFFFFF"/>
			<stop  offset="1" style="stop-color:#B3B2C9"/>
		</linearGradient>
		
			<rect x="22.387" y="13.149" style="opacity:0.2;fill:url(#SVGID_4_);stroke:#010101;stroke-width:2.4246;stroke-linejoin:round;" width="34.789" height="45.68"/>
		<rect x="22.387" y="13.149" style="opacity:0.5;fill:#010101;" width="34.789" height="45.68"/>
		<linearGradient id="SVGID_5_" gradientUnits="userSpaceOnUse" x1="39.7813" y1="6.1328" x2="39.7812" y2="160.4134">
			<stop  offset="0" style="stop-color:#FFFFFF"/>
			<stop  offset="1" style="stop-color:#B3B2C9"/>
		</linearGradient>
		<rect x="22.387" y="11.655" style="fill:url(#SVGID_5_);" width="34.789" height="45.679"/>
		<linearGradient id="SVGID_6_" gradientUnits="userSpaceOnUse" x1="39.7813" y1="11.9663" x2="39.7813" y2="25.2573">
			<stop  offset="0" style="stop-color:#517EBF"/>
			<stop  offset="1" style="stop-color:#283176"/>
		</linearGradient>
		<rect x="22.387" y="11.502" style="fill:url(#SVGID_6_);" width="34.789" height="7.93"/>
		<g>
			<linearGradient id="SVGID_7_" gradientUnits="userSpaceOnUse" x1="51.6104" y1="22.3789" x2="25.0536" y2="67.0341">
				<stop  offset="0" style="stop-color:#7EC242"/>
				<stop  offset="1" style="stop-color:#1D6433"/>
			</linearGradient>
			<polygon style="fill:url(#SVGID_7_);" points="45.699,38.48 40.121,35.004 37.346,43.686 33.688,42.005 26.979,51.067 
				26.979,53.192 29.401,53.192 34.715,46.012 39.301,48.117 41.924,39.913 46.746,42.921 54.059,30.99 54.059,24.845 			"/>
		</g>
		<polyline style="fill:none;stroke:#808080;" points="53.016,53.05 27.059,53.05 27.059,24.606 		"/>
	</g>
</g>
</svg>
