<?xml version="1.0" encoding="iso-8859-1"?>
<!-- Generator: Adobe Illustrator 14.0.0, SVG Export Plug-In . SVG Version: 6.00 Build 43363)  -->
<!DOCTYPE svg PUBLIC "-//W3C//DTD SVG 1.1//EN" "http://www.w3.org/Graphics/SVG/1.1/DTD/svg11.dtd">
<svg version="1.1" id="icon-m-camera-scene-macro-screen-layer"
	 xmlns="http://www.w3.org/2000/svg" xmlns:xlink="http://www.w3.org/1999/xlink" x="0px" y="0px" width="24px" height="24px"
	 viewBox="0 0 24 24" style="enable-background:new 0 0 24 24;" xml:space="preserve">
<g id="icon-m-camera-scene-macro-screen">
	<rect style="fill:none;" width="24" height="24"/>
	<path style="fill:#FFFFFF;" d="M13.191,22.412v-3.375c0.297,0.446,0.525,0.641,0.866,0.861c1.478,0.949,3.581,0.917,5.233,0.472
		c3.426-0.919,4.4-4.17,4.4-7.333c-0.645,0.25-7.002,2.826-9.691,3.861c-0.331,0.129-0.525,0.413-0.809,0.639v-5.25
		c2.827-0.459,4.766-2.887,4.766-5.843c0-1.458-0.526-2.792-1.397-3.825l-1.868,4.793l-2.625-6l-2.625,6L7.567,2.537
		c-0.864,1.033-1.5,2.456-1.5,3.907c0,2.956,2.048,5.384,4.875,5.843v5.25c-0.281-0.241-0.601-0.463-0.942-0.594
		c-2.689-1.036-8.913-3.658-9.558-3.906c0,3.165,0.84,6.455,4.267,7.377c1.653,0.444,3.757,0.479,5.234-0.472
		c0.352-0.226,0.702-0.442,1-0.905v3.375H13.191z"/>
</g>
</svg>
