<?xml version="1.0" encoding="iso-8859-1"?>
<!-- Generator: Adobe Illustrator 14.0.0, SVG Export Plug-In . SVG Version: 6.00 Build 43363)  -->
<!DOCTYPE svg PUBLIC "-//W3C//DTD SVG 1.1//EN" "http://www.w3.org/Graphics/SVG/1.1/DTD/svg11.dtd">
<svg version="1.1" id="icon-m-common-pages3-layer" xmlns="http://www.w3.org/2000/svg" xmlns:xlink="http://www.w3.org/1999/xlink"
	 x="0px" y="0px" width="64px" height="64px" viewBox="0 0 64 64" style="enable-background:new 0 0 64 64;" xml:space="preserve">
<g id="icon-m-common-pages3">
	<rect style="fill:none;" width="64" height="64"/>
	<path style="fill:#333333;" d="M27,31.363V0H0v36h24.191C24.954,34.344,25.897,32.79,27,31.363z M3,33.246V2.99h21v30.256H3z"/>
	<path style="fill:#333333;" d="M34,25.229V2.99h21v20.768c1.038,0.422,2.039,0.914,3,1.471V0H31v27.285
		C31.944,26.526,32.947,25.84,34,25.229z"/>
	<path style="fill:#333333;" d="M46,28c-9.941,0-18,8.06-18,18c0,9.942,8.059,18,18,18s18-8.058,18-18C64,36.06,55.941,28,46,28z
		 M44.535,57.791c-1.643,0-3.157-0.217-4.908-0.704l-0.733-0.202v-4.497l1.235,0.298c1.621,0.392,2.869,0.668,4.174,0.668
		c2.057,0,2.858-0.809,2.858-2.887c0-2.271-0.688-2.887-5.526-2.887h-1v-4.379h1c4.584,0,5.236-0.521,5.236-2.451
		c0-1.299-0.386-2.104-2.307-2.104c-1.227,0-2.424,0.319-3.811,0.687l-1.256,0.332l-0.023-4.568l0.757-0.189
		c1.876-0.469,3.53-0.696,5.058-0.696c6.221,0,7.527,3.383,7.527,6.222c0,2.005-0.832,3.688-2.305,4.799
		c1.657,1.025,2.594,2.801,2.594,5.063C53.105,55.268,50.223,57.791,44.535,57.791z"/>
</g>
</svg>
