<?xml version="1.0" encoding="iso-8859-1"?>
<!-- Generator: Adobe Illustrator 14.0.0, SVG Export Plug-In . SVG Version: 6.00 Build 43363)  -->
<!DOCTYPE svg PUBLIC "-//W3C//DTD SVG 1.1//EN" "http://www.w3.org/Graphics/SVG/1.1/DTD/svg11.dtd">
<svg version="1.1" id="icon-m-content-server-certificates-layer"
	 xmlns="http://www.w3.org/2000/svg" xmlns:xlink="http://www.w3.org/1999/xlink" x="0px" y="0px" width="64px" height="64px"
	 viewBox="0 0 64 64" style="enable-background:new 0 0 64 64;" xml:space="preserve">
<g id="icon-m-content-server-certificates">
	<rect style="fill:none;" width="64" height="64"/>
	<path style="fill:#333333;" d="M48.18,24.81c-4.811,0-8.724,3.915-8.724,8.723c0,4.812,3.913,8.724,8.724,8.724
		c4.809,0,8.723-3.912,8.723-8.724C56.902,28.725,52.988,24.81,48.18,24.81z"/>
	<path style="fill:#333333;" d="M63.246,33.615c0-8.296-6.728-15.023-15.022-15.023c-8.3,0-15.024,6.728-15.024,15.023
		c0,5.799,3.293,10.825,8.106,13.327l-2.929,16.094l9.845-6.436l9.846,6.437l-2.929-16.095
		C59.951,44.44,63.246,39.414,63.246,33.615z M48.18,45.648c-6.682,0-12.116-5.434-12.116-12.116c0-6.68,5.435-12.114,12.116-12.114
		c6.68,0,12.115,5.435,12.115,12.114C60.295,40.215,54.859,45.648,48.18,45.648z"/>
	<path style="fill:#333333;" d="M34.904,49.639c-4.72-3.91-7.521-9.734-7.521-16.023c0-4.18,1.25-8.069,3.377-11.335H10.279
		c-0.473,0-0.863-0.39-0.863-0.864v-3.449c0-0.471,0.391-0.862,0.863-0.862h22.44c0.476,0,0.863,0.392,0.863,0.862v0.84
		c2.281-2.255,5.08-3.982,8.199-5V4.375c0-1.841-1.514-3.338-3.381-3.338H4.597c-1.865,0-3.381,1.497-3.381,3.338v46.777
		c0,1.845,1.516,3.344,3.381,3.344H34.02L34.904,49.639z M9.416,9.13c0-0.475,0.391-0.861,0.863-0.861h22.44
		c0.476,0,0.863,0.387,0.863,0.861v3.448c0,0.476-0.387,0.862-0.863,0.862h-22.44c-0.473,0-0.863-0.387-0.863-0.862V9.13z
		 M16.184,32.807c0,0.532-0.438,0.968-0.969,0.968h-4.846c-0.535,0-0.97-0.436-0.97-0.968v-4.843c0-0.532,0.435-0.968,0.97-0.968
		h4.846c0.532,0,0.969,0.436,0.969,0.968V32.807z"/>
</g>
</svg>
