<?xml version="1.0" encoding="iso-8859-1"?>
<!-- Generator: Adobe Illustrator 14.0.0, SVG Export Plug-In . SVG Version: 6.00 Build 43363)  -->
<!DOCTYPE svg PUBLIC "-//W3C//DTD SVG 1.1//EN" "http://www.w3.org/Graphics/SVG/1.1/DTD/svg11.dtd">
<svg version="1.1" id="icon-m-energy-management-battery-low-layer"
	 xmlns="http://www.w3.org/2000/svg" xmlns:xlink="http://www.w3.org/1999/xlink" x="0px" y="0px" width="64px" height="64px"
	 viewBox="0 0 64 64" style="enable-background:new 0 0 64 64;" xml:space="preserve">
<g id="icon-m-energy-management-battery-low">
	<rect style="fill:none;" width="64" height="64"/>
	<path style="fill:#333333;" d="M60.623,25.455h-2.818V15.381c0-1.033-0.845-1.88-1.878-1.88H3.38c-1.034,0-1.88,0.847-1.88,1.88
		v33.242c0,1.033,0.846,1.878,1.88,1.878h52.546c1.033,0,1.878-0.845,1.878-1.878V38.547h2.818c1.035,0,1.879-0.845,1.879-1.878
		v-9.337C62.502,26.301,61.658,25.455,60.623,25.455z M52.11,44.22c0,1.033-0.845,1.878-1.878,1.878H7.063
		c-1.033,0-1.878-0.845-1.878-1.878V19.787c0-1.033,0.845-1.879,1.878-1.879h43.17c1.033,0,1.878,0.846,1.878,1.879V44.22z"/>
	<rect x="8.567" y="21.244" style="fill:#333333;" width="4.03" height="21.514"/>
</g>
</svg>
