<?xml version="1.0" encoding="iso-8859-1"?>
<!-- Generator: Adobe Illustrator 14.0.0, SVG Export Plug-In . SVG Version: 6.00 Build 43363)  -->
<!DOCTYPE svg PUBLIC "-//W3C//DTD SVG 1.1//EN" "http://www.w3.org/Graphics/SVG/1.1/DTD/svg11.dtd">
<svg version="1.1" id="icon-l-telephony-layer" xmlns="http://www.w3.org/2000/svg" xmlns:xlink="http://www.w3.org/1999/xlink"
	 x="0px" y="0px" width="48px" height="48px" viewBox="0 0 48 48" style="enable-background:new 0 0 48 48;" xml:space="preserve">
<g id="icon-l-telephony">
	<rect style="fill:none;" width="48" height="48"/>
	<g>
		<path style="opacity:0.2;stroke:#010101;stroke-width:2.1143;" d="M31.451,2.684C22.939,6.655,6,21.48,1.954,32.015
			C0.179,36.633,3.751,43.948,6.58,46.226c0,0,1.398,1.267,2.553-0.009l7.694-10.311c0.521-0.669,1.04-1.545-0.013-2.595
			c0,0-5.287-3.842-3.744-6.276c1.08-1.689,11.64-12.201,13.333-13.26c2.448-1.532,6.257,3.779,6.257,3.779
			c1.05,1.056,1.924,0.539,2.597,0.023l10.363-7.634c1.275-1.278,0.025-2.563,0.02-2.563C43.372,4.549,35.941,0.588,31.451,2.684z"
			/>
		<path style="opacity:0.5;" d="M31.451,2.684C22.939,6.655,6,21.48,1.954,32.015C0.179,36.633,3.751,43.948,6.58,46.226
			c0,0,1.398,1.267,2.553-0.009l7.694-10.311c0.521-0.669,1.04-1.545-0.013-2.595c0,0-5.287-3.842-3.744-6.276
			c1.08-1.689,11.64-12.201,13.333-13.26c2.448-1.532,6.257,3.779,6.257,3.779c1.05,1.056,1.924,0.539,2.597,0.023l10.363-7.634
			c1.275-1.278,0.025-2.563,0.02-2.563C43.372,4.549,35.941,0.588,31.451,2.684z"/>
		<linearGradient id="SVGID_1_" gradientUnits="userSpaceOnUse" x1="23.8364" y1="-8.4072" x2="23.8364" y2="57.9863">
			<stop  offset="0" style="stop-color:#517EBF"/>
			<stop  offset="1" style="stop-color:#283176"/>
		</linearGradient>
		<path style="fill:url(#SVGID_1_);" d="M31.451,1.375C22.939,5.346,6,20.172,1.954,30.703C0.179,35.324,3.751,42.639,6.58,44.916
			c0,0,1.398,1.266,2.553-0.008l7.694-10.311c0.521-0.67,1.04-1.547-0.013-2.597c0,0-5.287-3.841-3.744-6.276
			c1.08-1.688,11.64-12.199,13.333-13.26c2.448-1.533,6.257,3.781,6.257,3.781c1.05,1.055,1.924,0.535,2.597,0.022l10.363-7.634
			c1.275-1.277,0.025-2.562,0.02-2.562C43.372,3.237,35.941-0.723,31.451,1.375z"/>
		<path style="opacity:0.15;fill:#FFFFFF;" d="M8.113,44.146c-0.097,0.091-0.341,0.042-0.448-0.003
			c-2.179-1.652-6.113-8.262-4.528-12.979C6.612,20.902,25.623,5.098,31.992,2.521c4.336-1.896,11.213,2.436,12.655,4.344
			c0.147,0.246,0.312,0.409,0.281,0.584c-0.005,0.016-0.005,0.016-0.007,0.027l1.232,0.334c0.113-0.468-0.016-0.96-0.218-1.324
			c-2.142-3.082-9.894-7.256-14.485-5.111C22.939,5.346,6,20.172,1.954,30.703c-1.67,4.354,1.562,12.039,5.031,14.52
			c0.4,0.221,0.931,0.35,1.426,0.191L8.113,44.146z"/>
		<path style="opacity:0.3;fill:#010101;" d="M46.154,7.811l-1.232-0.334c-0.004,0.062,0.002,0.065-0.105,0.167l-10.312,7.599
			c-0.604,0.439-0.643,0.379-0.891,0.153c-0.223-0.3-0.895-1.177-1.81-2.081c-1.187-1.078-3.568-3.366-6.075-1.927
			C23.59,12.82,13.45,22.92,11.998,25.037c-1.454,2.462,0.835,5.027,1.897,6.098c0.901,0.92,1.777,1.596,2.069,1.818
			c0.226,0.246,0.292,0.326-0.142,0.863L8.113,44.146l0.297,1.269c0.257-0.084,0.506-0.236,0.722-0.506l7.694-10.311
			c0.521-0.67,1.04-1.547-0.013-2.597c0,0-5.287-3.841-3.744-6.276c1.08-1.688,11.64-12.199,13.333-13.26
			c2.448-1.533,6.257,3.781,6.257,3.781c1.05,1.055,1.924,0.535,2.597,0.022l10.363-7.634C45.918,8.388,46.084,8.106,46.154,7.811z"
			/>
	</g>
</g>
</svg>
