<?xml version="1.0" encoding="iso-8859-1"?>
<!-- Generator: Adobe Illustrator 14.0.0, SVG Export Plug-In . SVG Version: 6.00 Build 43363)  -->
<!DOCTYPE svg PUBLIC "-//W3C//DTD SVG 1.1//EN" "http://www.w3.org/Graphics/SVG/1.1/DTD/svg11.dtd">
<svg version="1.1" id="icon-m-content-playlist-audio-layer"
	 xmlns="http://www.w3.org/2000/svg" xmlns:xlink="http://www.w3.org/1999/xlink" x="0px" y="0px" width="64px" height="64px"
	 viewBox="0 0 64 64" style="enable-background:new 0 0 64 64;" xml:space="preserve">
<g id="icon-m-content-playlist-audio">
	<rect style="fill:none;" width="64" height="64"/>
	<path style="fill:#333333;" d="M9.494,16.105c-1.235,0-2.237-1.001-2.237-2.236c0-1.236,1.001-2.236,2.237-2.236
		c1.236,0,2.237,1,2.237,2.236C11.731,15.104,10.73,16.105,9.494,16.105"/>
	<rect x="16.357" y="12.369" style="fill:#333333;" width="24.271" height="3"/>
	<path style="fill:#333333;" d="M9.494,24.896c-1.235,0-2.237-1.002-2.237-2.236c0-1.237,1.001-2.237,2.237-2.237
		c1.236,0,2.237,1,2.237,2.237C11.731,23.894,10.73,24.896,9.494,24.896"/>
	<rect x="16.357" y="21.159" style="fill:#333333;" width="24.271" height="3"/>
	<path style="fill:#333333;" d="M9.494,33.685c-1.235,0-2.237-1.001-2.237-2.236c0-1.236,1.001-2.236,2.237-2.236
		c1.236,0,2.237,1,2.237,2.236C11.731,32.684,10.73,33.685,9.494,33.685"/>
	<rect x="16.357" y="29.948" style="fill:#333333;" width="22.315" height="3"/>
	<path style="fill:#333333;" d="M9.494,42.474c-1.235,0-2.237-1.001-2.237-2.236c0-1.236,1.001-2.236,2.237-2.236
		c1.236,0,2.237,1,2.237,2.236C11.731,41.473,10.73,42.474,9.494,42.474"/>
	<rect x="16.357" y="38.737" style="fill:#333333;" width="22.315" height="3"/>
	<path style="fill:#333333;" d="M61.062,46.363c-1.658-0.613-3.8-0.418-5.776,0.686c-3.205,1.783-4.632,5.13-3.244,7.631
		c1.381,2.499,4.986,3.07,8.184,1.294c2.117-1.171,3.478-3.044,3.738-4.896C63.985,50.855,64,50.771,64,50.617v-3.74V24.43
		c0-0.375-0.272-0.539-0.602-0.353L45.262,34.098c-0.325,0.182-0.59,0.634-0.59,1.02V53.35c-1.666-0.596-3.813-0.4-5.785,0.703
		c-3.207,1.77-4.626,5.119-3.246,7.615c1.385,2.502,4.984,3.078,8.186,1.301c2.121-1.174,3.52-3.043,3.772-4.893
		c0.017-0.205,0.036-0.313,0.036-0.463V43.18c0-0.291,0.271-0.834,0.599-1.016l12.198-6.739c0.326-0.184,0.598-0.022,0.598,0.352
		v11.673"/>
	<path style="fill:#333333;" d="M30.023,55.238c0.353-0.829,0.813-1.617,1.347-2.362h-8.515H2.601V2.601h22.864H45.72v24.39
		l2.601-1.437V1.789C48.32,0.806,47.514,0,46.529,0H25.464H1.791H1.789C0.807,0,0,0.806,0,1.789V1.79v51.897
		c0,0.983,0.807,1.789,1.791,1.789h21.065h7.08C29.968,55.397,29.989,55.316,30.023,55.238z"/>
</g>
</svg>
