<?xml version="1.0" encoding="iso-8859-1"?>
<!-- Generator: Adobe Illustrator 14.0.0, SVG Export Plug-In . SVG Version: 6.00 Build 43363)  -->
<!DOCTYPE svg PUBLIC "-//W3C//DTD SVG 1.1//EN" "http://www.w3.org/Graphics/SVG/1.1/DTD/svg11.dtd">
<svg version="1.1" id="icon-s-status-skype-layer" xmlns="http://www.w3.org/2000/svg" xmlns:xlink="http://www.w3.org/1999/xlink"
	 x="0px" y="0px" width="18px" height="18px" viewBox="0 0 18 18" style="enable-background:new 0 0 18 18;" xml:space="preserve">
<g id="icon-s-status-skype">
	<rect style="fill:none;" width="18" height="18"/>
	<path style="fill:#FFFFFF;" d="M17.364,10.91c0.127-0.585,0.195-1.192,0.195-1.816c0-4.675-3.791-8.465-8.465-8.465
		c-0.494,0-0.977,0.043-1.448,0.124C6.891,0.276,5.995,0,5.035,0c-2.71,0-4.909,2.197-4.909,4.909c0,0.905,0.247,1.755,0.674,2.482
		C0.688,7.942,0.63,8.511,0.63,9.094c0,4.675,3.79,8.466,8.465,8.466c0.528,0,1.047-0.049,1.549-0.144
		C11.336,17.788,12.126,18,12.966,18c2.711,0,4.908-2.198,4.908-4.91C17.874,12.307,17.69,11.567,17.364,10.91z M13.437,13.14
		c-0.392,0.554-0.971,0.993-1.721,1.305c-0.742,0.309-1.633,0.465-2.645,0.465c-1.215,0-2.235-0.214-3.031-0.636
		c-0.569-0.307-1.037-0.723-1.394-1.236c-0.359-0.52-0.542-1.033-0.542-1.529c0-0.311,0.119-0.58,0.353-0.801
		c0.231-0.217,0.53-0.326,0.884-0.326c0.291,0,0.542,0.086,0.745,0.258c0.195,0.166,0.363,0.41,0.496,0.727
		c0.151,0.342,0.314,0.633,0.487,0.861c0.166,0.219,0.406,0.404,0.709,0.549c0.308,0.145,0.72,0.219,1.23,0.219
		c0.699,0,1.273-0.149,1.705-0.444c0.422-0.288,0.627-0.634,0.627-1.056c0-0.335-0.107-0.598-0.328-0.804
		c-0.229-0.215-0.533-0.383-0.902-0.498c-0.385-0.12-0.908-0.249-1.553-0.385C7.679,9.619,6.933,9.396,6.339,9.144
		C5.732,8.886,5.243,8.527,4.885,8.08C4.52,7.625,4.337,7.056,4.337,6.383c0-0.639,0.193-1.217,0.574-1.713
		C5.29,4.177,5.843,3.793,6.555,3.529c0.703-0.26,1.538-0.392,2.484-0.392c0.756,0,1.421,0.088,1.974,0.261
		c0.559,0.173,1.027,0.408,1.399,0.696c0.372,0.291,0.649,0.603,0.823,0.926c0.176,0.327,0.264,0.651,0.264,0.966
		c0,0.302-0.116,0.576-0.346,0.816c-0.232,0.241-0.525,0.363-0.871,0.363c-0.313,0-0.557-0.076-0.729-0.228
		c-0.159-0.14-0.322-0.358-0.506-0.672c-0.211-0.401-0.466-0.718-0.759-0.939C10.005,5.11,9.529,5,8.876,5
		C8.269,5,7.775,5.122,7.41,5.363c-0.354,0.23-0.525,0.496-0.525,0.811c0,0.193,0.054,0.354,0.168,0.492
		c0.121,0.147,0.29,0.276,0.504,0.383C7.78,7.161,8.01,7.25,8.24,7.313c0.235,0.065,0.629,0.162,1.171,0.288
		c0.685,0.146,1.315,0.311,1.872,0.488c0.563,0.181,1.05,0.403,1.447,0.662c0.406,0.264,0.727,0.603,0.955,1.009
		c0.229,0.405,0.344,0.907,0.344,1.489C14.028,11.948,13.829,12.582,13.437,13.14z"/>
</g>
</svg>
