<?xml version="1.0" encoding="iso-8859-1"?>
<!-- Generator: Adobe Illustrator 13.0.2, SVG Export Plug-In . SVG Version: 6.00 Build 14948)  -->
<!DOCTYPE svg PUBLIC "-//W3C//DTD SVG 1.1//EN" "http://www.w3.org/Graphics/SVG/1.1/DTD/svg11.dtd">
<svg version="1.1" xmlns="http://www.w3.org/2000/svg" xmlns:xlink="http://www.w3.org/1999/xlink" x="0px" y="0px" width="64px"
	 height="64px" viewBox="0 0 64 64" style="enable-background:new 0 0 64 64;" xml:space="preserve">
	<g id="icon-m-camera-postcapture-view-5sec">
		<rect style="fill:none;" width="64" height="64"/>
		<path style="fill:#333333;" d="M24.403,39.705H6.46V5.143h51.051v21.535c2.51,1.501,4.705,3.476,6.46,5.802V3.203
			C63.971,1.445,62.526,0,60.773,0H3.198C1.444,0,0,1.445,0,3.203v38.44c0,1.759,1.444,3.206,3.198,3.206h20.331
			C23.619,43.072,23.923,41.352,24.403,39.705z"/>
		<line style="fill:#333333;" x1="46" y1="33.144" x2="46" y2="33.144"/>
		<path style="fill:#333333;" d="M31.756,17.059c0.669,0,1.271-0.26,1.737-0.666c0.622,0.882,1.504,1.438,2.484,1.438
			s1.862-0.556,2.486-1.438c0.463,0.406,1.068,0.666,1.735,0.666c1.462,0,2.644-1.189,2.644-2.654c0-1.471-1.182-2.659-2.644-2.659
			c-0.338,0-0.657,0.065-0.953,0.188c-0.427-1.884-1.728-3.253-3.269-3.253c-1.54,0-2.842,1.369-3.268,3.253
			c-0.296-0.122-0.617-0.188-0.954-0.188c-1.46,0-2.644,1.188-2.644,2.659C29.112,15.869,30.296,17.059,31.756,17.059z"/>
		<path style="fill:#333333;" d="M37.558,25.15c-2.209-2.468-4.925-2.84-7.703,3.308c-3.938-9.106-11.666-20.354-19.043,7.306
			h15.162C28.429,30.98,32.544,27.188,37.558,25.15z"/>
		<path style="fill:#333333;" d="M45.651,43.859c0.285-0.044,0.638-0.044,0.968-0.044c3.103,0,4.995,1.694,4.995,5.061
			c0,3.652-1.871,5.436-5.963,5.436c-1.299,0-2.597-0.198-3.764-0.484v-2.156c1.101,0.286,2.091,0.527,3.125,0.527
			c2.112,0,2.949-1.056,2.949-3.212c0-1.87-0.969-2.992-3.235-2.992c-0.704,0-1.649,0.021-2.332,0.109v-7.987h8.603v2.113h-5.346
			V43.859z"/>
		<path style="fill:#333333;" d="M47.843,28.095v-3.172h3.187v-3.524h-10v3.524h3.193v3.168C35.129,28.986,28,36.676,28,46.001
			C28,55.926,36.075,64,46,64s18-8.074,18-17.999C64,36.698,56.905,29.021,47.843,28.095z M46,58.857
			c-7.089,0-12.857-5.768-12.857-12.856c0-7.09,5.769-12.857,12.857-12.857s12.857,5.768,12.857,12.857
			C58.857,53.09,53.089,58.857,46,58.857z"/>
	</g>
</svg>
