<?xml version="1.0" encoding="iso-8859-1"?>
<!-- Generator: Adobe Illustrator 14.0.0, SVG Export Plug-In . SVG Version: 6.00 Build 43363)  -->
<!DOCTYPE svg PUBLIC "-//W3C//DTD SVG 1.1//EN" "http://www.w3.org/Graphics/SVG/1.1/DTD/svg11.dtd">
<svg version="1.1" id="icon-m-common-notification-layer"
	 xmlns="http://www.w3.org/2000/svg" xmlns:xlink="http://www.w3.org/1999/xlink" x="0px" y="0px" width="64px" height="64px"
	 viewBox="0 0 64 64" style="enable-background:new 0 0 64 64;" xml:space="preserve">
<g id="icon-m-common-notification">
	<rect style="fill:none;" width="64" height="64"/>
	<path style="fill:#333333;" d="M59.246,18.28c-6.991,0-14.164-3.188-20.416-5.905c-4.748-2.063-9.403-4.339-13.948-6.791
		C19.551,2.71,11.884,1.186,5.638,1.009C4.181,0.966,3.037,1.069,1.5,1.477v45.312c1.5-0.479,2.667-0.814,4.138-1.06
		c6.159-1.025,13.914,1.701,19.244,4.577c4.545,2.45,9.2,4.728,13.948,6.791C45.082,59.813,52.255,63,59.246,63
		c1.214,0,2.081-0.061,3.254-0.168V18.111C61.327,18.22,60.46,18.28,59.246,18.28z"/>
</g>
</svg>
