<?xml version="1.0" encoding="iso-8859-1"?>
<!-- Generator: Adobe Illustrator 14.0.0, SVG Export Plug-In . SVG Version: 6.00 Build 43363)  -->
<!DOCTYPE svg PUBLIC "-//W3C//DTD SVG 1.1//EN" "http://www.w3.org/Graphics/SVG/1.1/DTD/svg11.dtd">
<svg version="1.1" id="icon-m-presence-away-layer" xmlns="http://www.w3.org/2000/svg" xmlns:xlink="http://www.w3.org/1999/xlink"
	 x="0px" y="0px" width="64px" height="64px" viewBox="0 0 64 64" style="enable-background:new 0 0 64 64;" xml:space="preserve">
<g id="icon-m-common-presence-away">
	<rect style="fill:none;" width="64" height="64"/>
	<path style="fill:#333333;" d="M32.005,0C14.328,0,0,14.342,0,32.02C0,49.672,14.328,64,32.005,64C49.663,64,64,49.672,64,32.02
		C64,14.342,49.663,0,32.005,0z M46.895,41.697h-14.99c-1.16,0-2.23-0.357-3.113-0.951c-1.609-0.908-2.701-2.567-2.701-4.49V13.891
		c0-2.887,2.429-5.223,5.425-5.223c2.998,0,5.428,2.336,5.428,5.223v17.367h9.952c2.999,0,5.427,2.337,5.427,5.221
		C52.321,39.363,49.894,41.697,46.895,41.697z"/>
</g>
</svg>
