<?xml version="1.0" encoding="iso-8859-1"?>
<!-- Generator: Adobe Illustrator 14.0.0, SVG Export Plug-In . SVG Version: 6.00 Build 43363)  -->
<!DOCTYPE svg PUBLIC "-//W3C//DTD SVG 1.1//EN" "http://www.w3.org/Graphics/SVG/1.1/DTD/svg11.dtd">
<svg version="1.1" id="icon-m-energy-management-charging6-layer"
	 xmlns="http://www.w3.org/2000/svg" xmlns:xlink="http://www.w3.org/1999/xlink" x="0px" y="0px" width="64px" height="64px"
	 viewBox="0 0 64 64" style="enable-background:new 0 0 64 64;" xml:space="preserve">
<g id="icon-m-energy-management-charging6">
	<rect style="fill:none;" width="64" height="64"/>
	<path style="fill:#333333;" d="M25.609,58.092H6.117c-1.003,0-1.829-0.824-1.829-1.826V14.264c0-1.004,0.825-1.83,1.829-1.83
		h23.772c1.004,0,1.828,0.826,1.828,1.83v12.714c1.326-1.021,2.759-1.909,4.283-2.64V8.721c0-1.006-0.821-1.826-1.826-1.826h-9.803
		V4.153c0-1.007-0.822-1.83-1.827-1.83h-9.085c-1.004,0-1.826,0.823-1.826,1.83v2.741H1.828C0.822,6.895,0,7.715,0,8.721v51.127
		c0,1.006,0.822,1.828,1.828,1.828h26.349C27.216,60.566,26.356,59.367,25.609,58.092z"/>
	<path style="fill:#333333;" d="M22.327,46c0-6.146,2.325-11.759,6.138-16.01v-5.247H7.736v29.556h16.071
		C22.851,51.711,22.327,48.916,22.327,46z"/>
	<path style="fill:#333333;" d="M54.148,49.442v3.677c-0.003,1.23-1.296,2.234-2.872,2.23l-7.782-0.031l0.016-4.066l-7.924-0.031
		c-0.42,0-0.761-0.342-0.759-0.765l0.005-1.396c0-0.418,0.346-0.76,0.766-0.758l7.93,0.029l0.01-4.71l-7.922-0.014
		c-0.421-0.001-0.76-0.345-0.76-0.765l0.004-1.396c0.004-0.421,0.347-0.762,0.766-0.759l7.924,0.014l0.016-4.052l7.782,0.01
		c1.576,0.004,2.86,1.018,2.856,2.25l-0.013,3.695L64,42.628C62.42,34.301,55.114,28,46.327,28c-9.94,0-18,8.059-18,18
		c0,9.939,8.06,18,18,18c8.763,0,16.055-6.266,17.663-14.558H54.148z"/>
</g>
</svg>
