<?xml version="1.0" encoding="iso-8859-1"?>
<!-- Generator: Adobe Illustrator 14.0.0, SVG Export Plug-In . SVG Version: 6.00 Build 43363)  -->
<!DOCTYPE svg PUBLIC "-//W3C//DTD SVG 1.1//EN" "http://www.w3.org/Graphics/SVG/1.1/DTD/svg11.dtd">
<svg version="1.1" id="icon-s-common-presence-unknown-layer"
	 xmlns="http://www.w3.org/2000/svg" xmlns:xlink="http://www.w3.org/1999/xlink" x="0px" y="0px" width="18px" height="18px"
	 viewBox="0 0 18 18" style="enable-background:new 0 0 18 18;" xml:space="preserve">
<g id="icon-s-common-presence-unknown">
	<g>
		<path style="fill:#FFFFFF;" d="M7.441,0C3.51,0.661,0.443,3.866,0,7.868h3.032c0.395-2.335,2.147-4.196,4.41-4.786V0z"/>
		<path style="fill:#FFFFFF;" d="M10.441,0v3.082c2.263,0.59,4.016,2.451,4.41,4.786h3.031C17.439,3.865,14.373,0.66,10.441,0z"/>
	</g>
	<g>
		<path style="fill:#FFFFFF;" d="M7.441,14.659c-1.93-0.502-3.489-1.929-4.15-3.791h-3.12c0.802,3.528,3.672,6.268,7.27,6.873
			V14.659z"/>
		<path style="fill:#FFFFFF;" d="M14.592,10.868c-0.662,1.862-2.221,3.289-4.15,3.791v3.082c3.598-0.605,6.468-3.345,7.27-6.873
			H14.592z"/>
	</g>
</g>
</svg>
