<?xml version="1.0" encoding="iso-8859-1"?>
<!-- Generator: Adobe Illustrator 14.0.0, SVG Export Plug-In . SVG Version: 6.00 Build 43363)  -->
<!DOCTYPE svg PUBLIC "-//W3C//DTD SVG 1.1//EN" "http://www.w3.org/Graphics/SVG/1.1/DTD/svg11.dtd">
<svg version="1.1" id="icon-s-status-3g-layer" xmlns="http://www.w3.org/2000/svg" xmlns:xlink="http://www.w3.org/1999/xlink"
	 x="0px" y="0px" width="29px" height="18px" viewBox="0 0 29 18" style="enable-background:new 0 0 29 18;" xml:space="preserve">
<g id="icon-s-status-3g">
	<path style="fill:#FFFFFF;" d="M3.937,2.305c-1.104,0-2.256,0.287-3.409,0.6V0.576C1.776,0.264,3.24,0,4.729,0
		c3.288,0,5.665,1.104,5.665,4.344c0,2.041-1.128,3.434-3.168,4.057c2.256,0.408,3.48,1.944,3.48,4.08
		c0,3.841-2.424,5.377-6.673,5.377c-1.416,0-2.664-0.191-4.032-0.552v-2.329c1.44,0.337,2.568,0.576,3.648,0.576
		c2.208,0,3.072-1.056,3.072-3c0-2.568-1.488-3.023-5.185-3.023V7.32c3.552,0,4.968-0.384,4.968-2.712
		C6.504,3.049,5.641,2.305,3.937,2.305z"/>
	<path style="fill:#FFFFFF;" d="M26.137,16.129c-0.672,1.033-2.017,1.729-3.504,1.729c-5.232,0-6.025-4.633-6.025-9.121
		C16.607,4.08,18.384,0,24.289,0c1.271,0,2.543,0.144,3.72,0.456v2.28c-1.128-0.313-2.16-0.432-3.36-0.432
		c-3.192,0-3.937,3.24-3.937,6.385c0,3.527,0.144,6.863,2.568,6.863c1.224,0,1.8-1.008,1.8-2.399v-2.665h-2.016V8.185h5.881v9.481
		h-2.328L26.137,16.129z"/>
</g>
</svg>
