<?xml version="1.0" encoding="iso-8859-1"?>
<!-- Generator: Adobe Illustrator 14.0.0, SVG Export Plug-In . SVG Version: 6.00 Build 43363)  -->
<!DOCTYPE svg PUBLIC "-//W3C//DTD SVG 1.1//EN" "http://www.w3.org/Graphics/SVG/1.1/DTD/svg11.dtd">
<svg version="1.1" id="icon-m-organizer-month-layer"
	 xmlns="http://www.w3.org/2000/svg" xmlns:xlink="http://www.w3.org/1999/xlink" x="0px" y="0px" width="64px" height="64px"
	 viewBox="0 0 64 64" style="enable-background:new 0 0 64 64;" xml:space="preserve">
<g id="icon-m-organizer-month">
	<rect style="fill:none;" width="64" height="64"/>
	<path style="fill:#333333;" d="M18.861,12.105h0.513c1.15,0,2.09-0.939,2.09-2.085V2.15c0-1.146-0.94-2.086-2.09-2.086h-0.513
		c-1.149,0-2.09,0.939-2.09,2.086v7.87C16.771,11.166,17.712,12.105,18.861,12.105z"/>
	<path style="fill:#333333;" d="M44.918,12.105h0.512c1.151,0,2.091-0.939,2.091-2.085V2.15c0-1.146-0.939-2.086-2.091-2.086h-0.512
		c-1.151,0-2.091,0.939-2.091,2.086v7.87C42.827,11.166,43.767,12.105,44.918,12.105z"/>
	<path style="fill:#333333;" d="M51.826,9.777c-0.387,3.506-3.318,6.232-6.878,6.232c-3.563,0-6.494-2.727-6.882-6.232H25.771
		c-0.388,3.506-3.317,6.232-6.879,6.232c-3.563,0-6.494-2.727-6.881-6.232h-6.85v10.346h53.678V9.777H51.826z"/>
	<path style="fill:#333333;" d="M5.161,24.137l0,37.8c0,1.101,0.9,2,2,2h49.677c1.101,0,2-0.899,2-2v-37.8H5.161z M22.057,55.313
		c-1.658,0-3.196-0.209-4.987-0.68l-0.385-0.1v-3.846l0.633,0.148c1.653,0.385,3.018,0.678,4.276,0.678
		c2.233,0,3.184-0.924,3.184-3.09c0-2.508-1.124-3.119-5.727-3.119h-0.516v-3.686h0.516c4.445,0,5.467-0.512,5.467-2.744
		c0-1.559-0.795-2.254-2.577-2.254c-1.264,0-2.599,0.334-3.969,0.703l-0.651,0.178v-3.873l0.392-0.098
		c1.906-0.477,3.602-0.709,5.183-0.709c6.064,0,7.338,3.119,7.338,5.736c0,2.145-0.982,3.805-2.797,4.793
		c1.994,0.854,3.144,2.635,3.144,4.986C30.579,53.031,27.792,55.313,22.057,55.313z M48.122,55.082H33.795v-3.51h4.45V37.609
		l-4.45,0.951v-3.496l7.105-2.184h3.031v18.691h4.19V55.082z"/>
</g>
</svg>
