<?xml version="1.0" encoding="iso-8859-1"?>
<!-- Generator: Adobe Illustrator 14.0.0, SVG Export Plug-In . SVG Version: 6.00 Build 43363)  -->
<!DOCTYPE svg PUBLIC "-//W3C//DTD SVG 1.1//EN" "http://www.w3.org/Graphics/SVG/1.1/DTD/svg11.dtd">
<svg version="1.1" id="icon-m-common-wlan-connecting-2-layer"
	 xmlns="http://www.w3.org/2000/svg" xmlns:xlink="http://www.w3.org/1999/xlink" x="0px" y="0px" width="32px" height="32px"
	 viewBox="0 0 32 32" style="enable-background:new 0 0 32 32;" xml:space="preserve">
<g id="icon-m-common-wlan-connecting-2">
	<rect style="fill:none;" width="32" height="32"/>
	<path style="fill:#FFFFFF;" d="M22.474,26.408H19.61l-2.626-11.007c1.152-0.431,1.984-1.554,1.984-2.909
		c0-1.722-1.326-3.115-2.968-3.115s-2.972,1.394-2.972,3.115c0,1.355,0.829,2.477,1.978,2.909l-2.617,11.007H9.526
		c-0.523,0-0.952,0.428-0.952,0.951v1.217c0,0.523,0.429,0.949,0.952,0.949h12.947c0.523,0,0.951-0.426,0.951-0.949v-1.217
		C23.425,26.836,22.997,26.408,22.474,26.408"/>
	<path style="opacity:0;fill:#FFFFFF;" d="M27.012,2.627c-0.338-0.256-0.82-0.184-1.081,0.16c-0.254,0.344-0.18,0.836,0.167,1.095
		c2.193,1.663,3.563,4.944,3.563,8.563c0,3.613-1.37,6.902-3.563,8.563c-0.347,0.258-0.421,0.742-0.167,1.09
		c0.261,0.346,0.743,0.416,1.081,0.162c2.582-1.959,4.188-5.715,4.188-9.814C31.2,8.34,29.594,4.584,27.012,2.627"/>
	<path style="opacity:0.2;fill:#FFFFFF;" d="M24.798,8.186c0,0-0.02-0.055-0.033-0.082c-0.162-0.383-0.549-1.082-0.549-1.082
		c-0.414-0.719-0.836-1.27-1.469-1.863c-0.223-0.217-0.473-0.403-0.715-0.59c-0.053-0.039-0.109-0.068-0.168-0.091
		c-0.332-0.179-0.754-0.091-0.992,0.232c-0.207,0.284-0.197,0.667-0.003,0.946c0.054,0.096,0.157,0.197,0.217,0.252
		c0.362,0.332,0.75,0.658,1.084,1.057c0.122,0.152,0.241,0.308,0.356,0.471c0.862,1.334,1.381,3.112,1.381,5.02
		c0,1.885-0.49,3.649-1.338,4.98c-0.436,0.601-0.931,1.088-1.468,1.544c-0.337,0.286-0.427,0.775-0.169,1.13
		c0.264,0.357,0.747,0.449,1.117,0.208c0.253-0.167,0.49-0.333,0.715-0.549c0.7-0.591,1.254-1.464,1.724-2.356h-0.011
		c0.728-1.422,1.141-3.146,1.141-4.957C25.618,10.927,25.323,9.462,24.798,8.186"/>
	<path style="opacity:0;fill:#FFFFFF;" d="M5.902,3.882c0.347-0.259,0.421-0.751,0.167-1.095c-0.261-0.344-0.744-0.416-1.081-0.16
		C2.406,4.584,0.8,8.34,0.8,12.445c0,4.1,1.606,7.855,4.188,9.814c0.337,0.254,0.82,0.184,1.081-0.162
		c0.254-0.348,0.179-0.832-0.167-1.09c-2.193-1.66-3.564-4.949-3.564-8.563C2.337,8.826,3.709,5.545,5.902,3.882"/>
	<path style="opacity:0.2;fill:#FFFFFF;" d="M9.235,19.768c0.225,0.216,0.46,0.381,0.715,0.549c0.368,0.24,0.852,0.149,1.116-0.207
		c0.259-0.355,0.167-0.844-0.169-1.131c-0.538-0.455-1.033-0.944-1.467-1.543c-0.849-1.332-1.339-3.097-1.339-4.982
		c0-1.905,0.519-3.686,1.38-5.02c0.117-0.162,0.235-0.318,0.358-0.47c0.333-0.399,0.722-0.724,1.083-1.058
		c0.058-0.053,0.163-0.156,0.216-0.25c0.196-0.281,0.206-0.664-0.002-0.947c-0.238-0.322-0.661-0.411-0.991-0.232
		c-0.06,0.023-0.118,0.053-0.17,0.092C9.725,4.754,9.476,4.941,9.251,5.157C8.62,5.75,8.197,6.303,7.783,7.02
		c0,0-0.386,0.7-0.547,1.082C7.221,8.129,7.203,8.184,7.203,8.184c-0.528,1.277-0.821,2.742-0.821,4.27
		c0,1.813,0.412,3.535,1.14,4.957H7.511C7.98,18.305,8.534,19.178,9.235,19.768"/>
</g>
</svg>
