<?xml version="1.0" encoding="iso-8859-1"?>
<!-- Generator: Adobe Illustrator 14.0.0, SVG Export Plug-In . SVG Version: 6.00 Build 43363)  -->
<!DOCTYPE svg PUBLIC "-//W3C//DTD SVG 1.1//EN" "http://www.w3.org/Graphics/SVG/1.1/DTD/svg11.dtd">
<svg version="1.1" id="icon-m-common-camera-layer" xmlns="http://www.w3.org/2000/svg" xmlns:xlink="http://www.w3.org/1999/xlink"
	 x="0px" y="0px" width="64px" height="64px" viewBox="0 0 64 64" style="enable-background:new 0 0 64 64;" xml:space="preserve">
<g id="icon-m-common-camera">
	<rect style="fill:none;" width="64" height="64"/>
	<path style="fill:#333333;" d="M60,11H4c-2,0-2,2-2,2v38c0,2,2,2,2,2h56c0,0,2,0,2-2V13C62,11,60,11,60,11z M32,46.001
		c-7.443,0-13.5-6.054-13.5-13.501c0-7.455,6.057-13.499,13.5-13.499c7.447,0,13.5,6.044,13.5,13.499
		C45.5,39.949,39.447,46.001,32,46.001z M58,21.001H47v-6h11V21.001z"/>
</g>
</svg>
