<?xml version="1.0" encoding="iso-8859-1"?>
<!-- Generator: Adobe Illustrator 14.0.0, SVG Export Plug-In . SVG Version: 6.00 Build 43363)  -->
<!DOCTYPE svg PUBLIC "-//W3C//DTD SVG 1.1//EN" "http://www.w3.org/Graphics/SVG/1.1/DTD/svg11.dtd">
<svg version="1.1" id="icon-m-camera-flash-red-eye-layer"
	 xmlns="http://www.w3.org/2000/svg" xmlns:xlink="http://www.w3.org/1999/xlink" x="0px" y="0px" width="64px" height="64px"
	 viewBox="0 0 64 64" style="enable-background:new 0 0 64 64;" xml:space="preserve">
<g id="icon-m-camera-flash-red-eye">
	<rect style="fill:none;" width="64" height="64"/>
	<path style="fill:#333333;" d="M56.947,17.994l0.027-0.067l-0.289-0.431h-0.053c-0.112-0.117-0.281-0.295-0.467-0.492
		C55.636,16.437,43.021,3.115,28.99,3.115c-14.035,0-26.649,13.321-27.18,13.889c-0.329,0.354-0.603,0.641-0.604,0.642l-0.228,0.228
		l0.087,0.209v0.144l0.137,0.14c0.002,0.002,0.282,0.287,0.609,0.638c0.53,0.567,13.145,13.891,27.179,13.891
		c14.032,0,26.646-13.323,27.174-13.889l0.471-0.496h0.059l0.284-0.448L56.947,17.994z M9.219,17.827
		C9.314,17.726,18.833,7.68,28.99,7.68c10.156,0,19.672,10.046,19.766,10.146l0.164,0.177c-0.051,0.055-0.105,0.113-0.163,0.176
		c-0.095,0.102-9.604,10.15-19.767,10.15c-10.156,0-19.676-10.05-19.77-10.148l-0.165-0.178C9.107,17.947,9.162,17.889,9.219,17.827
		z"/>
	<path style="fill:#333333;" d="M29.989,10.367v9.647h-8.444c0.887,3.278,3.88,5.694,7.445,5.694c4.258,0,7.717-3.448,7.717-7.705
		C36.707,14.086,33.775,10.858,29.989,10.367z"/>
	<path style="fill:#333333;" d="M55.088,36h-6.26L40.77,63h4.547l1.791-6.193h9.031L57.932,63H63L55.088,36z M47.977,53.387
		l3.686-13.343l3.654,13.403L47.977,53.387z"/>
</g>
</svg>
