<?xml version="1.0" encoding="iso-8859-1"?>
<!-- Generator: Adobe Illustrator 14.0.0, SVG Export Plug-In . SVG Version: 6.00 Build 43363)  -->
<!DOCTYPE svg PUBLIC "-//W3C//DTD SVG 1.1//EN" "http://www.w3.org/Graphics/SVG/1.1/DTD/svg11.dtd">
<svg version="1.1" id="icon-m-camera-whitebalance-fluorescent-layer"
	 xmlns="http://www.w3.org/2000/svg" xmlns:xlink="http://www.w3.org/1999/xlink" x="0px" y="0px" width="64px" height="64px"
	 viewBox="0 0 64 64" style="enable-background:new 0 0 64 64;" xml:space="preserve">
<g id="icon-m-camera-whitebalance-fluorescent">
	<rect style="fill:none;" width="64" height="64"/>
	<path style="fill:#333333;" d="M9,23c-0.961,0-2,1.039-2,2v14c0,0.961,1.039,2,2,2h46c0.963,0,2-1.039,2-2V25c0-0.961-1.037-2-2-2
		H9z M53,37H11V26.9L53,27V37z"/>
	<path style="fill:#333333;" d="M59,25c0-2.25,4-2.25,4,0v14c0,2.25-4,2-4,0V25z"/>
	<path style="fill:#333333;" d="M1,25c0-2,4-2,4,0v14c0,2.25-4,2.25-4,0V25z"/>
</g>
</svg>
