<?xml version="1.0" encoding="iso-8859-1"?>
<!-- Generator: Adobe Illustrator 14.0.0, SVG Export Plug-In . SVG Version: 6.00 Build 43363)  -->
<!DOCTYPE svg PUBLIC "-//W3C//DTD SVG 1.1//EN" "http://www.w3.org/Graphics/SVG/1.1/DTD/svg11.dtd">
<svg version="1.1" id="icon-m-common-alphabetic-order-layer"
	 xmlns="http://www.w3.org/2000/svg" xmlns:xlink="http://www.w3.org/1999/xlink" x="0px" y="0px" width="16383px" height="64px"
	 viewBox="0 0 16383 64" style="enable-background:new 0 0 16383 64;" xml:space="preserve">
<g id="icon-m-common-alphabetic-order">
	<path style="fill:#333333;" d="M5027.906,19.854h4.48c1.101,0,1.55-0.778,1-1.73l-7.162-12.406c-0.55-0.953-1.455-0.955-2.01-0.007
		l-7.265,12.418c-0.556,0.95-0.11,1.726,0.989,1.726h3.967v39.242h6V19.854z"/>
	<g>
		<rect x="4989.906" style="fill:none;" width="64" height="64"/>
		<g>
			<g>
				<g>
					<g>
						<g>
							<path style="fill:#333333;" d="M5009.809,27.188h-5.343l-1.099-4.61h-6.046l-1.129,4.61h-4.549l6.229-22.228h6.106
								L5009.809,27.188z M5002.756,19.648l-2.381-10.443l-2.443,10.443H5002.756z"/>
						</g>
						<g>
							<path style="fill:#333333;" d="M5007.641,39.102l-8.091,17.006h7.969v2.932h-13.771v-2.291l8.091-17.006h-7.603v-2.932
								h13.404V39.102z"/>
						</g>
					</g>
				</g>
			</g>
		</g>
	</g>
</g>
</svg>
