<?xml version="1.0" encoding="iso-8859-1"?>
<!-- Generator: Adobe Illustrator 14.0.0, SVG Export Plug-In . SVG Version: 6.00 Build 43363)  -->
<!DOCTYPE svg PUBLIC "-//W3C//DTD SVG 1.1//EN" "http://www.w3.org/Graphics/SVG/1.1/DTD/svg11.dtd">
<svg version="1.1" id="icon-m-bluetooth-trusted-layer"
	 xmlns="http://www.w3.org/2000/svg" xmlns:xlink="http://www.w3.org/1999/xlink" x="0px" y="0px" width="64px" height="64px"
	 viewBox="0 0 64 64" style="enable-background:new 0 0 64 64;" xml:space="preserve">
<g id="icon-m-bluetooth-trusted">
	<rect style="fill:none;" width="64" height="64"/>
	<path style="fill:#333333;" d="M39.817,25.768c-2.421,0-4.728,0.469-6.858,1.291V11.291c0-1.477-0.57-2.869-1.611-3.912
		c-0.545-0.547-1.188-0.957-1.88-1.232V0.045H25.79v5.711H10.604c-1.476,0-2.861,0.574-3.901,1.617
		c-1.041,1.045-1.613,2.438-1.613,3.918v25.537c0,3.047,2.474,5.535,5.515,5.535h10.298c-0.108,0.824-0.184,1.658-0.184,2.512
		c0,10.533,8.55,19.082,19.1,19.082c10.539,0,19.094-8.549,19.094-19.082C58.911,34.324,50.356,25.768,39.817,25.768z
		 M29.283,28.943c-3.475,2.305-6.139,5.717-7.517,9.73H10.604c-1.018,0-1.839-0.822-1.839-1.846V11.291
		c0-0.498,0.19-0.959,0.537-1.309c0.344-0.35,0.807-0.537,1.302-0.537h16.843c0.49,0,0.951,0.192,1.303,0.537
		c0.349,0.346,0.534,0.811,0.534,1.309V28.943z M52.802,37.888C52.8,37.893,50.854,39.246,48,41.879
		c-2.855,2.634-6.606,6.531-10.176,11.596c-0.057,0.079-0.146,0.129-0.243,0.137c-0.009,0-0.019,0.002-0.028,0.002
		c-0.087,0-0.174-0.033-0.235-0.096l-7.383-7.428c-0.062-0.062-0.096-0.145-0.095-0.234c0.003-0.088,0.039-0.17,0.104-0.232
		l2.462-2.273c0.13-0.123,0.339-0.115,0.464,0.012l4.075,4.195c1.248-1.801,7.374-10.098,15.662-10.26
		c0.145-0.004,0.274,0.088,0.319,0.223C52.971,37.658,52.92,37.807,52.802,37.888z"/>
	<rect x="12.346" y="13.756" style="fill:#333333;" width="13.56" height="14.402"/>
</g>
</svg>
