<?xml version="1.0" encoding="iso-8859-1"?>
<!-- Generator: Adobe Illustrator 14.0.0, SVG Export Plug-In . SVG Version: 6.00 Build 43363)  -->
<!DOCTYPE svg PUBLIC "-//W3C//DTD SVG 1.1//EN" "http://www.w3.org/Graphics/SVG/1.1/DTD/svg11.dtd">
<svg version="1.1" id="icon-m-content-photoalbum-layer"
	 xmlns="http://www.w3.org/2000/svg" xmlns:xlink="http://www.w3.org/1999/xlink" x="0px" y="0px" width="64px" height="64px"
	 viewBox="0 0 64 64" style="enable-background:new 0 0 64 64;" xml:space="preserve">
<g id="icon-m-content-photoalbum">
	<rect style="fill:none;" width="64" height="64"/>
	<polygon style="fill:#333333;" points="10.308,38.509 10.024,38.566 4.747,12.635 37.54,5.862 37.579,6.061 38.693,10.627 
		42.858,10.627 40.905,1.032 0,9.48 8.965,53.529 15.204,52.242 15.204,37.682 	"/>
	<path style="fill:#333333;" d="M19.817,15.386v47.583H64V15.386H19.817z M59.603,47.959h-35.47V19.735h35.47V47.959z"/>
	<path style="fill:#333333;" d="M46.957,32.313c0.586,0,1.113-0.227,1.521-0.582c0.543,0.775,1.313,1.26,2.171,1.26
		c0.856,0,1.626-0.484,2.172-1.26c0.408,0.355,0.933,0.582,1.517,0.582c1.28,0,2.312-1.039,2.312-2.316
		c0-1.289-1.031-2.326-2.312-2.326c-0.293,0-0.572,0.057-0.833,0.164c-0.371-1.646-1.508-2.846-2.855-2.846
		c-1.347,0-2.484,1.199-2.857,2.846c-0.258-0.107-0.537-0.164-0.834-0.164c-1.273,0-2.309,1.037-2.309,2.326
		C44.648,31.273,45.684,32.313,46.957,32.313z"/>
	<path style="fill:#333333;" d="M43.027,39.939c-3.073-7.109-9.107-15.885-14.864,5.704H53C53,45.644,48.146,28.61,43.027,39.939z"
		/>
</g>
</svg>
