<?xml version="1.0" encoding="iso-8859-1"?>
<!-- Generator: Adobe Illustrator 14.0.0, SVG Export Plug-In . SVG Version: 6.00 Build 43363)  -->
<!DOCTYPE svg PUBLIC "-//W3C//DTD SVG 1.1//EN" "http://www.w3.org/Graphics/SVG/1.1/DTD/svg11.dtd">
<svg version="1.1" id="icon-m-email-directory-spam-layer"
	 xmlns="http://www.w3.org/2000/svg" xmlns:xlink="http://www.w3.org/1999/xlink" x="0px" y="0px" width="65px" height="64px"
	 viewBox="0 0 65 64" style="enable-background:new 0 0 65 64;" xml:space="preserve">
<g id="icon-m-email-directory-spam_1_">
	<rect x="1" style="fill:none;" width="64" height="64"/>
	<path style="fill:#333333;" d="M36.969,5.1c0-1.102-0.9-2-2-2H3.021c-1.1,0-2,0.898-2,2l0,7.336h35.949V5.1z"/>
	<polygon style="fill:#333333;" points="36.107,42.192 40.961,42.192 41.764,37.957 36.908,37.957 	"/>
	<path style="fill:#333333;" d="M63,16.582H1.02L1.017,58.904c0,1.101,0.899,2,2,2H63c1.1,0,2-0.899,2-2V18.582
		C65,17.482,64.1,16.582,63,16.582z M19.3,23.758c2.175,0.003,3.915,1.517,3.919,3.397c0,0-1.289,12.271-1.666,12.919
		c-0.369,0.656-1.171,1.107-2.253,1.09c-0.021,0.001-0.041,0.001-0.062,0.001c-1.05,0-1.823-0.45-2.169-1.099
		c-0.363-0.645-1.688-12.939-1.688-12.939C15.386,25.274,17.125,23.761,19.3,23.758z M19.25,53c-2.362-0.002-4.246-1.918-4.25-4.254
		c0.004-2.338,1.888-4.255,4.25-4.258c2.357,0.005,4.244,1.92,4.25,4.258C23.494,51.082,21.61,52.998,19.25,53z M51.773,37.957
		h-4.611l-0.805,4.235h3.883c0.945,0.001,1.689,0.782,1.691,1.726c-0.002,0.947-0.746,1.728-1.691,1.73h-4.539l-0.895,4.723
		c-0.244,1.285-1.344,2.193-2.596,2.193c-0.17,0-0.342-0.014-0.512-0.051c-1.271-0.256-2.143-1.393-2.141-2.656
		c-0.002-0.174,0.016-0.35,0.049-0.52l0.701-3.689h-4.857l-0.893,4.721c-0.246,1.287-1.348,2.195-2.601,2.195
		c-0.167,0-0.339-0.014-0.511-0.051c-1.273-0.256-2.141-1.393-2.141-2.658c0-0.172,0.018-0.348,0.05-0.518l0.699-3.689H26.1
		c-0.945-0.003-1.689-0.783-1.691-1.73c0.002-0.941,0.746-1.725,1.691-1.726l4.61-0.001l0.802-4.234h-3.88
		c-0.944-0.002-1.688-0.783-1.689-1.729c0.002-0.943,0.746-1.727,1.689-1.729h4.534l0.802-4.229
		c0.243-1.289,1.346-2.197,2.596-2.197c0.17,0,0.342,0.018,0.514,0.053c1.27,0.256,2.139,1.392,2.139,2.659
		c0,0.17-0.016,0.343-0.049,0.521L37.562,34.5h4.855l0.801-4.226c0.244-1.292,1.346-2.2,2.596-2.2c0.172,0,0.344,0.018,0.514,0.053
		c1.27,0.256,2.141,1.392,2.141,2.659c0,0.17-0.018,0.343-0.049,0.521L47.816,34.5h3.957c0.943,0.002,1.691,0.783,1.691,1.729
		S52.717,37.955,51.773,37.957z"/>
</g>
</svg>
