<?xml version="1.0" encoding="iso-8859-1"?>
<!-- Generator: Adobe Illustrator 14.0.0, SVG Export Plug-In . SVG Version: 6.00 Build 43363)  -->
<!DOCTYPE svg PUBLIC "-//W3C//DTD SVG 1.1//EN" "http://www.w3.org/Graphics/SVG/1.1/DTD/svg11.dtd">
<svg version="1.1" id="icon-m-framework-list-layer"
	 xmlns="http://www.w3.org/2000/svg" xmlns:xlink="http://www.w3.org/1999/xlink" x="0px" y="0px" width="64px" height="64px"
	 viewBox="0 0 64 64" style="enable-background:new 0 0 64 64;" xml:space="preserve">
<g id="icon-m-framework-list">
	<rect style="fill:none;" width="64" height="64"/>
	<path style="fill:#FFFFFF;" d="M11.032,27.969C8.806,27.969,7,26.162,7,23.936c0-2.229,1.806-4.031,4.032-4.031
		c2.229,0,4.032,1.803,4.032,4.031C15.064,26.162,13.26,27.969,11.032,27.969"/>
	<path style="fill:#FFFFFF;" d="M57,25.549c0,0.886-0.727,1.612-1.613,1.612H21.516c-0.888,0-1.612-0.727-1.612-1.612v-3.226
		c0-0.889,0.725-1.613,1.612-1.613h33.871c0.887,0,1.613,0.725,1.613,1.613V25.549z"/>
	<path style="fill:#FFFFFF;" d="M11.032,44.098C8.806,44.098,7,42.291,7,40.064c0-2.229,1.806-4.031,4.032-4.031
		c3.3,0,4.032,1.805,4.032,4.031S13.26,44.098,11.032,44.098"/>
	<path style="fill:#FFFFFF;" d="M57,41.678c0,0.887-0.727,1.612-1.613,1.612H21.516c-0.888,0-1.612-0.726-1.612-1.612v-3.227
		c0-0.889,0.725-1.613,1.612-1.613h33.871c0.887,0,1.613,0.725,1.613,1.613V41.678z"/>
</g>
</svg>
