<?xml version="1.0" encoding="iso-8859-1"?>
<!-- Generator: Adobe Illustrator 13.0.2, SVG Export Plug-In . SVG Version: 6.00 Build 14948)  -->
<!DOCTYPE svg PUBLIC "-//W3C//DTD SVG 1.1//EN" "http://www.w3.org/Graphics/SVG/1.1/DTD/svg11.dtd">
<svg version="1.1" xmlns="http://www.w3.org/2000/svg" xmlns:xlink="http://www.w3.org/1999/xlink" x="0px" y="0px" width="281px"
	 height="281px" viewBox="0 0 281 281" style="enable-background:new 0 0 281 281;" xml:space="preserve">
	<g id="icon-l-flickr">
		<path style="fill-rule:evenodd;clip-rule:evenodd;fill:#EE3173;" d="M253.374,138.408c-1.417-0.715-2.477-1.07-3.896-1.428
			c-1.06-0.359-2.477-0.713-3.896-0.713c-3.536,0-6.376,1.426-8.498,3.926c-2.129,2.498-3.188,6.424-3.188,11.063v22.857h-14.523
			V124.84h14.523v8.208c2.125-3.211,4.254-5.71,6.73-7.138c2.129-1.428,5.316-2.144,8.498-2.144c0.705,0,1.06,0,1.774,0
			c0.351,0,1.411,0,2.477,0.358V138.408z"/>
		<path style="fill-rule:evenodd;clip-rule:evenodd;fill:#1E74BB;" d="M163.064,105.204h14.518v37.13l16.648-18.209h17
			l-22.316,22.492l24.081,26.423H195.29l-17.708-20.35v20.35h-14.518V105.204z M153.849,126.624v12.499
			c-1.762-1.43-3.542-2.502-5.667-3.22c-1.766-0.713-3.891-1.063-5.662-1.063c-3.899,0-7.081,1.063-9.206,3.568
			c-2.126,2.498-3.188,6.068-3.188,10.356c0,4.639,1.063,7.852,3.188,10.35c2.125,2.505,5.307,3.927,9.206,3.927
			c2.126,0,3.896-0.354,6.016-1.068c2.132-0.714,3.903-1.781,5.313-3.215v12.494c-2.119,0.717-4.247,1.431-6.373,1.788
			c-2.476,0.358-4.602,0.713-6.727,0.713c-7.793,0-14.169-2.142-18.417-6.425c-4.607-4.642-6.73-10.712-6.73-18.563
			c0-7.858,2.123-13.925,6.73-18.215c4.248-4.282,10.624-6.425,18.417-6.425c2.125,0,4.251,0,6.727,0.715
			C149.602,125.195,151.729,125.91,153.849,126.624L153.849,126.624z M92.229,106.272h15.579v12.501H92.229V106.272z
			 M92.229,125.195h15.579v48.918H92.229V125.195z M62.478,106.272h15.583v67.841H62.478V106.272z M55.396,106.272v9.996h-8.504
			c-2.122,0-3.542,0.714-4.603,1.427c-0.705,0.718-1.416,2.146-1.416,3.928v3.217h13.454v11.063H40.873v38.21H25.647v-38.21H18.56
			V124.84h7.088v-3.217c0-4.998,1.413-8.925,4.247-11.78c3.186-2.503,7.439-3.57,13.806-3.57H55.396z"/>
		<path style="fill-rule:evenodd;clip-rule:evenodd;fill:#EE3173;" d="M260.967,129.177v1.868h1.13c0.516,0,0.897-0.059,1.175-0.194
			c0.257-0.127,0.387-0.397,0.387-0.791c0-0.279-0.115-0.489-0.346-0.65c-0.238-0.154-0.595-0.232-1.077-0.232H260.967
			L260.967,129.177z M260.967,134.979h-1.4v-6.896h3.266c0.508,0,0.937,0.076,1.29,0.236c0.336,0.163,0.599,0.392,0.776,0.69
			c0.178,0.291,0.265,0.64,0.265,1.027c0,0.486-0.165,0.907-0.495,1.261c-0.329,0.355-0.787,0.571-1.37,0.652
			c0.295,0.113,0.537,0.277,0.726,0.503c0.188,0.225,0.431,0.608,0.737,1.134l0.813,1.392h-1.74l-0.562-1.107
			c-0.275-0.504-0.504-0.869-0.694-1.113c-0.178-0.241-0.368-0.396-0.549-0.484c-0.191-0.09-0.42-0.129-0.694-0.129h-0.367V134.979
			L260.967,134.979z M262.514,126.271c-0.94,0-1.814,0.227-2.618,0.701c-0.8,0.463-1.435,1.1-1.905,1.901
			c-0.468,0.809-0.697,1.679-0.697,2.625c0,0.94,0.229,1.82,0.703,2.628c0.478,0.809,1.113,1.44,1.914,1.904
			c0.801,0.463,1.675,0.693,2.615,0.693c0.955,0,1.831-0.23,2.617-0.694c0.798-0.469,1.433-1.113,1.892-1.913
			c0.465-0.798,0.696-1.678,0.696-2.618c0-0.95-0.231-1.833-0.696-2.633c-0.459-0.802-1.094-1.437-1.895-1.9
			C264.342,126.498,263.468,126.271,262.514,126.271L262.514,126.271z M262.499,125c0.888,0,1.727,0.159,2.513,0.495
			c0.8,0.329,1.49,0.799,2.095,1.396c0.599,0.608,1.067,1.302,1.397,2.084c0.333,0.798,0.497,1.634,0.497,2.523
			c0,1.171-0.292,2.268-0.865,3.256c-0.581,1.009-1.371,1.8-2.37,2.376c-0.996,0.576-2.086,0.869-3.267,0.869
			c-1.168,0-2.262-0.293-3.259-0.869c-0.996-0.576-1.791-1.367-2.367-2.376c-0.58-0.988-0.873-2.085-0.873-3.256
			c0-1.178,0.293-2.27,0.873-3.263c0.576-1,1.363-1.79,2.364-2.372C260.237,125.285,261.319,125,262.499,125L262.499,125z"/>
		<rect x="0.668" y="0.636" style="fill:none;" width="280" height="280"/>
		<rect id="_x3C_Slice_x3E__13_" style="fill:none;" width="281" height="281"/>
	</g>
</svg>
