<?xml version="1.0" encoding="iso-8859-1"?>
<!-- Generator: Adobe Illustrator 14.0.0, SVG Export Plug-In . SVG Version: 6.00 Build 43363)  -->
<!DOCTYPE svg PUBLIC "-//W3C//DTD SVG 1.1//EN" "http://www.w3.org/Graphics/SVG/1.1/DTD/svg11.dtd">
<svg version="1.1" id="icon-l-video-layer" xmlns="http://www.w3.org/2000/svg" xmlns:xlink="http://www.w3.org/1999/xlink" x="0px"
	 y="0px" width="64px" height="64px" viewBox="0 0 64 64" style="enable-background:new 0 0 64 64;" xml:space="preserve">
<g id="icon-l-video">
	<rect style="fill:none;" width="64" height="64"/>
	<g>
		<path style="opacity:0.2;fill:#010101;" d="M56.045,31.723V10.306c-0.025-0.504-0.348-1.491-1.584-1.581H4.182
			C3.673,8.739,2.76,9.014,2.603,10.306v41.102c0.009,0.68,0.551,1.543,1.579,1.581h28.458c4.938,7.003,15.141,9.281,22.703,3.494
			C63.373,50.343,63.754,38.342,56.045,31.723z"/>
		<path style="opacity:0.5;fill:#010101;" d="M59.404,39.624L4.182,49.396v2.013h29.304c2.539,4.058,7.037,6.768,12.178,6.768
			c7.939,0,14.363-6.427,14.363-14.363C60.027,42.354,59.809,40.945,59.404,39.624z"/>
		<linearGradient id="SVGID_1_" gradientUnits="userSpaceOnUse" x1="29.3232" y1="18.2441" x2="29.3232" y2="64.6495">
			<stop  offset="0" style="stop-color:#E3E3E3"/>
			<stop  offset="1" style="stop-color:#414141"/>
		</linearGradient>
		<rect x="4.182" y="8.725" style="fill:url(#SVGID_1_);" width="50.283" height="41.103"/>
		<rect x="12.342" y="41.986" style="fill:#1A1A1A;" width="4.705" height="4.704"/>
		<rect x="22.162" y="41.986" style="fill:#1A1A1A;" width="4.705" height="4.704"/>
		<rect x="4.182" y="41.986" style="fill:#1A1A1A;" width="3.042" height="4.704"/>
		<rect x="4.182" y="18.567" style="opacity:0.4;" width="12.865" height="21.413"/>
		<polygon style="opacity:0.4;" points="54.465,31.28 51.627,29.39 51.627,18.567 54.465,18.567 		"/>
		<polygon style="opacity:0.4;" points="46.506,28.231 31.694,39.98 22.162,39.98 22.162,18.567 46.506,18.567 		"/>
		<polygon style="opacity:0.3;fill:#FFFFFF;" points="54.465,14.853 54.465,8.725 4.182,8.725 4.182,38.27 		"/>
		<rect x="12.342" y="11.727" style="fill:#1A1A1A;" width="4.705" height="4.705"/>
		<rect x="22.162" y="11.727" style="fill:#1A1A1A;" width="4.705" height="4.705"/>
		<rect x="31.987" y="11.727" style="fill:#1A1A1A;" width="4.699" height="4.705"/>
		<rect x="41.807" y="11.727" style="fill:#1A1A1A;" width="4.699" height="4.705"/>
		<rect x="51.627" y="11.727" style="fill:#1A1A1A;" width="2.838" height="4.705"/>
		<rect x="4.182" y="11.727" style="fill:#1A1A1A;" width="3.042" height="4.705"/>
		<path style="opacity:0.3;fill:#010101;" d="M54.465,31.396v-2.43c-0.035-0.028-0.055-0.066-0.094-0.093
			c-2.504-1.641-5.496-2.593-8.705-2.593c-8.795,0-15.949,7.155-15.949,15.949c0,2.746,0.697,5.336,1.927,7.596
			c0,0.001,0,0.001,0,0.001h3.012L54.465,31.396z"/>
		<linearGradient id="SVGID_2_" gradientUnits="userSpaceOnUse" x1="45.6621" y1="27.8613" x2="45.6621" y2="56.5991">
			<stop  offset="0" style="stop-color:#FFFFFF"/>
			<stop  offset="1" style="stop-color:#B3B3B3"/>
		</linearGradient>
		<path style="fill:url(#SVGID_2_);" d="M60.027,42.23c0,7.935-6.424,14.368-14.363,14.368c-7.934,0-14.368-6.434-14.368-14.368
			c0-7.933,6.435-14.369,14.368-14.369C53.604,27.861,60.027,34.298,60.027,42.23z"/>
		<linearGradient id="SVGID_3_" gradientUnits="userSpaceOnUse" x1="47.96" y1="53.2178" x2="47.96" y2="24.4885">
			<stop  offset="0" style="stop-color:#43B649"/>
			<stop  offset="0.1067" style="stop-color:#52B848"/>
			<stop  offset="0.4025" style="stop-color:#6CBE45"/>
			<stop  offset="0.7001" style="stop-color:#7AC143"/>
			<stop  offset="1" style="stop-color:#7EC242"/>
		</linearGradient>
		<polygon style="fill:url(#SVGID_3_);" points="41.613,35.204 41.613,49.495 54.307,42.349 		"/>
		<path style="fill:#FFFFFF;" d="M42.275,50.673l12.697-7.146c0.727-0.407,0.686-1.164,0.686-1.222l-1.352,0.044l-12.693,7.146
			l-0.688,1.167C41.35,50.912,41.869,50.905,42.275,50.673z"/>
		<path style="opacity:0.2;" d="M41.613,35.204l12.693,7.145l1.352-0.044c-0.016-0.473-0.273-0.906-0.686-1.141L42.275,34.02
			c-0.902-0.513-2.023,0.152-2.023,1.182v14.294c0,0.473,0.26,0.928,0.674,1.167l0.688-1.167"/>
	</g>
</g>
</svg>
