<?xml version="1.0" encoding="iso-8859-1"?>
<!-- Generator: Adobe Illustrator 14.0.0, SVG Export Plug-In . SVG Version: 6.00 Build 43363)  -->
<!DOCTYPE svg PUBLIC "-//W3C//DTD SVG 1.1//EN" "http://www.w3.org/Graphics/SVG/1.1/DTD/svg11.dtd">
<svg version="1.1" id="icon-m-toolbar-reply-all-layer"
	 xmlns="http://www.w3.org/2000/svg" xmlns:xlink="http://www.w3.org/1999/xlink" x="0px" y="0px" width="65px" height="64px"
	 viewBox="0 0 65 64" style="enable-background:new 0 0 65 64;" xml:space="preserve">
<g id="icon-m-toolbar-reply-all">
	<rect x="1" style="fill:none;" width="64" height="64"/>
	<path style="fill:#FFFFFF;" d="M33,12c-11.045,0-20,8.954-20,20c0,11.045,8.955,20,20,20c11.047,0,20-8.955,20-20
		C53,20.954,44.047,12,33,12z M28.806,42.021c0,0.58-0.745,1.081-1.316,0.573l-9.871-10.021c-0.348-0.309-0.351-0.842,0.001-1.147
		l9.87-9.964c0.684-0.605,1.316,0.051,1.316,0.573l0.003,4.903l-4.442,4.487c-0.352,0.306-0.351,0.839-0.004,1.147l4.443,4.513
		V42.021z M48.039,36.022h-8.037v5.999c0,0.58-0.742,1.081-1.318,0.573l-9.871-10.021c-0.343-0.309-0.346-0.842,0.002-1.147
		l9.868-9.964c0.684-0.605,1.318,0.051,1.318,0.573l0.004,5.944h8.033c0.379,0,0.791,0.291,0.791,0.771v6.494
		C48.83,35.674,48.48,36.022,48.039,36.022z"/>
</g>
</svg>
