<?xml version="1.0" encoding="iso-8859-1"?>
<!-- Generator: Adobe Illustrator 14.0.0, SVG Export Plug-In . SVG Version: 6.00 Build 43363)  -->
<!DOCTYPE svg PUBLIC "-//W3C//DTD SVG 1.1//EN" "http://www.w3.org/Graphics/SVG/1.1/DTD/svg11.dtd">
<svg version="1.1" id="icon-m-transfer-upload-layer"
	 xmlns="http://www.w3.org/2000/svg" xmlns:xlink="http://www.w3.org/1999/xlink" x="0px" y="0px" width="64px" height="64px"
	 viewBox="0 0 64 64" style="enable-background:new 0 0 64 64;" xml:space="preserve">
<g id="icon-m-transfer-upload">
	<rect style="fill:none;" width="64" height="64"/>
	<path style="fill:#333333;" d="M21.086,36.583h6.593l0.001,10.879c-0.001,0.473,0.379,0.847,0.849,0.847h7.14
		c0.53,0.002,0.852-0.44,0.852-0.847V36.586l6.536-0.003c0.574,0,1.295-0.68,0.633-1.41L32.731,24.589
		c-0.336-0.375-0.924-0.371-1.263-0.004L20.454,35.173C19.894,35.788,20.445,36.583,21.086,36.583z"/>
	<rect x="21.588" y="14.309" style="fill:#333333;" width="21" height="7"/>
	<path style="fill:#333333;" d="M32.088,0.309c17.094,0,31,13.906,31,31c0,17.093-13.906,31-31,31c-17.093,0-31-13.907-31-31
		C1.088,14.215,14.995,0.309,32.088,0.309L32.088,0.309z M32.088,56.994c14.164,0,25.686-11.523,25.686-25.686
		S46.252,5.624,32.088,5.624c-14.163,0-25.686,11.522-25.686,25.685S17.925,56.994,32.088,56.994L32.088,56.994z"/>
</g>
</svg>
