<?xml version="1.0" encoding="iso-8859-1"?>
<!-- Generator: Adobe Illustrator 14.0.0, SVG Export Plug-In . SVG Version: 6.00 Build 43363)  -->
<!DOCTYPE svg PUBLIC "-//W3C//DTD SVG 1.1//EN" "http://www.w3.org/Graphics/SVG/1.1/DTD/svg11.dtd">
<svg version="1.1" id="icon-m-content-call-duration-layer"
	 xmlns="http://www.w3.org/2000/svg" xmlns:xlink="http://www.w3.org/1999/xlink" x="0px" y="0px" width="64px" height="64px"
	 viewBox="0 0 64 64" style="enable-background:new 0 0 64 64;" xml:space="preserve">
<g id="icon-m-content-call-duration">
	<rect style="fill:none;" width="64" height="64"/>
	<g>
		<g>
			<path style="fill:#333333;" d="M48.27,46.518c-0.237,1.119-1.206,1.917-2.357,1.917c-1.332,0-2.416-1.087-2.416-2.417
				c0-0.201,0.026-0.404,0.078-0.603l-5.309-6.684l2.262-1.813l5.311,6.684c0.418-0.018,0.828,0.082,1.207,0.287l4.995-2.326
				l1.22,2.635L48.27,46.518z"/>
		</g>
	</g>
	<path style="fill:#333333;" d="M46,31.375c8.063,0,14.625,6.562,14.625,14.625c0,8.063-6.562,14.625-14.625,14.625
		c-8.064,0-14.625-6.563-14.625-14.625C31.375,37.937,37.936,31.375,46,31.375 M46,28c-9.941,0-18,8.06-18,18
		c0,9.941,8.059,18,18,18c9.94,0,18-8.059,18-18C64,36.06,55.94,28,46,28L46,28z"/>
	<path style="fill:#333333;" d="M32.94,4.078C24.557,8.016,7.907,22.648,3.948,33.021c-1.733,4.542,1.813,11.726,4.614,13.956
		c-0.002,0.01,1.441,1.207,2.521-0.018l7.55-10.164c0.514-0.658,1.019-1.523-0.021-2.553c0,0-5.225-3.76-3.712-6.161
		C15.957,26.419,26.34,16.053,28.003,15c2.411-1.514,6.181,3.695,6.181,3.695c1.041,1.035,1.901,0.523,2.561,0.016l10.194-7.542
		c1.228-1.091,0.021-2.524,0.014-2.524C44.707,5.871,37.362,2.004,32.94,4.078z"/>
</g>
</svg>
