<?xml version="1.0" encoding="iso-8859-1"?>
<!-- Generator: Adobe Illustrator 14.0.0, SVG Export Plug-In . SVG Version: 6.00 Build 43363)  -->
<!DOCTYPE svg PUBLIC "-//W3C//DTD SVG 1.1//EN" "http://www.w3.org/Graphics/SVG/1.1/DTD/svg11.dtd">
<svg version="1.1" id="icon-m-music-video-fm-transmitter-layer"
	 xmlns="http://www.w3.org/2000/svg" xmlns:xlink="http://www.w3.org/1999/xlink" x="0px" y="0px" width="64px" height="64px"
	 viewBox="0 0 64 64" style="enable-background:new 0 0 64 64;" xml:space="preserve">
<g id="icon-m-music-video-fm-transmitter">
	<rect style="fill:none;" width="64" height="64"/>
	<path style="fill:#333333;" d="M47.566,22.496c-0.764,0.498-0.979,1.52-0.482,2.283c0.035,0.054,3.533,5.48,3.51,10.145v0.809
		c0.023,4.637-3.475,10.084-3.51,10.138c-0.496,0.765-0.279,1.786,0.484,2.282c0.277,0.181,0.59,0.268,0.897,0.268
		c0.539,0,1.067-0.265,1.384-0.75c0.166-0.256,4.073-6.318,4.044-11.945v-0.793c0.029-5.635-3.878-11.697-4.044-11.953
		C49.352,22.215,48.33,22,47.566,22.496z"/>
	<path style="fill:#333333;" d="M57.139,16.135c-0.645-0.641-1.686-0.639-2.33,0.005c-0.643,0.644-0.641,1.688,0.002,2.333
		c0.057,0.058,5.754,5.891,5.89,16.602v0.479c-0.136,10.717-5.817,16.549-5.89,16.623c-0.646,0.643-0.647,1.687-0.005,2.332
		c0.323,0.323,0.746,0.486,1.169,0.486c0.421,0,0.843-0.161,1.164-0.48c0.274-0.273,6.709-6.816,6.861-18.939v-0.521
		C63.848,22.95,57.413,16.407,57.139,16.135z"/>
	<path style="fill:#333333;" d="M0,22.273v25.322c0,1.146,0.927,2.073,2.075,2.073h39.004c1.146,0,2.077-0.928,2.077-2.073V22.273
		c0-1.146-0.932-2.076-2.077-2.076h-5.022L9.675,7.062c-0.664-0.33-1.478-0.055-1.808,0.615l-0.248,0.5
		C7.291,8.845,7.564,9.662,8.228,9.992l20.501,10.205H2.075C0.927,20.197,0,21.127,0,22.273z M24.321,40.994
		c0-3.271,2.649-5.916,5.914-5.918c3.272,0.002,5.919,2.647,5.919,5.918c0,3.267-2.646,5.913-5.919,5.917
		C26.971,46.907,24.321,44.261,24.321,40.994z M6.918,40.994c0-3.271,2.65-5.916,5.918-5.918c3.27,0.002,5.916,2.647,5.916,5.918
		c0,3.267-2.646,5.913-5.916,5.917C9.568,46.907,6.918,44.261,6.918,40.994z M4.15,25.766c0-0.771,0.624-1.4,1.39-1.4H37.56
		c0.767,0,1.394,0.629,1.394,1.4v4.669c0,0.769-0.627,1.398-1.394,1.398H16.716l-1.779-6.304l-1.779,6.304H5.541
		c-0.766,0-1.39-0.63-1.39-1.398V25.766z"/>
</g>
</svg>
