<?xml version="1.0" encoding="iso-8859-1"?>
<!-- Generator: Adobe Illustrator 14.0.0, SVG Export Plug-In . SVG Version: 6.00 Build 43363)  -->
<!DOCTYPE svg PUBLIC "-//W3C//DTD SVG 1.1//EN" "http://www.w3.org/Graphics/SVG/1.1/DTD/svg11.dtd">
<svg version="1.1" id="icon-m-transfer-switch-layer"
	 xmlns="http://www.w3.org/2000/svg" xmlns:xlink="http://www.w3.org/1999/xlink" x="0px" y="0px" width="64px" height="64px"
	 viewBox="0 0 64 64" style="enable-background:new 0 0 64 64;" xml:space="preserve">
<g id="icon-m-transfer-switch">
	<rect style="fill:none;" width="64" height="64"/>
	<path style="fill:#333333;" d="M53.998,31.363L43.154,20.09c-0.636-0.568-1.449-0.005-1.449,0.649v6.722L22.3,27.464l-0.004-6.69
		c0-0.588-0.696-1.325-1.449-0.646L10.008,31.341c-0.388,0.344-0.385,0.95-0.004,1.296l10.844,11.275
		c0.636,0.568,1.449,0.004,1.449-0.65v-6.746l19.405-0.002l0.004,6.714c0,0.588,0.696,1.324,1.449,0.646l10.84-11.213
		C54.383,32.316,54.379,31.711,53.998,31.363z"/>
	<path style="fill:#333333;" d="M32.011,63.035c-17.093,0-31-13.908-31-31c0-17.094,13.907-31,31-31s31,13.906,31,31
		C63.011,49.127,49.104,63.035,32.011,63.035L32.011,63.035z M32.011,6.349c-14.163,0-25.686,11.523-25.686,25.687
		c0,14.162,11.523,25.685,25.686,25.685c14.163,0,25.686-11.522,25.686-25.685C57.696,17.872,46.174,6.349,32.011,6.349
		L32.011,6.349z"/>
</g>
</svg>
