<?xml version="1.0" encoding="iso-8859-1"?>
<!-- Generator: Adobe Illustrator 14.0.0, SVG Export Plug-In . SVG Version: 6.00 Build 43363)  -->
<!DOCTYPE svg PUBLIC "-//W3C//DTD SVG 1.1//EN" "http://www.w3.org/Graphics/SVG/1.1/DTD/svg11.dtd">
<svg version="1.1" id="icon-m-toolbar-dialer-layer"
	 xmlns="http://www.w3.org/2000/svg" xmlns:xlink="http://www.w3.org/1999/xlink" x="0px" y="0px" width="64px" height="64px"
	 viewBox="0 0 64 64" style="enable-background:new 0 0 64 64;" xml:space="preserve">
<g id="icon-m-toolbar-dialer">
	<rect style="fill:none;" width="64" height="64"/>
	<rect x="26.871" y="12" style="fill:#FFFFFF;" width="10.401" height="6.067"/>
	<path style="fill:#FFFFFF;" d="M21.461,12h-7.976c-1.338,0-2.424,1.029-2.424,2.295v3.772h10.399V12z"/>
	<path style="fill:#FFFFFF;" d="M52.938,14.295c0-1.266-1.085-2.295-2.425-2.295h-7.976v6.067h10.4V14.295z"/>
	<rect x="26.871" y="23.36" style="fill:#FFFFFF;" width="10.401" height="6.067"/>
	<rect x="26.871" y="34.719" style="fill:#FFFFFF;" width="10.401" height="6.068"/>
	<rect x="11.062" y="23.36" style="fill:#FFFFFF;" width="10.399" height="6.067"/>
	<path style="fill:#FFFFFF;" d="M11.062,38.492c0,1.267,1.085,2.295,2.424,2.295h7.976v-6.068H11.062V38.492z"/>
	<path style="fill:#FFFFFF;" d="M42.538,40.787h7.976c1.34,0,2.425-1.028,2.425-2.295v-3.773h-10.4V40.787z"/>
	<rect x="42.538" y="23.36" style="fill:#FFFFFF;" width="10.4" height="6.067"/>
	<path style="fill:#FFFFFF;" d="M37.272,45.935v4.042c0,1.116-1.085,2.023-2.425,2.023h-5.551c-1.338,0-2.425-0.907-2.425-2.023
		v-4.042H37.272z"/>
</g>
</svg>
