<?xml version="1.0" encoding="iso-8859-1"?>
<!-- Generator: Adobe Illustrator 14.0.0, SVG Export Plug-In . SVG Version: 6.00 Build 43363)  -->
<!DOCTYPE svg PUBLIC "-//W3C//DTD SVG 1.1//EN" "http://www.w3.org/Graphics/SVG/1.1/DTD/svg11.dtd">
<svg version="1.1" id="icon-m-energy-management-battery88-layer"
	 xmlns="http://www.w3.org/2000/svg" xmlns:xlink="http://www.w3.org/1999/xlink" x="0px" y="0px" width="64px" height="64px"
	 viewBox="0 0 64 64" style="enable-background:new 0 0 64 64;" xml:space="preserve">
<g id="icon-m-energy-management-battery88">
	<rect style="fill:none;" width="64" height="64"/>
	<path style="fill:#333333;" d="M60.623,25.452h-2.818V15.379c0-1.033-0.845-1.879-1.878-1.879H3.38
		c-1.033,0-1.881,0.846-1.881,1.879v33.242c0,1.033,0.848,1.879,1.881,1.879h52.546c1.033,0,1.878-0.846,1.878-1.879V38.547h2.818
		c1.033,0,1.879-0.848,1.879-1.879v-9.336C62.502,26.299,61.656,25.452,60.623,25.452z M52.11,44.219
		c0,1.033-0.846,1.879-1.879,1.879H7.062c-1.033,0-1.877-0.846-1.877-1.879V19.785c0-1.033,0.845-1.878,1.877-1.878h43.17
		c1.033,0,1.879,0.845,1.879,1.878V44.219z"/>
	<rect x="8.548" y="21.243" style="fill:#333333;" width="36.282" height="21.516"/>
</g>
</svg>
