<?xml version="1.0" encoding="iso-8859-1"?>
<!-- Generator: Adobe Illustrator 14.0.0, SVG Export Plug-In . SVG Version: 6.00 Build 43363)  -->
<!DOCTYPE svg PUBLIC "-//W3C//DTD SVG 1.1//EN" "http://www.w3.org/Graphics/SVG/1.1/DTD/svg11.dtd">
<svg version="1.1" id="icon-m-camera-whitebalance-auto-layer"
	 xmlns="http://www.w3.org/2000/svg" xmlns:xlink="http://www.w3.org/1999/xlink" x="0px" y="0px" width="64px" height="64px"
	 viewBox="0 0 64 64" style="enable-background:new 0 0 64 64;" xml:space="preserve">
<g id="icon-m-camera-whitebalance-auto">
	<rect style="fill:none;" width="64" height="64"/>
	<path style="fill:#333333;" d="M24.819,18.057c3.635,0,6.593,2.957,6.593,6.593s-2.958,6.593-6.593,6.593s-6.593-2.957-6.593-6.593
		S21.184,18.057,24.819,18.057 M24.819,14.057c-5.851,0-10.593,4.743-10.593,10.593s4.742,10.593,10.593,10.593
		c5.85,0,10.593-4.743,10.593-10.593S30.669,14.057,24.819,14.057L24.819,14.057z"/>
	<path style="fill:#333333;" d="M27.25,9.173V3.546c0-1.011-0.885-1.896-1.894-1.894L24.645,1.65
		C23.6,1.652,22.75,2.502,22.75,3.545l0,5.629c0,0.506,0.197,0.98,0.556,1.34c0.358,0.357,0.833,0.556,1.338,0.555h0.711
		c0.505,0,0.982-0.198,1.34-0.556C27.053,10.153,27.25,9.678,27.25,9.173z"/>
	<path style="fill:#333333;" d="M9.255,22.75H3.628c-1.011,0-1.896,0.885-1.894,1.893l-0.002,0.713
		C1.735,26.4,2.584,27.25,3.627,27.25h5.629c0.506,0,0.98-0.197,1.34-0.557c0.357-0.357,0.556-0.832,0.555-1.338v-0.711
		c0-0.504-0.198-0.98-0.556-1.34C10.236,22.947,9.76,22.75,9.255,22.75z"/>
	<path style="fill:#333333;" d="M46.105,22.75h-5.627c-1.01,0-1.895,0.885-1.893,1.893l-0.002,0.713
		c0.002,1.045,0.852,1.895,1.894,1.895h5.63c0.506,0,0.98-0.197,1.34-0.557c0.357-0.357,0.555-0.832,0.555-1.338v-0.711
		c0-0.504-0.199-0.98-0.557-1.34C47.086,22.947,46.611,22.75,46.105,22.75z"/>
	<path style="fill:#333333;" d="M15.452,12.186l-3.979-3.979c-0.714-0.715-1.966-0.715-2.678,0L8.29,8.71
		c-0.738,0.739-0.738,1.941,0,2.679l3.979,3.98c0.357,0.357,0.833,0.554,1.34,0.554c0.507,0,0.982-0.196,1.339-0.554l0.503-0.503
		c0.357-0.356,0.554-0.834,0.554-1.34C16.006,13.019,15.809,12.543,15.452,12.186z"/>
	<path style="fill:#333333;" d="M41.669,8.71l-0.503-0.503c-0.715-0.715-1.965-0.715-2.68,0l-3.979,3.979
		c-0.738,0.739-0.738,1.94,0,2.681l0.504,0.503c0.355,0.357,0.832,0.553,1.339,0.553c0.508,0,0.982-0.195,1.34-0.553l3.979-3.98
		C42.406,10.651,42.406,9.449,41.669,8.71z"/>
	<path style="fill:#333333;" d="M27.25,45.755v-5.627c0-1.011-0.885-1.896-1.894-1.894l-0.712-0.002
		c-1.044,0.002-1.895,0.852-1.895,1.895l0,5.629c0,0.506,0.197,0.98,0.556,1.34c0.358,0.357,0.833,0.556,1.338,0.555h0.711
		c0.505,0,0.982-0.198,1.34-0.556C27.053,46.735,27.25,46.26,27.25,45.755z"/>
	<path style="fill:#333333;" d="M34.507,37.114l3.979,3.979c0.715,0.714,1.966,0.714,2.678,0l0.505-0.503
		c0.737-0.738,0.737-1.94,0-2.679l-3.979-3.979c-0.357-0.357-0.832-0.554-1.34-0.554c-0.507,0-0.983,0.196-1.34,0.554l-0.503,0.503
		c-0.356,0.356-0.554,0.833-0.554,1.34S34.15,36.758,34.507,37.114z"/>
	<path style="fill:#333333;" d="M8.29,40.591l0.503,0.502c0.714,0.715,1.965,0.715,2.679,0l3.979-3.979
		c0.738-0.739,0.738-1.94,0-2.68l-0.503-0.503c-0.356-0.357-0.832-0.554-1.34-0.554c-0.507,0-0.983,0.196-1.339,0.554L8.29,37.911
		C7.552,38.649,7.552,39.852,8.29,40.591z"/>
	<path style="fill:#333333;" d="M54.318,36h-6.26L40,63h4.547l1.791-6.193h9.031L57.162,63h5.068L54.318,36z M47.207,53.387
		l3.686-13.342l3.654,13.402L47.207,53.387z"/>
</g>
</svg>
