<?xml version="1.0" encoding="iso-8859-1"?>
<!-- Generator: Adobe Illustrator 14.0.0, SVG Export Plug-In . SVG Version: 6.00 Build 43363)  -->
<!DOCTYPE svg PUBLIC "-//W3C//DTD SVG 1.1//EN" "http://www.w3.org/Graphics/SVG/1.1/DTD/svg11.dtd">
<svg version="1.1" id="icon-m-camera-sound-recording-off-layer"
	 xmlns="http://www.w3.org/2000/svg" xmlns:xlink="http://www.w3.org/1999/xlink" x="0px" y="0px" width="32px" height="32px"
	 viewBox="0 0 32 32" style="enable-background:new 0 0 32 32;" xml:space="preserve">
<g id="icon-m-camera-sound-recording-off_1_">
	<rect style="fill:none;" width="32" height="32"/>
	<path style="fill:#333333;" d="M11.008,11.306l7.88,7.879l7.748-7.75c0.484-0.481,0.484-1.268,0-1.751l-6.125-6.131
		c-0.483-0.479-1.27-0.479-1.754,0.001L11.008,11.306z M15.087,9.405l1.5-1.499l5.7,5.7l-1.499,1.498L15.087,9.405z M15.169,18.651
		l-3.627-3.627L3.955,23.44l2.798,2.798L15.169,18.651z M4.603,27.288l-1.703-1.703l-2.206,2.214L2.395,29.5L4.603,27.288z"/>
	<path style="fill:#333333;" d="M25.802,18.896c-2.929,0-5.302,2.374-5.302,5.302s2.373,5.302,5.302,5.302
		c2.928,0,5.302-2.374,5.302-5.302S28.729,18.896,25.802,18.896z M25.802,27.698c-1.934,0-3.5-1.566-3.5-3.5
		c0-1.933,1.566-3.5,3.5-3.5s3.5,1.567,3.5,3.5C29.302,26.132,27.735,27.698,25.802,27.698z"/>
</g>
</svg>
