<?xml version="1.0" encoding="iso-8859-1"?>
<!-- Generator: Adobe Illustrator 14.0.0, SVG Export Plug-In . SVG Version: 6.00 Build 43363)  -->
<!DOCTYPE svg PUBLIC "-//W3C//DTD SVG 1.1//EN" "http://www.w3.org/Graphics/SVG/1.1/DTD/svg11.dtd">
<svg version="1.1" id="icon-m-bluetooth-laptop-layer"
	 xmlns="http://www.w3.org/2000/svg" xmlns:xlink="http://www.w3.org/1999/xlink" x="0px" y="0px" width="64px" height="64px"
	 viewBox="0 0 64 64" style="enable-background:new 0 0 64 64;" xml:space="preserve">
<g id="icon-m-bluetooth-laptop">
	<rect style="fill:none;" width="64" height="64"/>
	<path style="fill:#333333;" d="M62.871,51.07l-5.63-9.723c-0.378-0.979-1.483-1.785-2.541-1.904c1.046-0.1,1.875-0.973,1.875-2.036
		V13.059c0-1.132-0.934-2.059-2.071-2.059H9.4c-1.139,0-2.071,0.927-2.071,2.059v24.349c0,1.079,0.853,1.964,1.921,2.042
		c-1.044,0.137-2.121,0.936-2.491,1.898L1.13,51.07C0.721,52.133,1.312,53,2.445,53h59.11C62.687,53,63.28,52.133,62.871,51.07z
		 M11.863,14.732h40v21h-40V14.732z M22.309,48.741l2.297-5h14.406l2.297,5H22.309z"/>
</g>
</svg>
