<?xml version="1.0" encoding="iso-8859-1"?>
<!-- Generator: Adobe Illustrator 14.0.0, SVG Export Plug-In . SVG Version: 6.00 Build 43363)  -->
<!DOCTYPE svg PUBLIC "-//W3C//DTD SVG 1.1//EN" "http://www.w3.org/Graphics/SVG/1.1/DTD/svg11.dtd">
<svg version="1.1" id="icon-m-common-locked-layer" xmlns="http://www.w3.org/2000/svg" xmlns:xlink="http://www.w3.org/1999/xlink"
	 x="0px" y="0px" width="64px" height="64px" viewBox="0 0 64 64" style="enable-background:new 0 0 64 64;" xml:space="preserve">
<g id="icon-m-common-locked">
	<rect style="fill:none;" width="64" height="64"/>
	<path style="fill:#333333;" d="M60.749,27.669h-2.365c-0.002-3.062-0.007-7.02-0.007-7.117c-0.002-8.314-6.8-15.05-15.19-15.051
		c-8.392,0.001-15.188,6.736-15.19,15.051c0,0.098-0.006,4.02-0.007,7.117h-2.365c-1.211,0-2.197,0.956-2.197,2.13v26.565
		c0,1.173,0.986,2.137,2.197,2.137h35.125c1.206,0,2.196-0.958,2.196-2.137V29.799C62.943,28.625,61.955,27.669,60.749,27.669z
		 M32.641,20.552c0.01-5.771,4.722-10.44,10.545-10.449c5.823,0.009,10.536,4.679,10.546,10.449
		c-0.001,0.098,0.005,4.056,0.007,7.117H32.655C32.647,24.571,32.641,20.649,32.641,20.552z M46.203,42.807v9.731h-5.826v-9.604
		c-1.617-0.962-2.705-2.722-2.705-4.739c0-3.045,2.47-5.514,5.515-5.514c3.044,0,5.514,2.469,5.514,5.514
		C48.7,40.125,47.705,41.821,46.203,42.807z"/>
</g>
</svg>
