<?xml version="1.0" encoding="iso-8859-1"?>
<!-- Generator: Adobe Illustrator 13.0.2, SVG Export Plug-In . SVG Version: 6.00 Build 14948)  -->
<!DOCTYPE svg PUBLIC "-//W3C//DTD SVG 1.1//EN" "http://www.w3.org/Graphics/SVG/1.1/DTD/svg11.dtd">
<svg version="1.1" xmlns="http://www.w3.org/2000/svg" xmlns:xlink="http://www.w3.org/1999/xlink" x="0px" y="0px" width="64px"
	 height="64px" viewBox="0 0 64 64" style="enable-background:new 0 0 64 64;" xml:space="preserve">
	<g id="icon-m-alarm-create">
		<rect style="fill:none;" width="64" height="64"/>
		<path style="fill:#333333;" d="M46.017,27.925c-6.554,0-12.272,3.518-15.415,8.758c0.14-2.004,1.101-4.035,4.377-7.287
			c0,0,3.281-3.256,3.525-3.498c3.91-3.891,4.983-9.564,3.318-14.68c-0.698-2.396-1.994-4.684-3.912-6.6
			c-3.304-3.301-7.694-4.797-11.882-4.466c-3.471,0.148-6.836,1.489-9.417,4.054c-0.244,0.242-3.52,3.5-3.52,3.5
			c-5.901,5.859-7.541,4.465-11.827,3.969L0,12.93l28.587,28.618c-0.349,1.398-0.555,2.854-0.555,4.361
			c0,9.932,8.051,17.982,17.983,17.982S64,55.841,64,45.909C64,35.976,55.949,27.925,46.017,27.925z M48.691,58.604h-5.367v-9.898
			h-9.897v-5.367h9.897V33.44h5.367v9.898h9.898v5.367h-9.898V58.604z"/>
		<path style="fill:#333333;" d="M4.48,37.731c3.555,3.527,10.329,2.786,13.697-0.382L5.173,24.306
			C1.994,27.649,0.917,34.202,4.48,37.731z"/>
	</g>
</svg>
