<?xml version="1.0" encoding="iso-8859-1"?>
<!-- Generator: Adobe Illustrator 14.0.0, SVG Export Plug-In . SVG Version: 6.00 Build 43363)  -->
<!DOCTYPE svg PUBLIC "-//W3C//DTD SVG 1.1//EN" "http://www.w3.org/Graphics/SVG/1.1/DTD/svg11.dtd">
<svg version="1.1" id="icon-m-image-edit-color-effects-layer"
	 xmlns="http://www.w3.org/2000/svg" xmlns:xlink="http://www.w3.org/1999/xlink" x="0px" y="0px" width="64px" height="64px"
	 viewBox="0 0 64 64" style="enable-background:new 0 0 64 64;" xml:space="preserve">
<g id="icon-m-image-edit-color-effects">
	<rect x="5" style="fill:none;" width="64" height="64"/>
	<path style="fill:#333333;" d="M26.697,29.504c-17.01,0-30.708,14.045-12.785,15.184c3.724,0.238,5.625,2.846,5.625,5.035
		c0,1.666-1.102,2.793-1.984,3.666c-5.539,5.549,4.812,9.102,13.104,9.102c9.234,0,18.469-6.051,18.465-15.836
		C49.121,37.275,39.166,29.504,26.697,29.504z M15.077,43.002c-2.462-0.207-4.312-2.381-4.106-4.854
		c0.209-2.473,2.383-4.318,4.856-4.115c2.472,0.205,4.319,2.391,4.112,4.863C19.73,41.367,17.559,43.211,15.077,43.002z
		 M21.914,36.412c0.205-2.471,2.385-4.32,4.858-4.113c2.466,0.205,4.317,2.389,4.11,4.857c-0.206,2.469-2.385,4.314-4.858,4.111
		C23.557,41.061,21.71,38.881,21.914,36.412z M28.52,57.717c-2.756,0-4.996-2.24-4.996-4.998c0-2.76,2.24-5.002,4.996-5.002
		s5.004,2.242,5.004,5.002C33.523,55.477,31.275,57.717,28.52,57.717z M37.305,43.533c-2.471-0.207-4.316-2.387-4.112-4.861
		c0.206-2.473,2.38-4.316,4.858-4.107c2.469,0.203,4.316,2.379,4.111,4.854S39.779,43.736,37.305,43.533z"/>
	<polygon style="fill:#333333;" points="68.518,10.137 59.412,10.137 56.518,1.51 53.621,10.137 44.518,10.137 51.805,15.553 
		48.83,24.408 56.518,19.287 64.203,24.408 61.23,15.553 	"/>
	<polygon style="fill:#333333;" points="29.482,24.574 33.646,21.666 37.811,24.574 36.201,19.545 40.146,16.471 35.217,16.471 
		33.646,11.574 32.077,16.471 27.146,16.471 31.094,19.545 	"/>
</g>
</svg>
