<?xml version="1.0" encoding="iso-8859-1"?>
<!-- Generator: Adobe Illustrator 13.0.2, SVG Export Plug-In . SVG Version: 6.00 Build 14948)  -->
<!DOCTYPE svg PUBLIC "-//W3C//DTD SVG 1.1//EN" "http://www.w3.org/Graphics/SVG/1.1/DTD/svg11.dtd">
<svg version="1.1" xmlns="http://www.w3.org/2000/svg" xmlns:xlink="http://www.w3.org/1999/xlink" x="0px" y="0px" width="88px"
	 height="88px" viewBox="0 0 88 88" style="enable-background:new 0 0 88 88;" xml:space="preserve">
	<g id="icon-m-gmail">
		<rect id="_x3C_Slice_x3E__31_" style="fill:none;" width="88" height="88"/>
		<path style="fill-rule:evenodd;clip-rule:evenodd;fill:#D72F2D;" d="M77,69.406V19.389H10v50.018H77L77,69.406L77,69.406z
			 M67.386,59.153v9.726H20.359v-9.215h0.081l0.238-0.066L38.34,45.369l5.331,4.523l4.749-4.146L67.386,59.153L67.386,59.153
			L67.386,59.153z M67.386,57.432L49.411,44.848l17.975-15.572V57.432L67.386,57.432L67.386,57.432z M64.395,19.912l-2.432,2.314
			l-1.15,1.127l-1.081,1.115l-1.116,1.049l-1.036,1.037l-0.997,0.968l-0.905,0.956l-0.957,0.889l-0.888,0.877l-1.631,1.641
			l-1.549,1.479l-0.729,0.675l-0.626,0.693l-0.69,0.559l-0.586,0.559l-1.088,1.047l-0.506,0.445l-0.45,0.432l-0.438,0.365
			l-0.359,0.387l-0.667,0.568l-0.284,0.207l-0.193,0.226l-0.234,0.126l-0.159,0.149l-0.217,0.17L23.189,19.822L64.395,19.912
			L64.395,19.912L64.395,19.912z M37.303,44.492L20.359,58.025L20.4,30.12L37.303,44.492L37.303,44.492L37.303,44.492z"/>
	</g>
</svg>
