<?xml version="1.0" encoding="iso-8859-1"?>
<!-- Generator: Adobe Illustrator 14.0.0, SVG Export Plug-In . SVG Version: 6.00 Build 43363)  -->
<!DOCTYPE svg PUBLIC "-//W3C//DTD SVG 1.1//EN" "http://www.w3.org/Graphics/SVG/1.1/DTD/svg11.dtd">
<svg version="1.1" id="icon-l-maps-layer" xmlns="http://www.w3.org/2000/svg" xmlns:xlink="http://www.w3.org/1999/xlink" x="0px"
	 y="0px" width="64px" height="64px" viewBox="0 0 64 64" style="enable-background:new 0 0 64 64;" xml:space="preserve">
<g id="icon-l-maps">
	<g id="icon-l-maps_2_">
		<rect style="fill:none;" width="64" height="64"/>
	</g>
	<g>
		<path style="opacity:0.2;fill:#010101;" d="M32,6C17.645,6.004,6.001,17.644,6.001,32c0,14.359,11.643,26,25.999,26
			c14.357,0,25.998-11.641,25.998-26C57.998,17.644,46.357,6.004,32,6z"/>
		<path style="opacity:0.5;fill:#010101;" d="M56.541,32c0,13.557-10.99,24.545-24.538,24.545C18.45,56.545,7.458,45.557,7.458,32
			c0-13.551,10.991-24.54,24.545-24.54C45.551,7.46,56.541,18.449,56.541,32z"/>
		<linearGradient id="SVGID_1_" gradientUnits="userSpaceOnUse" x1="31.9995" y1="10.4575" x2="31.9995" y2="97.3285">
			<stop  offset="0" style="stop-color:#E3E3E3"/>
			<stop  offset="1" style="stop-color:#414141"/>
		</linearGradient>
		<path style="fill:url(#SVGID_1_);" d="M56.541,30.543c0,13.556-10.99,24.545-24.538,24.545c-13.554,0-24.545-10.989-24.545-24.545
			c0-13.551,10.991-24.54,24.545-24.54C45.551,6.003,56.541,16.992,56.541,30.543z"/>
		<linearGradient id="SVGID_2_" gradientUnits="userSpaceOnUse" x1="32.0024" y1="51.6162" x2="32.0024" y2="11.004">
			<stop  offset="0" style="stop-color:#7EC242"/>
			<stop  offset="1" style="stop-color:#1D6433"/>
		</linearGradient>
		<path style="fill:url(#SVGID_2_);" d="M52.469,30.543c0,11.307-9.162,20.473-20.465,20.473c-11.308,0-20.468-9.166-20.468-20.473
			c0-11.301,9.16-20.469,20.468-20.469C43.307,10.074,52.469,19.242,52.469,30.543z"/>
		<polygon style="opacity:0.4;fill:#FFFFFF;" points="30.068,28.584 15.956,30.518 30.068,32.448 32.003,46.562 33.934,32.448 
			48.041,30.518 33.934,28.584 32.003,21.582 		"/>
		<linearGradient id="SVGID_3_" gradientUnits="userSpaceOnUse" x1="32.0005" y1="54.3467" x2="32.0005" y2="10.0936">
			<stop  offset="0" style="stop-color:#E3E3E3"/>
			<stop  offset="1" style="stop-color:#414141"/>
		</linearGradient>
		<path style="fill:url(#SVGID_3_);" d="M10.809,30.543c0.006-11.702,9.486-21.189,21.194-21.189l0,0
			c11.702,0,21.183,9.487,21.188,21.189l0,0c-0.005,11.707-9.486,21.193-21.188,21.193l0,0
			C20.297,51.736,10.815,42.25,10.809,30.543L10.809,30.543z M12.256,30.543c0.02,10.908,8.837,19.729,19.747,19.75l0,0
			c10.903-0.021,19.723-8.842,19.741-19.75l0,0c-0.018-10.906-8.838-19.725-19.741-19.744l0,0
			C21.097,10.818,12.276,19.637,12.256,30.543L12.256,30.543z"/>
		<path style="opacity:0.25;fill:#FFFFFF;" d="M50.139,24.594c-2.547-7.552-9.674-12.996-18.087-12.996
			c-10.551,0-19.104,8.551-19.104,19.104c0,3.642,1.038,7.031,2.807,9.927L50.139,24.594z"/>
		<polygon style="opacity:0.3;" points="33.908,29.951 20.262,20.471 30.096,33.865 43.744,43.348 		"/>
		<polygon style="fill:#FFFFFF;" points="30.096,32.455 43.744,41.942 33.908,28.544 		"/>
		<polygon style="fill:#E92629;" points="30.096,32.455 20.262,19.062 33.908,28.544 		"/>
		<path style="fill:#E3E3E3;" d="M33.303,30.494c0.008,0.713-0.562,1.3-1.271,1.307c-0.711,0.011-1.299-0.558-1.305-1.27
			c-0.01-0.711,0.557-1.296,1.273-1.308C32.709,29.219,33.293,29.785,33.303,30.494z"/>
		<path style="fill:#FFFFFF;" d="M33.908,20.507l-3.584-5.83v5.83h-1.078v-7.688h0.907l3.501,5.672v-5.672h1.076v7.688H33.908z"/>
	</g>
</g>
</svg>
