<?xml version="1.0" encoding="iso-8859-1"?>
<!-- Generator: Adobe Illustrator 14.0.0, SVG Export Plug-In . SVG Version: 6.00 Build 43363)  -->
<!DOCTYPE svg PUBLIC "-//W3C//DTD SVG 1.1//EN" "http://www.w3.org/Graphics/SVG/1.1/DTD/svg11.dtd">
<svg version="1.1" id="icon-m-toolbar-favorite-unmark-layer"
	 xmlns="http://www.w3.org/2000/svg" xmlns:xlink="http://www.w3.org/1999/xlink" x="0px" y="0px" width="64px" height="64px"
	 viewBox="0 0 64 64" style="enable-background:new 0 0 64 64;" xml:space="preserve">
<g id="icon-m-toolbar-favorite-unmark">
	<rect style="fill:none;" width="64" height="64"/>
	<path style="fill:#FFFFFF;" d="M44.088,52L44.088,52c-0.371,0-0.762-0.133-1.155-0.396l-10.897-7.262
		c-0.048-0.031-0.179-0.084-0.375-0.084c-0.199,0-0.331,0.053-0.378,0.084l-10.898,7.262c-0.907,0.603-1.863,0.473-2.351-0.206
		c-0.225-0.313-0.432-0.863-0.148-1.707l4.227-12.584c0.052-0.156-0.05-0.484-0.183-0.585l-10.298-7.654
		c-1.023-0.759-0.887-1.585-0.781-1.905c0.105-0.321,0.49-1.064,1.764-1.064h12.872c0.169,0,0.455-0.205,0.509-0.365l4.097-12.199
		C30.495,12.131,31.322,12,31.661,12c0.336,0,1.163,0.131,1.567,1.334l4.093,12.197c0.055,0.162,0.34,0.367,0.51,0.367h12.875
		c1.272,0,1.658,0.743,1.762,1.064c0.107,0.32,0.244,1.146-0.779,1.905l-10.299,7.654c-0.131,0.101-0.236,0.429-0.182,0.585
		l4.225,12.584c0.283,0.846,0.074,1.396-0.15,1.709C45.006,51.781,44.572,52,44.088,52L44.088,52z M31.661,41.803
		c0.638,0,1.255,0.176,1.737,0.496l8.963,5.973L38.877,37.89c-0.391-1.169,0.059-2.604,1.049-3.339l8.334-6.195l-10.43-0.001
		c-1.228,0-2.447-0.877-2.838-2.042l-3.332-9.928l-3.336,9.928c-0.39,1.165-1.61,2.042-2.838,2.042H15.06l8.333,6.196
		c0.989,0.736,1.441,2.17,1.049,3.339l-3.486,10.38l8.967-5.971C30.403,41.979,31.019,41.803,31.661,41.803L31.661,41.803z"/>
</g>
</svg>
