<?xml version="1.0" encoding="iso-8859-1"?>
<!-- Generator: Adobe Illustrator 14.0.0, SVG Export Plug-In . SVG Version: 6.00 Build 43363)  -->
<!DOCTYPE svg PUBLIC "-//W3C//DTD SVG 1.1//EN" "http://www.w3.org/Graphics/SVG/1.1/DTD/svg11.dtd">
<svg version="1.1" id="icon-m-email-directory-outgoing-layer"
	 xmlns="http://www.w3.org/2000/svg" xmlns:xlink="http://www.w3.org/1999/xlink" x="0px" y="0px" width="64px" height="64px"
	 viewBox="0 0 64 64" style="enable-background:new 0 0 64 64;" xml:space="preserve">
<g id="icon-m-email-directory-outgoing">
	<rect style="fill:none;" width="64" height="64"/>
	<path style="fill:#333333;" d="M55.741,16.6L0.02,16.582L0.016,52.645c0,4.543,3.716,8.26,8.258,8.26h47.467
		c4.543,0,8.259-3.717,8.259-8.26V24.857C64,20.314,60.284,16.6,55.741,16.6z M43.515,38.584h-6.97v11.954
		c0,1.004-0.821,1.825-1.825,1.825h-5.475c-1.004,0-1.825-0.821-1.825-1.825V38.584h-6.998c-1.004,0-1.256-0.592-0.56-1.315
		l12.12-12.146l12.092,12.146C44.771,37.992,44.519,38.584,43.515,38.584z"/>
	<path style="fill:#333333;" d="M35.969,9.289c0-3.406-2.787-6.191-6.192-6.191H6.214c-3.408,0-6.193,2.785-6.193,6.191L0.02,12.434
		h35.949V9.289z"/>
</g>
</svg>
