<?xml version="1.0" encoding="iso-8859-1"?>
<!-- Generator: Adobe Illustrator 14.0.0, SVG Export Plug-In . SVG Version: 6.00 Build 43363)  -->
<!DOCTYPE svg PUBLIC "-//W3C//DTD SVG 1.1//EN" "http://www.w3.org/Graphics/SVG/1.1/DTD/svg11.dtd">
<svg version="1.1" id="icon-m-energy-management-battery38-layer"
	 xmlns="http://www.w3.org/2000/svg" xmlns:xlink="http://www.w3.org/1999/xlink" x="0px" y="0px" width="64px" height="64px"
	 viewBox="0 0 64 64" style="enable-background:new 0 0 64 64;" xml:space="preserve">
<g id="icon-m-energy-management-battery38">
	<rect style="fill:none;" width="64" height="64"/>
	<path style="fill:#333333;" d="M60.621,25.452h-2.816V15.379c0-1.033-0.848-1.879-1.879-1.879H3.378
		c-1.033,0-1.878,0.846-1.878,1.879v33.242c0,1.032,0.845,1.879,1.878,1.879h52.548c1.031,0,1.879-0.847,1.879-1.879V38.547h2.816
		c1.034,0,1.881-0.846,1.881-1.879v-9.336C62.502,26.299,61.655,25.452,60.621,25.452z M52.109,44.219
		c0,1.033-0.846,1.879-1.88,1.879H7.062c-1.034,0-1.879-0.846-1.879-1.879V19.786c0-1.033,0.845-1.879,1.879-1.879h43.168
		c1.034,0,1.88,0.846,1.88,1.879V44.219z"/>
	<rect x="8.563" y="21.243" style="fill:#333333;" width="16.126" height="21.516"/>
</g>
</svg>
