<?xml version="1.0" encoding="iso-8859-1"?>
<!-- Generator: Adobe Illustrator 14.0.0, SVG Export Plug-In . SVG Version: 6.00 Build 43363)  -->
<!DOCTYPE svg PUBLIC "-//W3C//DTD SVG 1.1//EN" "http://www.w3.org/Graphics/SVG/1.1/DTD/svg11.dtd">
<svg version="1.1" id="icon-m-toolbar-send-file-layer"
	 xmlns="http://www.w3.org/2000/svg" xmlns:xlink="http://www.w3.org/1999/xlink" x="0px" y="0px" width="64px" height="64px"
	 viewBox="0 0 64 64" style="enable-background:new 0 0 64 64;" xml:space="preserve">
<g id="icon-m-toolbar-send-file">
	<rect style="fill:none;" width="64" height="64"/>
	<polygon style="fill:#FFFFFF;" points="41.875,13.471 41.875,26.281 54.293,26.281 54.293,25.887 	"/>
	<path style="fill:#FFFFFF;" d="M41.572,29.305c-1.498,0-2.721-1.221-2.721-2.721V13.262H22.858c-0.665,0-1.21,0.543-1.21,1.207
		v35.063c0,0.664,0.545,1.208,1.21,1.208h30.226c0.664,0,1.209-0.544,1.209-1.208V29.305H41.572z M36.395,29.904H25.427v-3.228
		h10.968V29.904z M36.395,22.963H25.427v-3.224h10.968V22.963z"/>
	<path style="fill:#FFFFFF;" d="M9.707,29.57c0,0.953,0.94,1.734,2.088,1.734h6.922v-3.469h-6.922
		C10.646,27.836,9.707,28.617,9.707,29.57z"/>
	<path style="fill:#FFFFFF;" d="M9.707,36.528c0,0.954,0.94,1.735,2.088,1.735h6.922v-3.469h-6.922
		C10.646,34.795,9.707,35.575,9.707,36.528z"/>
	<path style="fill:#FFFFFF;" d="M9.707,43.488c0,0.954,0.94,1.734,2.088,1.734h6.922v-3.469h-6.922
		C10.646,41.754,9.707,42.535,9.707,43.488z"/>
</g>
</svg>
