<?xml version="1.0" encoding="iso-8859-1"?>
<!-- Generator: Adobe Illustrator 13.0.2, SVG Export Plug-In . SVG Version: 6.00 Build 14948)  -->
<!DOCTYPE svg PUBLIC "-//W3C//DTD SVG 1.1//EN" "http://www.w3.org/Graphics/SVG/1.1/DTD/svg11.dtd">
<svg version="1.1" xmlns="http://www.w3.org/2000/svg" xmlns:xlink="http://www.w3.org/1999/xlink" x="0px" y="0px"
	 width="18.798px" height="18px" viewBox="0 0 18.798 18" style="enable-background:new 0 0 18.798 18;" xml:space="preserve">
	<g id="icon-s-gallery">
		<path style="fill:#333333;" d="M13.177,10.617c0.193,0,0.369-0.076,0.504-0.193c0.18,0.256,0.436,0.416,0.719,0.416
			c0.284,0,0.539-0.16,0.721-0.416c0.134,0.117,0.309,0.193,0.502,0.193c0.424,0,0.766-0.346,0.766-0.77
			c0-0.426-0.342-0.771-0.766-0.771c-0.098,0-0.19,0.019-0.275,0.055c-0.124-0.546-0.5-0.942-0.947-0.942
			c-0.445,0-0.823,0.396-0.946,0.942c-0.085-0.036-0.179-0.055-0.276-0.055c-0.422,0-0.766,0.345-0.766,0.771
			C12.411,10.271,12.755,10.617,13.177,10.617"/>
		<path style="fill:#333333;" d="M12.627,13.58c-1.141-2.638-3.379-5.896-5.516,2.116h9.216
			C16.327,15.696,14.527,9.375,12.627,13.58"/>
		<path style="fill:#333333;" d="M4.549,18h14.249V6.049H4.549V18z M5.806,7.33H17.54v9.39H5.806V7.33z"/>
		<polygon style="fill:#333333;" points="12.892,0 0,6.069 3.397,13.283 3.397,10.334 1.683,6.693 12.3,1.694 13.795,4.869 
			15.185,4.869 		"/>
	</g>
</svg>
