<?xml version="1.0" encoding="iso-8859-1"?>
<!-- Generator: Adobe Illustrator 13.0.2, SVG Export Plug-In . SVG Version: 6.00 Build 14948)  -->
<!DOCTYPE svg PUBLIC "-//W3C//DTD SVG 1.1//EN" "http://www.w3.org/Graphics/SVG/1.1/DTD/svg11.dtd">
<svg version="1.1" xmlns="http://www.w3.org/2000/svg" xmlns:xlink="http://www.w3.org/1999/xlink" x="0px" y="0px" width="281px"
	 height="281px" viewBox="0 0 281 281" style="enable-background:new 0 0 281 281;" xml:space="preserve">
	<g id="icon-l-skype">
		<linearGradient id="SVGID_1_" gradientUnits="userSpaceOnUse" x1="138.7349" y1="82.269" x2="138.7349" y2="194.5188">
			<stop  offset="0" style="stop-color:#87D5F5"/>
			<stop  offset="1" style="stop-color:#32AFE5"/>
		</linearGradient>
		<path style="fill-rule:evenodd;clip-rule:evenodd;fill:url(#SVGID_1_);" d="M52.303,176.019c0,0-33.633,2.301-36.792-39.657
			c0,0-6.617-7.77-5.174-20.697c0,0,3.45-17.823,25.581-11.785c0,0,15.523-5.172,24.719-1.437c0,0-3.731-19.263,15.235-19.263
			c0,0,14.372-3.154,17.822,16.672c0,0,23.856-8.91,33.054,5.46c0,0,6.899-14.656,28.169-14.656c0,0,17.817-1.438,26.445,15.81
			c0,0,11.499-4.889,18.971,2.589c0,0,22.993-14.379,42.828,0c0,0,14.37-11.497,22.416,2.007c0,0,6.9,13.796-6.607,19.546
			c0,0,4.311,35.358-26.731,43.405c0,0-14.37,5.748-31.046-4.314c0,0-7.188,8.336-23.854,7.474c0,0-4.026,14.661-18.685,14.37
			c0,0-9.196,2.592-16.386-9.486c0,0-6.901,14.665-20.118,14.379c0,0-13.796,2.583-20.407-14.379c0,0-15.522,1.733-26.157-12.357
			C75.585,169.697,66.101,177.461,52.303,176.019L52.303,176.019z"/>
		<path style="fill-rule:evenodd;clip-rule:evenodd;fill:#FFFFFF;" d="M110.406,122c-0.431-1.363-0.652-2.57-0.652-3.618
			c0-1.645,0.692-3.041,2.068-4.182c1.377-1.144,2.839-1.723,4.396-1.723c1.639,0,3.052,0.421,4.249,1.256
			c1.19,0.839,2.065,2.028,2.623,3.58l11.009,31.944l8.453-31.944c0.623-1.552,1.513-2.741,2.674-3.58
			c1.159-0.835,2.56-1.256,4.2-1.256c1.553,0,3.014,0.563,4.394,1.702c1.378,1.127,2.063,2.528,2.063,4.202
			c0,1.327-0.215,2.532-0.646,3.618l-19.473,51.854c0,0-2.169,7.701-12.572,8.199c0,0-8.697,1.004-8.697-6.205
			c0,0-0.999-7.195,8.864-5.655c0,0,4.871-1.168,3.208-5.208L110.406,122L110.406,122z"/>
		<path style="fill-rule:evenodd;clip-rule:evenodd;fill:#FFFFFF;" d="M70.829,123.06c0,1.452-0.616,2.743-1.845,3.886
			c-1.226,1.14-2.751,1.707-4.568,1.707c-0.82,0-2.379-0.412-4.676-1.24c-2.301-0.82-4.068-1.438-5.321-1.832
			c-1.245-0.398-2.634-0.596-4.171-0.596c-1.494,0-2.758,0.29-3.791,0.873c-1.033,0.58-1.552,1.455-1.552,2.625
			c0,1.249,1.567,2.423,4.705,3.521c3.141,1.091,6.451,2.219,9.94,3.369c3.492,1.154,6.487,2.713,8.978,4.674
			c2.492,1.967,3.744,4.594,3.744,7.896c0,2.814-0.936,5.364-2.806,7.654c-1.87,2.293-4.516,4.083-7.932,5.383
			c-3.42,1.291-7.322,1.939-11.699,1.939c-3.098,0-6.356-0.43-9.781-1.292c-3.416-0.85-6.308-2.042-8.676-3.567
			c-2.368-1.526-3.552-3.192-3.552-4.989c0-0.711,0.275-1.516,0.829-2.397c0.551-0.888,1.365-1.653,2.434-2.313
			c1.068-0.66,2.24-0.984,3.527-0.984c1.424,0,2.667,0.181,3.74,0.534c1.068,0.351,2.421,0.9,4.06,1.641
			c1.641,0.744,3.09,1.291,4.356,1.646c1.266,0.354,2.663,0.534,4.196,0.534c2.316,0,3.925-0.296,4.837-0.877
			c0.905-0.58,1.357-1.508,1.357-2.791c0-1.218-1.544-2.357-4.644-3.412c-3.101-1.045-6.438-2.174-10.023-3.388
			c-3.582-1.203-6.587-2.798-9.03-4.769c-2.442-1.979-3.66-4.598-3.66-7.862c0-2.903,0.907-5.467,2.724-7.7
			c1.815-2.226,4.341-3.957,7.58-5.2c3.246-1.232,6.931-1.851,11.06-1.851c2.884,0,5.829,0.341,8.841,1.026
			c3.012,0.682,5.565,1.727,7.667,3.138C69.775,119.455,70.829,121.125,70.829,123.06L70.829,123.06z"/>
		<path style="fill-rule:evenodd;clip-rule:evenodd;fill:#FFFFFF;" d="M72.472,156.512v-54.347c0-2.107,0.637-3.813,1.905-5.122
			c1.271-1.311,2.911-1.962,4.924-1.962c1.333,0,2.518,0.294,3.557,0.896c1.035,0.594,1.851,1.439,2.436,2.533
			c0.591,1.096,0.884,2.313,0.884,3.655v29.624l13.667-15.557c2.076-1.794,4.154-2.69,6.23-2.69c1.643,0,3.021,0.583,4.138,1.752
			c1.115,1.159,1.674,2.474,1.674,3.921c0,1.876-0.898,3.567-2.698,5.078l-8.386,10.008l13.638,19.582
			c1.146,1.192,1.723,2.587,1.723,4.177c0,1.675-0.627,3.106-1.885,4.287c-1.258,1.187-2.78,1.777-4.581,1.777
			c-1.176,0-2.261-0.31-3.25-0.924c-0.995-0.612-2.108-1.594-3.349-2.961L90.794,142.69l-4.541,3.439l-0.076,10.382
			c0,1.359-0.292,2.594-0.884,3.691c-0.584,1.092-1.409,1.931-2.463,2.521c-1.052,0.581-2.229,0.869-3.529,0.869
			c-2.047,0-3.696-0.646-4.949-1.941C73.099,160.353,72.472,158.643,72.472,156.512L72.472,156.512z"/>
		<path style="fill-rule:evenodd;clip-rule:evenodd;fill:#FFFFFF;" d="M153.544,174.717v-54.086c0-2.189,0.625-3.936,1.859-5.242
			c1.232-1.304,2.86-1.949,4.876-1.949c3.601,0,5.857,1.796,6.769,5.393c1.258-1.939,3.039-3.407,5.361-4.417
			c2.32-1.01,4.802-1.517,7.458-1.517c4.639,0,8.6,1.223,11.879,3.662c3.278,2.441,5.748,5.637,7.412,9.587
			c1.668,3.95,2.494,8.115,2.494,12.509c0,4.152-0.913,8.125-2.742,11.931c-1.837,3.796-4.466,6.876-7.898,9.21
			c-3.434,2.337-7.299,3.511-11.603,3.511c-2.133,0-4.286-0.389-6.453-1.167c-2.164-0.783-4.133-1.91-5.908-3.374v15.939
			c0,2.2-0.631,3.958-1.896,5.294c-1.268,1.329-2.89,2-4.873,2s-3.602-0.673-4.854-2.021
			C154.18,178.637,153.544,176.881,153.544,174.717L153.544,174.717z M167.048,137.666c0,3.529,0.919,6.674,2.751,9.443
			c1.828,2.772,4.438,4.161,7.822,4.161c3.301,0,5.877-1.354,7.738-4.047c1.857-2.701,2.787-5.738,2.787-9.121
			c0-3.353-0.93-6.402-2.787-9.141c-1.861-2.743-4.438-4.112-7.738-4.112c-2.255,0-4.189,0.61-5.812,1.836
			c-1.615,1.227-2.812,2.803-3.597,4.748C167.439,133.371,167.048,135.449,167.048,137.666L167.048,137.666z"/>
		<path style="fill-rule:evenodd;clip-rule:evenodd;fill:#FFFFFF;" d="M243.146,142.461h-28.755c0.429,3.099,1.825,5.434,4.195,7
			c2.36,1.565,5.207,2.348,8.536,2.348c2.044,0,3.714-0.279,5.011-0.828c1.299-0.55,3.092-1.418,5.38-2.613
			c2.29-1.182,3.921-1.775,4.895-1.775c0.917,0,1.813,0.276,2.68,0.829c0.875,0.56,1.565,1.26,2.085,2.105
			c0.517,0.85,0.777,1.757,0.777,2.724c0,1.817-1.129,3.584-3.382,5.307c-2.261,1.728-5.132,3.115-8.615,4.171
			c-3.478,1.052-6.832,1.58-10.067,1.58c-3.727,0-7.145-0.616-10.256-1.863c-3.113-1.241-5.801-3.015-8.058-5.307
			c-2.257-2.297-3.988-4.994-5.195-8.075c-1.203-3.086-1.807-6.395-1.807-9.937c0-3.247,0.593-6.4,1.786-9.458
			c1.188-3.055,2.857-5.76,5.01-8.113c2.151-2.359,4.74-4.222,7.76-5.593c3.021-1.378,6.244-2.063,9.662-2.063
			c3.54,0,6.819,0.707,9.842,2.109c3.022,1.405,5.593,3.265,7.713,5.574c2.123,2.318,3.768,4.869,4.941,7.673
			c1.18,2.792,1.764,5.583,1.764,8.365C249.047,140.516,247.078,142.461,243.146,142.461L243.146,142.461z M214.07,133.745h21.476
			c-0.217-1.868-0.791-3.573-1.716-5.12c-0.932-1.543-2.167-2.742-3.709-3.584c-1.543-0.85-3.32-1.271-5.334-1.271
			c-1.954,0-3.697,0.448-5.244,1.336c-1.543,0.89-2.775,2.089-3.707,3.607C214.906,130.228,214.314,131.906,214.07,133.745
			L214.07,133.745z"/>
		<path style="fill:#FFFFFF;" d="M251.848,113.971h2.033v-1.194h-5.479v1.194h2.037v5.539h1.408V113.971L251.848,113.971z
			 M261.178,112.776h-2.038l-1.197,5.31h-0.017l-1.22-5.31h-2.058v6.733h1.314v-5.629h0.018l1.232,5.629h1.377l1.254-5.629h0.021
			v5.629h1.313V112.776L261.178,112.776z"/>
		<rect x="0.062" y="0.499" style="fill:none;" width="280" height="280"/>
		<rect id="_x3C_Slice_x3E__8_" style="fill:none;" width="281" height="281"/>
	</g>
</svg>
