<?xml version="1.0" encoding="iso-8859-1"?>
<!-- Generator: Adobe Illustrator 14.0.0, SVG Export Plug-In . SVG Version: 6.00 Build 43363)  -->
<!DOCTYPE svg PUBLIC "-//W3C//DTD SVG 1.1//EN" "http://www.w3.org/Graphics/SVG/1.1/DTD/svg11.dtd">
<svg version="1.1" id="icon-m-image-edit-redo-layer"
	 xmlns="http://www.w3.org/2000/svg" xmlns:xlink="http://www.w3.org/1999/xlink" x="0px" y="0px" width="64px" height="64px"
	 viewBox="0 0 64 64" style="enable-background:new 0 0 64 64;" xml:space="preserve">
<g id="icon-m-image-edit-redo">
	<rect style="fill:none;" width="64" height="64"/>
	<path style="fill:#333333;" d="M34.541,12.033V1.576c0-0.553,0.369-0.74,0.822-0.418L57.16,16.723c0.453,0.324,0.453,0.852,0,1.174
		L35.363,33.463c-0.453,0.322-0.822,0.135-0.822-0.418V22.568c-11.17,2.428-19.365,10.297-19.365,19.664
		c0,11.303,11.916,20.465,26.617,20.465c0.076,0,0.152-0.008,0.229-0.01C40.465,62.875,38.883,63,37.258,63
		C20.271,63,6.5,52.412,6.5,39.352C6.5,26.994,18.828,13.412,34.541,12.033z"/>
</g>
</svg>
