<?xml version="1.0" encoding="iso-8859-1"?>
<!-- Generator: Adobe Illustrator 13.0.2, SVG Export Plug-In . SVG Version: 6.00 Build 14948)  -->
<!DOCTYPE svg PUBLIC "-//W3C//DTD SVG 1.1//EN" "http://www.w3.org/Graphics/SVG/1.1/DTD/svg11.dtd">
<svg version="1.1" xmlns="http://www.w3.org/2000/svg" xmlns:xlink="http://www.w3.org/1999/xlink" x="0px" y="0px"
	 width="55.182px" height="58.838px" viewBox="0 0 55.182 58.838" style="enable-background:new 0 0 55.182 58.838;"
	 xml:space="preserve">
	<g id="icon-m-internet-connection-saved">
		<path style="fill:#343434;" d="M53.175,0H2.006C0.903,0,0,0.674,0,1.494v0.498v30.106v20.881v3.865v0.002
			c0,1.094,0.903,1.991,2.006,1.991h51.169c1.103,0,2.007-0.674,2.007-1.493v-0.498V26.74V5.857V1.994V1.992
			C55.182,0.896,54.277,0,53.175,0"/>
		<path style="fill:#FFFFFF;" d="M55.148,13.57c-0.09-0.271-0.357-0.457-0.652-0.457c-16.99,0.328-29.544,16.908-32.105,20.498
			l-8.354-8.381c-0.255-0.25-0.681-0.266-0.95-0.016l-5.049,4.544c-0.13,0.119-0.206,0.289-0.212,0.463
			c-0.004,0.181,0.065,0.336,0.196,0.474l15.132,14.832c0.128,0.125,0.305,0.196,0.484,0.196h0.058
			c0.198-0.022,0.382-0.129,0.495-0.276c7.329-10.125,15.007-17.91,20.854-23.176c5.854-5.256,9.845-7.955,9.849-7.967
			C55.139,14.139,55.24,13.84,55.148,13.57"/>
	</g>
</svg>
