<?xml version="1.0" encoding="iso-8859-1"?>
<!-- Generator: Adobe Illustrator 14.0.0, SVG Export Plug-In . SVG Version: 6.00 Build 43363)  -->
<!DOCTYPE svg PUBLIC "-//W3C//DTD SVG 1.1//EN" "http://www.w3.org/Graphics/SVG/1.1/DTD/svg11.dtd">
<svg version="1.1" id="icon-m-status-menu-carkit-layer"
	 xmlns="http://www.w3.org/2000/svg" xmlns:xlink="http://www.w3.org/1999/xlink" x="0px" y="0px" width="64px" height="64px"
	 viewBox="0 0 64 64" style="enable-background:new 0 0 64 64;" xml:space="preserve">
<g id="icon-m-status-menu-carkit">
	<rect style="fill:none;" width="64" height="64"/>
	<polygon style="fill:#333333;" points="26,32 22,38 44,38 40,32 	"/>
	<path style="fill:#333333;" d="M61,23h-8c-0.711-9.683-9.879-17-21-17c-11.121,0-20.29,7.317-21,17H3c-2,0-2,2-2,2v31c0,0,0,2,2,2
		h58c0,0,2,0,2-2V25C63,25,63,23,61,23z M32,11c8.327,0,15.274,5.092,16,12H16C16.724,16.092,23.671,11,32,11z M17.028,54.2
		c-2.517,0-4.556-2.04-4.556-4.556s2.039-4.556,4.556-4.556c2.52,0,4.555,2.04,4.555,4.556S19.548,54.2,17.028,54.2z M46.836,54.146
		c-2.52,0-4.556-2.016-4.556-4.501c0-2.486,2.036-4.502,4.556-4.502s4.557,2.016,4.557,4.502
		C51.393,52.13,49.355,54.146,46.836,54.146z M57,48c0,0,0,2-2,2h-2c-0.043-3.561-2.383-7-6-7c-3.616,0-6.959,3.439-7,7H24
		c-0.043-3.561-3.385-7-7-7c-3.613,0-5.957,3.439-6,7H9c-2,0-2-2-2-2v-8c0-2,2-2,2-2h7l8-10h19l7,10h5c2,0,2,2,2,2V48z"/>
</g>
</svg>
