<?xml version="1.0" encoding="iso-8859-1"?>
<!-- Generator: Adobe Illustrator 14.0.0, SVG Export Plug-In . SVG Version: 6.00 Build 43363)  -->
<!DOCTYPE svg PUBLIC "-//W3C//DTD SVG 1.1//EN" "http://www.w3.org/Graphics/SVG/1.1/DTD/svg11.dtd">
<svg version="1.1" id="icon-l-settings-layer" xmlns="http://www.w3.org/2000/svg" xmlns:xlink="http://www.w3.org/1999/xlink"
	 x="0px" y="0px" width="64px" height="64px" viewBox="0 0 64 64" style="enable-background:new 0 0 64 64;" xml:space="preserve">
<g id="icon-l-settings">
	<rect style="fill:none;" width="64" height="64"/>
	<g id="icon-l-settings_1_">
		<path style="opacity:0.2;fill:#010101;" d="M61.785,46.99L47.416,32.625c-2.646-2.609-5.318-3.975-6.36-4.445
			c-1.457-1.465-2.737-2.746-3.702-3.709c0.875-2.162,1.453-4.523,1.456-6.938c0.017-3.236-1.11-6.605-3.87-9.342
			C30.586,3.848,24.82,0.559,18.613,0.543c-0.571,0.002-1.148,0.025-1.729,0.092c-0.332,0.037-0.957,0.068-1.645,0.248
			c-0.349,0.104-0.735,0.227-1.179,0.553c-0.434,0.283-0.957,1.012-0.94,1.828c0.038,1.035,0.544,1.617,1.056,2.168l10.182,10.172
			c-0.79,2.193-2.122,4.203-3.397,5.469c-1.278,1.285-3.364,2.682-5.544,3.477L5.177,14.326c-0.499-0.475-1.074-0.979-2.092-1.008
			C2.265,13.297,1.55,13.82,1.26,14.242c-0.83,1.258-0.711,2.25-0.83,2.846c-0.063,0.559-0.089,1.115-0.089,1.672
			c0.017,6.229,3.384,11.949,7.722,16.311c2.635,2.639,5.963,3.645,9.143,3.633c2.529-0.002,5.003-0.598,7.232-1.449
			c0.967,0.969,2.266,2.266,3.752,3.748c0.431,0.967,1.802,3.746,4.451,6.395l14.373,14.369c1.117,1.125,2.607,1.695,4.08,1.691
			h0.014c1.477,0,2.957-0.576,4.082-1.697l6.872-6.861c0.093-0.129,1.55-1.418,1.597-3.811C63.676,49.77,63.08,48.262,61.785,46.99z
			"/>
		<path style="opacity:0.5;fill:#010101;" d="M60.549,48.227c-0.008-0.006-14.362-14.359-14.37-14.361
			c-2.874-2.875-6.071-4.203-6.128-4.221c-2.037-2.039-3.752-3.754-4.775-4.773c2.283-4.914,2.98-10.898-1.568-15.441
			c-4.502-4.504-10.548-7.68-16.635-7.057c-0.98,0.102-3.233,0.236-1.651,1.828l10.934,10.926c-0.817,2.875-2.471,5.498-4.155,7.184
			c-1.7,1.695-4.396,3.428-7.264,4.234L3.943,15.572c-1.479-1.492-1.664,0.711-1.773,1.697C1.55,23.352,4.804,29.328,9.303,33.834
			c4.377,4.375,10.701,3.484,15.555,1.367c1.012,1.006,2.745,2.738,4.809,4.809v0.004c0,0,1.264,3.207,4.211,6.146
			c0.003,0.006,14.368,14.365,14.372,14.367c1.569,1.576,4.129,1.576,5.705-0.006c0.006,0,6.869-6.865,6.869-6.865
			S63.45,51.135,60.549,48.227z"/>
		<linearGradient id="SVGID_1_" gradientUnits="userSpaceOnUse" x1="30.6079" y1="-7.0425" x2="30.6079" y2="48.9594">
			<stop  offset="0" style="stop-color:#FFFFFF"/>
			<stop  offset="1" style="stop-color:#B3B2C9"/>
		</linearGradient>
		<path style="fill:url(#SVGID_1_);" d="M57.971,45.818c-0.045-0.047-18.156-18.162-22.695-22.701
			c2.283-4.908,2.98-10.896-1.568-15.436c-4.502-4.502-10.548-7.68-16.635-7.057c-0.98,0.102-3.233,0.232-1.651,1.822l10.934,10.928
			c-0.817,2.879-2.471,5.5-4.155,7.184c-1.7,1.695-4.396,3.43-7.264,4.236L3.943,13.82c-1.479-1.492-1.664,0.717-1.773,1.697
			C1.55,21.605,4.804,27.578,9.303,32.086c4.377,4.371,10.701,3.482,15.555,1.363c4.454,4.451,22.703,22.703,22.747,22.742
			c1.326,1.322,3.479,1.322,4.806-0.002c0.01-0.002,5.797-5.791,5.797-5.791S60.418,48.266,57.971,45.818z"/>
		<path style="opacity:0.2;" d="M26.318,13.34l1.828-0.5L17.543,2.24l-2.584-0.434c0.079,0.184,0.209,0.391,0.461,0.641
			L26.318,13.34z M57.466,48.227c0,0.24-0.097,0.516-0.223,0.715l-6.003,6.076c-0.345,0.344-0.793,0.51-1.244,0.51
			s-0.885-0.162-1.223-0.5L25.23,31.484l-1.032,0.449c-2.185,0.953-4.666,1.619-6.993,1.613c-2.522-0.008-4.802-0.711-6.733-2.635
			c-3.935-3.934-6.747-8.969-6.727-13.9l0.041-1.02l-0.708-2.674c-0.697,0.016-0.822,1.455-0.908,2.199
			C1.55,21.605,4.804,27.578,9.303,32.086c4.377,4.371,10.701,3.482,15.555,1.363c4.454,4.451,22.747,22.742,22.747,22.742
			c1.326,1.322,3.479,1.322,4.806-0.002c0.01-0.002,5.797-5.791,5.797-5.791s0.908-0.891,0.908-2.172H57.466z"/>
		<path style="opacity:0.4;fill:#FFFFFF;" d="M26.318,13.34c-0.818,2.883-2.435,5.535-4.119,7.219
			c-1.7,1.695-4.396,3.43-7.264,4.236L3.943,13.82c-0.359-0.371-0.639-0.504-0.865-0.502l0.708,2.674l10.664,10.66l0.934-0.27
			c3.195-0.904,6.064-2.748,7.977-4.65c1.905-1.918,3.668-4.717,4.587-7.906l0.198-0.986L26.318,13.34z M57.971,45.818
			c0,0-22.688-22.695-22.695-22.701c1.121-2.412,1.856-5.084,1.777-7.719c-0.082-2.727-1.032-5.41-3.346-7.717
			c-4.502-4.502-10.548-7.68-16.635-7.057c-0.824,0.082-2.519,0.209-2.112,1.182l2.584,0.434c0.349-0.033,0.704-0.043,1.066-0.043
			c4.943-0.016,10.021,2.727,13.924,6.654c2.099,2.111,2.851,4.418,2.872,6.918c0.002,0.006,0.002,0.008,0.002,0.012
			c0,2.191-0.643,4.508-1.629,6.645l-0.494,1.047l23.514,23.514c0.619,0.637,0.652,0.975,0.667,1.24h1.649
			C59.112,47.516,58.836,46.691,57.971,45.818z"/>
		
			<linearGradient id="SVGID_2_" gradientUnits="userSpaceOnUse" x1="54.6377" y1="35.9316" x2="36.5758" y2="53.9943" gradientTransform="matrix(1 0 0 1 -0.3291 0.0928)">
			<stop  offset="0" style="stop-color:#517EBF"/>
			<stop  offset="1" style="stop-color:#283176"/>
		</linearGradient>
		<path style="fill:url(#SVGID_2_);" d="M46.179,32.117c-2.901-2.906-6.138-4.23-6.138-4.23L29.667,38.262
			c0,0,1.264,3.207,4.211,6.145c0.003,0.012,14.368,14.375,14.372,14.377c1.569,1.576,4.129,1.576,5.705-0.006
			c0.006,0,6.869-6.869,6.869-6.869s2.626-2.523-0.275-5.428C60.541,46.473,46.187,32.121,46.179,32.117z"/>
	</g>
</g>
</svg>
