<?xml version="1.0" encoding="iso-8859-1"?>
<!-- Generator: Adobe Illustrator 14.0.0, SVG Export Plug-In . SVG Version: 6.00 Build 43363)  -->
<!DOCTYPE svg PUBLIC "-//W3C//DTD SVG 1.1//EN" "http://www.w3.org/Graphics/SVG/1.1/DTD/svg11.dtd">
<svg version="1.1" id="icon-m-common-skype-layer" xmlns="http://www.w3.org/2000/svg" xmlns:xlink="http://www.w3.org/1999/xlink"
	 x="0px" y="0px" width="64px" height="64px" viewBox="0 0 64 64" style="enable-background:new 0 0 64 64;" xml:space="preserve">
<g id="icon-m-common-skype">
	<rect style="fill:none;" width="64" height="64"/>
	<path style="fill:#333333;" d="M61.736,38.794c0.455-2.082,0.697-4.241,0.697-6.46c0-16.622-13.477-30.098-30.098-30.098
		c-1.756,0-3.475,0.154-5.148,0.441C24.5,0.983,21.314,0,17.902,0C8.264,0,0.447,7.813,0.447,17.455
		c0,3.222,0.879,6.238,2.398,8.826c-0.398,1.959-0.607,3.979-0.607,6.053c0,16.623,13.475,30.101,30.098,30.101
		c1.881,0,3.725-0.174,5.51-0.509C40.305,63.247,43.113,64,46.098,64c9.641,0,17.455-7.814,17.455-17.456
		C63.553,43.759,62.898,41.129,61.736,38.794z M47.773,46.719c-1.393,1.971-3.451,3.531-6.117,4.64
		c-2.639,1.097-5.803,1.652-9.404,1.652c-4.322,0-7.947-0.761-10.777-2.259c-2.021-1.092-3.688-2.57-4.955-4.396
		c-1.277-1.848-1.926-3.677-1.926-5.442c0-1.102,0.422-2.06,1.254-2.841c0.824-0.776,1.883-1.168,3.143-1.168
		c1.033,0,1.925,0.312,2.65,0.923c0.693,0.586,1.289,1.455,1.764,2.58c0.535,1.219,1.117,2.251,1.73,3.063
		c0.59,0.781,1.441,1.439,2.523,1.951c1.092,0.519,2.561,0.78,4.373,0.78c2.488,0,4.527-0.531,6.063-1.58
		c1.5-1.024,2.229-2.252,2.229-3.755c0-1.189-0.383-2.124-1.164-2.856c-0.818-0.764-1.898-1.36-3.211-1.771
		c-1.369-0.426-3.227-0.886-5.523-1.368c-3.123-0.669-5.775-1.462-7.887-2.361c-2.158-0.917-3.896-2.19-5.17-3.783
		c-1.293-1.617-1.947-3.642-1.947-6.032c0-2.273,0.688-4.325,2.043-6.089c1.346-1.755,3.311-3.122,5.842-4.058
		c2.498-0.924,5.469-1.393,8.832-1.393c2.688,0,5.051,0.313,7.021,0.926c1.984,0.617,3.656,1.453,4.973,2.478
		c1.322,1.034,2.307,2.143,2.926,3.29c0.625,1.163,0.941,2.315,0.941,3.434c0,1.075-0.416,2.051-1.234,2.904
		c-0.824,0.858-1.865,1.29-3.092,1.29c-1.113,0-1.984-0.269-2.592-0.807c-0.564-0.499-1.146-1.274-1.797-2.39
		c-0.75-1.427-1.658-2.552-2.701-3.339c-1.01-0.771-2.701-1.164-5.023-1.164c-2.158,0-3.914,0.433-5.215,1.29
		c-1.256,0.819-1.865,1.764-1.865,2.884c0,0.688,0.193,1.257,0.6,1.748c0.428,0.526,1.031,0.985,1.793,1.364
		c0.791,0.397,1.607,0.714,2.424,0.939c0.836,0.232,2.238,0.576,4.164,1.024c2.436,0.519,4.674,1.104,6.652,1.737
		c2.006,0.642,3.736,1.434,5.15,2.354c1.441,0.938,2.582,2.142,3.395,3.586c0.811,1.439,1.221,3.225,1.221,5.297
		C49.877,42.483,49.17,44.738,47.773,46.719z"/>
</g>
</svg>
