<?xml version="1.0" encoding="iso-8859-1"?>
<!-- Generator: Adobe Illustrator 14.0.0, SVG Export Plug-In . SVG Version: 6.00 Build 43363)  -->
<!DOCTYPE svg PUBLIC "-//W3C//DTD SVG 1.1//EN" "http://www.w3.org/Graphics/SVG/1.1/DTD/svg11.dtd">
<svg version="1.1" id="icon-m-camera-whitebalance-auto-screen-layer"
	 xmlns="http://www.w3.org/2000/svg" xmlns:xlink="http://www.w3.org/1999/xlink" x="0px" y="0px" width="24px" height="24px"
	 viewBox="0 0 24 24" style="enable-background:new 0 0 24 24;" xml:space="preserve">
<g id="icon-m-camera-whitebalance-auto-screen">
	<rect style="fill:none;" width="24" height="24"/>
	<path style="fill:#FFFFFF;" d="M9.307,6.771c1.363,0,2.472,1.108,2.472,2.472s-1.109,2.473-2.472,2.473
		c-1.363,0-2.472-1.109-2.472-2.473S7.944,6.771,9.307,6.771 M9.307,5.271c-2.194,0-3.972,1.778-3.972,3.972
		c0,2.194,1.778,3.973,3.972,3.973s3.972-1.778,3.972-3.973C13.279,7.05,11.501,5.271,9.307,5.271L9.307,5.271z"/>
	<path style="fill:#FFFFFF;" d="M10.219,3.439V1.33c0-0.38-0.332-0.711-0.71-0.71L9.242,0.619c-0.392,0.001-0.71,0.319-0.71,0.71
		V3.44c0,0.189,0.074,0.367,0.208,0.502C8.874,4.077,9.052,4.151,9.241,4.15h0.267c0.189,0,0.368-0.074,0.503-0.208
		C10.145,3.808,10.219,3.629,10.219,3.439z"/>
	<path style="fill:#FFFFFF;" d="M3.471,8.531H1.36c-0.379,0-0.71,0.332-0.71,0.71l0,0.268c0,0.392,0.319,0.71,0.71,0.71h2.111
		c0.19,0,0.368-0.074,0.502-0.209c0.134-0.134,0.208-0.312,0.208-0.501V9.241c0-0.188-0.074-0.367-0.208-0.502
		C3.838,8.605,3.66,8.531,3.471,8.531z"/>
	<path style="fill:#FFFFFF;" d="M17.29,8.531h-2.11c-0.379,0-0.711,0.332-0.71,0.71l-0.001,0.268c0.001,0.392,0.319,0.71,0.711,0.71
		h2.11c0.189,0,0.368-0.074,0.503-0.209C17.927,9.876,18.001,9.698,18,9.509V9.241c0-0.188-0.074-0.367-0.208-0.502
		C17.657,8.605,17.479,8.531,17.29,8.531z"/>
	<path style="fill:#FFFFFF;" d="M5.794,4.569L4.302,3.077c-0.268-0.268-0.737-0.268-1.004,0L3.109,3.267
		c-0.277,0.277-0.277,0.728,0,1.004l1.492,1.493c0.134,0.134,0.312,0.207,0.502,0.207s0.369-0.073,0.502-0.207l0.188-0.188
		c0.134-0.134,0.208-0.313,0.208-0.503C6.002,4.882,5.929,4.704,5.794,4.569z"/>
	<path style="fill:#FFFFFF;" d="M15.626,3.267l-0.188-0.189c-0.269-0.268-0.737-0.268-1.005,0L12.94,4.569
		c-0.277,0.277-0.277,0.728,0,1.006l0.189,0.188c0.133,0.134,0.312,0.207,0.502,0.207c0.19,0,0.369-0.073,0.503-0.207l1.492-1.493
		C15.902,3.994,15.902,3.544,15.626,3.267z"/>
	<path style="fill:#FFFFFF;" d="M10.219,17.158v-2.11c0-0.379-0.332-0.711-0.71-0.71l-0.267-0.001
		c-0.392,0.001-0.71,0.319-0.71,0.711v2.11c0,0.19,0.074,0.368,0.208,0.503c0.134,0.134,0.312,0.208,0.501,0.208h0.267
		c0.189,0,0.368-0.074,0.503-0.209C10.145,17.525,10.219,17.348,10.219,17.158z"/>
	<path style="fill:#FFFFFF;" d="M12.94,13.918l1.493,1.492c0.268,0.268,0.737,0.268,1.004,0l0.189-0.188
		c0.276-0.277,0.276-0.729,0-1.005l-1.492-1.492c-0.135-0.134-0.312-0.208-0.503-0.208c-0.189,0-0.369,0.074-0.502,0.208
		l-0.189,0.188c-0.134,0.134-0.208,0.312-0.208,0.502C12.732,13.605,12.806,13.784,12.94,13.918z"/>
	<path style="fill:#FFFFFF;" d="M3.109,15.222l0.189,0.188c0.268,0.268,0.736,0.268,1.004,0l1.492-1.492
		c0.277-0.277,0.277-0.728,0-1.005l-0.189-0.188c-0.133-0.134-0.312-0.208-0.502-0.208s-0.369,0.074-0.502,0.208l-1.492,1.492
		C2.832,14.493,2.832,14.944,3.109,15.222z"/>
	<path style="fill:#FFFFFF;" d="M20.369,13.5h-2.348L15,23.625h1.705l0.672-2.322h3.387l0.672,2.322h1.9L20.369,13.5z
		 M17.702,20.021l1.383-5.004l1.37,5.026L17.702,20.021z"/>
</g>
</svg>
