<?xml version="1.0" encoding="iso-8859-1"?>
<!-- Generator: Adobe Illustrator 13.0.2, SVG Export Plug-In . SVG Version: 6.00 Build 14948)  -->
<!DOCTYPE svg PUBLIC "-//W3C//DTD SVG 1.1//EN" "http://www.w3.org/Graphics/SVG/1.1/DTD/svg11.dtd">
<svg version="1.1" xmlns="http://www.w3.org/2000/svg" xmlns:xlink="http://www.w3.org/1999/xlink" x="0px" y="0px" width="64px"
	 height="64px" viewBox="0 0 64 64" style="enable-background:new 0 0 64 64;" xml:space="preserve">
	<g id="icon-m-common-no-simcard">
		<rect style="fill:none;" width="64" height="64"/>
		
			<rect x="-6.053" y="29.379" transform="matrix(-0.6007 -0.7995 0.7995 -0.6007 25.6393 76.8092)" style="fill:#333333;" width="76.107" height="5.246"/>
		<polygon style="fill:#333333;" points="34.396,20.834 52.334,20.834 52.334,43.168 51.177,43.168 		"/>
		<g>
			<polygon style="fill:#333333;" points="63.361,54.103 59.393,54.103 56.35,50.052 59.952,50.052 59.952,13.95 29.225,13.95 
				26.18,9.897 64,9.897 64,54.103 63.662,54.103 			"/>
			<polygon style="fill:#333333;" points="11.131,18.584 4.051,24.552 4.051,50.052 34.777,50.052 37.82,54.103 0.002,54.103 
				0,22.669 8.695,15.34 			"/>
		</g>
	</g>
</svg>
