<?xml version="1.0" encoding="iso-8859-1"?>
<!-- Generator: Adobe Illustrator 13.0.2, SVG Export Plug-In . SVG Version: 6.00 Build 14948)  -->
<!DOCTYPE svg PUBLIC "-//W3C//DTD SVG 1.1//EN" "http://www.w3.org/Graphics/SVG/1.1/DTD/svg11.dtd">
<svg version="1.1" xmlns="http://www.w3.org/2000/svg" xmlns:xlink="http://www.w3.org/1999/xlink" x="0px" y="0px" width="64px"
	 height="64px" viewBox="0 0 64 64" style="enable-background:new 0 0 64 64;" xml:space="preserve">
	<g id="icon-m-toolbar-mediacontrol-pause">
		<rect style="fill:none;" width="64" height="64"/>
		<g>
			<path style="fill:#FFFFFF;" d="M23.367,62c0,1.1-0.9,2-2,2H4.133c-1.1,0-2-0.9-2-2V2c0-1.1,0.9-2,2-2h17.234c1.1,0,2,0.9,2,2V62z
				"/>
		</g>
		<g>
			<path style="fill:#FFFFFF;" d="M61.867,62c0,1.1-0.9,2-2,2H42.633c-1.1,0-2-0.9-2-2V2c0-1.1,0.9-2,2-2h17.234c1.1,0,2,0.9,2,2V62
				z"/>
		</g>
	</g>
</svg>
