<?xml version="1.0" encoding="iso-8859-1"?>
<!-- Generator: Adobe Illustrator 14.0.0, SVG Export Plug-In . SVG Version: 6.00 Build 43363)  -->
<!DOCTYPE svg PUBLIC "-//W3C//DTD SVG 1.1//EN" "http://www.w3.org/Graphics/SVG/1.1/DTD/svg11.dtd">
<svg version="1.1" id="icon-m-common-volume-off-layer"
	 xmlns="http://www.w3.org/2000/svg" xmlns:xlink="http://www.w3.org/1999/xlink" x="0px" y="0px" width="64px" height="64px"
	 viewBox="0 0 64 64" style="enable-background:new 0 0 64 64;" xml:space="preserve">
<g id="icon-m-common-volume-off">
	<rect style="fill:none;" width="64" height="64"/>
	<path style="fill:#333333;" d="M56.117,52.521l-14.18-14.18l-0.021-24.996c-0.004-0.859-0.572-1.781-1.734-1.838H39.4
		c-0.654,0.041-0.971,0.168-1.479,0.539L25.867,22.271L11.699,8.105l-3.025,3.025L20.77,23.225H7.885v20.836h16.725l13.336,11.285
		c0.516,0.391,0.85,0.51,1.486,0.549h0.785c1.15-0.053,1.729-0.971,1.734-1.836l-0.01-9.662l11.15,11.15L56.117,52.521z
		 M39.096,14.809l0.018,20.709L27.898,24.305L39.096,14.809z M39.127,52.594L25.621,41.162H10.705V26.121h12.959l15.455,15.453
		L39.127,52.594z"/>
</g>
</svg>
