<?xml version="1.0" encoding="iso-8859-1"?>
<!-- Generator: Adobe Illustrator 14.0.0, SVG Export Plug-In . SVG Version: 6.00 Build 43363)  -->
<!DOCTYPE svg PUBLIC "-//W3C//DTD SVG 1.1//EN" "http://www.w3.org/Graphics/SVG/1.1/DTD/svg11.dtd">
<svg version="1.1" id="icon-m-camera-scene-portrait-layer"
	 xmlns="http://www.w3.org/2000/svg" xmlns:xlink="http://www.w3.org/1999/xlink" x="0px" y="0px" width="64px" height="64px"
	 viewBox="0 0 64 64" style="enable-background:new 0 0 64 64;" xml:space="preserve">
<g id="icon-m-camera-scene-portrait">
	<rect style="fill:none;" width="64" height="64"/>
	<path style="fill:#333333;" d="M39.709,20.957l-0.011-3.146c-3.052-0.439-5.278-1.953-6.958-3.41c-0.179,0.36-0.378,0.718-0.6,1.07
		c-0.612,0.979-1.36,1.884-2.223,2.692c-2.839,2.663-6.024,2.972-8.172,2.972c-0.606,0-1.195-0.027-1.774-0.059
		c-0.017,0.237-0.045,0.467-0.045,0.717c0,6.863,6.781,15.729,12.037,15.729c5.255,0,11.737-9.406,11.737-16.269
		c0-0.101-0.015-0.188-0.018-0.286L39.709,20.957z"/>
	<path style="fill:#333333;" d="M31.635,1.521c-7.871,0-14.249,6.379-14.249,14.247c0,0.46,0.027,0.912,0.067,1.36
		c3.587,0.004,6.937,0.952,9.836-1.768c0.589-0.553,1.144-1.209,1.595-1.93c0.506-0.809,0.881-1.698,1.024-2.611
		c0.049-0.314,0.271-3.578,0.021-3.707c1.683,0.875,2.805,2.001,3.952,3.107c1.794,1.725,4.026,3.873,7.604,3.873
		c0.668,0,1.344-0.079,2.041-0.232c0,0.001,0,0.002,0,0.004l0.023-0.014v3.271l2.261,0.006c0.044-0.448,0.07-0.9,0.07-1.36
		C45.882,7.9,39.503,1.521,31.635,1.521z"/>
	<path style="fill:#333333;" d="M46,35L32,57L18,35c-7,3-11,9-11,17v11h50l-0.017-11.092C57,45,53,38,46,35z"/>
</g>
</svg>
