<?xml version="1.0" encoding="iso-8859-1"?>
<!-- Generator: Adobe Illustrator 14.0.0, SVG Export Plug-In . SVG Version: 6.00 Build 43363)  -->
<!DOCTYPE svg PUBLIC "-//W3C//DTD SVG 1.1//EN" "http://www.w3.org/Graphics/SVG/1.1/DTD/svg11.dtd">
<svg version="1.1" id="icon-m-telephony-call-diverted-layer"
	 xmlns="http://www.w3.org/2000/svg" xmlns:xlink="http://www.w3.org/1999/xlink" x="0px" y="0px" width="64px" height="64px"
	 viewBox="0 0 64 64" style="enable-background:new 0 0 64 64;" xml:space="preserve">
<g id="icon-m-telephony-call-diverted">
	<rect style="fill:none;" width="64" height="64"/>
	<path style="fill:#333333;" d="M61.904,7.768L27.771,18.739c-1.047,0.337-1.184,1.151-0.303,1.812l11.481,8.6
		c-0.189,0.125-0.364,0.275-0.507,0.467L27.592,44.1H2.244c-1.101,0-2,0.9-2,2v9.675c0,1.101,0.899,2,2,2h31.022
		c0.661,0.05,1.334-0.222,1.758-0.788l14.361-19.17c0.144-0.191,0.24-0.402,0.305-0.617l11.482,8.6
		c0.88,0.661,1.623,0.3,1.652-0.799l0.932-35.844C63.785,8.057,62.951,7.432,61.904,7.768z"/>
</g>
</svg>
