<?xml version="1.0" encoding="iso-8859-1"?>
<!-- Generator: Adobe Illustrator 14.0.0, SVG Export Plug-In . SVG Version: 6.00 Build 43363)  -->
<!DOCTYPE svg PUBLIC "-//W3C//DTD SVG 1.1//EN" "http://www.w3.org/Graphics/SVG/1.1/DTD/svg11.dtd">
<svg version="1.1" id="icon-m-camera-scene-macro-layer"
	 xmlns="http://www.w3.org/2000/svg" xmlns:xlink="http://www.w3.org/1999/xlink" x="0px" y="0px" width="64px" height="64px"
	 viewBox="0 0 64 64" style="enable-background:new 0 0 64 64;" xml:space="preserve">
<g id="icon-m-camera-scene-macro">
	<rect style="fill:none;" width="64" height="64"/>
	<path style="fill:#333333;" d="M35.179,59.766v-9c0.79,1.19,1.399,1.709,2.308,2.297c3.939,2.531,9.549,2.445,13.957,1.258
		c9.135-2.453,11.735-11.119,11.735-19.555c-1.72,0.668-18.673,7.537-25.845,10.297c-0.883,0.344-1.403,1.102-2.155,1.703v-14
		c7.539-1.226,12.708-7.698,12.708-15.582c0-3.889-1.404-7.445-3.729-10.201l-4.979,12.783l-7-16l-7,16l-5-13
		c-2.303,2.755-4,6.549-4,10.418c0,7.884,5.462,14.356,13,15.582v14c-0.75-0.643-1.603-1.236-2.513-1.584
		C19.494,42.42,2.897,35.428,1.179,34.766c0,8.441,2.241,17.213,11.378,19.668c4.408,1.188,10.018,1.279,13.957-1.254
		c0.938-0.604,1.872-1.179,2.665-2.414v9H35.179z"/>
</g>
</svg>
