<?xml version="1.0" encoding="iso-8859-1"?>
<!-- Generator: Adobe Illustrator 13.0.2, SVG Export Plug-In . SVG Version: 6.00 Build 14948)  -->
<!DOCTYPE svg PUBLIC "-//W3C//DTD SVG 1.1//EN" "http://www.w3.org/Graphics/SVG/1.1/DTD/svg11.dtd">
<svg version="1.1" xmlns="http://www.w3.org/2000/svg" xmlns:xlink="http://www.w3.org/1999/xlink" x="0px" y="0px" width="64px"
	 height="64px" viewBox="0 0 64 64" style="enable-background:new 0 0 64 64;" xml:space="preserve">
	<g id="icon-toolbar-mediacontrol-next">
		<rect style="fill:none;" width="64" height="64"/>
		<g>
			<path style="fill:#FFFFFF;" d="M44.168,12.871c-1.1,0-2,0.9-2,2V27.26c0,1.1-0.781,1.554-1.736,1.008L15.206,13.863
				c-0.955-0.546-1.737-0.092-1.737,1.008v34.26c0,1.1,0.782,1.554,1.737,1.008l25.226-14.404c0.955-0.546,1.736-0.092,1.736,1.008
				v12.389c0,1.1,0.9,2,2,2h4.364c1.1,0,2-0.9,2-2v-34.26c0-1.1-0.9-2-2-2H44.168z"/>
		</g>
	</g>
</svg>
