<?xml version="1.0" encoding="iso-8859-1"?>
<!-- Generator: Adobe Illustrator 14.0.0, SVG Export Plug-In . SVG Version: 6.00 Build 43363)  -->
<!DOCTYPE svg PUBLIC "-//W3C//DTD SVG 1.1//EN" "http://www.w3.org/Graphics/SVG/1.1/DTD/svg11.dtd">
<svg version="1.1" id="icon-m-messaging-smiley-worried-layer"
	 xmlns="http://www.w3.org/2000/svg" xmlns:xlink="http://www.w3.org/1999/xlink" x="0px" y="0px" width="64px" height="64px"
	 viewBox="0 0 64 64" style="enable-background:new 0 0 64 64;" xml:space="preserve">
<g id="icon-m-messaging-smiley-worried">
	<rect style="fill:none;" width="64" height="64"/>
	<path style="fill:#333333;" d="M48.81,21.5c-0.677,0-1.291-0.46-1.456-1.146c-0.393-1.615-1.278-2.734-2.633-3.322
		c-1.596-0.693-3.349-0.449-3.867-0.246c-0.432,0.469-1.13,0.627-1.738,0.344c-0.75-0.352-1.074-1.244-0.725-1.994
		c0.709-1.52,3.531-1.656,4.926-1.52c3.575,0.357,6.109,2.555,6.951,6.031c0.195,0.805-0.299,1.616-1.104,1.811
		C49.045,21.486,48.926,21.5,48.81,21.5L48.81,21.5z"/>
	<path style="fill:#333333;" d="M15.19,21.5c0.676,0,1.291-0.46,1.457-1.146c0.392-1.615,1.278-2.734,2.632-3.322
		c1.596-0.693,3.349-0.449,3.867-0.246c0.431,0.469,1.13,0.627,1.738,0.344c0.75-0.352,1.075-1.244,0.725-1.994
		c-0.709-1.52-3.532-1.656-4.926-1.52c-3.575,0.357-6.109,2.555-6.952,6.031c-0.195,0.805,0.299,1.616,1.104,1.811
		C14.954,21.486,15.073,21.5,15.19,21.5L15.19,21.5z"/>
	<path style="fill:#333333;" d="M39.495,24c1.108,0,2.126,0.507,2.796,1.39c1.164,1.537,0.859,3.735-0.679,4.9
		c-0.614,0.464-1.344,0.71-2.11,0.71c-1.107,0-2.125-0.505-2.791-1.387c-0.565-0.745-0.807-1.666-0.678-2.592
		c0.127-0.926,0.608-1.747,1.354-2.311C38,24.246,38.729,24,39.495,24 M39.495,22c-1.156,0-2.321,0.365-3.315,1.115
		c-2.422,1.834-2.898,5.283-1.064,7.706C36.196,32.248,37.84,33,39.502,33c1.158,0,2.324-0.363,3.317-1.115
		c2.422-1.834,2.899-5.281,1.065-7.703C42.803,22.752,41.158,22,39.495,22L39.495,22z"/>
	<path style="fill:#333333;" d="M24.495,24c1.108,0,2.126,0.507,2.795,1.39c1.164,1.537,0.86,3.735-0.678,4.9
		c-0.614,0.464-1.344,0.71-2.11,0.71c-1.108,0-2.125-0.505-2.792-1.387c-0.565-0.745-0.806-1.666-0.678-2.592
		s0.609-1.747,1.354-2.311C23,24.246,23.729,24,24.495,24 M24.495,22c-1.156,0-2.322,0.365-3.315,1.115
		c-2.422,1.834-2.899,5.283-1.064,7.706C21.196,32.248,22.84,33,24.502,33c1.157,0,2.324-0.363,3.317-1.115
		c2.422-1.834,2.899-5.281,1.065-7.703C27.802,22.752,26.158,22,24.495,22L24.495,22z"/>
	<path style="fill:#333333;" d="M32,4c15.439,0,28,12.561,28,28S47.439,60,32,60S4,47.439,4,32S16.561,4,32,4 M32,0
		C14.327,0,0,14.327,0,32c0,17.674,14.327,32,32,32c17.674,0,32-14.326,32-32C64,14.327,49.674,0,32,0L32,0z"/>
	<path style="fill:#333333;" d="M48.745,45.051c-0.104-0.104-7.041-6.874-16.224-6.929h-0.002h-0.001
		c-6.838,0.04-12.406,3.79-14.858,5.751c-0.805,0.582-3.842,3.029-0.443,4.748c0,0,2.876,1.354,5.248-3.107
		c0,0,1.267-3.031,4.182-4.464l-0.089,0.027c1.804-0.612,3.811-1.024,5.962-1.018c8.233-0.022,14.427,6.021,14.812,6.405
		c0.391,0.391,1.023,0.391,1.414,0S49.136,45.441,48.745,45.051z"/>
</g>
</svg>
