<?xml version="1.0" encoding="iso-8859-1"?>
<!-- Generator: Adobe Illustrator 13.0.2, SVG Export Plug-In . SVG Version: 6.00 Build 14948)  -->
<!DOCTYPE svg PUBLIC "-//W3C//DTD SVG 1.1//EN" "http://www.w3.org/Graphics/SVG/1.1/DTD/svg11.dtd">
<svg version="1.1" xmlns="http://www.w3.org/2000/svg" xmlns:xlink="http://www.w3.org/1999/xlink" x="0px" y="0px" width="88px"
	 height="88px" viewBox="0 0 88 88" style="enable-background:new 0 0 88 88;" xml:space="preserve">
	<g id="icon-m-vodafone">
		<rect id="_x3C_Slice_x3E__32_" style="fill:none;" width="88" height="88"/>
		<g id="Vodafone">
			<linearGradient id="SVGID_1_" gradientUnits="userSpaceOnUse" x1="44.4004" y1="13" x2="44.4004" y2="77.0005">
				<stop  offset="0" style="stop-color:#D82027"/>
				<stop  offset="0.2248" style="stop-color:#D11F26"/>
				<stop  offset="0.5189" style="stop-color:#C01F24"/>
				<stop  offset="0.8501" style="stop-color:#A41C20"/>
				<stop  offset="1" style="stop-color:#961A1D"/>
			</linearGradient>
			<path style="fill:url(#SVGID_1_);" d="M12.8,19.364c0-3.515,2.85-6.364,6.364-6.364h50.475C73.153,13,76,15.85,76,19.364v51.271
				C76,74.147,73.15,77,69.636,77H19.161c-3.515,0-6.361-2.853-6.361-6.364V19.364z"/>
			<g>
				<path style="fill-rule:evenodd;clip-rule:evenodd;fill:#FFFFFF;" d="M51.597,28.386c-3.366,0.755-5.917,3.782-5.917,7.399
					c0,0.066,0.019,0.171,0.019,0.244c5.342,1.152,8.03,4.772,8.03,9.546c0,5.367-4.354,9.721-9.681,9.721
					s-10.305-4.479-10.305-11.124c0-8.107,6.887-15.713,16.726-15.939c0.172-0.018,0.45,0,0.745,0.019
					c-2.169-0.843-4.512-1.293-6.975-1.293c-10.549,0-19.103,8.338-19.103,18.617c0,10.28,8.554,18.619,19.103,18.619
					s19.083-8.339,19.083-18.619C63.322,37.831,58.482,31.203,51.597,28.386L51.597,28.386L51.597,28.386z"/>
			</g>
		</g>
	</g>
</svg>
