<?xml version="1.0" encoding="iso-8859-1"?>
<!-- Generator: Adobe Illustrator 14.0.0, SVG Export Plug-In . SVG Version: 6.00 Build 43363)  -->
<!DOCTYPE svg PUBLIC "-//W3C//DTD SVG 1.1//EN" "http://www.w3.org/Graphics/SVG/1.1/DTD/svg11.dtd">
<svg version="1.1" id="icon-m-common-emergency-call-layer"
	 xmlns="http://www.w3.org/2000/svg" xmlns:xlink="http://www.w3.org/1999/xlink" x="0px" y="0px" width="64px" height="64px"
	 viewBox="0 0 64 64" style="enable-background:new 0 0 64 64;" xml:space="preserve">
<g id="icon-m-common-emergency-call">
	<rect style="fill:none;" width="64" height="64"/>
	<path style="fill:#333333;" d="M34.129,4.477C25.746,8.416,9.095,23.049,5.136,33.42C3.403,37.963,6.95,45.146,9.75,47.375
		c-0.002,0.01,1.441,1.209,2.521-0.016l7.55-10.166c0.514-0.658,1.019-1.521-0.021-2.555c0,0-5.225-3.756-3.712-6.158
		c1.056-1.662,11.439-12.029,13.103-13.08c2.411-1.516,6.182,3.695,6.182,3.695c1.041,1.035,1.9,0.523,2.559,0.016l10.195-7.543
		c1.228-1.09,0.021-2.523,0.014-2.523C45.895,6.271,38.551,2.402,34.129,4.477z"/>
	<polygon style="fill:none;" points="61.519,44.393 52.195,44.393 52.195,35.068 43.844,35.068 43.844,44.393 34.519,44.393 
		34.519,52.744 43.844,52.744 43.844,62.068 52.195,62.068 52.195,52.744 61.519,52.744 	"/>
</g>
</svg>
