<?xml version="1.0" encoding="iso-8859-1"?>
<!-- Generator: Adobe Illustrator 14.0.0, SVG Export Plug-In . SVG Version: 6.00 Build 43363)  -->
<!DOCTYPE svg PUBLIC "-//W3C//DTD SVG 1.1//EN" "http://www.w3.org/Graphics/SVG/1.1/DTD/svg11.dtd">
<svg version="1.1" id="icon-l-camera-layer" xmlns="http://www.w3.org/2000/svg" xmlns:xlink="http://www.w3.org/1999/xlink"
	 x="0px" y="0px" width="64px" height="64px" viewBox="0 0 64 64" style="enable-background:new 0 0 64 64;" xml:space="preserve">
<g id="icon-l-camera">
	<rect style="fill:none;" width="64" height="64"/>
	<path style="opacity:0.2;fill:#010101;" d="M58.119,8.955H7.682c-2.436-0.051-4.225,1.128-4.996,2.453
		c-0.797,1.297-0.817,2.48-0.826,2.867c0,0.045,0.002,0.094,0.005,0.125v0.497c-1.077,0.595-1.802,1.729-1.805,3.05v28.098
		c0.003,1.32,0.728,2.465,1.805,3.053c0,0-0.005,0.563-0.005,0.621c0.009,0.379,0.029,1.566,0.826,2.871
		c0.769,1.318,2.556,2.5,4.996,2.455h50.437c0.049,0,0.098,0,0.145,0c2.361,0,4.098-1.166,4.85-2.463
		c0.738-1.203,0.809-2.316,0.82-2.768c0-0.029,0.004-0.047,0.004-0.066l0.002-0.074V14.32c0,0,0-0.014,0-0.043
		c-0.01-0.382-0.031-1.57-0.826-2.865C62.348,10.086,60.555,8.904,58.119,8.955z"/>
	<path style="opacity:0.5;fill:#010101;" d="M62.213,14.324c0,0,0.148-3.641-4.094-3.641H7.682c-4.244,0-4.094,3.641-4.094,3.641
		v1.872H3.542c-0.968,0-1.755,0.785-1.755,1.753v28.1c0,0.971,0.787,1.756,1.755,1.756h0.045v1.869c0,0-0.15,3.641,4.094,3.641
		h50.437c4.242,0,4.094-3.641,4.094-3.641V14.324z"/>
	<linearGradient id="SVGID_1_" gradientUnits="userSpaceOnUse" x1="32.9004" y1="5.2207" x2="32.9004" y2="61.1479">
		<stop  offset="0" style="stop-color:#E6E5F3"/>
		<stop  offset="1" style="stop-color:#333442"/>
	</linearGradient>
	<path style="fill:url(#SVGID_1_);" d="M58.119,8.955H7.682c-4.244,0-4.094,3.641-4.094,3.641v35.346c0,0-0.15,3.641,4.094,3.641
		h50.437c4.242,0,4.094-3.641,4.094-3.641V12.596C62.213,12.596,62.361,8.955,58.119,8.955z"/>
	<path style="opacity:0.15;fill:#FFFFFF;" d="M60.744,12.545c0.004-0.057-0.037-0.714-0.342-1.17
		c-0.318-0.443-0.693-0.914-2.283-0.951H7.682c-1.596,0.037-1.97,0.508-2.292,0.951c-0.245,0.373-0.319,0.879-0.337,1.082
		l0.008,0.02v32.527l55.683-25.959v-6.449C60.74,12.596,60.74,12.576,60.744,12.545z"/>
	<path style="opacity:0.3;fill:#FFFFFF;" d="M58.119,8.955H7.682c-4.244,0-4.094,3.641-4.094,3.641v35.346
		c0,0-0.037,1.059,0.585,2.029l1.171-0.891c-0.199-0.361-0.273-0.799-0.288-0.994l0.005-0.016V12.477l-0.008-0.02
		c0.018-0.203,0.092-0.709,0.337-1.082c0.322-0.443,0.696-0.914,2.292-0.951h50.437c1.475,0.033,1.904,0.439,2.209,0.852
		l1.365-0.605C61.176,9.795,60.158,8.955,58.119,8.955z"/>
	<linearGradient id="SVGID_2_" gradientUnits="userSpaceOnUse" x1="-9.875" y1="30.2686" x2="19.064" y2="30.2686">
		<stop  offset="0" style="stop-color:#404040"/>
		<stop  offset="1" style="stop-color:#000000"/>
	</linearGradient>
	<path style="fill:url(#SVGID_2_);" d="M16.028,44.32c0,0.969-0.788,1.754-1.756,1.754H3.542c-0.968,0-1.755-0.785-1.755-1.754
		V16.223c0-0.973,0.787-1.76,1.755-1.76h10.729c0.968,0,1.756,0.787,1.756,1.76V44.32z"/>
	<path style="opacity:0.25;fill:#FFFFFF;" d="M3.254,46.043V14.494c-0.825,0.146-1.466,0.859-1.466,1.729V44.32
		C1.788,45.188,2.429,45.906,3.254,46.043z"/>
	<path style="opacity:0.25;fill:#FFFFFF;" d="M20.95,32.564c0-8.951,7.248-16.205,16.197-16.205l0,0
		c8.951,0,16.201,7.254,16.201,16.205l0,0c0,8.951-7.25,16.199-16.201,16.199l0,0C28.198,48.764,20.95,41.516,20.95,32.564
		L20.95,32.564z M22.04,32.564c0.021,8.346,6.765,15.092,15.107,15.105l0,0c8.348-0.014,15.094-6.76,15.105-15.105l0,0
		c-0.012-8.346-6.758-15.094-15.105-15.106l0,0C28.804,17.471,22.06,24.219,22.04,32.564L22.04,32.564z"/>
	<path style="opacity:0.25;fill:#FFFFFF;" d="M49.117,32.564c0,6.609-5.355,11.965-11.969,11.965
		c-6.617,0-11.967-5.355-11.967-11.965s5.351-11.962,11.967-11.962C43.762,20.603,49.117,25.955,49.117,32.564z"/>
	<linearGradient id="SVGID_3_" gradientUnits="userSpaceOnUse" x1="37.1504" y1="48.4072" x2="37.1504" y2="27.8978">
		<stop  offset="0" style="stop-color:#404040"/>
		<stop  offset="1" style="stop-color:#000000"/>
	</linearGradient>
	<path style="fill:url(#SVGID_3_);" d="M47.184,32.564c0,5.539-4.494,10.025-10.035,10.025c-5.539,0-10.032-4.486-10.032-10.025
		c0-5.541,4.493-10.029,10.032-10.029C42.689,22.535,47.184,27.023,47.184,32.564z"/>
	<linearGradient id="SVGID_4_" gradientUnits="userSpaceOnUse" x1="37.1504" y1="42.5898" x2="37.1504" y2="20.444">
		<stop  offset="0" style="stop-color:#676868"/>
		<stop  offset="1" style="stop-color:#010101"/>
	</linearGradient>
	<path style="fill:url(#SVGID_4_);" d="M37.148,22.535c-5.539,0-10.032,4.488-10.032,10.029c0,5.539,4.493,10.025,10.032,10.025
		c5.541,0,10.035-4.486,10.035-10.025C47.184,27.023,42.689,22.535,37.148,22.535z M37.148,41.488c-4.917,0-8.918-3.994-8.918-8.924
		c0-4.922,4.001-8.92,8.918-8.92c4.92,0,8.926,3.998,8.926,8.92C46.074,37.494,42.068,41.488,37.148,41.488z"/>
	<path style="opacity:0.2;" d="M31.465,16.16c0,2.078-1.681,3.757-3.75,3.757c-2.08,0-3.761-1.679-3.761-3.757
		c0-2.074,1.682-3.75,3.761-3.75C29.784,12.41,31.465,14.086,31.465,16.16z"/>
	<linearGradient id="SVGID_5_" gradientUnits="userSpaceOnUse" x1="27.709" y1="21.5737" x2="27.709" y2="13.6883">
		<stop  offset="0" style="stop-color:#676868"/>
		<stop  offset="1" style="stop-color:#010101"/>
	</linearGradient>
	<path style="fill:url(#SVGID_5_);" d="M30.773,16.16c0,1.697-1.367,3.063-3.058,3.063c-1.697,0-3.07-1.365-3.07-3.063
		s1.373-3.066,3.07-3.066C29.406,13.094,30.773,14.463,30.773,16.16z"/>
	<path style="opacity:0.25;fill:#FFFFFF;enable-background:new    ;" d="M30.177,15.094c-0.414-0.965-1.353-1.641-2.462-1.641
		c-1.498,0-2.713,1.215-2.713,2.707c0,0.442,0.126,0.836,0.313,1.201L30.177,15.094z"/>
	<rect x="46.99" y="12.309" style="fill:#F2F2F2;" width="11.482" height="5.736"/>
	<path style="fill:#010101;" d="M42.143,32.564c0,2.756-2.236,4.988-4.994,4.988s-4.992-2.232-4.992-4.988s2.234-4.996,4.992-4.996
		S42.143,29.809,42.143,32.564z"/>
	<path style="opacity:0.25;fill:#FFFFFF;enable-background:new    ;" d="M45.352,29.146c-1.359-3.194-4.477-5.471-8.18-5.471
		c-4.947,0-8.954,4.021-8.954,8.965c0,1.463,0.38,2.816,1.009,4.027L45.352,29.146z"/>
</g>
</svg>
