<?xml version="1.0" encoding="iso-8859-1"?>
<!-- Generator: Adobe Illustrator 14.0.0, SVG Export Plug-In . SVG Version: 6.00 Build 43363)  -->
<!DOCTYPE svg PUBLIC "-//W3C//DTD SVG 1.1//EN" "http://www.w3.org/Graphics/SVG/1.1/DTD/svg11.dtd">
<svg version="1.1" id="icon-m-help-associative-browsing-layer"
	 xmlns="http://www.w3.org/2000/svg" xmlns:xlink="http://www.w3.org/1999/xlink" x="0px" y="0px" width="64px" height="64px"
	 viewBox="0 0 64 64" style="enable-background:new 0 0 64 64;" xml:space="preserve">
<g id="icon-m-help-associative-browsing_1_">
	<rect style="fill:none;" width="64" height="64"/>
	<path style="fill:#333333;" d="M55.891,26.629c-3.056,0-5.623,1.801-6.426,4.261H38.543c-0.211-1.214-0.65-2.345-1.279-3.357
		l5.265-6.896c0.718,0.229,1.487,0.362,2.296,0.362c3.696,0,6.69-2.636,6.69-5.89c0-3.251-2.994-5.889-6.69-5.889
		s-6.695,2.638-6.695,5.889c0,1.535,0.674,2.928,1.766,3.975l-4.66,6.107c-1.68-1.396-3.843-2.238-6.208-2.238
		c-1.709,0-3.312,0.443-4.707,1.213l-8.064-8.193c1.16-1.061,1.878-2.498,1.878-4.085c0-3.249-2.999-5.887-6.694-5.887
		c-3.694,0-6.696,2.638-6.696,5.887c0,3.254,3.002,5.892,6.696,5.892c0.718,0,1.409-0.103,2.055-0.287l8.425,8.558
		c-1.588,1.706-2.564,3.975-2.564,6.474c0,1.446,0.332,2.812,0.914,4.041l-8.204,4.957c-1.11-0.719-2.475-1.148-3.959-1.148
		c-3.701,0-6.695,2.634-6.695,5.891c0,3.254,2.995,5.89,6.695,5.89c3.696,0,6.691-2.636,6.691-5.89c0-0.885-0.228-1.72-0.622-2.472
		l7.811-4.72c1.76,1.855,4.26,3.022,7.04,3.022c2.172,0,4.167-0.717,5.782-1.914l5.996,7.866c-1.147,1.058-1.855,2.486-1.855,4.062
		c0,3.256,2.998,5.892,6.693,5.892c3.698,0,6.693-2.636,6.693-5.892c0-3.253-2.995-5.891-6.693-5.891
		c-0.76,0-1.487,0.118-2.168,0.323l-6.518-8.551c0.836-1.187,1.399-2.569,1.623-4.064h10.819c0.716,2.573,3.345,4.484,6.491,4.484
		c3.693,0,6.697-2.638,6.697-5.89C62.588,29.268,59.584,26.629,55.891,26.629z"/>
</g>
</svg>
