<?xml version="1.0" encoding="iso-8859-1"?>
<!-- Generator: Adobe Illustrator 14.0.0, SVG Export Plug-In . SVG Version: 6.00 Build 43363)  -->
<!DOCTYPE svg PUBLIC "-//W3C//DTD SVG 1.1//EN" "http://www.w3.org/Graphics/SVG/1.1/DTD/svg11.dtd">
<svg version="1.1" id="icon-m-image-edit-add-text-layer"
	 xmlns="http://www.w3.org/2000/svg" xmlns:xlink="http://www.w3.org/1999/xlink" x="0px" y="0px" width="64px" height="64px"
	 viewBox="0 0 64 64" style="enable-background:new 0 0 64 64;" xml:space="preserve">
<g id="icon-m-image-edit-add-text">
	<rect style="fill:none;" width="64" height="64"/>
	<path style="fill:#333333;" d="M46,28c-9.941,0-18,8.06-18,18c0,9.941,8.059,18,18,18c9.94,0,18-8.059,18-18
		C64,36.06,55.94,28,46,28z M56.8,48.867h-7.843v7.934h-5.87v-7.934H35.2v-5.824h7.887v-7.842h5.87v7.842H56.8V48.867z"/>
	<path style="fill:#333333;" d="M8.477,6.495c-2.152,0-4.512,0.377-6.7,0.923V10.7C3.45,10.188,5.298,9.777,6.94,9.777
		c2.358,0,3.692,0.786,3.692,3.214v1.503C4.717,14.598,0,15.28,0,20.889c0,3.76,2.323,5.776,6.083,5.776
		c2.633,0,4.41-0.888,5.983-3.043l0.753,2.805h3.314V13.06C16.135,8.171,12.785,6.495,8.477,6.495z M10.632,19.896
		c0,2.188-0.891,3.658-2.94,3.658c-1.608,0-2.257-1.129-2.257-2.77c0-2.564,1.64-3.555,3.932-3.555h1.266V19.896z"/>
	<path style="fill:#333333;" d="M37.498,16.204c0-4.923-1.334-9.709-6.77-9.709c-1.914,0-3.451,0.479-4.888,1.847V0h-5.504v26.151
		c2.494,0.344,4.65,0.445,7.52,0.445C34.215,26.597,37.498,22.733,37.498,16.204z M27.856,23.589c-0.649,0-1.468-0.103-2.016-0.171
		v-7.214c0-3.213,0.137-6.427,3.077-6.427c2.632,0,2.906,3.76,2.906,6.393C31.824,20.067,31.242,23.589,27.856,23.589z"/>
</g>
</svg>
