<?xml version="1.0" encoding="iso-8859-1"?>
<!-- Generator: Adobe Illustrator 14.0.0, SVG Export Plug-In . SVG Version: 6.00 Build 43363)  -->
<!DOCTYPE svg PUBLIC "-//W3C//DTD SVG 1.1//EN" "http://www.w3.org/Graphics/SVG/1.1/DTD/svg11.dtd">
<svg version="1.1" id="icon-m-content-podcast-video-layer"
	 xmlns="http://www.w3.org/2000/svg" xmlns:xlink="http://www.w3.org/1999/xlink" x="0px" y="0px" width="64px" height="64px"
	 viewBox="0 0 64 64" style="enable-background:new 0 0 64 64;" xml:space="preserve">
<g id="icon-m-content-podcast-video">
	<rect style="fill:none;" width="64.001" height="64"/>
	<path style="fill:#333333;" d="M31.986,54.793c6.896,0,12.483-5.59,12.483-12.483c0-6.896-5.588-12.484-12.483-12.484
		c-6.895,0-12.483,5.589-12.483,12.484C19.503,49.203,25.092,54.793,31.986,54.793z M31.986,37.505c2.651,0,4.805,2.155,4.805,4.804
		s-2.153,4.805-4.805,4.805c-2.649,0-4.805-2.156-4.805-4.805S29.337,37.505,31.986,37.505z"/>
	<path style="fill:#333333;" d="M41.708,56.219c-2.707,2.044-6.074,3.259-9.722,3.259c-3.647,0-7.015-1.215-9.723-3.259
		c0,0-0.001,0-0.001,0.001l-4.244,6.935h27.963l-4.229-6.909C41.738,56.237,41.724,56.228,41.708,56.219z"/>
	<path style="fill:#333333;" d="M13.498,30.77c3.845-6.195,10.684-10.342,18.496-10.342c7.729,0,14.509,4.055,18.374,10.141
		l0.153,0.251c0.576,0.937,1.808,1.229,2.745,0.656l1.15-0.676c0.935-0.574,1.229-1.809,0.656-2.743l-0.244-0.397l-0.004,0.003
		c-4.818-7.533-13.244-12.549-22.831-12.549c-9.534,0-17.915,4.959-22.747,12.422l-0.004-0.002l-0.262,0.386
		c-0.62,0.904-0.385,2.151,0.52,2.771l1.118,0.73c0.907,0.618,2.152,0.385,2.772-0.521"/>
	<path style="fill:#333333;" d="M63.58,16.742l-0.163-0.211h0.002c-0.014-0.016-0.025-0.03-0.037-0.045l-0.088-0.113l-0.004,0.002
		c-7.296-9.32-18.584-15.36-31.273-15.528V0.845c-0.006,0-0.011,0.001-0.017,0.001s-0.011-0.001-0.017-0.001v0.002
		C19.295,1.015,8.006,7.055,0.71,16.375l-0.003-0.002l-0.087,0.113c-0.012,0.015-0.024,0.029-0.037,0.045h0.001L0.42,16.742
		c-0.675,0.863-0.52,2.123,0.344,2.799l1.068,0.801c0.867,0.674,2.125,0.521,2.8-0.345l0.29-0.359
		C11.245,11.563,21.011,6.323,32,6.161c10.989,0.162,20.755,5.402,27.078,13.477l0.29,0.359c0.676,0.865,1.934,1.019,2.799,0.345
		l1.069-0.801C64.101,18.865,64.255,17.605,63.58,16.742z"/>
</g>
</svg>
