<?xml version="1.0" encoding="iso-8859-1"?>
<!-- Generator: Adobe Illustrator 14.0.0, SVG Export Plug-In . SVG Version: 6.00 Build 43363)  -->
<!DOCTYPE svg PUBLIC "-//W3C//DTD SVG 1.1//EN" "http://www.w3.org/Graphics/SVG/1.1/DTD/svg11.dtd">
<svg version="1.1" id="icon-m-camera-video-high-layer"
	 xmlns="http://www.w3.org/2000/svg" xmlns:xlink="http://www.w3.org/1999/xlink" x="0px" y="0px" width="64px" height="64px"
	 viewBox="0 0 64 64" style="enable-background:new 0 0 64 64;" xml:space="preserve">
<g id="icon-m-camera-video-high">
	<rect style="fill:none;" width="64" height="64"/>
	<path style="fill:#FFFFFF;" d="M62,62V27.848c-18.862,0-34.152,15.291-34.152,34.152H62z"/>
	<path style="fill:#FFFFFF;" d="M27.797,41.725h-2.759c-0.509,0-0.929-0.418-0.929-0.926V37.09c0-0.512,0.419-0.93,0.929-0.93h3.709
		c0.51,0,0.926,0.418,0.926,0.93v1.775c1.503-2.095,3.202-4.036,5.074-5.8l-17.207,0.021v-0.031h-0.014V14.422h0.014v-0.029h26.382
		v12.193c1.742-0.893,3.557-1.66,5.435-2.291v-9.873h2.329v-2.329H49.19c-0.512,0-0.928-1.245-0.928-1.756v-3.71
		c0-0.51,0.416-0.926,0.928-0.926h2.497V2H2v3.656v0.045h2.52c0.509,0,0.927,0.416,0.927,0.926v3.667
		c0,0.509-0.418,1.755-0.927,1.755H2v0.044v2.3v0.029h10.869v18.633H2v0.031v3.074v0.044h2.52c0.509,0,0.927,0.417,0.927,0.927
		v3.668c0,0.508-0.418,0.926-0.927,0.926H2v0.044V44.7h24.188C26.681,43.682,27.221,42.691,27.797,41.725z M36.205,6.627
		c0-0.51,0.418-0.926,0.929-0.926h3.71c0.508,0,0.926,0.416,0.926,0.926v3.71c0,0.511-0.418,1.756-0.926,1.756h-3.71
		c-0.511,0-0.929-1.245-0.929-1.756V6.627z M24.109,6.627c0-0.51,0.419-0.926,0.929-0.926h3.709c0.51,0,0.926,0.416,0.926,0.926
		v3.71c0,0.511-0.416,1.756-0.926,1.756h-3.709c-0.509,0-0.929-1.245-0.929-1.756V6.627z M11.978,10.294V6.627
		c0-0.51,0.416-0.926,0.926-0.926h3.71c0.511,0,0.928,0.416,0.928,0.926v3.667c0,0.509-0.417,1.755-0.928,1.755h-3.71
		C12.394,12.049,11.978,10.803,11.978,10.294z M17.542,40.799c0,0.508-0.417,0.926-0.928,0.926h-3.71
		c-0.51,0-0.926-0.418-0.926-0.926v-3.668c0-0.51,0.416-0.927,0.926-0.927h3.71c0.511,0,0.928,0.417,0.928,0.927V40.799z"/>
	<path style="fill:none;" d="M52.639,10.766c0.121,0.039,0.24,0.082,0.361,0.123v-0.123H52.639z"/>
</g>
</svg>
