<?xml version="1.0" encoding="iso-8859-1"?>
<!-- Generator: Adobe Illustrator 14.0.0, SVG Export Plug-In . SVG Version: 6.00 Build 43363)  -->
<!DOCTYPE svg PUBLIC "-//W3C//DTD SVG 1.1//EN" "http://www.w3.org/Graphics/SVG/1.1/DTD/svg11.dtd">
<svg version="1.1" id="icon-m-transfer-upload-layer"
	 xmlns="http://www.w3.org/2000/svg" xmlns:xlink="http://www.w3.org/1999/xlink" x="0px" y="0px" width="64px" height="64px"
	 viewBox="0 0 64 64" style="enable-background:new 0 0 64 64;" xml:space="preserve">
<g id="icon-m-transfer-upload">
	<rect style="fill:none;" width="64" height="64"/>
	<g>
		<path style="fill:#333333;" d="M25.688,47.396l0.001,4.703c-0.002,0.678,0.541,1.214,1.213,1.214h10.2
			c0.757,0.001,1.218-0.63,1.218-1.214v-4.703H25.688z"/>
		<path style="fill:#333333;" d="M48.563,26.211L32.905,11.09c-0.481-0.538-1.321-0.531-1.805-0.005L15.365,26.211
			c-0.801,0.879-0.014,2.017,0.903,2.017h9.419v11.361H38.32V28.231l9.337-0.004C48.477,28.228,49.508,27.256,48.563,26.211z"/>
		<path style="fill:#333333;" d="M31.563,63.035c-17.094,0-31-13.908-31-31c0-17.095,13.907-31,31-31
			c17.093,0,30.999,13.905,30.999,31C62.563,49.127,48.656,63.035,31.563,63.035L31.563,63.035z M31.563,6.35
			C17.4,6.35,5.877,17.872,5.877,32.035c0,14.162,11.523,25.685,25.686,25.685s25.686-11.522,25.686-25.685
			C57.249,17.872,45.727,6.35,31.563,6.35L31.563,6.35z"/>
	</g>
</g>
</svg>
