<?xml version="1.0" encoding="iso-8859-1"?>
<!-- Generator: Adobe Illustrator 14.0.0, SVG Export Plug-In . SVG Version: 6.00 Build 43363)  -->
<!DOCTYPE svg PUBLIC "-//W3C//DTD SVG 1.1//EN" "http://www.w3.org/Graphics/SVG/1.1/DTD/svg11.dtd">
<svg version="1.1" id="icon-m-toolbar-search-layer"
	 xmlns="http://www.w3.org/2000/svg" xmlns:xlink="http://www.w3.org/1999/xlink" x="0px" y="0px" width="64px" height="64px"
	 viewBox="0 0 64 64" style="enable-background:new 0 0 64 64;" xml:space="preserve">
<g id="icon-m-toolbar-search">
	<rect style="fill:none;" width="64" height="64"/>
	<path style="fill:#FFFFFF;" d="M35.711,16.063c-5.416-5.417-14.23-5.417-19.646,0c-5.417,5.415-5.417,14.23,0,19.645
		c4.971,4.976,12.805,5.379,18.247,1.223l2.917,2.918l0.6,3.353c0.061,0.34,0.31,0.815,0.554,1.062l7.377,7.372
		c0.487,0.487,1.286,0.487,1.773,0l4.101-4.101c0.488-0.486,0.488-1.285,0-1.772l-7.369-7.382c-0.245-0.244-0.722-0.49-1.062-0.554
		l-3.354-0.599l-2.916-2.916C41.088,28.867,40.684,21.035,35.711,16.063z M32.658,32.658c-3.732,3.73-9.807,3.73-13.541,0
		c-3.733-3.734-3.733-9.809,0-13.543c3.734-3.732,9.809-3.732,13.542,0C36.393,22.85,36.393,28.925,32.658,32.658z"/>
</g>
</svg>
