<?xml version="1.0" encoding="iso-8859-1"?>
<!-- Generator: Adobe Illustrator 14.0.0, SVG Export Plug-In . SVG Version: 6.00 Build 43363)  -->
<!DOCTYPE svg PUBLIC "-//W3C//DTD SVG 1.1//EN" "http://www.w3.org/Graphics/SVG/1.1/DTD/svg11.dtd">
<svg version="1.1" id="icon-m-content-album-layer" xmlns="http://www.w3.org/2000/svg" xmlns:xlink="http://www.w3.org/1999/xlink"
	 x="0px" y="0px" width="64px" height="64px" viewBox="0 0 64 64" style="enable-background:new 0 0 64 64;" xml:space="preserve">
<g id="icon-m-content-album">
	<rect style="fill:none;" width="64" height="64"/>
	<path style="fill:#333333;" d="M0,0v64h64V0H0z M32,60C16.536,60,4,47.464,4,32C4,16.537,16.536,4,32,4c15.465,0,28,12.537,28,28
		C60,47.464,47.465,60,32,60z"/>
	<path style="fill:#333333;" d="M32,26.5c-3.039,0-5.5,2.464-5.5,5.5c0,3.041,2.461,5.5,5.5,5.5c3.041,0,5.5-2.459,5.5-5.5
		C37.5,28.964,35.041,26.5,32,26.5z"/>
</g>
</svg>
