<?xml version="1.0" encoding="iso-8859-1"?>
<!-- Generator: Adobe Illustrator 14.0.0, SVG Export Plug-In . SVG Version: 6.00 Build 43363)  -->
<!DOCTYPE svg PUBLIC "-//W3C//DTD SVG 1.1//EN" "http://www.w3.org/Graphics/SVG/1.1/DTD/svg11.dtd">
<svg version="1.1" id="icon-m-toolbar-new-message-layer"
	 xmlns="http://www.w3.org/2000/svg" xmlns:xlink="http://www.w3.org/1999/xlink" x="0px" y="0px" width="65px" height="64px"
	 viewBox="0 0 65 64" style="enable-background:new 0 0 65 64;" xml:space="preserve">
<g id="icon-m-toolbar-new-message">
	<rect x="1" style="fill:none;" width="64" height="64"/>
	<path style="fill:#FFFFFF;" d="M41.75,12c-6.213,0-11.25,5.037-11.25,11.25S35.537,34.5,41.75,34.5C47.964,34.5,53,29.463,53,23.25
		S47.964,12,41.75,12z M48.938,25.828l-1.678,2.711l-3.916-2.427v4.605h-3.187v-4.605l-3.917,2.427l-1.678-2.711l4.163-2.576
		l-4.163-2.58l1.678-2.711l3.917,2.428V15.78h3.187v4.608l3.916-2.426l1.678,2.709l-4.161,2.58L48.938,25.828z"/>
	<path style="fill:#FFFFFF;" d="M30.205,44.894l-0.518-0.218L13,37.381l0,13.545C13,51.518,13.484,52,14.076,52h32.253
		c0.591,0,1.075-0.482,1.075-1.074V37.381l-16.688,7.295L30.205,44.894z"/>
	<path style="fill:#FFFFFF;" d="M27.674,27.658H14.076c-0.591,0-1.075,0.483-1.075,1.076l0,4.658l17.205,7.534l7.814-3.423
		C33.109,36.217,29.186,32.473,27.674,27.658z"/>
</g>
</svg>
