<?xml version="1.0" encoding="iso-8859-1"?>
<!-- Generator: Adobe Illustrator 14.0.0, SVG Export Plug-In . SVG Version: 6.00 Build 43363)  -->
<!DOCTYPE svg PUBLIC "-//W3C//DTD SVG 1.1//EN" "http://www.w3.org/Graphics/SVG/1.1/DTD/svg11.dtd">
<svg version="1.1" id="icon-m-organizer-location-target-layer"
	 xmlns="http://www.w3.org/2000/svg" xmlns:xlink="http://www.w3.org/1999/xlink" x="0px" y="0px" width="64px" height="64px"
	 viewBox="0 0 64 64" style="enable-background:new 0 0 64 64;" xml:space="preserve">
<g id="icon-m-organizer-location-target">
	<rect x="0.006" style="fill:none;" width="63.987" height="64"/>
	<path style="fill:#333333;" d="M63.984,56.805V29.046h-3.035c-0.499,1.228-1.105,2.4-1.808,3.507l2.843-1.358v9.365l-9.662,4.832
		l-4.064-3.979c-0.703,0.265-1.422,0.496-2.155,0.689l9.474,9.271l-15.851,8.693L27.144,47.846l10.804-5.163
		c-3.57-0.405-6.884-1.659-9.732-3.558l-6.735,3.219L9.848,31.046h11.067c-0.344-0.649-0.653-1.316-0.931-2H0v34.909h63.984v-7.118
		L64,56.82L63.984,56.805z M2,32.012l13.553,13.165L2,51.654V32.012z M2,61.955v-2.344l0.097,0.205l19.12-9.138l11.61,11.276H2z
		 M61.984,61.955H42.456l15.337-8.411l4.191,4.102V61.955z M61.984,54.848l-7.393-7.235l7.393-3.698V54.848z"/>
	<ellipse style="fill:#333333;" cx="40.466" cy="20.831" rx="5.027" ry="5.001"/>
	<path style="fill:#333333;" d="M40.466,4.83c-8.886,0-16.087,7.163-16.087,16s7.202,16,16.087,16s16.088-7.163,16.088-16
		S49.352,4.83,40.466,4.83z M40.466,30.83c-5.554,0-10.054-4.479-10.054-10c0-5.52,4.5-10,10.054-10c5.553,0,10.055,4.48,10.055,10
		C50.521,26.352,46.019,30.83,40.466,30.83z"/>
</g>
</svg>
