<?xml version="1.0" encoding="iso-8859-1"?>
<!-- Generator: Adobe Illustrator 14.0.0, SVG Export Plug-In . SVG Version: 6.00 Build 43363)  -->
<!DOCTYPE svg PUBLIC "-//W3C//DTD SVG 1.1//EN" "http://www.w3.org/Graphics/SVG/1.1/DTD/svg11.dtd">
<svg version="1.1" id="icon-m-content-audio-layer" xmlns="http://www.w3.org/2000/svg" xmlns:xlink="http://www.w3.org/1999/xlink"
	 x="0px" y="0px" width="64px" height="64px" viewBox="0 0 64 64" style="enable-background:new 0 0 64 64;" xml:space="preserve">
<g id="icon-m-content-audio">
	<rect style="fill:none;" width="64" height="64"/>
	<path style="fill:#333333;" d="M49.832,34.664c-2.572-0.946-5.891-0.643-8.955,1.063c-4.969,2.771-7.18,7.951-5.029,11.829
		c2.144,3.87,7.73,4.758,12.686,2.005c3.286-1.814,5.391-4.715,5.797-7.593c0.036-0.343,0.057-0.479,0.057-0.712v-5.791V0.667
		c0-0.584-0.42-0.837-0.93-0.546L25.342,15.655c-0.505,0.276-0.914,0.984-0.914,1.581v28.258c-2.583-0.927-5.91-0.623-8.965,1.084
		c-4.973,2.75-7.172,7.935-5.035,11.806c2.147,3.879,7.728,4.771,12.691,2.022c3.284-1.822,5.455-4.717,5.847-7.592
		c0.024-0.314,0.056-0.479,0.056-0.714V29.729c0-0.451,0.419-1.288,0.924-1.573l18.909-10.447c0.507-0.279,0.925-0.031,0.925,0.548
		v18.087"/>
</g>
</svg>
