<?xml version="1.0" encoding="iso-8859-1"?>
<!-- Generator: Adobe Illustrator 14.0.0, SVG Export Plug-In . SVG Version: 6.00 Build 43363)  -->
<!DOCTYPE svg PUBLIC "-//W3C//DTD SVG 1.1//EN" "http://www.w3.org/Graphics/SVG/1.1/DTD/svg11.dtd">
<svg version="1.1" id="icon-m-toolbar-alphabetic-order-layer"
	 xmlns="http://www.w3.org/2000/svg" xmlns:xlink="http://www.w3.org/1999/xlink" x="0px" y="0px" width="33px" height="32px"
	 viewBox="0 0 33 32" style="enable-background:new 0 0 33 32;" xml:space="preserve">
<g id="icon-m-toolbar-alphabetic-order">
	<rect style="fill:none;" width="32" height="32"/>
	<g>
		<path style="fill:#FFFFFF;" d="M24.738,9.246h2.564c0.631,0,0.889-0.445,0.574-0.991L23.775,1.15
			c-0.314-0.546-0.834-0.547-1.152-0.004l-4.16,7.111c-0.318,0.544-0.062,0.988,0.566,0.988h2.273v22.472h3.436V9.246z"/>
		<g>
			<g>
				<g>
					<g>
						<g>
							<path style="fill:#FFFFFF;" d="M14.375,13.446h-3.06l-0.629-2.64H7.223l-0.646,2.64H3.972L7.539,0.718h3.497L14.375,13.446z
								 M10.336,9.129l-1.364-5.98l-1.399,5.98H10.336z"/>
						</g>
						<g>
							<path style="fill:#FFFFFF;" d="M13.133,20.269L8.5,30.007h4.563v1.679H5.178v-1.312l4.633-9.737H5.458v-1.68h7.676V20.269z"
								/>
						</g>
					</g>
				</g>
			</g>
		</g>
	</g>
</g>
</svg>
