<?xml version="1.0" encoding="iso-8859-1"?>
<!-- Generator: Adobe Illustrator 14.0.0, SVG Export Plug-In . SVG Version: 6.00 Build 43363)  -->
<!DOCTYPE svg PUBLIC "-//W3C//DTD SVG 1.1//EN" "http://www.w3.org/Graphics/SVG/1.1/DTD/svg11.dtd">
<svg version="1.1" id="icon-l-music-layer" xmlns="http://www.w3.org/2000/svg" xmlns:xlink="http://www.w3.org/1999/xlink" x="0px"
	 y="0px" width="48px" height="48px" viewBox="0 0 48 48" style="enable-background:new 0 0 48 48;" xml:space="preserve">
<g id="icon-l-music">
	<rect style="fill:none;" width="48" height="48"/>
	<g>
		<path style="opacity:0.5;fill:#010101;" d="M35.446,19.258c-1.224,0-2.401,0.197-3.507,0.553v-8.184c0,0-7.908-6.75-20.363-7.246
			v23.416c-1.302-0.529-2.84-0.725-4.444-0.449c-3.825,0.674-6.475,3.703-5.945,6.762c0.537,3.053,4.075,4.998,7.903,4.318
			c3.561-0.629,6.54-3.352,6.54-6.137V12.715c0.76,0.168,7.453,1.252,12.179,4.881v4.604c-2.331,2.094-3.806,5.123-3.806,8.502
			c0,0.832,0.095,1.645,0.264,2.426c-0.298,0.021-0.597,0.043-0.9,0.096c-3.827,0.67-6.474,3.699-5.949,6.762
			c0.542,3.045,4.077,4.992,7.903,4.312c2.24-0.393,4.279-1.596,5.484-3.141c1.418,0.633,2.986,0.99,4.64,0.99
			c6.326,0,11.441-5.123,11.441-11.445C46.888,24.385,41.772,19.258,35.446,19.258z"/>
		<path style="opacity:0.2;fill:#010101;" d="M23.775,45.174c-3.615,0-6.529-2.086-7.087-5.07c-0.052-0.293-0.078-0.598-0.078-0.9
			c0.034-3.131,2.629-5.869,6.313-6.652l0.461-0.098l-0.052-0.469c-0.047-0.424-0.071-0.857-0.071-1.283
			c-0.002-3.283,1.294-6.365,3.65-8.68l0.156-0.152v-3.904l-0.219-0.156c-3.123-2.218-7.076-3.43-9.843-4.058l-0.635-0.144v18.686
			c-0.098,3.648-3.675,6.217-7.16,6.861c-0.53,0.094-1.089,0.145-1.656,0.146c-3.633,0-6.545-2.08-7.098-5.061
			c-0.055-0.32-0.081-0.619-0.078-0.91c0.035-3.217,2.818-6.039,6.619-6.713c0.508-0.09,1.04-0.137,1.583-0.137
			c0.546,0,1.095,0.051,1.634,0.152l0.616,0.115V4.379c0-0.201,0.083-0.395,0.229-0.535c0.139-0.131,0.329-0.209,0.521-0.209
			c12.065,0.498,19.959,6.707,20.82,7.414c0.181,0.153,0.277,0.363,0.277,0.578v7.195l0.615-0.111
			c0.707-0.129,1.431-0.195,2.152-0.195c6.718,0,12.184,5.467,12.184,12.186s-5.466,12.186-12.184,12.186
			c-1.405,0-2.79-0.242-4.111-0.717l-0.313-0.113l-0.233,0.238c-1.373,1.391-3.271,2.361-5.343,2.734
			c-0.558,0.096-1.113,0.145-1.649,0.145H23.775z"/>
		<linearGradient id="SVGID_1_" gradientUnits="userSpaceOnUse" x1="16.5298" y1="18.0127" x2="16.5298" y2="50.3909">
			<stop  offset="0" style="stop-color:#EC3182"/>
			<stop  offset="0.1829" style="stop-color:#E52F7F"/>
			<stop  offset="0.3849" style="stop-color:#D62C78"/>
			<stop  offset="0.5959" style="stop-color:#C0276E"/>
			<stop  offset="0.8118" style="stop-color:#A42161"/>
			<stop  offset="1" style="stop-color:#881C55"/>
		</linearGradient>
		<path style="fill:url(#SVGID_1_);" d="M11.577,26.533c-1.302-0.523-2.84-0.727-4.444-0.449c-3.825,0.674-6.475,3.703-5.945,6.766
			c0.537,3.049,4.075,4.996,7.903,4.312c3.561-0.623,6.54-3.344,6.54-6.131V11.454c0.76,0.165,7.453,1.249,12.179,4.88v16.068
			c-1.301-0.523-2.84-0.725-4.442-0.443c-3.827,0.676-6.474,3.703-5.949,6.76c0.542,3.051,4.077,4.998,7.903,4.318
			c3.559-0.631,6.617-3.287,6.617-6.137V10.367c0,0-7.908-6.75-20.363-7.246V26.533z"/>
		<path style="opacity:0.3;fill:#FFFFFF;" d="M31.939,10.367c0,0-7.908-6.75-20.363-7.246v23.412
			c-1.302-0.523-2.84-0.727-4.444-0.449c-3.825,0.674-6.475,3.703-5.945,6.766c0.243,1.381,1.102,2.535,2.325,3.32l0.941-0.85
			c-1.139-0.633-1.9-1.604-2.07-2.686c-0.037-0.186-0.052-0.375-0.052-0.57c-0.037-2.006,1.958-4.25,5.015-4.781
			c0.419-0.076,1.898-0.334,3.771,0.371l1.671,0.676V4.402c5.447,0.414,9.925,2.039,13.102,3.613
			c1.704,0.846,3.033,1.678,3.93,2.293c0.387,0.258,1.9,1.35,2.119,1.52V10.367z M27.81,32.402c-1.301-0.523-2.84-0.725-4.442-0.443
			c-3.827,0.676-6.474,3.703-5.949,6.76c0.254,1.434,1.177,2.621,2.473,3.406l0.961-0.861c-1.225-0.631-2.059-1.629-2.24-2.76
			c-0.032-0.182-0.048-0.369-0.048-0.561c-0.036-2.016,1.957-4.256,5.015-4.791c0.42-0.076,1.826-0.293,3.777,0.377l1.666,0.785
			V17.281l-1.213-0.947V32.402z"/>
		<path style="opacity:0.3;" d="M27.81,32.402c-1.301-0.523-2.84-0.725-4.442-0.443c-0.025,0.004-0.049,0.014-0.076,0.018
			c0.429,3.99,2.778,7.395,6.101,9.293c1.533-1.156,2.547-2.73,2.547-4.369L27.81,32.402z"/>
		<linearGradient id="SVGID_2_" gradientUnits="userSpaceOnUse" x1="35.4463" y1="17.0303" x2="35.4463" y2="49.5415">
			<stop  offset="0" style="stop-color:#FFFFFF"/>
			<stop  offset="1" style="stop-color:#B3B2C9"/>
		</linearGradient>
		<path style="fill:url(#SVGID_2_);" d="M46.888,29.439c0,6.32-5.115,11.443-11.441,11.443c-6.317,0-11.442-5.123-11.442-11.443
			c0-6.319,5.125-11.443,11.442-11.443C41.772,17.996,46.888,23.12,46.888,29.439z"/>
		<path style="opacity:0.2;" d="M43.391,29.441c0-0.395-0.207-0.762-0.559-0.957l-10.193-5.736
			c-0.165-0.092-0.352-0.143-0.537-0.143c-0.191,0-0.383,0.055-0.555,0.156c-0.333,0.195-0.545,0.551-0.545,0.947V35.18
			c0.005,0.387,0.234,0.738,0.553,0.932l0.689-1.188l0.012-0.01V23.965l9.729,5.475l0.105-0.059l1.236,0.318v0.002
			C43.334,29.652,43.39,29.574,43.391,29.441z"/>
		<path style="fill:#FFFFFF;" d="M42.09,29.381l-9.846,5.543l-0.69,1.193l0.028,0.016c0.158,0.09,0.346,0.139,0.531,0.139
			c0.179,0,0.363-0.049,0.525-0.139L42.832,30.4c0.275-0.156,0.423-0.426,0.494-0.695v-0.006L42.09,29.381z"/>
		<linearGradient id="SVGID_3_" gradientUnits="userSpaceOnUse" x1="37.2012" y1="28.9023" x2="37.2012" y2="62.6655">
			<stop  offset="0" style="stop-color:#7EC242"/>
			<stop  offset="1" style="stop-color:#1D6433"/>
		</linearGradient>
		<polygon style="fill:url(#SVGID_3_);" points="32.104,23.709 32.104,35.18 42.298,29.441 		"/>
	</g>
</g>
</svg>
