<?xml version="1.0" encoding="iso-8859-1"?>
<!-- Generator: Adobe Illustrator 14.0.0, SVG Export Plug-In . SVG Version: 6.00 Build 43363)  -->
<!DOCTYPE svg PUBLIC "-//W3C//DTD SVG 1.1//EN" "http://www.w3.org/Graphics/SVG/1.1/DTD/svg11.dtd">
<svg version="1.1" id="icon-m-camera-internal-storage-layer"
	 xmlns="http://www.w3.org/2000/svg" xmlns:xlink="http://www.w3.org/1999/xlink" x="0px" y="0px" width="64px" height="64px"
	 viewBox="0 0 64 64" style="enable-background:new 0 0 64 64;" xml:space="preserve">
<symbol  id="background_x5F_64" viewBox="-32 -32 64 64">
	<polygon style="fill:none;" points="32,-32 -32,-32 -32,32 32,32 	"/>
</symbol>
<g id="icon-m-camera-internal-storage">
	
		<use xlink:href="#background_x5F_64"  width="64" height="64" id="background_x5F_64_375_" x="-32" y="-32" transform="matrix(1 0 0 -1 32 32)" style="overflow:visible;"/>
	<path style="fill:#333333;" d="M50.123,2H13.88c-1.571,0-2.857,1.283-2.857,2.854v54.289c0,1.574,1.286,2.857,2.857,2.857h36.243
		c1.577,0,2.854-1.283,2.854-2.857V4.854C52.977,3.283,51.697,2,50.123,2z M35.733,54.067c0,1.575-1.278,2.854-2.854,2.854h-1.752
		c-1.57,0-2.856-1.281-2.856-2.854v-1.753c0-1.576,1.286-2.855,2.856-2.855h1.752c1.577,0,2.854,1.281,2.854,2.855V54.067z
		 M47.631,43.388c0,1.573-1.281,2.855-2.856,2.855H19.229c-1.57,0-2.854-1.282-2.854-2.854V10.724c0-1.573,1.283-2.856,2.854-2.856
		h25.545c1.576,0,2.856,1.283,2.856,2.856V43.388z"/>
</g>
</svg>
