<?xml version="1.0" encoding="iso-8859-1"?>
<!-- Generator: Adobe Illustrator 14.0.0, SVG Export Plug-In . SVG Version: 6.00 Build 43363)  -->
<!DOCTYPE svg PUBLIC "-//W3C//DTD SVG 1.1//EN" "http://www.w3.org/Graphics/SVG/1.1/DTD/svg11.dtd">
<svg version="1.1" id="icon-m-bluetooth-video-audio-layer"
	 xmlns="http://www.w3.org/2000/svg" xmlns:xlink="http://www.w3.org/1999/xlink" x="0px" y="0px" width="64px" height="64px"
	 viewBox="0 0 64 64" style="enable-background:new 0 0 64 64;" xml:space="preserve">
<g id="icon-m-bluetooth-video-audio">
	<rect style="fill:none;" width="64" height="64"/>
	<path style="fill:#333333;" d="M5.065,28.001c0.025-0.002,1.827,0,1.827,0s0.913,0,0.913,0.913V44.02c0,0,0,0.913-0.913,0.913
		c0,0-1.802,0.003-1.827,0C2.326,44.933,0.5,39.568,0.5,36C0.5,32.433,2.326,28.001,5.065,28.001z"/>
	<path style="fill:#333333;" d="M59.053,28.001c-0.024-0.002-1.826,0-1.826,0s-0.912,0-0.912,0.913V44.02c0,0,0,0.913,0.912,0.913
		c0,0,1.802,0.003,1.826,0c2.739,0,4.565-5.364,4.565-8.933C63.618,32.433,61.792,28.001,59.053,28.001z"/>
	<path style="fill:#333333;" d="M49.805,24.819v20.113h4.564V24.846l0,0c0.02-11.644-10.059-23.472-22.325-23.472
		C19.779,1.374,9.63,12.976,9.63,24.846l0,0l0,0v20.087h4.565V24.819l0,0c0-9.104,8.457-18.563,17.849-18.563
		c9.392,0,17.76,9.458,17.744,18.563H49.805z"/>
</g>
</svg>
