<?xml version="1.0" encoding="iso-8859-1"?>
<!-- Generator: Adobe Illustrator 14.0.0, SVG Export Plug-In . SVG Version: 6.00 Build 43363)  -->
<!DOCTYPE svg PUBLIC "-//W3C//DTD SVG 1.1//EN" "http://www.w3.org/Graphics/SVG/1.1/DTD/svg11.dtd">
<svg version="1.1" id="icon-m-toolbar-camera-layer"
	 xmlns="http://www.w3.org/2000/svg" xmlns:xlink="http://www.w3.org/1999/xlink" x="0px" y="0px" width="64px" height="64px"
	 viewBox="0 0 64 64" style="enable-background:new 0 0 64 64;" xml:space="preserve">
<g id="icon-m-toolbar-camera">
	<rect style="fill:none;" width="64" height="64"/>
	<path style="fill:#FFFFFF;" d="M51.64,17H13.127c-1.173,0-2.14,0.967-2.14,2.143v25.713c0,1.178,0.966,2.145,2.14,2.145H51.64
		c1.173,0,2.14-0.967,2.14-2.145V19.143C53.779,17.967,52.813,17,51.64,17z M32.383,42.031c-5.317,0-9.629-4.324-9.629-9.645
		c0-5.326,4.313-9.643,9.629-9.643c5.319,0,9.628,4.316,9.628,9.643C42.012,37.707,37.702,42.031,32.383,42.031z M51.043,23.909
		h-8.282v-4.146h8.282V23.909z"/>
</g>
</svg>
