<?xml version="1.0" encoding="iso-8859-1"?>
<!-- Generator: Adobe Illustrator 14.0.0, SVG Export Plug-In . SVG Version: 6.00 Build 43363)  -->
<!DOCTYPE svg PUBLIC "-//W3C//DTD SVG 1.1//EN" "http://www.w3.org/Graphics/SVG/1.1/DTD/svg11.dtd">
<svg version="1.1" id="icon-s-status-presence-busy-layer"
	 xmlns="http://www.w3.org/2000/svg" xmlns:xlink="http://www.w3.org/1999/xlink" x="0px" y="0px" width="18px" height="18px"
	 viewBox="0 0 18 18" style="enable-background:new 0 0 18 18;" xml:space="preserve">
<g id="icon-s-status-presence-busy">
	<rect style="fill:none;" width="18" height="18"/>
	<path style="fill:#FFFFFF;" d="M9,0C4.029,0,0,4.029,0,9c0,4.97,4.029,9,9,9s9-4.03,9-9C18,4.029,13.971,0,9,0z M14.164,11.412
		H3.836C2.827,11.412,2,10.586,2,9.576V8.425c0-1.011,0.827-1.836,1.836-1.836h10.328c1.01,0,1.836,0.825,1.836,1.836v1.151
		C16,10.586,15.174,11.412,14.164,11.412z"/>
</g>
</svg>
