<?xml version="1.0" encoding="iso-8859-1"?>
<!-- Generator: Adobe Illustrator 14.0.0, SVG Export Plug-In . SVG Version: 6.00 Build 43363)  -->
<!DOCTYPE svg PUBLIC "-//W3C//DTD SVG 1.1//EN" "http://www.w3.org/Graphics/SVG/1.1/DTD/svg11.dtd">
<svg version="1.1" id="icon-m-energy-management-battery100-layer"
	 xmlns="http://www.w3.org/2000/svg" xmlns:xlink="http://www.w3.org/1999/xlink" x="0px" y="0px" width="64px" height="64px"
	 viewBox="0 0 64 64" style="enable-background:new 0 0 64 64;" xml:space="preserve">
<g id="icon-m-energy-management-battery100">
	<rect style="fill:none;" width="64" height="64"/>
	<path style="fill:#333333;" d="M25.454,3.378v2.817H15.378c-1.033,0-1.878,0.845-1.878,1.878v52.548
		c0,1.035,0.846,1.881,1.878,1.881h33.245c1.032,0,1.877-0.846,1.877-1.881V8.073c0-1.033-0.845-1.878-1.877-1.878H38.547V3.378
		c0-1.034-0.844-1.88-1.878-1.88h-9.337C26.299,1.498,25.454,2.344,25.454,3.378z M44.219,11.89c1.033,0,1.88,0.847,1.88,1.88
		v43.169c0,1.033-0.847,1.878-1.88,1.878H19.786c-1.032,0-1.879-0.845-1.879-1.878V13.77c0-1.033,0.847-1.88,1.879-1.88H44.219z"/>
	<rect x="21.243" y="15.164" style="fill:#333333;" width="21.516" height="40.309"/>
</g>
</svg>
