<?xml version="1.0" encoding="iso-8859-1"?>
<!-- Generator: Adobe Illustrator 14.0.0, SVG Export Plug-In . SVG Version: 6.00 Build 43363)  -->
<!DOCTYPE svg PUBLIC "-//W3C//DTD SVG 1.1//EN" "http://www.w3.org/Graphics/SVG/1.1/DTD/svg11.dtd">
<svg version="1.1" id="icon-l-search-layer" xmlns="http://www.w3.org/2000/svg" xmlns:xlink="http://www.w3.org/1999/xlink"
	 x="0px" y="0px" width="48px" height="48px" viewBox="0 0 48 48" style="enable-background:new 0 0 48 48;" xml:space="preserve">
<g id="icon-l-search">
	<rect x="-1" y="-1" style="fill:none;" width="48" height="47.998"/>
	<g>
		<path style="opacity:0.2;fill:#010101;" d="M34.285,26.398c6.451-11.885-2.092-26.558-15.83-26.558
			c-9.949,0-18.007,8.059-18.01,18.008c0.003,13.372,13.93,21.896,25.745,16.261c4.319,4.32,11.437,11.435,11.47,11.468
			c3.312,2.845,6.095,0,6.095,0l2.008-2.003c0,0,2.79-2.71-0.177-5.867C45.341,37.455,38.604,30.724,34.285,26.398z"/>
		<path style="opacity:0.5;fill:#010101;" d="M44.625,38.616c-0.037-0.039-7.725-7.725-11.996-11.999
			c1.58-2.553,2.506-5.547,2.506-8.768c0-9.217-33.362-9.217-33.362,0c0,9.215,7.466,16.683,16.683,16.683
			c2.895,0,5.617-0.74,7.992-2.039c4.205,4.203,12.115,12.114,12.152,12.15c1.164,1.164,3.058,1.162,4.225-0.005
			c0.006-0.009,2.004-2.002,2.004-2.002S46.771,40.761,44.625,38.616z"/>
		<linearGradient id="SVGID_1_" gradientUnits="userSpaceOnUse" x1="39.7256" y1="31.376" x2="29.7108" y2="41.3907">
			<stop  offset="0" style="stop-color:#E3E3E3"/>
			<stop  offset="1" style="stop-color:#414141"/>
		</linearGradient>
		<path style="fill:url(#SVGID_1_);" d="M31.741,24.404c3.981,3.985,12.845,12.848,12.884,12.888c2.146,2.146,0.203,4.02,0.203,4.02
			s-1.998,1.995-2.004,2.003c-1.167,1.166-3.061,1.168-4.225,0.005c-0.039-0.039-9.018-9.016-12.93-12.926L31.741,24.404z"/>
		<path style="opacity:0.3;" d="M31.741,24.404l-6.071,5.989c0.655,0.653,1.482,1.481,2.393,2.389
			c2.479-1.464,4.6-3.471,6.181-5.872C33.296,25.957,32.43,25.092,31.741,24.404z"/>
		<linearGradient id="SVGID_2_" gradientUnits="userSpaceOnUse" x1="18.4536" y1="1.9131" x2="18.4536" y2="44.9595">
			<stop  offset="0" style="stop-color:#E3E3E3"/>
			<stop  offset="1" style="stop-color:#414141"/>
		</linearGradient>
		<path style="fill:url(#SVGID_2_);" d="M35.135,16.524c0,9.214-7.465,16.683-16.679,16.683c-9.217,0-16.683-7.469-16.683-16.683
			c0-9.218,7.466-16.684,16.683-16.684C27.67-0.159,35.135,7.307,35.135,16.524z"/>
		<linearGradient id="SVGID_3_" gradientUnits="userSpaceOnUse" x1="18.4551" y1="29.8936" x2="18.4551" y2="8.3708">
			<stop  offset="0" style="stop-color:#DEEDF8"/>
			<stop  offset="0.2511" style="stop-color:#C1E4F7"/>
			<stop  offset="0.7909" style="stop-color:#6DCDF3"/>
			<stop  offset="1" style="stop-color:#3AC5F2"/>
		</linearGradient>
		<path style="fill:url(#SVGID_3_);" d="M31.077,16.239c0,6.972-5.647,12.622-12.622,12.622c-6.974,0-12.621-5.65-12.623-12.62
			c0-6.973,5.649-12.624,12.623-12.624C25.43,3.617,31.077,9.266,31.077,16.239z"/>
		<path style="opacity:0.4;fill:#FFFFFF;" d="M37.756,42.478l6.028-6.029c-0.239-0.236-0.528-0.525-0.885-0.885l-6.028,6.029
			C37.23,41.95,37.516,42.237,37.756,42.478z"/>
		<linearGradient id="SVGID_4_" gradientUnits="userSpaceOnUse" x1="18.4546" y1="31.7148" x2="18.4546" y2="-8.8453">
			<stop  offset="0" style="stop-color:#E3E3E3"/>
			<stop  offset="1" style="stop-color:#414141"/>
		</linearGradient>
		<path style="fill:url(#SVGID_4_);" d="M18.453,2.48c-7.601,0-13.757,6.159-13.757,13.761c0,7.598,6.156,13.755,13.757,13.757
			c7.604-0.002,13.76-6.159,13.76-13.759l0,0C32.213,8.639,26.057,2.48,18.453,2.48z M18.456,28.861
			c-6.974,0-12.621-5.65-12.623-12.62c0-6.973,5.649-12.624,12.623-12.624c6.974,0,12.622,5.648,12.622,12.622
			C31.077,23.211,25.43,28.861,18.456,28.861z"/>
		<path style="opacity:0.4;fill:#FFFFFF;" d="M28.767,11.221c-1.862-3.823-5.769-6.459-10.313-6.467
			C12.107,4.765,6.98,9.896,6.968,16.241c0.002,1.7,0.379,3.31,1.044,4.761L28.767,11.221z"/>
	</g>
</g>
</svg>
