<?xml version="1.0" encoding="iso-8859-1"?>
<!-- Generator: Adobe Illustrator 14.0.0, SVG Export Plug-In . SVG Version: 6.00 Build 43363)  -->
<!DOCTYPE svg PUBLIC "-//W3C//DTD SVG 1.1//EN" "http://www.w3.org/Graphics/SVG/1.1/DTD/svg11.dtd">
<svg version="1.1" id="icon-m-organizer-note-todo-layer"
	 xmlns="http://www.w3.org/2000/svg" xmlns:xlink="http://www.w3.org/1999/xlink" x="0px" y="0px" width="64px" height="64px"
	 viewBox="0 0 64 64" style="enable-background:new 0 0 64 64;" xml:space="preserve">
<g id="icon-m-organizer-note-todo">
	<rect style="fill:none;" width="64" height="64"/>
	<path style="fill:#333333;" d="M63.826,31.688c-0.143-0.435-0.549-0.723-1.031-0.723c-9.967,0.198-17.477,8.988-20.125,12.577
		l-4.686-4.742c-0.385-0.396-1.094-0.404-1.488-0.037l-3.166,2.871c-0.206,0.197-0.324,0.461-0.33,0.752
		c-0.003,0.283,0.105,0.547,0.311,0.758l9.445,9.338c0.195,0.205,0.477,0.32,0.768,0.32l0.086-0.002
		c0.311-0.026,0.594-0.179,0.787-0.44c3.703-5.168,8.18-10.179,12.938-14.501c3.156-2.857,5.441-4.515,6.066-4.955l0.131-0.1
		C63.836,32.526,63.961,32.088,63.826,31.688z"/>
	<path style="fill:#333333;" d="M47.799,57.352v-0.184h-40v-45h4.071v6.229h31.72v-6.229h4.209v17.994
		c2.301-1.603,4.912-3.014,7.799-3.961V8.135c0-1.135-0.928-2.063-2.061-2.063h-9.852V5.52h-0.014C43.549,2.451,41.008,0,37.879,0
		H17.687c-3.129,0-5.671,2.451-5.796,5.52H11.88v0.553H2.059C0.926,6.072,0,7,0,8.135v53.801C0,63.07,0.926,64,2.059,64h51.479
		c1.133,0,2.061-0.93,2.061-2.064v-13.86c-2.277,2.498-4.416,5.117-6.326,7.781C48.85,56.436,48.35,56.934,47.799,57.352z"/>
	<rect x="11.894" y="23.325" style="fill:#333333;" width="26.001" height="6"/>
	<rect x="11.894" y="34.325" style="fill:#333333;" width="15.5" height="6"/>
</g>
</svg>
