<?xml version="1.0" encoding="iso-8859-1"?>
<!-- Generator: Adobe Illustrator 14.0.0, SVG Export Plug-In . SVG Version: 6.00 Build 43363)  -->
<!DOCTYPE svg PUBLIC "-//W3C//DTD SVG 1.1//EN" "http://www.w3.org/Graphics/SVG/1.1/DTD/svg11.dtd">
<svg version="1.1" id="icon-s-status-gtalk-layer" xmlns="http://www.w3.org/2000/svg" xmlns:xlink="http://www.w3.org/1999/xlink"
	 x="0px" y="0px" width="21px" height="18px" viewBox="0 0 21 18" style="enable-background:new 0 0 21 18;" xml:space="preserve">
<g id="icon-s-status-gtalk">
	<rect style="fill-rule:evenodd;clip-rule:evenodd;fill:none;" width="21" height="18"/>
	<path style="fill-rule:evenodd;clip-rule:evenodd;fill:#FFFFFF;" d="M20.762,8.955c0.046-0.172,0.081-0.345,0.109-0.521
		c0.01-0.063,0.024-0.125,0.032-0.189c0.03-0.231,0.049-0.466,0.049-0.704c0-0.52-0.073-1.027-0.213-1.52
		C19.765,2.584,15.552,0,10.5,0l0,0c0,0,0,0,0,0C5.449,0,1.235,2.584,0.261,6.021c-0.139,0.492-0.212,1-0.212,1.52
		c0,0.238,0.019,0.473,0.048,0.704C0.105,8.31,0.119,8.371,0.129,8.434C0.158,8.61,0.193,8.784,0.239,8.956
		C0.251,9.003,0.266,9.05,0.28,9.098c0.789,2.71,3.587,4.887,7.227,5.67C7.311,15.728,6.819,17.161,5.593,18
		c0,0,4.603-0.272,5.89-2.858l2.011-0.374c3.64-0.783,6.438-2.959,7.228-5.67C20.735,9.051,20.749,9.003,20.762,8.955z"/>
</g>
</svg>
