<?xml version="1.0" encoding="iso-8859-1"?>
<!-- Generator: Adobe Illustrator 14.0.0, SVG Export Plug-In . SVG Version: 6.00 Build 43363)  -->
<!DOCTYPE svg PUBLIC "-//W3C//DTD SVG 1.1//EN" "http://www.w3.org/Graphics/SVG/1.1/DTD/svg11.dtd">
<svg version="1.1" id="icon-m-toolbar-newest-on-top-layer"
	 xmlns="http://www.w3.org/2000/svg" xmlns:xlink="http://www.w3.org/1999/xlink" x="0px" y="0px" width="64px" height="64px"
	 viewBox="0 0 64 64" style="enable-background:new 0 0 64 64;" xml:space="preserve">
<g id="icon-m-toolbar-newest-on-top">
	<rect style="fill:none;" width="64" height="64"/>
	<rect x="15.964" y="48.139" style="fill:#FFFFFF;" width="24" height="3.861"/>
	<rect x="15.964" y="38.04" style="fill:#FFFFFF;" width="24" height="3.861"/>
	<path style="fill:#FFFFFF;" d="M48.012,22.939c-0.436-4.208-4-7.5-8.32-7.5h-4.753v-2.645c0-0.708-0.502-0.998-1.115-0.644
		l-7.982,4.609c-0.613,0.353-0.615,0.935-0.004,1.292l7.99,4.676c0.61,0.357,1.111,0.071,1.111-0.637v-2.791h4.753
		c2.415,0,4.388,1.913,4.494,4.304c-0.106,2.39-2.079,4.304-4.494,4.304H15.964v3.86h23.728c4.477,0,8.133-3.538,8.345-7.964
		L48.012,22.939z"/>
</g>
</svg>
