<?xml version="1.0" encoding="iso-8859-1"?>
<!-- Generator: Adobe Illustrator 14.0.0, SVG Export Plug-In . SVG Version: 6.00 Build 43363)  -->
<!DOCTYPE svg PUBLIC "-//W3C//DTD SVG 1.1//EN" "http://www.w3.org/Graphics/SVG/1.1/DTD/svg11.dtd">
<svg version="1.1" id="icon-m-common-sip-layer" xmlns="http://www.w3.org/2000/svg" xmlns:xlink="http://www.w3.org/1999/xlink"
	 x="0px" y="0px" width="64px" height="64px" viewBox="0 0 64 64" style="enable-background:new 0 0 64 64;" xml:space="preserve">
<g id="icon-m-common-sip">
	<rect style="fill:none;" width="64" height="64"/>
	<path style="fill:#333333;" d="M59.998,1.723h-56C1.797,1.723,0,3.521,0,5.72v40.025c0,2.202,1.797,4.001,3.998,4.001h8.621v12.531
		l10.377-12.531h37.002c2.202,0,4.002-1.799,4.002-4.001V5.72C64,3.521,62.2,1.723,59.998,1.723z M24.233,35.11
		c-0.5,1.061-1.205,1.974-2.096,2.714c-0.882,0.734-1.931,1.293-3.113,1.662c-1.159,0.357-2.425,0.539-3.761,0.539
		c-0.93,0-1.807-0.076-2.605-0.237c-0.793-0.157-1.512-0.354-2.131-0.581c-0.622-0.227-1.163-0.473-1.604-0.729
		c-0.475-0.272-0.793-0.503-1.005-0.721c-0.24-0.25-0.415-0.563-0.525-0.929c-0.095-0.323-0.143-0.724-0.143-1.221
		c0-0.341,0.017-0.629,0.05-0.853c0.034-0.263,0.093-0.486,0.176-0.674c0.118-0.271,0.289-0.473,0.509-0.6
		c0.502-0.291,1.076-0.248,1.889,0.297c0.322,0.214,0.743,0.449,1.256,0.705c0.509,0.255,1.133,0.5,1.854,0.722
		c0.691,0.217,1.514,0.322,2.44,0.322c0.684,0,1.31-0.092,1.863-0.27c0.539-0.175,1.004-0.42,1.387-0.734
		c0.368-0.301,0.644-0.664,0.842-1.104c0.2-0.444,0.3-0.967,0.3-1.547c0-0.596-0.131-1.106-0.391-1.514
		c-0.293-0.453-0.669-0.845-1.154-1.195c-0.517-0.371-1.117-0.716-1.787-1.027l-2.191-1.021c-0.768-0.355-1.525-0.758-2.251-1.19
		c-0.758-0.451-1.448-0.992-2.05-1.607c-0.618-0.632-1.121-1.383-1.503-2.226c-0.39-0.862-0.586-1.896-0.586-3.071
		c0-1.205,0.226-2.303,0.669-3.263c0.448-0.958,1.079-1.781,1.878-2.437c0.792-0.646,1.734-1.143,2.804-1.475
		c1.598-0.494,3.463-0.645,5.308-0.328c0.622,0.107,1.221,0.252,1.776,0.432c0.562,0.184,1.071,0.393,1.512,0.622
		c0.493,0.254,0.801,0.453,0.992,0.644c0.182,0.183,0.306,0.339,0.382,0.477c0.073,0.13,0.13,0.287,0.172,0.473
		c0.035,0.148,0.062,0.32,0.079,0.523c0.017,0.188,0.023,0.417,0.023,0.699c0,0.272-0.011,0.52-0.034,0.734
		c-0.028,0.248-0.07,0.453-0.124,0.623c-0.083,0.271-0.222,0.486-0.409,0.641c-0.45,0.366-0.961,0.385-1.821-0.13
		c-0.308-0.186-0.686-0.39-1.132-0.619c-0.424-0.217-0.937-0.423-1.521-0.603c-1.068-0.334-2.602-0.364-3.572-0.014
		c-0.447,0.164-0.813,0.375-1.092,0.633c-0.271,0.25-0.473,0.542-0.607,0.887c-0.14,0.361-0.215,0.748-0.215,1.153
		c0,0.593,0.129,1.084,0.393,1.495c0.288,0.446,0.681,0.854,1.167,1.203c0.52,0.375,1.13,0.73,1.804,1.051
		c0.721,0.341,1.456,0.681,2.202,1.027c0.761,0.352,1.523,0.746,2.262,1.173c0.771,0.444,1.474,0.979,2.083,1.587
		c0.626,0.626,1.136,1.375,1.521,2.222c0.387,0.86,0.584,1.882,0.584,3.034C24.986,32.828,24.733,34.049,24.233,35.11z
		 M33.515,38.358c0,0.258-0.073,0.5-0.208,0.702c-0.148,0.223-0.371,0.384-0.66,0.485c-0.169,0.062-0.395,0.112-0.675,0.156
		c-0.268,0.039-0.59,0.062-0.963,0.062c-0.356,0-0.675-0.022-0.944-0.06c-0.291-0.044-0.519-0.097-0.69-0.158
		c-0.298-0.103-0.522-0.268-0.666-0.493c-0.13-0.191-0.203-0.434-0.203-0.694V13.021c0-0.268,0.083-0.52,0.24-0.73
		c0.156-0.209,0.382-0.363,0.669-0.455c0.177-0.06,0.401-0.115,0.677-0.156c0.561-0.082,1.363-0.075,1.873,0
		c0.286,0.045,0.513,0.097,0.682,0.156c0.289,0.105,0.514,0.268,0.66,0.484c0.135,0.204,0.208,0.447,0.208,0.701V38.358z
		 M56.041,24.078c-0.477,1.158-1.166,2.16-2.053,2.979c-0.883,0.818-1.975,1.454-3.242,1.893c-1.248,0.438-2.75,0.653-4.458,0.653
		h-2.247v8.756c0,0.274-0.086,0.532-0.246,0.741c-0.14,0.188-0.352,0.344-0.62,0.446c-0.177,0.062-0.392,0.112-0.677,0.156
		c-0.268,0.039-0.59,0.062-0.963,0.062c-0.371,0-0.691-0.022-0.957-0.062c-0.282-0.044-0.508-0.095-0.679-0.156
		c-0.295-0.103-0.517-0.268-0.662-0.491c-0.135-0.2-0.206-0.441-0.206-0.696V14.003c0-0.779,0.238-1.362,0.706-1.746
		c0.423-0.342,0.903-0.515,1.433-0.515h5.651c0.595,0,1.168,0.027,1.71,0.074c0.557,0.051,1.212,0.161,1.947,0.32
		c0.786,0.171,1.592,0.496,2.398,0.963c0.813,0.467,1.517,1.059,2.09,1.751c0.572,0.692,1.016,1.504,1.324,2.411
		c0.305,0.895,0.457,1.893,0.457,2.963C56.748,21.634,56.51,22.931,56.041,24.078z"/>
	<path style="fill:#333333;" d="M49.832,16.848c-0.506-0.301-1.031-0.493-1.566-0.575c-0.592-0.087-1.172-0.133-1.73-0.133h-2.494
		v9.087h2.41c0.965,0,1.762-0.12,2.371-0.357c0.6-0.232,1.104-0.551,1.504-0.96c0.398-0.401,0.703-0.894,0.907-1.464
		c0.217-0.586,0.324-1.238,0.324-1.936c0-0.938-0.171-1.723-0.51-2.324C50.715,17.582,50.306,17.135,49.832,16.848z"/>
</g>
</svg>
