<?xml version="1.0" encoding="iso-8859-1"?>
<!-- Generator: Adobe Illustrator 14.0.0, SVG Export Plug-In . SVG Version: 6.00 Build 43363)  -->
<!DOCTYPE svg PUBLIC "-//W3C//DTD SVG 1.1//EN" "http://www.w3.org/Graphics/SVG/1.1/DTD/svg11.dtd">
<svg version="1.1" id="icon-s-settings-layer" xmlns="http://www.w3.org/2000/svg" xmlns:xlink="http://www.w3.org/1999/xlink"
	 x="0px" y="0px" width="18px" height="18px" viewBox="0 0 18 18" style="enable-background:new 0 0 18 18;" xml:space="preserve">
<g id="icon-s-settings">
	<rect style="fill:none;" width="18" height="18"/>
	<g>
		<path style="fill:#333333;" d="M17.725,14.549l-7.438-7.443c0.367-0.494,2.152-3.734-2.125-6.211
			C6.234-0.221,3.306-0.258,4.167,0.605l3.426,3.428c-0.54,1.648-1.708,3.07-3.581,3.578L0.571,4.163
			C0.107,3.697,0.013,4.344,0.013,5.61c0,1.534,2.537,7.183,7.079,4.669l7.449,7.456c0.352,0.351,0.92,0.351,1.273,0l1.91-1.911
			C18.074,15.471,18.074,14.9,17.725,14.549z"/>
	</g>
</g>
</svg>
