<?xml version="1.0" encoding="iso-8859-1"?>
<!-- Generator: Adobe Illustrator 14.0.0, SVG Export Plug-In . SVG Version: 6.00 Build 43363)  -->
<!DOCTYPE svg PUBLIC "-//W3C//DTD SVG 1.1//EN" "http://www.w3.org/Graphics/SVG/1.1/DTD/svg11.dtd">
<svg version="1.1" id="icon-m-common-applications-layer"
	 xmlns="http://www.w3.org/2000/svg" xmlns:xlink="http://www.w3.org/1999/xlink" x="0px" y="0px" width="65px" height="64px"
	 viewBox="0 0 65 64" style="enable-background:new 0 0 65 64;" xml:space="preserve">
<g id="icon-m-common-applications">
	<rect x="1" style="fill:none;" width="64" height="64"/>
	<path style="fill:#333333;" d="M29.989,5.937c0-0.044,0.002-0.097,0.002-0.155c-0.012-0.531-0.043-1.783-0.885-3.177
		c-0.717-1.252-2.309-2.354-4.312-2.564c-0.037-0.005-0.076-0.004-0.111-0.005c-0.238-0.021-0.482-0.039-0.73-0.034h-7.074v0.007
		H9.901C7.469-0.058,5.502,1.187,4.684,2.62c-0.85,1.4-0.875,2.654-0.891,3.172c0,0.062,0.002,0.115,0.002,0.157l0.041,14.228
		c-0.002,0.045-0.002,0.098-0.002,0.157c0.012,0.533,0.04,1.785,0.885,3.175c0.814,1.423,2.759,2.653,5.153,2.606h14.019
		c0.057,0,0.115,0.002,0.171,0.002c0.196,0,0.383-0.021,0.571-0.035c0.072-0.008,0.146-0.008,0.217-0.02
		c0.128-0.014,0.252-0.042,0.377-0.062c1.813-0.312,3.248-1.341,3.914-2.506c0.85-1.401,0.879-2.656,0.891-3.175
		c-0.002-0.06-0.004-0.111-0.004-0.152L29.989,5.937z"/>
	<path style="fill:#333333;" d="M36.051,26.115c0,0.04-0.002,0.088-0.002,0.141c0.012,0.494,0.033,1.732,0.848,3.133
		c0.768,1.413,2.678,2.699,5.051,2.669h0.006h14.145c0.059,0,0.115,0.003,0.174,0.003c2.355,0,4.25-1.227,5.049-2.626
		c0.848-1.4,0.875-2.66,0.887-3.171c0-0.091-0.004-0.148-0.004-0.176L62.164,11.82c-0.004-0.052-0.002-0.103-0.01-0.19
		c-0.016-0.468-0.1-1.523-0.717-2.749c-0.664-1.451-2.609-3.028-5.139-2.949c-0.059,0-0.139,0-0.238,0.004H42.115
		c-2.432-0.064-4.396,1.184-5.217,2.613c-0.85,1.4-0.879,2.659-0.891,3.177c0,0.062,0.002,0.115,0.004,0.159L36.051,26.115z
		 M40.543,11.725c0,0,0-0.007,0-0.025c0-0.125,0.062-0.563,0.203-0.757c0.188-0.186,0.141-0.413,1.369-0.475h14.086l0.082-0.008
		h0.016c1.008,0.079,0.861,0.206,1.115,0.51c0.086,0.163,0.154,0.394,0.184,0.577c0.031,0.179,0.031,0.283,0.031,0.283l0.041,14.346
		c0,0.072,0,0.085,0,0.085c0.016,0.059-0.047,0.566-0.203,0.782c-0.188,0.185-0.141,0.416-1.371,0.476h-14c0,0-0.018,0-0.023,0
		c-0.023,0-0.033,0-0.033,0c-1.146-0.063-1.055-0.255-1.25-0.456c-0.137-0.194-0.201-0.611-0.209-0.758l0.004-0.049l-0.041-14.521
		V11.725z"/>
	<path style="fill:#333333;" d="M62.166,43.68c-0.014-0.496-0.035-1.732-0.838-3.133c-0.76-1.428-2.707-2.746-5.107-2.679
		c-0.027,0-0.074,0-0.146,0.004H42.117c-2.432-0.066-4.4,1.179-5.217,2.615c-0.852,1.401-0.877,2.661-0.893,3.179
		c0,0.064,0.002,0.117,0.004,0.16l0.039,14.236c-0.002,0.048-0.002,0.104-0.002,0.168c0.012,0.538,0.041,1.785,0.873,3.172
		c0.799,1.418,2.736,2.658,5.111,2.596h14.064c0.059,0,0.119,0.002,0.18,0.002c2.355,0,4.248-1.227,5.047-2.628
		c0.844-1.405,0.871-2.659,0.883-3.171c0-0.091,0-0.152,0-0.175l-0.043-14.192C62.164,43.805,62.166,43.75,62.166,43.68z
		 M57.465,58.988c-0.184,0.188-0.139,0.414-1.367,0.475v0.002H42.111c-0.041,0-0.068,0-0.078,0c-1.15-0.064-1.068-0.261-1.252-0.434
		c-0.133-0.182-0.197-0.615-0.203-0.761c0.002-0.021,0.002-0.036,0.002-0.036l0.002-0.035l-0.037-14.52l-0.004-0.057
		c0.006-0.146,0.07-0.553,0.209-0.742c0.184-0.187,0.139-0.414,1.367-0.477h14.094h0.021c1.096,0.068,0.996,0.242,1.189,0.443
		c0.16,0.232,0.221,0.77,0.209,0.832v0.007l-0.004,0.044l0.043,14.383c0.004,0.073,0.004,0.088,0.004,0.088
		C57.686,58.257,57.625,58.769,57.465,58.988z"/>
	<path style="fill:#333333;" d="M23.907,37.871H9.905c-2.438-0.065-4.402,1.187-5.219,2.623c-0.849,1.401-0.876,2.657-0.89,3.176
		c0,0.056,0.002,0.107,0.004,0.148l0.039,14.213c-0.002,0.051-0.004,0.124-0.004,0.211c0.014,0.555,0.047,1.809,0.894,3.194
		c0.788,1.362,2.61,2.528,4.858,2.56l0.006,0.002h14.293c0.059,0,0.119,0,0.177,0c2.29,0,4.159-1.158,4.969-2.539
		c0.855-1.384,0.898-2.646,0.908-3.209c0-0.07-0.002-0.129-0.002-0.175l0.012-14.231c0.004-0.061,0.006-0.141,0.006-0.241
		c-0.01-0.587-0.059-1.847-0.924-3.213c-0.844-1.396-2.794-2.546-5.138-2.519 M25.407,58.25c0,0-0.055,0.584-0.201,0.775
		c-0.168,0.16-0.115,0.379-1.32,0.441H9.987c-0.053-0.004-0.092-0.004-0.114-0.004c-0.009,0-0.015,0-0.015,0
		c-1.184-0.061-1.117-0.272-1.289-0.437c-0.135-0.179-0.205-0.62-0.203-0.759c0.002-0.025,0.002-0.025,0.002-0.025l0.002-0.048
		l-0.038-14.5l-0.003-0.054c0.002-0.133,0.066-0.562,0.209-0.758c0.186-0.188,0.139-0.416,1.365-0.477h13.975
		c1.213,0.07,1.193,0.301,1.354,0.451c0.135,0.182,0.193,0.747,0.193,0.747L25.407,58.25z"/>
</g>
</svg>
