<?xml version="1.0" encoding="iso-8859-1"?>
<!-- Generator: Adobe Illustrator 14.0.0, SVG Export Plug-In . SVG Version: 6.00 Build 43363)  -->
<!DOCTYPE svg PUBLIC "-//W3C//DTD SVG 1.1//EN" "http://www.w3.org/Graphics/SVG/1.1/DTD/svg11.dtd">
<svg version="1.1" id="icon-m-common-emergency-call-layer"
	 xmlns="http://www.w3.org/2000/svg" xmlns:xlink="http://www.w3.org/1999/xlink" x="0px" y="0px" width="64px" height="64px"
	 viewBox="0 0 64 64" style="enable-background:new 0 0 64 64;" xml:space="preserve">
<g id="icon-m-common-emergency-call">
	<rect style="fill:none;" width="64" height="64"/>
	<path style="fill:#333333;" d="M33.029,3.498C24.647,7.437,7.997,22.069,4.038,32.442c-1.733,4.541,1.813,11.725,4.614,13.953
		c-0.002,0.012,1.441,1.21,2.521-0.015l7.55-10.166c0.514-0.659,1.019-1.521-0.021-2.555c0,0-5.225-3.756-3.712-6.16
		c1.056-1.658,11.439-12.028,13.103-13.08c2.411-1.512,6.181,3.696,6.181,3.696c1.041,1.035,1.9,0.523,2.561,0.017l10.193-7.543
		c1.229-1.092,0.021-2.523,0.014-2.523C44.796,5.293,37.451,1.425,33.029,3.498z"/>
	<polygon style="fill:#EE1E38;" points="60.42,43.414 51.096,43.414 51.096,34.09 42.744,34.09 42.744,43.414 33.42,43.414 
		33.42,51.766 42.744,51.766 42.744,61.09 51.096,61.09 51.096,51.766 60.42,51.766 	"/>
</g>
</svg>
