<?xml version="1.0" encoding="iso-8859-1"?>
<!-- Generator: Adobe Illustrator 14.0.0, SVG Export Plug-In . SVG Version: 6.00 Build 43363)  -->
<!DOCTYPE svg PUBLIC "-//W3C//DTD SVG 1.1//EN" "http://www.w3.org/Graphics/SVG/1.1/DTD/svg11.dtd">
<svg version="1.1" id="icon-m-music-video-repeat-off-layer"
	 xmlns="http://www.w3.org/2000/svg" xmlns:xlink="http://www.w3.org/1999/xlink" x="0px" y="0px" width="64px" height="64px"
	 viewBox="0 0 64 64" style="enable-background:new 0 0 64 64;" xml:space="preserve">
<g id="icon-m-music-video-repeat-off">
	<rect style="fill:none;" width="64" height="64"/>
	<path style="fill:#333333;" d="M52,15H38l5,5l-5,5h4h3c0,0,2,0,2,2c0,3,0,15,0,15s0,2-2,2H19c-2,0-2-2-2-2V27c0,0-0.15-2,1.85-2H24
		v5l11-10L24,10v5H12c-5,0-5,5-5,5v29c0,0,0,5,5,5h40c5,0,5-5,5-5V20C57,20,57,15,52,15z M55,49c-0.018,0.889-0.346,3-3,3H12
		c-2.855,0-3-2.499-3-3V20c0.018-0.889,0.345-3,3-3h14v-2.479L32.027,20L26,25.479V23h-7.15c-1.455,0-2.344,0.629-2.833,1.156
		C15.021,25.23,14.982,26.6,15,27.049V42c0,1.939,1.402,4,4,4h26c2.598,0,4-2.061,4-4V27c0-1.133,0-4-4-4h-2l2.828-3l-3-3H52
		c2.855,0,3,2.499,3,3V49z"/>
</g>
</svg>
