<?xml version="1.0" encoding="iso-8859-1"?>
<!-- Generator: Adobe Illustrator 14.0.0, SVG Export Plug-In . SVG Version: 6.00 Build 43363)  -->
<!DOCTYPE svg PUBLIC "-//W3C//DTD SVG 1.1//EN" "http://www.w3.org/Graphics/SVG/1.1/DTD/svg11.dtd">
<svg version="1.1" id="icon-m-camera-whitebalance-tungsten-layer"
	 xmlns="http://www.w3.org/2000/svg" xmlns:xlink="http://www.w3.org/1999/xlink" x="0px" y="0px" width="64px" height="64px"
	 viewBox="0 0 64 64" style="enable-background:new 0 0 64 64;" xml:space="preserve">
<g id="icon-m-camera-whitebalance-tungsten">
	<rect style="fill:none;" width="64" height="64"/>
	<path style="fill:#333333;" d="M40.348,53.687c0,1.104-0.895,2-2,2H25.652c-1.104,0-2-0.896-2-2l0,0c0-1.105,0.896-2,2-2h12.695
		C39.453,51.687,40.348,52.581,40.348,53.687L40.348,53.687z"/>
	<path style="fill:#333333;" d="M40.348,60.854c0,1.105-0.895,2-2,2H25.652c-1.104,0-2-0.895-2-2l0,0c0-1.104,0.896-2,2-2h12.695
		C39.453,58.854,40.348,59.75,40.348,60.854L40.348,60.854z"/>
	<path style="fill:#333333;" d="M35.733,48.558h-7.466c-3.814,0-6.918-3.16-6.918-7.047v1.18c0-2.26-1.757-4.336-3.982-6.967
		c-3.217-3.795-7.215-8.506-7.215-16.035c0-8.918,8.354-18.543,21.85-18.543c13.494,0,21.848,9.625,21.848,18.543
		c0,7.533-3.998,12.242-7.211,16.027c-2.234,2.645-3.988,4.721-3.988,6.975v-1.18C42.65,45.397,39.548,48.558,35.733,48.558
		L35.733,48.558z M32.002,5.502c-10.807,0-17.496,7.362-17.496,14.187c0,5.93,3.141,9.632,6.176,13.209
		c2.588,3.062,5.021,5.939,5.021,9.793v-1.18c0,1.484,1.15,2.693,2.564,2.693h7.466c1.413,0,2.563-1.209,2.563-2.693v1.18
		c0-3.848,2.429-6.723,5-9.766c3.059-3.604,6.198-7.303,6.198-13.236C49.495,12.864,42.807,5.502,32.002,5.502L32.002,5.502z"/>
</g>
</svg>
