<?xml version="1.0" encoding="iso-8859-1"?>
<!-- Generator: Adobe Illustrator 14.0.0, SVG Export Plug-In . SVG Version: 6.00 Build 43363)  -->
<!DOCTYPE svg PUBLIC "-//W3C//DTD SVG 1.1//EN" "http://www.w3.org/Graphics/SVG/1.1/DTD/svg11.dtd">
<svg version="1.1" id="icon-m-bluetooth-devices-layer"
	 xmlns="http://www.w3.org/2000/svg" xmlns:xlink="http://www.w3.org/1999/xlink" x="0px" y="0px" width="64px" height="64px"
	 viewBox="0 0 64 64" style="enable-background:new 0 0 64 64;" xml:space="preserve">
<g id="icon-m-bluetooth-devices">
	<rect style="fill:none;" width="64" height="64"/>
	<path style="fill:#333333;" d="M31.623,11.49c-0.904-2.898-4.136-4.467-7.231-3.502L5.196,13.973
		c-3.094,0.965-4.865,4.092-3.96,6.99l11.768,37.756c0.901,2.885,4.136,4.459,7.232,3.494l19.193-5.984
		c3.096-0.965,4.858-4.111,3.964-6.984L31.623,11.49z M24.009,52.885l-2.183-7.002l7.014-2.188l2.182,7.002L24.009,52.885z
		 M13.469,45.123L5.221,18.669l21.817-6.8l8.247,26.453L13.469,45.123z"/>
	<path style="fill:#333333;" d="M61.402,10.076L25.185,1.558c-1.104-0.261-2.226,0.435-2.484,1.541l-0.347,1.466l0.886-0.275
		c0.978-0.305,1.99-0.46,3.004-0.46c2.326,0,4.473,0.798,6.14,2.163l0.471,0.418c1.124,1.055,1.988,2.389,2.468,3.928l0.493,1.58
		c1.86-0.91,4.034-1.21,6.208-0.701c4.999,1.178,8.1,6.191,6.924,11.199c-0.897,3.806-4.014,6.514-7.654,7.074l1.895,6.076
		l11.58,2.723c1.103,0.261,2.227-0.437,2.485-1.543l5.688-24.183C63.201,11.458,62.508,10.336,61.402,10.076z M60.172,13.771
		l-0.368,1.582c-0.242,1.037-1.288,1.688-2.327,1.447l-3.678-0.857c-1.037-0.243-1.69-1.289-1.448-2.326l0.369-1.582
		c0.242-1.039,1.288-1.689,2.327-1.447l3.678,0.857C59.762,11.686,60.413,12.732,60.172,13.771z"/>
</g>
</svg>
