<?xml version="1.0" encoding="iso-8859-1"?>
<!-- Generator: Adobe Illustrator 14.0.0, SVG Export Plug-In . SVG Version: 6.00 Build 43363)  -->
<!DOCTYPE svg PUBLIC "-//W3C//DTD SVG 1.1//EN" "http://www.w3.org/Graphics/SVG/1.1/DTD/svg11.dtd">
<svg version="1.1" id="icon-m-common-device-root-layer"
	 xmlns="http://www.w3.org/2000/svg" xmlns:xlink="http://www.w3.org/1999/xlink" x="0px" y="0px" width="64px" height="64px"
	 viewBox="0 0 64 64" style="enable-background:new 0 0 64 64;" xml:space="preserve">
<g id="icon-m-common-device-root">
	<rect style="fill:none;" width="64" height="64"/>
	<path style="fill:#333333;" d="M45.993,64c1.12,0,2.11-0.921,2.318-2.003c0,0,1.044-5.299,1.044-6.42V8.423
		c0-1.121-1.044-6.42-1.044-6.42C48.104,0.921,47.113,0,45.993,0H18.006c-1.121,0-2.11,0.921-2.318,2.003
		c0,0-1.044,5.299-1.044,6.42v47.154c0,1.121,1.044,6.42,1.044,6.42C15.896,63.079,16.886,64,18.006,64H45.993z M45.854,55.49
		H18.147V8.107h27.707V55.49z"/>
</g>
</svg>
