<?xml version="1.0" encoding="iso-8859-1"?>
<!-- Generator: Adobe Illustrator 14.0.0, SVG Export Plug-In . SVG Version: 6.00 Build 43363)  -->
<!DOCTYPE svg PUBLIC "-//W3C//DTD SVG 1.1//EN" "http://www.w3.org/Graphics/SVG/1.1/DTD/svg11.dtd">
<svg version="1.1" id="icon-m-common-pages4-layer" xmlns="http://www.w3.org/2000/svg" xmlns:xlink="http://www.w3.org/1999/xlink"
	 x="0px" y="0px" width="64px" height="64px" viewBox="0 0 64 64" style="enable-background:new 0 0 64 64;" xml:space="preserve">
<g id="icon-m-common-pages4">
	<rect style="fill:none;" width="64" height="64"/>
	<path style="fill:#333333;" d="M27,31.363V0H0v36h24.191C24.954,34.344,25.897,32.79,27,31.363z M3,33.246V2.99h21v30.256H3z"/>
	<path style="fill:#333333;" d="M34,25.229V2.99h21v20.768c1.038,0.422,2.039,0.914,3,1.471V0H31v27.285
		C31.944,26.526,32.947,25.84,34,25.229z"/>
	<polygon style="fill:#333333;" points="46.248,48.539 46.248,43.865 43.467,48.539 	"/>
	<path style="fill:#333333;" d="M46,28c-9.941,0-18,8.06-18,18c0,9.942,8.059,18,18,18s18-8.058,18-18C64,36.06,55.941,28,46,28z
		 M54.252,52.976h-2.176v4.641h-5.828v-4.641h-8.5v-3.603l9.171-14.99h5.157v14.156h2.176V52.976z"/>
</g>
</svg>
