<?xml version="1.0" encoding="iso-8859-1"?>
<!-- Generator: Adobe Illustrator 14.0.0, SVG Export Plug-In . SVG Version: 6.00 Build 43363)  -->
<!DOCTYPE svg PUBLIC "-//W3C//DTD SVG 1.1//EN" "http://www.w3.org/Graphics/SVG/1.1/DTD/svg11.dtd">
<svg version="1.1" id="icon-m-gallery-metadata-edited-layer"
	 xmlns="http://www.w3.org/2000/svg" xmlns:xlink="http://www.w3.org/1999/xlink" x="0px" y="0px" width="64px" height="64px"
	 viewBox="0 0 64 64" style="enable-background:new 0 0 64 64;" xml:space="preserve">
<g id="icon-m-gallery-metadata-edited">
	<rect style="fill:none;" width="64" height="64"/>
	<polygon style="fill:#333333;" points="38.671,0.359 38.671,22.234 59.873,22.234 59.873,21.561 	"/>
	<path style="fill:#333333;" d="M38.154,27.396c-2.562,0-4.646-2.083-4.646-4.646V0H6.193C5.057,0,4.129,0.93,4.129,2.065v59.87
		C4.129,63.071,5.057,64,6.193,64h51.614c1.134,0,2.065-0.929,2.065-2.064v-34.54H38.154z M11.992,11.176h17.547v5.161H11.992
		V11.176z M11.992,22.276h17.547v5.161H11.992V22.276z M52.71,56.222H11.992V34.201H52.71V56.222z"/>
	<polygon style="fill:#333333;" points="30.924,46.944 22.115,43.782 30.924,40.621 30.924,37.407 19.102,42.227 19.102,45.339 
		30.924,50.182 	"/>
	<path style="fill:#333333;" d="M37.527,52.892c1.931,0,3.238-0.651,4.394-2.231l0.55,2.056h2.438v-9.811
		c0-3.59-2.463-4.818-5.625-4.818c-1.582,0-3.312,0.274-4.92,0.678v2.409c1.229-0.377,2.584-0.68,3.791-0.68
		c1.731,0,2.709,0.579,2.709,2.361v1.103c-4.343,0.077-7.807,0.579-7.807,4.693C33.057,51.412,34.764,52.892,37.527,52.892z
		 M39.936,45.966h0.928v1.958c0,1.606-0.65,2.686-2.156,2.686c-1.18,0-1.658-0.829-1.658-2.031
		C37.049,46.694,38.253,45.966,39.936,45.966z"/>
</g>
</svg>
