<?xml version="1.0" encoding="iso-8859-1"?>
<!-- Generator: Adobe Illustrator 14.0.0, SVG Export Plug-In . SVG Version: 6.00 Build 43363)  -->
<!DOCTYPE svg PUBLIC "-//W3C//DTD SVG 1.1//EN" "http://www.w3.org/Graphics/SVG/1.1/DTD/svg11.dtd">
<svg version="1.1" id="icon-m-toolbar-save-as-layer"
	 xmlns="http://www.w3.org/2000/svg" xmlns:xlink="http://www.w3.org/1999/xlink" x="0px" y="0px" width="32px" height="32px"
	 viewBox="0 0 32 32" style="enable-background:new 0 0 32 32;" xml:space="preserve">
<g id="icon-m-toolbar-save-as">
	<rect style="fill:none;" width="32" height="32"/>
	<g>
		<path style="fill:#FFFFFF;" d="M31.596,4.116l-3.702-3.714c-0.206-0.203-0.54-0.203-0.746,0L16.506,10.943
			c-0.203,0.204-0.446,0.597-0.539,0.872l-1.9,5.702c-0.09,0.274,0.06,0.424,0.335,0.334l5.695-1.901
			c0.272-0.091,0.665-0.333,0.87-0.539l10.629-10.55C31.801,4.656,31.801,4.32,31.596,4.116z M19.906,14.667l-2.272,0.759
			l-1.144-1.143l0.758-2.277l1.009-1.009l2.634,2.685L19.906,14.667z"/>
		<rect x="6.843" y="21.508" style="fill:#FFFFFF;" width="8.192" height="1.637"/>
		<rect x="6.896" y="25.347" style="fill:#FFFFFF;" width="4.91" height="1.638"/>
		<path style="fill:#FFFFFF;" d="M20.897,18.747l-3.155,1.052c0.012,0.056,0.018,0.111,0.018,0.17v8.455
			c0,0.449-0.367,0.818-0.817,0.818H4.975c-0.45,0-0.819-0.369-0.819-0.818v-8.455c0-0.45,0.369-0.818,0.819-0.818h6.342
			c-0.407-0.771-0.482-1.68-0.194-2.558l0.175-0.526H5.479c-0.225,0-0.41-0.184-0.41-0.409v-5.324h-4
			c-0.45,0-0.819,0.369-0.819,0.819v19.779c0,0.45,0.369,0.818,0.819,0.818h19.779c0.45,0,0.819-0.368,0.819-0.818V18.399
			C21.41,18.538,21.149,18.662,20.897,18.747z"/>
		<path style="fill:#FFFFFF;" d="M11.289,13.951h0.713l1.024-3.073c0.066-0.195,0.153-0.396,0.252-0.595H10.88v3.259
			C10.88,13.768,11.063,13.951,11.289,13.951z"/>
	</g>
</g>
</svg>
