<?xml version="1.0" encoding="iso-8859-1"?>
<!-- Generator: Adobe Illustrator 14.0.0, SVG Export Plug-In . SVG Version: 6.00 Build 43363)  -->
<!DOCTYPE svg PUBLIC "-//W3C//DTD SVG 1.1//EN" "http://www.w3.org/Graphics/SVG/1.1/DTD/svg11.dtd">
<svg version="1.1" id="icon-m-backup-newest-on-top-layer"
	 xmlns="http://www.w3.org/2000/svg" xmlns:xlink="http://www.w3.org/1999/xlink" x="0px" y="0px" width="64px" height="64px"
	 viewBox="0 0 64 64" style="enable-background:new 0 0 64 64;" xml:space="preserve">
<g id="icon-m-backup-newest-on-top">
	<rect x="6.921" y="57.079" style="fill:#333333;" width="38.375" height="6"/>
	<rect x="6.87" y="41.356" style="fill:#333333;" width="38.375" height="6"/>
	<path style="fill:#333333;" d="M57.092,17.919c-0.676-6.538-6.216-11.654-12.93-11.654h-7.387v-4.11c0-1.1-0.779-1.549-1.732-1
		L22.638,8.317c-0.953,0.55-0.955,1.454-0.006,2.01l12.417,7.265c0.949,0.557,1.727,0.11,1.727-0.99v-4.337h7.387
		c3.754,0,6.818,2.973,6.984,6.688c-0.166,3.714-3.23,6.688-6.984,6.688H6.87v6h37.292c6.957,0,12.639-5.497,12.968-12.375
		L57.092,17.919z"/>
	<rect style="fill:none;" width="64" height="64"/>
</g>
</svg>
