<?xml version="1.0" encoding="iso-8859-1"?>
<!-- Generator: Adobe Illustrator 14.0.0, SVG Export Plug-In . SVG Version: 6.00 Build 43363)  -->
<!DOCTYPE svg PUBLIC "-//W3C//DTD SVG 1.1//EN" "http://www.w3.org/Graphics/SVG/1.1/DTD/svg11.dtd">
<svg version="1.1" id="icon-m-camera-resolution-35m-layer"
	 xmlns="http://www.w3.org/2000/svg" xmlns:xlink="http://www.w3.org/1999/xlink" x="0px" y="0px" width="64px" height="64px"
	 viewBox="0 0 64 64" style="enable-background:new 0 0 64 64;" xml:space="preserve">
<g id="icon-m-camera-resolution-35m">
	<rect style="fill:none;" width="64" height="64"/>
	<path style="fill:#333333;" d="M11.889,47.804c-1.15,0-2.35,0.3-3.549,0.625v-2.425c1.3-0.324,2.824-0.6,4.374-0.6
		c3.424,0,5.898,1.15,5.898,4.523c0,2.125-1.175,3.574-3.3,4.225c2.35,0.425,3.624,2.024,3.624,4.249
		c0,3.999-2.523,5.599-6.948,5.599c-1.475,0-2.774-0.2-4.199-0.575V61c1.5,0.351,2.674,0.601,3.799,0.601
		c2.3,0,3.199-1.101,3.199-3.124c0-2.675-1.549-3.15-5.398-3.15v-2.299c3.699,0,5.174-0.4,5.174-2.824
		C14.563,48.578,13.664,47.804,11.889,47.804z"/>
	<path style="fill:#333333;" d="M22.964,64c-1.225,0-2.199-0.975-2.199-2.199s0.975-2.225,2.199-2.225s2.225,1,2.225,2.225
		S24.188,64,22.964,64z"/>
	<path style="fill:#333333;" d="M31.113,52.127c0.324-0.049,0.725-0.049,1.1-0.049c3.524,0,5.674,1.924,5.674,5.748
		c0,4.148-2.125,6.174-6.773,6.174c-1.475,0-2.949-0.225-4.274-0.551V61c1.25,0.325,2.375,0.601,3.549,0.601
		c2.399,0,3.35-1.2,3.35-3.649c0-2.125-1.101-3.398-3.675-3.398c-0.8,0-1.875,0.024-2.649,0.125v-9.073h9.772v2.399h-6.073V52.127z"
		/>
	<path style="fill:#333333;" d="M56.21,63.8h-4.024V51.728l-3.174,6.149h-1.5l-3.124-6.149V63.8h-4.124V45.604h3.6l4.398,8.598
		l4.398-8.598h3.55V63.8z"/>
	<polygon style="fill:#333333;" points="51.566,39.112 51.566,0 38.521,0 38.521,13.043 25.478,13.043 25.478,26.089 25.478,26.087 
		12.434,26.087 12.434,39.114 	"/>
</g>
</svg>
