<?xml version="1.0" encoding="iso-8859-1"?>
<!-- Generator: Adobe Illustrator 14.0.0, SVG Export Plug-In . SVG Version: 6.00 Build 43363)  -->
<!DOCTYPE svg PUBLIC "-//W3C//DTD SVG 1.1//EN" "http://www.w3.org/Graphics/SVG/1.1/DTD/svg11.dtd">
<svg version="1.1" id="icon-s-email-priority-layer"
	 xmlns="http://www.w3.org/2000/svg" xmlns:xlink="http://www.w3.org/1999/xlink" x="0px" y="0px" width="6px" height="18px"
	 viewBox="0 0 6 18" style="enable-background:new 0 0 6 18;" xml:space="preserve">
<g id="icon-s-email-priority">
	<rect style="fill:none;" width="6" height="18"/>
	<path style="fill:#333333;" d="M0.873,1.186C0.873,0.532,1.36,0,1.954,0h2.262c0.595,0,1.079,0.532,1.079,1.186v8.004
		c0,0.648-0.484,1.182-1.079,1.182H1.954c-0.594,0-1.082-0.533-1.082-1.182V1.186z"/>
	<path style="fill:#333333;" d="M3.001,18c-1.527,0-2.765-1.236-2.765-2.766c0-1.524,1.237-2.762,2.765-2.762
		s2.763,1.237,2.763,2.762C5.764,16.764,4.528,18,3.001,18z"/>
</g>
</svg>
