<?xml version="1.0" encoding="iso-8859-1"?>
<!-- Generator: Adobe Illustrator 14.0.0, SVG Export Plug-In . SVG Version: 6.00 Build 43363)  -->
<!DOCTYPE svg PUBLIC "-//W3C//DTD SVG 1.1//EN" "http://www.w3.org/Graphics/SVG/1.1/DTD/svg11.dtd">
<svg version="1.1" id="icon-m-outgoing-layer" xmlns="http://www.w3.org/2000/svg" xmlns:xlink="http://www.w3.org/1999/xlink"
	 x="0px" y="0px" width="64px" height="64px" viewBox="0 0 64 64" style="enable-background:new 0 0 64 64;" xml:space="preserve">
<g id="icon-m-outgoing">
	<rect style="fill:none;" width="64" height="64"/>
	<path style="fill:#333333;" d="M31.996,0C14.337,0,0,14.324,0,31.98C0,49.658,14.337,64,31.996,64C49.669,64,64,49.658,64,31.98
		C64,14.324,49.669,0,31.996,0z M48.286,33.304l-9.795,0.003v12.984c0,0.613-0.482,1.279-1.277,1.279H26.517
		c-0.706,0-1.277-0.566-1.277-1.279V33.304h-9.881c-0.961,0-1.785-1.204-0.947-2.13L30.919,15.22
		c0.506-0.556,1.388-0.562,1.894,0.005l16.421,15.949C50.228,32.275,49.147,33.304,48.286,33.304z"/>
</g>
</svg>
