<?xml version="1.0" encoding="iso-8859-1"?>
<!-- Generator: Adobe Illustrator 14.0.0, SVG Export Plug-In . SVG Version: 6.00 Build 43363)  -->
<!DOCTYPE svg PUBLIC "-//W3C//DTD SVG 1.1//EN" "http://www.w3.org/Graphics/SVG/1.1/DTD/svg11.dtd">
<svg version="1.1" id="icon-m-email-message-create-layer"
	 xmlns="http://www.w3.org/2000/svg" xmlns:xlink="http://www.w3.org/1999/xlink" x="0px" y="0px" width="64px" height="64px"
	 viewBox="0 0 64 64" style="enable-background:new 0 0 64 64;" xml:space="preserve">
<g id="icon-m-email-message-create">
	<rect style="fill:none;" width="64" height="64"/>
	<path style="fill:#333333;" d="M40.543,19.83c-0.195-2.855-2.582-5.148-5.451-5.148H5.51c-2.885,0-5.269,2.293-5.465,5.148
		l20.254,8.957L40.543,19.83z"/>
	<path style="fill:#333333;" d="M40.562,27.51v-1.656L20.9,34.527l-0.601,0.26l-0.612-0.26L0.025,25.854v12.256
		c0,3.055,2.473,5.531,5.485,5.531h25.809l3.1-9.344c0.168-0.5,0.607-1.217,0.979-1.59L40.562,27.51z"/>
	<path style="fill:#333333;" d="M40.562,19.822l-0.02,0.008c0.01,0.125,0.02,0.25,0.02,0.379V19.822z"/>
	<path style="fill:#333333;" d="M0.025,19.822v0.387c0-0.129,0.011-0.254,0.02-0.379L0.025,19.822z"/>
	<path style="fill:#333333;" d="M38.02,38.209L34.504,48.66c-0.168,0.502,0.109,0.779,0.617,0.611l10.537-3.48
		c0.154-0.051,0.326-0.133,0.5-0.223l-7.896-7.885C38.162,37.867,38.074,38.049,38.02,38.209z"/>
	<path style="fill:#333333;" d="M63.689,27.158l-6.879-6.83c-0.379-0.375-0.998-0.375-1.377,0l-13.268,13.16l8.229,8.215
		l13.295-13.182C64.068,28.146,64.068,27.531,63.689,27.158z"/>
</g>
</svg>
