<?xml version="1.0" encoding="iso-8859-1"?>
<!-- Generator: Adobe Illustrator 13.0.2, SVG Export Plug-In . SVG Version: 6.00 Build 14948)  -->
<!DOCTYPE svg PUBLIC "-//W3C//DTD SVG 1.1//EN" "http://www.w3.org/Graphics/SVG/1.1/DTD/svg11.dtd">
<svg version="1.1" xmlns="http://www.w3.org/2000/svg" xmlns:xlink="http://www.w3.org/1999/xlink" x="0px" y="0px" width="280px"
	 height="280px" viewBox="0 0 280 280" style="enable-background:new 0 0 280 280;" xml:space="preserve">
	<g id="icon-l-dopplr">
		<rect style="fill:none;" width="280" height="280"/>
		<rect id="_x3C_Slice_x3E__6_" style="fill:none;" width="280" height="280"/>
		<rect x="11.201" y="127.854" style="fill-rule:evenodd;clip-rule:evenodd;fill:#CD1F36;" width="23.19" height="23.195"/>
		<rect x="34.392" y="127.854" style="fill-rule:evenodd;clip-rule:evenodd;fill:#F2673A;" width="23.194" height="23.195"/>
		<rect x="57.585" y="127.854" style="fill-rule:evenodd;clip-rule:evenodd;fill:#CCCC65;" width="23.19" height="23.195"/>
		<rect x="80.776" y="127.854" style="fill-rule:evenodd;clip-rule:evenodd;fill:#99CC68;" width="23.192" height="23.195"/>
		<rect x="103.968" y="127.854" style="fill-rule:evenodd;clip-rule:evenodd;fill:#3BC0C4;" width="23.192" height="23.195"/>
		<rect x="127.16" y="127.854" style="fill-rule:evenodd;clip-rule:evenodd;fill:#363896;" width="23.194" height="23.195"/>
		<g>
			<path style="fill:#4D4D4D;" d="M163.153,150.028v-21.333h7.289c2.37,0,4.593,0.146,6.577,1.599
				c2.818,2.044,3.555,6.193,3.555,9.034c0,2.822-0.62,5.959-2.574,8.097c-1.958,2.19-4.742,2.604-7.558,2.604H163.153z
				 M165.168,148.312H170c1.805,0,3.375-0.118,5.005-0.978c2.843-1.456,3.556-5.098,3.556-8.006c0-3.104-0.681-6.52-3.676-8.117
				c-1.273-0.68-3.105-0.799-4.885-0.799h-4.832V148.312z"/>
			<path style="fill:#4D4D4D;" d="M192.374,128.129c6.666,0,10.041,5.013,10.041,11.265c0,6.129-3.375,11.196-9.956,11.196
				c-6.576,0-9.926-5.067-9.926-11.196C182.501,133.166,186.002,128.129,192.374,128.129z M200.402,139.394
				c0-5.931-3.052-9.548-7.974-9.548c-5.479,0-7.881,4.598-7.881,9.548c0,5.032,2.37,9.481,7.939,9.481
				C198.03,148.875,200.402,144.372,200.402,139.394z"/>
			<path style="fill:#4D4D4D;" d="M205.143,150.028v-21.333h7.793c5.545,0,6.967,2.752,6.967,5.954c0,4.771-4.241,5.958-8.181,5.958
				h-4.565v9.421H205.143z M211.781,138.885c3.764,0,6.104-0.767,6.104-4.385c0-2.666-1.718-4.088-5.511-4.088h-5.219v8.473H211.781
				z"/>
			<path style="fill:#4D4D4D;" d="M222.061,150.028v-21.333h7.797c5.541,0,6.964,2.752,6.964,5.954c0,4.771-4.235,5.958-8.176,5.958
				h-4.565v9.421H222.061z M228.697,138.885c3.77,0,6.109-0.767,6.109-4.385c0-2.666-1.72-4.088-5.516-4.088h-5.211v8.473H228.697z"
				/>
			<path style="fill:#4D4D4D;" d="M239.072,150.028v-21.333h2.016v19.616h11.439v1.717H239.072z"/>
			<path style="fill:#4D4D4D;" d="M256.352,140.338v9.69h-2.018v-21.333h8.36c4.679,0,7.261,1.655,7.261,5.602
				c0,2.695-1.011,4.116-3.471,5.213c2.52,0.861,2.669,3.525,2.729,5.777c0.088,3.234,0.353,4.12,0.885,4.532v0.209h-2.221
				c-0.83-1.454-0.623-5.454-0.947-7.079c-0.474-2.314-2.223-2.611-4.235-2.611H256.352z M262.629,138.623
				c2.994,0,5.311-1.246,5.311-4.242c0-3.199-2.492-3.969-5.191-3.969h-6.396v8.211H262.629z"/>
		</g>
	</g>
</svg>
