<?xml version="1.0" encoding="iso-8859-1"?>
<!-- Generator: Adobe Illustrator 14.0.0, SVG Export Plug-In . SVG Version: 6.00 Build 43363)  -->
<!DOCTYPE svg PUBLIC "-//W3C//DTD SVG 1.1//EN" "http://www.w3.org/Graphics/SVG/1.1/DTD/svg11.dtd">
<svg version="1.1" id="icon-m-music-video-shuffle-off-layer"
	 xmlns="http://www.w3.org/2000/svg" xmlns:xlink="http://www.w3.org/1999/xlink" x="0px" y="0px" width="64px" height="64px"
	 viewBox="0 0 64 64" style="enable-background:new 0 0 64 64;" xml:space="preserve">
<g id="icon-m-music-video-shuffle-off">
	<rect style="fill:none;" width="64" height="64"/>
	<path style="fill:#333333;" d="M17.69,15.277l0.363,0.014c1.57,0.056,3.024,0.721,4.093,1.875l0.082,0.086l0.01,0.013l0.037,0.042
		c0.184,0.211,0.33,0.398,0.447,0.572l0.038,0.057l0.042,0.054l0.381,0.491l-4.005,5.154c-1.682-1.396-3.792-2.204-6.019-2.266
		h-0.027h-0.028H2v-6.092H17.69 M18.124,13.277H0v10.092h13.104c2.391,0.066,4.51,1.193,5.907,2.936h0.004l0.311,0.4l6.391-8.225
		l-1.335-1.719c-0.182-0.27-0.385-0.523-0.599-0.77l-0.153-0.197l-0.016,0.012c-1.378-1.487-3.32-2.438-5.489-2.516V13.277
		L18.124,13.277z"/>
	<path style="fill:#333333;" d="M55.188,39.202l5.975,5.934l-5.975,5.934v-0.926v-2h-2h-9.716v-0.059l-2.05,0.052l-0.097,0.005
		h-0.001c-1.662-0.01-3.221-0.718-4.328-1.957l-0.198-0.254l-0.318-0.41l4.114-5.295c1.503,1.084,3.284,1.717,5.187,1.823
		l0.055,0.003h0.056h7.297h2v-2V39.202 M53.188,34.399v5.652h-7.297c-2.226-0.123-4.193-1.168-5.547-2.763l-6.396,8.231l1.271,1.637
		v0.037h0.011c1.441,1.793,3.646,2.947,6.127,2.947c0.038,0,0.077-0.004,0.115-0.006v0.008h11.716v5.729L64,45.136L53.188,34.399
		L53.188,34.399z"/>
	<path style="fill:#333333;" d="M55.188,12.933l5.975,5.933l-5.975,5.933v-0.849v-2h-2h-7.297h-0.055l-0.055,0.002
		c-2.752,0.152-5.331,1.462-7.077,3.596l-0.016,0.02l-0.016,0.02L22.802,46.011l-0.042,0.054l-0.038,0.056
		c-0.117,0.175-0.264,0.362-0.447,0.574l-0.033,0.037l-0.095,0.104c-1.069,1.152-2.522,1.818-4.093,1.876l-0.311,0.013H2v-6.093
		h11.104h0.028l0.027-0.001c2.561-0.07,4.969-1.127,6.746-2.934h0.088l0.601-0.772l16.204-20.853l0.125-0.172
		c1.118-1.299,2.721-2.04,4.397-2.04l0.074,0.003l0.026,0.001l2.051,0.047v-0.053h9.716h2v-2V12.933 M53.188,8.127v5.73H41.472
		v0.007c-0.038-0.001-0.077-0.005-0.115-0.005c-2.481,0-4.686,1.152-6.127,2.947h-0.011v0.037L19.015,37.696h-0.004
		c-1.397,1.742-3.517,2.869-5.907,2.935H0v10.093h18.124V50.71c2.169-0.079,4.111-1.027,5.489-2.516l0.016,0.012l0.153-0.199
		c0.214-0.244,0.417-0.498,0.599-0.77l15.871-20.424c1.354-1.655,3.365-2.739,5.639-2.864h7.297v5.654L64,18.865L53.188,8.127
		L53.188,8.127z"/>
</g>
</svg>
