<?xml version="1.0" encoding="iso-8859-1"?>
<!-- Generator: Adobe Illustrator 14.0.0, SVG Export Plug-In . SVG Version: 6.00 Build 43363)  -->
<!DOCTYPE svg PUBLIC "-//W3C//DTD SVG 1.1//EN" "http://www.w3.org/Graphics/SVG/1.1/DTD/svg11.dtd">
<svg version="1.1" id="icon-m-organizer-note-unread-layer"
	 xmlns="http://www.w3.org/2000/svg" xmlns:xlink="http://www.w3.org/1999/xlink" x="0px" y="0px" width="64px" height="64px"
	 viewBox="0 0 64 64" style="enable-background:new 0 0 64 64;" xml:space="preserve">
<g id="icon-m-organizer-note-unread">
	<rect style="fill:none;" width="64" height="64"/>
	<path style="fill:#333333;" d="M46,42c-3.617,0-7.047-0.809-10.127-2.248L8.894,39.761v-4.857H28.98
		c-1.284-1.292-2.42-2.731-3.385-4.286H8.894v-4.856h14.4C22.459,23.324,22,20.715,22,18c0-1.461,0.138-2.889,0.39-4.279h-8.087
		v2.402c0,1.277-1.045,2.324-2.322,2.324h-1.355c-1.277,0-2.322-1.047-2.322-2.324v-2.402H4.113c-1.202,0-2.186,0.983-2.186,2.186
		v45.907C1.927,63.018,2.911,64,4.113,64h42.629c1.201,0,2.186-0.982,2.186-2.187V41.814C47.967,41.934,46.992,42,46,42z
		 M24.894,48.761h-16v-4.857h16V48.761z"/>
	<path style="fill:#333333;" d="M46,0c-9.941,0-18,8.058-18,18c0,9.939,8.059,18,18,18s18-8.061,18-18C64,8.058,55.941,0,46,0z
		 M57.5,22.125l-2.685,4.336l-6.267-3.883v7.371h-5.098v-7.371l-6.268,3.883L34.5,22.125L41.16,18l-6.66-4.128l2.684-4.335
		l6.268,3.885V6.049h5.098v7.373l6.267-3.882l2.685,4.332L50.841,18L57.5,22.125z"/>
</g>
</svg>
