<?xml version="1.0" encoding="iso-8859-1"?>
<!-- Generator: Adobe Illustrator 14.0.0, SVG Export Plug-In . SVG Version: 6.00 Build 43363)  -->
<!DOCTYPE svg PUBLIC "-//W3C//DTD SVG 1.1//EN" "http://www.w3.org/Graphics/SVG/1.1/DTD/svg11.dtd">
<svg version="1.1" id="icon-m-messaging-smiley-very-happy-layer"
	 xmlns="http://www.w3.org/2000/svg" xmlns:xlink="http://www.w3.org/1999/xlink" x="0px" y="0px" width="64px" height="64px"
	 viewBox="0 0 64 64" style="enable-background:new 0 0 64 64;" xml:space="preserve">
<g id="icon-m-messaging-smiley-very-happy">
	<rect style="fill:none;" width="64" height="64"/>
	<path style="fill:#333333;" d="M32,37.289c-10.694,0-19.501-3.34-20.812-8.521C11.077,29.633,11,30.505,11,31.398
		c0,11.598,9.401,19.25,21,19.25s21-7.652,21-19.25c0-0.894-0.077-1.766-0.188-2.63C51.501,33.949,42.693,37.289,32,37.289z"/>
	<path style="fill:#333333;" d="M40.654,18.289c-1.439,0-2.772,0.346-3.924,0.926c0.943-2.079,3.271-3.566,6.048-3.566
		c3.608,0,6.532,2.484,6.532,5.553c0,1.229-0.232,2.419-0.861,3.381C48.232,21.075,44.832,18.289,40.654,18.289z"/>
	<path style="fill:#333333;" d="M23.346,18.289c1.439,0,2.772,0.346,3.924,0.926c-0.944-2.079-3.272-3.566-6.048-3.566
		c-3.609,0-6.533,2.484-6.533,5.553c0,1.229,0.232,2.419,0.862,3.381C15.768,21.075,19.168,18.289,23.346,18.289z"/>
	<path style="fill:#333333;" d="M32,4c15.439,0,28,12.561,28,28S47.439,60,32,60S4,47.439,4,32S16.561,4,32,4 M32,0
		C14.327,0,0,14.327,0,32c0,17.674,14.327,32,32,32c17.674,0,32-14.326,32-32C64,14.327,49.674,0,32,0L32,0z"/>
</g>
</svg>
