<?xml version="1.0" encoding="iso-8859-1"?>
<!-- Generator: Adobe Illustrator 14.0.0, SVG Export Plug-In . SVG Version: 6.00 Build 43363)  -->
<!DOCTYPE svg PUBLIC "-//W3C//DTD SVG 1.1//EN" "http://www.w3.org/Graphics/SVG/1.1/DTD/svg11.dtd">
<svg version="1.1" id="icon-m-camera-flash-red-eye-screen-layer"
	 xmlns="http://www.w3.org/2000/svg" xmlns:xlink="http://www.w3.org/1999/xlink" x="0px" y="0px" width="24px" height="24px"
	 viewBox="0 0 24 24" style="enable-background:new 0 0 24 24;" xml:space="preserve">
<g id="icon-m-camera-flash-red-eye-screen">
	<rect style="fill:none;" width="24" height="24"/>
	<path style="fill:#FFFFFF;" d="M21.355,6.748l0.01-0.025l-0.108-0.162h-0.02c-0.042-0.044-0.105-0.109-0.175-0.185
		c-0.199-0.212-4.93-5.208-10.191-5.208c-5.263,0-9.993,4.996-10.192,5.209c-0.124,0.132-0.227,0.24-0.227,0.24L0.367,6.703
		l0.033,0.078v0.053l0.051,0.053c0,0.001,0.105,0.108,0.228,0.239c0.199,0.213,4.93,5.209,10.192,5.209
		c5.262,0,9.992-4.996,10.19-5.208l0.177-0.186h0.021l0.107-0.169L21.355,6.748z M3.457,6.686C3.493,6.646,7.062,2.88,10.871,2.88
		s7.377,3.767,7.412,3.805l0.062,0.066c-0.02,0.021-0.04,0.042-0.062,0.065c-0.035,0.038-3.602,3.807-7.412,3.807
		c-3.809,0-7.378-3.769-7.414-3.806L3.396,6.751C3.415,6.73,3.436,6.708,3.457,6.686z"/>
	<path style="fill:#FFFFFF;" d="M11.246,3.888v3.618H8.079c0.333,1.229,1.455,2.135,2.792,2.135c1.597,0,2.894-1.293,2.894-2.889
		C13.765,5.282,12.666,4.072,11.246,3.888z"/>
	<path style="fill:#FFFFFF;" d="M20.658,13.5h-2.348l-3.021,10.125h1.705l0.672-2.322h3.387l0.672,2.322h1.9L20.658,13.5z
		 M17.991,20.02l1.382-5.003l1.371,5.026L17.991,20.02z"/>
</g>
</svg>
