<?xml version="1.0" encoding="iso-8859-1"?>
<!-- Generator: Adobe Illustrator 14.0.0, SVG Export Plug-In . SVG Version: 6.00 Build 43363)  -->
<!DOCTYPE svg PUBLIC "-//W3C//DTD SVG 1.1//EN" "http://www.w3.org/Graphics/SVG/1.1/DTD/svg11.dtd">
<svg version="1.1" xmlns="http://www.w3.org/2000/svg" xmlns:xlink="http://www.w3.org/1999/xlink" x="0px" y="0px" width="120px"
	 height="270px" viewBox="0 0 120 270" style="enable-background:new 0 0 120 270;" xml:space="preserve">
<g id="gallerycustomassets-layer">
</g>
<g id="dui-theme-rd">
	<g id="gallerycustomassets">
		<g id="GalleryThemeTemplateHelper">
			<g>
				<path style="fill:#B3B3B3;" d="M16,268.883c-8.271,0-15-6.729-15-15V16C1,7.729,7.729,1,16,1h88c8.271,0,15,6.729,15,15v237.883
					c0,8.271-6.729,15-15,15H16z"/>
				<g>
					<path d="M104,2c7.72,0,14,6.28,14,14v237.883c0,7.72-6.28,14-14,14H16c-7.72,0-14-6.28-14-14V16C2,8.28,8.28,2,16,2H104 M104,0
						H16C7.2,0,0,7.2,0,16v237.883c0,8.8,7.2,16,16,16h88c8.8,0,16-7.2,16-16V16C120,7.2,112.8,0,104,0L104,0z"/>
				</g>
			</g>
			<path style="fill:#010101;" d="M35.215,33.521c-1.021,0.392-3.059,0.966-5.435,0.966c-2.665,0-4.86-0.679-6.583-2.322
				c-1.514-1.464-2.454-3.816-2.454-6.558c0-5.251,3.628-9.091,9.532-9.091c2.038,0,3.658,0.445,4.416,0.811l-0.574,1.854
				c-0.94-0.444-2.116-0.757-3.893-0.757c-4.283,0-7.078,2.663-7.078,7.078c0,4.467,2.663,7.104,6.789,7.104
				c1.488,0,2.51-0.208,3.031-0.47v-5.251h-3.553v-1.827h5.801V33.521z"/>
			<path style="fill:#010101;" d="M47.683,31.274c0,1.098,0.051,2.167,0.183,3.028h-2.062l-0.184-1.591h-0.078
				c-0.705,0.991-2.063,1.88-3.865,1.88c-2.561,0-3.866-1.803-3.866-3.632c0-3.055,2.716-4.727,7.601-4.7v-0.262
				c0-1.02-0.289-2.925-2.873-2.899c-1.201,0-2.431,0.341-3.317,0.94l-0.521-1.54c1.042-0.655,2.585-1.098,4.177-1.098
				c3.867,0,4.808,2.638,4.808,5.146V31.274z M45.462,27.853c-2.508-0.054-5.355,0.392-5.355,2.848c0,1.515,0.995,2.194,2.144,2.194
				c1.672,0,2.742-1.046,3.107-2.117c0.079-0.26,0.104-0.521,0.104-0.732V27.853z"/>
			<path style="fill:#010101;" d="M51.398,15.759h2.299v18.544h-2.299V15.759z"/>
			<path style="fill:#010101;" d="M57.566,15.759h2.299v18.544h-2.299V15.759z"/>
			<path style="fill:#010101;" d="M65.012,28.401c0.054,3.106,2.013,4.388,4.338,4.388c1.644,0,2.664-0.287,3.498-0.653l0.419,1.646
				c-0.81,0.366-2.218,0.81-4.23,0.81c-3.892,0-6.219-2.586-6.219-6.401c0-3.812,2.248-6.789,5.93-6.789
				c4.153,0,5.226,3.603,5.226,5.93c0,0.468-0.027,0.809-0.078,1.07H65.012z M71.752,26.755c0.025-1.436-0.602-3.707-3.188-3.707
				c-2.351,0-3.344,2.114-3.527,3.707H71.752z"/>
			<path style="fill:#010101;" d="M76.827,25.606c0-1.489-0.025-2.77-0.104-3.945h2.012l0.103,2.51h0.081
				c0.574-1.7,1.984-2.77,3.526-2.77c0.233,0,0.417,0.025,0.626,0.051v2.17c-0.234-0.054-0.471-0.054-0.783-0.054
				c-1.621,0-2.77,1.202-3.084,2.925c-0.051,0.314-0.076,0.706-0.076,1.072v6.737h-2.3V25.606z"/>
			<path style="fill:#010101;" d="M86.861,21.661l2.742,7.472c0.314,0.836,0.629,1.827,0.838,2.584h0.051
				c0.234-0.757,0.498-1.723,0.811-2.637l2.508-7.419h2.429l-3.448,9.014c-1.646,4.335-2.769,6.529-4.336,7.912
				c-1.148,0.968-2.246,1.358-2.82,1.463l-0.574-1.905c0.574-0.184,1.331-0.549,2.012-1.123c0.625-0.498,1.383-1.385,1.932-2.561
				c0.104-0.234,0.183-0.417,0.183-0.549c0-0.13-0.052-0.312-0.183-0.6l-4.65-11.651H86.861z"/>
		</g>
		<g id="image-editor-control-background">
			<g>
				<linearGradient id="SVGID_1_" gradientUnits="userSpaceOnUse" x1="57.4233" y1="243.793" x2="57.4233" y2="179.793">
					<stop  offset="0" style="stop-color:#000000"/>
					<stop  offset="0.49" style="stop-color:#000000"/>
					<stop  offset="0.497" style="stop-color:#0A0A0A"/>
					<stop  offset="0.582" style="stop-color:#111111"/>
					<stop  offset="0.702" style="stop-color:#232323"/>
					<stop  offset="0.842" style="stop-color:#414141"/>
					<stop  offset="0.98" style="stop-color:#666666"/>
					<stop  offset="1" style="stop-color:#666666"/>
				</linearGradient>
				<rect x="25.423" y="179.793" style="fill:url(#SVGID_1_);" width="64" height="64"/>
			</g>
		</g>
		<g id="image-editor-info-bar-background">
			<path style="fill:#808080;" d="M75.423,159.793c0,5.5-4.5,10-10,10h-30c-5.5,0-10-4.5-10-10v-28c0-5.5,4.5-10,10-10h30
				c5.5,0,10,4.5,10,10V159.793z"/>
			<path style="fill:#FFFFFF;" d="M75.423,157.793c0,5.5-4.5,10-10,10h-30c-5.5,0-10-4.5-10-10v-28c0-5.5,4.5-10,10-10h30
				c5.5,0,10,4.5,10,10V157.793z"/>
			<linearGradient id="SVGID_2_" gradientUnits="userSpaceOnUse" x1="50.4224" y1="120.793" x2="50.4224" y2="168.7935">
				<stop  offset="0" style="stop-color:#F2F2F2"/>
				<stop  offset="1" style="stop-color:#D2D3D3"/>
			</linearGradient>
			<path style="fill:url(#SVGID_2_);" d="M75.423,158.793c0,5.5-4.5,10-10,10h-30c-5.5,0-10-4.5-10-10v-28c0-5.5,4.5-10,10-10h30
				c5.5,0,10,4.5,10,10V158.793z"/>
		</g>
		<g id="image-editor-info-bar-background-pressed">
			<path style="fill:#808080;" d="M75.423,99.793c0,5.5-4.5,10-10,10h-30c-5.5,0-10-4.5-10-10v-28c0-5.5,4.5-10,10-10h30
				c5.5,0,10,4.5,10,10V99.793z"/>
			<path style="fill:#FFFFFF;" d="M75.423,97.793c0,5.5-4.5,10-10,10h-30c-5.5,0-10-4.5-10-10v-28c0-5.5,4.5-10,10-10h30
				c5.5,0,10,4.5,10,10V97.793z"/>
			<linearGradient id="SVGID_3_" gradientUnits="userSpaceOnUse" x1="50.4224" y1="60.793" x2="50.4224" y2="108.793">
				<stop  offset="0" style="stop-color:#74CCD4"/>
				<stop  offset="0.1301" style="stop-color:#66C2D6"/>
				<stop  offset="0.4156" style="stop-color:#4BB5DC"/>
				<stop  offset="0.7046" style="stop-color:#35ADDF"/>
				<stop  offset="1" style="stop-color:#2AAAE2"/>
			</linearGradient>
			<path style="fill:url(#SVGID_3_);" d="M75.423,98.793c0,5.5-4.5,10-10,10h-30c-5.5,0-10-4.5-10-10v-28c0-5.5,4.5-10,10-10h30
				c5.5,0,10,4.5,10,10V98.793z"/>
		</g>
	</g>
</g>
</svg>
