<?xml version="1.0" encoding="iso-8859-1"?>
<!-- Generator: Adobe Illustrator 14.0.0, SVG Export Plug-In . SVG Version: 6.00 Build 43363)  -->
<!DOCTYPE svg PUBLIC "-//W3C//DTD SVG 1.1//EN" "http://www.w3.org/Graphics/SVG/1.1/DTD/svg11.dtd">
<svg version="1.1" xmlns="http://www.w3.org/2000/svg" xmlns:xlink="http://www.w3.org/1999/xlink" x="0px" y="0px" width="200px"
	 height="300px" viewBox="0 0 200 300" style="enable-background:new 0 0 200 300;" xml:space="preserve">
<g id="office-tools-layer">
</g>
<g id="dui-theme-rd">
	<g id="office-tools_1_">
		<g id="officetoolsThemeTemplateHelper">
			<g>
				<g>
					<path style="fill:#B3B3B3;" d="M16,299c-8.271,0-15-6.729-15-15V16C1,7.729,7.729,1,16,1h168c8.271,0,15,6.729,15,15v268
						c0,8.271-6.729,15-15,15H16z"/>
					<g>
						<path d="M184,2c7.72,0,14,6.28,14,14v268c0,7.72-6.28,14-14,14H16c-7.72,0-14-6.28-14-14V16C2,8.28,8.28,2,16,2H184 M184,0H16
							C7.2,0,0,7.2,0,16v268c0,8.8,7.2,16,16,16h168c8.8,0,16-7.2,16-16V16C200,7.2,192.8,0,184,0L184,0z"/>
					</g>
				</g>
				<path style="fill:#010101;" d="M62.18,12.521c0,2.146-1.499,3.082-2.891,3.082c-1.559,0-2.782-1.152-2.782-2.986
					c0-1.932,1.284-3.07,2.878-3.07C61.053,9.547,62.18,10.758,62.18,12.521z M57.586,12.58c0,1.271,0.721,2.231,1.752,2.231
					c1.007,0,1.763-0.947,1.763-2.255c0-0.983-0.491-2.219-1.739-2.219C58.126,10.338,57.586,11.489,57.586,12.58z"/>
				<path style="fill:#010101;" d="M70.783,7.987c-0.264-0.168-0.696-0.312-1.188-0.312c-1.104,0-1.439,0.779-1.439,1.703v0.287
					h3.382v5.805h-1.056V10.47h-2.326v5.001h-1.043V10.47h-2.447v5.001h-1.043V10.47h-0.805V9.666h0.805V9.463
					c0-0.721,0.203-1.439,0.695-1.92c0.336-0.348,0.84-0.562,1.486-0.562c0.396,0,0.805,0.143,1.02,0.252l-0.299,0.779
					c-0.18-0.108-0.456-0.204-0.721-0.204c-0.335,0-0.574,0.12-0.755,0.3c-0.288,0.312-0.384,0.84-0.384,1.344v0.215h2.447V9.343
					c0-1.523,0.898-2.519,2.529-2.519c0.528,0,1.141,0.168,1.452,0.371L70.783,7.987z"/>
				<path style="fill:#010101;" d="M77.432,15.268c-0.275,0.132-0.887,0.336-1.666,0.336c-1.752,0-2.891-1.188-2.891-2.963
					c0-1.787,1.223-3.094,3.118-3.094c0.624,0,1.175,0.155,1.463,0.312l-0.239,0.804c-0.252-0.133-0.648-0.275-1.224-0.275
					c-1.331,0-2.052,0.994-2.052,2.193c0,1.344,0.864,2.172,2.016,2.172c0.6,0,0.996-0.145,1.295-0.276L77.432,15.268z"/>
				<path style="fill:#010101;" d="M79.187,12.761c0.024,1.427,0.923,2.015,1.991,2.015c0.755,0,1.223-0.132,1.606-0.3l0.192,0.756
					c-0.372,0.168-1.02,0.372-1.943,0.372c-1.787,0-2.854-1.188-2.854-2.939c0-1.75,1.032-3.117,2.723-3.117
					c1.907,0,2.399,1.654,2.399,2.723c0,0.215-0.013,0.371-0.037,0.491H79.187z M82.281,12.005c0.012-0.659-0.276-1.702-1.464-1.702
					c-1.079,0-1.535,0.971-1.619,1.702H82.281z"/>
				<path style="fill:#010101;" d="M87.393,11.85v0.768h-2.962V11.85H87.393z"/>
				<path style="fill:#010101;" d="M89.902,8.275v1.391h1.511v0.804h-1.511v3.13c0,0.721,0.203,1.128,0.791,1.128
					c0.287,0,0.455-0.024,0.611-0.071l0.049,0.803c-0.205,0.072-0.528,0.145-0.936,0.145c-0.492,0-0.889-0.168-1.141-0.444
					c-0.287-0.323-0.407-0.839-0.407-1.522V10.47h-0.899V9.666h0.899V8.587L89.902,8.275z"/>
				<path style="fill:#010101;" d="M97.783,12.521c0,2.146-1.499,3.082-2.891,3.082c-1.559,0-2.782-1.152-2.782-2.986
					c0-1.932,1.284-3.07,2.878-3.07C96.656,9.547,97.783,10.758,97.783,12.521z M93.189,12.58c0,1.271,0.721,2.231,1.752,2.231
					c1.007,0,1.763-0.947,1.763-2.255c0-0.983-0.491-2.219-1.739-2.219C93.729,10.338,93.189,11.489,93.189,12.58z"/>
				<path style="fill:#010101;" d="M104.371,12.521c0,2.146-1.499,3.082-2.891,3.082c-1.559,0-2.782-1.152-2.782-2.986
					c0-1.932,1.284-3.07,2.878-3.07C103.244,9.547,104.371,10.758,104.371,12.521z M99.777,12.58c0,1.271,0.721,2.231,1.752,2.231
					c1.007,0,1.763-0.947,1.763-2.255c0-0.983-0.491-2.219-1.739-2.219C100.317,10.338,99.777,11.489,99.777,12.58z"/>
				<path style="fill:#010101;" d="M105.706,6.956h1.056v8.515h-1.056V6.956z"/>
				<path style="fill:#010101;" d="M108.395,14.404c0.324,0.191,0.875,0.407,1.402,0.407c0.756,0,1.115-0.372,1.115-0.863
					c0-0.504-0.299-0.768-1.066-1.056c-1.056-0.384-1.547-0.947-1.547-1.643c0-0.936,0.768-1.703,2.002-1.703
					c0.588,0,1.104,0.155,1.416,0.359l-0.252,0.768c-0.229-0.145-0.648-0.348-1.188-0.348c-0.624,0-0.959,0.359-0.959,0.791
					c0,0.48,0.335,0.695,1.091,0.996c0.995,0.371,1.522,0.875,1.522,1.738c0,1.031-0.803,1.752-2.158,1.752
					c-0.636,0-1.223-0.168-1.631-0.408L108.395,14.404z"/>
			</g>
		</g>
		<g id="officetools-pagenumberindicator-background">
			
				<linearGradient id="SVGID_1_" gradientUnits="userSpaceOnUse" x1="-412.0059" y1="541.9785" x2="-411.0059" y2="541.9785" gradientTransform="matrix(0 -64 -64 0 34762.3125 -26274.375)">
				<stop  offset="0" style="stop-color:#46A3D6"/>
				<stop  offset="0.2823" style="stop-color:#4AA5D8"/>
				<stop  offset="0.51" style="stop-color:#55ACDC"/>
				<stop  offset="0.7185" style="stop-color:#67B8E3"/>
				<stop  offset="0.9146" style="stop-color:#7ECAEF"/>
				<stop  offset="1" style="stop-color:#8BD6F7"/>
			</linearGradient>
			<path style="fill:url(#SVGID_1_);" d="M137.666,94h-114c-5.5,0-10-4.5-10-10V40c0-5.5,4.5-10,10-10h114V94z"/>
		</g>
	</g>
</g>
</svg>
