<?xml version="1.0" encoding="iso-8859-1"?>
<!-- Generator: Adobe Illustrator 14.0.0, SVG Export Plug-In . SVG Version: 6.00 Build 43363)  -->
<!DOCTYPE svg PUBLIC "-//W3C//DTD SVG 1.1//EN" "http://www.w3.org/Graphics/SVG/1.1/DTD/svg11.dtd">
<svg version="1.1" id="icon-s-email-layer" xmlns="http://www.w3.org/2000/svg" xmlns:xlink="http://www.w3.org/1999/xlink" x="0px"
	 y="0px" width="18px" height="18px" viewBox="0 0 18 18" style="enable-background:new 0 0 18 18;" xml:space="preserve">
<g id="icon-s-email">
	<rect style="fill:none;" width="18" height="18"/>
	<g>
		<path style="fill:#333333;" d="M10.311,4.018h3.18c-0.518,2.824-0.771,4.927-0.771,6.313c0,0.842,0.096,1.391,0.285,1.654
			c0.189,0.262,0.512,0.393,0.967,0.393c0.584,0,1.041-0.331,1.381-1.004c0.336-0.666,0.5-1.604,0.5-2.815
			c0-2.139-0.547-3.791-1.654-4.973c-1.107-1.178-2.674-1.768-4.698-1.768c-2.121,0-3.85,0.621-5.188,1.859
			C2.966,4.916,2.296,6.629,2.296,8.813c0,2.447,0.615,4.283,1.851,5.507c1.235,1.226,3.086,1.837,5.555,1.837
			c1.46,0,2.995-0.264,4.597-0.797v1.846c-0.578,0.213-1.348,0.396-2.283,0.549c-0.947,0.15-1.772,0.227-2.496,0.227
			c-2.911,0-5.225-0.779-6.933-2.346c-1.711-1.563-2.569-3.801-2.569-6.718c0-1.817,0.4-3.396,1.199-4.738
			c0.796-1.34,1.929-2.368,3.39-3.084c1.46-0.721,3.077-1.078,4.846-1.078c2.703,0,4.799,0.746,6.293,2.236
			c1.494,1.492,2.236,3.565,2.236,6.211c0,1.771-0.4,3.136-1.211,4.097c-0.803,0.969-1.918,1.453-3.324,1.453
			c-0.65,0-1.219-0.176-1.707-0.539c-0.488-0.355-0.83-0.854-1.014-1.49c-0.774,1.351-1.826,2.029-3.154,2.029
			c-0.893,0-1.65-0.355-2.27-1.06c-0.618-0.71-0.933-1.667-0.933-2.879c0-1.891,0.543-3.371,1.618-4.447
			C7.067,4.557,8.506,4.018,10.311,4.018z M10.246,8.791l0.398-3.107h-0.77c-0.798,0-1.486,0.385-2.058,1.162
			C7.25,7.619,6.964,8.659,6.964,9.97c0,0.813,0.103,1.414,0.314,1.807c0.209,0.389,0.573,0.58,1.086,0.58
			C9.322,12.356,9.95,11.169,10.246,8.791z"/>
	</g>
</g>
</svg>
