<?xml version="1.0" encoding="iso-8859-1"?>
<!-- Generator: Adobe Illustrator 14.0.0, SVG Export Plug-In . SVG Version: 6.00 Build 43363)  -->
<!DOCTYPE svg PUBLIC "-//W3C//DTD SVG 1.1//EN" "http://www.w3.org/Graphics/SVG/1.1/DTD/svg11.dtd">
<svg version="1.1" id="icon-m-common-3g-layer" xmlns="http://www.w3.org/2000/svg" xmlns:xlink="http://www.w3.org/1999/xlink"
	 x="0px" y="0px" width="64px" height="64px" viewBox="0 0 64 64" style="enable-background:new 0 0 64 64;" xml:space="preserve">
<g id="icon-m-common-3g">
	<rect style="fill:none;" width="64" height="64"/>
	<path style="fill:#333333;" d="M43.455,36.377v2.715h1.807v2.631c0,1.656-0.686,2.864-2.143,2.864c-2.883,0-3.066-3.958-3.066-8.13
		c0-3.712,0.889-7.534,4.695-7.534c1.436,0,2.668,0.135,4.018,0.511v-2.704c-1.404-0.369-2.92-0.533-4.436-0.533
		c-7.059,0-9.168,4.817-9.168,10.315c0,5.303,0.93,10.767,7.184,10.767c1.773,0,3.377-0.815,4.186-2.039l0.572,1.823h2.752V36.377
		H43.455z"/>
	<path style="fill:#333333;" d="M26.635,31.087c3.537-1.073,5.49-3.446,5.49-6.943c0-5.544-4.108-7.436-9.813-7.436
		c-2.584,0-5.104,0.448-7.259,0.988v3.99c1.981-0.537,3.983-1.024,5.9-1.024c2.944,0,4.444,1.229,4.447,3.897
		c0,3.746-2.367,4.681-8.596,4.681v3.793c6.392,0,8.958,0.938,8.958,5.169c0,3.33-1.49,5.134-5.308,5.134
		c-1.88,0-3.818-0.414-6.312-0.984v3.999c2.368,0.611,4.355,0.941,7.266,0.941c7.146,0,11.209-2.632,11.209-9.221
		C32.618,34.417,30.501,31.791,26.635,31.087z"/>
</g>
</svg>
