<?xml version="1.0" encoding="iso-8859-1"?>
<!-- Generator: Adobe Illustrator 13.0.2, SVG Export Plug-In . SVG Version: 6.00 Build 14948)  -->
<!DOCTYPE svg PUBLIC "-//W3C//DTD SVG 1.1//EN" "http://www.w3.org/Graphics/SVG/1.1/DTD/svg11.dtd">
<svg version="1.1" xmlns="http://www.w3.org/2000/svg" xmlns:xlink="http://www.w3.org/1999/xlink" x="0px" y="0px" width="88px"
	 height="88px" viewBox="0 0 88 88" style="enable-background:new 0 0 88 88;" xml:space="preserve">
	<g id="icon-m-twitter">
		<rect id="_x3C_Slice_x3E__1_" style="fill:none;" width="88" height="88"/>
		<linearGradient id="SVGID_1_" gradientUnits="userSpaceOnUse" x1="44.6528" y1="6.8398" x2="44.6528" y2="84.1958">
			<stop  offset="0" style="stop-color:#E5E1DF"/>
			<stop  offset="0" style="stop-color:#F0EFF0"/>
			<stop  offset="0" style="stop-color:#F2F2F2"/>
			<stop  offset="0" style="stop-color:#FFFFFF"/>
			<stop  offset="0.4878" style="stop-color:#FBFCFE"/>
			<stop  offset="0.6635" style="stop-color:#F2F5FB"/>
			<stop  offset="0.7887" style="stop-color:#E7EDF8"/>
			<stop  offset="0.8899" style="stop-color:#D5E1F3"/>
			<stop  offset="0.9756" style="stop-color:#BFD2ED"/>
			<stop  offset="1" style="stop-color:#B7CDEA"/>
		</linearGradient>
		<path style="fill:url(#SVGID_1_);" d="M61.754,84.195H44.703c-8.239,0-15.384-2.964-21.235-8.812
			c-5.848-5.852-8.814-12.996-8.814-21.238V19.744c0-3.556,1.31-6.731,3.792-9.182C20.91,8.129,24.079,6.84,27.6,6.84
			c3.474,0,6.614,1.316,9.081,3.809c2.459,2.458,3.766,5.605,3.766,9.089v4.34h21.277c3.49,0,6.645,1.312,9.13,3.79
			c2.481,2.468,3.8,5.619,3.8,9.105c0,3.48-1.312,6.631-3.79,9.106c-2.487,2.481-5.636,3.788-9.112,3.788H40.446v4.267
			c0,1.242,0.381,2.178,1.234,3.034c0.852,0.852,1.785,1.233,3.016,1.233h17.055c3.477,0,6.627,1.311,9.112,3.788
			c2.479,2.479,3.79,5.626,3.79,9.106c0,3.481-1.312,6.632-3.79,9.107C68.378,82.884,65.23,84.195,61.754,84.195L61.754,84.195z"/>
		<linearGradient id="SVGID_2_" gradientUnits="userSpaceOnUse" x1="44.6528" y1="11.1191" x2="44.6528" y2="79.9175">
			<stop  offset="0" style="stop-color:#E5E1DF"/>
			<stop  offset="0" style="stop-color:#F0EFF0"/>
			<stop  offset="0" style="stop-color:#F2F2F2"/>
			<stop  offset="0" style="stop-color:#E2EDF3"/>
			<stop  offset="0" style="stop-color:#BAE0F2"/>
			<stop  offset="0" style="stop-color:#70CFF4"/>
			<stop  offset="0" style="stop-color:#48C8F5"/>
			<stop  offset="0.4707" style="stop-color:#47C5F2"/>
			<stop  offset="0.6403" style="stop-color:#47BFEA"/>
			<stop  offset="0.7611" style="stop-color:#43B7E0"/>
			<stop  offset="0.8589" style="stop-color:#3BABD2"/>
			<stop  offset="0.9416" style="stop-color:#309BC1"/>
			<stop  offset="1" style="stop-color:#268EB3"/>
		</linearGradient>
		<path style="fill:url(#SVGID_2_);" d="M70.376,71.299c0,2.364-0.847,4.395-2.537,6.082c-1.692,1.689-3.72,2.536-6.086,2.536
			h-17.05c-7.102,0-13.171-2.52-18.213-7.56c-5.04-5.04-7.56-11.11-7.56-18.211V19.745c0-2.435,0.84-4.481,2.52-6.14
			c1.679-1.655,3.729-2.486,6.148-2.486c2.35,0,4.368,0.846,6.045,2.537c1.683,1.688,2.525,3.715,2.525,6.082v8.616h25.553
			c2.375,0,4.414,0.845,6.109,2.538c1.698,1.688,2.545,3.715,2.545,6.082c0,2.363-0.847,4.394-2.537,6.084
			c-1.692,1.688-3.725,2.533-6.089,2.533H36.169v8.544c0,2.375,0.825,4.391,2.486,6.056c1.658,1.657,3.672,2.49,6.039,2.49H61.75
			c2.364,0,4.396,0.843,6.089,2.533C69.529,66.905,70.376,68.933,70.376,71.299z"/>
	</g>
</svg>
