<?xml version="1.0" encoding="iso-8859-1"?>
<!-- Generator: Adobe Illustrator 14.0.0, SVG Export Plug-In . SVG Version: 6.00 Build 43363)  -->
<!DOCTYPE svg PUBLIC "-//W3C//DTD SVG 1.1//EN" "http://www.w3.org/Graphics/SVG/1.1/DTD/svg11.dtd">
<svg version="1.1" id="icon-m-music-video-shuffle-off-layer"
	 xmlns="http://www.w3.org/2000/svg" xmlns:xlink="http://www.w3.org/1999/xlink" x="0px" y="0px" width="64px" height="64px"
	 viewBox="0 0 64 64" style="enable-background:new 0 0 64 64;" xml:space="preserve">
<g id="icon-m-music-video-shuffle-off">
	<rect style="fill:none;" width="64" height="64"/>
	<path style="fill:#333333;" d="M17.69,15.277l0.362,0.013c1.57,0.057,3.024,0.722,4.094,1.876l0.081,0.086l0.01,0.012l0.037,0.042
		c0.184,0.212,0.33,0.399,0.447,0.573l0.038,0.057l0.042,0.054l0.381,0.491l-4.005,5.154c-1.682-1.396-3.792-2.204-6.019-2.266
		l-0.027-0.001h-0.028H2v-6.091H17.69 M18.124,13.277H0v10.091h13.104c2.391,0.066,4.51,1.194,5.907,2.937h0.004l0.311,0.399
		l6.391-8.224l-1.335-1.719c-0.182-0.27-0.385-0.523-0.599-0.77l-0.153-0.197l-0.016,0.012c-1.378-1.487-3.32-2.438-5.489-2.516
		V13.277L18.124,13.277z"/>
	<path style="fill:#333333;" d="M55.188,39.203l5.975,5.934l-5.975,5.932v-0.926v-2h-2h-9.716v-0.057l-2.05,0.051l-0.097,0.004
		h-0.001c-1.662-0.01-3.221-0.717-4.328-1.955l-0.198-0.256l-0.318-0.408l4.114-5.295c1.503,1.084,3.284,1.717,5.187,1.822
		l0.055,0.004h0.056h7.297h2v-2V39.203 M53.188,34.398v5.654h-7.297c-2.226-0.125-4.193-1.168-5.547-2.764l-6.396,8.232l1.271,1.635
		v0.037h0.012c1.44,1.795,3.645,2.947,6.126,2.947c0.038,0,0.077-0.004,0.115-0.004v0.006h11.716v5.73L64,45.137L53.188,34.398
		L53.188,34.398z"/>
	<path style="fill:#333333;" d="M55.188,12.932l5.975,5.934l-5.975,5.933v-0.849v-2h-2h-7.297h-0.055l-0.055,0.002
		c-2.752,0.152-5.331,1.462-7.077,3.596l-0.016,0.02l-0.016,0.02L22.802,46.01l-0.042,0.055l-0.038,0.057
		c-0.116,0.174-0.264,0.361-0.447,0.572l-0.033,0.039l-0.095,0.102c-1.069,1.154-2.522,1.82-4.094,1.875l-0.311,0.014H2v-6.092
		h11.104h0.028h0.027c2.561-0.072,4.969-1.129,6.746-2.934h0.088l0.601-0.773L36.798,18.07l0.125-0.171
		c1.118-1.3,2.721-2.04,4.397-2.04l0.074,0.003l0.026,0.001l2.051,0.046v-0.052h9.716h2v-2V12.932 M53.188,8.127v5.73H41.472v0.007
		c-0.038-0.001-0.077-0.005-0.115-0.005c-2.481,0-4.686,1.152-6.126,2.947h-0.012v0.037L19.015,37.697h-0.004
		c-1.397,1.74-3.517,2.867-5.907,2.934H0v10.092h18.124v-0.014c2.169-0.078,4.111-1.027,5.489-2.516l0.016,0.012l0.153-0.197
		c0.214-0.246,0.417-0.5,0.599-0.77l15.871-20.425c1.354-1.655,3.365-2.739,5.639-2.864h7.297v5.653L64,18.865L53.188,8.127
		L53.188,8.127z"/>
</g>
</svg>
