<?xml version="1.0" encoding="iso-8859-1"?>
<!-- Generator: Adobe Illustrator 14.0.0, SVG Export Plug-In . SVG Version: 6.00 Build 43363)  -->
<!DOCTYPE svg PUBLIC "-//W3C//DTD SVG 1.1//EN" "http://www.w3.org/Graphics/SVG/1.1/DTD/svg11.dtd">
<svg version="1.1" id="icon-m-videocamera-layer" xmlns="http://www.w3.org/2000/svg" xmlns:xlink="http://www.w3.org/1999/xlink"
	 x="0px" y="0px" width="64px" height="64px" viewBox="0 0 64 64" style="enable-background:new 0 0 64 64;" xml:space="preserve">
<g id="icon-m-videocamera">
	<rect style="fill:none;" width="64" height="64"/>
	<path style="fill:#333333;" d="M61.916,15.623H39.924c-1.117,0-2.029,0.902-2.029,2.006v2.979h-4.756
		c-0.084-9.116-6.986-16.479-16.147-16.479c-9.219,0-16.937,7.451-16.937,16.645l0.029,37.049c0,1.127,0.923,2.049,2.054,2.049
		h28.904c1.132,0,2.056-0.922,2.056-2.049c0,0,0.025-19.012,0.039-29.812h4.758v3.155c0,1.103,0.912,2.007,2.029,2.007h21.992
		c1.117,0,2.029-0.904,2.029-2.007V17.629C63.945,16.525,63.033,15.623,61.916,15.623z M21.667,45.912
		c0,0.656-0.535,1.191-1.188,1.191h-7.926c-0.654,0-1.191-0.535-1.191-1.191v-5.871c0-0.656,0.537-1.195,1.191-1.195h7.926
		c0.653,0,1.188,0.539,1.188,1.195V45.912z M16.749,31.014c-5.974,0-10.819-4.852-10.819-10.839c0-5.985,4.846-10.839,10.819-10.839
		c5.977,0,10.82,4.854,10.82,10.839C27.569,26.162,22.726,31.014,16.749,31.014z"/>
</g>
</svg>
