<?xml version="1.0" encoding="iso-8859-1"?>
<!-- Generator: Adobe Illustrator 13.0.2, SVG Export Plug-In . SVG Version: 6.00 Build 14948)  -->
<!DOCTYPE svg PUBLIC "-//W3C//DTD SVG 1.1//EN" "http://www.w3.org/Graphics/SVG/1.1/DTD/svg11.dtd">
<svg version="1.1" xmlns="http://www.w3.org/2000/svg" xmlns:xlink="http://www.w3.org/1999/xlink" x="0px" y="0px" width="18px"
	 height="18px" viewBox="0 0 18 18" style="enable-background:new 0 0 18 18;" xml:space="preserve">
	<g id="icon-s-clock">
		<rect style="fill:none;" width="18" height="18"/>
		<path style="fill:#333333;" d="M9,0C4.029,0,0,4.029,0,9s4.029,9,9,9s9-4.029,9-9S13.971,0,9,0z M9,16.457
			c-4.118,0-7.457-3.338-7.457-7.457S4.882,1.543,9,1.543c4.119,0,7.458,3.338,7.458,7.457S13.119,16.457,9,16.457z"/>
		<polygon style="fill:#333333;" points="8.903,8.172 5.87,3.896 4.866,4.609 8.606,9.883 8.616,9.875 8.622,9.883 12.388,7.21 
			11.676,6.205 		"/>
	</g>
</svg>
