<?xml version="1.0" encoding="iso-8859-1"?>
<!-- Generator: Adobe Illustrator 14.0.0, SVG Export Plug-In . SVG Version: 6.00 Build 43363)  -->
<!DOCTYPE svg PUBLIC "-//W3C//DTD SVG 1.1//EN" "http://www.w3.org/Graphics/SVG/1.1/DTD/svg11.dtd">
<svg version="1.1" id="icon-m-content-radiostation-layer"
	 xmlns="http://www.w3.org/2000/svg" xmlns:xlink="http://www.w3.org/1999/xlink" x="0px" y="0px" width="64px" height="64px"
	 viewBox="0 0 64 64" style="enable-background:new 0 0 64 64;" xml:space="preserve">
<g id="icon-m-content-radiostation">
	<rect style="fill:none;" width="64" height="63.998"/>
	<path style="fill:#333333;" d="M38.202,28.594l3.117,1.931c4.371-1.874,7.332-5.405,7.334-9.456c0-3.701-2.823-7.262-6.589-9.229
		l-2.717,2.186c2.968,1.43,4.966,4.049,4.967,7.043C44.314,24.438,41.795,27.334,38.202,28.594z"/>
	<path style="fill:#333333;" d="M53.775,5.096l-3.035,1.88c5.416,3.212,8.924,8.337,8.924,14.093c0,6.109-3.955,11.502-9.938,14.656
		l3.05,1.891C59.559,33.936,64,27.893,64,21.068C63.998,14.586,59.991,8.809,53.775,5.096z"/>
	<path style="fill:#333333;" d="M21.935,30.871l2.717-2.184c-2.969-1.432-4.966-4.051-4.967-7.045c0-3.369,2.519-6.266,6.112-7.525
		l-3.117-1.93c-4.371,1.873-7.334,5.404-7.334,9.456C15.346,25.342,18.169,28.904,21.935,30.871z"/>
	<path style="fill:#333333;" d="M4.335,21.644c-0.001-6.112,3.956-11.505,9.938-14.659l-3.05-1.889C4.441,8.775,0,14.818,0,21.644
		c0,6.481,4.008,12.259,10.224,15.972l3.036-1.879C7.843,32.524,4.335,27.4,4.335,21.644z"/>
	<path style="fill:#333333;" d="M38.353,42.066c-2.991-6.65-4.184-13.379-4.652-17.314c0.021-0.17,0.035-0.33,0.053-0.492
		c1.211-0.633,2.038-1.898,2.038-3.359c0-2.096-1.697-3.793-3.791-3.793c-2.095,0-3.792,1.697-3.792,3.793
		c0,1.461,0.827,2.727,2.04,3.359c0.015,0.164,0.032,0.326,0.052,0.504c-0.465,3.912-1.646,10.584-4.613,17.217
		c-3.575,7.992-8.641,13.635-15.11,16.922h6.285c2.008-1.514,3.864-3.275,5.558-5.279h19.163c1.693,2.004,3.55,3.766,5.557,5.279
		h6.287C46.978,55.625,41.926,50.014,38.353,42.066z M32,34c0.678,2.635,1.589,5.494,2.814,8.389h-5.63
		C30.409,39.494,31.319,36.635,32,34z M24.958,50.252c0.948-1.406,1.832-2.902,2.649-4.494h8.785
		c0.816,1.592,1.701,3.088,2.647,4.494H24.958z"/>
</g>
</svg>
