<?xml version="1.0" encoding="iso-8859-1"?>
<!-- Generator: Adobe Illustrator 14.0.0, SVG Export Plug-In . SVG Version: 6.00 Build 43363)  -->
<!DOCTYPE svg PUBLIC "-//W3C//DTD SVG 1.1//EN" "http://www.w3.org/Graphics/SVG/1.1/DTD/svg11.dtd">
<svg version="1.1" id="icon-m-presence-offline-layer"
	 xmlns="http://www.w3.org/2000/svg" xmlns:xlink="http://www.w3.org/1999/xlink" x="0px" y="0px" width="64px" height="64px"
	 viewBox="0 0 64 64" style="enable-background:new 0 0 64 64;" xml:space="preserve">
<g id="icon-m-common-presence-offline">
	<rect style="fill:none;" width="64" height="64"/>
	<path style="fill:#333333;" d="M32.004,0C14.328,0,0,14.342,0,32.02C0,49.672,14.328,64,32.004,64C49.662,64,64,49.672,64,32.02
		C64,14.342,49.662,0,32.004,0z M47.111,41.201c1.605,1.607,1.605,4.234,0,5.838v0.002c-1.605,1.605-4.234,1.605-5.84-0.002
		l-8.832-8.832l-7.801,7.801c-1.605,1.605-4.383,1.839-6.168,0.516c-1.789-1.32-1.936-3.715-0.332-5.322l8.646-8.645l-8.646-8.646
		c-1.607-1.606-1.607-4.234,0-5.84c1.605-1.605,4.232-1.605,5.838,0l8.65,8.646l8.645-8.646c1.607-1.605,4.383-1.838,6.17-0.517
		s1.936,3.718,0.33,5.323l-9.494,9.492L47.111,41.201z"/>
</g>
</svg>
