<?xml version="1.0" encoding="iso-8859-1"?>
<!-- Generator: Adobe Illustrator 14.0.0, SVG Export Plug-In . SVG Version: 6.00 Build 43363)  -->
<!DOCTYPE svg PUBLIC "-//W3C//DTD SVG 1.1//EN" "http://www.w3.org/Graphics/SVG/1.1/DTD/svg11.dtd">
<svg version="1.1" id="icon-m-camera-geotagging-layer"
	 xmlns="http://www.w3.org/2000/svg" xmlns:xlink="http://www.w3.org/1999/xlink" x="0px" y="0px" width="64px" height="64px"
	 viewBox="0 0 64 64" style="enable-background:new 0 0 64 64;" xml:space="preserve">
<g id="icon-m-camera-geotagging">
	<rect style="fill:none;" width="64" height="64"/>
	<path style="fill:#333333;" d="M44.081,27.877c-9.688,0-17.571,7.883-17.571,17.571s7.883,17.572,17.571,17.572
		c9.689,0,17.573-7.884,17.573-17.572S53.771,27.877,44.081,27.877z M44.081,60.955c-8.549,0-15.504-6.957-15.504-15.507
		c0-0.945,0.09-1.868,0.253-2.768c0.098,0.371,0.254,0.727,0.466,1.044c0.594,0.888,1.542,0.354,2.366,0.725
		c0.898,0.402,1.733,1.354,2.864,0.957c0.773-0.271,0.698-0.829,0.085-1.261c-0.272-0.191-0.603-0.202-0.885-0.363
		c-0.38-0.216-0.649-0.683-1.096-0.771c-0.681-0.133-1.163,0.623-1.159-0.645c0.001-0.951,0.71-2.373,1.606-2.736
		c0.847-0.345,2.016-0.234,2.88-0.379c0.727-0.119,1.603-0.354,2.094-0.922c0.497-0.578,0.318-1.229,0.884-1.697
		c0.354-0.295,0.862-0.461,1.211-0.724c0.394-0.294,0.452-0.548,0.706-0.921c0.478-0.695,1.119-0.734,1.977-0.814
		c0.664-0.064,2.236-0.18,0.979-0.887c-0.788-0.439-1.961-0.528-2.859-0.486c-1.11,0.051-1.404,0.79-2.307,1.01
		c-0.931,0.229-1.846-0.329-2.753-0.061c-0.632,0.186-1.333,0.623-1.944,0.88c-0.592,0.249-1.274,0.47-1.776,0.908
		c2.848-3.415,7.131-5.593,11.912-5.593c2.707,0,5.25,0.697,7.468,1.92c-0.297,0.002-0.559,0.117-0.744,0.414
		c-0.484,0.764,0.682,1.6,1.145,2.023c1.1,1.003,2.533,2.466,1.961,4.104c-0.387,1.102-2.188,1.834-2.049,3.074
		c0.238,2.129,3.984,1.027,5.275,2.056c0.568,0.456,1.053,1.143,1.898,0.772c0.221-0.096,0.367-0.246,0.473-0.426
		c0.052,0.515,0.078,1.037,0.078,1.565C59.586,53.998,52.631,60.955,44.081,60.955z"/>
	<path style="fill:#333333;" d="M49.875,45.004c-0.395-0.151-1.299-0.258-1.547-0.809c-0.09-0.195-0.02-0.524-0.047-0.754
		c-0.112-0.928-0.807-1.452-1.443-1.619c-0.711-0.184-1.386-0.534-2.088-0.668c-0.576-0.109-1.175-0.212-1.686-0.416
		c-0.375-0.151-1.014-0.367-1.408-0.159c-0.59,0.31-0.938,1.688-0.981,2.542c-0.028,0.534,0.172,1.246,0.044,1.73
		c-0.094,0.357-0.323,0.449-0.396,0.874c-0.053,0.308-0.023,0.797,0.038,1.09c0.313,1.528,1.864,2.28,2.551,3.479
		c0.405,0.705,0.876,0.794,0.765,1.738c-0.2,1.719-0.393,3.307-0.22,5.047c0.059,0.592,0.006,3.254,1.006,2.605
		c0.376-0.242,0.362-1.086,0.448-1.544c0.13-0.695,0.283-1.479,0.759-1.887c0.378-0.327,0.852-0.411,1.236-0.742
		c0.597-0.513,0.99-1.171,1.386-1.929c0.596-1.143,1.896-1.402,2.486-2.576c0.295-0.586,0.487-1.328,0.561-2.006
		c0.093-0.881,0.302-0.879,0.611-1.529C52.893,45.5,50.683,45.314,49.875,45.004z"/>
	<path style="fill:#333333;" d="M43.343,20.642l1.323-0.044l-0.002-0.001c0.168-0.561,0.166-1.172-0.07-1.741l-6.71-16.338
		c-0.527-1.285-1.987-1.854-3.245-1.264l-15.995,7.49c-0.556,0.262-0.974,0.709-1.23,1.235l-0.019-0.007L1.905,49.724l20.769,8.092
		c-2.931-5.093-3.964-10.996-2.893-16.839C21.871,29.582,31.78,21.029,43.343,20.642z M27.052,11.461
		c1.08-2.673,4.092-4.035,6.732-3.043s3.903,3.965,2.825,6.637c-1.08,2.672-4.095,4.034-6.733,3.043
		C27.236,17.104,25.972,14.133,27.052,11.461z"/>
</g>
</svg>
