<?xml version="1.0" encoding="iso-8859-1"?>
<!-- Generator: Adobe Illustrator 14.0.0, SVG Export Plug-In . SVG Version: 6.00 Build 43363)  -->
<!DOCTYPE svg PUBLIC "-//W3C//DTD SVG 1.1//EN" "http://www.w3.org/Graphics/SVG/1.1/DTD/svg11.dtd">
<svg version="1.1" id="icon-m-ovi-layer" xmlns="http://www.w3.org/2000/svg" xmlns:xlink="http://www.w3.org/1999/xlink" x="0px"
	 y="0px" width="88px" height="88px" viewBox="0 0 88 88" style="enable-background:new 0 0 88 88;" xml:space="preserve">
<g id="icon-m-ovi">
	<g>
		<linearGradient id="SVGID_1_" gradientUnits="userSpaceOnUse" x1="43.9995" y1="13" x2="43.9995" y2="77.0005">
			<stop  offset="0" style="stop-color:#6CBE45"/>
			<stop  offset="0.5" style="stop-color:#46A647"/>
			<stop  offset="1" style="stop-color:#316F37"/>
		</linearGradient>
		<path style="fill:url(#SVGID_1_);" d="M76,73.363c0,2-1.637,3.637-3.637,3.637H15.637c-2,0-3.637-1.637-3.637-3.637V16.637
			c0-2,1.637-3.637,3.637-3.637h56.727c2,0,3.637,1.637,3.637,3.637V73.363z"/>
	</g>
	<g>
		<path style="fill:#FFFFFF;" d="M65.86,27.4c-2.21,0-3.739,1.104-3.739,3.147c0,2.04,1.571,3.146,3.739,3.146
			c2.17,0,3.738-1.105,3.738-3.146C69.599,28.547,67.943,27.4,65.86,27.4z"/>
		<path style="fill:#FFFFFF;" d="M62.032,36.256c-0.649,0-1.187,0.012-1.566,0.525c-0.176,0.234-0.418,0.665-0.418,1.43
			c0,0.797,0.242,1.192,0.418,1.43c0.38,0.511,0.917,0.515,1.566,0.515c0.224,0,0.393,0,0.393,0v17.722c0,0.619,0,1.764,0.96,2.443
			c0.502,0.352,1.293,0.68,2.413,0.68c1.166,0,1.933-0.325,2.435-0.68c0.961-0.68,0.961-1.824,0.961-2.443V36.252h-6.698
			C62.495,36.252,62.256,36.256,62.032,36.256z"/>
		<path style="fill:#FFFFFF;" d="M49.076,54.502l-4.336-18.25h-7.103l6.106,21.092C44.598,59.597,45.51,61,48.495,61
			s3.899-1.403,4.751-3.656l6.419-21.092h-5.996L49.076,54.502z"/>
		<path style="fill:#FFFFFF;" d="M28.023,35.912c-7.354,0-11.224,5.017-11.224,12.159C16.8,55.3,19.647,61,27.938,61
			c7.65,0,11.179-5.148,11.179-12.758C39.117,40.971,35.633,35.912,28.023,35.912z M27.938,57.085c-3.912,0-4.081-5.527-4.081-9.142
			c0-3.527,0.298-8.12,4.081-8.12c3.614,0,4.121,4.848,4.121,8.12C32.06,52.154,31.848,57.085,27.938,57.085z"/>
	</g>
	<path style="fill:none;" d="M0,88V0h88v88H0z"/>
	<rect id="_x3C_Slice_x3E__38_" style="fill:none;" width="88" height="88"/>
</g>
</svg>
