<?xml version="1.0" encoding="iso-8859-1"?>
<!-- Generator: Adobe Illustrator 14.0.0, SVG Export Plug-In . SVG Version: 6.00 Build 43363)  -->
<!DOCTYPE svg PUBLIC "-//W3C//DTD SVG 1.1//EN" "http://www.w3.org/Graphics/SVG/1.1/DTD/svg11.dtd">
<svg version="1.1" id="icon-s-organizer-layer" xmlns="http://www.w3.org/2000/svg" xmlns:xlink="http://www.w3.org/1999/xlink"
	 x="0px" y="0px" width="19px" height="19px" viewBox="0 0 19 19" style="enable-background:new 0 0 19 19;" xml:space="preserve">
<g id="icon-s-organizer">
	<path style="fill:#333333;" d="M7,14H2V4h2v1h7V4h1v4h2V3c0,0,0-1-1-1h-2c0-2-1-2-1-2H5c0,0-1,0-1,2H1c0,0-1,0-1,1v12c0,0,0,1,1,1
		h6V14z"/>
	<path style="fill:#333333;" d="M18,9V8c0-1-1-1-1-1s-1,0-1,1v1h-5V8c0-1-1-1-1-1S9,7,9,8v1H8c0,0,0,6,0,8s1,2,1,2h9c0,0,1,0,1-2V9
		H18z M18,17h-4h-1H9v-2h1v-2H9v-2l2-1h1v5h1l2-2c0,0-1-1-2,0v-2c0,0,1-1,3-1c1,0,2,0.678,2,2c0,1-2,3-2,3h2V17z"/>
</g>
</svg>
