<?xml version="1.0" encoding="iso-8859-1"?>
<!-- Generator: Adobe Illustrator 13.0.2, SVG Export Plug-In . SVG Version: 6.00 Build 14948)  -->
<!DOCTYPE svg PUBLIC "-//W3C//DTD SVG 1.1//EN" "http://www.w3.org/Graphics/SVG/1.1/DTD/svg11.dtd">
<svg version="1.1" xmlns="http://www.w3.org/2000/svg" xmlns:xlink="http://www.w3.org/1999/xlink" x="0px" y="0px" width="64px"
	 height="64px" viewBox="0 0 64 64" style="enable-background:new 0 0 64 64;" xml:space="preserve">
	<g id="icon-m-alarm-repeating">
		<rect x="0.006" y="0.006" style="fill:none;" width="63.987" height="63.987"/>
		<path style="fill:#333333;" d="M21.562,21.472c3.932-3.928,9.099-6.091,14.551-6.091c0.493,0,0.986,0.019,1.478,0.055
			c2.12,0.101,4.171,0.548,6.099,1.275c0.045-1.75-0.208-3.522-0.766-5.234c-0.717-2.46-2.047-4.807-4.016-6.774
			c-3.391-3.388-7.896-4.924-12.195-4.583c-3.562,0.153-7.016,1.528-9.665,4.16c-0.25,0.249-3.612,3.593-3.612,3.593
			c-6.056,6.014-7.739,4.582-12.139,4.073L0,13.233l16.491,16.509C17.506,26.64,19.244,23.79,21.562,21.472z"/>
		<path style="fill:#333333;" d="M45.345,58.597c3.458,3.252,10.408,4.012,14.058,0.391c3.656-3.62,2.551-10.347-0.711-13.779
			L45.345,58.597z"/>
		<path style="fill:#333333;" d="M15.373,35.004L5.309,24.908c-3.262,3.433-4.367,10.158-0.711,13.779
			c2.766,2.745,7.426,2.969,11.027,1.502C15.317,38.499,15.232,36.757,15.373,35.004z"/>
		<path style="fill:#333333;" d="M62.703,32.245c-4.4,0.509-6.083,1.94-12.139-4.073c0,0-3.363-3.344-3.613-3.593
			c-2.648-2.632-6.103-4.007-9.664-4.16c-4.299-0.34-8.805,1.195-12.196,4.583c-1.968,1.968-3.299,4.314-4.015,6.774
			c-1.709,5.249-0.607,11.072,3.406,15.066c0.25,0.249,3.618,3.59,3.618,3.59c5.664,5.623,4.606,7.688,4.087,12.058l1.452,1.438
			L64,33.533L62.703,32.245z"/>
	</g>
</svg>
