<?xml version="1.0" encoding="iso-8859-1"?>
<!-- Generator: Adobe Illustrator 14.0.0, SVG Export Plug-In . SVG Version: 6.00 Build 43363)  -->
<!DOCTYPE svg PUBLIC "-//W3C//DTD SVG 1.1//EN" "http://www.w3.org/Graphics/SVG/1.1/DTD/svg11.dtd">
<svg version="1.1" id="icon-s-status-wlan-layer" xmlns="http://www.w3.org/2000/svg" xmlns:xlink="http://www.w3.org/1999/xlink"
	 x="0px" y="0px" width="24px" height="18px" viewBox="0 0 24 18" style="enable-background:new 0 0 24 18;" xml:space="preserve">
<g id="icon-s-status-wlan">
	<rect style="fill:none;" width="24" height="18"/>
	<path style="fill:#FFFFFF;" d="M2.459,0.457C2.415,0.525,1,2.607,1,5.23C1,7.936,2.413,9.932,2.457,10
		c0.231-0.166,0.625-0.451,0.856-0.615C3.27,9.318,2.035,7.484,2.035,5.23c0-2.436,1.234-4.088,1.277-4.155
		C3.081,0.906,2.689,0.621,2.459,0.457"/>
	<path style="fill:#FFFFFF;" d="M6.838,7.666c-0.049-0.07-0.803-1.252-0.803-2.523c0-1.416,0.754-2.457,0.8-2.523
		C6.604,2.453,6.207,2.172,5.976,2C5.931,2.074,5,3.311,5,5.143c0,1.797,0.931,3.072,0.976,3.139
		C6.209,8.117,6.604,7.83,6.838,7.666"/>
	<path style="fill:#FFFFFF;" d="M21.541,0.457c-0.23,0.164-0.627,0.449-0.857,0.615C20.727,1.137,22,2.747,22,5
		c0,2.436-1.273,4.313-1.316,4.379c0.23,0.17,0.627,0.455,0.857,0.621C21.58,9.934,23,7.625,23,5
		C23,2.296,21.587,0.525,21.541,0.457"/>
	<path style="fill:#FFFFFF;" d="M17.031,2.437C17.08,2.509,18,3.73,18,5c0,1.416-0.92,2.416-0.967,2.483
		c0.23,0.164,0.623,0.449,0.855,0.619C17.934,8.03,19,6.83,19,5c0-1.799-1.064-3.113-1.109-3.178
		C17.66,1.986,17.266,2.271,17.031,2.437"/>
	<path style="fill:#FFFFFF;" d="M13,7c2,0,2-2,2-2c0-1.379-1.619-3-3-3S9,3.621,9,5c0,0,0,2,2,2l-1.988,7.908L6,16v2h12v-2h-3L13,7z
		"/>
</g>
</svg>
