<?xml version="1.0" encoding="iso-8859-1"?>
<!-- Generator: Adobe Illustrator 13.0.2, SVG Export Plug-In . SVG Version: 6.00 Build 14948)  -->
<!DOCTYPE svg PUBLIC "-//W3C//DTD SVG 1.1//EN" "http://www.w3.org/Graphics/SVG/1.1/DTD/svg11.dtd">
<svg version="1.1" xmlns="http://www.w3.org/2000/svg" xmlns:xlink="http://www.w3.org/1999/xlink" x="0px" y="0px" width="64px"
	 height="64px" viewBox="0 0 64 64" style="enable-background:new 0 0 64 64;" xml:space="preserve">
	<g id="icon-m-location-user">
		<rect style="fill:none;" width="64" height="64"/>
		<g>
			<g id="icon-m-organizer-location-user">
				<path style="fill:#333333;" d="M50.337,12.797c3.601,0,6.52-2.863,6.52-6.389c0-3.535-2.919-6.408-6.52-6.408
					c-3.606,0-6.524,2.873-6.524,6.408C43.813,9.934,46.73,12.797,50.337,12.797z M50.24,15.176c-5.074,0-9.184,3.554-9.184,7.936
					v8.523h18.369v-8.523C59.426,18.729,55.314,15.176,50.24,15.176z"/>
			</g>
			<path style="fill:#333333;" d="M35.224,40.248c-0.524-0.201-1.716-0.342-2.044-1.067c-0.117-0.259-0.023-0.691-0.061-0.994
				c-0.148-1.223-1.063-1.914-1.904-2.133c-0.935-0.242-1.826-0.704-2.751-0.882c-0.761-0.146-1.55-0.278-2.222-0.549
				c-0.498-0.199-1.337-0.483-1.859-0.209c-0.777,0.408-1.232,2.224-1.291,3.352c-0.037,0.705,0.225,1.643,0.058,2.279
				c-0.123,0.472-0.425,0.593-0.523,1.154c-0.071,0.404-0.03,1.049,0.049,1.436c0.413,2.016,2.457,3.008,3.362,4.587
				c0.534,0.931,1.155,1.048,1.009,2.295c-0.265,2.264-0.519,4.356-0.29,6.653c0.078,0.779,0.007,4.288,1.327,3.434
				c0.495-0.32,0.479-1.433,0.59-2.035c0.17-0.918,0.374-1.947,1.002-2.489c0.497-0.429,1.12-0.54,1.627-0.978
				c0.786-0.678,1.307-1.544,1.829-2.543c0.785-1.506,2.5-1.848,3.277-3.396c0.389-0.772,0.644-1.751,0.738-2.643
				c0.123-1.164,0.396-1.163,0.807-2.019C39.199,40.901,36.285,40.656,35.224,40.248z"/>
		</g>
		<path style="fill:#333333;" d="M50.523,37.635h-2.746c0,0,0.129,1.158,0.143,1.134c0.068,0.679,0.104,1.368,0.104,2.065
			c0,11.271-9.17,20.441-20.44,20.441c-11.271,0-20.441-9.17-20.441-20.441c0-1.247,0.118-2.465,0.333-3.648
			c0.13,0.486,0.335,0.956,0.615,1.374c0.783,1.171,2.031,0.469,3.119,0.956c1.186,0.529,2.285,1.785,3.775,1.264
			c1.021-0.357,0.924-1.096,0.114-1.664c-0.359-0.252-0.794-0.268-1.168-0.479c-0.499-0.283-0.854-0.899-1.444-1.016
			c-0.897-0.176-1.533,0.82-1.527-0.852c0.004-1.252,0.938-3.13,2.118-3.607c1.117-0.453,2.657-0.308,3.797-0.496
			c0.957-0.16,2.112-0.467,2.761-1.22c0.655-0.76,0.419-1.617,1.163-2.235c0.467-0.389,1.137-0.607,1.597-0.953
			c0.517-0.389,0.596-0.724,0.933-1.215c0.628-0.917,1.475-0.967,2.605-1.075c0.875-0.083,2.949-0.235,1.287-1.167
			c-1.037-0.581-2.582-0.697-3.769-0.644c-1.462,0.067-1.849,1.042-3.038,1.333c-1.229,0.3-2.436-0.433-3.63-0.08
			c-0.834,0.246-1.757,0.822-2.564,1.16c-0.781,0.327-1.679,0.618-2.34,1.195c3.752-4.501,9.399-7.373,15.705-7.373
			c2.665,0,5.21,0.514,7.546,1.446c0.092-0.931,0.287-1.832,0.57-2.7c-2.527-0.949-5.262-1.471-8.116-1.471
			c-12.774,0-23.167,10.392-23.167,23.166C4.417,53.607,14.809,64,27.583,64C40.357,64,50.75,53.607,50.75,40.834
			C50.75,39.748,50.669,38.682,50.523,37.635z"/>
	</g>
</svg>
