<?xml version="1.0" encoding="iso-8859-1"?>
<!-- Generator: Adobe Illustrator 14.0.0, SVG Export Plug-In . SVG Version: 6.00 Build 43363)  -->
<!DOCTYPE svg PUBLIC "-//W3C//DTD SVG 1.1//EN" "http://www.w3.org/Graphics/SVG/1.1/DTD/svg11.dtd">
<svg version="1.1" id="icon-m-camera-shutter-layer"
	 xmlns="http://www.w3.org/2000/svg" xmlns:xlink="http://www.w3.org/1999/xlink" x="0px" y="0px" width="64px" height="64px"
	 viewBox="0 0 64 64" style="enable-background:new 0 0 64 64;" xml:space="preserve">
<g id="icon-m-camera-shutter">
	<rect style="fill:none;" width="64" height="64"/>
	<path style="fill:#333333;" d="M49,32l-0.027,0.047l9.934,17.266C62.125,44.32,64,38.381,64,32c0-3.035-0.432-5.967-1.222-8.75
		H43.946L49,32z"/>
	<path style="fill:#333333;" d="M30.38,17.25h30.014C56.221,9.23,48.756,3.201,39.785,0.959L30.38,17.25z"/>
	<path style="fill:#333333;" d="M18.434,25.947L33.391,0.035C32.929,0.016,32.467,0,32,0C23.053,0,14.967,3.676,9.159,9.594
		L18.434,25.947z"/>
	<path style="fill:#333333;" d="M5.123,14.641C1.887,19.643,0,25.6,0,32c0,3.006,0.424,5.91,1.196,8.668h18.687L5.123,14.641z"/>
	<path style="fill:#333333;" d="M45.504,38.053L40.5,46.717h-0.055l-9.954,17.246C30.991,63.986,31.494,64,32,64
		c8.971,0,17.074-3.695,22.885-9.643L45.504,38.053z"/>
	<path style="fill:#333333;" d="M33.518,46.717H23.5l-0.029-0.049H3.562c4.15,8.029,11.593,14.078,20.548,16.35L33.518,46.717z"/>
</g>
</svg>
