<?xml version="1.0" encoding="iso-8859-1"?>
<!-- Generator: Adobe Illustrator 14.0.0, SVG Export Plug-In . SVG Version: 6.00 Build 43363)  -->
<!DOCTYPE svg PUBLIC "-//W3C//DTD SVG 1.1//EN" "http://www.w3.org/Graphics/SVG/1.1/DTD/svg11.dtd">
<svg version="1.1" id="icon-m-toolbar-media-server-layer"
	 xmlns="http://www.w3.org/2000/svg" xmlns:xlink="http://www.w3.org/1999/xlink" x="0px" y="0px" width="64px" height="64px"
	 viewBox="0 0 64 64" style="enable-background:new 0 0 64 64;" xml:space="preserve">
<g id="icon-m-toolbar-media-server">
	<rect style="fill:none;" width="64" height="64"/>
	<path style="fill:#FFFFFF;" d="M62.141,34.353H64v-2.784H27v2.751v0.033h1.877c0.379,0,0.689,0.311,0.689,0.691v2.73
		c0,0.378-0.311,0.688-0.689,0.688H27v0.033v2.924v0.021h7.863v12.688H27v0.023v2.922v0.033h1.877c0.379,0,0.689,0.31,0.689,0.689
		v2.73c0,0.379-0.311,0.69-0.689,0.69H27v0.032V64h37v-2.783h-1.859c-0.379,0-0.69-0.312-0.69-0.69v-2.762
		c0-0.381,0.312-0.691,0.69-0.691H64v-2.922h-1.43V41.419H64v-2.924h-1.859c-0.379,0-0.69-0.31-0.69-0.691v-2.76
		C61.45,34.663,61.762,34.353,62.141,34.353z M52.472,35.044c0-0.381,0.312-0.691,0.691-0.691h2.762c0.38,0,0.69,0.311,0.69,0.691
		v2.76c0,0.382-0.311,0.691-0.69,0.691h-2.762c-0.38,0-0.691-0.31-0.691-0.691V35.044z M43.465,35.044
		c0-0.381,0.313-0.691,0.691-0.691h2.762c0.381,0,0.69,0.311,0.69,0.691v2.76c0,0.382-0.31,0.691-0.69,0.691h-2.762
		c-0.379,0-0.691-0.31-0.691-0.691V35.044z M38.574,60.526c0,0.379-0.311,0.69-0.691,0.69h-2.762c-0.381,0-0.691-0.312-0.691-0.69
		v-2.73c0-0.38,0.311-0.689,0.691-0.689h2.762c0.381,0,0.691,0.31,0.691,0.689V60.526z M38.574,37.774
		c0,0.378-0.311,0.688-0.691,0.688h-2.762c-0.381,0-0.691-0.31-0.691-0.688v-2.73c0-0.381,0.311-0.691,0.691-0.691h2.762
		c0.381,0,0.691,0.311,0.691,0.691V37.774z M47.608,60.526c0,0.379-0.31,0.69-0.69,0.69h-2.762c-0.379,0-0.691-0.312-0.691-0.69
		v-2.762c0-0.381,0.313-0.691,0.691-0.691h2.762c0.381,0,0.69,0.311,0.69,0.691V60.526z M56.615,60.526
		c0,0.379-0.311,0.69-0.69,0.69h-2.762c-0.38,0-0.691-0.312-0.691-0.69v-2.762c0-0.381,0.312-0.691,0.691-0.691h2.762
		c0.38,0,0.69,0.311,0.69,0.691V60.526z M57.723,54.151H39.613v-0.023h-0.011V41.44h0.011v-0.021h7.627h0.166h10.316V54.151z"/>
	<path style="fill:#FFFFFF;" d="M21,25.568h20.854V3.477c0-1.9-1.562-3.445-3.488-3.445H3.488C1.564,0.031,0,1.576,0,3.477v48.261
		c0,1.902,1.564,3.449,3.488,3.449H21V25.568z M8.46,8.381c0-0.488,0.403-0.889,0.891-0.889h23.152c0.491,0,0.891,0.4,0.891,0.889
		v3.559c0,0.49-0.399,0.89-0.891,0.89H9.351c-0.488,0-0.891-0.399-0.891-0.89V8.381z M8.46,17.5c0-0.488,0.403-0.89,0.891-0.89
		h23.152c0.491,0,0.891,0.401,0.891,0.89v3.558c0,0.49-0.399,0.89-0.891,0.89H9.351c-0.488,0-0.891-0.399-0.891-0.89V17.5z
		 M14.443,33.808h-5c-0.552,0-1-0.448-1-0.998v-4.996c0-0.55,0.449-0.999,1-0.999h5c0.549,0,1,0.449,1,0.999v4.996
		C15.443,33.359,14.992,33.808,14.443,33.808z"/>
</g>
</svg>
