<?xml version="1.0" encoding="iso-8859-1"?>
<!-- Generator: Adobe Illustrator 13.0.2, SVG Export Plug-In . SVG Version: 6.00 Build 14948)  -->
<!DOCTYPE svg PUBLIC "-//W3C//DTD SVG 1.1//EN" "http://www.w3.org/Graphics/SVG/1.1/DTD/svg11.dtd">
<svg version="1.1" xmlns="http://www.w3.org/2000/svg" xmlns:xlink="http://www.w3.org/1999/xlink" x="0px" y="0px" width="64px"
	 height="64px" viewBox="0 0 64 64" style="enable-background:new 0 0 64 64;" xml:space="preserve">
	<g id="icon-toolbar-mediacontrol-forward">
		<path style="fill:#FFFFFF;" d="M32,0C14.326,0,0,14.326,0,32c0,17.671,14.326,32,32,32s32-14.329,32-32C64,14.326,49.674,0,32,0z
			 M51.162,32.89L36.421,48.144c-1.017,0.923-1.965-0.083-1.965-0.879v-9.202H13.624c-0.563,0-1.184-0.442-1.18-1.177V25.511
			c0-0.669,0.524-1.19,1.18-1.185l20.832-0.006v-7.633c0-0.891,1.108-1.657,1.965-0.877l14.746,15.328
			C51.685,31.608,51.687,32.42,51.162,32.89z"/>
	</g>
</svg>
