<?xml version="1.0" encoding="iso-8859-1"?>
<!-- Generator: Adobe Illustrator 14.0.0, SVG Export Plug-In . SVG Version: 6.00 Build 43363)  -->
<!DOCTYPE svg PUBLIC "-//W3C//DTD SVG 1.1//EN" "http://www.w3.org/Graphics/SVG/1.1/DTD/svg11.dtd">
<svg version="1.1" id="icon-m-camera-scene-macro-layer"
	 xmlns="http://www.w3.org/2000/svg" xmlns:xlink="http://www.w3.org/1999/xlink" x="0px" y="0px" width="64px" height="64px"
	 viewBox="0 0 64 64" style="enable-background:new 0 0 64 64;" xml:space="preserve">
<g id="icon-m-camera-scene-macro">
	<rect style="fill:none;" width="64" height="64"/>
	<path style="fill:#333333;" d="M35.179,59.765v-9c0.791,1.191,1.399,1.71,2.308,2.299c3.939,2.53,9.549,2.444,13.957,1.257
		c9.135-2.454,11.735-11.119,11.735-19.556c-1.719,0.668-18.673,7.538-25.845,10.299c-0.883,0.343-1.403,1.1-2.155,1.701v-14
		c7.539-1.225,12.707-7.697,12.707-15.581c0-3.889-1.403-7.445-3.728-10.201l-4.979,12.782l-7-16l-7,16l-5-13
		c-2.303,2.756-4,6.55-4,10.419c0,7.884,5.462,14.356,13,15.581v14c-0.75-0.643-1.603-1.234-2.513-1.584
		C19.494,42.42,2.897,35.427,1.179,34.765c0,8.441,2.241,17.215,11.378,19.669c4.408,1.188,10.018,1.279,13.957-1.255
		c0.938-0.603,1.872-1.178,2.665-2.414v9H35.179z"/>
</g>
</svg>
