<?xml version="1.0" encoding="iso-8859-1"?>
<!-- Generator: Adobe Illustrator 14.0.0, SVG Export Plug-In . SVG Version: 6.00 Build 43363)  -->
<!DOCTYPE svg PUBLIC "-//W3C//DTD SVG 1.1//EN" "http://www.w3.org/Graphics/SVG/1.1/DTD/svg11.dtd">
<svg version="1.1" id="icon-m-telephony-call-hold-layer"
	 xmlns="http://www.w3.org/2000/svg" xmlns:xlink="http://www.w3.org/1999/xlink" x="0px" y="0px" width="64px" height="64px"
	 viewBox="0 0 64 64" style="enable-background:new 0 0 64 64;" xml:space="preserve">
<g id="icon-m-telephony-call-hold">
	<path style="fill:#333333;" d="M34.279,3.928C25.897,7.865,9.247,22.498,5.288,32.871c-1.733,4.541,1.813,11.727,4.614,13.953
		c-0.002,0.012,1.441,1.211,2.521-0.014l7.55-10.166c0.514-0.658,1.019-1.523-0.021-2.555c0,0-5.225-3.758-3.712-6.16
		c1.056-1.66,11.439-12.028,13.103-13.08c2.411-1.514,6.181,3.695,6.181,3.695c1.041,1.035,1.9,0.524,2.561,0.017l10.193-7.542
		c1.229-1.091,0.021-2.524,0.014-2.524C46.047,5.722,38.701,1.854,34.279,3.928z"/>
	<rect x="37.17" y="35.375" style="fill:#333333;" width="7.82" height="25.287"/>
	<rect x="51.35" y="35.375" style="fill:#333333;" width="7.82" height="25.287"/>
	<rect style="fill:none;" width="64" height="64"/>
</g>
</svg>
