<?xml version="1.0" encoding="iso-8859-1"?>
<!-- Generator: Adobe Illustrator 13.0.2, SVG Export Plug-In . SVG Version: 6.00 Build 14948)  -->
<!DOCTYPE svg PUBLIC "-//W3C//DTD SVG 1.1//EN" "http://www.w3.org/Graphics/SVG/1.1/DTD/svg11.dtd">
<svg version="1.1" xmlns="http://www.w3.org/2000/svg" xmlns:xlink="http://www.w3.org/1999/xlink" x="0px" y="0px" width="64px"
	 height="64px" viewBox="0 0 64 64" style="enable-background:new 0 0 64 64;" xml:space="preserve">
	<g id="icon-m-camera-whitebalance-cloudy">
		<path style="fill:#FFFFFF;" d="M26.972,52.762l2.741,2.99c1.773,1.934,3.941,2.998,6.107,2.998c2.797,0,4.871-1.627,6.119-2.991
			l2.744-3.001l3.498,2.075c1.102,0.655,2.342,1.001,3.584,1.001c3.99,0,7.234-3.269,7.234-7.287c0-4.021-3.244-7.292-7.234-7.292
			c-0.4,0-0.793,0.034-1.17,0.101l-4.246,0.748l-1.365-4.091c-1.688-5.064-5.285-8.336-9.164-8.336
			c-3.878,0-7.474,3.271-9.159,8.333L25.3,42.099l-4.245-0.743c-0.383-0.066-0.781-0.101-1.182-0.101
			c-3.991,0-7.237,3.271-7.237,7.292c0,4.019,3.246,7.287,7.237,7.287c1.249,0,2.496-0.348,3.608-1.006L26.972,52.762z"/>
		<path style="fill:#343434;" d="M18.642,31.299c0.281-0.562,0.586-1.1,0.901-1.626c-1.404-1.321-2.287-3.191-2.287-5.267
			c0-3.992,3.248-7.24,7.24-7.24c2.554,0,4.798,1.332,6.087,3.335c1.33-0.427,2.708-0.688,4.12-0.78
			c-1.778-3.865-5.674-6.555-10.207-6.555c-6.208,0-11.24,5.033-11.24,11.24c0,2.795,1.027,5.347,2.717,7.313
			C16.841,31.518,17.729,31.363,18.642,31.299"/>
		<path style="fill:#343434;" d="M25.044,0H24.29c-1.109,0-2.011,0.902-2.011,2.012v5.971c0,1.108,0.902,2.01,2.011,2.01h0.755
			c1.108,0,2.01-0.901,2.01-2.01V2.012C27.054,0.902,26.152,0,25.044,0"/>
		<path style="fill:#343434;" d="M7.982,22.279H2.01c-1.108,0-2.01,0.902-2.01,2.01v0.756c0,1.108,0.902,2.01,2.01,2.01h5.972
			c1.108,0,2.01-0.901,2.01-2.01v-0.756C9.992,23.182,9.09,22.279,7.982,22.279"/>
		<path style="fill:#343434;" d="M14.557,11.182l-4.222-4.223c-0.758-0.758-2.087-0.758-2.843,0L6.957,7.492
			c-0.783,0.783-0.783,2.059,0,2.844l4.223,4.221c0.378,0.38,0.883,0.588,1.421,0.588c0.539,0,1.043-0.208,1.422-0.587l0.534-0.534
			c0.379-0.379,0.587-0.883,0.587-1.422C15.144,12.064,14.936,11.559,14.557,11.182"/>
		<path style="fill:#343434;" d="M42.375,7.491l-0.533-0.532c-0.758-0.759-2.086-0.759-2.844,0l-4.223,4.221
			c-0.783,0.785-0.783,2.061,0,2.844l0.535,0.534c0.377,0.378,0.883,0.587,1.42,0.587c0.539,0,1.043-0.209,1.422-0.587l4.223-4.224
			C43.16,9.551,43.16,8.276,42.375,7.491"/>
		<path style="fill:#343434;" d="M35.82,64c-3.605,0-7.08-1.658-9.792-4.619c-1.873,1.109-3.995,1.703-6.155,1.703
			c-6.747,0-12.237-5.512-12.237-12.287c0-6.777,5.49-12.292,12.237-12.292c0.695,0,1.377,0.06,2.044,0.176
			c2.37-7.12,7.746-11.754,13.904-11.754c6.156,0,11.533,4.634,13.908,11.754c0.666-0.117,1.346-0.176,2.037-0.176
			C58.512,36.505,64,42.02,64,48.797c0,6.775-5.488,12.287-12.234,12.287c-2.154,0-4.271-0.594-6.137-1.701
			C42.891,62.377,39.473,64,35.82,64 M26.843,52.967l1.441,2.051c2.032,2.891,4.708,4.482,7.537,4.482
			c2.818,0,5.506-1.595,7.563-4.491l1.449-2.038l1.873,1.654c1.434,1.264,3.23,1.959,5.061,1.959c4.266,0,7.734-3.493,7.734-7.787
			c0-4.297-3.469-7.792-7.734-7.792c-0.959,0-1.873,0.181-2.721,0.537l-2.473,1.039l-0.594-2.614
			c-1.41-6.206-5.588-10.54-10.158-10.54c-4.573,0-8.748,4.333-10.151,10.538l-0.593,2.617l-2.474-1.04
			c-0.847-0.356-1.766-0.537-2.729-0.537c-4.266,0-7.737,3.495-7.737,7.792c0,4.294,3.471,7.787,7.737,7.787
			c1.838,0,3.644-0.697,5.086-1.963L26.843,52.967z"/>
	</g>
</svg>
