<?xml version="1.0" encoding="iso-8859-1"?>
<!-- Generator: Adobe Illustrator 13.0.2, SVG Export Plug-In . SVG Version: 6.00 Build 14948)  -->
<!DOCTYPE svg PUBLIC "-//W3C//DTD SVG 1.1//EN" "http://www.w3.org/Graphics/SVG/1.1/DTD/svg11.dtd">
<svg version="1.1" xmlns="http://www.w3.org/2000/svg" xmlns:xlink="http://www.w3.org/1999/xlink" x="0px" y="0px" width="64px"
	 height="64px" viewBox="0 0 64 64" style="enable-background:new 0 0 64 64;" xml:space="preserve">
	<g id="icon-m-gallery-image-edit">
		<rect style="fill:none;" width="64" height="64"/>
		<path style="fill:#333333;" d="M9.002,54.541h32.381c0,0-6.326-22.208-13.002-7.435C24.373,37.841,16.508,26.394,9.002,54.541z"/>
		<path style="fill:#333333;" d="M45.646,36.479v21.659H4.414V25.146h21.612l1.513-4.498H0v41.989h50.063V32.3l-3.208,3.185
			C46.509,35.831,46.088,36.162,45.646,36.479z"/>
		<path style="fill:#333333;" d="M63.697,8.997l-7.313-7.33c-0.407-0.404-1.067-0.404-1.473,0L33.896,22.48
			c-0.4,0.404-0.881,1.18-1.065,1.723l-3.752,11.262c-0.179,0.541,0.117,0.837,0.661,0.656l11.248-3.752
			c0.539-0.18,1.313-0.659,1.717-1.064l20.991-20.836C64.102,10.065,64.102,9.402,63.697,8.997z M40.61,29.837l-4.487,1.497
			l-2.259-2.259l1.498-4.496l1.99-1.992l5.204,5.302L40.61,29.837z"/>
	</g>
</svg>
