<?xml version="1.0" encoding="iso-8859-1"?>
<!-- Generator: Adobe Illustrator 14.0.0, SVG Export Plug-In . SVG Version: 6.00 Build 43363)  -->
<!DOCTYPE svg PUBLIC "-//W3C//DTD SVG 1.1//EN" "http://www.w3.org/Graphics/SVG/1.1/DTD/svg11.dtd">
<svg version="1.1" id="icon-m-transfer-content-layer"
	 xmlns="http://www.w3.org/2000/svg" xmlns:xlink="http://www.w3.org/1999/xlink" x="0px" y="0px" width="64px" height="64px"
	 viewBox="0 0 64 64" style="enable-background:new 0 0 64 64;" xml:space="preserve">
<g id="icon-m-transfer-content">
	<rect style="fill:none;" width="64" height="64"/>
	<g>
		<g>
			<g>
				<g>
					<path style="fill:#333333;" d="M35.547,28.666H23.663l-0.003,6.485c0,0.513-0.608,1.16-1.263,0.569l-9.459-9.79
						c-0.333-0.303-0.329-0.824-0.005-1.125l9.465-9.841c0.554-0.501,1.263-0.004,1.263,0.568v6.638l11.888,0.002
						c0.42-0.002,0.76,0.335,0.76,0.756v4.978C36.309,28.378,35.906,28.666,35.547,28.666z"/>
				</g>
			</g>
			<g>
				<g>
					<path style="fill:#333333;" d="M28.455,35.334h11.884l0.003-6.484c0-0.514,0.608-1.161,1.263-0.57l9.46,9.79
						c0.334,0.303,0.33,0.825,0.006,1.125l-9.466,9.841c-0.554,0.5-1.263,0.004-1.263-0.568v-6.638l-11.887-0.001
						c-0.42,0.001-0.76-0.336-0.76-0.757v-4.978C27.693,35.622,28.094,35.334,28.455,35.334z"/>
				</g>
			</g>
		</g>
		<path style="fill:#333333;" d="M63,32.001C63,49.094,49.094,63,32,63C14.906,63,1,49.094,1,32.001C1,14.907,14.906,1,32,1
			C49.094,1,63,14.907,63,32.001L63,32.001z M6.314,32.001c0,14.163,11.524,25.686,25.686,25.686
			c14.161,0,25.686-11.522,25.686-25.686S46.161,6.314,32,6.314C17.838,6.314,6.314,17.838,6.314,32.001L6.314,32.001z"/>
	</g>
</g>
</svg>
