<?xml version="1.0" encoding="iso-8859-1"?>
<!-- Generator: Adobe Illustrator 14.0.0, SVG Export Plug-In . SVG Version: 6.00 Build 43363)  -->
<!DOCTYPE svg PUBLIC "-//W3C//DTD SVG 1.1//EN" "http://www.w3.org/Graphics/SVG/1.1/DTD/svg11.dtd">
<svg version="1.1" id="icon-m-settings-account-layer"
	 xmlns="http://www.w3.org/2000/svg" xmlns:xlink="http://www.w3.org/1999/xlink" x="0px" y="0px" width="64px" height="64px"
	 viewBox="0 0 64 64" style="enable-background:new 0 0 64 64;" xml:space="preserve">
<g id="icon-m-settings-account">
	<rect style="fill:none;" width="64" height="64"/>
	<path style="fill:#333333;" d="M52.442,27.113h-2.68c-0.002-3.646-0.009-8.477-0.009-8.594C49.752,8.841,41.841,1.002,32.074,1
		c-9.767,0.002-17.68,7.841-17.682,17.52c0,0.117-0.005,4.994-0.007,8.594h-2.828C10.148,27.113,9,28.227,9,29.592v30.922
		C9,61.879,10.148,63,11.557,63h40.885c1.403,0,2.556-1.115,2.556-2.486V29.592C54.996,28.227,53.846,27.113,52.442,27.113z
		 M40.625,59.469H22.391v-8.832c0-3.637,2.63-6.684,6.258-7.77c-2.199-1.063-3.729-3.289-3.729-5.891c0-3.637,2.942-6.59,6.576-6.59
		c3.629,0,6.569,2.953,6.569,6.59c0,2.596-1.522,4.82-3.716,5.883c3.637,1.082,6.275,4.137,6.275,7.777V59.469z M44.331,27.113
		H19.79c0.001-3.6,0.01-8.477,0.008-8.594c0.011-6.717,5.497-12.154,12.276-12.162c6.778,0.008,12.262,5.445,12.274,12.162
		C44.348,18.637,44.34,23.467,44.331,27.113z"/>
</g>
</svg>
