<?xml version="1.0" encoding="iso-8859-1"?>
<!-- Generator: Adobe Illustrator 14.0.0, SVG Export Plug-In . SVG Version: 6.00 Build 43363)  -->
<!DOCTYPE svg PUBLIC "-//W3C//DTD SVG 1.1//EN" "http://www.w3.org/Graphics/SVG/1.1/DTD/svg11.dtd">
<svg version="1.1" id="icon-m-startup-help-layer" xmlns="http://www.w3.org/2000/svg" xmlns:xlink="http://www.w3.org/1999/xlink"
	 x="0px" y="0px" width="64px" height="64px" viewBox="0 0 64 64" style="enable-background:new 0 0 64 64;" xml:space="preserve">
<g id="icon-m-startup-help">
	<rect style="fill:none;" width="64" height="64"/>
	<path style="fill:#333333;" d="M32.002,1C14.88,1,1,14.891,1,32.018C1,49.121,14.88,63,32.002,63C49.11,63,63,49.121,63,32.018
		C63,14.891,49.11,1,32.002,1z M31.007,53c-2.971,0-5.338-2.363-5.338-5.334c0-2.969,2.367-5.391,5.338-5.391
		c2.974,0,5.398,2.422,5.398,5.391C36.405,50.637,33.98,53,31.007,53z M38.983,30.7c-2.657,2.491-3.797,3.792-3.797,6.015v2.224
		H25.89v-2.603c0-3.74,1.844-5.963,4.665-8.564c2.06-1.896,3.795-3.521,3.795-6.068c0-3.145-2.062-4.822-5.48-4.822
		c-1.84,0-4.336,0.432-6.779,1.084v-5.203c2.549-0.596,6.534-1.084,9.407-1.084c6.945,0,12.858,2.328,12.858,9.59
		C44.355,25.768,41.587,28.207,38.983,30.7z"/>
</g>
</svg>
