<?xml version="1.0" encoding="iso-8859-1"?>
<!-- Generator: Adobe Illustrator 13.0.2, SVG Export Plug-In . SVG Version: 6.00 Build 14948)  -->
<!DOCTYPE svg PUBLIC "-//W3C//DTD SVG 1.1//EN" "http://www.w3.org/Graphics/SVG/1.1/DTD/svg11.dtd">
<svg version="1.1" xmlns="http://www.w3.org/2000/svg" xmlns:xlink="http://www.w3.org/1999/xlink" x="0px" y="0px"
	 width="64.025px" height="64.675px" viewBox="0 0 64.025 64.675" style="enable-background:new 0 0 64.025 64.675;"
	 xml:space="preserve">
	<g id="icon-m-camera-whitebalance-auto">
		<path style="fill:#343434;" d="M24.496,17.165c3.992,0,7.24,3.248,7.24,7.24s-3.248,7.24-7.24,7.24s-7.24-3.248-7.24-7.24
			S20.504,17.165,24.496,17.165 M24.496,13.165c-6.208,0-11.24,5.033-11.24,11.24c0,6.206,5.032,11.24,11.24,11.24
			c6.207,0,11.24-5.034,11.24-11.24C35.736,18.198,30.703,13.165,24.496,13.165"/>
		<path style="fill:#343434;" d="M25.044,0H24.29c-1.109,0-2.011,0.902-2.011,2.011v5.972c0,1.107,0.902,2.01,2.011,2.01h0.755
			c1.108,0,2.01-0.902,2.01-2.01V2.011C27.054,0.902,26.152,0,25.044,0"/>
		<path style="fill:#343434;" d="M7.982,22.279H2.01c-1.108,0-2.01,0.901-2.01,2.01v0.756c0,1.107,0.902,2.01,2.01,2.01h5.972
			c1.108,0,2.01-0.902,2.01-2.01v-0.756C9.992,23.181,9.09,22.279,7.982,22.279"/>
		<path style="fill:#343434;" d="M46.982,22.279H41.01c-1.107,0-2.01,0.901-2.01,2.01v0.756c0,1.107,0.902,2.01,2.01,2.01h5.973
			c1.107,0,2.01-0.902,2.01-2.01v-0.756C48.992,23.181,48.09,22.279,46.982,22.279"/>
		<path style="fill:#343434;" d="M14.557,11.181l-4.222-4.223C9.577,6.2,8.248,6.2,7.492,6.958L6.957,7.492
			c-0.783,0.783-0.783,2.059,0,2.843l4.223,4.222c0.378,0.379,0.883,0.588,1.421,0.588c0.539,0,1.043-0.209,1.422-0.588l0.534-0.533
			c0.379-0.379,0.587-0.884,0.587-1.422S14.936,11.559,14.557,11.181"/>
		<path style="fill:#343434;" d="M42.375,7.49l-0.533-0.532c-0.758-0.759-2.086-0.759-2.844,0l-4.223,4.222
			c-0.783,0.784-0.783,2.06,0,2.844l0.535,0.533c0.377,0.379,0.883,0.588,1.42,0.588c0.539,0,1.043-0.209,1.422-0.588l4.223-4.223
			C43.16,9.551,43.16,8.275,42.375,7.49"/>
		<path style="fill:#343434;" d="M24.289,48.811h0.755c1.109,0,2.011-0.901,2.011-2.01v-5.972c0-1.108-0.902-2.011-2.011-2.011
			h-0.755c-1.108,0-2.01,0.902-2.01,2.011v5.972C22.279,47.909,23.181,48.811,24.289,48.811"/>
		<path style="fill:#343434;" d="M34.775,37.631l4.223,4.223c0.758,0.758,2.086,0.758,2.842,0l0.535-0.534
			c0.783-0.784,0.783-2.06,0-2.843l-4.223-4.223c-0.377-0.379-0.883-0.588-1.42-0.588c-0.539,0-1.043,0.209-1.422,0.588
			l-0.535,0.533c-0.379,0.379-0.586,0.885-0.586,1.422C34.189,36.748,34.396,37.252,34.775,37.631"/>
		<path style="fill:#343434;" d="M6.958,41.32l0.534,0.533c0.758,0.758,2.086,0.758,2.843,0l4.222-4.223
			c0.784-0.783,0.784-2.059,0-2.844l-0.534-0.533c-0.378-0.379-0.883-0.587-1.421-0.587c-0.539,0-1.043,0.208-1.421,0.587
			l-4.223,4.223C6.173,39.26,6.173,40.535,6.958,41.32"/>
		<path style="fill:#343434;" d="M56.113,37.675h-6.258l-8.061,27h4.547l1.791-6.193h9.031l1.793,6.193h5.068L56.113,37.675z
			 M49.002,55.062l3.688-13.343l3.652,13.403L49.002,55.062z"/>
	</g>
</svg>
