<?xml version="1.0" encoding="iso-8859-1"?>
<!-- Generator: Adobe Illustrator 13.0.2, SVG Export Plug-In . SVG Version: 6.00 Build 14948)  -->
<!DOCTYPE svg PUBLIC "-//W3C//DTD SVG 1.1//EN" "http://www.w3.org/Graphics/SVG/1.1/DTD/svg11.dtd">
<svg version="1.1" xmlns="http://www.w3.org/2000/svg" xmlns:xlink="http://www.w3.org/1999/xlink" x="0px" y="0px" width="64px"
	 height="61.677px" viewBox="0 0 64 61.677" style="enable-background:new 0 0 64 61.677;" xml:space="preserve">
	<g id="icon-m-energy-management-insufficient-power">
		<path style="fill:#343434;" d="M25.281,55.804H6.115c-1.004,0-1.827-0.819-1.827-1.828V11.808c0-1.007,0.823-1.832,1.827-1.832
			h23.771c1.009,0,1.829,0.825,1.829,1.832v12.596c1.329-0.987,2.766-1.837,4.285-2.536V6.398c0-1.01-0.824-1.828-1.828-1.828
			h-9.804V1.828C24.368,0.82,23.543,0,22.541,0h-9.082c-1.007,0-1.829,0.82-1.829,1.828V4.57H1.828C0.823,4.57,0,5.389,0,6.398
			v51.125c0,1.006,0.823,1.828,1.828,1.828h26.021C26.888,58.242,26.028,57.078,25.281,55.804"/>
		<path style="fill:#343434;" d="M46,25.677c-9.94,0-18,8.06-18,18s8.059,18,18,18s18-8.06,18-18S55.94,25.677,46,25.677
			 M43.138,31.375c0.446-0.45,1.041-0.698,1.675-0.698h2.549c1.307,0,2.37,1.063,2.37,2.369l-0.653,10.259
			c0.002,0.588-0.242,1.175-0.687,1.619c-0.45,0.45-1.046,0.698-1.681,0.698h-1.248c-1.306,0-2.367-1.063-2.367-2.371L42.445,33.1
			C42.443,32.427,42.689,31.826,43.138,31.375 M46.002,56.925c-2.346,0-4.252-1.907-4.252-4.251c0-2.343,1.906-4.249,4.252-4.249
			c2.343,0,4.248,1.906,4.248,4.249C50.25,55.018,48.345,56.925,46.002,56.925"/>
	</g>
</svg>
