<?xml version="1.0" encoding="iso-8859-1"?>
<!-- Generator: Adobe Illustrator 13.0.2, SVG Export Plug-In . SVG Version: 6.00 Build 14948)  -->
<!DOCTYPE svg PUBLIC "-//W3C//DTD SVG 1.1//EN" "http://www.w3.org/Graphics/SVG/1.1/DTD/svg11.dtd">
<svg version="1.1" xmlns="http://www.w3.org/2000/svg" xmlns:xlink="http://www.w3.org/1999/xlink" x="0px" y="0px" width="91px"
	 height="44.028px" viewBox="0 0 91 44.028" style="enable-background:new 0 0 91 44.028;" xml:space="preserve">
	<g id="icon-m-common-35g">
		<path style="fill:#333333;" d="M32.266,35.213c-2.506,0-4.425,1.762-4.425,4.387c0,2.597,1.918,4.408,4.425,4.408
			c2.521,0,4.472-1.812,4.472-4.408C36.738,36.975,34.787,35.213,32.266,35.213z"/>
		<path style="fill:#333333;" d="M17.983,20.699c5.092-1.545,7.903-4.961,7.903-9.995C25.886,2.723,19.972,0,11.76,0
			C8.04,0,4.412,0.645,1.309,1.422v5.744c2.853-0.773,5.734-1.475,8.494-1.475c4.239,0,6.398,1.77,6.402,5.611
			c0,5.393-3.407,6.738-12.374,6.738v5.46c9.202,0,12.896,1.351,12.896,7.44c0,4.795-2.146,7.391-7.64,7.391
			c-2.708,0-5.498-0.596-9.086-1.416v5.756c3.409,0.881,6.27,1.356,10.459,1.356c10.288,0,16.137-3.789,16.137-13.274
			C26.596,25.493,23.548,21.713,17.983,20.699z"/>
		<path style="fill:#333333;" d="M49.945,15.918V6.143h14.527v-5.67H41.108v21.482c14.179-1.602,15.156,3.008,15.156,7.742
			c0,5.793-2.304,8.635-8.048,8.635c-2.705,0-5.496-0.525-8.498-1.309v5.814c3.161,0.754,6.698,1.17,10.226,1.17
			c11.117,0,16.137-4.771,16.137-14.612C66.082,20.354,60.709,14.992,49.945,15.918z"/>
		<path style="fill:#333333;" d="M81.785,28.314v3.908h2.602v3.787c0,2.385-0.986,4.123-3.084,4.123
			c-4.152,0-4.414-5.697-4.414-11.703c0-5.344,1.277-10.846,6.758-10.846c2.066,0,3.842,0.193,5.784,0.734v-3.893
			c-2.021-0.531-4.203-0.768-6.385-0.768c-10.162,0-13.199,6.936-13.199,14.851c0,7.634,1.339,15.499,10.341,15.499
			c2.555,0,4.863-1.174,6.025-2.936l0.826,2.625H91V28.314H81.785z"/>
	</g>
</svg>
