<?xml version="1.0" encoding="iso-8859-1"?>
<!-- Generator: Adobe Illustrator 14.0.0, SVG Export Plug-In . SVG Version: 6.00 Build 43363)  -->
<!DOCTYPE svg PUBLIC "-//W3C//DTD SVG 1.1//EN" "http://www.w3.org/Graphics/SVG/1.1/DTD/svg11.dtd">
<svg version="1.1" id="icon-m-image-edit-draw-layer"
	 xmlns="http://www.w3.org/2000/svg" xmlns:xlink="http://www.w3.org/1999/xlink" x="0px" y="0px" width="64px" height="64px"
	 viewBox="0 0 64 64" style="enable-background:new 0 0 64 64;" xml:space="preserve">
<g id="icon-m-image-edit-draw">
	<rect style="fill:none;" width="64" height="64"/>
	<path style="fill:#333333;" d="M12.619,44.752l9.51-3.1l-6.954-6.895l-3.194,9.365C11.803,44.643,12.09,44.924,12.619,44.752z"/>
	<path style="fill:#333333;" d="M56.232,11.078c0.572-0.564,0.672-1.385,0.223-1.824l-8.188-7.982
		c-0.451-0.436-1.292-0.336-1.863,0.223L18.963,28.596l9.771,9.689L56.232,11.078z"/>
	<path style="fill:#333333;" d="M61.066,54.506c-1.154-2.645-3.346-4.611-6.338-5.688c-3.713-1.34-8.455-1.104-11.797,0.582
		c-1.887,0.953-3.516,2.248-5.09,3.502c-1.688,1.344-3.279,2.613-5.004,3.312c-7.492,3.037-16.105,1.881-26.332-3.531
		c-1.258-0.666-2.824-0.188-3.492,1.074C2.348,55.02,2.828,56.584,4.09,57.25C11.325,61.082,18.098,63,24.336,63
		c3.67,0,7.158-0.664,10.443-1.996c2.416-0.979,4.38-2.545,6.283-4.059c1.432-1.141,2.785-2.219,4.195-2.932
		c1.791-0.902,5.016-1.307,7.721-0.334c1.643,0.592,2.773,1.566,3.354,2.895c0.572,1.309,2.094,1.906,3.402,1.334
		C61.041,57.336,61.639,55.812,61.066,54.506z"/>
</g>
</svg>
