<?xml version="1.0" encoding="iso-8859-1"?>
<!-- Generator: Adobe Illustrator 14.0.0, SVG Export Plug-In . SVG Version: 6.00 Build 43363)  -->
<!DOCTYPE svg PUBLIC "-//W3C//DTD SVG 1.1//EN" "http://www.w3.org/Graphics/SVG/1.1/DTD/svg11.dtd">
<svg version="1.1" id="icon-m-image-edit-save-as-layer"
	 xmlns="http://www.w3.org/2000/svg" xmlns:xlink="http://www.w3.org/1999/xlink" x="0px" y="0px" width="64px" height="64px"
	 viewBox="0 0 64 64" style="enable-background:new 0 0 64 64;" xml:space="preserve">
<g id="icon-m-image-edit-save-as">
	<rect style="fill:none;" width="64" height="64"/>
	<path style="fill:#333333;" d="M30.488,36.152l-0.203,0.533l-0.256-0.271l-2.734,7.188c-0.152,0.398,0.062,0.623,0.479,0.504
		l7.475-2.152l-0.254-0.268l0.555-0.16L30.488,36.152z"/>
	<path style="fill:#333333;" d="M24.223,17.193h5.555c0.475,0,0.859-0.389,0.859-0.859V9.5h-7.271v6.834
		C23.365,16.805,23.752,17.193,24.223,17.193z"/>
	<path style="fill:#333333;" d="M24.232,41.078H14.98v3.43h8.867c-0.248-0.916-0.204-1.904,0.166-2.854
		C24.086,41.463,24.16,41.27,24.232,41.078z"/>
	<path style="fill:#333333;" d="M26.154,36.029c0.379-0.996,0.746-2,1.117-3.002H14.873v3.432h11.119
		C26.045,36.316,26.1,36.174,26.154,36.029z"/>
	<path style="fill:#333333;" d="M43.332,42.127c-0.748,0.555-1.289,1.316-2.045,1.854c-0.541,0.387-1.229,0.494-1.861,0.678
		c-0.527,0.154-1.055,0.303-1.582,0.455v2.412c0,0.945-0.777,1.715-1.723,1.715H10.939c-0.943,0-1.723-0.77-1.723-1.715V29.803
		c0-0.943,0.779-1.717,1.723-1.717h20.332c0.051-0.057,0.098-0.109,0.15-0.168c0.812-0.914,1.822-1.701,2.723-2.527
		c2.254-2.066,4.506-4.133,6.762-6.197c1.719-1.576,3.436-3.152,5.154-4.729V11.32c0-0.943-0.773-1.713-1.723-1.713h-8.42v11.156
		c0,0.473-0.385,0.857-0.857,0.857H12c-0.473,0-0.857-0.385-0.857-0.857V9.607h-8.42C1.771,9.607,1,10.377,1,11.32v41.463
		C1,53.727,1.771,54.5,2.723,54.5h41.615c0.949,0,1.723-0.773,1.723-1.717V39.627c-0.607,0.559-1.215,1.115-1.824,1.676
		C43.941,41.572,43.654,41.887,43.332,42.127z"/>
	<path style="fill:#333333;" d="M62.799,17.715l-6.146-6.418c-0.34-0.35-0.994-0.295-1.453,0.123L33.141,31.73l7.33,7.785
		l22.107-20.391C63.037,18.703,63.137,18.068,62.799,17.715z"/>
</g>
</svg>
