<?xml version="1.0" encoding="iso-8859-1"?>
<!-- Generator: Adobe Illustrator 14.0.0, SVG Export Plug-In . SVG Version: 6.00 Build 43363)  -->
<!DOCTYPE svg PUBLIC "-//W3C//DTD SVG 1.1//EN" "http://www.w3.org/Graphics/SVG/1.1/DTD/svg11.dtd">
<svg version="1.1" id="icon-m-widget-layer" xmlns="http://www.w3.org/2000/svg" xmlns:xlink="http://www.w3.org/1999/xlink"
	 x="0px" y="0px" width="64px" height="64px" viewBox="0 0 64 64" style="enable-background:new 0 0 64 64;" xml:space="preserve">
<g id="icon-m-widget">
	<rect style="fill:none;" width="64" height="64"/>
	<path style="fill:#333333;" d="M55.366,36.264l7.555-1.432l-0.009-6.256l-7.464-1.432c-0.577-3.113-1.777-6.135-3.6-8.865
		l0.047,0.047l4.415-6.502l-4.357-4.357L41.938,17.484c0.792,0.557,1.558,1.176,2.266,1.885c6.649,6.648,6.663,17.416,0.03,24.049
		c-6.632,6.633-17.399,6.619-24.048-0.029c-6.649-6.648-6.66-17.414-0.029-24.047c0.746-0.746,1.554-1.398,2.392-1.977l-9.502-9.502
		l-0.66-0.451l-4.42,4.42l4.32,6.344c-1.833,2.734-3.035,5.762-3.611,8.889l-7.598,1.438l0.009,6.256l7.693,1.475
		c0.626,3.021,1.838,5.949,3.648,8.594l-4.283,6.305l4.429,4.428l6.354-4.314c2.704,1.805,5.7,2.994,8.787,3.574l1.469,7.67
		l6.258,0.006l1.463-7.727h-0.13c3.012-0.6,5.931-1.781,8.569-3.557l6.269,4.268l4.419-4.42l-4.256-6.254
		C53.562,42.176,54.755,39.268,55.366,36.264z"/>
	<path style="fill:#333333;" d="M30.064,22.164c0,0.521-0.073,1.021-0.202,1.475l0.006,0.002c-0.26,0.918-1.004,3.301-1.004,3.301
		c-1.668,6.365-0.895,9.088-0.254,10.162c0.557,1.145,1.727,1.965,3.136,2.16c3.284,0.678,5.575-3.506,5.575-3.506
		c0.382-0.518,0.442-0.799,0.385-0.953c-0.359,0.473-1.077,0.795-1.907,0.795c-0.91,0-1.687-0.389-2.001-0.938
		c-0.025-0.041-0.049-0.09-0.069-0.145c-0.04-0.096-0.063-0.195-0.073-0.297c-0.276-1.742,0.91-6.729,1.171-7.787l0.019-0.049
		c0,0,1.27-5.33,1.621-7.301c0.129-0.561,0.159-1.131,0.064-1.682c-0.4-2.346-2.854-3.475-5.479-2.523
		c-1.717,0.621-3.082,1.98-3.707,3.504c0.053-0.004,0.105-0.008,0.16-0.008C28.917,18.375,30.064,20.07,30.064,22.164z"/>
	<circle style="fill:#333333;" cx="34.114" cy="6.006" r="4.5"/>
</g>
</svg>
