<?xml version="1.0" encoding="iso-8859-1"?>
<!-- Generator: Adobe Illustrator 14.0.0, SVG Export Plug-In . SVG Version: 6.00 Build 43363)  -->
<!DOCTYPE svg PUBLIC "-//W3C//DTD SVG 1.1//EN" "http://www.w3.org/Graphics/SVG/1.1/DTD/svg11.dtd">
<svg version="1.1" id="icon-m-framework-search-layer"
	 xmlns="http://www.w3.org/2000/svg" xmlns:xlink="http://www.w3.org/1999/xlink" x="0px" y="0px" width="64px" height="64px"
	 viewBox="0 0 64 64" style="enable-background:new 0 0 64 64;" xml:space="preserve">
<g id="icon-m-framework-search">
	<rect style="fill:none;" width="64" height="64"/>
	<path style="fill:#FFFFFF;" d="M34.969,19.25c-4.334-4.334-11.385-4.334-15.718,0c-4.333,4.332-4.333,11.385,0,15.717
		c3.977,3.979,10.244,4.303,14.597,0.977l2.334,2.334l0.479,2.683c0.05,0.272,0.248,0.653,0.443,0.849l5.901,5.898
		c0.391,0.391,1.029,0.391,1.419,0l3.28-3.279c0.391-0.391,0.391-1.029,0-1.42l-5.895-5.904c-0.196-0.195-0.578-0.395-0.85-0.443
		l-2.684-0.479l-2.333-2.334C39.27,29.494,38.945,23.229,34.969,19.25z M32.526,32.525c-2.986,2.986-7.846,2.986-10.833,0
		c-2.987-2.986-2.987-7.846,0-10.833c2.987-2.986,7.847-2.986,10.833,0C35.513,24.68,35.513,29.539,32.526,32.525z"/>
</g>
</svg>
