<?xml version="1.0" encoding="iso-8859-1"?>
<!-- Generator: Adobe Illustrator 14.0.0, SVG Export Plug-In . SVG Version: 6.00 Build 43363)  -->
<!DOCTYPE svg PUBLIC "-//W3C//DTD SVG 1.1//EN" "http://www.w3.org/Graphics/SVG/1.1/DTD/svg11.dtd">
<svg version="1.1" id="icon-l-organizer-layer" xmlns="http://www.w3.org/2000/svg" xmlns:xlink="http://www.w3.org/1999/xlink"
	 x="0px" y="0px" width="66px" height="65px" viewBox="0 0 66 65" style="enable-background:new 0 0 66 65;" xml:space="preserve">
<g id="icon-l-organizer">
	<path style="opacity:0.2;" d="M59.49,54.84l0.008-27.375c0-0.816-0.66-1.479-1.477-1.479h-5.42V25.75
		c0-1.326-1.078-2.404-2.406-2.404c-1.324,0-2.402,1.078-2.402,2.404v0.236h-0.291l0.004-15.361c0-0.814-0.662-1.477-1.477-1.477
		h-8.35V8.992c0-1.707-1.391-3.094-3.098-3.094h-14.73c-1.707,0-3.094,1.387-3.094,3.094v0.156H8.409
		c-0.816,0-1.479,0.662-1.479,1.477V50.18c-0.028,0.174-0.29,3.16,1.634,5.309c1.181,1.314,2.868,1.982,5.009,1.982h10.778
		c0.19,0.525,0.47,1.066,0.905,1.553c0.631,0.703,1.812,1.545,3.854,1.545h25.274c2.047,0,3.227-0.842,3.857-1.547
		C59.723,57.365,59.518,55.094,59.49,54.84z"/>
	<path style="opacity:0.5;" d="M58.021,55.004V27.465h-6.895V25.75c0-0.508-0.42-0.926-0.932-0.926
		c-0.514,0-0.924,0.418-0.924,0.926v1.715h-3.242v-16.84H8.409V50.18c0,0-0.649,5.814,5.164,5.814h11.929
		c0.152,1.209,0.828,3.096,3.608,3.096h25.274C58.477,59.09,58.021,55.004,58.021,55.004z"/>
	<linearGradient id="SVGID_1_" gradientUnits="userSpaceOnUse" x1="27.2183" y1="-3.146" x2="27.2183" y2="55.0607">
		<stop  offset="0" style="stop-color:#FFFFFF"/>
		<stop  offset="1" style="stop-color:#B3B3B3"/>
	</linearGradient>
	<path style="fill:url(#SVGID_1_);" d="M46.029,48.703V9.148H8.409v39.555c0,0-0.649,5.813,5.164,5.813h27.286
		C46.67,54.516,46.029,48.703,46.029,48.703z"/>
	<path style="opacity:0.3;" d="M42.494,12.801H11.943c-0.647,0-1.021,0.548-1.021,1.024v36.122c0,0.404,0.31,1.025,1.021,1.025
		h30.551c0.805,0,1.021-0.75,1.021-1.025V13.825C43.516,13.289,43.076,12.801,42.494,12.801z"/>
	<linearGradient id="SVGID_2_" gradientUnits="userSpaceOnUse" x1="27.2192" y1="11.3438" x2="27.2192" y2="94.6548">
		<stop  offset="0" style="stop-color:#FFFFFF"/>
		<stop  offset="1" style="stop-color:#B3B2C9"/>
	</linearGradient>
	<rect x="11.944" y="12.801" style="fill:url(#SVGID_2_);" width="30.55" height="36.242"/>
	<rect x="18.232" y="14.711" style="opacity:0.2;fill:#010101;" width="17.96" height="2.533"/>
	<rect x="16.322" y="21.402" style="fill:#666666;" width="21.768" height="1.615"/>
	<rect x="16.322" y="35.42" style="fill:#666666;" width="21.768" height="1.617"/>
	<rect x="16.322" y="42.43" style="fill:#666666;" width="18.025" height="1.619"/>
	<rect x="16.322" y="28.41" style="fill:#666666;" width="21.768" height="1.619"/>
	<linearGradient id="SVGID_3_" gradientUnits="userSpaceOnUse" x1="27.2163" y1="-0.1113" x2="27.2163" y2="25.0883">
		<stop  offset="0" style="stop-color:#517EBF"/>
		<stop  offset="1" style="stop-color:#283176"/>
	</linearGradient>
	<path style="fill:url(#SVGID_3_);" d="M34.582,5.898h-14.73c-0.89,0-1.619,0.73-1.619,1.615v8.089h17.969V7.514
		C36.201,6.629,35.475,5.898,34.582,5.898z"/>
	<path style="opacity:0.4;fill:#FFFFFF;" d="M35.701,6.355c-0.289-0.279-0.684-0.457-1.119-0.457h-14.73
		c-0.89,0-1.619,0.73-1.619,1.615v8.089l1.62-1.616V7.514h14.733L35.701,6.355z"/>
	<path style="opacity:0.4;" d="M35.469,24.51v-0.238c-0.006-1.216-0.982-2.188-2.194-2.193c-1.215,0-2.196,0.984-2.196,2.193v0.238
		h-5.603c-0.814,0-1.476,0.662-1.476,1.477v27.541c-0.008,0.033-0.041,0.43,0.01,0.988h16.849c5.811,0,5.17-5.813,5.17-5.813V24.51
		H35.469z"/>
	<linearGradient id="SVGID_4_" gradientUnits="userSpaceOnUse" x1="41.748" y1="18.187" x2="41.748" y2="46.1267">
		<stop  offset="0" style="stop-color:#FFFFFF"/>
		<stop  offset="1" style="stop-color:#B3B3B3"/>
	</linearGradient>
	<path style="fill:url(#SVGID_4_);" d="M58.021,53.527V25.986H25.476v27.541c0,0-0.454,4.086,3.635,4.086h25.274
		C58.477,57.613,58.021,53.527,58.021,53.527z"/>
	<path style="opacity:0.3;" d="M55.027,28.773c-0.137-0.134-0.316-0.207-0.508-0.207H28.978c-0.188,0-0.372,0.076-0.508,0.207
		c-0.132,0.133-0.21,0.317-0.21,0.508v24.109c0,0.188,0.078,0.375,0.21,0.508c0.136,0.135,0.321,0.211,0.508,0.211H54.52
		c0.191,0,0.371-0.072,0.508-0.211c0.137-0.135,0.211-0.313,0.211-0.508V29.281C55.238,29.091,55.164,28.912,55.027,28.773z"/>
	<linearGradient id="SVGID_5_" gradientUnits="userSpaceOnUse" x1="41.751" y1="30.562" x2="41.751" y2="126.9221">
		<stop  offset="0" style="stop-color:#FFFFFF"/>
		<stop  offset="1" style="stop-color:#B3B2C9"/>
	</linearGradient>
	<rect x="28.981" y="28.566" style="fill:url(#SVGID_5_);" width="25.538" height="24.188"/>
	<linearGradient id="SVGID_6_" gradientUnits="userSpaceOnUse" x1="37.1553" y1="26.3608" x2="37.1553" y2="61.7147">
		<stop  offset="0" style="stop-color:#E92629"/>
		<stop  offset="0.3873" style="stop-color:#C72226"/>
		<stop  offset="1" style="stop-color:#911A1D"/>
	</linearGradient>
	<path style="fill:url(#SVGID_6_);" d="M40.584,48.354h-6.658v-1.463h2.033v-8.945l-2.232,0.477v-1.465l3.5-1.123h1.48v11.057h1.877
		V48.354z"/>
	<linearGradient id="SVGID_7_" gradientUnits="userSpaceOnUse" x1="45.8545" y1="26.3516" x2="45.8545" y2="61.7203">
		<stop  offset="0" style="stop-color:#E92629"/>
		<stop  offset="0.3873" style="stop-color:#C72226"/>
		<stop  offset="1" style="stop-color:#911A1D"/>
	</linearGradient>
	<path style="fill:url(#SVGID_7_);" d="M49.773,48.354h-7.838v-1.09c0-0.891,0.227-1.762,0.672-2.598
		c0.443-0.848,1.295-1.793,2.557-2.842c0.67-0.563,1.125-1.021,1.371-1.389c0.248-0.363,0.373-0.773,0.373-1.23
		c0-1.178-0.639-1.773-1.918-1.773c-0.709,0-1.584,0.191-2.625,0.57v-1.695c1.137-0.34,2.248-0.512,3.324-0.512
		c1.324,0,2.326,0.281,3.01,0.838c0.684,0.563,1.023,1.385,1.023,2.477c0,0.52-0.082,0.998-0.254,1.432
		c-0.168,0.432-0.422,0.838-0.752,1.219c-0.326,0.379-0.816,0.844-1.467,1.385c-0.717,0.605-1.24,1.076-1.57,1.416
		c-0.324,0.342-0.586,0.688-0.77,1.041c-0.186,0.352-0.295,0.719-0.33,1.098h5.193V48.354z"/>
	<linearGradient id="SVGID_8_" gradientUnits="userSpaceOnUse" x1="41.751" y1="25.7188" x2="41.751" y2="71.4963">
		<stop  offset="0" style="stop-color:#E92629"/>
		<stop  offset="0.3873" style="stop-color:#C72226"/>
		<stop  offset="1" style="stop-color:#911A1D"/>
	</linearGradient>
	<rect x="28.981" y="28.566" style="fill:url(#SVGID_8_);" width="25.538" height="3.863"/>
	<linearGradient id="SVGID_9_" gradientUnits="userSpaceOnUse" x1="38.3037" y1="36.875" x2="60.604" y2="59.1753">
		<stop  offset="0" style="stop-color:#FFFFFF"/>
		<stop  offset="1" style="stop-color:#B3B2C9"/>
	</linearGradient>
	<polygon style="fill:url(#SVGID_9_);" points="54.539,47.855 49.342,47.561 48.934,52.76 	"/>
	<polygon style="fill:#FFFFFF;" points="48.934,52.76 54.539,52.76 54.539,47.855 	"/>
	<path style="opacity:0.3;fill:#010101;" d="M30.88,25.992l0.593,3.733c0,1.003,0.816,1.815,1.822,1.815
		c1.002,0,1.816-0.813,1.816-1.815l0.598-3.733H30.88z"/>
	<circle style="fill:#010101;" cx="33.27" cy="29.76" r="1.353"/>
	<linearGradient id="SVGID_10_" gradientUnits="userSpaceOnUse" x1="32.9321" y1="26.9629" x2="34.841" y2="26.9629">
		<stop  offset="0" style="stop-color:#E3E3E3"/>
		<stop  offset="1" style="stop-color:#414141"/>
	</linearGradient>
	<path style="fill:url(#SVGID_10_);" d="M33.275,23.346c0.508,0,0.928,0.418,0.928,0.926v5.384c0,0.515-0.42,0.925-0.928,0.925l0,0
		c-0.514,0-0.928-0.41-0.928-0.925v-5.384C32.348,23.764,32.761,23.346,33.275,23.346L33.275,23.346z"/>
	<path style="opacity:0.3;fill:#010101;" d="M47.791,25.992l0.592,3.733c0,1.003,0.82,1.815,1.822,1.815
		c1,0,1.816-0.813,1.816-1.815l0.598-3.733H47.791z"/>
	<circle style="fill:#010101;" cx="50.202" cy="29.76" r="1.353"/>
	<linearGradient id="SVGID_11_" gradientUnits="userSpaceOnUse" x1="49.8428" y1="26.9629" x2="51.4372" y2="26.9629">
		<stop  offset="0" style="stop-color:#E3E3E3"/>
		<stop  offset="1" style="stop-color:#414141"/>
	</linearGradient>
	<path style="fill:url(#SVGID_11_);" d="M50.195,23.346c0.512,0,0.932,0.418,0.932,0.926v5.384c0,0.515-0.42,0.925-0.932,0.925l0,0
		c-0.514,0-0.924-0.41-0.924-0.925v-5.384C49.271,23.764,49.682,23.346,50.195,23.346L50.195,23.346z"/>
	<rect x="1" style="fill:none;" width="65.01" height="65"/>
</g>
</svg>
