<?xml version="1.0" encoding="iso-8859-1"?>
<!-- Generator: Adobe Illustrator 13.0.2, SVG Export Plug-In . SVG Version: 6.00 Build 14948)  -->
<!DOCTYPE svg PUBLIC "-//W3C//DTD SVG 1.1//EN" "http://www.w3.org/Graphics/SVG/1.1/DTD/svg11.dtd">
<svg version="1.1" xmlns="http://www.w3.org/2000/svg" xmlns:xlink="http://www.w3.org/1999/xlink" x="0px" y="0px" width="64px"
	 height="64px" viewBox="0 0 64 64" style="enable-background:new 0 0 64 64;" xml:space="preserve">
	<g id="icon-m-toolbar-favorite-unmark">
		<rect style="fill:none;" width="64" height="64"/>
		<path style="fill:#FFFFFF;" d="M50.748,62.173L50.748,62.173c-0.56,0-1.149-0.201-1.743-0.598L32.565,50.62
			c-0.071-0.047-0.27-0.127-0.565-0.127c-0.3,0-0.499,0.08-0.569,0.127L14.989,61.575c-1.367,0.909-2.811,0.713-3.546-0.311
			c-0.339-0.472-0.651-1.302-0.224-2.576l6.377-18.983c0.078-0.237-0.076-0.731-0.275-0.882L1.785,27.276
			c-1.543-1.146-1.337-2.393-1.178-2.875c0.159-0.484,0.739-1.606,2.66-1.606h19.419c0.255,0,0.687-0.31,0.768-0.552l6.18-18.401
			C30.241,2.024,31.489,1.829,32,1.829c0.507,0,1.755,0.195,2.364,2.012l6.174,18.401c0.083,0.243,0.514,0.553,0.77,0.553h19.422
			c1.922,0,2.502,1.122,2.66,1.606c0.16,0.482,0.366,1.729-1.177,2.875L46.677,38.823c-0.199,0.15-0.356,0.645-0.275,0.883
			l6.373,18.983c0.428,1.276,0.113,2.105-0.226,2.577C52.134,61.842,51.478,62.173,50.748,62.173L50.748,62.173z M32,46.788
			c0.963,0,1.894,0.266,2.62,0.748l13.521,9.011l-5.254-15.662c-0.59-1.764,0.088-3.929,1.58-5.036l12.574-9.346l-15.734-0.002
			c-1.852,0-3.693-1.324-4.282-3.08L32,8.442l-5.032,14.979c-0.588,1.756-2.43,3.08-4.281,3.08H6.957l12.571,9.348
			c1.492,1.109,2.174,3.273,1.582,5.036l-5.26,15.66l13.527-9.009C30.103,47.054,31.032,46.788,32,46.788L32,46.788z"/>
	</g>
</svg>
