<?xml version="1.0" encoding="iso-8859-1"?>
<!-- Generator: Adobe Illustrator 14.0.0, SVG Export Plug-In . SVG Version: 6.00 Build 43363)  -->
<!DOCTYPE svg PUBLIC "-//W3C//DTD SVG 1.1//EN" "http://www.w3.org/Graphics/SVG/1.1/DTD/svg11.dtd">
<svg version="1.1" id="icon-m-telephony-dialer-layer"
	 xmlns="http://www.w3.org/2000/svg" xmlns:xlink="http://www.w3.org/1999/xlink" x="0px" y="0px" width="64px" height="64px"
	 viewBox="0 0 64 64" style="enable-background:new 0 0 64 64;" xml:space="preserve">
<g id="icon-m-telephony-dialer">
	<rect style="fill:none;" width="64" height="64"/>
	<rect x="24.162" y="1.436" style="fill:#333333;" width="15.896" height="9.271"/>
	<path style="fill:#333333;" d="M15.894,1.436H3.704C1.659,1.436,0,3.008,0,4.941v5.766h15.894V1.436z"/>
	<path style="fill:#333333;" d="M64,4.941c0-1.934-1.657-3.506-3.707-3.506H48.105v9.271H64V4.941z"/>
	<rect x="24.162" y="18.797" style="fill:#333333;" width="15.896" height="9.271"/>
	<rect x="24.162" y="36.156" style="fill:#333333;" width="15.896" height="9.271"/>
	<rect y="18.797" style="fill:#333333;" width="15.894" height="9.271"/>
	<path style="fill:#333333;" d="M0,41.922c0,1.936,1.659,3.506,3.704,3.506h12.189v-9.271H0V41.922z"/>
	<path style="fill:#333333;" d="M48.105,45.428h12.188c2.05,0,3.707-1.57,3.707-3.506v-5.766H48.105V45.428z"/>
	<rect x="48.105" y="18.797" style="fill:#333333;" width="15.895" height="9.271"/>
	<path style="fill:#333333;" d="M40.058,53.295v6.18c0,1.705-1.657,3.092-3.705,3.092h-8.484c-2.045,0-3.706-1.387-3.706-3.092
		v-6.18H40.058z"/>
</g>
</svg>
