<?xml version="1.0" encoding="iso-8859-1"?>
<!-- Generator: Adobe Illustrator 14.0.0, SVG Export Plug-In . SVG Version: 6.00 Build 43363)  -->
<!DOCTYPE svg PUBLIC "-//W3C//DTD SVG 1.1//EN" "http://www.w3.org/Graphics/SVG/1.1/DTD/svg11.dtd">
<svg version="1.1" id="icon-m-telephony-call-end-layer"
	 xmlns="http://www.w3.org/2000/svg" xmlns:xlink="http://www.w3.org/1999/xlink" x="0px" y="0px" width="64px" height="64px"
	 viewBox="0 0 64 64" style="enable-background:new 0 0 64 64;" xml:space="preserve">
<g id="icon-m-telephony-call-end">
	<rect style="fill:none;" width="64" height="64"/>
	<g>
		<path style="fill:#EC2227;" d="M23.184,51.314c0,0-0.831-5.088,1.389-5.593c1.539-0.347,13.302-0.34,14.841,0.011
			c2.226,0.508,1.408,5.598,1.408,5.598L23.184,51.314z"/>
		<path style="fill:#EC2227;" d="M54.926,35.136c-9.768-3.524-34.568-5.121-45.927-0.039c-4.976,2.226-7.86,10.731-7.405,14.72
			c-0.01,0.008,0.184,2.102,2.011,1.986l14.043-2.072c0.93-0.115,2.014-0.4,2.007-2.043c0,0-1.164-7.12,1.941-7.824
			c2.154-0.48,18.604-0.467,20.755,0.015c3.111,0.714,1.971,7.833,1.971,7.833c0.005,1.647,1.092,1.922,2.018,2.039L60.4,51.855
			c1.837,0.11,2.018-1.984,2.012-1.99C62.831,45.885,60.074,36.998,54.926,35.136z"/>
	</g>
</g>
</svg>
