<?xml version="1.0" encoding="iso-8859-1"?>
<!-- Generator: Adobe Illustrator 14.0.0, SVG Export Plug-In . SVG Version: 6.00 Build 43363)  -->
<!DOCTYPE svg PUBLIC "-//W3C//DTD SVG 1.1//EN" "http://www.w3.org/Graphics/SVG/1.1/DTD/svg11.dtd">
<svg version="1.1" id="icon-m-image-edit-contrast-layer"
	 xmlns="http://www.w3.org/2000/svg" xmlns:xlink="http://www.w3.org/1999/xlink" x="0px" y="0px" width="64px" height="64px"
	 viewBox="0 0 64 64" style="enable-background:new 0 0 64 64;" xml:space="preserve">
<g id="icon-m-image-edit-contrast">
	<rect style="fill:none;" width="64" height="64"/>
	<path style="fill:#333333;" d="M32,1C14.906,1,1,14.906,1,32s13.906,31,31,31s31-13.906,31-31S49.094,1,32,1z M32,56.559
		C18.459,56.559,7.441,45.541,7.441,32S18.459,7.441,32,7.441S56.559,18.459,56.559,32S45.541,56.559,32,56.559z"/>
	<path style="fill:#333333;" d="M32.578,15c-0.039,0-0.078,0.006-0.119,0.006v33.988c0.041,0,0.08,0.006,0.119,0.006
		c9.385,0,17-7.613,17-17S41.963,15,32.578,15z"/>
</g>
</svg>
