<?xml version="1.0" encoding="iso-8859-1"?>
<!-- Generator: Adobe Illustrator 14.0.0, SVG Export Plug-In . SVG Version: 6.00 Build 43363)  -->
<!DOCTYPE svg PUBLIC "-//W3C//DTD SVG 1.1//EN" "http://www.w3.org/Graphics/SVG/1.1/DTD/svg11.dtd">
<svg version="1.1" id="icon-m-telephony-voicemail-layer"
	 xmlns="http://www.w3.org/2000/svg" xmlns:xlink="http://www.w3.org/1999/xlink" x="0px" y="0px" width="64px" height="64px"
	 viewBox="0 0 64 64" style="enable-background:new 0 0 64 64;" xml:space="preserve">
<g id="icon-m-telephony-voicemail">
	<rect style="fill:none;" width="64" height="64"/>
	<path style="fill:#333333;" d="M58.354,1.777H5.651C2.537,1.777,0,4.326,0,7.451v35.926c0,3.133,2.537,5.682,5.651,5.682H41.63
		l10.216,12.469c1.165,1.354,3.254,0.613,3.338-1.201V49.059h3.171c3.112,0,5.646-2.549,5.646-5.682V7.451
		C64,4.326,61.467,1.777,58.354,1.777z M46.929,33.969H18.252C8.91,33.957,4.605,21.096,13.556,16.016
		c8.794-4.988,17.661,4.99,12.922,13.154h12.221c-5.584-9.592,7.09-18.803,14.574-11.973C60.391,23.703,54.859,33.969,46.929,33.969
		z"/>
</g>
</svg>
