<?xml version="1.0" encoding="iso-8859-1"?>
<!-- Generator: Adobe Illustrator 14.0.0, SVG Export Plug-In . SVG Version: 6.00 Build 43363)  -->
<!DOCTYPE svg PUBLIC "-//W3C//DTD SVG 1.1//EN" "http://www.w3.org/Graphics/SVG/1.1/DTD/svg11.dtd">
<svg version="1.1" id="icon-m-email-message-reply-layer"
	 xmlns="http://www.w3.org/2000/svg" xmlns:xlink="http://www.w3.org/1999/xlink" x="0px" y="0px" width="64px" height="64px"
	 viewBox="0 0 64 64" style="enable-background:new 0 0 64 64;" xml:space="preserve">
<g id="icon-m-email-message-reply">
	<rect style="fill:none;" width="64" height="64"/>
	<path style="fill:#333333;" d="M40.822,13.854v-0.248c0-3.025-2.459-5.518-5.432-5.518H6.009c-2.992,0-5.445,2.492-5.445,5.518
		v0.248l20.131,8.945L40.822,13.854z M44.268,17.766c-5.613,0-10.646,2.416-14.154,6.244l-8.82,3.91l-0.599,0.258L20.09,27.92
		L0.563,19.26v12.209c0,3.053,2.454,5.523,5.445,5.523H25.1c0.079,10.455,8.625,18.92,19.167,18.92
		c10.58,0,19.17-8.541,19.17-19.061C63.438,26.312,54.848,17.766,44.268,17.766z M45.584,26.346l0.002,5.686h7.686
		c0.363,0,0.756,0.281,0.756,0.74v6.211c0,0.408-0.336,0.742-0.756,0.742h-7.688v5.734c0,0.557-0.711,1.037-1.26,0.551l-9.441-9.582
		c-0.33-0.295-0.332-0.807,0.002-1.1l9.439-9.531C44.977,25.219,45.584,25.846,45.584,26.346z"/>
</g>
</svg>
