<?xml version="1.0" encoding="iso-8859-1"?>
<!-- Generator: Adobe Illustrator 14.0.0, SVG Export Plug-In . SVG Version: 6.00 Build 43363)  -->
<!DOCTYPE svg PUBLIC "-//W3C//DTD SVG 1.1//EN" "http://www.w3.org/Graphics/SVG/1.1/DTD/svg11.dtd">
<svg version="1.1" id="icon-m-gallery-favorite-layer"
	 xmlns="http://www.w3.org/2000/svg" xmlns:xlink="http://www.w3.org/1999/xlink" x="0px" y="0px" width="65px" height="64px"
	 viewBox="0 0 65 64" style="enable-background:new 0 0 65 64;" xml:space="preserve">
<g id="icon-m-gallery-favorite">
	<rect x="0" style="fill:none;" width="64" height="64"/>
	<path style="fill:#333333;" d="M63.419,25.297c0.913-0.679,0.73-1.231-0.407-1.231H42.047c-1.138,0-2.363-0.884-2.726-1.962
		L32.658,2.242c-0.362-1.078-0.953-1.078-1.315,0l-6.669,19.861c-0.362,1.078-1.588,1.962-2.726,1.962H0.989
		c-1.138,0-1.32,0.553-0.408,1.231L17.348,37.76c0.914,0.679,1.364,2.115,1.002,3.193l-6.883,20.491
		c-0.362,1.078,0.116,1.444,1.062,0.813l17.75-11.824c0.946-0.63,2.494-0.63,3.441,0l17.745,11.824
		c0.946,0.631,1.424,0.265,1.062-0.813l-6.879-20.491c-0.361-1.078,0.089-2.515,1.002-3.193L63.419,25.297z"/>
</g>
</svg>
