<?xml version="1.0" encoding="iso-8859-1"?>
<!-- Generator: Adobe Illustrator 14.0.0, SVG Export Plug-In . SVG Version: 6.00 Build 43363)  -->
<!DOCTYPE svg PUBLIC "-//W3C//DTD SVG 1.1//EN" "http://www.w3.org/Graphics/SVG/1.1/DTD/svg11.dtd">
<svg version="1.1" id="icon-m-common-undo-layer" xmlns="http://www.w3.org/2000/svg" xmlns:xlink="http://www.w3.org/1999/xlink"
	 x="0px" y="0px" width="65px" height="64px" viewBox="0 0 65 64" style="enable-background:new 0 0 65 64;" xml:space="preserve">
<g id="icon-m-common-undo">
	<rect x="1" style="fill:none;" width="64" height="64"/>
	<path style="fill:#333333;" d="M54.93,9.026H24.182l-0.004,0.012c-2.533-0.1-5.103,0.74-7.125,2.56l-5.527,4.975l-5.554-6.063
		c-0.289-0.316-0.593-0.23-0.684,0.185L1.016,30.808c-0.086,0.42,0.184,0.716,0.609,0.669l20.412-2.488
		c0.421-0.055,0.534-0.35,0.245-0.666l-5.657-6.179l3.429-3.086h0.005c1.765-1.533,4.052-2.478,6.562-2.478l28.31-0.001
		c1.363,0,2.518,1.153,2.518,2.518v25.807c0,1.364-1.154,2.518-2.518,2.518H19.997v7.553H54.93c5.538,0,10.07-4.531,10.07-10.07
		V19.097C65,13.558,60.468,9.026,54.93,9.026z"/>
</g>
</svg>
