<?xml version="1.0" encoding="iso-8859-1"?>
<!-- Generator: Adobe Illustrator 14.0.0, SVG Export Plug-In . SVG Version: 6.00 Build 43363)  -->
<!DOCTYPE svg PUBLIC "-//W3C//DTD SVG 1.1//EN" "http://www.w3.org/Graphics/SVG/1.1/DTD/svg11.dtd">
<svg version="1.1" id="icon-m-energy-management-charging50-layer"
	 xmlns="http://www.w3.org/2000/svg" xmlns:xlink="http://www.w3.org/1999/xlink" x="0px" y="0px" width="64px" height="64px"
	 viewBox="0 0 64 64" style="enable-background:new 0 0 64 64;" xml:space="preserve">
<g id="icon-m-energy-management-charging50">
	<rect style="fill:none;" width="64" height="63.999"/>
	<path style="fill:#333333;" d="M25.609,58.092H6.117c-1.003,0-1.829-0.823-1.829-1.827V14.264c0-1.004,0.825-1.83,1.829-1.83
		h23.772c1.005,0,1.828,0.826,1.828,1.83v12.713c1.326-1.021,2.759-1.908,4.283-2.639V8.723c0-1.008-0.821-1.828-1.826-1.828h-9.803
		V4.152c0-1.006-0.822-1.828-1.827-1.828h-9.085c-1.005,0-1.827,0.822-1.827,1.828v2.742H1.828C0.822,6.895,0,7.715,0,8.723v51.124
		c0,1.008,0.822,1.829,1.828,1.829h26.349C27.216,60.565,26.356,59.366,25.609,58.092z"/>
	<path style="fill:#333333;" d="M22.327,45.999c0-4.709,1.369-9.102,3.722-12.813H7.736v21.111h16.071
		C22.851,51.711,22.327,48.915,22.327,45.999z"/>
	<path style="fill:#333333;" d="M54.148,49.442v3.676c-0.002,1.231-1.295,2.236-2.872,2.231l-7.782-0.032l0.016-4.065l-7.924-0.03
		c-0.419,0-0.761-0.344-0.759-0.766l0.006-1.396c0-0.418,0.345-0.758,0.765-0.758l7.93,0.029l0.01-4.708l-7.922-0.015
		c-0.421-0.002-0.76-0.346-0.76-0.765l0.004-1.396c0.004-0.422,0.347-0.762,0.766-0.76l7.924,0.014l0.016-4.052l7.782,0.009
		c1.576,0.006,2.86,1.018,2.856,2.25l-0.013,3.697L64,42.628c-1.58-8.327-8.886-14.629-17.673-14.629c-9.94,0-18,8.059-18,18
		s8.06,18,18,18c8.763,0,16.055-6.264,17.663-14.557H54.148z"/>
</g>
</svg>
