<?xml version="1.0" encoding="iso-8859-1"?>
<!-- Generator: Adobe Illustrator 14.0.0, SVG Export Plug-In . SVG Version: 6.00 Build 43363)  -->
<!DOCTYPE svg PUBLIC "-//W3C//DTD SVG 1.1//EN" "http://www.w3.org/Graphics/SVG/1.1/DTD/svg11.dtd">
<svg version="1.1" id="icon-l-telephony-layer" xmlns="http://www.w3.org/2000/svg" xmlns:xlink="http://www.w3.org/1999/xlink"
	 x="0px" y="0px" width="64px" height="64px" viewBox="0 0 64 64" style="enable-background:new 0 0 64 64;" xml:space="preserve">
<g id="icon-l-telephony">
	<path style="opacity:0.2;stroke:#010101;stroke-width:2.1143;" d="M40.887,7.15C30.709,11.898,10.456,29.624,5.619,42.219
		c-2.122,5.522,2.15,14.27,5.531,16.992c0,0,1.672,1.514,3.052-0.01l9.2-12.328c0.622-0.801,1.243-1.849-0.016-3.104
		c0,0-6.321-4.592-4.476-7.505c1.291-2.019,13.917-14.585,15.941-15.854c2.928-1.831,7.482,4.521,7.482,4.521
		c1.254,1.262,2.299,0.643,3.104,0.028l12.391-9.128c1.525-1.528,0.031-3.064,0.023-3.064C55.141,9.381,46.256,4.645,40.887,7.15z"
		/>
	<path style="opacity:0.5;" d="M40.887,7.15C30.709,11.898,10.456,29.624,5.619,42.219c-2.122,5.522,2.15,14.27,5.531,16.992
		c0,0,1.672,1.514,3.052-0.01l9.2-12.328c0.622-0.801,1.243-1.849-0.016-3.104c0,0-6.321-4.592-4.476-7.505
		c1.291-2.019,13.917-14.585,15.941-15.854c2.928-1.831,7.482,4.521,7.482,4.521c1.254,1.262,2.299,0.643,3.104,0.028l12.391-9.128
		c1.525-1.528,0.031-3.064,0.023-3.064C55.141,9.381,46.256,4.645,40.887,7.15z"/>
	<linearGradient id="SVGID_1_" gradientUnits="userSpaceOnUse" x1="31.7822" y1="-6.1099" x2="31.7822" y2="73.2711">
		<stop  offset="0" style="stop-color:#517EBF"/>
		<stop  offset="1" style="stop-color:#283176"/>
	</linearGradient>
	<path style="fill:url(#SVGID_1_);" d="M40.887,5.586C30.709,10.333,10.456,28.059,5.619,40.652
		c-2.122,5.523,2.15,14.27,5.531,16.992c0,0,1.672,1.514,3.052-0.01l9.2-12.327c0.622-0.802,1.243-1.85-0.016-3.104
		c0,0-6.321-4.593-4.476-7.505c1.291-2.018,13.917-14.585,15.941-15.853c2.928-1.834,7.482,4.521,7.482,4.521
		c1.254,1.261,2.299,0.641,3.104,0.026l12.391-9.127c1.525-1.527,0.031-3.064,0.023-3.064C55.141,7.813,46.256,3.078,40.887,5.586z"
		/>
	<path style="opacity:0.15;fill:#FFFFFF;" d="M12.983,56.723c-0.115,0.111-0.407,0.051-0.535-0.004
		c-2.605-1.973-7.309-9.875-5.414-15.517c4.154-12.269,26.884-31.165,34.5-34.245c5.184-2.269,13.406,2.913,15.131,5.193
		c0.176,0.294,0.373,0.488,0.336,0.698c-0.004,0.018-0.004,0.018-0.008,0.032l1.473,0.399c0.137-0.56-0.018-1.147-0.26-1.584
		c-2.56-3.684-11.83-8.675-17.318-6.11C30.709,10.333,10.456,28.059,5.619,40.652c-1.997,5.203,1.866,14.393,6.016,17.359
		c0.478,0.264,1.112,0.418,1.704,0.229L12.983,56.723z"/>
	<path style="opacity:0.3;fill:#010101;" d="M58.465,13.28l-1.473-0.399c-0.004,0.076,0.004,0.079-0.125,0.199l-12.332,9.086
		c-0.721,0.525-0.768,0.453-1.063,0.184c-0.268-0.359-1.072-1.406-2.164-2.488c-1.42-1.288-4.268-4.025-7.264-2.305
		c-2.557,1.714-14.681,13.79-16.417,16.321c-1.738,2.942,0.998,6.01,2.268,7.29c1.078,1.1,2.125,1.906,2.474,2.173
		c0.27,0.294,0.349,0.391-0.17,1.033l-9.217,12.349l0.355,1.518c0.307-0.102,0.605-0.283,0.863-0.605l9.2-12.327
		c0.622-0.802,1.243-1.85-0.016-3.104c0,0-6.321-4.593-4.476-7.505c1.291-2.018,13.917-14.585,15.941-15.853
		c2.928-1.834,7.482,4.521,7.482,4.521c1.254,1.261,2.299,0.641,3.104,0.026l12.391-9.127C58.184,13.971,58.381,13.635,58.465,13.28
		z"/>
	<rect style="fill:none;" width="64" height="64"/>
</g>
</svg>
