<?xml version="1.0" encoding="iso-8859-1"?>
<!-- Generator: Adobe Illustrator 14.0.0, SVG Export Plug-In . SVG Version: 6.00 Build 43363)  -->
<!DOCTYPE svg PUBLIC "-//W3C//DTD SVG 1.1//EN" "http://www.w3.org/Graphics/SVG/1.1/DTD/svg11.dtd">
<svg version="1.1" id="icon-s-status-sip-layer" xmlns="http://www.w3.org/2000/svg" xmlns:xlink="http://www.w3.org/1999/xlink"
	 x="0px" y="0px" width="20px" height="18px" viewBox="0 0 20 18" style="enable-background:new 0 0 20 18;" xml:space="preserve">
<g id="icon-s-status-sip">
	<path style="fill:#FFFFFF;" d="M18.834,0H2.188C1.535,0,1,0.535,1,1.188v11.897c0,0.654,0.535,1.189,1.188,1.189h2.563V18
		l3.084-3.725h10.999c0.654,0,1.189-0.535,1.189-1.189V1.188C20.023,0.535,19.488,0,18.834,0z M8.203,9.925
		c-0.148,0.315-0.358,0.587-0.623,0.807c-0.262,0.218-0.574,0.384-0.925,0.494c-0.345,0.106-0.721,0.16-1.118,0.16
		c-0.276,0-0.537-0.022-0.774-0.071c-0.236-0.046-0.45-0.104-0.633-0.172c-0.185-0.067-0.346-0.141-0.477-0.217
		c-0.141-0.081-0.236-0.149-0.298-0.215c-0.071-0.074-0.124-0.167-0.156-0.275c-0.028-0.096-0.042-0.215-0.042-0.363
		c0-0.102,0.005-0.187,0.015-0.253c0.01-0.078,0.028-0.145,0.053-0.2c0.035-0.08,0.086-0.141,0.151-0.179
		c0.149-0.087,0.319-0.073,0.562,0.089c0.096,0.063,0.221,0.133,0.373,0.209c0.151,0.076,0.336,0.148,0.551,0.215
		c0.206,0.064,0.45,0.096,0.725,0.096c0.204,0,0.39-0.027,0.554-0.08C6.298,9.916,6.437,9.844,6.55,9.75
		c0.109-0.089,0.191-0.197,0.25-0.328C6.86,9.29,6.89,9.135,6.89,8.963c0-0.178-0.039-0.33-0.116-0.451
		c-0.087-0.134-0.199-0.25-0.343-0.354C6.277,8.047,6.099,7.944,5.9,7.852L5.249,7.549C5.021,7.442,4.795,7.323,4.58,7.195
		C4.354,7.061,4.149,6.899,3.97,6.717C3.787,6.529,3.637,6.306,3.523,6.055C3.408,5.799,3.349,5.492,3.349,5.143
		c0-0.358,0.066-0.685,0.199-0.971c0.133-0.285,0.32-0.529,0.558-0.724C4.341,3.256,4.622,3.108,4.94,3.01
		c0.475-0.146,1.029-0.191,1.578-0.098C6.703,2.944,6.88,2.987,7.045,3.041c0.167,0.055,0.318,0.116,0.449,0.185
		C7.642,3.301,7.733,3.36,7.79,3.416C7.844,3.471,7.88,3.518,7.903,3.559c0.021,0.039,0.039,0.085,0.051,0.141
		c0.01,0.044,0.018,0.095,0.023,0.155C7.982,3.91,7.985,3.979,7.985,4.063c0,0.081-0.003,0.154-0.01,0.219
		C7.966,4.354,7.954,4.416,7.938,4.466C7.913,4.547,7.872,4.61,7.816,4.656C7.683,4.766,7.531,4.771,7.275,4.617
		C7.183,4.563,7.071,4.502,6.938,4.434C6.812,4.369,6.66,4.309,6.486,4.254C6.168,4.155,5.712,4.146,5.424,4.25
		C5.292,4.299,5.183,4.361,5.1,4.438C5.019,4.514,4.959,4.6,4.919,4.702C4.877,4.81,4.855,4.925,4.855,5.045
		c0,0.176,0.038,0.322,0.117,0.444c0.085,0.133,0.202,0.254,0.347,0.358c0.155,0.111,0.336,0.217,0.537,0.312
		C6.07,6.261,6.288,6.361,6.51,6.465c0.226,0.104,0.453,0.222,0.672,0.349C7.412,6.945,7.62,7.104,7.801,7.285
		c0.186,0.186,0.338,0.408,0.452,0.66c0.115,0.256,0.174,0.56,0.174,0.902C8.427,9.246,8.352,9.609,8.203,9.925z M10.962,10.891
		c0,0.076-0.021,0.148-0.062,0.208c-0.044,0.065-0.11,0.114-0.196,0.145c-0.05,0.019-0.117,0.033-0.201,0.046
		c-0.079,0.012-0.175,0.019-0.286,0.019c-0.106,0-0.201-0.007-0.281-0.018c-0.086-0.013-0.154-0.028-0.205-0.047
		c-0.089-0.03-0.155-0.079-0.198-0.147c-0.039-0.057-0.061-0.129-0.061-0.205V3.359c0-0.08,0.024-0.155,0.072-0.218
		C9.591,3.08,9.658,3.033,9.744,3.006C9.796,2.988,9.863,2.973,9.945,2.96c0.167-0.024,0.405-0.022,0.557,0
		c0.085,0.013,0.152,0.028,0.203,0.046c0.086,0.031,0.153,0.08,0.196,0.145c0.041,0.061,0.062,0.133,0.062,0.209V10.891z
		 M17.658,6.646c-0.142,0.345-0.347,0.642-0.609,0.886c-0.264,0.242-0.588,0.432-0.965,0.563c-0.371,0.129-0.816,0.193-1.324,0.193
		h-0.668v2.604c0,0.081-0.025,0.158-0.074,0.22c-0.041,0.056-0.104,0.103-0.184,0.133c-0.053,0.019-0.117,0.033-0.201,0.046
		c-0.08,0.012-0.176,0.019-0.286,0.019s-0.206-0.007-0.285-0.019c-0.084-0.013-0.15-0.027-0.201-0.046
		c-0.088-0.03-0.153-0.079-0.197-0.146c-0.04-0.061-0.062-0.132-0.062-0.207V3.65c0-0.231,0.071-0.404,0.21-0.52
		c0.126-0.102,0.269-0.152,0.427-0.152h1.68c0.176,0,0.348,0.008,0.508,0.021c0.166,0.016,0.36,0.049,0.579,0.096
		c0.233,0.051,0.473,0.147,0.713,0.286c0.241,0.139,0.45,0.315,0.621,0.521c0.17,0.206,0.302,0.447,0.394,0.717
		c0.091,0.266,0.137,0.563,0.137,0.881C17.869,5.919,17.798,6.305,17.658,6.646z"/>
	<path style="fill:#FFFFFF;" d="M15.813,4.496c-0.15-0.09-0.307-0.146-0.465-0.171c-0.176-0.026-0.35-0.04-0.516-0.04h-0.74v2.701
		h0.717c0.286,0,0.523-0.035,0.704-0.105c0.178-0.069,0.327-0.164,0.446-0.285c0.119-0.12,0.209-0.266,0.271-0.436
		c0.063-0.174,0.097-0.368,0.097-0.576c0-0.278-0.051-0.512-0.152-0.69C16.075,4.715,15.953,4.582,15.813,4.496z"/>
</g>
</svg>
