<?xml version="1.0" encoding="iso-8859-1"?>
<!-- Generator: Adobe Illustrator 14.0.0, SVG Export Plug-In . SVG Version: 6.00 Build 43363)  -->
<!DOCTYPE svg PUBLIC "-//W3C//DTD SVG 1.1//EN" "http://www.w3.org/Graphics/SVG/1.1/DTD/svg11.dtd">
<svg version="1.1" id="icon-m-organizer-location-target-layer"
	 xmlns="http://www.w3.org/2000/svg" xmlns:xlink="http://www.w3.org/1999/xlink" x="0px" y="0px" width="64px" height="64px"
	 viewBox="0 0 64 64" style="enable-background:new 0 0 64 64;" xml:space="preserve">
<g id="icon-m-organizer-location-target">
	<rect style="fill:none;" width="64" height="64"/>
	<path style="fill:none;" d="M32.813,4.799c-8.837,0-16,7.162-16,16s7.163,16,16,16c8.838,0,16-7.162,16-16
		S41.65,4.799,32.813,4.799z M32.813,30.799c-5.523,0-10-4.479-10-10c0-5.52,4.477-10,10-10c5.521,0,10,4.48,10,10
		C42.813,26.32,38.334,30.799,32.813,30.799z"/>
	<circle style="fill:#333333;" cx="32.78" cy="20.8" r="5.001"/>
	<path style="fill:none;" d="M32.813,4.799c-8.837,0-16,7.162-16,16s7.163,16,16,16c8.838,0,16-7.162,16-16
		S41.65,4.799,32.813,4.799z M32.813,30.799c-5.523,0-10-4.479-10-10c0-5.52,4.477-10,10-10c5.521,0,10,4.48,10,10
		C42.813,26.32,38.334,30.799,32.813,30.799z"/>
	<path style="fill:#333333;" d="M32.813,4.799c-8.837,0-16,7.162-16,16s7.163,16,16,16c8.838,0,16-7.162,16-16
		S41.65,4.799,32.813,4.799z M32.813,30.799c-5.523,0-10-4.479-10-10c0-5.52,4.477-10,10-10c5.521,0,10,4.48,10,10
		C42.813,26.32,38.334,30.799,32.813,30.799z"/>
	<path style="fill:#333333;" d="M63.029,28.252h-9.457c-0.348,1.014-0.764,1.996-1.244,2.941l8.732-0.002v8.014l-39.073,9.16
		l-9.408-20.113H0.97c-0.536,0-0.97,0.435-0.97,0.971v32.969c0,0.535,0.434,0.969,0.97,0.969h62.06c0.537,0,0.971-0.434,0.971-0.969
		V29.223C64,28.687,63.566,28.252,63.029,28.252z M2.939,31.191l5.485,0.002l4.583,9.785H2.939V31.191z M2.939,60.223V42.979h11.005
		l5.235,11.18l18.68-4.377c2.803,0.506,5.828,4.346,7.01,7.18c0.578,1.389,0.895,2.471,1.055,3.262H2.939z M61.061,60.223H48.939
		c-0.164-1.23-0.582-2.689-1.303-4.416c-0.158-0.383-0.354-0.789-0.568-1.203h13.992V60.223z M61.061,53.104H46.203
		c-1.002-1.576-2.318-3.17-3.85-4.377l18.707-4.385V53.104z"/>
</g>
</svg>
