<?xml version="1.0" encoding="iso-8859-1"?>
<!-- Generator: Adobe Illustrator 14.0.0, SVG Export Plug-In . SVG Version: 6.00 Build 43363)  -->
<!DOCTYPE svg PUBLIC "-//W3C//DTD SVG 1.1//EN" "http://www.w3.org/Graphics/SVG/1.1/DTD/svg11.dtd">
<svg version="1.1" id="icon-m-common-settings-layer"
	 xmlns="http://www.w3.org/2000/svg" xmlns:xlink="http://www.w3.org/1999/xlink" x="0px" y="0px" width="64px" height="64px"
	 viewBox="0 0 64 64" style="enable-background:new 0 0 64 64;" xml:space="preserve">
<g id="icon-m-common-settings">
	<rect x="-1" style="fill:none;" width="64" height="64"/>
	<g>
		<path style="fill:#333333;" d="M62.023,51.729L35.578,25.264c1.303-1.757,7.652-13.277-7.559-22.083
			c-6.854-3.965-17.264-4.097-14.205-1.027l12.182,12.188c-1.92,5.86-6.071,10.916-12.73,12.722L1.031,14.803
			c-1.651-1.656-1.984,0.642-1.984,5.146c0,5.455,9.019,25.538,25.17,16.601L50.703,63.06c1.25,1.246,3.27,1.246,4.523,0
			l6.793-6.796C63.266,55.007,63.266,52.979,62.023,51.729z"/>
	</g>
</g>
</svg>
