<?xml version="1.0" encoding="iso-8859-1"?>
<!-- Generator: Adobe Illustrator 14.0.0, SVG Export Plug-In . SVG Version: 6.00 Build 43363)  -->
<!DOCTYPE svg PUBLIC "-//W3C//DTD SVG 1.1//EN" "http://www.w3.org/Graphics/SVG/1.1/DTD/svg11.dtd">
<svg version="1.1" id="icon-l-help-layer" xmlns="http://www.w3.org/2000/svg" xmlns:xlink="http://www.w3.org/1999/xlink" x="0px"
	 y="0px" width="73px" height="73px" viewBox="0 0 73 73" style="enable-background:new 0 0 73 73;" xml:space="preserve">
<g id="icon-l-help">
	<rect style="fill:none;" width="73" height="73"/>
	<path style="opacity:0.2;fill:#010101;" d="M36.534,10.465c-14.89,0-26.958,12.067-26.962,26.961
		c0.004,14.893,12.072,26.956,26.962,26.96c14.888-0.004,26.956-12.067,26.96-26.96C63.49,22.532,51.422,10.465,36.534,10.465z"/>
	<path style="opacity:0.5;fill:#010101;" d="M61.836,37.426c0,13.977-11.328,25.299-25.302,25.299
		c-13.972,0-25.302-11.322-25.302-25.299c0-13.975,11.33-25.301,25.302-25.301C50.508,12.125,61.836,23.451,61.836,37.426z"/>
	<linearGradient id="SVGID_1_" gradientUnits="userSpaceOnUse" x1="36.5337" y1="10.0508" x2="36.5337" y2="110.8212">
		<stop  offset="0" style="stop-color:#FFFFFF"/>
		<stop  offset="1" style="stop-color:#B3B2C9"/>
	</linearGradient>
	<path style="fill:url(#SVGID_1_);" d="M61.836,35.764c0,13.979-11.328,25.303-25.302,25.303c-13.972,0-25.302-11.324-25.302-25.303
		c0-13.97,11.33-25.299,25.302-25.299C50.508,10.465,61.836,21.794,61.836,35.764z"/>
	<linearGradient id="SVGID_2_" gradientUnits="userSpaceOnUse" x1="35.814" y1="56.7783" x2="35.814" y2="43.229">
		<stop  offset="0" style="stop-color:#FFFFFF"/>
		<stop  offset="1" style="stop-color:#B3B2C9"/>
	</linearGradient>
	<path style="fill:url(#SVGID_2_);" d="M40.986,50.814c0,2.854-2.316,5.167-5.174,5.167c-2.855,0-5.171-2.313-5.171-5.167
		c0-2.859,2.315-5.173,5.171-5.173C38.67,45.642,40.986,47.955,40.986,50.814z"/>
	<linearGradient id="SVGID_3_" gradientUnits="userSpaceOnUse" x1="35.814" y1="22.0054" x2="35.814" y2="123.6344">
		<stop  offset="0" style="stop-color:#517EBF"/>
		<stop  offset="1" style="stop-color:#283176"/>
	</linearGradient>
	<path style="fill:url(#SVGID_3_);" d="M39.563,50.814c0,2.067-1.678,3.75-3.75,3.75c-2.068,0-3.746-1.683-3.746-3.75
		c0-2.07,1.678-3.749,3.746-3.749C37.885,47.065,39.563,48.744,39.563,50.814z"/>
	<linearGradient id="SVGID_4_" gradientUnits="userSpaceOnUse" x1="38.1348" y1="22.0073" x2="38.1348" y2="123.6302">
		<stop  offset="0" style="stop-color:#517EBF"/>
		<stop  offset="1" style="stop-color:#283176"/>
	</linearGradient>
	<path style="fill:url(#SVGID_4_);" d="M28.951,23.611v-4.08c2.74-0.738,5.183-1.114,7.33-1.114c3.578,0,6.311,0.722,8.203,2.156
		c1.895,1.445,2.834,3.571,2.834,6.387c0,1.183-0.271,2.403-0.82,3.647c-0.545,1.241-1.844,2.893-3.904,4.945
		c-1.496,1.486-2.504,2.6-3.014,3.333c-0.502,0.733-0.758,1.584-0.758,2.551v2.157h-6.027v-2.49c0-1.597,0.355-2.981,1.072-4.156
		c0.707-1.167,1.809-2.455,3.293-3.866c1.572-1.52,2.537-2.671,2.91-3.462c0.375-0.793,0.555-1.568,0.555-2.323
		c0-1.586-0.449-2.771-1.352-3.562c-0.904-0.792-2.256-1.188-4.059-1.188C33.456,22.547,31.372,22.898,28.951,23.611"/>
	<linearGradient id="SVGID_5_" gradientUnits="userSpaceOnUse" x1="38.1309" y1="58.1602" x2="38.1309" y2="-9.4482">
		<stop  offset="0" style="stop-color:#FFFFFF"/>
		<stop  offset="1" style="stop-color:#B3B2C9"/>
	</linearGradient>
	<path style="fill:url(#SVGID_5_);" d="M46.381,20.386c-0.316-0.337-0.654-0.659-1.035-0.946c-2.252-1.705-5.307-2.536-9.064-2.453
		c-4.033,0.085-8.756,1.452-8.756,1.452L27.521,25.3v0.15c0,0,4.78-1.522,7.693-1.482c1.607,0.024,2.59,0.364,3.121,0.835
		c0.078,0.071,0.141,0.154,0.209,0.237c0.393,0.459,0.643,1.115,0.656,2.256c-0.004,0.523-0.127,1.087-0.416,1.709
		c-0.195,0.45-1.098,1.599-2.619,3.055c-1.53,1.456-2.714,2.82-3.519,4.146c-0.864,1.419-1.278,3.09-1.275,4.898v3.906v0.006h8.874
		v-3.582c0.004-0.715,0.174-1.247,0.51-1.742c0.389-0.574,1.371-1.675,2.842-3.131c2.119-2.129,3.506-3.824,4.205-5.383
		c0.613-1.396,0.941-2.816,0.938-4.221C48.764,24.36,47.963,22.07,46.381,20.386z M46.498,30.607
		c-0.545,1.241-1.844,2.893-3.904,4.945c-1.496,1.486-2.504,2.6-3.014,3.333c-0.502,0.733-0.758,1.584-0.758,2.551v2.157h-5.988
		h-0.039v-2.49c0-1.597,0.355-2.981,1.072-4.156c0.707-1.167,1.809-2.455,3.293-3.866c1.572-1.52,2.537-2.671,2.91-3.462
		c0.375-0.793,0.555-1.568,0.555-2.323c0-1.405-0.373-2.478-1.08-3.257c-0.092-0.103-0.168-0.216-0.271-0.305
		c-0.904-0.792-2.256-1.188-4.059-1.188c-1.75,0-3.82,0.348-6.225,1.055c-0.013,0.003-0.025,0.006-0.039,0.01v-4.08
		c2.74-0.738,5.183-1.114,7.33-1.114c3.578,0,6.311,0.722,8.203,2.156c0.328,0.253,0.592,0.551,0.863,0.845
		c1.291,1.389,1.971,3.215,1.971,5.542C47.318,28.143,47.047,29.363,46.498,30.607z"/>
	<polygon style="opacity:0.4;fill:#FFFFFF;" points="38.822,43.594 32.834,43.594 32.795,43.594 31.372,45.016 40.244,45.016 	"/>
	<path style="opacity:0.15;" d="M27.521,25.45c0,0,0.02-0.007,0.035-0.011l1.395-1.828v-4.08l-1.426-1.093L27.521,25.3V25.45z"/>
</g>
</svg>
