<?xml version="1.0" encoding="iso-8859-1"?>
<!-- Generator: Adobe Illustrator 14.0.0, SVG Export Plug-In . SVG Version: 6.00 Build 43363)  -->
<!DOCTYPE svg PUBLIC "-//W3C//DTD SVG 1.1//EN" "http://www.w3.org/Graphics/SVG/1.1/DTD/svg11.dtd">
<svg version="1.1" id="icon-s-status-offline-layer"
	 xmlns="http://www.w3.org/2000/svg" xmlns:xlink="http://www.w3.org/1999/xlink" x="0px" y="0px" width="21px" height="18px"
	 viewBox="0 0 21 18" style="enable-background:new 0 0 21 18;" xml:space="preserve">
<g id="icon-s-status-offline">
	<path style="fill:#FFFFFF;" d="M11.99,17.591L15.082,18v-0.88c0,0-1.701-1.754-2.699-2.602c0.078-0.801,0.117-2.217,0.117-2.596
		l0.037-1.878l8.742,0.18V8.697c0,0-7.107-2.415-8.658-2.899l0.066-3.357c0-1.342-0.695-2.44-1.549-2.44
		c-0.851,0-1.547,1.099-1.547,2.44l0.066,3.357C8.108,6.282,1,8.697,1,8.697v1.527l8.741-0.18l0.038,1.878
		c0,0.368,0.039,1.752,0.111,2.522c-0.98,0.831-2.786,2.675-2.786,2.675V18l3.184-0.421L11.99,17.591z"/>
</g>
</svg>
