<?xml version="1.0" encoding="iso-8859-1"?>
<!-- Generator: Adobe Illustrator 13.0.2, SVG Export Plug-In . SVG Version: 6.00 Build 14948)  -->
<!DOCTYPE svg PUBLIC "-//W3C//DTD SVG 1.1//EN" "http://www.w3.org/Graphics/SVG/1.1/DTD/svg11.dtd">
<svg version="1.1" xmlns="http://www.w3.org/2000/svg" xmlns:xlink="http://www.w3.org/1999/xlink" x="0px" y="0px" width="64px"
	 height="64px" viewBox="0 0 64 64" style="enable-background:new 0 0 64 64;" xml:space="preserve">
	<g id="icon-m-content-artist">
		<rect style="fill:none;" width="64" height="64"/>
		<path style="fill:#333333;" d="M0,0v64h64V0H0z M59.334,4.667v50.797c-0.357-0.298-0.771-0.561-1.272-0.774
			c-9.904-4.222-19.325-10.879-13.249-22.214c0.979-1.825,1.533-3.804,1.708-5.809c0.745-8.519-5.345-17.535-14.788-17.535
			c-8.44,0-15.282,7.871-15.282,17.58c0,3.778,0.974,7.597,2.541,11.021c1.333,2.91,4.614,6.425,3.328,9.866
			c-1.618,4.33-10.87,5.027-14.522,7.587c-1.051,0.737-2.151,1.957-3.158,3.442V4.638L59.334,4.667z"/>
	</g>
</svg>
