<?xml version="1.0" encoding="iso-8859-1"?>
<!-- Generator: Adobe Illustrator 14.0.0, SVG Export Plug-In . SVG Version: 6.00 Build 43363)  -->
<!DOCTYPE svg PUBLIC "-//W3C//DTD SVG 1.1//EN" "http://www.w3.org/Graphics/SVG/1.1/DTD/svg11.dtd">
<svg version="1.1" id="icon-m-presence-online-layer"
	 xmlns="http://www.w3.org/2000/svg" xmlns:xlink="http://www.w3.org/1999/xlink" x="0px" y="0px" width="64px" height="64px"
	 viewBox="0 0 64 64" style="enable-background:new 0 0 64 64;" xml:space="preserve">
<g id="icon-m-common-presence-online">
	<rect style="fill:none;" width="64" height="64"/>
	<path style="fill:#333333;" d="M32.005,0C14.328,0,0,14.342,0,32.02C0,49.672,14.328,64,32.005,64C49.663,64,64,49.672,64,32.02
		C64,14.342,49.663,0,32.005,0z M54.301,20.154L54.3,20.156l-0.004,0.002c-0.005,0.004-0.011,0.008-0.015,0.012v-0.002l-0.01,0.006
		c-0.007,0.006-0.019,0.014-0.028,0.023c-0.028,0.02-0.064,0.043-0.112,0.08c-0.098,0.07-0.241,0.176-0.43,0.312
		c-0.378,0.281-0.929,0.697-1.631,1.252c-1.399,1.109-3.395,2.762-5.769,4.953c-4.748,4.377-10.99,10.861-16.933,19.283
		c-0.184,0.254-0.466,0.42-0.797,0.445l-0.045,0.004l-0.029-0.515l0,0v0.515c-0.281,0-0.554-0.109-0.758-0.314l-12.341-12.4
		c-0.189-0.189-0.303-0.451-0.309-0.723c0,0-0.004-0.031,0.003-0.082c-0.003-0.018,0-0.043,0.007-0.07
		c0.03-0.242,0.141-0.477,0.331-0.648l4.108-3.793c0.206-0.195,0.47-0.291,0.734-0.291c0.274-0.004,0.556,0.109,0.764,0.326
		l6.383,6.557C35.608,23.691,48.11,18.381,53.565,18.25c0.009,0,0.014-0.004,0.094-0.008c0.456,0,0.867,0.291,1.014,0.732
		c0.04,0.111,0.057,0.225,0.053,0.329C54.726,19.639,54.568,19.951,54.301,20.154z"/>
</g>
</svg>
