<?xml version="1.0" encoding="iso-8859-1"?>
<!-- Generator: Adobe Illustrator 14.0.0, SVG Export Plug-In . SVG Version: 6.00 Build 43363)  -->
<!DOCTYPE svg PUBLIC "-//W3C//DTD SVG 1.1//EN" "http://www.w3.org/Graphics/SVG/1.1/DTD/svg11.dtd">
<svg version="1.1" id="icon-m-content-poi-layer" xmlns="http://www.w3.org/2000/svg" xmlns:xlink="http://www.w3.org/1999/xlink"
	 x="0px" y="0px" width="64px" height="64px" viewBox="0 0 64 64" style="enable-background:new 0 0 64 64;" xml:space="preserve">
<g id="icon-m-content-poi">
	<rect style="fill:none;" width="64" height="64"/>
	<path style="fill:#333333;" d="M48.976,30.85c-4.996-4.998-13.126-4.998-18.123,0c-4.996,4.996-4.997,13.127,0,18.122
		c4.587,4.589,11.812,4.961,16.831,1.126l2.692,2.691l0.553,3.094c0.056,0.313,0.286,0.753,0.511,0.979l6.805,6.801
		c0.449,0.45,1.186,0.45,1.637,0l3.781-3.782c0.451-0.45,0.451-1.187,0-1.637l-6.797-6.808c-0.226-0.225-0.666-0.455-0.979-0.512
		l-3.096-0.552l-2.689-2.69C53.936,42.662,53.562,35.437,48.976,30.85z M46.16,46.156c-3.443,3.443-9.047,3.443-12.49,0
		c-3.445-3.443-3.445-9.047-0.002-12.49c3.444-3.443,9.049-3.443,12.492,0S49.604,42.713,46.16,46.156z"/>
	<path style="fill:#333333;" d="M61.061,16.091v8.761H49.59c0.723,0.451,1.422,0.945,2.082,1.5h9.389v5.619H56.17
		c0.489,0.949,0.897,1.932,1.212,2.939h5.648c0.536,0,0.97-0.436,0.97-0.97V0.971C64,0.435,63.566,0,63.03,0H12.671
		c-0.013,0.037-0.028,0.071-0.041,0.107L12.579,0H0.97C0.434,0,0,0.435,0,0.971v32.97c0,0.534,0.434,0.97,0.97,0.97h21.463
		c0.316-1.015,0.723-1.996,1.212-2.939H2.939V14.727h11.005l5.235,11.182L61.061,16.091z M61.061,2.94v8.015l-39.073,9.158
		L13.955,2.941L61.061,2.94z M2.939,2.94l5.485,0.003l4.583,9.783H2.939V2.94z"/>
</g>
</svg>
