<?xml version="1.0" encoding="iso-8859-1"?>
<!-- Generator: Adobe Illustrator 14.0.0, SVG Export Plug-In . SVG Version: 6.00 Build 43363)  -->
<!DOCTYPE svg PUBLIC "-//W3C//DTD SVG 1.1//EN" "http://www.w3.org/Graphics/SVG/1.1/DTD/svg11.dtd">
<svg version="1.1" id="icon-m-bluetooth-devices-layer"
	 xmlns="http://www.w3.org/2000/svg" xmlns:xlink="http://www.w3.org/1999/xlink" x="0px" y="0px" width="64px" height="64px"
	 viewBox="0 0 64 64" style="enable-background:new 0 0 64 64;" xml:space="preserve">
<g id="icon-m-bluetooth-devices">
	<rect style="fill:none;" width="64" height="64"/>
	<path style="fill:#333333;" d="M31.613,10.828c-0.934-2.992-4.27-4.61-7.465-3.615L4.334,13.391
		c-3.193,0.996-5.021,4.225-4.088,7.217L12.395,59.58c0.93,2.979,4.27,4.604,7.465,3.607l19.812-6.178
		c3.195-0.996,5.016-4.244,4.092-7.209L31.613,10.828z M23.754,53.557L21.5,46.33l7.24-2.258l2.252,7.229L23.754,53.557z
		 M12.873,45.547L4.359,18.239l22.521-7.021l8.514,27.307L12.873,45.547z"/>
	<path style="fill:#333333;" d="M62.354,9.369L24.967,0.575c-1.139-0.269-2.297,0.449-2.564,1.591L22.045,3.68l0.914-0.285
		c1.01-0.314,2.055-0.475,3.102-0.475c2.4,0,4.617,0.824,6.338,2.232l0.486,0.432c1.16,1.09,2.053,2.467,2.547,4.054l0.51,1.632
		c1.92-0.939,4.164-1.25,6.408-0.723c5.16,1.215,8.361,6.391,7.146,11.561c-0.926,3.929-4.143,6.723-7.9,7.302l1.955,6.272
		l11.953,2.811c1.139,0.268,2.299-0.451,2.566-1.594l5.871-24.962C64.211,10.796,63.494,9.637,62.354,9.369z M61.084,13.184
		l-0.381,1.633c-0.25,1.07-1.33,1.742-2.402,1.494l-3.797-0.886c-1.07-0.25-1.744-1.331-1.494-2.402l0.381-1.632
		c0.25-1.072,1.33-1.744,2.402-1.494l3.797,0.885C60.66,11.03,61.332,12.111,61.084,13.184z"/>
</g>
</svg>
