<?xml version="1.0" encoding="iso-8859-1"?>
<!-- Generator: Adobe Illustrator 14.0.0, SVG Export Plug-In . SVG Version: 6.00 Build 43363)  -->
<!DOCTYPE svg PUBLIC "-//W3C//DTD SVG 1.1//EN" "http://www.w3.org/Graphics/SVG/1.1/DTD/svg11.dtd">
<svg version="1.1" id="icon-m-content-chat-layer" xmlns="http://www.w3.org/2000/svg" xmlns:xlink="http://www.w3.org/1999/xlink"
	 x="0px" y="0px" width="64px" height="64px" viewBox="0 0 64 64" style="enable-background:new 0 0 64 64;" xml:space="preserve">
<g id="icon-m-content-chat">
	<rect style="fill:none;" width="64" height="64"/>
	<path style="fill:#333333;" d="M60.181,1.469H3.823C1.723,1.469,0,3.188,0,5.289v39.988c0,2.096,1.723,3.82,3.823,3.82h28.313
		v11.754c0,0-0.028,1.279,1.168,1.633c1.065,0.324,1.88-1.061,1.88-1.061l7.545-12.326h17.451c2.105,0,3.819-1.725,3.819-3.82V5.289
		C64,3.188,62.286,1.469,60.181,1.469z M32.024,33.563H7.146v-6.785h24.879V33.563z M56.903,19.896H7.146v-6.785h49.758V19.896z"/>
</g>
</svg>
