<?xml version="1.0" encoding="iso-8859-1"?>
<!-- Generator: Adobe Illustrator 13.0.2, SVG Export Plug-In . SVG Version: 6.00 Build 14948)  -->
<!DOCTYPE svg PUBLIC "-//W3C//DTD SVG 1.1//EN" "http://www.w3.org/Graphics/SVG/1.1/DTD/svg11.dtd">
<svg version="1.1" xmlns="http://www.w3.org/2000/svg" xmlns:xlink="http://www.w3.org/1999/xlink" x="0px" y="0px"
	 width="33.283px" height="18px" viewBox="0 0 33.283 18" style="enable-background:new 0 0 33.283 18;" xml:space="preserve">
	<g id="icon-s-gallery-metadata">
		<path style="fill:#333333;" d="M21.265,11.924c0,1.161,0.6,1.161,0.855,1.161c0.313,0,1.263,0,1.263-1.695v-1.101h-0.259
			C21.457,10.289,21.265,11.222,21.265,11.924z"/>
		<path style="fill:#333333;" d="M0,0v18h33.283V0H0z M16.258,5.771l-6.221,2.232l6.221,2.233v3.743L5.594,9.611V6.396l10.664-4.348
			V5.771z M27.689,15.807h-2.877l-0.304-1.137c-0.896,0.879-1.963,1.28-3.354,1.28c-2.601,0-4.154-1.482-4.154-3.966
			c0-3.705,3.083-4.23,6.382-4.326V7.246c0-0.928-0.273-1.43-1.715-1.43c-0.807,0-1.8,0.18-2.951,0.533l-0.647,0.199V3.512
			l0.379-0.095c1.483-0.372,2.916-0.568,4.143-0.568c3.288,0,5.099,1.576,5.099,4.438V15.807z"/>
	</g>
</svg>
