<?xml version="1.0" encoding="iso-8859-1"?>
<!-- Generator: Adobe Illustrator 13.0.2, SVG Export Plug-In . SVG Version: 6.00 Build 14948)  -->
<!DOCTYPE svg PUBLIC "-//W3C//DTD SVG 1.1//EN" "http://www.w3.org/Graphics/SVG/1.1/DTD/svg11.dtd">
<svg version="1.1" xmlns="http://www.w3.org/2000/svg" xmlns:xlink="http://www.w3.org/1999/xlink" x="0px" y="0px"
	 width="22.052px" height="18px" viewBox="0 0 22.052 18" style="enable-background:new 0 0 22.052 18;" xml:space="preserve">
	<g id="icon-s-packetdata">
		<path style="fill:#333333;" d="M7.544,18L0,10.507h16.734v1.018c0,0.813-0.236,1.583-0.679,2.211
			c-0.309,0.451-0.75,0.76-1.295,0.935c-0.514,0.153-1.059,0.175-1.563,0.175l0,0c-0.113,0-5.654,0-5.654,0V18L7.544,18z"/>
		<path style="fill:#333333;" d="M5.368,7.493V6.476c0-0.813,0.236-1.582,0.679-2.209c0.309-0.453,0.75-0.762,1.295-0.936
			c0.626-0.195,1.285-0.186,1.902-0.175c0.103,0,5.313,0,5.313,0V0l7.494,7.483L5.368,7.493L5.368,7.493z"/>
	</g>
</svg>
