<?xml version="1.0" encoding="iso-8859-1"?>
<!-- Generator: Adobe Illustrator 13.0.2, SVG Export Plug-In . SVG Version: 6.00 Build 14948)  -->
<!DOCTYPE svg PUBLIC "-//W3C//DTD SVG 1.1//EN" "http://www.w3.org/Graphics/SVG/1.1/DTD/svg11.dtd">
<svg version="1.1" xmlns="http://www.w3.org/2000/svg" xmlns:xlink="http://www.w3.org/1999/xlink" x="0px" y="0px"
	 width="64.077px" height="64px" viewBox="0 0 64.077 64" style="enable-background:new 0 0 64.077 64;" xml:space="preserve">
	<g id="icon-m-music-video-fm-radio-scan">
		<rect style="fill:none;" width="64" height="64"/>
		<g>
			<path style="fill:#333333;" d="M31.726,32.174c-0.973-0.973-0.814-2.723,0.354-3.889L43.117,17.25
				c-3.1-2.342-6.942-3.748-11.118-3.748c-10.201,0-18.5,8.297-18.5,18.498s8.3,18.5,18.5,18.5c9.93,0,18.036-7.871,18.459-17.699
				l-16.916-0.002C32.858,32.848,32.199,32.646,31.726,32.174z"/>
			<path style="fill:#333333;" d="M64.077,32c0-9.744-4.384-18.479-11.276-24.354l0.008-0.008C47.221,2.881,39.986,0,32.087,0
				C14.436,0,0.077,14.355,0.077,32s14.359,32,32.01,32c17.375,0,31.55-13.934,31.989-31.197h-0.02
				C64.063,32.535,64.077,32.27,64.077,32z M62.057,32.803l-8.521-0.002C53.109,44.283,43.66,53.5,32.077,53.5
				c-11.854,0-21.5-9.645-21.5-21.5c0-11.854,9.646-21.5,21.5-21.5c5.003,0,9.601,1.732,13.259,4.61l6.048-6.048
				C57.916,14.571,62.077,22.808,62.077,32C62.077,32.27,62.064,32.535,62.057,32.803z"/>
		</g>
		<path style="fill:#333333;" d="M44.901,15.467l-1.427,1.427C48.037,20.366,51,25.836,51,32c0,0.271-0.029,0.533-0.041,0.801h2
			C52.969,32.533,53,32.271,53,32C53,25.287,49.82,19.314,44.901,15.467z"/>
	</g>
</svg>
