<?xml version="1.0" encoding="iso-8859-1"?>
<!-- Generator: Adobe Illustrator 13.0.2, SVG Export Plug-In . SVG Version: 6.00 Build 14948)  -->
<!DOCTYPE svg PUBLIC "-//W3C//DTD SVG 1.1//EN" "http://www.w3.org/Graphics/SVG/1.1/DTD/svg11.dtd">
<svg version="1.1" xmlns="http://www.w3.org/2000/svg" xmlns:xlink="http://www.w3.org/1999/xlink" x="0px" y="0px" width="64px"
	 height="64px" viewBox="0 0 64 64" style="enable-background:new 0 0 64 64;" xml:space="preserve">
	<g id="icon-m-camera-roll">
		<rect style="fill:none;" width="64" height="64"/>
		<path style="fill:#333333;" d="M36.971,12.784c0-1.077-0.871-1.952-1.945-1.952H24.647v-4.88C24.647,4.879,23.772,4,22.701,4
			H14.27c-1.071,0-1.946,0.879-1.946,1.952v4.88H1.946C0.872,10.832,0,11.707,0,12.784c0,1.058,0.839,1.913,1.885,1.946v41.371
			C0.839,56.135,0,56.991,0,58.048C0,59.126,0.872,60,1.946,60h33.08c1.074,0,1.945-0.874,1.945-1.952
			c0-0.974-0.713-1.774-1.641-1.922V14.705C36.258,14.558,36.971,13.758,36.971,12.784z M12.708,56.096H6.749V14.736h5.959V56.096z"
			/>
		<path style="fill:#333333;" d="M39.84,16.689v36.438h6.323v-9.989c0-2.685,2.188-4.881,4.864-4.881H64V16.689H39.84z
			 M46.849,27.688h-4v-8h4V27.688z M53.849,27.688h-4v-8h4V27.688z M60.849,27.688h-4v-8h4V27.688z"/>
	</g>
</svg>
