<?xml version="1.0" encoding="iso-8859-1"?>
<!-- Generator: Adobe Illustrator 14.0.0, SVG Export Plug-In . SVG Version: 6.00 Build 43363)  -->
<!DOCTYPE svg PUBLIC "-//W3C//DTD SVG 1.1//EN" "http://www.w3.org/Graphics/SVG/1.1/DTD/svg11.dtd">
<svg version="1.1" id="icon-l-extras-layer" xmlns="http://www.w3.org/2000/svg" xmlns:xlink="http://www.w3.org/1999/xlink"
	 x="0px" y="0px" width="44px" height="55px" viewBox="0 0 44 55" style="enable-background:new 0 0 44 55;" xml:space="preserve">
<g id="icon-l-extras">
	<path style="opacity:0.2;fill:#010101;stroke:#010101;stroke-width:2;" d="M39.023,24.746h-13.47l0.007-4.092h1.297
		c3.289,0,3.061-2.938,3.061-2.938l0.012-7.379h5.352c1.924,0,1.789-1.717,1.789-1.717l0.01-6.795c0,0,0.111-1.721-1.793-1.717
		h-6.639c-1.924,0-1.791,1.717-1.791,1.717l-0.002,1.346H15.525c-3.288,0-3.061,2.936-3.061,2.936l-0.012,8.408H5.324
		c-4.617,0-4.297,4.123-4.297,4.123L1.003,34.945c0,0-0.272,4.1,4.3,4.123h9.598l-0.015,10.018c0,0-0.324,4.887,5.126,4.914h18.991
		c5.502,0,5.121-4.914,5.121-4.914l0.029-19.43C44.154,29.656,44.465,24.742,39.023,24.746z"/>
	<path style="fill:#010101;fill-opacity:0.4;" d="M39.023,24.746h-13.47l0.007-4.092h1.297c3.289,0,3.061-2.938,3.061-2.938
		l0.012-7.379h5.352c1.924,0,1.789-1.717,1.789-1.717l0.01-6.795c0,0,0.111-1.721-1.793-1.717h-6.639
		c-1.924,0-1.791,1.717-1.791,1.717l-0.002,1.346H15.525c-3.288,0-3.061,2.936-3.061,2.936l-0.012,8.408H5.324
		c-4.617,0-4.297,4.123-4.297,4.123L1.003,34.945c0,0-0.272,4.1,4.3,4.123h9.598l-0.015,10.018c0,0-0.324,4.887,5.126,4.914h18.991
		c5.502,0,5.121-4.914,5.121-4.914l0.029-19.43C44.154,29.656,44.465,24.742,39.023,24.746z"/>
	<g style="opacity:0.9;">
		<path style="fill:#7EC242;" d="M26.869,2.063H15.525C12.237,2.063,12.464,5,12.464,5l-0.016,11.609c0,0-0.195,2.92,3.061,2.936
			h11.348c3.289,0,3.061-2.936,3.061-2.936L29.936,5C29.936,5,30.121,2.063,26.869,2.063z"/>
		<path style="fill:#FEE23D;" d="M35.287-1h-6.639c-1.924,0-1.791,1.717-1.791,1.717L26.85,7.512c0,0-0.115,1.707,1.791,1.719h6.641
			c1.924,0,1.789-1.719,1.789-1.719l0.01-6.795C37.08,0.717,37.191-1.002,35.287-1z"/>
	</g>
	<g>
		<linearGradient id="SVGID_1_" gradientUnits="userSpaceOnUse" x1="31.9648" y1="-1" x2="31.9648" y2="9.2305">
			<stop  offset="0" style="stop-color:#FEE23F"/>
			<stop  offset="0.1759" style="stop-color:#FAD63A"/>
			<stop  offset="0.5155" style="stop-color:#F1B831"/>
			<stop  offset="0.981" style="stop-color:#E48A25"/>
			<stop  offset="1" style="stop-color:#E38825"/>
		</linearGradient>
		<path style="fill:url(#SVGID_1_);" d="M35.287-1h-6.639c-1.924,0-1.791,1.717-1.791,1.717L26.85,7.512
			c0,0-0.115,1.707,1.791,1.719h6.641c1.924,0,1.789-1.719,1.789-1.719l0.01-6.795C37.08,0.717,37.191-1.002,35.287-1z"/>
		<path style="opacity:0.3;fill:#FFFFFF;" d="M27.469,7.576l-0.01-6.924c0.049-0.785,0.494-1.016,1.182-1.031h6.641
			c0.563,0.012,0.783,0.15,0.924,0.313l0.439-0.443C36.385-0.787,35.963-1,35.287-1h-6.639c-1.924,0-1.791,1.717-1.791,1.717
			L26.85,7.512c0,0-0.051,0.723,0.432,1.229l0.441-0.441C27.5,8.082,27.469,7.752,27.469,7.576z"/>
		<path style="opacity:0.2;" d="M36.645-0.51l-0.439,0.443c0.24,0.234,0.258,0.621,0.254,0.719c0,0,0.008,6.891,0.008,6.924
			c-0.033,0.775-0.494,1.014-1.182,1.035h-6.637c-0.563-0.018-0.785-0.152-0.926-0.313L27.281,8.74
			c0.264,0.275,0.682,0.49,1.359,0.49h6.641c1.924,0,1.789-1.719,1.789-1.719l0.01-6.795C37.08,0.717,37.133-0.008,36.645-0.51z"/>
	</g>
	<g>
		<defs>
			<path id="SVGID_2_" d="M35.287-1h-6.639c-1.924,0-1.791,1.717-1.791,1.717L26.85,7.512c0,0-0.115,1.707,1.791,1.719h6.641
				c1.924,0,1.789-1.719,1.789-1.719l0.01-6.795C37.08,0.717,37.191-1.002,35.287-1z"/>
		</defs>
		<clipPath id="SVGID_3_">
			<use xlink:href="#SVGID_2_"  style="overflow:visible;"/>
		</clipPath>
		<path style="opacity:0.3;clip-path:url(#SVGID_3_);fill:#010101;" d="M27.891,1.133H16.547c-3.288,0-3.062,2.936-3.062,2.936
			l-0.015,11.609c0,0-0.195,2.92,3.062,2.936h11.348c3.289,0,3.061-2.936,3.061-2.936l0.016-11.609
			C30.957,4.068,31.145,1.133,27.891,1.133z"/>
	</g>
	<g>
		<linearGradient id="SVGID_4_" gradientUnits="userSpaceOnUse" x1="21.1919" y1="2.0625" x2="21.1919" y2="19.5449">
			<stop  offset="0" style="stop-color:#7EC242"/>
			<stop  offset="1" style="stop-color:#1D6433"/>
		</linearGradient>
		<path style="fill:url(#SVGID_4_);" d="M26.869,2.063H15.525C12.237,2.063,12.464,5,12.464,5l-0.016,11.609
			c0,0-0.195,2.92,3.061,2.936h11.348c3.289,0,3.061-2.936,3.061-2.936L29.936,5C29.936,5,30.121,2.063,26.869,2.063z"/>
		<path style="opacity:0.3;fill:#FFFFFF;" d="M13.509,16.721L13.494,4.887c0.08-1.338,0.844-1.736,2.018-1.764h11.346
			c0.965,0.02,1.342,0.258,1.582,0.535L29.191,2.9c-0.449-0.475-1.166-0.838-2.322-0.838H15.525C12.237,2.063,12.464,5,12.464,5
			l-0.016,11.609c0,0-0.084,1.236,0.739,2.1l0.755-0.754C13.56,17.584,13.509,17.021,13.509,16.721z"/>
		<path style="opacity:0.2;" d="M29.191,2.9l-0.752,0.758c0.405,0.4,0.439,1.063,0.436,1.23c0,0,0.008,11.775,0.008,11.832
			c-0.051,1.322-0.842,1.732-2.016,1.768H15.523c-0.96-0.027-1.338-0.264-1.58-0.533l-0.755,0.754
			c0.451,0.471,1.166,0.836,2.321,0.836h11.348c3.289,0,3.061-2.936,3.061-2.936L29.936,5C29.936,5,30.021,3.762,29.191,2.9z"/>
	</g>
	<g>
		<defs>
			<path id="SVGID_5_" d="M26.869,2.063H15.525C12.237,2.063,12.464,5,12.464,5l-0.016,11.609c0,0-0.195,2.92,3.061,2.936h11.348
				c3.289,0,3.061-2.936,3.061-2.936L29.936,5C29.936,5,30.121,2.063,26.869,2.063z"/>
		</defs>
		<clipPath id="SVGID_6_">
			<use xlink:href="#SVGID_5_"  style="overflow:visible;"/>
		</clipPath>
		<path style="opacity:0.3;clip-path:url(#SVGID_6_);fill:#010101;" d="M22.472,12.385H6.539c-4.616,0-4.297,4.121-4.297,4.121
			L2.22,32.813c0,0-0.274,4.1,4.3,4.123h15.936c4.621,0,4.3-4.123,4.3-4.123l0.023-16.307
			C26.779,16.506,27.041,12.385,22.472,12.385z"/>
	</g>
	<g>
		<linearGradient id="SVGID_7_" gradientUnits="userSpaceOnUse" x1="13.2827" y1="13.4082" x2="13.2827" y2="37.9595">
			<stop  offset="0" style="stop-color:#E38825"/>
			<stop  offset="0.3764" style="stop-color:#D07726"/>
			<stop  offset="1" style="stop-color:#AD5726"/>
		</linearGradient>
		<path style="fill:url(#SVGID_7_);" d="M21.257,13.408H5.324c-4.617,0-4.297,4.121-4.297,4.121L1.003,33.836
			c0,0-0.272,4.1,4.3,4.123H21.24c4.622,0,4.299-4.123,4.299-4.123l0.023-16.307C25.563,17.529,25.826,13.408,21.257,13.408z"/>
		<path style="opacity:0.3;fill:#FFFFFF;" d="M2.494,33.992l-0.02-16.619c0.111-1.881,1.182-2.439,2.834-2.477H21.24
			c1.355,0.027,1.887,0.363,2.223,0.752l1.055-1.066c-0.631-0.666-1.637-1.174-3.26-1.174H5.324c-4.617,0-4.297,4.121-4.297,4.121
			L1.003,33.836c0,0-0.118,1.736,1.04,2.947l1.06-1.055C2.566,35.205,2.494,34.414,2.494,33.992z"/>
		<path style="opacity:0.2;" d="M24.518,14.582l-1.055,1.066c0.568,0.563,0.615,1.492,0.611,1.729c0,0,0.012,16.535,0.012,16.615
			c-0.07,1.857-1.182,2.434-2.833,2.484H5.322c-1.348-0.043-1.877-0.371-2.219-0.748l-1.06,1.055c0.633,0.66,1.637,1.176,3.26,1.176
			H21.24c4.622,0,4.299-4.123,4.299-4.123l0.023-16.307C25.563,17.529,25.684,15.793,24.518,14.582z"/>
	</g>
	<g>
		<defs>
			<path id="SVGID_8_" d="M21.257,13.408H5.324c-4.617,0-4.297,4.121-4.297,4.121L1.003,33.836c0,0-0.272,4.1,4.3,4.123H21.24
				c4.622,0,4.299-4.123,4.299-4.123l0.023-16.307C25.563,17.529,25.826,13.408,21.257,13.408z"/>
		</defs>
		<clipPath id="SVGID_9_">
			<use xlink:href="#SVGID_8_"  style="overflow:visible;"/>
		</clipPath>
		<path style="clip-path:url(#SVGID_9_);fill:#010101;fill-opacity:0.3;" d="M39.023,22.002H20.039
			c-5.503,0-5.123,4.912-5.123,4.912l-0.027,19.43c0,0-0.325,4.885,5.125,4.914h18.991c5.502,0,5.123-4.914,5.123-4.914l0.027-19.43
			C44.154,26.914,44.467,21.998,39.023,22.002z"/>
	</g>
	<g>
		<linearGradient id="SVGID_10_" gradientUnits="userSpaceOnUse" x1="29.5205" y1="23.8325" x2="29.5205" y2="52.2619">
			<stop  offset="0" style="stop-color:#517DBF"/>
			<stop  offset="1" style="stop-color:#293175"/>
		</linearGradient>
		<path style="fill:url(#SVGID_10_);" d="M39.023,23.637H20.038c-5.502,0-5.122,4.912-5.122,4.912l-0.029,19.428
			c0,0-0.324,4.887,5.126,4.914h18.991c5.502,0,5.121-4.914,5.121-4.914l0.029-19.428C44.154,28.549,44.465,23.633,39.023,23.637z"
			/>
		<path style="opacity:0.3;fill:#FFFFFF;" d="M16.664,48.162L16.64,28.361c0.132-2.242,1.408-2.906,3.377-2.951h18.987
			c1.611,0.031,2.244,0.432,2.645,0.896l1.26-1.27c-0.752-0.795-1.953-1.4-3.885-1.4H20.038c-5.502,0-5.122,4.912-5.122,4.912
			l-0.029,19.428c0,0-0.139,2.068,1.241,3.514l1.261-1.26C16.748,49.609,16.664,48.666,16.664,48.162z"/>
		<path style="opacity:0.2;" d="M42.908,25.037l-1.26,1.27c0.68,0.668,0.734,1.777,0.727,2.059c0,0,0.018,19.705,0.018,19.797
			c-0.089,2.217-1.408,2.9-3.373,2.961H20.034c-1.606-0.049-2.237-0.439-2.646-0.893l-1.261,1.26c0.757,0.789,1.953,1.4,3.886,1.4
			h18.991c5.502,0,5.121-4.914,5.121-4.914l0.029-19.428C44.154,28.549,44.297,26.479,42.908,25.037z"/>
	</g>
</g>
</svg>
