<?xml version="1.0" encoding="iso-8859-1"?>
<!-- Generator: Adobe Illustrator 14.0.0, SVG Export Plug-In . SVG Version: 6.00 Build 43363)  -->
<!DOCTYPE svg PUBLIC "-//W3C//DTD SVG 1.1//EN" "http://www.w3.org/Graphics/SVG/1.1/DTD/svg11.dtd">
<svg version="1.1" id="icon-s-status-4g-layer" xmlns="http://www.w3.org/2000/svg" xmlns:xlink="http://www.w3.org/1999/xlink"
	 x="0px" y="0px" width="30px" height="18px" viewBox="0 0 30 18" style="enable-background:new 0 0 30 18;" xml:space="preserve">
<g id="icon-s-status-4g">
	<path style="fill:#FFFFFF;" d="M12.505,13.969h-1.801v3.697H6.841v-3.697H0v-2.207L7.033,0.12h3.672v11.545h1.801V13.969z
		 M6.841,11.665V4.608l-4.152,7.057H6.841z"/>
	<path style="fill:#FFFFFF;" d="M27,16.129c-0.672,1.033-2.016,1.729-3.504,1.729c-5.232,0-6.023-4.633-6.023-9.121
		c0-4.655,1.775-8.736,7.68-8.736c1.271,0,2.545,0.144,3.721,0.456v2.28c-1.129-0.313-2.16-0.432-3.361-0.432
		c-3.191,0-3.936,3.24-3.936,6.384c0,3.528,0.145,6.864,2.568,6.864c1.225,0,1.801-1.008,1.801-2.399v-2.664h-2.018V8.185h5.881
		v9.481H27.48L27,16.129z"/>
</g>
</svg>
