<?xml version="1.0" encoding="iso-8859-1"?>
<!-- Generator: Adobe Illustrator 14.0.0, SVG Export Plug-In . SVG Version: 6.00 Build 43363)  -->
<!DOCTYPE svg PUBLIC "-//W3C//DTD SVG 1.1//EN" "http://www.w3.org/Graphics/SVG/1.1/DTD/svg11.dtd">
<svg version="1.1" id="icon-m-camera-settings-layer"
	 xmlns="http://www.w3.org/2000/svg" xmlns:xlink="http://www.w3.org/1999/xlink" x="0px" y="0px" width="64px" height="64px"
	 viewBox="0 0 64 64" style="enable-background:new 0 0 64 64;" xml:space="preserve">
<g id="icon-m-camera-settings">
	<rect style="fill:none;" width="64" height="64"/>
	<path style="fill:#333333;" d="M63.479,35.279c-0.278-2.539-0.61-3.812-1.438-2.768l-6.183,7.668
		c-3.883-0.596-6.548-3.184-7.994-6.373l6.153-7.635c1.548-1.918-4.344-1.191-7.985,1.475c-8.075,5.922-3.779,12.012-2.931,12.926
		L29.733,57.139c-0.627,0.785-0.507,1.93,0.281,2.559l4.26,3.402c0.783,0.629,1.934,0.502,2.567-0.283l13.386-16.605
		C59.927,50.242,63.812,38.355,63.479,35.279z"/>
	<path style="fill:#333333;" d="M36.403,23.871V2.297c0-0.984-0.812-1.797-1.795-1.797H2.294C1.311,0.5,0.5,1.312,0.5,2.297v21.574
		c0,0.988,0.811,1.801,1.794,1.801h32.314C35.591,25.672,36.403,24.859,36.403,23.871z M18.452,21.502
		c-4.463,0-8.077-3.629-8.077-8.092c0-4.469,3.614-8.09,8.077-8.09c4.464,0,8.076,3.621,8.076,8.09
		C26.528,17.875,22.916,21.502,18.452,21.502z M33.422,8.414h-6.894V3.492h6.894V8.414z"/>
</g>
</svg>
