<?xml version="1.0" encoding="iso-8859-1"?>
<!-- Generator: Adobe Illustrator 14.0.0, SVG Export Plug-In . SVG Version: 6.00 Build 43363)  -->
<!DOCTYPE svg PUBLIC "-//W3C//DTD SVG 1.1//EN" "http://www.w3.org/Graphics/SVG/1.1/DTD/svg11.dtd">
<svg version="1.1" id="icon-m-content-audio-layer" xmlns="http://www.w3.org/2000/svg" xmlns:xlink="http://www.w3.org/1999/xlink"
	 x="0px" y="0px" width="64px" height="65px" viewBox="0 0 64 65" style="enable-background:new 0 0 64 65;" xml:space="preserve">
<g id="icon-m-content-audio">
	<rect style="fill:none;" width="64" height="64"/>
	<path style="fill:#333333;" d="M50.406,35.782c-2.654-0.977-6.078-0.663-9.242,1.097c-5.129,2.861-7.412,8.208-5.191,12.211
		c2.211,3.995,7.98,4.911,13.094,2.069c3.393-1.872,5.564-4.867,5.984-7.838c0.037-0.354,0.059-0.495,0.059-0.734v-5.979V0.688
		c0-0.604-0.434-0.864-0.961-0.563L25.127,16.16c-0.521,0.285-0.943,1.017-0.943,1.633v29.169c-2.667-0.957-6.1-0.644-9.254,1.118
		c-5.133,2.839-7.403,8.191-5.197,12.187c2.217,4.005,7.977,4.926,13.101,2.088c3.389-1.88,5.63-4.867,6.035-7.836
		c0.025-0.326,0.058-0.495,0.058-0.737V30.688c0-0.465,0.433-1.329,0.955-1.624L49.4,18.28c0.523-0.288,0.955-0.032,0.955,0.565
		v18.67"/>
</g>
</svg>
