<?xml version="1.0" encoding="iso-8859-1"?>
<!-- Generator: Adobe Illustrator 14.0.0, SVG Export Plug-In . SVG Version: 6.00 Build 43363)  -->
<!DOCTYPE svg PUBLIC "-//W3C//DTD SVG 1.1//EN" "http://www.w3.org/Graphics/SVG/1.1/DTD/svg11.dtd">
<svg version="1.1" id="icon-m-content-game-layer" xmlns="http://www.w3.org/2000/svg" xmlns:xlink="http://www.w3.org/1999/xlink"
	 x="0px" y="0px" width="64px" height="64px" viewBox="0 0 64 64" style="enable-background:new 0 0 64 64;" xml:space="preserve">
<g id="icon-m-content-game">
	<rect style="fill:none;" width="64" height="64"/>
	<path style="fill:#333333;" d="M63.462,44.814c0-0.014,0.018-0.035,0.018-0.047c-0.094-1.389-2.248-24.996-2.248-24.996
		l-0.055,0.006c-0.057-0.364-0.107-0.728-0.191-1.089c-1.564-6.96-8.418-11.318-15.309-9.733c-3.127,0.719-5.713,2.543-7.468,4.967
		H25.793c-1.753-2.424-4.341-4.248-7.468-4.967C11.437,7.37,4.581,11.729,3.019,18.688c-0.082,0.361-0.139,0.725-0.191,1.089
		l-0.055-0.006c0,0-2.154,23.607-2.249,24.996c0,0.012,0.017,0.033,0.017,0.047c-0.424,4.76,2.648,9.225,7.385,10.314
		c4.75,1.092,9.443-1.609,11.082-6.104l0.157-0.115l6.112-16.088c0.832-1.762,3.393-3.055,6.461-3.055
		c0.073,0,0.143,0.006,0.212,0.01v0.006c0.019,0,0.034-0.002,0.051-0.002s0.034,0.002,0.053,0.002v-0.006
		c0.071-0.004,0.139-0.01,0.212-0.01c3.067,0,5.629,1.293,6.461,3.055l6.113,16.088l0.154,0.115
		c1.641,4.494,6.332,7.195,11.084,6.104C60.815,54.039,63.888,49.574,63.462,44.814z M14.759,29.805c-3.893,0-7.05-3.186-7.05-7.113
		c0-3.926,3.157-7.113,7.05-7.113c3.891,0,7.049,3.188,7.049,7.113C21.808,26.619,18.649,29.805,14.759,29.805z M37.036,22.476
		c0,1.401-1.129,2.54-2.52,2.54h-5.034c-1.388,0-2.519-1.139-2.519-2.54v-1.017c0-1.402,1.131-2.54,2.519-2.54h5.034
		c1.391,0,2.52,1.138,2.52,2.54V22.476z M49.243,29.805c-3.892,0-7.049-3.186-7.049-7.113c0-3.926,3.157-7.113,7.049-7.113
		c3.893,0,7.052,3.188,7.052,7.113C56.295,26.619,53.136,29.805,49.243,29.805z"/>
</g>
</svg>
