<?xml version="1.0" encoding="iso-8859-1"?>
<!-- Generator: Adobe Illustrator 14.0.0, SVG Export Plug-In . SVG Version: 6.00 Build 43363)  -->
<!DOCTYPE svg PUBLIC "-//W3C//DTD SVG 1.1//EN" "http://www.w3.org/Graphics/SVG/1.1/DTD/svg11.dtd">
<svg version="1.1" id="icon-m-framework-viewmenu-layer"
	 xmlns="http://www.w3.org/2000/svg" xmlns:xlink="http://www.w3.org/1999/xlink" x="0px" y="0px" width="64px" height="64px"
	 viewBox="0 0 64 64" style="enable-background:new 0 0 64 64;" xml:space="preserve">
<g id="icon-m-framework-viewmenu">
	<rect style="fill:none;" width="64" height="64"/>
	<g>
		<path style="fill:#333333;" d="M63,34c0,1.1-0.9,2-2,2H3c-1.1,0-2-0.9-2-2v-4c0-1.1,0.9-2,2-2h58c1.1,0,2,0.9,2,2V34z"/>
	</g>
	<g>
		<path style="fill:#333333;" d="M63,54c0,1.1-0.9,2-2,2H3c-1.1,0-2-0.9-2-2v-4c0-1.1,0.9-2,2-2h58c1.1,0,2,0.9,2,2V54z"/>
	</g>
	<g>
		<path style="fill:#333333;" d="M63,14c0,1.1-0.9,2-2,2H3c-1.1,0-2-0.9-2-2v-4c0-1.1,0.9-2,2-2h58c1.1,0,2,0.9,2,2V14z"/>
	</g>
</g>
</svg>
