<?xml version="1.0" encoding="iso-8859-1"?>
<!-- Generator: Adobe Illustrator 13.0.2, SVG Export Plug-In . SVG Version: 6.00 Build 14948)  -->
<!DOCTYPE svg PUBLIC "-//W3C//DTD SVG 1.1//EN" "http://www.w3.org/Graphics/SVG/1.1/DTD/svg11.dtd">
<svg version="1.1" xmlns="http://www.w3.org/2000/svg" xmlns:xlink="http://www.w3.org/1999/xlink" x="0px" y="0px" width="64px"
	 height="64px" viewBox="0 0 64 64" style="enable-background:new 0 0 64 64;" xml:space="preserve">
	<g id="icon-m-toolbar-reply-all">
		<path style="fill:#FFFFFF;" d="M32,0C14.326,0,0,14.326,0,32c0,17.671,14.326,32,32,32s32-14.329,32-32C64,14.326,49.674,0,32,0z
			 M25.288,48.034c0,0.926-1.19,1.729-2.107,0.916L7.387,32.919c-0.556-0.494-0.56-1.349,0.002-1.838l15.792-15.942
			c1.095-0.968,2.107,0.083,2.107,0.919l0.004,7.846l-7.107,7.178c-0.563,0.489-0.561,1.344-0.006,1.838l7.109,7.219V48.034z
			 M56.061,38.436H43.201v9.599c0,0.926-1.186,1.729-2.107,0.916L25.3,32.919c-0.55-0.494-0.555-1.349,0.003-1.838l15.79-15.942
			c1.095-0.968,2.107,0.083,2.107,0.919l0.008,9.51h12.852c0.607,0,1.268,0.467,1.268,1.235v10.39
			C57.328,37.878,56.768,38.436,56.061,38.436z"/>
	</g>
</svg>
