<?xml version="1.0" encoding="iso-8859-1"?>
<!-- Generator: Adobe Illustrator 14.0.0, SVG Export Plug-In . SVG Version: 6.00 Build 43363)  -->
<!DOCTYPE svg PUBLIC "-//W3C//DTD SVG 1.1//EN" "http://www.w3.org/Graphics/SVG/1.1/DTD/svg11.dtd">
<svg version="1.1" id="icon-m-energy-management-battery100-layer"
	 xmlns="http://www.w3.org/2000/svg" xmlns:xlink="http://www.w3.org/1999/xlink" x="0px" y="0px" width="64px" height="64px"
	 viewBox="0 0 64 64" style="enable-background:new 0 0 64 64;" xml:space="preserve">
<g id="icon-m-energy-management-battery100">
	<path style="fill:#333333;" d="M60.622,25.453h-2.817V15.379c0-1.033-0.845-1.879-1.878-1.879H3.379
		c-1.035,0-1.88,0.846-1.88,1.879v33.243c0,1.033,0.845,1.878,1.88,1.878h52.547c1.033,0,1.878-0.845,1.878-1.878V38.547h2.817
		c1.034,0,1.88-0.845,1.88-1.878v-9.337C62.502,26.299,61.656,25.453,60.622,25.453z M52.11,44.219c0,1.033-0.847,1.879-1.88,1.879
		H7.062c-1.033,0-1.878-0.846-1.878-1.879V19.785c0-1.031,0.845-1.879,1.878-1.879H50.23c1.033,0,1.88,0.848,1.88,1.879V44.219z"/>
	<rect x="8.527" y="21.242" style="fill:#333333;" width="40.309" height="21.516"/>
	<rect style="fill:none;" width="64" height="64"/>
</g>
</svg>
