<?xml version="1.0" encoding="iso-8859-1"?>
<!-- Generator: Adobe Illustrator 14.0.0, SVG Export Plug-In . SVG Version: 6.00 Build 43363)  -->
<!DOCTYPE svg PUBLIC "-//W3C//DTD SVG 1.1//EN" "http://www.w3.org/Graphics/SVG/1.1/DTD/svg11.dtd">
<svg version="1.1" id="icon-m-framework-list-layer"
	 xmlns="http://www.w3.org/2000/svg" xmlns:xlink="http://www.w3.org/1999/xlink" x="0px" y="0px" width="64px" height="64px"
	 viewBox="0 0 64 64" style="enable-background:new 0 0 64 64;" xml:space="preserve">
<g id="icon-m-framework-list">
	<rect style="fill:none;" width="64" height="64"/>
	<g>
		<path style="fill:#FFFFFF;" d="M18.581,29.42c-1.425,0-2.581-1.156-2.581-2.581c0-1.427,1.156-2.581,2.581-2.581
			c1.426,0,2.581,1.154,2.581,2.581C21.161,28.264,20.007,29.42,18.581,29.42"/>
		<path style="fill:#FFFFFF;" d="M48,27.871c0,0.568-0.465,1.032-1.032,1.032H25.291c-0.568,0-1.032-0.464-1.032-1.032v-2.064
			c0-0.568,0.464-1.032,1.032-1.032h21.677c0.567,0,1.032,0.464,1.032,1.032V27.871z"/>
		<path style="fill:#FFFFFF;" d="M18.581,39.742c-1.425,0-2.581-1.155-2.581-2.58c0-1.427,1.156-2.582,2.581-2.582
			c2.112,0,2.581,1.156,2.581,2.582C21.161,38.587,20.007,39.742,18.581,39.742"/>
		<path style="fill:#FFFFFF;" d="M48,38.193c0,0.568-0.465,1.033-1.032,1.033H25.291c-0.568,0-1.032-0.465-1.032-1.033v-2.064
			c0-0.568,0.464-1.032,1.032-1.032h21.677c0.567,0,1.032,0.464,1.032,1.032V38.193z"/>
	</g>
</g>
</svg>
