<?xml version="1.0" encoding="iso-8859-1"?>
<!-- Generator: Adobe Illustrator 13.0.2, SVG Export Plug-In . SVG Version: 6.00 Build 14948)  -->
<!DOCTYPE svg PUBLIC "-//W3C//DTD SVG 1.1//EN" "http://www.w3.org/Graphics/SVG/1.1/DTD/svg11.dtd">
<svg version="1.1" xmlns="http://www.w3.org/2000/svg" xmlns:xlink="http://www.w3.org/1999/xlink" x="0px" y="0px" width="280px"
	 height="280px" viewBox="0 0 280 280" style="enable-background:new 0 0 280 280;" xml:space="preserve">
	<g id="icon-l-lastfm" transform="translate(74.046,-342.596)">
		<rect id="_x3C_Slice_x3E__22_" x="-74.046" y="342.596" style="fill:none;" width="280" height="280"/>
		<g>
			<g>
				<path id="path83" style="fill:#D81F26;" d="M-56.583,516.676h1.681v-3.025h2.224v3.025h2.012v1.664h-2.012v5.385
					c0,0.919,0.079,1.389,1.075,1.389c0.313,0,0.625,0,0.938-0.08v1.717c-0.487,0.041-0.957,0.118-1.445,0.118
					c-2.323,0-2.753-0.899-2.792-2.578v-5.95h-1.681V516.676z"/>
				<path id="path85" style="fill:#D81F26;" d="M-49.065,512.831h2.224v5.174h0.041c0.546-0.919,1.698-1.602,3.025-1.602
					c2.188,0,3.575,1.169,3.575,3.434v6.935h-2.226v-6.346c-0.039-1.582-0.664-2.267-1.972-2.267c-1.486,0-2.443,1.173-2.443,2.654
					v5.958h-2.224V512.831L-49.065,512.831z"/>
				<path id="path87" style="fill:#D81F26;" d="M-36.119,522.3c0,1.581,0.859,2.985,2.715,2.985c1.286,0,2.07-0.564,2.459-1.678
					h2.108c-0.488,2.207-2.363,3.438-4.568,3.438c-3.165,0-4.941-2.207-4.941-5.313c0-2.869,1.875-5.329,4.882-5.329
					c3.182,0,5.135,2.872,4.764,5.896H-36.119z M-30.925,520.835c-0.077-1.406-1.035-2.676-2.538-2.676
					c-1.542,0-2.599,1.173-2.656,2.676H-30.925z"/>
				<path id="path89" style="fill:#D81F26;" d="M-19.894,523.532c0.118,1.288,1.094,1.754,2.287,1.754
					c0.839,0,2.304-0.172,2.243-1.326c-0.058-1.169-1.678-1.309-3.299-1.679c-1.64-0.349-3.241-0.938-3.241-2.989
					c0-2.205,2.38-2.888,4.217-2.888c2.07,0,3.943,0.858,4.218,3.104h-2.323c-0.197-1.055-1.075-1.349-2.051-1.349
					c-0.644,0-1.834,0.155-1.834,1.034c0,1.096,1.64,1.252,3.28,1.62c1.621,0.375,3.26,0.956,3.26,2.952c0,2.4-2.421,3.28-4.51,3.28
					c-2.539,0-4.432-1.135-4.47-3.515H-19.894L-19.894,523.532z"/>
				<path id="path91" style="fill:#D81F26;" d="M-11.906,521.713c0-3.082,1.854-5.31,5.098-5.31c3.241,0,5.095,2.228,5.095,5.31
					c0,3.106-1.854,5.333-5.095,5.333C-10.052,527.046-11.906,524.82-11.906,521.713z M-3.941,521.713
					c0-1.738-0.877-3.554-2.868-3.554c-1.994,0-2.874,1.815-2.874,3.554c0,1.758,0.88,3.572,2.874,3.572
					C-4.817,525.285-3.941,523.471-3.941,521.713z"/>
				<path id="path93" style="fill:#D81F26;" d="M6.956,520.054c-0.177-1.231-1.075-1.895-2.306-1.895
					c-1.151,0-2.772,0.606-2.772,3.671c0,1.682,0.743,3.455,2.674,3.455c1.292,0,2.188-0.855,2.404-2.303h2.225
					c-0.411,2.616-2.032,4.063-4.629,4.063c-3.162,0-4.899-2.243-4.899-5.216c0-3.046,1.659-5.427,4.979-5.427
					c2.345,0,4.335,1.169,4.549,3.65H6.956z"/>
				<path id="path95" style="fill:#D81F26;" d="M11.057,512.831h2.226v2.106h-2.226V512.831z M11.057,516.676h2.226v10.096h-2.226
					V516.676z"/>
				<path id="path97" style="fill:#D81F26;" d="M24.158,524.527c0,0.548,0.118,0.759,0.526,0.759c0.137,0,0.313,0,0.548-0.037v1.543
					c-0.334,0.115-1.037,0.255-1.407,0.255c-0.899,0-1.543-0.312-1.719-1.231c-0.878,0.858-2.304,1.231-3.494,1.231
					c-1.817,0-3.459-0.976-3.459-2.948c0-2.52,2.013-2.928,3.888-3.146c1.602-0.292,3.027-0.116,3.027-1.424
					c0-1.152-1.19-1.368-2.089-1.368c-1.25,0-2.128,0.509-2.227,1.602h-2.227c0.157-2.597,2.364-3.357,4.59-3.357
					c1.972,0,4.042,0.799,4.042,2.929V524.527L24.158,524.527z M21.932,521.713c-0.683,0.449-1.757,0.434-2.734,0.605
					c-0.957,0.156-1.815,0.51-1.815,1.682c0,0.992,1.27,1.285,2.051,1.285c0.974,0,2.498-0.504,2.498-1.913V521.713L21.932,521.713z
					"/>
				<path id="path99" style="fill:#D81F26;" d="M26.618,512.831h2.226v13.94h-2.226V512.831z"/>
				<path id="path101" style="fill:#D81F26;" d="M36.695,516.676h2.108v1.406h0.058c0.663-0.996,1.502-1.679,3.106-1.679
					c1.229,0,2.38,0.526,2.83,1.679c0.741-1.033,1.697-1.679,3.162-1.679c2.128,0,3.378,0.936,3.378,3.396v6.973h-2.227v-5.898
					c0-1.598-0.096-2.714-1.834-2.714c-1.502,0-2.147,0.995-2.147,2.694v5.918h-2.227v-6.482c0-1.387-0.428-2.13-1.777-2.13
					c-1.154,0-2.205,0.938-2.205,2.615v5.997h-2.226V516.676L36.695,516.676z"/>
				<path id="path103" style="fill:#D81F26;" d="M62.547,526.772H60.36v-1.406h-0.038c-0.546,1.018-1.758,1.681-2.872,1.681
					c-2.635,0-3.768-1.327-3.768-3.965v-6.405h2.224v6.191c0,1.776,0.724,2.418,1.935,2.418c1.855,0,2.48-1.188,2.48-2.75v-5.859
					h2.226V526.772L62.547,526.772z"/>
				<path id="path105" style="fill:#D81F26;" d="M66.568,523.532c0.117,1.288,1.097,1.754,2.286,1.754
					c0.84,0,2.304-0.172,2.244-1.326c-0.059-1.169-1.68-1.309-3.301-1.679c-1.639-0.349-3.24-0.938-3.24-2.989
					c0-2.205,2.38-2.888,4.217-2.888c2.07,0,3.943,0.858,4.218,3.104H70.67c-0.194-1.055-1.075-1.349-2.051-1.349
					c-0.644,0-1.835,0.155-1.835,1.034c0,1.096,1.641,1.252,3.279,1.62c1.621,0.375,3.261,0.956,3.261,2.952
					c0,2.4-2.419,3.28-4.508,3.28c-2.54,0-4.434-1.135-4.473-3.515H66.568L66.568,523.532z"/>
				<path id="path107" style="fill:#D81F26;" d="M75.081,512.831h2.228v2.106h-2.228V512.831z M75.081,516.676h2.228v10.096h-2.228
					V516.676z"/>
				<path id="path109" style="fill:#D81F26;" d="M86.544,520.054c-0.176-1.231-1.074-1.895-2.306-1.895
					c-1.149,0-2.771,0.606-2.771,3.671c0,1.682,0.741,3.455,2.674,3.455c1.289,0,2.186-0.855,2.402-2.303h2.227
					c-0.411,2.616-2.031,4.063-4.629,4.063c-3.162,0-4.899-2.243-4.899-5.216c0-3.046,1.659-5.427,4.977-5.427
					c2.345,0,4.339,1.169,4.552,3.65H86.544z"/>
				<path id="path111" style="fill:#D81F26;" d="M96.016,516.676h2.089v1.955h0.039c0.252-1.075,1.582-2.228,2.947-2.228
					c0.508,0,0.645,0.039,0.84,0.058v2.15c-0.311-0.039-0.643-0.1-0.957-0.1c-1.522,0-2.734,1.229-2.734,3.456v4.804h-2.224V516.676
					L96.016,516.676z"/>
				<path id="path113" style="fill:#D81F26;" d="M104.276,522.3c0,1.581,0.859,2.985,2.715,2.985c1.289,0,2.07-0.564,2.461-1.678
					h2.107c-0.488,2.207-2.36,3.438-4.568,3.438c-3.164,0-4.94-2.207-4.94-5.313c0-2.869,1.875-5.329,4.88-5.329
					c3.185,0,5.137,2.872,4.767,5.896H104.276z M109.47,520.835c-0.076-1.406-1.033-2.676-2.539-2.676
					c-1.54,0-2.596,1.173-2.654,2.676H109.47z"/>
				<path id="path115" style="fill:#D81F26;" d="M112.401,516.676h2.419l2.559,7.754h0.038l2.461-7.754h2.305l-3.611,10.096h-2.5
					L112.401,516.676z"/>
				<path id="path117" style="fill:#D81F26;" d="M123.06,521.713c0-3.082,1.856-5.31,5.097-5.31c3.242,0,5.098,2.228,5.098,5.31
					c0,3.106-1.855,5.333-5.098,5.333C124.917,527.046,123.06,524.82,123.06,521.713z M131.028,521.713
					c0-1.738-0.877-3.554-2.871-3.554c-1.992,0-2.87,1.815-2.87,3.554c0,1.758,0.878,3.572,2.87,3.572
					C130.151,525.285,131.028,523.471,131.028,521.713z"/>
				<path id="path119" style="fill:#D81F26;" d="M135.167,512.831h2.227v13.94h-2.227V512.831z"/>
				<path id="path121" style="fill:#D81F26;" d="M148.68,526.772h-2.186v-1.406h-0.041c-0.546,1.018-1.758,1.681-2.87,1.681
					c-2.636,0-3.768-1.327-3.768-3.965v-6.405h2.223v6.191c0,1.776,0.725,2.418,1.937,2.418c1.854,0,2.479-1.188,2.479-2.75v-5.859
					h2.227V526.772L148.68,526.772z"/>
				<path id="path123" style="fill:#D81F26;" d="M150.007,516.676h1.682v-3.025h2.223v3.025h2.012v1.664h-2.012v5.385
					c0,0.919,0.08,1.389,1.076,1.389c0.313,0,0.623,0,0.936-0.08v1.717c-0.486,0.041-0.955,0.118-1.443,0.118
					c-2.324,0-2.756-0.899-2.791-2.578v-5.95h-1.682V516.676L150.007,516.676z"/>
				<path id="path125" style="fill:#D81F26;" d="M157.583,512.831h2.225v2.106h-2.225V512.831z M157.583,516.676h2.225v10.096
					h-2.225V516.676z"/>
				<path id="path127" style="fill:#D81F26;" d="M161.763,521.713c0-3.082,1.854-5.31,5.094-5.31c3.244,0,5.099,2.228,5.099,5.31
					c0,3.106-1.854,5.333-5.099,5.333C163.616,527.046,161.763,524.82,161.763,521.713z M169.728,521.713
					c0-1.738-0.879-3.554-2.872-3.554c-1.99,0-2.87,1.815-2.87,3.554c0,1.758,0.88,3.572,2.87,3.572
					C168.85,525.285,169.728,523.471,169.728,521.713z"/>
				<path id="path129" style="fill:#D81F26;" d="M173.809,516.676h2.108v1.483l0.041,0.04c0.662-1.113,1.814-1.796,3.143-1.796
					c2.186,0,3.574,1.169,3.574,3.434v6.935h-2.227v-6.346c-0.039-1.582-0.664-2.267-1.973-2.267c-1.486,0-2.44,1.173-2.44,2.654
					v5.958h-2.227V516.676L173.809,516.676z"/>
				<path id="path133" style="fill:#D81F26;" d="M183.054,453.571h4.28v0.801h-1.681v4.484h-0.926v-4.484h-1.674V453.571
					L183.054,453.571z"/>
				<path id="path135" style="fill:#D81F26;" d="M187.931,453.571h1.303l1.459,4.139h0.015l1.421-4.139h1.289v5.285h-0.88v-4.078
					h-0.017l-1.465,4.078h-0.764l-1.465-4.078h-0.014v4.078h-0.883V453.571L187.931,453.571z"/>
			</g>
			<g id="g1935">
				<rect id="rect139" x="-56.393" y="427.16" style="fill:#D81F26;" width="7.083" height="74.081"/>
				<path id="path141" style="fill:#D81F26;" d="M68.196,502.386v-7.367c-9.458-1.356-13.932-7.181-13.932-18.192v-17.148h13.932
					v-6.545H54.265V441.39h-7.168v11.743h-4.888v6.545h4.888v15.387C47.097,491.694,52.076,499.265,68.196,502.386z"/>
				<path id="path143" style="fill:#D81F26;" d="M71.364,474.55c0,3.108,2.489,5.606,5.607,5.606c3.109,0,5.714-2.498,5.714-5.606
					c0-3.124-2.604-5.72-5.714-5.72C73.853,468.83,71.364,471.426,71.364,474.55z"/>
				<path id="path145" style="fill:#D81F26;" d="M93.476,501.242h7.172v-42.078h13.71v-6.744h-13.71
					c0.61-8.737,5.187-14.871,13.71-18.296v-7.28c-13.195,3.962-20.262,12.58-20.882,25.576h-7.49v6.744h7.49V501.242z"/>
				<path id="path147" style="fill:#D81F26;" d="M115.653,501.242h6.967v-29.089c0-8.729,5.296-14.123,11.636-14.123
					c6.229,0,11.638,5.395,11.638,14.123v29.089h7.057v-29.089c0-8.729,5.311-14.123,11.645-14.123
					c6.234,0,11.532,5.395,11.532,14.123v29.089h6.968v-28.569c0-13.302-8.115-21.613-18.5-21.613
					c-6.124,0-11.325,2.909-15.275,8.523c-4.258-5.719-9.041-8.523-15.063-8.523c-10.393,0-18.603,8.312-18.603,21.613V501.242
					L115.653,501.242z"/>
				<path id="path149" style="fill:#D81F26;" d="M7.886,489.787l-0.954-2.121l-8.237-18.779
					c-2.729-6.641-9.504-11.127-17.154-11.127c-10.349,0-18.74,8.389-18.74,18.744c0,10.35,8.391,18.745,18.74,18.745
					c7.218,0,13.494-4.083,16.625-10.064l3.333,7.685c-4.729,5.763-11.912,9.438-19.958,9.438
					c-14.251,0-25.802-11.544-25.802-25.803c0-14.256,11.551-25.81,25.802-25.81c10.755,0,19.438,5.743,23.848,15.921
					c0.337,0.788,4.671,10.916,8.446,19.533c2.337,5.334,4.333,8.875,10.806,9.094c6.353,0.214,10.719-3.65,10.719-8.545
					c0-4.775-3.328-5.928-8.941-7.795c-10.1-3.326-15.31-6.666-15.31-14.671c0-7.812,5.309-13.018,13.948-13.018
					c5.619,0,9.68,2.501,12.496,7.49l-5.521,2.821c-2.078-2.91-4.374-4.06-7.285-4.06c-4.056,0-6.949,2.82-6.949,6.569
					c0,5.323,4.761,6.127,11.419,8.305c8.958,2.919,13.125,6.254,13.125,14.576c0,8.74-7.5,15.111-17.286,15.092
					C16.034,501.972,11.225,497.563,7.886,489.787z"/>
			</g>
		</g>
	</g>
</g>
</svg>
