<?xml version="1.0" encoding="iso-8859-1"?>
<!-- Generator: Adobe Illustrator 14.0.0, SVG Export Plug-In . SVG Version: 6.00 Build 43363)  -->
<!DOCTYPE svg PUBLIC "-//W3C//DTD SVG 1.1//EN" "http://www.w3.org/Graphics/SVG/1.1/DTD/svg11.dtd">
<svg version="1.1" id="icon-m-content-event-layer" xmlns="http://www.w3.org/2000/svg" xmlns:xlink="http://www.w3.org/1999/xlink"
	 x="0px" y="0px" width="64px" height="64px" viewBox="0 0 64 64" style="enable-background:new 0 0 64 64;" xml:space="preserve">
<g id="icon-m-content-event">
	<rect style="fill:none;" width="64" height="64"/>
	<path style="fill:#333333;" d="M18.182,12.098h0.513c1.15,0,2.09-0.941,2.09-2.088V2.139c0-1.148-0.939-2.088-2.09-2.088h-0.513
		c-1.149,0-2.091,0.939-2.091,2.088v7.871C16.091,11.156,17.032,12.098,18.182,12.098z"/>
	<path style="fill:#333333;" d="M44.237,12.098h0.513c1.15,0,2.091-0.941,2.091-2.088V2.139c0-1.148-0.94-2.088-2.091-2.088h-0.513
		c-1.149,0-2.091,0.939-2.091,2.088v7.871C42.146,11.156,43.088,12.098,44.237,12.098z"/>
	<path style="fill:#333333;" d="M51.826,9.768c-0.387,3.508-3.318,6.234-6.88,6.234c-3.562,0-6.492-2.727-6.88-6.234H25.771
		c-0.387,3.508-3.317,6.234-6.879,6.234c-3.562,0-6.493-2.727-6.88-6.234H5.161v10.352h53.678V9.768H51.826z"/>
	<path style="fill:#333333;" d="M5.161,56.207c0.483,6.971,6.586,7.574,7.669,7.742h38.341c0.389,0,7.069-0.279,7.668-7.742V24.133
		H5.161V56.207z M48.098,35.582c0.107,0.32,0.009,0.672-0.237,0.893l-0.104,0.08c-0.502,0.354-2.334,1.686-4.866,3.977
		c-3.818,3.465-7.408,7.488-10.381,11.635c-0.152,0.209-0.381,0.332-0.63,0.354l-0.069,0.002c-0.233,0-0.459-0.094-0.615-0.258
		l-7.578-7.492c-0.165-0.168-0.251-0.383-0.249-0.609c0.005-0.232,0.1-0.445,0.266-0.602l2.539-2.305
		c0.316-0.295,0.885-0.287,1.194,0.031l3.759,3.803c2.125-2.877,8.149-9.932,16.145-10.088
		C47.657,35.002,47.983,35.234,48.098,35.582z M18.125,31.172c0-0.785,0.635-1.424,1.416-1.424h22.974
		c0.781,0,1.417,0.639,1.417,1.424v2.139l-0.362,0.113c-0.872,0.273-1.755,0.641-2.618,1.09l-0.755,0.391v-1.008
		c0-0.219-0.172-0.395-0.385-0.395H22.245c-0.213,0-0.385,0.176-0.385,0.395v19.531c0,0.215,0.172,0.393,0.385,0.393h17.566
		c0.213,0,0.385-0.178,0.385-0.393v-8.691l0.155-0.15c0.661-0.646,1.295-1.242,1.888-1.783c0.289-0.264,0.565-0.51,0.835-0.748
		l0.857-0.758v15.08c0,0.66-0.636,1.197-1.417,1.197H19.541c-0.781,0-1.416-0.639-1.416-1.424V31.172z"/>
</g>
</svg>
