<?xml version="1.0" encoding="iso-8859-1"?>
<!-- Generator: Adobe Illustrator 14.0.0, SVG Export Plug-In . SVG Version: 6.00 Build 43363)  -->
<!DOCTYPE svg PUBLIC "-//W3C//DTD SVG 1.1//EN" "http://www.w3.org/Graphics/SVG/1.1/DTD/svg11.dtd">
<svg version="1.1" id="icon-s-status-skype-layer" xmlns="http://www.w3.org/2000/svg" xmlns:xlink="http://www.w3.org/1999/xlink"
	 x="0px" y="0px" width="18px" height="18px" viewBox="0 0 18 18" style="enable-background:new 0 0 18 18;" xml:space="preserve">
<g id="icon-s-status-skype">
	<path style="fill:#FFFFFF;" d="M18.238,10.91c0.127-0.585,0.195-1.192,0.195-1.816c0-4.675-3.79-8.465-8.465-8.465
		c-0.494,0-0.977,0.043-1.448,0.124C7.765,0.276,6.869,0,5.909,0C3.199,0,1,2.197,1,4.909c0,0.905,0.248,1.755,0.674,2.482
		c-0.112,0.551-0.17,1.119-0.17,1.702c0,4.675,3.79,8.466,8.465,8.466c0.529,0,1.047-0.049,1.549-0.144C12.21,17.788,13,18,13.84,18
		c2.711,0,4.908-2.198,4.908-4.91C18.748,12.307,18.564,11.567,18.238,10.91z M14.311,13.14c-0.392,0.554-0.971,0.993-1.721,1.305
		c-0.742,0.309-1.633,0.465-2.645,0.465c-1.215,0-2.235-0.214-3.031-0.636c-0.569-0.307-1.037-0.723-1.394-1.236
		c-0.359-0.52-0.542-1.033-0.542-1.529c0-0.311,0.119-0.58,0.353-0.8c0.231-0.218,0.529-0.328,0.884-0.328
		c0.291,0,0.542,0.087,0.745,0.259c0.195,0.166,0.363,0.41,0.496,0.727c0.15,0.342,0.314,0.633,0.487,0.861
		c0.166,0.219,0.406,0.404,0.709,0.549c0.308,0.145,0.721,0.219,1.23,0.219c0.699,0,1.273-0.149,1.705-0.444
		c0.422-0.288,0.627-0.634,0.627-1.056c0-0.335-0.107-0.598-0.328-0.804c-0.229-0.215-0.533-0.383-0.902-0.498
		c-0.385-0.12-0.908-0.249-1.553-0.385C8.553,9.619,7.807,9.396,7.213,9.144C6.606,8.886,6.117,8.527,5.759,8.08
		C5.395,7.625,5.211,7.056,5.211,6.383c0-0.639,0.193-1.217,0.574-1.713c0.378-0.493,0.931-0.877,1.643-1.141
		c0.703-0.26,1.538-0.392,2.484-0.392c0.755,0,1.421,0.088,1.974,0.261c0.559,0.173,1.029,0.408,1.399,0.696
		c0.372,0.291,0.649,0.603,0.823,0.926c0.176,0.327,0.264,0.651,0.264,0.966c0,0.302-0.116,0.576-0.346,0.816
		c-0.232,0.241-0.525,0.363-0.871,0.363c-0.313,0-0.557-0.076-0.729-0.228c-0.159-0.14-0.322-0.358-0.506-0.672
		c-0.211-0.401-0.465-0.718-0.759-0.939C10.879,5.11,10.403,5,9.75,5C9.143,5,8.649,5.122,8.284,5.363
		C7.93,5.594,7.759,5.859,7.759,6.174c0,0.193,0.054,0.354,0.168,0.492c0.121,0.147,0.29,0.276,0.504,0.383
		C8.654,7.161,8.884,7.25,9.114,7.313c0.235,0.065,0.629,0.162,1.171,0.288C10.97,7.748,11.6,7.912,12.156,8.09
		c0.563,0.181,1.051,0.403,1.447,0.662c0.406,0.264,0.727,0.603,0.955,1.009c0.229,0.405,0.344,0.907,0.344,1.489
		C14.902,11.948,14.703,12.582,14.311,13.14z"/>
</g>
</svg>
