<?xml version="1.0" encoding="iso-8859-1"?>
<!-- Generator: Adobe Illustrator 13.0.2, SVG Export Plug-In . SVG Version: 6.00 Build 14948)  -->
<!DOCTYPE svg PUBLIC "-//W3C//DTD SVG 1.1//EN" "http://www.w3.org/Graphics/SVG/1.1/DTD/svg11.dtd">
<svg version="1.1" xmlns="http://www.w3.org/2000/svg" xmlns:xlink="http://www.w3.org/1999/xlink" x="0px" y="0px" width="64px"
	 height="64px" viewBox="0 0 64 64" style="enable-background:new 0 0 64 64;" xml:space="preserve">
	<g id="icon-m-content-contacts_1_">
		<rect style="fill:none;" width="64" height="64"/>
		<path style="fill:#333333;" d="M55.518,1.049H10.076v6.598c4.486,0.504,7.973,4.233,7.973,8.766c0,4.531-3.486,8.259-7.973,8.768
			v13.723c4.486,0.504,7.973,4.236,7.973,8.767c0,4.532-3.486,8.261-7.973,8.769v6.512h45.441c4.357,0,8.482-4.102,8.482-8.439
			V9.492C64,5.15,59.875,1.049,55.518,1.049z M40.961,11.387c4.258,0,7.713,3.563,7.713,7.95c0,4.399-3.455,7.964-7.713,7.964
			c-4.271,0-7.723-3.564-7.723-7.964C33.238,14.949,36.689,11.387,40.961,11.387z M54.453,51.799h-27v-7.541
			c0-7.798,7.109-11.943,13.508-11.943c6.383,0,13.492,4.146,13.492,11.943V51.799z"/>
		<path style="fill:#333333;" d="M12.309,47.523V47c0-1.168-0.961-2.125-2.133-2.125H2.131C0.957,44.875,0,45.832,0,47v0.523
			c0,1.168,0.957,2.125,2.131,2.125h8.045C11.348,49.648,12.309,48.691,12.309,47.523z"/>
		<path style="fill:#333333;" d="M2.131,18.171h8.045c1.172,0,2.133-0.957,2.133-2.125v-0.521c0-1.168-0.961-2.125-2.133-2.125
			H2.131C0.957,13.4,0,14.357,0,15.525v0.521C0,17.214,0.957,18.171,2.131,18.171z"/>
	</g>
</svg>
