<?xml version="1.0" encoding="iso-8859-1"?>
<!-- Generator: Adobe Illustrator 14.0.0, SVG Export Plug-In . SVG Version: 6.00 Build 43363)  -->
<!DOCTYPE svg PUBLIC "-//W3C//DTD SVG 1.1//EN" "http://www.w3.org/Graphics/SVG/1.1/DTD/svg11.dtd">
<svg version="1.1" id="icon-m-organizer-today-layer"
	 xmlns="http://www.w3.org/2000/svg" xmlns:xlink="http://www.w3.org/1999/xlink" x="0px" y="0px" width="64px" height="64px"
	 viewBox="0 0 64 64" style="enable-background:new 0 0 64 64;" xml:space="preserve">
<g id="icon-m-organizer-today">
	<rect style="fill:none;" width="64" height="64"/>
	<g>
		<path style="fill:#333333;" d="M44.203,13.001h0.491c1.099,0,1.999-0.897,1.999-1.995V3.492c0-1.096-0.9-1.992-1.999-1.992h-0.491
			c-1.098,0-1.998,0.896-1.998,1.992v7.514C42.205,12.104,43.105,13.001,44.203,13.001z M19.304,13.001h0.49
			c1.099,0,1.999-0.897,1.999-1.995V3.492c0-1.096-0.9-1.992-1.999-1.992h-0.49c-1.099,0-1.999,0.896-1.999,1.992v7.514
			C17.306,12.104,18.205,13.001,19.304,13.001z M50.945,10.775c-0.368,3.348-3.17,5.951-6.574,5.951s-6.204-2.604-6.574-5.951
			H26.045c-0.369,3.348-3.17,5.951-6.575,5.951c-3.403,0-6.204-2.604-6.574-5.951H6.351v9.883h51.297v-9.883H50.945z"/>
		<path style="fill:#333333;" d="M6.351,24.488V55.11c0.461,6.654,6.294,7.23,7.328,7.39H50.32c0.371,0,6.755-0.267,7.328-7.39
			V24.488H6.351z M29.625,29.756c0-1.215,0.985-2.205,2.198-2.205h0.646c1.212,0,2.198,0.99,2.198,2.205v5.13
			c0,1.216-0.986,2.205-2.198,2.205h-0.646c-1.212,0-2.198-0.989-2.198-2.205V29.756z M20.063,48.111
			c0,0.223-0.045,0.418-0.085,0.563l-0.095,0.353h-9.149l-0.096-0.353c-0.039-0.146-0.084-0.341-0.084-0.563v-0.649
			c0-1.216,0.986-2.204,2.198-2.204h5.111c1.213,0,2.199,0.988,2.199,2.204V48.111z M20.265,40.87l-3.616-3.625
			c-0.855-0.859-0.855-2.257,0-3.117l0.459-0.46c0.793-0.797,2.314-0.797,3.11,0l3.614,3.629c0.413,0.412,0.641,0.966,0.641,1.559
			c0,0.589-0.228,1.143-0.64,1.559l-0.458,0.458c-0.415,0.416-0.967,0.646-1.556,0.646C21.23,41.518,20.678,41.287,20.265,40.87z
			 M21.901,49.027l0.022-0.5c0.248-5.42,4.674-9.666,10.077-9.666c5.402,0,9.828,4.246,10.076,9.666l0.022,0.5H21.901z
			 M40.917,40.872l-0.456-0.458c-0.855-0.86-0.855-2.259,0-3.117l3.613-3.629c0.795-0.799,2.314-0.799,3.111,0.001l0.457,0.458
			c0.855,0.861,0.855,2.259,0,3.117l-3.615,3.628c-0.414,0.416-0.967,0.646-1.555,0.646S41.332,41.288,40.917,40.872z
			 M53.445,48.111c0,0.229-0.049,0.431-0.084,0.563l-0.096,0.353h-9.15l-0.095-0.353c-0.058-0.21-0.083-0.389-0.083-0.563v-0.649
			c0-1.216,0.986-2.204,2.197-2.204h5.111c1.213,0,2.199,0.988,2.199,2.204V48.111z"/>
	</g>
</g>
</svg>
