<?xml version="1.0" encoding="iso-8859-1"?>
<!-- Generator: Adobe Illustrator 14.0.0, SVG Export Plug-In . SVG Version: 6.00 Build 43363)  -->
<!DOCTYPE svg PUBLIC "-//W3C//DTD SVG 1.1//EN" "http://www.w3.org/Graphics/SVG/1.1/DTD/svg11.dtd">
<svg version="1.1" id="icon-m-organizer-note-reminder-layer"
	 xmlns="http://www.w3.org/2000/svg" xmlns:xlink="http://www.w3.org/1999/xlink" x="0px" y="0px" width="65px" height="64px"
	 viewBox="0 0 65 64" style="enable-background:new 0 0 65 64;" xml:space="preserve">
<g id="icon-m-organizer-note-reminder">
	<rect x="1" style="fill:none;" width="64" height="64"/>
	<path style="fill:#333333;" d="M23,46c0-8.314,4.251-15.652,10.691-19.961H7.967v-4.856h33.066v1.568
		C42.941,22.262,44.941,22,47,22c0.336,0,0.668,0.012,1,0.025V2.186C48,0.983,47.016,0,45.814,0h-4.189v2.403
		c0,1.277-1.045,2.322-2.322,2.322h-1.355c-1.277,0-2.322-1.045-2.322-2.322V0H27.5v2.403c0,1.277-1.045,2.322-2.322,2.322h-1.355
		c-1.277,0-2.322-1.045-2.322-2.322V0h-8.125v2.403c0,1.277-1.045,2.322-2.322,2.322H9.697c-1.277,0-2.322-1.045-2.322-2.322V0
		H3.186C1.983,0,1,0.983,1,2.186v45.907c0,1.203,0.983,2.187,2.186,2.187H23.39C23.138,48.89,23,47.461,23,46z M7.967,12.039h33.066
		v4.856H7.967V12.039z M7.967,30.183h16v4.856h-16V30.183z"/>
	<path style="fill:#333333;" d="M47.537,27.398c-9.939,0-17.999,8.059-17.999,18c0,9.94,8.06,18,17.999,18c9.941,0,18-8.06,18-18
		C65.537,35.457,57.479,27.398,47.537,27.398z M43.838,54.867l-0.631-0.625c0.225-1.899,0.686-2.799-1.779-5.242
		c0,0-1.465-1.454-1.572-1.563c-1.744-1.735-2.223-4.27-1.48-6.55c0.313-1.069,0.891-2.09,1.746-2.944
		c1.475-1.475,3.432-2.142,5.303-1.994c1.549,0.066,3.049,0.666,4.201,1.81c0.107,0.108,1.57,1.562,1.57,1.562
		c2.633,2.613,3.365,1.992,5.277,1.77l0.564,0.563L43.838,54.867z M49.484,53.535c-0.971-0.244,0-1,0-1l5-5c0,0,0.686-0.949,1,0
		C56.484,50.535,53.484,54.535,49.484,53.535z"/>
</g>
</svg>
