<?xml version="1.0" encoding="iso-8859-1"?>
<!-- Generator: Adobe Illustrator 14.0.0, SVG Export Plug-In . SVG Version: 6.00 Build 43363)  -->
<!DOCTYPE svg PUBLIC "-//W3C//DTD SVG 1.1//EN" "http://www.w3.org/Graphics/SVG/1.1/DTD/svg11.dtd">
<svg version="1.1" id="icon-m-common-share-layer" xmlns="http://www.w3.org/2000/svg" xmlns:xlink="http://www.w3.org/1999/xlink"
	 x="0px" y="0px" width="64px" height="64px" viewBox="0 0 64 64" style="enable-background:new 0 0 64 64;" xml:space="preserve">
<symbol  id="background_x5F_64" viewBox="-32 -32 64 64">
	<polygon style="fill:none;" points="32,-32 -32,-32 -32,32 32,32 	"/>
</symbol>
<g id="icon-m-common-share">
	
		<use xlink:href="#background_x5F_64"  width="64" height="64" id="background_x5F_64_466_" x="-32" y="-32" transform="matrix(1 0 0 -1 32 32)" style="overflow:visible;"/>
	<path id="Share_2_" style="fill:#333333;" d="M52.668,38.188c-3.721,0-7.014,1.756-9.08,4.455L22.603,33.23
		c0.034-0.342,0.055-0.686,0.055-1.037c0-0.393-0.023-0.781-0.066-1.164l21.184-9.428c2.074,2.561,5.283,4.211,8.893,4.211
		C58.926,25.812,64,20.875,64,14.787S58.926,3.766,52.668,3.766c-6.256,0-11.326,4.934-11.326,11.021
		c0,0.691,0.074,1.365,0.197,2.021l-20.797,9.254c-2.033-2.949-5.488-4.893-9.416-4.893C5.07,21.17,0,26.105,0,32.193
		s5.07,11.023,11.326,11.023c3.969,0,7.457-1.988,9.479-4.992l20.688,9.271c-0.092,0.561-0.15,1.131-0.15,1.717
		c0,6.09,5.07,11.023,11.326,11.023C58.926,60.236,64,55.303,64,49.213S58.926,38.188,52.668,38.188z"/>
</g>
</svg>
