<?xml version="1.0" encoding="iso-8859-1"?>
<!-- Generator: Adobe Illustrator 14.0.0, SVG Export Plug-In . SVG Version: 6.00 Build 43363)  -->
<!DOCTYPE svg PUBLIC "-//W3C//DTD SVG 1.1//EN" "http://www.w3.org/Graphics/SVG/1.1/DTD/svg11.dtd">
<svg version="1.1" id="icon-m-music-video-audio-settings-layer"
	 xmlns="http://www.w3.org/2000/svg" xmlns:xlink="http://www.w3.org/1999/xlink" x="0px" y="0px" width="64px" height="64px"
	 viewBox="0 0 64 64" style="enable-background:new 0 0 64 64;" xml:space="preserve">
<g id="icon-m-music-video-audio-settings">
	<rect style="fill:none;" width="64" height="64"/>
	<path style="fill:#333333;" d="M46,27.998c-9.941,0-18,8.06-18,18C28,55.941,36.059,64,46,64s18-8.059,18-18.002
		C64,36.058,55.941,27.998,46,27.998z M57.52,55.083l-2.445,2.448c-0.314,0.312-0.729,0.482-1.168,0.482
		c-0.441,0-0.855-0.172-1.166-0.481l-9.275-9.282c-0.938,0.465-1.863,0.699-2.758,0.699c-4.328,0-6.707-5.475-6.707-7.288
		c0-1.252,0-2.546,0.887-2.546c0.229,0,0.453,0.112,0.682,0.341l4.191,4.201c1.791-0.575,3.148-1.94,3.863-3.882l-4.16-4.165
		c-0.43-0.432-0.365-0.806-0.289-0.989c0.178-0.428,0.699-0.637,1.594-0.637c1.156,0,2.967,0.375,4.41,1.211
		c2.117,1.225,3.375,2.736,3.736,4.488c0.326,1.58-0.182,3.028-0.629,3.82l9.234,9.241C58.16,53.39,58.158,54.438,57.52,55.083z"/>
	<path style="fill:#333333;" d="M37.682,17.127v7.714c1.379-0.551,2.822-0.968,4.318-1.237V0.626c0-0.549-0.395-0.785-0.871-0.511
		L14.754,14.687c-0.473,0.259-0.858,0.924-0.858,1.483v26.508c-2.422-0.87-5.543-0.585-8.408,1.016
		c-4.665,2.58-6.728,7.444-4.723,11.076c2.015,3.639,7.249,4.476,11.905,1.896c3.08-1.709,5.117-4.423,5.484-7.122
		c0.022-0.296,0.053-0.448,0.053-0.669V27.889c0-0.422,0.393-1.207,0.867-1.476l17.738-9.8
		C37.287,16.352,37.682,16.584,37.682,17.127z"/>
</g>
</svg>
