<?xml version="1.0" encoding="iso-8859-1"?>
<!-- Generator: Adobe Illustrator 14.0.0, SVG Export Plug-In . SVG Version: 6.00 Build 43363)  -->
<!DOCTYPE svg PUBLIC "-//W3C//DTD SVG 1.1//EN" "http://www.w3.org/Graphics/SVG/1.1/DTD/svg11.dtd">
<svg version="1.1" id="icon-m-music-video-all-songs-layer"
	 xmlns="http://www.w3.org/2000/svg" xmlns:xlink="http://www.w3.org/1999/xlink" x="0px" y="0px" width="64px" height="65px"
	 viewBox="0 0 64 65" style="enable-background:new 0 0 64 65;" xml:space="preserve">
<g id="icon-m-music-video-all-songs">
	<rect x="1" style="fill:none;" width="64" height="64.001"/>
	<path style="fill:#333333;" d="M42.464,18.846v3.039l4.753-2.626V0.688c0-0.604-0.434-0.864-0.96-0.563L17.235,16.161
		c-0.521,0.283-0.943,1.015-0.943,1.631v29.172c-2.667-0.958-6.1-0.645-9.253,1.118c-5.133,2.838-7.403,8.191-5.196,12.187
		c2.216,4.004,7.976,4.924,13.1,2.088c3.389-1.881,5.631-4.87,6.035-7.836c0.024-0.327,0.059-0.496,0.059-0.738V30.688
		c0-0.466,0.432-1.329,0.954-1.623L41.508,18.28C42.031,17.992,42.464,18.248,42.464,18.846z"/>
	<path style="fill:#333333;" d="M64.289,16.681l-21.5,11.88c-0.386,0.21-0.699,0.752-0.699,1.209v21.609
		c-1.975-0.709-4.519-0.478-6.855,0.828c-3.803,2.103-5.484,6.068-3.849,9.028c1.642,2.967,5.909,3.648,9.705,1.547
		c2.512-1.394,4.172-3.607,4.471-5.806c0.019-0.241,0.043-0.366,0.043-0.546V39.322c0-0.345,0.32-0.984,0.707-1.203l14.461-7.989
		c0.387-0.213,0.707-0.023,0.707,0.419v12.536c-1.961-0.708-4.48-0.473-6.809,0.823c-3.801,2.12-5.491,6.082-3.847,9.046
		c1.64,2.96,5.912,3.639,9.702,1.534c2.512-1.388,4.121-3.606,4.432-5.808C64.984,48.42,65,48.314,65,48.137v-4.429v-26.61
		C65,16.65,64.679,16.457,64.289,16.681z"/>
</g>
</svg>
