<?xml version="1.0" encoding="iso-8859-1"?>
<!-- Generator: Adobe Illustrator 14.0.0, SVG Export Plug-In . SVG Version: 6.00 Build 43363)  -->
<!DOCTYPE svg PUBLIC "-//W3C//DTD SVG 1.1//EN" "http://www.w3.org/Graphics/SVG/1.1/DTD/svg11.dtd">
<svg version="1.1" id="icon-m-content-podcast-video-layer"
	 xmlns="http://www.w3.org/2000/svg" xmlns:xlink="http://www.w3.org/1999/xlink" x="0px" y="0px" width="65px" height="64px"
	 viewBox="0 0 65 64" style="enable-background:new 0 0 65 64;" xml:space="preserve">
<g id="icon-m-content-podcast-video">
	<rect x="1" style="fill:none;" width="64.001" height="64"/>
	<path style="fill:#333333;" d="M32.987,54.793c6.895,0,12.483-5.59,12.483-12.482c0-6.896-5.588-12.484-12.483-12.484
		s-12.484,5.588-12.484,12.484C20.503,49.203,26.092,54.793,32.987,54.793z M32.987,37.506c2.651,0,4.805,2.154,4.805,4.803
		s-2.154,4.805-4.805,4.805c-2.65,0-4.805-2.156-4.805-4.805S30.337,37.506,32.987,37.506z"/>
	<path style="fill:#333333;" d="M42.71,56.219c-2.709,2.045-6.076,3.26-9.723,3.26c-3.647,0-7.016-1.215-9.723-3.26
		c0,0-0.001,0-0.001,0.002l-4.244,6.934h27.962l-4.228-6.908C42.738,56.238,42.724,56.227,42.71,56.219z"/>
	<path style="fill:#333333;" d="M14.499,30.77c3.844-6.195,10.683-10.342,18.496-10.342c7.728,0,14.508,4.055,18.374,10.141
		l0.154,0.252c0.575,0.936,1.807,1.229,2.744,0.655l1.15-0.675c0.935-0.574,1.23-1.81,0.656-2.744l-0.244-0.396l-0.004,0.002
		c-4.818-7.533-13.244-12.548-22.831-12.548c-9.534,0-17.915,4.958-22.748,12.422l-0.004-0.003l-0.262,0.386
		c-0.62,0.905-0.385,2.151,0.52,2.772l1.118,0.73c0.907,0.617,2.152,0.385,2.772-0.521"/>
	<path style="fill:#333333;" d="M64.58,16.742l-0.163-0.21l0.002-0.001c-0.014-0.016-0.025-0.029-0.037-0.045l-0.088-0.113
		l-0.004,0.002c-7.296-9.32-18.584-15.36-31.272-15.528V0.846c-0.006,0-0.012,0-0.018,0c-0.005,0-0.011,0-0.017,0v0.001
		C20.295,1.015,9.006,7.055,1.71,16.375l-0.003-0.002l-0.088,0.113c-0.012,0.016-0.024,0.029-0.037,0.045l0.001,0.001l-0.163,0.21
		c-0.675,0.863-0.521,2.123,0.344,2.799l1.069,0.801c0.866,0.674,2.124,0.521,2.799-0.345l0.29-0.358
		C12.245,11.564,22.011,6.323,33,6.162c10.989,0.161,20.755,5.402,27.078,13.477l0.29,0.358c0.676,0.866,1.934,1.019,2.799,0.345
		l1.069-0.801C65.101,18.865,65.255,17.605,64.58,16.742z"/>
</g>
</svg>
