<?xml version="1.0" encoding="iso-8859-1"?>
<!-- Generator: Adobe Illustrator 14.0.0, SVG Export Plug-In . SVG Version: 6.00 Build 43363)  -->
<!DOCTYPE svg PUBLIC "-//W3C//DTD SVG 1.1//EN" "http://www.w3.org/Graphics/SVG/1.1/DTD/svg11.dtd">
<svg version="1.1" id="icon-m-camera-video-layer" xmlns="http://www.w3.org/2000/svg" xmlns:xlink="http://www.w3.org/1999/xlink"
	 x="0px" y="0px" width="64px" height="64px" viewBox="0 0 64 64" style="enable-background:new 0 0 64 64;" xml:space="preserve">
<g id="icon-m-camera-video">
	<rect style="fill:none;" width="64" height="64"/>
	<path style="fill:#333333;" d="M61,19l-8,2c0,0-1,0-1,2v1h-7v-3c0-0.928-1.073-2-2-2H11c-1,0-1,1-1,1l-8-2c0,0-1,0.073-1,1v9
		c0,1,1,1,1,1l8-2v19c0,2,3,1.9,3,1.9h29c2,0,3-1.9,3-1.9V33.9h7V35c0,2,2,3,2,3l7,1c0,0,2,0,2-1V20C63,19,61,19,61,19z"/>
</g>
</svg>
