<?xml version="1.0" encoding="iso-8859-1"?>
<!-- Generator: Adobe Illustrator 14.0.0, SVG Export Plug-In . SVG Version: 6.00 Build 43363)  -->
<!DOCTYPE svg PUBLIC "-//W3C//DTD SVG 1.1//EN" "http://www.w3.org/Graphics/SVG/1.1/DTD/svg11.dtd">
<svg version="1.1" id="icon-m-toolbar-camera-layer"
	 xmlns="http://www.w3.org/2000/svg" xmlns:xlink="http://www.w3.org/1999/xlink" x="0px" y="0px" width="64px" height="64px"
	 viewBox="0 0 64 64" style="enable-background:new 0 0 64 64;" xml:space="preserve">
<g id="icon-m-toolbar-camera">
	<rect style="fill:none;" width="64" height="64"/>
	<path style="fill:#FFFFFF;" d="M60.982,9.732h-58c-2,0-2,2-2,2v41c0,0,0,2,2,2h58c2,0,2-2,2-2v-41
		C62.982,9.732,60.982,9.732,60.982,9.732z M32,46.98c-7.94,0-14.38-6.459-14.38-14.404c0-7.953,6.44-14.4,14.38-14.4
		c7.945,0,14.379,6.447,14.379,14.4C46.379,40.523,39.945,46.98,32,46.98z M59.982,19.732h-12v-6h12V19.732z"/>
</g>
</svg>
