<?xml version="1.0" encoding="iso-8859-1"?>
<!-- Generator: Adobe Illustrator 14.0.0, SVG Export Plug-In . SVG Version: 6.00 Build 43363)  -->
<!DOCTYPE svg PUBLIC "-//W3C//DTD SVG 1.1//EN" "http://www.w3.org/Graphics/SVG/1.1/DTD/svg11.dtd">
<svg version="1.1" id="icon-m-content-description-layer"
	 xmlns="http://www.w3.org/2000/svg" xmlns:xlink="http://www.w3.org/1999/xlink" x="0px" y="0px" width="64px" height="64px"
	 viewBox="0 0 64 64" style="enable-background:new 0 0 64 64;" xml:space="preserve">
<g id="icon-m-content-description">
	<rect style="fill:none;" width="64" height="64"/>
	<path style="fill:#333333;" d="M31.998,0C14.329,0,0,14.321,0,31.997C0,49.67,14.329,64,31.998,64C49.676,64,64,49.67,64,31.997
		C64,14.321,49.676,0,31.998,0z M34.398,10.12c2.992,0,5.422,2.385,5.422,5.326c0,2.942-2.43,5.326-5.422,5.326
		c-2.997,0-5.424-2.384-5.424-5.326C28.974,12.505,31.401,10.12,34.398,10.12z M39.82,49.391c0,0-3.877,4.775-9.425,4
		c-2.385-0.223-4.362-1.158-5.303-2.463c-1.083-1.227-2.392-4.332,0.43-11.596c0,0,1.256-2.717,1.698-3.766
		c-0.005-0.002-0.008-0.002-0.012-0.002c0.22-0.52,0.341-1.088,0.341-1.684c0-2.388-1.938-4.322-4.328-4.322
		c-0.09,0-0.179,0.003-0.269,0.009c1.058-1.736,3.364-3.288,6.266-3.998c4.438-1.087,8.584,0.204,9.264,2.88
		c0.158,0.629,0.111,1.279-0.111,1.92c-0.592,2.247-2.74,8.328-2.74,8.328L35.6,38.754c-0.439,1.209-2.445,6.896-1.979,8.883
		c0.016,0.117,0.059,0.23,0.123,0.34c0.035,0.062,0.074,0.117,0.117,0.164c0.531,0.627,1.846,1.072,3.385,1.072
		c1.402,0,2.615-0.369,3.223-0.908C40.568,48.479,40.467,48.801,39.82,49.391z"/>
</g>
</svg>
