<?xml version="1.0" encoding="iso-8859-1"?>
<!-- Generator: Adobe Illustrator 13.0.2, SVG Export Plug-In . SVG Version: 6.00 Build 14948)  -->
<!DOCTYPE svg PUBLIC "-//W3C//DTD SVG 1.1//EN" "http://www.w3.org/Graphics/SVG/1.1/DTD/svg11.dtd">
<svg version="1.1" xmlns="http://www.w3.org/2000/svg" xmlns:xlink="http://www.w3.org/1999/xlink" x="0px" y="0px" width="64px"
	 height="64px" viewBox="0 0 64 64" style="enable-background:new 0 0 64 64;" xml:space="preserve">
	<g id="icon-m-camera-video-record">
		<rect style="fill:none;" width="64" height="64"/>
		<path style="fill:#EB252D;" d="M17.518,25.113h-1.445v5.289h1.205c0.814,0,1.383-0.203,1.743-0.619
			c0.392-0.453,0.588-1.207,0.588-2.242c0-0.877-0.171-1.518-0.515-1.9C18.779,25.293,18.245,25.113,17.518,25.113z"/>
		<path style="fill:#EB252D;" d="M31.996,0C14.354,0,0,14.355,0,32s14.354,31.998,31.996,31.998C49.644,63.998,64,49.645,64,32
			S49.644,0,31.996,0z M20.629,42.785l-4.121-8.465H16.07v8.465h-4.82v-21.57h6.508c2.225,0,3.921,0.529,5.039,1.574
			c1.14,1.066,1.713,2.666,1.713,4.754c0,1.518-0.369,2.838-1.102,3.924c-0.541,0.807-1.265,1.443-2.163,1.902l4.918,9.416H20.629z
			 M39.543,42.777H27.898V21.215h11.566v3.967h-6.748v4.037h5.486v3.967h-5.486v5.627h6.826V42.777z M52.748,25.766l-1.305-0.42
			c-0.798-0.258-1.617-0.387-2.439-0.387c-1.124,0-1.916,0.453-2.479,1.43c-0.654,1.127-0.982,2.904-0.982,5.289
			c0,2.607,0.346,4.557,1.023,5.791c0.59,1.07,1.408,1.57,2.57,1.57c0.744,0,1.527-0.123,2.322-0.363l1.289-0.393v4.053
			l-0.734,0.203c-1.098,0.303-2.209,0.455-3.307,0.455c-2.699,0-4.775-0.959-6.172-2.848c-1.338-1.824-1.986-4.559-1.986-8.363
			c0-3.404,0.68-6.057,2.014-7.883c1.406-1.922,3.486-2.896,6.189-2.896c1.195,0,2.297,0.146,3.278,0.434l0.718,0.211V25.766z"/>
	</g>
</svg>
