<?xml version="1.0" encoding="iso-8859-1"?>
<!-- Generator: Adobe Illustrator 14.0.0, SVG Export Plug-In . SVG Version: 6.00 Build 43363)  -->
<!DOCTYPE svg PUBLIC "-//W3C//DTD SVG 1.1//EN" "http://www.w3.org/Graphics/SVG/1.1/DTD/svg11.dtd">
<svg version="1.1" id="icon-m-music-video-dolby-layer"
	 xmlns="http://www.w3.org/2000/svg" xmlns:xlink="http://www.w3.org/1999/xlink" x="0px" y="0px" width="64px" height="64px"
	 viewBox="0 0 64 64" style="enable-background:new 0 0 64 64;" xml:space="preserve">
<g id="icon-m-music-video-dolby">
	<rect x="0" style="fill:none;" width="64" height="64"/>
	<path style="fill:#333333;" d="M59.366,34.727l-0.479-0.062c1.543-21.666-19.97-24.225-26.751-24.352h-0.004
		c-0.017-0.002-0.034-0.002-0.052-0.002v0.004c-6.665,0.252-28.212,2.741-26.7,24.314l-0.744,0.098c0,0-5.665,1.754-4.47,8.686
		l0.09,0.68c0.628,7.006,6.553,7.244,6.553,7.244l4.909-0.643l-1.043-7.965l-0.09-0.68l-1.042-7.965l-2.106,0.275
		C7.452,31.467,8.645,16,32.125,15.572c23.61,0.424,24.701,16.037,24.707,18.822l-2.373-0.311l-1.042,7.965l-0.089,0.68
		l-1.042,7.965l4.904,0.643c0,0,5.93-0.238,6.557-7.244l0.088-0.68C65.03,36.48,59.366,34.727,59.366,34.727z"/>
	<path style="fill:#333333;" d="M14.735,53.689h16.533V31.822H14.735V53.689z M17.773,34.295h4.31c0,0,6.159-0.252,6.159,8.177
		v0.569c0,8.422-6.159,8.17-6.159,8.17h-4.31V34.295z"/>
	<path style="fill:#333333;" d="M32.735,53.689h16.532V31.822H32.735V53.689z M35.759,42.472c0-8.429,6.159-8.177,6.159-8.177h4.309
		v16.916h-4.309c0,0-6.159,0.252-6.159-8.17V42.472z"/>
</g>
</svg>
