<?xml version="1.0" encoding="iso-8859-1"?>
<!-- Generator: Adobe Illustrator 14.0.0, SVG Export Plug-In . SVG Version: 6.00 Build 43363)  -->
<!DOCTYPE svg PUBLIC "-//W3C//DTD SVG 1.1//EN" "http://www.w3.org/Graphics/SVG/1.1/DTD/svg11.dtd">
<svg version="1.1" id="icon-m-seeing-touching-layer"
	 xmlns="http://www.w3.org/2000/svg" xmlns:xlink="http://www.w3.org/1999/xlink" x="0px" y="0px" width="64px" height="64px"
	 viewBox="0 0 64 64" style="enable-background:new 0 0 64 64;" xml:space="preserve">
<g id="icon-m-seeing-touching">
	<rect style="fill:none;" width="64" height="64"/>
	<path style="fill:#333333;" d="M39.61,34.908l-1.289,0.35c-1.309,0.354-2.049,1.873-1.639,3.387l1.248,4.607L34.2,44.26
		l-2.748-10.156c-0.406-1.506-1.812-2.451-3.123-2.096l-1.289,0.348c-1.311,0.355-2.049,1.879-1.643,3.387l2.008,7.418l-3.918,1.061
		l-3.238-11.973c-0.41-1.512-1.816-2.451-3.125-2.098l-1.229,0.332c-1.309,0.355-2.045,1.875-1.637,3.385l2.496,9.229l-4.176,1.129
		L6.423,21.463c-0.408-1.512-1.812-2.455-3.123-2.1l-1.543,0.418c-1.311,0.354-2.053,1.877-1.643,3.389L11.171,64l36.229-9.801
		l-4.6-17.211C42.39,35.477,40.921,34.555,39.61,34.908z"/>
	<path style="fill:#333333;" d="M63.995,13.143c0,0-0.256-0.264-0.561-0.592C63.435,12.551,51.7,0,38.919,0
		S14.403,12.551,14.403,12.551c-0.303,0.328-0.555,0.592-0.555,0.592l-0.01,0.008c0.002,0.004,0.002,0.02,0.002,0.02
		c-0.002,0.004-0.002,0.018-0.002,0.018s0.262,0.266,0.564,0.592c0,0,11.734,12.555,24.516,12.555s24.516-12.555,24.516-12.555
		c0.305-0.326,0.559-0.592,0.559-0.592c0.004,0,0.006-0.002,0.004-0.006v-0.027C63.999,13.145,63.997,13.143,63.995,13.143z
		 M57.728,13.174c0,0,0,0.008-0.002,0.008c0,0-0.191,0.199-0.42,0.443c0,0-8.799,9.416-18.387,9.416
		c-9.584,0-18.389-9.416-18.389-9.416c-0.227-0.244-0.412-0.443-0.412-0.443s-0.01-0.008-0.006-0.01c0,0,0-0.016-0.004-0.018V13.15
		c0,0,0.195-0.201,0.422-0.447c0,0,8.805-9.412,18.389-9.412c9.588,0,18.387,9.412,18.387,9.412
		c0.229,0.246,0.416,0.447,0.416,0.447c0.006,0,0.006,0,0.006,0V13.174z"/>
	<path style="fill:#333333;" d="M38.919,5.176c-4.416,0-8,3.58-8,7.99s3.584,7.986,8,7.986c4.414,0,8-3.576,8-7.986
		S43.333,5.176,38.919,5.176z M38.919,17.666c-2.484,0-4.5-2.014-4.5-4.5s2.016-4.5,4.5-4.5s4.5,2.014,4.5,4.5
		S41.403,17.666,38.919,17.666z"/>
</g>
</svg>
