<?xml version="1.0" encoding="iso-8859-1"?>
<!-- Generator: Adobe Illustrator 13.0.2, SVG Export Plug-In . SVG Version: 6.00 Build 14948)  -->
<!DOCTYPE svg PUBLIC "-//W3C//DTD SVG 1.1//EN" "http://www.w3.org/Graphics/SVG/1.1/DTD/svg11.dtd">
<svg version="1.1" xmlns="http://www.w3.org/2000/svg" xmlns:xlink="http://www.w3.org/1999/xlink" x="0px" y="0px" width="64px"
	 height="64px" viewBox="0 0 64 64" style="enable-background:new 0 0 64 64;" xml:space="preserve">
	<g id="icon-m-telephony-call-split">
		<rect style="fill:none;" width="64" height="64"/>
		<path style="fill:#333333;" d="M32.035,19.822c2.746-1.287,4.654-4.078,4.654-7.314c0-4.443-3.619-8.066-8.064-8.066
			c-4.744,0-8.617,4.199-8.006,9.049c-1.428-2.266-3.959-3.773-6.828-3.773c-4.439,0-8.061,3.619-8.061,8.072
			c0,3.201,1.875,5.973,4.574,7.275C5.869,26.17,1.85,29.523,1.486,35.539v5.666c0,1.818,2.186,5.139,12.254,5.139
			c9.781,0,12.355-2.855,12.355-5.307h0.01c10.611,0.367,14.83-2.029,14.83-5.109v-5.66C40.93,24.586,36.791,21.012,32.035,19.822z
			 M28.623,7.408c2.811,0,5.096,2.289,5.096,5.1c0,2.816-2.285,5.105-5.096,5.105c-2.818,0-5.094-2.289-5.094-5.105
			C23.529,9.697,25.805,7.408,28.623,7.408z M8.691,17.789c0-2.816,2.283-5.1,5.098-5.1c2.816,0,5.098,2.287,5.098,5.1
			c0,2.811-2.281,5.104-5.098,5.104C10.975,22.893,8.691,20.6,8.691,17.789z M22.705,40.635c-0.492,3.098-16.525,3.461-17.83,0
			v-5.102c0.643-10.711,17.83-9.643,17.83,0V40.635z M37.607,35.363c0,1.869-7.275,2.846-10.953,2.447
			c0-4.637,0.391-8.176-5.641-11.482c4.367-6.426,16.594-4.035,16.594,3.936V35.363z"/>
		<path style="fill:#333333;" d="M52.613,38.988c3.123,0,5.658-2.539,5.658-5.67c0-3.129-2.535-5.672-5.658-5.672
			c-3.131,0-5.668,2.543-5.668,5.672C46.945,36.443,49.482,38.988,52.613,38.988z"/>
		<path style="fill:#333333;" d="M42.701,51.064v5.67c1.467,4.008,19.473,3.518,19.816,0v-5.67
			C62.518,39.709,42.869,39.658,42.701,51.064z"/>
	</g>
</svg>
