<?xml version="1.0" encoding="iso-8859-1"?>
<!-- Generator: Adobe Illustrator 14.0.0, SVG Export Plug-In . SVG Version: 6.00 Build 43363)  -->
<!DOCTYPE svg PUBLIC "-//W3C//DTD SVG 1.1//EN" "http://www.w3.org/Graphics/SVG/1.1/DTD/svg11.dtd">
<svg version="1.1" id="icon-m-common-slideshow-layer"
	 xmlns="http://www.w3.org/2000/svg" xmlns:xlink="http://www.w3.org/1999/xlink" x="0px" y="0px" width="64px" height="64px"
	 viewBox="0 0 64 64" style="enable-background:new 0 0 64 64;" xml:space="preserve">
<g id="icon-m-common-slideshow">
	<rect style="fill:none;" width="64" height="64"/>
	<g>
		<g>
			<path style="fill:#333333;" d="M61.693,0.82C60.69,0.369,58.969,0,57.869,0H6.129c-1.1,0-2.821,0.369-3.824,0.82L0.822,2.306
				C0.37,3.309,0,5.029,0,6.129v51.742c0,1.1,0.37,2.82,0.822,3.823l1.483,1.485C3.308,63.631,5.029,64,6.129,64h51.74
				c1.1,0,2.821-0.369,3.824-0.82l1.485-1.485C63.631,60.691,64,58.971,64,57.871V6.129c0-1.1-0.369-2.821-0.821-3.824L61.693,0.82z
				 M55.742,45.584c0,1.1-0.9,2-2,2H10.258c-1.1,0-2-0.9-2-2v-28c0-1.1,0.9-2,2-2h43.484c1.1,0,2,0.9,2,2V45.584z"/>
		</g>
	</g>
	<g>
		<path style="fill:#333333;" d="M26.438,22.168c-0.95-0.555-1.728-0.107-1.728,0.992v17.678c0,1.1,0.777,1.547,1.728,0.992
			l15.126-8.822c0.95-0.555,0.95-1.461,0-2.016L26.438,22.168z"/>
	</g>
</g>
</svg>
