<?xml version="1.0" encoding="iso-8859-1"?>
<!-- Generator: Adobe Illustrator 13.0.2, SVG Export Plug-In . SVG Version: 6.00 Build 14948)  -->
<!DOCTYPE svg PUBLIC "-//W3C//DTD SVG 1.1//EN" "http://www.w3.org/Graphics/SVG/1.1/DTD/svg11.dtd">
<svg version="1.1" xmlns="http://www.w3.org/2000/svg" xmlns:xlink="http://www.w3.org/1999/xlink" x="0px" y="0px" width="64px"
	 height="53.678px" viewBox="0 0 64 53.678" style="enable-background:new 0 0 64 53.678;" xml:space="preserve">
	<g id="icon-m-content-image">
		<path style="fill:#333333;" d="M38.752,20.515c0.869,0,1.658-0.338,2.263-0.868c0.808,1.148,1.957,1.873,3.229,1.873
			c1.275,0,2.42-0.725,3.236-1.873c0.602,0.53,1.386,0.868,2.255,0.868c1.903,0,3.438-1.55,3.438-3.456
			c0-1.91-1.535-3.459-3.438-3.459c-0.438,0-0.856,0.086-1.237,0.246c-0.557-2.451-2.246-4.233-4.254-4.233
			c-2.001,0-3.697,1.782-4.251,4.233c-0.382-0.16-0.802-0.246-1.241-0.246c-1.895,0-3.439,1.549-3.439,3.459
			C35.313,18.965,36.857,20.515,38.752,20.515"/>
		<path style="fill:#333333;" d="M36.282,33.824C31.159,21.978,21.102,7.345,11.508,43.33h41.395
			C52.902,43.33,44.818,14.938,36.282,33.824"/>
		<path style="fill:#333333;" d="M0,53.678h64V0H0V53.678z M5.645,5.75H58.35v42.178H5.645V5.75z"/>
	</g>
</svg>
