<?xml version="1.0" encoding="iso-8859-1"?>
<!-- Generator: Adobe Illustrator 14.0.0, SVG Export Plug-In . SVG Version: 6.00 Build 43363)  -->
<!DOCTYPE svg PUBLIC "-//W3C//DTD SVG 1.1//EN" "http://www.w3.org/Graphics/SVG/1.1/DTD/svg11.dtd">
<svg version="1.1" id="icon-m-camera-scene-sports-layer"
	 xmlns="http://www.w3.org/2000/svg" xmlns:xlink="http://www.w3.org/1999/xlink" x="0px" y="0px" width="64px" height="64px"
	 viewBox="0 0 64 64" style="enable-background:new 0 0 64 64;" xml:space="preserve">
<symbol  id="background_x5F_64_3" viewBox="-32 -32 64 64">
	<polygon style="fill:none;" points="32,-32 -32,-32 -32,32 32,32 	"/>
</symbol>
<g id="icon-m-camera-scene-sports">
	
		<use xlink:href="#background_x5F_64_3"  width="64" height="64" id="background_x5F_64_1_" x="-32" y="-32" transform="matrix(1 0 0 -1 32 32)" style="overflow:visible;"/>
	<path style="fill:#333333;" d="M57.889,34.86h-3.014c-1.65,0-3.24-1.316-3.533-2.929l-0.527-2.879
		c-0.293-1.612-1.49-3.876-2.664-5.03l-8.043-7.914c-1.171-1.154-3.451-2.391-5.059-2.746l-4.112-0.911
		c-1.612-0.36-3.909,0.271-5.108,1.396l-5.293,4.955c-1.199,1.125-1.321,2.97-0.272,4.103c1.042,1.126,2.93,1.177,4.181,0.105
		l3.204-2.74c1.25-1.07,2.707-1.451,3.222-0.839c0.52,0.606,0.026,2.075-1.117,3.257l-7.414,7.697
		c-1.138,1.193-2.234,3.486-2.432,5.119L19.44,39.37c-0.201,1.628-1.429,3.778-2.734,4.78L4.031,53.858
		c-1.301,1-1.673,2.965-0.814,4.365l0.823,1.346c0.863,1.399,2.652,1.768,3.989,0.801l15.635-11.227
		c1.339-0.957,2.81-1.312,3.28-0.793c0.466,0.521-0.207,1.785-1.492,2.801l-3.793,3.026c-1.292,1.024-1.498,2.909-0.463,4.185
		l0.749,0.924c1.042,1.278,2.958,1.508,4.259,0.513l12.957-9.853c1.301-0.998,1.521-2.844,0.459-4.105l-3.635-4.367
		c-1.051-1.259-0.959-3.242,0.207-4.392l6.148-6.116c1.166-1.158,2.406-0.791,2.762,0.805l1.266,5.765
		c0.354,1.599,1.99,2.909,3.641,2.909h7.881c1.65,0,3-1.254,3-2.793C60.889,36.116,59.539,34.86,57.889,34.86z"/>
	<ellipse style="fill:#333333;" cx="51.951" cy="10.939" rx="8.463" ry="8.404"/>
</g>
</svg>
