<?xml version="1.0" encoding="iso-8859-1"?>
<!-- Generator: Adobe Illustrator 14.0.0, SVG Export Plug-In . SVG Version: 6.00 Build 43363)  -->
<!DOCTYPE svg PUBLIC "-//W3C//DTD SVG 1.1//EN" "http://www.w3.org/Graphics/SVG/1.1/DTD/svg11.dtd">
<svg version="1.1" id="icon-m-content-music-layer" xmlns="http://www.w3.org/2000/svg" xmlns:xlink="http://www.w3.org/1999/xlink"
	 x="0px" y="0px" width="64px" height="65px" viewBox="0 0 64 65" style="enable-background:new 0 0 64 65;" xml:space="preserve">
<g id="icon-m-content-music">
	<rect y="0.001" style="fill:none;" width="64" height="63.999"/>
	<path style="fill:#333333;" d="M50.496,35.783c-2.665-0.979-6.107-0.664-9.287,1.096c-5.154,2.861-7.448,8.207-5.217,12.211
		c2.222,3.994,8.02,4.91,13.16,2.068c3.408-1.871,5.594-4.867,6.014-7.838c0.039-0.354,0.06-0.494,0.06-0.734v-5.979V0.688
		c0-0.604-0.435-0.863-0.965-0.562L25.092,16.161c-0.525,0.283-0.947,1.016-0.947,1.631v29.169
		c-2.681-0.957-6.133-0.645-9.303,1.119c-5.158,2.838-7.439,8.189-5.221,12.188c2.225,4.004,8.016,4.924,13.166,2.086
		c3.407-1.879,5.658-4.867,6.066-7.836c0.023-0.326,0.057-0.494,0.057-0.736V26.56c0-0.465,0.434-1.328,0.959-1.623l19.617-10.785
		c0.525-0.287,0.959-0.033,0.959,0.566v21.528"/>
</g>
</svg>
