<?xml version="1.0" encoding="iso-8859-1"?>
<!-- Generator: Adobe Illustrator 13.0.2, SVG Export Plug-In . SVG Version: 6.00 Build 14948)  -->
<!DOCTYPE svg PUBLIC "-//W3C//DTD SVG 1.1//EN" "http://www.w3.org/Graphics/SVG/1.1/DTD/svg11.dtd">
<svg version="1.1" xmlns="http://www.w3.org/2000/svg" xmlns:xlink="http://www.w3.org/1999/xlink" x="0px" y="0px" width="64px"
	 height="64px" viewBox="0 0 64 64" style="enable-background:new 0 0 64 64;" xml:space="preserve">
	<g id="icon-m-email-directory-spam">
		<rect style="fill:none;" width="64" height="64"/>
		<path style="fill:#333333;" d="M35.107,42.191h4.854l0.803-4.234h-4.855L35.107,42.191z M55.742,16.6H35.969v-0.018H0.019
			L0.017,52.645c0,4.543,3.716,8.26,8.258,8.26h47.468c4.541,0,8.258-3.717,8.258-8.26V24.857C64,20.314,60.283,16.6,55.742,16.6z
			 M18.301,23.758c2.175,0.002,3.914,1.516,3.919,3.398c0,0-1.289,12.271-1.666,12.918c-0.369,0.654-1.171,1.107-2.253,1.088
			c-0.021,0.002-0.041,0.002-0.063,0.002c-1.05,0-1.822-0.45-2.169-1.098c-0.363-0.645-1.688-12.939-1.688-12.939
			C14.386,25.273,16.126,23.76,18.301,23.758z M18.25,53c-2.362-0.002-4.246-1.918-4.25-4.254c0.004-2.339,1.888-4.255,4.25-4.258
			c2.357,0.005,4.244,1.919,4.25,4.258C22.494,51.082,20.61,52.998,18.25,53z M50.774,37.957h-4.612l-0.805,4.234h3.884
			c0.944,0.002,1.689,0.782,1.69,1.727c-0.001,0.946-0.746,1.727-1.69,1.729h-4.539l-0.895,4.725
			c-0.244,1.285-1.345,2.193-2.596,2.193c-0.17,0-0.342-0.016-0.513-0.051c-1.271-0.256-2.143-1.393-2.141-2.656
			c-0.002-0.175,0.017-0.349,0.05-0.52l0.7-3.691h-4.856l-0.894,4.723c-0.246,1.287-1.348,2.195-2.6,2.195
			c-0.167,0-0.34-0.016-0.512-0.051c-1.272-0.256-2.141-1.393-2.141-2.658c0-0.173,0.018-0.347,0.05-0.518l0.699-3.691H25.1
			c-0.945-0.002-1.689-0.782-1.691-1.729c0.002-0.942,0.746-1.725,1.691-1.727l4.61-0.002l0.802-4.232h-3.88
			c-0.943-0.002-1.688-0.783-1.689-1.729c0.002-0.943,0.746-1.727,1.689-1.729h4.535l0.802-4.229
			c0.243-1.289,1.346-2.197,2.596-2.197c0.17,0,0.343,0.018,0.514,0.053c1.27,0.255,2.14,1.393,2.14,2.658
			c0,0.171-0.016,0.344-0.05,0.521L36.563,34.5h4.854l0.802-4.227c0.243-1.291,1.346-2.199,2.595-2.199
			c0.173,0,0.345,0.018,0.514,0.053c1.271,0.255,2.141,1.393,2.141,2.658c0,0.171-0.017,0.344-0.048,0.521L46.816,34.5h3.958
			c0.943,0.002,1.69,0.783,1.691,1.729C52.465,37.174,51.718,37.955,50.774,37.957z"/>
		<path style="fill:#333333;" d="M35.969,9.289c0-3.406-2.787-6.191-6.192-6.191H6.214c-3.407,0-6.194,2.785-6.194,6.191
			l-0.001,3.145h35.95V9.289z"/>
	</g>
</svg>
