<?xml version="1.0" encoding="iso-8859-1"?>
<!-- Generator: Adobe Illustrator 14.0.0, SVG Export Plug-In . SVG Version: 6.00 Build 43363)  -->
<!DOCTYPE svg PUBLIC "-//W3C//DTD SVG 1.1//EN" "http://www.w3.org/Graphics/SVG/1.1/DTD/svg11.dtd">
<svg version="1.1" id="icon-s-status-45g-layer" xmlns="http://www.w3.org/2000/svg" xmlns:xlink="http://www.w3.org/1999/xlink"
	 x="0px" y="0px" width="30px" height="18px" viewBox="0 0 30 18" style="enable-background:new 0 0 30 18;" xml:space="preserve">
<g id="icon-s-status-45g">
	<path style="fill:#FFFFFF;" d="M12.505,13.85h-1.8v3.695H6.841V13.85H0v-2.209L7.033,0h3.672v11.545h1.8V13.85z M6.841,11.545
		V4.488l-4.152,7.057H6.841z"/>
	<path style="fill:#FFFFFF;" d="M15.432,17.737c-1.176,0-2.112-0.936-2.112-2.112c0-1.176,0.936-2.136,2.112-2.136
		s2.135,0.96,2.135,2.136C17.567,16.802,16.608,17.737,15.432,17.737z"/>
	<path style="fill:#FFFFFF;" d="M23.257,6.336c0.312-0.047,0.695-0.047,1.055-0.047c3.385,0,5.449,1.848,5.449,5.52
		c0,3.985-2.04,5.929-6.504,5.929c-1.417,0-2.833-0.216-4.105-0.527v-2.353c1.201,0.313,2.281,0.576,3.408,0.576
		c2.305,0,3.217-1.152,3.217-3.505c0-2.04-1.057-3.264-3.528-3.264c-0.769,0-1.801,0.023-2.544,0.12V0.072h9.385v2.304h-5.832V6.336
		z"/>
</g>
</svg>
