<?xml version="1.0" encoding="iso-8859-1"?>
<!-- Generator: Adobe Illustrator 13.0.2, SVG Export Plug-In . SVG Version: 6.00 Build 14948)  -->
<!DOCTYPE svg PUBLIC "-//W3C//DTD SVG 1.1//EN" "http://www.w3.org/Graphics/SVG/1.1/DTD/svg11.dtd">
<svg version="1.1" xmlns="http://www.w3.org/2000/svg" xmlns:xlink="http://www.w3.org/1999/xlink" x="0px" y="0px"
	 width="40.457px" height="52.877px" viewBox="0 0 40.457 52.877" style="enable-background:new 0 0 40.457 52.877;"
	 xml:space="preserve">
	<g id="icon-m-common-wlan-fair">
		<path style="fill:#343434;" d="M33.844,46.321h-6.021l-5.523-23.152c2.422-0.904,4.174-3.266,4.174-6.117
			c0-3.623-2.791-6.551-6.244-6.551c-3.452,0-6.251,2.928-6.251,6.551c0,2.852,1.743,5.206,4.161,6.117l-5.504,23.152H6.613
			c-1.1,0-2,0.9-2,2v2.557c0,1.1,0.9,2,2,2h27.23c1.1,0,2-0.9,2-2v-2.557C35.844,47.221,34.943,46.321,33.844,46.321"/>
		<path style="fill:#343434;" d="M38.73,7.993c0,0-0.039-0.115-0.068-0.174c-0.34-0.805-1.152-2.275-1.152-2.275
			c-0.871-1.51-1.76-2.67-3.088-3.918c-0.471-0.455-0.996-0.848-1.504-1.238c-0.111-0.084-0.232-0.145-0.357-0.193
			c-0.697-0.377-1.584-0.189-2.086,0.488c-0.436,0.598-0.414,1.402-0.004,1.99c0.111,0.201,0.332,0.416,0.455,0.529
			c0.762,0.701,1.578,1.385,2.279,2.225c0.258,0.318,0.508,0.646,0.752,0.99c1.813,2.803,2.902,6.545,2.902,10.555
			c0,3.965-1.031,7.676-2.814,10.477c-0.914,1.262-1.955,2.289-3.086,3.246c-0.709,0.604-0.898,1.633-0.355,2.379
			c0.555,0.75,1.572,0.941,2.348,0.436c0.535-0.352,1.033-0.699,1.504-1.154c1.475-1.242,2.639-3.078,3.627-4.957h-0.023
			c1.531-2.992,2.398-6.617,2.398-10.426C40.457,13.758,39.84,10.676,38.73,7.993"/>
		<path style="fill:#343434;" d="M6.002,32.352c0.471,0.455,0.968,0.803,1.504,1.154c0.775,0.506,1.793,0.314,2.348-0.436
			c0.543-0.746,0.353-1.775-0.356-2.379c-1.131-0.957-2.172-1.984-3.085-3.246c-1.784-2.801-2.814-6.512-2.814-10.477
			c0-4.01,1.09-7.752,2.902-10.556c0.244-0.343,0.494-0.671,0.752-0.989C7.953,4.584,8.77,3.901,9.531,3.2
			C9.654,3.086,9.875,2.872,9.986,2.67c0.411-0.588,0.432-1.393-0.004-1.99C9.481,0.002,8.593-0.185,7.897,0.192
			C7.772,0.241,7.65,0.301,7.539,0.385C7.031,0.776,6.506,1.168,6.035,1.624C4.707,2.872,3.818,4.032,2.947,5.542
			c0,0-0.813,1.471-1.153,2.275C1.766,7.875,1.727,7.991,1.727,7.991C0.617,10.674,0,13.756,0,16.969
			c0,3.809,0.867,7.434,2.398,10.426H2.375C3.363,29.274,4.527,31.11,6.002,32.352"/>
	</g>
</svg>
