<?xml version="1.0" encoding="iso-8859-1"?>
<!-- Generator: Adobe Illustrator 14.0.0, SVG Export Plug-In . SVG Version: 6.00 Build 43363)  -->
<!DOCTYPE svg PUBLIC "-//W3C//DTD SVG 1.1//EN" "http://www.w3.org/Graphics/SVG/1.1/DTD/svg11.dtd">
<svg version="1.1" id="icon-l-email-layer" xmlns="http://www.w3.org/2000/svg" xmlns:xlink="http://www.w3.org/1999/xlink" x="0px"
	 y="0px" width="62px" height="64px" viewBox="0 0 62 64" style="enable-background:new 0 0 62 64;" xml:space="preserve">
<g id="icon-l-email">
	<g style="opacity:0.2;">
		<path style="fill:#231F20;" d="M30.854,63.75C13.428,63.75-0.75,49.571-0.75,32.143c0-17.428,14.178-31.606,31.604-31.606
			c17.423,0,31.599,14.179,31.599,31.606C62.453,49.571,48.277,63.75,30.854,63.75L30.854,63.75z"/>
		<path style="fill:#010101;" d="M30.854,1.286c17.041,0,30.849,13.819,30.849,30.856C61.703,49.186,47.895,63,30.854,63
			C13.812,63,0,49.186,0,32.143C0,15.105,13.812,1.286,30.854,1.286 M30.854-0.214C13.014-0.214-1.5,14.301-1.5,32.143
			C-1.5,49.984,13.014,64.5,30.854,64.5c17.837,0,32.349-14.516,32.349-32.357C63.203,14.301,48.691-0.214,30.854-0.214
			L30.854-0.214z"/>
	</g>
	<path style="opacity:0.5;fill:#231F20;" d="M61.703,32.143C61.703,49.186,47.895,63,30.854,63C13.812,63,0,49.186,0,32.143
		C0,15.105,13.812,1.286,30.854,1.286C47.895,1.286,61.703,15.105,61.703,32.143z"/>
	<linearGradient id="SVGID_1_" gradientUnits="userSpaceOnUse" x1="30.8511" y1="-1" x2="30.8511" y2="60.7134">
		<stop  offset="0" style="stop-color:#FFFFFF"/>
		<stop  offset="1" style="stop-color:#B3B3B3"/>
	</linearGradient>
	<path style="fill:url(#SVGID_1_);" d="M61.703,29.857c0,17.043-13.809,30.855-30.849,30.855C13.812,60.713,0,46.9,0,29.857
		C0,12.82,13.812-1,30.854-1C47.895-1,61.703,12.82,61.703,29.857z"/>
	<linearGradient id="SVGID_2_" gradientUnits="userSpaceOnUse" x1="30.8486" y1="8.0742" x2="30.8486" y2="51.6309">
		<stop  offset="0" style="stop-color:#517DBF"/>
		<stop  offset="1" style="stop-color:#293175"/>
	</linearGradient>
	<path style="fill:url(#SVGID_2_);" d="M33.932,17.836h6.729c-1.16,7.313-1.746,12.359-1.746,15.143
		c0,2.645-0.002,5.201,2.871,5.201c1.385,0,4.938-1.137,4.938-9.434c0-11.104-5.785-16.561-14.66-16.561
		c-9.567,0-16.676,6.121-16.676,17.248c0,11.262,4.956,18.096,17.1,18.096c3.281,0,6.689-0.648,10.23-1.951v4.107
		c-6.43,2.568-18.771,3.689-26.536-3.742c-3.955-3.801-5.935-9.229-5.935-16.279c0-14.475,10.096-21.59,21.668-21.59
		c12.56,0,19.537,7.541,19.537,20.439c0,7.074-3.021,13.467-10.443,13.467c-2.621,0-5.342-1.502-6.152-5.162
		c-1.598,3.439-3.874,5.162-6.819,5.162c-4.962,0-7.205-4.588-7.205-9.445C20.832,21.553,27.77,17.836,33.932,17.836 M33.906,29.395
		l0.893-7.756h-1.703c-4.834,0-7.128,5.063-7.128,10.434c0,3.766,0.688,6.107,3.442,6.107C31.69,38.18,33.188,35.252,33.906,29.395"
		/>
</g>
</svg>
