<?xml version="1.0" encoding="iso-8859-1"?>
<!-- Generator: Adobe Illustrator 14.0.0, SVG Export Plug-In . SVG Version: 6.00 Build 43363)  -->
<!DOCTYPE svg PUBLIC "-//W3C//DTD SVG 1.1//EN" "http://www.w3.org/Graphics/SVG/1.1/DTD/svg11.dtd">
<svg version="1.1" id="icon-m-content-task-layer" xmlns="http://www.w3.org/2000/svg" xmlns:xlink="http://www.w3.org/1999/xlink"
	 x="0px" y="0px" width="64px" height="64px" viewBox="0 0 64 64" style="enable-background:new 0 0 64 64;" xml:space="preserve">
<g id="icon-m-content-task">
	<rect style="fill:none;" width="64" height="64"/>
	<path style="fill:#333333;" d="M63.951,14.766c-0.101-0.299-0.395-0.5-0.722-0.494c-18.708,0.361-32.536,18.613-35.354,22.572
		l-9.202-9.229c-0.279-0.281-0.749-0.295-1.046-0.023l-5.558,5.002c-0.145,0.135-0.228,0.316-0.234,0.51
		c-0.004,0.199,0.072,0.379,0.214,0.52l16.667,16.336c0.138,0.141,0.334,0.215,0.532,0.215c0.02,0,0.042-0.002,0.062-0.004
		c0.22-0.018,0.422-0.131,0.547-0.303c8.062-11.141,16.527-19.721,22.967-25.512c6.445-5.789,10.839-8.768,10.845-8.779
		C63.938,15.396,64.052,15.066,63.951,14.766z"/>
	<path style="fill:#333333;" d="M49.156,34.84v18.604c0,1.096-0.902,1.994-2.005,1.994H8.037c-1.104,0-2.008-0.898-2.008-1.994
		V10.557c0-1.098,0.904-1.994,2.008-1.994h39.114c1.103,0,2.005,0.896,2.005,1.994v0.35c1.909-0.977,3.918-1.816,6.016-2.465V4.574
		c0-1.096-0.902-1.992-2.005-1.992H2.018c-1.103,0-2.006,0.896-2.006,1.992v54.852c0,1.096,0.903,1.994,2.006,1.994h51.149
		c1.103,0,2.005-0.674,2.005-1.494V29.32c-0.594,0.52-1.205,1.057-1.844,1.629C52.017,32.131,50.615,33.432,49.156,34.84z"/>
</g>
</svg>
