<?xml version="1.0" encoding="iso-8859-1"?>
<!-- Generator: Adobe Illustrator 13.0.2, SVG Export Plug-In . SVG Version: 6.00 Build 14948)  -->
<!DOCTYPE svg PUBLIC "-//W3C//DTD SVG 1.1//EN" "http://www.w3.org/Graphics/SVG/1.1/DTD/svg11.dtd">
<svg version="1.1" xmlns="http://www.w3.org/2000/svg" xmlns:xlink="http://www.w3.org/1999/xlink" x="0px" y="0px" width="92px"
	 height="43.965px" viewBox="0 0 92 43.965" style="enable-background:new 0 0 92 43.965;" xml:space="preserve">
	<g id="icon-m-common-25g">
		<path style="fill:#333333;" d="M33.532,35.207c-2.493,0-4.403,1.755-4.403,4.364c0,2.595,1.91,4.394,4.403,4.394
			c2.513,0,4.454-1.799,4.454-4.394C37.986,36.962,36.045,35.207,33.532,35.207z"/>
		<path style="fill:#333333;" d="M51.134,16.001V6.273h14.46V0.625H42.337v21.381c14.113-1.588,15.084,3.002,15.084,7.715
			c0,5.762-2.291,8.596-8.01,8.596c-2.693,0-5.47-0.523-8.46-1.307v5.786c3.146,0.755,6.671,1.169,10.182,1.169
			c11.065,0,16.062-4.756,16.062-14.55C67.195,20.418,61.846,15.08,51.134,16.001z"/>
		<path style="fill:#333333;" d="M82.83,28.337v3.897h2.588v3.77c0,2.365-0.981,4.106-3.071,4.106
			c-4.133,0-4.393-5.677-4.393-11.653c0-5.324,1.271-10.801,6.726-10.801c2.057,0,3.826,0.199,5.758,0.73v-3.865
			c-2.012-0.535-4.182-0.768-6.354-0.768c-10.116,0-13.14,6.902-13.14,14.779c0,7.604,1.335,15.432,10.295,15.432
			c2.54,0,4.84-1.179,5.998-2.92l0.821,2.605H92V28.337H82.83z"/>
		<path style="fill:#333333;" d="M18.61,25.684c5.054-4.278,8.562-7.729,8.562-14.149C27.172,3.512,21.761,0,13.081,0
			C9.157,0,5.292,0.658,1.486,1.783v5.888c2.854-1.012,5.827-1.96,9.156-1.96c4.697,0,6.659,2.198,6.659,6.182
			c0,3.688-2.497,5.945-6.243,9.098C5.53,25.627,0,30.861,0,39.959v3.801h26.235v-5.705h-16.9
			C9.751,33.355,13.259,30.207,18.61,25.684z"/>
	</g>
</svg>
