<?xml version="1.0" encoding="iso-8859-1"?>
<!-- Generator: Adobe Illustrator 14.0.0, SVG Export Plug-In . SVG Version: 6.00 Build 43363)  -->
<!DOCTYPE svg PUBLIC "-//W3C//DTD SVG 1.1//EN" "http://www.w3.org/Graphics/SVG/1.1/DTD/svg11.dtd">
<svg version="1.1" id="icon-m-organizer-location-user-layer"
	 xmlns="http://www.w3.org/2000/svg" xmlns:xlink="http://www.w3.org/1999/xlink" x="0px" y="0px" width="64px" height="64px"
	 viewBox="0 0 64 64" style="enable-background:new 0 0 64 64;" xml:space="preserve">
<g id="icon-m-organizer-location-user">
	<rect style="fill:none;" width="64" height="64"/>
	<path style="fill:#333333;" d="M63.03,28.251H47.996c0,0.009,0.002,0.017,0.002,0.025v2.916l13.063-0.001v8.015l-39.073,9.158
		l-9.408-20.113H0.97c-0.536,0-0.97,0.436-0.97,0.971v32.97c0,0.534,0.434,0.97,0.97,0.97H63.03c0.536,0,0.97-0.436,0.97-0.97
		v-32.97C64,28.687,63.566,28.251,63.03,28.251z M2.939,31.191l5.485,0.002l4.583,9.784H2.939V31.191z M2.939,60.222V42.978h11.005
		l5.235,11.181l18.68-4.378c2.804,0.506,5.827,4.346,7.01,7.18c0.578,1.389,0.895,2.472,1.055,3.262H2.939z M61.061,60.222H48.94
		c-0.164-1.229-0.583-2.689-1.304-4.415c-0.159-0.382-0.354-0.789-0.568-1.204h13.992V60.222z M61.061,53.103H46.203
		c-1.001-1.576-2.318-3.169-3.849-4.377l18.706-4.384V53.103z"/>
	<path style="fill:#333333;" d="M32.909,17.164c3.601,0,6.519-2.864,6.519-6.39c0-3.535-2.918-6.408-6.519-6.408
		c-3.606,0-6.524,2.873-6.524,6.408C26.384,14.3,29.302,17.164,32.909,17.164z"/>
	<path style="fill:#333333;" d="M32.812,20.341c-5.074,0-9.184,3.552-9.184,7.936v8.522h18.37v-8.522
		C41.998,23.893,37.887,20.341,32.812,20.341z"/>
</g>
</svg>
