<?xml version="1.0" encoding="iso-8859-1"?>
<!-- Generator: Adobe Illustrator 14.0.0, SVG Export Plug-In . SVG Version: 6.00 Build 43363)  -->
<!DOCTYPE svg PUBLIC "-//W3C//DTD SVG 1.1//EN" "http://www.w3.org/Graphics/SVG/1.1/DTD/svg11.dtd">
<svg version="1.1" id="icon-m-bluetooth-video-audio-layer"
	 xmlns="http://www.w3.org/2000/svg" xmlns:xlink="http://www.w3.org/1999/xlink" x="0px" y="0px" width="69px" height="64px"
	 viewBox="0 0 69 64" style="enable-background:new 0 0 69 64;" xml:space="preserve">
<g id="icon-m-bluetooth-video-audio">
	<rect x="2.372" style="fill:none;" width="64" height="63.986"/>
	<path style="fill:#333333;" d="M64,39.857c-0.027-0.003-2,0-2,0s-1,0-1,1v14c0,0,0,1,1,1c0,0,1.973,0.003,2,0c3,0,5-4.093,5-8
		S67,39.857,64,39.857z"/>
	<path style="fill:#333333;" d="M5,39.857c0.027-0.003,2,0,2,0s1,0,1,1v14c0,0,0,1-1,1c0,0-1.973,0.003-2,0c-3,0-5-4.093-5-8
		S2,39.857,5,39.857z"/>
	<path style="fill:#333333;" d="M54,33.829v22.028h5v-22l0,0C59.021,21.105,47.982,8.15,34.549,8.15S10,20.857,10,33.857l0,0l0,0v22
		h5V33.829l0,0c0-9.972,9.262-20.331,19.549-20.331c10.286,0,19.451,10.359,19.434,20.331H54z"/>
</g>
</svg>
