<?xml version="1.0" encoding="iso-8859-1"?>
<!-- Generator: Adobe Illustrator 14.0.0, SVG Export Plug-In . SVG Version: 6.00 Build 43363)  -->
<!DOCTYPE svg PUBLIC "-//W3C//DTD SVG 1.1//EN" "http://www.w3.org/Graphics/SVG/1.1/DTD/svg11.dtd">
<svg version="1.1" id="icon-m-save-layer" xmlns="http://www.w3.org/2000/svg" xmlns:xlink="http://www.w3.org/1999/xlink" x="0px"
	 y="0px" width="64px" height="64px" viewBox="0 0 64 64" style="enable-background:new 0 0 64 64;" xml:space="preserve">
<g id="icon-m-save">
	<rect style="fill:none;" width="64" height="64"/>
	<rect x="21.945" y="33.199" style="fill:#333333;" width="20.02" height="4"/>
	<rect x="22.074" y="42.582" style="fill:#333333;" width="12" height="4"/>
	<path style="fill:#333333;" d="M56.168,5.895h-9.775v13.008c0,0.551-0.449,1-1,1H18.609c-0.549,0-1-0.449-1-1V5.895H7.834
		c-1.1,0-2,0.9-2,2v48.334c0,1.1,0.9,2,2,2h48.334c1.1,0,2-0.9,2-2V7.895C58.168,6.795,57.268,5.895,56.168,5.895z M48.623,50.1
		c0,1.1-0.898,2-2,2H17.379c-1.1,0-2-0.9-2-2v-20.66c0-1.1,0.9-2,2-2h29.244c1.102,0,2,0.9,2,2V50.1z"/>
	<path style="fill:#333333;" d="M31.809,5.771v7.965c0,0.551,0.449,1,1,1h6.449c0.551,0,1-0.449,1-1V5.771H31.809z"/>
</g>
</svg>
