<?xml version="1.0" encoding="iso-8859-1"?>
<!-- Generator: Adobe Illustrator 14.0.0, SVG Export Plug-In . SVG Version: 6.00 Build 43363)  -->
<!DOCTYPE svg PUBLIC "-//W3C//DTD SVG 1.1//EN" "http://www.w3.org/Graphics/SVG/1.1/DTD/svg11.dtd">
<svg version="1.1" id="icon-s-status-alarm-layer" xmlns="http://www.w3.org/2000/svg" xmlns:xlink="http://www.w3.org/1999/xlink"
	 x="0px" y="0px" width="18px" height="18px" viewBox="0 0 18 18" style="enable-background:new 0 0 18 18;" xml:space="preserve">
<g id="icon-s-status-alarm">
	<rect style="fill:none;" width="18" height="18"/>
	<g>
		<path style="fill:#FFFFFF;" d="M16.41,5.816c-0.443-0.451-0.91-0.557-1.494-0.78c-1.404-0.54-2.789-1.333-3.959-2.282
			C10.172,2.117,9.446,1.596,8.48,1.22C6.436,0.424,4.278,0.643,2.664,2.188L2.644,2.209C1.097,3.824,0.878,5.98,1.675,8.025
			c0.375,0.966,0.896,1.692,1.533,2.479c0.949,1.168,1.744,2.554,2.283,3.957c0.224,0.584,0.329,1.052,0.779,1.493
			c0.306,0.301,0.321,0.321,0.623,0.623c0.203,0.202,0.604,0.272,0.807,0.07l4.69-4.69l0.021-0.021l4.691-4.689
			c0.202-0.203,0.132-0.605-0.07-0.807C16.73,6.137,16.71,6.121,16.41,5.816z"/>
		<path style="fill:#FFFFFF;" d="M11.797,14.773c0.438,0.729,1.234,1.218,2.146,1.218c1.383,0,2.504-1.12,2.505-2.503
			c-0.001-0.912-0.49-1.709-1.219-2.146L11.797,14.773z"/>
	</g>
</g>
</svg>
