<?xml version="1.0" encoding="iso-8859-1"?>
<!-- Generator: Adobe Illustrator 14.0.0, SVG Export Plug-In . SVG Version: 6.00 Build 43363)  -->
<!DOCTYPE svg PUBLIC "-//W3C//DTD SVG 1.1//EN" "http://www.w3.org/Graphics/SVG/1.1/DTD/svg11.dtd">
<svg version="1.1" id="icon-m-content-alarm-layer" xmlns="http://www.w3.org/2000/svg" xmlns:xlink="http://www.w3.org/1999/xlink"
	 x="0px" y="0px" width="64px" height="64px" viewBox="0 0 64 64" style="enable-background:new 0 0 64 64;" xml:space="preserve">
<symbol  id="background_x5F_64" viewBox="-32 -32 64 64">
	<polygon style="fill:none;" points="32,-32 -32,-32 -32,32 32,32 	"/>
</symbol>
<g id="icon-m-content-alarm">
	
		<use xlink:href="#background_x5F_64"  width="64" height="64" id="background_x5F_64_110_" x="-32" y="-32" transform="matrix(1 0 0 -1 32 32)" style="overflow:visible;"/>
	<path style="fill:#333333;" d="M41.812,57.502c4.154,3.906,12.506,4.818,16.891,0.469c4.393-4.354,3.162-12.336-0.76-16.459
		L41.812,57.502z"/>
	<path style="fill:#333333;" d="M62.215,20.115c-6.051,0.7-8.365,2.67-16.695-5.6c0,0-4.627-4.6-4.971-4.941
		c-6.576-6.533-16.761-7.461-24.918-2.958c-0.315-0.685-3.063-3.657-3.623-4.212C9.375-0.223,4.98-0.088,2.183,2.678
		c-2.792,2.773-2.924,7.139-0.291,9.751c0.619,0.622,3.687,3.398,4.461,3.71c-4.132,7.971-3.093,17.705,3.297,24.061
		c0.344,0.344,4.976,4.938,4.976,4.938c7.794,7.734,6.338,10.574,5.625,16.584l1.783,1.764L64,21.887L62.215,20.115z"/>
</g>
</svg>
