<?xml version="1.0" encoding="iso-8859-1"?>
<!-- Generator: Adobe Illustrator 13.0.2, SVG Export Plug-In . SVG Version: 6.00 Build 14948)  -->
<!DOCTYPE svg PUBLIC "-//W3C//DTD SVG 1.1//EN" "http://www.w3.org/Graphics/SVG/1.1/DTD/svg11.dtd">
<svg version="1.1" xmlns="http://www.w3.org/2000/svg" xmlns:xlink="http://www.w3.org/1999/xlink" x="0px" y="0px" width="64px"
	 height="64px" viewBox="0 0 64 64" style="enable-background:new 0 0 64 64;" xml:space="preserve">
	<g id="icon-m-internet-connection">
		<g>
			<rect style="fill:none;" width="64" height="64"/>
			<path style="fill:#333333;" d="M9.004,27.201l3.484,3.486c10.768-10.271,27.876-10.125,38.453,0.449
				c0.197,0.195,0.379,0.396,0.566,0.596l3.484-3.483c-0.188-0.2-0.369-0.402-0.564-0.597C41.93,15.151,21.693,15.009,9.004,27.201z
				"/>
			<path style="fill:#333333;" d="M18.006,36.208l3.502,3.496c5.793-5.307,14.816-5.172,20.426,0.44
				c0.197,0.196,0.369,0.401,0.555,0.609l3.5-3.5c-0.186-0.203-0.372-0.402-0.566-0.596C37.889,29.125,25.73,28.977,18.006,36.208z"
				/>
			<path style="fill:#333333;" d="M63.432,18.645C45.968,1.181,17.654,1.037,0,18.197l3.484,3.484
				C19.218,6.447,44.406,6.589,59.948,22.13c0.194,0.196,0.376,0.399,0.565,0.599L64,19.24
				C63.811,19.044,63.629,18.841,63.432,18.645z"/>
		</g>
		<circle style="fill:#333333;" cx="32" cy="52.939" r="5.625"/>
	</g>
</svg>
