<?xml version="1.0" encoding="iso-8859-1"?>
<!-- Generator: Adobe Illustrator 13.0.2, SVG Export Plug-In . SVG Version: 6.00 Build 14948)  -->
<!DOCTYPE svg PUBLIC "-//W3C//DTD SVG 1.1//EN" "http://www.w3.org/Graphics/SVG/1.1/DTD/svg11.dtd">
<svg version="1.1" xmlns="http://www.w3.org/2000/svg" xmlns:xlink="http://www.w3.org/1999/xlink" x="0px" y="0px" width="64px"
	 height="64px" viewBox="0 0 64 64" style="enable-background:new 0 0 64 64;" xml:space="preserve">
	<g id="icon-m-content-video">
		<rect style="fill:none;" width="64" height="64"/>
		<path style="fill:#333333;" d="M60.783,8.767H64V4H0v4.71v0.057h3.246c0.655,0,1.193,0.537,1.193,1.193v4.724
			c0,0.655-0.538,2.26-1.193,2.26H0V17v2.961V20h14v24H0v0.039V48v0.057h3.246c0.655,0,1.193,0.538,1.193,1.193v4.724
			c0,0.656-0.538,1.193-1.193,1.193H0v0.057V59h64v-3.833h-3.217c-0.657,0-1.195-0.537-1.195-1.193v-4.777
			c0-0.658,0.538-1.196,1.195-1.196H64v-4h-3V20h3v-3h-3.217c-0.657,0-1.195-1.604-1.195-2.263V9.96
			C59.588,9.304,60.126,8.767,60.783,8.767z M44.059,9.96c0-0.656,0.537-1.193,1.195-1.193h4.777c0.656,0,1.193,0.537,1.193,1.193
			v4.777c0,0.658-0.537,2.263-1.193,2.263h-4.777c-0.658,0-1.195-1.604-1.195-2.263V9.96z M28.479,9.96
			c0-0.656,0.54-1.193,1.195-1.193h4.779c0.656,0,1.193,0.537,1.193,1.193v4.777c0,0.658-0.537,2.263-1.193,2.263h-4.779
			c-0.655,0-1.195-1.604-1.195-2.263V9.96z M20.019,53.974c0,0.656-0.538,1.193-1.196,1.193h-4.778
			c-0.658,0-1.193-0.537-1.193-1.193V49.25c0-0.655,0.536-1.193,1.193-1.193h4.778c0.658,0,1.196,0.538,1.196,1.193V53.974z
			 M20.019,14.684c0,0.655-0.538,2.26-1.196,2.26h-4.778c-0.658,0-1.193-1.604-1.193-2.26V9.96c0-0.656,0.536-1.193,1.193-1.193
			h4.778c0.658,0,1.196,0.537,1.196,1.193V14.684z M35.646,53.974c0,0.656-0.537,1.193-1.193,1.193h-4.779
			c-0.655,0-1.195-0.537-1.195-1.193v-4.777c0-0.658,0.54-1.196,1.195-1.196h4.779c0.656,0,1.193,0.538,1.193,1.196V53.974z
			 M51.225,53.974c0,0.656-0.537,1.193-1.193,1.193h-4.777c-0.658,0-1.195-0.537-1.195-1.193v-4.777
			c0-0.658,0.537-1.196,1.195-1.196h4.777c0.656,0,1.193,0.538,1.193,1.196V53.974z M54,44l-33.981,0.039V44H20V20h0.019v-0.039H54
			V44z"/>
	</g>
</svg>
