<?xml version="1.0" encoding="iso-8859-1"?>
<!-- Generator: Adobe Illustrator 14.0.0, SVG Export Plug-In . SVG Version: 6.00 Build 43363)  -->
<!DOCTYPE svg PUBLIC "-//W3C//DTD SVG 1.1//EN" "http://www.w3.org/Graphics/SVG/1.1/DTD/svg11.dtd">
<svg version="1.1" id="icon-m-edit-layer" xmlns="http://www.w3.org/2000/svg" xmlns:xlink="http://www.w3.org/1999/xlink" x="0px"
	 y="0px" width="64px" height="64px" viewBox="0 0 64 64" style="enable-background:new 0 0 64 64;" xml:space="preserve">
<g id="icon-m-edit">
	<rect style="fill:none;" width="64" height="64"/>
	<path style="fill:#333333;" d="M62.652,15.905L48.086,1.305c-0.803-0.803-2.115-0.803-2.916,0L10.407,36.123
		c-0.801,0.803-1.751,2.34-2.11,3.417L0.851,61.887c-0.359,1.076,0.229,1.664,1.304,1.305l22.317-7.445
		c1.075-0.359,2.611-1.311,3.413-2.113l34.767-34.807C63.455,18.023,63.455,16.709,62.652,15.905z M23.73,50.719l-8.907,2.975
		l-4.482-4.484l2.975-8.922l3.945-3.951l10.331,10.519L23.73,50.719z"/>
</g>
</svg>
