<?xml version="1.0" encoding="iso-8859-1"?>
<!-- Generator: Adobe Illustrator 14.0.0, SVG Export Plug-In . SVG Version: 6.00 Build 43363)  -->
<!DOCTYPE svg PUBLIC "-//W3C//DTD SVG 1.1//EN" "http://www.w3.org/Graphics/SVG/1.1/DTD/svg11.dtd">
<svg version="1.1" id="icon-m-camera-sound-recording-off-layer"
	 xmlns="http://www.w3.org/2000/svg" xmlns:xlink="http://www.w3.org/1999/xlink" x="0px" y="0px" width="64px" height="64px"
	 viewBox="0 0 64 64" style="enable-background:new 0 0 64 64;" xml:space="preserve">
<g id="icon-m-camera-sound-recording-off">
	<rect style="fill:none;" width="64" height="64"/>
	<polygon style="fill:#333333;" points="0,54.904 3.402,58.307 7.818,53.881 4.414,50.475 	"/>
	<polygon style="fill:#333333;" points="6.523,46.186 12.121,51.781 28.951,36.609 21.697,29.355 	"/>
	<path style="fill:#333333;" d="M51.887,18.676L39.637,6.412c-0.965-0.959-2.539-0.959-3.51,0.002L20.631,21.916l15.758,15.762
		L51.887,22.18C52.855,21.213,52.857,19.643,51.887,18.676z M37.227,32.477L25.822,21.078l3.002-2.996l11.4,11.398L37.227,32.477z"
		/>
	<path style="fill:#333333;" d="M53.396,37.1c-5.855,0-10.604,4.748-10.604,10.604s4.748,10.604,10.604,10.604S64,53.559,64,47.703
		S59.252,37.1,53.396,37.1z M53.396,54.703c-3.867,0-7-3.133-7-7c0-3.865,3.133-7,7-7s7,3.135,7,7
		C60.396,51.57,57.264,54.703,53.396,54.703z"/>
</g>
</svg>
