<?xml version="1.0" encoding="iso-8859-1"?>
<!-- Generator: Adobe Illustrator 13.0.2, SVG Export Plug-In . SVG Version: 6.00 Build 14948)  -->
<!DOCTYPE svg PUBLIC "-//W3C//DTD SVG 1.1//EN" "http://www.w3.org/Graphics/SVG/1.1/DTD/svg11.dtd">
<svg version="1.1" xmlns="http://www.w3.org/2000/svg" xmlns:xlink="http://www.w3.org/1999/xlink" x="0px" y="0px"
	 width="55.745px" height="64px" viewBox="0 0 55.745 64" style="enable-background:new 0 0 55.745 64;" xml:space="preserve">
	<g id="icon-m-content-word">
		<polygon style="fill:#343434;" points="34.54,0.359 34.54,22.235 55.745,22.235 55.745,21.562 		"/>
		<path style="fill:#343434;" d="M34.024,27.396c-2.562,0-4.645-2.084-4.645-4.645V0H2.066C0.932,0,0,0.93,0,2.064v59.872
			C0,63.071,0.932,64,2.066,64h51.614c1.133,0,2.064-0.929,2.064-2.063v-34.54H34.024z M30.052,54.47
			c-0.342,0.069-0.661,0.133-0.945,0.195c-0.617,0.134-1.237,0.275-1.854,0.416c-2.546,0.581-5.179,1.182-7.572,1.182
			c-2.743,0.002-4.896-0.805-6.582-2.461c-2.713-2.668-3.835-7.688-4.824-12.115l-0.419-1.848c-0.508-2.181-1.139-4.896,0.043-6.49
			c0.562-0.758,1.484-1.185,2.741-1.269c5.737-0.377,6.924,4.995,8.065,10.181l0.224,1.01c0.156,0.693,0.282,1.476,0.415,2.303
			c0.3,1.867,0.61,3.8,1.291,4.764c0.531,0.752,1.486,1.102,3.006,1.102c0.938,0,1.972-0.133,2.986-0.275
			c-1.372-2.061-2.067-4.486-2.836-8.137l-0.092-0.428c-0.344-1.598-0.733-3.408-0.372-5.254c0.269-1.375,1.456-2.264,3.025-2.264
			c0.811,0,1.611,0.252,2.252,0.71c1.394,0.995,1.722,3.172,2.069,5.478c0.092,0.612,0.186,1.231,0.301,1.834
			c0.066,0.349,0.131,0.724,0.199,1.111c0.386,2.217,0.865,4.975,2.099,5.514c0.339,0.147,0.813,0.162,1.272,0.174
			c0.941,0.029,2.113,0.063,2.193,1.438C36.839,53.085,32.916,53.886,30.052,54.47 M42.179,51.54
			c-0.467,0.548-1.146,0.837-1.963,0.837h-0.038c-2.569-0.03-3.065-2.759-3.544-5.399l-0.129-0.701
			c-0.104-0.549-0.248-1.164-0.399-1.801c-0.739-3.146-1.579-6.709,1.019-7.688c0.465-0.175,0.91-0.264,1.324-0.264
			c2.875,0,3.443,3.812,3.899,6.875c0.051,0.346,0.099,0.656,0.146,0.953C42.944,47.181,43.409,50.099,42.179,51.54"/>
	</g>
</svg>
