<?xml version="1.0" encoding="iso-8859-1"?>
<!-- Generator: Adobe Illustrator 13.0.2, SVG Export Plug-In . SVG Version: 6.00 Build 14948)  -->
<!DOCTYPE svg PUBLIC "-//W3C//DTD SVG 1.1//EN" "http://www.w3.org/Graphics/SVG/1.1/DTD/svg11.dtd">
<svg version="1.1" xmlns="http://www.w3.org/2000/svg" xmlns:xlink="http://www.w3.org/1999/xlink" x="0px" y="0px"
	 width="64.062px" height="64.175px" viewBox="0 0 64.062 64.175" style="enable-background:new 0 0 64.062 64.175;"
	 xml:space="preserve">
	<g id="icon-m-image-edit-auto-contrast">
		<rect x="0.062" style="fill:none;" width="64" height="64"/>
		<g>
			<path style="fill:#333333;" d="M25,0.319c-13.787,0-25,11.214-25,25c0,13.785,11.213,25,25,25c13.784,0,25-11.215,25-25
				C50,11.533,38.784,0.319,25,0.319z M25,45.123c-10.922,0-19.805-8.885-19.805-19.804C5.195,14.397,14.078,5.515,25,5.515
				c10.92,0,19.805,8.883,19.805,19.805C44.805,36.238,35.92,45.123,25,45.123z"/>
			<path style="fill:#333333;" d="M25.467,11.608c-0.031,0-0.064,0.004-0.098,0.004v27.41c0.033,0,0.066,0.007,0.098,0.007
				c7.566,0,13.711-6.141,13.711-13.71C39.178,17.749,33.033,11.608,25.467,11.608z"/>
		</g>
		<g>
			<path style="fill:#333333;" d="M55.676,37.175h-6.26l-8.059,27h4.547l1.791-6.193h9.031l1.793,6.193h5.068L55.676,37.175z
				 M48.564,54.562l3.686-13.343l3.654,13.403L48.564,54.562z"/>
		</g>
	</g>
</svg>
