<?xml version="1.0" encoding="iso-8859-1"?>
<!-- Generator: Adobe Illustrator 13.0.2, SVG Export Plug-In . SVG Version: 6.00 Build 14948)  -->
<!DOCTYPE svg PUBLIC "-//W3C//DTD SVG 1.1//EN" "http://www.w3.org/Graphics/SVG/1.1/DTD/svg11.dtd">
<svg version="1.1" xmlns="http://www.w3.org/2000/svg" xmlns:xlink="http://www.w3.org/1999/xlink" x="0px" y="0px" width="64px"
	 height="64px" viewBox="0 0 64 64" style="enable-background:new 0 0 64 64;" xml:space="preserve">
	<g id="icon-m-camera-postcapture-view-3sec">
		<rect style="fill:none;" width="64" height="64"/>
		<path style="fill:#333333;" d="M24.403,39.705H6.46V5.143h51.051v21.534c2.51,1.501,4.705,3.476,6.46,5.802V3.202
			C63.971,1.444,62.526,0,60.773,0H3.198C1.444,0,0,1.444,0,3.202v38.44c0,1.759,1.444,3.206,3.198,3.206h20.331
			C23.619,43.071,23.923,41.351,24.403,39.705z"/>
		<line style="fill:#333333;" x1="46" y1="33.143" x2="46" y2="33.143"/>
		<path style="fill:#333333;" d="M31.756,17.059c0.669,0,1.271-0.26,1.737-0.667c0.622,0.883,1.504,1.438,2.484,1.438
			s1.862-0.556,2.486-1.438c0.463,0.407,1.068,0.667,1.735,0.667c1.462,0,2.644-1.19,2.644-2.655c0-1.47-1.182-2.659-2.644-2.659
			c-0.338,0-0.657,0.066-0.953,0.188c-0.427-1.883-1.728-3.252-3.269-3.252c-1.54,0-2.842,1.369-3.268,3.252
			c-0.296-0.121-0.617-0.188-0.954-0.188c-1.46,0-2.644,1.189-2.644,2.659C29.112,15.868,30.296,17.059,31.756,17.059z"/>
		<path style="fill:#333333;" d="M37.558,25.15c-2.209-2.469-4.925-2.841-7.703,3.307c-3.938-9.106-11.666-20.354-19.043,7.307
			h15.162C28.429,30.98,32.544,27.188,37.558,25.15z"/>
		<path style="fill:#333333;" d="M45.255,40.053c-1.012,0-2.068,0.264-3.125,0.55v-2.134c1.145-0.287,2.486-0.528,3.852-0.528
			c3.014,0,5.192,1.012,5.192,3.982c0,1.87-1.034,3.146-2.905,3.719c2.068,0.374,3.191,1.782,3.191,3.74
			c0,3.521-2.223,4.929-6.117,4.929c-1.299,0-2.442-0.176-3.696-0.506V51.67c1.319,0.309,2.354,0.528,3.345,0.528
			c2.023,0,2.816-0.968,2.816-2.751c0-2.354-1.365-2.771-4.753-2.771v-2.024c3.257,0,4.555-0.353,4.555-2.486
			C47.609,40.734,46.817,40.053,45.255,40.053z"/>
		<path style="fill:#333333;" d="M47.843,28.094v-3.172h3.187v-3.524h-10v3.524h3.193v3.168C35.129,28.986,28,36.676,28,46
			c0,9.925,8.075,18,18,18s18-8.075,18-18C64,36.697,56.905,29.02,47.843,28.094z M46,58.856c-7.089,0-12.857-5.768-12.857-12.856
			c0-7.09,5.769-12.857,12.857-12.857S58.857,38.91,58.857,46C58.857,53.089,53.089,58.856,46,58.856z"/>
	</g>
</svg>
