<?xml version="1.0" encoding="iso-8859-1"?>
<!-- Generator: Adobe Illustrator 13.0.2, SVG Export Plug-In . SVG Version: 6.00 Build 14948)  -->
<!DOCTYPE svg PUBLIC "-//W3C//DTD SVG 1.1//EN" "http://www.w3.org/Graphics/SVG/1.1/DTD/svg11.dtd">
<svg version="1.1" xmlns="http://www.w3.org/2000/svg" xmlns:xlink="http://www.w3.org/1999/xlink" x="0px" y="0px" width="64px"
	 height="64px" viewBox="0 0 64 64" style="enable-background:new 0 0 64 64;" xml:space="preserve">
	<g id="icon-m-telephony-ringing">
		<rect style="fill:none;" width="64" height="64"/>
		<path style="fill:#333333;" d="M38.613,43.418c-1.373-0.311-11.865-0.317-13.238-0.012c-1.98,0.449-1.238,4.991-1.238,4.991
			l15.733,0.014C39.87,48.411,40.599,43.871,38.613,43.418z"/>
		<path style="fill:#333333;" d="M52.449,33.965c-8.712-3.143-30.833-4.569-40.966-0.034c-4.438,1.987-7.01,9.574-6.605,13.13
			c-0.009,0.008,0.164,1.875,1.794,1.773l12.527-1.851c0.829-0.103,1.796-0.356,1.791-1.821c0,0-1.038-6.352,1.731-6.979
			c1.921-0.429,16.594-0.417,18.514,0.016c2.775,0.634,1.758,6.984,1.758,6.984c0.004,1.468,0.974,1.713,1.799,1.819l12.542,1.877
			c1.638,0.098,1.8-1.77,1.794-1.776C59.5,43.555,57.042,35.627,52.449,33.965z"/>
		<path style="fill:#333333;" d="M5.809,30.552c-0.308,0-0.617-0.093-0.884-0.289c-0.666-0.488-0.814-1.421-0.329-2.09
			c1.793-2.468,6.803-6.408,12.924-3.66c0.755,0.339,1.093,1.228,0.754,1.982c-0.339,0.757-1.226,1.095-1.983,0.755
			c-5.408-2.427-9.115,2.481-9.271,2.691C6.726,30.34,6.27,30.552,5.809,30.552L5.809,30.552z"/>
		<path style="fill:#333333;" d="M1.531,24.382c-0.306,0-0.614-0.093-0.881-0.286c-0.67-0.487-0.818-1.425-0.332-2.094
			c2.397-3.302,9.091-8.575,17.265-4.906c0.756,0.34,1.094,1.228,0.754,1.983c-0.339,0.755-1.227,1.095-1.982,0.755
			c-8.018-3.601-13.384,3.62-13.608,3.93C2.451,24.168,1.995,24.382,1.531,24.382L1.531,24.382z"/>
		<path style="fill:#333333;" d="M58.191,30.554c-0.463,0-0.918-0.213-1.213-0.614c-0.162-0.221-3.867-5.115-9.27-2.691
			c-0.756,0.339-1.643,0.002-1.982-0.754s-0.002-1.644,0.754-1.982c6.121-2.749,11.129,1.192,12.924,3.66
			c0.486,0.67,0.337,1.608-0.332,2.095C58.805,30.46,58.496,30.554,58.191,30.554L58.191,30.554z"/>
		<path style="fill:#333333;" d="M62.469,24.381c-0.463,0-0.919-0.213-1.213-0.616c-0.236-0.32-5.646-7.508-13.609-3.933
			c-0.756,0.339-1.645,0.002-1.982-0.755c-0.34-0.756-0.002-1.644,0.754-1.982C54.59,13.426,61.284,18.698,63.682,22
			c0.486,0.669,0.338,1.607-0.332,2.095C63.084,24.288,62.775,24.381,62.469,24.381L62.469,24.381z"/>
	</g>
</svg>
