<?xml version="1.0" encoding="iso-8859-1"?>
<!-- Generator: Adobe Illustrator 14.0.0, SVG Export Plug-In . SVG Version: 6.00 Build 43363)  -->
<!DOCTYPE svg PUBLIC "-//W3C//DTD SVG 1.1//EN" "http://www.w3.org/Graphics/SVG/1.1/DTD/svg11.dtd">
<svg version="1.1" id="icon-m-toolbar-forward-layer"
	 xmlns="http://www.w3.org/2000/svg" xmlns:xlink="http://www.w3.org/1999/xlink" x="0px" y="0px" width="65px" height="64px"
	 viewBox="0 0 65 64" style="enable-background:new 0 0 65 64;" xml:space="preserve">
<g id="icon-m-toolbar-forward">
	<rect x="1" style="fill:none;" width="64" height="64"/>
	<path style="fill:#FFFFFF;" d="M33,1C15.879,1,2,14.88,2,32c0,17.119,13.879,31,31,31c17.122,0,31-13.881,31-31
		C64,14.88,50.122,1,33,1z M51.564,32.862L37.283,47.639c-0.984,0.895-1.904-0.08-1.904-0.851v-8.915h-20.18
		c-0.545,0-1.146-0.429-1.143-1.14v-11.02c0-0.648,0.508-1.153,1.143-1.146l20.18-0.007v-7.395c0-0.863,1.074-1.605,1.904-0.85
		l14.285,14.85C52.07,31.621,52.072,32.407,51.564,32.862z"/>
</g>
</svg>
