<?xml version="1.0" encoding="iso-8859-1"?>
<!-- Generator: Adobe Illustrator 13.0.2, SVG Export Plug-In . SVG Version: 6.00 Build 14948)  -->
<!DOCTYPE svg PUBLIC "-//W3C//DTD SVG 1.1//EN" "http://www.w3.org/Graphics/SVG/1.1/DTD/svg11.dtd">
<svg version="1.1" xmlns="http://www.w3.org/2000/svg" xmlns:xlink="http://www.w3.org/1999/xlink" x="0px" y="0px" width="64px"
	 height="64px" viewBox="0 0 64 64" style="enable-background:new 0 0 64 64;" xml:space="preserve">
	<g id="icon-m-internet-connection-off">
		<rect style="fill:none;" width="64" height="64"/>
		<path style="fill:#333333;" d="M40.252,30.294c3.909,1.307,7.582,3.505,10.689,6.612c0.197,0.195,0.379,0.397,0.566,0.597
			l3.484-3.483c-0.188-0.201-0.369-0.404-0.564-0.598c-5.258-5.26-11.887-8.322-18.745-9.208L40.252,30.294z"/>
		<path style="fill:#333333;" d="M18.447,26.66c-3.409,1.492-6.614,3.594-9.443,6.311l3.484,3.486
			c2.679-2.555,5.75-4.465,9.016-5.73L18.447,26.66z"/>
		<path style="fill:#333333;" d="M29.645,16.181c10.912-0.497,21.988,3.405,30.303,11.72c0.194,0.195,0.376,0.398,0.565,0.598
			L64,25.011c-0.189-0.197-0.371-0.4-0.568-0.597C53.267,14.248,39.426,9.964,26.151,11.531L29.645,16.181z"/>
		<path style="fill:#333333;" d="M10.646,16.283C6.829,18.266,3.234,20.822,0,23.967l3.484,3.484
			c3.076-2.979,6.517-5.361,10.172-7.164L10.646,16.283z"/>
		<circle style="fill:#333333;" cx="33" cy="58.375" r="5.625"/>
		<path style="fill:#333333;" d="M26.458,37.318c-3.072,0.805-5.989,2.352-8.453,4.658l3.502,3.497
			c2.364-2.165,5.267-3.409,8.255-3.76L26.458,37.318z"/>
		
			<rect x="-3.722" y="29.381" transform="matrix(-0.6009 -0.7993 0.7993 -0.6009 25.6457 76.8121)" style="fill:#333333;" width="71.443" height="5.246"/>
	</g>
</svg>
