<?xml version="1.0" encoding="iso-8859-1"?>
<!-- Generator: Adobe Illustrator 13.0.2, SVG Export Plug-In . SVG Version: 6.00 Build 14948)  -->
<!DOCTYPE svg PUBLIC "-//W3C//DTD SVG 1.1//EN" "http://www.w3.org/Graphics/SVG/1.1/DTD/svg11.dtd">
<svg version="1.1" xmlns="http://www.w3.org/2000/svg" xmlns:xlink="http://www.w3.org/1999/xlink" x="0px" y="0px" width="64px"
	 height="64px" viewBox="0 0 64 64" style="enable-background:new 0 0 64 64;" xml:space="preserve">
	<g id="icon-m-telephony-call-failed">
		<rect style="fill:none;" width="64" height="64"/>
		<path style="fill:#333333;" d="M47.459,20.445c-8.383,3.938-25.034,18.572-28.993,28.944c-1.733,4.542,1.813,11.726,4.614,13.954
			c-0.002,0.011,1.441,1.209,2.521-0.017l7.55-10.164c0.514-0.659,1.018-1.522-0.021-2.553c0,0-5.225-3.759-3.712-6.161
			c1.056-1.662,11.439-12.029,13.103-13.08c2.41-1.515,6.182,3.695,6.182,3.695c1.041,1.035,1.9,0.522,2.559,0.016l10.195-7.543
			c1.229-1.09,0.021-2.523,0.014-2.523C59.225,22.24,51.881,18.373,47.459,20.445z"/>
		<path style="fill:#333333;" d="M6.229,20.447h4.638c1.22,0,2.215-0.998,2.215-2.219V3.217C13.082,1.998,12.087,1,10.867,1H6.229
			C5.012,1,4.014,1.998,4.014,3.217v15.012C4.014,19.449,5.012,20.447,6.229,20.447z"/>
		<path style="fill:#333333;" d="M8.393,27.538c-2.866,0-5.186,2.324-5.186,5.184c0,2.867,2.32,5.188,5.186,5.188
			c2.862,0,5.179-2.321,5.179-5.188C13.572,29.862,11.255,27.538,8.393,27.538z"/>
	</g>
</svg>
