<?xml version="1.0" encoding="iso-8859-1"?>
<!-- Generator: Adobe Illustrator 14.0.0, SVG Export Plug-In . SVG Version: 6.00 Build 43363)  -->
<!DOCTYPE svg PUBLIC "-//W3C//DTD SVG 1.1//EN" "http://www.w3.org/Graphics/SVG/1.1/DTD/svg11.dtd">
<svg version="1.1" id="icon-m-startup-personalize-layer"
	 xmlns="http://www.w3.org/2000/svg" xmlns:xlink="http://www.w3.org/1999/xlink" x="0px" y="0px" width="64px" height="64px"
	 viewBox="0 0 64 64" style="enable-background:new 0 0 64 64;" xml:space="preserve">
<g id="icon-m-startup-personalize">
	<rect x="4" style="fill:none;" width="64" height="64"/>
	<path style="fill:#333333;" d="M55.253,14.438l-0.019,19.971C54.057,33.938,52.446,33.75,51,34
		c-3.29,0.577-5.058,2.969-4.858,5.572c-0.044,0.386-0.05,0.775,0.019,1.168c0.485,2.736,3.387,4.866,6.84,4.26
		c3.281-0.573,5.199-3.4,5-6c0.021-0.196,0.008-0.8,0-1V21c3.086,0.376,5.4,1.563,8,3v-7C62.611,15.131,59.406,14.438,55.253,14.438
		z M40.752,39.501c0-0.763,0.094-1.552,0.296-2.331c0.22-0.839,0.54-1.55,0.862-2.135C43.514,31.366,47.416,29.471,51,29V19
		c-4.822-4.012-12.27-7-20-7C10.912,12-5.162,29.651,16,31c4.4,0.279,7,2.414,7,5c0,1.973-1.795,3.617-2.736,4.736
		C15,47,26.204,51,36,51c3.82,0,7.362-0.396,10.715-2.033c-1.178-0.67-2.242-1.495-3.136-2.479
		C41.918,44.662,40.758,42.239,40.752,39.501z M17.347,28.392c-2.885-0.241-5.037-2.781-4.795-5.667
		c0.241-2.887,2.782-5.039,5.665-4.801c2.878,0.241,5.034,2.785,4.791,5.674C22.769,26.483,20.225,28.633,17.347,28.392z
		 M25.476,20.672c0.241-2.885,2.785-5.041,5.665-4.799c2.878,0.238,5.033,2.783,4.791,5.67c-0.238,2.881-2.783,5.037-5.663,4.797
		C27.392,26.101,25.237,23.555,25.476,20.672z M33.211,45.858c-3.259,0-5.907-2.653-5.907-5.913c0-3.264,2.648-5.915,5.907-5.915
		c3.254,0,5.906,2.651,5.906,5.915C39.117,43.205,36.465,45.858,33.211,45.858z M38.795,23.345c0.241-2.885,2.781-5.038,5.665-4.797
		c2.88,0.239,5.032,2.781,4.792,5.67c-0.24,2.886-2.782,5.036-5.664,4.797C40.705,28.776,38.555,26.232,38.795,23.345z"/>
</g>
</svg>
