<?xml version="1.0" encoding="iso-8859-1"?>
<!-- Generator: Adobe Illustrator 14.0.0, SVG Export Plug-In . SVG Version: 6.00 Build 43363)  -->
<!DOCTYPE svg PUBLIC "-//W3C//DTD SVG 1.1//EN" "http://www.w3.org/Graphics/SVG/1.1/DTD/svg11.dtd">
<svg version="1.1" id="icon-m-presence-busy-layer" xmlns="http://www.w3.org/2000/svg" xmlns:xlink="http://www.w3.org/1999/xlink"
	 x="0px" y="0px" width="64px" height="64px" viewBox="0 0 64 64" style="enable-background:new 0 0 64 64;" xml:space="preserve">
<g id="icon-m-common-presence-busy">
	<rect style="fill:none;" width="64" height="64"/>
	<path style="fill:#333333;" d="M32.003,0C14.331,0,0,14.342,0,32.02C0,49.674,14.331,64,32.003,64C49.665,64,64,49.674,64,32.02
		C64,14.342,49.665,0,32.003,0z M32.002,57.6C17.863,57.6,6.4,46.139,6.4,32.016C6.4,17.875,17.863,6.4,32.002,6.4
		c14.129,0,25.599,11.475,25.599,25.615C57.601,46.139,46.131,57.6,32.002,57.6z"/>
	<path style="fill:#333333;" d="M46.106,26.363H18.169c-1.97,0-3.582,1.609-3.582,3.578v4.196c0,1.97,1.612,3.579,3.582,3.579
		h27.938c1.97,0,3.58-1.609,3.58-3.579v-4.196C49.687,27.973,48.076,26.363,46.106,26.363z"/>
</g>
</svg>
