<?xml version="1.0" encoding="iso-8859-1"?>
<!-- Generator: Adobe Illustrator 14.0.0, SVG Export Plug-In . SVG Version: 6.00 Build 43363)  -->
<!DOCTYPE svg PUBLIC "-//W3C//DTD SVG 1.1//EN" "http://www.w3.org/Graphics/SVG/1.1/DTD/svg11.dtd">
<svg version="1.1" id="icon-s-chat-layer" xmlns="http://www.w3.org/2000/svg" xmlns:xlink="http://www.w3.org/1999/xlink" x="0px"
	 y="0px" width="18px" height="18px" viewBox="0 0 18 18" style="enable-background:new 0 0 18 18;" xml:space="preserve">
<g id="icon-s-chat">
	<rect style="fill:none;" width="18" height="18"/>
	<path style="fill:#333333;" d="M16.926,0.413H1.075C0.484,0.413,0,0.896,0,1.488v11.246c0,0.59,0.484,1.074,1.075,1.074h7.963
		v3.307c0,0-0.008,0.359,0.329,0.459c0.299,0.09,0.529-0.299,0.529-0.299l2.122-3.467h4.908c0.593,0,1.074-0.484,1.074-1.074V1.488
		C18,0.896,17.519,0.413,16.926,0.413z M9.007,9.439H2.01V7.531h6.997V9.439z M16.004,5.596H2.01V3.688h13.994V5.596z"/>
</g>
</svg>
