<?xml version="1.0" encoding="iso-8859-1"?>
<!-- Generator: Adobe Illustrator 14.0.0, SVG Export Plug-In . SVG Version: 6.00 Build 43363)  -->
<!DOCTYPE svg PUBLIC "-//W3C//DTD SVG 1.1//EN" "http://www.w3.org/Graphics/SVG/1.1/DTD/svg11.dtd">
<svg version="1.1" id="icon-m-audio-layer" xmlns="http://www.w3.org/2000/svg" xmlns:xlink="http://www.w3.org/1999/xlink" x="0px"
	 y="0px" width="64px" height="64px" viewBox="0 0 64 64" style="enable-background:new 0 0 64 64;" xml:space="preserve">
<g id="icon-m-audio">
	<rect style="fill:none;" width="64" height="64"/>
	<path style="fill:#333333;" d="M64,35.449h-9.854c-0.036-1.098-0.713-1.982-1.542-1.982c-0.854,0-1.549-0.932-1.549-2.07v-0.689
		c0-1.139-0.93-2.07-2.064-2.07h-0.172c-1.137,0-2.065-0.932-2.065-2.07V16.389c0-1.139-0.192-2.07-0.429-2.07
		c-0.237,0-0.43-0.932-0.43-2.07V2.07c0-1.139-0.543-2.07-1.205-2.07c-0.663,0-1.204,0.932-1.204,2.07v10.178
		c0,1.139-0.389,2.07-0.86,2.07c-0.474,0-0.86,0.932-0.86,2.07v19.061h-5.334V22.771c0-1.139-0.929-2.07-2.064-2.07H32.99
		c-1.135,0-2.064,0.932-2.064,2.07v6.383c0,1.139-0.93,2.07-2.064,2.07s-2.065,0.932-2.065,2.07v2.154h-5.332v-2.672
		c0-1.139-0.542-2.07-1.204-2.07c-0.663,0-1.205-0.932-1.205-2.07V17.92c0-1.141-0.58-2.072-1.292-2.072s-1.294,0.932-1.294,2.072
		v12.787c0,1.139-0.85,2.07-1.89,2.07c-1.038,0-1.89,0.932-1.89,2.068v0.604H0v5.176h12.689v3.709c0,1.139,0.852,2.07,1.89,2.07
		c1.04,0,1.89,0.932,1.89,2.07v6.729c0,1.139,0.582,2.07,1.294,2.07s1.292-0.932,1.292-2.07v-6.729c0-1.139,0.542-2.07,1.205-2.07
		c0.662,0,1.204-0.932,1.204-2.07v-3.709h5.332v1.295c0,1.139,0.931,2.07,2.065,2.07s2.064,0.932,2.064,2.07v6.555
		c0,1.139,0.93,2.07,2.064,2.07h1.376c1.136,0,2.064-0.932,2.064-2.07v-11.99h5.334v13.371c0,1.139,0.387,2.07,0.86,2.07
		c0.472,0,0.86,0.932,0.86,2.07v3.795c0,1.137,0.541,2.068,1.204,2.068c0.662,0,1.205-0.932,1.205-2.068v-3.795
		c0-1.139,0.192-2.07,0.43-2.07c0.236,0,0.429-0.932,0.429-2.07v-6.729c0-1.139,0.929-2.07,2.065-2.07h0.172
		c1.135,0,2.064-0.932,2.064-2.07s0.695-2.07,1.549-2.07c0.353,0,0.673-0.164,0.933-0.432H64V35.449z"/>
</g>
</svg>
