<?xml version="1.0" encoding="iso-8859-1"?>
<!-- Generator: Adobe Illustrator 14.0.0, SVG Export Plug-In . SVG Version: 6.00 Build 43363)  -->
<!DOCTYPE svg PUBLIC "-//W3C//DTD SVG 1.1//EN" "http://www.w3.org/Graphics/SVG/1.1/DTD/svg11.dtd">
<svg version="1.1" id="icon-m-email-message-replyall-layer"
	 xmlns="http://www.w3.org/2000/svg" xmlns:xlink="http://www.w3.org/1999/xlink" x="0px" y="0px" width="64px" height="64px"
	 viewBox="0 0 64 64" style="enable-background:new 0 0 64 64;" xml:space="preserve">
<g id="icon-m-email-message-replyall">
	<rect style="fill:none;" width="64" height="64"/>
	<path style="fill:#333333;" d="M40.822,13.854v-0.248c0-3.023-2.458-5.516-5.431-5.516H6.01c-2.992,0-5.446,2.492-5.446,5.516
		v0.248l20.134,8.945L40.822,13.854z M44.267,17.768c-5.612,0-10.646,2.414-14.15,6.244l-8.822,3.908l-0.597,0.258l-0.606-0.258
		L0.563,19.262v12.211c0,3.051,2.454,5.52,5.446,5.52h19.092c0.077,10.457,8.625,18.92,19.165,18.92
		c10.583,0,19.171-8.541,19.171-19.061C63.438,26.314,54.85,17.768,44.267,17.768z M40.189,46.365c0,0.555-0.711,1.035-1.26,0.549
		l-9.44-9.582c-0.332-0.295-0.335-0.807,0.001-1.1l9.439-9.531c0.654-0.576,1.26,0.051,1.26,0.551l0.003,4.689l-4.249,4.291
		c-0.336,0.293-0.335,0.805-0.004,1.1l4.25,4.312V46.365z M58.585,40.629h-7.687v5.736c0,0.555-0.709,1.035-1.26,0.549l-9.441-9.582
		c-0.329-0.295-0.332-0.807,0.002-1.1l9.439-9.531c0.654-0.576,1.26,0.051,1.26,0.551l0.004,5.686h7.683
		c0.363,0,0.758,0.279,0.758,0.738v6.211C59.343,40.295,59.007,40.629,58.585,40.629z"/>
</g>
</svg>
