<?xml version="1.0" encoding="iso-8859-1"?>
<!-- Generator: Adobe Illustrator 13.0.2, SVG Export Plug-In . SVG Version: 6.00 Build 14948)  -->
<!DOCTYPE svg PUBLIC "-//W3C//DTD SVG 1.1//EN" "http://www.w3.org/Graphics/SVG/1.1/DTD/svg11.dtd">
<svg version="1.1" xmlns="http://www.w3.org/2000/svg" xmlns:xlink="http://www.w3.org/1999/xlink" x="0px" y="0px" width="280px"
	 height="280px" viewBox="0 0 280 280" style="enable-background:new 0 0 280 280;" xml:space="preserve">
	<g id="icon-l-myspace">
		<g>
			<path style="fill-rule:evenodd;clip-rule:evenodd;fill:#233E90;" d="M93.349,127.494v7.73c0,1.22-0.274,2.139-0.827,2.748
				c-0.548,0.61-1.278,0.916-2.189,0.916c-0.881,0-1.589-0.306-2.135-0.916c-0.55-0.609-0.818-1.528-0.818-2.748v-9.261
				c0-1.469-0.051-2.611-0.15-3.412c-0.103-0.816-0.371-1.474-0.811-1.997c-0.443-0.515-1.134-0.771-2.09-0.771
				c-1.908,0-3.168,0.65-3.773,1.952c-0.602,1.312-0.905,3.184-0.905,5.626v7.863c0,1.211-0.269,2.118-0.818,2.737
				c-0.546,0.619-1.265,0.927-2.157,0.927c-0.883,0-1.59-0.308-2.156-0.927c-0.561-0.619-0.838-1.526-0.838-2.735v-16.619
				c0-1.092,0.252-1.926,0.752-2.494c0.508-0.565,1.169-0.848,1.994-0.848c0.787,0,1.455,0.262,1.979,0.795
				c0.537,0.527,0.802,1.262,0.802,2.191v0.551c1.007-1.193,2.09-2.081,3.236-2.646c1.151-0.564,2.432-0.846,3.836-0.846
				c1.467,0,2.72,0.284,3.774,0.867c1.045,0.574,1.914,1.458,2.596,2.625c0.982-1.186,2.027-2.066,3.149-2.636
				c1.116-0.572,2.358-0.856,3.719-0.856c1.589,0,2.96,0.309,4.104,0.932c1.146,0.621,2.003,1.513,2.571,2.671
				c0.497,1.056,0.743,2.698,0.743,4.963v11.349c0,1.22-0.275,2.139-0.826,2.748c-0.554,0.61-1.286,0.916-2.195,0.916
				c-0.881,0-1.606-0.308-2.164-0.927c-0.561-0.619-0.84-1.526-0.84-2.737v-9.777c0-1.249-0.052-2.252-0.158-3.004
				c-0.106-0.759-0.395-1.387-0.858-1.893c-0.468-0.518-1.183-0.768-2.123-0.768c-0.766,0-1.489,0.229-2.179,0.679
				c-0.688,0.462-1.227,1.058-1.604,1.828C93.564,123.266,93.349,125.01,93.349,127.494L93.349,127.494z"/>
			<path style="fill-rule:evenodd;clip-rule:evenodd;fill:#233E90;" d="M117.966,139.644l0.528-1.305l-7.145-18.013
				c-0.443-1.035-0.663-1.785-0.663-2.26c0-0.493,0.129-0.959,0.389-1.381c0.253-0.426,0.601-0.768,1.054-1.021
				c0.439-0.259,0.907-0.386,1.389-0.386c0.844,0,1.467,0.267,1.893,0.799c0.428,0.535,0.803,1.293,1.129,2.287l4.914,14.294
				l4.657-13.293c0.372-1.079,0.701-1.929,0.998-2.534c0.3-0.607,0.619-1.024,0.945-1.233c0.337-0.215,0.808-0.319,1.42-0.319
				c0.439,0,0.86,0.115,1.265,0.349c0.406,0.235,0.719,0.552,0.938,0.942c0.22,0.402,0.333,0.825,0.333,1.26
				c-0.059,0.271-0.153,0.652-0.284,1.152c-0.122,0.494-0.277,1-0.464,1.508l-7.572,19.841c-0.658,1.741-1.295,3.11-1.914,4.1
				c-0.631,0.997-1.455,1.762-2.477,2.294c-1.029,0.533-2.416,0.799-4.162,0.799c-1.703,0-2.981-0.186-3.826-0.559
				c-0.854-0.371-1.28-1.034-1.28-2.01c0-0.664,0.202-1.174,0.607-1.531c0.404-0.368,1.005-0.546,1.795-0.546
				c0.315,0,0.619,0.038,0.91,0.129c0.379,0.075,0.694,0.124,0.967,0.124c0.663,0,1.185-0.098,1.568-0.293
				c0.382-0.204,0.728-0.55,1.034-1.036C117.212,141.308,117.568,140.591,117.966,139.644L117.966,139.644z"/>
			<path style="fill-rule:evenodd;clip-rule:evenodd;fill:#233E90;" d="M154.346,131.319c0,1.604-0.389,2.978-1.17,4.115
				c-0.78,1.139-1.93,2.004-3.458,2.603c-1.522,0.586-3.377,0.881-5.566,0.881c-2.09,0-3.876-0.326-5.364-0.965
				c-1.493-0.631-2.594-1.429-3.309-2.383c-0.703-0.965-1.06-1.931-1.06-2.893c0-0.64,0.229-1.179,0.679-1.636
				c0.452-0.454,1.027-0.686,1.724-0.686c0.605,0,1.071,0.155,1.397,0.452c0.326,0.293,0.642,0.71,0.935,1.256
				c0.595,1.034,1.313,1.807,2.143,2.318c0.834,0.518,1.968,0.771,3.405,0.771c1.163,0,2.117-0.255,2.869-0.779
				c0.743-0.521,1.12-1.111,1.12-1.779c0-1.022-0.391-1.772-1.165-2.238c-0.773-0.473-2.05-0.909-3.829-1.338
				c-1.999-0.499-3.622-1.022-4.881-1.568c-1.26-0.546-2.265-1.26-3.011-2.165c-0.752-0.89-1.129-1.988-1.129-3.29
				c0-1.176,0.349-2.27,1.045-3.308c0.697-1.039,1.724-1.859,3.07-2.485c1.362-0.619,2.995-0.923,4.91-0.923
				c1.506,0,2.859,0.153,4.056,0.469c1.202,0.313,2.202,0.729,3.004,1.258c0.805,0.523,1.411,1.109,1.832,1.746
				c0.415,0.637,0.624,1.26,0.624,1.879c0,0.663-0.221,1.207-0.664,1.633c-0.455,0.426-1.092,0.639-1.91,0.639
				c-0.594,0-1.104-0.166-1.52-0.502c-0.424-0.344-0.895-0.855-1.439-1.53c-0.441-0.568-0.961-1.024-1.563-1.366
				c-0.594-0.344-1.404-0.516-2.425-0.516c-1.052,0-1.928,0.223-2.629,0.67c-0.689,0.444-1.038,1.006-1.038,1.674
				c0,0.605,0.253,1.111,0.764,1.499c0.514,0.386,1.202,0.715,2.071,0.972c0.865,0.251,2.057,0.568,3.583,0.932
				c1.802,0.444,3.275,0.968,4.422,1.58c1.139,0.607,2.003,1.331,2.587,2.161C154.053,129.305,154.346,130.25,154.346,131.319
				L154.346,131.319z"/>
			<path style="fill-rule:evenodd;clip-rule:evenodd;fill:#233E90;" d="M176.019,126.984c0-1.537-0.23-2.857-0.701-3.953
				c-0.466-1.104-1.118-1.946-1.941-2.541c-0.827-0.585-1.75-0.878-2.755-0.878c-1.604,0-2.953,0.634-4.054,1.893
				c-1.096,1.264-1.646,3.128-1.646,5.586c0,2.312,0.545,4.108,1.639,5.397c1.09,1.289,2.437,1.931,4.061,1.931
				c0.96,0,1.854-0.286,2.673-0.85c0.825-0.555,1.484-1.397,1.979-2.521C175.776,129.926,176.019,128.568,176.019,126.984
				L176.019,126.984z M164.64,118.523v0.707c1.096-1.352,2.229-2.35,3.403-2.975c1.18-0.631,2.512-0.945,4-0.945
				c1.79,0,3.437,0.459,4.937,1.38c1.506,0.919,2.695,2.271,3.561,4.037c0.876,1.78,1.309,3.879,1.309,6.306
				c0,1.788-0.246,3.43-0.752,4.925c-0.499,1.502-1.196,2.754-2.065,3.763c-0.89,1.017-1.928,1.802-3.126,2.348
				c-1.2,0.546-2.487,0.82-3.862,0.82c-1.657,0-3.051-0.337-4.18-1c-1.129-0.664-2.203-1.635-3.224-2.927v8.706
				c0,2.551-0.928,3.818-2.784,3.818c-1.096,0-1.817-0.322-2.17-0.987c-0.353-0.657-0.535-1.62-0.535-2.88v-25.057
				c0-1.109,0.244-1.935,0.729-2.478c0.481-0.548,1.133-0.819,1.977-0.819c0.823,0,1.488,0.28,2.01,0.839
				C164.389,116.67,164.64,117.471,164.64,118.523L164.64,118.523z"/>
			<path style="fill-rule:evenodd;clip-rule:evenodd;fill:#233E90;" d="M200.804,127.222c-0.854,0.317-2.09,0.646-3.704,0.987
				c-1.625,0.351-2.747,0.604-3.373,0.768c-0.616,0.162-1.211,0.488-1.783,0.959c-0.568,0.47-0.848,1.14-0.848,1.987
				c0,0.883,0.328,1.631,0.992,2.249c0.674,0.613,1.539,0.919,2.617,0.919c1.147,0,2.201-0.251,3.18-0.745
				c0.965-0.508,1.672-1.156,2.134-1.953c0.521-0.878,0.785-2.329,0.785-4.339V127.222L200.804,127.222z M201.188,135.637
				c-1.406,1.085-2.764,1.908-4.072,2.453c-1.314,0.549-2.785,0.828-4.416,0.828c-1.479,0-2.795-0.295-3.92-0.881
				c-1.129-0.599-1.994-1.394-2.604-2.4c-0.607-1.01-0.911-2.099-0.911-3.279c0-1.595,0.506-2.946,1.506-4.073
				c1.01-1.122,2.394-1.87,4.157-2.256c0.364-0.091,1.278-0.277,2.74-0.581c1.46-0.3,2.706-0.572,3.745-0.823
				c1.045-0.249,2.174-0.555,3.392-0.914c-0.073-1.513-0.374-2.625-0.925-3.341c-0.55-0.719-1.68-1.07-3.395-1.07
				c-1.471,0-2.582,0.205-3.323,0.613c-0.747,0.408-1.382,1.02-1.915,1.836c-0.534,0.816-0.904,1.354-1.129,1.618
				c-0.213,0.264-0.692,0.393-1.411,0.393c-0.651,0-1.213-0.206-1.686-0.617c-0.476-0.426-0.717-0.963-0.717-1.606
				c0-1.029,0.359-2.014,1.089-2.973c0.719-0.961,1.846-1.757,3.377-2.378c1.533-0.624,3.437-0.932,5.722-0.932
				c2.552,0,4.562,0.297,6.017,0.903c1.46,0.596,2.494,1.553,3.093,2.854c0.605,1.31,0.905,3.04,0.905,5.196
				c0,1.357,0,2.516-0.012,3.465c-0.006,0.952-0.018,2.01-0.026,3.168c0,1.092,0.178,2.241,0.539,3.415
				c0.357,1.19,0.539,1.959,0.539,2.3c0,0.588-0.277,1.137-0.839,1.627c-0.561,0.49-1.195,0.736-1.902,0.736
				c-0.596,0-1.181-0.279-1.771-0.85C202.45,137.514,201.838,136.706,201.188,135.637L201.188,135.637z"/>
			<path style="fill-rule:evenodd;clip-rule:evenodd;fill:#233E90;" d="M233.241,131.705c0,0.719-0.215,1.496-0.647,2.321
				s-1.094,1.61-1.977,2.352c-0.888,0.749-2.004,1.349-3.354,1.804c-1.354,0.45-2.862,0.679-4.553,0.679
				c-3.597,0-6.398-1.048-8.41-3.14c-2.013-2.096-3.026-4.898-3.026-8.412c0-2.377,0.468-4.49,1.389-6.314
				c0.928-1.828,2.256-3.239,3.996-4.244c1.75-1.002,3.838-1.497,6.265-1.497c1.507,0,2.882,0.215,4.14,0.659
				c1.252,0.438,2.32,1.004,3.188,1.697c0.874,0.705,1.542,1.443,2.001,2.231c0.466,0.778,0.696,1.515,0.696,2.194
				c0,0.696-0.257,1.279-0.78,1.768c-0.518,0.479-1.147,0.717-1.882,0.717c-0.481,0-0.888-0.124-1.202-0.366
				c-0.319-0.248-0.679-0.647-1.072-1.198c-0.714-1.078-1.455-1.885-2.231-2.427c-0.774-0.532-1.755-0.803-2.948-0.803
				c-1.711,0-3.1,0.665-4.15,2.005c-1.05,1.343-1.571,3.168-1.571,5.489c0,1.096,0.136,2.092,0.403,3.008
				c0.271,0.914,0.662,1.69,1.168,2.332c0.517,0.65,1.131,1.134,1.852,1.474c0.726,0.328,1.518,0.492,2.39,0.492
				c1.163,0,2.156-0.271,2.984-0.811c0.836-0.531,1.565-1.353,2.205-2.457c0.359-0.648,0.734-1.163,1.151-1.531
				c0.412-0.368,0.916-0.546,1.511-0.546c0.714,0,1.298,0.267,1.771,0.804C233.006,130.525,233.241,131.093,233.241,131.705
				L233.241,131.705z"/>
			<path style="fill-rule:evenodd;clip-rule:evenodd;fill:#233E90;" d="M243.181,125.212h10.538
				c-0.14-1.977-0.679-3.454-1.606-4.435c-0.927-0.985-2.151-1.479-3.674-1.479c-1.451,0-2.629,0.5-3.561,1.494
				C243.945,121.793,243.378,123.262,243.181,125.212L243.181,125.212z M254.549,128.528h-11.368
				c0.018,1.313,0.284,2.48,0.799,3.494c0.521,1.007,1.206,1.76,2.067,2.278c0.858,0.511,1.809,0.762,2.842,0.762
				c0.694,0,1.324-0.078,1.908-0.246c0.568-0.162,1.129-0.422,1.668-0.76c0.535-0.35,1.034-0.725,1.488-1.12
				c0.455-0.393,1.039-0.937,1.771-1.624c0.292-0.255,0.719-0.384,1.273-0.384c0.596,0,1.078,0.171,1.443,0.497
				c0.371,0.324,0.558,0.785,0.558,1.38c0,0.523-0.209,1.141-0.619,1.837c-0.411,0.71-1.027,1.385-1.866,2.021
				c-0.822,0.646-1.87,1.187-3.128,1.613c-1.251,0.428-2.693,0.641-4.328,0.641c-3.729,0-6.634-1.067-8.712-3.197
				c-2.072-2.121-3.106-5.014-3.106-8.661c0-1.717,0.26-3.308,0.77-4.778c0.506-1.465,1.254-2.725,2.236-3.776
				c0.983-1.052,2.188-1.851,3.623-2.413c1.431-0.558,3.015-0.839,4.761-0.839c2.274,0,4.22,0.475,5.849,1.438
				c1.622,0.958,2.835,2.198,3.651,3.709c0.808,1.516,1.211,3.062,1.211,4.642c0,1.457-0.421,2.4-1.258,2.84
				C257.239,128.307,256.072,128.528,254.549,128.528L254.549,128.528z"/>
			<path style="fill-rule:evenodd;clip-rule:evenodd;fill:#233E90;" d="M264.51,109.107v1.977h1.193
				c0.541,0,0.945-0.064,1.236-0.209c0.274-0.135,0.414-0.419,0.414-0.834c0-0.295-0.122-0.517-0.368-0.688
				c-0.248-0.162-0.626-0.246-1.136-0.246H264.51L264.51,109.107z M264.51,115.242h-1.484v-7.291h3.454
				c0.537,0,0.987,0.08,1.36,0.251c0.359,0.173,0.635,0.415,0.82,0.729c0.189,0.307,0.279,0.677,0.279,1.085
				c0,0.518-0.175,0.961-0.523,1.336c-0.348,0.375-0.832,0.604-1.448,0.688c0.315,0.12,0.572,0.293,0.77,0.532
				c0.198,0.235,0.455,0.644,0.781,1.198l0.858,1.472h-1.842l-0.596-1.174c-0.287-0.528-0.528-0.916-0.73-1.174
				c-0.188-0.256-0.389-0.42-0.584-0.513c-0.201-0.095-0.443-0.138-0.729-0.138h-0.386V115.242L264.51,115.242z M266.143,106.037
				c-0.996,0-1.917,0.239-2.771,0.74c-0.845,0.488-1.515,1.163-2.014,2.011c-0.493,0.852-0.737,1.774-0.737,2.772
				c0,0.996,0.244,1.926,0.748,2.778c0.501,0.856,1.174,1.524,2.021,2.014c0.848,0.491,1.771,0.732,2.765,0.732
				c1.012,0,1.939-0.241,2.769-0.734c0.841-0.494,1.514-1.173,1.999-2.019c0.488-0.846,0.734-1.775,0.734-2.771
				c0-1.002-0.246-1.937-0.734-2.781c-0.485-0.848-1.158-1.518-2.005-2.011C268.074,106.276,267.152,106.037,266.143,106.037
				L266.143,106.037z M266.125,104.692c0.938,0,1.825,0.169,2.655,0.523c0.845,0.347,1.579,0.843,2.214,1.476
				c0.635,0.644,1.129,1.378,1.478,2.205c0.355,0.841,0.528,1.724,0.528,2.664c0,1.24-0.309,2.398-0.916,3.443
				c-0.612,1.065-1.449,1.904-2.503,2.512c-1.058,0.607-2.207,0.918-3.456,0.918c-1.234,0-2.392-0.311-3.441-0.918
				c-1.059-0.607-1.895-1.446-2.507-2.512c-0.61-1.045-0.921-2.203-0.921-3.443c0-1.242,0.311-2.396,0.921-3.447
				c0.612-1.056,1.444-1.893,2.5-2.507C263.733,104.994,264.878,104.692,266.125,104.692L266.125,104.692z"/>
			<path style="fill-rule:evenodd;clip-rule:evenodd;fill:#233E90;" d="M88.85,164.635c-2.387,0-3.337,0.521-3.337,1.902
				c0,0.936,0.671,1.65,1.524,1.65c0.639,0,1.236-0.315,1.813-0.93V164.635L88.85,164.635z M88.85,161.915
				c0-1.355-0.379-1.786-1.57-1.786c-0.719,0-1.624,0.218-2.672,0.619c-0.098,0.047-0.192,0.073-0.262,0.073
				c-0.117,0-0.197-0.073-0.241-0.237l-0.502-1.438c-0.022-0.064-0.049-0.178-0.049-0.25c0-0.509,2.175-1.102,4.078-1.102
				c1.881,0,3.175,0.624,3.718,1.838c0.242,0.496,0.338,1.073,0.338,1.975v4.858c0,1.052,0.14,1.739,0.545,2.585
				c0.049,0.088,0.074,0.184,0.074,0.259c0,0.089-0.074,0.188-0.191,0.235l-1.861,0.741c-0.073,0.044-0.213,0.066-0.286,0.066
				c-0.213,0-0.455-0.448-0.717-1.404c-0.949,0.972-1.806,1.357-3.046,1.357c-2.191,0-3.576-1.401-3.576-3.599
				c0-2.123,1.145-3.388,3.555-3.836c0.616-0.146,1.353-0.19,2.666-0.213V161.915L88.85,161.915z"/>
			<path style="fill-rule:evenodd;clip-rule:evenodd;fill:#233E90;" d="M103.033,167.633c0.616,0.337,1.021,0.457,1.668,0.457
				c1.549,0,2.099-1.045,2.099-4.094c0-2.629-0.601-3.798-1.907-3.798c-0.668,0-1.17,0.241-1.859,0.858V167.633L103.033,167.633z
				 M101.791,157.866c0.1-0.051,0.168-0.071,0.213-0.071c0.213,0,0.479,0.495,0.67,1.238c0.976-0.883,1.856-1.238,3.025-1.238
				c2.695,0,4.122,2.146,4.122,6.098c0,4.313-1.448,6.486-4.359,6.486c-0.951,0-1.6-0.166-2.429-0.621v4.313
				c0,0.336-0.022,0.382-0.359,0.436l-2.212,0.479L100.22,175c-0.169,0-0.215-0.091-0.215-0.379v-13.107
				c0-0.93-0.118-1.478-0.478-2.367c-0.024-0.064-0.053-0.14-0.053-0.178c0-0.102,0.053-0.152,0.244-0.222L101.791,157.866
				L101.791,157.866z"/>
			<path style="fill-rule:evenodd;clip-rule:evenodd;fill:#233E90;" d="M114.662,152.76c0.235-0.043,0.235-0.043,0.289-0.043
				c0.166,0,0.234,0.118,0.234,0.402v12.424c0,1.331,0,1.38,0.052,1.566c0.091,0.337,0.257,0.479,0.59,0.479
				c0.262,0,0.478-0.044,0.792-0.142c0.066-0.026,0.145-0.026,0.162-0.026c0.102,0,0.168,0.053,0.197,0.142l0.473,1.966l0.026,0.093
				c0.024,0.04,0.024,0.064,0.024,0.087c0,0.314-1.265,0.672-2.411,0.672c-1.38,0-2.332-0.599-2.718-1.717
				c-0.191-0.551-0.218-0.834-0.218-2.906v-12.113c0-0.26,0.129-0.399,0.364-0.448L114.662,152.76L114.662,152.76z"/>
			<path style="fill-rule:evenodd;clip-rule:evenodd;fill:#233E90;" d="M124.246,164.635c-2.387,0-3.343,0.521-3.343,1.902
				c0,0.936,0.668,1.65,1.528,1.65c0.646,0,1.24-0.315,1.814-0.93V164.635L124.246,164.635z M124.246,161.915
				c0-1.355-0.381-1.786-1.572-1.786c-0.713,0-1.624,0.218-2.674,0.619c-0.091,0.047-0.184,0.073-0.264,0.073
				c-0.117,0-0.184-0.073-0.237-0.237L119,159.146c-0.021-0.064-0.045-0.178-0.045-0.25c0-0.509,2.168-1.102,4.071-1.102
				c1.888,0,3.175,0.624,3.725,1.838c0.229,0.496,0.331,1.073,0.331,1.975v4.858c0,1.052,0.148,1.739,0.546,2.585
				c0.049,0.088,0.077,0.184,0.077,0.259c0,0.089-0.077,0.188-0.195,0.235l-1.861,0.741c-0.073,0.044-0.213,0.066-0.286,0.066
				c-0.213,0-0.448-0.448-0.712-1.404c-0.954,0.972-1.814,1.357-3.051,1.357c-2.193,0-3.576-1.401-3.576-3.599
				c0-2.123,1.145-3.388,3.548-3.836c0.625-0.146,1.359-0.19,2.675-0.213V161.915L124.246,161.915z"/>
			<path style="fill-rule:evenodd;clip-rule:evenodd;fill:#233E90;" d="M138.02,168.809c0.075,0.186,0.075,0.186,0.075,0.288
				c0,0.588-1.841,1.282-3.459,1.282c-3.239,0-5.122-2.219-5.122-6.059c0-4.049,2.094-6.525,5.5-6.525
				c1.459,0,3.387,0.764,3.387,1.352c0,0.08-0.023,0.171-0.075,0.264l-0.823,1.527c-0.053,0.098-0.148,0.17-0.219,0.17
				c-0.074,0-0.143-0.028-0.235-0.095c-0.884-0.64-1.315-0.814-2.034-0.814c-1.62,0-2.354,1.245-2.354,4.013
				c0,2.588,0.734,3.759,2.381,3.759c0.667,0,1.265-0.218,1.954-0.665c0.098-0.074,0.197-0.12,0.26-0.12
				c0.073,0,0.146,0.073,0.195,0.164L138.02,168.809L138.02,168.809z"/>
			<path style="fill-rule:evenodd;clip-rule:evenodd;fill:#233E90;" d="M145.979,162.681c-0.044-1.975-0.52-2.718-1.739-2.718
				c-1.211,0-1.764,0.761-1.977,2.718H145.979L145.979,162.681z M142.213,164.896c0.051,2.053,0.887,3,2.65,3
				c0.877,0,1.811-0.264,2.718-0.734c0.118-0.073,0.235-0.102,0.304-0.102c0.125,0,0.197,0.075,0.265,0.226l0.597,1.42
				c0.08,0.146,0.08,0.171,0.08,0.269c0,0.26-0.2,0.401-0.985,0.732c-1.045,0.459-2.118,0.672-3.29,0.672
				c-1.521,0-2.713-0.381-3.55-1.167c-1.147-1.024-1.788-2.862-1.788-5.031c0-3.834,2.074-6.386,5.218-6.386
				c3.15,0,4.722,2.168,4.722,6.506c0,0.475-0.092,0.596-0.526,0.596H142.213L142.213,164.896z"/>
			<path style="fill-rule:evenodd;clip-rule:evenodd;fill:#233E90;" d="M157.137,157.196c0-1.619,0.213-2.458,0.785-3.163
				c0.715-0.886,1.719-1.316,3.028-1.316c1.453,0,2.908,0.431,2.908,0.859c0,0.044,0,0.044-0.044,0.186l-0.433,1.695
				c-0.052,0.12-0.118,0.213-0.218,0.213c-0.063,0-0.142-0.02-0.23-0.07c-0.53-0.235-0.956-0.333-1.434-0.333
				c-0.55,0-0.932,0.169-1.146,0.501c-0.162,0.262-0.188,0.479-0.188,1.429v1.003h2.711c0.288,0,0.41,0.075,0.41,0.24
				c0,0.021-0.022,0.163-0.049,0.236l-0.333,1.383c-0.072,0.257-0.19,0.354-0.45,0.354h-2.289v9.154
				c0,0.353-0.052,0.403-0.406,0.403h-2.219c-0.353,0-0.403-0.051-0.403-0.403v-9.154h-1.814c-0.404,0-0.404,0-0.404-0.572v-1.313
				c0-0.253,0.1-0.328,0.404-0.328h1.814V157.196L157.137,157.196z"/>
			<path style="fill-rule:evenodd;clip-rule:evenodd;fill:#233E90;" d="M167.027,164.088c0,2.76,0.572,3.882,1.954,3.882
				c1.404,0,1.977-1.138,1.977-3.864c0-2.809-0.572-3.907-1.997-3.907C167.6,160.198,167.027,161.343,167.027,164.088
				L167.027,164.088z M174.184,164.063c0,3.89-1.983,6.316-5.174,6.316c-3.27,0-5.195-2.338-5.195-6.291
				c0-1.957,0.448-3.435,1.382-4.555c1.022-1.219,2.19-1.738,3.909-1.738C172.227,157.795,174.184,160.198,174.184,164.063
				L174.184,164.063z"/>
			<path style="fill-rule:evenodd;clip-rule:evenodd;fill:#233E90;" d="M178.108,157.866c0.195-0.071,0.195-0.071,0.286-0.071
				c0.286,0,0.648,0.715,0.905,1.859c0.503-0.572,0.572-0.686,0.814-0.932c0.595-0.597,1.357-0.928,2.167-0.928
				c0.715,0,1.355,0.265,1.355,0.52c0,0.073-0.018,0.164-0.047,0.269l-0.736,1.924c-0.044,0.146-0.117,0.217-0.19,0.217
				c-0.051,0-0.096-0.018-0.164-0.048c-0.335-0.116-0.673-0.189-0.958-0.189c-0.495,0-1.09,0.357-1.809,1.143v7.938
				c0,0.353-0.045,0.403-0.406,0.403h-2.216c-0.355,0-0.404-0.051-0.404-0.403v-7.244c0-1.359-0.148-2.032-0.716-3.316
				c-0.021-0.071-0.049-0.14-0.049-0.213c0-0.098,0.093-0.191,0.241-0.235L178.108,157.866L178.108,157.866z"/>
			<path style="fill-rule:evenodd;clip-rule:evenodd;fill:#233E90;" d="M190.579,157.196c0-1.619,0.215-2.458,0.783-3.163
				c0.719-0.886,1.722-1.316,3.03-1.316c1.453,0,2.908,0.431,2.908,0.859c0,0.044,0,0.044-0.051,0.186l-0.428,1.695
				c-0.049,0.12-0.118,0.213-0.213,0.213c-0.071,0-0.146-0.02-0.242-0.07c-0.521-0.235-0.954-0.333-1.427-0.333
				c-0.548,0-0.932,0.169-1.151,0.501c-0.162,0.262-0.184,0.479-0.184,1.429v1.003h2.711c0.293,0,0.41,0.075,0.41,0.24
				c0,0.021-0.022,0.163-0.045,0.236l-0.342,1.383c-0.068,0.257-0.186,0.354-0.443,0.354h-2.291v9.154
				c0,0.353-0.045,0.403-0.406,0.403h-2.217c-0.359,0-0.403-0.051-0.403-0.403v-9.154h-1.817c-0.401,0-0.401,0-0.401-0.572v-1.313
				c0-0.253,0.093-0.328,0.401-0.328h1.817V157.196L190.579,157.196z"/>
			<path style="fill-rule:evenodd;clip-rule:evenodd;fill:#233E90;" d="M199.804,157.866c0.187-0.071,0.187-0.071,0.281-0.071
				c0.286,0,0.646,0.715,0.905,1.859c0.502-0.572,0.579-0.686,0.814-0.932c0.597-0.597,1.357-0.928,2.168-0.928
				c0.714,0,1.361,0.265,1.361,0.52c0,0.073-0.031,0.164-0.046,0.269l-0.748,1.924c-0.044,0.146-0.117,0.217-0.185,0.217
				c-0.053,0-0.102-0.018-0.17-0.048c-0.338-0.116-0.668-0.189-0.947-0.189c-0.506,0-1.101,0.357-1.817,1.143v7.938
				c0,0.353-0.049,0.403-0.403,0.403h-2.219c-0.357,0-0.402-0.051-0.402-0.403v-7.244c0-1.359-0.142-2.032-0.714-3.316
				c-0.022-0.071-0.058-0.14-0.058-0.213c0-0.098,0.104-0.191,0.242-0.235L199.804,157.866L199.804,157.866z"/>
			<path style="fill-rule:evenodd;clip-rule:evenodd;fill:#233E90;" d="M211.533,154.689c0,1.078-0.861,1.935-1.933,1.935
				c-1.073,0-1.933-0.856-1.933-1.952c0-1.052,0.881-1.912,1.955-1.912C210.672,152.76,211.533,153.643,211.533,154.689
				L211.533,154.689z M206.355,160.413c-0.355,0-0.406-0.04-0.406-0.401v-1.409c0-0.358,0.051-0.403,0.406-0.403h4.437
				c0.353,0,0.403,0.045,0.403,0.403v10.965c0,0.353-0.051,0.403-0.403,0.403h-2.219c-0.359,0-0.405-0.051-0.405-0.403v-9.154
				H206.355L206.355,160.413z"/>
			<path style="fill-rule:evenodd;clip-rule:evenodd;fill:#233E90;" d="M220.533,162.681c-0.042-1.975-0.519-2.718-1.736-2.718
				c-1.214,0-1.771,0.761-1.979,2.718H220.533L220.533,162.681z M216.769,164.896c0.049,2.053,0.886,3,2.649,3
				c0.876,0,1.814-0.264,2.713-0.734c0.124-0.073,0.242-0.102,0.309-0.102c0.124,0,0.197,0.075,0.264,0.226l0.602,1.42
				c0.066,0.146,0.066,0.171,0.066,0.269c0,0.26-0.19,0.401-0.979,0.732c-1.043,0.459-2.116,0.672-3.283,0.672
				c-1.526,0-2.718-0.381-3.55-1.167c-1.151-1.024-1.792-2.862-1.792-5.031c0-3.834,2.074-6.386,5.225-6.386
				c3.139,0,4.716,2.168,4.716,6.506c0,0.475-0.095,0.596-0.527,0.596H216.769L216.769,164.896z"/>
			<path style="fill-rule:evenodd;clip-rule:evenodd;fill:#233E90;" d="M227.95,157.72c0.066-0.018,0.19-0.044,0.235-0.044
				c0.293,0,0.599,0.599,0.86,1.642c1.196-1.092,2.219-1.522,3.576-1.522c2.124,0,3.073,1.174,3.073,3.764v8.009
				c0,0.353-0.045,0.403-0.399,0.403h-2.226c-0.353,0-0.396-0.051-0.396-0.403v-7.344c0-1.402-0.411-1.997-1.36-1.997
				c-0.69,0-1.24,0.26-2.077,0.98v8.36c0,0.353-0.046,0.403-0.405,0.403h-2.217c-0.359,0-0.405-0.051-0.405-0.403v-8.009
				c0-1.023-0.164-1.882-0.5-2.59c-0.046-0.102-0.068-0.175-0.068-0.246c0-0.068,0.068-0.164,0.187-0.213L227.95,157.72
				L227.95,157.72z"/>
			<path style="fill-rule:evenodd;clip-rule:evenodd;fill:#233E90;" d="M244.826,160.631c-0.576-0.284-1.122-0.433-1.717-0.433
				c-1.506,0-2.052,1.05-2.052,3.934c0,2.769,0.546,3.909,1.858,3.909c0.737,0,1.383-0.289,1.91-0.832V160.631L244.826,160.631z
				 M246.131,170.237c-0.091,0.049-0.164,0.068-0.23,0.068c-0.242,0-0.506-0.499-0.646-1.209c-1.052,0.853-2.196,1.282-3.337,1.282
				c-2.482,0-3.887-2.219-3.887-6.078c0-2.334,0.426-3.91,1.404-5.074c0.792-0.937,1.809-1.432,3.035-1.432
				c0.83,0,1.497,0.191,2.355,0.666v-4.841c0-0.306,0.019-0.359,0.355-0.426l2.217-0.455l0.219-0.022
				c0.164,0,0.238,0.118,0.238,0.402v13.926c0,0.996,0.044,1.191,0.426,2.052c0.021,0.064,0.051,0.115,0.051,0.115
				c0,0.12-0.08,0.187-0.218,0.237L246.131,170.237L246.131,170.237z"/>
			<path style="fill-rule:evenodd;clip-rule:evenodd;fill:#233E90;" d="M250.996,167.185c0.049-0.169,0.143-0.235,0.24-0.235
				c0.046,0,0.121,0.022,0.213,0.066c1.265,0.697,2.338,1.025,3.248,1.025c0.829,0,1.38-0.497,1.38-1.242
				c0-0.664-0.286-0.928-1.837-1.5c-1.526-0.595-2.051-0.874-2.482-1.287c-0.619-0.59-0.954-1.397-0.954-2.332
				c0-2.285,1.771-3.885,4.246-3.885c1.497,0,3.649,0.645,3.649,1.102c0,0.072-0.026,0.159-0.071,0.25l-0.604,1.36
				c-0.066,0.146-0.14,0.217-0.232,0.217c-0.047,0-0.12-0.018-0.187-0.048c-0.91-0.404-1.742-0.617-2.409-0.617
				c-0.983,0-1.528,0.428-1.528,1.213c0,0.644,0.264,0.881,1.577,1.387c1.766,0.688,2.259,0.954,2.765,1.43
				c0.618,0.616,0.971,1.481,0.971,2.429c0,1.027-0.403,2.052-1.096,2.767c-0.712,0.738-1.668,1.096-2.926,1.096
				c-1.34,0-2.818-0.357-4.056-1.003c-0.433-0.215-0.526-0.279-0.526-0.452c0-0.098,0.027-0.146,0.074-0.284L250.996,167.185
				L250.996,167.185z"/>
		</g>
		<g>
			<path style="fill-rule:evenodd;clip-rule:evenodd;fill:#233E90;" d="M53.764,130.561c5.5,0,9.959-4.459,9.959-9.963
				c0-5.5-4.459-9.969-9.959-9.969c-5.504,0-9.964,4.469-9.964,9.969C43.8,126.102,48.26,130.561,53.764,130.561L53.764,130.561z"/>
			<path style="fill-rule:evenodd;clip-rule:evenodd;fill:#233E90;" d="M45.608,140.158c0-5.504-4.464-9.966-9.964-9.966
				c-5.504,0-9.961,4.462-9.961,9.966c0,0.227,0.013,0.448,0.031,0.67h-0.031v17.265h19.925v-17.265h-0.034
				C45.59,140.606,45.608,140.385,45.608,140.158L45.608,140.158z"/>
			<path style="fill-rule:evenodd;clip-rule:evenodd;fill:#233E90;" d="M35.645,128.87c4.033,0,7.304-3.274,7.304-7.308
				s-3.271-7.302-7.304-7.302s-7.306,3.269-7.306,7.302S31.611,128.87,35.645,128.87L35.645,128.87z"/>
			<path style="fill-rule:evenodd;clip-rule:evenodd;fill:#233E90;" d="M67.35,145.957c0-7.498-6.083-13.591-13.586-13.591
				c-7.508,0-13.591,6.093-13.591,13.591c0,0.309,0.026,0.604,0.044,0.908h-0.044v23.549H67.35v-23.549h-0.049
				C67.323,146.561,67.35,146.266,67.35,145.957L67.35,145.957z"/>
			<path style="fill-rule:evenodd;clip-rule:evenodd;fill:#233E90;" d="M21.146,129.105c-4.502,0-8.146,3.651-8.146,8.153
				c0,0.188,0.018,0.366,0.026,0.548H13v14.13h16.302v-14.13h-0.026c0.014-0.182,0.026-0.359,0.026-0.548
				C29.302,132.757,25.661,129.105,21.146,129.105L21.146,129.105z"/>
			<path style="fill-rule:evenodd;clip-rule:evenodd;fill:#233E90;" d="M21.146,128.027c3.306,0,5.983-2.678,5.983-5.983
				c0-3.3-2.678-5.975-5.983-5.975c-3.297,0-5.975,2.675-5.975,5.975C15.172,125.35,17.85,128.027,21.146,128.027L21.146,128.027z"
				/>
		</g>
		<rect id="_x3C_Slice_x3E__16_" style="fill:none;" width="280" height="280"/>
		<rect style="fill:none;" width="280" height="280"/>
	</g>
</svg>
