<?xml version="1.0" encoding="iso-8859-1"?>
<!-- Generator: Adobe Illustrator 14.0.0, SVG Export Plug-In . SVG Version: 6.00 Build 43363)  -->
<!DOCTYPE svg PUBLIC "-//W3C//DTD SVG 1.1//EN" "http://www.w3.org/Graphics/SVG/1.1/DTD/svg11.dtd">
<svg version="1.1" id="icon-m-content-playlist-layer"
	 xmlns="http://www.w3.org/2000/svg" xmlns:xlink="http://www.w3.org/1999/xlink" x="0px" y="0px" width="64px" height="64px"
	 viewBox="0 0 64 64" style="enable-background:new 0 0 64 64;" xml:space="preserve">
<g id="icon-m-content-playlist">
	<g id="icon-m-content-audio_3_">
		<rect style="fill:none;" width="64" height="64"/>
	</g>
	<g>
		<path style="fill:#333333;" d="M58.039,4.616H21.276c-1.1,0-2.02,0.899-2.02,2l-0.003,35.73c-2.667-0.957-6.1-0.644-9.254,1.118
			c-5.133,2.839-7.403,8.191-5.197,12.188c2.217,4.004,7.977,4.925,13.101,2.087c3.389-1.88,5.63-4.867,6.035-7.836
			c0.025-0.325,0.058-0.495,0.058-0.737l0.014-28.781c0-1.1,0.92-2,2.02-2h32.009c1.1,0,2-0.9,2-2V6.616
			C60.039,5.516,59.139,4.616,58.039,4.616z"/>
		<rect x="30.703" y="24.385" style="fill:#333333;" width="27" height="6"/>
		<rect x="30.703" y="36.385" style="fill:#333333;" width="27" height="6"/>
	</g>
</g>
</svg>
