<?xml version="1.0" encoding="iso-8859-1"?>
<!-- Generator: Adobe Illustrator 14.0.0, SVG Export Plug-In . SVG Version: 6.00 Build 43363)  -->
<!DOCTYPE svg PUBLIC "-//W3C//DTD SVG 1.1//EN" "http://www.w3.org/Graphics/SVG/1.1/DTD/svg11.dtd">
<svg version="1.1" id="icon-l-video-layer" xmlns="http://www.w3.org/2000/svg" xmlns:xlink="http://www.w3.org/1999/xlink" x="0px"
	 y="0px" width="64px" height="63px" viewBox="0 0 64 63" style="enable-background:new 0 0 64 63;" xml:space="preserve">
<g id="icon-l-video">
	<rect style="fill:none;" width="63.002" height="63"/>
	<g>
		<path style="opacity:0.2;fill:#010101;" d="M55.545,31.223V9.806c-0.025-0.504-0.348-1.491-1.584-1.581H3.682
			C3.173,8.239,2.26,8.514,2.103,9.806v41.102c0.009,0.68,0.551,1.543,1.579,1.581h28.458c4.938,7.003,15.141,9.281,22.703,3.494
			C62.873,49.842,63.254,37.842,55.545,31.223z"/>
		<path style="opacity:0.5;fill:#010101;" d="M58.904,39.123L3.682,48.896v2.013h29.305c2.539,4.058,7.037,6.768,12.177,6.768
			c7.939,0,14.363-6.427,14.363-14.363C59.527,41.854,59.309,40.445,58.904,39.123z"/>
		<linearGradient id="SVGID_1_" gradientUnits="userSpaceOnUse" x1="28.8232" y1="17.7441" x2="28.8232" y2="64.1495">
			<stop  offset="0" style="stop-color:#E3E3E3"/>
			<stop  offset="1" style="stop-color:#414141"/>
		</linearGradient>
		<rect x="3.682" y="8.225" style="fill:url(#SVGID_1_);" width="50.283" height="41.103"/>
		<rect x="11.842" y="41.486" style="fill:#1A1A1A;" width="4.705" height="4.704"/>
		<rect x="21.662" y="41.486" style="fill:#1A1A1A;" width="4.705" height="4.704"/>
		<rect x="3.682" y="41.486" style="fill:#1A1A1A;" width="3.042" height="4.704"/>
		<rect x="3.682" y="18.067" style="opacity:0.4;" width="12.865" height="21.413"/>
		<polygon style="opacity:0.4;" points="53.965,30.78 51.127,28.89 51.127,18.067 53.965,18.067 		"/>
		<polygon style="opacity:0.4;" points="46.006,27.731 31.194,39.48 21.662,39.48 21.662,18.067 46.006,18.067 		"/>
		<polygon style="opacity:0.3;fill:#FFFFFF;" points="53.965,14.353 53.965,8.225 3.682,8.225 3.682,37.77 		"/>
		<rect x="11.842" y="11.227" style="fill:#1A1A1A;" width="4.705" height="4.705"/>
		<rect x="21.662" y="11.227" style="fill:#1A1A1A;" width="4.705" height="4.705"/>
		<rect x="31.487" y="11.227" style="fill:#1A1A1A;" width="4.699" height="4.705"/>
		<rect x="41.307" y="11.227" style="fill:#1A1A1A;" width="4.699" height="4.705"/>
		<rect x="51.127" y="11.227" style="fill:#1A1A1A;" width="2.838" height="4.705"/>
		<rect x="3.682" y="11.227" style="fill:#1A1A1A;" width="3.042" height="4.705"/>
		<path style="opacity:0.3;fill:#010101;" d="M53.965,30.896v-2.43c-0.035-0.028-0.055-0.066-0.094-0.093
			c-2.504-1.641-5.496-2.593-8.705-2.593c-8.795,0-15.949,7.155-15.949,15.949c0,2.746,0.697,5.336,1.927,7.596
			c0,0.001,0,0.001,0,0.001h3.012L53.965,30.896z"/>
		<linearGradient id="SVGID_2_" gradientUnits="userSpaceOnUse" x1="45.1621" y1="27.3613" x2="45.1621" y2="56.0991">
			<stop  offset="0" style="stop-color:#FFFFFF"/>
			<stop  offset="1" style="stop-color:#B3B3B3"/>
		</linearGradient>
		<path style="fill:url(#SVGID_2_);" d="M59.527,41.73c0,7.935-6.424,14.368-14.363,14.368c-7.934,0-14.368-6.434-14.368-14.368
			c0-7.933,6.435-14.369,14.368-14.369C53.104,27.361,59.527,33.798,59.527,41.73z"/>
		<linearGradient id="SVGID_3_" gradientUnits="userSpaceOnUse" x1="47.46" y1="52.7178" x2="47.46" y2="23.9885">
			<stop  offset="0" style="stop-color:#43B649"/>
			<stop  offset="0.1067" style="stop-color:#52B848"/>
			<stop  offset="0.4025" style="stop-color:#6CBE45"/>
			<stop  offset="0.7001" style="stop-color:#7AC143"/>
			<stop  offset="1" style="stop-color:#7EC242"/>
		</linearGradient>
		<polygon style="fill:url(#SVGID_3_);" points="41.113,34.704 41.113,48.995 53.807,41.849 		"/>
		<path style="fill:#FFFFFF;" d="M41.775,50.173l12.697-7.146c0.727-0.407,0.686-1.164,0.686-1.222l-1.352,0.044l-12.693,7.146
			l-0.688,1.167C40.85,50.412,41.369,50.405,41.775,50.173z"/>
		<path style="opacity:0.2;" d="M41.113,34.704l12.693,7.145l1.352-0.044c-0.016-0.473-0.273-0.906-0.686-1.141L41.775,33.52
			c-0.902-0.513-2.023,0.152-2.023,1.182v14.294c0,0.473,0.26,0.928,0.674,1.167l0.688-1.167"/>
	</g>
</g>
</svg>
