<?xml version="1.0" encoding="iso-8859-1"?>
<!-- Generator: Adobe Illustrator 14.0.0, SVG Export Plug-In . SVG Version: 6.00 Build 43363)  -->
<!DOCTYPE svg PUBLIC "-//W3C//DTD SVG 1.1//EN" "http://www.w3.org/Graphics/SVG/1.1/DTD/svg11.dtd">
<svg version="1.1" id="icon-m-organizer-note-create-layer"
	 xmlns="http://www.w3.org/2000/svg" xmlns:xlink="http://www.w3.org/1999/xlink" x="0px" y="0px" width="64px" height="64px"
	 viewBox="0 0 64 64" style="enable-background:new 0 0 64 64;" xml:space="preserve">
<g id="icon-m-organizer-note-create">
	<rect style="fill:none;" width="64" height="64"/>
	<path style="fill:#333333;" d="M22,46c0-8.314,4.251-15.652,10.692-19.961H6.967v-4.856h33.066v1.568
		C41.941,22.262,43.941,22,46,22c0.336,0,0.668,0.012,1,0.025V2.186C47,0.983,46.016,0,44.814,0h-4.189v2.403
		c0,1.277-1.045,2.322-2.322,2.322h-1.355c-1.277,0-2.322-1.045-2.322-2.322V0H26.5v2.403c0,1.277-1.045,2.322-2.322,2.322h-1.355
		c-1.277,0-2.322-1.045-2.322-2.322V0h-8.125v2.403c0,1.277-1.045,2.322-2.322,2.322H8.697c-1.277,0-2.322-1.045-2.322-2.322V0
		H2.186C0.983,0,0,0.983,0,2.186v45.907c0,1.203,0.983,2.187,2.186,2.187H22.39C22.138,48.89,22,47.461,22,46z M6.967,12.039h33.066
		v4.856H6.967V12.039z M6.967,30.183h16v4.856h-16V30.183z"/>
	<path style="fill:#333333;" d="M46,28c-9.941,0-18,8.059-18,18c0,9.94,8.059,18,18,18c9.939,0,18-8.06,18-18
		C64,36.059,55.939,28,46,28z M56.799,48.866h-7.842V56.8h-5.871v-7.934h-7.887v-5.824h7.887V35.2h5.871v7.842h7.842V48.866z"/>
</g>
</svg>
