<?xml version="1.0" encoding="iso-8859-1"?>
<!-- Generator: Adobe Illustrator 13.0.2, SVG Export Plug-In . SVG Version: 6.00 Build 14948)  -->
<!DOCTYPE svg PUBLIC "-//W3C//DTD SVG 1.1//EN" "http://www.w3.org/Graphics/SVG/1.1/DTD/svg11.dtd">
<svg version="1.1" xmlns="http://www.w3.org/2000/svg" xmlns:xlink="http://www.w3.org/1999/xlink" x="0px" y="0px" width="18px"
	 height="18px" viewBox="0 0 18 18" style="enable-background:new 0 0 18 18;" xml:space="preserve">
	<g id="icon-s-maps">
		<rect style="fill:none;" width="18" height="18"/>
		<path style="fill:#333333;" d="M9.002,0C4.031,0,0,4.029,0,8.999C0,13.971,4.031,18,9.002,18C13.971,18,18,13.971,18,8.999
			C18,4.029,13.971,0,9.002,0z M9.002,16.241c-4.001-0.008-7.234-3.243-7.242-7.242c0.006-4,3.242-7.233,7.242-7.241
			c3.997,0.008,7.232,3.241,7.24,7.241C16.234,12.999,12.999,16.233,9.002,16.241z"/>
		<polygon style="fill:#333333;" points="14.883,8.989 9.709,8.279 9.478,8.279 9.461,8.266 3.771,6.082 6.665,8.503 3.117,8.989 
			8.055,9.665 8.317,9.885 9.002,14.873 9.607,10.438 14.136,12.176 10.967,9.525 		"/>
		<polygon style="fill:#333333;" points="8.372,4.211 9.765,6.434 9.809,6.434 10.157,6.434 10.238,6.434 10.238,3.078 9.621,3.078 
			9.621,5.236 8.263,3.078 7.754,3.078 7.754,6.434 8.372,6.434 		"/>
	</g>
</svg>
