<?xml version="1.0" encoding="iso-8859-1"?>
<!-- Generator: Adobe Illustrator 14.0.0, SVG Export Plug-In . SVG Version: 6.00 Build 43363)  -->
<!DOCTYPE svg PUBLIC "-//W3C//DTD SVG 1.1//EN" "http://www.w3.org/Graphics/SVG/1.1/DTD/svg11.dtd">
<svg version="1.1" id="icon-s-status-bluetooth-active-layer"
	 xmlns="http://www.w3.org/2000/svg" xmlns:xlink="http://www.w3.org/1999/xlink" x="0px" y="0px" width="14px" height="18px"
	 viewBox="0 0 14 18" style="enable-background:new 0 0 14 18;" xml:space="preserve">
<g id="icon-s-status-bluetooth-active">
	<polygon style="fill:#FFFFFF;" points="8.861,5.033 8.861,6.876 9.783,5.954 	"/>
	<polygon style="fill:#FFFFFF;" points="8.861,13.047 9.836,12.072 8.861,11.099 	"/>
	<path style="fill:#FFFFFF;" d="M7.896,0C4.094,0,1,4.037,1,9s3.094,9,6.896,9c3.805,0,6.898-4.037,6.898-9S11.701,0,7.896,0z
		 M7.143,17.103V11.03l-2.357,2.356L3.568,12.17l3.177-3.176L3.638,5.875l1.217-1.217l2.288,2.288V0.897l5.084,5.069L9.176,8.996
		l3.053,3.031L7.143,17.103z"/>
</g>
</svg>
