<?xml version="1.0" encoding="iso-8859-1"?>
<!-- Generator: Adobe Illustrator 13.0.2, SVG Export Plug-In . SVG Version: 6.00 Build 14948)  -->
<!DOCTYPE svg PUBLIC "-//W3C//DTD SVG 1.1//EN" "http://www.w3.org/Graphics/SVG/1.1/DTD/svg11.dtd">
<svg version="1.1" xmlns="http://www.w3.org/2000/svg" xmlns:xlink="http://www.w3.org/1999/xlink" x="0px" y="0px" width="88px"
	 height="88px" viewBox="0 0 88 88" style="enable-background:new 0 0 88 88;" xml:space="preserve">
	<g id="icon-m-facebook">
		<rect style="fill:#3C5A98;" width="88" height="88"/>
		<rect x="7" y="69" style="fill:#FFFFFF;fill-opacity:0.3;" width="74" height="13"/>
		<polyline id="_x3C_Slice_x3E__20_" style="fill:none;" points="88,88 0,88 0,0 88,0 		"/>
		<path style="fill-rule:evenodd;clip-rule:evenodd;fill:#FFFFFF;" d="M72.629,48.139c0.543-3.809,0.95-7.758,1.225-11.836
			c-3.546,0-7.081,0-10.624,0c0.504-3.574-0.871-7.049,0.609-9.189c1.689-2.438,6.189-0.652,10.015-1.223c0-3.947,0-7.896,0-11.842
			c-9.044,0.012-16.847-0.789-21.229,3.67c-3.906,3.978-3.563,10.707-3.885,18.584c-2.244,0-4.495,0-6.739,0
			c0,3.947,0,7.889,0,11.836c2.25,0.137,5.037-0.271,6.941,0.204c0,10.354,0,23.299,0,33.657c4.766,0,9.531,0,14.288,0
			c0.136-11.295-0.273-22.906,0.202-33.861C66.5,48.139,69.56,48.139,72.629,48.139z"/>
	</g>
</svg>
