<?xml version="1.0" encoding="iso-8859-1"?>
<!-- Generator: Adobe Illustrator 13.0.2, SVG Export Plug-In . SVG Version: 6.00 Build 14948)  -->
<!DOCTYPE svg PUBLIC "-//W3C//DTD SVG 1.1//EN" "http://www.w3.org/Graphics/SVG/1.1/DTD/svg11.dtd">
<svg version="1.1" xmlns="http://www.w3.org/2000/svg" xmlns:xlink="http://www.w3.org/1999/xlink" x="0px" y="0px" width="31.23px"
	 height="42.377px" viewBox="0 0 31.23 42.377" style="enable-background:new 0 0 31.23 42.377;" xml:space="preserve">
	<g id="icon-m-common-wlan-weak">
		<path style="fill:#343434;" d="M29.23,35.82h-6.021l-5.523-23.152c2.422-0.904,4.174-3.266,4.174-6.117
			C21.859,2.928,19.068,0,15.615,0c-3.452,0-6.251,2.928-6.251,6.551c0,2.852,1.743,5.206,4.161,6.117L8.021,35.82H2
			c-1.1,0-2,0.9-2,2v2.557c0,1.1,0.9,2,2,2h27.23c1.1,0,2-0.9,2-2V37.82C31.23,36.721,30.33,35.82,29.23,35.82"/>
	</g>
</svg>
