<?xml version="1.0" encoding="iso-8859-1"?>
<!-- Generator: Adobe Illustrator 13.0.2, SVG Export Plug-In . SVG Version: 6.00 Build 14948)  -->
<!DOCTYPE svg PUBLIC "-//W3C//DTD SVG 1.1//EN" "http://www.w3.org/Graphics/SVG/1.1/DTD/svg11.dtd">
<svg version="1.1" xmlns="http://www.w3.org/2000/svg" xmlns:xlink="http://www.w3.org/1999/xlink" x="0px" y="0px" width="64px"
	 height="64px" viewBox="0 0 64 64" style="enable-background:new 0 0 64 64;" xml:space="preserve">
	<g id="icon-m-input-methods-menu">
		<rect style="fill:none;" width="64" height="64"/>
		<path style="fill:#333333;" d="M59.837,13.936H4.16c-2.207,0-4.005,1.803-4.005,4.018v28.098c0,2.215,1.798,4.014,4.002,4.014
			h55.68c2.21,0,4-1.799,4.008-4.014V17.953C63.845,15.738,62.052,13.936,59.837,13.936z M15.095,41.264H8.901V35.07h6.193V41.264z
			 M15.095,28.93H8.901v-6.193h6.193V28.93z M55.099,41.264H22.765V35.07h32.334V41.264z M55.099,28.93H22.765v-6.193h32.334V28.93z
			"/>
	</g>
</svg>
