<?xml version="1.0" encoding="iso-8859-1"?>
<!-- Generator: Adobe Illustrator 14.0.0, SVG Export Plug-In . SVG Version: 6.00 Build 43363)  -->
<!DOCTYPE svg PUBLIC "-//W3C//DTD SVG 1.1//EN" "http://www.w3.org/Graphics/SVG/1.1/DTD/svg11.dtd">
<svg version="1.1" id="icon-m-framework-grid-layer"
	 xmlns="http://www.w3.org/2000/svg" xmlns:xlink="http://www.w3.org/1999/xlink" x="0px" y="0px" width="64px" height="64px"
	 viewBox="0 0 64 64" style="enable-background:new 0 0 64 64;" xml:space="preserve">
<g id="icon-m-framework-grid">
	<rect style="fill:none;" width="64" height="64"/>
	<g>
		<g>
			<path style="fill:#FFFFFF;" d="M36.434,22.656c0,1.1-0.9,2-2,2h-4.393c-1.1,0-2-0.9-2-2v-4.395c0-1.1,0.9-2,2-2h4.393
				c1.1,0,2,0.9,2,2V22.656z"/>
		</g>
		<g>
			<path style="fill:#FFFFFF;" d="M48.5,22.656c0,1.1-0.9,2-2,2h-4.394c-1.1,0-2-0.9-2-2v-4.395c0-1.1,0.9-2,2-2H46.5
				c1.1,0,2,0.9,2,2V22.656z"/>
		</g>
		<g>
			<path style="fill:#FFFFFF;" d="M24.894,34.197c0,1.1-0.9,2-2,2H18.5c-1.1,0-2-0.9-2-2v-4.395c0-1.1,0.9-2,2-2h4.394
				c1.1,0,2,0.9,2,2V34.197z"/>
		</g>
		<g>
			<path style="fill:#FFFFFF;" d="M36.434,34.197c0,1.1-0.9,2-2,2h-4.393c-1.1,0-2-0.9-2-2v-4.395c0-1.1,0.9-2,2-2h4.393
				c1.1,0,2,0.9,2,2V34.197z"/>
		</g>
		<g>
			<path style="fill:#FFFFFF;" d="M48.5,34.197c0,1.1-0.9,2-2,2h-4.394c-1.1,0-2-0.9-2-2v-4.395c0-1.1,0.9-2,2-2H46.5
				c1.1,0,2,0.9,2,2V34.197z"/>
		</g>
		<g>
			<path style="fill:#FFFFFF;" d="M24.894,45.738c0,1.1-0.9,2-2,2H18.5c-1.1,0-2-0.9-2-2v-4.395c0-1.1,0.9-2,2-2h4.394
				c1.1,0,2,0.9,2,2V45.738z"/>
		</g>
		<g>
			<path style="fill:#FFFFFF;" d="M36.434,45.738c0,1.1-0.9,2-2,2h-4.393c-1.1,0-2-0.9-2-2v-4.395c0-1.1,0.9-2,2-2h4.393
				c1.1,0,2,0.9,2,2V45.738z"/>
		</g>
		<g>
			<path style="fill:#FFFFFF;" d="M48.5,45.738c0,1.1-0.9,2-2,2h-4.394c-1.1,0-2-0.9-2-2v-4.395c0-1.1,0.9-2,2-2H46.5
				c1.1,0,2,0.9,2,2V45.738z"/>
		</g>
		<g>
			<path style="fill:#FFFFFF;" d="M24.894,22.656c0,1.1-0.9,2-2,2H18.5c-1.1,0-2-0.9-2-2v-4.395c0-1.1,0.9-2,2-2h4.394
				c1.1,0,2,0.9,2,2V22.656z"/>
		</g>
	</g>
</g>
</svg>
