<?xml version="1.0" encoding="iso-8859-1"?>
<!-- Generator: Adobe Illustrator 14.0.0, SVG Export Plug-In . SVG Version: 6.00 Build 43363)  -->
<!DOCTYPE svg PUBLIC "-//W3C//DTD SVG 1.1//EN" "http://www.w3.org/Graphics/SVG/1.1/DTD/svg11.dtd">
<svg version="1.1" id="icon-m-common-delete-layer" xmlns="http://www.w3.org/2000/svg" xmlns:xlink="http://www.w3.org/1999/xlink"
	 x="0px" y="0px" width="64px" height="64px" viewBox="0 0 64 64" style="enable-background:new 0 0 64 64;" xml:space="preserve">
<g id="icon-m-common-delete">
	<rect style="fill:none;" width="64" height="64"/>
	<path style="fill:#333333;" d="M52.5,10.416H40V6.583c0-1.1-0.899-2-2-2H26c-1.1,0-2,0.9-2,2v3.833H11.5c-1.1,0-2,0.9-2,2v6.5h45
		v-6.5C54.5,11.316,53.601,10.416,52.5,10.416z"/>
	<path style="fill:#333333;" d="M10.75,22.917l3,36.501c0,1.1,0.9,2,2,2h32.5c1.101,0,2-0.9,2-2l3-36.501H10.75z"/>
</g>
</svg>
