<?xml version="1.0" encoding="iso-8859-1"?>
<!-- Generator: Adobe Illustrator 14.0.0, SVG Export Plug-In . SVG Version: 6.00 Build 43363)  -->
<!DOCTYPE svg PUBLIC "-//W3C//DTD SVG 1.1//EN" "http://www.w3.org/Graphics/SVG/1.1/DTD/svg11.dtd">
<svg version="1.1" id="icon-m-common-passcode-layer"
	 xmlns="http://www.w3.org/2000/svg" xmlns:xlink="http://www.w3.org/1999/xlink" x="0px" y="0px" width="64px" height="64px"
	 viewBox="0 0 64 64" style="enable-background:new 0 0 64 64;" xml:space="preserve">
<g id="icon-m-common-passcode">
	<rect style="fill:none;" width="64" height="64"/>
	<path style="fill:#333333;" d="M47.049,17c-5.105,0-11.211,6.025-11.211,6.025c-0.604,0.594-1.791,1.145-2.639,1.146L3.541,24.17
		c-0.847,0-1.543,0.695-1.547,1.545l-0.034,8.241h1.596l4.72,4.608c0,0,2.647-3.647,3.789-4.563
		c1.438,1.163,5.097,5.643,5.097,5.643s3.585-3.881,5.029-4.823c1.159,1.066,3.965,5.209,3.965,5.209s4.269-4.325,4.981-4.794
		c0.462-0.017,3.589,4.433,3.733,4.592c0,0,6.465,7.172,12.18,7.172c8.27,0,14.992-6.726,14.992-15.006
		C62.041,23.728,55.318,17,47.049,17z M50.974,38.623c-3.831,0-6.937-3.101-6.937-6.934c0-3.83,3.105-6.939,6.937-6.939
		s6.93,3.109,6.93,6.939C57.903,35.522,54.805,38.623,50.974,38.623z"/>
</g>
</svg>
