<?xml version="1.0" encoding="iso-8859-1"?>
<!-- Generator: Adobe Illustrator 13.0.2, SVG Export Plug-In . SVG Version: 6.00 Build 14948)  -->
<!DOCTYPE svg PUBLIC "-//W3C//DTD SVG 1.1//EN" "http://www.w3.org/Graphics/SVG/1.1/DTD/svg11.dtd">
<svg version="1.1" xmlns="http://www.w3.org/2000/svg" xmlns:xlink="http://www.w3.org/1999/xlink" x="0px" y="0px" width="64px"
	 height="63.999px" viewBox="0 0 64 63.999" style="enable-background:new 0 0 64 63.999;" xml:space="preserve">
	<g id="icon-m-common-alarm">
		<path style="fill:#343434;" d="M60.743,20.187c-1.77-1.801-3.636-2.222-5.973-3.118c-5.617-2.156-11.154-5.334-15.833-9.127
			c-3.143-2.551-6.048-4.634-9.91-6.137C20.847-1.38,12.219-0.506,5.763,5.68L5.681,5.761c-6.187,6.457-7.061,15.085-3.876,23.268
			c1.503,3.861,3.588,6.767,6.137,9.909c3.794,4.676,6.97,10.216,9.127,15.833c0.898,2.337,1.317,4.202,3.118,5.972
			c1.223,1.201,1.283,1.281,2.496,2.492c0.809,0.809,2.414,1.088,3.224,0.279L44.67,44.75l0.081-0.08l18.764-18.765
			c0.811-0.809,0.53-2.415-0.28-3.224C62.023,21.47,61.944,21.409,60.743,20.187"/>
		<path style="fill:#343434;" d="M42.294,56.021c1.752,2.913,4.936,4.869,8.581,4.869c5.53,0,10.017-4.484,10.017-10.016
			c0-3.647-1.957-6.829-4.871-8.581L42.294,56.021z"/>
	</g>
</svg>
