<?xml version="1.0" encoding="iso-8859-1"?>
<!-- Generator: Adobe Illustrator 14.0.0, SVG Export Plug-In . SVG Version: 6.00 Build 43363)  -->
<!DOCTYPE svg PUBLIC "-//W3C//DTD SVG 1.1//EN" "http://www.w3.org/Graphics/SVG/1.1/DTD/svg11.dtd">
<svg version="1.1" id="icon-s-application-layer" xmlns="http://www.w3.org/2000/svg" xmlns:xlink="http://www.w3.org/1999/xlink"
	 x="0px" y="0px" width="18px" height="18px" viewBox="0 0 18 18" style="enable-background:new 0 0 18 18;" xml:space="preserve">
<g id="icon-s-application">
	<path style="fill:#333333;" d="M7.367,1.67c0-0.013,0-0.027,0-0.044C7.365,1.477,7.356,1.124,7.119,0.732
		C6.917,0.38,6.47,0.07,5.906,0.011C5.896,0.01,5.885,0.01,5.875,0.01C5.808,0.004,5.739-0.001,5.669,0H3.68v0.002H1.717
		C1.034-0.017,0.48,0.334,0.25,0.737C0.011,1.131,0.004,1.483,0,1.629c0,0.018,0,0.032,0,0.044l0.011,4.002c0,0.013,0,0.027,0,0.044
		C0.015,5.868,0.023,6.221,0.26,6.612c0.229,0.399,0.776,0.745,1.45,0.732h3.942c0.016,0,0.032,0,0.048,0
		c0.055,0,0.107-0.006,0.16-0.01C5.881,7.333,5.902,7.333,5.922,7.33c0.037-0.004,0.071-0.012,0.106-0.018
		c0.511-0.088,0.914-0.377,1.101-0.705c0.239-0.394,0.247-0.747,0.25-0.893c0-0.017-0.001-0.031-0.001-0.043L7.367,1.67z"/>
	<path style="fill:#333333;" d="M10.322,7.345c0,0.012-0.001,0.024-0.001,0.039c0.004,0.14,0.01,0.487,0.238,0.882
		c0.217,0.397,0.754,0.759,1.422,0.75h0.001h3.978c0.018,0.001,0.033,0.001,0.049,0.001c0.663,0,1.195-0.345,1.421-0.738
		c0.238-0.395,0.246-0.749,0.249-0.892c0-0.025-0.001-0.042-0.001-0.05l-0.011-4.013c-0.002-0.015,0-0.028-0.003-0.054
		c-0.005-0.132-0.028-0.428-0.202-0.773c-0.186-0.408-0.733-0.852-1.445-0.829c-0.016,0-0.039,0-0.066,0.001h-3.922
		c-0.684-0.018-1.236,0.333-1.467,0.735c-0.24,0.394-0.248,0.748-0.252,0.894c0,0.018,0.002,0.032,0.002,0.044L10.322,7.345z
		 M11.586,3.297c0,0,0-0.001,0-0.007c0-0.035,0.018-0.158,0.058-0.213c0.053-0.052,0.039-0.116,0.385-0.134h3.961l0.023-0.002h0.004
		c0.284,0.022,0.242,0.058,0.314,0.144c0.023,0.046,0.043,0.11,0.051,0.162c0.009,0.051,0.009,0.08,0.009,0.08l0.013,4.034
		c0,0.021,0,0.024,0,0.024c0.004,0.017-0.014,0.159-0.058,0.22c-0.053,0.053-0.04,0.117-0.386,0.134h-3.938c0,0-0.005,0-0.007,0
		c-0.007,0-0.009,0-0.009,0c-0.322-0.018-0.297-0.071-0.352-0.128c-0.039-0.055-0.057-0.172-0.059-0.214V7.384L11.586,3.3V3.297z"/>
	<path style="fill:#333333;" d="M17.667,12.285c-0.004-0.14-0.01-0.487-0.235-0.882c-0.214-0.401-0.761-0.772-1.437-0.753
		c-0.008,0-0.021,0-0.041,0.001h-3.926c-0.684-0.019-1.237,0.331-1.467,0.735c-0.24,0.395-0.246,0.749-0.252,0.895
		c0,0.018,0.002,0.032,0.002,0.045l0.011,4.004c-0.001,0.014-0.001,0.029-0.001,0.047c0.004,0.151,0.012,0.502,0.246,0.893
		c0.225,0.398,0.77,0.746,1.438,0.729h3.955c0.018,0,0.033,0.001,0.051,0.001c0.663,0,1.195-0.345,1.42-0.739
		c0.237-0.395,0.245-0.748,0.248-0.892c0-0.025,0-0.043,0-0.049l-0.012-3.992C17.667,12.32,17.667,12.305,17.667,12.285z
		 M16.345,16.59c-0.051,0.053-0.039,0.117-0.385,0.133v0.002h-3.934c-0.011,0-0.019,0-0.021,0c-0.323-0.019-0.301-0.073-0.352-0.122
		c-0.037-0.051-0.057-0.173-0.058-0.214c0.001-0.006,0.001-0.011,0.001-0.011v-0.01l-0.01-4.083l-0.002-0.017
		c0.002-0.04,0.02-0.155,0.059-0.209c0.053-0.052,0.039-0.116,0.385-0.134h3.965h0.006c0.308,0.02,0.279,0.068,0.334,0.125
		c0.045,0.065,0.063,0.217,0.059,0.234v0.002l-0.001,0.012l0.013,4.045c0,0.021,0,0.025,0,0.025
		C16.407,16.385,16.39,16.528,16.345,16.59z"/>
	<path style="fill:#333333;" d="M6.907,10.651H2.969c-0.686-0.019-1.238,0.334-1.468,0.737c-0.239,0.395-0.247,0.748-0.25,0.894
		c0,0.016,0,0.03,0.001,0.041l0.011,3.998c0,0.015-0.001,0.035-0.001,0.06c0.003,0.155,0.013,0.508,0.252,0.898
		c0.221,0.383,0.733,0.711,1.366,0.72h0.002h4.02c0.016,0,0.033,0,0.05,0c0.644,0,1.169-0.325,1.397-0.714
		c0.241-0.389,0.253-0.744,0.256-0.902c0-0.02,0-0.036,0-0.049l0.003-4.003c0.001-0.018,0.001-0.04,0.001-0.067
		c-0.003-0.166-0.017-0.521-0.26-0.904c-0.237-0.393-0.785-0.716-1.444-0.708 M7.329,16.383c0,0-0.016,0.165-0.057,0.217
		c-0.047,0.046-0.032,0.107-0.371,0.125H2.992c-0.015-0.002-0.026-0.002-0.032-0.002c-0.003,0-0.004,0-0.004,0
		c-0.333-0.016-0.315-0.075-0.363-0.121c-0.038-0.051-0.058-0.175-0.057-0.214c0-0.007,0-0.007,0-0.007l0.001-0.014l-0.01-4.078
		l-0.001-0.016c0-0.037,0.019-0.158,0.059-0.213c0.052-0.053,0.039-0.117,0.384-0.134h3.93c0.341,0.02,0.335,0.085,0.381,0.127
		c0.038,0.051,0.054,0.21,0.054,0.21L7.329,16.383z"/>
</g>
</svg>
