<?xml version="1.0" encoding="iso-8859-1"?>
<!-- Generator: Adobe Illustrator 13.0.2, SVG Export Plug-In . SVG Version: 6.00 Build 14948)  -->
<!DOCTYPE svg PUBLIC "-//W3C//DTD SVG 1.1//EN" "http://www.w3.org/Graphics/SVG/1.1/DTD/svg11.dtd">
<svg version="1.1" xmlns="http://www.w3.org/2000/svg" xmlns:xlink="http://www.w3.org/1999/xlink" x="0px" y="0px" width="64px"
	 height="64px" viewBox="0 0 64 64" style="enable-background:new 0 0 64 64;" xml:space="preserve">
	<g id="icon-m-camera-photo-new">
		<rect style="fill:none;" width="64" height="64"/>
		<g>
			<path style="fill:#333333;" d="M29.253,17.546c0.585,0,1.112-0.228,1.52-0.583c0.543,0.775,1.313,1.26,2.171,1.26
				c0.856,0,1.627-0.484,2.172-1.26c0.408,0.355,0.934,0.583,1.518,0.583c1.279,0,2.311-1.04,2.311-2.317
				c0-1.289-1.031-2.326-2.311-2.326c-0.294,0-0.572,0.057-0.834,0.164c-0.371-1.646-1.508-2.846-2.855-2.846
				c-1.346,0-2.484,1.199-2.855,2.846c-0.26-0.107-0.539-0.164-0.835-0.164c-1.274,0-2.31,1.037-2.31,2.326
				C26.943,16.506,27.979,17.546,29.253,17.546z"/>
			<path style="fill:#333333;" d="M25.322,25.173c-3.073-7.109-9.107-15.885-14.864,5.703h24.837
				C35.295,30.876,30.441,13.843,25.322,25.173z"/>
		</g>
		<path style="fill:#333333;" d="M47.108,27.225L47.025,1.117H2.843v47.582H25.18c1.793,8.107,9.066,14.184,17.778,14.184
			c10.046,0,18.203-8.094,18.203-18.066C61.161,36.25,55.154,29.09,47.108,27.225z M7.157,33.178V5.467h35.469v27.672L7.157,33.178z
			 M53.729,47.65H45.91v7.895h-5.85V47.65h-7.864v-5.795h7.864v-7.809l5.85,0.006v7.803h7.818V47.65z"/>
	</g>
</svg>
