<?xml version="1.0" encoding="iso-8859-1"?>
<!-- Generator: Adobe Illustrator 14.0.0, SVG Export Plug-In . SVG Version: 6.00 Build 43363)  -->
<!DOCTYPE svg PUBLIC "-//W3C//DTD SVG 1.1//EN" "http://www.w3.org/Graphics/SVG/1.1/DTD/svg11.dtd">
<svg version="1.1" id="icon-m-toolbar-slideshow-layer"
	 xmlns="http://www.w3.org/2000/svg" xmlns:xlink="http://www.w3.org/1999/xlink" x="0px" y="0px" width="64px" height="64px"
	 viewBox="0 0 64 64" style="enable-background:new 0 0 64 64;" xml:space="preserve">
<g id="icon-m-toolbar-slideshow">
	<rect style="fill:none;" width="64" height="64"/>
	<g>
		<g>
			<path style="fill:#FFFFFF;" d="M3,1C1.9,1,1,1.9,1,3v58c0,1.1,0.9,2,2,2h58c1.1,0,2-0.9,2-2V3c0-1.1-0.9-2-2-2H3z M56,46
				c0,1.1-0.9,2-2,2H10c-1.1,0-2-0.9-2-2V18c0-1.1,0.9-2,2-2h44c1.1,0,2,0.9,2,2V46z"/>
		</g>
	</g>
	<g>
		<path style="fill:#FFFFFF;" d="M25.752,21.964C24.789,21.434,24,21.9,24,23v18c0,1.1,0.789,1.566,1.752,1.036l16.496-9.072
			c0.963-0.53,0.963-1.397,0-1.928L25.752,21.964z"/>
	</g>
</g>
</svg>
