<?xml version="1.0" encoding="iso-8859-1"?>
<!-- Generator: Adobe Illustrator 13.0.2, SVG Export Plug-In . SVG Version: 6.00 Build 14948)  -->
<!DOCTYPE svg PUBLIC "-//W3C//DTD SVG 1.1//EN" "http://www.w3.org/Graphics/SVG/1.1/DTD/svg11.dtd">
<svg version="1.1" xmlns="http://www.w3.org/2000/svg" xmlns:xlink="http://www.w3.org/1999/xlink" x="0px" y="0px" width="281px"
	 height="281px" viewBox="0 0 281 281" style="enable-background:new 0 0 281 281;" xml:space="preserve">
	<g id="icon-l-aol-messenger">
		<rect id="_x3C_Slice_x3E__5_" style="fill:none;" width="281" height="281"/>
		<path style="fill-rule:evenodd;clip-rule:evenodd;" d="M163.842,104.068c10.313,13.189,31.494-1.051,39.648-7.301
			c8.52,10.54,14.326,23.813,21.617,35.59c-8.944,17.099-28.723,23.233-51.354,26.478c4.366,5.509,11.126,8.856,17.117,13.688
			c16.501,13.295,34.313,30.239,43.245,52.017c-15.297,7.927-30.166,16.279-44.147,25.549
			c-13.429-18.643-29.36-34.751-50.452-45.628c-22.279,23.051-44.771,45.91-81.989,53.846
			c-7.702-17.451-14.492-35.823-22.522-52.935c11.284-3.949,24.582-4.961,35.134-10.044c8.492-4.068,20.681-13.104,23.43-21.899
			c2.473-7.891,1.313-17.257,2.707-25.548c3.904-23.272,11.175-42.021,26.123-56.584c-27.085-32.496-2.871-80.481,37.841-76.665
			c22.395,2.099,43.291,21.911,39.646,52.022C197.433,86.921,183.697,99.354,163.842,104.068z"/>
		<path style="fill:#FBCD0B;" d="M132.306,38.365c-15.158,17.46-5.229,52.715,24.327,52.014
			c13.189-0.307,29.738-11.06,29.738-31.026c0-20.526-17.264-33.87-36.945-30.12C142.135,30.63,135.967,34.147,132.306,38.365z"/>
		<path style="fill:#FBCD0B;" d="M132.306,100.414c-13.894,11.263-20.207,34.049-23.421,52.938
			c-1.118,6.577,0.152,14.687-1.802,21.905c-1.82,6.738-10.694,16.163-17.117,21.905c-10.743,9.582-22.829,14.094-36.042,17.333
			c2.922,7.993,6.72,15.097,9.907,22.813c23.525-4.837,39.093-20.21,54.065-35.592c4.147-4.254,11.569-14.608,15.313-15.504
			c5.918-1.429,13.222,3.102,18.918,6.383c17.91,10.303,29.242,24.612,42.35,36.498c5.104-5.472,13.207-7.915,18.022-13.69
			c-19.259-24.306-45.117-41.905-70.276-60.223c3.229-4.032,3.818-10.737,7.203-14.602c19.66,8.118,48.201,2.394,58.564-10.045
			c-3.126-5.347-6.059-10.895-10.807-14.599c-14.93,10.513-47.287,10.855-48.654-11.867
			C142.648,103.337,138.188,101.158,132.306,100.414z"/>
	</g>
</svg>
