<?xml version="1.0" encoding="iso-8859-1"?>
<!-- Generator: Adobe Illustrator 14.0.0, SVG Export Plug-In . SVG Version: 6.00 Build 43363)  -->
<!DOCTYPE svg PUBLIC "-//W3C//DTD SVG 1.1//EN" "http://www.w3.org/Graphics/SVG/1.1/DTD/svg11.dtd">
<svg version="1.1" id="icon-m-camera-video-night-layer"
	 xmlns="http://www.w3.org/2000/svg" xmlns:xlink="http://www.w3.org/1999/xlink" x="0px" y="0px" width="64px" height="64px"
	 viewBox="0 0 64 64" style="enable-background:new 0 0 64 64;" xml:space="preserve">
<g id="icon-m-camera-video-night">
	<rect style="fill:none;" width="64" height="64"/>
	<path style="fill:#333333;" d="M59.034,1.479c1.372,0,2.699,0.187,3.961,0.533C56.634,3.75,52.179,9.568,52.179,16.479
		c0,6.913,4.455,12.729,10.816,14.468c-1.262,0.346-2.589,0.532-3.961,0.532c-8.285,0-14.855-6.714-14.855-15
		C44.179,8.197,50.749,1.479,59.034,1.479z"/>
	<path style="fill:#333333;" d="M61.179,34.479l-8,2c0,0-1,0-1,2v1h-7v-3c0-0.928-1.073-2-2-2h-32c-1,0-1,1-1,1l-8-2
		c0,0-1,0.073-1,1v9c0,1,1,1,1,1l8-2v19c0,2,3,1.9,3,1.9h29c2,0,3-1.9,3-1.9v-12.1h7v1.1c0,2,2,3,2,3l7,1c0,0,2,0,2-1v-18
		C63.179,34.479,61.179,34.479,61.179,34.479z"/>
</g>
</svg>
