<?xml version="1.0" encoding="iso-8859-1"?>
<!-- Generator: Adobe Illustrator 14.0.0, SVG Export Plug-In . SVG Version: 6.00 Build 43363)  -->
<!DOCTYPE svg PUBLIC "-//W3C//DTD SVG 1.1//EN" "http://www.w3.org/Graphics/SVG/1.1/DTD/svg11.dtd">
<svg version="1.1" id="icon-m-music-video-fm-transmitter-layer"
	 xmlns="http://www.w3.org/2000/svg" xmlns:xlink="http://www.w3.org/1999/xlink" x="0px" y="0px" width="64px" height="64px"
	 viewBox="0 0 64 64" style="enable-background:new 0 0 64 64;" xml:space="preserve">
<g id="icon-m-music-video-fm-transmitter">
	<rect style="fill:none;" width="64" height="64"/>
	<path style="fill:#333333;" d="M41.301,35.626c2.498-2.429,4.059-5.817,4.059-9.567c0-7.364-5.994-13.357-13.359-13.357
		c-7.367,0-13.359,5.993-13.359,13.357c0,3.75,1.559,7.139,4.057,9.567c0.482-1.922,0.889-3.797,1.229-5.578
		c-0.598-1.205-0.941-2.556-0.941-3.989c0-4.971,4.043-9.014,9.016-9.014c4.971,0,9.016,4.043,9.016,9.014
		c0,1.434-0.346,2.786-0.943,3.99C40.412,31.83,40.818,33.704,41.301,35.626z"/>
	<path style="fill:#333333;" d="M32,0C17.631,0,5.941,11.69,5.941,26.059c0,9.362,4.965,17.583,12.396,22.178
		c0.621-1.324,1.193-2.681,1.715-4.057c-5.881-3.89-9.768-10.559-9.768-18.121c0-11.974,9.74-21.715,21.715-21.715
		c11.973,0,21.715,9.741,21.715,21.715c0,7.562-3.889,14.231-9.768,18.121c0.521,1.376,1.094,2.732,1.715,4.057
		c7.432-4.595,12.396-12.816,12.396-22.178C58.059,11.69,46.367,0,32,0z"/>
	<path style="fill:#333333;" d="M33.004,30.196v-1.561c0.898-0.411,1.525-1.312,1.525-2.367c0-1.438-1.166-2.605-2.605-2.605
		s-2.605,1.167-2.605,2.605c0,1.112,0.697,2.054,1.678,2.429v1.499l-0.182,1.99C29.195,41.905,25.762,55.022,18.504,64h5.936
		c-0.002-0.083-0.01-0.164-0.01-0.25c0-3.825,3.389-6.927,7.57-6.927s7.572,3.102,7.572,6.927c0,0.086-0.012,0.167-0.014,0.25h5.938
		c-7.258-8.978-10.691-22.095-12.312-31.813L33.004,30.196z"/>
</g>
</svg>
