<?xml version="1.0" encoding="iso-8859-1"?>
<!-- Generator: Adobe Illustrator 13.0.2, SVG Export Plug-In . SVG Version: 6.00 Build 14948)  -->
<!DOCTYPE svg PUBLIC "-//W3C//DTD SVG 1.1//EN" "http://www.w3.org/Graphics/SVG/1.1/DTD/svg11.dtd">
<svg version="1.1" xmlns="http://www.w3.org/2000/svg" xmlns:xlink="http://www.w3.org/1999/xlink" x="0px" y="0px" width="64px"
	 height="64px" viewBox="0 0 64 64" style="enable-background:new 0 0 64 64;" xml:space="preserve">
<symbol  id="background_x5F_64_2" viewBox="-783.692 -0.04 64 64">
	<polygon style="fill:none;" points="-719.691,-0.04 -783.691,-0.04 -783.691,63.96 -719.691,63.96 	"/>
</symbol>
	<g id="icon-m-energy-management-battery80">
		
			<use xlink:href="#background_x5F_64_2"  width="64" height="64" id="background_x5F_64_18_" x="-783.692" y="-0.04" transform="matrix(1 0 0 -1 783.6919 63.96)" style="overflow:visible;"/>
		<path style="fill:#333333;" d="M62.028,25.131h-2.957V14.563c0-1.084-0.887-1.971-1.971-1.971H1.972
			c-1.084,0-1.971,0.887-1.971,1.971v34.875c0,1.084,0.887,1.973,1.971,1.973H57.1c1.084,0,1.971-0.889,1.971-1.973V38.869h2.957
			c1.086,0,1.973-0.889,1.973-1.971v-9.795C64,26.02,63.114,25.131,62.028,25.131z M53.096,44.82c0,1.084-0.887,1.971-1.971,1.971
			H5.837c-1.086,0-1.973-0.887-1.973-1.971V19.186c0-1.084,0.887-1.971,1.973-1.971h45.289c1.084,0,1.971,0.887,1.971,1.971V44.82z"
			/>
		<rect id="icon-m-energy-management-battery80" x="7.434" y="20.715" style="fill:#333333;" width="33.834" height="22.572"/>
	</g>
</svg>
