<?xml version="1.0" encoding="utf-8"?>
<!-- Generator: Adobe Illustrator 14.0.0, SVG Export Plug-In . SVG Version: 6.00 Build 43363)  -->
<!DOCTYPE svg PUBLIC "-//W3C//DTD SVG 1.1//EN" "http://www.w3.org/Graphics/SVG/1.1/DTD/svg11.dtd">
<svg version="1.1" id="Layer_1" xmlns="http://www.w3.org/2000/svg" xmlns:xlink="http://www.w3.org/1999/xlink" x="0px" y="0px"
	 width="64px" height="64px" viewBox="0 0 64 64" enable-background="new 0 0 64 64" xml:space="preserve">
<g id="icon-l-contacts">
	<path id="path4345_1_" fill="#FFFFFF" d="M53.622,18.109c0,5.501-4.471,9.97-9.973,9.97c-5.517,0-9.984-4.469-9.984-9.97
		c0-5.519,4.469-10.001,9.984-10.001C49.151,8.108,53.622,12.591,53.622,18.109z"/>
	<path id="path4347_1_" fill="#FFFFFF" d="M31.284,42.592c0-6.839,5.529-12.384,12.365-12.384C50.475,30.208,56,35.753,56,42.592
		v13.3H31.284V42.592z"/>
	<path id="path4349_1_" fill="#FFFFFF" d="M30.329,18.109c0,5.501-4.467,9.97-9.975,9.97c-5.521,0-9.984-4.469-9.984-9.97
		c0-5.519,4.464-10.001,9.984-10.001C25.862,8.108,30.329,12.591,30.329,18.109z"/>
	<path id="path4351_1_" fill="#FFFFFF" d="M8,42.592c0-6.839,5.527-12.384,12.354-12.384c6.825,0,12.354,5.545,12.354,12.384v13.3
		H7.999L8,42.592L8,42.592z"/>
</g>
</svg>
