<?xml version="1.0" encoding="iso-8859-1"?>
<!-- Generator: Adobe Illustrator 14.0.0, SVG Export Plug-In . SVG Version: 6.00 Build 43363)  -->
<!DOCTYPE svg PUBLIC "-//W3C//DTD SVG 1.1//EN" "http://www.w3.org/Graphics/SVG/1.1/DTD/svg11.dtd">
<svg version="1.1" id="icon-s-battery-20-layer" xmlns="http://www.w3.org/2000/svg" xmlns:xlink="http://www.w3.org/1999/xlink"
	 x="0px" y="0px" width="18px" height="18px" viewBox="0 0 18 18" style="enable-background:new 0 0 18 18;" xml:space="preserve">
<g id="icon-s-battery-20">
	<rect style="fill:none;" width="18" height="18"/>
	<g>
		<path style="fill:#FFFFFF;" d="M11.413,1.278c-0.151,0-0.275-0.124-0.275-0.275l0.003-0.729C11.141,0.124,11.017,0,10.867,0H7.534
			C7.383,0,7.259,0.124,7.259,0.275v0.727c0,0.151-0.124,0.274-0.274,0.274H3.932c-0.151,0-0.275,0.124-0.275,0.275v16.174
			C3.657,17.875,3.781,18,3.932,18h10.444c0.151,0,0.275-0.125,0.275-0.274V1.553c0-0.151-0.124-0.274-0.275-0.274H11.413z
			 M13.274,16.511H5.03V2.77h8.245V16.511z"/>
		<rect x="5.03" y="2.77" style="opacity:0.1;fill:#FFFFFF;enable-background:new    ;" width="8.245" height="13.741"/>
		<rect x="5.03" y="13.763" style="fill:#FFFFFF;" width="8.245" height="2.748"/>
	</g>
</g>
</svg>
