<?xml version="1.0" encoding="iso-8859-1"?>
<!-- Generator: Adobe Illustrator 14.0.0, SVG Export Plug-In . SVG Version: 6.00 Build 43363)  -->
<!DOCTYPE svg PUBLIC "-//W3C//DTD SVG 1.1//EN" "http://www.w3.org/Graphics/SVG/1.1/DTD/svg11.dtd">
<svg version="1.1" id="button-generic-normal-layer"
	 xmlns="http://www.w3.org/2000/svg" xmlns:xlink="http://www.w3.org/1999/xlink" x="0px" y="0px" width="88px" height="88px"
	 viewBox="0 0 88 88" style="enable-background:new 0 0 88 88;" xml:space="preserve">
<g id="popupheader-normal">
	<linearGradient id="SVGID_1_" gradientUnits="userSpaceOnUse" x1="44.0005" y1="87" x2="44.0005" y2="1.0005">
		<stop  offset="0.0031" style="stop-color:#232323"/>
		<stop  offset="0.6838" style="stop-color:#262626"/>
		<stop  offset="1" style="stop-color:#2B2B2B"/>
	</linearGradient>
	<path style="fill:url(#SVGID_1_);" d="M8,87c-3.86,0-7-3.141-7-7V8c0-3.859,3.14-7,7-7h72c3.859,0,7,3.141,7,7v72
		c0,3.859-3.141,7-7,7H8z"/>
	<path style="fill:#808080;" d="M80,2c3.309,0,6,2.691,6,6v72c0,3.309-2.691,6-6,6H8c-3.309,0-6-2.691-6-6V8c0-3.309,2.691-6,6-6H80
		 M80,0H8C3.6,0,0,3.6,0,8v72c0,4.4,3.6,8,8,8h72c4.4,0,8-3.6,8-8V8C88,3.6,84.4,0,80,0L80,0z"/>
</g>
</svg>
