<?xml version="1.0" encoding="UTF-8" standalone="no"?>
<!-- Created with Inkscape (http://www.inkscape.org/) -->
<svg
   xmlns:dc="http://purl.org/dc/elements/1.1/"
   xmlns:cc="http://creativecommons.org/ns#"
   xmlns:rdf="http://www.w3.org/1999/02/22-rdf-syntax-ns#"
   xmlns:svg="http://www.w3.org/2000/svg"
   xmlns="http://www.w3.org/2000/svg"
   xmlns:xlink="http://www.w3.org/1999/xlink"
   xmlns:sodipodi="http://sodipodi.sourceforge.net/DTD/sodipodi-0.dtd"
   xmlns:inkscape="http://www.inkscape.org/namespaces/inkscape"
   width="744"
   height="1052"
   id="svg2"
   sodipodi:version="0.32"
   inkscape:version="0.46"
   sodipodi:docname="component-margins-paddings.svg"
   inkscape:output_extension="org.inkscape.output.svg.inkscape"
   inkscape:export-filename="/home/tigert/git/harmattan/duitheme/docs/component-margins-paddings.png"
   inkscape:export-xdpi="90"
   inkscape:export-ydpi="90"
   version="1.0">
  <defs
     id="defs4">
    <linearGradient
       inkscape:collect="always"
       id="linearGradient11903">
      <stop
         style="stop-color:#f3f3ef;stop-opacity:1"
         offset="0"
         id="stop11905" />
      <stop
         id="stop11913"
         offset="0.08155244"
         style="stop-color:#ffffff;stop-opacity:1" />
      <stop
         id="stop11911"
         offset="0.87183446"
         style="stop-color:#ffffff;stop-opacity:1" />
      <stop
         style="stop-color:#efeeea;stop-opacity:1"
         offset="1"
         id="stop11907" />
    </linearGradient>
    <linearGradient
       inkscape:collect="always"
       id="linearGradient3954-2">
      <stop
         style="stop-color:#ffdd55;stop-opacity:1"
         offset="0"
         id="stop3956-8" />
      <stop
         style="stop-color:#ffcc00;stop-opacity:1"
         offset="1"
         id="stop3958-3" />
    </linearGradient>
    <marker
       inkscape:stockid="Arrow2Send"
       orient="auto"
       refY="0"
       refX="0"
       id="Arrow2Send"
       style="overflow:visible">
      <path
         id="path3267"
         style="font-size:12px;fill-rule:evenodd;stroke-width:0.625;stroke-linejoin:round"
         d="M 8.7185878,4.0337352 L -2.2072895,0.016013256 L 8.7185884,-4.0017078 C 6.97309,-1.6296469 6.9831476,1.6157441 8.7185878,4.0337352 z"
         transform="matrix(-0.3,0,0,-0.3,0.69,0)" />
    </marker>
    <marker
       inkscape:stockid="Arrow2Sstart"
       orient="auto"
       refY="0"
       refX="0"
       id="Arrow2Sstart"
       style="overflow:visible">
      <path
         id="path3264"
         style="font-size:12px;fill-rule:evenodd;stroke-width:0.625;stroke-linejoin:round"
         d="M 8.7185878,4.0337352 L -2.2072895,0.016013256 L 8.7185884,-4.0017078 C 6.97309,-1.6296469 6.9831476,1.6157441 8.7185878,4.0337352 z"
         transform="matrix(0.3,0,0,0.3,-0.69,0)" />
    </marker>
    <linearGradient
       inkscape:collect="always"
       id="linearGradient3159">
      <stop
         style="stop-color:#aad400;stop-opacity:1"
         offset="0"
         id="stop3161" />
      <stop
         id="stop3175"
         offset="0.50960952"
         style="stop-color:#b4e100;stop-opacity:1" />
      <stop
         style="stop-color:#abd500;stop-opacity:1"
         offset="0.50960952"
         id="stop3177" />
      <stop
         style="stop-color:#99bf00;stop-opacity:1"
         offset="1"
         id="stop3163" />
    </linearGradient>
    <linearGradient
       inkscape:collect="always"
       xlink:href="#linearGradient3159"
       id="linearGradient3165"
       x1="372"
       y1="277.36218"
       x2="372"
       y2="485.36459"
       gradientUnits="userSpaceOnUse"
       gradientTransform="matrix(1.0034695,0,0,1.0016657,-0.9457964,-1.5757374)" />
    <linearGradient
       inkscape:collect="always"
       xlink:href="#linearGradient3954-2"
       id="linearGradient11668"
       gradientUnits="userSpaceOnUse"
       gradientTransform="translate(-1613,-561)"
       x1="1039"
       y1="575.36218"
       x2="1039"
       y2="790.02478" />
    <filter
       inkscape:collect="always"
       id="filter11806">
      <feGaussianBlur
         inkscape:collect="always"
         stdDeviation="6.9537408"
         id="feGaussianBlur11808" />
    </filter>
    <linearGradient
       inkscape:collect="always"
       xlink:href="#linearGradient11903"
       id="linearGradient11909"
       x1="429"
       y1="15.362183"
       x2="429"
       y2="1045.3743"
       gradientUnits="userSpaceOnUse"
       gradientTransform="matrix(1.0081301,0,0,1.0057361,-3.0243902,-4.0250221)" />
  </defs>
  <sodipodi:namedview
     id="base"
     pagecolor="#ffffff"
     bordercolor="#666666"
     borderopacity="1.0"
     gridtolerance="10000"
     guidetolerance="10"
     objecttolerance="10"
     inkscape:pageopacity="0.0"
     inkscape:pageshadow="2"
     inkscape:zoom="1"
     inkscape:cx="209.56758"
     inkscape:cy="540.04752"
     inkscape:document-units="px"
     inkscape:current-layer="layer1"
     showgrid="false"
     inkscape:window-width="2560"
     inkscape:window-height="1531"
     inkscape:window-x="0"
     inkscape:window-y="25"
     inkscape:snap-bbox="true">
    <inkscape:grid
       type="xygrid"
       id="grid3209"
       visible="true"
       enabled="true"
       units="px"
       spacingx="1px"
       spacingy="1px" />
  </sodipodi:namedview>
  <metadata
     id="metadata7">
    <rdf:RDF>
      <cc:Work
         rdf:about="">
        <dc:format>image/svg+xml</dc:format>
        <dc:type
           rdf:resource="http://purl.org/dc/dcmitype/StillImage" />
      </cc:Work>
    </rdf:RDF>
  </metadata>
  <g
     inkscape:label="Layer 1"
     inkscape:groupmode="layer"
     id="layer1"
     transform="translate(0,-0.3621826)">
    <rect
       style="opacity:1;fill:url(#linearGradient11909);fill-opacity:1;stroke:none;stroke-width:1;stroke-linecap:butt;stroke-linejoin:miter;stroke-miterlimit:4;stroke-dasharray:1, 1;stroke-dashoffset:0;stroke-opacity:1"
       id="rect11901"
       width="744"
       height="1052"
       x="0"
       y="0.36218262" />
    <rect
       ry="10.000001"
       rx="10.000002"
       y="157.67711"
       x="104.52757"
       height="442.91342"
       width="545.66925"
       id="rect3223"
       style="opacity:1;fill:none;fill-opacity:1;stroke:#ff6600;stroke-width:3.54330707;stroke-linecap:round;stroke-linejoin:round;stroke-miterlimit:4;stroke-dasharray:3.54330708, 7.08661418;stroke-dashoffset:0;stroke-opacity:1" />
    <rect
       style="opacity:1;fill:#f2f2ee;fill-opacity:1;stroke:#d5d3c9;stroke-width:3.54330707;stroke-linecap:round;stroke-linejoin:round;stroke-miterlimit:4;stroke-dasharray:3.54330709, 7.08661417;stroke-dashoffset:0;stroke-opacity:1"
       id="rect3215"
       width="425.19687"
       height="322.44095"
       x="164.76379"
       y="217.91335"
       rx="10.000002"
       ry="10" />
    <rect
       style="opacity:0.49599998;fill:#000000;fill-opacity:1;stroke:#668000;stroke-width:3.54330707;stroke-linecap:round;stroke-linejoin:round;stroke-miterlimit:4;stroke-dasharray:none;stroke-dashoffset:0;stroke-opacity:1;filter:url(#filter11806)"
       id="rect11690"
       width="325.98428"
       height="223.22836"
       x="214.37007"
       y="267.51965"
       rx="10.000002"
       ry="10" />
    <rect
       ry="10"
       rx="10.000002"
       y="267.51965"
       x="214.37007"
       height="223.22836"
       width="325.98428"
       id="rect3155"
       style="opacity:1;fill:url(#linearGradient3165);fill-opacity:1;stroke:#668000;stroke-width:3.54330707;stroke-linecap:round;stroke-linejoin:round;stroke-miterlimit:4;stroke-dasharray:none;stroke-dashoffset:0;stroke-opacity:1" />
    <rect
       style="opacity:1;fill:#ffffff;fill-opacity:1;stroke:#668000;stroke-width:3.54330659;stroke-linecap:round;stroke-linejoin:round;stroke-miterlimit:4;stroke-dasharray:3.54330757, 7.08661514;stroke-dashoffset:0;stroke-opacity:1"
       id="rect3157"
       width="212.5984"
       height="124.01574"
       x="271.06302"
       y="317.12598"
       rx="10.000002"
       ry="10" />
    <text
       xml:space="preserve"
       style="font-size:40px;font-style:normal;font-weight:normal;fill:#000000;fill-opacity:1;stroke:none;stroke-width:1px;stroke-linecap:butt;stroke-linejoin:miter;stroke-opacity:1;font-family:Bitstream Vera Sans"
       x="314.63245"
       y="301.68094"
       id="text3199"><tspan
         sodipodi:role="line"
         id="tspan3201"
         x="314.63245"
         y="301.68094"
         style="font-size:24px;font-style:normal;font-variant:normal;font-weight:normal;font-stretch:normal;font-family:Droid Sans;-inkscape-font-specification:Droid Sans">component</tspan></text>
    <text
       id="text3203"
       y="469.71652"
       x="292.31494"
       style="font-size:40px;font-style:normal;font-weight:normal;fill:#000000;fill-opacity:1;stroke:none;stroke-width:1px;stroke-linecap:butt;stroke-linejoin:miter;stroke-opacity:1;font-family:Bitstream Vera Sans"
       xml:space="preserve"><tspan
         style="font-size:14px;font-style:normal;font-variant:normal;font-weight:normal;font-stretch:normal;font-family:Droid Sans;-inkscape-font-specification:Droid Sans"
         y="469.71652"
         x="292.31494"
         id="tspan3205"
         sodipodi:role="line">padding-[top,right,bottom,left]</tspan></text>
    <rect
       style="opacity:0.67094014;fill:none;fill-opacity:1;stroke:#ffffff;stroke-width:3.54330707;stroke-linecap:round;stroke-linejoin:round;stroke-miterlimit:4;stroke-dasharray:none;stroke-dashoffset:0;stroke-opacity:1"
       id="rect3207"
       width="318.89764"
       height="216.14174"
       x="217.91338"
       y="271.06296"
       rx="6.25"
       ry="6.25" />
    <text
       id="text3219"
       y="129.36218"
       x="105"
       style="font-size:40px;font-style:normal;font-weight:normal;fill:#000000;fill-opacity:1;stroke:none;stroke-width:1px;stroke-linecap:butt;stroke-linejoin:miter;stroke-opacity:1;font-family:Bitstream Vera Sans"
       xml:space="preserve"><tspan
         style="font-size:28px;font-style:normal;font-variant:normal;font-weight:normal;font-stretch:normal;font-family:Droid Sans;-inkscape-font-specification:Droid Sans"
         y="129.36218"
         x="105"
         id="tspan3221"
         sodipodi:role="line">DirectUI component margins and paddings</tspan></text>
    <text
       id="text3225"
       y="575.36218"
       x="191"
       style="font-size:40px;font-style:normal;font-weight:normal;fill:#000000;fill-opacity:1;stroke:none;stroke-width:1px;stroke-linecap:butt;stroke-linejoin:miter;stroke-opacity:1;font-family:Bitstream Vera Sans"
       xml:space="preserve"><tspan
         style="font-size:14px;font-style:normal;font-variant:normal;font-weight:normal;font-stretch:normal;font-family:Droid Sans;-inkscape-font-specification:Droid Sans"
         y="575.36218"
         x="191"
         id="tspan3227"
         sodipodi:role="line">reactive-margin-[top,right,bottom,left]</tspan></text>
    <path
       style="fill:none;fill-rule:evenodd;stroke:#000000;stroke-width:1.77165329;stroke-linecap:butt;stroke-linejoin:miter;marker-start:url(#Arrow2Sstart);marker-end:url(#Arrow2Send);stroke-miterlimit:4;stroke-dasharray:none;stroke-opacity:1"
       d="M 281.00787,445.3593 L 281.00787,486.51774"
       id="path3229"
       sodipodi:nodetypes="cc" />
    <path
       sodipodi:nodetypes="cc"
       id="path8924"
       d="M 266.61284,426.40416 L 218.55839,426.40416"
       style="fill:none;fill-rule:evenodd;stroke:#000000;stroke-width:1.77165341;stroke-linecap:butt;stroke-linejoin:miter;marker-start:url(#Arrow2Sstart);marker-end:url(#Arrow2Send);stroke-miterlimit:4;stroke-dasharray:none;stroke-opacity:1" />
    <path
       style="fill:none;fill-rule:evenodd;stroke:#000000;stroke-width:1.77165341;stroke-linecap:butt;stroke-linejoin:miter;marker-start:url(#Arrow2Sstart);marker-end:url(#Arrow2Send);stroke-miterlimit:4;stroke-dasharray:none;stroke-opacity:1"
       d="M 210.22341,478.40416 L 169.03983,478.40416"
       id="path10615"
       sodipodi:nodetypes="cc" />
    <path
       sodipodi:nodetypes="cc"
       id="path10617"
       d="M 227.00787,494.91139 L 227.00787,536.222"
       style="fill:none;fill-rule:evenodd;stroke:#000000;stroke-width:1.77165365;stroke-linecap:butt;stroke-linejoin:miter;marker-start:url(#Arrow2Sstart);marker-end:url(#Arrow2Send);stroke-miterlimit:4;stroke-dasharray:none;stroke-opacity:1" />
    <text
       xml:space="preserve"
       style="font-size:40px;font-style:normal;font-weight:normal;fill:#000000;fill-opacity:1;stroke:none;stroke-width:1px;stroke-linecap:butt;stroke-linejoin:miter;stroke-opacity:1;font-family:Bitstream Vera Sans"
       x="242.31494"
       y="519.71655"
       id="text10619"><tspan
         sodipodi:role="line"
         id="tspan10621"
         x="242.31494"
         y="519.71655"
         style="font-size:14px;font-style:normal;font-variant:normal;font-weight:normal;font-stretch:normal;font-family:Droid Sans;-inkscape-font-specification:Droid Sans">margin-[top,right,bottom,left]</tspan></text>
    <path
       sodipodi:nodetypes="cc"
       id="path10623"
       d="M 160.58178,528.40416 L 108.74416,528.40416"
       style="fill:none;fill-rule:evenodd;stroke:#000000;stroke-width:1.77165306;stroke-linecap:butt;stroke-linejoin:miter;marker-start:url(#Arrow2Sstart);marker-end:url(#Arrow2Send);stroke-miterlimit:4;stroke-dasharray:none;stroke-opacity:1" />
    <path
       style="fill:none;fill-rule:evenodd;stroke:#000000;stroke-width:1.77165353;stroke-linecap:butt;stroke-linejoin:miter;marker-start:url(#Arrow2Sstart);marker-end:url(#Arrow2Send);stroke-miterlimit:4;stroke-dasharray:none;stroke-opacity:1"
       d="M 175.00787,544.53918 L 175.00787,596.41569"
       id="path10625"
       sodipodi:nodetypes="cc" />
    <text
       xml:space="preserve"
       style="font-size:40px;font-style:normal;font-weight:normal;fill:#000000;fill-opacity:1;stroke:none;stroke-width:1px;stroke-linecap:butt;stroke-linejoin:miter;stroke-opacity:1;font-family:Bitstream Vera Sans"
       x="341"
       y="659.36218"
       id="text10667"><tspan
         sodipodi:role="line"
         id="tspan10669"
         x="341"
         y="659.36218"
         style="font-size:18px;font-style:normal;font-variant:normal;font-weight:normal;font-stretch:normal;font-family:Droid Sans;-inkscape-font-specification:Droid Sans">Examples</tspan></text>
    <rect
       style="fill:#f2f2ee;fill-opacity:1;stroke:#d5d3c9;stroke-width:0.99999982;stroke-linecap:butt;stroke-linejoin:miter;stroke-miterlimit:4;stroke-dasharray:none;stroke-dashoffset:0;stroke-opacity:1"
       id="rect10657"
       width="78.999992"
       height="53.999992"
       x="514.5"
       y="687.86218"
       rx="0"
       ry="0" />
    <rect
       ry="2.3102131"
       rx="2.3102131"
       y="692.86212"
       x="519.5"
       height="43.999996"
       width="69"
       id="rect10659"
       style="fill:#eef4d7;fill-opacity:1;stroke:#677821;stroke-width:1;stroke-linecap:butt;stroke-linejoin:miter;stroke-miterlimit:4;stroke-dasharray:none;stroke-dashoffset:0;stroke-opacity:1" />
    <rect
       style="fill:#ffffff;fill-opacity:1;stroke:#677821;stroke-width:1;stroke-linecap:butt;stroke-linejoin:miter;stroke-miterlimit:4;stroke-dasharray:0.99999997, 0.99999997;stroke-dashoffset:0;stroke-opacity:1"
       id="rect10661"
       width="55"
       height="31.999994"
       x="526.5"
       y="698.86212"
       rx="2.3102131"
       ry="2.3102131" />
    <rect
       ry="4"
       rx="4"
       y="675.86218"
       x="501.5"
       height="77.999992"
       width="104.99999"
       id="rect10663"
       style="fill:none;fill-opacity:1;stroke:#ff6600;stroke-width:1;stroke-linecap:butt;stroke-linejoin:miter;stroke-miterlimit:4;stroke-dasharray:1, 1;stroke-dashoffset:0;stroke-opacity:1" />
    <text
       id="text10671"
       y="775.36218"
       x="491"
       style="font-size:40px;font-style:normal;font-weight:normal;fill:#000000;fill-opacity:1;stroke:none;stroke-width:1px;stroke-linecap:butt;stroke-linejoin:miter;stroke-opacity:1;font-family:Bitstream Vera Sans"
       xml:space="preserve"><tspan
         style="font-size:10px;font-style:normal;font-variant:normal;font-weight:normal;font-stretch:normal;font-family:Droid Sans;-inkscape-font-specification:Droid Sans"
         y="775.36218"
         x="491"
         sodipodi:role="line"
         id="tspan10675">Touchable area can be larger </tspan><tspan
         style="font-size:10px;font-style:normal;font-variant:normal;font-weight:normal;font-stretch:normal;font-family:Droid Sans;-inkscape-font-specification:Droid Sans"
         y="787.86218"
         x="491"
         sodipodi:role="line"
         id="tspan10683">than the component itself by</tspan><tspan
         style="font-size:10px;font-style:normal;font-variant:normal;font-weight:normal;font-stretch:normal;font-family:Droid Sans;-inkscape-font-specification:Droid Sans"
         y="800.36218"
         x="491"
         sodipodi:role="line"
         id="tspan10715">specifying additional reactive</tspan><tspan
         style="font-size:10px;font-style:normal;font-variant:normal;font-weight:normal;font-stretch:normal;font-family:Droid Sans;-inkscape-font-specification:Droid Sans"
         y="812.86218"
         x="491"
         sodipodi:role="line"
         id="tspan10717">margins.</tspan></text>
    <g
       id="g11853"
       transform="translate(-180,0)">
      <rect
         style="fill:#f2f2ee;fill-opacity:1;stroke:#d5d3c9;stroke-width:0.99999976;stroke-linecap:butt;stroke-linejoin:miter;stroke-miterlimit:4;stroke-dasharray:none;stroke-dashoffset:0;stroke-opacity:1"
         id="rect10651"
         width="93.999992"
         height="62.999992"
         x="333.47583"
         y="687.86218"
         rx="0"
         ry="0" />
      <rect
         ry="2.3102131"
         rx="2.3102131"
         y="692.86212"
         x="338.47583"
         height="43.999996"
         width="69"
         id="rect10653"
         style="fill:#eef4d7;fill-opacity:1;stroke:#677821;stroke-width:1;stroke-linecap:butt;stroke-linejoin:miter;stroke-miterlimit:4;stroke-dasharray:none;stroke-dashoffset:0;stroke-opacity:1" />
      <rect
         style="fill:#ffffff;fill-opacity:1;stroke:#677821;stroke-width:1;stroke-linecap:butt;stroke-linejoin:miter;stroke-miterlimit:4;stroke-dasharray:1.00000002, 1.00000002;stroke-dashoffset:0;stroke-opacity:1"
         id="rect10655"
         width="67"
         height="29.999996"
         x="339.47583"
         y="699.86212"
         rx="2.3102133"
         ry="2.3102133" />
      <text
         id="text10685"
         y="775.36218"
         x="319.97583"
         style="font-size:40px;font-style:normal;font-weight:normal;fill:#000000;fill-opacity:1;stroke:none;stroke-width:1px;stroke-linecap:butt;stroke-linejoin:miter;stroke-opacity:1;font-family:Bitstream Vera Sans"
         xml:space="preserve"><tspan
           id="tspan10693"
           style="font-size:10px;font-style:normal;font-variant:normal;font-weight:normal;font-stretch:normal;font-family:Droid Sans;-inkscape-font-specification:Droid Sans"
           y="775.36218"
           x="319.97583"
           sodipodi:role="line">Paddings and margins can </tspan><tspan
           id="tspan10697"
           style="font-size:10px;font-style:normal;font-variant:normal;font-weight:normal;font-stretch:normal;font-family:Droid Sans;-inkscape-font-specification:Droid Sans"
           y="787.86218"
           x="319.97583"
           sodipodi:role="line">be different for all sides.</tspan><tspan
           style="font-size:10px;font-style:normal;font-variant:normal;font-weight:normal;font-stretch:normal;fill:#5a5a5a;fill-opacity:1;font-family:Droid Sans;-inkscape-font-specification:Droid Sans"
           y="800.36218"
           x="319.97583"
           sodipodi:role="line"
           id="tspan11861"
           dy="5">margin-top: 2mm;</tspan><tspan
           style="font-size:10px;font-style:normal;font-variant:normal;font-weight:normal;font-stretch:normal;fill:#5a5a5a;fill-opacity:1;font-family:Droid Sans;-inkscape-font-specification:Droid Sans"
           y="812.86218"
           x="319.97583"
           sodipodi:role="line"
           id="tspan11867">margin-left: 2mm;</tspan><tspan
           style="font-size:10px;font-style:normal;font-variant:normal;font-weight:normal;font-stretch:normal;fill:#5a5a5a;fill-opacity:1;font-family:Droid Sans;-inkscape-font-specification:Droid Sans"
           y="825.36218"
           x="319.97583"
           sodipodi:role="line"
           id="tspan11863">margin-right: 8mm;</tspan><tspan
           style="font-size:10px;font-style:normal;font-variant:normal;font-weight:normal;font-stretch:normal;fill:#5a5a5a;fill-opacity:1;font-family:Droid Sans;-inkscape-font-specification:Droid Sans"
           y="837.86218"
           x="319.97583"
           sodipodi:role="line"
           id="tspan11865">margin-bottom: 6mm;</tspan><tspan
           style="font-size:10px;font-style:normal;font-variant:normal;font-weight:normal;font-stretch:normal;fill:#5a5a5a;fill-opacity:1;font-family:Droid Sans;-inkscape-font-specification:Droid Sans"
           y="850.36218"
           x="319.97583"
           sodipodi:role="line"
           id="tspan11871"
           dy="4">padding-left: 0;</tspan><tspan
           style="font-size:10px;font-style:normal;font-variant:normal;font-weight:normal;font-stretch:normal;fill:#5a5a5a;fill-opacity:1;font-family:Droid Sans;-inkscape-font-specification:Droid Sans"
           y="862.86218"
           x="319.97583"
           sodipodi:role="line"
           id="tspan11875">padding-right: 0;</tspan><tspan
           style="font-size:10px;font-style:normal;font-variant:normal;font-weight:normal;font-stretch:normal;fill:#5a5a5a;fill-opacity:1;font-family:Droid Sans;-inkscape-font-specification:Droid Sans"
           y="875.36218"
           x="319.97583"
           sodipodi:role="line"
           id="tspan11877">padding-top: 3mm;</tspan><tspan
           style="font-size:10px;font-style:normal;font-variant:normal;font-weight:normal;font-stretch:normal;fill:#5a5a5a;fill-opacity:1;font-family:Droid Sans;-inkscape-font-specification:Droid Sans"
           y="887.86218"
           x="319.97583"
           sodipodi:role="line"
           id="tspan11879">padding-bottom: 3mm;</tspan></text>
    </g>
    <rect
       style="fill:#f2f2ee;fill-opacity:1;stroke:#ff6600;stroke-width:0.99999982;stroke-linecap:butt;stroke-linejoin:miter;stroke-miterlimit:4;stroke-dasharray:0.99999997, 0.99999997;stroke-dashoffset:0;stroke-opacity:1"
       id="rect10627"
       width="79"
       height="53.999996"
       x="336.5"
       y="687.86212"
       rx="2.3102131"
       ry="2.3102131" />
    <rect
       ry="2.3102131"
       rx="2.3102131"
       y="692.86212"
       x="341.5"
       height="43.999996"
       width="67.97583"
       id="rect11831"
       style="fill:#eef4d7;fill-opacity:1;stroke:#677821;stroke-width:1;stroke-linecap:butt;stroke-linejoin:miter;stroke-miterlimit:4;stroke-dasharray:none;stroke-dashoffset:0;stroke-opacity:1" />
    <rect
       ry="2.3102133"
       rx="2.3102133"
       y="698.86212"
       x="348.5"
       height="31.999998"
       width="55"
       id="rect10631"
       style="fill:#ffffff;fill-opacity:1;stroke:#677821;stroke-width:1;stroke-linecap:butt;stroke-linejoin:miter;stroke-miterlimit:4;stroke-dasharray:1.00000002, 1.00000002;stroke-dashoffset:0;stroke-opacity:1" />
    <text
       id="text10699"
       y="775.36218"
       x="315"
       style="font-size:40px;font-style:normal;font-weight:normal;fill:#000000;fill-opacity:1;stroke:none;stroke-width:1px;stroke-linecap:butt;stroke-linejoin:miter;stroke-opacity:1;font-family:Bitstream Vera Sans"
       xml:space="preserve"><tspan
         style="font-size:10px;font-style:normal;font-variant:normal;font-weight:normal;font-stretch:normal;font-family:Droid Sans;-inkscape-font-specification:Droid Sans"
         y="775.36218"
         x="315"
         sodipodi:role="line"
         id="tspan10707">Touchable area is the same</tspan><tspan
         style="font-size:10px;font-style:normal;font-variant:normal;font-weight:normal;font-stretch:normal;font-family:Droid Sans;-inkscape-font-specification:Droid Sans"
         y="787.86218"
         x="315"
         sodipodi:role="line"
         id="tspan10713">size as the component and its</tspan><tspan
         id="tspan11672"
         style="font-size:10px;font-style:normal;font-variant:normal;font-weight:normal;font-stretch:normal;font-family:Droid Sans;-inkscape-font-specification:Droid Sans"
         y="800.36218"
         x="315"
         sodipodi:role="line">margins by default.</tspan></text>
    <g
       id="g11656"
       transform="matrix(0.3062235,0,0,0.3062235,563.17437,926.63413)">
      <path
         id="path3096"
         d="M -585.0312,-1.96875 C -586.2422,-1.96875 -587.2188,-0.99209 -587.2188,0.21875 C -587.2188,1.42959 -586.2422,2.40625 -585.0312,2.40625 C -583.8204,2.40625 -582.8125,1.42959 -582.8125,0.21875 C -582.8125,-0.99209 -583.8204,-1.96875 -585.0312,-1.96875 z M -572,15.59375 C -572.766,15.62245 -573.6563,15.70876 -574.6875,15.90625 C -576.75,16.3013 -579.3666,17.11102 -582.2812,18.625 C -585.1958,20.13899 -588.4279,22.38081 -591.4375,25.625 C -594.0077,28.42401 -596.471,32.0533 -598.3438,36.46875 C -600.2165,40.88423 -601.5126,46.07702 -601.625,51.75 C -602.1504,57.60506 -601.4537,64.05134 -599.5938,70.84375 C -597.734,77.63616 -594.6872,84.76856 -590.875,91.84375 C -587.5601,97.93475 -583.6289,104.04372 -579.4375,110.28125 C -575.2461,116.51878 -570.8198,122.90185 -566.6562,129.5625 C -562.8637,135.65308 -559.2554,142.0607 -556.4062,148.7188 C -553.5573,155.3768 -551.4432,162.26 -550.7188,169.2813 C -550.4671,171.599 -550.3709,173.9198 -550.4062,176.2188 C -550.4742,180.6127 -551.0803,184.8754 -552.3125,188.75 C -554.2747,194.8099 -557.5824,200.1661 -561.75,203.8125 C -566.2491,208.4239 -571.9353,211.6558 -577.75,213.4688 C -583.5646,215.2817 -589.4991,215.6781 -594.6875,214.7188 C -600.448,213.7031 -605.7528,210.9658 -610,207.5313 C -614.2471,204.0965 -617.448,199.9633 -619.2187,195.8125 C -621.5131,190.8083 -622.1141,185.2114 -621.6875,180.2813 C -621.2609,175.3511 -619.8026,171.0844 -617.8437,167.9063 C -615.9151,164.5189 -613.2283,161.8449 -610.6562,159.8125 C -608.0842,157.7799 -605.5986,156.3598 -603.5312,155.375 C -601.4639,154.3902 -599.7948,153.8111 -598.625,153.3438 C -597.4551,152.8764 -596.7713,152.5205 -596.625,152.125 C -596.4643,151.6905 -596.9792,151.2077 -598.2188,150.8438 C -599.4582,150.4796 -601.4305,150.262 -604.1875,150.5938 C -606.9445,150.9255 -610.5057,151.8382 -614.4062,153.9063 C -618.3068,155.9741 -622.5737,159.217 -625.9687,164.0313 C -628.9856,168.1858 -631.4012,173.7826 -632.3125,180.375 C -633.2238,186.9676 -632.6545,194.5511 -629.5625,201.8438 C -627.0779,207.7999 -622.8147,213.6129 -617.0312,218.375 C -611.2477,223.1371 -603.9444,226.851 -595.6562,228.3125 C -588.2707,229.6159 -580.1584,229.0945 -572.3125,226.5938 C -564.4666,224.0932 -556.8768,219.6033 -550.6875,213.0625 C -544.7302,207.3725 -540.3157,199.8422 -538.0312,191.5313 C -537.8987,191.0552 -537.7763,190.5736 -537.6562,190.0938 C -535.6854,182.2215 -535.4277,174.0327 -536.5312,166.1875 C -537.8036,157.5351 -540.4434,149.3783 -543.8125,141.8125 C -547.1815,134.24647 -551.2788,127.27041 -555.5625,120.9375 C -560.1311,113.99589 -564.7913,107.63269 -569.0625,101.625 C -573.3338,95.61729 -577.2096,89.9823 -580.375,84.5 C -583.8887,78.07013 -586.7778,71.90042 -588.625,66.21875 C -590.4722,60.53707 -591.2828,55.32587 -590.9688,50.71875 C -591.1037,46.46894 -590.3823,42.40175 -589.2188,38.84375 C -588.0551,35.28578 -586.4384,32.24027 -584.7188,29.8125 C -582.9224,27.31831 -580.9128,25.31601 -579,23.71875 C -577.0871,22.12152 -575.2855,20.92675 -573.7812,20 C -572.277,19.07325 -571.0424,18.41387 -570.1875,17.875 C -569.3326,17.33613 -568.8571,16.92111 -568.7812,16.5625 C -568.6962,16.16262 -569.1384,15.84984 -570.125,15.6875 C -570.6183,15.6064 -571.234,15.56506 -572,15.5938 L -572,15.59375 z M -606.5938,17.03125 C -608.41,17.03125 -609.875,18.52749 -609.875,20.34375 C -609.875,22.16001 -608.41,23.625 -606.5938,23.625 C -604.7776,23.625 -603.3125,22.16001 -603.3125,20.34375 C -603.3125,18.52749 -604.7776,17.03125 -606.5938,17.03125 z M -577.3438,55.8125 C -579.9672,55.8125 -582.0938,57.93901 -582.0938,60.5625 C -582.0938,63.18598 -579.9672,65.3125 -577.3438,65.3125 C -574.7203,65.3125 -572.5938,63.18598 -572.5938,60.5625 C -572.5938,57.93901 -574.7203,55.8125 -577.3438,55.8125 z M -598.1875,112.84375 C -603.0309,112.84375 -606.9688,116.75039 -606.9688,121.59375 C -606.9688,126.43711 -603.0309,130.375 -598.1875,130.375 C -593.3442,130.375 -589.4062,126.43711 -589.4062,121.59375 C -589.4062,116.75039 -593.3442,112.84375 -598.1875,112.84375 L -598.1875,112.84375 z"
         style="fill:url(#linearGradient11668);fill-opacity:1;stroke:none" />
      <g
         transform="translate(-834.9734,-55.63732)"
         id="g3457">
        <path
           id="path3459"
           d="M 162.797,340.821 C 162.797,341.003 162.757,341.161 162.678,341.296 C 162.599,341.433 162.463,341.54 162.272,341.618 C 162.08,341.698 161.825,341.76 161.508,341.806 C 161.192,341.851 160.807,341.873 160.355,341.873 C 159.88,341.873 159.485,341.851 159.168,341.806 C 158.851,341.76 158.591,341.699 158.388,341.618 C 158.184,341.54 158.036,341.432 157.947,341.296 C 157.856,341.161 157.811,341.003 157.811,340.821 L 157.811,336.785 C 156.206,338.526 154.538,339.884 152.808,340.855 C 151.078,341.826 149.184,342.313 147.126,342.313 C 144.888,342.313 142.977,341.877 141.394,341.007 C 139.811,340.137 138.528,338.961 137.544,337.48 C 136.56,335.999 135.842,334.257 135.39,332.256 C 134.938,330.254 134.711,328.147 134.711,325.93 C 134.711,323.307 134.994,320.938 135.56,318.825 C 136.124,316.71 136.961,314.907 138.07,313.414 C 139.177,311.922 140.551,310.774 142.191,309.972 C 143.831,309.17 145.724,308.767 147.873,308.767 C 149.659,308.767 151.293,309.158 152.774,309.938 C 154.255,310.718 155.719,311.867 157.167,313.38 L 157.167,295.64 C 157.167,295.483 157.206,295.329 157.286,295.183 C 157.365,295.037 157.517,294.923 157.744,294.843 C 157.97,294.765 158.258,294.697 158.608,294.64 C 158.958,294.583 159.406,294.555 159.948,294.555 C 160.513,294.555 160.977,294.583 161.339,294.64 C 161.701,294.697 161.984,294.765 162.188,294.843 C 162.391,294.923 162.544,295.036 162.646,295.183 C 162.748,295.33 162.798,295.483 162.798,295.64 L 162.798,340.821 L 162.797,340.821 z M 157.166,319.351 C 155.651,317.474 154.187,316.043 152.773,315.06 C 151.36,314.076 149.884,313.584 148.346,313.584 C 146.922,313.584 145.712,313.923 144.717,314.602 C 143.722,315.281 142.913,316.173 142.291,317.282 C 141.669,318.391 141.217,319.645 140.935,321.047 C 140.652,322.449 140.511,323.874 140.511,325.321 C 140.511,326.859 140.629,328.363 140.867,329.832 C 141.104,331.303 141.516,332.608 142.104,333.75 C 142.692,334.893 143.472,335.809 144.445,336.498 C 145.417,337.187 146.638,337.532 148.108,337.532 C 148.854,337.532 149.572,337.43 150.262,337.226 C 150.951,337.023 151.658,336.683 152.382,336.208 C 153.106,335.733 153.862,335.118 154.654,334.36 C 155.445,333.602 156.282,332.669 157.164,331.561 L 157.164,319.351 L 157.166,319.351 z"
           style="fill:#010101" />
        <path
           id="path3461"
           d="M 182.856,299.981 C 182.856,301.293 182.607,302.186 182.11,302.661 C 181.613,303.137 180.697,303.374 179.363,303.374 C 178.051,303.374 177.152,303.143 176.666,302.679 C 176.18,302.216 175.937,301.339 175.937,300.05 C 175.937,298.739 176.185,297.845 176.683,297.37 C 177.18,296.895 178.096,296.657 179.43,296.657 C 180.742,296.657 181.64,296.889 182.127,297.353 C 182.613,297.817 182.856,298.693 182.856,299.981 z M 182.212,340.821 C 182.212,341.003 182.167,341.155 182.076,341.279 C 181.986,341.403 181.839,341.511 181.636,341.601 C 181.432,341.692 181.15,341.759 180.788,341.805 C 180.426,341.85 179.962,341.872 179.396,341.872 C 178.854,341.872 178.401,341.85 178.04,341.805 C 177.678,341.759 177.39,341.692 177.175,341.601 C 176.96,341.511 176.814,341.403 176.735,341.279 C 176.655,341.155 176.616,341.003 176.616,340.821 L 176.616,310.294 C 176.616,310.136 176.655,309.988 176.735,309.853 C 176.814,309.717 176.961,309.605 177.175,309.514 C 177.389,309.423 177.678,309.356 178.04,309.31 C 178.401,309.265 178.854,309.243 179.396,309.243 C 179.961,309.243 180.425,309.265 180.788,309.31 C 181.149,309.356 181.432,309.423 181.636,309.514 C 181.839,309.605 181.987,309.717 182.076,309.853 C 182.167,309.989 182.212,310.136 182.212,310.294 L 182.212,340.821 z"
           style="fill:#010101" />
        <path
           id="path3463"
           d="M 213.873,312.295 C 213.873,312.792 213.861,313.211 213.84,313.55 C 213.817,313.89 213.772,314.155 213.704,314.347 C 213.636,314.54 213.551,314.687 213.449,314.788 C 213.347,314.889 213.206,314.94 213.025,314.94 C 212.843,314.94 212.624,314.889 212.364,314.788 C 212.103,314.686 211.809,314.585 211.482,314.483 C 211.154,314.38 210.786,314.285 210.379,314.194 C 209.972,314.104 209.53,314.058 209.056,314.058 C 208.491,314.058 207.937,314.172 207.394,314.397 C 206.851,314.624 206.28,314.997 205.681,315.516 C 205.081,316.037 204.454,316.727 203.798,317.586 C 203.142,318.445 202.419,319.496 201.627,320.74 L 201.627,340.82 C 201.627,341.002 201.582,341.154 201.491,341.278 C 201.401,341.402 201.254,341.51 201.051,341.6 C 200.847,341.691 200.565,341.758 200.203,341.804 C 199.841,341.849 199.377,341.871 198.811,341.871 C 198.269,341.871 197.816,341.849 197.455,341.804 C 197.093,341.758 196.805,341.691 196.59,341.6 C 196.375,341.51 196.229,341.402 196.15,341.278 C 196.07,341.154 196.031,341.002 196.031,340.82 L 196.031,310.293 C 196.031,310.111 196.065,309.959 196.133,309.835 C 196.201,309.711 196.337,309.598 196.54,309.496 C 196.744,309.394 197.004,309.326 197.32,309.292 C 197.636,309.258 198.054,309.241 198.575,309.241 C 199.072,309.241 199.485,309.258 199.813,309.292 C 200.14,309.326 200.395,309.395 200.577,309.496 C 200.758,309.598 200.888,309.711 200.967,309.835 C 201.046,309.959 201.086,310.111 201.086,310.293 L 201.086,314.736 C 201.922,313.515 202.708,312.52 203.443,311.752 C 204.177,310.982 204.873,310.377 205.529,309.937 C 206.184,309.497 206.835,309.191 207.479,309.021 C 208.124,308.852 208.773,308.766 209.429,308.766 C 209.723,308.766 210.057,308.784 210.43,308.818 C 210.803,308.852 211.193,308.915 211.6,309.005 C 212.007,309.095 212.374,309.197 212.703,309.31 C 213.03,309.423 213.263,309.537 213.398,309.65 C 213.533,309.763 213.624,309.871 213.669,309.972 C 213.714,310.074 213.754,310.204 213.787,310.362 C 213.821,310.521 213.844,310.752 213.855,311.057 C 213.867,311.362 213.873,311.774 213.873,312.295 L 213.873,312.295 z"
           style="fill:#010101" />
        <path
           id="path3465"
           d="M 248.858,324.235 C 248.858,325.116 248.636,325.744 248.193,326.117 C 247.751,326.49 247.245,326.677 246.677,326.677 L 226.573,326.677 C 226.573,328.373 226.743,329.9 227.084,331.256 C 227.425,332.612 227.993,333.778 228.788,334.75 C 229.583,335.722 230.617,336.469 231.89,336.988 C 233.162,337.509 234.719,337.768 236.56,337.768 C 238.014,337.768 239.309,337.649 240.446,337.413 C 241.582,337.175 242.565,336.909 243.394,336.615 C 244.223,336.321 244.905,336.055 245.439,335.818 C 245.973,335.581 246.377,335.462 246.65,335.462 C 246.809,335.462 246.951,335.502 247.076,335.581 C 247.201,335.66 247.297,335.779 247.365,335.936 C 247.433,336.095 247.485,336.315 247.518,336.598 C 247.552,336.881 247.57,337.225 247.57,337.632 C 247.57,337.926 247.558,338.181 247.536,338.395 C 247.514,338.611 247.485,338.803 247.451,338.972 C 247.418,339.142 247.361,339.294 247.282,339.43 C 247.202,339.566 247.1,339.696 246.976,339.821 C 246.852,339.945 246.484,340.149 245.873,340.43 C 245.263,340.713 244.471,340.991 243.499,341.262 C 242.526,341.533 241.401,341.776 240.124,341.991 C 238.846,342.206 237.483,342.313 236.036,342.313 C 233.526,342.313 231.327,341.962 229.439,341.262 C 227.55,340.561 225.962,339.521 224.673,338.141 C 223.384,336.762 222.411,335.032 221.756,332.952 C 221.1,330.872 220.772,328.452 220.772,325.693 C 220.772,323.07 221.112,320.713 221.79,318.621 C 222.469,316.53 223.446,314.754 224.725,313.296 C 226.002,311.837 227.545,310.718 229.355,309.938 C 231.164,309.158 233.188,308.767 235.426,308.767 C 237.822,308.767 239.864,309.152 241.549,309.921 C 243.233,310.69 244.618,311.724 245.704,313.025 C 246.789,314.326 247.586,315.851 248.095,317.604 C 248.604,319.357 248.859,321.228 248.859,323.218 L 248.859,324.235 L 248.858,324.235 z M 243.228,322.573 C 243.296,319.634 242.641,317.327 241.265,315.653 C 239.889,313.979 237.847,313.143 235.14,313.143 C 233.751,313.143 232.535,313.403 231.488,313.922 C 230.441,314.443 229.565,315.133 228.86,315.991 C 228.155,316.851 227.609,317.851 227.221,318.993 C 226.834,320.135 226.618,321.328 226.574,322.572 L 243.228,322.572 L 243.228,322.573 z"
           style="fill:#010101" />
        <path
           id="path3467"
           d="M 282.791,336.175 C 282.791,336.56 282.779,336.893 282.757,337.175 C 282.735,337.458 282.695,337.696 282.639,337.888 C 282.582,338.079 282.514,338.249 282.435,338.396 C 282.356,338.544 282.175,338.759 281.893,339.041 C 281.61,339.324 281.129,339.675 280.451,340.094 C 279.773,340.512 279.01,340.885 278.162,341.213 C 277.314,341.541 276.392,341.807 275.397,342.01 C 274.402,342.213 273.373,342.315 272.31,342.315 C 270.117,342.315 268.172,341.954 266.476,341.23 C 264.78,340.506 263.361,339.45 262.219,338.059 C 261.076,336.668 260.206,334.96 259.607,332.936 C 259.008,330.913 258.709,328.578 258.709,325.932 C 258.709,322.924 259.076,320.341 259.812,318.182 C 260.546,316.022 261.553,314.252 262.831,312.873 C 264.109,311.494 265.612,310.471 267.343,309.803 C 269.072,309.137 270.944,308.803 272.956,308.803 C 273.929,308.803 274.873,308.893 275.789,309.074 C 276.704,309.255 277.547,309.492 278.315,309.785 C 279.084,310.08 279.768,310.42 280.368,310.803 C 280.967,311.188 281.402,311.516 281.674,311.787 C 281.946,312.058 282.132,312.273 282.234,312.432 C 282.336,312.591 282.421,312.778 282.488,312.992 C 282.556,313.208 282.601,313.45 282.624,313.721 C 282.647,313.992 282.658,314.331 282.658,314.739 C 282.658,315.621 282.556,316.237 282.353,316.588 C 282.149,316.939 281.9,317.113 281.606,317.113 C 281.267,317.113 280.877,316.926 280.436,316.553 C 279.996,316.18 279.435,315.768 278.757,315.315 C 278.078,314.864 277.258,314.45 276.298,314.077 C 275.336,313.704 274.199,313.518 272.889,313.518 C 270.198,313.518 268.134,314.552 266.699,316.622 C 265.262,318.69 264.545,321.692 264.545,325.628 C 264.545,327.595 264.732,329.319 265.105,330.8 C 265.478,332.281 266.027,333.52 266.751,334.515 C 267.475,335.51 268.362,336.25 269.414,336.736 C 270.465,337.223 271.669,337.466 273.026,337.466 C 274.315,337.466 275.445,337.262 276.418,336.855 C 277.39,336.449 278.232,336.001 278.945,335.515 C 279.657,335.029 280.256,334.588 280.743,334.193 C 281.228,333.797 281.607,333.599 281.879,333.599 C 282.037,333.599 282.173,333.644 282.286,333.735 C 282.399,333.826 282.495,333.978 282.574,334.193 C 282.653,334.408 282.71,334.679 282.744,335.007 C 282.774,335.332 282.791,335.722 282.791,336.175 L 282.791,336.175 z"
           style="fill:#010101" />
        <path
           id="path3469"
           d="M 309.568,338.583 C 309.568,339.239 309.522,339.759 309.432,340.144 C 309.341,340.529 309.205,340.811 309.025,340.992 C 308.843,341.174 308.572,341.343 308.211,341.501 C 307.85,341.659 307.437,341.789 306.974,341.891 C 306.51,341.993 306.018,342.079 305.498,342.146 C 304.977,342.213 304.457,342.248 303.937,342.248 C 302.354,342.248 300.997,342.038 299.867,341.62 C 298.736,341.202 297.808,340.569 297.086,339.722 C 296.361,338.873 295.836,337.8 295.509,336.499 C 295.181,335.198 295.017,333.667 295.017,331.902 L 295.017,314.06 L 290.743,314.06 C 290.404,314.06 290.133,313.879 289.93,313.518 C 289.726,313.157 289.624,312.568 289.624,311.754 C 289.624,311.324 289.652,310.962 289.709,310.668 C 289.766,310.374 289.839,310.131 289.93,309.939 C 290.02,309.747 290.139,309.612 290.286,309.532 C 290.432,309.454 290.597,309.413 290.777,309.413 L 295.017,309.413 L 295.017,302.155 C 295.017,301.997 295.056,301.849 295.135,301.714 C 295.214,301.579 295.362,301.46 295.576,301.359 C 295.791,301.256 296.079,301.183 296.441,301.138 C 296.802,301.093 297.254,301.07 297.797,301.07 C 298.362,301.07 298.825,301.093 299.188,301.138 C 299.549,301.183 299.833,301.256 300.036,301.359 C 300.24,301.461 300.387,301.579 300.477,301.714 C 300.567,301.85 300.613,301.997 300.613,302.155 L 300.613,309.413 L 308.448,309.413 C 308.63,309.413 308.788,309.454 308.924,309.532 C 309.06,309.612 309.178,309.747 309.279,309.939 C 309.382,310.131 309.455,310.375 309.5,310.668 C 309.545,310.961 309.568,311.324 309.568,311.754 C 309.568,312.567 309.466,313.156 309.262,313.518 C 309.059,313.879 308.787,314.06 308.448,314.06 L 300.613,314.06 L 300.613,331.088 C 300.613,333.191 300.924,334.779 301.546,335.854 C 302.168,336.929 303.281,337.465 304.887,337.465 C 305.408,337.465 305.871,337.414 306.279,337.312 C 306.685,337.21 307.047,337.104 307.364,336.99 C 307.68,336.878 307.952,336.77 308.178,336.669 C 308.404,336.566 308.607,336.516 308.788,336.516 C 308.9,336.516 309.009,336.544 309.11,336.601 C 309.211,336.658 309.291,336.765 309.347,336.923 C 309.403,337.081 309.454,337.296 309.499,337.568 C 309.544,337.84 309.568,338.176 309.568,338.583 L 309.568,338.583 z"
           style="fill:#010101" />
        <path
           id="path3471"
           d="M 346.588,340.821 C 346.588,341.003 346.548,341.155 346.469,341.279 C 346.39,341.403 346.249,341.511 346.045,341.601 C 345.842,341.692 345.575,341.759 345.248,341.805 C 344.92,341.85 344.519,341.872 344.044,341.872 C 343.523,341.872 343.1,341.85 342.772,341.805 C 342.445,341.759 342.184,341.692 341.993,341.601 C 341.801,341.511 341.671,341.403 341.602,341.279 C 341.535,341.155 341.5,341.003 341.5,340.821 L 341.5,336.785 C 339.759,338.708 338.04,340.108 336.344,340.991 C 334.649,341.873 332.93,342.313 331.189,342.313 C 329.154,342.313 327.441,341.974 326.05,341.295 C 324.659,340.617 323.533,339.695 322.675,338.531 C 321.815,337.367 321.199,336.01 320.826,334.461 C 320.453,332.912 320.266,331.029 320.266,328.813 L 320.266,310.293 C 320.266,310.111 320.305,309.959 320.384,309.835 C 320.463,309.711 320.615,309.598 320.842,309.496 C 321.068,309.394 321.362,309.326 321.724,309.292 C 322.085,309.258 322.538,309.241 323.081,309.241 C 323.623,309.241 324.075,309.258 324.437,309.292 C 324.798,309.326 325.086,309.395 325.302,309.496 C 325.516,309.598 325.669,309.711 325.759,309.835 C 325.85,309.959 325.895,310.111 325.895,310.293 L 325.895,328.066 C 325.895,329.853 326.025,331.283 326.286,332.357 C 326.546,333.431 326.941,334.347 327.474,335.105 C 328.004,335.863 328.678,336.451 329.492,336.869 C 330.306,337.287 331.256,337.496 332.342,337.496 C 333.743,337.496 335.14,336.999 336.53,336.004 C 337.922,335.01 339.396,333.551 340.957,331.629 L 340.957,310.293 C 340.957,310.111 340.996,309.959 341.076,309.835 C 341.155,309.711 341.307,309.598 341.534,309.496 C 341.76,309.394 342.048,309.326 342.398,309.292 C 342.748,309.258 343.207,309.241 343.772,309.241 C 344.315,309.241 344.767,309.258 345.128,309.292 C 345.49,309.326 345.773,309.395 345.977,309.496 C 346.18,309.598 346.333,309.711 346.435,309.835 C 346.537,309.959 346.587,310.111 346.587,310.293 L 346.587,340.821 L 346.588,340.821 z"
           style="fill:#010101" />
        <path
           id="path3473"
           d="M 366.647,299.981 C 366.647,301.293 366.398,302.186 365.901,302.661 C 365.404,303.137 364.488,303.374 363.154,303.374 C 361.842,303.374 360.943,303.143 360.457,302.679 C 359.971,302.216 359.728,301.339 359.728,300.05 C 359.728,298.739 359.976,297.845 360.474,297.37 C 360.971,296.895 361.887,296.657 363.221,296.657 C 364.533,296.657 365.431,296.889 365.918,297.353 C 366.404,297.817 366.647,298.693 366.647,299.981 z M 366.003,340.821 C 366.003,341.003 365.958,341.155 365.867,341.279 C 365.777,341.403 365.63,341.511 365.427,341.601 C 365.223,341.692 364.941,341.759 364.579,341.805 C 364.217,341.85 363.753,341.872 363.187,341.872 C 362.645,341.872 362.192,341.85 361.831,341.805 C 361.469,341.759 361.181,341.692 360.966,341.601 C 360.751,341.511 360.605,341.403 360.526,341.279 C 360.446,341.155 360.407,341.003 360.407,340.821 L 360.407,310.294 C 360.407,310.136 360.446,309.988 360.526,309.853 C 360.605,309.717 360.752,309.605 360.966,309.514 C 361.18,309.423 361.469,309.356 361.831,309.31 C 362.192,309.265 362.645,309.243 363.187,309.243 C 363.752,309.243 364.216,309.265 364.579,309.31 C 364.94,309.356 365.223,309.423 365.427,309.514 C 365.63,309.605 365.778,309.717 365.867,309.853 C 365.958,309.989 366.003,310.136 366.003,310.294 L 366.003,340.821 z"
           style="fill:#010101" />
      </g>
    </g>
    <text
       id="text11686"
       y="385.68094"
       x="308.63245"
       style="font-size:40px;font-style:normal;font-weight:normal;fill:#aca793;fill-opacity:1;stroke:none;stroke-width:1px;stroke-linecap:butt;stroke-linejoin:miter;stroke-opacity:1;font-family:Bitstream Vera Sans"
       xml:space="preserve"><tspan
         style="font-size:16px;font-style:normal;font-variant:normal;font-weight:normal;font-stretch:normal;fill:#aca793;font-family:Droid Sans;-inkscape-font-specification:Droid Sans"
         y="385.68094"
         x="308.63245"
         id="tspan11688"
         sodipodi:role="line">(container content)</tspan></text>
  </g>
</svg>
