<?xml version="1.0" encoding="iso-8859-1"?>
<!-- Generator: Adobe Illustrator 14.0.0, SVG Export Plug-In . SVG Version: 6.00 Build 43363)  -->
<!DOCTYPE svg PUBLIC "-//W3C//DTD SVG 1.1//EN" "http://www.w3.org/Graphics/SVG/1.1/DTD/svg11.dtd">
<svg version="1.1" xmlns="http://www.w3.org/2000/svg" xmlns:xlink="http://www.w3.org/1999/xlink" x="0px" y="0px" width="1351px"
	 height="970px" viewBox="0 0 1351 970" style="enable-background:new 0 0 1351 970;" xml:space="preserve">
<g id="clock-layer">
</g>
<g id="dui-theme-rd">
	<g id="clock_1_">
		<g id="ClockTemplatehelper">
			<g>
				<path style="fill:#B3B3B3;" d="M16,969.867c-8.271,0-15-6.729-15-15V17C1,8.729,7.729,2,16,2h1318.911c8.271,0,15,6.729,15,15
					v937.867c0,8.271-6.729,15-15,15H16z"/>
				<g>
					<path d="M1334.911,3c7.72,0,14,6.28,14,14v937.867c0,7.72-6.28,14-14,14H16c-7.72,0-14-6.28-14-14V17C2,9.28,8.28,3,16,3
						H1334.911 M1334.911,1H16C7.2,1,0,8.2,0,17v937.867c0,8.8,7.2,16,16,16h1318.911c8.8,0,16-7.2,16-16V17
						C1350.911,8.2,1343.711,1,1334.911,1L1334.911,1z"/>
				</g>
			</g>
			<path style="fill:#010101;" d="M226.34,92.67c-1.696,0.805-5,1.428-9.017,1.428c-15.447,0-22.768-12.588-22.768-29.73
				c0-22.676,12.588-31.515,24.285-31.515c4.105,0,6.963,0.802,8.125,1.606l-1.965,9.821c-1.339-0.625-2.857-1.162-5.446-1.162
				c-6.606,0-12.588,5.714-12.588,20.624c0,14.375,5.444,19.999,12.588,19.999c1.964,0,4.196-0.446,5.626-0.893L226.34,92.67z"/>
			<path style="fill:#010101;" d="M232.241,31.781h11.695v61.781h-11.695V31.781z"/>
			<path style="fill:#010101;" d="M284.206,71.6c0,18.213-10.09,22.677-16.696,22.677c-10.446,0-16.695-8.213-16.695-22.409
				c0-15.713,8.213-22.766,16.874-22.766C278.045,49.102,284.206,57.761,284.206,71.6z M262.421,71.6
				c0,7.499,1.16,13.75,5.356,13.75c3.838,0,4.821-7.322,4.821-13.75c0-5.981-0.983-13.571-5-13.571
				C263.313,58.028,262.421,65.618,262.421,71.6z"/>
			<path style="fill:#010101;" d="M315.017,92.849c-1.162,0.535-4.107,1.249-7.41,1.249c-11.07,0-18.303-7.679-18.303-21.873
				c0-13.48,7.946-22.855,19.999-22.855c2.767,0,5.268,0.625,6.428,1.16l-1.518,9.196c-0.981-0.358-2.411-0.805-4.375-0.805
				c-5.624,0-8.927,5.358-8.927,12.946c0,7.857,3.303,12.678,8.748,12.678c1.696,0,3.126-0.268,4.375-0.893L315.017,92.849z"/>
			<path style="fill:#010101;" d="M331.272,69.01h0.179c0.804-2.499,1.43-4.284,2.144-6.069l5.713-13.036h12.588l-10.623,18.304
				l11.249,25.354h-13.034l-6.251-17.946l-1.964,3.75v14.196h-11.695V31.781h11.695V69.01z"/>
		</g>
		<g id="clock-background-am">
			<g>
				<g>
					<g>
						
							<radialGradient id="SVGID_1_" cx="179.1201" cy="309.4111" r="187.665" gradientTransform="matrix(0.9858 0 0 0.9858 33.334 6.8492)" gradientUnits="userSpaceOnUse">
							<stop  offset="0" style="stop-color:#000000"/>
							<stop  offset="1" style="stop-color:#000000;stop-opacity:0.1"/>
						</radialGradient>
						<path style="fill:url(#SVGID_1_);" d="M394.911,311.865c0,102.174-82.83,185.002-185.002,185.002
							c-102.17,0-184.998-82.828-184.998-185.002c0-102.172,82.828-184.998,184.998-184.998
							C312.081,126.867,394.911,209.693,394.911,311.865z"/>
					</g>
					<g>
						<linearGradient id="SVGID_2_" gradientUnits="userSpaceOnUse" x1="209.9102" y1="495.2012" x2="209.9101" y2="129.1997">
							<stop  offset="0" style="stop-color:#343433"/>
							<stop  offset="0" style="stop-color:#413E3E"/>
							<stop  offset="0.6933" style="stop-color:#6E6F71"/>
							<stop  offset="0.8528" style="stop-color:#CECCCB"/>
							<stop  offset="1" style="stop-color:#636364"/>
						</linearGradient>
						<circle style="fill:url(#SVGID_2_);" cx="209.91" cy="312.199" r="183.001"/>
					</g>
					<g>
						<circle style="fill:#FFFFFF;" cx="210.006" cy="311.561" r="176.798"/>
						<circle style="fill:none;stroke:#E6E6E6;stroke-width:2;" cx="210.006" cy="311.561" r="176.798"/>
					</g>
				</g>
				<g style="opacity:0.5;">
					<g>
						<path d="M207.481,172.438h-8.508v-1.219h3.562v-14.165l-3.562,1.104v-1.196l4.047-1.402h1.08v15.659h3.381V172.438z"/>
						<path d="M219.073,172.438h-8.854v-0.713c0-3.196,1.379-5.266,4.301-7.68c1.816-1.495,2.92-2.599,2.92-4.208
							c0-2.185-1.174-3.059-3.334-3.059c-1.195,0-2.346,0.345-3.312,0.713v-1.311c1.104-0.368,2.139-0.667,3.541-0.667
							c2.76,0,4.668,1.08,4.668,4.208c0,2.185-1.424,3.633-3.471,5.312c-2.645,2.162-3.748,3.748-3.818,6.186h7.359V172.438z"/>
					</g>
					<g>
						<path d="M54.005,316.273c0.447,0.092,1.26,0.23,1.943,0.23c3.098,0,3.846-2.414,3.994-6.715
							c-0.49,0.967-1.432,1.793-3.012,1.793c-3.141,0-3.867-2.689-3.867-5.127c0-3.334,1.09-5.863,4.166-5.863
							c3.975,0,4.209,4.438,4.209,8.002c0,5.932-1.496,9.105-5.383,9.105c-0.748,0-1.539-0.092-2.051-0.184V316.273z
							 M57.208,301.787c-2.178,0-2.691,2.115-2.691,4.621c0,1.91,0.385,3.979,2.607,3.979c1.922,0,2.861-1.379,2.861-3.633
							C59.985,304.73,59.558,301.787,57.208,301.787z"/>
					</g>
					<g>
						<path d="M360.938,301.811c-1.105,0-2.277,0.299-3.197,0.529v-1.266c1.012-0.254,2.277-0.461,3.518-0.461
							c2.715,0,4.324,1.127,4.324,3.957c0,2.137-1.082,3.518-2.967,4.068c2.186,0.484,3.289,1.887,3.289,4.094
							c0,3.15-1.473,4.967-5.152,4.967c-1.195,0-2.367-0.207-3.357-0.459v-1.242c1.059,0.252,2.162,0.506,3.336,0.506
							c2.645,0,3.609-1.311,3.609-3.633c0-3.289-2.414-3.633-5.727-3.633v-1.127c3.543,0,5.404-0.598,5.404-3.473
							C364.019,302.684,363.007,301.811,360.938,301.811z"/>
					</g>
					<g>
						<path d="M343.681,243.949h-8.854v-0.713c0-3.196,1.379-5.266,4.301-7.68c1.816-1.495,2.92-2.599,2.92-4.208
							c0-2.185-1.174-3.059-3.334-3.059c-1.195,0-2.346,0.345-3.312,0.713v-1.311c1.104-0.368,2.139-0.667,3.541-0.667
							c2.76,0,4.668,1.08,4.668,4.208c0,2.185-1.424,3.633-3.471,5.312c-2.645,2.162-3.748,3.748-3.818,6.186h7.359V243.949z"/>
					</g>
					<g>
						<path d="M287.341,193.31h-8.508v-1.219h3.562v-14.165l-3.562,1.104v-1.196l4.047-1.402h1.08v15.659h3.381V193.31z"/>
					</g>
					<g>
						<path d="M138.388,192.066h-8.508v-1.219h3.564v-14.165l-3.564,1.104v-1.196l4.047-1.402h1.082v15.659h3.379V192.066z"/>
						<path d="M150.142,192.066h-8.508v-1.219h3.562v-14.165l-3.562,1.104v-1.196l4.047-1.402h1.08v15.659h3.381V192.066z"/>
					</g>
					<g>
						<path d="M81.474,240.554h-8.508v-1.219h3.562V225.17l-3.562,1.104v-1.196l4.047-1.402h1.08v15.659h3.381V240.554z"/>
						<path d="M88.856,240.738c-4.139,0-4.553-4.208-4.553-8.762c0-4.116,0.553-8.37,4.623-8.37c4,0,4.461,4.231,4.461,8.37
							C93.388,236.576,92.927,240.738,88.856,240.738z M88.856,224.803c-2.76,0-2.988,3.449-2.988,7.151
							c0,4.415,0.344,7.588,2.988,7.588s2.967-3.288,2.967-7.588C91.823,228.229,91.571,224.803,88.856,224.803z"/>
					</g>
					<g>
						<path d="M76.136,375.48c2.668,0,4.301,1.541,4.301,4.232c0,2.139-0.898,3.473-2.484,3.979c1.656,0.459,2.76,1.838,2.76,4.23
							c0,3.012-1.701,4.668-4.645,4.668c-2.922,0-4.576-1.656-4.576-4.668c0-2.322,1.057-3.68,2.736-4.23
							c-1.541-0.553-2.461-1.887-2.461-3.979C71.767,377.021,73.468,375.48,76.136,375.48z M76.089,384.289
							c-2.344,0-3.035,1.84-3.035,3.541c0,1.932,0.736,3.564,3.014,3.564c2.275,0,3.08-1.609,3.08-3.564
							C79.147,386.129,78.413,384.289,76.089,384.289z M76.089,376.678c-2.045,0-2.758,1.471-2.758,3.15
							c0,2.068,0.941,3.266,2.736,3.266c1.816,0,2.805-1.15,2.805-3.266C78.872,378.104,78.136,376.678,76.089,376.678z"/>
					</g>
					<g>
						<path d="M134.657,429.027c-2.943,4.922-4.875,9.934-4.945,15.637h-1.609c0.047-5.289,2.047-10.67,4.967-15.521h-7.703v-1.219
							h9.291V429.027z"/>
					</g>
					<g>
						<path d="M280.741,435.559c0.414-0.047,0.92-0.07,1.426-0.07c2.553,0,4.92,0.92,4.92,5.037c0,3.725-1.84,5.541-5.404,5.541
							c-1.057,0-2.068-0.184-2.965-0.391v-1.242c0.873,0.207,1.861,0.438,2.805,0.438c2.783,0,4.002-1.242,4.002-4.277
							c0-3.174-1.656-3.908-4.117-3.908c-0.736,0-1.518,0.092-2.162,0.16v-7.68h7.59v1.219h-6.094V435.559z"/>
					</g>
					<g>
						<path d="M344.577,388.473h-1.932v3.934h-1.494v-3.934h-7.014v-1.24l6.875-11.729h1.633v11.75h1.932V388.473z M341.151,387.254
							v-9.656l-5.543,9.656H341.151z"/>
					</g>
					<g>
						<path d="M213.519,450.568c-0.482-0.092-1.195-0.162-1.795-0.162c-3.518,0-4.461,3.336-4.689,6.715
							c0.527-0.965,1.609-1.793,3.311-1.793c3.381,0,4.139,2.668,4.139,5.105c0,3.334-1.195,5.863-4.529,5.863
							c-4.162,0-4.508-4.369-4.508-7.934c0-5.035,1.771-9.152,6.186-9.152c0.691,0,1.404,0.023,1.887,0.115V450.568z
							 M210.093,456.523c-2.139,0-3.082,1.494-3.082,3.633c0,1.932,0.414,4.945,2.967,4.945c2.322,0,2.943-2.023,2.943-4.6
							C212.921,458.594,212.483,456.523,210.093,456.523z"/>
					</g>
				</g>
			</g>
			<circle style="fill:#E8E7E7;stroke:#AEAEAE;" cx="209.911" cy="312.135" r="119"/>
		</g>
		<g id="clock-hour-handle">
			<path style="fill:#1A1A1A;" d="M201.924,306.775l0.001,86.137c-0.001,3.316,2.462,6.008,5.5,6.008s5.499-2.691,5.499-6.006
				V302.92C209.419,304.639,205.724,305.932,201.924,306.775z"/>
		</g>
		<g id="clock-minute-handle">
			<path style="fill:#1A1A1A;" d="M218.015,310.961c0-5.818-4.701-10.537-10.5-10.537s-10.5,4.719-10.5,10.537
				c0,4.484,2.798,8.307,6.733,9.826v125.619c0,2.76,1.537,5.018,3.415,5.018h0.171c1.878,0,3.414-2.258,3.414-5.018V320.982
				C214.964,319.613,218.015,315.646,218.015,310.961z"/>
		</g>
		<g id="clock-seconds-handle">
			<path style="fill:#506AB0;" d="M209.813,306.9c-0.146-0.076-0.3-0.117-0.45-0.178l0.065-29.625
				c0.003-0.887-0.799-1.609-1.787-1.609c-0.989-0.002-1.794,0.717-1.795,1.604l-0.064,29.58c-1.125,0.418-2.11,1.225-2.705,2.375
				c-1.268,2.451-0.308,5.467,2.146,6.734c0.176,0.092,0.358,0.146,0.539,0.213l-0.333,151.883
				c-0.003,0.887,0.799,1.607,1.788,1.611c0.989,0,1.793-0.719,1.793-1.605l0.333-151.91c1.087-0.428,2.037-1.217,2.616-2.336
				C213.227,311.184,212.267,308.168,209.813,306.9z"/>
		</g>
		<g id="clock-picker-minute-background">
			<g>
				<g>
					<g>
						
							<radialGradient id="SVGID_3_" cx="603.9033" cy="308.2324" r="187.665" gradientTransform="matrix(0.9858 0 0 0.9858 33.334 6.8492)" gradientUnits="userSpaceOnUse">
							<stop  offset="0" style="stop-color:#000000"/>
							<stop  offset="1" style="stop-color:#000000;stop-opacity:0.1"/>
						</radialGradient>
						<circle style="fill:url(#SVGID_3_);" cx="628.662" cy="310.703" r="185"/>
					</g>
					<g>
						<linearGradient id="SVGID_4_" gradientUnits="userSpaceOnUse" x1="628.6626" y1="494.0371" x2="628.6626" y2="128.0376">
							<stop  offset="0" style="stop-color:#343433"/>
							<stop  offset="0" style="stop-color:#413E3E"/>
							<stop  offset="0.6933" style="stop-color:#6E6F71"/>
							<stop  offset="0.8528" style="stop-color:#CECCCB"/>
							<stop  offset="1" style="stop-color:#636364"/>
						</linearGradient>
						<path style="fill:url(#SVGID_4_);" d="M811.663,311.035c0,101.07-81.934,183.002-183.002,183.002
							c-101.066,0-183-81.932-183-183.002c0-101.066,81.934-182.998,183-182.998C729.729,128.037,811.663,209.969,811.663,311.035z"
							/>
					</g>
					<g>
						<circle style="fill:#FFFFFF;" cx="628.758" cy="310.396" r="176.798"/>
						<circle style="fill:none;stroke:#E6E6E6;stroke-width:2;" cx="628.758" cy="310.396" r="176.798"/>
					</g>
				</g>
				<circle style="fill:#E8E7E7;stroke:#AEAEAE;" cx="628.662" cy="310.537" r="112.5"/>
				<g style="opacity:0.5;">
					<g>
						<path d="M623.141,168.42c-3.241,0-3.565-3.295-3.565-6.859c0-3.224,0.433-6.555,3.619-6.555c3.133,0,3.493,3.312,3.493,6.555
							C626.688,165.161,626.327,168.42,623.141,168.42z M623.141,155.942c-2.161,0-2.341,2.7-2.341,5.6
							c0,3.457,0.271,5.942,2.341,5.942s2.322-2.576,2.322-5.942C625.463,158.625,625.266,155.942,623.141,155.942z"/>
						<path d="M632.34,168.42c-3.241,0-3.565-3.295-3.565-6.859c0-3.224,0.433-6.555,3.619-6.555c3.133,0,3.493,3.312,3.493,6.555
							C635.887,165.161,635.526,168.42,632.34,168.42z M632.34,155.942c-2.161,0-2.341,2.7-2.341,5.6
							c0,3.457,0.271,5.942,2.341,5.942s2.322-2.576,2.322-5.942C634.662,158.625,634.465,155.942,632.34,155.942z"/>
					</g>
					<g>
						<path d="M477.571,313.297h-1.405v3.078h-1.087v-3.078h-5.101v-0.973l5-9.184h1.188v9.201h1.405V313.297z M475.079,312.342
							v-7.562l-4.03,7.562H475.079z"/>
						<path d="M480.78,308.273c0.301-0.037,0.669-0.055,1.037-0.055c1.855,0,3.578,0.721,3.578,3.943c0,2.918-1.338,4.34-3.93,4.34
							c-0.77,0-1.505-0.145-2.157-0.307v-0.973c0.636,0.162,1.354,0.342,2.04,0.342c2.023,0,2.91-0.971,2.91-3.348
							c0-2.484-1.204-3.061-2.994-3.061c-0.535,0-1.104,0.07-1.571,0.125v-6.014h5.519v0.955h-4.432V308.273z"/>
					</g>
					<g>
						<path d="M776.66,316.375h-6.662v-0.953h2.791V304.33l-2.791,0.863v-0.936l3.169-1.098h0.847v12.262h2.646V316.375z"/>
						<path d="M780.692,308.273c0.323-0.037,0.72-0.055,1.116-0.055c1.998,0,3.853,0.721,3.853,3.943c0,2.918-1.44,4.34-4.23,4.34
							c-0.829,0-1.621-0.145-2.323-0.307v-0.973c0.685,0.162,1.458,0.342,2.196,0.342c2.179,0,3.134-0.971,3.134-3.348
							c0-2.484-1.297-3.061-3.224-3.061c-0.576,0-1.188,0.07-1.692,0.125v-6.014h5.942v0.955h-4.771V308.273z"/>
					</g>
					<g>
						<path d="M757.045,242.787h-6.662v-0.955h2.791v-11.091l-2.791,0.864v-0.937l3.169-1.099h0.847v12.262h2.646V242.787z"/>
						<path d="M762.823,242.931c-3.241,0-3.565-3.295-3.565-6.86c0-3.223,0.433-6.554,3.619-6.554c3.133,0,3.493,3.313,3.493,6.554
							C766.37,239.672,766.01,242.931,762.823,242.931z M762.823,230.453c-2.16,0-2.341,2.701-2.341,5.6
							c0,3.457,0.271,5.941,2.341,5.941s2.322-2.574,2.322-5.941C765.146,233.136,764.948,230.453,762.823,230.453z"/>
					</g>
					<g>
						<path d="M697.123,190.291c-3.241,0-3.565-3.295-3.565-6.859c0-3.224,0.433-6.555,3.619-6.555c3.133,0,3.493,3.312,3.493,6.555
							C700.67,187.032,700.31,190.291,697.123,190.291z M697.123,177.813c-2.161,0-2.341,2.7-2.341,5.6
							c0,3.457,0.271,5.942,2.341,5.942s2.322-2.576,2.322-5.942C699.445,180.496,699.248,177.813,697.123,177.813z"/>
						<path d="M704.576,182.045c0.323-0.037,0.72-0.055,1.116-0.055c1.998,0,3.853,0.721,3.853,3.943c0,2.917-1.44,4.34-4.231,4.34
							c-0.828,0-1.62-0.145-2.322-0.307v-0.973c0.685,0.162,1.459,0.343,2.196,0.343c2.179,0,3.134-0.973,3.134-3.349
							c0-2.485-1.297-3.062-3.224-3.062c-0.576,0-1.188,0.072-1.692,0.126v-6.014h5.941v0.954h-4.771V182.045z"/>
					</g>
					<g>
						<path d="M549.302,182.801c0.323-0.035,0.72-0.053,1.116-0.053c1.998,0,3.853,0.72,3.853,3.942c0,2.917-1.44,4.339-4.23,4.339
							c-0.829,0-1.621-0.144-2.323-0.306v-0.972c0.685,0.162,1.458,0.342,2.196,0.342c2.179,0,3.134-0.973,3.134-3.35
							c0-2.484-1.297-3.061-3.224-3.061c-0.576,0-1.188,0.072-1.692,0.126v-6.014h5.942v0.954h-4.771V182.801z"/>
						<path d="M558.501,182.801c0.323-0.035,0.72-0.053,1.116-0.053c1.998,0,3.853,0.72,3.853,3.942c0,2.917-1.44,4.339-4.23,4.339
							c-0.829,0-1.621-0.144-2.323-0.306v-0.972c0.685,0.162,1.458,0.342,2.196,0.342c2.179,0,3.134-0.973,3.134-3.35
							c0-2.484-1.297-3.061-3.224-3.061c-0.576,0-1.188,0.072-1.692,0.126v-6.014h5.942v0.954h-4.771V182.801z"/>
					</g>
					<g>
						<path d="M495.387,235.289c0.323-0.037,0.72-0.055,1.116-0.055c1.998,0,3.853,0.721,3.853,3.943c0,2.917-1.44,4.34-4.231,4.34
							c-0.828,0-1.62-0.145-2.322-0.307v-0.973c0.685,0.162,1.459,0.343,2.196,0.343c2.179,0,3.134-0.973,3.134-3.349
							c0-2.485-1.297-3.062-3.224-3.062c-0.576,0-1.188,0.072-1.692,0.126v-6.014h5.941v0.954h-4.771V235.289z"/>
						<path d="M506.332,243.535c-3.241,0-3.565-3.295-3.565-6.859c0-3.224,0.433-6.555,3.619-6.555c3.133,0,3.493,3.312,3.493,6.555
							C509.879,240.276,509.519,243.535,506.332,243.535z M506.332,231.058c-2.161,0-2.341,2.7-2.341,5.6
							c0,3.457,0.271,5.942,2.341,5.942s2.322-2.576,2.322-5.942C508.654,233.74,508.457,231.058,506.332,231.058z"/>
					</g>
					<g>
						<path d="M497.262,388.164h-1.513v3.078h-1.17v-3.078h-5.492v-0.973l5.384-9.184h1.278v9.201h1.513V388.164z M494.579,387.209
							v-7.562l-4.34,7.562H494.579z"/>
						<path d="M502.464,391.387c-3.241,0-3.565-3.295-3.565-6.859c0-3.223,0.433-6.555,3.619-6.555c3.133,0,3.493,3.312,3.493,6.555
							C506.011,388.127,505.65,391.387,502.464,391.387z M502.464,378.908c-2.16,0-2.341,2.701-2.341,5.6
							c0,3.457,0.271,5.943,2.341,5.943s2.322-2.576,2.322-5.943C504.786,381.592,504.589,378.908,502.464,378.908z"/>
					</g>
					<g>
						<path d="M546.378,434.186c-0.864,0-1.782,0.234-2.503,0.414v-0.99c0.793-0.197,1.783-0.359,2.755-0.359
							c2.125,0,3.385,0.881,3.385,3.096c0,1.676-0.846,2.756-2.322,3.188c1.711,0.379,2.575,1.477,2.575,3.205
							c0,2.467-1.152,3.889-4.033,3.889c-0.937,0-1.854-0.162-2.629-0.359v-0.973c0.828,0.199,1.692,0.396,2.61,0.396
							c2.07,0,2.827-1.027,2.827-2.846c0-2.574-1.891-2.844-4.483-2.844v-0.883c2.772,0,4.231-0.469,4.231-2.719
							C548.791,434.869,547.999,434.186,546.378,434.186z"/>
						<path d="M554.731,438.398c0.323-0.035,0.72-0.053,1.116-0.053c1.998,0,3.853,0.719,3.853,3.943c0,2.916-1.44,4.338-4.23,4.338
							c-0.829,0-1.621-0.143-2.323-0.305v-0.973c0.685,0.162,1.458,0.342,2.196,0.342c2.179,0,3.134-0.973,3.134-3.35
							c0-2.484-1.297-3.061-3.224-3.061c-0.576,0-1.188,0.072-1.692,0.127v-6.014h5.942v0.953h-4.771V438.398z"/>
					</g>
					<g>
						<path d="M702.418,446.742h-6.932v-0.559c0-2.502,1.08-4.123,3.366-6.014c1.423-1.17,2.287-2.033,2.287-3.295
							c0-1.709-0.918-2.395-2.61-2.395c-0.937,0-1.837,0.271-2.593,0.559v-1.025c0.864-0.289,1.674-0.523,2.772-0.523
							c2.16,0,3.655,0.848,3.655,3.295c0,1.711-1.116,2.846-2.719,4.16c-2.071,1.691-2.936,2.934-2.989,4.844h5.762V446.742z"/>
						<path d="M706.576,438.641c0.323-0.037,0.72-0.055,1.116-0.055c1.998,0,3.853,0.721,3.853,3.943c0,2.918-1.44,4.34-4.231,4.34
							c-0.828,0-1.62-0.145-2.322-0.307v-0.973c0.685,0.162,1.459,0.342,2.196,0.342c2.179,0,3.134-0.971,3.134-3.348
							c0-2.484-1.297-3.061-3.224-3.061c-0.576,0-1.188,0.07-1.692,0.125v-6.014h5.941v0.955h-4.771V438.641z"/>
					</g>
					<g>
						<path d="M756.919,391.242h-6.932v-0.559c0-2.502,1.08-4.123,3.366-6.014c1.423-1.17,2.287-2.033,2.287-3.295
							c0-1.709-0.918-2.395-2.61-2.395c-0.937,0-1.837,0.271-2.593,0.559v-1.025c0.864-0.289,1.674-0.523,2.772-0.523
							c2.16,0,3.655,0.848,3.655,3.295c0,1.711-1.116,2.846-2.719,4.16c-2.071,1.691-2.936,2.934-2.989,4.844h5.762V391.242z"/>
						<path d="M762.823,391.387c-3.241,0-3.565-3.295-3.565-6.859c0-3.223,0.433-6.555,3.619-6.555c3.133,0,3.493,3.312,3.493,6.555
							C766.37,388.127,766.01,391.387,762.823,391.387z M762.823,378.908c-2.16,0-2.341,2.701-2.341,5.6
							c0,3.457,0.271,5.943,2.341,5.943s2.322-2.576,2.322-5.943C765.146,381.592,764.948,378.908,762.823,378.908z"/>
					</g>
					<g>
						<path d="M622.067,454.635c-0.864,0-1.782,0.232-2.503,0.414v-0.99c0.793-0.199,1.783-0.361,2.755-0.361
							c2.125,0,3.385,0.883,3.385,3.098c0,1.674-0.846,2.754-2.322,3.188c1.711,0.377,2.575,1.477,2.575,3.205
							c0,2.467-1.152,3.889-4.033,3.889c-0.937,0-1.854-0.162-2.629-0.361v-0.971c0.828,0.197,1.692,0.395,2.61,0.395
							c2.07,0,2.827-1.025,2.827-2.844c0-2.574-1.891-2.846-4.483-2.846v-0.881c2.772,0,4.231-0.469,4.231-2.719
							C624.48,455.318,623.688,454.635,622.067,454.635z"/>
						<path d="M632.167,467.094c-3.241,0-3.565-3.295-3.565-6.859c0-3.223,0.433-6.555,3.619-6.555c3.133,0,3.493,3.312,3.493,6.555
							C635.714,463.834,635.354,467.094,632.167,467.094z M632.167,454.615c-2.16,0-2.341,2.701-2.341,5.6
							c0,3.457,0.271,5.943,2.341,5.943s2.322-2.576,2.322-5.943C634.489,457.299,634.292,454.615,632.167,454.615z"/>
					</g>
				</g>
			</g>
			<g style="opacity:0.6;">
				<g>
					
						<rect x="611.659" y="453.683" transform="matrix(0.9943 0.1064 -0.1064 0.9943 52.165 -62.5015)" style="fill:#6E6D6E;" width="0.477" height="8"/>
					
						<rect x="642.848" y="159.076" transform="matrix(0.9948 0.1021 -0.1021 0.9948 20.0182 -64.8273)" style="fill:#6E6D6E;" width="0.478" height="7.999"/>
				</g>
				<g>
					
						<rect x="596.35" y="451.246" transform="matrix(0.9771 0.2126 -0.2126 0.9771 110.4233 -116.4272)" style="fill:#6E6D6E;" width="0.478" height="8"/>
					
						<rect x="658.157" y="161.514" transform="matrix(0.978 0.2087 -0.2087 0.978 49.0378 -133.7567)" style="fill:#6E6D6E;" width="0.477" height="7.999"/>
				</g>
				<g>
					
						<rect x="581.379" y="447.222" transform="matrix(0.9519 0.3064 -0.3064 0.9519 166.2325 -156.5079)" style="fill:#6E6D6E;" width="0.478" height="8.001"/>
					
						<rect x="673.127" y="165.536" transform="matrix(0.9519 0.3064 -0.3064 0.9519 84.335 -198.1689)" style="fill:#6E6D6E;" width="0.478" height="7.999"/>
				</g>
				<g>
					
						<rect x="566.911" y="441.659" transform="matrix(0.9128 0.4084 -0.4084 0.9128 231.4681 -192.768)" style="fill:#6E6D6E;" width="0.478" height="7.999"/>
					
						<rect x="687.595" y="171.102" transform="matrix(0.9147 0.4042 -0.4042 0.9147 129.4893 -263.1077)" style="fill:#6E6D6E;" width="0.478" height="8"/>
				</g>
				<g>
					
						<rect x="540.107" y="426.159" transform="matrix(0.8068 0.5908 -0.5908 0.8068 358.5511 -236.1458)" style="fill:#6E6D6E;" width="0.479" height="8.001"/>
					
						<rect x="714.397" y="186.599" transform="matrix(0.8107 0.5855 -0.5855 0.8107 246.8897 -382.328)" style="fill:#6E6D6E;" width="0.477" height="8"/>
				</g>
				<g>
					
						<rect x="528.067" y="416.396" transform="matrix(0.7429 0.6694 -0.6694 0.7429 417.2539 -245.5678)" style="fill:#6E6D6E;" width="0.478" height="8"/>
					
						<rect x="726.439" y="196.363" transform="matrix(0.744 0.6682 -0.6682 0.744 319.9013 -434.2536)" style="fill:#6E6D6E;" width="0.476" height="8"/>
				</g>
				<g>
					
						<rect x="517.113" y="405.428" transform="matrix(0.6683 0.7439 -0.7439 0.6683 476.1871 -249.0475)" style="fill:#6E6D6E;" width="0.478" height="7.999"/>
					
						<rect x="737.393" y="207.332" transform="matrix(0.6704 0.742 -0.742 0.6704 399.9022 -477.6536)" style="fill:#6E6D6E;" width="0.478" height="7.999"/>
				</g>
				<g>
					
						<rect x="507.365" y="393.375" transform="matrix(0.5862 0.8101 -0.8101 0.5862 531.96 -246.8113)" style="fill:#6E6D6E;" width="0.48" height="8.001"/>
					
						<rect x="747.142" y="219.384" transform="matrix(0.5901 0.8073 -0.8073 0.5901 486.6779 -511.8111)" style="fill:#6E6D6E;" width="0.477" height="8"/>
				</g>
				<g>
					
						<rect x="491.899" y="366.552" transform="matrix(0.4059 0.9139 -0.9139 0.4059 631.0019 -229.6362)" style="fill:#6E6D6E;" width="0.479" height="8.001"/>
					
						<rect x="762.606" y="246.207" transform="matrix(0.4058 0.914 -0.914 0.4058 681.9977 -548.5423)" style="fill:#6E6D6E;" width="0.477" height="7.999"/>
				</g>
				<g>
					
						<rect x="486.352" y="352.078" transform="matrix(0.3083 0.9513 -0.9513 0.3083 675.3354 -216.5809)" style="fill:#6E6D6E;" width="0.478" height="8.001"/>
					
						<rect x="768.154" y="260.682" transform="matrix(0.3113 0.9503 -0.9503 0.3113 780.715 -547.9263)" style="fill:#6E6D6E;" width="0.477" height="8"/>
				</g>
				<g>
					
						<rect x="482.347" y="337.102" transform="matrix(0.2059 0.9786 -0.9786 0.2059 717.0117 -201.3788)" style="fill:#6E6D6E;" width="0.479" height="8.001"/>
					
						<rect x="772.158" y="275.658" transform="matrix(0.2087 0.978 -0.978 0.2087 884.7046 -534.0947)" style="fill:#6E6D6E;" width="0.477" height="7.999"/>
				</g>
				<g>
					
						<rect x="479.93" y="321.789" transform="matrix(0.106 0.9944 -0.9944 0.106 753.2484 -186.1967)" style="fill:#6E6D6E;" width="0.479" height="8.002"/>
					
						<rect x="774.575" y="290.969" transform="matrix(0.1064 0.9943 -0.9943 0.1064 985.6772 -506.8292)" style="fill:#6E6D6E;" width="0.477" height="8"/>
				</g>
				<g>
					
						<rect x="479.944" y="290.829" transform="matrix(-0.106 0.9944 -0.9944 -0.106 824.2326 -151.4125)" style="fill:#6E6D6E;" width="0.479" height="8"/>
					
						<rect x="774.56" y="321.931" transform="matrix(-0.1044 0.9945 -0.9945 -0.1044 1179.8108 -410.6223)" style="fill:#6E6D6E;" width="0.477" height="7.998"/>
				</g>
				<g>
					
						<rect x="482.376" y="275.519" transform="matrix(-0.2079 0.9782 -0.9782 -0.2079 856.3461 -134.4547)" style="fill:#6E6D6E;" width="0.479" height="8.001"/>
					
						<rect x="772.129" y="337.241" transform="matrix(-0.2067 0.9784 -0.9784 -0.2067 1265.9092 -343.8965)" style="fill:#6E6D6E;" width="0.477" height="7.999"/>
				</g>
				<g>
					
						<rect x="486.395" y="260.548" transform="matrix(-0.3119 0.9501 -0.9501 -0.3119 889.7836 -115.2799)" style="fill:#6E6D6E;" width="0.479" height="8"/>
					
						<rect x="768.109" y="352.212" transform="matrix(-0.3083 0.9513 -0.9513 -0.3083 1344.0618 -264.9169)" style="fill:#6E6D6E;" width="0.478" height="7.999"/>
				</g>
				<g>
					
						<rect x="491.956" y="246.078" transform="matrix(-0.4077 0.9131 -0.9131 -0.4077 921.1949 -97.4195)" style="fill:#6E6D6E;" width="0.479" height="8"/>
					
						<rect x="762.548" y="366.682" transform="matrix(-0.4059 0.9139 -0.9139 -0.4059 1411.2042 -175.9483)" style="fill:#6E6D6E;" width="0.479" height="7.999"/>
				</g>
				<g>
					
						<rect x="507.446" y="219.271" transform="matrix(-0.5895 0.8078 -0.8078 -0.5895 987.3187 -55.2009)" style="fill:#6E6D6E;" width="0.479" height="8"/>
					
						<rect x="747.058" y="393.489" transform="matrix(-0.5868 0.8097 -0.8097 -0.5868 1507.6858 25.6573)" style="fill:#6E6D6E;" width="0.478" height="8"/>
				</g>
				<g>
					
						<rect x="517.206" y="207.226" transform="matrix(-0.6694 0.7429 -0.7429 -0.6694 1020.749 -31.779)" style="fill:#6E6D6E;" width="0.478" height="8"/>
					
						<rect x="737.298" y="405.533" transform="matrix(-0.6683 0.7439 -0.7439 -0.6683 1535.076 134.5609)" style="fill:#6E6D6E;" width="0.478" height="7.998"/>
				</g>
				<g>
					
						<rect x="528.171" y="196.268" transform="matrix(-0.7438 0.6684 -0.6684 -0.7438 1055.3026 -3.9621)" style="fill:#6E6D6E;" width="0.479" height="8.001"/>
					
						<rect x="726.333" y="416.491" transform="matrix(-0.7429 0.6694 -0.6694 -0.7429 1547.816 246.4888)" style="fill:#6E6D6E;" width="0.478" height="7.998"/>
				</g>
				<g>
					
						<rect x="540.222" y="186.517" transform="matrix(-0.8107 0.5855 -0.5855 -0.8107 1090.147 28.5297)" style="fill:#6E6D6E;" width="0.477" height="8"/>
					
						<rect x="714.282" y="426.243" transform="matrix(-0.8087 0.5882 -0.5882 -0.8087 1545.437 357.9333)" style="fill:#6E6D6E;" width="0.478" height="7.999"/>
				</g>
				<g>
					
						<rect x="567.038" y="171.044" transform="matrix(-0.9139 0.4059 -0.4059 -0.9139 1156.7686 104.73)" style="fill:#6E6D6E;" width="0.479" height="8"/>
					
						<rect x="687.465" y="441.715" transform="matrix(-0.9131 0.4077 -0.4077 -0.9131 1497.3691 572.3726)" style="fill:#6E6D6E;" width="0.479" height="8.001"/>
				</g>
				<g>
					
						<rect x="581.511" y="165.492" transform="matrix(-0.9509 0.3095 -0.3095 -0.9509 1187.3955 150.61)" style="fill:#6E6D6E;" width="0.48" height="8"/>
					
						<rect x="672.991" y="447.266" transform="matrix(-0.9519 0.3064 -0.3064 -0.9519 1452.35 674.5458)" style="fill:#6E6D6E;" width="0.478" height="8"/>
				</g>
				<g>
					
						<rect x="596.486" y="161.484" transform="matrix(-0.9786 0.2059 -0.2059 -0.9786 1214.7384 204.5494)" style="fill:#6E6D6E;" width="0.479" height="7.998"/>
					
						<rect x="658.016" y="451.275" transform="matrix(-0.9782 0.2079 -0.2079 -0.9782 1396.7676 763.7828)" style="fill:#6E6D6E;" width="0.479" height="8"/>
				</g>
				<g>
					
						<rect x="611.798" y="159.061" transform="matrix(-0.9948 0.1019 -0.1019 -0.9948 1237.5068 262.8898)" style="fill:#6E6D6E;" width="0.479" height="7.999"/>
					
						<rect x="642.706" y="453.697" transform="matrix(-0.9943 0.1062 -0.1062 -0.9943 1330.8506 844.5443)" style="fill:#6E6D6E;" width="0.478" height="8.001"/>
				</g>
			</g>
		</g>
		<g id="clock-picker-hour-background">
			<g>
				<g>
					<g>
						
							<radialGradient id="SVGID_5_" cx="1027.9062" cy="317.6973" r="187.665" gradientTransform="matrix(0.9858 0 0 0.9858 33.334 6.8492)" gradientUnits="userSpaceOnUse">
							<stop  offset="0" style="stop-color:#000000"/>
							<stop  offset="1" style="stop-color:#000000;stop-opacity:0.1"/>
						</radialGradient>
						<circle style="fill:url(#SVGID_5_);" cx="1046.645" cy="320.033" r="185"/>
					</g>
					<g>
						<linearGradient id="SVGID_6_" gradientUnits="userSpaceOnUse" x1="1046.6445" y1="503.3672" x2="1046.6445" y2="137.3677">
							<stop  offset="0" style="stop-color:#343433"/>
							<stop  offset="0" style="stop-color:#413E3E"/>
							<stop  offset="0.6933" style="stop-color:#6E6F71"/>
							<stop  offset="0.8528" style="stop-color:#CECCCB"/>
							<stop  offset="1" style="stop-color:#636364"/>
						</linearGradient>
						<path style="fill:url(#SVGID_6_);" d="M1229.645,320.365c0,101.07-81.933,183.002-183.001,183.002
							c-101.066,0-183-81.932-183-183.002c0-101.066,81.934-182.998,183-182.998
							C1147.712,137.367,1229.645,219.299,1229.645,320.365z"/>
					</g>
					<g>
						<circle style="fill:#FFFFFF;" cx="1046.74" cy="319.727" r="176.797"/>
						<circle style="fill:none;stroke:#E6E6E6;stroke-width:2;" cx="1046.74" cy="319.727" r="176.797"/>
					</g>
				</g>
				<circle style="fill:#E8E7E7;stroke:#AEAEAE;" cx="1046.644" cy="320.367" r="127.5"/>
				<g style="opacity:0.5;">
					<g>
						<path d="M1044.215,180.605h-8.508v-1.219h3.563v-14.164l-3.563,1.104v-1.195l4.047-1.403h1.081v15.659h3.38V180.605z"/>
						<path d="M1055.807,180.605h-8.853v-0.713c0-3.195,1.379-5.266,4.3-7.68c1.816-1.494,2.92-2.599,2.92-4.208
							c0-2.185-1.173-3.059-3.334-3.059c-1.195,0-2.346,0.345-3.312,0.713v-1.311c1.104-0.368,2.139-0.667,3.541-0.667
							c2.76,0,4.668,1.08,4.668,4.208c0,2.185-1.425,3.634-3.472,5.312c-2.645,2.162-3.748,3.748-3.817,6.186h7.358V180.605z"/>
					</g>
					<g>
						<path d="M890.738,324.441c0.448,0.092,1.26,0.229,1.943,0.229c3.098,0,3.846-2.414,3.995-6.713
							c-0.491,0.965-1.432,1.793-3.012,1.793c-3.141,0-3.867-2.691-3.867-5.129c0-3.334,1.09-5.863,4.166-5.863
							c3.974,0,4.208,4.439,4.208,8.002c0,5.934-1.495,9.107-5.383,9.107c-0.748,0-1.538-0.092-2.051-0.186V324.441z
							 M893.942,309.953c-2.179,0-2.691,2.117-2.691,4.623c0,1.908,0.384,3.979,2.606,3.979c1.922,0,2.862-1.381,2.862-3.633
							C896.72,312.896,896.292,309.953,893.942,309.953z"/>
					</g>
					<g>
						<path d="M1197.672,309.977c-1.104,0-2.276,0.299-3.196,0.529v-1.266c1.012-0.252,2.276-0.459,3.518-0.459
							c2.714,0,4.323,1.127,4.323,3.955c0,2.139-1.081,3.518-2.966,4.07c2.185,0.482,3.288,1.885,3.288,4.094
							c0,3.15-1.472,4.967-5.151,4.967c-1.195,0-2.368-0.207-3.357-0.461v-1.242c1.059,0.254,2.162,0.506,3.335,0.506
							c2.645,0,3.61-1.311,3.61-3.633c0-3.287-2.415-3.633-5.727-3.633v-1.127c3.542,0,5.404-0.598,5.404-3.473
							C1200.753,310.852,1199.741,309.977,1197.672,309.977z"/>
					</g>
					<g>
						<path d="M1180.414,252.117h-8.853v-0.713c0-3.197,1.379-5.266,4.3-7.681c1.816-1.495,2.92-2.599,2.92-4.208
							c0-2.185-1.173-3.059-3.334-3.059c-1.195,0-2.346,0.346-3.312,0.713v-1.311c1.104-0.368,2.139-0.667,3.541-0.667
							c2.76,0,4.668,1.081,4.668,4.208c0,2.185-1.425,3.633-3.472,5.312c-2.645,2.161-3.748,3.748-3.817,6.186h7.358V252.117z"/>
					</g>
					<g>
						<path d="M1124.074,201.477h-8.508v-1.219h3.563v-14.164l-3.563,1.104v-1.195l4.047-1.403h1.081v15.659h3.38V201.477z"/>
					</g>
					<g>
						<path d="M975.122,200.234h-8.508v-1.219h3.563V184.85l-3.563,1.104v-1.196l4.047-1.402h1.081v15.66h3.38V200.234z"/>
						<path d="M986.875,200.234h-8.508v-1.219h3.563V184.85l-3.563,1.104v-1.196l4.047-1.402h1.081v15.66h3.38V200.234z"/>
					</g>
					<g>
						<path d="M918.207,248.721h-8.508v-1.219h3.563v-14.164l-3.563,1.104v-1.195l4.047-1.403h1.081v15.659h3.38V248.721z"/>
						<path d="M925.591,248.905c-4.139,0-4.553-4.208-4.553-8.761c0-4.117,0.552-8.371,4.622-8.371c4.001,0,4.461,4.231,4.461,8.371
							C930.121,244.743,929.661,248.905,925.591,248.905z M925.591,232.97c-2.76,0-2.989,3.449-2.989,7.151
							c0,4.415,0.345,7.588,2.989,7.588s2.967-3.288,2.967-7.588C928.558,236.396,928.305,232.97,925.591,232.97z"/>
					</g>
					<g>
						<path d="M912.87,383.648c2.667,0,4.3,1.541,4.3,4.23c0,2.139-0.897,3.473-2.483,3.979c1.655,0.461,2.759,1.84,2.759,4.23
							c0,3.014-1.701,4.668-4.645,4.668c-2.921,0-4.576-1.654-4.576-4.668c0-2.322,1.058-3.678,2.736-4.23
							c-1.54-0.551-2.46-1.885-2.46-3.979C908.501,385.189,910.202,383.648,912.87,383.648z M912.823,392.455
							c-2.345,0-3.035,1.84-3.035,3.541c0,1.932,0.736,3.564,3.013,3.564s3.081-1.609,3.081-3.564
							C915.882,394.295,915.146,392.455,912.823,392.455z M912.823,384.844c-2.046,0-2.759,1.473-2.759,3.15
							c0,2.07,0.942,3.266,2.736,3.266c1.816,0,2.806-1.15,2.806-3.266C915.606,386.27,914.87,384.844,912.823,384.844z"/>
					</g>
					<g>
						<path d="M971.391,437.195c-2.943,4.92-4.875,9.934-4.944,15.637h-1.609c0.046-5.289,2.047-10.67,4.967-15.521h-7.703v-1.219
							h9.29V437.195z"/>
					</g>
					<g>
						<path d="M1117.475,443.725c0.414-0.045,0.92-0.068,1.426-0.068c2.553,0,4.921,0.92,4.921,5.035
							c0,3.727-1.84,5.543-5.404,5.543c-1.058,0-2.069-0.186-2.966-0.391v-1.242c0.874,0.207,1.862,0.436,2.806,0.436
							c2.782,0,4.001-1.24,4.001-4.275c0-3.174-1.656-3.91-4.116-3.91c-0.736,0-1.518,0.092-2.162,0.162v-7.682h7.589v1.219h-6.094
							V443.725z"/>
					</g>
					<g>
						<path d="M1181.311,396.641h-1.932v3.932h-1.494v-3.932h-7.014v-1.242l6.876-11.727h1.632v11.75h1.932V396.641z
							 M1177.885,395.422v-9.658l-5.542,9.658H1177.885z"/>
					</g>
					<g>
						<path d="M1050.252,458.734c-0.482-0.092-1.195-0.16-1.794-0.16c-3.518,0-4.461,3.334-4.69,6.715
							c0.528-0.967,1.609-1.793,3.312-1.793c3.38,0,4.139,2.666,4.139,5.104c0,3.334-1.195,5.863-4.53,5.863
							c-4.162,0-4.507-4.369-4.507-7.932c0-5.037,1.771-9.152,6.186-9.152c0.69,0,1.403,0.023,1.886,0.115V458.734z
							 M1046.826,464.691c-2.139,0-3.082,1.494-3.082,3.633c0,1.932,0.414,4.943,2.967,4.943c2.322,0,2.943-2.023,2.943-4.598
							C1049.654,466.76,1049.217,464.691,1046.826,464.691z"/>
					</g>
				</g>
			</g>
			<g>
				<g style="opacity:0.6;">
					<g>
						<rect x="1045.121" y="420.432" style="fill:#6E6D6E;" width="0.562" height="6.436"/>
						<rect x="1045.31" y="211.862" style="fill:#6E6D6E;" width="0.559" height="6.443"/>
					</g>
					<g>
						
							<rect x="1034.223" y="419.852" transform="matrix(0.9942 0.1076 -0.1076 0.9942 51.5146 -108.8312)" style="fill:#6E6D6E;" width="0.563" height="6.435"/>
						
							<rect x="1056.207" y="212.444" transform="matrix(0.9941 0.1085 -0.1085 0.9941 29.64 -113.3663)" style="fill:#6E6D6E;" width="0.558" height="6.442"/>
					</g>
					<g>
						
							<rect x="1023.445" y="418.135" transform="matrix(0.9774 0.2114 -0.2114 0.9774 112.2249 -206.9138)" style="fill:#6E6D6E;" width="0.564" height="6.435"/>
						
							<rect x="1066.985" y="214.16" transform="matrix(0.9777 0.2099 -0.2099 0.9777 69.3982 -219.1633)" style="fill:#6E6D6E;" width="0.558" height="6.442"/>
					</g>
					<g>
						
							<rect x="1012.905" y="415.302" transform="matrix(0.9499 0.3126 -0.3126 0.9499 181.5891 -295.7292)" style="fill:#6E6D6E;" width="0.562" height="6.434"/>
						
							<rect x="1077.524" y="216.994" transform="matrix(0.9504 0.311 -0.311 0.9504 121.9248 -324.2579)" style="fill:#6E6D6E;" width="0.559" height="6.443"/>
					</g>
					<g>
						
							<rect x="1002.72" y="411.382" transform="matrix(0.9124 0.4094 -0.4094 0.9124 257.606 -374.2542)" style="fill:#6E6D6E;" width="0.563" height="6.434"/>
						
							<rect x="1087.708" y="220.913" transform="matrix(0.9128 0.4084 -0.4084 0.9128 186.4088 -424.7949)" style="fill:#6E6D6E;" width="0.56" height="6.442"/>
					</g>
					<g>
						
							<rect x="993" y="406.419" transform="matrix(0.8661 0.4999 -0.4999 0.8661 337.7677 -441.6633)" style="fill:#6E6D6E;" width="0.563" height="6.436"/>
						
							<rect x="1097.428" y="225.876" transform="matrix(0.8655 0.5008 -0.5008 0.8655 262.33 -518.9619)" style="fill:#6E6D6E;" width="0.56" height="6.442"/>
					</g>
					<g>
						
							<rect x="983.851" y="400.469" transform="matrix(0.8078 0.5894 -0.5894 0.8078 427.0514 -502.4814)" style="fill:#6E6D6E;" width="0.563" height="6.435"/>
						
							<rect x="1106.576" y="231.828" transform="matrix(0.8083 0.5888 -0.5888 0.8083 350.5972 -606.6464)" style="fill:#6E6D6E;" width="0.561" height="6.442"/>
					</g>
					<g>
						
							<rect x="975.375" y="393.594" transform="matrix(0.7426 0.6697 -0.6697 0.7426 516.8877 -551.2899)" style="fill:#6E6D6E;" width="0.563" height="6.435"/>
						
							<rect x="1115.051" y="238.702" transform="matrix(0.7419 0.6705 -0.6705 0.7419 450.0692 -685.3943)" style="fill:#6E6D6E;" width="0.561" height="6.442"/>
					</g>
					<g>
						
							<rect x="967.664" y="385.871" transform="matrix(0.6661 0.7459 -0.7459 0.6661 613.4238 -592.0446)" style="fill:#6E6D6E;" width="0.563" height="6.435"/>
						
							<rect x="1122.762" y="246.424" transform="matrix(0.6695 0.7428 -0.7428 0.6695 556.5479 -751.6692)" style="fill:#6E6D6E;" width="0.56" height="6.443"/>
					</g>
					<g>
						
							<rect x="960.802" y="377.385" transform="matrix(0.5871 0.8095 -0.8095 0.5871 704.8871 -620.848)" style="fill:#6E6D6E;" width="0.562" height="6.435"/>
						
							<rect x="1129.624" y="254.911" transform="matrix(0.5877 0.8091 -0.8091 0.5877 674.7703 -807.7804)" style="fill:#6E6D6E;" width="0.56" height="6.442"/>
					</g>
					<g>
						
							<rect x="954.864" y="368.228" transform="matrix(0.4978 0.8673 -0.8673 0.4978 801.8031 -641.8467)" style="fill:#6E6D6E;" width="0.563" height="6.435"/>
						
							<rect x="1135.561" y="264.068" transform="matrix(0.4993 0.8664 -0.8664 0.4993 800.2763 -850.2869)" style="fill:#6E6D6E;" width="0.561" height="6.442"/>
					</g>
					<g>
						
							<rect x="949.915" y="358.5" transform="matrix(0.4037 0.9149 -0.9149 0.4037 897.5068 -653.6335)" style="fill:#6E6D6E;" width="0.564" height="6.435"/>
						
							<rect x="1140.51" y="273.794" transform="matrix(0.4063 0.9137 -0.9137 0.4063 930.4066 -877.9204)" style="fill:#6E6D6E;" width="0.56" height="6.442"/>
					</g>
					<g>
						
							<rect x="946.012" y="348.308" transform="matrix(0.3074 0.9516 -0.9516 0.3074 989.953 -657.0052)" style="fill:#6E6D6E;" width="0.562" height="6.436"/>
						
							<rect x="1144.413" y="283.986" transform="matrix(0.3084 0.9513 -0.9513 0.3084 1064.9061 -890.2668)" style="fill:#6E6D6E;" width="0.561" height="6.442"/>
					</g>
					<g>
						
							<rect x="943.194" y="337.764" transform="matrix(0.2081 0.9781 -0.9781 0.2081 1080.6481 -652.7977)" style="fill:#6E6D6E;" width="0.563" height="6.436"/>
						
							<rect x="1147.23" y="294.53" transform="matrix(0.2072 0.9783 -0.9783 0.2072 1201.0953 -886.5485)" style="fill:#6E6D6E;" width="0.561" height="6.442"/>
					</g>
					<g>
						
							<rect x="941.493" y="326.986" transform="matrix(0.1005 0.9949 -0.9949 0.1005 1175.6249 -639.9964)" style="fill:#6E6D6E;" width="0.563" height="6.435"/>
						
							<rect x="1148.931" y="305.309" transform="matrix(0.1043 0.9945 -0.9945 0.1043 1336.1693 -866.5973)" style="fill:#6E6D6E;" width="0.562" height="6.442"/>
					</g>
					<g>
						<rect x="937.992" y="319.022" style="fill:#6E6D6E;" width="6.436" height="0.563"/>
						<rect x="1146.555" y="319.148" style="fill:#6E6D6E;" width="6.442" height="0.561"/>
					</g>
					<g>
						
							<rect x="941.506" y="305.188" transform="matrix(-0.1074 0.9942 -0.9942 -0.1074 1349.5472 -594.8165)" style="fill:#6E6D6E;" width="0.564" height="6.435"/>
						
							<rect x="1148.917" y="327.106" transform="matrix(-0.1043 0.9945 -0.9945 -0.1043 1597.6104 -778.1399)" style="fill:#6E6D6E;" width="0.562" height="6.442"/>
					</g>
					<g>
						
							<rect x="943.219" y="294.409" transform="matrix(-0.2098 0.9778 -0.9778 -0.2098 1432.4205 -562.4507)" style="fill:#6E6D6E;" width="0.563" height="6.436"/>
						
							<rect x="1147.204" y="337.883" transform="matrix(-0.2072 0.9783 -0.9783 -0.2072 1718.8928 -710.8303)" style="fill:#6E6D6E;" width="0.561" height="6.442"/>
					</g>
					<g>
						
							<rect x="946.05" y="283.869" transform="matrix(-0.3105 0.9506 -0.9506 -0.3105 1513.0627 -523.3315)" style="fill:#6E6D6E;" width="0.563" height="6.436"/>
						
							<rect x="1144.374" y="348.423" transform="matrix(-0.3084 0.9513 -0.9513 -0.3084 1832.1461 -628.7852)" style="fill:#6E6D6E;" width="0.561" height="6.442"/>
					</g>
					<g>
						
							<rect x="949.967" y="273.683" transform="matrix(-0.4094 0.9124 -0.9124 -0.4094 1591.8737 -476.732)" style="fill:#6E6D6E;" width="0.563" height="6.436"/>
						
							<rect x="1140.457" y="358.609" transform="matrix(-0.405 0.9143 -0.9143 -0.405 1933.5737 -534.615)" style="fill:#6E6D6E;" width="0.562" height="6.444"/>
					</g>
					<g>
						
							<rect x="954.926" y="263.961" transform="matrix(-0.5032 0.8642 -0.8642 -0.5032 1666.7739 -423.8188)" style="fill:#6E6D6E;" width="0.563" height="6.435"/>
						
							<rect x="1135.497" y="368.331" transform="matrix(-0.4993 0.8664 -0.8664 -0.4993 2024.8149 -426.9807)" style="fill:#6E6D6E;" width="0.561" height="6.443"/>
					</g>
					<g>
						
							<rect x="960.874" y="254.812" transform="matrix(-0.5894 0.8078 -0.8078 -0.5894 1736.113 -366.3416)" style="fill:#6E6D6E;" width="0.563" height="6.435"/>
						
							<rect x="1129.55" y="377.48" transform="matrix(-0.5877 0.8091 -0.8091 -0.5877 2101.8076 -309.7385)" style="fill:#6E6D6E;" width="0.56" height="6.443"/>
					</g>
					<g>
						
							<rect x="967.745" y="246.333" transform="matrix(-0.6716 0.7409 -0.7409 -0.6716 1803.0781 -300.0336)" style="fill:#6E6D6E;" width="0.564" height="6.435"/>
						
							<rect x="1122.677" y="385.957" transform="matrix(-0.6695 0.7428 -0.7428 -0.6695 2163.897 -184.353)" style="fill:#6E6D6E;" width="0.56" height="6.442"/>
					</g>
					<g>
						
							<rect x="975.466" y="238.619" transform="matrix(-0.7442 0.6679 -0.6679 -0.7442 1863.4651 -229.8899)" style="fill:#6E6D6E;" width="0.563" height="6.435"/>
						
							<rect x="1114.956" y="393.672" transform="matrix(-0.7436 0.6687 -0.6687 -0.7436 2209.8682 -53.7286)" style="fill:#6E6D6E;" width="0.561" height="6.442"/>
					</g>
					<g>
						
							<rect x="983.951" y="231.755" transform="matrix(-0.8107 0.5855 -0.5855 -0.8107 1919.7031 -150.7996)" style="fill:#6E6D6E;" width="0.564" height="6.435"/>
						
							<rect x="1106.473" y="400.535" transform="matrix(-0.8083 0.5888 -0.5888 -0.8083 2239.0527 78.4586)" style="fill:#6E6D6E;" width="0.561" height="6.444"/>
					</g>
					<g>
						
							<rect x="993.106" y="225.814" transform="matrix(-0.8665 0.4991 -0.4991 -0.8665 1968.5043 -68.3269)" style="fill:#6E6D6E;" width="0.563" height="6.436"/>
						
							<rect x="1097.318" y="406.474" transform="matrix(-0.8667 0.4988 -0.4988 -0.8667 2253.2686 217.3506)" style="fill:#6E6D6E;" width="0.56" height="6.444"/>
					</g>
					<g>
						
							<rect x="1002.832" y="220.863" transform="matrix(-0.9152 0.4029 -0.4029 -0.9152 2011.4856 24.9992)" style="fill:#6E6D6E;" width="0.562" height="6.434"/>
						
							<rect x="1087.592" y="411.425" transform="matrix(-0.9144 0.4048 -0.4048 -0.9144 2250.4741 353.3764)" style="fill:#6E6D6E;" width="0.56" height="6.443"/>
					</g>
					<g>
						
							<rect x="1013.022" y="216.956" transform="matrix(-0.9518 0.3069 -0.3069 -0.9518 2045.2827 118.7921)" style="fill:#6E6D6E;" width="0.563" height="6.435"/>
						
							<rect x="1077.402" y="415.332" transform="matrix(-0.9508 0.31 -0.31 -0.9508 2232.0225 482.4646)" style="fill:#6E6D6E;" width="0.561" height="6.444"/>
					</g>
					<g>
						
							<rect x="1023.565" y="214.134" transform="matrix(-0.9788 0.2048 -0.2048 -0.9788 2070.5044 220.4276)" style="fill:#6E6D6E;" width="0.563" height="6.435"/>
						
							<rect x="1066.859" y="418.152" transform="matrix(-0.978 0.2088 -0.2088 -0.978 2198.7439 610.6251)" style="fill:#6E6D6E;" width="0.561" height="6.445"/>
					</g>
					<g>
						
							<rect x="1034.344" y="212.431" transform="matrix(-0.9949 0.1005 -0.1005 -0.9949 2085.6899 326.19)" style="fill:#6E6D6E;" width="0.563" height="6.435"/>
						
							<rect x="1056.079" y="419.856" transform="matrix(-0.9945 0.1043 -0.1043 -0.9945 2151.0923 733.6454)" style="fill:#6E6D6E;" width="0.562" height="6.445"/>
					</g>
					<g>
						<rect x="1045.244" y="211.862" style="fill:#6E6D6E;" width="0.563" height="6.436"/>
						<rect x="1045.181" y="420.424" style="fill:#6E6D6E;" width="0.562" height="6.443"/>
					</g>
				</g>
				<g>
					
						<rect x="993.93" y="401.678" transform="matrix(0.8656 0.5008 -0.5008 0.8656 337.7731 -443.327)" style="fill:#6E6D6E;" width="1.349" height="11.554"/>
					<polygon style="fill:#6E6D6E;" points="1094.005,236.633 1092.837,235.956 1098.628,225.926 1099.795,226.604 					"/>
					
						<rect x="956.695" y="364.446" transform="matrix(0.4996 0.8662 -0.8662 0.4996 799.7311 -644.0613)" style="fill:#6E6D6E;" width="1.351" height="11.555"/>
					<polygon style="fill:#6E6D6E;" points="1128.865,271.988 1128.192,270.818 1138.223,265.027 1138.895,266.197 					"/>
					<polygon style="fill:#6E6D6E;" points="937.964,320.035 937.964,318.686 949.52,318.691 949.519,320.035 					"/>
					<polygon style="fill:#6E6D6E;" points="1141.378,320.035 1141.381,318.686 1152.962,318.686 1152.959,320.035 					"/>
					
						<rect x="956.694" y="262.724" transform="matrix(-0.5003 0.8659 -0.8659 -0.5003 1668.7948 -426.1341)" style="fill:#6E6D6E;" width="1.349" height="11.555"/>
					<polygon style="fill:#6E6D6E;" points="1128.19,367.902 1128.867,366.736 1138.897,372.525 1138.22,373.693 					"/>
					
						<rect x="993.925" y="225.491" transform="matrix(-0.8661 0.5 -0.5 -0.8661 1971.6001 -65.6921)" style="fill:#6E6D6E;" width="1.35" height="11.555"/>
					<polygon style="fill:#6E6D6E;" points="1092.836,402.764 1094.005,402.092 1099.797,412.121 1098.627,412.793 					"/>
					<rect x="1044.786" y="211.861" style="fill:#6E6D6E;" width="1.35" height="11.557"/>
					<polygon style="fill:#6E6D6E;" points="1044.788,415.275 1046.136,415.279 1046.138,426.859 1044.788,426.857 					"/>
				</g>
			</g>
		</g>
		<g id="clock-background-pm">
			<g>
				<g>
					
						<radialGradient id="SVGID_7_" cx="183.4155" cy="740.6816" r="187.665" gradientTransform="matrix(0.9858 0 0 0.9858 33.334 6.8492)" gradientUnits="userSpaceOnUse">
						<stop  offset="0" style="stop-color:#000000"/>
						<stop  offset="1" style="stop-color:#000000;stop-opacity:0.1"/>
					</radialGradient>
					<circle style="fill:url(#SVGID_7_);" cx="214.146" cy="737.012" r="185"/>
				</g>
				<g>
					<linearGradient id="SVGID_8_" gradientUnits="userSpaceOnUse" x1="214.1465" y1="920.3457" x2="214.1465" y2="554.3457">
						<stop  offset="0" style="stop-color:#343433"/>
						<stop  offset="0" style="stop-color:#413E3E"/>
						<stop  offset="0.6933" style="stop-color:#6E6F71"/>
						<stop  offset="0.8528" style="stop-color:#CECCCB"/>
						<stop  offset="1" style="stop-color:#636364"/>
					</linearGradient>
					<path style="fill:url(#SVGID_8_);" d="M397.147,737.344c0,101.07-81.935,183.002-183.002,183.002
						c-101.066,0-183-81.932-183-183.002c0-101.066,81.934-182.998,183-182.998C315.213,554.346,397.147,636.277,397.147,737.344z"
						/>
				</g>
				<g>
					<circle style="fill:#282928;" cx="214.242" cy="736.705" r="176.798"/>
				</g>
			</g>
			<circle style="fill:#010101;stroke:#010101;" cx="214.146" cy="737.346" r="119"/>
			<g style="opacity:0.7;">
				<g>
					<path style="fill:#FEFEFE;" d="M211.807,597.584h-8v-1.172h3.351v-13.639l-3.351,1.062v-1.152l3.805-1.35h1.017v15.078h3.179
						V597.584z"/>
					<path style="fill:#FEFEFE;" d="M222.706,597.584h-8.324v-0.686c0-3.078,1.297-5.07,4.043-7.395
						c1.708-1.439,2.746-2.502,2.746-4.053c0-2.104-1.103-2.943-3.136-2.943c-1.124,0-2.205,0.332-3.113,0.686v-1.262
						c1.038-0.355,2.011-0.643,3.33-0.643c2.595,0,4.389,1.041,4.389,4.053c0,2.104-1.34,3.498-3.265,5.113
						c-2.486,2.082-3.524,3.609-3.589,5.957h6.919V597.584z"/>
				</g>
				<g>
					<path style="fill:#FEFEFE;" d="M58.198,741.467c0.454,0.088,1.275,0.221,1.968,0.221c3.135,0,3.892-2.324,4.043-6.465
						c-0.497,0.93-1.449,1.727-3.049,1.727c-3.179,0-3.913-2.59-3.913-4.938c0-3.209,1.103-5.645,4.216-5.645
						c4.021,0,4.26,4.273,4.26,7.705c0,5.711-1.514,8.768-5.449,8.768c-0.757,0-1.557-0.09-2.075-0.178V741.467z M61.441,727.518
						c-2.205,0-2.725,2.037-2.725,4.451c0,1.838,0.39,3.83,2.638,3.83c1.946,0,2.897-1.328,2.897-3.498
						C64.252,730.352,63.819,727.518,61.441,727.518z"/>
				</g>
				<g>
					<path style="fill:#FEFEFE;" d="M365.241,727.539c-1.038,0-2.141,0.289-3.006,0.51v-1.217c0.952-0.244,2.141-0.443,3.309-0.443
						c2.552,0,4.064,1.084,4.064,3.809c0,2.059-1.016,3.387-2.789,3.918c2.055,0.465,3.092,1.816,3.092,3.941
						c0,3.033-1.384,4.783-4.843,4.783c-1.124,0-2.228-0.199-3.157-0.443v-1.195c0.995,0.242,2.033,0.486,3.136,0.486
						c2.486,0,3.395-1.262,3.395-3.498c0-3.166-2.271-3.498-5.384-3.498v-1.084c3.329,0,5.081-0.576,5.081-3.344
						C368.139,728.381,367.188,727.539,365.241,727.539z"/>
				</g>
				<g>
					<path style="fill:#FEFEFE;" d="M347.664,669.096h-8.324v-0.688c0-3.076,1.297-5.068,4.043-7.395
						c1.708-1.439,2.746-2.502,2.746-4.051c0-2.104-1.103-2.945-3.136-2.945c-1.124,0-2.205,0.332-3.113,0.688v-1.264
						c1.038-0.354,2.011-0.641,3.33-0.641c2.595,0,4.389,1.039,4.389,4.051c0,2.104-1.34,3.498-3.265,5.115
						c-2.486,2.08-3.524,3.607-3.589,5.955h6.919V669.096z"/>
				</g>
				<g>
					<path style="fill:#FEFEFE;" d="M291.314,618.455h-8v-1.172h3.351v-13.639l-3.351,1.062v-1.152l3.805-1.35h1.017v15.078h3.179
						V618.455z"/>
				</g>
				<g>
					<path style="fill:#FEFEFE;" d="M142.714,617.213h-8v-1.174h3.351V602.4l-3.351,1.062v-1.15l3.805-1.352h1.017v15.078h3.179
						V617.213z"/>
					<path style="fill:#FEFEFE;" d="M153.765,617.213h-8v-1.174h3.351V602.4l-3.351,1.062v-1.15l3.805-1.352h1.017v15.078h3.179
						V617.213z"/>
				</g>
				<g>
					<path style="fill:#FEFEFE;" d="M85.799,665.699h-8v-1.172h3.351v-13.639l-3.351,1.062v-1.152l3.805-1.35h1.017v15.078h3.179
						V665.699z"/>
					<path style="fill:#FEFEFE;" d="M92.741,665.877c-3.892,0-4.281-4.051-4.281-8.436c0-3.963,0.52-8.059,4.346-8.059
						c3.763,0,4.195,4.074,4.195,8.059C97.001,661.869,96.568,665.877,92.741,665.877z M92.741,650.533
						c-2.595,0-2.811,3.322-2.811,6.887c0,4.25,0.324,7.307,2.811,7.307s2.789-3.166,2.789-7.307
						C95.53,653.832,95.293,650.533,92.741,650.533z"/>
				</g>
				<g>
					<path style="fill:#FEFEFE;" d="M80.369,801.256c2.508,0,4.043,1.484,4.043,4.074c0,2.059-0.843,3.344-2.335,3.83
						c1.557,0.443,2.595,1.771,2.595,4.074c0,2.9-1.6,4.494-4.367,4.494c-2.746,0-4.303-1.594-4.303-4.494
						c0-2.236,0.994-3.543,2.572-4.074c-1.448-0.531-2.313-1.816-2.313-3.83C76.261,802.74,77.861,801.256,80.369,801.256z
						 M80.326,809.736c-2.205,0-2.854,1.771-2.854,3.408c0,1.861,0.692,3.432,2.833,3.432s2.897-1.549,2.897-3.432
						C83.202,811.508,82.51,809.736,80.326,809.736z M80.326,802.406c-1.925,0-2.595,1.418-2.595,3.033
						c0,1.994,0.887,3.145,2.573,3.145c1.708,0,2.638-1.107,2.638-3.145C82.942,803.779,82.25,802.406,80.326,802.406z"/>
				</g>
				<g>
					<path style="fill:#FEFEFE;" d="M138.621,854.754c-2.768,4.738-4.584,9.564-4.649,15.057h-1.513
						c0.043-5.094,1.924-10.273,4.67-14.945h-7.243v-1.174h8.735V854.754z"/>
				</g>
				<g>
					<path style="fill:#FEFEFE;" d="M285.108,861.088c0.39-0.045,0.865-0.066,1.341-0.066c2.4,0,4.627,0.887,4.627,4.85
						c0,3.586-1.729,5.336-5.081,5.336c-0.994,0-1.946-0.178-2.789-0.377v-1.195c0.821,0.199,1.751,0.42,2.638,0.42
						c2.616,0,3.763-1.195,3.763-4.117c0-3.057-1.558-3.764-3.871-3.764c-0.691,0-1.427,0.088-2.032,0.154v-7.395h7.136v1.172h-5.73
						V861.088z"/>
				</g>
				<g>
					<path style="fill:#FEFEFE;" d="M348.507,813.766h-1.816v3.785h-1.405v-3.785h-6.595v-1.195l6.465-11.293h1.535v11.314h1.816
						V813.766z M345.285,812.592v-9.299l-5.211,9.299H345.285z"/>
				</g>
				<g>
					<path style="fill:#FEFEFE;" d="M217.532,876.291c-0.454-0.088-1.125-0.154-1.687-0.154c-3.309,0-4.195,3.211-4.411,6.465
						c0.497-0.93,1.514-1.727,3.113-1.727c3.179,0,3.893,2.568,3.893,4.914c0,3.211-1.125,5.646-4.26,5.646
						c-3.914,0-4.238-4.207-4.238-7.639c0-4.85,1.665-8.812,5.816-8.812c0.648,0,1.319,0.023,1.773,0.111V876.291z M214.311,882.025
						c-2.011,0-2.897,1.439-2.897,3.498c0,1.859,0.389,4.76,2.789,4.76c2.184,0,2.768-1.947,2.768-4.428
						C216.97,884.018,216.559,882.025,214.311,882.025z"/>
				</g>
			</g>
		</g>
		<g id="clock-hour-handle-pm">
			<path style="fill:#9A9A9A;" d="M209.448,730.766l0.001,86.139c-0.001,3.316,2.461,6.006,5.5,6.006
				c3.038,0,5.499-2.689,5.499-6.006V726.91C216.943,728.631,213.248,729.922,209.448,730.766z"/>
		</g>
		<g id="clock-minute-handle-pm">
			<path style="fill:#FFFFFF;" d="M225.539,728.15c0-5.834-4.7-10.564-10.5-10.564s-10.5,4.73-10.5,10.564
				c0,4.498,2.798,8.33,6.734,9.855v125.549c0,2.768,1.536,5.031,3.414,5.031h0.171c1.878,0,3.415-2.264,3.415-5.031V738.201
				C222.488,736.828,225.539,732.85,225.539,728.15z"/>
		</g>
		<g id="clock-seconds-handle-pm">
			<path style="fill:#506AAF;" d="M217.338,724.252c-0.146-0.076-0.3-0.117-0.449-0.178l0.064-29.486
				c0.003-0.887-0.799-1.607-1.787-1.609c-0.989-0.002-1.793,0.719-1.795,1.605l-0.064,29.439c-1.125,0.418-2.11,1.225-2.706,2.375
				c-1.267,2.451-0.306,5.469,2.146,6.734c0.176,0.092,0.358,0.146,0.539,0.213l-0.332,152.021
				c-0.004,0.889,0.798,1.609,1.788,1.611c0.988,0,1.792-0.719,1.793-1.605l0.333-152.049c1.087-0.428,2.036-1.215,2.614-2.334
				C220.751,728.535,219.79,725.52,217.338,724.252z"/>
		</g>
		<g id="clock-picker-minute-background-pm">
			<g>
				<g>
					<g>
						
							<radialGradient id="SVGID_9_" cx="608.9902" cy="734.6113" r="187.665" gradientTransform="matrix(0.9858 0 0 0.9858 33.334 6.8492)" gradientUnits="userSpaceOnUse">
							<stop  offset="0" style="stop-color:#000000"/>
							<stop  offset="1" style="stop-color:#000000;stop-opacity:0.1"/>
						</radialGradient>
						<circle style="fill:url(#SVGID_9_);" cx="633.677" cy="731.027" r="185"/>
					</g>
					<g>
						<linearGradient id="SVGID_10_" gradientUnits="userSpaceOnUse" x1="633.6772" y1="914.3633" x2="633.6772" y2="548.3613">
							<stop  offset="0" style="stop-color:#343433"/>
							<stop  offset="0" style="stop-color:#413E3E"/>
							<stop  offset="0.6933" style="stop-color:#6E6F71"/>
							<stop  offset="0.8528" style="stop-color:#CECCCB"/>
							<stop  offset="1" style="stop-color:#636364"/>
						</linearGradient>
						<circle style="fill:url(#SVGID_10_);" cx="633.677" cy="731.361" r="183.001"/>
					</g>
					<g>
						<circle style="fill:#282928;" cx="633.772" cy="730.723" r="176.798"/>
					</g>
				</g>
				<circle style="fill:#010101;stroke:#010101;" cx="633.677" cy="730.863" r="112.5"/>
				<g>
					<g>
						<path style="fill:#FFFFFF;" d="M628.155,591.746c-3.241,0-3.565-3.295-3.565-6.861c0-3.223,0.433-6.553,3.619-6.553
							c3.133,0,3.493,3.312,3.493,6.553C631.702,588.486,631.342,591.746,628.155,591.746z M628.155,579.268
							c-2.161,0-2.341,2.701-2.341,5.6c0,3.457,0.271,5.941,2.341,5.941s2.322-2.574,2.322-5.941
							C630.478,581.951,630.28,579.268,628.155,579.268z"/>
						<path style="fill:#FFFFFF;" d="M637.354,591.746c-3.241,0-3.565-3.295-3.565-6.861c0-3.223,0.433-6.553,3.619-6.553
							c3.133,0,3.493,3.312,3.493,6.553C640.901,588.486,640.541,591.746,637.354,591.746z M637.354,579.268
							c-2.161,0-2.341,2.701-2.341,5.6c0,3.457,0.271,5.941,2.341,5.941s2.322-2.574,2.322-5.941
							C639.677,581.951,639.479,579.268,637.354,579.268z"/>
					</g>
					<g>
						<path style="fill:#FFFFFF;" d="M482.586,733.621h-1.405v3.08h-1.087v-3.08h-5.101v-0.971l5-9.184h1.188v9.201h1.405V733.621z
							 M480.094,732.668v-7.562l-4.03,7.562H480.094z"/>
						<path style="fill:#FFFFFF;" d="M485.795,728.598c0.301-0.035,0.669-0.053,1.037-0.053c1.855,0,3.578,0.719,3.578,3.943
							c0,2.916-1.338,4.338-3.93,4.338c-0.77,0-1.505-0.143-2.157-0.305v-0.973c0.636,0.162,1.354,0.342,2.04,0.342
							c2.023,0,2.91-0.973,2.91-3.35c0-2.484-1.204-3.061-2.994-3.061c-0.535,0-1.104,0.072-1.571,0.127v-6.016h5.519v0.955h-4.432
							V728.598z"/>
					</g>
					<g>
						<path style="fill:#FFFFFF;" d="M781.675,736.701h-6.662v-0.955h2.791v-11.092l-2.791,0.865v-0.936l3.169-1.1h0.847v12.262
							h2.646V736.701z"/>
						<path style="fill:#FFFFFF;" d="M785.707,728.598c0.323-0.035,0.72-0.053,1.116-0.053c1.998,0,3.853,0.719,3.853,3.943
							c0,2.916-1.44,4.338-4.23,4.338c-0.829,0-1.621-0.143-2.323-0.305v-0.973c0.685,0.162,1.458,0.342,2.196,0.342
							c2.179,0,3.134-0.973,3.134-3.35c0-2.484-1.297-3.061-3.224-3.061c-0.576,0-1.188,0.072-1.692,0.127v-6.016h5.942v0.955
							h-4.771V728.598z"/>
					</g>
					<g>
						<path style="fill:#FFFFFF;" d="M762.06,663.111h-6.662v-0.953h2.791v-11.092l-2.791,0.865v-0.938l3.169-1.098h0.847v12.262
							h2.646V663.111z"/>
						<path style="fill:#FFFFFF;" d="M767.838,663.256c-3.241,0-3.565-3.295-3.565-6.859c0-3.223,0.433-6.555,3.619-6.555
							c3.133,0,3.493,3.312,3.493,6.555C771.385,659.998,771.024,663.256,767.838,663.256z M767.838,650.779
							c-2.16,0-2.341,2.699-2.341,5.6c0,3.457,0.271,5.941,2.341,5.941s2.322-2.576,2.322-5.941
							C770.16,653.461,769.963,650.779,767.838,650.779z"/>
					</g>
					<g>
						<path style="fill:#FFFFFF;" d="M702.138,610.617c-3.241,0-3.565-3.295-3.565-6.861c0-3.223,0.433-6.553,3.619-6.553
							c3.133,0,3.493,3.312,3.493,6.553C705.685,607.357,705.324,610.617,702.138,610.617z M702.138,598.139
							c-2.161,0-2.341,2.701-2.341,5.6c0,3.457,0.271,5.941,2.341,5.941s2.322-2.574,2.322-5.941
							C704.46,600.822,704.263,598.139,702.138,598.139z"/>
						<path style="fill:#FFFFFF;" d="M709.591,602.369c0.323-0.035,0.72-0.053,1.116-0.053c1.998,0,3.853,0.721,3.853,3.943
							c0,2.916-1.44,4.338-4.231,4.338c-0.828,0-1.62-0.143-2.322-0.305v-0.973c0.685,0.162,1.459,0.342,2.196,0.342
							c2.179,0,3.134-0.973,3.134-3.35c0-2.484-1.297-3.061-3.224-3.061c-0.576,0-1.188,0.072-1.692,0.127v-6.014h5.941v0.953
							h-4.771V602.369z"/>
					</g>
					<g>
						<path style="fill:#FFFFFF;" d="M554.316,603.127c0.323-0.037,0.72-0.055,1.116-0.055c1.998,0,3.853,0.721,3.853,3.943
							c0,2.918-1.44,4.34-4.23,4.34c-0.829,0-1.621-0.145-2.323-0.307v-0.973c0.685,0.162,1.458,0.344,2.196,0.344
							c2.179,0,3.134-0.973,3.134-3.35c0-2.484-1.297-3.061-3.224-3.061c-0.576,0-1.188,0.072-1.692,0.125v-6.014h5.942v0.955
							h-4.771V603.127z"/>
						<path style="fill:#FFFFFF;" d="M563.516,603.127c0.323-0.037,0.72-0.055,1.116-0.055c1.998,0,3.853,0.721,3.853,3.943
							c0,2.918-1.44,4.34-4.23,4.34c-0.829,0-1.621-0.145-2.323-0.307v-0.973c0.685,0.162,1.458,0.344,2.196,0.344
							c2.179,0,3.134-0.973,3.134-3.35c0-2.484-1.297-3.061-3.224-3.061c-0.576,0-1.188,0.072-1.692,0.125v-6.014h5.942v0.955
							h-4.771V603.127z"/>
					</g>
					<g>
						<path style="fill:#FFFFFF;" d="M500.401,655.613c0.323-0.035,0.72-0.053,1.116-0.053c1.998,0,3.853,0.721,3.853,3.943
							c0,2.916-1.44,4.338-4.231,4.338c-0.828,0-1.62-0.143-2.322-0.305v-0.973c0.685,0.162,1.459,0.342,2.196,0.342
							c2.179,0,3.134-0.973,3.134-3.35c0-2.484-1.297-3.061-3.224-3.061c-0.576,0-1.188,0.072-1.692,0.127v-6.014h5.941v0.953
							h-4.771V655.613z"/>
						<path style="fill:#FFFFFF;" d="M511.347,663.861c-3.241,0-3.565-3.295-3.565-6.861c0-3.223,0.433-6.553,3.619-6.553
							c3.133,0,3.493,3.312,3.493,6.553C514.894,660.602,514.533,663.861,511.347,663.861z M511.347,651.383
							c-2.161,0-2.341,2.701-2.341,5.6c0,3.457,0.271,5.941,2.341,5.941s2.322-2.574,2.322-5.941
							C513.669,654.066,513.472,651.383,511.347,651.383z"/>
					</g>
					<g>
						<path style="fill:#FFFFFF;" d="M502.276,808.488h-1.513v3.08h-1.17v-3.08h-5.492v-0.971l5.384-9.184h1.278v9.201h1.513
							V808.488z M499.594,807.535v-7.562l-4.34,7.562H499.594z"/>
						<path style="fill:#FFFFFF;" d="M507.479,811.711c-3.241,0-3.565-3.295-3.565-6.859c0-3.223,0.433-6.553,3.619-6.553
							c3.133,0,3.493,3.312,3.493,6.553C511.025,808.453,510.665,811.711,507.479,811.711z M507.479,799.234
							c-2.16,0-2.341,2.701-2.341,5.6c0,3.457,0.271,5.941,2.341,5.941s2.322-2.574,2.322-5.941
							C509.801,801.916,509.604,799.234,507.479,799.234z"/>
					</g>
					<g>
						<path style="fill:#FFFFFF;" d="M551.393,854.512c-0.864,0-1.782,0.232-2.503,0.414v-0.99c0.793-0.199,1.783-0.361,2.755-0.361
							c2.125,0,3.385,0.883,3.385,3.098c0,1.674-0.846,2.754-2.322,3.188c1.711,0.377,2.575,1.477,2.575,3.205
							c0,2.465-1.152,3.889-4.033,3.889c-0.937,0-1.854-0.162-2.629-0.361v-0.971c0.828,0.197,1.692,0.395,2.61,0.395
							c2.07,0,2.827-1.025,2.827-2.844c0-2.574-1.891-2.846-4.483-2.846v-0.881c2.772,0,4.231-0.469,4.231-2.719
							C553.806,855.195,553.014,854.512,551.393,854.512z"/>
						<path style="fill:#FFFFFF;" d="M559.746,858.725c0.323-0.037,0.72-0.055,1.116-0.055c1.998,0,3.853,0.721,3.853,3.943
							c0,2.916-1.44,4.34-4.23,4.34c-0.829,0-1.621-0.145-2.323-0.307v-0.973c0.685,0.162,1.458,0.342,2.196,0.342
							c2.179,0,3.134-0.971,3.134-3.348c0-2.484-1.297-3.061-3.224-3.061c-0.576,0-1.188,0.07-1.692,0.125v-6.014h5.942v0.955
							h-4.771V858.725z"/>
					</g>
					<g>
						<path style="fill:#FFFFFF;" d="M707.433,867.068h-6.932v-0.559c0-2.502,1.08-4.123,3.366-6.014
							c1.423-1.17,2.287-2.035,2.287-3.295c0-1.711-0.918-2.395-2.61-2.395c-0.937,0-1.837,0.27-2.593,0.559v-1.027
							c0.864-0.287,1.674-0.521,2.772-0.521c2.16,0,3.655,0.846,3.655,3.295c0,1.711-1.116,2.844-2.719,4.158
							c-2.071,1.693-2.936,2.936-2.989,4.844h5.762V867.068z"/>
						<path style="fill:#FFFFFF;" d="M711.591,858.965c0.323-0.035,0.72-0.053,1.116-0.053c1.998,0,3.853,0.719,3.853,3.943
							c0,2.916-1.44,4.338-4.231,4.338c-0.828,0-1.62-0.143-2.322-0.305v-0.973c0.685,0.162,1.459,0.342,2.196,0.342
							c2.179,0,3.134-0.973,3.134-3.35c0-2.484-1.297-3.061-3.224-3.061c-0.576,0-1.188,0.072-1.692,0.127v-6.016h5.941v0.955
							h-4.771V858.965z"/>
					</g>
					<g>
						<path style="fill:#FFFFFF;" d="M761.934,811.568h-6.932v-0.559c0-2.502,1.08-4.123,3.366-6.014
							c1.423-1.17,2.287-2.035,2.287-3.295c0-1.711-0.918-2.395-2.61-2.395c-0.937,0-1.837,0.27-2.593,0.559v-1.027
							c0.864-0.287,1.674-0.521,2.772-0.521c2.16,0,3.655,0.846,3.655,3.295c0,1.711-1.116,2.844-2.719,4.158
							c-2.071,1.693-2.936,2.936-2.989,4.844h5.762V811.568z"/>
						<path style="fill:#FFFFFF;" d="M767.838,811.711c-3.241,0-3.565-3.295-3.565-6.859c0-3.223,0.433-6.553,3.619-6.553
							c3.133,0,3.493,3.312,3.493,6.553C771.385,808.453,771.024,811.711,767.838,811.711z M767.838,799.234
							c-2.16,0-2.341,2.701-2.341,5.6c0,3.457,0.271,5.941,2.341,5.941s2.322-2.574,2.322-5.941
							C770.16,801.916,769.963,799.234,767.838,799.234z"/>
					</g>
					<g>
						<path style="fill:#FFFFFF;" d="M627.082,873.959c-0.864,0-1.782,0.234-2.503,0.414v-0.99c0.793-0.197,1.783-0.359,2.755-0.359
							c2.125,0,3.385,0.881,3.385,3.096c0,1.676-0.846,2.756-2.322,3.188c1.711,0.379,2.575,1.477,2.575,3.205
							c0,2.467-1.152,3.889-4.033,3.889c-0.937,0-1.854-0.162-2.629-0.359v-0.973c0.828,0.197,1.692,0.396,2.61,0.396
							c2.07,0,2.827-1.027,2.827-2.846c0-2.574-1.891-2.844-4.483-2.844v-0.883c2.772,0,4.231-0.469,4.231-2.719
							C629.495,874.643,628.703,873.959,627.082,873.959z"/>
						<path style="fill:#FFFFFF;" d="M637.182,886.418c-3.241,0-3.565-3.295-3.565-6.859c0-3.223,0.433-6.553,3.619-6.553
							c3.133,0,3.493,3.312,3.493,6.553C640.729,883.16,640.368,886.418,637.182,886.418z M637.182,873.941
							c-2.16,0-2.341,2.701-2.341,5.6c0,3.457,0.271,5.941,2.341,5.941s2.322-2.574,2.322-5.941
							C639.504,876.623,639.307,873.941,637.182,873.941z"/>
					</g>
				</g>
			</g>
			<g>
				<g>
					
						<rect x="616.673" y="874.007" transform="matrix(0.9944 0.106 -0.106 0.9944 96.5043 -60.424)" style="fill:#FFFFFF;" width="0.479" height="8.002"/>
					
						<rect x="647.862" y="579.403" transform="matrix(0.9948 0.1019 -0.1019 0.9948 62.8388 -63.0197)" style="fill:#FFFFFF;" width="0.479" height="7.999"/>
				</g>
				<g>
					
						<rect x="601.364" y="871.571" transform="matrix(0.9782 0.2079 -0.2079 0.9782 195.1349 -105.9252)" style="fill:#FFFFFF;" width="0.479" height="8.001"/>
					
						<rect x="663.172" y="581.838" transform="matrix(0.9788 0.2048 -0.2048 0.9788 134.021 -123.4337)" style="fill:#FFFFFF;" width="0.477" height="8"/>
				</g>
				<g>
					
						<rect x="586.394" y="867.549" transform="matrix(0.9507 0.3101 -0.3101 0.9507 299.1869 -138.9513)" style="fill:#FFFFFF;" width="0.479" height="7.999"/>
					
						<rect x="678.142" y="585.861" transform="matrix(0.9519 0.3064 -0.3064 0.9519 213.3665 -179.4882)" style="fill:#FFFFFF;" width="0.478" height="8"/>
				</g>
				<g>
					
						<rect x="571.925" y="861.983" transform="matrix(0.9131 0.4077 -0.4077 0.9131 402.7183 -158.0223)" style="fill:#FFFFFF;" width="0.479" height="8.002"/>
					
						<rect x="692.61" y="591.425" transform="matrix(0.9162 0.4008 -0.4008 0.9162 296.7481 -227.7847)" style="fill:#FFFFFF;" width="0.478" height="8.002"/>
				</g>
				<g>
					
						<rect x="545.123" y="846.484" transform="matrix(0.8094 0.5872 -0.5872 0.8094 603.3295 -158.1699)" style="fill:#FFFFFF;" width="0.479" height="8.001"/>
					
						<rect x="719.411" y="606.926" transform="matrix(0.8087 0.5882 -0.5882 0.8087 496.9724 -306.4299)" style="fill:#FFFFFF;" width="0.478" height="7.999"/>
				</g>
				<g>
					
						<rect x="533.082" y="836.72" transform="matrix(0.7429 0.6694 -0.6694 0.7429 699.9149 -140.8543)" style="fill:#FFFFFF;" width="0.478" height="8.001"/>
					
						<rect x="731.454" y="616.689" transform="matrix(0.744 0.6682 -0.6682 0.744 602.0344 -330.004)" style="fill:#FFFFFF;" width="0.476" height="7.999"/>
				</g>
				<g>
					
						<rect x="522.128" y="825.752" transform="matrix(0.6694 0.7429 -0.7429 0.6694 789.1 -113.757)" style="fill:#FFFFFF;" width="0.478" height="8.002"/>
					
						<rect x="742.408" y="627.657" transform="matrix(0.6714 0.7411 -0.7411 0.6714 712.0863 -342.8074)" style="fill:#FFFFFF;" width="0.477" height="7.999"/>
				</g>
				<g>
					
						<rect x="512.379" y="813.7" transform="matrix(0.5882 0.8087 -0.8087 0.5882 872.4143 -77.8207)" style="fill:#FFFFFF;" width="0.478" height="8.001"/>
					
						<rect x="752.156" y="639.71" transform="matrix(0.5901 0.8073 -0.8073 0.5901 828.0693 -343.5759)" style="fill:#FFFFFF;" width="0.477" height="8"/>
				</g>
				<g>
					
						<rect x="496.914" y="786.878" transform="matrix(0.4059 0.9139 -0.9139 0.4059 1018.1151 15.476)" style="fill:#FFFFFF;" width="0.479" height="8.001"/>
					
						<rect x="767.621" y="666.533" transform="matrix(0.4058 0.914 -0.914 0.4058 1069.1476 -303.3501)" style="fill:#FFFFFF;" width="0.477" height="7.999"/>
				</g>
				<g>
					
						<rect x="491.367" y="772.402" transform="matrix(0.3101 0.9507 -0.9507 0.3101 1077.2881 68.2685)" style="fill:#FFFFFF;" width="0.479" height="8.003"/>
					
						<rect x="773.169" y="681.006" transform="matrix(0.3113 0.9503 -0.9503 0.3113 1183.6064 -263.218)" style="fill:#FFFFFF;" width="0.477" height="8"/>
				</g>
				<g>
					
						<rect x="487.362" y="757.428" transform="matrix(0.2079 0.9782 -0.9782 0.2079 1131.0476 126.2073)" style="fill:#FFFFFF;" width="0.479" height="8.002"/>
					
						<rect x="777.173" y="695.983" transform="matrix(0.2087 0.978 -0.978 0.2087 1299.7432 -206.3917)" style="fill:#FFFFFF;" width="0.477" height="7.999"/>
				</g>
				<g>
					
						<rect x="484.944" y="742.116" transform="matrix(0.1019 0.9948 -0.9948 0.1019 1177.9615 187.4113)" style="fill:#FFFFFF;" width="0.479" height="8"/>
					
						<rect x="779.59" y="711.294" transform="matrix(0.1064 0.9943 -0.9943 0.1064 1408.0981 -136.2079)" style="fill:#FFFFFF;" width="0.477" height="7.999"/>
				</g>
				<g>
					
						<rect x="484.959" y="711.155" transform="matrix(-0.106 0.9944 -0.9944 -0.106 1247.738 308.4644)" style="fill:#FFFFFF;" width="0.479" height="8.001"/>
					
						<rect x="779.574" y="742.257" transform="matrix(-0.1039 0.9946 -0.9946 -0.1039 1603.0826 48.2337)" style="fill:#FFFFFF;" width="0.479" height="7.998"/>
				</g>
				<g>
					
						<rect x="487.39" y="695.846" transform="matrix(-0.2118 0.9773 -0.9773 -0.2118 1274.8625 371.4684)" style="fill:#FFFFFF;" width="0.48" height="8"/>
					
						<rect x="777.142" y="757.566" transform="matrix(-0.2059 0.9786 -0.9786 -0.2059 1682.6969 157.654)" style="fill:#FFFFFF;" width="0.479" height="7.999"/>
				</g>
				<g>
					
						<rect x="491.408" y="680.873" transform="matrix(-0.3089 0.9511 -0.9511 -0.3089 1294.8982 428.8281)" style="fill:#FFFFFF;" width="0.481" height="8"/>
					
						<rect x="773.124" y="772.538" transform="matrix(-0.3083 0.9513 -0.9513 -0.3083 1750.4791 280.2053)" style="fill:#FFFFFF;" width="0.478" height="7.999"/>
				</g>
				<g>
					
						<rect x="496.97" y="666.402" transform="matrix(-0.4093 0.9124 -0.9124 -0.4093 1312.4033 491.1882)" style="fill:#FFFFFF;" width="0.48" height="8.002"/>
					
						<rect x="767.562" y="787.008" transform="matrix(-0.4059 0.9139 -0.9139 -0.4059 1802.3889 410.4261)" style="fill:#FFFFFF;" width="0.479" height="7.999"/>
				</g>
				<g>
					
						<rect x="512.461" y="639.596" transform="matrix(-0.5876 0.8092 -0.8092 -0.5876 1334.7294 606.8881)" style="fill:#FFFFFF;" width="0.48" height="8.002"/>
					
						<rect x="752.073" y="813.815" transform="matrix(-0.5868 0.8097 -0.8097 -0.5868 1855.9838 688.5829)" style="fill:#FFFFFF;" width="0.478" height="7.999"/>
				</g>
				<g>
					
						<rect x="522.222" y="627.552" transform="matrix(-0.6726 0.74 -0.74 -0.6726 1341.2211 669.6774)" style="fill:#FFFFFF;" width="0.478" height="8"/>
					
						<rect x="742.314" y="825.858" transform="matrix(-0.6703 0.7421 -0.7421 -0.6703 1856.113 835.1046)" style="fill:#FFFFFF;" width="0.476" height="7.998"/>
				</g>
				<g>
					
						<rect x="533.185" y="616.595" transform="matrix(-0.7438 0.6684 -0.6684 -0.7438 1344.993 725.6515)" style="fill:#FFFFFF;" width="0.479" height="8"/>
					
						<rect x="731.348" y="836.816" transform="matrix(-0.7449 0.6672 -0.6672 -0.7449 1837.5129 979.0753)" style="fill:#FFFFFF;" width="0.477" height="7.998"/>
				</g>
				<g>
					
						<rect x="545.235" y="606.843" transform="matrix(-0.8101 0.5862 -0.5862 -0.8101 1345.4832 785.9367)" style="fill:#FFFFFF;" width="0.48" height="8"/>
					
						<rect x="719.298" y="846.568" transform="matrix(-0.8107 0.5855 -0.5855 -0.8107 1800.8484 1118.823)" style="fill:#FFFFFF;" width="0.477" height="7.999"/>
				</g>
				<g>
					
						<rect x="572.053" y="591.37" transform="matrix(-0.9131 0.4077 -0.4077 -0.9131 1337.5771 905.7277)" style="fill:#FFFFFF;" width="0.479" height="7.999"/>
					
						<rect x="692.48" y="862.04" transform="matrix(-0.9147 0.4042 -0.4042 -0.9147 1676.4059 1378.1378)" style="fill:#FFFFFF;" width="0.478" height="7.999"/>
				</g>
				<g>
					
						<rect x="586.527" y="585.817" transform="matrix(-0.9519 0.3064 -0.3064 -0.9519 1326.033 971.4764)" style="fill:#FFFFFF;" width="0.478" height="8"/>
					
						<rect x="678.006" y="867.592" transform="matrix(-0.9507 0.3101 -0.3101 -0.9507 1593.3365 1489.8931)" style="fill:#FFFFFF;" width="0.479" height="8"/>
				</g>
				<g>
					
						<rect x="601.5" y="581.808" transform="matrix(-0.9782 0.2079 -0.2079 -0.9782 1312.1023 1033.7456)" style="fill:#FFFFFF;" width="0.479" height="8.001"/>
					
						<rect x="663.031" y="871.601" transform="matrix(-0.9782 0.2079 -0.2079 -0.9782 1494.0558 1594.2125)" style="fill:#FFFFFF;" width="0.479" height="8"/>
				</g>
				<g>
					
						<rect x="616.812" y="579.386" transform="matrix(-0.9944 0.106 -0.106 -0.9944 1292.4441 1098.1082)" style="fill:#FFFFFF;" width="0.479" height="8.001"/>
					
						<rect x="647.719" y="874.022" transform="matrix(-0.9948 0.1019 -0.1019 -0.9948 1382.0361 1685.4287)" style="fill:#FFFFFF;" width="0.479" height="8.001"/>
				</g>
			</g>
		</g>
		<g id="clock-picker-hour-background-pm">
			<g>
				<g>
					<g>
						
							<radialGradient id="SVGID_11_" cx="1050.7324" cy="736.1367" r="187.665" gradientTransform="matrix(0.9858 0 0 0.9858 33.334 6.8492)" gradientUnits="userSpaceOnUse">
							<stop  offset="0" style="stop-color:#000000"/>
							<stop  offset="1" style="stop-color:#000000;stop-opacity:0.1"/>
						</radialGradient>
						<circle style="fill:url(#SVGID_11_);" cx="1069.146" cy="732.531" r="185"/>
					</g>
					<g>
						<linearGradient id="SVGID_12_" gradientUnits="userSpaceOnUse" x1="1069.1465" y1="915.8652" x2="1069.1465" y2="549.8652">
							<stop  offset="0" style="stop-color:#343433"/>
							<stop  offset="0" style="stop-color:#413F3E"/>
							<stop  offset="0.6933" style="stop-color:#6E7071"/>
							<stop  offset="0.8528" style="stop-color:#CDCBCA"/>
							<stop  offset="1" style="stop-color:#636465"/>
						</linearGradient>
						<path style="fill:url(#SVGID_12_);" d="M1252.146,732.863c0,101.07-81.933,183.002-183.001,183.002
							c-101.066,0-183-81.932-183-183.002c0-101.066,81.934-182.998,183-182.998
							C1170.214,549.865,1252.146,631.797,1252.146,732.863z"/>
					</g>
					<g>
						<circle style="fill:#282928;" cx="1069.242" cy="732.225" r="176.797"/>
					</g>
				</g>
				<circle style="fill:#010101;stroke:#010101;" cx="1069.146" cy="732.865" r="127.5"/>
				<g>
					<g>
						<path style="fill:#FBFBFB;" d="M1066.717,593.104h-8.508v-1.219h3.563v-14.164l-3.563,1.104v-1.195l4.047-1.403h1.081v15.659
							h3.38V593.104z"/>
						<path style="fill:#FBFBFB;" d="M1078.309,593.104h-8.853v-0.713c0-3.195,1.379-5.266,4.3-7.68
							c1.816-1.494,2.92-2.599,2.92-4.208c0-2.185-1.173-3.059-3.334-3.059c-1.195,0-2.346,0.345-3.312,0.713v-1.311
							c1.104-0.368,2.139-0.667,3.541-0.667c2.76,0,4.668,1.08,4.668,4.208c0,2.185-1.425,3.634-3.472,5.312
							c-2.645,2.162-3.748,3.748-3.817,6.186h7.358V593.104z"/>
					</g>
					<g>
						<path style="fill:#FBFBFB;" d="M913.24,736.939c0.448,0.092,1.26,0.229,1.943,0.229c3.098,0,3.846-2.414,3.995-6.713
							c-0.491,0.965-1.432,1.793-3.012,1.793c-3.141,0-3.867-2.691-3.867-5.129c0-3.334,1.09-5.863,4.166-5.863
							c3.974,0,4.208,4.439,4.208,8.002c0,5.934-1.495,9.107-5.383,9.107c-0.748,0-1.538-0.092-2.051-0.186V736.939z
							 M916.444,722.451c-2.179,0-2.691,2.117-2.691,4.623c0,1.908,0.384,3.979,2.606,3.979c1.922,0,2.862-1.381,2.862-3.633
							C919.222,725.395,918.794,722.451,916.444,722.451z"/>
					</g>
					<g>
						<path style="fill:#FBFBFB;" d="M1220.174,722.475c-1.104,0-2.276,0.299-3.196,0.529v-1.266
							c1.012-0.252,2.276-0.459,3.518-0.459c2.714,0,4.323,1.127,4.323,3.955c0,2.139-1.081,3.518-2.966,4.07
							c2.185,0.482,3.288,1.885,3.288,4.094c0,3.15-1.472,4.967-5.151,4.967c-1.195,0-2.368-0.207-3.357-0.461v-1.242
							c1.059,0.254,2.162,0.506,3.335,0.506c2.645,0,3.61-1.311,3.61-3.633c0-3.287-2.415-3.633-5.727-3.633v-1.127
							c3.542,0,5.404-0.598,5.404-3.473C1223.255,723.35,1222.243,722.475,1220.174,722.475z"/>
					</g>
					<g>
						<path style="fill:#FBFBFB;" d="M1202.916,664.615h-8.853v-0.713c0-3.197,1.379-5.266,4.3-7.681
							c1.816-1.495,2.92-2.599,2.92-4.208c0-2.185-1.173-3.059-3.334-3.059c-1.195,0-2.346,0.346-3.312,0.713v-1.311
							c1.104-0.368,2.139-0.667,3.541-0.667c2.76,0,4.668,1.081,4.668,4.208c0,2.185-1.425,3.633-3.472,5.312
							c-2.645,2.161-3.748,3.748-3.817,6.186h7.358V664.615z"/>
					</g>
					<g>
						<path style="fill:#FBFBFB;" d="M1146.576,613.975h-8.508v-1.219h3.563v-14.164l-3.563,1.104V598.5l4.047-1.403h1.081v15.659
							h3.38V613.975z"/>
					</g>
					<g>
						<path style="fill:#FBFBFB;" d="M997.624,612.732h-8.508v-1.219h3.563v-14.166l-3.563,1.104v-1.196l4.047-1.402h1.081v15.66
							h3.38V612.732z"/>
						<path style="fill:#FBFBFB;" d="M1009.377,612.732h-8.508v-1.219h3.563v-14.166l-3.563,1.104v-1.196l4.047-1.402h1.081v15.66
							h3.38V612.732z"/>
					</g>
					<g>
						<path style="fill:#FBFBFB;" d="M940.709,661.219h-8.508V660h3.563v-14.164l-3.563,1.104v-1.195l4.047-1.403h1.081V660h3.38
							V661.219z"/>
						<path style="fill:#FBFBFB;" d="M948.093,661.403c-4.139,0-4.553-4.208-4.553-8.761c0-4.117,0.552-8.371,4.622-8.371
							c4.001,0,4.461,4.231,4.461,8.371C952.623,657.241,952.163,661.403,948.093,661.403z M948.093,645.468
							c-2.76,0-2.989,3.449-2.989,7.151c0,4.415,0.345,7.588,2.989,7.588s2.967-3.288,2.967-7.588
							C951.06,648.895,950.807,645.468,948.093,645.468z"/>
					</g>
					<g>
						<path style="fill:#FBFBFB;" d="M935.372,796.146c2.667,0,4.3,1.541,4.3,4.23c0,2.139-0.897,3.473-2.483,3.979
							c1.655,0.461,2.759,1.84,2.759,4.23c0,3.014-1.701,4.668-4.645,4.668c-2.921,0-4.576-1.654-4.576-4.668
							c0-2.322,1.058-3.678,2.736-4.23c-1.54-0.551-2.46-1.885-2.46-3.979C931.003,797.688,932.704,796.146,935.372,796.146z
							 M935.325,804.953c-2.345,0-3.035,1.84-3.035,3.541c0,1.932,0.736,3.564,3.013,3.564s3.081-1.609,3.081-3.564
							C938.384,806.793,937.648,804.953,935.325,804.953z M935.325,797.342c-2.046,0-2.759,1.473-2.759,3.15
							c0,2.07,0.942,3.266,2.736,3.266c1.816,0,2.806-1.15,2.806-3.266C938.108,798.768,937.372,797.342,935.325,797.342z"/>
					</g>
					<g>
						<path style="fill:#FBFBFB;" d="M993.893,849.693c-2.943,4.92-4.875,9.934-4.944,15.637h-1.609
							c0.046-5.289,2.047-10.67,4.967-15.521h-7.703v-1.219h9.29V849.693z"/>
					</g>
					<g>
						<path style="fill:#FBFBFB;" d="M1139.977,856.223c0.414-0.045,0.92-0.068,1.426-0.068c2.553,0,4.921,0.92,4.921,5.035
							c0,3.727-1.84,5.543-5.404,5.543c-1.058,0-2.069-0.186-2.966-0.391V865.1c0.874,0.207,1.862,0.436,2.806,0.436
							c2.782,0,4.001-1.24,4.001-4.275c0-3.174-1.656-3.91-4.116-3.91c-0.736,0-1.518,0.092-2.162,0.162v-7.682h7.589v1.219h-6.094
							V856.223z"/>
					</g>
					<g>
						<path style="fill:#FBFBFB;" d="M1203.812,809.139h-1.932v3.932h-1.494v-3.932h-7.014v-1.242l6.876-11.727h1.632v11.75h1.932
							V809.139z M1200.387,807.92v-9.658l-5.542,9.658H1200.387z"/>
					</g>
					<g>
						<path style="fill:#FBFBFB;" d="M1072.754,871.232c-0.482-0.092-1.195-0.16-1.794-0.16c-3.518,0-4.461,3.334-4.69,6.715
							c0.528-0.967,1.609-1.793,3.312-1.793c3.38,0,4.139,2.666,4.139,5.104c0,3.334-1.195,5.863-4.53,5.863
							c-4.162,0-4.507-4.369-4.507-7.932c0-5.037,1.771-9.152,6.186-9.152c0.69,0,1.403,0.023,1.886,0.115V871.232z
							 M1069.328,877.189c-2.139,0-3.082,1.494-3.082,3.633c0,1.932,0.414,4.943,2.967,4.943c2.322,0,2.943-2.023,2.943-4.598
							C1072.156,879.258,1071.719,877.189,1069.328,877.189z"/>
					</g>
				</g>
			</g>
			<g>
				<g style="opacity:0.6;">
					<g>
						<rect x="1067.623" y="832.93" style="fill:#FFFFFF;" width="0.562" height="6.436"/>
						<rect x="1067.812" y="624.36" style="fill:#FFFFFF;" width="0.559" height="6.443"/>
					</g>
					<g>
						
							<rect x="1056.724" y="832.35" transform="matrix(0.9942 0.1076 -0.1076 0.9942 96.0196 -108.8582)" style="fill:#FFFFFF;" width="0.563" height="6.435"/>
						
							<rect x="1078.709" y="624.942" transform="matrix(0.9941 0.1085 -0.1085 0.9941 74.5333 -113.3723)" style="fill:#FFFFFF;" width="0.558" height="6.442"/>
					</g>
					<g>
						
							<rect x="1045.947" y="830.633" transform="matrix(0.9774 0.2114 -0.2114 0.9774 199.9448 -202.3467)" style="fill:#FFFFFF;" width="0.564" height="6.435"/>
						
							<rect x="1089.487" y="626.658" transform="matrix(0.9777 0.2099 -0.2099 0.9777 156.4776 -214.698)" style="fill:#FFFFFF;" width="0.558" height="6.442"/>
					</g>
					<g>
						
							<rect x="1035.407" y="827.8" transform="matrix(0.9499 0.3126 -0.3126 0.9499 311.6548 -282.0934)" style="fill:#FFFFFF;" width="0.562" height="6.434"/>
						
							<rect x="1100.026" y="629.492" transform="matrix(0.9504 0.311 -0.311 0.9504 251.3199 -310.8022)" style="fill:#FFFFFF;" width="0.559" height="6.443"/>
					</g>
					<g>
						
							<rect x="1025.222" y="823.88" transform="matrix(0.9124 0.4094 -0.4094 0.9124 428.4357 -347.3204)" style="fill:#FFFFFF;" width="0.563" height="6.434"/>
						
							<rect x="1110.21" y="633.411" transform="matrix(0.9128 0.4084 -0.4084 0.9128 356.837 -398.0154)" style="fill:#FFFFFF;" width="0.56" height="6.442"/>
					</g>
					<g>
						
							<rect x="1015.502" y="818.917" transform="matrix(0.8661 0.4999 -0.4999 0.8661 546.9773 -397.6775)" style="fill:#FFFFFF;" width="0.563" height="6.436"/>
						
							<rect x="1119.93" y="638.374" transform="matrix(0.8655 0.5008 -0.5008 0.8655 471.9468 -474.7695)" style="fill:#FFFFFF;" width="0.56" height="6.442"/>
					</g>
					<g>
						
							<rect x="1006.353" y="812.967" transform="matrix(0.8078 0.5894 -0.5894 0.8078 674.5051 -436.4768)" style="fill:#FFFFFF;" width="0.563" height="6.435"/>
						
							<rect x="1129.078" y="644.326" transform="matrix(0.8083 0.5888 -0.5888 0.8083 597.7872 -540.8127)" style="fill:#FFFFFF;" width="0.561" height="6.442"/>
					</g>
					<g>
						
							<rect x="997.877" y="806.092" transform="matrix(0.7426 0.6697 -0.6697 0.7426 798.9424 -460.1847)" style="fill:#FFFFFF;" width="0.563" height="6.435"/>
						
							<rect x="1137.553" y="651.2" transform="matrix(0.7419 0.6705 -0.6705 0.7419 732.4579 -594.019)" style="fill:#FFFFFF;" width="0.561" height="6.442"/>
					</g>
					<g>
						
							<rect x="990.166" y="798.369" transform="matrix(0.6661 0.7459 -0.7459 0.6661 928.61 -471.0889)" style="fill:#FFFFFF;" width="0.563" height="6.435"/>
						
							<rect x="1145.264" y="658.922" transform="matrix(0.6695 0.7428 -0.7428 0.6695 870.3765 -632.0701)" style="fill:#FFFFFF;" width="0.56" height="6.443"/>
					</g>
					<g>
						
							<rect x="983.304" y="789.883" transform="matrix(0.5871 0.8095 -0.8095 0.5871 1048.089 -468.7584)" style="fill:#FFFFFF;" width="0.562" height="6.435"/>
						
							<rect x="1152.126" y="667.409" transform="matrix(0.5877 0.8091 -0.8091 0.5877 1017.8065 -655.8948)" style="fill:#FFFFFF;" width="0.56" height="6.442"/>
					</g>
					<g>
						
							<rect x="977.366" y="780.726" transform="matrix(0.4978 0.8673 -0.8673 0.4978 1170.8547 -454.2136)" style="fill:#FFFFFF;" width="0.563" height="6.435"/>
						
							<rect x="1158.063" y="676.566" transform="matrix(0.4993 0.8664 -0.8664 0.4993 1168.938 -663.2537)" style="fill:#FFFFFF;" width="0.561" height="6.442"/>
					</g>
					<g>
						
							<rect x="972.417" y="770.998" transform="matrix(0.4037 0.9149 -0.9149 0.4037 1288.3104 -428.2581)" style="fill:#FFFFFF;" width="0.564" height="6.435"/>
						
							<rect x="1163.011" y="686.293" transform="matrix(0.4063 0.9137 -0.9137 0.4063 1320.6818 -653.5814)" style="fill:#FFFFFF;" width="0.56" height="6.442"/>
					</g>
					<g>
						
							<rect x="968.514" y="760.806" transform="matrix(0.3074 0.9516 -0.9516 0.3074 1398.0695 -392.7045)" style="fill:#FFFFFF;" width="0.562" height="6.436"/>
						
							<rect x="1166.915" y="696.484" transform="matrix(0.3084 0.9513 -0.9513 0.3084 1472.8636 -626.3789)" style="fill:#FFFFFF;" width="0.561" height="6.442"/>
					</g>
					<g>
						
							<rect x="965.696" y="750.262" transform="matrix(0.2081 0.9781 -0.9781 0.2081 1501.934 -348.153)" style="fill:#FFFFFF;" width="0.563" height="6.436"/>
						
							<rect x="1169.732" y="707.028" transform="matrix(0.2072 0.9783 -0.9783 0.2072 1622.4866 -581.5137)" style="fill:#FFFFFF;" width="0.561" height="6.442"/>
					</g>
					<g>
						
							<rect x="963.995" y="739.484" transform="matrix(0.1005 0.9949 -0.9949 0.1005 1606.2729 -291.3561)" style="fill:#FFFFFF;" width="0.563" height="6.435"/>
						
							<rect x="1171.432" y="717.807" transform="matrix(0.1043 0.9945 -0.9945 0.1043 1766.571 -519.5112)" style="fill:#FFFFFF;" width="0.562" height="6.442"/>
					</g>
					<g>
						<rect x="960.494" y="731.521" style="fill:#FFFFFF;" width="6.436" height="0.563"/>
						<rect x="1169.057" y="731.646" style="fill:#FFFFFF;" width="6.442" height="0.561"/>
					</g>
					<g>
						
							<rect x="964.008" y="717.686" transform="matrix(-0.1074 0.9942 -0.9942 -0.1074 1784.5784 -160.3925)" style="fill:#FFFFFF;" width="0.564" height="6.435"/>
						
							<rect x="1171.419" y="739.604" transform="matrix(-0.1043 0.9945 -0.9945 -0.1043 2032.707 -344.988)" style="fill:#FFFFFF;" width="0.562" height="6.442"/>
					</g>
					<g>
						
							<rect x="965.721" y="706.907" transform="matrix(-0.2098 0.9778 -0.9778 -0.2098 1862.9633 -85.426)" style="fill:#FFFFFF;" width="0.563" height="6.436"/>
						
							<rect x="1169.706" y="750.381" transform="matrix(-0.2072 0.9783 -0.9783 -0.2072 2149.6067 -234.8967)" style="fill:#FFFFFF;" width="0.561" height="6.442"/>
					</g>
					<g>
						
							<rect x="968.552" y="696.367" transform="matrix(-0.3105 0.9506 -0.9506 -0.3105 1934.6615 -4.1435)" style="fill:#FFFFFF;" width="0.563" height="6.436"/>
						
							<rect x="1166.876" y="760.921" transform="matrix(-0.3084 0.9513 -0.9513 -0.3084 2253.9819 -110.4875)" style="fill:#FFFFFF;" width="0.561" height="6.442"/>
					</g>
					<g>
						
							<rect x="972.469" y="686.181" transform="matrix(-0.4094 0.9124 -0.9124 -0.4094 1999.9399 84.0938)" style="fill:#FFFFFF;" width="0.563" height="6.436"/>
						
							<rect x="1162.959" y="771.107" transform="matrix(-0.405 0.9143 -0.9143 -0.405 2342.3413 24.3748)" style="fill:#FFFFFF;" width="0.562" height="6.444"/>
					</g>
					<g>
						
							<rect x="977.428" y="676.459" transform="matrix(-0.5032 0.8642 -0.8642 -0.5032 2057.062 176.8128)" style="fill:#FFFFFF;" width="0.563" height="6.435"/>
						
							<rect x="1157.999" y="780.829" transform="matrix(-0.4993 0.8664 -0.8664 -0.4993 2415.948 171.9902)" style="fill:#FFFFFF;" width="0.561" height="6.443"/>
					</g>
					<g>
						
							<rect x="983.376" y="667.31" transform="matrix(-0.5894 0.8078 -0.8078 -0.5894 2105.1084 271.1082)" style="fill:#FFFFFF;" width="0.563" height="6.435"/>
						
							<rect x="1152.052" y="789.978" transform="matrix(-0.5877 0.8091 -0.8091 -0.5877 2471.2905 326.9587)" style="fill:#FFFFFF;" width="0.56" height="6.443"/>
					</g>
					<g>
						
							<rect x="990.247" y="658.831" transform="matrix(-0.6716 0.7409 -0.7409 -0.6716 2146.3044 372.8426)" style="fill:#FFFFFF;" width="0.564" height="6.435"/>
						
							<rect x="1145.179" y="798.456" transform="matrix(-0.6695 0.7428 -0.7428 -0.6695 2507.8577 487.6161)" style="fill:#FFFFFF;" width="0.56" height="6.442"/>
					</g>
					<g>
						
							<rect x="997.968" y="651.117" transform="matrix(-0.7442 0.6679 -0.6679 -0.7442 2178.2253 474.5773)" style="fill:#FFFFFF;" width="0.563" height="6.435"/>
						
							<rect x="1137.458" y="806.17" transform="matrix(-0.7436 0.6687 -0.6687 -0.7436 2524.929 650.4375)" style="fill:#FFFFFF;" width="0.561" height="6.442"/>
					</g>
					<g>
						
							<rect x="1006.453" y="644.253" transform="matrix(-0.8107 0.5855 -0.5855 -0.8107 2201.9607 582.9274)" style="fill:#FFFFFF;" width="0.564" height="6.435"/>
						
							<rect x="1128.975" y="813.033" transform="matrix(-0.8083 0.5888 -0.5888 -0.8083 2522.6187 811.1232)" style="fill:#FFFFFF;" width="0.561" height="6.444"/>
					</g>
					<g>
						
							<rect x="1015.608" y="638.312" transform="matrix(-0.8665 0.4991 -0.4991 -0.8665 2216.3918 690.3824)" style="fill:#FFFFFF;" width="0.563" height="6.436"/>
						
							<rect x="1119.82" y="818.972" transform="matrix(-0.8667 0.4988 -0.4988 -0.8667 2501.0137 976.1526)" style="fill:#FFFFFF;" width="0.56" height="6.444"/>
					</g>
					<g>
						
							<rect x="1025.334" y="633.361" transform="matrix(-0.9152 0.4029 -0.4029 -0.9152 2220.7832 805.9648)" style="fill:#FFFFFF;" width="0.562" height="6.434"/>
						
							<rect x="1110.094" y="823.923" transform="matrix(-0.9144 0.4048 -0.4048 -0.9144 2460.5483 1133.9473)" style="fill:#FFFFFF;" width="0.56" height="6.443"/>
					</g>
					<g>
						
							<rect x="1035.524" y="629.454" transform="matrix(-0.9518 0.3069 -0.3069 -0.9518 2215.7764 916.9835)" style="fill:#FFFFFF;" width="0.563" height="6.435"/>
						
							<rect x="1099.904" y="827.83" transform="matrix(-0.9508 0.31 -0.31 -0.9508 2403.7727 1280.1714)" style="fill:#FFFFFF;" width="0.561" height="6.444"/>
					</g>
					<g>
						
							<rect x="1046.067" y="626.632" transform="matrix(-0.9788 0.2048 -0.2048 -0.9788 2199.5051 1032.0735)" style="fill:#FFFFFF;" width="0.563" height="6.435"/>
						
							<rect x="1089.361" y="830.651" transform="matrix(-0.978 0.2088 -0.2088 -0.978 2329.3882 1421.8289)" style="fill:#FFFFFF;" width="0.561" height="6.445"/>
					</g>
					<g>
						
							<rect x="1056.846" y="624.929" transform="matrix(-0.9949 0.1005 -0.1005 -0.9949 2172.0498 1146.834)" style="fill:#FFFFFF;" width="0.563" height="6.435"/>
						
							<rect x="1078.581" y="832.354" transform="matrix(-0.9945 0.1043 -0.1043 -0.9945 2239.0063 1554.0433)" style="fill:#FFFFFF;" width="0.562" height="6.445"/>
					</g>
					<g>
						<rect x="1067.746" y="624.36" style="fill:#FFFFFF;" width="0.563" height="6.436"/>
						<rect x="1067.683" y="832.922" style="fill:#FFFFFF;" width="0.562" height="6.443"/>
					</g>
				</g>
				<g>
					
						<rect x="1016.432" y="814.176" transform="matrix(0.8656 0.5008 -0.5008 0.8656 547.3806 -399.1393)" style="fill:#FDFEFF;" width="1.349" height="11.554"/>
					<polygon style="fill:#FDFEFF;" points="1116.507,649.131 1115.339,648.454 1121.13,638.424 1122.297,639.102 					"/>
					
						<rect x="979.197" y="776.944" transform="matrix(0.4996 0.8662 -0.8662 0.4996 1168.3098 -457.1553)" style="fill:#FDFEFF;" width="1.351" height="11.555"/>
					<polygon style="fill:#FDFEFF;" points="1151.367,684.486 1150.694,683.316 1160.725,677.525 1161.396,678.695 					"/>
					<polygon style="fill:#FDFEFF;" points="960.466,732.533 960.466,731.184 972.021,731.189 972.021,732.533 					"/>
					<polygon style="fill:#FDFEFF;" points="1163.88,732.533 1163.883,731.184 1175.464,731.184 1175.461,732.533 					"/>
					
						<rect x="979.196" y="675.222" transform="matrix(-0.5003 0.8659 -0.8659 -0.5003 2059.7241 173.2387)" style="fill:#FDFEFF;" width="1.349" height="11.555"/>
					<polygon style="fill:#FDFEFF;" points="1150.692,780.4 1151.369,779.234 1161.399,785.023 1160.722,786.191 					"/>
					
						<rect x="1016.427" y="637.989" transform="matrix(-0.8661 0.5 -0.5 -0.8661 2219.8191 692.8011)" style="fill:#FDFEFF;" width="1.35" height="11.555"/>
					<polygon style="fill:#FDFEFF;" points="1115.338,815.262 1116.507,814.59 1122.299,824.619 1121.129,825.291 					"/>
					<rect x="1067.288" y="624.359" style="fill:#FDFEFF;" width="1.35" height="11.557"/>
					<polygon style="fill:#FDFEFF;" points="1067.29,827.773 1068.638,827.777 1068.64,839.357 1067.29,839.355 					"/>
				</g>
			</g>
		</g>
	</g>
</g>
</svg>
